[
{"position":1.0,"instrument":"TheGrandeurPiano","level2":0,"level3":null,"pitch":84,"articulation":"standard","articulation_tags":["standard","long"],"duration":0.9375,"velocity":16.0},
{"position":1.0729166666666667,"instrument":"Violin","level2":0,"level3":0,"pitch":88,"articulation":"pizzicato","articulation_tags":["pizzicato","pz","short"],"duration":0.125,"velocity":72.0},
{"position":1.2083333333333333,"instrument":"Violin","level2":0,"level3":1,"pitch":88,"articulation":"collegno","articulation_tags":["collegno","cl","short"],"duration":0.125,"velocity":72.0},
{"position":1.2083333333333333,"instrument":"Violin","level2":0,"level3":2,"pitch":88,"articulation":"pizzicato","articulation_tags":["pizzicato","pz","short"],"duration":0.125,"velocity":72.0},
{"position":1.4166666666666667,"instrument":"Violin","level2":0,"level3":3,"pitch":88,"articulation":"collegno","articulation_tags":["collegno","cl","short"],"duration":0.125,"velocity":72.0},
{"position":1.4166666666666667,"instrument":"Violin","level2":0,"level3":4,"pitch":89,"articulation":"collegno","articulation_tags":["collegno","cl","short"],"duration":0.125,"velocity":72.0},
{"position":1.4479166666666667,"instrument":"Violin","level2":0,"level3":4,"pitch":89,"articulation":"collegno","articulation_tags":["collegno","cl","short"],"duration":0.125,"velocity":72.0},
{"position":1.6145833333333333,"instrument":"Violin","level2":0,"level3":0,"pitch":88,"articulation":"pizzicato","articulation_tags":["pizzicato","pz","short"],"duration":0.125,"velocity":72.0},
{"position":1.625,"instrument":"Violin","level2":0,"level3":5,"pitch":88,"articulation":"collegno","articulation_tags":["collegno","cl","short"],"duration":0.125,"velocity":72.0},
{"position":1.625,"instrument":"Violin","level2":0,"level3":6,"pitch":88,"articulation":"collegno","articulation_tags":["collegno","cl","short"],"duration":0.125,"velocity":72.0},
{"position":1.75,"instrument":"Violin","level2":0,"level3":6,"pitch":88,"articulation":"collegno","articulation_tags":["collegno","cl","short"],"duration":0.125,"velocity":72.0},
{"position":1.8333333333333333,"instrument":"Violin","level2":0,"level3":7,"pitch":89,"articulation":"collegno","articulation_tags":["collegno","cl","short"],"duration":0.125,"velocity":72.0},
{"position":1.8333333333333333,"instrument":"Violin","level2":0,"level3":8,"pitch":89,"articulation":"collegno","articulation_tags":["collegno","cl","short"],"duration":0.125,"velocity":72.0},
{"position":1.84375,"instrument":"Violin","level2":0,"level3":8,"pitch":89,"articulation":"collegno","articulation_tags":["collegno","cl","short"],"duration":0.125,"velocity":72.0},
{"position":2.0416666666666665,"instrument":"Violin","level2":0,"level3":9,"pitch":89,"articulation":"collegno","articulation_tags":["collegno","cl","short"],"duration":0.125,"velocity":72.0},
{"position":2.0416666666666665,"instrument":"Violin","level2":0,"level3":10,"pitch":89,"articulation":"collegno","articulation_tags":["collegno","cl","short"],"duration":0.125,"velocity":72.0},
{"position":2.0520833333333335,"instrument":"Violin","level2":0,"level3":10,"pitch":89,"articulation":"collegno","articulation_tags":["collegno","cl","short"],"duration":0.125,"velocity":72.0},
{"position":2.1145833333333335,"instrument":"Violin","level2":0,"level3":5,"pitch":88,"articulation":"collegno","articulation_tags":["collegno","cl","short"],"duration":0.125,"velocity":72.0},
{"position":2.2604166666666665,"instrument":"Violin","level2":0,"level3":2,"pitch":88,"articulation":"pizzicato","articulation_tags":["pizzicato","pz","short"],"duration":0.125,"velocity":72.0},
{"position":2.3333333333333335,"instrument":"Violin","level2":0,"level3":1,"pitch":88,"articulation":"collegno","articulation_tags":["collegno","cl","short"],"duration":0.125,"velocity":72.0},
{"position":2.34375,"instrument":"Violin","level2":0,"level3":7,"pitch":89,"articulation":"collegno","articulation_tags":["collegno","cl","short"],"duration":0.125,"velocity":72.0},
{"position":2.375,"instrument":"Violin","level2":0,"level3":3,"pitch":88,"articulation":"collegno","articulation_tags":["collegno","cl","short"],"duration":0.125,"velocity":72.0},
{"position":2.3854166666666665,"instrument":"Violin","level2":0,"level3":9,"pitch":89,"articulation":"collegno","articulation_tags":["collegno","cl","short"],"duration":0.125,"velocity":72.0},
{"position":2.40625,"instrument":"TheGrandeurPiano","level2":0,"level3":null,"pitch":84,"articulation":"standard","articulation_tags":["standard","long"],"duration":2.322834645669291,"velocity":16.0},
{"position":2.5208333333333335,"instrument":"Violin","level2":0,"level3":0,"pitch":88,"articulation":"pizzicato","articulation_tags":["pizzicato","pz","short"],"duration":0.125,"velocity":72.3385452908632},
{"position":2.59375,"instrument":"Violin","level2":0,"level3":0,"pitch":88,"articulation":"collegno","articulation_tags":["collegno","cl","short"],"duration":0.125,"velocity":72.3385452908632},
{"position":2.65625,"instrument":"Violin","level2":0,"level3":8,"pitch":89,"articulation":"collegno","articulation_tags":["collegno","cl","short"],"duration":0.125,"velocity":72.3385452908632},
{"position":2.90625,"instrument":"Violin","level2":0,"level3":10,"pitch":90,"articulation":"collegno","articulation_tags":["collegno","cl","short"],"duration":0.125,"velocity":72.3385452908632},
{"position":3.375,"instrument":"Violin","level2":0,"level3":7,"pitch":88,"articulation":"collegno","articulation_tags":["collegno","cl","short"],"duration":0.125,"velocity":72.3385452908632},
{"position":3.4791666666666665,"instrument":"TheGrandeurPiano","level2":0,"level3":null,"pitch":84,"articulation":"standard","articulation_tags":["standard","long"],"duration":2.322834645669291,"velocity":16.0},
{"position":3.5625,"instrument":"Violin","level2":0,"level3":4,"pitch":89,"articulation":"pizzicato","articulation_tags":["pizzicato","pz","short"],"duration":0.125,"velocity":72.47877534181629},
{"position":3.6979166666666665,"instrument":"Violin","level2":0,"level3":3,"pitch":88,"articulation":"collegno","articulation_tags":["collegno","cl","short"],"duration":0.125,"velocity":72.47877534181629},
{"position":3.7708333333333335,"instrument":"Violin","level2":0,"level3":10,"pitch":90,"articulation":"collegno","articulation_tags":["collegno","cl","short"],"duration":0.125,"velocity":72.47877534181629},
{"position":3.9479166666666665,"instrument":"Violin","level2":0,"level3":3,"pitch":88,"articulation":"collegno","articulation_tags":["collegno","cl","short"],"duration":0.125,"velocity":72.47877534181629},
{"position":4.791666666666667,"instrument":"Violin","level2":0,"level3":9,"pitch":88,"articulation":"collegno","articulation_tags":["collegno","cl","short"],"duration":0.125,"velocity":72.47877534181629},
{"position":4.885416666666667,"instrument":"Violin","level2":0,"level3":6,"pitch":88,"articulation":"pizzicato","articulation_tags":["pizzicato","pz","short"],"duration":0.125,"velocity":72.47877534181629},
{"position":5.5625,"instrument":"Violin","level2":0,"level3":5,"pitch":88,"articulation":"collegno","articulation_tags":["collegno","cl","short"],"duration":0.125,"velocity":72.47877534181629},
{"position":6.197916666666667,"instrument":"Violin","level2":0,"level3":8,"pitch":89,"articulation":"pizzicato","articulation_tags":["pizzicato","pz","short"],"duration":0.125,"velocity":72.47877534181629},
{"position":7.177083333333333,"instrument":"Violin","level2":0,"level3":7,"pitch":88,"articulation":"collegno","articulation_tags":["collegno","cl","short"],"duration":0.125,"velocity":72.47877534181629},
{"position":7.520833333333333,"instrument":"Violin","level2":0,"level3":10,"pitch":90,"articulation":"pizzicato","articulation_tags":["pizzicato","pz","short"],"duration":0.125,"velocity":72.47877534181629},
{"position":8.78125,"instrument":"Violin","level2":0,"level3":2,"pitch":88,"articulation":"pizzicato","articulation_tags":["pizzicato","pz","short"],"duration":0.125,"velocity":72.47877534181629},
{"position":8.791666666666666,"instrument":"Violin","level2":0,"level3":9,"pitch":88,"articulation":"collegno","articulation_tags":["collegno","cl","short"],"duration":0.125,"velocity":72.47877534181629},
{"position":8.927083333333334,"instrument":"TheGrandeurPiano","level2":0,"level3":null,"pitch":84,"articulation":"standard","articulation_tags":["standard","long"],"duration":2.322834645669291,"velocity":19.873107438527217},
{"position":8.958333333333334,"instrument":"Violin","level2":0,"level3":4,"pitch":88,"articulation":"pizzicato","articulation_tags":["pizzicato","pz","short"],"duration":0.125,"velocity":72.3385452908632},
{"position":10.28125,"instrument":"Violin","level2":0,"level3":3,"pitch":88,"articulation":"pizzicato","articulation_tags":["pizzicato","pz","short"],"duration":0.125,"velocity":72.3385452908632},
{"position":11.125,"instrument":"Violin","level2":0,"level3":6,"pitch":88,"articulation":"pizzicato","articulation_tags":["pizzicato","pz","short"],"duration":0.125,"velocity":72.3385452908632},
{"position":11.34375,"instrument":"Violin","level2":0,"level3":4,"pitch":88,"articulation":"pizzicato","articulation_tags":["pizzicato","pz","short"],"duration":0.125,"velocity":72.3385452908632},
{"position":11.916666666666666,"instrument":"Violin","level2":0,"level3":8,"pitch":89,"articulation":"pizzicato","articulation_tags":["pizzicato","pz","short"],"duration":0.125,"velocity":72.3385452908632},
{"position":11.989583333333334,"instrument":"Violin","level2":0,"level3":5,"pitch":87,"articulation":"collegno","articulation_tags":["collegno","cl","short"],"duration":0.125,"velocity":72.3385452908632},
{"position":12.416666666666666,"instrument":"Violin","level2":0,"level3":7,"pitch":88,"articulation":"collegno","articulation_tags":["collegno","cl","short"],"duration":0.125,"velocity":72.3385452908632},
{"position":12.5,"instrument":"TheGrandeurPiano","level2":0,"level3":null,"pitch":84,"articulation":"standard","articulation_tags":["standard","long"],"duration":1.4375,"velocity":18.738700534046654},
{"position":12.75,"instrument":"Violin","level2":0,"level3":5,"pitch":87,"articulation":"collegno","articulation_tags":["collegno","cl","short"],"duration":0.125,"velocity":72.47877534181629},
{"position":12.927083333333334,"instrument":"Violin","level2":0,"level3":7,"pitch":87,"articulation":"collegno","articulation_tags":["collegno","cl","short"],"duration":0.125,"velocity":72.47877534181629},
{"position":12.947916666666666,"instrument":"Violin","level2":0,"level3":10,"pitch":90,"articulation":"pizzicato","articulation_tags":["pizzicato","pz","short"],"duration":0.125,"velocity":72.47877534181629},
{"position":14.25,"instrument":"Violin","level2":0,"level3":9,"pitch":87,"articulation":"collegno","articulation_tags":["collegno","cl","short"],"duration":0.125,"velocity":72.47877534181629},
{"position":14.65625,"instrument":"TheGrandeurPiano","level2":0,"level3":null,"pitch":84,"articulation":"standard","articulation_tags":["standard","long"],"duration":1.1319444444444444,"velocity":22.123920564143297},
{"position":15.541666666666666,"instrument":"Violin","level2":0,"level3":10,"pitch":89,"articulation":"pizzicato","articulation_tags":["pizzicato","pz","short"],"duration":0.125,"velocity":72.75701028383256},
{"position":15.78125,"instrument":"Violin","level2":0,"level3":4,"pitch":88,"articulation":"pizzicato","articulation_tags":["pizzicato","pz","short"],"duration":0.125,"velocity":72.75701028383256},
{"position":16.354166666666668,"instrument":"TheGrandeurPiano","level2":0,"level3":null,"pitch":84,"articulation":"standard","articulation_tags":["standard","long"],"duration":0.9722222222222222,"velocity":22.123920564143297},
{"position":16.447916666666668,"instrument":"TheGrandeurPiano","level2":0,"level3":null,"pitch":85,"articulation":"standard","articulation_tags":["standard","long"],"duration":1.3263888888888888,"velocity":22.123920564143297},
{"position":16.927083333333332,"instrument":"Violin","level2":0,"level3":8,"pitch":89,"articulation":"pizzicato","articulation_tags":["pizzicato","pz","short"],"duration":0.125,"velocity":73.22064240527413},
{"position":17.03125,"instrument":"Violin","level2":0,"level3":6,"pitch":88,"articulation":"pizzicato","articulation_tags":["pizzicato","pz","short"],"duration":0.125,"velocity":73.22064240527413},
{"position":17.645833333333332,"instrument":"Violin","level2":0,"level3":5,"pitch":87,"articulation":"pizzicato","articulation_tags":["pizzicato","pz","short"],"duration":0.125,"velocity":73.22064240527413},
{"position":17.8125,"instrument":"TheGrandeurPiano","level2":0,"level3":null,"pitch":85,"articulation":"standard","articulation_tags":["standard","long"],"duration":0.8680555555555556,"velocity":22.123920564143297},
{"position":17.989583333333332,"instrument":"Violin","level2":0,"level3":4,"pitch":88,"articulation":"pizzicato","articulation_tags":["pizzicato","pz","short"],"duration":0.125,"velocity":73.51402056766511},
{"position":18.4375,"instrument":"TheGrandeurPiano","level2":0,"level3":null,"pitch":85,"articulation":"standard","articulation_tags":["standard","long"],"duration":0.8263888888888888,"velocity":21.477401068093315},
{"position":18.739583333333332,"instrument":"Violin","level2":0,"level3":4,"pitch":87,"articulation":"pizzicato","articulation_tags":["pizzicato","pz","short"],"duration":0.125,"velocity":73.692726454316},
{"position":19.114583333333332,"instrument":"TheGrandeurPiano","level2":0,"level3":null,"pitch":85,"articulation":"standard","articulation_tags":["standard","long"],"duration":0.8055555555555556,"velocity":21.477401068093315},
{"position":19.677083333333332,"instrument":"TheGrandeurPiano","level2":0,"level3":null,"pitch":86,"articulation":"standard","articulation_tags":["standard","long"],"duration":0.6111111111111112,"velocity":21.477401068093315},
{"position":20.322916666666668,"instrument":"TheGrandeurPiano","level2":0,"level3":null,"pitch":86,"articulation":"standard","articulation_tags":["standard","long"],"duration":0.7777777777777778,"velocity":22.123920564143297},
{"position":20.395833333333332,"instrument":"Violin","level2":0,"level3":7,"pitch":87,"articulation":"collegno","articulation_tags":["collegno","cl","short"],"duration":0.125,"velocity":74.44128481054828},
{"position":20.520833333333332,"instrument":"Violin","level2":0,"level3":10,"pitch":89,"articulation":"pizzicato_bartok","articulation_tags":["pizzicato_bartok","pzb","short","pizzicato","bartok"],"duration":0.125,"velocity":74.44128481054828},
{"position":20.59375,"instrument":"TheGrandeurPiano","level2":0,"level3":null,"pitch":86,"articulation":"standard","articulation_tags":["standard","long"],"duration":0.4861111111111111,"velocity":22.123920564143297},
{"position":20.979166666666668,"instrument":"Violin","level2":0,"level3":8,"pitch":89,"articulation":"pizzicato_bartok","articulation_tags":["pizzicato_bartok","pzb","short","pizzicato","bartok"],"duration":0.125,"velocity":74.64412324824403},
{"position":21.270833333333332,"instrument":"Violin","level2":0,"level3":9,"pitch":87,"articulation":"collegno","articulation_tags":["collegno","cl","short"],"duration":0.125,"velocity":74.64412324824403},
{"position":21.322916666666668,"instrument":"TheGrandeurPiano","level2":0,"level3":null,"pitch":87,"articulation":"standard","articulation_tags":["standard","long"],"duration":0.4027777777777778,"velocity":22.123920564143297},
{"position":21.489583333333332,"instrument":"TheGrandeurPiano","level2":0,"level3":null,"pitch":87,"articulation":"standard","articulation_tags":["standard","long"],"duration":0.8125,"velocity":23.746214877054438},
{"position":21.864583333333332,"instrument":"Violin","level2":0,"level3":9,"pitch":87,"articulation":"collegno","articulation_tags":["collegno","cl","short"],"duration":0.125,"velocity":75.12123335992042},
{"position":21.927083333333332,"instrument":"TheGrandeurPiano","level2":0,"level3":null,"pitch":87,"articulation":"standard","articulation_tags":["standard","long"],"duration":0.3402777777777778,"velocity":23.746214877054438},
{"position":22.4375,"instrument":"TheGrandeurPiano","level2":0,"level3":null,"pitch":88,"articulation":"standard","articulation_tags":["standard","long"],"duration":0.2986111111111111,"velocity":23.746214877054438},
{"position":22.708333333333332,"instrument":"TheGrandeurPiano","level2":0,"level3":null,"pitch":88,"articulation":"standard","articulation_tags":["standard","long"],"duration":2.0555555555555554,"velocity":23.746214877054438},
{"position":22.833333333333332,"instrument":"Violin","level2":0,"level3":6,"pitch":88,"articulation":"pizzicato","articulation_tags":["pizzicato","pz","short"],"duration":0.125,"velocity":75.83020273453026},
{"position":22.885416666666668,"instrument":"TheGrandeurPiano","level2":0,"level3":null,"pitch":88,"articulation":"standard","articulation_tags":["standard","long"],"duration":0.2638888888888889,"velocity":23.746214877054438},
{"position":23.270833333333332,"instrument":"TheGrandeurPiano","level2":0,"level3":null,"pitch":89,"articulation":"standard","articulation_tags":["standard","long"],"duration":0.2361111111111111,"velocity":24.660531516706953},
{"position":23.625,"instrument":"TheGrandeurPiano","level2":0,"level3":null,"pitch":89,"articulation":"standard","articulation_tags":["standard","long"],"duration":0.20833333333333334,"velocity":24.660531516706953},
{"position":23.9375,"instrument":"TheGrandeurPiano","level2":0,"level3":null,"pitch":90,"articulation":"standard","articulation_tags":["standard","long"],"duration":0.19444444444444445,"velocity":24.660531516706953},
{"position":24.229166666666668,"instrument":"TheGrandeurPiano","level2":0,"level3":null,"pitch":90,"articulation":"standard","articulation_tags":["standard","long"],"duration":0.18055555555555555,"velocity":24.660531516706953},
{"position":24.489583333333332,"instrument":"TheGrandeurPiano","level2":0,"level3":null,"pitch":91,"articulation":"standard","articulation_tags":["standard","long"],"duration":0.16666666666666666,"velocity":24.216101602139968},
{"position":24.5,"instrument":"Violin","level2":0,"level3":8,"pitch":88,"articulation":"pizzicato_bartok","articulation_tags":["pizzicato_bartok","pzb","short","pizzicato","bartok"],"duration":0.125,"velocity":77.45887878882365},
{"position":24.75,"instrument":"TheGrandeurPiano","level2":0,"level3":null,"pitch":91,"articulation":"standard","articulation_tags":["standard","long"],"duration":0.1597222222222222,"velocity":24.216101602139968},
{"position":24.979166666666668,"instrument":"TheGrandeurPiano","level2":0,"level3":null,"pitch":92,"articulation":"standard","articulation_tags":["standard","long"],"duration":0.1527777777777778,"velocity":24.216101602139968},
{"position":25.0,"instrument":"Violin","level2":0,"level3":7,"pitch":87,"articulation":"pizzicato","articulation_tags":["pizzicato","pz","short"],"duration":0.125,"velocity":78.05608227066044},
{"position":25.114583333333332,"instrument":"Violin","level2":0,"level3":10,"pitch":89,"articulation":"pizzicato_bartok","articulation_tags":["pizzicato_bartok","pzb","short","pizzicato","bartok"],"duration":0.125,"velocity":78.05608227066044},
{"position":25.208333333333332,"instrument":"TheGrandeurPiano","level2":0,"level3":null,"pitch":92,"articulation":"standard","articulation_tags":["standard","long"],"duration":0.1527777777777778,"velocity":24.216101602139968},
{"position":25.4375,"instrument":"TheGrandeurPiano","level2":0,"level3":null,"pitch":93,"articulation":"standard","articulation_tags":["standard","long"],"duration":0.1527777777777778,"velocity":24.216101602139968},
{"position":25.666666666666668,"instrument":"TheGrandeurPiano","level2":0,"level3":null,"pitch":93,"articulation":"standard","articulation_tags":["standard","long"],"duration":0.1527777777777778,"velocity":24.216101602139968},
{"position":25.791666666666668,"instrument":"TheGrandeurPiano","level2":0,"level3":null,"pitch":93,"articulation":"standard","articulation_tags":["standard","long"],"duration":0.3819444444444444,"velocity":24.660531516706953},
{"position":25.895833333333332,"instrument":"TheGrandeurPiano","level2":0,"level3":null,"pitch":94,"articulation":"standard","articulation_tags":["standard","long"],"duration":0.1597222222222222,"velocity":24.660531516706953},
{"position":26.135416666666668,"instrument":"TheGrandeurPiano","level2":0,"level3":null,"pitch":94,"articulation":"standard","articulation_tags":["standard","long"],"duration":0.1736111111111111,"velocity":24.660531516706953},
{"position":26.364583333333332,"instrument":"Violin","level2":0,"level3":6,"pitch":87,"articulation":"pizzicato","articulation_tags":["pizzicato","pz","short"],"duration":0.125,"velocity":79.49401947176334},
{"position":26.364583333333332,"instrument":"TheGrandeurPiano","level2":0,"level3":null,"pitch":94,"articulation":"standard","articulation_tags":["standard","long"],"duration":0.3125,"velocity":24.660531516706953},
{"position":26.385416666666668,"instrument":"TheGrandeurPiano","level2":0,"level3":null,"pitch":95,"articulation":"standard","articulation_tags":["standard","long"],"duration":0.1875,"velocity":24.660531516706953},
{"position":26.677083333333332,"instrument":"TheGrandeurPiano","level2":0,"level3":null,"pitch":95,"articulation":"standard","articulation_tags":["standard","long"],"duration":0.2222222222222222,"velocity":24.660531516706953},
{"position":26.84375,"instrument":"TheGrandeurPiano","level2":0,"level3":null,"pitch":95,"articulation":"standard","articulation_tags":["standard","long"],"duration":0.2986111111111111,"velocity":24.660531516706953},
{"position":26.947916666666668,"instrument":"Violin","level2":0,"level3":7,"pitch":87,"articulation":"pizzicato","articulation_tags":["pizzicato","pz","short"],"duration":0.125,"velocity":79.96840977466455},
{"position":27.0,"instrument":"TheGrandeurPiano","level2":0,"level3":null,"pitch":96,"articulation":"standard","articulation_tags":["standard","long"],"duration":0.2708333333333333,"velocity":25.87452520364583},
{"position":27.291666666666668,"instrument":"TheGrandeurPiano","level2":0,"level3":null,"pitch":96,"articulation":"standard","articulation_tags":["standard","long"],"duration":0.2986111111111111,"velocity":25.87452520364583},
{"position":27.40625,"instrument":"TheGrandeurPiano","level2":0,"level3":null,"pitch":96,"articulation":"standard","articulation_tags":["standard","long"],"duration":0.3541666666666667,"velocity":25.87452520364583},
{"position":27.739583333333332,"instrument":"TheGrandeurPiano","level2":0,"level3":null,"pitch":96,"articulation":"standard","articulation_tags":["standard","long"],"duration":0.3125,"velocity":25.87452520364583},
{"position":27.875,"instrument":"Violin","level2":0,"level3":9,"pitch":87,"articulation":"collegno","articulation_tags":["collegno","cl","short"],"duration":0.125,"velocity":80.52292010543994},
{"position":27.9375,"instrument":"TheGrandeurPiano","level2":0,"level3":null,"pitch":85,"articulation":"standard","articulation_tags":["standard","long"],"duration":0.5555555555555556,"velocity":23.746214877054438},
{"position":28.197916666666668,"instrument":"TheGrandeurPiano","level2":0,"level3":null,"pitch":85,"articulation":"standard","articulation_tags":["standard","long"],"duration":0.3263888888888889,"velocity":25.87452520364583},
{"position":28.6875,"instrument":"TheGrandeurPiano","level2":0,"level3":null,"pitch":85,"articulation":"standard","articulation_tags":["standard","long"],"duration":0.3472222222222222,"velocity":25.87452520364583},
{"position":28.770833333333332,"instrument":"TheGrandeurPiano","level2":0,"level3":null,"pitch":85,"articulation":"standard","articulation_tags":["standard","long"],"duration":2.338582677165354,"velocity":25.87452520364583},
{"position":29.208333333333332,"instrument":"TheGrandeurPiano","level2":0,"level3":null,"pitch":85,"articulation":"standard","articulation_tags":["standard","long"],"duration":0.375,"velocity":25.87452520364583},
{"position":29.770833333333332,"instrument":"TheGrandeurPiano","level2":0,"level3":null,"pitch":85,"articulation":"standard","articulation_tags":["standard","long"],"duration":0.4097222222222222,"velocity":24.660531516706953},
{"position":29.895833333333332,"instrument":"Violin","level2":0,"level3":8,"pitch":88,"articulation":"pizzicato_bartok","articulation_tags":["pizzicato_bartok","pzb","short","pizzicato","bartok"],"duration":0.125,"velocity":81.10893182308953},
{"position":30.385416666666668,"instrument":"TheGrandeurPiano","level2":0,"level3":null,"pitch":85,"articulation":"standard","articulation_tags":["standard","long"],"duration":0.4444444444444444,"velocity":27.291951578809858},
{"position":31.052083333333332,"instrument":"TheGrandeurPiano","level2":0,"level3":null,"pitch":85,"articulation":"standard","articulation_tags":["standard","long"],"duration":0.4930555555555556,"velocity":26.95480213618663},
{"position":31.291666666666668,"instrument":"Clarinet","level2":0,"level3":11,"pitch":88,"articulation":"staccato","articulation_tags":["staccato","st","short"],"duration":0.125,"velocity":81.15597551661844},
{"position":31.291666666666668,"instrument":"Clarinet","level2":0,"level3":12,"pitch":88,"articulation":"staccato","articulation_tags":["staccato","st","short"],"duration":0.125,"velocity":81.15597551661844},
{"position":31.520833333333332,"instrument":"Clarinet","level2":0,"level3":11,"pitch":88,"articulation":"staccato","articulation_tags":["staccato","st","short"],"duration":0.125,"velocity":81.15597551661844},
{"position":31.791666666666668,"instrument":"Clarinet","level2":0,"level3":10,"pitch":88,"articulation":"marcato","articulation_tags":["marcato","short"],"duration":0.125,"velocity":81.15597551661844},
{"position":31.802083333333332,"instrument":"TheGrandeurPiano","level2":0,"level3":null,"pitch":85,"articulation":"standard","articulation_tags":["standard","long"],"duration":0.5555555555555556,"velocity":27.291951578809858},
{"position":32.34375,"instrument":"Clarinet","level2":0,"level3":9,"pitch":87,"articulation":"staccato","articulation_tags":["staccato","st","short"],"duration":0.125,"velocity":81.19693000591477},
{"position":32.614583333333336,"instrument":"Piccolo","level2":0,"level3":12,"pitch":89,"articulation":"staccato","articulation_tags":["staccato","st","short"],"duration":0.125,"velocity":81.19693000591477},
{"position":32.635416666666664,"instrument":"TheGrandeurPiano","level2":0,"level3":null,"pitch":85,"articulation":"standard","articulation_tags":["standard","long"],"duration":0.6319444444444444,"velocity":28.247841128286595},
{"position":32.90625,"instrument":"TheGrandeurPiano","level2":0,"level3":null,"pitch":85,"articulation":"standard","articulation_tags":["standard","long"],"duration":1.0902777777777777,"velocity":25.87452520364583},
{"position":33.572916666666664,"instrument":"TheGrandeurPiano","level2":0,"level3":null,"pitch":85,"articulation":"standard","articulation_tags":["standard","long"],"duration":0.7361111111111112,"velocity":27.619322315581655},
{"position":33.645833333333336,"instrument":"Clarinet","level2":0,"level3":8,"pitch":87,"articulation":"marcato","articulation_tags":["marcato","short"],"duration":0.125,"velocity":81.00213184223766},
{"position":34.052083333333336,"instrument":"Clarinet","level2":0,"level3":11,"pitch":87,"articulation":"staccato","articulation_tags":["staccato","st","short"],"duration":0.125,"velocity":81.00213184223766},
{"position":34.15625,"instrument":"Clarinet","level2":0,"level3":8,"pitch":87,"articulation":"staccato","articulation_tags":["staccato","st","short"],"duration":0.125,"velocity":81.00213184223766},
{"position":34.541666666666664,"instrument":"TheGrandeurPiano","level2":0,"level3":null,"pitch":96,"articulation":"standard","articulation_tags":["standard","long"],"duration":0.8888888888888888,"velocity":28.247841128286595},
{"position":34.677083333333336,"instrument":"TheGrandeurPiano","level2":0,"level3":null,"pitch":96,"articulation":"standard","articulation_tags":["standard","long"],"duration":0.8819444444444444,"velocity":28.247841128286595},
{"position":34.875,"instrument":"Clarinet","level2":0,"level3":9,"pitch":87,"articulation":"staccato","articulation_tags":["staccato","st","short"],"duration":0.125,"velocity":80.77213830075053},
{"position":35.15625,"instrument":"Piccolo","level2":0,"level3":12,"pitch":89,"articulation":"staccato","articulation_tags":["staccato","st","short"],"duration":0.125,"velocity":80.77213830075053},
{"position":35.15625,"instrument":"Clarinet","level2":0,"level3":9,"pitch":87,"articulation":"staccato","articulation_tags":["staccato","st","short"],"duration":0.125,"velocity":80.77213830075053},
{"position":35.875,"instrument":"TheGrandeurPiano","level2":0,"level3":null,"pitch":96,"articulation":"standard","articulation_tags":["standard","long"],"duration":0.8055555555555556,"velocity":27.291951578809858},
{"position":36.0,"instrument":"TheGrandeurPiano","level2":0,"level3":null,"pitch":96,"articulation":"standard","articulation_tags":["standard","long"],"duration":1.1458333333333333,"velocity":27.291951578809858},
{"position":37.072916666666664,"instrument":"TheGrandeurPiano","level2":0,"level3":null,"pitch":95,"articulation":"standard","articulation_tags":["standard","long"],"duration":0.7569444444444444,"velocity":29.69350267023328},
{"position":37.125,"instrument":"Clarinet","level2":0,"level3":10,"pitch":88,"articulation":"marcato","articulation_tags":["marcato","short"],"duration":0.125,"velocity":80.24411656768812},
{"position":37.71875,"instrument":"TheGrandeurPiano","level2":0,"level3":null,"pitch":95,"articulation":"standard","articulation_tags":["standard","long"],"duration":1.8194444444444444,"velocity":29.96468746499088},
{"position":38.208333333333336,"instrument":"TheGrandeurPiano","level2":0,"level3":null,"pitch":95,"articulation":"standard","articulation_tags":["standard","long"],"duration":0.7291666666666666,"velocity":30.748353733228523},
{"position":38.333333333333336,"instrument":"Clarinet","level2":0,"level3":11,"pitch":87,"articulation":"staccato","articulation_tags":["staccato","st","short"],"duration":0.125,"velocity":80.0471296988797},
{"position":39.302083333333336,"instrument":"TheGrandeurPiano","level2":0,"level3":null,"pitch":94,"articulation":"standard","articulation_tags":["standard","long"],"duration":0.7083333333333334,"velocity":29.69350267023328},
{"position":39.427083333333336,"instrument":"Clarinet","level2":0,"level3":11,"pitch":87,"articulation":"staccato","articulation_tags":["staccato","st","short"],"duration":0.125,"velocity":79.7348523638185},
{"position":40.364583333333336,"instrument":"TheGrandeurPiano","level2":0,"level3":null,"pitch":94,"articulation":"standard","articulation_tags":["standard","long"],"duration":0.6944444444444444,"velocity":29.69350267023328},
{"position":40.458333333333336,"instrument":"TheGrandeurPiano","level2":0,"level3":null,"pitch":94,"articulation":"standard","articulation_tags":["standard","long"],"duration":2.4803149606299213,"velocity":29.69350267023328},
{"position":41.40625,"instrument":"TheGrandeurPiano","level2":0,"level3":null,"pitch":93,"articulation":"standard","articulation_tags":["standard","long"],"duration":0.6736111111111112,"velocity":30.748353733228523},
{"position":41.572916666666664,"instrument":"Piccolo","level2":0,"level3":10,"pitch":87,"articulation":"marcato","articulation_tags":["marcato","short"],"duration":0.125,"velocity":79.26887565846081},
{"position":41.979166666666664,"instrument":"Piccolo","level2":0,"level3":11,"pitch":87,"articulation":"tenuto","articulation_tags":["tenuto","t","short"],"duration":0.125,"velocity":79.26887565846081},
{"position":42.416666666666664,"instrument":"TheGrandeurPiano","level2":0,"level3":null,"pitch":93,"articulation":"standard","articulation_tags":["standard","long"],"duration":0.5972222222222222,"velocity":29.96468746499088},
{"position":43.208333333333336,"instrument":"Piccolo","level2":0,"level3":10,"pitch":87,"articulation":"tenuto","articulation_tags":["tenuto","t","short"],"duration":0.125,"velocity":78.97107420140075},
{"position":43.3125,"instrument":"TheGrandeurPiano","level2":0,"level3":null,"pitch":92,"articulation":"standard","articulation_tags":["standard","long"],"duration":0.5763888888888888,"velocity":32.432203204279936},
{"position":43.770833333333336,"instrument":"Piccolo","level2":0,"level3":11,"pitch":87,"articulation":"tenuto","articulation_tags":["tenuto","t","short"],"duration":0.125,"velocity":78.67715684499305},
{"position":43.90625,"instrument":"Piccolo","level2":0,"level3":11,"pitch":87,"articulation":"tenuto","articulation_tags":["tenuto","t","short"],"duration":0.125,"velocity":78.67715684499305},
{"position":44.177083333333336,"instrument":"TheGrandeurPiano","level2":0,"level3":null,"pitch":92,"articulation":"standard","articulation_tags":["standard","long"],"duration":0.5694444444444444,"velocity":30.748353733228523},
{"position":44.604166666666664,"instrument":"TheGrandeurPiano","level2":0,"level3":null,"pitch":92,"articulation":"standard","articulation_tags":["standard","long"],"duration":1.0694444444444444,"velocity":30.748353733228523},
{"position":45.03125,"instrument":"TheGrandeurPiano","level2":0,"level3":null,"pitch":91,"articulation":"standard","articulation_tags":["standard","long"],"duration":0.5694444444444444,"velocity":31.969231068413187},
{"position":45.822916666666664,"instrument":"Piccolo","level2":0,"level3":12,"pitch":88,"articulation":"staccato","articulation_tags":["staccato","st","short"],"duration":0.125,"velocity":77.9221239157492},
{"position":45.885416666666664,"instrument":"TheGrandeurPiano","level2":0,"level3":null,"pitch":91,"articulation":"standard","articulation_tags":["standard","long"],"duration":0.5763888888888888,"velocity":31.492429754108883},
{"position":46.208333333333336,"instrument":"TheGrandeurPiano","level2":0,"level3":null,"pitch":91,"articulation":"standard","articulation_tags":["standard","long"],"duration":0.6736111111111112,"velocity":31.492429754108883},
{"position":46.75,"instrument":"TheGrandeurPiano","level2":0,"level3":null,"pitch":90,"articulation":"standard","articulation_tags":["standard","long"],"duration":0.5972222222222222,"velocity":31.969231068413187},
{"position":47.21875,"instrument":"TheGrandeurPiano","level2":0,"level3":null,"pitch":90,"articulation":"standard","articulation_tags":["standard","long"],"duration":0.5208333333333334,"velocity":31.969231068413187},
{"position":47.65625,"instrument":"TheGrandeurPiano","level2":0,"level3":null,"pitch":90,"articulation":"standard","articulation_tags":["standard","long"],"duration":0.6458333333333334,"velocity":33.30217697262485},
{"position":48.0,"instrument":"TheGrandeurPiano","level2":0,"level3":null,"pitch":90,"articulation":"standard","articulation_tags":["standard","long"],"duration":0.4375,"velocity":33.30217697262485},
{"position":48.614583333333336,"instrument":"TheGrandeurPiano","level2":0,"level3":null,"pitch":89,"articulation":"standard","articulation_tags":["standard","long"],"duration":0.7430555555555556,"velocity":32.65886499020672},
{"position":48.65625,"instrument":"TheGrandeurPiano","level2":0,"level3":null,"pitch":89,"articulation":"standard","articulation_tags":["standard","long"],"duration":0.375,"velocity":32.65886499020672},
{"position":49.21875,"instrument":"TheGrandeurPiano","level2":0,"level3":null,"pitch":89,"articulation":"standard","articulation_tags":["standard","long"],"duration":0.3333333333333333,"velocity":32.432203204279936},
{"position":49.71875,"instrument":"TheGrandeurPiano","level2":0,"level3":null,"pitch":89,"articulation":"standard","articulation_tags":["standard","long"],"duration":0.2986111111111111,"velocity":32.65886499020672},
{"position":49.729166666666664,"instrument":"TheGrandeurPiano","level2":0,"level3":null,"pitch":89,"articulation":"standard","articulation_tags":["standard","long"],"duration":2.1041666666666665,"velocity":32.65886499020672},
{"position":50.15625,"instrument":"TheGrandeurPiano","level2":0,"level3":null,"pitch":89,"articulation":"standard","articulation_tags":["standard","long"],"duration":0.2708333333333333,"velocity":33.30217697262485},
{"position":50.5625,"instrument":"TheGrandeurPiano","level2":0,"level3":null,"pitch":89,"articulation":"standard","articulation_tags":["standard","long"],"duration":0.24305555555555555,"velocity":33.30217697262485},
{"position":50.833333333333336,"instrument":"Piccolo","level2":2,"level3":0,"pitch":98,"articulation":"legato","articulation_tags":["legato","lg"],"duration":0.0,"velocity":22.80467613058272},
{"position":50.833333333333336,"instrument":"Piccolo","level2":2,"level3":0,"pitch":98,"articulation":"legato","articulation_tags":["legato","lg"],"duration":2.1458333333333335,"velocity":22.80467613058272},
{"position":50.833333333333336,"instrument":"Glockenspiel","level2":2,"level3":1,"pitch":98,"articulation":"hits","articulation_tags":["hits","short"],"duration":0.0625,"velocity":75.40233806529136},
{"position":50.84375,"instrument":"Glockenspiel","level2":2,"level3":0,"pitch":98,"articulation":"hits","articulation_tags":["hits","short"],"duration":0.0625,"velocity":75.40233806529136},
{"position":50.927083333333336,"instrument":"TheGrandeurPiano","level2":0,"level3":null,"pitch":89,"articulation":"standard","articulation_tags":["standard","long"],"duration":0.2222222222222222,"velocity":34.29106982816932},
{"position":51.260416666666664,"instrument":"TheGrandeurPiano","level2":0,"level3":null,"pitch":89,"articulation":"standard","articulation_tags":["standard","long"],"duration":0.2013888888888889,"velocity":31.969231068413187},
{"position":51.447916666666664,"instrument":"Glockenspiel","level2":2,"level3":1,"pitch":98,"articulation":"hits","articulation_tags":["hits","short"],"duration":0.0625,"velocity":75.40233806529136},
{"position":51.5625,"instrument":"TheGrandeurPiano","level2":0,"level3":null,"pitch":89,"articulation":"standard","articulation_tags":["standard","long"],"duration":0.1875,"velocity":33.504696252822995},
{"position":51.84375,"instrument":"TheGrandeurPiano","level2":0,"level3":null,"pitch":89,"articulation":"standard","articulation_tags":["standard","long"],"duration":0.1736111111111111,"velocity":33.504696252822995},
{"position":52.0,"instrument":"Glockenspiel","level2":2,"level3":2,"pitch":98,"articulation":"hits","articulation_tags":["hits","short"],"duration":0.0625,"velocity":75.53451660376008},
{"position":52.0,"instrument":"Glockenspiel","level2":2,"level3":3,"pitch":98,"articulation":"hits","articulation_tags":["hits","short"],"duration":0.0625,"velocity":75.53451660376008},
{"position":52.09375,"instrument":"Glockenspiel","level2":2,"level3":0,"pitch":98,"articulation":"hits","articulation_tags":["hits","short"],"duration":0.0625,"velocity":75.53451660376008},
{"position":52.104166666666664,"instrument":"TheGrandeurPiano","level2":0,"level3":null,"pitch":89,"articulation":"standard","articulation_tags":["standard","long"],"duration":0.1597222222222222,"velocity":33.504696252822995},
{"position":52.104166666666664,"instrument":"Glockenspiel","level2":2,"level3":2,"pitch":98,"articulation":"hits","articulation_tags":["hits","short"],"duration":0.0625,"velocity":75.64624437195525},
{"position":52.333333333333336,"instrument":"TheGrandeurPiano","level2":0,"level3":null,"pitch":89,"articulation":"standard","articulation_tags":["standard","long"],"duration":0.14583333333333334,"velocity":33.504696252822995},
{"position":52.520833333333336,"instrument":"Glockenspiel","level2":2,"level3":3,"pitch":98,"articulation":"hits","articulation_tags":["hits","short"],"duration":0.0625,"velocity":75.78505141916277},
{"position":52.541666666666664,"instrument":"Glockenspiel","level2":2,"level3":2,"pitch":98,"articulation":"hits","articulation_tags":["hits","short"],"duration":0.0625,"velocity":75.78505141916277},
{"position":52.552083333333336,"instrument":"TheGrandeurPiano","level2":0,"level3":null,"pitch":89,"articulation":"standard","articulation_tags":["standard","long"],"duration":0.13194444444444445,"velocity":33.504696252822995},
{"position":52.75,"instrument":"TheGrandeurPiano","level2":0,"level3":null,"pitch":89,"articulation":"standard","articulation_tags":["standard","long"],"duration":0.11805555555555555,"velocity":33.504696252822995},
{"position":52.885416666666664,"instrument":"TheGrandeurPiano","level2":0,"level3":null,"pitch":89,"articulation":"standard","articulation_tags":["standard","long"],"duration":0.25,"velocity":31.969231068413187},
{"position":52.927083333333336,"instrument":"TheGrandeurPiano","level2":0,"level3":null,"pitch":89,"articulation":"standard","articulation_tags":["standard","long"],"duration":0.1111111111111111,"velocity":34.29106982816932},
{"position":52.979166666666664,"instrument":"Piccolo","level2":2,"level3":0,"pitch":98,"articulation":"legato","articulation_tags":["legato","lg"],"duration":3.3229166666666665,"velocity":25.20942757909416},
{"position":53.052083333333336,"instrument":"TheGrandeurPiano","level2":1,"level3":null,"pitch":92,"articulation":"standard","articulation_tags":["standard","long"],"duration":0.0,"velocity":34.29106982816932},
{"position":53.052083333333336,"instrument":"TheGrandeurPiano","level2":1,"level3":null,"pitch":91,"articulation":"standard","articulation_tags":["standard","long"],"duration":0.006944444444444444,"velocity":34.29106982816932},
{"position":53.052083333333336,"instrument":"TheGrandeurPiano","level2":2,"level3":null,"pitch":92,"articulation":"standard","articulation_tags":["standard","long"],"duration":0.0,"velocity":34.29106982816932},
{"position":53.052083333333336,"instrument":"TheGrandeurPiano","level2":2,"level3":null,"pitch":92,"articulation":"standard","articulation_tags":["standard","long"],"duration":0.006944444444444444,"velocity":34.29106982816932},
{"position":53.052083333333336,"instrument":"TheGrandeurPiano","level2":2,"level3":null,"pitch":92,"articulation":"standard","articulation_tags":["standard","long"],"duration":0.013888888888888888,"velocity":34.29106982816932},
{"position":53.052083333333336,"instrument":"Glockenspiel","level2":1,"level3":0,"pitch":99,"articulation":"hits","articulation_tags":["hits","short"],"duration":0.0625,"velocity":86.32285167867258},
{"position":53.052083333333336,"instrument":"Glockenspiel","level2":1,"level3":0,"pitch":99,"articulation":"hits","articulation_tags":["hits","short"],"duration":0.0625,"velocity":86.32285167867258},
{"position":53.052083333333336,"instrument":"Glockenspiel","level2":1,"level3":1,"pitch":98,"articulation":"hits","articulation_tags":["hits","short"],"duration":0.0625,"velocity":86.32285167867258},
{"position":53.0625,"instrument":"TheGrandeurPiano","level2":1,"level3":null,"pitch":91,"articulation":"standard","articulation_tags":["standard","long"],"duration":0.027777777777777776,"velocity":34.29106982816932},
{"position":53.0625,"instrument":"TheGrandeurPiano","level2":1,"level3":null,"pitch":91,"articulation":"standard","articulation_tags":["standard","long"],"duration":0.013888888888888888,"velocity":34.29106982816932},
{"position":53.0625,"instrument":"TheGrandeurPiano","level2":2,"level3":null,"pitch":93,"articulation":"standard","articulation_tags":["standard","long"],"duration":0.013888888888888888,"velocity":34.29106982816932},
{"position":53.083333333333336,"instrument":"TheGrandeurPiano","level2":1,"level3":null,"pitch":90,"articulation":"standard","articulation_tags":["standard","long"],"duration":0.013888888888888888,"velocity":34.29106982816932},
{"position":53.083333333333336,"instrument":"TheGrandeurPiano","level2":2,"level3":null,"pitch":93,"articulation":"standard","articulation_tags":["standard","long"],"duration":0.020833333333333332,"velocity":34.29106982816932},
{"position":53.083333333333336,"instrument":"TheGrandeurPiano","level2":2,"level3":null,"pitch":93,"articulation":"standard","articulation_tags":["standard","long"],"duration":0.027777777777777776,"velocity":34.29106982816932},
{"position":53.09375,"instrument":"TheGrandeurPiano","level2":0,"level3":null,"pitch":89,"articulation":"standard","articulation_tags":["standard","long"],"duration":0.09722222222222222,"velocity":34.29106982816932},
{"position":53.104166666666664,"instrument":"Glockenspiel","level2":1,"level3":0,"pitch":99,"articulation":"hits","articulation_tags":["hits","short"],"duration":0.0625,"velocity":85.7528990544103},
{"position":53.104166666666664,"instrument":"TheGrandeurPiano","level2":1,"level3":null,"pitch":90,"articulation":"standard","articulation_tags":["standard","long"],"duration":0.09027777777777778,"velocity":34.29106982816932},
{"position":53.104166666666664,"instrument":"TheGrandeurPiano","level2":1,"level3":null,"pitch":90,"articulation":"standard","articulation_tags":["standard","long"],"duration":0.020833333333333332,"velocity":34.29106982816932},
{"position":53.114583333333336,"instrument":"TheGrandeurPiano","level2":2,"level3":null,"pitch":94,"articulation":"standard","articulation_tags":["standard","long"],"duration":0.034722222222222224,"velocity":34.29106982816932},
{"position":53.125,"instrument":"Glockenspiel","level2":1,"level3":1,"pitch":98,"articulation":"hits","articulation_tags":["hits","short"],"duration":0.0625,"velocity":85.62202202616612},
{"position":53.125,"instrument":"TheGrandeurPiano","level2":2,"level3":null,"pitch":94,"articulation":"standard","articulation_tags":["standard","long"],"duration":0.041666666666666664,"velocity":34.29106982816932},
{"position":53.135416666666664,"instrument":"TheGrandeurPiano","level2":1,"level3":null,"pitch":89,"articulation":"standard","articulation_tags":["standard","long"],"duration":0.020833333333333332,"velocity":34.29106982816932},
{"position":53.166666666666664,"instrument":"Glockenspiel","level2":1,"level3":2,"pitch":98,"articulation":"hits","articulation_tags":["hits","short"],"duration":0.0625,"velocity":85.34442067958506},
{"position":53.166666666666664,"instrument":"TheGrandeurPiano","level2":2,"level3":null,"pitch":94,"articulation":"standard","articulation_tags":["standard","long"],"duration":0.04861111111111111,"velocity":34.29106982816932},
{"position":53.177083333333336,"instrument":"Glockenspiel","level2":2,"level3":4,"pitch":98,"articulation":"hits","articulation_tags":["hits","short"],"duration":0.0625,"velocity":87.61398885061513},
{"position":53.177083333333336,"instrument":"Glockenspiel","level2":2,"level3":5,"pitch":98,"articulation":"hits","articulation_tags":["hits","short"],"duration":0.0625,"velocity":87.61398885061513},
{"position":53.177083333333336,"instrument":"TheGrandeurPiano","level2":1,"level3":null,"pitch":89,"articulation":"standard","articulation_tags":["standard","long"],"duration":0.027777777777777776,"velocity":34.29106982816932},
{"position":53.1875,"instrument":"TheGrandeurPiano","level2":2,"level3":null,"pitch":94,"articulation":"standard","articulation_tags":["standard","long"],"duration":0.05555555555555555,"velocity":34.29106982816932},
{"position":53.208333333333336,"instrument":"Glockenspiel","level2":1,"level3":4,"pitch":99,"articulation":"hits","articulation_tags":["hits","short"],"duration":0.0625,"velocity":85.06876582586926},
{"position":53.208333333333336,"instrument":"TheGrandeurPiano","level2":1,"level3":null,"pitch":88,"articulation":"standard","articulation_tags":["standard","long"],"duration":0.027777777777777776,"velocity":34.29106982816932},
{"position":53.229166666666664,"instrument":"TheGrandeurPiano","level2":2,"level3":null,"pitch":95,"articulation":"standard","articulation_tags":["standard","long"],"duration":0.0625,"velocity":34.29106982816932},
{"position":53.239583333333336,"instrument":"TheGrandeurPiano","level2":0,"level3":null,"pitch":89,"articulation":"standard","articulation_tags":["standard","long"],"duration":0.08333333333333333,"velocity":34.29106982816932},
{"position":53.239583333333336,"instrument":"Glockenspiel","level2":1,"level3":0,"pitch":99,"articulation":"hits","articulation_tags":["hits","short"],"duration":0.0625,"velocity":84.79518838527288},
{"position":53.239583333333336,"instrument":"Glockenspiel","level2":1,"level3":5,"pitch":99,"articulation":"hits","articulation_tags":["hits","short"],"duration":0.0625,"velocity":84.79518838527288},
{"position":53.239583333333336,"instrument":"TheGrandeurPiano","level2":1,"level3":null,"pitch":88,"articulation":"standard","articulation_tags":["standard","long"],"duration":0.19444444444444445,"velocity":34.29106982816932},
{"position":53.239583333333336,"instrument":"Glockenspiel","level2":1,"level3":7,"pitch":98,"articulation":"hits","articulation_tags":["hits","short"],"duration":0.0625,"velocity":84.96331449109877},
{"position":53.25,"instrument":"TheGrandeurPiano","level2":1,"level3":null,"pitch":88,"articulation":"standard","articulation_tags":["standard","long"],"duration":0.027777777777777776,"velocity":34.29106982816932},
{"position":53.260416666666664,"instrument":"TheGrandeurPiano","level2":0,"level3":null,"pitch":90,"articulation":"standard","articulation_tags":["standard","long"],"duration":0.14583333333333334,"velocity":34.29106982816932},
{"position":53.270833333333336,"instrument":"TheGrandeurPiano","level2":2,"level3":null,"pitch":95,"articulation":"standard","articulation_tags":["standard","long"],"duration":0.0625,"velocity":34.29106982816932},
{"position":53.291666666666664,"instrument":"TheGrandeurPiano","level2":1,"level3":null,"pitch":87,"articulation":"standard","articulation_tags":["standard","long"],"duration":0.027777777777777776,"velocity":34.29106982816932},
{"position":53.3125,"instrument":"Glockenspiel","level2":1,"level3":8,"pitch":99,"articulation":"hits","articulation_tags":["hits","short"],"duration":0.0625,"velocity":84.43058791296238},
{"position":53.333333333333336,"instrument":"TheGrandeurPiano","level2":2,"level3":null,"pitch":95,"articulation":"standard","articulation_tags":["standard","long"],"duration":0.09027777777777778,"velocity":34.29106982816932},
{"position":53.333333333333336,"instrument":"Glockenspiel","level2":1,"level3":9,"pitch":99,"articulation":"hits","articulation_tags":["hits","short"],"duration":0.0625,"velocity":84.43058791296238},
{"position":53.34375,"instrument":"Glockenspiel","level2":1,"level3":1,"pitch":98,"articulation":"hits","articulation_tags":["hits","short"],"duration":0.0625,"velocity":84.43058791296238},
{"position":53.34375,"instrument":"TheGrandeurPiano","level2":1,"level3":null,"pitch":87,"articulation":"standard","articulation_tags":["standard","long"],"duration":0.027777777777777776,"velocity":34.29106982816932},
{"position":53.364583333333336,"instrument":"TheGrandeurPiano","level2":0,"level3":null,"pitch":90,"articulation":"standard","articulation_tags":["standard","long"],"duration":0.0763888888888889,"velocity":34.29106982816932},
{"position":53.364583333333336,"instrument":"TheGrandeurPiano","level2":2,"level3":null,"pitch":95,"articulation":"standard","articulation_tags":["standard","long"],"duration":0.06944444444444445,"velocity":34.29106982816932},
{"position":53.385416666666664,"instrument":"TheGrandeurPiano","level2":1,"level3":null,"pitch":86,"articulation":"standard","articulation_tags":["standard","long"],"duration":0.034722222222222224,"velocity":34.29106982816932},
{"position":53.416666666666664,"instrument":"Glockenspiel","level2":1,"level3":12,"pitch":98,"articulation":"hits","articulation_tags":["hits","short"],"duration":0.0625,"velocity":83.90858680133124},
{"position":53.416666666666664,"instrument":"Glockenspiel","level2":1,"level3":12,"pitch":98,"articulation":"hits","articulation_tags":["hits","short"],"duration":0.0625,"velocity":83.90858680133124},
{"position":53.416666666666664,"instrument":"Glockenspiel","level2":1,"level3":13,"pitch":98,"articulation":"hits","articulation_tags":["hits","short"],"duration":0.0625,"velocity":83.90858680133124},
{"position":53.427083333333336,"instrument":"Glockenspiel","level2":1,"level3":2,"pitch":99,"articulation":"hits","articulation_tags":["hits","short"],"duration":0.0625,"velocity":83.90858680133124},
{"position":53.4375,"instrument":"TheGrandeurPiano","level2":1,"level3":null,"pitch":86,"articulation":"standard","articulation_tags":["standard","long"],"duration":0.034722222222222224,"velocity":34.29106982816932},
{"position":53.46875,"instrument":"TheGrandeurPiano","level2":2,"level3":null,"pitch":96,"articulation":"standard","articulation_tags":["standard","long"],"duration":0.11805555555555555,"velocity":34.29106982816932},
{"position":53.479166666666664,"instrument":"TheGrandeurPiano","level2":0,"level3":null,"pitch":90,"articulation":"standard","articulation_tags":["standard","long"],"duration":0.09027777777777778,"velocity":34.29106982816932},
{"position":53.479166666666664,"instrument":"TheGrandeurPiano","level2":0,"level3":null,"pitch":90,"articulation":"standard","articulation_tags":["standard","long"],"duration":0.0625,"velocity":34.29106982816932},
{"position":53.479166666666664,"instrument":"TheGrandeurPiano","level2":1,"level3":null,"pitch":85,"articulation":"standard","articulation_tags":["standard","long"],"duration":0.034722222222222224,"velocity":34.29106982816932},
{"position":53.479166666666664,"instrument":"TheGrandeurPiano","level2":2,"level3":null,"pitch":96,"articulation":"standard","articulation_tags":["standard","long"],"duration":0.08333333333333333,"velocity":34.29106982816932},
{"position":53.489583333333336,"instrument":"Glockenspiel","level2":1,"level3":9,"pitch":99,"articulation":"hits","articulation_tags":["hits","short"],"duration":0.0625,"velocity":83.39885235553677},
{"position":53.489583333333336,"instrument":"Glockenspiel","level2":1,"level3":1,"pitch":98,"articulation":"hits","articulation_tags":["hits","short"],"duration":0.0625,"velocity":83.39885235553677},
{"position":53.53125,"instrument":"TheGrandeurPiano","level2":1,"level3":null,"pitch":85,"articulation":"standard","articulation_tags":["standard","long"],"duration":0.027777777777777776,"velocity":33.30217697262485},
{"position":53.53125,"instrument":"TheGrandeurPiano","level2":1,"level3":null,"pitch":85,"articulation":"standard","articulation_tags":["standard","long"],"duration":0.1111111111111111,"velocity":33.30217697262485},
{"position":53.572916666666664,"instrument":"Glockenspiel","level2":1,"level3":4,"pitch":99,"articulation":"hits","articulation_tags":["hits","short"],"duration":0.0625,"velocity":82.95186939278719},
{"position":53.572916666666664,"instrument":"TheGrandeurPiano","level2":1,"level3":null,"pitch":96,"articulation":"standard","articulation_tags":["standard","long"],"duration":0.027777777777777776,"velocity":33.30217697262485},
{"position":53.583333333333336,"instrument":"Glockenspiel","level2":2,"level3":5,"pitch":98,"articulation":"hits","articulation_tags":["hits","short"],"duration":0.0625,"velocity":88.1907502549617},
{"position":53.583333333333336,"instrument":"TheGrandeurPiano","level2":0,"level3":null,"pitch":90,"articulation":"standard","articulation_tags":["standard","long"],"duration":0.05555555555555555,"velocity":33.30217697262485},
{"position":53.59375,"instrument":"TheGrandeurPiano","level2":2,"level3":null,"pitch":96,"articulation":"standard","articulation_tags":["standard","long"],"duration":0.09027777777777778,"velocity":33.30217697262485},
{"position":53.614583333333336,"instrument":"TheGrandeurPiano","level2":0,"level3":null,"pitch":91,"articulation":"standard","articulation_tags":["standard","long"],"duration":0.05555555555555555,"velocity":33.30217697262485},
{"position":53.625,"instrument":"Glockenspiel","level2":1,"level3":4,"pitch":99,"articulation":"hits","articulation_tags":["hits","short"],"duration":0.0625,"velocity":82.70116497597606},
{"position":53.625,"instrument":"TheGrandeurPiano","level2":1,"level3":null,"pitch":96,"articulation":"standard","articulation_tags":["standard","long"],"duration":0.027777777777777776,"velocity":33.30217697262485},
{"position":53.645833333333336,"instrument":"TheGrandeurPiano","level2":2,"level3":null,"pitch":96,"articulation":"standard","articulation_tags":["standard","long"],"duration":0.1736111111111111,"velocity":33.30217697262485},
{"position":53.65625,"instrument":"TheGrandeurPiano","level2":0,"level3":null,"pitch":91,"articulation":"standard","articulation_tags":["standard","long"],"duration":0.041666666666666664,"velocity":33.30217697262485},
{"position":53.666666666666664,"instrument":"TheGrandeurPiano","level2":1,"level3":null,"pitch":95,"articulation":"standard","articulation_tags":["standard","long"],"duration":0.027777777777777776,"velocity":33.30217697262485},
{"position":53.677083333333336,"instrument":"Glockenspiel","level2":1,"level3":0,"pitch":99,"articulation":"hits","articulation_tags":["hits","short"],"duration":0.0625,"velocity":82.21170977484135},
{"position":53.6875,"instrument":"Glockenspiel","level2":1,"level3":2,"pitch":99,"articulation":"hits","articulation_tags":["hits","short"],"duration":0.0625,"velocity":82.21170977484135},
{"position":53.6875,"instrument":"Glockenspiel","level2":1,"level3":5,"pitch":99,"articulation":"hits","articulation_tags":["hits","short"],"duration":0.0625,"velocity":82.21170977484135},
{"position":53.697916666666664,"instrument":"TheGrandeurPiano","level2":0,"level3":null,"pitch":91,"articulation":"standard","articulation_tags":["standard","long"],"duration":0.034722222222222224,"velocity":33.30217697262485},
{"position":53.697916666666664,"instrument":"TheGrandeurPiano","level2":1,"level3":null,"pitch":95,"articulation":"standard","articulation_tags":["standard","long"],"duration":0.04861111111111111,"velocity":33.30217697262485},
{"position":53.697916666666664,"instrument":"TheGrandeurPiano","level2":1,"level3":null,"pitch":95,"articulation":"standard","articulation_tags":["standard","long"],"duration":0.020833333333333332,"velocity":33.30217697262485},
{"position":53.697916666666664,"instrument":"Glockenspiel","level2":1,"level3":5,"pitch":99,"articulation":"hits","articulation_tags":["hits","short"],"duration":0.0625,"velocity":81.76224347277478},
{"position":53.708333333333336,"instrument":"Glockenspiel","level2":1,"level3":1,"pitch":98,"articulation":"hits","articulation_tags":["hits","short"],"duration":0.0625,"velocity":81.76224347277478},
{"position":53.729166666666664,"instrument":"TheGrandeurPiano","level2":2,"level3":null,"pitch":96,"articulation":"standard","articulation_tags":["standard","long"],"duration":0.09722222222222222,"velocity":33.30217697262485},
{"position":53.729166666666664,"instrument":"TheGrandeurPiano","level2":0,"level3":null,"pitch":91,"articulation":"standard","articulation_tags":["standard","long"],"duration":0.027777777777777776,"velocity":33.30217697262485},
{"position":53.739583333333336,"instrument":"TheGrandeurPiano","level2":1,"level3":null,"pitch":94,"articulation":"standard","articulation_tags":["standard","long"],"duration":0.020833333333333332,"velocity":33.30217697262485},
{"position":53.760416666666664,"instrument":"TheGrandeurPiano","level2":0,"level3":null,"pitch":92,"articulation":"standard","articulation_tags":["standard","long"],"duration":0.020833333333333332,"velocity":33.30217697262485},
{"position":53.760416666666664,"instrument":"TheGrandeurPiano","level2":1,"level3":null,"pitch":94,"articulation":"standard","articulation_tags":["standard","long"],"duration":0.013888888888888888,"velocity":33.30217697262485},
{"position":53.770833333333336,"instrument":"Glockenspiel","level2":1,"level3":2,"pitch":99,"articulation":"hits","articulation_tags":["hits","short"],"duration":0.0625,"velocity":81.28982374949402},
{"position":53.770833333333336,"instrument":"TheGrandeurPiano","level2":0,"level3":null,"pitch":92,"articulation":"standard","articulation_tags":["standard","long"],"duration":0.013888888888888888,"velocity":33.30217697262485},
{"position":53.770833333333336,"instrument":"TheGrandeurPiano","level2":1,"level3":null,"pitch":94,"articulation":"standard","articulation_tags":["standard","long"],"duration":0.020833333333333332,"velocity":33.30217697262485},
{"position":53.78125,"instrument":"Glockenspiel","level2":1,"level3":1,"pitch":98,"articulation":"hits","articulation_tags":["hits","short"],"duration":0.0625,"velocity":81.07347965398722},
{"position":53.78125,"instrument":"TheGrandeurPiano","level2":0,"level3":null,"pitch":92,"articulation":"standard","articulation_tags":["standard","long"],"duration":0.006944444444444444,"velocity":33.30217697262485},
{"position":53.78125,"instrument":"TheGrandeurPiano","level2":1,"level3":null,"pitch":93,"articulation":"standard","articulation_tags":["standard","long"],"duration":0.006944444444444444,"velocity":33.30217697262485},
{"position":53.791666666666664,"instrument":"TheGrandeurPiano","level2":0,"level3":null,"pitch":92,"articulation":"standard","articulation_tags":["standard","long"],"duration":0.0,"velocity":33.30217697262485},
{"position":53.791666666666664,"instrument":"TheGrandeurPiano","level2":1,"level3":null,"pitch":93,"articulation":"standard","articulation_tags":["standard","long"],"duration":0.0,"velocity":33.30217697262485},
{"position":53.791666666666664,"instrument":"TheGrandeurPiano","level2":1,"level3":null,"pitch":93,"articulation":"standard","articulation_tags":["standard","long"],"duration":0.0,"velocity":33.30217697262485},
{"position":53.802083333333336,"instrument":"TheGrandeurPiano","level2":0,"level3":null,"pitch":93,"articulation":"standard","articulation_tags":["standard","long"],"duration":0.0,"velocity":33.30217697262485},
{"position":53.875,"instrument":"TheGrandeurPiano","level2":2,"level3":null,"pitch":96,"articulation":"standard","articulation_tags":["standard","long"],"duration":0.10416666666666667,"velocity":33.30217697262485},
{"position":53.90625,"instrument":"TheGrandeurPiano","level2":2,"level3":null,"pitch":85,"articulation":"standard","articulation_tags":["standard","long"],"duration":0.2569444444444444,"velocity":33.30217697262485},
{"position":53.9375,"instrument":"Glockenspiel","level2":2,"level3":6,"pitch":98,"articulation":"hits","articulation_tags":["hits","short"],"duration":0.0625,"velocity":88.62579204558125},
{"position":53.9375,"instrument":"Glockenspiel","level2":2,"level3":7,"pitch":97,"articulation":"hits","articulation_tags":["hits","short"],"duration":0.0625,"velocity":88.62579204558125},
{"position":53.989583333333336,"instrument":"Glockenspiel","level2":2,"level3":6,"pitch":98,"articulation":"hits","articulation_tags":["hits","short"],"duration":0.0625,"velocity":88.62579204558125},
{"position":54.041666666666664,"instrument":"TheGrandeurPiano","level2":2,"level3":null,"pitch":85,"articulation":"standard","articulation_tags":["standard","long"],"duration":0.11805555555555555,"velocity":33.30217697262485},
{"position":54.208333333333336,"instrument":"TheGrandeurPiano","level2":2,"level3":null,"pitch":85,"articulation":"standard","articulation_tags":["standard","long"],"duration":0.125,"velocity":32.65886499020672},
{"position":54.291666666666664,"instrument":"TheGrandeurPiano","level2":2,"level3":null,"pitch":85,"articulation":"standard","articulation_tags":["standard","long"],"duration":0.4930555555555556,"velocity":35.22638794601045},
{"position":54.34375,"instrument":"Glockenspiel","level2":2,"level3":8,"pitch":99,"articulation":"hits","articulation_tags":["hits","short"],"duration":0.0625,"velocity":88.83960511379925},
{"position":54.34375,"instrument":"Glockenspiel","level2":2,"level3":9,"pitch":99,"articulation":"hits","articulation_tags":["hits","short"],"duration":0.0625,"velocity":88.83960511379925},
{"position":54.395833333333336,"instrument":"TheGrandeurPiano","level2":2,"level3":null,"pitch":85,"articulation":"standard","articulation_tags":["standard","long"],"duration":0.13194444444444445,"velocity":35.22638794601045},
{"position":54.40625,"instrument":"Glockenspiel","level2":2,"level3":8,"pitch":99,"articulation":"hits","articulation_tags":["hits","short"],"duration":0.0625,"velocity":88.8075778118472},
{"position":54.479166666666664,"instrument":"Glockenspiel","level2":2,"level3":7,"pitch":97,"articulation":"hits","articulation_tags":["hits","short"],"duration":0.0625,"velocity":88.8075778118472},
{"position":54.5,"instrument":"Glockenspiel","level2":2,"level3":7,"pitch":97,"articulation":"hits","articulation_tags":["hits","short"],"duration":0.0625,"velocity":88.8075778118472},
{"position":54.59375,"instrument":"TheGrandeurPiano","level2":2,"level3":null,"pitch":85,"articulation":"standard","articulation_tags":["standard","long"],"duration":0.1388888888888889,"velocity":35.22638794601045},
{"position":54.666666666666664,"instrument":"Glockenspiel","level2":2,"level3":9,"pitch":99,"articulation":"hits","articulation_tags":["hits","short"],"duration":0.0625,"velocity":88.78132372862515},
{"position":54.802083333333336,"instrument":"TheGrandeurPiano","level2":2,"level3":null,"pitch":85,"articulation":"standard","articulation_tags":["standard","long"],"duration":0.14583333333333334,"velocity":35.04320351842503},
{"position":54.822916666666664,"instrument":"Glockenspiel","level2":2,"level3":4,"pitch":99,"articulation":"hits","articulation_tags":["hits","short"],"duration":0.0625,"velocity":88.76087266007922},
{"position":54.927083333333336,"instrument":"Glockenspiel","level2":2,"level3":6,"pitch":98,"articulation":"hits","articulation_tags":["hits","short"],"duration":0.0625,"velocity":88.76087266007922},
{"position":54.989583333333336,"instrument":"Glockenspiel","level2":2,"level3":3,"pitch":98,"articulation":"hits","articulation_tags":["hits","short"],"duration":0.0625,"velocity":88.76087266007922},
{"position":55.020833333333336,"instrument":"TheGrandeurPiano","level2":2,"level3":null,"pitch":85,"articulation":"standard","articulation_tags":["standard","long"],"duration":0.1597222222222222,"velocity":35.04320351842503},
{"position":55.03125,"instrument":"TheGrandeurPiano","level2":2,"level3":null,"pitch":86,"articulation":"standard","articulation_tags":["standard","long"],"duration":1.4305555555555556,"velocity":35.04320351842503},
{"position":55.145833333333336,"instrument":"Glockenspiel","level2":2,"level3":2,"pitch":98,"articulation":"hits","articulation_tags":["hits","short"],"duration":0.0625,"velocity":89.04473936975458},
{"position":55.260416666666664,"instrument":"TheGrandeurPiano","level2":2,"level3":null,"pitch":86,"articulation":"standard","articulation_tags":["standard","long"],"duration":0.16666666666666666,"velocity":35.22638794601045},
{"position":55.489583333333336,"instrument":"Glockenspiel","level2":2,"level3":10,"pitch":99,"articulation":"hits","articulation_tags":["hits","short"],"duration":0.0625,"velocity":89.0361265298452},
{"position":55.489583333333336,"instrument":"Glockenspiel","level2":2,"level3":11,"pitch":99,"articulation":"hits","articulation_tags":["hits","short"],"duration":0.0625,"velocity":89.0361265298452},
{"position":55.510416666666664,"instrument":"TheGrandeurPiano","level2":2,"level3":null,"pitch":86,"articulation":"standard","articulation_tags":["standard","long"],"duration":0.1736111111111111,"velocity":35.22638794601045},
{"position":55.53125,"instrument":"Glockenspiel","level2":2,"level3":2,"pitch":99,"articulation":"hits","articulation_tags":["hits","short"],"duration":0.0625,"velocity":89.03325452195861},
{"position":55.760416666666664,"instrument":"Glockenspiel","level2":2,"level3":12,"pitch":99,"articulation":"hits","articulation_tags":["hits","short"],"duration":0.0625,"velocity":89.03325452195861},
{"position":55.78125,"instrument":"TheGrandeurPiano","level2":2,"level3":null,"pitch":86,"articulation":"standard","articulation_tags":["standard","long"],"duration":0.1875,"velocity":35.765214909826724},
{"position":55.791666666666664,"instrument":"Glockenspiel","level2":2,"level3":9,"pitch":99,"articulation":"hits","articulation_tags":["hits","short"],"duration":0.0625,"velocity":89.0361265298452},
{"position":55.864583333333336,"instrument":"Glockenspiel","level2":2,"level3":6,"pitch":98,"articulation":"hits","articulation_tags":["hits","short"],"duration":0.0625,"velocity":89.0361265298452},
{"position":55.864583333333336,"instrument":"Glockenspiel","level2":2,"level3":11,"pitch":99,"articulation":"hits","articulation_tags":["hits","short"],"duration":0.0625,"velocity":89.0361265298452},
{"position":56.052083333333336,"instrument":"Glockenspiel","level2":2,"level3":7,"pitch":98,"articulation":"hits","articulation_tags":["hits","short"],"duration":0.0625,"velocity":89.0361265298452},
{"position":56.0625,"instrument":"TheGrandeurPiano","level2":2,"level3":null,"pitch":86,"articulation":"standard","articulation_tags":["standard","long"],"duration":0.2013888888888889,"velocity":35.765214909826724},
{"position":56.177083333333336,"instrument":"Glockenspiel","level2":2,"level3":3,"pitch":98,"articulation":"hits","articulation_tags":["hits","short"],"duration":0.0625,"velocity":89.04473936975458},
{"position":56.302083333333336,"instrument":"Piccolo","level2":2,"level3":0,"pitch":99,"articulation":"legato","articulation_tags":["legato","lg"],"duration":3.8854166666666665,"velocity":50.089478739509175},
{"position":56.354166666666664,"instrument":"TheGrandeurPiano","level2":2,"level3":null,"pitch":86,"articulation":"standard","articulation_tags":["standard","long"],"duration":0.20833333333333334,"velocity":34.29106982816932},
{"position":56.666666666666664,"instrument":"TheGrandeurPiano","level2":2,"level3":null,"pitch":86,"articulation":"standard","articulation_tags":["standard","long"],"duration":0.2222222222222222,"velocity":34.29106982816932},
{"position":56.708333333333336,"instrument":"Glockenspiel","level2":2,"level3":7,"pitch":98,"articulation":"hits","articulation_tags":["hits","short"],"duration":0.0625,"velocity":89.07914311387346},
{"position":56.875,"instrument":"Glockenspiel","level2":2,"level3":5,"pitch":98,"articulation":"hits","articulation_tags":["hits","short"],"duration":0.0625,"velocity":89.07914311387346},
{"position":57.0,"instrument":"TheGrandeurPiano","level2":2,"level3":null,"pitch":86,"articulation":"standard","articulation_tags":["standard","long"],"duration":0.2361111111111111,"velocity":35.58734155980392},
{"position":57.177083333333336,"instrument":"TheGrandeurPiano","level2":2,"level3":null,"pitch":85,"articulation":"standard","articulation_tags":["standard","long"],"duration":0.8819444444444444,"velocity":35.58734155980392},
{"position":57.354166666666664,"instrument":"TheGrandeurPiano","level2":2,"level3":null,"pitch":85,"articulation":"standard","articulation_tags":["standard","long"],"duration":0.25,"velocity":35.58734155980392},
{"position":57.479166666666664,"instrument":"Glockenspiel","level2":2,"level3":6,"pitch":99,"articulation":"hits","articulation_tags":["hits","short"],"duration":0.0625,"velocity":88.83960511379925},
{"position":57.71875,"instrument":"Glockenspiel","level2":2,"level3":8,"pitch":99,"articulation":"hits","articulation_tags":["hits","short"],"duration":0.0625,"velocity":88.83960511379925},
{"position":57.729166666666664,"instrument":"TheGrandeurPiano","level2":2,"level3":null,"pitch":85,"articulation":"standard","articulation_tags":["standard","long"],"duration":0.2638888888888889,"velocity":35.22638794601045},
{"position":57.916666666666664,"instrument":"Glockenspiel","level2":2,"level3":1,"pitch":98,"articulation":"hits","articulation_tags":["hits","short"],"duration":0.0625,"velocity":88.87736956191343},
{"position":58.135416666666664,"instrument":"TheGrandeurPiano","level2":2,"level3":null,"pitch":85,"articulation":"standard","articulation_tags":["standard","long"],"duration":0.2847222222222222,"velocity":35.22638794601045},
{"position":58.1875,"instrument":"Glockenspiel","level2":2,"level3":11,"pitch":99,"articulation":"hits","articulation_tags":["hits","short"],"duration":0.0625,"velocity":88.92082900673151},
{"position":58.322916666666664,"instrument":"Glockenspiel","level2":2,"level3":11,"pitch":99,"articulation":"hits","articulation_tags":["hits","short"],"duration":0.0625,"velocity":88.92082900673151},
{"position":58.5,"instrument":"TheGrandeurPiano","level2":2,"level3":null,"pitch":85,"articulation":"standard","articulation_tags":["standard","long"],"duration":0.6388888888888888,"velocity":35.58734155980392},
{"position":58.53125,"instrument":"Glockenspiel","level2":2,"level3":4,"pitch":99,"articulation":"hits","articulation_tags":["hits","short"],"duration":0.0625,"velocity":88.62579204558125},
{"position":58.5625,"instrument":"TheGrandeurPiano","level2":2,"level3":null,"pitch":85,"articulation":"standard","articulation_tags":["standard","long"],"duration":0.3055555555555556,"velocity":35.58734155980392},
{"position":58.572916666666664,"instrument":"Glockenspiel","level2":2,"level3":5,"pitch":99,"articulation":"hits","articulation_tags":["hits","short"],"duration":0.0625,"velocity":88.6758532093647},
{"position":58.947916666666664,"instrument":"Glockenspiel","level2":2,"level3":1,"pitch":98,"articulation":"hits","articulation_tags":["hits","short"],"duration":0.0625,"velocity":88.6758532093647},
{"position":59.020833333333336,"instrument":"TheGrandeurPiano","level2":2,"level3":null,"pitch":85,"articulation":"standard","articulation_tags":["standard","long"],"duration":0.3333333333333333,"velocity":36.6304205856072},
{"position":59.354166666666664,"instrument":"Glockenspiel","level2":2,"level3":2,"pitch":99,"articulation":"hits","articulation_tags":["hits","short"],"duration":0.0625,"velocity":88.7316092148212},
{"position":59.458333333333336,"instrument":"TheGrandeurPiano","level2":2,"level3":null,"pitch":96,"articulation":"standard","articulation_tags":["standard","long"],"duration":0.5555555555555556,"velocity":36.6304205856072},
{"position":59.520833333333336,"instrument":"TheGrandeurPiano","level2":2,"level3":null,"pitch":96,"articulation":"standard","articulation_tags":["standard","long"],"duration":0.3611111111111111,"velocity":36.6304205856072},
{"position":60.041666666666664,"instrument":"Glockenspiel","level2":2,"level3":2,"pitch":99,"articulation":"hits","articulation_tags":["hits","short"],"duration":0.0625,"velocity":88.50139532493013},
{"position":60.0625,"instrument":"TheGrandeurPiano","level2":2,"level3":null,"pitch":96,"articulation":"standard","articulation_tags":["standard","long"],"duration":0.3958333333333333,"velocity":35.765214909826724},
{"position":60.1875,"instrument":"Piccolo","level2":2,"level3":0,"pitch":99,"articulation":"legato","articulation_tags":["legato","lg"],"duration":4.479166666666667,"velocity":49.139289066952315},
{"position":60.291666666666664,"instrument":"TheGrandeurPiano","level2":2,"level3":null,"pitch":96,"articulation":"standard","articulation_tags":["standard","long"],"duration":0.5069444444444444,"velocity":37.78127962436426},
{"position":60.458333333333336,"instrument":"Glockenspiel","level2":2,"level3":9,"pitch":99,"articulation":"hits","articulation_tags":["hits","short"],"duration":0.0625,"velocity":88.26498439474179},
{"position":60.65625,"instrument":"TheGrandeurPiano","level2":2,"level3":null,"pitch":96,"articulation":"standard","articulation_tags":["standard","long"],"duration":0.4375,"velocity":37.620804021057175},
{"position":60.822916666666664,"instrument":"Glockenspiel","level2":2,"level3":4,"pitch":99,"articulation":"hits","articulation_tags":["hits","short"],"duration":0.0625,"velocity":88.34527922195588},
{"position":61.010416666666664,"instrument":"Glockenspiel","level2":2,"level3":6,"pitch":99,"articulation":"hits","articulation_tags":["hits","short"],"duration":0.0625,"velocity":88.34527922195588},
{"position":61.052083333333336,"instrument":"TheGrandeurPiano","level2":2,"level3":null,"pitch":95,"articulation":"standard","articulation_tags":["standard","long"],"duration":0.4722222222222222,"velocity":37.620804021057175},
{"position":61.0625,"instrument":"Glockenspiel","level2":2,"level3":3,"pitch":99,"articulation":"hits","articulation_tags":["hits","short"],"duration":0.0625,"velocity":88.03795157450386},
{"position":61.3125,"instrument":"TheGrandeurPiano","level2":2,"level3":null,"pitch":95,"articulation":"standard","articulation_tags":["standard","long"],"duration":0.5,"velocity":37.78127962436426},
{"position":61.729166666666664,"instrument":"Glockenspiel","level2":2,"level3":7,"pitch":98,"articulation":"hits","articulation_tags":["hits","short"],"duration":0.0625,"velocity":88.12591216663351},
{"position":61.760416666666664,"instrument":"TheGrandeurPiano","level2":2,"level3":null,"pitch":95,"articulation":"standard","articulation_tags":["standard","long"],"duration":0.4513888888888889,"velocity":38.255438265995025},
{"position":62.0625,"instrument":"TheGrandeurPiano","level2":2,"level3":null,"pitch":95,"articulation":"standard","articulation_tags":["standard","long"],"duration":0.5902777777777778,"velocity":38.255438265995025},
{"position":62.395833333333336,"instrument":"Glockenspiel","level2":2,"level3":9,"pitch":99,"articulation":"hits","articulation_tags":["hits","short"],"duration":0.0625,"velocity":87.91659790491374},
{"position":62.4375,"instrument":"TheGrandeurPiano","level2":2,"level3":null,"pitch":94,"articulation":"standard","articulation_tags":["standard","long"],"duration":0.4305555555555556,"velocity":36.6304205856072},
{"position":62.8125,"instrument":"Glockenspiel","level2":2,"level3":5,"pitch":99,"articulation":"hits","articulation_tags":["hits","short"],"duration":0.0625,"velocity":87.61398885061513},
{"position":62.947916666666664,"instrument":"TheGrandeurPiano","level2":2,"level3":null,"pitch":94,"articulation":"standard","articulation_tags":["standard","long"],"duration":0.7361111111111112,"velocity":37.78127962436426},
{"position":63.083333333333336,"instrument":"TheGrandeurPiano","level2":2,"level3":null,"pitch":94,"articulation":"standard","articulation_tags":["standard","long"],"duration":0.4166666666666667,"velocity":37.78127962436426},
{"position":63.447916666666664,"instrument":"Glockenspiel","level2":2,"level3":7,"pitch":98,"articulation":"hits","articulation_tags":["hits","short"],"duration":0.0625,"velocity":87.41791448749572},
{"position":63.5,"instrument":"Glockenspiel","level2":2,"level3":1,"pitch":99,"articulation":"hits","articulation_tags":["hits","short"],"duration":0.0625,"velocity":87.41791448749572},
{"position":63.708333333333336,"instrument":"TheGrandeurPiano","level2":2,"level3":null,"pitch":93,"articulation":"standard","articulation_tags":["standard","long"],"duration":0.4097222222222222,"velocity":37.13170349029956},
{"position":64.05208333333333,"instrument":"TheGrandeurPiano","level2":2,"level3":null,"pitch":93,"articulation":"standard","articulation_tags":["standard","long"],"duration":1.1180555555555556,"velocity":38.87166553521253},
{"position":64.09375,"instrument":"Glockenspiel","level2":2,"level3":2,"pitch":100,"articulation":"hits","articulation_tags":["hits","short"],"duration":0.0625,"velocity":87.23301696329705},
{"position":64.32291666666667,"instrument":"TheGrandeurPiano","level2":2,"level3":null,"pitch":93,"articulation":"standard","articulation_tags":["standard","long"],"duration":0.3958333333333333,"velocity":37.13170349029956},
{"position":64.65625,"instrument":"Glockenspiel","level2":2,"level3":0,"pitch":100,"articulation":"hits","articulation_tags":["hits","short"],"duration":0.0625,"velocity":86.93717806958121},
{"position":64.77083333333333,"instrument":"Piccolo","level2":2,"level3":5,"pitch":99,"articulation":"legato","articulation_tags":["legato","lg"],"duration":1.5,"velocity":45.87435613916241},
{"position":64.91666666666667,"instrument":"TheGrandeurPiano","level2":2,"level3":null,"pitch":92,"articulation":"standard","articulation_tags":["standard","long"],"duration":0.3888888888888889,"velocity":37.78127962436426},
{"position":64.96875,"instrument":"Glockenspiel","level2":2,"level3":2,"pitch":100,"articulation":"hits","articulation_tags":["hits","short"],"duration":0.0625,"velocity":86.64232949825517},
{"position":65.16666666666667,"instrument":"Glockenspiel","level2":2,"level3":3,"pitch":99,"articulation":"hits","articulation_tags":["hits","short"],"duration":0.0625,"velocity":86.64232949825517},
{"position":65.1875,"instrument":"Glockenspiel","level2":2,"level3":6,"pitch":99,"articulation":"hits","articulation_tags":["hits","short"],"duration":0.0625,"velocity":86.64232949825517},
{"position":65.375,"instrument":"Glockenspiel","level2":2,"level3":6,"pitch":100,"articulation":"hits","articulation_tags":["hits","short"],"duration":0.0625,"velocity":86.64232949825517},
{"position":65.5,"instrument":"TheGrandeurPiano","level2":2,"level3":null,"pitch":92,"articulation":"standard","articulation_tags":["standard","long"],"duration":0.3819444444444444,"velocity":39.02302834842141},
{"position":65.72916666666667,"instrument":"TheGrandeurPiano","level2":2,"level3":null,"pitch":92,"articulation":"standard","articulation_tags":["standard","long"],"duration":1.5555555555555556,"velocity":39.02302834842141},
{"position":65.75,"instrument":"Glockenspiel","level2":2,"level3":0,"pitch":100,"articulation":"hits","articulation_tags":["hits","short"],"duration":0.0625,"velocity":86.47624072601342},
{"position":66.02083333333333,"instrument":"Glockenspiel","level2":2,"level3":5,"pitch":100,"articulation":"hits","articulation_tags":["hits","short"],"duration":0.0625,"velocity":86.47624072601342},
{"position":66.08333333333333,"instrument":"TheGrandeurPiano","level2":2,"level3":null,"pitch":91,"articulation":"standard","articulation_tags":["standard","long"],"duration":0.375,"velocity":38.255438265995025},
{"position":66.27083333333333,"instrument":"Piccolo","level2":2,"level3":2,"pitch":100,"articulation":"legato","articulation_tags":["legato","lg"],"duration":0.0,"velocity":44.37259800316696},
{"position":66.64583333333333,"instrument":"TheGrandeurPiano","level2":2,"level3":null,"pitch":91,"articulation":"standard","articulation_tags":["standard","long"],"duration":0.375,"velocity":40.34116528359068},
{"position":67.20833333333333,"instrument":"TheGrandeurPiano","level2":2,"level3":null,"pitch":90,"articulation":"standard","articulation_tags":["standard","long"],"duration":0.4166666666666667,"velocity":40.19840452368932},
{"position":67.53125,"instrument":"Piccolo","level2":2,"level3":1,"pitch":99,"articulation":"legato","articulation_tags":["legato","lg"],"duration":3.5416666666666665,"velocity":43.220822655023895},
{"position":67.84375,"instrument":"TheGrandeurPiano","level2":2,"level3":null,"pitch":90,"articulation":"standard","articulation_tags":["standard","long"],"duration":0.4027777777777778,"velocity":40.764302427157574},
{"position":68.07291666666667,"instrument":"TheGrandeurPiano","level2":2,"level3":null,"pitch":90,"articulation":"standard","articulation_tags":["standard","long"],"duration":0.9236111111111112,"velocity":38.255438265995025},
{"position":68.44791666666667,"instrument":"TheGrandeurPiano","level2":2,"level3":null,"pitch":89,"articulation":"standard","articulation_tags":["standard","long"],"duration":0.3888888888888889,"velocity":39.02302834842141},
{"position":68.61458333333333,"instrument":"Glockenspiel","level2":2,"level3":3,"pitch":100,"articulation":"hits","articulation_tags":["hits","short"],"duration":0.0625,"velocity":84.89797556396381},
{"position":68.71875,"instrument":"Glockenspiel","level2":2,"level3":7,"pitch":99,"articulation":"hits","articulation_tags":["hits","short"],"duration":0.0625,"velocity":84.89797556396381},
{"position":68.90625,"instrument":"Glockenspiel","level2":2,"level3":0,"pitch":100,"articulation":"hits","articulation_tags":["hits","short"],"duration":0.0625,"velocity":84.89797556396381},
{"position":69.03125,"instrument":"TheGrandeurPiano","level2":2,"level3":null,"pitch":89,"articulation":"standard","articulation_tags":["standard","long"],"duration":0.375,"velocity":40.054759770892424},
{"position":69.45833333333333,"instrument":"TheGrandeurPiano","level2":2,"level3":null,"pitch":89,"articulation":"standard","articulation_tags":["standard","long"],"duration":0.6111111111111112,"velocity":39.173357932134294},
{"position":69.46875,"instrument":"Glockenspiel","level2":2,"level3":3,"pitch":100,"articulation":"hits","articulation_tags":["hits","short"],"duration":0.0625,"velocity":84.47306077037287},
{"position":69.59375,"instrument":"TheGrandeurPiano","level2":2,"level3":null,"pitch":88,"articulation":"standard","articulation_tags":["standard","long"],"duration":0.3680555555555556,"velocity":39.173357932134294},
{"position":70.10416666666667,"instrument":"Glockenspiel","level2":2,"level3":0,"pitch":100,"articulation":"hits","articulation_tags":["hits","short"],"duration":0.0625,"velocity":84.1855452271108},
{"position":70.13541666666667,"instrument":"TheGrandeurPiano","level2":2,"level3":null,"pitch":88,"articulation":"standard","articulation_tags":["standard","long"],"duration":0.3541666666666667,"velocity":38.87166553521253},
{"position":70.22916666666667,"instrument":"Glockenspiel","level2":2,"level3":6,"pitch":100,"articulation":"hits","articulation_tags":["hits","short"],"duration":0.0625,"velocity":83.89968427418435},
{"position":70.375,"instrument":"TheGrandeurPiano","level2":2,"level3":null,"pitch":88,"articulation":"standard","articulation_tags":["standard","long"],"duration":0.4722222222222222,"velocity":40.764302427157574},
{"position":70.5625,"instrument":"Glockenspiel","level2":2,"level3":6,"pitch":100,"articulation":"hits","articulation_tags":["hits","short"],"duration":0.0625,"velocity":83.76079513793411},
{"position":70.66666666666667,"instrument":"TheGrandeurPiano","level2":2,"level3":null,"pitch":87,"articulation":"standard","articulation_tags":["standard","long"],"duration":0.3472222222222222,"velocity":39.173357932134294},
{"position":70.80208333333333,"instrument":"Glockenspiel","level2":4,"level3":0,"pitch":107,"articulation":"hits","articulation_tags":["hits","short"],"duration":0.0625,"velocity":83.47312137393814},
{"position":70.80208333333333,"instrument":"Glockenspiel","level2":4,"level3":1,"pitch":106,"articulation":"hits","articulation_tags":["hits","short"],"duration":0.0625,"velocity":83.47312137393814},
{"position":71.07291666666667,"instrument":"Piccolo","level2":2,"level3":1,"pitch":100,"articulation":"legato","articulation_tags":["legato","lg"],"duration":2.6979166666666665,"velocity":38.94624274787628},
{"position":71.08333333333333,"instrument":"TheGrandeurPiano","level2":2,"level3":null,"pitch":87,"articulation":"standard","articulation_tags":["standard","long"],"duration":0.3958333333333333,"velocity":41.317034507811286},
{"position":71.16666666666667,"instrument":"Glockenspiel","level2":2,"level3":7,"pitch":99,"articulation":"hits","articulation_tags":["hits","short"],"duration":0.0625,"velocity":83.3381340426771},
{"position":71.1875,"instrument":"TheGrandeurPiano","level2":2,"level3":null,"pitch":87,"articulation":"standard","articulation_tags":["standard","long"],"duration":0.3333333333333333,"velocity":40.054759770892424},
{"position":71.27083333333333,"instrument":"Glockenspiel","level2":2,"level3":1,"pitch":100,"articulation":"hits","articulation_tags":["hits","short"],"duration":0.0625,"velocity":83.04855849526926},
{"position":71.4375,"instrument":"Glockenspiel","level2":4,"level3":1,"pitch":106,"articulation":"hits","articulation_tags":["hits","short"],"duration":0.0625,"velocity":83.04855849526926},
{"position":71.54166666666667,"instrument":"Glockenspiel","level2":4,"level3":2,"pitch":106,"articulation":"hits","articulation_tags":["hits","short"],"duration":0.0625,"velocity":83.04855849526926},
{"position":71.54166666666667,"instrument":"Glockenspiel","level2":4,"level3":3,"pitch":106,"articulation":"hits","articulation_tags":["hits","short"],"duration":0.0625,"velocity":83.04855849526926},
{"position":71.58333333333333,"instrument":"Glockenspiel","level2":4,"level3":3,"pitch":106,"articulation":"hits","articulation_tags":["hits","short"],"duration":0.0625,"velocity":83.04855849526926},
{"position":71.67708333333333,"instrument":"TheGrandeurPiano","level2":2,"level3":null,"pitch":87,"articulation":"standard","articulation_tags":["standard","long"],"duration":0.3333333333333333,"velocity":39.02302834842141},
{"position":71.6875,"instrument":"TheGrandeurPiano","level2":2,"level3":null,"pitch":86,"articulation":"standard","articulation_tags":["standard","long"],"duration":0.3263888888888889,"velocity":39.02302834842141},
{"position":71.92708333333333,"instrument":"Glockenspiel","level2":4,"level3":2,"pitch":106,"articulation":"hits","articulation_tags":["hits","short"],"duration":0.0625,"velocity":82.626247205846},
{"position":72.07291666666667,"instrument":"Glockenspiel","level2":2,"level3":13,"pitch":99,"articulation":"hits","articulation_tags":["hits","short"],"duration":0.0625,"velocity":82.626247205846},
{"position":72.07291666666667,"instrument":"Glockenspiel","level2":2,"level3":14,"pitch":98,"articulation":"hits","articulation_tags":["hits","short"],"duration":0.0625,"velocity":82.626247205846},
{"position":72.13541666666667,"instrument":"Glockenspiel","level2":4,"level3":2,"pitch":107,"articulation":"hits","articulation_tags":["hits","short"],"duration":0.0625,"velocity":82.626247205846},
{"position":72.17708333333333,"instrument":"TheGrandeurPiano","level2":2,"level3":null,"pitch":86,"articulation":"standard","articulation_tags":["standard","long"],"duration":0.2916666666666667,"velocity":40.764302427157574},
{"position":72.17708333333333,"instrument":"TheGrandeurPiano","level2":2,"level3":null,"pitch":86,"articulation":"standard","articulation_tags":["standard","long"],"duration":0.3194444444444444,"velocity":40.764302427157574},
{"position":72.21875,"instrument":"Glockenspiel","level2":2,"level3":14,"pitch":98,"articulation":"hits","articulation_tags":["hits","short"],"duration":0.0625,"velocity":82.20648139773303},
{"position":72.22916666666667,"instrument":"TheGrandeurPiano","level2":3,"level3":null,"pitch":88,"articulation":"standard","articulation_tags":["standard","long"],"duration":0.0,"velocity":40.764302427157574},
{"position":72.22916666666667,"instrument":"TheGrandeurPiano","level2":3,"level3":null,"pitch":88,"articulation":"standard","articulation_tags":["standard","long"],"duration":0.006944444444444444,"velocity":40.764302427157574},
{"position":72.22916666666667,"instrument":"TheGrandeurPiano","level2":4,"level3":null,"pitch":89,"articulation":"standard","articulation_tags":["standard","long"],"duration":0.0,"velocity":40.764302427157574},
{"position":72.22916666666667,"instrument":"TheGrandeurPiano","level2":4,"level3":null,"pitch":89,"articulation":"standard","articulation_tags":["standard","long"],"duration":0.006944444444444444,"velocity":40.764302427157574},
{"position":72.22916666666667,"instrument":"TheGrandeurPiano","level2":4,"level3":null,"pitch":89,"articulation":"standard","articulation_tags":["standard","long"],"duration":0.027777777777777776,"velocity":40.764302427157574},
{"position":72.22916666666667,"instrument":"TheGrandeurPiano","level2":4,"level3":null,"pitch":89,"articulation":"standard","articulation_tags":["standard","long"],"duration":0.006944444444444444,"velocity":40.764302427157574},
{"position":72.23958333333333,"instrument":"Glockenspiel","level2":3,"level3":0,"pitch":103,"articulation":"hits","articulation_tags":["hits","short"],"duration":0.0625,"velocity":94.4101503180212},
{"position":72.23958333333333,"instrument":"TheGrandeurPiano","level2":3,"level3":null,"pitch":87,"articulation":"standard","articulation_tags":["standard","long"],"duration":0.013888888888888888,"velocity":40.764302427157574},
{"position":72.23958333333333,"instrument":"TheGrandeurPiano","level2":4,"level3":null,"pitch":90,"articulation":"standard","articulation_tags":["standard","long"],"duration":0.013888888888888888,"velocity":40.764302427157574},
{"position":72.26041666666667,"instrument":"TheGrandeurPiano","level2":3,"level3":null,"pitch":87,"articulation":"standard","articulation_tags":["standard","long"],"duration":0.013888888888888888,"velocity":40.764302427157574},
{"position":72.26041666666667,"instrument":"TheGrandeurPiano","level2":4,"level3":null,"pitch":90,"articulation":"standard","articulation_tags":["standard","long"],"duration":0.05555555555555555,"velocity":40.764302427157574},
{"position":72.27083333333333,"instrument":"TheGrandeurPiano","level2":4,"level3":null,"pitch":90,"articulation":"standard","articulation_tags":["standard","long"],"duration":0.020833333333333332,"velocity":40.764302427157574},
{"position":72.28125,"instrument":"TheGrandeurPiano","level2":3,"level3":null,"pitch":86,"articulation":"standard","articulation_tags":["standard","long"],"duration":0.020833333333333332,"velocity":40.764302427157574},
{"position":72.29166666666667,"instrument":"TheGrandeurPiano","level2":3,"level3":null,"pitch":86,"articulation":"standard","articulation_tags":["standard","long"],"duration":0.3263888888888889,"velocity":40.764302427157574},
{"position":72.30208333333333,"instrument":"TheGrandeurPiano","level2":4,"level3":null,"pitch":91,"articulation":"standard","articulation_tags":["standard","long"],"duration":0.027777777777777776,"velocity":40.764302427157574},
{"position":72.3125,"instrument":"TheGrandeurPiano","level2":3,"level3":null,"pitch":86,"articulation":"standard","articulation_tags":["standard","long"],"duration":0.027777777777777776,"velocity":40.764302427157574},
{"position":72.34375,"instrument":"TheGrandeurPiano","level2":4,"level3":null,"pitch":91,"articulation":"standard","articulation_tags":["standard","long"],"duration":0.034722222222222224,"velocity":40.764302427157574},
{"position":72.35416666666667,"instrument":"Glockenspiel","level2":3,"level3":2,"pitch":103,"articulation":"hits","articulation_tags":["hits","short"],"duration":0.0625,"velocity":93.65616663083618},
{"position":72.35416666666667,"instrument":"Glockenspiel","level2":3,"level3":3,"pitch":103,"articulation":"hits","articulation_tags":["hits","short"],"duration":0.0625,"velocity":93.65616663083618},
{"position":72.35416666666667,"instrument":"TheGrandeurPiano","level2":3,"level3":null,"pitch":85,"articulation":"standard","articulation_tags":["standard","long"],"duration":0.027777777777777776,"velocity":40.764302427157574},
{"position":72.35416666666667,"instrument":"TheGrandeurPiano","level2":4,"level3":null,"pitch":91,"articulation":"standard","articulation_tags":["standard","long"],"duration":0.0763888888888889,"velocity":40.764302427157574},
{"position":72.38541666666667,"instrument":"Glockenspiel","level2":3,"level3":2,"pitch":103,"articulation":"hits","articulation_tags":["hits","short"],"duration":0.0625,"velocity":93.42687150524452},
{"position":72.39583333333333,"instrument":"TheGrandeurPiano","level2":3,"level3":null,"pitch":85,"articulation":"standard","articulation_tags":["standard","long"],"duration":0.034722222222222224,"velocity":40.764302427157574},
{"position":72.39583333333333,"instrument":"TheGrandeurPiano","level2":4,"level3":null,"pitch":92,"articulation":"standard","articulation_tags":["standard","long"],"duration":0.041666666666666664,"velocity":40.764302427157574},
{"position":72.40625,"instrument":"Glockenspiel","level2":3,"level3":3,"pitch":103,"articulation":"hits","articulation_tags":["hits","short"],"duration":0.0625,"velocity":93.19943719342872},
{"position":72.42708333333333,"instrument":"Glockenspiel","level2":3,"level3":1,"pitch":102,"articulation":"hits","articulation_tags":["hits","short"],"duration":0.0625,"velocity":93.19943719342872},
{"position":72.44791666666667,"instrument":"TheGrandeurPiano","level2":3,"level3":null,"pitch":96,"articulation":"standard","articulation_tags":["standard","long"],"duration":0.041666666666666664,"velocity":40.764302427157574},
{"position":72.45833333333333,"instrument":"Glockenspiel","level2":3,"level3":3,"pitch":102,"articulation":"hits","articulation_tags":["hits","short"],"duration":0.0625,"velocity":92.97392889234182},
{"position":72.46875,"instrument":"TheGrandeurPiano","level2":4,"level3":null,"pitch":92,"articulation":"standard","articulation_tags":["standard","long"],"duration":0.05555555555555555,"velocity":40.764302427157574},
{"position":72.46875,"instrument":"TheGrandeurPiano","level2":4,"level3":null,"pitch":92,"articulation":"standard","articulation_tags":["standard","long"],"duration":0.09027777777777778,"velocity":40.764302427157574},
{"position":72.47916666666667,"instrument":"Glockenspiel","level2":3,"level3":0,"pitch":104,"articulation":"hits","articulation_tags":["hits","short"],"duration":0.0625,"velocity":92.97392889234182},
{"position":72.51041666666667,"instrument":"TheGrandeurPiano","level2":3,"level3":null,"pitch":96,"articulation":"standard","articulation_tags":["standard","long"],"duration":0.041666666666666664,"velocity":40.34116528359068},
{"position":72.52083333333333,"instrument":"Glockenspiel","level2":3,"level3":0,"pitch":104,"articulation":"hits","articulation_tags":["hits","short"],"duration":0.0625,"velocity":92.75041428865762},
{"position":72.54166666666667,"instrument":"TheGrandeurPiano","level2":4,"level3":null,"pitch":93,"articulation":"standard","articulation_tags":["standard","long"],"duration":0.0625,"velocity":40.34116528359068},
{"position":72.57291666666667,"instrument":"TheGrandeurPiano","level2":3,"level3":null,"pitch":95,"articulation":"standard","articulation_tags":["standard","long"],"duration":0.04861111111111111,"velocity":40.34116528359068},
{"position":72.59375,"instrument":"Glockenspiel","level2":3,"level3":1,"pitch":102,"articulation":"hits","articulation_tags":["hits","short"],"duration":0.0625,"velocity":92.5289636365396},
{"position":72.60416666666667,"instrument":"TheGrandeurPiano","level2":4,"level3":null,"pitch":93,"articulation":"standard","articulation_tags":["standard","long"],"duration":0.10416666666666667,"velocity":40.34116528359068},
{"position":72.61458333333333,"instrument":"TheGrandeurPiano","level2":2,"level3":null,"pitch":86,"articulation":"standard","articulation_tags":["standard","long"],"duration":0.2569444444444444,"velocity":40.34116528359068},
{"position":72.63541666666667,"instrument":"TheGrandeurPiano","level2":4,"level3":null,"pitch":93,"articulation":"standard","articulation_tags":["standard","long"],"duration":0.06944444444444445,"velocity":40.34116528359068},
{"position":72.64583333333333,"instrument":"TheGrandeurPiano","level2":3,"level3":null,"pitch":95,"articulation":"standard","articulation_tags":["standard","long"],"duration":0.04861111111111111,"velocity":40.34116528359068},
{"position":72.65625,"instrument":"Glockenspiel","level2":4,"level3":0,"pitch":107,"articulation":"hits","articulation_tags":["hits","short"],"duration":0.0625,"velocity":96.38723269148514},
{"position":72.65625,"instrument":"TheGrandeurPiano","level2":2,"level3":null,"pitch":85,"articulation":"standard","articulation_tags":["standard","long"],"duration":0.3125,"velocity":40.34116528359068},
{"position":72.71875,"instrument":"TheGrandeurPiano","level2":3,"level3":null,"pitch":94,"articulation":"standard","articulation_tags":["standard","long"],"duration":0.05555555555555555,"velocity":40.34116528359068},
{"position":72.73958333333333,"instrument":"TheGrandeurPiano","level2":4,"level3":null,"pitch":94,"articulation":"standard","articulation_tags":["standard","long"],"duration":0.08333333333333333,"velocity":40.34116528359068},
{"position":72.76041666666667,"instrument":"TheGrandeurPiano","level2":4,"level3":null,"pitch":94,"articulation":"standard","articulation_tags":["standard","long"],"duration":0.1111111111111111,"velocity":40.34116528359068},
{"position":72.78125,"instrument":"Glockenspiel","level2":3,"level3":4,"pitch":103,"articulation":"hits","articulation_tags":["hits","short"],"duration":0.0625,"velocity":92.0925484997837},
{"position":72.78125,"instrument":"Glockenspiel","level2":3,"level3":5,"pitch":103,"articulation":"hits","articulation_tags":["hits","short"],"duration":0.0625,"velocity":92.0925484997837},
{"position":72.79166666666667,"instrument":"TheGrandeurPiano","level2":3,"level3":null,"pitch":94,"articulation":"standard","articulation_tags":["standard","long"],"duration":0.2777777777777778,"velocity":40.34116528359068},
{"position":72.79166666666667,"instrument":"Glockenspiel","level2":3,"level3":4,"pitch":103,"articulation":"hits","articulation_tags":["hits","short"],"duration":0.0625,"velocity":91.88744630411547},
{"position":72.80208333333333,"instrument":"Glockenspiel","level2":2,"level3":6,"pitch":100,"articulation":"hits","articulation_tags":["hits","short"],"duration":0.0625,"velocity":81.78960614235169},
{"position":72.80208333333333,"instrument":"TheGrandeurPiano","level2":3,"level3":null,"pitch":94,"articulation":"standard","articulation_tags":["standard","long"],"duration":0.05555555555555555,"velocity":40.34116528359068},
{"position":72.86458333333333,"instrument":"TheGrandeurPiano","level2":4,"level3":null,"pitch":94,"articulation":"standard","articulation_tags":["standard","long"],"duration":0.09027777777777778,"velocity":40.34116528359068},
{"position":72.88541666666667,"instrument":"TheGrandeurPiano","level2":3,"level3":null,"pitch":93,"articulation":"standard","articulation_tags":["standard","long"],"duration":0.0625,"velocity":40.34116528359068},
{"position":72.92708333333333,"instrument":"TheGrandeurPiano","level2":4,"level3":null,"pitch":94,"articulation":"standard","articulation_tags":["standard","long"],"duration":0.125,"velocity":40.19840452368932},
{"position":72.94791666666667,"instrument":"Glockenspiel","level2":3,"level3":3,"pitch":102,"articulation":"hits","articulation_tags":["hits","short"],"duration":0.0625,"velocity":91.4553177716824},
{"position":72.97916666666667,"instrument":"TheGrandeurPiano","level2":3,"level3":null,"pitch":93,"articulation":"standard","articulation_tags":["standard","long"],"duration":0.0625,"velocity":40.19840452368932},
{"position":73.0,"instrument":"TheGrandeurPiano","level2":2,"level3":null,"pitch":85,"articulation":"standard","articulation_tags":["standard","long"],"duration":0.22916666666666666,"velocity":40.19840452368932},
{"position":73.0,"instrument":"TheGrandeurPiano","level2":4,"level3":null,"pitch":95,"articulation":"standard","articulation_tags":["standard","long"],"duration":0.10416666666666667,"velocity":40.19840452368932},
{"position":73.02083333333333,"instrument":"Glockenspiel","level2":3,"level3":4,"pitch":103,"articulation":"hits","articulation_tags":["hits","short"],"duration":0.0625,"velocity":91.2428509026034},
{"position":73.05208333333333,"instrument":"Glockenspiel","level2":3,"level3":5,"pitch":102,"articulation":"hits","articulation_tags":["hits","short"],"duration":0.0625,"velocity":91.2428509026034},
{"position":73.07291666666667,"instrument":"TheGrandeurPiano","level2":3,"level3":null,"pitch":92,"articulation":"standard","articulation_tags":["standard","long"],"duration":0.06944444444444445,"velocity":40.19840452368932},
{"position":73.11458333333333,"instrument":"TheGrandeurPiano","level2":4,"level3":null,"pitch":95,"articulation":"standard","articulation_tags":["standard","long"],"duration":0.13194444444444445,"velocity":40.19840452368932},
{"position":73.125,"instrument":"TheGrandeurPiano","level2":2,"level3":null,"pitch":85,"articulation":"standard","articulation_tags":["standard","long"],"duration":0.3055555555555556,"velocity":40.19840452368932},
{"position":73.15625,"instrument":"TheGrandeurPiano","level2":4,"level3":null,"pitch":95,"articulation":"standard","articulation_tags":["standard","long"],"duration":0.11805555555555555,"velocity":40.19840452368932},
{"position":73.17708333333333,"instrument":"TheGrandeurPiano","level2":3,"level3":null,"pitch":92,"articulation":"standard","articulation_tags":["standard","long"],"duration":0.06944444444444445,"velocity":40.19840452368932},
{"position":73.19791666666667,"instrument":"TheGrandeurPiano","level2":3,"level3":null,"pitch":92,"articulation":"standard","articulation_tags":["standard","long"],"duration":0.2013888888888889,"velocity":40.19840452368932},
{"position":73.20833333333333,"instrument":"Glockenspiel","level2":3,"level3":6,"pitch":103,"articulation":"hits","articulation_tags":["hits","short"],"duration":0.0625,"velocity":90.61048146082034},
{"position":73.20833333333333,"instrument":"Glockenspiel","level2":3,"level3":7,"pitch":103,"articulation":"hits","articulation_tags":["hits","short"],"duration":0.0625,"velocity":90.61048146082034},
{"position":73.20833333333333,"instrument":"Glockenspiel","level2":3,"level3":7,"pitch":103,"articulation":"hits","articulation_tags":["hits","short"],"duration":0.0625,"velocity":90.61048146082034},
{"position":73.20833333333333,"instrument":"Glockenspiel","level2":3,"level3":7,"pitch":103,"articulation":"hits","articulation_tags":["hits","short"],"duration":0.0625,"velocity":90.61048146082034},
{"position":73.20833333333333,"instrument":"Glockenspiel","level2":3,"level3":4,"pitch":104,"articulation":"hits","articulation_tags":["hits","short"],"duration":0.0625,"velocity":90.61048146082034},
{"position":73.28125,"instrument":"TheGrandeurPiano","level2":3,"level3":null,"pitch":91,"articulation":"standard","articulation_tags":["standard","long"],"duration":0.0763888888888889,"velocity":40.19840452368932},
{"position":73.3125,"instrument":"TheGrandeurPiano","level2":4,"level3":null,"pitch":95,"articulation":"standard","articulation_tags":["standard","long"],"duration":0.1388888888888889,"velocity":40.34116528359068},
{"position":73.34375,"instrument":"TheGrandeurPiano","level2":2,"level3":null,"pitch":85,"articulation":"standard","articulation_tags":["standard","long"],"duration":0.20833333333333334,"velocity":40.34116528359068},
{"position":73.34375,"instrument":"TheGrandeurPiano","level2":4,"level3":null,"pitch":96,"articulation":"standard","articulation_tags":["standard","long"],"duration":0.1388888888888889,"velocity":40.34116528359068},
{"position":73.39583333333333,"instrument":"TheGrandeurPiano","level2":3,"level3":null,"pitch":91,"articulation":"standard","articulation_tags":["standard","long"],"duration":0.0763888888888889,"velocity":40.34116528359068},
{"position":73.40625,"instrument":"Glockenspiel","level2":3,"level3":0,"pitch":104,"articulation":"hits","articulation_tags":["hits","short"],"duration":0.0625,"velocity":90.19875626101222},
{"position":73.41666666666667,"instrument":"Glockenspiel","level2":2,"level3":7,"pitch":99,"articulation":"hits","articulation_tags":["hits","short"],"duration":0.0625,"velocity":81.26669259426393},
{"position":73.46875,"instrument":"Glockenspiel","level2":4,"level3":3,"pitch":106,"articulation":"hits","articulation_tags":["hits","short"],"duration":0.0625,"velocity":97.23628842018043},
{"position":73.5,"instrument":"TheGrandeurPiano","level2":3,"level3":null,"pitch":91,"articulation":"standard","articulation_tags":["standard","long"],"duration":0.16666666666666666,"velocity":40.34116528359068},
{"position":73.51041666666667,"instrument":"TheGrandeurPiano","level2":4,"level3":null,"pitch":96,"articulation":"standard","articulation_tags":["standard","long"],"duration":0.14583333333333334,"velocity":40.34116528359068},
{"position":73.51041666666667,"instrument":"TheGrandeurPiano","level2":3,"level3":null,"pitch":90,"articulation":"standard","articulation_tags":["standard","long"],"duration":0.08333333333333333,"velocity":40.34116528359068},
{"position":73.54166666666667,"instrument":"TheGrandeurPiano","level2":4,"level3":null,"pitch":96,"articulation":"standard","articulation_tags":["standard","long"],"duration":0.1527777777777778,"velocity":40.34116528359068},
{"position":73.55208333333333,"instrument":"Glockenspiel","level2":4,"level3":4,"pitch":106,"articulation":"hits","articulation_tags":["hits","short"],"duration":0.0625,"velocity":97.39669866977745},
{"position":73.55208333333333,"instrument":"Glockenspiel","level2":4,"level3":5,"pitch":106,"articulation":"hits","articulation_tags":["hits","short"],"duration":0.0625,"velocity":97.39669866977745},
{"position":73.58333333333333,"instrument":"TheGrandeurPiano","level2":2,"level3":null,"pitch":96,"articulation":"standard","articulation_tags":["standard","long"],"duration":0.2986111111111111,"velocity":40.34116528359068},
{"position":73.59375,"instrument":"Glockenspiel","level2":4,"level3":3,"pitch":105,"articulation":"hits","articulation_tags":["hits","short"],"duration":0.0625,"velocity":97.39669866977745},
{"position":73.625,"instrument":"Glockenspiel","level2":3,"level3":8,"pitch":103,"articulation":"hits","articulation_tags":["hits","short"],"duration":0.0625,"velocity":89.77661959708814},
{"position":73.625,"instrument":"TheGrandeurPiano","level2":3,"level3":null,"pitch":90,"articulation":"standard","articulation_tags":["standard","long"],"duration":0.08333333333333333,"velocity":40.34116528359068},
{"position":73.65625,"instrument":"Glockenspiel","level2":3,"level3":6,"pitch":104,"articulation":"hits","articulation_tags":["hits","short"],"duration":0.0625,"velocity":89.57527435122606},
{"position":73.65625,"instrument":"TheGrandeurPiano","level2":2,"level3":null,"pitch":96,"articulation":"standard","articulation_tags":["standard","long"],"duration":0.1875,"velocity":40.34116528359068},
{"position":73.6875,"instrument":"Glockenspiel","level2":3,"level3":9,"pitch":103,"articulation":"hits","articulation_tags":["hits","short"],"duration":0.0625,"velocity":89.57527435122606},
{"position":73.72916666666667,"instrument":"TheGrandeurPiano","level2":4,"level3":null,"pitch":96,"articulation":"standard","articulation_tags":["standard","long"],"duration":0.1527777777777778,"velocity":40.764302427157574},
{"position":73.75,"instrument":"Glockenspiel","level2":3,"level3":2,"pitch":104,"articulation":"hits","articulation_tags":["hits","short"],"duration":0.0625,"velocity":89.57527435122606},
{"position":73.76041666666667,"instrument":"TheGrandeurPiano","level2":3,"level3":null,"pitch":89,"articulation":"standard","articulation_tags":["standard","long"],"duration":0.09027777777777778,"velocity":40.764302427157574},
{"position":73.76041666666667,"instrument":"TheGrandeurPiano","level2":3,"level3":null,"pitch":89,"articulation":"standard","articulation_tags":["standard","long"],"duration":0.1527777777777778,"velocity":40.764302427157574},
{"position":73.77083333333333,"instrument":"Piccolo","level2":2,"level3":1,"pitch":100,"articulation":"legato","articulation_tags":["legato","lg"],"duration":0.23958333333333334,"velocity":33.72736159230385},
{"position":73.78125,"instrument":"TheGrandeurPiano","level2":4,"level3":null,"pitch":85,"articulation":"standard","articulation_tags":["standard","long"],"duration":0.1736111111111111,"velocity":40.764302427157574},
{"position":73.88541666666667,"instrument":"TheGrandeurPiano","level2":3,"level3":null,"pitch":89,"articulation":"standard","articulation_tags":["standard","long"],"duration":0.09027777777777778,"velocity":40.764302427157574},
{"position":73.89583333333333,"instrument":"Glockenspiel","level2":4,"level3":5,"pitch":106,"articulation":"hits","articulation_tags":["hits","short"],"duration":0.0625,"velocity":97.56404615715724},
{"position":73.90625,"instrument":"Glockenspiel","level2":4,"level3":4,"pitch":107,"articulation":"hits","articulation_tags":["hits","short"],"duration":0.0625,"velocity":97.56404615715724},
{"position":73.9375,"instrument":"TheGrandeurPiano","level2":2,"level3":null,"pitch":96,"articulation":"standard","articulation_tags":["standard","long"],"duration":0.1736111111111111,"velocity":40.764302427157574},
{"position":73.95833333333333,"instrument":"TheGrandeurPiano","level2":4,"level3":null,"pitch":85,"articulation":"standard","articulation_tags":["standard","long"],"duration":0.1597222222222222,"velocity":40.764302427157574},
{"position":73.97916666666667,"instrument":"TheGrandeurPiano","level2":3,"level3":null,"pitch":89,"articulation":"standard","articulation_tags":["standard","long"],"duration":0.1388888888888889,"velocity":40.764302427157574},
{"position":74.02083333333333,"instrument":"Piccolo","level2":3,"level3":2,"pitch":104,"articulation":"trill_2m","articulation_tags":["trill_2m","long","trill","m2"],"duration":1.5208333333333333,"velocity":49.46321842964242},
{"position":74.02083333333333,"instrument":"TheGrandeurPiano","level2":3,"level3":null,"pitch":88,"articulation":"standard","articulation_tags":["standard","long"],"duration":0.09027777777777778,"velocity":40.764302427157574},
{"position":74.03125,"instrument":"Glockenspiel","level2":3,"level3":10,"pitch":103,"articulation":"hits","articulation_tags":["hits","short"],"duration":0.0625,"velocity":88.53407490590543},
{"position":74.03125,"instrument":"Glockenspiel","level2":3,"level3":11,"pitch":103,"articulation":"hits","articulation_tags":["hits","short"],"duration":0.0625,"velocity":88.53407490590543},
{"position":74.03125,"instrument":"TheGrandeurPiano","level2":2,"level3":null,"pitch":96,"articulation":"standard","articulation_tags":["standard","long"],"duration":0.2916666666666667,"velocity":40.764302427157574},
{"position":74.04166666666667,"instrument":"TheGrandeurPiano","level2":4,"level3":null,"pitch":85,"articulation":"standard","articulation_tags":["standard","long"],"duration":0.2013888888888889,"velocity":40.764302427157574},
{"position":74.16666666666667,"instrument":"TheGrandeurPiano","level2":3,"level3":null,"pitch":88,"articulation":"standard","articulation_tags":["standard","long"],"duration":0.09722222222222222,"velocity":41.453265458937274},
{"position":74.1875,"instrument":"Glockenspiel","level2":3,"level3":7,"pitch":103,"articulation":"hits","articulation_tags":["hits","short"],"duration":0.0625,"velocity":88.32925284056981},
{"position":74.1875,"instrument":"TheGrandeurPiano","level2":3,"level3":null,"pitch":88,"articulation":"standard","articulation_tags":["standard","long"],"duration":0.125,"velocity":41.453265458937274},
{"position":74.19791666666667,"instrument":"TheGrandeurPiano","level2":2,"level3":null,"pitch":96,"articulation":"standard","articulation_tags":["standard","long"],"duration":0.1527777777777778,"velocity":41.453265458937274},
{"position":74.19791666666667,"instrument":"TheGrandeurPiano","level2":4,"level3":null,"pitch":85,"articulation":"standard","articulation_tags":["standard","long"],"duration":0.16666666666666666,"velocity":41.453265458937274},
{"position":74.28125,"instrument":"Glockenspiel","level2":3,"level3":12,"pitch":103,"articulation":"hits","articulation_tags":["hits","short"],"duration":0.0625,"velocity":88.08687985213217},
{"position":74.28125,"instrument":"Glockenspiel","level2":3,"level3":13,"pitch":103,"articulation":"hits","articulation_tags":["hits","short"],"duration":0.0625,"velocity":88.08687985213217},
{"position":74.30208333333333,"instrument":"TheGrandeurPiano","level2":3,"level3":null,"pitch":87,"articulation":"standard","articulation_tags":["standard","long"],"duration":0.09722222222222222,"velocity":41.453265458937274},
{"position":74.34375,"instrument":"TheGrandeurPiano","level2":4,"level3":null,"pitch":86,"articulation":"standard","articulation_tags":["standard","long"],"duration":0.2361111111111111,"velocity":41.453265458937274},
{"position":74.375,"instrument":"TheGrandeurPiano","level2":3,"level3":null,"pitch":87,"articulation":"standard","articulation_tags":["standard","long"],"duration":0.11805555555555555,"velocity":41.453265458937274},
{"position":74.39583333333333,"instrument":"Glockenspiel","level2":3,"level3":8,"pitch":103,"articulation":"hits","articulation_tags":["hits","short"],"duration":0.0625,"velocity":87.63748124226751},
{"position":74.42708333333333,"instrument":"TheGrandeurPiano","level2":2,"level3":null,"pitch":96,"articulation":"standard","articulation_tags":["standard","long"],"duration":0.1388888888888889,"velocity":41.453265458937274},
{"position":74.4375,"instrument":"TheGrandeurPiano","level2":4,"level3":null,"pitch":86,"articulation":"standard","articulation_tags":["standard","long"],"duration":0.16666666666666666,"velocity":41.453265458937274},
{"position":74.45833333333333,"instrument":"TheGrandeurPiano","level2":3,"level3":null,"pitch":87,"articulation":"standard","articulation_tags":["standard","long"],"duration":0.10416666666666667,"velocity":41.453265458937274},
{"position":74.46875,"instrument":"TheGrandeurPiano","level2":2,"level3":null,"pitch":95,"articulation":"standard","articulation_tags":["standard","long"],"duration":0.2847222222222222,"velocity":41.453265458937274},
{"position":74.47916666666667,"instrument":"Glockenspiel","level2":3,"level3":7,"pitch":103,"articulation":"hits","articulation_tags":["hits","short"],"duration":0.0625,"velocity":87.43151951949572},
{"position":74.5,"instrument":"Glockenspiel","level2":4,"level3":2,"pitch":107,"articulation":"hits","articulation_tags":["hits","short"],"duration":0.0625,"velocity":97.80713288897695},
{"position":74.55208333333333,"instrument":"TheGrandeurPiano","level2":3,"level3":null,"pitch":87,"articulation":"standard","articulation_tags":["standard","long"],"duration":0.1111111111111111,"velocity":41.453265458937274},
{"position":74.5625,"instrument":"Glockenspiel","level2":4,"level3":2,"pitch":107,"articulation":"hits","articulation_tags":["hits","short"],"duration":0.0625,"velocity":97.80713288897695},
{"position":74.60416666666667,"instrument":"Glockenspiel","level2":3,"level3":9,"pitch":103,"articulation":"hits","articulation_tags":["hits","short"],"duration":0.0625,"velocity":87.18815698786084},
{"position":74.61458333333333,"instrument":"TheGrandeurPiano","level2":3,"level3":null,"pitch":86,"articulation":"standard","articulation_tags":["standard","long"],"duration":0.10416666666666667,"velocity":40.054759770892424},
{"position":74.64583333333333,"instrument":"TheGrandeurPiano","level2":2,"level3":null,"pitch":95,"articulation":"standard","articulation_tags":["standard","long"],"duration":0.13194444444444445,"velocity":40.054759770892424},
{"position":74.6875,"instrument":"TheGrandeurPiano","level2":4,"level3":null,"pitch":86,"articulation":"standard","articulation_tags":["standard","long"],"duration":0.1736111111111111,"velocity":40.054759770892424},
{"position":74.69791666666667,"instrument":"TheGrandeurPiano","level2":4,"level3":null,"pitch":86,"articulation":"standard","articulation_tags":["standard","long"],"duration":0.2777777777777778,"velocity":40.054759770892424},
{"position":74.71875,"instrument":"TheGrandeurPiano","level2":3,"level3":null,"pitch":86,"articulation":"standard","articulation_tags":["standard","long"],"duration":0.10416666666666667,"velocity":40.054759770892424},
{"position":74.75,"instrument":"Glockenspiel","level2":3,"level3":6,"pitch":103,"articulation":"hits","articulation_tags":["hits","short"],"duration":0.0625,"velocity":86.73891412801329},
{"position":74.77083333333333,"instrument":"TheGrandeurPiano","level2":3,"level3":null,"pitch":86,"articulation":"standard","articulation_tags":["standard","long"],"duration":0.1111111111111111,"velocity":40.054759770892424},
{"position":74.83333333333333,"instrument":"TheGrandeurPiano","level2":2,"level3":null,"pitch":95,"articulation":"standard","articulation_tags":["standard","long"],"duration":0.11805555555555555,"velocity":40.054759770892424},
{"position":74.86458333333333,"instrument":"Glockenspiel","level2":3,"level3":6,"pitch":103,"articulation":"hits","articulation_tags":["hits","short"],"duration":0.0625,"velocity":86.5342336752266},
{"position":74.86458333333333,"instrument":"TheGrandeurPiano","level2":3,"level3":null,"pitch":86,"articulation":"standard","articulation_tags":["standard","long"],"duration":0.09722222222222222,"velocity":40.054759770892424},
{"position":74.89583333333333,"instrument":"TheGrandeurPiano","level2":2,"level3":null,"pitch":95,"articulation":"standard","articulation_tags":["standard","long"],"duration":0.2847222222222222,"velocity":40.054759770892424},
{"position":74.91666666666667,"instrument":"Glockenspiel","level2":3,"level3":4,"pitch":104,"articulation":"hits","articulation_tags":["hits","short"],"duration":0.0625,"velocity":86.2897606177437},
{"position":74.92708333333333,"instrument":"TheGrandeurPiano","level2":3,"level3":null,"pitch":85,"articulation":"standard","articulation_tags":["standard","long"],"duration":0.1111111111111111,"velocity":40.054759770892424},
{"position":74.95833333333333,"instrument":"TheGrandeurPiano","level2":4,"level3":null,"pitch":86,"articulation":"standard","articulation_tags":["standard","long"],"duration":0.18055555555555555,"velocity":40.054759770892424},
{"position":75.01041666666667,"instrument":"Glockenspiel","level2":3,"level3":5,"pitch":103,"articulation":"hits","articulation_tags":["hits","short"],"duration":0.0625,"velocity":86.08578626554336},
{"position":75.01041666666667,"instrument":"TheGrandeurPiano","level2":2,"level3":null,"pitch":95,"articulation":"standard","articulation_tags":["standard","long"],"duration":0.10416666666666667,"velocity":41.317034507811286},
{"position":75.01041666666667,"instrument":"TheGrandeurPiano","level2":3,"level3":null,"pitch":85,"articulation":"standard","articulation_tags":["standard","long"],"duration":0.09027777777777778,"velocity":41.317034507811286},
{"position":75.04166666666667,"instrument":"Glockenspiel","level2":3,"level3":12,"pitch":103,"articulation":"hits","articulation_tags":["hits","short"],"duration":0.0625,"velocity":85.84070548169251},
{"position":75.08333333333333,"instrument":"Glockenspiel","level2":3,"level3":1,"pitch":103,"articulation":"hits","articulation_tags":["hits","short"],"duration":0.0625,"velocity":85.84070548169251},
{"position":75.09375,"instrument":"TheGrandeurPiano","level2":3,"level3":null,"pitch":85,"articulation":"standard","articulation_tags":["standard","long"],"duration":0.1111111111111111,"velocity":41.317034507811286},
{"position":75.09375,"instrument":"Glockenspiel","level2":3,"level3":1,"pitch":103,"articulation":"hits","articulation_tags":["hits","short"],"duration":0.0625,"velocity":85.63748699561816},
{"position":75.11458333333333,"instrument":"TheGrandeurPiano","level2":4,"level3":null,"pitch":87,"articulation":"standard","articulation_tags":["standard","long"],"duration":0.3263888888888889,"velocity":41.317034507811286},
{"position":75.13541666666667,"instrument":"Glockenspiel","level2":4,"level3":1,"pitch":105,"articulation":"hits","articulation_tags":["hits","short"],"duration":0.0625,"velocity":98.19758067439955},
{"position":75.14583333333333,"instrument":"TheGrandeurPiano","level2":3,"level3":null,"pitch":85,"articulation":"standard","articulation_tags":["standard","long"],"duration":0.08333333333333333,"velocity":41.317034507811286},
{"position":75.17708333333333,"instrument":"TheGrandeurPiano","level2":2,"level3":null,"pitch":95,"articulation":"standard","articulation_tags":["standard","long"],"duration":0.09722222222222222,"velocity":41.317034507811286},
{"position":75.1875,"instrument":"Glockenspiel","level2":3,"level3":7,"pitch":103,"articulation":"hits","articulation_tags":["hits","short"],"duration":0.0625,"velocity":85.39175899979105},
{"position":75.22916666666667,"instrument":"TheGrandeurPiano","level2":4,"level3":null,"pitch":87,"articulation":"standard","articulation_tags":["standard","long"],"duration":0.1875,"velocity":41.317034507811286},
{"position":75.26041666666667,"instrument":"Glockenspiel","level2":3,"level3":4,"pitch":103,"articulation":"hits","articulation_tags":["hits","short"],"duration":0.0625,"velocity":85.39175899979105},
{"position":75.26041666666667,"instrument":"TheGrandeurPiano","level2":3,"level3":null,"pitch":85,"articulation":"standard","articulation_tags":["standard","long"],"duration":0.0763888888888889,"velocity":41.317034507811286},
{"position":75.27083333333333,"instrument":"TheGrandeurPiano","level2":3,"level3":null,"pitch":96,"articulation":"standard","articulation_tags":["standard","long"],"duration":0.11805555555555555,"velocity":41.317034507811286},
{"position":75.32291666666667,"instrument":"Glockenspiel","level2":3,"level3":5,"pitch":103,"articulation":"hits","articulation_tags":["hits","short"],"duration":0.0625,"velocity":84.9429329329131},
{"position":75.32291666666667,"instrument":"TheGrandeurPiano","level2":2,"level3":null,"pitch":95,"articulation":"standard","articulation_tags":["standard","long"],"duration":0.09027777777777778,"velocity":41.317034507811286},
{"position":75.32291666666667,"instrument":"TheGrandeurPiano","level2":2,"level3":null,"pitch":94,"articulation":"standard","articulation_tags":["standard","long"],"duration":0.2847222222222222,"velocity":41.317034507811286},
{"position":75.32291666666667,"instrument":"Glockenspiel","level2":3,"level3":7,"pitch":103,"articulation":"hits","articulation_tags":["hits","short"],"duration":0.0625,"velocity":84.9429329329131},
{"position":75.36458333333333,"instrument":"Glockenspiel","level2":3,"level3":0,"pitch":104,"articulation":"hits","articulation_tags":["hits","short"],"duration":0.0625,"velocity":84.9429329329131},
{"position":75.375,"instrument":"TheGrandeurPiano","level2":3,"level3":null,"pitch":96,"articulation":"standard","articulation_tags":["standard","long"],"duration":0.06944444444444445,"velocity":41.317034507811286},
{"position":75.44791666666667,"instrument":"TheGrandeurPiano","level2":3,"level3":null,"pitch":96,"articulation":"standard","articulation_tags":["standard","long"],"duration":0.11805555555555555,"velocity":41.317034507811286},
{"position":75.45833333333333,"instrument":"TheGrandeurPiano","level2":2,"level3":null,"pitch":94,"articulation":"standard","articulation_tags":["standard","long"],"duration":0.08333333333333333,"velocity":39.173357932134294},
{"position":75.48958333333333,"instrument":"TheGrandeurPiano","level2":3,"level3":null,"pitch":96,"articulation":"standard","articulation_tags":["standard","long"],"duration":0.06944444444444445,"velocity":40.764302427157574},
{"position":75.51041666666667,"instrument":"TheGrandeurPiano","level2":4,"level3":null,"pitch":87,"articulation":"standard","articulation_tags":["standard","long"],"duration":0.19444444444444445,"velocity":40.764302427157574},
{"position":75.54166666666667,"instrument":"Piccolo","level2":3,"level3":2,"pitch":104,"articulation":"trill_2m","articulation_tags":["trill_2m","long","trill","m2"],"duration":0.25,"velocity":40.501051180577335},
{"position":75.5625,"instrument":"Glockenspiel","level2":4,"level3":6,"pitch":107,"articulation":"hits","articulation_tags":["hits","short"],"duration":0.0625,"velocity":98.00308963508941},
{"position":75.5625,"instrument":"Glockenspiel","level2":4,"level3":7,"pitch":106,"articulation":"hits","articulation_tags":["hits","short"],"duration":0.0625,"velocity":98.00308963508941},
{"position":75.57291666666667,"instrument":"TheGrandeurPiano","level2":2,"level3":null,"pitch":94,"articulation":"standard","articulation_tags":["standard","long"],"duration":0.06944444444444445,"velocity":40.764302427157574},
{"position":75.58333333333333,"instrument":"TheGrandeurPiano","level2":3,"level3":null,"pitch":96,"articulation":"standard","articulation_tags":["standard","long"],"duration":0.0625,"velocity":40.764302427157574},
{"position":75.60416666666667,"instrument":"TheGrandeurPiano","level2":4,"level3":null,"pitch":87,"articulation":"standard","articulation_tags":["standard","long"],"duration":0.4027777777777778,"velocity":40.764302427157574},
{"position":75.625,"instrument":"TheGrandeurPiano","level2":3,"level3":null,"pitch":95,"articulation":"standard","articulation_tags":["standard","long"],"duration":0.11805555555555555,"velocity":40.764302427157574},
{"position":75.63541666666667,"instrument":"Glockenspiel","level2":3,"level3":0,"pitch":104,"articulation":"hits","articulation_tags":["hits","short"],"duration":0.0625,"velocity":83.80129363278499},
{"position":75.67708333333333,"instrument":"TheGrandeurPiano","level2":2,"level3":null,"pitch":94,"articulation":"standard","articulation_tags":["standard","long"],"duration":0.0625,"velocity":40.764302427157574},
{"position":75.67708333333333,"instrument":"TheGrandeurPiano","level2":3,"level3":null,"pitch":95,"articulation":"standard","articulation_tags":["standard","long"],"duration":0.05555555555555555,"velocity":40.764302427157574},
{"position":75.6875,"instrument":"Glockenspiel","level2":3,"level3":3,"pitch":103,"articulation":"hits","articulation_tags":["hits","short"],"duration":0.0625,"velocity":83.56066813466538},
{"position":75.69791666666667,"instrument":"Glockenspiel","level2":4,"level3":6,"pitch":107,"articulation":"hits","articulation_tags":["hits","short"],"duration":0.0625,"velocity":98.30779720702105},
{"position":75.76041666666667,"instrument":"TheGrandeurPiano","level2":2,"level3":null,"pitch":94,"articulation":"standard","articulation_tags":["standard","long"],"duration":0.3125,"velocity":40.764302427157574},
{"position":75.76041666666667,"instrument":"TheGrandeurPiano","level2":3,"level3":null,"pitch":95,"articulation":"standard","articulation_tags":["standard","long"],"duration":0.04861111111111111,"velocity":40.764302427157574},
{"position":75.78125,"instrument":"TheGrandeurPiano","level2":2,"level3":null,"pitch":94,"articulation":"standard","articulation_tags":["standard","long"],"duration":0.05555555555555555,"velocity":40.764302427157574},
{"position":75.79166666666667,"instrument":"Piccolo","level2":3,"level3":5,"pitch":103,"articulation":"trill_2m","articulation_tags":["trill_2m","long","trill","m2"],"duration":0.0,"velocity":38.6481475095123},
{"position":75.80208333333333,"instrument":"TheGrandeurPiano","level2":4,"level3":null,"pitch":87,"articulation":"standard","articulation_tags":["standard","long"],"duration":0.2013888888888889,"velocity":40.764302427157574},
{"position":75.80208333333333,"instrument":"TheGrandeurPiano","level2":3,"level3":null,"pitch":95,"articulation":"standard","articulation_tags":["standard","long"],"duration":0.11805555555555555,"velocity":40.764302427157574},
{"position":75.84375,"instrument":"TheGrandeurPiano","level2":3,"level3":null,"pitch":95,"articulation":"standard","articulation_tags":["standard","long"],"duration":0.04861111111111111,"velocity":40.764302427157574},
{"position":75.86458333333333,"instrument":"TheGrandeurPiano","level2":2,"level3":null,"pitch":94,"articulation":"standard","articulation_tags":["standard","long"],"duration":0.04861111111111111,"velocity":40.764302427157574},
{"position":75.88541666666667,"instrument":"Piccolo","level2":3,"level3":3,"pitch":103,"articulation":"trill_2m","articulation_tags":["trill_2m","long","trill","m2"],"duration":0.3645833333333333,"velocity":37.74773855479127},
{"position":75.90625,"instrument":"TheGrandeurPiano","level2":3,"level3":null,"pitch":95,"articulation":"standard","articulation_tags":["standard","long"],"duration":0.041666666666666664,"velocity":40.764302427157574},
{"position":75.9375,"instrument":"TheGrandeurPiano","level2":2,"level3":null,"pitch":94,"articulation":"standard","articulation_tags":["standard","long"],"duration":0.041666666666666664,"velocity":40.764302427157574},
{"position":75.97916666666667,"instrument":"TheGrandeurPiano","level2":3,"level3":null,"pitch":95,"articulation":"standard","articulation_tags":["standard","long"],"duration":0.034722222222222224,"velocity":42.516943124414624},
{"position":75.97916666666667,"instrument":"TheGrandeurPiano","level2":3,"level3":null,"pitch":94,"articulation":"standard","articulation_tags":["standard","long"],"duration":0.1111111111111111,"velocity":42.516943124414624},
{"position":76.01041666666667,"instrument":"TheGrandeurPiano","level2":2,"level3":null,"pitch":94,"articulation":"standard","articulation_tags":["standard","long"],"duration":0.034722222222222224,"velocity":42.516943124414624},
{"position":76.03125,"instrument":"TheGrandeurPiano","level2":3,"level3":null,"pitch":94,"articulation":"standard","articulation_tags":["standard","long"],"duration":0.034722222222222224,"velocity":42.516943124414624},
{"position":76.0625,"instrument":"TheGrandeurPiano","level2":2,"level3":null,"pitch":94,"articulation":"standard","articulation_tags":["standard","long"],"duration":0.034722222222222224,"velocity":42.516943124414624},
{"position":76.08333333333333,"instrument":"Glockenspiel","level2":3,"level3":0,"pitch":104,"articulation":"hits","articulation_tags":["hits","short"],"duration":0.0625,"velocity":81.96285381472181},
{"position":76.08333333333333,"instrument":"TheGrandeurPiano","level2":3,"level3":null,"pitch":94,"articulation":"standard","articulation_tags":["standard","long"],"duration":0.027777777777777776,"velocity":42.516943124414624},
{"position":76.09375,"instrument":"TheGrandeurPiano","level2":4,"level3":null,"pitch":87,"articulation":"standard","articulation_tags":["standard","long"],"duration":0.2013888888888889,"velocity":42.516943124414624},
{"position":76.11458333333333,"instrument":"TheGrandeurPiano","level2":2,"level3":null,"pitch":94,"articulation":"standard","articulation_tags":["standard","long"],"duration":0.027777777777777776,"velocity":40.764302427157574},
{"position":76.125,"instrument":"TheGrandeurPiano","level2":3,"level3":null,"pitch":94,"articulation":"standard","articulation_tags":["standard","long"],"duration":0.020833333333333332,"velocity":40.764302427157574},
{"position":76.14583333333333,"instrument":"TheGrandeurPiano","level2":3,"level3":null,"pitch":94,"articulation":"standard","articulation_tags":["standard","long"],"duration":0.05555555555555555,"velocity":40.764302427157574},
{"position":76.15625,"instrument":"TheGrandeurPiano","level2":2,"level3":null,"pitch":94,"articulation":"standard","articulation_tags":["standard","long"],"duration":0.020833333333333332,"velocity":40.764302427157574},
{"position":76.15625,"instrument":"TheGrandeurPiano","level2":3,"level3":null,"pitch":94,"articulation":"standard","articulation_tags":["standard","long"],"duration":0.020833333333333332,"velocity":40.764302427157574},
{"position":76.17708333333333,"instrument":"Glockenspiel","level2":3,"level3":3,"pitch":103,"articulation":"hits","articulation_tags":["hits","short"],"duration":0.0625,"velocity":81.07347965398722},
{"position":76.1875,"instrument":"TheGrandeurPiano","level2":2,"level3":null,"pitch":94,"articulation":"standard","articulation_tags":["standard","long"],"duration":0.013888888888888888,"velocity":40.764302427157574},
{"position":76.1875,"instrument":"TheGrandeurPiano","level2":3,"level3":null,"pitch":94,"articulation":"standard","articulation_tags":["standard","long"],"duration":0.013888888888888888,"velocity":40.764302427157574},
{"position":76.20833333333333,"instrument":"TheGrandeurPiano","level2":4,"level3":null,"pitch":88,"articulation":"standard","articulation_tags":["standard","long"],"duration":0.5208333333333334,"velocity":40.764302427157574},
{"position":76.20833333333333,"instrument":"TheGrandeurPiano","level2":2,"level3":null,"pitch":94,"articulation":"standard","articulation_tags":["standard","long"],"duration":0.006944444444444444,"velocity":40.764302427157574},
{"position":76.20833333333333,"instrument":"TheGrandeurPiano","level2":3,"level3":null,"pitch":94,"articulation":"standard","articulation_tags":["standard","long"],"duration":0.006944444444444444,"velocity":40.764302427157574},
{"position":76.21875,"instrument":"Glockenspiel","level2":3,"level3":0,"pitch":103,"articulation":"hits","articulation_tags":["hits","short"],"duration":0.0625,"velocity":80.66093198078084},
{"position":76.21875,"instrument":"TheGrandeurPiano","level2":2,"level3":null,"pitch":94,"articulation":"standard","articulation_tags":["standard","long"],"duration":0.006944444444444444,"velocity":40.764302427157574},
{"position":76.21875,"instrument":"TheGrandeurPiano","level2":3,"level3":null,"pitch":94,"articulation":"standard","articulation_tags":["standard","long"],"duration":0.006944444444444444,"velocity":40.764302427157574},
{"position":76.22916666666667,"instrument":"TheGrandeurPiano","level2":2,"level3":null,"pitch":94,"articulation":"standard","articulation_tags":["standard","long"],"duration":0.0,"velocity":40.764302427157574},
{"position":76.22916666666667,"instrument":"TheGrandeurPiano","level2":3,"level3":null,"pitch":94,"articulation":"standard","articulation_tags":["standard","long"],"duration":0.0,"velocity":40.764302427157574},
{"position":76.25,"instrument":"Piccolo","level2":3,"level3":3,"pitch":103,"articulation":"trill_2m","articulation_tags":["trill_2m","long","trill","m2"],"duration":0.010416666666666666,"velocity":32.52988768546559},
{"position":76.40625,"instrument":"TheGrandeurPiano","level2":4,"level3":null,"pitch":88,"articulation":"standard","articulation_tags":["standard","long"],"duration":0.20833333333333334,"velocity":40.764302427157574},
{"position":76.42708333333333,"instrument":"Piccolo","level2":4,"level3":4,"pitch":107,"articulation":"tenuto","articulation_tags":["tenuto","t","short"],"duration":0.125,"velocity":98.35406626907559},
{"position":76.60416666666667,"instrument":"Piccolo","level2":4,"level3":0,"pitch":108,"articulation":"marcato","articulation_tags":["marcato","short"],"duration":0.125,"velocity":98.35406626907559},
{"position":76.64583333333333,"instrument":"Glockenspiel","level2":4,"level3":1,"pitch":105,"articulation":"hits","articulation_tags":["hits","short"],"duration":0.0625,"velocity":98.35406626907559},
{"position":76.71875,"instrument":"TheGrandeurPiano","level2":4,"level3":null,"pitch":88,"articulation":"standard","articulation_tags":["standard","long"],"duration":0.2152777777777778,"velocity":41.317034507811286},
{"position":76.98958333333333,"instrument":"TheGrandeurPiano","level2":4,"level3":null,"pitch":88,"articulation":"standard","articulation_tags":["standard","long"],"duration":0.7777777777777778,"velocity":41.317034507811286},
{"position":77.04166666666667,"instrument":"TheGrandeurPiano","level2":4,"level3":null,"pitch":88,"articulation":"standard","articulation_tags":["standard","long"],"duration":0.2222222222222222,"velocity":41.317034507811286},
{"position":77.15625,"instrument":"Piccolo","level2":4,"level3":7,"pitch":106,"articulation":"tenuto","articulation_tags":["tenuto","t","short"],"duration":0.125,"velocity":98.50962814974932},
{"position":77.375,"instrument":"TheGrandeurPiano","level2":4,"level3":null,"pitch":88,"articulation":"standard","articulation_tags":["standard","long"],"duration":0.22916666666666666,"velocity":42.386420820262174},
{"position":77.57291666666667,"instrument":"Piccolo","level2":4,"level3":8,"pitch":107,"articulation":"staccato","articulation_tags":["staccato","st","short"],"duration":0.125,"velocity":98.4386825781495},
{"position":77.57291666666667,"instrument":"Glockenspiel","level2":4,"level3":9,"pitch":106,"articulation":"hits","articulation_tags":["hits","short"],"duration":0.0625,"velocity":98.4386825781495},
{"position":77.57291666666667,"instrument":"Glockenspiel","level2":4,"level3":9,"pitch":106,"articulation":"hits","articulation_tags":["hits","short"],"duration":0.0625,"velocity":98.4386825781495},
{"position":77.71875,"instrument":"TheGrandeurPiano","level2":4,"level3":null,"pitch":88,"articulation":"standard","articulation_tags":["standard","long"],"duration":0.2361111111111111,"velocity":41.453265458937274},
{"position":77.78125,"instrument":"Piccolo","level2":4,"level3":7,"pitch":106,"articulation":"staccato","articulation_tags":["staccato","st","short"],"duration":0.125,"velocity":98.37139623817316},
{"position":77.8125,"instrument":"Glockenspiel","level2":4,"level3":5,"pitch":106,"articulation":"hits","articulation_tags":["hits","short"],"duration":0.0625,"velocity":98.37139623817316},
{"position":77.88541666666667,"instrument":"Glockenspiel","level2":4,"level3":3,"pitch":105,"articulation":"hits","articulation_tags":["hits","short"],"duration":0.0625,"velocity":98.37139623817316},
{"position":77.88541666666667,"instrument":"Glockenspiel","level2":4,"level3":9,"pitch":106,"articulation":"hits","articulation_tags":["hits","short"],"duration":0.0625,"velocity":98.37139623817316},
{"position":78.07291666666667,"instrument":"TheGrandeurPiano","level2":4,"level3":null,"pitch":88,"articulation":"standard","articulation_tags":["standard","long"],"duration":0.24305555555555555,"velocity":40.764302427157574},
{"position":78.15625,"instrument":"TheGrandeurPiano","level2":4,"level3":null,"pitch":89,"articulation":"standard","articulation_tags":["standard","long"],"duration":2.4015748031496065,"velocity":40.764302427157574},
{"position":78.4375,"instrument":"TheGrandeurPiano","level2":4,"level3":null,"pitch":89,"articulation":"standard","articulation_tags":["standard","long"],"duration":0.25,"velocity":42.90456445239177},
{"position":78.58333333333333,"instrument":"Piccolo","level2":4,"level3":6,"pitch":107,"articulation":"tenuto","articulation_tags":["tenuto","t","short"],"duration":0.125,"velocity":98.56127964812126},
{"position":78.8125,"instrument":"TheGrandeurPiano","level2":4,"level3":null,"pitch":89,"articulation":"standard","articulation_tags":["standard","long"],"duration":0.2569444444444444,"velocity":42.77600502632147},
{"position":79.19791666666667,"instrument":"Piccolo","level2":4,"level3":2,"pitch":108,"articulation":"tenuto","articulation_tags":["tenuto","t","short"],"duration":0.125,"velocity":98.50579810882061},
{"position":79.19791666666667,"instrument":"TheGrandeurPiano","level2":4,"level3":null,"pitch":89,"articulation":"standard","articulation_tags":["standard","long"],"duration":0.2638888888888889,"velocity":42.90456445239177},
{"position":79.5,"instrument":"Piccolo","level2":4,"level3":10,"pitch":107,"articulation":"staccato","articulation_tags":["staccato","st","short"],"duration":0.125,"velocity":98.45403828298886},
{"position":79.5,"instrument":"Glockenspiel","level2":4,"level3":11,"pitch":107,"articulation":"hits","articulation_tags":["hits","short"],"duration":0.0625,"velocity":98.45403828298886},
{"position":79.59375,"instrument":"TheGrandeurPiano","level2":4,"level3":null,"pitch":89,"articulation":"standard","articulation_tags":["standard","long"],"duration":0.2708333333333333,"velocity":43.286470522335776},
{"position":79.64583333333333,"instrument":"Piccolo","level2":4,"level3":0,"pitch":108,"articulation":"tenuto","articulation_tags":["tenuto","t","short"],"duration":0.125,"velocity":98.40602205601111},
{"position":79.71875,"instrument":"Glockenspiel","level2":4,"level3":4,"pitch":107,"articulation":"hits","articulation_tags":["hits","short"],"duration":0.0625,"velocity":98.40602205601111},
{"position":79.78125,"instrument":"Piccolo","level2":4,"level3":8,"pitch":107,"articulation":"staccato","articulation_tags":["staccato","st","short"],"duration":0.125,"velocity":98.40602205601111},
{"position":80.0,"instrument":"TheGrandeurPiano","level2":4,"level3":null,"pitch":89,"articulation":"standard","articulation_tags":["standard","long"],"duration":0.2777777777777778,"velocity":43.910939305001506},
{"position":80.42708333333333,"instrument":"TheGrandeurPiano","level2":4,"level3":null,"pitch":89,"articulation":"standard","articulation_tags":["standard","long"],"duration":0.2916666666666667,"velocity":42.386420820262174},
{"position":80.85416666666667,"instrument":"TheGrandeurPiano","level2":4,"level3":null,"pitch":89,"articulation":"standard","articulation_tags":["standard","long"],"duration":0.2986111111111111,"velocity":43.53802142632277},
{"position":81.30208333333333,"instrument":"TheGrandeurPiano","level2":4,"level3":null,"pitch":89,"articulation":"standard","articulation_tags":["standard","long"],"duration":0.3125,"velocity":42.77600502632147},
{"position":81.77083333333333,"instrument":"TheGrandeurPiano","level2":4,"level3":null,"pitch":89,"articulation":"standard","articulation_tags":["standard","long"],"duration":0.3194444444444444,"velocity":42.516943124414624},
{"position":82.25,"instrument":"TheGrandeurPiano","level2":4,"level3":null,"pitch":89,"articulation":"standard","articulation_tags":["standard","long"],"duration":0.3333333333333333,"velocity":44.40026918995785},
{"position":82.75,"instrument":"TheGrandeurPiano","level2":4,"level3":null,"pitch":89,"articulation":"standard","articulation_tags":["standard","long"],"duration":0.3472222222222222,"velocity":44.881012339705876},
{"position":82.83333333333333,"instrument":"Piccolo","level2":4,"level3":1,"pitch":105,"articulation":"staccato","articulation_tags":["staccato","st","short"],"duration":0.125,"velocity":98.17625739679649},
{"position":82.94791666666667,"instrument":"Glockenspiel","level2":4,"level3":6,"pitch":107,"articulation":"hits","articulation_tags":["hits","short"],"duration":0.0625,"velocity":98.17625739679649},
{"position":83.27083333333333,"instrument":"TheGrandeurPiano","level2":4,"level3":null,"pitch":89,"articulation":"standard","articulation_tags":["standard","long"],"duration":0.3611111111111111,"velocity":44.76160702725369},
{"position":83.32291666666667,"instrument":"Piccolo","level2":4,"level3":2,"pitch":108,"articulation":"tenuto","articulation_tags":["tenuto","t","short"],"duration":0.125,"velocity":98.15879815028659},
{"position":83.39583333333333,"instrument":"TheGrandeurPiano","level2":4,"level3":null,"pitch":88,"articulation":"standard","articulation_tags":["standard","long"],"duration":1.0833333333333333,"velocity":44.76160702725369},
{"position":83.59375,"instrument":"Piccolo","level2":4,"level3":5,"pitch":106,"articulation":"staccato","articulation_tags":["staccato","st","short"],"duration":0.125,"velocity":97.8405503732973},
{"position":83.625,"instrument":"Glockenspiel","level2":4,"level3":3,"pitch":105,"articulation":"hits","articulation_tags":["hits","short"],"duration":0.0625,"velocity":97.8405503732973},
{"position":83.63541666666667,"instrument":"Glockenspiel","level2":4,"level3":7,"pitch":106,"articulation":"hits","articulation_tags":["hits","short"],"duration":0.0625,"velocity":97.8405503732973},
{"position":83.8125,"instrument":"TheGrandeurPiano","level2":4,"level3":null,"pitch":88,"articulation":"standard","articulation_tags":["standard","long"],"duration":0.375,"velocity":43.910939305001506},
{"position":83.83333333333333,"instrument":"Piccolo","level2":4,"level3":4,"pitch":108,"articulation":"tenuto","articulation_tags":["tenuto","t","short"],"duration":0.125,"velocity":97.8267954692686},
{"position":83.96875,"instrument":"Piccolo","level2":4,"level3":0,"pitch":108,"articulation":"tenuto","articulation_tags":["tenuto","t","short"],"duration":0.125,"velocity":97.8267954692686},
{"position":84.05208333333333,"instrument":"Glockenspiel","level2":4,"level3":9,"pitch":106,"articulation":"hits","articulation_tags":["hits","short"],"duration":0.0625,"velocity":97.8267954692686},
{"position":84.33333333333333,"instrument":"Glockenspiel","level2":4,"level3":7,"pitch":106,"articulation":"hits","articulation_tags":["hits","short"],"duration":0.0625,"velocity":97.8267954692686},
{"position":84.375,"instrument":"TheGrandeurPiano","level2":4,"level3":null,"pitch":88,"articulation":"standard","articulation_tags":["standard","long"],"duration":0.3958333333333333,"velocity":45.470528109655405},
{"position":84.95833333333333,"instrument":"TheGrandeurPiano","level2":4,"level3":null,"pitch":88,"articulation":"standard","articulation_tags":["standard","long"],"duration":0.4166666666666667,"velocity":45.35360552895362},
{"position":85.01041666666667,"instrument":"TheGrandeurPiano","level2":4,"level3":null,"pitch":88,"articulation":"standard","articulation_tags":["standard","long"],"duration":0.8194444444444444,"velocity":45.35360552895362},
{"position":85.08333333333333,"instrument":"Piccolo","level2":4,"level3":9,"pitch":107,"articulation":"staccato","articulation_tags":["staccato","st","short"],"duration":0.125,"velocity":97.49246032421432},
{"position":85.58333333333333,"instrument":"TheGrandeurPiano","level2":4,"level3":null,"pitch":88,"articulation":"standard","articulation_tags":["standard","long"],"duration":0.4375,"velocity":45.818449713615536},
{"position":86.0625,"instrument":"Glockenspiel","level2":4,"level3":4,"pitch":108,"articulation":"hits","articulation_tags":["hits","short"],"duration":0.0625,"velocity":97.49046895911155},
{"position":86.23958333333333,"instrument":"TheGrandeurPiano","level2":4,"level3":null,"pitch":88,"articulation":"standard","articulation_tags":["standard","long"],"duration":0.4652777777777778,"velocity":47.17004037302935},
{"position":86.25,"instrument":"TheGrandeurPiano","level2":4,"level3":null,"pitch":87,"articulation":"standard","articulation_tags":["standard","long"],"duration":0.7013888888888888,"velocity":47.17004037302935},
{"position":86.42708333333333,"instrument":"Piccolo","level2":4,"level3":6,"pitch":107,"articulation":"staccato","articulation_tags":["staccato","st","short"],"duration":0.125,"velocity":97.17385466737201},
{"position":86.59375,"instrument":"Glockenspiel","level2":4,"level3":9,"pitch":107,"articulation":"hits","articulation_tags":["hits","short"],"duration":0.0625,"velocity":97.17385466737201},
{"position":86.66666666666667,"instrument":"Glockenspiel","level2":4,"level3":0,"pitch":108,"articulation":"hits","articulation_tags":["hits","short"],"duration":0.0625,"velocity":97.17385466737201},
{"position":86.94791666666667,"instrument":"TheGrandeurPiano","level2":4,"level3":null,"pitch":87,"articulation":"standard","articulation_tags":["standard","long"],"duration":0.5,"velocity":47.05972906995423},
{"position":87.19791666666667,"instrument":"Piccolo","level2":4,"level3":4,"pitch":107,"articulation":"staccato","articulation_tags":["staccato","st","short"],"duration":0.125,"velocity":97.17990340911979},
{"position":87.30208333333333,"instrument":"TheGrandeurPiano","level2":4,"level3":null,"pitch":87,"articulation":"standard","articulation_tags":["standard","long"],"duration":0.625,"velocity":46.3891674882436},
{"position":87.69791666666667,"instrument":"TheGrandeurPiano","level2":4,"level3":null,"pitch":87,"articulation":"standard","articulation_tags":["standard","long"],"duration":0.5486111111111112,"velocity":48.03842023878756},
{"position":88.23958333333333,"instrument":"TheGrandeurPiano","level2":4,"level3":null,"pitch":86,"articulation":"standard","articulation_tags":["standard","long"],"duration":0.5694444444444444,"velocity":48.03842023878756},
{"position":88.32291666666667,"instrument":"Glockenspiel","level2":4,"level3":1,"pitch":106,"articulation":"hits","articulation_tags":["hits","short"],"duration":0.0625,"velocity":96.55319059604238},
{"position":88.52083333333333,"instrument":"TheGrandeurPiano","level2":4,"level3":null,"pitch":86,"articulation":"standard","articulation_tags":["standard","long"],"duration":0.6111111111111112,"velocity":46.3891674882436},
{"position":89.09375,"instrument":"TheGrandeurPiano","level2":4,"level3":null,"pitch":86,"articulation":"standard","articulation_tags":["standard","long"],"duration":0.5347222222222222,"velocity":47.05972906995423},
{"position":89.16666666666667,"instrument":"Glockenspiel","level2":4,"level3":2,"pitch":108,"articulation":"hits","articulation_tags":["hits","short"],"duration":0.0625,"velocity":96.24946240679706},
{"position":89.39583333333333,"instrument":"Glockenspiel","level2":4,"level3":3,"pitch":106,"articulation":"hits","articulation_tags":["hits","short"],"duration":0.0625,"velocity":96.24946240679706},
{"position":89.4375,"instrument":"TheGrandeurPiano","level2":4,"level3":null,"pitch":86,"articulation":"standard","articulation_tags":["standard","long"],"duration":0.6944444444444444,"velocity":48.14526537486471},
{"position":89.51041666666667,"instrument":"Glockenspiel","level2":4,"level3":7,"pitch":107,"articulation":"hits","articulation_tags":["hits","short"],"duration":0.0625,"velocity":96.26829531826597},
{"position":89.89583333333333,"instrument":"TheGrandeurPiano","level2":4,"level3":null,"pitch":85,"articulation":"standard","articulation_tags":["standard","long"],"duration":0.5,"velocity":46.3891674882436},
{"position":90.13541666666667,"instrument":"Glockenspiel","level2":4,"level3":5,"pitch":106,"articulation":"hits","articulation_tags":["hits","short"],"duration":0.0625,"velocity":95.95346336051009},
{"position":90.26041666666667,"instrument":"Glockenspiel","level2":4,"level3":4,"pitch":107,"articulation":"hits","articulation_tags":["hits","short"],"duration":0.0625,"velocity":95.95346336051009},
{"position":90.47916666666667,"instrument":"TheGrandeurPiano","level2":4,"level3":null,"pitch":85,"articulation":"standard","articulation_tags":["standard","long"],"duration":0.8472222222222222,"velocity":48.35786351097736},
{"position":90.64583333333333,"instrument":"TheGrandeurPiano","level2":4,"level3":null,"pitch":85,"articulation":"standard","articulation_tags":["standard","long"],"duration":0.4722222222222222,"velocity":48.03842023878756},
{"position":90.91666666666667,"instrument":"Glockenspiel","level2":4,"level3":4,"pitch":107,"articulation":"hits","articulation_tags":["hits","short"],"duration":0.0625,"velocity":95.67755777489523},
{"position":91.10416666666667,"instrument":"Glockenspiel","level2":4,"level3":3,"pitch":106,"articulation":"hits","articulation_tags":["hits","short"],"duration":0.0625,"velocity":95.67755777489523},
{"position":91.35416666666667,"instrument":"TheGrandeurPiano","level2":4,"level3":null,"pitch":96,"articulation":"standard","articulation_tags":["standard","long"],"duration":0.4513888888888889,"velocity":48.03842023878756},
{"position":91.65625,"instrument":"Glockenspiel","level2":4,"level3":1,"pitch":106,"articulation":"hits","articulation_tags":["hits","short"],"duration":0.0625,"velocity":95.37983174681992},
{"position":91.75,"instrument":"TheGrandeurPiano","level2":4,"level3":null,"pitch":96,"articulation":"standard","articulation_tags":["standard","long"],"duration":1.2083333333333333,"velocity":48.35786351097736},
{"position":92.03125,"instrument":"TheGrandeurPiano","level2":4,"level3":null,"pitch":96,"articulation":"standard","articulation_tags":["standard","long"],"duration":0.4305555555555556,"velocity":48.883157398992545},
{"position":92.26041666666667,"instrument":"Glockenspiel","level2":4,"level3":0,"pitch":108,"articulation":"hits","articulation_tags":["hits","short"],"duration":0.0625,"velocity":95.10899068190534},
{"position":92.48958333333333,"instrument":"Glockenspiel","level2":4,"level3":12,"pitch":107,"articulation":"hits","articulation_tags":["hits","short"],"duration":0.0625,"velocity":95.10899068190534},
{"position":92.48958333333333,"instrument":"Glockenspiel","level2":4,"level3":13,"pitch":106,"articulation":"hits","articulation_tags":["hits","short"],"duration":0.0625,"velocity":95.10899068190534},
{"position":92.67708333333333,"instrument":"TheGrandeurPiano","level2":4,"level3":null,"pitch":95,"articulation":"standard","articulation_tags":["standard","long"],"duration":0.4166666666666667,"velocity":48.14526537486471},
{"position":92.91666666666667,"instrument":"Glockenspiel","level2":4,"level3":5,"pitch":106,"articulation":"hits","articulation_tags":["hits","short"],"duration":0.0625,"velocity":94.81169567938355},
{"position":93.125,"instrument":"Glockenspiel","level2":4,"level3":13,"pitch":106,"articulation":"hits","articulation_tags":["hits","short"],"duration":0.0625,"velocity":94.81169567938355},
{"position":93.30208333333333,"instrument":"TheGrandeurPiano","level2":4,"level3":null,"pitch":95,"articulation":"standard","articulation_tags":["standard","long"],"duration":0.4027777777777778,"velocity":48.46362389052244},
{"position":93.53125,"instrument":"Glockenspiel","level2":4,"level3":2,"pitch":108,"articulation":"hits","articulation_tags":["hits","short"],"duration":0.0625,"velocity":94.51444099150544},
{"position":93.5625,"instrument":"TheGrandeurPiano","level2":4,"level3":null,"pitch":95,"articulation":"standard","articulation_tags":["standard","long"],"duration":2.4960629921259843,"velocity":48.46362389052244},
{"position":93.80208333333333,"instrument":"Glockenspiel","level2":4,"level3":5,"pitch":107,"articulation":"hits","articulation_tags":["hits","short"],"duration":0.0625,"velocity":94.5462633927416},
{"position":93.90625,"instrument":"TheGrandeurPiano","level2":4,"level3":null,"pitch":94,"articulation":"standard","articulation_tags":["standard","long"],"duration":0.3888888888888889,"velocity":48.03842023878756},
{"position":94.17708333333333,"instrument":"Glockenspiel","level2":4,"level3":2,"pitch":107,"articulation":"hits","articulation_tags":["hits","short"],"duration":0.0625,"velocity":94.24950657886325},
{"position":94.45833333333333,"instrument":"Glockenspiel","level2":4,"level3":5,"pitch":107,"articulation":"hits","articulation_tags":["hits","short"],"duration":0.0625,"velocity":94.24950657886325},
{"position":94.47916666666667,"instrument":"TheGrandeurPiano","level2":4,"level3":null,"pitch":94,"articulation":"standard","articulation_tags":["standard","long"],"duration":0.375,"velocity":48.03842023878756},
{"position":94.63541666666667,"instrument":"Glockenspiel","level2":4,"level3":1,"pitch":106,"articulation":"hits","articulation_tags":["hits","short"],"duration":0.0625,"velocity":93.95280681839901},
{"position":94.6875,"instrument":"Glockenspiel","level2":5,"level3":0,"pitch":108,"articulation":"hits","articulation_tags":["hits","short"],"duration":0.0625,"velocity":93.95280681839901},
{"position":94.6875,"instrument":"Piccolo","level2":5,"level3":1,"pitch":108,"articulation":"legato","articulation_tags":["legato","lg"],"duration":0.09375,"velocity":59.90561363679802},
{"position":94.75,"instrument":"TheGrandeurPiano","level2":5,"level3":null,"pitch":91,"articulation":"standard","articulation_tags":["standard","long"],"duration":0.0,"velocity":48.46362389052244},
{"position":94.75,"instrument":"TheGrandeurPiano","level2":6,"level3":null,"pitch":92,"articulation":"standard","articulation_tags":["standard","long"],"duration":0.0,"velocity":48.46362389052244},
{"position":94.75,"instrument":"TheGrandeurPiano","level2":6,"level3":null,"pitch":92,"articulation":"standard","articulation_tags":["standard","long"],"duration":0.0,"velocity":48.46362389052244},
{"position":94.76041666666667,"instrument":"TheGrandeurPiano","level2":5,"level3":null,"pitch":91,"articulation":"standard","articulation_tags":["standard","long"],"duration":0.006944444444444444,"velocity":48.46362389052244},
{"position":94.76041666666667,"instrument":"TheGrandeurPiano","level2":5,"level3":null,"pitch":90,"articulation":"standard","articulation_tags":["standard","long"],"duration":0.006944444444444444,"velocity":48.46362389052244},
{"position":94.76041666666667,"instrument":"TheGrandeurPiano","level2":6,"level3":null,"pitch":92,"articulation":"standard","articulation_tags":["standard","long"],"duration":0.006944444444444444,"velocity":48.46362389052244},
{"position":94.76041666666667,"instrument":"TheGrandeurPiano","level2":6,"level3":null,"pitch":93,"articulation":"standard","articulation_tags":["standard","long"],"duration":0.006944444444444444,"velocity":48.46362389052244},
{"position":94.77083333333333,"instrument":"TheGrandeurPiano","level2":5,"level3":null,"pitch":90,"articulation":"standard","articulation_tags":["standard","long"],"duration":0.04861111111111111,"velocity":48.46362389052244},
{"position":94.77083333333333,"instrument":"TheGrandeurPiano","level2":5,"level3":null,"pitch":90,"articulation":"standard","articulation_tags":["standard","long"],"duration":0.013888888888888888,"velocity":48.46362389052244},
{"position":94.77083333333333,"instrument":"TheGrandeurPiano","level2":6,"level3":null,"pitch":93,"articulation":"standard","articulation_tags":["standard","long"],"duration":0.5902777777777778,"velocity":48.46362389052244},
{"position":94.77083333333333,"instrument":"TheGrandeurPiano","level2":6,"level3":null,"pitch":93,"articulation":"standard","articulation_tags":["standard","long"],"duration":0.013888888888888888,"velocity":48.46362389052244},
{"position":94.78125,"instrument":"Glockenspiel","level2":5,"level3":1,"pitch":108,"articulation":"hits","articulation_tags":["hits","short"],"duration":0.0625,"velocity":101.37631397572167},
{"position":94.79166666666667,"instrument":"TheGrandeurPiano","level2":5,"level3":null,"pitch":89,"articulation":"standard","articulation_tags":["standard","long"],"duration":0.013888888888888888,"velocity":48.46362389052244},
{"position":94.79166666666667,"instrument":"TheGrandeurPiano","level2":6,"level3":null,"pitch":94,"articulation":"standard","articulation_tags":["standard","long"],"duration":0.013888888888888888,"velocity":48.46362389052244},
{"position":94.8125,"instrument":"TheGrandeurPiano","level2":5,"level3":null,"pitch":89,"articulation":"standard","articulation_tags":["standard","long"],"duration":0.020833333333333332,"velocity":48.46362389052244},
{"position":94.8125,"instrument":"TheGrandeurPiano","level2":6,"level3":null,"pitch":94,"articulation":"standard","articulation_tags":["standard","long"],"duration":0.020833333333333332,"velocity":48.46362389052244},
{"position":94.83333333333333,"instrument":"TheGrandeurPiano","level2":5,"level3":null,"pitch":88,"articulation":"standard","articulation_tags":["standard","long"],"duration":0.020833333333333332,"velocity":48.46362389052244},
{"position":94.84375,"instrument":"TheGrandeurPiano","level2":6,"level3":null,"pitch":95,"articulation":"standard","articulation_tags":["standard","long"],"duration":0.020833333333333332,"velocity":48.46362389052244},
{"position":94.84375,"instrument":"TheGrandeurPiano","level2":5,"level3":null,"pitch":88,"articulation":"standard","articulation_tags":["standard","long"],"duration":0.06944444444444445,"velocity":48.46362389052244},
{"position":94.86458333333333,"instrument":"TheGrandeurPiano","level2":5,"level3":null,"pitch":88,"articulation":"standard","articulation_tags":["standard","long"],"duration":0.020833333333333332,"velocity":48.46362389052244},
{"position":94.875,"instrument":"TheGrandeurPiano","level2":6,"level3":null,"pitch":95,"articulation":"standard","articulation_tags":["standard","long"],"duration":0.027777777777777776,"velocity":48.46362389052244},
{"position":94.90625,"instrument":"TheGrandeurPiano","level2":5,"level3":null,"pitch":87,"articulation":"standard","articulation_tags":["standard","long"],"duration":0.027777777777777776,"velocity":48.46362389052244},
{"position":94.90625,"instrument":"TheGrandeurPiano","level2":6,"level3":null,"pitch":96,"articulation":"standard","articulation_tags":["standard","long"],"duration":0.027777777777777776,"velocity":48.46362389052244},
{"position":94.94791666666667,"instrument":"TheGrandeurPiano","level2":5,"level3":null,"pitch":87,"articulation":"standard","articulation_tags":["standard","long"],"duration":0.027777777777777776,"velocity":47.05972906995423},
{"position":94.94791666666667,"instrument":"TheGrandeurPiano","level2":5,"level3":null,"pitch":87,"articulation":"standard","articulation_tags":["standard","long"],"duration":0.0763888888888889,"velocity":47.05972906995423},
{"position":94.95833333333333,"instrument":"Glockenspiel","level2":4,"level3":3,"pitch":106,"articulation":"hits","articulation_tags":["hits","short"],"duration":0.0625,"velocity":93.95280681839901},
{"position":94.95833333333333,"instrument":"TheGrandeurPiano","level2":6,"level3":null,"pitch":96,"articulation":"standard","articulation_tags":["standard","long"],"duration":0.034722222222222224,"velocity":47.05972906995423},
{"position":94.98958333333333,"instrument":"TheGrandeurPiano","level2":5,"level3":null,"pitch":86,"articulation":"standard","articulation_tags":["standard","long"],"duration":0.034722222222222224,"velocity":47.05972906995423},
{"position":95.0,"instrument":"TheGrandeurPiano","level2":6,"level3":null,"pitch":85,"articulation":"standard","articulation_tags":["standard","long"],"duration":0.034722222222222224,"velocity":47.05972906995423},
{"position":95.04166666666667,"instrument":"TheGrandeurPiano","level2":4,"level3":null,"pitch":93,"articulation":"standard","articulation_tags":["standard","long"],"duration":0.3611111111111111,"velocity":47.05972906995423},
{"position":95.04166666666667,"instrument":"TheGrandeurPiano","level2":5,"level3":null,"pitch":86,"articulation":"standard","articulation_tags":["standard","long"],"duration":0.034722222222222224,"velocity":47.05972906995423},
{"position":95.05208333333333,"instrument":"TheGrandeurPiano","level2":6,"level3":null,"pitch":85,"articulation":"standard","articulation_tags":["standard","long"],"duration":0.041666666666666664,"velocity":47.05972906995423},
{"position":95.07291666666667,"instrument":"TheGrandeurPiano","level2":5,"level3":null,"pitch":86,"articulation":"standard","articulation_tags":["standard","long"],"duration":0.08333333333333333,"velocity":47.05972906995423},
{"position":95.09375,"instrument":"TheGrandeurPiano","level2":5,"level3":null,"pitch":85,"articulation":"standard","articulation_tags":["standard","long"],"duration":0.041666666666666664,"velocity":47.05972906995423},
{"position":95.11458333333333,"instrument":"TheGrandeurPiano","level2":6,"level3":null,"pitch":86,"articulation":"standard","articulation_tags":["standard","long"],"duration":0.041666666666666664,"velocity":47.05972906995423},
{"position":95.15625,"instrument":"TheGrandeurPiano","level2":5,"level3":null,"pitch":85,"articulation":"standard","articulation_tags":["standard","long"],"duration":0.041666666666666664,"velocity":49.27866411850142},
{"position":95.17708333333333,"instrument":"TheGrandeurPiano","level2":6,"level3":null,"pitch":86,"articulation":"standard","articulation_tags":["standard","long"],"duration":0.04861111111111111,"velocity":49.27866411850142},
{"position":95.19791666666667,"instrument":"TheGrandeurPiano","level2":5,"level3":null,"pitch":85,"articulation":"standard","articulation_tags":["standard","long"],"duration":0.09027777777777778,"velocity":49.27866411850142},
{"position":95.22916666666667,"instrument":"Glockenspiel","level2":4,"level3":5,"pitch":107,"articulation":"hits","articulation_tags":["hits","short"],"duration":0.0625,"velocity":93.65616663083618},
{"position":95.22916666666667,"instrument":"TheGrandeurPiano","level2":5,"level3":null,"pitch":96,"articulation":"standard","articulation_tags":["standard","long"],"duration":0.04861111111111111,"velocity":49.27866411850142},
{"position":95.25,"instrument":"TheGrandeurPiano","level2":6,"level3":null,"pitch":87,"articulation":"standard","articulation_tags":["standard","long"],"duration":0.04861111111111111,"velocity":49.27866411850142},
{"position":95.26041666666667,"instrument":"Glockenspiel","level2":5,"level3":2,"pitch":108,"articulation":"hits","articulation_tags":["hits","short"],"duration":0.0625,"velocity":98.19176695668006},
{"position":95.26041666666667,"instrument":"Piccolo","level2":5,"level3":3,"pitch":108,"articulation":"legato","articulation_tags":["legato","lg"],"duration":0.010416666666666666,"velocity":68.38353391336011},
{"position":95.26041666666667,"instrument":"Piccolo","level2":5,"level3":3,"pitch":108,"articulation":"legato","articulation_tags":["legato","lg"],"duration":0.6041666666666666,"velocity":68.38353391336011},
{"position":95.30208333333333,"instrument":"TheGrandeurPiano","level2":5,"level3":null,"pitch":96,"articulation":"standard","articulation_tags":["standard","long"],"duration":0.04861111111111111,"velocity":49.27866411850142},
{"position":95.32291666666667,"instrument":"TheGrandeurPiano","level2":6,"level3":null,"pitch":87,"articulation":"standard","articulation_tags":["standard","long"],"duration":0.05555555555555555,"velocity":48.14526537486471},
{"position":95.33333333333333,"instrument":"TheGrandeurPiano","level2":5,"level3":null,"pitch":96,"articulation":"standard","articulation_tags":["standard","long"],"duration":0.09027777777777778,"velocity":48.14526537486471},
{"position":95.36458333333333,"instrument":"Glockenspiel","level2":4,"level3":0,"pitch":108,"articulation":"hits","articulation_tags":["hits","short"],"duration":0.0625,"velocity":93.65616663083618},
{"position":95.375,"instrument":"TheGrandeurPiano","level2":5,"level3":null,"pitch":95,"articulation":"standard","articulation_tags":["standard","long"],"duration":0.05555555555555555,"velocity":48.14526537486471},
{"position":95.40625,"instrument":"TheGrandeurPiano","level2":6,"level3":null,"pitch":88,"articulation":"standard","articulation_tags":["standard","long"],"duration":0.05555555555555555,"velocity":48.14526537486471},
{"position":95.45833333333333,"instrument":"TheGrandeurPiano","level2":5,"level3":null,"pitch":95,"articulation":"standard","articulation_tags":["standard","long"],"duration":0.0625,"velocity":48.14526537486471},
{"position":95.46875,"instrument":"TheGrandeurPiano","level2":5,"level3":null,"pitch":95,"articulation":"standard","articulation_tags":["standard","long"],"duration":0.09722222222222222,"velocity":48.14526537486471},
{"position":95.48958333333333,"instrument":"TheGrandeurPiano","level2":6,"level3":null,"pitch":88,"articulation":"standard","articulation_tags":["standard","long"],"duration":0.0625,"velocity":48.14526537486471},
{"position":95.55208333333333,"instrument":"TheGrandeurPiano","level2":5,"level3":null,"pitch":94,"articulation":"standard","articulation_tags":["standard","long"],"duration":0.0625,"velocity":48.14526537486471},
{"position":95.58333333333333,"instrument":"TheGrandeurPiano","level2":6,"level3":null,"pitch":89,"articulation":"standard","articulation_tags":["standard","long"],"duration":0.06944444444444445,"velocity":48.14526537486471},
{"position":95.59375,"instrument":"TheGrandeurPiano","level2":4,"level3":null,"pitch":93,"articulation":"standard","articulation_tags":["standard","long"],"duration":0.3541666666666667,"velocity":48.14526537486471},
{"position":95.61458333333333,"instrument":"TheGrandeurPiano","level2":5,"level3":null,"pitch":94,"articulation":"standard","articulation_tags":["standard","long"],"duration":0.09722222222222222,"velocity":48.14526537486471},
{"position":95.64583333333333,"instrument":"TheGrandeurPiano","level2":6,"level3":null,"pitch":89,"articulation":"standard","articulation_tags":["standard","long"],"duration":0.3888888888888889,"velocity":48.14526537486471},
{"position":95.64583333333333,"instrument":"TheGrandeurPiano","level2":5,"level3":null,"pitch":94,"articulation":"standard","articulation_tags":["standard","long"],"duration":0.06944444444444445,"velocity":48.14526537486471},
{"position":95.6875,"instrument":"Glockenspiel","level2":5,"level3":1,"pitch":107,"articulation":"hits","articulation_tags":["hits","short"],"duration":0.0625,"velocity":96.48486926206868},
{"position":95.6875,"instrument":"TheGrandeurPiano","level2":6,"level3":null,"pitch":89,"articulation":"standard","articulation_tags":["standard","long"],"duration":0.06944444444444445,"velocity":47.17004037302935},
{"position":95.73958333333333,"instrument":"TheGrandeurPiano","level2":5,"level3":null,"pitch":93,"articulation":"standard","articulation_tags":["standard","long"],"duration":0.06944444444444445,"velocity":47.17004037302935},
{"position":95.75,"instrument":"Glockenspiel","level2":4,"level3":12,"pitch":107,"articulation":"hits","articulation_tags":["hits","short"],"duration":0.0625,"velocity":93.35958868567386},
{"position":95.76041666666667,"instrument":"TheGrandeurPiano","level2":5,"level3":null,"pitch":93,"articulation":"standard","articulation_tags":["standard","long"],"duration":0.09722222222222222,"velocity":47.17004037302935},
{"position":95.79166666666667,"instrument":"TheGrandeurPiano","level2":6,"level3":null,"pitch":90,"articulation":"standard","articulation_tags":["standard","long"],"duration":0.0763888888888889,"velocity":47.17004037302935},
{"position":95.85416666666667,"instrument":"TheGrandeurPiano","level2":5,"level3":null,"pitch":93,"articulation":"standard","articulation_tags":["standard","long"],"duration":0.0763888888888889,"velocity":47.17004037302935},
{"position":95.86458333333333,"instrument":"Glockenspiel","level2":5,"level3":3,"pitch":107,"articulation":"hits","articulation_tags":["hits","short"],"duration":0.0625,"velocity":95.86985233680444},
{"position":95.875,"instrument":"Glockenspiel","level2":5,"level3":4,"pitch":108,"articulation":"hits","articulation_tags":["hits","short"],"duration":0.0625,"velocity":95.86985233680444},
{"position":95.875,"instrument":"Piccolo","level2":5,"level3":5,"pitch":108,"articulation":"legato","articulation_tags":["legato","lg"],"duration":0.010416666666666666,"velocity":63.73970467360889},
{"position":95.89583333333333,"instrument":"Piccolo","level2":5,"level3":5,"pitch":108,"articulation":"legato","articulation_tags":["legato","lg"],"duration":1.0104166666666667,"velocity":63.73970467360889},
{"position":95.90625,"instrument":"TheGrandeurPiano","level2":6,"level3":null,"pitch":90,"articulation":"standard","articulation_tags":["standard","long"],"duration":0.08333333333333333,"velocity":47.17004037302935},
{"position":95.90625,"instrument":"TheGrandeurPiano","level2":5,"level3":null,"pitch":93,"articulation":"standard","articulation_tags":["standard","long"],"duration":0.09722222222222222,"velocity":47.17004037302935},
{"position":95.96875,"instrument":"TheGrandeurPiano","level2":5,"level3":null,"pitch":92,"articulation":"standard","articulation_tags":["standard","long"],"duration":0.08333333333333333,"velocity":49.56658182367159},
{"position":96.03125,"instrument":"TheGrandeurPiano","level2":6,"level3":null,"pitch":91,"articulation":"standard","articulation_tags":["standard","long"],"duration":0.08333333333333333,"velocity":48.883157398992545},
{"position":96.05208333333333,"instrument":"TheGrandeurPiano","level2":5,"level3":null,"pitch":92,"articulation":"standard","articulation_tags":["standard","long"],"duration":0.09722222222222222,"velocity":48.883157398992545},
{"position":96.09375,"instrument":"TheGrandeurPiano","level2":5,"level3":null,"pitch":92,"articulation":"standard","articulation_tags":["standard","long"],"duration":0.09027777777777778,"velocity":48.883157398992545},
{"position":96.125,"instrument":"TheGrandeurPiano","level2":4,"level3":null,"pitch":92,"articulation":"standard","articulation_tags":["standard","long"],"duration":0.3472222222222222,"velocity":48.883157398992545},
{"position":96.15625,"instrument":"TheGrandeurPiano","level2":6,"level3":null,"pitch":91,"articulation":"standard","articulation_tags":["standard","long"],"duration":0.09027777777777778,"velocity":48.883157398992545},
{"position":96.19791666666667,"instrument":"TheGrandeurPiano","level2":5,"level3":null,"pitch":92,"articulation":"standard","articulation_tags":["standard","long"],"duration":0.09722222222222222,"velocity":48.883157398992545},
{"position":96.22916666666667,"instrument":"TheGrandeurPiano","level2":6,"level3":null,"pitch":91,"articulation":"standard","articulation_tags":["standard","long"],"duration":0.3402777777777778,"velocity":48.883157398992545},
{"position":96.22916666666667,"instrument":"TheGrandeurPiano","level2":5,"level3":null,"pitch":91,"articulation":"standard","articulation_tags":["standard","long"],"duration":0.09722222222222222,"velocity":48.883157398992545},
{"position":96.29166666666667,"instrument":"TheGrandeurPiano","level2":6,"level3":null,"pitch":92,"articulation":"standard","articulation_tags":["standard","long"],"duration":0.09722222222222222,"velocity":48.883157398992545},
{"position":96.34375,"instrument":"TheGrandeurPiano","level2":5,"level3":null,"pitch":91,"articulation":"standard","articulation_tags":["standard","long"],"duration":0.09722222222222222,"velocity":48.35786351097736},
{"position":96.36458333333333,"instrument":"TheGrandeurPiano","level2":5,"level3":null,"pitch":91,"articulation":"standard","articulation_tags":["standard","long"],"duration":0.09722222222222222,"velocity":48.35786351097736},
{"position":96.4375,"instrument":"Glockenspiel","level2":5,"level3":5,"pitch":108,"articulation":"hits","articulation_tags":["hits","short"],"duration":0.0625,"velocity":94.21292078969728},
{"position":96.4375,"instrument":"TheGrandeurPiano","level2":6,"level3":null,"pitch":92,"articulation":"standard","articulation_tags":["standard","long"],"duration":0.10416666666666667,"velocity":48.35786351097736},
{"position":96.48958333333333,"instrument":"Glockenspiel","level2":5,"level3":6,"pitch":108,"articulation":"hits","articulation_tags":["hits","short"],"duration":0.0625,"velocity":94.21292078969728},
{"position":96.48958333333333,"instrument":"Glockenspiel","level2":5,"level3":7,"pitch":108,"articulation":"hits","articulation_tags":["hits","short"],"duration":0.0625,"velocity":94.21292078969728},
{"position":96.5,"instrument":"TheGrandeurPiano","level2":5,"level3":null,"pitch":91,"articulation":"standard","articulation_tags":["standard","long"],"duration":0.09722222222222222,"velocity":48.35786351097736},
{"position":96.52083333333333,"instrument":"TheGrandeurPiano","level2":5,"level3":null,"pitch":90,"articulation":"standard","articulation_tags":["standard","long"],"duration":0.10416666666666667,"velocity":48.35786351097736},
{"position":96.53125,"instrument":"Glockenspiel","level2":5,"level3":7,"pitch":108,"articulation":"hits","articulation_tags":["hits","short"],"duration":0.0625,"velocity":93.79953450776298},
{"position":96.59375,"instrument":"TheGrandeurPiano","level2":6,"level3":null,"pitch":93,"articulation":"standard","articulation_tags":["standard","long"],"duration":0.1111111111111111,"velocity":48.35786351097736},
{"position":96.63541666666667,"instrument":"TheGrandeurPiano","level2":4,"level3":null,"pitch":92,"articulation":"standard","articulation_tags":["standard","long"],"duration":0.2847222222222222,"velocity":48.35786351097736},
{"position":96.64583333333333,"instrument":"TheGrandeurPiano","level2":5,"level3":null,"pitch":90,"articulation":"standard","articulation_tags":["standard","long"],"duration":0.09722222222222222,"velocity":48.03842023878756},
{"position":96.67708333333333,"instrument":"TheGrandeurPiano","level2":5,"level3":null,"pitch":90,"articulation":"standard","articulation_tags":["standard","long"],"duration":0.11805555555555555,"velocity":48.03842023878756},
{"position":96.71875,"instrument":"Glockenspiel","level2":4,"level3":0,"pitch":108,"articulation":"hits","articulation_tags":["hits","short"],"duration":0.0625,"velocity":92.76663101937757},
{"position":96.73958333333333,"instrument":"TheGrandeurPiano","level2":6,"level3":null,"pitch":93,"articulation":"standard","articulation_tags":["standard","long"],"duration":0.3263888888888889,"velocity":48.03842023878756},
{"position":96.76041666666667,"instrument":"TheGrandeurPiano","level2":6,"level3":null,"pitch":93,"articulation":"standard","articulation_tags":["standard","long"],"duration":0.11805555555555555,"velocity":48.03842023878756},
{"position":96.79166666666667,"instrument":"TheGrandeurPiano","level2":5,"level3":null,"pitch":90,"articulation":"standard","articulation_tags":["standard","long"],"duration":0.09722222222222222,"velocity":48.03842023878756},
{"position":96.85416666666667,"instrument":"TheGrandeurPiano","level2":5,"level3":null,"pitch":89,"articulation":"standard","articulation_tags":["standard","long"],"duration":0.125,"velocity":48.03842023878756},
{"position":96.90625,"instrument":"Glockenspiel","level2":5,"level3":5,"pitch":107,"articulation":"hits","articulation_tags":["hits","short"],"duration":0.0625,"velocity":92.97392889234182},
{"position":96.92708333333333,"instrument":"TheGrandeurPiano","level2":6,"level3":null,"pitch":94,"articulation":"standard","articulation_tags":["standard","long"],"duration":0.125,"velocity":48.03842023878756},
{"position":96.9375,"instrument":"TheGrandeurPiano","level2":5,"level3":null,"pitch":89,"articulation":"standard","articulation_tags":["standard","long"],"duration":0.09722222222222222,"velocity":48.03842023878756},
{"position":97.03125,"instrument":"TheGrandeurPiano","level2":5,"level3":null,"pitch":89,"articulation":"standard","articulation_tags":["standard","long"],"duration":0.13194444444444445,"velocity":47.931206031585766},
{"position":97.0625,"instrument":"TheGrandeurPiano","level2":4,"level3":null,"pitch":91,"articulation":"standard","articulation_tags":["standard","long"],"duration":0.1597222222222222,"velocity":47.931206031585766},
{"position":97.08333333333333,"instrument":"TheGrandeurPiano","level2":5,"level3":null,"pitch":89,"articulation":"standard","articulation_tags":["standard","long"],"duration":0.09722222222222222,"velocity":47.931206031585766},
{"position":97.10416666666667,"instrument":"Glockenspiel","level2":5,"level3":3,"pitch":107,"articulation":"hits","articulation_tags":["hits","short"],"duration":0.0625,"velocity":92.30964983436334},
{"position":97.11458333333333,"instrument":"Glockenspiel","level2":5,"level3":8,"pitch":108,"articulation":"hits","articulation_tags":["hits","short"],"duration":0.0625,"velocity":92.30964983436334},
{"position":97.11458333333333,"instrument":"Piccolo","level2":5,"level3":9,"pitch":108,"articulation":"legato","articulation_tags":["legato","lg"],"duration":0.09375,"velocity":56.6192996687267},
{"position":97.11458333333333,"instrument":"TheGrandeurPiano","level2":6,"level3":null,"pitch":94,"articulation":"standard","articulation_tags":["standard","long"],"duration":0.13194444444444445,"velocity":47.931206031585766},
{"position":97.19791666666667,"instrument":"Glockenspiel","level2":5,"level3":9,"pitch":108,"articulation":"hits","articulation_tags":["hits","short"],"duration":0.0625,"velocity":92.30964983436334},
{"position":97.22916666666667,"instrument":"TheGrandeurPiano","level2":5,"level3":null,"pitch":89,"articulation":"standard","articulation_tags":["standard","long"],"duration":0.09722222222222222,"velocity":47.931206031585766},
{"position":97.22916666666667,"instrument":"TheGrandeurPiano","level2":6,"level3":null,"pitch":94,"articulation":"standard","articulation_tags":["standard","long"],"duration":0.3125,"velocity":47.931206031585766},
{"position":97.23958333333333,"instrument":"TheGrandeurPiano","level2":5,"level3":null,"pitch":88,"articulation":"standard","articulation_tags":["standard","long"],"duration":0.14583333333333334,"velocity":47.931206031585766},
{"position":97.29166666666667,"instrument":"Glockenspiel","level2":4,"level3":1,"pitch":107,"articulation":"hits","articulation_tags":["hits","short"],"duration":0.0625,"velocity":92.47025749417833},
{"position":97.30208333333333,"instrument":"TheGrandeurPiano","level2":4,"level3":null,"pitch":91,"articulation":"standard","articulation_tags":["standard","long"],"duration":0.1527777777777778,"velocity":48.03842023878756},
{"position":97.3125,"instrument":"TheGrandeurPiano","level2":6,"level3":null,"pitch":95,"articulation":"standard","articulation_tags":["standard","long"],"duration":0.1388888888888889,"velocity":48.03842023878756},
{"position":97.33333333333333,"instrument":"Glockenspiel","level2":4,"level3":1,"pitch":107,"articulation":"hits","articulation_tags":["hits","short"],"duration":0.0625,"velocity":92.1739586314429},
{"position":97.36458333333333,"instrument":"TheGrandeurPiano","level2":5,"level3":null,"pitch":88,"articulation":"standard","articulation_tags":["standard","long"],"duration":0.09722222222222222,"velocity":48.03842023878756},
{"position":97.38541666666667,"instrument":"TheGrandeurPiano","level2":4,"level3":null,"pitch":91,"articulation":"standard","articulation_tags":["standard","long"],"duration":0.5486111111111112,"velocity":48.03842023878756},
{"position":97.45833333333333,"instrument":"TheGrandeurPiano","level2":5,"level3":null,"pitch":88,"articulation":"standard","articulation_tags":["standard","long"],"duration":0.1597222222222222,"velocity":48.03842023878756},
{"position":97.51041666666667,"instrument":"TheGrandeurPiano","level2":5,"level3":null,"pitch":88,"articulation":"standard","articulation_tags":["standard","long"],"duration":0.09027777777777778,"velocity":48.03842023878756},
{"position":97.52083333333333,"instrument":"TheGrandeurPiano","level2":6,"level3":null,"pitch":95,"articulation":"standard","articulation_tags":["standard","long"],"duration":0.14583333333333334,"velocity":48.03842023878756},
{"position":97.53125,"instrument":"TheGrandeurPiano","level2":4,"level3":null,"pitch":90,"articulation":"standard","articulation_tags":["standard","long"],"duration":0.1527777777777778,"velocity":48.03842023878756},
{"position":97.64583333333333,"instrument":"TheGrandeurPiano","level2":5,"level3":null,"pitch":88,"articulation":"standard","articulation_tags":["standard","long"],"duration":0.09027777777777778,"velocity":48.35786351097736},
{"position":97.6875,"instrument":"Glockenspiel","level2":5,"level3":10,"pitch":108,"articulation":"hits","articulation_tags":["hits","short"],"duration":0.0625,"velocity":90.98193104003406},
{"position":97.6875,"instrument":"Glockenspiel","level2":5,"level3":11,"pitch":108,"articulation":"hits","articulation_tags":["hits","short"],"duration":0.0625,"velocity":90.98193104003406},
{"position":97.69791666666667,"instrument":"TheGrandeurPiano","level2":6,"level3":null,"pitch":95,"articulation":"standard","articulation_tags":["standard","long"],"duration":0.3055555555555556,"velocity":48.35786351097736},
{"position":97.69791666666667,"instrument":"TheGrandeurPiano","level2":5,"level3":null,"pitch":87,"articulation":"standard","articulation_tags":["standard","long"],"duration":0.18055555555555555,"velocity":48.35786351097736},
{"position":97.73958333333333,"instrument":"TheGrandeurPiano","level2":6,"level3":null,"pitch":96,"articulation":"standard","articulation_tags":["standard","long"],"duration":0.1527777777777778,"velocity":48.35786351097736},
{"position":97.76041666666667,"instrument":"TheGrandeurPiano","level2":4,"level3":null,"pitch":90,"articulation":"standard","articulation_tags":["standard","long"],"duration":0.14583333333333334,"velocity":48.35786351097736},
{"position":97.79166666666667,"instrument":"TheGrandeurPiano","level2":5,"level3":null,"pitch":87,"articulation":"standard","articulation_tags":["standard","long"],"duration":0.09027777777777778,"velocity":48.35786351097736},
{"position":97.92708333333333,"instrument":"TheGrandeurPiano","level2":5,"level3":null,"pitch":87,"articulation":"standard","articulation_tags":["standard","long"],"duration":0.09027777777777778,"velocity":48.883157398992545},
{"position":97.96875,"instrument":"TheGrandeurPiano","level2":6,"level3":null,"pitch":96,"articulation":"standard","articulation_tags":["standard","long"],"duration":0.16666666666666666,"velocity":48.883157398992545},
{"position":97.97916666666667,"instrument":"TheGrandeurPiano","level2":4,"level3":null,"pitch":89,"articulation":"standard","articulation_tags":["standard","long"],"duration":0.1388888888888889,"velocity":48.883157398992545},
{"position":97.97916666666667,"instrument":"TheGrandeurPiano","level2":5,"level3":null,"pitch":87,"articulation":"standard","articulation_tags":["standard","long"],"duration":0.2152777777777778,"velocity":48.883157398992545},
{"position":98.02083333333333,"instrument":"Glockenspiel","level2":5,"level3":12,"pitch":108,"articulation":"hits","articulation_tags":["hits","short"],"duration":0.0625,"velocity":90.15595258597034},
{"position":98.02083333333333,"instrument":"Glockenspiel","level2":5,"level3":13,"pitch":108,"articulation":"hits","articulation_tags":["hits","short"],"duration":0.0625,"velocity":90.15595258597034},
{"position":98.05208333333333,"instrument":"Glockenspiel","level2":4,"level3":3,"pitch":107,"articulation":"hits","articulation_tags":["hits","short"],"duration":0.0625,"velocity":91.24787934280712},
{"position":98.0625,"instrument":"TheGrandeurPiano","level2":5,"level3":null,"pitch":87,"articulation":"standard","articulation_tags":["standard","long"],"duration":0.09027777777777778,"velocity":48.883157398992545},
{"position":98.16666666666667,"instrument":"TheGrandeurPiano","level2":6,"level3":null,"pitch":96,"articulation":"standard","articulation_tags":["standard","long"],"duration":0.3055555555555556,"velocity":48.883157398992545},
{"position":98.1875,"instrument":"TheGrandeurPiano","level2":4,"level3":null,"pitch":89,"articulation":"standard","articulation_tags":["standard","long"],"duration":0.13194444444444445,"velocity":48.883157398992545},
{"position":98.19791666666667,"instrument":"TheGrandeurPiano","level2":5,"level3":null,"pitch":87,"articulation":"standard","articulation_tags":["standard","long"],"duration":0.09027777777777778,"velocity":49.56658182367159},
{"position":98.20833333333333,"instrument":"TheGrandeurPiano","level2":4,"level3":null,"pitch":89,"articulation":"standard","articulation_tags":["standard","long"],"duration":0.375,"velocity":49.56658182367159},
{"position":98.21875,"instrument":"TheGrandeurPiano","level2":6,"level3":null,"pitch":85,"articulation":"standard","articulation_tags":["standard","long"],"duration":0.1736111111111111,"velocity":49.56658182367159},
{"position":98.26041666666667,"instrument":"Glockenspiel","level2":5,"level3":6,"pitch":108,"articulation":"hits","articulation_tags":["hits","short"],"duration":0.0625,"velocity":89.65556124627537},
{"position":98.29166666666667,"instrument":"TheGrandeurPiano","level2":5,"level3":null,"pitch":86,"articulation":"standard","articulation_tags":["standard","long"],"duration":0.2638888888888889,"velocity":49.56658182367159},
{"position":98.32291666666667,"instrument":"TheGrandeurPiano","level2":5,"level3":null,"pitch":86,"articulation":"standard","articulation_tags":["standard","long"],"duration":0.08333333333333333,"velocity":49.56658182367159},
{"position":98.38541666666667,"instrument":"TheGrandeurPiano","level2":4,"level3":null,"pitch":88,"articulation":"standard","articulation_tags":["standard","long"],"duration":0.13194444444444445,"velocity":47.17004037302935},
{"position":98.45833333333333,"instrument":"TheGrandeurPiano","level2":5,"level3":null,"pitch":86,"articulation":"standard","articulation_tags":["standard","long"],"duration":0.08333333333333333,"velocity":47.17004037302935},
{"position":98.47916666666667,"instrument":"TheGrandeurPiano","level2":6,"level3":null,"pitch":85,"articulation":"standard","articulation_tags":["standard","long"],"duration":0.1875,"velocity":47.17004037302935},
{"position":98.58333333333333,"instrument":"TheGrandeurPiano","level2":4,"level3":null,"pitch":88,"articulation":"standard","articulation_tags":["standard","long"],"duration":0.125,"velocity":48.14526537486471},
{"position":98.58333333333333,"instrument":"TheGrandeurPiano","level2":5,"level3":null,"pitch":86,"articulation":"standard","articulation_tags":["standard","long"],"duration":0.08333333333333333,"velocity":48.14526537486471},
{"position":98.625,"instrument":"TheGrandeurPiano","level2":6,"level3":null,"pitch":85,"articulation":"standard","articulation_tags":["standard","long"],"duration":0.3055555555555556,"velocity":48.14526537486471},
{"position":98.63541666666667,"instrument":"Glockenspiel","level2":5,"level3":9,"pitch":108,"articulation":"hits","articulation_tags":["hits","short"],"duration":0.0625,"velocity":88.74624795843522},
{"position":98.6875,"instrument":"TheGrandeurPiano","level2":5,"level3":null,"pitch":86,"articulation":"standard","articulation_tags":["standard","long"],"duration":0.4097222222222222,"velocity":48.14526537486471},
{"position":98.70833333333333,"instrument":"TheGrandeurPiano","level2":5,"level3":null,"pitch":86,"articulation":"standard","articulation_tags":["standard","long"],"duration":0.08333333333333333,"velocity":48.14526537486471},
{"position":98.76041666666667,"instrument":"TheGrandeurPiano","level2":6,"level3":null,"pitch":86,"articulation":"standard","articulation_tags":["standard","long"],"duration":0.2013888888888889,"velocity":48.14526537486471},
{"position":98.77083333333333,"instrument":"TheGrandeurPiano","level2":4,"level3":null,"pitch":88,"articulation":"standard","articulation_tags":["standard","long"],"duration":0.2847222222222222,"velocity":48.14526537486471},
{"position":98.77083333333333,"instrument":"TheGrandeurPiano","level2":4,"level3":null,"pitch":87,"articulation":"standard","articulation_tags":["standard","long"],"duration":0.11805555555555555,"velocity":48.14526537486471},
{"position":98.83333333333333,"instrument":"TheGrandeurPiano","level2":5,"level3":null,"pitch":86,"articulation":"standard","articulation_tags":["standard","long"],"duration":0.08333333333333333,"velocity":48.14526537486471},
{"position":98.95833333333333,"instrument":"TheGrandeurPiano","level2":4,"level3":null,"pitch":87,"articulation":"standard","articulation_tags":["standard","long"],"duration":0.11805555555555555,"velocity":49.27866411850142},
{"position":98.95833333333333,"instrument":"TheGrandeurPiano","level2":5,"level3":null,"pitch":86,"articulation":"standard","articulation_tags":["standard","long"],"duration":0.0763888888888889,"velocity":49.27866411850142},
{"position":98.98958333333333,"instrument":"Glockenspiel","level2":5,"level3":5,"pitch":108,"articulation":"hits","articulation_tags":["hits","short"],"duration":0.0625,"velocity":87.79760008688181},
{"position":99.01041666666667,"instrument":"Glockenspiel","level2":5,"level3":12,"pitch":108,"articulation":"hits","articulation_tags":["hits","short"],"duration":0.0625,"velocity":87.79760008688181},
{"position":99.0625,"instrument":"TheGrandeurPiano","level2":6,"level3":null,"pitch":86,"articulation":"standard","articulation_tags":["standard","long"],"duration":0.2152777777777778,"velocity":49.27866411850142},
{"position":99.07291666666667,"instrument":"TheGrandeurPiano","level2":5,"level3":null,"pitch":86,"articulation":"standard","articulation_tags":["standard","long"],"duration":0.0763888888888889,"velocity":49.27866411850142},
{"position":99.07291666666667,"instrument":"TheGrandeurPiano","level2":6,"level3":null,"pitch":86,"articulation":"standard","articulation_tags":["standard","long"],"duration":0.3055555555555556,"velocity":49.27866411850142},
{"position":99.13541666666667,"instrument":"TheGrandeurPiano","level2":4,"level3":null,"pitch":86,"articulation":"standard","articulation_tags":["standard","long"],"duration":0.1111111111111111,"velocity":47.05972906995423},
{"position":99.15625,"instrument":"Glockenspiel","level2":4,"level3":0,"pitch":107,"articulation":"hits","articulation_tags":["hits","short"],"duration":0.0625,"velocity":89.40226688266799},
{"position":99.1875,"instrument":"TheGrandeurPiano","level2":5,"level3":null,"pitch":86,"articulation":"standard","articulation_tags":["standard","long"],"duration":0.0763888888888889,"velocity":47.05972906995423},
{"position":99.19791666666667,"instrument":"TheGrandeurPiano","level2":4,"level3":null,"pitch":86,"articulation":"standard","articulation_tags":["standard","long"],"duration":0.2222222222222222,"velocity":48.46362389052244},
{"position":99.20833333333333,"instrument":"Glockenspiel","level2":5,"level3":1,"pitch":108,"articulation":"hits","articulation_tags":["hits","short"],"duration":0.0625,"velocity":87.28460933653558},
{"position":99.26041666666667,"instrument":"Glockenspiel","level2":5,"level3":4,"pitch":108,"articulation":"hits","articulation_tags":["hits","short"],"duration":0.0625,"velocity":87.28460933653558},
{"position":99.30208333333333,"instrument":"TheGrandeurPiano","level2":5,"level3":null,"pitch":85,"articulation":"standard","articulation_tags":["standard","long"],"duration":0.5486111111111112,"velocity":48.46362389052244},
{"position":99.30208333333333,"instrument":"TheGrandeurPiano","level2":5,"level3":null,"pitch":85,"articulation":"standard","articulation_tags":["standard","long"],"duration":0.0763888888888889,"velocity":48.46362389052244},
{"position":99.30208333333333,"instrument":"TheGrandeurPiano","level2":4,"level3":null,"pitch":86,"articulation":"standard","articulation_tags":["standard","long"],"duration":0.1111111111111111,"velocity":48.46362389052244},
{"position":99.38541666666667,"instrument":"TheGrandeurPiano","level2":6,"level3":null,"pitch":87,"articulation":"standard","articulation_tags":["standard","long"],"duration":0.2361111111111111,"velocity":48.46362389052244},
{"position":99.41666666666667,"instrument":"TheGrandeurPiano","level2":5,"level3":null,"pitch":85,"articulation":"standard","articulation_tags":["standard","long"],"duration":0.0763888888888889,"velocity":48.46362389052244},
{"position":99.4375,"instrument":"Glockenspiel","level2":5,"level3":7,"pitch":108,"articulation":"hits","articulation_tags":["hits","short"],"duration":0.0625,"velocity":86.58478163188303},
{"position":99.45833333333333,"instrument":"TheGrandeurPiano","level2":4,"level3":null,"pitch":85,"articulation":"standard","articulation_tags":["standard","long"],"duration":0.10416666666666667,"velocity":48.46362389052244},
{"position":99.48958333333333,"instrument":"Glockenspiel","level2":4,"level3":3,"pitch":107,"articulation":"hits","articulation_tags":["hits","short"],"duration":0.0625,"velocity":88.78132372862515},
{"position":99.5,"instrument":"Glockenspiel","level2":4,"level3":0,"pitch":107,"articulation":"hits","articulation_tags":["hits","short"],"duration":0.0625,"velocity":88.78132372862515},
{"position":99.53125,"instrument":"TheGrandeurPiano","level2":6,"level3":null,"pitch":87,"articulation":"standard","articulation_tags":["standard","long"],"duration":0.3055555555555556,"velocity":48.46362389052244},
{"position":99.53125,"instrument":"TheGrandeurPiano","level2":5,"level3":null,"pitch":85,"articulation":"standard","articulation_tags":["standard","long"],"duration":0.06944444444444445,"velocity":48.46362389052244},
{"position":99.53125,"instrument":"TheGrandeurPiano","level2":4,"level3":null,"pitch":85,"articulation":"standard","articulation_tags":["standard","long"],"duration":0.18055555555555555,"velocity":48.46362389052244},
{"position":99.61458333333333,"instrument":"TheGrandeurPiano","level2":4,"level3":null,"pitch":85,"articulation":"standard","articulation_tags":["standard","long"],"duration":0.09722222222222222,"velocity":49.94630547404311},
{"position":99.63541666666667,"instrument":"TheGrandeurPiano","level2":5,"level3":null,"pitch":85,"articulation":"standard","articulation_tags":["standard","long"],"duration":0.06944444444444445,"velocity":49.94630547404311},
{"position":99.73958333333333,"instrument":"TheGrandeurPiano","level2":6,"level3":null,"pitch":87,"articulation":"standard","articulation_tags":["standard","long"],"duration":0.25,"velocity":48.03842023878756},
{"position":99.73958333333333,"instrument":"TheGrandeurPiano","level2":5,"level3":null,"pitch":85,"articulation":"standard","articulation_tags":["standard","long"],"duration":0.06944444444444445,"velocity":48.03842023878756},
{"position":99.76041666666667,"instrument":"TheGrandeurPiano","level2":4,"level3":null,"pitch":96,"articulation":"standard","articulation_tags":["standard","long"],"duration":0.09722222222222222,"velocity":48.03842023878756},
{"position":99.79166666666667,"instrument":"Glockenspiel","level2":5,"level3":12,"pitch":108,"articulation":"hits","articulation_tags":["hits","short"],"duration":0.0625,"velocity":85.84070548169251},
{"position":99.80208333333333,"instrument":"TheGrandeurPiano","level2":4,"level3":null,"pitch":96,"articulation":"standard","articulation_tags":["standard","long"],"duration":0.1527777777777778,"velocity":48.03842023878756},
{"position":99.83333333333333,"instrument":"TheGrandeurPiano","level2":5,"level3":null,"pitch":85,"articulation":"standard","articulation_tags":["standard","long"],"duration":0.0625,"velocity":48.03842023878756},
{"position":99.90625,"instrument":"TheGrandeurPiano","level2":4,"level3":null,"pitch":96,"articulation":"standard","articulation_tags":["standard","long"],"duration":0.09027777777777778,"velocity":48.03842023878756},
{"position":99.9375,"instrument":"TheGrandeurPiano","level2":5,"level3":null,"pitch":85,"articulation":"standard","articulation_tags":["standard","long"],"duration":0.0625,"velocity":48.03842023878756},
{"position":99.97916666666667,"instrument":"TheGrandeurPiano","level2":6,"level3":null,"pitch":87,"articulation":"standard","articulation_tags":["standard","long"],"duration":0.3055555555555556,"velocity":49.75702965889263},
{"position":100.03125,"instrument":"TheGrandeurPiano","level2":4,"level3":null,"pitch":96,"articulation":"standard","articulation_tags":["standard","long"],"duration":0.125,"velocity":49.75702965889263},
{"position":100.03125,"instrument":"TheGrandeurPiano","level2":5,"level3":null,"pitch":85,"articulation":"standard","articulation_tags":["standard","long"],"duration":0.0625,"velocity":49.75702965889263},
{"position":100.04166666666667,"instrument":"TheGrandeurPiano","level2":4,"level3":null,"pitch":95,"articulation":"standard","articulation_tags":["standard","long"],"duration":0.08333333333333333,"velocity":49.75702965889263},
{"position":100.05208333333333,"instrument":"Glockenspiel","level2":5,"level3":2,"pitch":108,"articulation":"hits","articulation_tags":["hits","short"],"duration":0.0625,"velocity":85.1251824997702},
{"position":100.11458333333333,"instrument":"TheGrandeurPiano","level2":6,"level3":null,"pitch":88,"articulation":"standard","articulation_tags":["standard","long"],"duration":0.2777777777777778,"velocity":49.75702965889263},
{"position":100.125,"instrument":"Glockenspiel","level2":5,"level3":3,"pitch":108,"articulation":"hits","articulation_tags":["hits","short"],"duration":0.0625,"velocity":85.1251824997702},
{"position":100.125,"instrument":"TheGrandeurPiano","level2":5,"level3":null,"pitch":85,"articulation":"standard","articulation_tags":["standard","long"],"duration":0.05555555555555555,"velocity":49.75702965889263},
{"position":100.125,"instrument":"TheGrandeurPiano","level2":5,"level3":null,"pitch":86,"articulation":"standard","articulation_tags":["standard","long"],"duration":0.2777777777777778,"velocity":49.75702965889263},
{"position":100.16666666666667,"instrument":"TheGrandeurPiano","level2":4,"level3":null,"pitch":95,"articulation":"standard","articulation_tags":["standard","long"],"duration":0.0763888888888889,"velocity":48.03842023878756},
{"position":100.17708333333333,"instrument":"Glockenspiel","level2":5,"level3":5,"pitch":108,"articulation":"hits","articulation_tags":["hits","short"],"duration":0.0625,"velocity":85.11713841962909},
{"position":100.20833333333333,"instrument":"TheGrandeurPiano","level2":5,"level3":null,"pitch":86,"articulation":"standard","articulation_tags":["standard","long"],"duration":0.05555555555555555,"velocity":48.03842023878756},
{"position":100.22916666666667,"instrument":"TheGrandeurPiano","level2":4,"level3":null,"pitch":95,"articulation":"standard","articulation_tags":["standard","long"],"duration":0.1111111111111111,"velocity":48.03842023878756},
{"position":100.28125,"instrument":"TheGrandeurPiano","level2":4,"level3":null,"pitch":94,"articulation":"standard","articulation_tags":["standard","long"],"duration":0.0763888888888889,"velocity":48.03842023878756},
{"position":100.29166666666667,"instrument":"TheGrandeurPiano","level2":5,"level3":null,"pitch":86,"articulation":"standard","articulation_tags":["standard","long"],"duration":0.05555555555555555,"velocity":48.03842023878756},
{"position":100.375,"instrument":"TheGrandeurPiano","level2":5,"level3":null,"pitch":86,"articulation":"standard","articulation_tags":["standard","long"],"duration":0.04861111111111111,"velocity":49.94630547404311},
{"position":100.38541666666667,"instrument":"TheGrandeurPiano","level2":4,"level3":null,"pitch":94,"articulation":"standard","articulation_tags":["standard","long"],"duration":0.09027777777777778,"velocity":49.94630547404311},
{"position":100.39583333333333,"instrument":"TheGrandeurPiano","level2":4,"level3":null,"pitch":94,"articulation":"standard","articulation_tags":["standard","long"],"duration":0.06944444444444445,"velocity":49.94630547404311},
{"position":100.4375,"instrument":"TheGrandeurPiano","level2":6,"level3":null,"pitch":88,"articulation":"standard","articulation_tags":["standard","long"],"duration":0.3055555555555556,"velocity":49.94630547404311},
{"position":100.45833333333333,"instrument":"TheGrandeurPiano","level2":5,"level3":null,"pitch":86,"articulation":"standard","articulation_tags":["standard","long"],"duration":0.04861111111111111,"velocity":49.94630547404311},
{"position":100.5,"instrument":"TheGrandeurPiano","level2":4,"level3":null,"pitch":93,"articulation":"standard","articulation_tags":["standard","long"],"duration":0.0625,"velocity":49.94630547404311},
{"position":100.52083333333333,"instrument":"TheGrandeurPiano","level2":4,"level3":null,"pitch":93,"articulation":"standard","articulation_tags":["standard","long"],"duration":0.0763888888888889,"velocity":49.94630547404311},
{"position":100.53125,"instrument":"TheGrandeurPiano","level2":6,"level3":null,"pitch":88,"articulation":"standard","articulation_tags":["standard","long"],"duration":0.3055555555555556,"velocity":49.94630547404311},
{"position":100.53125,"instrument":"TheGrandeurPiano","level2":5,"level3":null,"pitch":86,"articulation":"standard","articulation_tags":["standard","long"],"duration":0.04861111111111111,"velocity":49.94630547404311},
{"position":100.54166666666667,"instrument":"TheGrandeurPiano","level2":5,"level3":null,"pitch":86,"articulation":"standard","articulation_tags":["standard","long"],"duration":0.13194444444444445,"velocity":48.46362389052244},
{"position":100.59375,"instrument":"TheGrandeurPiano","level2":4,"level3":null,"pitch":93,"articulation":"standard","articulation_tags":["standard","long"],"duration":0.05555555555555555,"velocity":48.46362389052244},
{"position":100.59375,"instrument":"TheGrandeurPiano","level2":5,"level3":null,"pitch":86,"articulation":"standard","articulation_tags":["standard","long"],"duration":0.041666666666666664,"velocity":48.46362389052244},
{"position":100.63541666666667,"instrument":"TheGrandeurPiano","level2":4,"level3":null,"pitch":93,"articulation":"standard","articulation_tags":["standard","long"],"duration":0.0625,"velocity":48.46362389052244},
{"position":100.66666666666667,"instrument":"TheGrandeurPiano","level2":5,"level3":null,"pitch":86,"articulation":"standard","articulation_tags":["standard","long"],"duration":0.041666666666666664,"velocity":48.46362389052244},
{"position":100.6875,"instrument":"TheGrandeurPiano","level2":4,"level3":null,"pitch":92,"articulation":"standard","articulation_tags":["standard","long"],"duration":0.05555555555555555,"velocity":48.46362389052244},
{"position":100.72916666666667,"instrument":"TheGrandeurPiano","level2":5,"level3":null,"pitch":86,"articulation":"standard","articulation_tags":["standard","long"],"duration":0.034722222222222224,"velocity":48.46362389052244},
{"position":100.73958333333333,"instrument":"TheGrandeurPiano","level2":4,"level3":null,"pitch":92,"articulation":"standard","articulation_tags":["standard","long"],"duration":0.05555555555555555,"velocity":48.46362389052244},
{"position":100.75,"instrument":"TheGrandeurPiano","level2":5,"level3":null,"pitch":87,"articulation":"standard","articulation_tags":["standard","long"],"duration":0.08333333333333333,"velocity":48.46362389052244},
{"position":100.76041666666667,"instrument":"TheGrandeurPiano","level2":4,"level3":null,"pitch":92,"articulation":"standard","articulation_tags":["standard","long"],"duration":0.04861111111111111,"velocity":48.46362389052244},
{"position":100.78125,"instrument":"TheGrandeurPiano","level2":5,"level3":null,"pitch":87,"articulation":"standard","articulation_tags":["standard","long"],"duration":0.034722222222222224,"velocity":48.46362389052244},
{"position":100.8125,"instrument":"Glockenspiel","level2":5,"level3":0,"pitch":108,"articulation":"hits","articulation_tags":["hits","short"],"duration":0.0625,"velocity":83.81476091895281},
{"position":100.8125,"instrument":"TheGrandeurPiano","level2":4,"level3":null,"pitch":92,"articulation":"standard","articulation_tags":["standard","long"],"duration":0.041666666666666664,"velocity":48.46362389052244},
{"position":100.83333333333333,"instrument":"TheGrandeurPiano","level2":5,"level3":null,"pitch":87,"articulation":"standard","articulation_tags":["standard","long"],"duration":0.027777777777777776,"velocity":48.46362389052244},
{"position":100.83333333333333,"instrument":"TheGrandeurPiano","level2":4,"level3":null,"pitch":91,"articulation":"standard","articulation_tags":["standard","long"],"duration":0.041666666666666664,"velocity":48.46362389052244},
{"position":100.875,"instrument":"TheGrandeurPiano","level2":5,"level3":null,"pitch":87,"articulation":"standard","articulation_tags":["standard","long"],"duration":0.05555555555555555,"velocity":50.50731136827071},
{"position":100.875,"instrument":"TheGrandeurPiano","level2":5,"level3":null,"pitch":87,"articulation":"standard","articulation_tags":["standard","long"],"duration":0.027777777777777776,"velocity":50.50731136827071},
{"position":100.875,"instrument":"TheGrandeurPiano","level2":4,"level3":null,"pitch":91,"articulation":"standard","articulation_tags":["standard","long"],"duration":0.034722222222222224,"velocity":50.50731136827071},
{"position":100.89583333333333,"instrument":"Glockenspiel","level2":5,"level3":3,"pitch":108,"articulation":"hits","articulation_tags":["hits","short"],"duration":0.0625,"velocity":83.76530216038311},
{"position":100.89583333333333,"instrument":"TheGrandeurPiano","level2":6,"level3":null,"pitch":88,"articulation":"standard","articulation_tags":["standard","long"],"duration":0.3055555555555556,"velocity":50.50731136827071},
{"position":100.89583333333333,"instrument":"TheGrandeurPiano","level2":4,"level3":null,"pitch":91,"articulation":"standard","articulation_tags":["standard","long"],"duration":0.034722222222222224,"velocity":50.50731136827071},
{"position":100.91666666666667,"instrument":"TheGrandeurPiano","level2":5,"level3":null,"pitch":87,"articulation":"standard","articulation_tags":["standard","long"],"duration":0.020833333333333332,"velocity":49.27866411850142},
{"position":100.92708333333333,"instrument":"TheGrandeurPiano","level2":4,"level3":null,"pitch":91,"articulation":"standard","articulation_tags":["standard","long"],"duration":0.027777777777777776,"velocity":49.27866411850142},
{"position":100.94791666666667,"instrument":"TheGrandeurPiano","level2":5,"level3":null,"pitch":88,"articulation":"standard","articulation_tags":["standard","long"],"duration":0.034722222222222224,"velocity":49.27866411850142},
{"position":100.94791666666667,"instrument":"TheGrandeurPiano","level2":5,"level3":null,"pitch":88,"articulation":"standard","articulation_tags":["standard","long"],"duration":0.020833333333333332,"velocity":49.27866411850142},
{"position":100.94791666666667,"instrument":"TheGrandeurPiano","level2":4,"level3":null,"pitch":90,"articulation":"standard","articulation_tags":["standard","long"],"duration":0.027777777777777776,"velocity":49.27866411850142},
{"position":100.96875,"instrument":"TheGrandeurPiano","level2":4,"level3":null,"pitch":90,"articulation":"standard","articulation_tags":["standard","long"],"duration":0.020833333333333332,"velocity":49.27866411850142},
{"position":100.97916666666667,"instrument":"TheGrandeurPiano","level2":5,"level3":null,"pitch":88,"articulation":"standard","articulation_tags":["standard","long"],"duration":0.013888888888888888,"velocity":49.27866411850142},
{"position":100.98958333333333,"instrument":"TheGrandeurPiano","level2":6,"level3":null,"pitch":89,"articulation":"standard","articulation_tags":["standard","long"],"duration":0.3402777777777778,"velocity":49.27866411850142},
{"position":100.98958333333333,"instrument":"TheGrandeurPiano","level2":4,"level3":null,"pitch":90,"articulation":"standard","articulation_tags":["standard","long"],"duration":0.020833333333333332,"velocity":49.27866411850142},
{"position":101.0,"instrument":"TheGrandeurPiano","level2":5,"level3":null,"pitch":88,"articulation":"standard","articulation_tags":["standard","long"],"duration":0.013888888888888888,"velocity":49.27866411850142},
{"position":101.0,"instrument":"TheGrandeurPiano","level2":5,"level3":null,"pitch":88,"articulation":"standard","articulation_tags":["standard","long"],"duration":0.006944444444444444,"velocity":49.27866411850142},
{"position":101.0,"instrument":"TheGrandeurPiano","level2":4,"level3":null,"pitch":90,"articulation":"standard","articulation_tags":["standard","long"],"duration":0.013888888888888888,"velocity":49.27866411850142},
{"position":101.01041666666667,"instrument":"TheGrandeurPiano","level2":4,"level3":null,"pitch":89,"articulation":"standard","articulation_tags":["standard","long"],"duration":0.006944444444444444,"velocity":49.27866411850142},
{"position":101.01041666666667,"instrument":"TheGrandeurPiano","level2":4,"level3":null,"pitch":89,"articulation":"standard","articulation_tags":["standard","long"],"duration":0.006944444444444444,"velocity":49.27866411850142},
{"position":101.02083333333333,"instrument":"TheGrandeurPiano","level2":5,"level3":null,"pitch":88,"articulation":"standard","articulation_tags":["standard","long"],"duration":0.006944444444444444,"velocity":49.27866411850142},
{"position":101.02083333333333,"instrument":"TheGrandeurPiano","level2":5,"level3":null,"pitch":89,"articulation":"standard","articulation_tags":["standard","long"],"duration":0.0,"velocity":49.27866411850142},
{"position":101.02083333333333,"instrument":"TheGrandeurPiano","level2":5,"level3":null,"pitch":89,"articulation":"standard","articulation_tags":["standard","long"],"duration":0.0,"velocity":49.27866411850142},
{"position":101.02083333333333,"instrument":"TheGrandeurPiano","level2":4,"level3":null,"pitch":89,"articulation":"standard","articulation_tags":["standard","long"],"duration":0.0,"velocity":49.27866411850142},
{"position":101.02083333333333,"instrument":"TheGrandeurPiano","level2":4,"level3":null,"pitch":89,"articulation":"standard","articulation_tags":["standard","long"],"duration":0.0,"velocity":49.27866411850142},
{"position":101.34375,"instrument":"TheGrandeurPiano","level2":6,"level3":null,"pitch":89,"articulation":"standard","articulation_tags":["standard","long"],"duration":0.3055555555555556,"velocity":48.14526537486471},
{"position":101.48958333333333,"instrument":"TheGrandeurPiano","level2":6,"level3":null,"pitch":89,"articulation":"standard","articulation_tags":["standard","long"],"duration":0.3819444444444444,"velocity":50.41450612582929},
{"position":101.80208333333333,"instrument":"TheGrandeurPiano","level2":6,"level3":null,"pitch":89,"articulation":"standard","articulation_tags":["standard","long"],"duration":0.3055555555555556,"velocity":49.56658182367159},
{"position":102.07291666666667,"instrument":"TheGrandeurPiano","level2":6,"level3":null,"pitch":90,"articulation":"standard","articulation_tags":["standard","long"],"duration":0.4444444444444444,"velocity":48.883157398992545},
{"position":102.27083333333333,"instrument":"TheGrandeurPiano","level2":6,"level3":null,"pitch":90,"articulation":"standard","articulation_tags":["standard","long"],"duration":0.3125,"velocity":48.35786351097736},
{"position":102.72916666666667,"instrument":"TheGrandeurPiano","level2":6,"level3":null,"pitch":90,"articulation":"standard","articulation_tags":["standard","long"],"duration":0.3125,"velocity":50.50731136827071},
{"position":102.73958333333333,"instrument":"TheGrandeurPiano","level2":6,"level3":null,"pitch":90,"articulation":"standard","articulation_tags":["standard","long"],"duration":0.5416666666666666,"velocity":50.50731136827071},
{"position":103.19791666666667,"instrument":"TheGrandeurPiano","level2":6,"level3":null,"pitch":90,"articulation":"standard","articulation_tags":["standard","long"],"duration":0.3125,"velocity":50.50731136827071},
{"position":103.55208333333333,"instrument":"TheGrandeurPiano","level2":6,"level3":null,"pitch":91,"articulation":"standard","articulation_tags":["standard","long"],"duration":0.7152777777777778,"velocity":50.784101265244956},
{"position":103.66666666666667,"instrument":"TheGrandeurPiano","level2":6,"level3":null,"pitch":91,"articulation":"standard","articulation_tags":["standard","long"],"duration":0.3194444444444444,"velocity":50.784101265244956},
{"position":104.14583333333333,"instrument":"TheGrandeurPiano","level2":6,"level3":null,"pitch":91,"articulation":"standard","articulation_tags":["standard","long"],"duration":0.3194444444444444,"velocity":49.56658182367159},
{"position":104.625,"instrument":"TheGrandeurPiano","level2":6,"level3":null,"pitch":91,"articulation":"standard","articulation_tags":["standard","long"],"duration":1.3402777777777777,"velocity":51.420755927817474},
{"position":104.625,"instrument":"TheGrandeurPiano","level2":6,"level3":null,"pitch":91,"articulation":"standard","articulation_tags":["standard","long"],"duration":0.3194444444444444,"velocity":51.420755927817474},
{"position":105.10416666666667,"instrument":"TheGrandeurPiano","level2":6,"level3":null,"pitch":91,"articulation":"standard","articulation_tags":["standard","long"],"duration":0.3263888888888889,"velocity":50.50731136827071},
{"position":105.59375,"instrument":"TheGrandeurPiano","level2":6,"level3":null,"pitch":91,"articulation":"standard","articulation_tags":["standard","long"],"duration":0.3263888888888889,"velocity":51.510688849338564},
{"position":106.08333333333333,"instrument":"TheGrandeurPiano","level2":6,"level3":null,"pitch":91,"articulation":"standard","articulation_tags":["standard","long"],"duration":0.3333333333333333,"velocity":51.510688849338564},
{"position":106.58333333333333,"instrument":"TheGrandeurPiano","level2":6,"level3":null,"pitch":91,"articulation":"standard","articulation_tags":["standard","long"],"duration":0.3333333333333333,"velocity":51.867959893612},
{"position":106.625,"instrument":"TheGrandeurPiano","level2":6,"level3":null,"pitch":92,"articulation":"standard","articulation_tags":["standard","long"],"duration":1.3541666666666667,"velocity":51.867959893612},
{"position":107.09375,"instrument":"TheGrandeurPiano","level2":6,"level3":null,"pitch":92,"articulation":"standard","articulation_tags":["standard","long"],"duration":0.3402777777777778,"velocity":51.420755927817474},
{"position":107.60416666666667,"instrument":"TheGrandeurPiano","level2":6,"level3":null,"pitch":92,"articulation":"standard","articulation_tags":["standard","long"],"duration":0.3472222222222222,"velocity":52.657956835117645},
{"position":108.125,"instrument":"TheGrandeurPiano","level2":6,"level3":null,"pitch":92,"articulation":"standard","articulation_tags":["standard","long"],"duration":0.3541666666666667,"velocity":53.599021346217135},
{"position":108.64583333333333,"instrument":"TheGrandeurPiano","level2":6,"level3":null,"pitch":92,"articulation":"standard","articulation_tags":["standard","long"],"duration":0.3541666666666667,"velocity":52.917200384124094},
{"position":108.65625,"instrument":"TheGrandeurPiano","level2":6,"level3":null,"pitch":91,"articulation":"standard","articulation_tags":["standard","long"],"duration":1.4375,"velocity":52.917200384124094},
{"position":109.1875,"instrument":"TheGrandeurPiano","level2":6,"level3":null,"pitch":91,"articulation":"standard","articulation_tags":["standard","long"],"duration":0.3611111111111111,"velocity":52.917200384124094},
{"position":109.72916666666667,"instrument":"TheGrandeurPiano","level2":6,"level3":null,"pitch":91,"articulation":"standard","articulation_tags":["standard","long"],"duration":0.3680555555555556,"velocity":53.599021346217135},
{"position":110.28125,"instrument":"TheGrandeurPiano","level2":6,"level3":null,"pitch":91,"articulation":"standard","articulation_tags":["standard","long"],"duration":0.375,"velocity":52.657956835117645},
{"position":110.82291666666667,"instrument":"TheGrandeurPiano","level2":6,"level3":null,"pitch":91,"articulation":"standard","articulation_tags":["standard","long"],"duration":0.8194444444444444,"velocity":54.67920188249906},
{"position":110.84375,"instrument":"TheGrandeurPiano","level2":6,"level3":null,"pitch":91,"articulation":"standard","articulation_tags":["standard","long"],"duration":0.3819444444444444,"velocity":54.67920188249906},
{"position":111.41666666666667,"instrument":"TheGrandeurPiano","level2":6,"level3":null,"pitch":91,"articulation":"standard","articulation_tags":["standard","long"],"duration":0.3888888888888889,"velocity":55.24750706826456},
{"position":112.01041666666667,"instrument":"TheGrandeurPiano","level2":6,"level3":null,"pitch":91,"articulation":"standard","articulation_tags":["standard","long"],"duration":0.4027777777777778,"velocity":53.17447739876959},
{"position":112.05208333333333,"instrument":"TheGrandeurPiano","level2":6,"level3":null,"pitch":90,"articulation":"standard","articulation_tags":["standard","long"],"duration":0.6458333333333334,"velocity":54.92386213304897},
{"position":112.61458333333333,"instrument":"TheGrandeurPiano","level2":6,"level3":null,"pitch":90,"articulation":"standard","articulation_tags":["standard","long"],"duration":0.4097222222222222,"velocity":55.24750706826456},
{"position":113.01041666666667,"instrument":"TheGrandeurPiano","level2":6,"level3":null,"pitch":90,"articulation":"standard","articulation_tags":["standard","long"],"duration":0.5486111111111112,"velocity":54.67920188249906},
{"position":113.22916666666667,"instrument":"TheGrandeurPiano","level2":6,"level3":null,"pitch":90,"articulation":"standard","articulation_tags":["standard","long"],"duration":0.4236111111111111,"velocity":54.67920188249906},
{"position":113.83333333333333,"instrument":"TheGrandeurPiano","level2":6,"level3":null,"pitch":89,"articulation":"standard","articulation_tags":["standard","long"],"duration":0.4861111111111111,"velocity":54.92386213304897},
{"position":113.86458333333333,"instrument":"TheGrandeurPiano","level2":6,"level3":null,"pitch":89,"articulation":"standard","articulation_tags":["standard","long"],"duration":0.4375,"velocity":54.18477795592511},
{"position":114.53125,"instrument":"TheGrandeurPiano","level2":6,"level3":null,"pitch":89,"articulation":"standard","articulation_tags":["standard","long"],"duration":0.4583333333333333,"velocity":55.568287720010495},
{"position":114.5625,"instrument":"TheGrandeurPiano","level2":6,"level3":null,"pitch":89,"articulation":"standard","articulation_tags":["standard","long"],"duration":0.4375,"velocity":55.568287720010495},
{"position":115.20833333333333,"instrument":"TheGrandeurPiano","level2":6,"level3":null,"pitch":89,"articulation":"standard","articulation_tags":["standard","long"],"duration":0.4791666666666667,"velocity":55.32796778229254},
{"position":115.22916666666667,"instrument":"TheGrandeurPiano","level2":6,"level3":null,"pitch":88,"articulation":"standard","articulation_tags":["standard","long"],"duration":0.4027777777777778,"velocity":55.32796778229254},
{"position":115.83333333333333,"instrument":"TheGrandeurPiano","level2":6,"level3":null,"pitch":88,"articulation":"standard","articulation_tags":["standard","long"],"duration":0.375,"velocity":55.965349172034685},
{"position":115.92708333333333,"instrument":"TheGrandeurPiano","level2":6,"level3":null,"pitch":88,"articulation":"standard","articulation_tags":["standard","long"],"duration":0.5,"velocity":55.965349172034685},
{"position":116.39583333333333,"instrument":"TheGrandeurPiano","level2":6,"level3":null,"pitch":87,"articulation":"standard","articulation_tags":["standard","long"],"duration":0.3541666666666667,"velocity":54.92386213304897},
{"position":116.67708333333333,"instrument":"TheGrandeurPiano","level2":6,"level3":null,"pitch":87,"articulation":"standard","articulation_tags":["standard","long"],"duration":0.5347222222222222,"velocity":55.80703859801349},
{"position":116.92708333333333,"instrument":"TheGrandeurPiano","level2":6,"level3":null,"pitch":87,"articulation":"standard","articulation_tags":["standard","long"],"duration":0.3333333333333333,"velocity":54.67920188249906},
{"position":117.4375,"instrument":"TheGrandeurPiano","level2":6,"level3":null,"pitch":86,"articulation":"standard","articulation_tags":["standard","long"],"duration":0.3194444444444444,"velocity":55.24750706826456},
{"position":117.47916666666667,"instrument":"TheGrandeurPiano","level2":6,"level3":null,"pitch":86,"articulation":"standard","articulation_tags":["standard","long"],"duration":0.5763888888888888,"velocity":55.24750706826456},
{"position":117.90625,"instrument":"TheGrandeurPiano","level2":6,"level3":null,"pitch":86,"articulation":"standard","articulation_tags":["standard","long"],"duration":0.3055555555555556,"velocity":54.92386213304897},
{"position":118.34375,"instrument":"TheGrandeurPiano","level2":6,"level3":null,"pitch":86,"articulation":"standard","articulation_tags":["standard","long"],"duration":0.6388888888888888,"velocity":54.92386213304897},
{"position":118.36458333333333,"instrument":"TheGrandeurPiano","level2":6,"level3":null,"pitch":85,"articulation":"standard","articulation_tags":["standard","long"],"duration":0.2916666666666667,"velocity":54.92386213304897},
{"position":118.79166666666667,"instrument":"TheGrandeurPiano","level2":6,"level3":null,"pitch":85,"articulation":"standard","articulation_tags":["standard","long"],"duration":0.2777777777777778,"velocity":55.24750706826456},
{"position":119.16666666666667,"instrument":"Glockenspiel","level2":8,"level3":0,"pitch":96,"articulation":"hits","articulation_tags":["hits","short"],"duration":0.0625,"velocity":104.56432351181434},
{"position":119.16666666666667,"instrument":"Glockenspiel","level2":8,"level3":1,"pitch":96,"articulation":"hits","articulation_tags":["hits","short"],"duration":0.0625,"velocity":104.56432351181434},
{"position":119.20833333333333,"instrument":"TheGrandeurPiano","level2":6,"level3":null,"pitch":96,"articulation":"standard","articulation_tags":["standard","long"],"duration":0.2638888888888889,"velocity":54.67920188249906},
{"position":119.22916666666667,"instrument":"Glockenspiel","level2":8,"level3":1,"pitch":96,"articulation":"hits","articulation_tags":["hits","short"],"duration":0.0625,"velocity":104.25891611122118},
{"position":119.30208333333333,"instrument":"TheGrandeurPiano","level2":6,"level3":null,"pitch":96,"articulation":"standard","articulation_tags":["standard","long"],"duration":0.7361111111111112,"velocity":54.67920188249906},
{"position":119.61458333333333,"instrument":"TheGrandeurPiano","level2":6,"level3":null,"pitch":96,"articulation":"standard","articulation_tags":["standard","long"],"duration":0.2569444444444444,"velocity":55.80703859801349},
{"position":120.0,"instrument":"TheGrandeurPiano","level2":6,"level3":null,"pitch":95,"articulation":"standard","articulation_tags":["standard","long"],"duration":0.25,"velocity":54.18477795592511},
{"position":120.36458333333333,"instrument":"TheGrandeurPiano","level2":6,"level3":null,"pitch":95,"articulation":"standard","articulation_tags":["standard","long"],"duration":0.2361111111111111,"velocity":55.965349172034685},
{"position":120.39583333333333,"instrument":"TheGrandeurPiano","level2":6,"level3":null,"pitch":95,"articulation":"standard","articulation_tags":["standard","long"],"duration":0.9444444444444444,"velocity":55.965349172034685},
{"position":120.52083333333333,"instrument":"Glockenspiel","level2":8,"level3":0,"pitch":96,"articulation":"hits","articulation_tags":["hits","short"],"duration":0.0625,"velocity":103.1623589401658},
{"position":120.69791666666667,"instrument":"Glockenspiel","level2":8,"level3":2,"pitch":97,"articulation":"hits","articulation_tags":["hits","short"],"duration":0.0625,"velocity":103.1623589401658},
{"position":120.69791666666667,"instrument":"Glockenspiel","level2":8,"level3":3,"pitch":96,"articulation":"hits","articulation_tags":["hits","short"],"duration":0.0625,"velocity":103.1623589401658},
{"position":120.71875,"instrument":"TheGrandeurPiano","level2":6,"level3":null,"pitch":94,"articulation":"standard","articulation_tags":["standard","long"],"duration":0.22916666666666666,"velocity":55.568287720010495},
{"position":120.82291666666667,"instrument":"Glockenspiel","level2":8,"level3":2,"pitch":97,"articulation":"hits","articulation_tags":["hits","short"],"duration":0.0625,"velocity":102.85623636502235},
{"position":120.86458333333333,"instrument":"Glockenspiel","level2":8,"level3":1,"pitch":96,"articulation":"hits","articulation_tags":["hits","short"],"duration":0.0625,"velocity":102.85623636502235},
{"position":121.0,"instrument":"Glockenspiel","level2":8,"level3":2,"pitch":97,"articulation":"hits","articulation_tags":["hits","short"],"duration":0.0625,"velocity":102.85623636502235},
{"position":121.05208333333333,"instrument":"TheGrandeurPiano","level2":7,"level3":null,"pitch":95,"articulation":"standard","articulation_tags":["standard","long"],"duration":0.0,"velocity":55.24750706826456},
{"position":121.05208333333333,"instrument":"TheGrandeurPiano","level2":7,"level3":null,"pitch":95,"articulation":"standard","articulation_tags":["standard","long"],"duration":0.0,"velocity":55.24750706826456},
{"position":121.05208333333333,"instrument":"TheGrandeurPiano","level2":7,"level3":null,"pitch":95,"articulation":"standard","articulation_tags":["standard","long"],"duration":0.006944444444444444,"velocity":55.24750706826456},
{"position":121.05208333333333,"instrument":"TheGrandeurPiano","level2":8,"level3":null,"pitch":96,"articulation":"standard","articulation_tags":["standard","long"],"duration":0.0,"velocity":55.24750706826456},
{"position":121.05208333333333,"instrument":"TheGrandeurPiano","level2":8,"level3":null,"pitch":96,"articulation":"standard","articulation_tags":["standard","long"],"duration":0.0,"velocity":55.24750706826456},
{"position":121.05208333333333,"instrument":"TheGrandeurPiano","level2":8,"level3":null,"pitch":96,"articulation":"standard","articulation_tags":["standard","long"],"duration":0.006944444444444444,"velocity":55.24750706826456},
{"position":121.05208333333333,"instrument":"TheGrandeurPiano","level2":8,"level3":null,"pitch":96,"articulation":"standard","articulation_tags":["standard","long"],"duration":0.0,"velocity":55.24750706826456},
{"position":121.0625,"instrument":"TheGrandeurPiano","level2":7,"level3":null,"pitch":95,"articulation":"standard","articulation_tags":["standard","long"],"duration":0.006944444444444444,"velocity":55.24750706826456},
{"position":121.0625,"instrument":"TheGrandeurPiano","level2":7,"level3":null,"pitch":94,"articulation":"standard","articulation_tags":["standard","long"],"duration":0.006944444444444444,"velocity":55.24750706826456},
{"position":121.0625,"instrument":"TheGrandeurPiano","level2":8,"level3":null,"pitch":85,"articulation":"standard","articulation_tags":["standard","long"],"duration":0.006944444444444444,"velocity":55.24750706826456},
{"position":121.0625,"instrument":"TheGrandeurPiano","level2":8,"level3":null,"pitch":85,"articulation":"standard","articulation_tags":["standard","long"],"duration":0.006944444444444444,"velocity":55.24750706826456},
{"position":121.07291666666667,"instrument":"Glockenspiel","level2":7,"level3":0,"pitch":101,"articulation":"hits","articulation_tags":["hits","short"],"duration":0.0625,"velocity":105.80641912811936},
{"position":121.07291666666667,"instrument":"Glockenspiel","level2":7,"level3":0,"pitch":101,"articulation":"hits","articulation_tags":["hits","short"],"duration":0.0625,"velocity":105.80641912811936},
{"position":121.07291666666667,"instrument":"Glockenspiel","level2":7,"level3":1,"pitch":100,"articulation":"hits","articulation_tags":["hits","short"],"duration":0.0625,"velocity":105.80641912811936},
{"position":121.07291666666667,"instrument":"TheGrandeurPiano","level2":6,"level3":null,"pitch":94,"articulation":"standard","articulation_tags":["standard","long"],"duration":0.2222222222222222,"velocity":55.24750706826456},
{"position":121.07291666666667,"instrument":"TheGrandeurPiano","level2":7,"level3":null,"pitch":94,"articulation":"standard","articulation_tags":["standard","long"],"duration":0.013888888888888888,"velocity":55.24750706826456},
{"position":121.07291666666667,"instrument":"TheGrandeurPiano","level2":7,"level3":null,"pitch":94,"articulation":"standard","articulation_tags":["standard","long"],"duration":0.013888888888888888,"velocity":55.24750706826456},
{"position":121.07291666666667,"instrument":"TheGrandeurPiano","level2":8,"level3":null,"pitch":85,"articulation":"standard","articulation_tags":["standard","long"],"duration":0.006944444444444444,"velocity":55.24750706826456},
{"position":121.07291666666667,"instrument":"TheGrandeurPiano","level2":8,"level3":null,"pitch":85,"articulation":"standard","articulation_tags":["standard","long"],"duration":0.013888888888888888,"velocity":55.24750706826456},
{"position":121.08333333333333,"instrument":"TheGrandeurPiano","level2":7,"level3":null,"pitch":94,"articulation":"standard","articulation_tags":["standard","long"],"duration":0.013888888888888888,"velocity":55.24750706826456},
{"position":121.08333333333333,"instrument":"TheGrandeurPiano","level2":8,"level3":null,"pitch":86,"articulation":"standard","articulation_tags":["standard","long"],"duration":0.013888888888888888,"velocity":55.24750706826456},
{"position":121.09375,"instrument":"TheGrandeurPiano","level2":7,"level3":null,"pitch":93,"articulation":"standard","articulation_tags":["standard","long"],"duration":0.013888888888888888,"velocity":55.24750706826456},
{"position":121.09375,"instrument":"TheGrandeurPiano","level2":8,"level3":null,"pitch":86,"articulation":"standard","articulation_tags":["standard","long"],"duration":0.013888888888888888,"velocity":55.24750706826456},
{"position":121.09375,"instrument":"TheGrandeurPiano","level2":8,"level3":null,"pitch":86,"articulation":"standard","articulation_tags":["standard","long"],"duration":0.020833333333333332,"velocity":55.24750706826456},
{"position":121.10416666666667,"instrument":"TheGrandeurPiano","level2":7,"level3":null,"pitch":93,"articulation":"standard","articulation_tags":["standard","long"],"duration":0.013888888888888888,"velocity":55.24750706826456},
{"position":121.11458333333333,"instrument":"TheGrandeurPiano","level2":8,"level3":null,"pitch":87,"articulation":"standard","articulation_tags":["standard","long"],"duration":0.013888888888888888,"velocity":55.24750706826456},
{"position":121.11458333333333,"instrument":"TheGrandeurPiano","level2":7,"level3":null,"pitch":93,"articulation":"standard","articulation_tags":["standard","long"],"duration":0.020833333333333332,"velocity":55.24750706826456},
{"position":121.125,"instrument":"TheGrandeurPiano","level2":8,"level3":null,"pitch":87,"articulation":"standard","articulation_tags":["standard","long"],"duration":0.027777777777777776,"velocity":55.24750706826456},
{"position":121.13541666666667,"instrument":"TheGrandeurPiano","level2":7,"level3":null,"pitch":93,"articulation":"standard","articulation_tags":["standard","long"],"duration":0.020833333333333332,"velocity":55.24750706826456},
{"position":121.13541666666667,"instrument":"TheGrandeurPiano","level2":8,"level3":null,"pitch":87,"articulation":"standard","articulation_tags":["standard","long"],"duration":0.020833333333333332,"velocity":55.24750706826456},
{"position":121.14583333333333,"instrument":"TheGrandeurPiano","level2":7,"level3":null,"pitch":92,"articulation":"standard","articulation_tags":["standard","long"],"duration":0.020833333333333332,"velocity":55.24750706826456},
{"position":121.15625,"instrument":"TheGrandeurPiano","level2":7,"level3":null,"pitch":92,"articulation":"standard","articulation_tags":["standard","long"],"duration":0.020833333333333332,"velocity":55.24750706826456},
{"position":121.16666666666667,"instrument":"TheGrandeurPiano","level2":8,"level3":null,"pitch":88,"articulation":"standard","articulation_tags":["standard","long"],"duration":0.020833333333333332,"velocity":55.24750706826456},
{"position":121.16666666666667,"instrument":"TheGrandeurPiano","level2":8,"level3":null,"pitch":88,"articulation":"standard","articulation_tags":["standard","long"],"duration":0.034722222222222224,"velocity":55.24750706826456},
{"position":121.17708333333333,"instrument":"TheGrandeurPiano","level2":7,"level3":null,"pitch":92,"articulation":"standard","articulation_tags":["standard","long"],"duration":0.027777777777777776,"velocity":55.24750706826456},
{"position":121.19791666666667,"instrument":"TheGrandeurPiano","level2":8,"level3":null,"pitch":88,"articulation":"standard","articulation_tags":["standard","long"],"duration":0.020833333333333332,"velocity":55.24750706826456},
{"position":121.19791666666667,"instrument":"TheGrandeurPiano","level2":7,"level3":null,"pitch":92,"articulation":"standard","articulation_tags":["standard","long"],"duration":0.027777777777777776,"velocity":55.24750706826456},
{"position":121.21875,"instrument":"TheGrandeurPiano","level2":8,"level3":null,"pitch":88,"articulation":"standard","articulation_tags":["standard","long"],"duration":0.041666666666666664,"velocity":55.24750706826456},
{"position":121.21875,"instrument":"TheGrandeurPiano","level2":7,"level3":null,"pitch":91,"articulation":"standard","articulation_tags":["standard","long"],"duration":0.027777777777777776,"velocity":55.24750706826456},
{"position":121.22916666666667,"instrument":"TheGrandeurPiano","level2":8,"level3":null,"pitch":89,"articulation":"standard","articulation_tags":["standard","long"],"duration":0.020833333333333332,"velocity":55.32796778229254},
{"position":121.22916666666667,"instrument":"TheGrandeurPiano","level2":7,"level3":null,"pitch":91,"articulation":"standard","articulation_tags":["standard","long"],"duration":0.027777777777777776,"velocity":55.32796778229254},
{"position":121.26041666666667,"instrument":"TheGrandeurPiano","level2":8,"level3":null,"pitch":89,"articulation":"standard","articulation_tags":["standard","long"],"duration":0.027777777777777776,"velocity":55.32796778229254},
{"position":121.26041666666667,"instrument":"TheGrandeurPiano","level2":7,"level3":null,"pitch":91,"articulation":"standard","articulation_tags":["standard","long"],"duration":0.034722222222222224,"velocity":55.32796778229254},
{"position":121.27083333333333,"instrument":"TheGrandeurPiano","level2":8,"level3":null,"pitch":89,"articulation":"standard","articulation_tags":["standard","long"],"duration":0.04861111111111111,"velocity":55.32796778229254},
{"position":121.27083333333333,"instrument":"TheGrandeurPiano","level2":7,"level3":null,"pitch":91,"articulation":"standard","articulation_tags":["standard","long"],"duration":0.027777777777777776,"velocity":55.32796778229254},
{"position":121.30208333333333,"instrument":"TheGrandeurPiano","level2":8,"level3":null,"pitch":90,"articulation":"standard","articulation_tags":["standard","long"],"duration":0.027777777777777776,"velocity":55.32796778229254},
{"position":121.3125,"instrument":"TheGrandeurPiano","level2":7,"level3":null,"pitch":90,"articulation":"standard","articulation_tags":["standard","long"],"duration":0.041666666666666664,"velocity":55.32796778229254},
{"position":121.32291666666667,"instrument":"TheGrandeurPiano","level2":7,"level3":null,"pitch":90,"articulation":"standard","articulation_tags":["standard","long"],"duration":0.034722222222222224,"velocity":55.32796778229254},
{"position":121.34375,"instrument":"TheGrandeurPiano","level2":8,"level3":null,"pitch":90,"articulation":"standard","articulation_tags":["standard","long"],"duration":0.027777777777777776,"velocity":55.32796778229254},
{"position":121.34375,"instrument":"TheGrandeurPiano","level2":8,"level3":null,"pitch":90,"articulation":"standard","articulation_tags":["standard","long"],"duration":0.05555555555555555,"velocity":55.32796778229254},
{"position":121.36458333333333,"instrument":"TheGrandeurPiano","level2":7,"level3":null,"pitch":90,"articulation":"standard","articulation_tags":["standard","long"],"duration":0.034722222222222224,"velocity":55.32796778229254},
{"position":121.38541666666667,"instrument":"TheGrandeurPiano","level2":8,"level3":null,"pitch":91,"articulation":"standard","articulation_tags":["standard","long"],"duration":0.034722222222222224,"velocity":55.32796778229254},
{"position":121.38541666666667,"instrument":"TheGrandeurPiano","level2":7,"level3":null,"pitch":90,"articulation":"standard","articulation_tags":["standard","long"],"duration":0.04861111111111111,"velocity":55.32796778229254},
{"position":121.40625,"instrument":"TheGrandeurPiano","level2":6,"level3":null,"pitch":93,"articulation":"standard","articulation_tags":["standard","long"],"duration":0.2152777777777778,"velocity":55.32796778229254},
{"position":121.41666666666667,"instrument":"TheGrandeurPiano","level2":7,"level3":null,"pitch":90,"articulation":"standard","articulation_tags":["standard","long"],"duration":0.034722222222222224,"velocity":55.32796778229254},
{"position":121.4375,"instrument":"TheGrandeurPiano","level2":8,"level3":null,"pitch":91,"articulation":"standard","articulation_tags":["standard","long"],"duration":0.06944444444444445,"velocity":55.32796778229254},
{"position":121.4375,"instrument":"TheGrandeurPiano","level2":8,"level3":null,"pitch":91,"articulation":"standard","articulation_tags":["standard","long"],"duration":0.034722222222222224,"velocity":55.32796778229254},
{"position":121.45833333333333,"instrument":"TheGrandeurPiano","level2":7,"level3":null,"pitch":89,"articulation":"standard","articulation_tags":["standard","long"],"duration":0.05555555555555555,"velocity":55.32796778229254},
{"position":121.46875,"instrument":"TheGrandeurPiano","level2":7,"level3":null,"pitch":89,"articulation":"standard","articulation_tags":["standard","long"],"duration":0.034722222222222224,"velocity":55.32796778229254},
{"position":121.47916666666667,"instrument":"TheGrandeurPiano","level2":8,"level3":null,"pitch":92,"articulation":"standard","articulation_tags":["standard","long"],"duration":0.034722222222222224,"velocity":55.568287720010495},
{"position":121.53125,"instrument":"Glockenspiel","level2":7,"level3":1,"pitch":100,"articulation":"hits","articulation_tags":["hits","short"],"duration":0.0625,"velocity":101.5228301662998},
{"position":121.53125,"instrument":"TheGrandeurPiano","level2":7,"level3":null,"pitch":89,"articulation":"standard","articulation_tags":["standard","long"],"duration":0.041666666666666664,"velocity":55.568287720010495},
{"position":121.53125,"instrument":"TheGrandeurPiano","level2":8,"level3":null,"pitch":92,"articulation":"standard","articulation_tags":["standard","long"],"duration":0.08333333333333333,"velocity":55.568287720010495},
{"position":121.54166666666667,"instrument":"TheGrandeurPiano","level2":7,"level3":null,"pitch":89,"articulation":"standard","articulation_tags":["standard","long"],"duration":0.06944444444444445,"velocity":55.568287720010495},
{"position":121.54166666666667,"instrument":"TheGrandeurPiano","level2":8,"level3":null,"pitch":92,"articulation":"standard","articulation_tags":["standard","long"],"duration":0.034722222222222224,"velocity":55.568287720010495},
{"position":121.58333333333333,"instrument":"TheGrandeurPiano","level2":7,"level3":null,"pitch":89,"articulation":"standard","articulation_tags":["standard","long"],"duration":0.041666666666666664,"velocity":55.568287720010495},
{"position":121.59375,"instrument":"TheGrandeurPiano","level2":8,"level3":null,"pitch":93,"articulation":"standard","articulation_tags":["standard","long"],"duration":0.041666666666666664,"velocity":55.568287720010495},
{"position":121.63541666666667,"instrument":"Glockenspiel","level2":7,"level3":2,"pitch":101,"articulation":"hits","articulation_tags":["hits","short"],"duration":0.0625,"velocity":100.85325172206149},
{"position":121.63541666666667,"instrument":"Glockenspiel","level2":7,"level3":3,"pitch":100,"articulation":"hits","articulation_tags":["hits","short"],"duration":0.0625,"velocity":100.85325172206149},
{"position":121.64583333333333,"instrument":"TheGrandeurPiano","level2":7,"level3":null,"pitch":88,"articulation":"standard","articulation_tags":["standard","long"],"duration":0.08333333333333333,"velocity":55.568287720010495},
{"position":121.64583333333333,"instrument":"TheGrandeurPiano","level2":7,"level3":null,"pitch":88,"articulation":"standard","articulation_tags":["standard","long"],"duration":0.041666666666666664,"velocity":55.568287720010495},
{"position":121.64583333333333,"instrument":"TheGrandeurPiano","level2":8,"level3":null,"pitch":93,"articulation":"standard","articulation_tags":["standard","long"],"duration":0.041666666666666664,"velocity":55.568287720010495},
{"position":121.65625,"instrument":"TheGrandeurPiano","level2":8,"level3":null,"pitch":93,"articulation":"standard","articulation_tags":["standard","long"],"duration":0.09722222222222222,"velocity":55.568287720010495},
{"position":121.70833333333333,"instrument":"Glockenspiel","level2":7,"level3":2,"pitch":101,"articulation":"hits","articulation_tags":["hits","short"],"duration":0.0625,"velocity":100.50277286417429},
{"position":121.70833333333333,"instrument":"TheGrandeurPiano","level2":7,"level3":null,"pitch":88,"articulation":"standard","articulation_tags":["standard","long"],"duration":0.041666666666666664,"velocity":55.568287720010495},
{"position":121.70833333333333,"instrument":"TheGrandeurPiano","level2":8,"level3":null,"pitch":94,"articulation":"standard","articulation_tags":["standard","long"],"duration":0.041666666666666664,"velocity":55.568287720010495},
{"position":121.72916666666667,"instrument":"TheGrandeurPiano","level2":6,"level3":null,"pitch":93,"articulation":"standard","articulation_tags":["standard","long"],"duration":0.20833333333333334,"velocity":55.568287720010495},
{"position":121.75,"instrument":"Glockenspiel","level2":7,"level3":1,"pitch":100,"articulation":"hits","articulation_tags":["hits","short"],"duration":0.0625,"velocity":100.1857770002394},
{"position":121.76041666666667,"instrument":"TheGrandeurPiano","level2":7,"level3":null,"pitch":88,"articulation":"standard","articulation_tags":["standard","long"],"duration":0.09722222222222222,"velocity":55.965349172034685},
{"position":121.77083333333333,"instrument":"TheGrandeurPiano","level2":8,"level3":null,"pitch":94,"articulation":"standard","articulation_tags":["standard","long"],"duration":0.041666666666666664,"velocity":55.965349172034685},
{"position":121.78125,"instrument":"TheGrandeurPiano","level2":7,"level3":null,"pitch":88,"articulation":"standard","articulation_tags":["standard","long"],"duration":0.04861111111111111,"velocity":55.965349172034685},
{"position":121.80208333333333,"instrument":"TheGrandeurPiano","level2":8,"level3":null,"pitch":94,"articulation":"standard","articulation_tags":["standard","long"],"duration":0.1111111111111111,"velocity":55.965349172034685},
{"position":121.82291666666667,"instrument":"TheGrandeurPiano","level2":6,"level3":null,"pitch":93,"articulation":"standard","articulation_tags":["standard","long"],"duration":2.4645669291338583,"velocity":55.965349172034685},
{"position":121.84375,"instrument":"TheGrandeurPiano","level2":7,"level3":null,"pitch":88,"articulation":"standard","articulation_tags":["standard","long"],"duration":0.04861111111111111,"velocity":55.965349172034685},
{"position":121.84375,"instrument":"TheGrandeurPiano","level2":8,"level3":null,"pitch":95,"articulation":"standard","articulation_tags":["standard","long"],"duration":0.04861111111111111,"velocity":55.965349172034685},
{"position":121.90625,"instrument":"TheGrandeurPiano","level2":7,"level3":null,"pitch":87,"articulation":"standard","articulation_tags":["standard","long"],"duration":0.11805555555555555,"velocity":55.965349172034685},
{"position":121.91666666666667,"instrument":"TheGrandeurPiano","level2":8,"level3":null,"pitch":95,"articulation":"standard","articulation_tags":["standard","long"],"duration":0.04861111111111111,"velocity":55.965349172034685},
{"position":121.91666666666667,"instrument":"TheGrandeurPiano","level2":7,"level3":null,"pitch":87,"articulation":"standard","articulation_tags":["standard","long"],"duration":0.04861111111111111,"velocity":55.965349172034685},
{"position":121.96875,"instrument":"Glockenspiel","level2":7,"level3":0,"pitch":101,"articulation":"hits","articulation_tags":["hits","short"],"duration":0.0625,"velocity":99.17530873908392},
{"position":121.96875,"instrument":"TheGrandeurPiano","level2":8,"level3":null,"pitch":95,"articulation":"standard","articulation_tags":["standard","long"],"duration":0.13194444444444445,"velocity":55.965349172034685},
{"position":121.97916666666667,"instrument":"TheGrandeurPiano","level2":8,"level3":null,"pitch":96,"articulation":"standard","articulation_tags":["standard","long"],"duration":0.04861111111111111,"velocity":56.51417546877728},
{"position":121.98958333333333,"instrument":"TheGrandeurPiano","level2":7,"level3":null,"pitch":87,"articulation":"standard","articulation_tags":["standard","long"],"duration":0.04861111111111111,"velocity":56.51417546877728},
{"position":122.02083333333333,"instrument":"Glockenspiel","level2":7,"level3":3,"pitch":100,"articulation":"hits","articulation_tags":["hits","short"],"duration":0.0625,"velocity":98.85776562252971},
{"position":122.04166666666667,"instrument":"TheGrandeurPiano","level2":6,"level3":null,"pitch":92,"articulation":"standard","articulation_tags":["standard","long"],"duration":0.2013888888888889,"velocity":56.51417546877728},
{"position":122.0625,"instrument":"TheGrandeurPiano","level2":8,"level3":null,"pitch":96,"articulation":"standard","articulation_tags":["standard","long"],"duration":0.04861111111111111,"velocity":56.51417546877728},
{"position":122.0625,"instrument":"TheGrandeurPiano","level2":7,"level3":null,"pitch":87,"articulation":"standard","articulation_tags":["standard","long"],"duration":0.04861111111111111,"velocity":56.51417546877728},
{"position":122.09375,"instrument":"TheGrandeurPiano","level2":7,"level3":null,"pitch":87,"articulation":"standard","articulation_tags":["standard","long"],"duration":0.16666666666666666,"velocity":56.51417546877728},
{"position":122.13541666666667,"instrument":"TheGrandeurPiano","level2":8,"level3":null,"pitch":85,"articulation":"standard","articulation_tags":["standard","long"],"duration":0.05555555555555555,"velocity":56.51417546877728},
{"position":122.14583333333333,"instrument":"TheGrandeurPiano","level2":7,"level3":null,"pitch":87,"articulation":"standard","articulation_tags":["standard","long"],"duration":0.05555555555555555,"velocity":56.51417546877728},
{"position":122.16666666666667,"instrument":"TheGrandeurPiano","level2":8,"level3":null,"pitch":85,"articulation":"standard","articulation_tags":["standard","long"],"duration":0.1597222222222222,"velocity":56.51417546877728},
{"position":122.20833333333333,"instrument":"Glockenspiel","level2":7,"level3":4,"pitch":101,"articulation":"hits","articulation_tags":["hits","short"],"duration":0.0625,"velocity":98.19758067439955},
{"position":122.20833333333333,"instrument":"Glockenspiel","level2":7,"level3":5,"pitch":100,"articulation":"hits","articulation_tags":["hits","short"],"duration":0.0625,"velocity":98.19758067439955},
{"position":122.21875,"instrument":"Marimba","level2":8,"level3":5,"pitch":96,"articulation":"hits","articulation_tags":["hits","short"],"duration":0.0625,"velocity":113.7163128631501},
{"position":122.21875,"instrument":"TheGrandeurPiano","level2":7,"level3":null,"pitch":87,"articulation":"standard","articulation_tags":["standard","long"],"duration":0.05555555555555555,"velocity":56.51417546877728},
{"position":122.21875,"instrument":"TheGrandeurPiano","level2":8,"level3":null,"pitch":85,"articulation":"standard","articulation_tags":["standard","long"],"duration":0.05555555555555555,"velocity":56.51417546877728},
{"position":122.30208333333333,"instrument":"TheGrandeurPiano","level2":7,"level3":null,"pitch":87,"articulation":"standard","articulation_tags":["standard","long"],"duration":0.05555555555555555,"velocity":54.92386213304897},
{"position":122.30208333333333,"instrument":"TheGrandeurPiano","level2":8,"level3":null,"pitch":86,"articulation":"standard","articulation_tags":["standard","long"],"duration":0.05555555555555555,"velocity":54.92386213304897},
{"position":122.33333333333333,"instrument":"TheGrandeurPiano","level2":7,"level3":null,"pitch":86,"articulation":"standard","articulation_tags":["standard","long"],"duration":0.2986111111111111,"velocity":54.92386213304897},
{"position":122.34375,"instrument":"Glockenspiel","level2":7,"level3":0,"pitch":101,"articulation":"hits","articulation_tags":["hits","short"],"duration":0.0625,"velocity":97.5402065068144},
{"position":122.34375,"instrument":"TheGrandeurPiano","level2":6,"level3":null,"pitch":92,"articulation":"standard","articulation_tags":["standard","long"],"duration":0.19444444444444445,"velocity":54.92386213304897},
{"position":122.35416666666667,"instrument":"Glockenspiel","level2":8,"level3":5,"pitch":96,"articulation":"hits","articulation_tags":["hits","short"],"duration":0.0625,"velocity":113.96381758900668},
{"position":122.38541666666667,"instrument":"TheGrandeurPiano","level2":8,"level3":null,"pitch":86,"articulation":"standard","articulation_tags":["standard","long"],"duration":0.05555555555555555,"velocity":54.92386213304897},
{"position":122.38541666666667,"instrument":"TheGrandeurPiano","level2":7,"level3":null,"pitch":86,"articulation":"standard","articulation_tags":["standard","long"],"duration":0.05555555555555555,"velocity":54.92386213304897},
{"position":122.40625,"instrument":"TheGrandeurPiano","level2":8,"level3":null,"pitch":86,"articulation":"standard","articulation_tags":["standard","long"],"duration":0.19444444444444445,"velocity":54.92386213304897},
{"position":122.42708333333333,"instrument":"Glockenspiel","level2":8,"level3":1,"pitch":96,"articulation":"hits","articulation_tags":["hits","short"],"duration":0.0625,"velocity":114.38269581521601},
{"position":122.46875,"instrument":"TheGrandeurPiano","level2":7,"level3":null,"pitch":86,"articulation":"standard","articulation_tags":["standard","long"],"duration":0.05555555555555555,"velocity":54.92386213304897},
{"position":122.46875,"instrument":"TheGrandeurPiano","level2":8,"level3":null,"pitch":87,"articulation":"standard","articulation_tags":["standard","long"],"duration":0.0625,"velocity":54.92386213304897},
{"position":122.47916666666667,"instrument":"Glockenspiel","level2":7,"level3":4,"pitch":101,"articulation":"hits","articulation_tags":["hits","short"],"duration":0.0625,"velocity":96.9042175249053},
{"position":122.52083333333333,"instrument":"Glockenspiel","level2":7,"level3":5,"pitch":100,"articulation":"hits","articulation_tags":["hits","short"],"duration":0.0625,"velocity":96.9042175249053},
{"position":122.55208333333333,"instrument":"TheGrandeurPiano","level2":7,"level3":null,"pitch":86,"articulation":"standard","articulation_tags":["standard","long"],"duration":0.05555555555555555,"velocity":55.80703859801349},
{"position":122.5625,"instrument":"TheGrandeurPiano","level2":8,"level3":null,"pitch":87,"articulation":"standard","articulation_tags":["standard","long"],"duration":0.0625,"velocity":55.80703859801349},
{"position":122.63541666666667,"instrument":"TheGrandeurPiano","level2":7,"level3":null,"pitch":86,"articulation":"standard","articulation_tags":["standard","long"],"duration":0.05555555555555555,"velocity":55.80703859801349},
{"position":122.64583333333333,"instrument":"TheGrandeurPiano","level2":6,"level3":null,"pitch":91,"articulation":"standard","articulation_tags":["standard","long"],"duration":0.19444444444444445,"velocity":55.80703859801349},
{"position":122.65625,"instrument":"TheGrandeurPiano","level2":8,"level3":null,"pitch":88,"articulation":"standard","articulation_tags":["standard","long"],"duration":0.0625,"velocity":55.80703859801349},
{"position":122.69791666666667,"instrument":"TheGrandeurPiano","level2":8,"level3":null,"pitch":88,"articulation":"standard","articulation_tags":["standard","long"],"duration":0.25,"velocity":55.80703859801349},
{"position":122.71875,"instrument":"TheGrandeurPiano","level2":7,"level3":null,"pitch":86,"articulation":"standard","articulation_tags":["standard","long"],"duration":0.0625,"velocity":55.80703859801349},
{"position":122.76041666666667,"instrument":"TheGrandeurPiano","level2":8,"level3":null,"pitch":88,"articulation":"standard","articulation_tags":["standard","long"],"duration":0.06944444444444445,"velocity":56.824215249120385},
{"position":122.78125,"instrument":"Glockenspiel","level2":7,"level3":6,"pitch":100,"articulation":"hits","articulation_tags":["hits","short"],"duration":0.0625,"velocity":95.95346336051009},
{"position":122.78125,"instrument":"Glockenspiel","level2":7,"level3":7,"pitch":100,"articulation":"hits","articulation_tags":["hits","short"],"duration":0.0625,"velocity":95.95346336051009},
{"position":122.78125,"instrument":"TheGrandeurPiano","level2":7,"level3":null,"pitch":86,"articulation":"standard","articulation_tags":["standard","long"],"duration":0.4375,"velocity":56.824215249120385},
{"position":122.8125,"instrument":"TheGrandeurPiano","level2":7,"level3":null,"pitch":86,"articulation":"standard","articulation_tags":["standard","long"],"duration":0.0625,"velocity":56.824215249120385},
{"position":122.85416666666667,"instrument":"TheGrandeurPiano","level2":8,"level3":null,"pitch":89,"articulation":"standard","articulation_tags":["standard","long"],"duration":0.06944444444444445,"velocity":56.824215249120385},
{"position":122.89583333333333,"instrument":"TheGrandeurPiano","level2":7,"level3":null,"pitch":86,"articulation":"standard","articulation_tags":["standard","long"],"duration":0.0625,"velocity":56.824215249120385},
{"position":122.92708333333333,"instrument":"TheGrandeurPiano","level2":6,"level3":null,"pitch":91,"articulation":"standard","articulation_tags":["standard","long"],"duration":0.1875,"velocity":54.67920188249906},
{"position":122.95833333333333,"instrument":"TheGrandeurPiano","level2":8,"level3":null,"pitch":89,"articulation":"standard","articulation_tags":["standard","long"],"duration":0.06944444444444445,"velocity":54.67920188249906},
{"position":122.98958333333333,"instrument":"Glockenspiel","level2":7,"level3":7,"pitch":100,"articulation":"hits","articulation_tags":["hits","short"],"duration":0.0625,"velocity":95.33901112964813},
{"position":122.98958333333333,"instrument":"TheGrandeurPiano","level2":7,"level3":null,"pitch":86,"articulation":"standard","articulation_tags":["standard","long"],"duration":0.0625,"velocity":54.67920188249906},
{"position":123.0,"instrument":"Glockenspiel","level2":8,"level3":3,"pitch":96,"articulation":"hits","articulation_tags":["hits","short"],"duration":0.0625,"velocity":115.46713590520238},
{"position":123.0625,"instrument":"TheGrandeurPiano","level2":8,"level3":null,"pitch":90,"articulation":"standard","articulation_tags":["standard","long"],"duration":0.06944444444444445,"velocity":55.88627881588288},
{"position":123.07291666666667,"instrument":"TheGrandeurPiano","level2":8,"level3":null,"pitch":90,"articulation":"standard","articulation_tags":["standard","long"],"duration":0.3263888888888889,"velocity":55.88627881588288},
{"position":123.08333333333333,"instrument":"TheGrandeurPiano","level2":7,"level3":null,"pitch":86,"articulation":"standard","articulation_tags":["standard","long"],"duration":0.0625,"velocity":55.88627881588288},
{"position":123.15625,"instrument":"Glockenspiel","level2":7,"level3":3,"pitch":100,"articulation":"hits","articulation_tags":["hits","short"],"duration":0.0625,"velocity":94.74249827553332},
{"position":123.15625,"instrument":"Glockenspiel","level2":7,"level3":4,"pitch":101,"articulation":"hits","articulation_tags":["hits","short"],"duration":0.0625,"velocity":94.74249827553332},
{"position":123.17708333333333,"instrument":"TheGrandeurPiano","level2":8,"level3":null,"pitch":90,"articulation":"standard","articulation_tags":["standard","long"],"duration":0.0763888888888889,"velocity":55.88627881588288},
{"position":123.17708333333333,"instrument":"TheGrandeurPiano","level2":7,"level3":null,"pitch":86,"articulation":"standard","articulation_tags":["standard","long"],"duration":0.0625,"velocity":55.88627881588288},
{"position":123.20833333333333,"instrument":"TheGrandeurPiano","level2":6,"level3":null,"pitch":90,"articulation":"standard","articulation_tags":["standard","long"],"duration":0.18055555555555555,"velocity":55.88627881588288},
{"position":123.27083333333333,"instrument":"TheGrandeurPiano","level2":7,"level3":null,"pitch":86,"articulation":"standard","articulation_tags":["standard","long"],"duration":0.0625,"velocity":55.88627881588288},
{"position":123.28125,"instrument":"TheGrandeurPiano","level2":8,"level3":null,"pitch":91,"articulation":"standard","articulation_tags":["standard","long"],"duration":0.0763888888888889,"velocity":55.88627881588288},
{"position":123.34375,"instrument":"Glockenspiel","level2":7,"level3":8,"pitch":100,"articulation":"hits","articulation_tags":["hits","short"],"duration":0.0625,"velocity":94.1460386251329},
{"position":123.34375,"instrument":"Glockenspiel","level2":7,"level3":9,"pitch":100,"articulation":"hits","articulation_tags":["hits","short"],"duration":0.0625,"velocity":94.1460386251329},
{"position":123.36458333333333,"instrument":"TheGrandeurPiano","level2":7,"level3":null,"pitch":86,"articulation":"standard","articulation_tags":["standard","long"],"duration":0.0625,"velocity":57.208227279589494},
{"position":123.39583333333333,"instrument":"TheGrandeurPiano","level2":8,"level3":null,"pitch":91,"articulation":"standard","articulation_tags":["standard","long"],"duration":0.0763888888888889,"velocity":57.208227279589494},
{"position":123.4375,"instrument":"TheGrandeurPiano","level2":7,"level3":null,"pitch":86,"articulation":"standard","articulation_tags":["standard","long"],"duration":0.3263888888888889,"velocity":55.24750706826456},
{"position":123.45833333333333,"instrument":"TheGrandeurPiano","level2":7,"level3":null,"pitch":86,"articulation":"standard","articulation_tags":["standard","long"],"duration":0.0625,"velocity":55.24750706826456},
{"position":123.47916666666667,"instrument":"TheGrandeurPiano","level2":6,"level3":null,"pitch":90,"articulation":"standard","articulation_tags":["standard","long"],"duration":0.1736111111111111,"velocity":55.24750706826456},
{"position":123.52083333333333,"instrument":"TheGrandeurPiano","level2":8,"level3":null,"pitch":92,"articulation":"standard","articulation_tags":["standard","long"],"duration":0.08333333333333333,"velocity":55.24750706826456},
{"position":123.53125,"instrument":"Glockenspiel","level2":7,"level3":9,"pitch":100,"articulation":"hits","articulation_tags":["hits","short"],"duration":0.0625,"velocity":93.56965431842161},
{"position":123.55208333333333,"instrument":"TheGrandeurPiano","level2":7,"level3":null,"pitch":86,"articulation":"standard","articulation_tags":["standard","long"],"duration":0.0625,"velocity":55.24750706826456},
{"position":123.5625,"instrument":"TheGrandeurPiano","level2":8,"level3":null,"pitch":92,"articulation":"standard","articulation_tags":["standard","long"],"duration":0.4930555555555556,"velocity":55.24750706826456},
{"position":123.59375,"instrument":"Glockenspiel","level2":8,"level3":5,"pitch":96,"articulation":"hits","articulation_tags":["hits","short"],"duration":0.0625,"velocity":116.74580287046629},
{"position":123.61458333333333,"instrument":"Glockenspiel","level2":7,"level3":10,"pitch":101,"articulation":"hits","articulation_tags":["hits","short"],"duration":0.0625,"velocity":93.2717787256243},
{"position":123.63541666666667,"instrument":"TheGrandeurPiano","level2":8,"level3":null,"pitch":92,"articulation":"standard","articulation_tags":["standard","long"],"duration":0.08333333333333333,"velocity":56.74694404431166},
{"position":123.65625,"instrument":"TheGrandeurPiano","level2":7,"level3":null,"pitch":86,"articulation":"standard","articulation_tags":["standard","long"],"duration":0.0625,"velocity":56.74694404431166},
{"position":123.73958333333333,"instrument":"Glockenspiel","level2":8,"level3":6,"pitch":96,"articulation":"hits","articulation_tags":["hits","short"],"duration":0.0625,"velocity":116.8919110787673},
{"position":123.73958333333333,"instrument":"Glockenspiel","level2":8,"level3":7,"pitch":96,"articulation":"hits","articulation_tags":["hits","short"],"duration":0.0625,"velocity":116.8919110787673},
{"position":123.75,"instrument":"TheGrandeurPiano","level2":6,"level3":null,"pitch":89,"articulation":"standard","articulation_tags":["standard","long"],"duration":0.1736111111111111,"velocity":56.74694404431166},
{"position":123.75,"instrument":"TheGrandeurPiano","level2":7,"level3":null,"pitch":86,"articulation":"standard","articulation_tags":["standard","long"],"duration":0.0625,"velocity":56.74694404431166},
{"position":123.76041666666667,"instrument":"TheGrandeurPiano","level2":8,"level3":null,"pitch":93,"articulation":"standard","articulation_tags":["standard","long"],"duration":0.08333333333333333,"velocity":56.74694404431166},
{"position":123.83333333333333,"instrument":"Glockenspiel","level2":7,"level3":12,"pitch":100,"articulation":"hits","articulation_tags":["hits","short"],"duration":0.0625,"velocity":92.67610601889098},
{"position":123.83333333333333,"instrument":"Glockenspiel","level2":7,"level3":13,"pitch":100,"articulation":"hits","articulation_tags":["hits","short"],"duration":0.0625,"velocity":92.67610601889098},
{"position":123.85416666666667,"instrument":"TheGrandeurPiano","level2":7,"level3":null,"pitch":86,"articulation":"standard","articulation_tags":["standard","long"],"duration":0.0625,"velocity":54.92386213304897},
{"position":123.88541666666667,"instrument":"TheGrandeurPiano","level2":8,"level3":null,"pitch":93,"articulation":"standard","articulation_tags":["standard","long"],"duration":0.08333333333333333,"velocity":54.92386213304897},
{"position":123.92708333333333,"instrument":"TheGrandeurPiano","level2":7,"level3":null,"pitch":87,"articulation":"standard","articulation_tags":["standard","long"],"duration":0.19444444444444445,"velocity":54.92386213304897},
{"position":123.94791666666667,"instrument":"TheGrandeurPiano","level2":7,"level3":null,"pitch":87,"articulation":"standard","articulation_tags":["standard","long"],"duration":0.06944444444444445,"velocity":56.59192513864654},
{"position":123.96875,"instrument":"Glockenspiel","level2":7,"level3":10,"pitch":101,"articulation":"hits","articulation_tags":["hits","short"],"duration":0.0625,"velocity":92.10694087595502},
{"position":124.01041666666667,"instrument":"TheGrandeurPiano","level2":6,"level3":null,"pitch":89,"articulation":"standard","articulation_tags":["standard","long"],"duration":0.16666666666666666,"velocity":56.59192513864654},
{"position":124.02083333333333,"instrument":"TheGrandeurPiano","level2":8,"level3":null,"pitch":94,"articulation":"standard","articulation_tags":["standard","long"],"duration":0.09027777777777778,"velocity":56.59192513864654},
{"position":124.05208333333333,"instrument":"TheGrandeurPiano","level2":7,"level3":null,"pitch":87,"articulation":"standard","articulation_tags":["standard","long"],"duration":0.06944444444444445,"velocity":56.59192513864654},
{"position":124.14583333333333,"instrument":"TheGrandeurPiano","level2":8,"level3":null,"pitch":94,"articulation":"standard","articulation_tags":["standard","long"],"duration":0.09027777777777778,"velocity":56.59192513864654},
{"position":124.14583333333333,"instrument":"TheGrandeurPiano","level2":7,"level3":null,"pitch":87,"articulation":"standard","articulation_tags":["standard","long"],"duration":0.06944444444444445,"velocity":56.59192513864654},
{"position":124.21875,"instrument":"TheGrandeurPiano","level2":7,"level3":null,"pitch":87,"articulation":"standard","articulation_tags":["standard","long"],"duration":0.1527777777777778,"velocity":54.92386213304897},
{"position":124.25,"instrument":"Glockenspiel","level2":8,"level3":7,"pitch":96,"articulation":"hits","articulation_tags":["hits","short"],"duration":0.0625,"velocity":117.49397120447352},
{"position":124.25,"instrument":"TheGrandeurPiano","level2":7,"level3":null,"pitch":87,"articulation":"standard","articulation_tags":["standard","long"],"duration":0.06944444444444445,"velocity":54.92386213304897},
{"position":124.26041666666667,"instrument":"TheGrandeurPiano","level2":6,"level3":null,"pitch":88,"articulation":"standard","articulation_tags":["standard","long"],"duration":0.1597222222222222,"velocity":54.92386213304897},
{"position":124.29166666666667,"instrument":"TheGrandeurPiano","level2":8,"level3":null,"pitch":95,"articulation":"standard","articulation_tags":["standard","long"],"duration":0.09027777777777778,"velocity":56.74694404431166},
{"position":124.30208333333333,"instrument":"TheGrandeurPiano","level2":8,"level3":null,"pitch":95,"articulation":"standard","articulation_tags":["standard","long"],"duration":2.4960629921259843,"velocity":56.74694404431166},
{"position":124.34375,"instrument":"TheGrandeurPiano","level2":7,"level3":null,"pitch":87,"articulation":"standard","articulation_tags":["standard","long"],"duration":0.06944444444444445,"velocity":56.74694404431166},
{"position":124.42708333333333,"instrument":"TheGrandeurPiano","level2":8,"level3":null,"pitch":95,"articulation":"standard","articulation_tags":["standard","long"],"duration":0.09722222222222222,"velocity":56.74694404431166},
{"position":124.44791666666667,"instrument":"TheGrandeurPiano","level2":7,"level3":null,"pitch":87,"articulation":"standard","articulation_tags":["standard","long"],"duration":0.06944444444444445,"velocity":56.74694404431166},
{"position":124.44791666666667,"instrument":"TheGrandeurPiano","level2":7,"level3":null,"pitch":88,"articulation":"standard","articulation_tags":["standard","long"],"duration":0.125,"velocity":56.74694404431166},
{"position":124.5,"instrument":"TheGrandeurPiano","level2":6,"level3":null,"pitch":88,"articulation":"standard","articulation_tags":["standard","long"],"duration":0.1597222222222222,"velocity":55.24750706826456},
{"position":124.51041666666667,"instrument":"Glockenspiel","level2":7,"level3":0,"pitch":101,"articulation":"hits","articulation_tags":["hits","short"],"duration":0.0625,"velocity":90.69371932009719},
{"position":124.55208333333333,"instrument":"Glockenspiel","level2":7,"level3":9,"pitch":100,"articulation":"hits","articulation_tags":["hits","short"],"duration":0.0625,"velocity":90.69371932009719},
{"position":124.55208333333333,"instrument":"TheGrandeurPiano","level2":7,"level3":null,"pitch":88,"articulation":"standard","articulation_tags":["standard","long"],"duration":0.06944444444444445,"velocity":55.24750706826456},
{"position":124.57291666666667,"instrument":"TheGrandeurPiano","level2":8,"level3":null,"pitch":96,"articulation":"standard","articulation_tags":["standard","long"],"duration":0.09722222222222222,"velocity":55.24750706826456},
{"position":124.64583333333333,"instrument":"TheGrandeurPiano","level2":7,"level3":null,"pitch":88,"articulation":"standard","articulation_tags":["standard","long"],"duration":0.1111111111111111,"velocity":55.24750706826456},
{"position":124.64583333333333,"instrument":"TheGrandeurPiano","level2":7,"level3":null,"pitch":88,"articulation":"standard","articulation_tags":["standard","long"],"duration":0.06944444444444445,"velocity":55.24750706826456},
{"position":124.66666666666667,"instrument":"Glockenspiel","level2":7,"level3":3,"pitch":100,"articulation":"hits","articulation_tags":["hits","short"],"duration":0.0625,"velocity":90.14791464489934},
{"position":124.71875,"instrument":"TheGrandeurPiano","level2":8,"level3":null,"pitch":96,"articulation":"standard","articulation_tags":["standard","long"],"duration":0.10416666666666667,"velocity":57.208227279589494},
{"position":124.73958333333333,"instrument":"Glockenspiel","level2":7,"level3":4,"pitch":100,"articulation":"hits","articulation_tags":["hits","short"],"duration":0.0625,"velocity":90.14791464489934},
{"position":124.73958333333333,"instrument":"TheGrandeurPiano","level2":6,"level3":null,"pitch":87,"articulation":"standard","articulation_tags":["standard","long"],"duration":0.1527777777777778,"velocity":57.208227279589494},
{"position":124.75,"instrument":"TheGrandeurPiano","level2":7,"level3":null,"pitch":88,"articulation":"standard","articulation_tags":["standard","long"],"duration":0.06944444444444445,"velocity":57.208227279589494},
{"position":124.77083333333333,"instrument":"Glockenspiel","level2":7,"level3":4,"pitch":100,"articulation":"hits","articulation_tags":["hits","short"],"duration":0.0625,"velocity":89.85319013880378},
{"position":124.8125,"instrument":"TheGrandeurPiano","level2":7,"level3":null,"pitch":89,"articulation":"standard","articulation_tags":["standard","long"],"duration":0.09722222222222222,"velocity":55.88627881588288},
{"position":124.85416666666667,"instrument":"TheGrandeurPiano","level2":7,"level3":null,"pitch":89,"articulation":"standard","articulation_tags":["standard","long"],"duration":0.06944444444444445,"velocity":55.88627881588288},
{"position":124.875,"instrument":"TheGrandeurPiano","level2":8,"level3":null,"pitch":85,"articulation":"standard","articulation_tags":["standard","long"],"duration":0.10416666666666667,"velocity":55.88627881588288},
{"position":124.88541666666667,"instrument":"Glockenspiel","level2":8,"level3":4,"pitch":97,"articulation":"hits","articulation_tags":["hits","short"],"duration":0.0625,"velocity":118.55937253522701},
{"position":124.94791666666667,"instrument":"TheGrandeurPiano","level2":7,"level3":null,"pitch":89,"articulation":"standard","articulation_tags":["standard","long"],"duration":0.06944444444444445,"velocity":55.88627881588288},
{"position":124.95833333333333,"instrument":"TheGrandeurPiano","level2":7,"level3":null,"pitch":89,"articulation":"standard","articulation_tags":["standard","long"],"duration":0.09027777777777778,"velocity":55.88627881588288},
{"position":124.96875,"instrument":"Glockenspiel","level2":7,"level3":7,"pitch":100,"articulation":"hits","articulation_tags":["hits","short"],"duration":0.0625,"velocity":89.37699620334037},
{"position":124.96875,"instrument":"TheGrandeurPiano","level2":6,"level3":null,"pitch":87,"articulation":"standard","articulation_tags":["standard","long"],"duration":0.1527777777777778,"velocity":55.88627881588288},
{"position":125.02083333333333,"instrument":"TheGrandeurPiano","level2":8,"level3":null,"pitch":85,"articulation":"standard","articulation_tags":["standard","long"],"duration":0.10416666666666667,"velocity":55.88627881588288},
{"position":125.05208333333333,"instrument":"TheGrandeurPiano","level2":7,"level3":null,"pitch":89,"articulation":"standard","articulation_tags":["standard","long"],"duration":0.06944444444444445,"velocity":55.88627881588288},
{"position":125.09375,"instrument":"TheGrandeurPiano","level2":7,"level3":null,"pitch":90,"articulation":"standard","articulation_tags":["standard","long"],"duration":0.08333333333333333,"velocity":56.824215249120385},
{"position":125.14583333333333,"instrument":"TheGrandeurPiano","level2":7,"level3":null,"pitch":90,"articulation":"standard","articulation_tags":["standard","long"],"duration":0.0625,"velocity":56.824215249120385},
{"position":125.1875,"instrument":"TheGrandeurPiano","level2":6,"level3":null,"pitch":86,"articulation":"standard","articulation_tags":["standard","long"],"duration":0.14583333333333334,"velocity":56.824215249120385},
{"position":125.1875,"instrument":"TheGrandeurPiano","level2":8,"level3":null,"pitch":86,"articulation":"standard","articulation_tags":["standard","long"],"duration":0.1111111111111111,"velocity":56.824215249120385},
{"position":125.20833333333333,"instrument":"Glockenspiel","level2":7,"level3":7,"pitch":100,"articulation":"hits","articulation_tags":["hits","short"],"duration":0.0625,"velocity":88.85995135406311},
{"position":125.21875,"instrument":"TheGrandeurPiano","level2":7,"level3":null,"pitch":90,"articulation":"standard","articulation_tags":["standard","long"],"duration":0.0763888888888889,"velocity":56.824215249120385},
{"position":125.25,"instrument":"TheGrandeurPiano","level2":7,"level3":null,"pitch":90,"articulation":"standard","articulation_tags":["standard","long"],"duration":0.0625,"velocity":56.824215249120385},
{"position":125.26041666666667,"instrument":"Glockenspiel","level2":8,"level3":8,"pitch":96,"articulation":"hits","articulation_tags":["hits","short"],"duration":0.0625,"velocity":118.88531602471704},
{"position":125.26041666666667,"instrument":"Marimba","level2":8,"level3":9,"pitch":96,"articulation":"hits","articulation_tags":["hits","short"],"duration":0.0625,"velocity":118.88531602471704},
{"position":125.28125,"instrument":"Glockenspiel","level2":8,"level3":8,"pitch":96,"articulation":"hits","articulation_tags":["hits","short"],"duration":0.0625,"velocity":118.88531602471704},
{"position":125.33333333333333,"instrument":"TheGrandeurPiano","level2":7,"level3":null,"pitch":91,"articulation":"standard","articulation_tags":["standard","long"],"duration":0.06944444444444445,"velocity":56.824215249120385},
{"position":125.34375,"instrument":"TheGrandeurPiano","level2":8,"level3":null,"pitch":86,"articulation":"standard","articulation_tags":["standard","long"],"duration":0.1111111111111111,"velocity":55.80703859801349},
{"position":125.34375,"instrument":"TheGrandeurPiano","level2":7,"level3":null,"pitch":91,"articulation":"standard","articulation_tags":["standard","long"],"duration":0.0625,"velocity":55.80703859801349},
{"position":125.40625,"instrument":"TheGrandeurPiano","level2":6,"level3":null,"pitch":86,"articulation":"standard","articulation_tags":["standard","long"],"duration":0.09722222222222222,"velocity":55.80703859801349},
{"position":125.41666666666667,"instrument":"Glockenspiel","level2":7,"level3":1,"pitch":100,"articulation":"hits","articulation_tags":["hits","short"],"duration":0.0625,"velocity":88.43154309944472},
{"position":125.4375,"instrument":"TheGrandeurPiano","level2":7,"level3":null,"pitch":91,"articulation":"standard","articulation_tags":["standard","long"],"duration":0.0625,"velocity":55.80703859801349},
{"position":125.4375,"instrument":"TheGrandeurPiano","level2":7,"level3":null,"pitch":91,"articulation":"standard","articulation_tags":["standard","long"],"duration":0.0625,"velocity":55.80703859801349},
{"position":125.47916666666667,"instrument":"Glockenspiel","level2":7,"level3":2,"pitch":101,"articulation":"hits","articulation_tags":["hits","short"],"duration":0.0625,"velocity":88.21984014548134},
{"position":125.51041666666667,"instrument":"TheGrandeurPiano","level2":8,"level3":null,"pitch":87,"articulation":"standard","articulation_tags":["standard","long"],"duration":0.1111111111111111,"velocity":55.80703859801349},
{"position":125.53125,"instrument":"TheGrandeurPiano","level2":7,"level3":null,"pitch":92,"articulation":"standard","articulation_tags":["standard","long"],"duration":0.0625,"velocity":55.80703859801349},
{"position":125.54166666666667,"instrument":"TheGrandeurPiano","level2":7,"level3":null,"pitch":92,"articulation":"standard","articulation_tags":["standard","long"],"duration":0.0625,"velocity":55.80703859801349},
{"position":125.55208333333333,"instrument":"TheGrandeurPiano","level2":6,"level3":null,"pitch":85,"articulation":"standard","articulation_tags":["standard","long"],"duration":0.041666666666666664,"velocity":55.80703859801349},
{"position":125.61458333333333,"instrument":"TheGrandeurPiano","level2":6,"level3":null,"pitch":85,"articulation":"standard","articulation_tags":["standard","long"],"duration":0.041666666666666664,"velocity":57.208227279589494},
{"position":125.625,"instrument":"Glockenspiel","level2":7,"level3":2,"pitch":100,"articulation":"hits","articulation_tags":["hits","short"],"duration":0.0625,"velocity":88.0183370685894},
{"position":125.625,"instrument":"TheGrandeurPiano","level2":7,"level3":null,"pitch":92,"articulation":"standard","articulation_tags":["standard","long"],"duration":0.05555555555555555,"velocity":57.208227279589494},
{"position":125.63541666666667,"instrument":"TheGrandeurPiano","level2":7,"level3":null,"pitch":92,"articulation":"standard","articulation_tags":["standard","long"],"duration":0.0625,"velocity":57.208227279589494},
{"position":125.67708333333333,"instrument":"TheGrandeurPiano","level2":6,"level3":null,"pitch":96,"articulation":"standard","articulation_tags":["standard","long"],"duration":0.041666666666666664,"velocity":57.208227279589494},
{"position":125.6875,"instrument":"TheGrandeurPiano","level2":8,"level3":null,"pitch":87,"articulation":"standard","articulation_tags":["standard","long"],"duration":0.11805555555555555,"velocity":57.208227279589494},
{"position":125.70833333333333,"instrument":"TheGrandeurPiano","level2":7,"level3":null,"pitch":93,"articulation":"standard","articulation_tags":["standard","long"],"duration":0.04861111111111111,"velocity":57.208227279589494},
{"position":125.71875,"instrument":"TheGrandeurPiano","level2":7,"level3":null,"pitch":93,"articulation":"standard","articulation_tags":["standard","long"],"duration":0.0625,"velocity":57.208227279589494},
{"position":125.72916666666667,"instrument":"TheGrandeurPiano","level2":6,"level3":null,"pitch":96,"articulation":"standard","articulation_tags":["standard","long"],"duration":0.034722222222222224,"velocity":57.208227279589494},
{"position":125.73958333333333,"instrument":"Glockenspiel","level2":7,"level3":10,"pitch":101,"articulation":"hits","articulation_tags":["hits","short"],"duration":0.0625,"velocity":87.64753825671472},
{"position":125.75,"instrument":"Glockenspiel","level2":7,"level3":1,"pitch":100,"articulation":"hits","articulation_tags":["hits","short"],"duration":0.0625,"velocity":87.64753825671472},
{"position":125.78125,"instrument":"TheGrandeurPiano","level2":7,"level3":null,"pitch":93,"articulation":"standard","articulation_tags":["standard","long"],"duration":0.04861111111111111,"velocity":57.208227279589494},
{"position":125.79166666666667,"instrument":"TheGrandeurPiano","level2":6,"level3":null,"pitch":95,"articulation":"standard","articulation_tags":["standard","long"],"duration":0.034722222222222224,"velocity":57.208227279589494},
{"position":125.8125,"instrument":"Glockenspiel","level2":7,"level3":5,"pitch":100,"articulation":"hits","articulation_tags":["hits","short"],"duration":0.0625,"velocity":87.77103020128217},
{"position":125.8125,"instrument":"TheGrandeurPiano","level2":7,"level3":null,"pitch":93,"articulation":"standard","articulation_tags":["standard","long"],"duration":0.0625,"velocity":57.208227279589494},
{"position":125.83333333333333,"instrument":"Glockenspiel","level2":7,"level3":10,"pitch":100,"articulation":"hits","articulation_tags":["hits","short"],"duration":0.0625,"velocity":87.47903981996333},
{"position":125.84375,"instrument":"TheGrandeurPiano","level2":6,"level3":null,"pitch":95,"articulation":"standard","articulation_tags":["standard","long"],"duration":0.034722222222222224,"velocity":57.208227279589494},
{"position":125.84375,"instrument":"Glockenspiel","level2":7,"level3":5,"pitch":100,"articulation":"hits","articulation_tags":["hits","short"],"duration":0.0625,"velocity":87.47903981996333},
{"position":125.85416666666667,"instrument":"TheGrandeurPiano","level2":7,"level3":null,"pitch":94,"articulation":"standard","articulation_tags":["standard","long"],"duration":0.04861111111111111,"velocity":57.208227279589494},
{"position":125.86458333333333,"instrument":"TheGrandeurPiano","level2":8,"level3":null,"pitch":88,"articulation":"standard","articulation_tags":["standard","long"],"duration":0.11805555555555555,"velocity":56.51417546877728},
{"position":125.89583333333333,"instrument":"Glockenspiel","level2":8,"level3":8,"pitch":96,"articulation":"hits","articulation_tags":["hits","short"],"duration":0.0625,"velocity":119.55612315458171},
{"position":125.89583333333333,"instrument":"TheGrandeurPiano","level2":6,"level3":null,"pitch":94,"articulation":"standard","articulation_tags":["standard","long"],"duration":0.034722222222222224,"velocity":56.51417546877728},
{"position":125.90625,"instrument":"TheGrandeurPiano","level2":7,"level3":null,"pitch":94,"articulation":"standard","articulation_tags":["standard","long"],"duration":0.05555555555555555,"velocity":56.51417546877728},
{"position":125.92708333333333,"instrument":"TheGrandeurPiano","level2":7,"level3":null,"pitch":94,"articulation":"standard","articulation_tags":["standard","long"],"duration":0.041666666666666664,"velocity":56.51417546877728},
{"position":125.94791666666667,"instrument":"TheGrandeurPiano","level2":6,"level3":null,"pitch":94,"articulation":"standard","articulation_tags":["standard","long"],"duration":0.034722222222222224,"velocity":56.51417546877728},
{"position":125.95833333333333,"instrument":"TheGrandeurPiano","level2":6,"level3":null,"pitch":94,"articulation":"standard","articulation_tags":["standard","long"],"duration":0.2361111111111111,"velocity":56.51417546877728},
{"position":125.98958333333333,"instrument":"TheGrandeurPiano","level2":7,"level3":null,"pitch":95,"articulation":"standard","articulation_tags":["standard","long"],"duration":0.041666666666666664,"velocity":56.51417546877728},
{"position":125.98958333333333,"instrument":"TheGrandeurPiano","level2":7,"level3":null,"pitch":95,"articulation":"standard","articulation_tags":["standard","long"],"duration":0.05555555555555555,"velocity":56.51417546877728},
{"position":125.98958333333333,"instrument":"TheGrandeurPiano","level2":6,"level3":null,"pitch":93,"articulation":"standard","articulation_tags":["standard","long"],"duration":0.027777777777777776,"velocity":56.51417546877728},
{"position":126.04166666666667,"instrument":"Glockenspiel","level2":8,"level3":6,"pitch":96,"articulation":"hits","articulation_tags":["hits","short"],"duration":0.0625,"velocity":119.55612315458171},
{"position":126.04166666666667,"instrument":"TheGrandeurPiano","level2":8,"level3":null,"pitch":88,"articulation":"standard","articulation_tags":["standard","long"],"duration":0.125,"velocity":56.51417546877728},
{"position":126.04166666666667,"instrument":"TheGrandeurPiano","level2":7,"level3":null,"pitch":95,"articulation":"standard","articulation_tags":["standard","long"],"duration":0.034722222222222224,"velocity":56.51417546877728},
{"position":126.04166666666667,"instrument":"TheGrandeurPiano","level2":6,"level3":null,"pitch":93,"articulation":"standard","articulation_tags":["standard","long"],"duration":0.027777777777777776,"velocity":56.51417546877728},
{"position":126.07291666666667,"instrument":"TheGrandeurPiano","level2":7,"level3":null,"pitch":95,"articulation":"standard","articulation_tags":["standard","long"],"duration":0.05555555555555555,"velocity":56.51417546877728},
{"position":126.08333333333333,"instrument":"TheGrandeurPiano","level2":6,"level3":null,"pitch":92,"articulation":"standard","articulation_tags":["standard","long"],"duration":0.027777777777777776,"velocity":56.51417546877728},
{"position":126.10416666666667,"instrument":"TheGrandeurPiano","level2":7,"level3":null,"pitch":96,"articulation":"standard","articulation_tags":["standard","long"],"duration":0.034722222222222224,"velocity":56.51417546877728},
{"position":126.11458333333333,"instrument":"Glockenspiel","level2":7,"level3":0,"pitch":101,"articulation":"hits","articulation_tags":["hits","short"],"duration":0.0625,"velocity":87.36336982776268},
{"position":126.125,"instrument":"TheGrandeurPiano","level2":6,"level3":null,"pitch":92,"articulation":"standard","articulation_tags":["standard","long"],"duration":0.027777777777777776,"velocity":55.965349172034685},
{"position":126.15625,"instrument":"TheGrandeurPiano","level2":7,"level3":null,"pitch":96,"articulation":"standard","articulation_tags":["standard","long"],"duration":0.034722222222222224,"velocity":55.965349172034685},
{"position":126.15625,"instrument":"TheGrandeurPiano","level2":7,"level3":null,"pitch":96,"articulation":"standard","articulation_tags":["standard","long"],"duration":0.04861111111111111,"velocity":55.965349172034685},
{"position":126.16666666666667,"instrument":"TheGrandeurPiano","level2":6,"level3":null,"pitch":91,"articulation":"standard","articulation_tags":["standard","long"],"duration":0.027777777777777776,"velocity":55.965349172034685},
{"position":126.19791666666667,"instrument":"TheGrandeurPiano","level2":7,"level3":null,"pitch":85,"articulation":"standard","articulation_tags":["standard","long"],"duration":0.027777777777777776,"velocity":55.965349172034685},
{"position":126.20833333333333,"instrument":"TheGrandeurPiano","level2":6,"level3":null,"pitch":91,"articulation":"standard","articulation_tags":["standard","long"],"duration":0.027777777777777776,"velocity":55.965349172034685},
{"position":126.22916666666667,"instrument":"TheGrandeurPiano","level2":8,"level3":null,"pitch":89,"articulation":"standard","articulation_tags":["standard","long"],"duration":0.125,"velocity":55.965349172034685},
{"position":126.22916666666667,"instrument":"TheGrandeurPiano","level2":7,"level3":null,"pitch":85,"articulation":"standard","articulation_tags":["standard","long"],"duration":0.04861111111111111,"velocity":55.965349172034685},
{"position":126.23958333333333,"instrument":"TheGrandeurPiano","level2":6,"level3":null,"pitch":90,"articulation":"standard","articulation_tags":["standard","long"],"duration":0.020833333333333332,"velocity":55.965349172034685},
{"position":126.23958333333333,"instrument":"TheGrandeurPiano","level2":7,"level3":null,"pitch":85,"articulation":"standard","articulation_tags":["standard","long"],"duration":0.027777777777777776,"velocity":55.965349172034685},
{"position":126.28125,"instrument":"Glockenspiel","level2":8,"level3":4,"pitch":97,"articulation":"hits","articulation_tags":["hits","short"],"duration":0.0625,"velocity":119.90072183575484},
{"position":126.28125,"instrument":"TheGrandeurPiano","level2":6,"level3":null,"pitch":90,"articulation":"standard","articulation_tags":["standard","long"],"duration":0.020833333333333332,"velocity":55.965349172034685},
{"position":126.28125,"instrument":"TheGrandeurPiano","level2":7,"level3":null,"pitch":86,"articulation":"standard","articulation_tags":["standard","long"],"duration":0.027777777777777776,"velocity":55.965349172034685},
{"position":126.30208333333333,"instrument":"TheGrandeurPiano","level2":7,"level3":null,"pitch":86,"articulation":"standard","articulation_tags":["standard","long"],"duration":0.041666666666666664,"velocity":55.965349172034685},
{"position":126.3125,"instrument":"TheGrandeurPiano","level2":6,"level3":null,"pitch":89,"articulation":"standard","articulation_tags":["standard","long"],"duration":0.020833333333333332,"velocity":55.965349172034685},
{"position":126.32291666666667,"instrument":"TheGrandeurPiano","level2":7,"level3":null,"pitch":86,"articulation":"standard","articulation_tags":["standard","long"],"duration":0.020833333333333332,"velocity":55.965349172034685},
{"position":126.32291666666667,"instrument":"TheGrandeurPiano","level2":6,"level3":null,"pitch":89,"articulation":"standard","articulation_tags":["standard","long"],"duration":0.09722222222222222,"velocity":55.965349172034685},
{"position":126.34375,"instrument":"TheGrandeurPiano","level2":6,"level3":null,"pitch":89,"articulation":"standard","articulation_tags":["standard","long"],"duration":0.020833333333333332,"velocity":55.965349172034685},
{"position":126.35416666666667,"instrument":"TheGrandeurPiano","level2":7,"level3":null,"pitch":87,"articulation":"standard","articulation_tags":["standard","long"],"duration":0.020833333333333332,"velocity":55.965349172034685},
{"position":126.36458333333333,"instrument":"TheGrandeurPiano","level2":7,"level3":null,"pitch":87,"articulation":"standard","articulation_tags":["standard","long"],"duration":0.041666666666666664,"velocity":55.568287720010495},
{"position":126.375,"instrument":"Glockenspiel","level2":7,"level3":0,"pitch":100,"articulation":"hits","articulation_tags":["hits","short"],"duration":0.0625,"velocity":87.43151951949572},
{"position":126.375,"instrument":"TheGrandeurPiano","level2":6,"level3":null,"pitch":88,"articulation":"standard","articulation_tags":["standard","long"],"duration":0.020833333333333332,"velocity":55.568287720010495},
{"position":126.38541666666667,"instrument":"TheGrandeurPiano","level2":7,"level3":null,"pitch":87,"articulation":"standard","articulation_tags":["standard","long"],"duration":0.020833333333333332,"velocity":55.568287720010495},
{"position":126.39583333333333,"instrument":"TheGrandeurPiano","level2":6,"level3":null,"pitch":88,"articulation":"standard","articulation_tags":["standard","long"],"duration":0.013888888888888888,"velocity":55.568287720010495},
{"position":126.41666666666667,"instrument":"TheGrandeurPiano","level2":8,"level3":null,"pitch":89,"articulation":"standard","articulation_tags":["standard","long"],"duration":0.13194444444444445,"velocity":55.568287720010495},
{"position":126.41666666666667,"instrument":"TheGrandeurPiano","level2":7,"level3":null,"pitch":88,"articulation":"standard","articulation_tags":["standard","long"],"duration":0.020833333333333332,"velocity":55.568287720010495},
{"position":126.42708333333333,"instrument":"TheGrandeurPiano","level2":6,"level3":null,"pitch":87,"articulation":"standard","articulation_tags":["standard","long"],"duration":0.013888888888888888,"velocity":55.568287720010495},
{"position":126.42708333333333,"instrument":"TheGrandeurPiano","level2":7,"level3":null,"pitch":88,"articulation":"standard","articulation_tags":["standard","long"],"duration":0.034722222222222224,"velocity":55.568287720010495},
{"position":126.44791666666667,"instrument":"TheGrandeurPiano","level2":6,"level3":null,"pitch":87,"articulation":"standard","articulation_tags":["standard","long"],"duration":0.013888888888888888,"velocity":55.568287720010495},
{"position":126.44791666666667,"instrument":"TheGrandeurPiano","level2":7,"level3":null,"pitch":88,"articulation":"standard","articulation_tags":["standard","long"],"duration":0.013888888888888888,"velocity":55.568287720010495},
{"position":126.46875,"instrument":"Glockenspiel","level2":7,"level3":3,"pitch":100,"articulation":"hits","articulation_tags":["hits","short"],"duration":0.0625,"velocity":87.82743615397149},
{"position":126.46875,"instrument":"TheGrandeurPiano","level2":6,"level3":null,"pitch":86,"articulation":"standard","articulation_tags":["standard","long"],"duration":0.013888888888888888,"velocity":57.96489929568298},
{"position":126.46875,"instrument":"TheGrandeurPiano","level2":6,"level3":null,"pitch":86,"articulation":"standard","articulation_tags":["standard","long"],"duration":0.04861111111111111,"velocity":57.96489929568298},
{"position":126.46875,"instrument":"TheGrandeurPiano","level2":7,"level3":null,"pitch":89,"articulation":"standard","articulation_tags":["standard","long"],"duration":0.013888888888888888,"velocity":57.96489929568298},
{"position":126.47916666666667,"instrument":"TheGrandeurPiano","level2":7,"level3":null,"pitch":89,"articulation":"standard","articulation_tags":["standard","long"],"duration":0.027777777777777776,"velocity":57.96489929568298},
{"position":126.48958333333333,"instrument":"TheGrandeurPiano","level2":6,"level3":null,"pitch":86,"articulation":"standard","articulation_tags":["standard","long"],"duration":0.013888888888888888,"velocity":57.96489929568298},
{"position":126.48958333333333,"instrument":"TheGrandeurPiano","level2":7,"level3":null,"pitch":89,"articulation":"standard","articulation_tags":["standard","long"],"duration":0.013888888888888888,"velocity":57.96489929568298},
{"position":126.51041666666667,"instrument":"TheGrandeurPiano","level2":6,"level3":null,"pitch":85,"articulation":"standard","articulation_tags":["standard","long"],"duration":0.013888888888888888,"velocity":57.96489929568298},
{"position":126.51041666666667,"instrument":"TheGrandeurPiano","level2":7,"level3":null,"pitch":90,"articulation":"standard","articulation_tags":["standard","long"],"duration":0.013888888888888888,"velocity":57.96489929568298},
{"position":126.52083333333333,"instrument":"TheGrandeurPiano","level2":6,"level3":null,"pitch":85,"articulation":"standard","articulation_tags":["standard","long"],"duration":0.006944444444444444,"velocity":57.96489929568298},
{"position":126.52083333333333,"instrument":"TheGrandeurPiano","level2":7,"level3":null,"pitch":90,"articulation":"standard","articulation_tags":["standard","long"],"duration":0.020833333333333332,"velocity":57.96489929568298},
{"position":126.53125,"instrument":"Glockenspiel","level2":8,"level3":2,"pitch":97,"articulation":"hits","articulation_tags":["hits","short"],"duration":0.0625,"velocity":120.07055875236261},
{"position":126.53125,"instrument":"Glockenspiel","level2":7,"level3":3,"pitch":100,"articulation":"hits","articulation_tags":["hits","short"],"duration":0.0625,"velocity":88.06080391609345},
{"position":126.53125,"instrument":"TheGrandeurPiano","level2":6,"level3":null,"pitch":96,"articulation":"standard","articulation_tags":["standard","long"],"duration":0.006944444444444444,"velocity":57.96489929568298},
{"position":126.53125,"instrument":"TheGrandeurPiano","level2":7,"level3":null,"pitch":90,"articulation":"standard","articulation_tags":["standard","long"],"duration":0.006944444444444444,"velocity":57.96489929568298},
{"position":126.54166666666667,"instrument":"TheGrandeurPiano","level2":6,"level3":null,"pitch":96,"articulation":"standard","articulation_tags":["standard","long"],"duration":0.020833333333333332,"velocity":57.96489929568298},
{"position":126.54166666666667,"instrument":"TheGrandeurPiano","level2":7,"level3":null,"pitch":91,"articulation":"standard","articulation_tags":["standard","long"],"duration":0.006944444444444444,"velocity":57.96489929568298},
{"position":126.55208333333333,"instrument":"TheGrandeurPiano","level2":6,"level3":null,"pitch":96,"articulation":"standard","articulation_tags":["standard","long"],"duration":0.006944444444444444,"velocity":57.96489929568298},
{"position":126.55208333333333,"instrument":"TheGrandeurPiano","level2":7,"level3":null,"pitch":91,"articulation":"standard","articulation_tags":["standard","long"],"duration":0.006944444444444444,"velocity":57.96489929568298},
{"position":126.5625,"instrument":"TheGrandeurPiano","level2":6,"level3":null,"pitch":95,"articulation":"standard","articulation_tags":["standard","long"],"duration":0.006944444444444444,"velocity":57.96489929568298},
{"position":126.5625,"instrument":"TheGrandeurPiano","level2":6,"level3":null,"pitch":95,"articulation":"standard","articulation_tags":["standard","long"],"duration":0.006944444444444444,"velocity":57.96489929568298},
{"position":126.5625,"instrument":"TheGrandeurPiano","level2":7,"level3":null,"pitch":91,"articulation":"standard","articulation_tags":["standard","long"],"duration":0.013888888888888888,"velocity":57.96489929568298},
{"position":126.5625,"instrument":"TheGrandeurPiano","level2":7,"level3":null,"pitch":92,"articulation":"standard","articulation_tags":["standard","long"],"duration":0.006944444444444444,"velocity":57.96489929568298},
{"position":126.57291666666667,"instrument":"TheGrandeurPiano","level2":6,"level3":null,"pitch":94,"articulation":"standard","articulation_tags":["standard","long"],"duration":0.0,"velocity":57.96489929568298},
{"position":126.57291666666667,"instrument":"TheGrandeurPiano","level2":6,"level3":null,"pitch":94,"articulation":"standard","articulation_tags":["standard","long"],"duration":0.0,"velocity":57.96489929568298},
{"position":126.57291666666667,"instrument":"TheGrandeurPiano","level2":6,"level3":null,"pitch":94,"articulation":"standard","articulation_tags":["standard","long"],"duration":0.0,"velocity":57.96489929568298},
{"position":126.57291666666667,"instrument":"TheGrandeurPiano","level2":6,"level3":null,"pitch":93,"articulation":"standard","articulation_tags":["standard","long"],"duration":0.0,"velocity":57.96489929568298},
{"position":126.57291666666667,"instrument":"TheGrandeurPiano","level2":7,"level3":null,"pitch":92,"articulation":"standard","articulation_tags":["standard","long"],"duration":0.0,"velocity":57.96489929568298},
{"position":126.57291666666667,"instrument":"TheGrandeurPiano","level2":7,"level3":null,"pitch":93,"articulation":"standard","articulation_tags":["standard","long"],"duration":0.0,"velocity":57.96489929568298},
{"position":126.57291666666667,"instrument":"TheGrandeurPiano","level2":7,"level3":null,"pitch":93,"articulation":"standard","articulation_tags":["standard","long"],"duration":0.0,"velocity":57.96489929568298},
{"position":126.57291666666667,"instrument":"TheGrandeurPiano","level2":7,"level3":null,"pitch":93,"articulation":"standard","articulation_tags":["standard","long"],"duration":0.0,"velocity":57.96489929568298},
{"position":126.61458333333333,"instrument":"TheGrandeurPiano","level2":8,"level3":null,"pitch":90,"articulation":"standard","articulation_tags":["standard","long"],"duration":0.13194444444444445,"velocity":57.739449577149806},
{"position":126.625,"instrument":"Glockenspiel","level2":8,"level3":10,"pitch":96,"articulation":"hits","articulation_tags":["hits","short"],"duration":0.0625,"velocity":120.23557148957104},
{"position":126.625,"instrument":"Glockenspiel","level2":8,"level3":11,"pitch":96,"articulation":"hits","articulation_tags":["hits","short"],"duration":0.0625,"velocity":120.23557148957104},
{"position":126.79166666666667,"instrument":"Glockenspiel","level2":8,"level3":0,"pitch":96,"articulation":"hits","articulation_tags":["hits","short"],"duration":0.0625,"velocity":120.23557148957104},
{"position":126.8125,"instrument":"TheGrandeurPiano","level2":8,"level3":null,"pitch":90,"articulation":"standard","articulation_tags":["standard","long"],"duration":0.1388888888888889,"velocity":57.739449577149806},
{"position":127.02083333333333,"instrument":"TheGrandeurPiano","level2":8,"level3":null,"pitch":91,"articulation":"standard","articulation_tags":["standard","long"],"duration":0.1388888888888889,"velocity":57.6640075394822},
{"position":127.22916666666667,"instrument":"TheGrandeurPiano","level2":8,"level3":null,"pitch":91,"articulation":"standard","articulation_tags":["standard","long"],"duration":0.14583333333333334,"velocity":57.739449577149806},
{"position":127.44791666666667,"instrument":"TheGrandeurPiano","level2":8,"level3":null,"pitch":92,"articulation":"standard","articulation_tags":["standard","long"],"duration":0.1527777777777778,"velocity":57.96489929568298},
{"position":127.66666666666667,"instrument":"TheGrandeurPiano","level2":8,"level3":null,"pitch":92,"articulation":"standard","articulation_tags":["standard","long"],"duration":0.1527777777777778,"velocity":58.33777764134233},
{"position":127.89583333333333,"instrument":"TheGrandeurPiano","level2":8,"level3":null,"pitch":93,"articulation":"standard","articulation_tags":["standard","long"],"duration":0.1597222222222222,"velocity":56.51417546877728},
{"position":128.08333333333334,"instrument":"Glockenspiel","level2":8,"level3":8,"pitch":96,"articulation":"hits","articulation_tags":["hits","short"],"duration":0.0625,"velocity":121.25380656472453},
{"position":128.13541666666666,"instrument":"TheGrandeurPiano","level2":8,"level3":null,"pitch":93,"articulation":"standard","articulation_tags":["standard","long"],"duration":0.1597222222222222,"velocity":57.208227279589494},
{"position":128.38541666666666,"instrument":"TheGrandeurPiano","level2":8,"level3":null,"pitch":94,"articulation":"standard","articulation_tags":["standard","long"],"duration":0.16666666666666666,"velocity":58.03975988207551},
{"position":128.4375,"instrument":"TheGrandeurPiano","level2":8,"level3":null,"pitch":94,"articulation":"standard","articulation_tags":["standard","long"],"duration":0.8194444444444444,"velocity":58.03975988207551},
{"position":128.59375,"instrument":"Glockenspiel","level2":8,"level3":4,"pitch":96,"articulation":"hits","articulation_tags":["hits","short"],"duration":0.0625,"velocity":121.36267660591426},
{"position":128.63541666666666,"instrument":"TheGrandeurPiano","level2":8,"level3":null,"pitch":94,"articulation":"standard","articulation_tags":["standard","long"],"duration":0.1736111111111111,"velocity":56.824215249120385},
{"position":128.89583333333334,"instrument":"TheGrandeurPiano","level2":8,"level3":null,"pitch":95,"articulation":"standard","articulation_tags":["standard","long"],"duration":0.18055555555555555,"velocity":57.96489929568298},
{"position":129.16666666666666,"instrument":"TheGrandeurPiano","level2":8,"level3":null,"pitch":95,"articulation":"standard","articulation_tags":["standard","long"],"duration":0.1875,"velocity":57.208227279589494},
{"position":129.22916666666666,"instrument":"Glockenspiel","level2":8,"level3":1,"pitch":96,"articulation":"hits","articulation_tags":["hits","short"],"duration":0.0625,"velocity":121.89943131556197},
{"position":129.44791666666666,"instrument":"TheGrandeurPiano","level2":8,"level3":null,"pitch":96,"articulation":"standard","articulation_tags":["standard","long"],"duration":0.19444444444444445,"velocity":58.633554570203174},
{"position":129.66666666666666,"instrument":"TheGrandeurPiano","level2":8,"level3":null,"pitch":96,"articulation":"standard","articulation_tags":["standard","long"],"duration":0.6527777777777778,"velocity":58.33777764134233},
{"position":129.73958333333334,"instrument":"TheGrandeurPiano","level2":8,"level3":null,"pitch":96,"articulation":"standard","articulation_tags":["standard","long"],"duration":0.2013888888888889,"velocity":58.33777764134233},
{"position":130.04166666666666,"instrument":"TheGrandeurPiano","level2":8,"level3":null,"pitch":85,"articulation":"standard","articulation_tags":["standard","long"],"duration":0.20833333333333334,"velocity":58.33777764134233},
{"position":130.35416666666666,"instrument":"TheGrandeurPiano","level2":8,"level3":null,"pitch":85,"articulation":"standard","articulation_tags":["standard","long"],"duration":0.2222222222222222,"velocity":58.633554570203174},
{"position":130.41666666666666,"instrument":"Glockenspiel","level2":8,"level3":3,"pitch":95,"articulation":"hits","articulation_tags":["hits","short"],"duration":0.0625,"velocity":122.3981187615037},
{"position":130.65625,"instrument":"TheGrandeurPiano","level2":8,"level3":null,"pitch":85,"articulation":"standard","articulation_tags":["standard","long"],"duration":0.5694444444444444,"velocity":59.218583317770324},
{"position":130.6875,"instrument":"TheGrandeurPiano","level2":8,"level3":null,"pitch":86,"articulation":"standard","articulation_tags":["standard","long"],"duration":0.22916666666666666,"velocity":59.218583317770324},
{"position":131.03125,"instrument":"TheGrandeurPiano","level2":8,"level3":null,"pitch":86,"articulation":"standard","articulation_tags":["standard","long"],"duration":0.24305555555555555,"velocity":60.08050801069984},
{"position":131.38541666666666,"instrument":"TheGrandeurPiano","level2":8,"level3":null,"pitch":87,"articulation":"standard","articulation_tags":["standard","long"],"duration":0.25,"velocity":58.03975988207551},
{"position":131.5,"instrument":"Glockenspiel","level2":8,"level3":5,"pitch":95,"articulation":"hits","articulation_tags":["hits","short"],"duration":0.0625,"velocity":122.73204456933027},
{"position":131.51041666666666,"instrument":"TheGrandeurPiano","level2":8,"level3":null,"pitch":87,"articulation":"standard","articulation_tags":["standard","long"],"duration":0.5208333333333334,"velocity":60.29317815329015},
{"position":131.77083333333334,"instrument":"TheGrandeurPiano","level2":8,"level3":null,"pitch":87,"articulation":"standard","articulation_tags":["standard","long"],"duration":0.2638888888888889,"velocity":59.50792937435847},
{"position":132.16666666666666,"instrument":"TheGrandeurPiano","level2":8,"level3":null,"pitch":88,"articulation":"standard","articulation_tags":["standard","long"],"duration":0.2847222222222222,"velocity":60.71526590067154},
{"position":132.29166666666666,"instrument":"TheGrandeurPiano","level2":8,"level3":null,"pitch":88,"articulation":"standard","articulation_tags":["standard","long"],"duration":0.4861111111111111,"velocity":60.71526590067154},
{"position":132.59375,"instrument":"TheGrandeurPiano","level2":8,"level3":null,"pitch":88,"articulation":"standard","articulation_tags":["standard","long"],"duration":0.3055555555555556,"velocity":60.15152017780837},
{"position":132.65625,"instrument":"Glockenspiel","level2":8,"level3":5,"pitch":95,"articulation":"hits","articulation_tags":["hits","short"],"duration":0.0625,"velocity":122.85619990402938},
{"position":132.66666666666666,"instrument":"Glockenspiel","level2":8,"level3":9,"pitch":96,"articulation":"hits","articulation_tags":["hits","short"],"duration":0.0625,"velocity":122.85619990402938},
{"position":132.72916666666666,"instrument":"Glockenspiel","level2":8,"level3":1,"pitch":95,"articulation":"hits","articulation_tags":["hits","short"],"duration":0.0625,"velocity":122.85619990402938},
{"position":133.02083333333334,"instrument":"TheGrandeurPiano","level2":8,"level3":null,"pitch":88,"articulation":"standard","articulation_tags":["standard","long"],"duration":0.4583333333333333,"velocity":60.15152017780837},
{"position":133.05208333333334,"instrument":"TheGrandeurPiano","level2":8,"level3":null,"pitch":89,"articulation":"standard","articulation_tags":["standard","long"],"duration":0.3263888888888889,"velocity":60.15152017780837},
{"position":133.54166666666666,"instrument":"TheGrandeurPiano","level2":8,"level3":null,"pitch":89,"articulation":"standard","articulation_tags":["standard","long"],"duration":0.3541666666666667,"velocity":60.71526590067154},
{"position":133.61458333333334,"instrument":"Glockenspiel","level2":8,"level3":7,"pitch":95,"articulation":"hits","articulation_tags":["hits","short"],"duration":0.0625,"velocity":123.0265055475718},
{"position":133.70833333333334,"instrument":"TheGrandeurPiano","level2":8,"level3":null,"pitch":89,"articulation":"standard","articulation_tags":["standard","long"],"duration":0.4375,"velocity":61.20236641298085},
{"position":134.07291666666666,"instrument":"TheGrandeurPiano","level2":8,"level3":null,"pitch":90,"articulation":"standard","articulation_tags":["standard","long"],"duration":0.3958333333333333,"velocity":61.8204974469243},
{"position":134.17708333333334,"instrument":"Glockenspiel","level2":8,"level3":6,"pitch":96,"articulation":"hits","articulation_tags":["hits","short"],"duration":0.0625,"velocity":123.00420480471519},
{"position":134.36458333333334,"instrument":"TheGrandeurPiano","level2":8,"level3":null,"pitch":90,"articulation":"standard","articulation_tags":["standard","long"],"duration":0.4236111111111111,"velocity":60.29317815329015},
{"position":134.66666666666666,"instrument":"TheGrandeurPiano","level2":8,"level3":null,"pitch":90,"articulation":"standard","articulation_tags":["standard","long"],"duration":0.4513888888888889,"velocity":62.2276745704233},
{"position":135.0,"instrument":"TheGrandeurPiano","level2":8,"level3":null,"pitch":90,"articulation":"standard","articulation_tags":["standard","long"],"duration":0.4097222222222222,"velocity":61.271494004623136},
{"position":135.34375,"instrument":"TheGrandeurPiano","level2":8,"level3":null,"pitch":91,"articulation":"standard","articulation_tags":["standard","long"],"duration":0.5277777777777778,"velocity":60.57504612275179},
{"position":135.60416666666666,"instrument":"TheGrandeurPiano","level2":8,"level3":null,"pitch":91,"articulation":"standard","articulation_tags":["standard","long"],"duration":0.3958333333333333,"velocity":62.024567693170795},
{"position":136.13541666666666,"instrument":"TheGrandeurPiano","level2":8,"level3":null,"pitch":91,"articulation":"standard","articulation_tags":["standard","long"],"duration":0.6666666666666666,"velocity":61.75225756699469},
{"position":136.19791666666666,"instrument":"TheGrandeurPiano","level2":8,"level3":null,"pitch":91,"articulation":"standard","articulation_tags":["standard","long"],"duration":0.3819444444444444,"velocity":61.75225756699469},
{"position":136.77083333333334,"instrument":"TheGrandeurPiano","level2":8,"level3":null,"pitch":91,"articulation":"standard","articulation_tags":["standard","long"],"duration":0.375,"velocity":62.564081780790424},
{"position":137.13541666666666,"instrument":"TheGrandeurPiano","level2":8,"level3":null,"pitch":92,"articulation":"standard","articulation_tags":["standard","long"],"duration":1.0694444444444444,"velocity":62.2276745704233},
{"position":137.33333333333334,"instrument":"TheGrandeurPiano","level2":8,"level3":null,"pitch":92,"articulation":"standard","articulation_tags":["standard","long"],"duration":0.3680555555555556,"velocity":62.2276745704233},
{"position":137.38541666666666,"instrument":"Glockenspiel","level2":8,"level3":0,"pitch":96,"articulation":"hits","articulation_tags":["hits","short"],"duration":0.0625,"velocity":122.52596287438831},
{"position":137.88541666666666,"instrument":"TheGrandeurPiano","level2":8,"level3":null,"pitch":92,"articulation":"standard","articulation_tags":["standard","long"],"duration":0.3611111111111111,"velocity":61.8204974469243},
{"position":137.92708333333334,"instrument":"Glockenspiel","level2":8,"level3":2,"pitch":97,"articulation":"hits","articulation_tags":["hits","short"],"duration":0.0625,"velocity":122.31426907360907},
{"position":137.96875,"instrument":"Glockenspiel","level2":8,"level3":2,"pitch":96,"articulation":"hits","articulation_tags":["hits","short"],"duration":0.0625,"velocity":122.31426907360907},
{"position":138.42708333333334,"instrument":"TheGrandeurPiano","level2":8,"level3":null,"pitch":92,"articulation":"standard","articulation_tags":["standard","long"],"duration":0.3541666666666667,"velocity":63.09699556231192},
{"position":138.45833333333334,"instrument":"Glockenspiel","level2":8,"level3":7,"pitch":95,"articulation":"hits","articulation_tags":["hits","short"],"duration":0.0625,"velocity":122.1035182530652},
{"position":138.73958333333334,"instrument":"TheGrandeurPiano","level2":8,"level3":null,"pitch":92,"articulation":"standard","articulation_tags":["standard","long"],"duration":1.8472222222222223,"velocity":62.564081780790424},
{"position":138.95833333333334,"instrument":"TheGrandeurPiano","level2":8,"level3":null,"pitch":92,"articulation":"standard","articulation_tags":["standard","long"],"duration":0.3472222222222222,"velocity":62.49700848191748},
{"position":139.46875,"instrument":"TheGrandeurPiano","level2":8,"level3":null,"pitch":92,"articulation":"standard","articulation_tags":["standard","long"],"duration":0.3402777777777778,"velocity":62.764684906732526},
{"position":139.9375,"instrument":"Glockenspiel","level2":8,"level3":3,"pitch":95,"articulation":"hits","articulation_tags":["hits","short"],"duration":0.0625,"velocity":121.89943131556197},
{"position":139.98958333333334,"instrument":"TheGrandeurPiano","level2":8,"level3":null,"pitch":92,"articulation":"standard","articulation_tags":["standard","long"],"duration":0.3333333333333333,"velocity":63.55806705092045},
{"position":140.14583333333334,"instrument":"Glockenspiel","level2":8,"level3":4,"pitch":96,"articulation":"hits","articulation_tags":["hits","short"],"duration":0.0625,"velocity":121.69254138098032},
{"position":140.48958333333334,"instrument":"TheGrandeurPiano","level2":8,"level3":null,"pitch":92,"articulation":"standard","articulation_tags":["standard","long"],"duration":0.3333333333333333,"velocity":63.426820618400455},
{"position":140.63541666666666,"instrument":"Glockenspiel","level2":8,"level3":7,"pitch":96,"articulation":"hits","articulation_tags":["hits","short"],"duration":0.0625,"velocity":121.48665019681272},
{"position":140.98958333333334,"instrument":"TheGrandeurPiano","level2":8,"level3":null,"pitch":92,"articulation":"standard","articulation_tags":["standard","long"],"duration":0.3263888888888889,"velocity":63.36105178793823},
{"position":141.47916666666666,"instrument":"TheGrandeurPiano","level2":8,"level3":null,"pitch":92,"articulation":"standard","articulation_tags":["standard","long"],"duration":0.3263888888888889,"velocity":63.94950707714928},
{"position":141.51041666666666,"instrument":"TheGrandeurPiano","level2":8,"level3":null,"pitch":92,"articulation":"standard","articulation_tags":["standard","long"],"duration":1.0694444444444444,"velocity":63.94950707714928},
{"position":141.96875,"instrument":"TheGrandeurPiano","level2":8,"level3":null,"pitch":92,"articulation":"standard","articulation_tags":["standard","long"],"duration":0.3194444444444444,"velocity":61.75225756699469},
{"position":142.44791666666666,"instrument":"TheGrandeurPiano","level2":8,"level3":null,"pitch":92,"articulation":"standard","articulation_tags":["standard","long"],"duration":0.3194444444444444,"velocity":63.55806705092045},
{"position":142.92708333333334,"instrument":"TheGrandeurPiano","level2":8,"level3":null,"pitch":92,"articulation":"standard","articulation_tags":["standard","long"],"duration":0.3125,"velocity":62.564081780790424},
{"position":143.11458333333334,"instrument":"TheGrandeurPiano","level2":8,"level3":null,"pitch":91,"articulation":"standard","articulation_tags":["standard","long"],"duration":0.6666666666666666,"velocity":63.36105178793823},
{"position":143.39583333333334,"instrument":"TheGrandeurPiano","level2":8,"level3":null,"pitch":91,"articulation":"standard","articulation_tags":["standard","long"],"duration":0.3125,"velocity":62.2276745704233},
{"position":143.86458333333334,"instrument":"TheGrandeurPiano","level2":8,"level3":null,"pitch":91,"articulation":"standard","articulation_tags":["standard","long"],"duration":0.3125,"velocity":62.564081780790424},
{"position":144.10416666666666,"instrument":"TheGrandeurPiano","level2":8,"level3":null,"pitch":91,"articulation":"standard","articulation_tags":["standard","long"],"duration":0.5208333333333334,"velocity":64.15355125593703},
{"position":144.14583333333334,"instrument":"Piccolo","level2":8,"level3":5,"pitch":95,"articulation":"staccato","articulation_tags":["staccato","st","short"],"duration":0.125,"velocity":119.36788299344259},
{"position":144.33333333333334,"instrument":"TheGrandeurPiano","level2":8,"level3":null,"pitch":91,"articulation":"standard","articulation_tags":["standard","long"],"duration":0.3055555555555556,"velocity":63.55806705092045},
{"position":144.79166666666666,"instrument":"TheGrandeurPiano","level2":8,"level3":null,"pitch":91,"articulation":"standard","articulation_tags":["standard","long"],"duration":0.3055555555555556,"velocity":62.764684906732526},
{"position":144.89583333333334,"instrument":"TheGrandeurPiano","level2":8,"level3":null,"pitch":90,"articulation":"standard","articulation_tags":["standard","long"],"duration":0.4444444444444444,"velocity":62.564081780790424},
{"position":144.90625,"instrument":"Glockenspiel","level2":8,"level3":0,"pitch":96,"articulation":"hits","articulation_tags":["hits","short"],"duration":0.0625,"velocity":118.70415483830342},
{"position":145.25,"instrument":"TheGrandeurPiano","level2":8,"level3":null,"pitch":90,"articulation":"standard","articulation_tags":["standard","long"],"duration":0.3055555555555556,"velocity":62.564081780790424},
{"position":145.5625,"instrument":"TheGrandeurPiano","level2":8,"level3":null,"pitch":90,"articulation":"standard","articulation_tags":["standard","long"],"duration":0.3958333333333333,"velocity":62.764684906732526},
{"position":145.70833333333334,"instrument":"TheGrandeurPiano","level2":8,"level3":null,"pitch":90,"articulation":"standard","articulation_tags":["standard","long"],"duration":0.2986111111111111,"velocity":63.09699556231192},
{"position":146.11458333333334,"instrument":"Piccolo","level2":8,"level3":2,"pitch":96,"articulation":"staccato","articulation_tags":["staccato","st","short"],"duration":0.125,"velocity":118.04188392433664},
{"position":146.14583333333334,"instrument":"TheGrandeurPiano","level2":8,"level3":null,"pitch":89,"articulation":"standard","articulation_tags":["standard","long"],"duration":0.3541666666666667,"velocity":64.15355125593703},
{"position":146.15625,"instrument":"TheGrandeurPiano","level2":8,"level3":null,"pitch":89,"articulation":"standard","articulation_tags":["standard","long"],"duration":0.2986111111111111,"velocity":61.8204974469243},
{"position":146.60416666666666,"instrument":"TheGrandeurPiano","level2":8,"level3":null,"pitch":89,"articulation":"standard","articulation_tags":["standard","long"],"duration":0.2986111111111111,"velocity":63.426820618400455},
{"position":146.6875,"instrument":"TheGrandeurPiano","level2":8,"level3":null,"pitch":89,"articulation":"standard","articulation_tags":["standard","long"],"duration":0.3263888888888889,"velocity":63.426820618400455},
{"position":146.77083333333334,"instrument":"Glockenspiel","level2":8,"level3":1,"pitch":95,"articulation":"hits","articulation_tags":["hits","short"],"duration":0.0625,"velocity":117.14224594903278},
{"position":147.05208333333334,"instrument":"TheGrandeurPiano","level2":8,"level3":null,"pitch":89,"articulation":"standard","articulation_tags":["standard","long"],"duration":0.2986111111111111,"velocity":63.36105178793823},
{"position":147.16666666666666,"instrument":"TheGrandeurPiano","level2":8,"level3":null,"pitch":88,"articulation":"standard","articulation_tags":["standard","long"],"duration":0.2986111111111111,"velocity":64.63406901562257},
{"position":147.5,"instrument":"TheGrandeurPiano","level2":8,"level3":null,"pitch":88,"articulation":"standard","articulation_tags":["standard","long"],"duration":0.2916666666666667,"velocity":63.94950707714928},
{"position":147.625,"instrument":"TheGrandeurPiano","level2":8,"level3":null,"pitch":88,"articulation":"standard","articulation_tags":["standard","long"],"duration":0.2847222222222222,"velocity":62.024567693170795},
{"position":147.9375,"instrument":"TheGrandeurPiano","level2":8,"level3":null,"pitch":88,"articulation":"standard","articulation_tags":["standard","long"],"duration":0.2916666666666667,"velocity":63.426820618400455},
{"position":148.05208333333334,"instrument":"TheGrandeurPiano","level2":8,"level3":null,"pitch":87,"articulation":"standard","articulation_tags":["standard","long"],"duration":0.2638888888888889,"velocity":63.426820618400455},
{"position":148.27083333333334,"instrument":"Glockenspiel","level2":8,"level3":5,"pitch":96,"articulation":"hits","articulation_tags":["hits","short"],"duration":0.0625,"velocity":115.79291128870784},
{"position":148.375,"instrument":"TheGrandeurPiano","level2":8,"level3":null,"pitch":87,"articulation":"standard","articulation_tags":["standard","long"],"duration":0.2916666666666667,"velocity":63.55806705092045},
{"position":148.38541666666666,"instrument":"Glockenspiel","level2":8,"level3":2,"pitch":96,"articulation":"hits","articulation_tags":["hits","short"],"duration":0.0625,"velocity":115.58259905967407},
{"position":148.44791666666666,"instrument":"TheGrandeurPiano","level2":8,"level3":null,"pitch":87,"articulation":"standard","articulation_tags":["standard","long"],"duration":0.25,"velocity":62.024567693170795},
{"position":148.82291666666666,"instrument":"TheGrandeurPiano","level2":8,"level3":null,"pitch":87,"articulation":"standard","articulation_tags":["standard","long"],"duration":0.2916666666666667,"velocity":62.564081780790424},
{"position":148.82291666666666,"instrument":"TheGrandeurPiano","level2":8,"level3":null,"pitch":86,"articulation":"standard","articulation_tags":["standard","long"],"duration":0.2361111111111111,"velocity":62.564081780790424},
{"position":149.17708333333334,"instrument":"TheGrandeurPiano","level2":8,"level3":null,"pitch":86,"articulation":"standard","articulation_tags":["standard","long"],"duration":0.22916666666666666,"velocity":63.36105178793823},
{"position":149.26041666666666,"instrument":"TheGrandeurPiano","level2":8,"level3":null,"pitch":86,"articulation":"standard","articulation_tags":["standard","long"],"duration":0.2916666666666667,"velocity":64.42871664583765},
{"position":149.46875,"instrument":"Glockenspiel","level2":8,"level3":12,"pitch":96,"articulation":"hits","articulation_tags":["hits","short"],"duration":0.0625,"velocity":114.44373583347641},
{"position":149.46875,"instrument":"Glockenspiel","level2":8,"level3":13,"pitch":96,"articulation":"hits","articulation_tags":["hits","short"],"duration":0.0625,"velocity":114.44373583347641},
{"position":149.52083333333334,"instrument":"TheGrandeurPiano","level2":8,"level3":null,"pitch":85,"articulation":"standard","articulation_tags":["standard","long"],"duration":0.2152777777777778,"velocity":63.426820618400455},
{"position":149.69791666666666,"instrument":"TheGrandeurPiano","level2":8,"level3":null,"pitch":85,"articulation":"standard","articulation_tags":["standard","long"],"duration":0.2916666666666667,"velocity":62.564081780790424},
{"position":149.80208333333334,"instrument":"Piccolo","level2":8,"level3":3,"pitch":95,"articulation":"staccato","articulation_tags":["staccato","st","short"],"duration":0.125,"velocity":113.99404871286788},
{"position":149.84375,"instrument":"TheGrandeurPiano","level2":8,"level3":null,"pitch":85,"articulation":"standard","articulation_tags":["standard","long"],"duration":0.20833333333333334,"velocity":64.90653091787455},
{"position":150.125,"instrument":"TheGrandeurPiano","level2":8,"level3":null,"pitch":85,"articulation":"standard","articulation_tags":["standard","long"],"duration":0.2916666666666667,"velocity":63.55806705092045},
{"position":150.15625,"instrument":"TheGrandeurPiano","level2":8,"level3":null,"pitch":96,"articulation":"standard","articulation_tags":["standard","long"],"duration":0.2013888888888889,"velocity":63.55806705092045},
{"position":150.45833333333334,"instrument":"TheGrandeurPiano","level2":8,"level3":null,"pitch":96,"articulation":"standard","articulation_tags":["standard","long"],"duration":0.19444444444444445,"velocity":63.09699556231192},
{"position":150.5625,"instrument":"TheGrandeurPiano","level2":8,"level3":null,"pitch":96,"articulation":"standard","articulation_tags":["standard","long"],"duration":0.2916666666666667,"velocity":65.2449884574752},
{"position":150.75,"instrument":"TheGrandeurPiano","level2":8,"level3":null,"pitch":95,"articulation":"standard","articulation_tags":["standard","long"],"duration":0.1875,"velocity":65.0421942323481},
{"position":150.92708333333334,"instrument":"Piccolo","level2":8,"level3":12,"pitch":96,"articulation":"staccato","articulation_tags":["staccato","st","short"],"duration":0.125,"velocity":112.61762457285656},
{"position":151.0,"instrument":"TheGrandeurPiano","level2":8,"level3":null,"pitch":95,"articulation":"standard","articulation_tags":["standard","long"],"duration":0.2916666666666667,"velocity":64.97440955001079},
{"position":151.03125,"instrument":"TheGrandeurPiano","level2":8,"level3":null,"pitch":95,"articulation":"standard","articulation_tags":["standard","long"],"duration":0.18055555555555555,"velocity":64.97440955001079},
{"position":151.30208333333334,"instrument":"TheGrandeurPiano","level2":8,"level3":null,"pitch":94,"articulation":"standard","articulation_tags":["standard","long"],"duration":0.1736111111111111,"velocity":65.2449884574752},
{"position":151.4375,"instrument":"TheGrandeurPiano","level2":8,"level3":null,"pitch":94,"articulation":"standard","articulation_tags":["standard","long"],"duration":0.2916666666666667,"velocity":65.2449884574752},
{"position":151.5625,"instrument":"TheGrandeurPiano","level2":8,"level3":null,"pitch":94,"articulation":"standard","articulation_tags":["standard","long"],"duration":0.16666666666666666,"velocity":65.58113562568644},
{"position":151.8125,"instrument":"TheGrandeurPiano","level2":8,"level3":null,"pitch":93,"articulation":"standard","articulation_tags":["standard","long"],"duration":0.16666666666666666,"velocity":63.55806705092045},
{"position":151.86458333333334,"instrument":"TheGrandeurPiano","level2":8,"level3":null,"pitch":93,"articulation":"standard","articulation_tags":["standard","long"],"duration":0.2916666666666667,"velocity":64.15355125593703},
{"position":152.05208333333334,"instrument":"TheGrandeurPiano","level2":8,"level3":null,"pitch":93,"articulation":"standard","articulation_tags":["standard","long"],"duration":0.1597222222222222,"velocity":64.90653091787455},
{"position":152.07291666666666,"instrument":"Piccolo","level2":8,"level3":0,"pitch":96,"articulation":"staccato","articulation_tags":["staccato","st","short"],"duration":0.125,"velocity":110.79453418928385},
{"position":152.29166666666666,"instrument":"TheGrandeurPiano","level2":8,"level3":null,"pitch":92,"articulation":"standard","articulation_tags":["standard","long"],"duration":0.1527777777777778,"velocity":65.78173443127733},
{"position":152.30208333333334,"instrument":"TheGrandeurPiano","level2":8,"level3":null,"pitch":92,"articulation":"standard","articulation_tags":["standard","long"],"duration":0.2916666666666667,"velocity":65.78173443127733},
{"position":152.52083333333334,"instrument":"TheGrandeurPiano","level2":8,"level3":null,"pitch":92,"articulation":"standard","articulation_tags":["standard","long"],"duration":0.1527777777777778,"velocity":64.42871664583765},
{"position":152.73958333333334,"instrument":"TheGrandeurPiano","level2":8,"level3":null,"pitch":92,"articulation":"standard","articulation_tags":["standard","long"],"duration":0.2916666666666667,"velocity":65.58113562568644},
{"position":152.75,"instrument":"TheGrandeurPiano","level2":8,"level3":null,"pitch":91,"articulation":"standard","articulation_tags":["standard","long"],"duration":0.14583333333333334,"velocity":65.58113562568644},
{"position":152.96875,"instrument":"TheGrandeurPiano","level2":8,"level3":null,"pitch":91,"articulation":"standard","articulation_tags":["standard","long"],"duration":0.1388888888888889,"velocity":64.63406901562257},
{"position":153.17708333333334,"instrument":"TheGrandeurPiano","level2":8,"level3":null,"pitch":91,"articulation":"standard","articulation_tags":["standard","long"],"duration":0.2916666666666667,"velocity":66.0479488130223},
{"position":153.17708333333334,"instrument":"TheGrandeurPiano","level2":8,"level3":null,"pitch":90,"articulation":"standard","articulation_tags":["standard","long"],"duration":0.1388888888888889,"velocity":66.0479488130223},
{"position":153.38541666666666,"instrument":"TheGrandeurPiano","level2":8,"level3":null,"pitch":90,"articulation":"standard","articulation_tags":["standard","long"],"duration":0.13194444444444445,"velocity":65.51408875846897},
{"position":153.58333333333334,"instrument":"TheGrandeurPiano","level2":8,"level3":null,"pitch":89,"articulation":"standard","articulation_tags":["standard","long"],"duration":0.13194444444444445,"velocity":67.16390909968453},
{"position":153.61458333333334,"instrument":"TheGrandeurPiano","level2":8,"level3":null,"pitch":89,"articulation":"standard","articulation_tags":["standard","long"],"duration":0.2916666666666667,"velocity":67.16390909968453},
{"position":153.78125,"instrument":"TheGrandeurPiano","level2":8,"level3":null,"pitch":89,"articulation":"standard","articulation_tags":["standard","long"],"duration":0.125,"velocity":65.2449884574752},
{"position":153.97916666666666,"instrument":"TheGrandeurPiano","level2":8,"level3":null,"pitch":88,"articulation":"standard","articulation_tags":["standard","long"],"duration":0.125,"velocity":65.2449884574752},
{"position":154.05208333333334,"instrument":"TheGrandeurPiano","level2":8,"level3":null,"pitch":88,"articulation":"standard","articulation_tags":["standard","long"],"duration":0.2986111111111111,"velocity":65.2449884574752},
{"position":154.16666666666666,"instrument":"TheGrandeurPiano","level2":8,"level3":null,"pitch":88,"articulation":"standard","articulation_tags":["standard","long"],"duration":0.125,"velocity":67.16390909968453},
{"position":154.26041666666666,"instrument":"Clarinet","level2":9,"level3":0,"pitch":78,"articulation":"legato","articulation_tags":["legato","lg"],"duration":0.23958333333333334,"velocity":86.75901202151168},
{"position":154.26041666666666,"instrument":"Clarinet","level2":9,"level3":1,"pitch":79,"articulation":"legato","articulation_tags":["legato","lg"],"duration":0.020833333333333332,"velocity":86.75901202151168},
{"position":154.29166666666666,"instrument":"Clarinet","level2":9,"level3":1,"pitch":79,"articulation":"legato","articulation_tags":["legato","lg"],"duration":0.6666666666666666,"velocity":86.75901202151168},
{"position":154.30208333333334,"instrument":"Bassoon","level2":10,"level3":0,"pitch":68,"articulation":"trill_2m","articulation_tags":["trill_2m","long","trill","m2"],"duration":0.34375,"velocity":86.75901202151168},
{"position":154.30208333333334,"instrument":"CorAnglais","level2":10,"level3":1,"pitch":68,"articulation":"trill_2m","articulation_tags":["trill_2m","long","trill","m2"],"duration":0.3125,"velocity":86.75901202151168},
{"position":154.34375,"instrument":"TheGrandeurPiano","level2":9,"level3":null,"pitch":61,"articulation":"standard","articulation_tags":["standard","long"],"duration":0.0,"velocity":65.51408875846897},
{"position":154.34375,"instrument":"TheGrandeurPiano","level2":9,"level3":null,"pitch":61,"articulation":"standard","articulation_tags":["standard","long"],"duration":0.0,"velocity":65.51408875846897},
{"position":154.34375,"instrument":"TheGrandeurPiano","level2":9,"level3":null,"pitch":61,"articulation":"standard","articulation_tags":["standard","long"],"duration":0.006944444444444444,"velocity":65.51408875846897},
{"position":154.34375,"instrument":"TheGrandeurPiano","level2":9,"level3":null,"pitch":61,"articulation":"standard","articulation_tags":["standard","long"],"duration":0.006944444444444444,"velocity":65.51408875846897},
{"position":154.34375,"instrument":"TheGrandeurPiano","level2":10,"level3":null,"pitch":60,"articulation":"standard","articulation_tags":["standard","long"],"duration":0.0,"velocity":65.51408875846897},
{"position":154.34375,"instrument":"TheGrandeurPiano","level2":10,"level3":null,"pitch":60,"articulation":"standard","articulation_tags":["standard","long"],"duration":0.006944444444444444,"velocity":65.51408875846897},
{"position":154.34375,"instrument":"TheGrandeurPiano","level2":10,"level3":null,"pitch":60,"articulation":"standard","articulation_tags":["standard","long"],"duration":0.0,"velocity":65.51408875846897},
{"position":154.34375,"instrument":"TheGrandeurPiano","level2":10,"level3":null,"pitch":60,"articulation":"standard","articulation_tags":["standard","long"],"duration":0.006944444444444444,"velocity":65.51408875846897},
{"position":154.34375,"instrument":"TheGrandeurPiano","level2":8,"level3":null,"pitch":87,"articulation":"standard","articulation_tags":["standard","long"],"duration":0.11805555555555555,"velocity":65.51408875846897},
{"position":154.35416666666666,"instrument":"TheGrandeurPiano","level2":9,"level3":null,"pitch":61,"articulation":"standard","articulation_tags":["standard","long"],"duration":0.006944444444444444,"velocity":65.51408875846897},
{"position":154.35416666666666,"instrument":"TheGrandeurPiano","level2":9,"level3":null,"pitch":62,"articulation":"standard","articulation_tags":["standard","long"],"duration":0.013888888888888888,"velocity":65.51408875846897},
{"position":154.35416666666666,"instrument":"TheGrandeurPiano","level2":10,"level3":null,"pitch":60,"articulation":"standard","articulation_tags":["standard","long"],"duration":0.013888888888888888,"velocity":65.51408875846897},
{"position":154.35416666666666,"instrument":"TheGrandeurPiano","level2":10,"level3":null,"pitch":60,"articulation":"standard","articulation_tags":["standard","long"],"duration":0.006944444444444444,"velocity":65.51408875846897},
{"position":154.36458333333334,"instrument":"TheGrandeurPiano","level2":9,"level3":null,"pitch":62,"articulation":"standard","articulation_tags":["standard","long"],"duration":0.013888888888888888,"velocity":65.51408875846897},
{"position":154.36458333333334,"instrument":"TheGrandeurPiano","level2":10,"level3":null,"pitch":60,"articulation":"standard","articulation_tags":["standard","long"],"duration":0.006944444444444444,"velocity":65.51408875846897},
{"position":154.375,"instrument":"TheGrandeurPiano","level2":9,"level3":null,"pitch":62,"articulation":"standard","articulation_tags":["standard","long"],"duration":0.020833333333333332,"velocity":67.55201005264294},
{"position":154.375,"instrument":"TheGrandeurPiano","level2":10,"level3":null,"pitch":59,"articulation":"standard","articulation_tags":["standard","long"],"duration":0.020833333333333332,"velocity":67.55201005264294},
{"position":154.375,"instrument":"TheGrandeurPiano","level2":10,"level3":null,"pitch":59,"articulation":"standard","articulation_tags":["standard","long"],"duration":0.013888888888888888,"velocity":67.55201005264294},
{"position":154.38541666666666,"instrument":"TheGrandeurPiano","level2":9,"level3":null,"pitch":62,"articulation":"standard","articulation_tags":["standard","long"],"duration":0.013888888888888888,"velocity":67.55201005264294},
{"position":154.39583333333334,"instrument":"TheGrandeurPiano","level2":10,"level3":null,"pitch":59,"articulation":"standard","articulation_tags":["standard","long"],"duration":0.013888888888888888,"velocity":67.55201005264294},
{"position":154.40625,"instrument":"TheGrandeurPiano","level2":9,"level3":null,"pitch":63,"articulation":"standard","articulation_tags":["standard","long"],"duration":0.020833333333333332,"velocity":67.55201005264294},
{"position":154.40625,"instrument":"TheGrandeurPiano","level2":9,"level3":null,"pitch":63,"articulation":"standard","articulation_tags":["standard","long"],"duration":0.013888888888888888,"velocity":67.55201005264294},
{"position":154.40625,"instrument":"TheGrandeurPiano","level2":10,"level3":null,"pitch":59,"articulation":"standard","articulation_tags":["standard","long"],"duration":0.034722222222222224,"velocity":67.55201005264294},
{"position":154.41666666666666,"instrument":"TheGrandeurPiano","level2":10,"level3":null,"pitch":59,"articulation":"standard","articulation_tags":["standard","long"],"duration":0.020833333333333332,"velocity":67.55201005264294},
{"position":154.42708333333334,"instrument":"TheGrandeurPiano","level2":9,"level3":null,"pitch":63,"articulation":"standard","articulation_tags":["standard","long"],"duration":0.020833333333333332,"velocity":67.55201005264294},
{"position":154.4375,"instrument":"TheGrandeurPiano","level2":9,"level3":null,"pitch":63,"articulation":"standard","articulation_tags":["standard","long"],"duration":0.027777777777777776,"velocity":67.55201005264294},
{"position":154.44791666666666,"instrument":"TheGrandeurPiano","level2":10,"level3":null,"pitch":59,"articulation":"standard","articulation_tags":["standard","long"],"duration":0.020833333333333332,"velocity":67.55201005264294},
{"position":154.45833333333334,"instrument":"TheGrandeurPiano","level2":9,"level3":null,"pitch":63,"articulation":"standard","articulation_tags":["standard","long"],"duration":0.020833333333333332,"velocity":67.55201005264294},
{"position":154.45833333333334,"instrument":"TheGrandeurPiano","level2":10,"level3":null,"pitch":58,"articulation":"standard","articulation_tags":["standard","long"],"duration":0.04861111111111111,"velocity":67.55201005264294},
{"position":154.47916666666666,"instrument":"TheGrandeurPiano","level2":9,"level3":null,"pitch":64,"articulation":"standard","articulation_tags":["standard","long"],"duration":0.027777777777777776,"velocity":67.55201005264294},
{"position":154.47916666666666,"instrument":"TheGrandeurPiano","level2":10,"level3":null,"pitch":58,"articulation":"standard","articulation_tags":["standard","long"],"duration":0.020833333333333332,"velocity":67.55201005264294},
{"position":154.5,"instrument":"Trumpet","level2":9,"level3":0,"pitch":78,"articulation":"sforzando","articulation_tags":["sforzando","sfz","long"],"duration":1.5625,"velocity":81.68743497809075},
{"position":154.5,"instrument":"TheGrandeurPiano","level2":8,"level3":null,"pitch":87,"articulation":"standard","articulation_tags":["standard","long"],"duration":0.2986111111111111,"velocity":66.0479488130223},
{"position":154.5,"instrument":"TheGrandeurPiano","level2":9,"level3":null,"pitch":64,"articulation":"standard","articulation_tags":["standard","long"],"duration":0.027777777777777776,"velocity":66.0479488130223},
{"position":154.51041666666666,"instrument":"TheGrandeurPiano","level2":10,"level3":null,"pitch":58,"articulation":"standard","articulation_tags":["standard","long"],"duration":0.027777777777777776,"velocity":66.0479488130223},
{"position":154.52083333333334,"instrument":"TheGrandeurPiano","level2":8,"level3":null,"pitch":87,"articulation":"standard","articulation_tags":["standard","long"],"duration":0.11805555555555555,"velocity":66.0479488130223},
{"position":154.52083333333334,"instrument":"TheGrandeurPiano","level2":9,"level3":null,"pitch":64,"articulation":"standard","articulation_tags":["standard","long"],"duration":0.034722222222222224,"velocity":66.0479488130223},
{"position":154.53125,"instrument":"TheGrandeurPiano","level2":9,"level3":null,"pitch":64,"articulation":"standard","articulation_tags":["standard","long"],"duration":0.027777777777777776,"velocity":66.0479488130223},
{"position":154.54166666666666,"instrument":"TheGrandeurPiano","level2":10,"level3":null,"pitch":58,"articulation":"standard","articulation_tags":["standard","long"],"duration":0.0763888888888889,"velocity":66.0479488130223},
{"position":154.55208333333334,"instrument":"TheGrandeurPiano","level2":10,"level3":null,"pitch":58,"articulation":"standard","articulation_tags":["standard","long"],"duration":0.027777777777777776,"velocity":66.0479488130223},
{"position":154.57291666666666,"instrument":"TheGrandeurPiano","level2":9,"level3":null,"pitch":65,"articulation":"standard","articulation_tags":["standard","long"],"duration":0.034722222222222224,"velocity":66.0479488130223},
{"position":154.57291666666666,"instrument":"TheGrandeurPiano","level2":9,"level3":null,"pitch":65,"articulation":"standard","articulation_tags":["standard","long"],"duration":0.034722222222222224,"velocity":66.0479488130223},
{"position":154.59375,"instrument":"Flute","level2":10,"level3":2,"pitch":68,"articulation":"trill_2m","articulation_tags":["trill_2m","long","trill","m2"],"duration":3.7083333333333335,"velocity":95.8486651491442},
{"position":154.59375,"instrument":"Oboe","level2":10,"level3":3,"pitch":68,"articulation":"trill_2m","articulation_tags":["trill_2m","long","trill","m2"],"duration":0.11458333333333333,"velocity":95.8486651491442},
{"position":154.59375,"instrument":"TheGrandeurPiano","level2":10,"level3":null,"pitch":58,"articulation":"standard","articulation_tags":["standard","long"],"duration":0.027777777777777776,"velocity":66.0479488130223},
{"position":154.61458333333334,"instrument":"CorAnglais","level2":10,"level3":1,"pitch":68,"articulation":"trill_2m","articulation_tags":["trill_2m","long","trill","m2"],"duration":4.4375,"velocity":96.42889281663741},
{"position":154.625,"instrument":"TheGrandeurPiano","level2":9,"level3":null,"pitch":65,"articulation":"standard","articulation_tags":["standard","long"],"duration":0.034722222222222224,"velocity":66.0479488130223},
{"position":154.625,"instrument":"TheGrandeurPiano","level2":9,"level3":null,"pitch":65,"articulation":"standard","articulation_tags":["standard","long"],"duration":0.034722222222222224,"velocity":66.0479488130223},
{"position":154.63541666666666,"instrument":"TheGrandeurPiano","level2":10,"level3":null,"pitch":58,"articulation":"standard","articulation_tags":["standard","long"],"duration":0.034722222222222224,"velocity":66.0479488130223},
{"position":154.64583333333334,"instrument":"TheGrandeurPiano","level2":10,"level3":null,"pitch":57,"articulation":"standard","articulation_tags":["standard","long"],"duration":0.10416666666666667,"velocity":66.0479488130223},
{"position":154.65625,"instrument":"Bassoon","level2":10,"level3":0,"pitch":68,"articulation":"trill_2m","articulation_tags":["trill_2m","long","trill","m2"],"duration":6.354166666666667,"velocity":97.27273368934252},
{"position":154.66666666666666,"instrument":"Piccolo","level2":9,"level3":0,"pitch":78,"articulation":"legato","articulation_tags":["legato","lg"],"duration":5.260416666666667,"velocity":78.60103171494009},
{"position":154.67708333333334,"instrument":"TheGrandeurPiano","level2":9,"level3":null,"pitch":66,"articulation":"standard","articulation_tags":["standard","long"],"duration":0.041666666666666664,"velocity":66.0479488130223},
{"position":154.67708333333334,"instrument":"TheGrandeurPiano","level2":9,"level3":null,"pitch":66,"articulation":"standard","articulation_tags":["standard","long"],"duration":0.041666666666666664,"velocity":66.0479488130223},
{"position":154.6875,"instrument":"TheGrandeurPiano","level2":10,"level3":null,"pitch":57,"articulation":"standard","articulation_tags":["standard","long"],"duration":0.034722222222222224,"velocity":68.19243224816691},
{"position":154.69791666666666,"instrument":"TheGrandeurPiano","level2":8,"level3":null,"pitch":86,"articulation":"standard","articulation_tags":["standard","long"],"duration":0.1111111111111111,"velocity":68.19243224816691},
{"position":154.70833333333334,"instrument":"Oboe","level2":10,"level3":3,"pitch":68,"articulation":"trill_2m","articulation_tags":["trill_2m","long","trill","m2"],"duration":4.583333333333333,"velocity":97.85278935362054},
{"position":154.72916666666666,"instrument":"Glockenspiel","level2":8,"level3":3,"pitch":95,"articulation":"hits","articulation_tags":["hits","short"],"duration":0.0625,"velocity":106.47256089716797},
{"position":154.73958333333334,"instrument":"TheGrandeurPiano","level2":9,"level3":null,"pitch":66,"articulation":"standard","articulation_tags":["standard","long"],"duration":0.041666666666666664,"velocity":68.19243224816691},
{"position":154.73958333333334,"instrument":"TheGrandeurPiano","level2":9,"level3":null,"pitch":66,"articulation":"standard","articulation_tags":["standard","long"],"duration":0.041666666666666664,"velocity":68.19243224816691},
{"position":154.73958333333334,"instrument":"TheGrandeurPiano","level2":10,"level3":null,"pitch":57,"articulation":"standard","articulation_tags":["standard","long"],"duration":0.034722222222222224,"velocity":66.83822845659489},
{"position":154.79166666666666,"instrument":"TheGrandeurPiano","level2":10,"level3":null,"pitch":57,"articulation":"standard","articulation_tags":["standard","long"],"duration":0.041666666666666664,"velocity":66.83822845659489},
{"position":154.80208333333334,"instrument":"TheGrandeurPiano","level2":9,"level3":null,"pitch":67,"articulation":"standard","articulation_tags":["standard","long"],"duration":0.041666666666666664,"velocity":66.83822845659489},
{"position":154.80208333333334,"instrument":"TheGrandeurPiano","level2":9,"level3":null,"pitch":67,"articulation":"standard","articulation_tags":["standard","long"],"duration":0.04861111111111111,"velocity":66.83822845659489},
{"position":154.80208333333334,"instrument":"TheGrandeurPiano","level2":10,"level3":null,"pitch":57,"articulation":"standard","articulation_tags":["standard","long"],"duration":0.1527777777777778,"velocity":66.83822845659489},
{"position":154.84375,"instrument":"Glockenspiel","level2":8,"level3":0,"pitch":95,"articulation":"hits","articulation_tags":["hits","short"],"duration":0.0625,"velocity":106.47256089716797},
{"position":154.85416666666666,"instrument":"TheGrandeurPiano","level2":10,"level3":null,"pitch":57,"articulation":"standard","articulation_tags":["standard","long"],"duration":0.041666666666666664,"velocity":66.83822845659489},
{"position":154.86458333333334,"instrument":"TheGrandeurPiano","level2":8,"level3":null,"pitch":86,"articulation":"standard","articulation_tags":["standard","long"],"duration":0.1111111111111111,"velocity":66.83822845659489},
{"position":154.86458333333334,"instrument":"TheGrandeurPiano","level2":9,"level3":null,"pitch":67,"articulation":"standard","articulation_tags":["standard","long"],"duration":0.041666666666666664,"velocity":66.83822845659489},
{"position":154.86458333333334,"instrument":"TheGrandeurPiano","level2":9,"level3":null,"pitch":67,"articulation":"standard","articulation_tags":["standard","long"],"duration":0.04861111111111111,"velocity":66.83822845659489},
{"position":154.875,"instrument":"Clarinet","level2":9,"level3":2,"pitch":78,"articulation":"legato","articulation_tags":["legato","lg"],"duration":0.03125,"velocity":75.29616755715811},
{"position":154.875,"instrument":"Oboe","level2":9,"level3":3,"pitch":78,"articulation":"legato","articulation_tags":["legato","lg"],"duration":0.020833333333333332,"velocity":75.29616755715811},
{"position":154.88541666666666,"instrument":"FrenchHorn","level2":10,"level3":4,"pitch":67,"articulation":"multitongue","articulation_tags":["multitongue","short"],"duration":0.25,"velocity":113.92872217804026},
{"position":154.88541666666666,"instrument":"FrenchHorn","level2":10,"level3":5,"pitch":67,"articulation":"multitongue","articulation_tags":["multitongue","short"],"duration":0.25,"velocity":113.92872217804026},
{"position":154.89583333333334,"instrument":"Clarinet","level2":9,"level3":2,"pitch":78,"articulation":"legato","articulation_tags":["legato","lg"],"duration":4.364583333333333,"velocity":75.29616755715811},
{"position":154.89583333333334,"instrument":"Oboe","level2":9,"level3":3,"pitch":78,"articulation":"legato","articulation_tags":["legato","lg"],"duration":0.875,"velocity":75.29616755715811},
{"position":154.89583333333334,"instrument":"FrenchHorn","level2":10,"level3":5,"pitch":67,"articulation":"multitongue","articulation_tags":["multitongue","short"],"duration":0.25,"velocity":113.92872217804026},
{"position":154.91666666666666,"instrument":"TheGrandeurPiano","level2":10,"level3":null,"pitch":57,"articulation":"standard","articulation_tags":["standard","long"],"duration":0.041666666666666664,"velocity":66.83822845659489},
{"position":154.92708333333334,"instrument":"TheGrandeurPiano","level2":9,"level3":null,"pitch":68,"articulation":"standard","articulation_tags":["standard","long"],"duration":0.04861111111111111,"velocity":66.83822845659489},
{"position":154.94791666666666,"instrument":"TheGrandeurPiano","level2":8,"level3":null,"pitch":86,"articulation":"standard","articulation_tags":["standard","long"],"duration":0.2986111111111111,"velocity":66.83822845659489},
{"position":154.94791666666666,"instrument":"TheGrandeurPiano","level2":9,"level3":null,"pitch":68,"articulation":"standard","articulation_tags":["standard","long"],"duration":0.05555555555555555,"velocity":66.83822845659489},
{"position":154.95833333333334,"instrument":"Clarinet","level2":9,"level3":1,"pitch":79,"articulation":"long_fltr","articulation_tags":["long_fltr","fltr","long","flutter"],"duration":4.354166666666667,"velocity":74.47549136871746},
{"position":154.97916666666666,"instrument":"TheGrandeurPiano","level2":10,"level3":null,"pitch":57,"articulation":"standard","articulation_tags":["standard","long"],"duration":0.04861111111111111,"velocity":65.58113562568644},
{"position":155.0,"instrument":"TheGrandeurPiano","level2":9,"level3":null,"pitch":68,"articulation":"standard","articulation_tags":["standard","long"],"duration":0.04861111111111111,"velocity":65.58113562568644},
{"position":155.02083333333334,"instrument":"TheGrandeurPiano","level2":10,"level3":null,"pitch":56,"articulation":"standard","articulation_tags":["standard","long"],"duration":0.2361111111111111,"velocity":65.58113562568644},
{"position":155.02083333333334,"instrument":"TheGrandeurPiano","level2":9,"level3":null,"pitch":68,"articulation":"standard","articulation_tags":["standard","long"],"duration":0.05555555555555555,"velocity":65.58113562568644},
{"position":155.03125,"instrument":"TheGrandeurPiano","level2":8,"level3":null,"pitch":85,"articulation":"standard","articulation_tags":["standard","long"],"duration":0.1111111111111111,"velocity":65.58113562568644},
{"position":155.05208333333334,"instrument":"TheGrandeurPiano","level2":10,"level3":null,"pitch":56,"articulation":"standard","articulation_tags":["standard","long"],"duration":0.04861111111111111,"velocity":67.87320948450795},
{"position":155.07291666666666,"instrument":"TheGrandeurPiano","level2":9,"level3":null,"pitch":69,"articulation":"standard","articulation_tags":["standard","long"],"duration":0.04861111111111111,"velocity":67.87320948450795},
{"position":155.11458333333334,"instrument":"TheGrandeurPiano","level2":9,"level3":null,"pitch":69,"articulation":"standard","articulation_tags":["standard","long"],"duration":0.0625,"velocity":67.87320948450795},
{"position":155.125,"instrument":"TheGrandeurPiano","level2":10,"level3":null,"pitch":56,"articulation":"standard","articulation_tags":["standard","long"],"duration":0.05555555555555555,"velocity":67.87320948450795},
{"position":155.14583333333334,"instrument":"TheGrandeurPiano","level2":9,"level3":null,"pitch":69,"articulation":"standard","articulation_tags":["standard","long"],"duration":0.04861111111111111,"velocity":67.87320948450795},
{"position":155.17708333333334,"instrument":"FrenchHorn","level2":10,"level3":6,"pitch":67,"articulation":"multitongue","articulation_tags":["multitongue","short"],"duration":0.25,"velocity":115.22236744930885},
{"position":155.17708333333334,"instrument":"FrenchHorn","level2":10,"level3":7,"pitch":67,"articulation":"multitongue","articulation_tags":["multitongue","short"],"duration":0.25,"velocity":115.22236744930885},
{"position":155.19791666666666,"instrument":"TheGrandeurPiano","level2":8,"level3":null,"pitch":85,"articulation":"standard","articulation_tags":["standard","long"],"duration":0.10416666666666667,"velocity":66.77284164052435},
{"position":155.20833333333334,"instrument":"TheGrandeurPiano","level2":10,"level3":null,"pitch":56,"articulation":"standard","articulation_tags":["standard","long"],"duration":0.05555555555555555,"velocity":66.77284164052435},
{"position":155.20833333333334,"instrument":"TheGrandeurPiano","level2":9,"level3":null,"pitch":69,"articulation":"standard","articulation_tags":["standard","long"],"duration":0.06944444444444445,"velocity":66.77284164052435},
{"position":155.21875,"instrument":"Marimba","level2":9,"level3":2,"pitch":78,"articulation":"hits","articulation_tags":["hits","short"],"duration":0.0625,"velocity":100.01415875262195},
{"position":155.21875,"instrument":"TheGrandeurPiano","level2":9,"level3":null,"pitch":70,"articulation":"standard","articulation_tags":["standard","long"],"duration":0.04861111111111111,"velocity":66.77284164052435},
{"position":155.29166666666666,"instrument":"TheGrandeurPiano","level2":10,"level3":null,"pitch":56,"articulation":"standard","articulation_tags":["standard","long"],"duration":0.05555555555555555,"velocity":66.77284164052435},
{"position":155.29166666666666,"instrument":"TheGrandeurPiano","level2":9,"level3":null,"pitch":70,"articulation":"standard","articulation_tags":["standard","long"],"duration":0.04861111111111111,"velocity":66.77284164052435},
{"position":155.30208333333334,"instrument":"TheGrandeurPiano","level2":9,"level3":null,"pitch":70,"articulation":"standard","articulation_tags":["standard","long"],"duration":0.06944444444444445,"velocity":66.77284164052435},
{"position":155.35416666666666,"instrument":"TheGrandeurPiano","level2":8,"level3":null,"pitch":96,"articulation":"standard","articulation_tags":["standard","long"],"duration":0.10416666666666667,"velocity":66.77284164052435},
{"position":155.375,"instrument":"TheGrandeurPiano","level2":10,"level3":null,"pitch":56,"articulation":"standard","articulation_tags":["standard","long"],"duration":0.0625,"velocity":66.77284164052435},
{"position":155.375,"instrument":"TheGrandeurPiano","level2":10,"level3":null,"pitch":56,"articulation":"standard","articulation_tags":["standard","long"],"duration":0.5555555555555556,"velocity":66.77284164052435},
{"position":155.375,"instrument":"TheGrandeurPiano","level2":9,"level3":null,"pitch":71,"articulation":"standard","articulation_tags":["standard","long"],"duration":0.05555555555555555,"velocity":66.77284164052435},
{"position":155.38541666666666,"instrument":"FrenchHorn","level2":10,"level3":6,"pitch":67,"articulation":"multitongue","articulation_tags":["multitongue","short"],"duration":0.25,"velocity":116.22545860666744},
{"position":155.39583333333334,"instrument":"TheGrandeurPiano","level2":8,"level3":null,"pitch":96,"articulation":"standard","articulation_tags":["standard","long"],"duration":0.3055555555555556,"velocity":66.77284164052435},
{"position":155.41666666666666,"instrument":"TheGrandeurPiano","level2":9,"level3":null,"pitch":71,"articulation":"standard","articulation_tags":["standard","long"],"duration":0.0763888888888889,"velocity":65.78173443127733},
{"position":155.44791666666666,"instrument":"TheGrandeurPiano","level2":9,"level3":null,"pitch":71,"articulation":"standard","articulation_tags":["standard","long"],"duration":0.05555555555555555,"velocity":68.19243224816691},
{"position":155.46875,"instrument":"FrenchHorn","level2":10,"level3":8,"pitch":67,"articulation":"multitongue","articulation_tags":["multitongue","short"],"duration":0.25,"velocity":116.22545860666744},
{"position":155.46875,"instrument":"FrenchHorn","level2":10,"level3":9,"pitch":67,"articulation":"multitongue","articulation_tags":["multitongue","short"],"duration":0.25,"velocity":116.22545860666744},
{"position":155.46875,"instrument":"TheGrandeurPiano","level2":10,"level3":null,"pitch":56,"articulation":"standard","articulation_tags":["standard","long"],"duration":0.0625,"velocity":68.19243224816691},
{"position":155.47916666666666,"instrument":"Marimba","level2":9,"level3":4,"pitch":78,"articulation":"hits","articulation_tags":["hits","short"],"duration":0.0625,"velocity":99.01042668966733},
{"position":155.47916666666666,"instrument":"Marimba","level2":9,"level3":5,"pitch":79,"articulation":"hits","articulation_tags":["hits","short"],"duration":0.0625,"velocity":99.01042668966733},
{"position":155.5,"instrument":"Vibraphone","level2":9,"level3":5,"pitch":79,"articulation":"hits","articulation_tags":["hits","short"],"duration":0.0625,"velocity":99.01042668966733},
{"position":155.51041666666666,"instrument":"TheGrandeurPiano","level2":8,"level3":null,"pitch":96,"articulation":"standard","articulation_tags":["standard","long"],"duration":0.10416666666666667,"velocity":68.19243224816691},
{"position":155.53125,"instrument":"TheGrandeurPiano","level2":9,"level3":null,"pitch":71,"articulation":"standard","articulation_tags":["standard","long"],"duration":0.08333333333333333,"velocity":68.19243224816691},
{"position":155.53125,"instrument":"TheGrandeurPiano","level2":9,"level3":null,"pitch":72,"articulation":"standard","articulation_tags":["standard","long"],"duration":0.05555555555555555,"velocity":68.19243224816691},
{"position":155.5625,"instrument":"TheGrandeurPiano","level2":10,"level3":null,"pitch":56,"articulation":"standard","articulation_tags":["standard","long"],"duration":0.0625,"velocity":68.19243224816691},
{"position":155.61458333333334,"instrument":"TheGrandeurPiano","level2":9,"level3":null,"pitch":72,"articulation":"standard","articulation_tags":["standard","long"],"duration":0.05555555555555555,"velocity":67.35832617418805},
{"position":155.65625,"instrument":"TheGrandeurPiano","level2":9,"level3":null,"pitch":72,"articulation":"standard","articulation_tags":["standard","long"],"duration":0.09027777777777778,"velocity":67.35832617418805},
{"position":155.66666666666666,"instrument":"TheGrandeurPiano","level2":8,"level3":null,"pitch":95,"articulation":"standard","articulation_tags":["standard","long"],"duration":0.09722222222222222,"velocity":67.35832617418805},
{"position":155.66666666666666,"instrument":"TheGrandeurPiano","level2":10,"level3":null,"pitch":56,"articulation":"standard","articulation_tags":["standard","long"],"duration":0.06944444444444445,"velocity":67.35832617418805},
{"position":155.67708333333334,"instrument":"FrenchHorn","level2":10,"level3":10,"pitch":67,"articulation":"multitongue","articulation_tags":["multitongue","short"],"duration":0.25,"velocity":117.10174549592668},
{"position":155.69791666666666,"instrument":"TheGrandeurPiano","level2":9,"level3":null,"pitch":73,"articulation":"standard","articulation_tags":["standard","long"],"duration":0.05555555555555555,"velocity":67.35832617418805},
{"position":155.77083333333334,"instrument":"Oboe","level2":9,"level3":3,"pitch":78,"articulation":"legato","articulation_tags":["legato","lg"],"duration":3.1458333333333335,"velocity":68.25934696393594},
{"position":155.77083333333334,"instrument":"TheGrandeurPiano","level2":10,"level3":null,"pitch":56,"articulation":"standard","articulation_tags":["standard","long"],"duration":0.06944444444444445,"velocity":67.35832617418805},
{"position":155.78125,"instrument":"TheGrandeurPiano","level2":9,"level3":null,"pitch":73,"articulation":"standard","articulation_tags":["standard","long"],"duration":0.05555555555555555,"velocity":67.35832617418805},
{"position":155.78125,"instrument":"TheGrandeurPiano","level2":9,"level3":null,"pitch":73,"articulation":"standard","articulation_tags":["standard","long"],"duration":0.09722222222222222,"velocity":67.35832617418805},
{"position":155.8125,"instrument":"TheGrandeurPiano","level2":8,"level3":null,"pitch":95,"articulation":"standard","articulation_tags":["standard","long"],"duration":0.09722222222222222,"velocity":67.35832617418805},
{"position":155.86458333333334,"instrument":"TheGrandeurPiano","level2":9,"level3":null,"pitch":74,"articulation":"standard","articulation_tags":["standard","long"],"duration":0.05555555555555555,"velocity":66.64181473398662},
{"position":155.86458333333334,"instrument":"TheGrandeurPiano","level2":8,"level3":null,"pitch":95,"articulation":"standard","articulation_tags":["standard","long"],"duration":0.3125,"velocity":66.64181473398662},
{"position":155.875,"instrument":"TheGrandeurPiano","level2":10,"level3":null,"pitch":56,"articulation":"standard","articulation_tags":["standard","long"],"duration":0.0763888888888889,"velocity":66.64181473398662},
{"position":155.88541666666666,"instrument":"Flute","level2":9,"level3":5,"pitch":79,"articulation":"legato","articulation_tags":["legato","lg"],"duration":1.5625,"velocity":67.31440968606069},
{"position":155.92708333333334,"instrument":"TheGrandeurPiano","level2":9,"level3":null,"pitch":74,"articulation":"standard","articulation_tags":["standard","long"],"duration":0.10416666666666667,"velocity":66.64181473398662},
{"position":155.9375,"instrument":"FrenchHorn","level2":10,"level3":4,"pitch":67,"articulation":"multitongue","articulation_tags":["multitongue","short"],"duration":0.25,"velocity":117.68771032689554},
{"position":155.94791666666666,"instrument":"TheGrandeurPiano","level2":9,"level3":null,"pitch":74,"articulation":"standard","articulation_tags":["standard","long"],"duration":0.05555555555555555,"velocity":66.64181473398662},
{"position":155.95833333333334,"instrument":"TheGrandeurPiano","level2":8,"level3":null,"pitch":94,"articulation":"standard","articulation_tags":["standard","long"],"duration":0.09722222222222222,"velocity":66.64181473398662},
{"position":155.97916666666666,"instrument":"TheGrandeurPiano","level2":10,"level3":null,"pitch":56,"articulation":"standard","articulation_tags":["standard","long"],"duration":0.0763888888888889,"velocity":66.64181473398662},
{"position":156.03125,"instrument":"FrenchHorn","level2":10,"level3":0,"pitch":68,"articulation":"multitongue","articulation_tags":["multitongue","short"],"duration":0.25,"velocity":117.98120448466352},
{"position":156.04166666666666,"instrument":"TheGrandeurPiano","level2":9,"level3":null,"pitch":75,"articulation":"standard","articulation_tags":["standard","long"],"duration":0.05555555555555555,"velocity":68.57294104467155},
{"position":156.0625,"instrument":"Trumpet","level2":9,"level3":0,"pitch":78,"articulation":"sforzando","articulation_tags":["sforzando","sfz","long"],"duration":2.1458333333333335,"velocity":66.39205257586943},
{"position":156.0625,"instrument":"Marimba","level2":9,"level3":4,"pitch":78,"articulation":"hits","articulation_tags":["hits","short"],"duration":0.0625,"velocity":97.19602628793471},
{"position":156.08333333333334,"instrument":"TheGrandeurPiano","level2":9,"level3":null,"pitch":75,"articulation":"standard","articulation_tags":["standard","long"],"duration":0.1111111111111111,"velocity":68.57294104467155},
{"position":156.09375,"instrument":"Marimba","level2":9,"level3":6,"pitch":78,"articulation":"hits","articulation_tags":["hits","short"],"duration":0.0625,"velocity":96.8858658658262},
{"position":156.09375,"instrument":"Marimba","level2":9,"level3":7,"pitch":78,"articulation":"hits","articulation_tags":["hits","short"],"duration":0.0625,"velocity":96.8858658658262},
{"position":156.10416666666666,"instrument":"TheGrandeurPiano","level2":8,"level3":null,"pitch":94,"articulation":"standard","articulation_tags":["standard","long"],"duration":0.09027777777777778,"velocity":68.57294104467155},
{"position":156.10416666666666,"instrument":"TheGrandeurPiano","level2":10,"level3":null,"pitch":56,"articulation":"standard","articulation_tags":["standard","long"],"duration":0.08333333333333333,"velocity":68.57294104467155},
{"position":156.11458333333334,"instrument":"Marimba","level2":9,"level3":7,"pitch":78,"articulation":"hits","articulation_tags":["hits","short"],"duration":0.0625,"velocity":96.8858658658262},
{"position":156.125,"instrument":"TheGrandeurPiano","level2":9,"level3":null,"pitch":75,"articulation":"standard","articulation_tags":["standard","long"],"duration":0.05555555555555555,"velocity":68.57294104467155},
{"position":156.20833333333334,"instrument":"Glockenspiel","level2":8,"level3":1,"pitch":95,"articulation":"hits","articulation_tags":["hits","short"],"duration":0.0625,"velocity":103.78811975700836},
{"position":156.20833333333334,"instrument":"TheGrandeurPiano","level2":10,"level3":null,"pitch":55,"articulation":"standard","articulation_tags":["standard","long"],"duration":0.7430555555555556,"velocity":68.57294104467155},
{"position":156.20833333333334,"instrument":"TheGrandeurPiano","level2":9,"level3":null,"pitch":76,"articulation":"standard","articulation_tags":["standard","long"],"duration":0.05555555555555555,"velocity":68.57294104467155},
{"position":156.21875,"instrument":"TheGrandeurPiano","level2":10,"level3":null,"pitch":55,"articulation":"standard","articulation_tags":["standard","long"],"duration":0.08333333333333333,"velocity":68.12874408259155},
{"position":156.23958333333334,"instrument":"TheGrandeurPiano","level2":8,"level3":null,"pitch":93,"articulation":"standard","articulation_tags":["standard","long"],"duration":0.09027777777777778,"velocity":68.12874408259155},
{"position":156.25,"instrument":"TheGrandeurPiano","level2":9,"level3":null,"pitch":76,"articulation":"standard","articulation_tags":["standard","long"],"duration":0.11805555555555555,"velocity":68.12874408259155},
{"position":156.30208333333334,"instrument":"TheGrandeurPiano","level2":9,"level3":null,"pitch":76,"articulation":"standard","articulation_tags":["standard","long"],"duration":0.0625,"velocity":68.12874408259155},
{"position":156.33333333333334,"instrument":"TheGrandeurPiano","level2":8,"level3":null,"pitch":93,"articulation":"standard","articulation_tags":["standard","long"],"duration":0.3194444444444444,"velocity":68.12874408259155},
{"position":156.34375,"instrument":"TheGrandeurPiano","level2":10,"level3":null,"pitch":55,"articulation":"standard","articulation_tags":["standard","long"],"duration":0.08333333333333333,"velocity":68.12874408259155},
{"position":156.375,"instrument":"Marimba","level2":9,"level3":8,"pitch":79,"articulation":"hits","articulation_tags":["hits","short"],"duration":0.0625,"velocity":96.37057474371393},
{"position":156.375,"instrument":"Marimba","level2":9,"level3":9,"pitch":79,"articulation":"hits","articulation_tags":["hits","short"],"duration":0.0625,"velocity":96.37057474371393},
{"position":156.375,"instrument":"TheGrandeurPiano","level2":8,"level3":null,"pitch":93,"articulation":"standard","articulation_tags":["standard","long"],"duration":0.09027777777777778,"velocity":68.12874408259155},
{"position":156.38541666666666,"instrument":"TheGrandeurPiano","level2":9,"level3":null,"pitch":77,"articulation":"standard","articulation_tags":["standard","long"],"duration":0.0625,"velocity":68.12874408259155},
{"position":156.42708333333334,"instrument":"Marimba","level2":9,"level3":8,"pitch":79,"articulation":"hits","articulation_tags":["hits","short"],"duration":0.0625,"velocity":96.31009399773694},
{"position":156.42708333333334,"instrument":"TheGrandeurPiano","level2":9,"level3":null,"pitch":77,"articulation":"standard","articulation_tags":["standard","long"],"duration":0.13194444444444445,"velocity":67.80912890478353},
{"position":156.46875,"instrument":"TheGrandeurPiano","level2":10,"level3":null,"pitch":55,"articulation":"standard","articulation_tags":["standard","long"],"duration":0.09027777777777778,"velocity":67.80912890478353},
{"position":156.47916666666666,"instrument":"TheGrandeurPiano","level2":9,"level3":null,"pitch":77,"articulation":"standard","articulation_tags":["standard","long"],"duration":0.0625,"velocity":67.80912890478353},
{"position":156.51041666666666,"instrument":"TheGrandeurPiano","level2":8,"level3":null,"pitch":92,"articulation":"standard","articulation_tags":["standard","long"],"duration":0.09027777777777778,"velocity":67.80912890478353},
{"position":156.57291666666666,"instrument":"TheGrandeurPiano","level2":9,"level3":null,"pitch":78,"articulation":"standard","articulation_tags":["standard","long"],"duration":0.0625,"velocity":67.80912890478353},
{"position":156.58333333333334,"instrument":"Marimba","level2":9,"level3":9,"pitch":79,"articulation":"hits","articulation_tags":["hits","short"],"duration":0.0625,"velocity":95.8937730554587},
{"position":156.60416666666666,"instrument":"TheGrandeurPiano","level2":10,"level3":null,"pitch":55,"articulation":"standard","articulation_tags":["standard","long"],"duration":0.09027777777777778,"velocity":67.61640984046613},
{"position":156.625,"instrument":"TheGrandeurPiano","level2":9,"level3":null,"pitch":78,"articulation":"standard","articulation_tags":["standard","long"],"duration":0.14583333333333334,"velocity":67.61640984046613},
{"position":156.64583333333334,"instrument":"TheGrandeurPiano","level2":8,"level3":null,"pitch":92,"articulation":"standard","articulation_tags":["standard","long"],"duration":0.08333333333333333,"velocity":67.61640984046613},
{"position":156.65625,"instrument":"TheGrandeurPiano","level2":9,"level3":null,"pitch":78,"articulation":"standard","articulation_tags":["standard","long"],"duration":0.0625,"velocity":67.61640984046613},
{"position":156.69791666666666,"instrument":"Marimba","level2":9,"level3":10,"pitch":78,"articulation":"hits","articulation_tags":["hits","short"],"duration":0.0625,"velocity":95.55247640060472},
{"position":156.69791666666666,"instrument":"Marimba","level2":9,"level3":11,"pitch":78,"articulation":"hits","articulation_tags":["hits","short"],"duration":0.0625,"velocity":95.55247640060472},
{"position":156.72916666666666,"instrument":"Marimba","level2":9,"level3":11,"pitch":78,"articulation":"hits","articulation_tags":["hits","short"],"duration":0.0625,"velocity":95.55247640060472},
{"position":156.73958333333334,"instrument":"TheGrandeurPiano","level2":10,"level3":null,"pitch":55,"articulation":"standard","articulation_tags":["standard","long"],"duration":0.09722222222222222,"velocity":67.61640984046613},
{"position":156.75,"instrument":"TheGrandeurPiano","level2":9,"level3":null,"pitch":79,"articulation":"standard","articulation_tags":["standard","long"],"duration":0.0625,"velocity":67.61640984046613},
{"position":156.77083333333334,"instrument":"TheGrandeurPiano","level2":8,"level3":null,"pitch":91,"articulation":"standard","articulation_tags":["standard","long"],"duration":0.08333333333333333,"velocity":67.61640984046613},
{"position":156.8125,"instrument":"TheGrandeurPiano","level2":8,"level3":null,"pitch":91,"articulation":"standard","articulation_tags":["standard","long"],"duration":0.3333333333333333,"velocity":67.55201005264294},
{"position":156.84375,"instrument":"TheGrandeurPiano","level2":9,"level3":null,"pitch":79,"articulation":"standard","articulation_tags":["standard","long"],"duration":0.0625,"velocity":67.55201005264294},
{"position":156.84375,"instrument":"TheGrandeurPiano","level2":9,"level3":null,"pitch":79,"articulation":"standard","articulation_tags":["standard","long"],"duration":0.1597222222222222,"velocity":67.55201005264294},
{"position":156.88541666666666,"instrument":"TheGrandeurPiano","level2":10,"level3":null,"pitch":55,"articulation":"standard","articulation_tags":["standard","long"],"duration":0.09722222222222222,"velocity":67.55201005264294},
{"position":156.89583333333334,"instrument":"Marimba","level2":8,"level3":12,"pitch":96,"articulation":"hits","articulation_tags":["hits","short"],"duration":0.0625,"velocity":102.24476635995376},
{"position":156.89583333333334,"instrument":"TheGrandeurPiano","level2":8,"level3":null,"pitch":91,"articulation":"standard","articulation_tags":["standard","long"],"duration":0.08333333333333333,"velocity":67.55201005264294},
{"position":156.9375,"instrument":"TheGrandeurPiano","level2":9,"level3":null,"pitch":80,"articulation":"standard","articulation_tags":["standard","long"],"duration":0.0625,"velocity":67.55201005264294},
{"position":157.02083333333334,"instrument":"TheGrandeurPiano","level2":8,"level3":null,"pitch":90,"articulation":"standard","articulation_tags":["standard","long"],"duration":0.08333333333333333,"velocity":67.61640984046613},
{"position":157.02083333333334,"instrument":"TheGrandeurPiano","level2":9,"level3":null,"pitch":80,"articulation":"standard","articulation_tags":["standard","long"],"duration":0.0625,"velocity":67.61640984046613},
{"position":157.03125,"instrument":"TheGrandeurPiano","level2":10,"level3":null,"pitch":55,"articulation":"standard","articulation_tags":["standard","long"],"duration":0.10416666666666667,"velocity":67.61640984046613},
{"position":157.08333333333334,"instrument":"TheGrandeurPiano","level2":9,"level3":null,"pitch":80,"articulation":"standard","articulation_tags":["standard","long"],"duration":0.18055555555555555,"velocity":67.61640984046613},
{"position":157.11458333333334,"instrument":"TheGrandeurPiano","level2":9,"level3":null,"pitch":81,"articulation":"standard","articulation_tags":["standard","long"],"duration":0.0625,"velocity":67.61640984046613},
{"position":157.13541666666666,"instrument":"TheGrandeurPiano","level2":8,"level3":null,"pitch":90,"articulation":"standard","articulation_tags":["standard","long"],"duration":0.0763888888888889,"velocity":67.61640984046613},
{"position":157.14583333333334,"instrument":"Marimba","level2":9,"level3":12,"pitch":78,"articulation":"hits","articulation_tags":["hits","short"],"duration":0.0625,"velocity":94.78446295151208},
{"position":157.1875,"instrument":"TheGrandeurPiano","level2":10,"level3":null,"pitch":55,"articulation":"standard","articulation_tags":["standard","long"],"duration":0.10416666666666667,"velocity":67.80912890478353},
{"position":157.20833333333334,"instrument":"TheGrandeurPiano","level2":9,"level3":null,"pitch":81,"articulation":"standard","articulation_tags":["standard","long"],"duration":0.0625,"velocity":67.80912890478353},
{"position":157.26041666666666,"instrument":"TheGrandeurPiano","level2":8,"level3":null,"pitch":89,"articulation":"standard","articulation_tags":["standard","long"],"duration":0.0763888888888889,"velocity":67.80912890478353},
{"position":157.30208333333334,"instrument":"TheGrandeurPiano","level2":9,"level3":null,"pitch":82,"articulation":"standard","articulation_tags":["standard","long"],"duration":0.0625,"velocity":67.80912890478353},
{"position":157.30208333333334,"instrument":"TheGrandeurPiano","level2":8,"level3":null,"pitch":89,"articulation":"standard","articulation_tags":["standard","long"],"duration":0.3472222222222222,"velocity":67.80912890478353},
{"position":157.3125,"instrument":"TheGrandeurPiano","level2":10,"level3":null,"pitch":56,"articulation":"standard","articulation_tags":["standard","long"],"duration":0.9166666666666666,"velocity":67.80912890478353},
{"position":157.34375,"instrument":"TheGrandeurPiano","level2":10,"level3":null,"pitch":56,"articulation":"standard","articulation_tags":["standard","long"],"duration":0.1111111111111111,"velocity":67.80912890478353},
{"position":157.35416666666666,"instrument":"TheGrandeurPiano","level2":9,"level3":null,"pitch":82,"articulation":"standard","articulation_tags":["standard","long"],"duration":0.20833333333333334,"velocity":67.80912890478353},
{"position":157.375,"instrument":"TheGrandeurPiano","level2":8,"level3":null,"pitch":89,"articulation":"standard","articulation_tags":["standard","long"],"duration":0.0763888888888889,"velocity":68.12874408259155},
{"position":157.39583333333334,"instrument":"TheGrandeurPiano","level2":9,"level3":null,"pitch":82,"articulation":"standard","articulation_tags":["standard","long"],"duration":0.0625,"velocity":68.12874408259155},
{"position":157.44791666666666,"instrument":"Marimba","level2":9,"level3":13,"pitch":79,"articulation":"hits","articulation_tags":["hits","short"],"duration":0.0625,"velocity":94.42934470758595},
{"position":157.44791666666666,"instrument":"Marimba","level2":9,"level3":5,"pitch":78,"articulation":"hits","articulation_tags":["hits","short"],"duration":0.0625,"velocity":94.42934470758595},
{"position":157.48958333333334,"instrument":"TheGrandeurPiano","level2":8,"level3":null,"pitch":88,"articulation":"standard","articulation_tags":["standard","long"],"duration":0.0763888888888889,"velocity":68.12874408259155},
{"position":157.48958333333334,"instrument":"TheGrandeurPiano","level2":9,"level3":null,"pitch":83,"articulation":"standard","articulation_tags":["standard","long"],"duration":0.0625,"velocity":68.12874408259155},
{"position":157.51041666666666,"instrument":"TheGrandeurPiano","level2":10,"level3":null,"pitch":56,"articulation":"standard","articulation_tags":["standard","long"],"duration":0.1111111111111111,"velocity":68.12874408259155},
{"position":157.52083333333334,"instrument":"Marimba","level2":8,"level3":1,"pitch":96,"articulation":"hits","articulation_tags":["hits","short"],"duration":0.0625,"velocity":100.76338519715375},
{"position":157.57291666666666,"instrument":"TheGrandeurPiano","level2":9,"level3":null,"pitch":83,"articulation":"standard","articulation_tags":["standard","long"],"duration":0.0625,"velocity":68.57294104467155},
{"position":157.59375,"instrument":"TheGrandeurPiano","level2":8,"level3":null,"pitch":88,"articulation":"standard","articulation_tags":["standard","long"],"duration":0.06944444444444445,"velocity":68.57294104467155},
{"position":157.66666666666666,"instrument":"TheGrandeurPiano","level2":9,"level3":null,"pitch":83,"articulation":"standard","articulation_tags":["standard","long"],"duration":0.25,"velocity":68.57294104467155},
{"position":157.66666666666666,"instrument":"TheGrandeurPiano","level2":9,"level3":null,"pitch":84,"articulation":"standard","articulation_tags":["standard","long"],"duration":0.0625,"velocity":68.57294104467155},
{"position":157.67708333333334,"instrument":"TheGrandeurPiano","level2":10,"level3":null,"pitch":56,"articulation":"standard","articulation_tags":["standard","long"],"duration":0.11805555555555555,"velocity":68.57294104467155},
{"position":157.70833333333334,"instrument":"TheGrandeurPiano","level2":8,"level3":null,"pitch":87,"articulation":"standard","articulation_tags":["standard","long"],"duration":0.06944444444444445,"velocity":68.57294104467155},
{"position":157.76041666666666,"instrument":"TheGrandeurPiano","level2":9,"level3":null,"pitch":84,"articulation":"standard","articulation_tags":["standard","long"],"duration":0.0625,"velocity":69.13859566498758},
{"position":157.8125,"instrument":"TheGrandeurPiano","level2":8,"level3":null,"pitch":87,"articulation":"standard","articulation_tags":["standard","long"],"duration":0.06944444444444445,"velocity":69.13859566498758},
{"position":157.82291666666666,"instrument":"FrenchHorn","level2":10,"level3":10,"pitch":67,"articulation":"multitongue","articulation_tags":["multitongue","short"],"duration":0.25,"velocity":121.43191198516709},
{"position":157.82291666666666,"instrument":"TheGrandeurPiano","level2":8,"level3":null,"pitch":87,"articulation":"standard","articulation_tags":["standard","long"],"duration":0.375,"velocity":69.13859566498758},
{"position":157.84375,"instrument":"Marimba","level2":9,"level3":11,"pitch":78,"articulation":"hits","articulation_tags":["hits","short"],"duration":0.0625,"velocity":94.113598383089},
{"position":157.84375,"instrument":"TheGrandeurPiano","level2":10,"level3":null,"pitch":56,"articulation":"standard","articulation_tags":["standard","long"],"duration":0.11805555555555555,"velocity":69.13859566498758},
{"position":157.85416666666666,"instrument":"TheGrandeurPiano","level2":9,"level3":null,"pitch":85,"articulation":"standard","articulation_tags":["standard","long"],"duration":0.0625,"velocity":69.13859566498758},
{"position":157.91666666666666,"instrument":"TheGrandeurPiano","level2":8,"level3":null,"pitch":86,"articulation":"standard","articulation_tags":["standard","long"],"duration":0.06944444444444445,"velocity":69.13859566498758},
{"position":157.92708333333334,"instrument":"FrenchHorn","level2":10,"level3":8,"pitch":67,"articulation":"multitongue","articulation_tags":["multitongue","short"],"duration":0.25,"velocity":121.71069277216299},
{"position":157.94791666666666,"instrument":"TheGrandeurPiano","level2":9,"level3":null,"pitch":85,"articulation":"standard","articulation_tags":["standard","long"],"duration":0.0625,"velocity":69.82187861000301},
{"position":158.02083333333334,"instrument":"TheGrandeurPiano","level2":8,"level3":null,"pitch":86,"articulation":"standard","articulation_tags":["standard","long"],"duration":0.06944444444444445,"velocity":69.82187861000301},
{"position":158.03125,"instrument":"TheGrandeurPiano","level2":10,"level3":null,"pitch":56,"articulation":"standard","articulation_tags":["standard","long"],"duration":0.125,"velocity":69.82187861000301},
{"position":158.03125,"instrument":"TheGrandeurPiano","level2":9,"level3":null,"pitch":85,"articulation":"standard","articulation_tags":["standard","long"],"duration":0.3263888888888889,"velocity":69.82187861000301},
{"position":158.04166666666666,"instrument":"TheGrandeurPiano","level2":9,"level3":null,"pitch":86,"articulation":"standard","articulation_tags":["standard","long"],"duration":0.0625,"velocity":69.82187861000301},
{"position":158.10416666666666,"instrument":"Marimba","level2":9,"level3":4,"pitch":78,"articulation":"hits","articulation_tags":["hits","short"],"duration":0.0625,"velocity":93.84783021343895},
{"position":158.11458333333334,"instrument":"TheGrandeurPiano","level2":8,"level3":null,"pitch":85,"articulation":"standard","articulation_tags":["standard","long"],"duration":0.0625,"velocity":69.82187861000301},
{"position":158.125,"instrument":"TheGrandeurPiano","level2":9,"level3":null,"pitch":86,"articulation":"standard","articulation_tags":["standard","long"],"duration":0.0625,"velocity":69.82187861000301},
{"position":158.20833333333334,"instrument":"Trumpet","level2":9,"level3":0,"pitch":78,"articulation":"sforzando","articulation_tags":["sforzando","sfz","long"],"duration":1.5208333333333333,"velocity":59.7351090810693},
{"position":158.20833333333334,"instrument":"TheGrandeurPiano","level2":10,"level3":null,"pitch":56,"articulation":"standard","articulation_tags":["standard","long"],"duration":0.125,"velocity":68.19243224816691},
{"position":158.20833333333334,"instrument":"TheGrandeurPiano","level2":8,"level3":null,"pitch":85,"articulation":"standard","articulation_tags":["standard","long"],"duration":0.0625,"velocity":68.19243224816691},
{"position":158.21875,"instrument":"TheGrandeurPiano","level2":9,"level3":null,"pitch":87,"articulation":"standard","articulation_tags":["standard","long"],"duration":0.0625,"velocity":68.19243224816691},
{"position":158.3125,"instrument":"Flute","level2":10,"level3":2,"pitch":67,"articulation":"trill_2m","articulation_tags":["trill_2m","long","trill","m2"],"duration":8.84375,"velocity":116.53797005677812},
{"position":158.3125,"instrument":"TheGrandeurPiano","level2":8,"level3":null,"pitch":96,"articulation":"standard","articulation_tags":["standard","long"],"duration":0.0625,"velocity":68.19243224816691},
{"position":158.3125,"instrument":"TheGrandeurPiano","level2":9,"level3":null,"pitch":87,"articulation":"standard","articulation_tags":["standard","long"],"duration":0.0625,"velocity":68.19243224816691},
{"position":158.38541666666666,"instrument":"TheGrandeurPiano","level2":8,"level3":null,"pitch":96,"articulation":"standard","articulation_tags":["standard","long"],"duration":0.4236111111111111,"velocity":69.13859566498758},
{"position":158.39583333333334,"instrument":"TheGrandeurPiano","level2":8,"level3":null,"pitch":96,"articulation":"standard","articulation_tags":["standard","long"],"duration":0.0625,"velocity":69.13859566498758},
{"position":158.40625,"instrument":"TheGrandeurPiano","level2":10,"level3":null,"pitch":56,"articulation":"standard","articulation_tags":["standard","long"],"duration":0.13194444444444445,"velocity":69.13859566498758},
{"position":158.40625,"instrument":"TheGrandeurPiano","level2":9,"level3":null,"pitch":88,"articulation":"standard","articulation_tags":["standard","long"],"duration":0.0625,"velocity":69.13859566498758},
{"position":158.48958333333334,"instrument":"TheGrandeurPiano","level2":8,"level3":null,"pitch":95,"articulation":"standard","articulation_tags":["standard","long"],"duration":0.0625,"velocity":69.13859566498758},
{"position":158.5,"instrument":"TheGrandeurPiano","level2":9,"level3":null,"pitch":88,"articulation":"standard","articulation_tags":["standard","long"],"duration":0.0625,"velocity":69.13859566498758},
{"position":158.52083333333334,"instrument":"TheGrandeurPiano","level2":9,"level3":null,"pitch":88,"articulation":"standard","articulation_tags":["standard","long"],"duration":0.6944444444444444,"velocity":69.13859566498758},
{"position":158.54166666666666,"instrument":"Marimba","level2":9,"level3":7,"pitch":78,"articulation":"hits","articulation_tags":["hits","short"],"duration":0.0625,"velocity":93.6937611374417},
{"position":158.58333333333334,"instrument":"TheGrandeurPiano","level2":8,"level3":null,"pitch":95,"articulation":"standard","articulation_tags":["standard","long"],"duration":0.05555555555555555,"velocity":70.19094724413773},
{"position":158.58333333333334,"instrument":"TheGrandeurPiano","level2":9,"level3":null,"pitch":89,"articulation":"standard","articulation_tags":["standard","long"],"duration":0.0625,"velocity":70.19094724413773},
{"position":158.60416666666666,"instrument":"TheGrandeurPiano","level2":10,"level3":null,"pitch":56,"articulation":"standard","articulation_tags":["standard","long"],"duration":0.13194444444444445,"velocity":70.19094724413773},
{"position":158.66666666666666,"instrument":"TheGrandeurPiano","level2":8,"level3":null,"pitch":94,"articulation":"standard","articulation_tags":["standard","long"],"duration":0.05555555555555555,"velocity":70.19094724413773},
{"position":158.67708333333334,"instrument":"TheGrandeurPiano","level2":9,"level3":null,"pitch":89,"articulation":"standard","articulation_tags":["standard","long"],"duration":0.0625,"velocity":70.19094724413773},
{"position":158.6875,"instrument":"TheGrandeurPiano","level2":10,"level3":null,"pitch":56,"articulation":"standard","articulation_tags":["standard","long"],"duration":0.5972222222222222,"velocity":70.19094724413773},
{"position":158.75,"instrument":"TheGrandeurPiano","level2":8,"level3":null,"pitch":94,"articulation":"standard","articulation_tags":["standard","long"],"duration":0.05555555555555555,"velocity":69.07604285264554},
{"position":158.77083333333334,"instrument":"TheGrandeurPiano","level2":9,"level3":null,"pitch":90,"articulation":"standard","articulation_tags":["standard","long"],"duration":0.0625,"velocity":69.07604285264554},
{"position":158.80208333333334,"instrument":"TheGrandeurPiano","level2":10,"level3":null,"pitch":56,"articulation":"standard","articulation_tags":["standard","long"],"duration":0.1388888888888889,"velocity":69.07604285264554},
{"position":158.83333333333334,"instrument":"TheGrandeurPiano","level2":8,"level3":null,"pitch":93,"articulation":"standard","articulation_tags":["standard","long"],"duration":0.05555555555555555,"velocity":69.07604285264554},
{"position":158.85416666666666,"instrument":"TheGrandeurPiano","level2":9,"level3":null,"pitch":90,"articulation":"standard","articulation_tags":["standard","long"],"duration":0.0625,"velocity":69.07604285264554},
{"position":158.91666666666666,"instrument":"Oboe","level2":9,"level3":3,"pitch":78,"articulation":"legato","articulation_tags":["legato","lg"],"duration":0.9479166666666666,"velocity":59.774519569376565},
{"position":158.91666666666666,"instrument":"TheGrandeurPiano","level2":8,"level3":null,"pitch":93,"articulation":"standard","articulation_tags":["standard","long"],"duration":0.05555555555555555,"velocity":69.07604285264554},
{"position":158.94791666666666,"instrument":"TheGrandeurPiano","level2":9,"level3":null,"pitch":91,"articulation":"standard","articulation_tags":["standard","long"],"duration":0.0625,"velocity":70.37454217067419},
{"position":158.97916666666666,"instrument":"Marimba","level2":9,"level3":2,"pitch":78,"articulation":"hits","articulation_tags":["hits","short"],"duration":0.0625,"velocity":93.94626157096967},
{"position":159.0,"instrument":"TheGrandeurPiano","level2":8,"level3":null,"pitch":92,"articulation":"standard","articulation_tags":["standard","long"],"duration":0.04861111111111111,"velocity":70.37454217067419},
{"position":159.01041666666666,"instrument":"TheGrandeurPiano","level2":10,"level3":null,"pitch":56,"articulation":"standard","articulation_tags":["standard","long"],"duration":0.14583333333333334,"velocity":70.37454217067419},
{"position":159.02083333333334,"instrument":"TheGrandeurPiano","level2":8,"level3":null,"pitch":92,"articulation":"standard","articulation_tags":["standard","long"],"duration":0.6527777777777778,"velocity":70.37454217067419},
{"position":159.03125,"instrument":"TheGrandeurPiano","level2":9,"level3":null,"pitch":91,"articulation":"standard","articulation_tags":["standard","long"],"duration":0.0625,"velocity":70.37454217067419},
{"position":159.05208333333334,"instrument":"CorAnglais","level2":10,"level3":1,"pitch":68,"articulation":"trill_2m","articulation_tags":["trill_2m","long","trill","m2"],"duration":11.208333333333334,"velocity":118.5718397295299},
{"position":159.07291666666666,"instrument":"FrenchHorn","level2":10,"level3":2,"pitch":67,"articulation":"multitongue","articulation_tags":["multitongue","short"],"duration":0.25,"velocity":123.28591986476495},
{"position":159.07291666666666,"instrument":"TheGrandeurPiano","level2":8,"level3":null,"pitch":92,"articulation":"standard","articulation_tags":["standard","long"],"duration":0.04861111111111111,"velocity":70.37454217067419},
{"position":159.125,"instrument":"TheGrandeurPiano","level2":9,"level3":null,"pitch":92,"articulation":"standard","articulation_tags":["standard","long"],"duration":0.05555555555555555,"velocity":68.19243224816691},
{"position":159.14583333333334,"instrument":"TheGrandeurPiano","level2":8,"level3":null,"pitch":91,"articulation":"standard","articulation_tags":["standard","long"],"duration":0.04861111111111111,"velocity":68.19243224816691},
{"position":159.20833333333334,"instrument":"Marimba","level2":9,"level3":5,"pitch":78,"articulation":"hits","articulation_tags":["hits","short"],"duration":0.0625,"velocity":94.07677094865161},
{"position":159.20833333333334,"instrument":"TheGrandeurPiano","level2":9,"level3":null,"pitch":92,"articulation":"standard","articulation_tags":["standard","long"],"duration":0.05555555555555555,"velocity":69.63639197463223},
{"position":159.21875,"instrument":"TheGrandeurPiano","level2":8,"level3":null,"pitch":91,"articulation":"standard","articulation_tags":["standard","long"],"duration":0.04861111111111111,"velocity":69.63639197463223},
{"position":159.22916666666666,"instrument":"TheGrandeurPiano","level2":10,"level3":null,"pitch":56,"articulation":"standard","articulation_tags":["standard","long"],"duration":0.14583333333333334,"velocity":69.63639197463223},
{"position":159.28125,"instrument":"Clarinet","level2":9,"level3":3,"pitch":78,"articulation":"legato","articulation_tags":["legato","lg"],"duration":0.6458333333333334,"velocity":60.296398991577576},
{"position":159.29166666666666,"instrument":"Oboe","level2":10,"level3":3,"pitch":68,"articulation":"trill_2m","articulation_tags":["trill_2m","long","trill","m2"],"duration":31.864583333333332,"velocity":119.13383894292197},
{"position":159.29166666666666,"instrument":"TheGrandeurPiano","level2":8,"level3":null,"pitch":90,"articulation":"standard","articulation_tags":["standard","long"],"duration":0.04861111111111111,"velocity":69.63639197463223},
{"position":159.30208333333334,"instrument":"TheGrandeurPiano","level2":9,"level3":null,"pitch":93,"articulation":"standard","articulation_tags":["standard","long"],"duration":0.05555555555555555,"velocity":69.63639197463223},
{"position":159.3125,"instrument":"Clarinet","level2":9,"level3":1,"pitch":79,"articulation":"legato","articulation_tags":["legato","lg"],"duration":0.53125,"velocity":60.44737604130505},
{"position":159.36458333333334,"instrument":"TheGrandeurPiano","level2":8,"level3":null,"pitch":90,"articulation":"standard","articulation_tags":["standard","long"],"duration":0.04861111111111111,"velocity":69.63639197463223},
{"position":159.375,"instrument":"Marimba","level2":9,"level3":8,"pitch":79,"articulation":"hits","articulation_tags":["hits","short"],"duration":0.0625,"velocity":94.22368802065253},
{"position":159.38541666666666,"instrument":"TheGrandeurPiano","level2":9,"level3":null,"pitch":93,"articulation":"standard","articulation_tags":["standard","long"],"duration":0.05555555555555555,"velocity":71.16305967616036},
{"position":159.4375,"instrument":"TheGrandeurPiano","level2":8,"level3":null,"pitch":89,"articulation":"standard","articulation_tags":["standard","long"],"duration":0.041666666666666664,"velocity":71.16305967616036},
{"position":159.44791666666666,"instrument":"TheGrandeurPiano","level2":10,"level3":null,"pitch":56,"articulation":"standard","articulation_tags":["standard","long"],"duration":0.1527777777777778,"velocity":71.16305967616036},
{"position":159.46875,"instrument":"TheGrandeurPiano","level2":9,"level3":null,"pitch":94,"articulation":"standard","articulation_tags":["standard","long"],"duration":0.05555555555555555,"velocity":69.13859566498758},
{"position":159.5,"instrument":"TheGrandeurPiano","level2":8,"level3":null,"pitch":89,"articulation":"standard","articulation_tags":["standard","long"],"duration":0.041666666666666664,"velocity":69.13859566498758},
{"position":159.5625,"instrument":"TheGrandeurPiano","level2":9,"level3":null,"pitch":94,"articulation":"standard","articulation_tags":["standard","long"],"duration":0.05555555555555555,"velocity":69.13859566498758},
{"position":159.5625,"instrument":"TheGrandeurPiano","level2":9,"level3":null,"pitch":94,"articulation":"standard","articulation_tags":["standard","long"],"duration":0.1736111111111111,"velocity":69.13859566498758},
{"position":159.5625,"instrument":"TheGrandeurPiano","level2":8,"level3":null,"pitch":88,"articulation":"standard","articulation_tags":["standard","long"],"duration":0.041666666666666664,"velocity":69.13859566498758},
{"position":159.59375,"instrument":"TheGrandeurPiano","level2":10,"level3":null,"pitch":57,"articulation":"standard","articulation_tags":["standard","long"],"duration":0.5138888888888888,"velocity":69.13859566498758},
{"position":159.625,"instrument":"TheGrandeurPiano","level2":8,"level3":null,"pitch":88,"articulation":"standard","articulation_tags":["standard","long"],"duration":0.041666666666666664,"velocity":70.8005383799157},
{"position":159.64583333333334,"instrument":"TheGrandeurPiano","level2":9,"level3":null,"pitch":95,"articulation":"standard","articulation_tags":["standard","long"],"duration":0.05555555555555555,"velocity":70.8005383799157},
{"position":159.67708333333334,"instrument":"TheGrandeurPiano","level2":10,"level3":null,"pitch":57,"articulation":"standard","articulation_tags":["standard","long"],"duration":0.1597222222222222,"velocity":70.8005383799157},
{"position":159.6875,"instrument":"TheGrandeurPiano","level2":8,"level3":null,"pitch":87,"articulation":"standard","articulation_tags":["standard","long"],"duration":0.041666666666666664,"velocity":70.8005383799157},
{"position":159.72916666666666,"instrument":"TheGrandeurPiano","level2":9,"level3":null,"pitch":95,"articulation":"standard","articulation_tags":["standard","long"],"duration":0.05555555555555555,"velocity":70.8005383799157},
{"position":159.73958333333334,"instrument":"Trumpet","level2":10,"level3":5,"pitch":67,"articulation":"multitongue","articulation_tags":["multitongue","short"],"duration":0.25,"velocity":124.03046034054358},
{"position":159.73958333333334,"instrument":"Marimba","level2":9,"level3":0,"pitch":78,"articulation":"hits","articulation_tags":["hits","short"],"duration":0.0625,"velocity":94.37812045446265},
{"position":159.75,"instrument":"TheGrandeurPiano","level2":8,"level3":null,"pitch":87,"articulation":"standard","articulation_tags":["standard","long"],"duration":0.041666666666666664,"velocity":70.8005383799157},
{"position":159.80208333333334,"instrument":"TheGrandeurPiano","level2":8,"level3":null,"pitch":86,"articulation":"standard","articulation_tags":["standard","long"],"duration":0.034722222222222224,"velocity":68.8879405142832},
{"position":159.8125,"instrument":"TheGrandeurPiano","level2":9,"level3":null,"pitch":96,"articulation":"standard","articulation_tags":["standard","long"],"duration":0.05555555555555555,"velocity":68.8879405142832},
{"position":159.8125,"instrument":"TheGrandeurPiano","level2":9,"level3":null,"pitch":96,"articulation":"standard","articulation_tags":["standard","long"],"duration":0.125,"velocity":68.8879405142832},
{"position":159.83333333333334,"instrument":"Clarinet","level2":9,"level3":1,"pitch":79,"articulation":"legato","articulation_tags":["legato","lg"],"duration":0.0,"velocity":61.51858817248464},
{"position":159.86458333333334,"instrument":"TheGrandeurPiano","level2":8,"level3":null,"pitch":86,"articulation":"standard","articulation_tags":["standard","long"],"duration":0.034722222222222224,"velocity":70.67916383803134},
{"position":159.875,"instrument":"Clarinet","level2":9,"level3":3,"pitch":78,"articulation":"legato","articulation_tags":["legato","lg"],"duration":0.052083333333333336,"velocity":61.51858817248464},
{"position":159.89583333333334,"instrument":"TheGrandeurPiano","level2":9,"level3":null,"pitch":96,"articulation":"standard","articulation_tags":["standard","long"],"duration":0.05555555555555555,"velocity":70.67916383803134},
{"position":159.91666666666666,"instrument":"TheGrandeurPiano","level2":10,"level3":null,"pitch":57,"articulation":"standard","articulation_tags":["standard","long"],"duration":0.16666666666666666,"velocity":70.67916383803134},
{"position":159.91666666666666,"instrument":"TheGrandeurPiano","level2":8,"level3":null,"pitch":85,"articulation":"standard","articulation_tags":["standard","long"],"duration":0.034722222222222224,"velocity":70.67916383803134},
{"position":159.96875,"instrument":"TheGrandeurPiano","level2":8,"level3":null,"pitch":85,"articulation":"standard","articulation_tags":["standard","long"],"duration":0.027777777777777776,"velocity":70.67916383803134},
{"position":159.97916666666666,"instrument":"TheGrandeurPiano","level2":9,"level3":null,"pitch":85,"articulation":"standard","articulation_tags":["standard","long"],"duration":0.013888888888888888,"velocity":70.67916383803134},
{"position":160.16666666666666,"instrument":"TheGrandeurPiano","level2":10,"level3":null,"pitch":57,"articulation":"standard","articulation_tags":["standard","long"],"duration":0.16666666666666666,"velocity":70.8005383799157},
{"position":160.36458333333334,"instrument":"TheGrandeurPiano","level2":10,"level3":null,"pitch":57,"articulation":"standard","articulation_tags":["standard","long"],"duration":0.4652777777777778,"velocity":69.13859566498758},
{"position":160.41666666666666,"instrument":"TheGrandeurPiano","level2":10,"level3":null,"pitch":57,"articulation":"standard","articulation_tags":["standard","long"],"duration":0.1736111111111111,"velocity":71.16305967616036},
{"position":160.6875,"instrument":"TheGrandeurPiano","level2":10,"level3":null,"pitch":57,"articulation":"standard","articulation_tags":["standard","long"],"duration":0.18055555555555555,"velocity":69.63639197463223},
{"position":160.9375,"instrument":"Trumpet","level2":10,"level3":7,"pitch":67,"articulation":"multitongue","articulation_tags":["multitongue","short"],"duration":0.25,"velocity":125.0650880676626},
{"position":160.95833333333334,"instrument":"TheGrandeurPiano","level2":10,"level3":null,"pitch":57,"articulation":"standard","articulation_tags":["standard","long"],"duration":0.1875,"velocity":70.37454217067419},
{"position":161.0,"instrument":"Oboe","level2":10,"level3":0,"pitch":67,"articulation":"trill_2m","articulation_tags":["trill_2m","long","trill","m2"],"duration":9.166666666666666,"velocity":122.69712794489153},
{"position":161.0625,"instrument":"TheGrandeurPiano","level2":10,"level3":null,"pitch":58,"articulation":"standard","articulation_tags":["standard","long"],"duration":0.4375,"velocity":71.3434298348877},
{"position":161.09375,"instrument":"Bassoon","level2":10,"level3":6,"pitch":67,"articulation":"trill_2m","articulation_tags":["trill_2m","long","trill","m2"],"duration":4.885416666666667,"velocity":122.51086679178783},
{"position":161.23958333333334,"instrument":"TheGrandeurPiano","level2":10,"level3":null,"pitch":58,"articulation":"standard","articulation_tags":["standard","long"],"duration":0.19444444444444445,"velocity":70.19094724413773},
{"position":161.53125,"instrument":"TheGrandeurPiano","level2":10,"level3":null,"pitch":58,"articulation":"standard","articulation_tags":["standard","long"],"duration":0.2013888888888889,"velocity":71.52321405450738},
{"position":161.71875,"instrument":"TheGrandeurPiano","level2":10,"level3":null,"pitch":58,"articulation":"standard","articulation_tags":["standard","long"],"duration":0.4166666666666667,"velocity":70.61837542141933},
{"position":161.83333333333334,"instrument":"TheGrandeurPiano","level2":10,"level3":null,"pitch":58,"articulation":"standard","articulation_tags":["standard","long"],"duration":0.20833333333333334,"velocity":69.82187861000301},
{"position":162.14583333333334,"instrument":"TheGrandeurPiano","level2":10,"level3":null,"pitch":58,"articulation":"standard","articulation_tags":["standard","long"],"duration":0.2152777777777778,"velocity":71.64274748469009},
{"position":162.34375,"instrument":"TheGrandeurPiano","level2":10,"level3":null,"pitch":59,"articulation":"standard","articulation_tags":["standard","long"],"duration":0.4027777777777778,"velocity":71.10280508725903},
{"position":162.46875,"instrument":"TheGrandeurPiano","level2":10,"level3":null,"pitch":59,"articulation":"standard","articulation_tags":["standard","long"],"duration":0.2222222222222222,"velocity":70.67916383803134},
{"position":162.80208333333334,"instrument":"TheGrandeurPiano","level2":10,"level3":null,"pitch":59,"articulation":"standard","articulation_tags":["standard","long"],"duration":0.2361111111111111,"velocity":70.19094724413773},
{"position":162.94791666666666,"instrument":"TheGrandeurPiano","level2":10,"level3":null,"pitch":59,"articulation":"standard","articulation_tags":["standard","long"],"duration":0.3888888888888889,"velocity":70.1296105552751},
{"position":163.14583333333334,"instrument":"Trumpet","level2":10,"level3":9,"pitch":67,"articulation":"multitongue","articulation_tags":["multitongue","short"],"duration":0.25,"velocity":126.70211086176585},
{"position":163.15625,"instrument":"TheGrandeurPiano","level2":10,"level3":null,"pitch":59,"articulation":"standard","articulation_tags":["standard","long"],"duration":0.24305555555555555,"velocity":70.19094724413773},
{"position":163.52083333333334,"instrument":"TheGrandeurPiano","level2":10,"level3":null,"pitch":59,"articulation":"standard","articulation_tags":["standard","long"],"duration":0.2569444444444444,"velocity":70.67916383803134},
{"position":163.53125,"instrument":"TheGrandeurPiano","level2":10,"level3":null,"pitch":60,"articulation":"standard","articulation_tags":["standard","long"],"duration":0.3819444444444444,"velocity":70.67916383803134},
{"position":163.90625,"instrument":"TheGrandeurPiano","level2":10,"level3":null,"pitch":60,"articulation":"standard","articulation_tags":["standard","long"],"duration":0.2638888888888889,"velocity":71.64274748469009},
{"position":163.98958333333334,"instrument":"Trumpet","level2":10,"level3":5,"pitch":67,"articulation":"multitongue","articulation_tags":["multitongue","short"],"duration":0.25,"velocity":127.4798101777537},
{"position":164.10416666666666,"instrument":"TheGrandeurPiano","level2":10,"level3":null,"pitch":60,"articulation":"standard","articulation_tags":["standard","long"],"duration":0.375,"velocity":72.29564472948019},
{"position":164.125,"instrument":"Clarinet","level2":10,"level3":4,"pitch":67,"articulation":"trill_2m","articulation_tags":["trill_2m","long","trill","m2"],"duration":10.270833333333334,"velocity":126.79796721480534},
{"position":164.20833333333334,"instrument":"Clarinet","level2":10,"level3":1,"pitch":68,"articulation":"trill_2m","articulation_tags":["trill_2m","long","trill","m2"],"duration":13.25,"velocity":126.79796721480534},
{"position":164.20833333333334,"instrument":"FrenchHorn","level2":10,"level3":6,"pitch":67,"articulation":"multitongue","articulation_tags":["multitongue","short"],"duration":0.25,"velocity":127.39898360740267},
{"position":164.30208333333334,"instrument":"TheGrandeurPiano","level2":10,"level3":null,"pitch":60,"articulation":"standard","articulation_tags":["standard","long"],"duration":0.2777777777777778,"velocity":70.61837542141933},
{"position":164.66666666666666,"instrument":"TheGrandeurPiano","level2":10,"level3":null,"pitch":61,"articulation":"standard","articulation_tags":["standard","long"],"duration":0.3680555555555556,"velocity":72.53119238891506},
{"position":164.71875,"instrument":"TheGrandeurPiano","level2":10,"level3":null,"pitch":61,"articulation":"standard","articulation_tags":["standard","long"],"duration":0.2916666666666667,"velocity":70.19094724413773},
{"position":165.15625,"instrument":"TheGrandeurPiano","level2":10,"level3":null,"pitch":61,"articulation":"standard","articulation_tags":["standard","long"],"duration":0.3055555555555556,"velocity":70.37454217067419},
{"position":165.21875,"instrument":"TheGrandeurPiano","level2":10,"level3":null,"pitch":61,"articulation":"standard","articulation_tags":["standard","long"],"duration":0.3611111111111111,"velocity":70.37454217067419},
{"position":165.61458333333334,"instrument":"TheGrandeurPiano","level2":10,"level3":null,"pitch":61,"articulation":"standard","articulation_tags":["standard","long"],"duration":0.3263888888888889,"velocity":71.16305967616036},
{"position":165.76041666666666,"instrument":"TheGrandeurPiano","level2":10,"level3":null,"pitch":62,"articulation":"standard","articulation_tags":["standard","long"],"duration":0.3611111111111111,"velocity":70.8005383799157},
{"position":166.10416666666666,"instrument":"TheGrandeurPiano","level2":10,"level3":null,"pitch":62,"articulation":"standard","articulation_tags":["standard","long"],"duration":0.3472222222222222,"velocity":70.67916383803134},
{"position":166.30208333333334,"instrument":"TheGrandeurPiano","level2":10,"level3":null,"pitch":62,"articulation":"standard","articulation_tags":["standard","long"],"duration":0.3541666666666667,"velocity":70.8005383799157},
{"position":166.61458333333334,"instrument":"TheGrandeurPiano","level2":10,"level3":null,"pitch":62,"articulation":"standard","articulation_tags":["standard","long"],"duration":0.3680555555555556,"velocity":71.16305967616036},
{"position":166.83333333333334,"instrument":"TheGrandeurPiano","level2":10,"level3":null,"pitch":63,"articulation":"standard","articulation_tags":["standard","long"],"duration":0.3541666666666667,"velocity":71.76202467941175},
{"position":167.15625,"instrument":"Trumpet","level2":10,"level3":2,"pitch":67,"articulation":"multitongue","articulation_tags":["multitongue","short"],"duration":0.25,"velocity":127.5},
{"position":167.16666666666666,"instrument":"TheGrandeurPiano","level2":10,"level3":null,"pitch":63,"articulation":"standard","articulation_tags":["standard","long"],"duration":0.3958333333333333,"velocity":71.3434298348877},
{"position":167.36458333333334,"instrument":"TheGrandeurPiano","level2":10,"level3":null,"pitch":63,"articulation":"standard","articulation_tags":["standard","long"],"duration":0.3472222222222222,"velocity":70.19094724413773},
{"position":167.76041666666666,"instrument":"TheGrandeurPiano","level2":10,"level3":null,"pitch":63,"articulation":"standard","articulation_tags":["standard","long"],"duration":0.4236111111111111,"velocity":70.61837542141933},
{"position":167.88541666666666,"instrument":"TheGrandeurPiano","level2":10,"level3":null,"pitch":64,"articulation":"standard","articulation_tags":["standard","long"],"duration":0.3472222222222222,"velocity":70.61837542141933},
{"position":168.39583333333334,"instrument":"TheGrandeurPiano","level2":10,"level3":null,"pitch":64,"articulation":"standard","articulation_tags":["standard","long"],"duration":0.4652777777777778,"velocity":71.10280508725903},
{"position":168.40625,"instrument":"TheGrandeurPiano","level2":10,"level3":null,"pitch":64,"articulation":"standard","articulation_tags":["standard","long"],"duration":0.3472222222222222,"velocity":71.10280508725903},
{"position":168.92708333333334,"instrument":"TheGrandeurPiano","level2":10,"level3":null,"pitch":65,"articulation":"standard","articulation_tags":["standard","long"],"duration":0.3402777777777778,"velocity":70.19094724413773},
{"position":169.09375,"instrument":"TheGrandeurPiano","level2":10,"level3":null,"pitch":65,"articulation":"standard","articulation_tags":["standard","long"],"duration":0.5138888888888888,"velocity":70.1296105552751},
{"position":169.29166666666666,"instrument":"Trumpet","level2":10,"level3":7,"pitch":67,"articulation":"multitongue","articulation_tags":["multitongue","short"],"duration":0.25,"velocity":127.5},
{"position":169.4375,"instrument":"TheGrandeurPiano","level2":10,"level3":null,"pitch":65,"articulation":"standard","articulation_tags":["standard","long"],"duration":0.3402777777777778,"velocity":70.37454217067419},
{"position":169.85416666666666,"instrument":"TheGrandeurPiano","level2":10,"level3":null,"pitch":65,"articulation":"standard","articulation_tags":["standard","long"],"duration":0.5763888888888888,"velocity":71.10280508725903},
{"position":169.94791666666666,"instrument":"TheGrandeurPiano","level2":10,"level3":null,"pitch":66,"articulation":"standard","articulation_tags":["standard","long"],"duration":0.3402777777777778,"velocity":71.64274748469009},
{"position":170.17708333333334,"instrument":"Trumpet","level2":10,"level3":0,"pitch":67,"articulation":"multitongue","articulation_tags":["multitongue","short"],"duration":0.25,"velocity":127.5},
{"position":170.26041666666666,"instrument":"CorAnglais","level2":10,"level3":1,"pitch":68,"articulation":"trill_2M","articulation_tags":["trill_2M","long","trill","M2"],"duration":22.979166666666668,"velocity":127.0},
{"position":170.46875,"instrument":"Trumpet","level2":10,"level3":2,"pitch":67,"articulation":"multitongue","articulation_tags":["multitongue","short"],"duration":0.25,"velocity":127.5},
{"position":170.46875,"instrument":"TheGrandeurPiano","level2":10,"level3":null,"pitch":66,"articulation":"standard","articulation_tags":["standard","long"],"duration":0.3402777777777778,"velocity":70.61837542141933},
{"position":170.71875,"instrument":"TheGrandeurPiano","level2":10,"level3":null,"pitch":66,"articulation":"standard","articulation_tags":["standard","long"],"duration":0.6666666666666666,"velocity":70.19094724413773},
{"position":170.875,"instrument":"Trumpet","level2":10,"level3":3,"pitch":67,"articulation":"multitongue","articulation_tags":["multitongue","short"],"duration":0.25,"velocity":127.5},
{"position":170.97916666666666,"instrument":"TheGrandeurPiano","level2":10,"level3":null,"pitch":67,"articulation":"standard","articulation_tags":["standard","long"],"duration":0.3402777777777778,"velocity":71.3434298348877},
{"position":171.48958333333334,"instrument":"TheGrandeurPiano","level2":10,"level3":null,"pitch":67,"articulation":"standard","articulation_tags":["standard","long"],"duration":0.3402777777777778,"velocity":71.16305967616036},
{"position":171.71875,"instrument":"TheGrandeurPiano","level2":10,"level3":null,"pitch":67,"articulation":"standard","articulation_tags":["standard","long"],"duration":0.8194444444444444,"velocity":70.8005383799157},
{"position":172.0,"instrument":"TheGrandeurPiano","level2":10,"level3":null,"pitch":68,"articulation":"standard","articulation_tags":["standard","long"],"duration":0.3402777777777778,"velocity":70.67916383803134},
{"position":172.51041666666666,"instrument":"TheGrandeurPiano","level2":10,"level3":null,"pitch":68,"articulation":"standard","articulation_tags":["standard","long"],"duration":0.3402777777777778,"velocity":71.16305967616036},
{"position":172.61458333333334,"instrument":"Trumpet","level2":10,"level3":7,"pitch":67,"articulation":"multitongue","articulation_tags":["multitongue","short"],"duration":0.25,"velocity":127.5},
{"position":172.8125,"instrument":"Bassoon","level2":10,"level3":4,"pitch":67,"articulation":"trill_2m","articulation_tags":["trill_2m","long","trill","m2"],"duration":1.5833333333333333,"velocity":127.0},
{"position":172.94791666666666,"instrument":"TheGrandeurPiano","level2":10,"level3":null,"pitch":68,"articulation":"standard","articulation_tags":["standard","long"],"duration":1.1319444444444444,"velocity":70.37454217067419},
{"position":173.01041666666666,"instrument":"TheGrandeurPiano","level2":10,"level3":null,"pitch":69,"articulation":"standard","articulation_tags":["standard","long"],"duration":0.3402777777777778,"velocity":72.58992611113482},
{"position":173.52083333333334,"instrument":"TheGrandeurPiano","level2":10,"level3":null,"pitch":69,"articulation":"standard","articulation_tags":["standard","long"],"duration":0.3402777777777778,"velocity":71.52321405450738},
{"position":174.04166666666666,"instrument":"TheGrandeurPiano","level2":10,"level3":null,"pitch":70,"articulation":"standard","articulation_tags":["standard","long"],"duration":0.3402777777777778,"velocity":71.64274748469009},
{"position":174.55208333333334,"instrument":"TheGrandeurPiano","level2":10,"level3":null,"pitch":70,"articulation":"standard","articulation_tags":["standard","long"],"duration":0.3402777777777778,"velocity":70.37454217067419},
{"position":174.64583333333334,"instrument":"TheGrandeurPiano","level2":10,"level3":null,"pitch":70,"articulation":"standard","articulation_tags":["standard","long"],"duration":2.1023622047244093,"velocity":72.94105621931081},
{"position":175.0625,"instrument":"TheGrandeurPiano","level2":10,"level3":null,"pitch":71,"articulation":"standard","articulation_tags":["standard","long"],"duration":0.3402777777777778,"velocity":72.76576265952221},
{"position":175.51041666666666,"instrument":"Trumpet","level2":10,"level3":5,"pitch":67,"articulation":"multitongue","articulation_tags":["multitongue","short"],"duration":0.25,"velocity":127.5},
{"position":175.57291666666666,"instrument":"TheGrandeurPiano","level2":10,"level3":null,"pitch":71,"articulation":"standard","articulation_tags":["standard","long"],"duration":0.3472222222222222,"velocity":73.63689942723107},
{"position":176.09375,"instrument":"TheGrandeurPiano","level2":10,"level3":null,"pitch":72,"articulation":"standard","articulation_tags":["standard","long"],"duration":0.3472222222222222,"velocity":73.05761940418697},
{"position":176.61458333333334,"instrument":"TheGrandeurPiano","level2":10,"level3":null,"pitch":72,"articulation":"standard","articulation_tags":["standard","long"],"duration":0.3472222222222222,"velocity":72.53119238891506},
{"position":177.13541666666666,"instrument":"TheGrandeurPiano","level2":10,"level3":null,"pitch":73,"articulation":"standard","articulation_tags":["standard","long"],"duration":0.3472222222222222,"velocity":73.9243670430726},
{"position":177.45833333333334,"instrument":"Trumpet","level2":10,"level3":1,"pitch":67,"articulation":"multitongue","articulation_tags":["multitongue","short"],"duration":0.25,"velocity":127.5},
{"position":177.65625,"instrument":"TheGrandeurPiano","level2":10,"level3":null,"pitch":73,"articulation":"standard","articulation_tags":["standard","long"],"duration":0.3472222222222222,"velocity":74.43824532359884},
{"position":178.17708333333334,"instrument":"TheGrandeurPiano","level2":10,"level3":null,"pitch":74,"articulation":"standard","articulation_tags":["standard","long"],"duration":0.3541666666666667,"velocity":74.43824532359884},
{"position":178.70833333333334,"instrument":"TheGrandeurPiano","level2":10,"level3":null,"pitch":74,"articulation":"standard","articulation_tags":["standard","long"],"duration":0.3541666666666667,"velocity":73.9243670430726},
{"position":179.23958333333334,"instrument":"TheGrandeurPiano","level2":10,"level3":null,"pitch":75,"articulation":"standard","articulation_tags":["standard","long"],"duration":0.3541666666666667,"velocity":75.9534583988505},
{"position":179.61458333333334,"instrument":"Trumpet","level2":10,"level3":2,"pitch":66,"articulation":"multitongue","articulation_tags":["multitongue","short"],"duration":0.25,"velocity":127.5},
{"position":179.77083333333334,"instrument":"TheGrandeurPiano","level2":10,"level3":null,"pitch":75,"articulation":"standard","articulation_tags":["standard","long"],"duration":0.3611111111111111,"velocity":75.50852862551167},
{"position":180.3125,"instrument":"TheGrandeurPiano","level2":10,"level3":null,"pitch":76,"articulation":"standard","articulation_tags":["standard","long"],"duration":0.3611111111111111,"velocity":76.17468962435433},
{"position":180.85416666666666,"instrument":"TheGrandeurPiano","level2":10,"level3":null,"pitch":76,"articulation":"standard","articulation_tags":["standard","long"],"duration":0.3680555555555556,"velocity":75.28481156053938},
{"position":181.19791666666666,"instrument":"TheGrandeurPiano","level2":10,"level3":null,"pitch":76,"articulation":"standard","articulation_tags":["standard","long"],"duration":1.1736111111111112,"velocity":75.50852862551167},
{"position":181.22916666666666,"instrument":"Trumpet","level2":10,"level3":2,"pitch":66,"articulation":"multitongue","articulation_tags":["multitongue","short"],"duration":0.25,"velocity":127.5},
{"position":181.40625,"instrument":"TheGrandeurPiano","level2":10,"level3":null,"pitch":77,"articulation":"standard","articulation_tags":["standard","long"],"duration":0.3680555555555556,"velocity":75.78699775811785},
{"position":181.72916666666666,"instrument":"Trumpet","level2":10,"level3":3,"pitch":67,"articulation":"multitongue","articulation_tags":["multitongue","short"],"duration":0.25,"velocity":127.5},
{"position":181.73958333333334,"instrument":"Bassoon","level2":10,"level3":0,"pitch":67,"articulation":"trill_2m","articulation_tags":["trill_2m","long","trill","m2"],"duration":7.864583333333333,"velocity":127.0},
{"position":181.75,"instrument":"Cello","level2":10,"level3":0,"pitch":66,"articulation":"long_cs","articulation_tags":["long_cs","cs","long","consordina"],"duration":9.59375,"velocity":127.0},
{"position":181.95833333333334,"instrument":"TheGrandeurPiano","level2":10,"level3":null,"pitch":77,"articulation":"standard","articulation_tags":["standard","long"],"duration":0.375,"velocity":77.26886451053883},
{"position":182.28125,"instrument":"Trumpet","level2":10,"level3":5,"pitch":67,"articulation":"multitongue","articulation_tags":["multitongue","short"],"duration":0.25,"velocity":127.5},
{"position":182.51041666666666,"instrument":"TheGrandeurPiano","level2":10,"level3":null,"pitch":78,"articulation":"standard","articulation_tags":["standard","long"],"duration":0.375,"velocity":78.29053074972941},
{"position":182.85416666666666,"instrument":"Trumpet","level2":10,"level3":5,"pitch":66,"articulation":"multitongue","articulation_tags":["multitongue","short"],"duration":0.25,"velocity":127.5},
{"position":182.95833333333334,"instrument":"TheGrandeurPiano","level2":10,"level3":null,"pitch":78,"articulation":"standard","articulation_tags":["standard","long"],"duration":0.8611111111111112,"velocity":78.34383887309278},
{"position":183.08333333333334,"instrument":"TheGrandeurPiano","level2":10,"level3":null,"pitch":78,"articulation":"standard","articulation_tags":["standard","long"],"duration":0.3819444444444444,"velocity":77.485362939609},
{"position":183.64583333333334,"instrument":"TheGrandeurPiano","level2":10,"level3":null,"pitch":79,"articulation":"standard","articulation_tags":["standard","long"],"duration":0.3888888888888889,"velocity":78.07684047757512},
{"position":184.22916666666666,"instrument":"TheGrandeurPiano","level2":10,"level3":null,"pitch":79,"articulation":"standard","articulation_tags":["standard","long"],"duration":0.3888888888888889,"velocity":78.07684047757512},
{"position":184.25,"instrument":"TheGrandeurPiano","level2":10,"level3":null,"pitch":79,"articulation":"standard","articulation_tags":["standard","long"],"duration":0.7152777777777778,"velocity":78.07684047757512},
{"position":184.8125,"instrument":"TheGrandeurPiano","level2":10,"level3":null,"pitch":80,"articulation":"standard","articulation_tags":["standard","long"],"duration":0.3958333333333333,"velocity":77.485362939609},
{"position":185.32291666666666,"instrument":"TheGrandeurPiano","level2":10,"level3":null,"pitch":80,"articulation":"standard","articulation_tags":["standard","long"],"duration":0.6180555555555556,"velocity":78.29053074972941},
{"position":185.41666666666666,"instrument":"TheGrandeurPiano","level2":10,"level3":null,"pitch":80,"articulation":"standard","articulation_tags":["standard","long"],"duration":0.4027777777777778,"velocity":78.29053074972941},
{"position":186.02083333333334,"instrument":"TheGrandeurPiano","level2":10,"level3":null,"pitch":81,"articulation":"standard","articulation_tags":["standard","long"],"duration":0.4097222222222222,"velocity":79.76631479798509},
{"position":186.25,"instrument":"TheGrandeurPiano","level2":10,"level3":null,"pitch":81,"articulation":"standard","articulation_tags":["standard","long"],"duration":0.5555555555555556,"velocity":79.19065306714964},
{"position":186.63541666666666,"instrument":"TheGrandeurPiano","level2":10,"level3":null,"pitch":81,"articulation":"standard","articulation_tags":["standard","long"],"duration":0.4166666666666667,"velocity":78.34383887309278},
{"position":186.9375,"instrument":"Trumpet","level2":10,"level3":11,"pitch":67,"articulation":"multitongue","articulation_tags":["multitongue","short"],"duration":0.25,"velocity":127.5},
{"position":186.9375,"instrument":"Cello","level2":10,"level3":12,"pitch":68,"articulation":"long_cs","articulation_tags":["long_cs","cs","long","consordina"],"duration":0.08333333333333333,"velocity":127.0},
{"position":187.03125,"instrument":"Cello","level2":10,"level3":12,"pitch":68,"articulation":"long_cs","articulation_tags":["long_cs","cs","long","consordina"],"duration":12.6875,"velocity":127.0},
{"position":187.08333333333334,"instrument":"TheGrandeurPiano","level2":10,"level3":null,"pitch":81,"articulation":"standard","articulation_tags":["standard","long"],"duration":0.5069444444444444,"velocity":77.86241206317153},
{"position":187.26041666666666,"instrument":"TheGrandeurPiano","level2":10,"level3":null,"pitch":82,"articulation":"standard","articulation_tags":["standard","long"],"duration":0.4305555555555556,"velocity":77.91608878655691},
{"position":187.84375,"instrument":"TheGrandeurPiano","level2":10,"level3":null,"pitch":82,"articulation":"standard","articulation_tags":["standard","long"],"duration":0.4722222222222222,"velocity":79.19065306714964},
{"position":187.90625,"instrument":"TheGrandeurPiano","level2":10,"level3":null,"pitch":82,"articulation":"standard","articulation_tags":["standard","long"],"duration":0.4375,"velocity":79.19065306714964},
{"position":188.54166666666666,"instrument":"TheGrandeurPiano","level2":10,"level3":null,"pitch":82,"articulation":"standard","articulation_tags":["standard","long"],"duration":0.4375,"velocity":79.66203620850807},
{"position":188.5625,"instrument":"TheGrandeurPiano","level2":10,"level3":null,"pitch":83,"articulation":"standard","articulation_tags":["standard","long"],"duration":0.4513888888888889,"velocity":79.66203620850807},
{"position":188.64583333333334,"instrument":"Trumpet","level2":10,"level3":1,"pitch":67,"articulation":"multitongue","articulation_tags":["multitongue","short"],"duration":0.25,"velocity":127.5},
{"position":189.19791666666666,"instrument":"TheGrandeurPiano","level2":10,"level3":null,"pitch":83,"articulation":"standard","articulation_tags":["standard","long"],"duration":0.4097222222222222,"velocity":79.66203620850807},
{"position":189.23958333333334,"instrument":"TheGrandeurPiano","level2":10,"level3":null,"pitch":83,"articulation":"standard","articulation_tags":["standard","long"],"duration":0.4652777777777778,"velocity":79.66203620850807},
{"position":189.60416666666666,"instrument":"Trumpet","level2":10,"level3":0,"pitch":66,"articulation":"multitongue","articulation_tags":["multitongue","short"],"duration":0.25,"velocity":127.27622926360914},
{"position":189.82291666666666,"instrument":"TheGrandeurPiano","level2":10,"level3":null,"pitch":83,"articulation":"standard","articulation_tags":["standard","long"],"duration":0.3888888888888889,"velocity":80.02626823946231},
{"position":189.90625,"instrument":"Trumpet","level2":10,"level3":3,"pitch":66,"articulation":"multitongue","articulation_tags":["multitongue","short"],"duration":0.25,"velocity":126.97751773540548},
{"position":189.94791666666666,"instrument":"TheGrandeurPiano","level2":10,"level3":null,"pitch":84,"articulation":"standard","articulation_tags":["standard","long"],"duration":0.4861111111111111,"velocity":79.81839019645436},
{"position":190.39583333333334,"instrument":"TheGrandeurPiano","level2":10,"level3":null,"pitch":84,"articulation":"standard","articulation_tags":["standard","long"],"duration":0.3680555555555556,"velocity":78.07684047757512},
{"position":190.51041666666666,"instrument":"Trumpet","level2":10,"level3":11,"pitch":67,"articulation":"multitongue","articulation_tags":["multitongue","short"],"duration":0.25,"velocity":126.67794292882382},
{"position":190.66666666666666,"instrument":"TheGrandeurPiano","level2":10,"level3":null,"pitch":84,"articulation":"standard","articulation_tags":["standard","long"],"duration":0.5069444444444444,"velocity":80.44001256580367},
{"position":190.95833333333334,"instrument":"TheGrandeurPiano","level2":10,"level3":null,"pitch":84,"articulation":"standard","articulation_tags":["standard","long"],"duration":0.3541666666666667,"velocity":79.66203620850807},
{"position":191.01041666666666,"instrument":"Trumpet","level2":10,"level3":12,"pitch":68,"articulation":"multitongue","articulation_tags":["multitongue","short"],"duration":0.25,"velocity":126.38009485009542},
{"position":191.15625,"instrument":"Bassoon","level2":10,"level3":3,"pitch":66,"articulation":"trill_2m","articulation_tags":["trill_2m","long","trill","m2"],"duration":0.1875,"velocity":124.76018970019084},
{"position":191.42708333333334,"instrument":"TheGrandeurPiano","level2":10,"level3":null,"pitch":85,"articulation":"standard","articulation_tags":["standard","long"],"duration":0.5277777777777778,"velocity":78.29053074972941},
{"position":191.47916666666666,"instrument":"TheGrandeurPiano","level2":10,"level3":null,"pitch":85,"articulation":"standard","articulation_tags":["standard","long"],"duration":0.3333333333333333,"velocity":78.29053074972941},
{"position":191.98958333333334,"instrument":"TheGrandeurPiano","level2":10,"level3":null,"pitch":85,"articulation":"standard","articulation_tags":["standard","long"],"duration":0.3194444444444444,"velocity":77.9697190164355},
{"position":192.21875,"instrument":"TheGrandeurPiano","level2":10,"level3":null,"pitch":85,"articulation":"standard","articulation_tags":["standard","long"],"duration":0.5625,"velocity":79.76631479798509},
{"position":192.46875,"instrument":"TheGrandeurPiano","level2":10,"level3":null,"pitch":85,"articulation":"standard","articulation_tags":["standard","long"],"duration":0.3125,"velocity":78.71572702195472},
{"position":192.9375,"instrument":"TheGrandeurPiano","level2":10,"level3":null,"pitch":85,"articulation":"standard","articulation_tags":["standard","long"],"duration":0.2986111111111111,"velocity":77.91608878655691},
{"position":193.0625,"instrument":"TheGrandeurPiano","level2":10,"level3":null,"pitch":86,"articulation":"standard","articulation_tags":["standard","long"],"duration":0.6041666666666666,"velocity":77.86241206317153},
{"position":193.23958333333334,"instrument":"CorAnglais","level2":10,"level3":1,"pitch":67,"articulation":"trill_2m","articulation_tags":["trill_2m","long","trill","m2"],"duration":6.354166666666667,"velocity":122.39716667983649},
{"position":193.38541666666666,"instrument":"TheGrandeurPiano","level2":10,"level3":null,"pitch":86,"articulation":"standard","articulation_tags":["standard","long"],"duration":0.2847222222222222,"velocity":78.07684047757512},
{"position":193.8125,"instrument":"TheGrandeurPiano","level2":10,"level3":null,"pitch":86,"articulation":"standard","articulation_tags":["standard","long"],"duration":0.2777777777777778,"velocity":78.71572702195472},
{"position":193.96875,"instrument":"TheGrandeurPiano","level2":10,"level3":null,"pitch":86,"articulation":"standard","articulation_tags":["standard","long"],"duration":0.6736111111111112,"velocity":79.19065306714964},
{"position":194.22916666666666,"instrument":"TheGrandeurPiano","level2":10,"level3":null,"pitch":86,"articulation":"standard","articulation_tags":["standard","long"],"duration":0.2708333333333333,"velocity":77.9697190164355},
{"position":194.63541666666666,"instrument":"TheGrandeurPiano","level2":10,"level3":null,"pitch":86,"articulation":"standard","articulation_tags":["standard","long"],"duration":0.2638888888888889,"velocity":78.29053074972941},
{"position":194.97916666666666,"instrument":"TheGrandeurPiano","level2":10,"level3":null,"pitch":87,"articulation":"standard","articulation_tags":["standard","long"],"duration":0.7777777777777778,"velocity":78.34383887309278},
{"position":195.02083333333334,"instrument":"TheGrandeurPiano","level2":10,"level3":null,"pitch":87,"articulation":"standard","articulation_tags":["standard","long"],"duration":0.25,"velocity":78.34383887309278},
{"position":195.40625,"instrument":"TheGrandeurPiano","level2":10,"level3":null,"pitch":87,"articulation":"standard","articulation_tags":["standard","long"],"duration":0.24305555555555555,"velocity":78.92724778104488},
{"position":195.77083333333334,"instrument":"TheGrandeurPiano","level2":10,"level3":null,"pitch":87,"articulation":"standard","articulation_tags":["standard","long"],"duration":0.2361111111111111,"velocity":78.07684047757512},
{"position":196.125,"instrument":"TheGrandeurPiano","level2":10,"level3":null,"pitch":87,"articulation":"standard","articulation_tags":["standard","long"],"duration":0.22916666666666666,"velocity":77.9697190164355},
{"position":196.14583333333334,"instrument":"TheGrandeurPiano","level2":10,"level3":null,"pitch":87,"articulation":"standard","articulation_tags":["standard","long"],"duration":1.0208333333333333,"velocity":79.81839019645436},
{"position":196.46875,"instrument":"TheGrandeurPiano","level2":10,"level3":null,"pitch":87,"articulation":"standard","articulation_tags":["standard","long"],"duration":0.2222222222222222,"velocity":78.39710145339546},
{"position":196.8125,"instrument":"TheGrandeurPiano","level2":10,"level3":null,"pitch":87,"articulation":"standard","articulation_tags":["standard","long"],"duration":0.2222222222222222,"velocity":77.485362939609},
{"position":197.13541666666666,"instrument":"TheGrandeurPiano","level2":10,"level3":null,"pitch":87,"articulation":"standard","articulation_tags":["standard","long"],"duration":0.2152777777777778,"velocity":78.34383887309278},
{"position":197.45833333333334,"instrument":"TheGrandeurPiano","level2":10,"level3":null,"pitch":87,"articulation":"standard","articulation_tags":["standard","long"],"duration":0.20833333333333334,"velocity":78.29053074972941},
{"position":197.67708333333334,"instrument":"TheGrandeurPiano","level2":10,"level3":null,"pitch":88,"articulation":"standard","articulation_tags":["standard","long"],"duration":2.3858267716535435,"velocity":78.76867403604693},
{"position":197.77083333333334,"instrument":"TheGrandeurPiano","level2":10,"level3":null,"pitch":88,"articulation":"standard","articulation_tags":["standard","long"],"duration":0.2013888888888889,"velocity":78.76867403604693},
{"position":198.07291666666666,"instrument":"TheGrandeurPiano","level2":10,"level3":null,"pitch":88,"articulation":"standard","articulation_tags":["standard","long"],"duration":0.19444444444444445,"velocity":79.76631479798509},
{"position":198.27083333333334,"instrument":"Trumpet","level2":10,"level3":11,"pitch":66,"articulation":"multitongue","articulation_tags":["multitongue","short"],"duration":0.25,"velocity":121.06435982702965},
{"position":198.36458333333334,"instrument":"TheGrandeurPiano","level2":10,"level3":null,"pitch":88,"articulation":"standard","articulation_tags":["standard","long"],"duration":0.19444444444444445,"velocity":78.71572702195472},
{"position":198.58333333333334,"instrument":"Trumpet","level2":10,"level3":11,"pitch":66,"articulation":"multitongue","articulation_tags":["multitongue","short"],"duration":0.25,"velocity":120.76604826176677},
{"position":198.65625,"instrument":"TheGrandeurPiano","level2":10,"level3":null,"pitch":88,"articulation":"standard","articulation_tags":["standard","long"],"duration":0.1875,"velocity":80.64589172473077},
{"position":198.90625,"instrument":"Trumpet","level2":10,"level3":1,"pitch":66,"articulation":"multitongue","articulation_tags":["multitongue","short"],"duration":0.25,"velocity":120.46774201274448},
{"position":198.9375,"instrument":"TheGrandeurPiano","level2":10,"level3":null,"pitch":88,"articulation":"standard","articulation_tags":["standard","long"],"duration":0.18055555555555555,"velocity":80.44001256580367},
{"position":199.20833333333334,"instrument":"TheGrandeurPiano","level2":10,"level3":null,"pitch":88,"articulation":"standard","articulation_tags":["standard","long"],"duration":0.18055555555555555,"velocity":80.64589172473077},
{"position":199.47916666666666,"instrument":"TheGrandeurPiano","level2":10,"level3":null,"pitch":88,"articulation":"standard","articulation_tags":["standard","long"],"duration":0.1736111111111111,"velocity":80.90232229004954},
{"position":199.59375,"instrument":"CorAnglais","level2":10,"level3":1,"pitch":66,"articulation":"trill_2m","articulation_tags":["trill_2m","long","trill","m2"],"duration":0.3125,"velocity":111.088759958376},
{"position":199.71875,"instrument":"Trumpet","level2":10,"level3":12,"pitch":67,"articulation":"multitongue","articulation_tags":["multitongue","short"],"duration":0.25,"velocity":119.544379979188},
{"position":199.73958333333334,"instrument":"TheGrandeurPiano","level2":10,"level3":null,"pitch":88,"articulation":"standard","articulation_tags":["standard","long"],"duration":0.1736111111111111,"velocity":79.19065306714964},
{"position":200.0,"instrument":"TheGrandeurPiano","level2":10,"level3":null,"pitch":88,"articulation":"standard","articulation_tags":["standard","long"],"duration":0.16666666666666666,"velocity":80.44001256580367},
{"position":200.25,"instrument":"TheGrandeurPiano","level2":10,"level3":null,"pitch":88,"articulation":"standard","articulation_tags":["standard","long"],"duration":0.1597222222222222,"velocity":81.2087078904994},
{"position":200.48958333333334,"instrument":"TheGrandeurPiano","level2":10,"level3":null,"pitch":88,"articulation":"standard","articulation_tags":["standard","long"],"duration":0.1597222222222222,"velocity":80.64589172473077},
{"position":200.72916666666666,"instrument":"TheGrandeurPiano","level2":10,"level3":null,"pitch":88,"articulation":"standard","articulation_tags":["standard","long"],"duration":0.1527777777777778,"velocity":79.40058936995418},
{"position":200.86458333333334,"instrument":"Contrabass","level2":12,"level3":0,"pitch":24,"articulation":"spiccato","articulation_tags":["spiccato","sp","short"],"duration":0.125,"velocity":117.95359643384995},
{"position":200.95833333333334,"instrument":"TheGrandeurPiano","level2":10,"level3":null,"pitch":88,"articulation":"standard","articulation_tags":["standard","long"],"duration":0.1527777777777778,"velocity":81.86765443913788},
{"position":201.0625,"instrument":"Contrabass","level2":12,"level3":0,"pitch":24,"articulation":"spiccato","articulation_tags":["spiccato","sp","short"],"duration":0.125,"velocity":117.63545957347603},
{"position":201.1875,"instrument":"TheGrandeurPiano","level2":10,"level3":null,"pitch":88,"articulation":"standard","articulation_tags":["standard","long"],"duration":0.14583333333333334,"velocity":81.0556954593137},
{"position":201.25,"instrument":"Contrabass","level2":12,"level3":1,"pitch":24,"articulation":"spiccato","articulation_tags":["spiccato","sp","short"],"duration":0.125,"velocity":117.3173296544711},
{"position":201.25,"instrument":"Contrabass","level2":12,"level3":2,"pitch":24,"articulation":"short_hrm","articulation_tags":["short_hrm","hrm_s","short","harmonics"],"duration":0.125,"velocity":117.3173296544711},
{"position":201.25,"instrument":"Contrabass","level2":12,"level3":2,"pitch":24,"articulation":"short_hrm","articulation_tags":["short_hrm","hrm_s","short","harmonics"],"duration":0.125,"velocity":117.3173296544711},
{"position":201.40625,"instrument":"TheGrandeurPiano","level2":10,"level3":null,"pitch":88,"articulation":"standard","articulation_tags":["standard","long"],"duration":0.14583333333333334,"velocity":80.44001256580367},
{"position":201.625,"instrument":"TheGrandeurPiano","level2":10,"level3":null,"pitch":88,"articulation":"standard","articulation_tags":["standard","long"],"duration":0.1388888888888889,"velocity":81.71617630583944},
{"position":201.76041666666666,"instrument":"Bassoon","level2":11,"level3":0,"pitch":49,"articulation":"staccato","articulation_tags":["staccato","st","short"],"duration":0.125,"velocity":116.68109123363661},
{"position":201.76041666666666,"instrument":"TenorTrombone","level2":11,"level3":1,"pitch":50,"articulation":"staccato","articulation_tags":["staccato","st","short"],"duration":0.25,"velocity":116.68109123363661},
{"position":201.78125,"instrument":"Marimba","level2":11,"level3":0,"pitch":49,"articulation":"hits","articulation_tags":["hits","short"],"duration":0.0625,"velocity":116.68109123363661},
{"position":201.80208333333334,"instrument":"TheGrandeurPiano","level2":11,"level3":null,"pitch":26,"articulation":"standard","articulation_tags":["standard","long"],"duration":0.0,"velocity":83.46226115800674},
{"position":201.80208333333334,"instrument":"TheGrandeurPiano","level2":11,"level3":null,"pitch":26,"articulation":"standard","articulation_tags":["standard","long"],"duration":0.0,"velocity":83.46226115800674},
{"position":201.80208333333334,"instrument":"TheGrandeurPiano","level2":12,"level3":null,"pitch":25,"articulation":"standard","articulation_tags":["standard","long"],"duration":0.0,"velocity":83.46226115800674},
{"position":201.80208333333334,"instrument":"TheGrandeurPiano","level2":12,"level3":null,"pitch":25,"articulation":"standard","articulation_tags":["standard","long"],"duration":0.0,"velocity":83.46226115800674},
{"position":201.8125,"instrument":"TheGrandeurPiano","level2":11,"level3":null,"pitch":26,"articulation":"standard","articulation_tags":["standard","long"],"duration":0.0,"velocity":81.6149966056376},
{"position":201.8125,"instrument":"TheGrandeurPiano","level2":11,"level3":null,"pitch":27,"articulation":"standard","articulation_tags":["standard","long"],"duration":0.0,"velocity":81.6149966056376},
{"position":201.8125,"instrument":"TheGrandeurPiano","level2":11,"level3":null,"pitch":27,"articulation":"standard","articulation_tags":["standard","long"],"duration":0.027777777777777776,"velocity":81.6149966056376},
{"position":201.8125,"instrument":"TheGrandeurPiano","level2":11,"level3":null,"pitch":27,"articulation":"standard","articulation_tags":["standard","long"],"duration":0.006944444444444444,"velocity":81.6149966056376},
{"position":201.8125,"instrument":"TheGrandeurPiano","level2":12,"level3":null,"pitch":24,"articulation":"standard","articulation_tags":["standard","long"],"duration":0.0,"velocity":81.6149966056376},
{"position":201.8125,"instrument":"TheGrandeurPiano","level2":12,"level3":null,"pitch":24,"articulation":"standard","articulation_tags":["standard","long"],"duration":0.020833333333333332,"velocity":81.6149966056376},
{"position":201.8125,"instrument":"TheGrandeurPiano","level2":12,"level3":null,"pitch":24,"articulation":"standard","articulation_tags":["standard","long"],"duration":0.006944444444444444,"velocity":81.6149966056376},
{"position":201.82291666666666,"instrument":"TheGrandeurPiano","level2":11,"level3":null,"pitch":28,"articulation":"standard","articulation_tags":["standard","long"],"duration":0.006944444444444444,"velocity":81.6149966056376},
{"position":201.82291666666666,"instrument":"TheGrandeurPiano","level2":12,"level3":null,"pitch":35,"articulation":"standard","articulation_tags":["standard","long"],"duration":0.006944444444444444,"velocity":81.6149966056376},
{"position":201.82291666666666,"instrument":"TheGrandeurPiano","level2":12,"level3":null,"pitch":35,"articulation":"standard","articulation_tags":["standard","long"],"duration":0.006944444444444444,"velocity":81.6149966056376},
{"position":201.83333333333334,"instrument":"TheGrandeurPiano","level2":10,"level3":null,"pitch":88,"articulation":"standard","articulation_tags":["standard","long"],"duration":0.1388888888888889,"velocity":81.6149966056376},
{"position":201.83333333333334,"instrument":"TheGrandeurPiano","level2":11,"level3":null,"pitch":28,"articulation":"standard","articulation_tags":["standard","long"],"duration":0.006944444444444444,"velocity":81.6149966056376},
{"position":201.83333333333334,"instrument":"TheGrandeurPiano","level2":12,"level3":null,"pitch":35,"articulation":"standard","articulation_tags":["standard","long"],"duration":0.034722222222222224,"velocity":81.6149966056376},
{"position":201.83333333333334,"instrument":"TheGrandeurPiano","level2":12,"level3":null,"pitch":34,"articulation":"standard","articulation_tags":["standard","long"],"duration":0.006944444444444444,"velocity":81.6149966056376},
{"position":201.84375,"instrument":"TheGrandeurPiano","level2":11,"level3":null,"pitch":29,"articulation":"standard","articulation_tags":["standard","long"],"duration":0.006944444444444444,"velocity":81.6149966056376},
{"position":201.85416666666666,"instrument":"TheGrandeurPiano","level2":12,"level3":null,"pitch":34,"articulation":"standard","articulation_tags":["standard","long"],"duration":0.006944444444444444,"velocity":81.6149966056376},
{"position":201.85416666666666,"instrument":"TheGrandeurPiano","level2":11,"level3":null,"pitch":29,"articulation":"standard","articulation_tags":["standard","long"],"duration":0.006944444444444444,"velocity":81.6149966056376},
{"position":201.85416666666666,"instrument":"TheGrandeurPiano","level2":11,"level3":null,"pitch":29,"articulation":"standard","articulation_tags":["standard","long"],"duration":0.06944444444444445,"velocity":81.6149966056376},
{"position":201.86458333333334,"instrument":"TheGrandeurPiano","level2":12,"level3":null,"pitch":33,"articulation":"standard","articulation_tags":["standard","long"],"duration":0.013888888888888888,"velocity":81.6149966056376},
{"position":201.86458333333334,"instrument":"TheGrandeurPiano","level2":11,"level3":null,"pitch":30,"articulation":"standard","articulation_tags":["standard","long"],"duration":0.006944444444444444,"velocity":81.6149966056376},
{"position":201.875,"instrument":"TheGrandeurPiano","level2":12,"level3":null,"pitch":33,"articulation":"standard","articulation_tags":["standard","long"],"duration":0.013888888888888888,"velocity":81.6149966056376},
{"position":201.88541666666666,"instrument":"TheGrandeurPiano","level2":11,"level3":null,"pitch":30,"articulation":"standard","articulation_tags":["standard","long"],"duration":0.013888888888888888,"velocity":81.6149966056376},
{"position":201.88541666666666,"instrument":"TheGrandeurPiano","level2":12,"level3":null,"pitch":33,"articulation":"standard","articulation_tags":["standard","long"],"duration":0.04861111111111111,"velocity":81.6149966056376},
{"position":201.89583333333334,"instrument":"TheGrandeurPiano","level2":12,"level3":null,"pitch":32,"articulation":"standard","articulation_tags":["standard","long"],"duration":0.013888888888888888,"velocity":81.6149966056376},
{"position":201.90625,"instrument":"TheGrandeurPiano","level2":11,"level3":null,"pitch":31,"articulation":"standard","articulation_tags":["standard","long"],"duration":0.013888888888888888,"velocity":81.6149966056376},
{"position":201.91666666666666,"instrument":"TheGrandeurPiano","level2":10,"level3":null,"pitch":87,"articulation":"standard","articulation_tags":["standard","long"],"duration":0.6805555555555556,"velocity":81.6149966056376},
{"position":201.91666666666666,"instrument":"TheGrandeurPiano","level2":12,"level3":null,"pitch":32,"articulation":"standard","articulation_tags":["standard","long"],"duration":0.013888888888888888,"velocity":81.6149966056376},
{"position":201.92708333333334,"instrument":"TheGrandeurPiano","level2":11,"level3":null,"pitch":31,"articulation":"standard","articulation_tags":["standard","long"],"duration":0.013888888888888888,"velocity":81.6149966056376},
{"position":201.9375,"instrument":"TheGrandeurPiano","level2":12,"level3":null,"pitch":31,"articulation":"standard","articulation_tags":["standard","long"],"duration":0.013888888888888888,"velocity":81.6149966056376},
{"position":201.94791666666666,"instrument":"TheGrandeurPiano","level2":11,"level3":null,"pitch":32,"articulation":"standard","articulation_tags":["standard","long"],"duration":0.013888888888888888,"velocity":81.6149966056376},
{"position":201.95833333333334,"instrument":"TheGrandeurPiano","level2":12,"level3":null,"pitch":31,"articulation":"standard","articulation_tags":["standard","long"],"duration":0.0625,"velocity":81.6149966056376},
{"position":201.95833333333334,"instrument":"TheGrandeurPiano","level2":11,"level3":null,"pitch":32,"articulation":"standard","articulation_tags":["standard","long"],"duration":0.1388888888888889,"velocity":81.6149966056376},
{"position":201.96875,"instrument":"TheGrandeurPiano","level2":12,"level3":null,"pitch":31,"articulation":"standard","articulation_tags":["standard","long"],"duration":0.020833333333333332,"velocity":81.6149966056376},
{"position":201.96875,"instrument":"TheGrandeurPiano","level2":11,"level3":null,"pitch":32,"articulation":"standard","articulation_tags":["standard","long"],"duration":0.013888888888888888,"velocity":81.6149966056376},
{"position":201.98958333333334,"instrument":"TheGrandeurPiano","level2":12,"level3":null,"pitch":30,"articulation":"standard","articulation_tags":["standard","long"],"duration":0.020833333333333332,"velocity":83.46226115800674},
{"position":201.98958333333334,"instrument":"TheGrandeurPiano","level2":11,"level3":null,"pitch":33,"articulation":"standard","articulation_tags":["standard","long"],"duration":0.020833333333333332,"velocity":83.46226115800674},
{"position":202.0,"instrument":"Marimba","level2":11,"level3":1,"pitch":50,"articulation":"hits","articulation_tags":["hits","short"],"duration":0.0625,"velocity":111.06055696877246},
{"position":202.02083333333334,"instrument":"TheGrandeurPiano","level2":12,"level3":null,"pitch":30,"articulation":"standard","articulation_tags":["standard","long"],"duration":0.020833333333333332,"velocity":81.71617630583944},
{"position":202.02083333333334,"instrument":"TheGrandeurPiano","level2":11,"level3":null,"pitch":33,"articulation":"standard","articulation_tags":["standard","long"],"duration":0.020833333333333332,"velocity":81.71617630583944},
{"position":202.04166666666666,"instrument":"TheGrandeurPiano","level2":10,"level3":null,"pitch":87,"articulation":"standard","articulation_tags":["standard","long"],"duration":0.13194444444444445,"velocity":81.71617630583944},
{"position":202.04166666666666,"instrument":"TheGrandeurPiano","level2":11,"level3":null,"pitch":34,"articulation":"standard","articulation_tags":["standard","long"],"duration":0.020833333333333332,"velocity":81.71617630583944},
{"position":202.05208333333334,"instrument":"TheGrandeurPiano","level2":12,"level3":null,"pitch":29,"articulation":"standard","articulation_tags":["standard","long"],"duration":0.020833333333333332,"velocity":81.71617630583944},
{"position":202.05208333333334,"instrument":"TheGrandeurPiano","level2":12,"level3":null,"pitch":29,"articulation":"standard","articulation_tags":["standard","long"],"duration":0.06944444444444445,"velocity":81.71617630583944},
{"position":202.07291666666666,"instrument":"Viola","level2":11,"level3":0,"pitch":49,"articulation":"collegno","articulation_tags":["collegno","cl","short"],"duration":0.125,"velocity":110.53194463975517},
{"position":202.07291666666666,"instrument":"TheGrandeurPiano","level2":11,"level3":null,"pitch":34,"articulation":"standard","articulation_tags":["standard","long"],"duration":0.020833333333333332,"velocity":81.71617630583944},
{"position":202.08333333333334,"instrument":"TheGrandeurPiano","level2":12,"level3":null,"pitch":29,"articulation":"standard","articulation_tags":["standard","long"],"duration":0.020833333333333332,"velocity":81.71617630583944},
{"position":202.10416666666666,"instrument":"TheGrandeurPiano","level2":11,"level3":null,"pitch":35,"articulation":"standard","articulation_tags":["standard","long"],"duration":0.020833333333333332,"velocity":81.71617630583944},
{"position":202.125,"instrument":"TheGrandeurPiano","level2":12,"level3":null,"pitch":28,"articulation":"standard","articulation_tags":["standard","long"],"duration":0.027777777777777776,"velocity":81.71617630583944},
{"position":202.13541666666666,"instrument":"TheGrandeurPiano","level2":11,"level3":null,"pitch":35,"articulation":"standard","articulation_tags":["standard","long"],"duration":0.020833333333333332,"velocity":81.71617630583944},
{"position":202.15625,"instrument":"TheGrandeurPiano","level2":12,"level3":null,"pitch":28,"articulation":"standard","articulation_tags":["standard","long"],"duration":0.027777777777777776,"velocity":81.71617630583944},
{"position":202.15625,"instrument":"TheGrandeurPiano","level2":12,"level3":null,"pitch":28,"articulation":"standard","articulation_tags":["standard","long"],"duration":0.08333333333333333,"velocity":81.71617630583944},
{"position":202.17708333333334,"instrument":"TheGrandeurPiano","level2":11,"level3":null,"pitch":36,"articulation":"standard","articulation_tags":["standard","long"],"duration":0.027777777777777776,"velocity":81.71617630583944},
{"position":202.17708333333334,"instrument":"TheGrandeurPiano","level2":11,"level3":null,"pitch":36,"articulation":"standard","articulation_tags":["standard","long"],"duration":0.3819444444444444,"velocity":81.71617630583944},
{"position":202.19791666666666,"instrument":"TheGrandeurPiano","level2":12,"level3":null,"pitch":27,"articulation":"standard","articulation_tags":["standard","long"],"duration":0.027777777777777776,"velocity":83.65894455248163},
{"position":202.20833333333334,"instrument":"TheGrandeurPiano","level2":11,"level3":null,"pitch":36,"articulation":"standard","articulation_tags":["standard","long"],"duration":0.027777777777777776,"velocity":83.65894455248163},
{"position":202.23958333333334,"instrument":"TheGrandeurPiano","level2":12,"level3":null,"pitch":27,"articulation":"standard","articulation_tags":["standard","long"],"duration":0.027777777777777776,"velocity":82.01878501129197},
{"position":202.25,"instrument":"TheGrandeurPiano","level2":10,"level3":null,"pitch":87,"articulation":"standard","articulation_tags":["standard","long"],"duration":0.13194444444444445,"velocity":82.01878501129197},
{"position":202.25,"instrument":"TheGrandeurPiano","level2":11,"level3":null,"pitch":37,"articulation":"standard","articulation_tags":["standard","long"],"duration":0.027777777777777776,"velocity":82.01878501129197},
{"position":202.28125,"instrument":"TheGrandeurPiano","level2":12,"level3":null,"pitch":27,"articulation":"standard","articulation_tags":["standard","long"],"duration":0.09027777777777778,"velocity":82.01878501129197},
{"position":202.28125,"instrument":"TheGrandeurPiano","level2":11,"level3":null,"pitch":37,"articulation":"standard","articulation_tags":["standard","long"],"duration":0.027777777777777776,"velocity":82.01878501129197},
{"position":202.29166666666666,"instrument":"TheGrandeurPiano","level2":12,"level3":null,"pitch":26,"articulation":"standard","articulation_tags":["standard","long"],"duration":0.034722222222222224,"velocity":82.01878501129197},
{"position":202.30208333333334,"instrument":"Cello","level2":11,"level3":2,"pitch":49,"articulation":"pizzicato","articulation_tags":["pizzicato","pz","short"],"duration":0.125,"velocity":108.52182466923638},
{"position":202.30208333333334,"instrument":"Cello","level2":11,"level3":3,"pitch":50,"articulation":"pizzicato_bartok","articulation_tags":["pizzicato_bartok","pzb","short","pizzicato","bartok"],"duration":0.125,"velocity":108.52182466923638},
{"position":202.30208333333334,"instrument":"Cello","level2":11,"level3":1,"pitch":50,"articulation":"pizzicato_bartok","articulation_tags":["pizzicato_bartok","pzb","short","pizzicato","bartok"],"duration":0.125,"velocity":108.52182466923638},
{"position":202.3125,"instrument":"Cello","level2":11,"level3":2,"pitch":49,"articulation":"pizzicato","articulation_tags":["pizzicato","pz","short"],"duration":0.125,"velocity":108.52182466923638},
{"position":202.32291666666666,"instrument":"TheGrandeurPiano","level2":11,"level3":null,"pitch":38,"articulation":"standard","articulation_tags":["standard","long"],"duration":0.027777777777777776,"velocity":82.01878501129197},
{"position":202.33333333333334,"instrument":"TheGrandeurPiano","level2":12,"level3":null,"pitch":26,"articulation":"standard","articulation_tags":["standard","long"],"duration":0.034722222222222224,"velocity":82.01878501129197},
{"position":202.36458333333334,"instrument":"TheGrandeurPiano","level2":11,"level3":null,"pitch":38,"articulation":"standard","articulation_tags":["standard","long"],"duration":0.027777777777777776,"velocity":82.01878501129197},
{"position":202.38541666666666,"instrument":"TheGrandeurPiano","level2":12,"level3":null,"pitch":25,"articulation":"standard","articulation_tags":["standard","long"],"duration":0.034722222222222224,"velocity":82.01878501129197},
{"position":202.41666666666666,"instrument":"TheGrandeurPiano","level2":11,"level3":null,"pitch":39,"articulation":"standard","articulation_tags":["standard","long"],"duration":0.027777777777777776,"velocity":82.52007379640287},
{"position":202.41666666666666,"instrument":"TheGrandeurPiano","level2":12,"level3":null,"pitch":25,"articulation":"standard","articulation_tags":["standard","long"],"duration":0.09722222222222222,"velocity":82.52007379640287},
{"position":202.4375,"instrument":"Cello","level2":11,"level3":0,"pitch":49,"articulation":"collegno","articulation_tags":["collegno","cl","short"],"duration":0.125,"velocity":107.75060990221247},
{"position":202.4375,"instrument":"TheGrandeurPiano","level2":10,"level3":null,"pitch":87,"articulation":"standard","articulation_tags":["standard","long"],"duration":0.125,"velocity":82.52007379640287},
{"position":202.4375,"instrument":"TheGrandeurPiano","level2":12,"level3":null,"pitch":25,"articulation":"standard","articulation_tags":["standard","long"],"duration":0.034722222222222224,"velocity":82.52007379640287},
{"position":202.45833333333334,"instrument":"TheGrandeurPiano","level2":11,"level3":null,"pitch":39,"articulation":"standard","articulation_tags":["standard","long"],"duration":0.034722222222222224,"velocity":82.52007379640287},
{"position":202.5,"instrument":"TheGrandeurPiano","level2":12,"level3":null,"pitch":24,"articulation":"standard","articulation_tags":["standard","long"],"duration":0.041666666666666664,"velocity":82.52007379640287},
{"position":202.51041666666666,"instrument":"TheGrandeurPiano","level2":11,"level3":null,"pitch":40,"articulation":"standard","articulation_tags":["standard","long"],"duration":0.034722222222222224,"velocity":82.52007379640287},
{"position":202.55208333333334,"instrument":"TheGrandeurPiano","level2":12,"level3":null,"pitch":24,"articulation":"standard","articulation_tags":["standard","long"],"duration":0.041666666666666664,"velocity":82.52007379640287},
{"position":202.55208333333334,"instrument":"TheGrandeurPiano","level2":11,"level3":null,"pitch":40,"articulation":"standard","articulation_tags":["standard","long"],"duration":0.034722222222222224,"velocity":82.52007379640287},
{"position":202.5625,"instrument":"TheGrandeurPiano","level2":12,"level3":null,"pitch":24,"articulation":"standard","articulation_tags":["standard","long"],"duration":0.10416666666666667,"velocity":82.52007379640287},
{"position":202.60416666666666,"instrument":"TheGrandeurPiano","level2":11,"level3":null,"pitch":41,"articulation":"standard","articulation_tags":["standard","long"],"duration":0.034722222222222224,"velocity":81.0556954593137},
{"position":202.61458333333334,"instrument":"TheGrandeurPiano","level2":12,"level3":null,"pitch":35,"articulation":"standard","articulation_tags":["standard","long"],"duration":0.041666666666666664,"velocity":81.0556954593137},
{"position":202.63541666666666,"instrument":"TheGrandeurPiano","level2":10,"level3":null,"pitch":87,"articulation":"standard","articulation_tags":["standard","long"],"duration":0.125,"velocity":81.0556954593137},
{"position":202.65625,"instrument":"TheGrandeurPiano","level2":11,"level3":null,"pitch":41,"articulation":"standard","articulation_tags":["standard","long"],"duration":0.034722222222222224,"velocity":83.21559758564419},
{"position":202.66666666666666,"instrument":"Marimba","level2":11,"level3":3,"pitch":50,"articulation":"hits","articulation_tags":["hits","short"],"duration":0.0625,"velocity":106.48581136416628},
{"position":202.67708333333334,"instrument":"TheGrandeurPiano","level2":12,"level3":null,"pitch":35,"articulation":"standard","articulation_tags":["standard","long"],"duration":0.041666666666666664,"velocity":83.21559758564419},
{"position":202.70833333333334,"instrument":"TheGrandeurPiano","level2":11,"level3":null,"pitch":42,"articulation":"standard","articulation_tags":["standard","long"],"duration":0.034722222222222224,"velocity":83.21559758564419},
{"position":202.71875,"instrument":"TheGrandeurPiano","level2":12,"level3":null,"pitch":35,"articulation":"standard","articulation_tags":["standard","long"],"duration":0.1111111111111111,"velocity":83.21559758564419},
{"position":202.72916666666666,"instrument":"Marimba","level2":11,"level3":3,"pitch":50,"articulation":"hits","articulation_tags":["hits","short"],"duration":0.0625,"velocity":106.23614105904852},
{"position":202.73958333333334,"instrument":"TheGrandeurPiano","level2":12,"level3":null,"pitch":34,"articulation":"standard","articulation_tags":["standard","long"],"duration":0.04861111111111111,"velocity":83.21559758564419},
{"position":202.75,"instrument":"TheGrandeurPiano","level2":11,"level3":null,"pitch":42,"articulation":"standard","articulation_tags":["standard","long"],"duration":0.2708333333333333,"velocity":83.21559758564419},
{"position":202.77083333333334,"instrument":"Contrabass","level2":12,"level3":3,"pitch":24,"articulation":"spiccato","articulation_tags":["spiccato","sp","short"],"duration":0.125,"velocity":125.13632978006893},
{"position":202.77083333333334,"instrument":"Contrabass","level2":12,"level3":4,"pitch":24,"articulation":"spiccato","articulation_tags":["spiccato","sp","short"],"duration":0.125,"velocity":125.13632978006893},
{"position":202.77083333333334,"instrument":"TheGrandeurPiano","level2":11,"level3":null,"pitch":42,"articulation":"standard","articulation_tags":["standard","long"],"duration":0.034722222222222224,"velocity":83.21559758564419},
{"position":202.8125,"instrument":"TheGrandeurPiano","level2":12,"level3":null,"pitch":34,"articulation":"standard","articulation_tags":["standard","long"],"duration":0.04861111111111111,"velocity":81.86765443913788},
{"position":202.82291666666666,"instrument":"TheGrandeurPiano","level2":10,"level3":null,"pitch":87,"articulation":"standard","articulation_tags":["standard","long"],"duration":0.125,"velocity":81.86765443913788},
{"position":202.82291666666666,"instrument":"TheGrandeurPiano","level2":11,"level3":null,"pitch":43,"articulation":"standard","articulation_tags":["standard","long"],"duration":0.041666666666666664,"velocity":81.86765443913788},
{"position":202.84375,"instrument":"Cello","level2":11,"level3":4,"pitch":49,"articulation":"pizzicato","articulation_tags":["pizzicato","pz","short"],"duration":0.125,"velocity":105.53958763053875},
{"position":202.84375,"instrument":"Cello","level2":11,"level3":4,"pitch":49,"articulation":"pizzicato","articulation_tags":["pizzicato","pz","short"],"duration":0.125,"velocity":105.53958763053875},
{"position":202.84375,"instrument":"Cello","level2":11,"level3":5,"pitch":50,"articulation":"pizzicato_bartok","articulation_tags":["pizzicato_bartok","pzb","short","pizzicato","bartok"],"duration":0.125,"velocity":105.53958763053875},
{"position":202.84375,"instrument":"Contrabass","level2":12,"level3":3,"pitch":24,"articulation":"spiccato","articulation_tags":["spiccato","sp","short"],"duration":0.125,"velocity":125.39816324532646},
{"position":202.88541666666666,"instrument":"TheGrandeurPiano","level2":12,"level3":null,"pitch":34,"articulation":"standard","articulation_tags":["standard","long"],"duration":0.11805555555555555,"velocity":81.86765443913788},
{"position":202.88541666666666,"instrument":"TheGrandeurPiano","level2":12,"level3":null,"pitch":33,"articulation":"standard","articulation_tags":["standard","long"],"duration":0.04861111111111111,"velocity":81.86765443913788},
{"position":202.88541666666666,"instrument":"TheGrandeurPiano","level2":11,"level3":null,"pitch":43,"articulation":"standard","articulation_tags":["standard","long"],"duration":0.041666666666666664,"velocity":81.86765443913788},
{"position":202.9375,"instrument":"TheGrandeurPiano","level2":11,"level3":null,"pitch":44,"articulation":"standard","articulation_tags":["standard","long"],"duration":0.041666666666666664,"velocity":84.09940526257412},
{"position":202.94791666666666,"instrument":"TheGrandeurPiano","level2":10,"level3":null,"pitch":87,"articulation":"standard","articulation_tags":["standard","long"],"duration":0.4444444444444444,"velocity":84.09940526257412},
{"position":202.95833333333334,"instrument":"TheGrandeurPiano","level2":12,"level3":null,"pitch":33,"articulation":"standard","articulation_tags":["standard","long"],"duration":0.04861111111111111,"velocity":84.09940526257412},
{"position":203.01041666666666,"instrument":"TheGrandeurPiano","level2":11,"level3":null,"pitch":44,"articulation":"standard","articulation_tags":["standard","long"],"duration":0.06944444444444445,"velocity":82.8687399936403},
{"position":203.01041666666666,"instrument":"TheGrandeurPiano","level2":10,"level3":null,"pitch":87,"articulation":"standard","articulation_tags":["standard","long"],"duration":0.11805555555555555,"velocity":82.8687399936403},
{"position":203.04166666666666,"instrument":"Cello","level2":11,"level3":5,"pitch":50,"articulation":"pizzicato_bartok","articulation_tags":["pizzicato_bartok","pzb","short","pizzicato","bartok"],"duration":0.125,"velocity":104.8004125121361},
{"position":203.04166666666666,"instrument":"TheGrandeurPiano","level2":12,"level3":null,"pitch":32,"articulation":"standard","articulation_tags":["standard","long"],"duration":0.05555555555555555,"velocity":82.8687399936403},
{"position":203.0625,"instrument":"TheGrandeurPiano","level2":12,"level3":null,"pitch":32,"articulation":"standard","articulation_tags":["standard","long"],"duration":0.125,"velocity":82.8687399936403},
{"position":203.08333333333334,"instrument":"Cello","level2":11,"level3":2,"pitch":49,"articulation":"pizzicato","articulation_tags":["pizzicato","pz","short"],"duration":0.125,"velocity":104.8004125121361},
{"position":203.11458333333334,"instrument":"TheGrandeurPiano","level2":11,"level3":null,"pitch":45,"articulation":"standard","articulation_tags":["standard","long"],"duration":0.06944444444444445,"velocity":82.8687399936403},
{"position":203.11458333333334,"instrument":"TheGrandeurPiano","level2":12,"level3":null,"pitch":32,"articulation":"standard","articulation_tags":["standard","long"],"duration":0.05555555555555555,"velocity":82.8687399936403},
{"position":203.125,"instrument":"Cello","level2":11,"level3":6,"pitch":49,"articulation":"pizzicato","articulation_tags":["pizzicato","pz","short"],"duration":0.125,"velocity":104.55652834150234},
{"position":203.125,"instrument":"Cello","level2":11,"level3":7,"pitch":50,"articulation":"collegno","articulation_tags":["collegno","cl","short"],"duration":0.125,"velocity":104.55652834150234},
{"position":203.14583333333334,"instrument":"Viola","level2":11,"level3":6,"pitch":49,"articulation":"pizzicato","articulation_tags":["pizzicato","pz","short"],"duration":0.125,"velocity":104.55652834150234},
{"position":203.15625,"instrument":"TheGrandeurPiano","level2":11,"level3":null,"pitch":45,"articulation":"standard","articulation_tags":["standard","long"],"duration":0.5486111111111112,"velocity":81.71617630583944},
{"position":203.1875,"instrument":"TheGrandeurPiano","level2":10,"level3":null,"pitch":87,"articulation":"standard","articulation_tags":["standard","long"],"duration":0.11805555555555555,"velocity":81.71617630583944},
{"position":203.20833333333334,"instrument":"TheGrandeurPiano","level2":12,"level3":null,"pitch":31,"articulation":"standard","articulation_tags":["standard","long"],"duration":0.05555555555555555,"velocity":84.0506059691252},
{"position":203.20833333333334,"instrument":"TheGrandeurPiano","level2":11,"level3":null,"pitch":45,"articulation":"standard","articulation_tags":["standard","long"],"duration":0.06944444444444445,"velocity":84.0506059691252},
{"position":203.25,"instrument":"TheGrandeurPiano","level2":12,"level3":null,"pitch":31,"articulation":"standard","articulation_tags":["standard","long"],"duration":0.13194444444444445,"velocity":84.0506059691252},
{"position":203.29166666666666,"instrument":"TheGrandeurPiano","level2":12,"level3":null,"pitch":31,"articulation":"standard","articulation_tags":["standard","long"],"duration":0.0625,"velocity":83.01761306843582},
{"position":203.3125,"instrument":"TheGrandeurPiano","level2":11,"level3":null,"pitch":46,"articulation":"standard","articulation_tags":["standard","long"],"duration":0.06944444444444445,"velocity":83.01761306843582},
{"position":203.35416666666666,"instrument":"TheGrandeurPiano","level2":10,"level3":null,"pitch":87,"articulation":"standard","articulation_tags":["standard","long"],"duration":0.1111111111111111,"velocity":83.01761306843582},
{"position":203.38541666666666,"instrument":"Cello","level2":11,"level3":8,"pitch":49,"articulation":"pizzicato","articulation_tags":["pizzicato","pz","short"],"duration":0.125,"velocity":104.28251156685276},
{"position":203.38541666666666,"instrument":"Cello","level2":11,"level3":9,"pitch":50,"articulation":"pizzicato_bartok","articulation_tags":["pizzicato_bartok","pzb","short","pizzicato","bartok"],"duration":0.125,"velocity":104.28251156685276},
{"position":203.38541666666666,"instrument":"Cello","level2":11,"level3":2,"pitch":49,"articulation":"collegno","articulation_tags":["collegno","cl","short"],"duration":0.125,"velocity":104.28251156685276},
{"position":203.38541666666666,"instrument":"TheGrandeurPiano","level2":12,"level3":null,"pitch":30,"articulation":"standard","articulation_tags":["standard","long"],"duration":0.0625,"velocity":83.01761306843582},
{"position":203.39583333333334,"instrument":"Cello","level2":11,"level3":9,"pitch":50,"articulation":"pizzicato_bartok","articulation_tags":["pizzicato_bartok","pzb","short","pizzicato","bartok"],"duration":0.125,"velocity":104.28251156685276},
{"position":203.41666666666666,"instrument":"TheGrandeurPiano","level2":11,"level3":null,"pitch":46,"articulation":"standard","articulation_tags":["standard","long"],"duration":0.06944444444444445,"velocity":83.01761306843582},
{"position":203.4375,"instrument":"TheGrandeurPiano","level2":12,"level3":null,"pitch":30,"articulation":"standard","articulation_tags":["standard","long"],"duration":0.13194444444444445,"velocity":83.01761306843582},
{"position":203.4375,"instrument":"Viola","level2":11,"level3":9,"pitch":50,"articulation":"pizzicato_bartok","articulation_tags":["pizzicato_bartok","pzb","short","pizzicato","bartok"],"duration":0.125,"velocity":104.04419110394272},
{"position":203.47916666666666,"instrument":"TheGrandeurPiano","level2":12,"level3":null,"pitch":30,"articulation":"standard","articulation_tags":["standard","long"],"duration":0.0625,"velocity":82.06908504526425},
{"position":203.51041666666666,"instrument":"TheGrandeurPiano","level2":11,"level3":null,"pitch":47,"articulation":"standard","articulation_tags":["standard","long"],"duration":0.0625,"velocity":82.06908504526425},
{"position":203.53125,"instrument":"TheGrandeurPiano","level2":10,"level3":null,"pitch":87,"articulation":"standard","articulation_tags":["standard","long"],"duration":0.1111111111111111,"velocity":82.06908504526425},
{"position":203.57291666666666,"instrument":"TheGrandeurPiano","level2":12,"level3":null,"pitch":29,"articulation":"standard","articulation_tags":["standard","long"],"duration":0.06944444444444445,"velocity":84.48854788886726},
{"position":203.60416666666666,"instrument":"TheGrandeurPiano","level2":10,"level3":null,"pitch":86,"articulation":"standard","articulation_tags":["standard","long"],"duration":0.3333333333333333,"velocity":84.48854788886726},
{"position":203.61458333333334,"instrument":"TheGrandeurPiano","level2":11,"level3":null,"pitch":47,"articulation":"standard","articulation_tags":["standard","long"],"duration":0.0625,"velocity":84.48854788886726},
{"position":203.64583333333334,"instrument":"TheGrandeurPiano","level2":12,"level3":null,"pitch":29,"articulation":"standard","articulation_tags":["standard","long"],"duration":0.1388888888888889,"velocity":83.65894455248163},
{"position":203.67708333333334,"instrument":"TheGrandeurPiano","level2":12,"level3":null,"pitch":29,"articulation":"standard","articulation_tags":["standard","long"],"duration":0.06944444444444445,"velocity":83.65894455248163},
{"position":203.69791666666666,"instrument":"TheGrandeurPiano","level2":10,"level3":null,"pitch":86,"articulation":"standard","articulation_tags":["standard","long"],"duration":0.1111111111111111,"velocity":83.65894455248163},
{"position":203.70833333333334,"instrument":"TheGrandeurPiano","level2":11,"level3":null,"pitch":48,"articulation":"standard","articulation_tags":["standard","long"],"duration":0.0625,"velocity":83.65894455248163},
{"position":203.78125,"instrument":"TheGrandeurPiano","level2":12,"level3":null,"pitch":28,"articulation":"standard","articulation_tags":["standard","long"],"duration":0.06944444444444445,"velocity":82.91840115161331},
{"position":203.80208333333334,"instrument":"TheGrandeurPiano","level2":11,"level3":null,"pitch":48,"articulation":"standard","articulation_tags":["standard","long"],"duration":0.0625,"velocity":82.91840115161331},
{"position":203.85416666666666,"instrument":"TheGrandeurPiano","level2":10,"level3":null,"pitch":86,"articulation":"standard","articulation_tags":["standard","long"],"duration":0.10416666666666667,"velocity":82.91840115161331},
{"position":203.85416666666666,"instrument":"TheGrandeurPiano","level2":12,"level3":null,"pitch":28,"articulation":"standard","articulation_tags":["standard","long"],"duration":0.14583333333333334,"velocity":82.91840115161331},
{"position":203.88541666666666,"instrument":"TheGrandeurPiano","level2":12,"level3":null,"pitch":28,"articulation":"standard","articulation_tags":["standard","long"],"duration":0.0763888888888889,"velocity":82.91840115161331},
{"position":203.90625,"instrument":"TheGrandeurPiano","level2":11,"level3":null,"pitch":49,"articulation":"standard","articulation_tags":["standard","long"],"duration":0.0625,"velocity":82.91840115161331},
{"position":203.92708333333334,"instrument":"Cello","level2":11,"level3":10,"pitch":49,"articulation":"pizzicato","articulation_tags":["pizzicato","pz","short"],"duration":0.125,"velocity":102.87432759595677},
{"position":203.92708333333334,"instrument":"Cello","level2":11,"level3":11,"pitch":50,"articulation":"pizzicato","articulation_tags":["pizzicato","pz","short"],"duration":0.125,"velocity":102.87432759595677},
{"position":203.9375,"instrument":"Cello","level2":11,"level3":5,"pitch":50,"articulation":"pizzicato_bartok","articulation_tags":["pizzicato_bartok","pzb","short","pizzicato","bartok"],"duration":0.125,"velocity":102.87432759595677},
{"position":203.97916666666666,"instrument":"TheGrandeurPiano","level2":11,"level3":null,"pitch":49,"articulation":"standard","articulation_tags":["standard","long"],"duration":0.3263888888888889,"velocity":82.26990339605935},
{"position":203.97916666666666,"instrument":"Cello","level2":11,"level3":10,"pitch":49,"articulation":"pizzicato","articulation_tags":["pizzicato","pz","short"],"duration":0.125,"velocity":103.09549909618832},
{"position":204.0,"instrument":"TheGrandeurPiano","level2":12,"level3":null,"pitch":27,"articulation":"standard","articulation_tags":["standard","long"],"duration":0.0763888888888889,"velocity":84.77895999528258},
{"position":204.0,"instrument":"TheGrandeurPiano","level2":11,"level3":null,"pitch":49,"articulation":"standard","articulation_tags":["standard","long"],"duration":0.0625,"velocity":84.77895999528258},
{"position":204.01041666666666,"instrument":"TheGrandeurPiano","level2":10,"level3":null,"pitch":86,"articulation":"standard","articulation_tags":["standard","long"],"duration":0.10416666666666667,"velocity":84.77895999528258},
{"position":204.01041666666666,"instrument":"Marimba","level2":11,"level3":11,"pitch":50,"articulation":"hits","articulation_tags":["hits","short"],"duration":0.0625,"velocity":102.86775019332654},
{"position":204.04166666666666,"instrument":"Marimba","level2":11,"level3":4,"pitch":49,"articulation":"hits","articulation_tags":["hits","short"],"duration":0.0625,"velocity":102.86775019332654},
{"position":204.07291666666666,"instrument":"TheGrandeurPiano","level2":12,"level3":null,"pitch":27,"articulation":"standard","articulation_tags":["standard","long"],"duration":0.1527777777777778,"velocity":84.24559377842512},
{"position":204.09375,"instrument":"TheGrandeurPiano","level2":11,"level3":null,"pitch":50,"articulation":"standard","articulation_tags":["standard","long"],"duration":0.0625,"velocity":84.24559377842512},
{"position":204.10416666666666,"instrument":"TheGrandeurPiano","level2":10,"level3":null,"pitch":86,"articulation":"standard","articulation_tags":["standard","long"],"duration":0.2638888888888889,"velocity":84.24559377842512},
{"position":204.11458333333334,"instrument":"TheGrandeurPiano","level2":12,"level3":null,"pitch":27,"articulation":"standard","articulation_tags":["standard","long"],"duration":0.08333333333333333,"velocity":84.24559377842512},
{"position":204.16666666666666,"instrument":"TheGrandeurPiano","level2":10,"level3":null,"pitch":86,"articulation":"standard","articulation_tags":["standard","long"],"duration":0.09722222222222222,"velocity":84.24559377842512},
{"position":204.1875,"instrument":"TheGrandeurPiano","level2":11,"level3":null,"pitch":50,"articulation":"standard","articulation_tags":["standard","long"],"duration":0.0625,"velocity":84.24559377842512},
{"position":204.22916666666666,"instrument":"Marimba","level2":11,"level3":6,"pitch":49,"articulation":"hits","articulation_tags":["hits","short"],"duration":0.0625,"velocity":102.41715028841467},
{"position":204.23958333333334,"instrument":"TheGrandeurPiano","level2":12,"level3":null,"pitch":26,"articulation":"standard","articulation_tags":["standard","long"],"duration":0.08333333333333333,"velocity":83.80608269918925},
{"position":204.25,"instrument":"Marimba","level2":11,"level3":12,"pitch":49,"articulation":"hits","articulation_tags":["hits","short"],"duration":0.0625,"velocity":102.41715028841467},
{"position":204.25,"instrument":"Contrabass","level2":12,"level3":5,"pitch":24,"articulation":"spiccato","articulation_tags":["spiccato","sp","short"],"duration":0.125,"velocity":127.5},
{"position":204.25,"instrument":"Contrabass","level2":12,"level3":6,"pitch":24,"articulation":"short_hrm","articulation_tags":["short_hrm","hrm_s","short","harmonics"],"duration":0.125,"velocity":127.5},
{"position":204.25,"instrument":"Marimba","level2":11,"level3":10,"pitch":49,"articulation":"hits","articulation_tags":["hits","short"],"duration":0.0625,"velocity":102.41715028841467},
{"position":204.28125,"instrument":"TheGrandeurPiano","level2":11,"level3":null,"pitch":51,"articulation":"standard","articulation_tags":["standard","long"],"duration":0.0625,"velocity":83.80608269918925},
{"position":204.30208333333334,"instrument":"TheGrandeurPiano","level2":12,"level3":null,"pitch":26,"articulation":"standard","articulation_tags":["standard","long"],"duration":0.1597222222222222,"velocity":83.80608269918925},
{"position":204.3125,"instrument":"TheGrandeurPiano","level2":10,"level3":null,"pitch":86,"articulation":"standard","articulation_tags":["standard","long"],"duration":0.09722222222222222,"velocity":83.80608269918925},
{"position":204.36458333333334,"instrument":"TheGrandeurPiano","level2":12,"level3":null,"pitch":26,"articulation":"standard","articulation_tags":["standard","long"],"duration":0.08333333333333333,"velocity":83.80608269918925},
{"position":204.375,"instrument":"TheGrandeurPiano","level2":11,"level3":null,"pitch":51,"articulation":"standard","articulation_tags":["standard","long"],"duration":0.0625,"velocity":83.46226115800674},
{"position":204.41666666666666,"instrument":"Contrabass","level2":12,"level3":5,"pitch":24,"articulation":"spiccato","articulation_tags":["spiccato","sp","short"],"duration":0.125,"velocity":127.5},
{"position":204.42708333333334,"instrument":"Marimba","level2":11,"level3":13,"pitch":50,"articulation":"hits","articulation_tags":["hits","short"],"duration":0.0625,"velocity":101.9733259140205},
{"position":204.45833333333334,"instrument":"TheGrandeurPiano","level2":10,"level3":null,"pitch":86,"articulation":"standard","articulation_tags":["standard","long"],"duration":0.09722222222222222,"velocity":83.46226115800674},
{"position":204.46875,"instrument":"TheGrandeurPiano","level2":11,"level3":null,"pitch":52,"articulation":"standard","articulation_tags":["standard","long"],"duration":0.0625,"velocity":83.46226115800674},
{"position":204.46875,"instrument":"TheGrandeurPiano","level2":11,"level3":null,"pitch":52,"articulation":"standard","articulation_tags":["standard","long"],"duration":0.24305555555555555,"velocity":83.46226115800674},
{"position":204.48958333333334,"instrument":"TheGrandeurPiano","level2":12,"level3":null,"pitch":25,"articulation":"standard","articulation_tags":["standard","long"],"duration":0.09027777777777778,"velocity":83.46226115800674},
{"position":204.51041666666666,"instrument":"TheGrandeurPiano","level2":10,"level3":null,"pitch":85,"articulation":"standard","articulation_tags":["standard","long"],"duration":0.2222222222222222,"velocity":83.46226115800674},
{"position":204.54166666666666,"instrument":"TheGrandeurPiano","level2":12,"level3":null,"pitch":25,"articulation":"standard","articulation_tags":["standard","long"],"duration":0.1597222222222222,"velocity":83.21559758564419},
{"position":204.55208333333334,"instrument":"TheGrandeurPiano","level2":11,"level3":null,"pitch":52,"articulation":"standard","articulation_tags":["standard","long"],"duration":0.0625,"velocity":83.21559758564419},
{"position":204.57291666666666,"instrument":"Marimba","level2":11,"level3":4,"pitch":49,"articulation":"hits","articulation_tags":["hits","short"],"duration":0.0625,"velocity":101.77110540152802},
{"position":204.60416666666666,"instrument":"TheGrandeurPiano","level2":10,"level3":null,"pitch":85,"articulation":"standard","articulation_tags":["standard","long"],"duration":0.09027777777777778,"velocity":83.21559758564419},
{"position":204.625,"instrument":"Marimba","level2":11,"level3":5,"pitch":50,"articulation":"hits","articulation_tags":["hits","short"],"duration":0.0625,"velocity":101.77110540152802},
{"position":204.625,"instrument":"TheGrandeurPiano","level2":12,"level3":null,"pitch":25,"articulation":"standard","articulation_tags":["standard","long"],"duration":0.09027777777777778,"velocity":83.21559758564419},
{"position":204.63541666666666,"instrument":"Marimba","level2":11,"level3":2,"pitch":49,"articulation":"hits","articulation_tags":["hits","short"],"duration":0.0625,"velocity":101.77110540152802},
{"position":204.64583333333334,"instrument":"TheGrandeurPiano","level2":11,"level3":null,"pitch":53,"articulation":"standard","articulation_tags":["standard","long"],"duration":0.05555555555555555,"velocity":83.21559758564419},
{"position":204.6875,"instrument":"Cello","level2":11,"level3":11,"pitch":49,"articulation":"pizzicato","articulation_tags":["pizzicato","pz","short"],"duration":0.125,"velocity":101.55719901398672},
{"position":204.72916666666666,"instrument":"TheGrandeurPiano","level2":11,"level3":null,"pitch":53,"articulation":"standard","articulation_tags":["standard","long"],"duration":0.05555555555555555,"velocity":83.06716399059789},
{"position":204.73958333333334,"instrument":"TheGrandeurPiano","level2":10,"level3":null,"pitch":85,"articulation":"standard","articulation_tags":["standard","long"],"duration":0.09027777777777778,"velocity":83.06716399059789},
{"position":204.76041666666666,"instrument":"TheGrandeurPiano","level2":12,"level3":null,"pitch":24,"articulation":"standard","articulation_tags":["standard","long"],"duration":0.09722222222222222,"velocity":83.06716399059789},
{"position":204.78125,"instrument":"TheGrandeurPiano","level2":12,"level3":null,"pitch":24,"articulation":"standard","articulation_tags":["standard","long"],"duration":0.16666666666666666,"velocity":83.06716399059789},
{"position":204.82291666666666,"instrument":"TheGrandeurPiano","level2":11,"level3":null,"pitch":54,"articulation":"standard","articulation_tags":["standard","long"],"duration":0.05555555555555555,"velocity":83.01761306843582},
{"position":204.83333333333334,"instrument":"TheGrandeurPiano","level2":11,"level3":null,"pitch":54,"articulation":"standard","articulation_tags":["standard","long"],"duration":0.2013888888888889,"velocity":85.59521357106797},
{"position":204.84375,"instrument":"TheGrandeurPiano","level2":10,"level3":null,"pitch":85,"articulation":"standard","articulation_tags":["standard","long"],"duration":0.1875,"velocity":85.59521357106797},
{"position":204.85416666666666,"instrument":"Marimba","level2":11,"level3":11,"pitch":49,"articulation":"hits","articulation_tags":["hits","short"],"duration":0.0625,"velocity":101.37631397572167},
{"position":204.875,"instrument":"TheGrandeurPiano","level2":10,"level3":null,"pitch":85,"articulation":"standard","articulation_tags":["standard","long"],"duration":0.08333333333333333,"velocity":85.59521357106797},
{"position":204.90625,"instrument":"TheGrandeurPiano","level2":12,"level3":null,"pitch":24,"articulation":"standard","articulation_tags":["standard","long"],"duration":0.09722222222222222,"velocity":85.59521357106797},
{"position":204.90625,"instrument":"TheGrandeurPiano","level2":11,"level3":null,"pitch":54,"articulation":"standard","articulation_tags":["standard","long"],"duration":0.05555555555555555,"velocity":85.59521357106797},
{"position":204.98958333333334,"instrument":"TheGrandeurPiano","level2":11,"level3":null,"pitch":55,"articulation":"standard","articulation_tags":["standard","long"],"duration":0.05555555555555555,"velocity":85.64293055546796},
{"position":205.0,"instrument":"TheGrandeurPiano","level2":10,"level3":null,"pitch":85,"articulation":"standard","articulation_tags":["standard","long"],"duration":0.08333333333333333,"velocity":85.64293055546796},
{"position":205.03125,"instrument":"TheGrandeurPiano","level2":12,"level3":null,"pitch":24,"articulation":"standard","articulation_tags":["standard","long"],"duration":0.1736111111111111,"velocity":85.64293055546796},
{"position":205.05208333333334,"instrument":"TheGrandeurPiano","level2":12,"level3":null,"pitch":24,"articulation":"standard","articulation_tags":["standard","long"],"duration":0.10416666666666667,"velocity":85.64293055546796},
{"position":205.07291666666666,"instrument":"TheGrandeurPiano","level2":11,"level3":null,"pitch":55,"articulation":"standard","articulation_tags":["standard","long"],"duration":0.05555555555555555,"velocity":85.64293055546796},
{"position":205.125,"instrument":"TheGrandeurPiano","level2":10,"level3":null,"pitch":84,"articulation":"standard","articulation_tags":["standard","long"],"duration":0.16666666666666666,"velocity":85.78588574638314},
{"position":205.125,"instrument":"TheGrandeurPiano","level2":10,"level3":null,"pitch":84,"articulation":"standard","articulation_tags":["standard","long"],"duration":0.08333333333333333,"velocity":85.78588574638314},
{"position":205.13541666666666,"instrument":"TheGrandeurPiano","level2":11,"level3":null,"pitch":55,"articulation":"standard","articulation_tags":["standard","long"],"duration":0.16666666666666666,"velocity":85.78588574638314},
{"position":205.15625,"instrument":"TheGrandeurPiano","level2":11,"level3":null,"pitch":56,"articulation":"standard","articulation_tags":["standard","long"],"duration":0.05555555555555555,"velocity":85.78588574638314},
{"position":205.20833333333334,"instrument":"TheGrandeurPiano","level2":12,"level3":null,"pitch":35,"articulation":"standard","articulation_tags":["standard","long"],"duration":0.10416666666666667,"velocity":85.78588574638314},
{"position":205.23958333333334,"instrument":"TheGrandeurPiano","level2":11,"level3":null,"pitch":56,"articulation":"standard","articulation_tags":["standard","long"],"duration":0.05555555555555555,"velocity":85.78588574638314},
{"position":205.25,"instrument":"TheGrandeurPiano","level2":10,"level3":null,"pitch":84,"articulation":"standard","articulation_tags":["standard","long"],"duration":0.0763888888888889,"velocity":86.02349585077204},
{"position":205.29166666666666,"instrument":"TheGrandeurPiano","level2":12,"level3":null,"pitch":35,"articulation":"standard","articulation_tags":["standard","long"],"duration":0.1736111111111111,"velocity":86.02349585077204},
{"position":205.32291666666666,"instrument":"TheGrandeurPiano","level2":11,"level3":null,"pitch":57,"articulation":"standard","articulation_tags":["standard","long"],"duration":0.05555555555555555,"velocity":83.46226115800674},
{"position":205.34375,"instrument":"Marimba","level2":11,"level3":9,"pitch":50,"articulation":"hits","articulation_tags":["hits","short"],"duration":0.0625,"velocity":100.42251585921241},
{"position":205.36458333333334,"instrument":"TheGrandeurPiano","level2":10,"level3":null,"pitch":84,"articulation":"standard","articulation_tags":["standard","long"],"duration":0.0763888888888889,"velocity":83.46226115800674},
{"position":205.36458333333334,"instrument":"TheGrandeurPiano","level2":12,"level3":null,"pitch":35,"articulation":"standard","articulation_tags":["standard","long"],"duration":0.1111111111111111,"velocity":83.46226115800674},
{"position":205.375,"instrument":"TheGrandeurPiano","level2":10,"level3":null,"pitch":84,"articulation":"standard","articulation_tags":["standard","long"],"duration":0.14583333333333334,"velocity":83.46226115800674},
{"position":205.38541666666666,"instrument":"TheGrandeurPiano","level2":11,"level3":null,"pitch":57,"articulation":"standard","articulation_tags":["standard","long"],"duration":0.14583333333333334,"velocity":83.46226115800674},
{"position":205.38541666666666,"instrument":"Marimba","level2":11,"level3":9,"pitch":49,"articulation":"hits","articulation_tags":["hits","short"],"duration":0.0625,"velocity":100.6767775790005},
{"position":205.39583333333334,"instrument":"TheGrandeurPiano","level2":11,"level3":null,"pitch":57,"articulation":"standard","articulation_tags":["standard","long"],"duration":0.04861111111111111,"velocity":83.80608269918925},
{"position":205.47916666666666,"instrument":"TheGrandeurPiano","level2":10,"level3":null,"pitch":84,"articulation":"standard","articulation_tags":["standard","long"],"duration":0.0763888888888889,"velocity":83.80608269918925},
{"position":205.47916666666666,"instrument":"TheGrandeurPiano","level2":11,"level3":null,"pitch":58,"articulation":"standard","articulation_tags":["standard","long"],"duration":0.04861111111111111,"velocity":83.80608269918925},
{"position":205.52083333333334,"instrument":"TheGrandeurPiano","level2":12,"level3":null,"pitch":34,"articulation":"standard","articulation_tags":["standard","long"],"duration":0.1111111111111111,"velocity":83.80608269918925},
{"position":205.55208333333334,"instrument":"TheGrandeurPiano","level2":11,"level3":null,"pitch":58,"articulation":"standard","articulation_tags":["standard","long"],"duration":0.04861111111111111,"velocity":84.24559377842512},
{"position":205.55208333333334,"instrument":"TheGrandeurPiano","level2":12,"level3":null,"pitch":34,"articulation":"standard","articulation_tags":["standard","long"],"duration":0.18055555555555555,"velocity":84.24559377842512},
{"position":205.5625,"instrument":"Marimba","level2":11,"level3":2,"pitch":49,"articulation":"hits","articulation_tags":["hits","short"],"duration":0.0625,"velocity":100.11364437526294},
{"position":205.58333333333334,"instrument":"TheGrandeurPiano","level2":10,"level3":null,"pitch":83,"articulation":"standard","articulation_tags":["standard","long"],"duration":0.125,"velocity":84.24559377842512},
{"position":205.59375,"instrument":"TheGrandeurPiano","level2":11,"level3":null,"pitch":58,"articulation":"standard","articulation_tags":["standard","long"],"duration":0.125,"velocity":84.24559377842512},
{"position":205.59375,"instrument":"TheGrandeurPiano","level2":10,"level3":null,"pitch":83,"articulation":"standard","articulation_tags":["standard","long"],"duration":0.06944444444444445,"velocity":84.24559377842512},
{"position":205.625,"instrument":"TheGrandeurPiano","level2":11,"level3":null,"pitch":59,"articulation":"standard","articulation_tags":["standard","long"],"duration":0.04861111111111111,"velocity":84.24559377842512},
{"position":205.64583333333334,"instrument":"Contrabass","level2":12,"level3":3,"pitch":24,"articulation":"spiccato","articulation_tags":["spiccato","sp","short"],"duration":0.125,"velocity":127.5},
{"position":205.69791666666666,"instrument":"TheGrandeurPiano","level2":12,"level3":null,"pitch":34,"articulation":"standard","articulation_tags":["standard","long"],"duration":0.11805555555555555,"velocity":84.77895999528258},
{"position":205.69791666666666,"instrument":"TheGrandeurPiano","level2":10,"level3":null,"pitch":83,"articulation":"standard","articulation_tags":["standard","long"],"duration":0.06944444444444445,"velocity":84.77895999528258},
{"position":205.69791666666666,"instrument":"TheGrandeurPiano","level2":11,"level3":null,"pitch":59,"articulation":"standard","articulation_tags":["standard","long"],"duration":0.04861111111111111,"velocity":84.77895999528258},
{"position":205.73958333333334,"instrument":"Contrabass","level2":12,"level3":7,"pitch":24,"articulation":"spiccato","articulation_tags":["spiccato","sp","short"],"duration":0.125,"velocity":127.5},
{"position":205.73958333333334,"instrument":"Contrabass","level2":12,"level3":8,"pitch":24,"articulation":"short_hrm","articulation_tags":["short_hrm","hrm_s","short","harmonics"],"duration":0.125,"velocity":127.5},
{"position":205.77083333333334,"instrument":"TheGrandeurPiano","level2":10,"level3":null,"pitch":83,"articulation":"standard","articulation_tags":["standard","long"],"duration":0.1111111111111111,"velocity":84.77895999528258},
{"position":205.77083333333334,"instrument":"TheGrandeurPiano","level2":11,"level3":null,"pitch":60,"articulation":"standard","articulation_tags":["standard","long"],"duration":0.04861111111111111,"velocity":84.77895999528258},
{"position":205.78125,"instrument":"TheGrandeurPiano","level2":11,"level3":null,"pitch":60,"articulation":"standard","articulation_tags":["standard","long"],"duration":0.1111111111111111,"velocity":84.77895999528258},
{"position":205.79166666666666,"instrument":"TheGrandeurPiano","level2":10,"level3":null,"pitch":83,"articulation":"standard","articulation_tags":["standard","long"],"duration":0.0625,"velocity":84.77895999528258},
{"position":205.80208333333334,"instrument":"Marimba","level2":11,"level3":5,"pitch":50,"articulation":"hits","articulation_tags":["hits","short"],"duration":0.0625,"velocity":100.10461477991994},
{"position":205.82291666666666,"instrument":"TheGrandeurPiano","level2":12,"level3":null,"pitch":34,"articulation":"standard","articulation_tags":["standard","long"],"duration":0.1875,"velocity":84.77895999528258},
{"position":205.84375,"instrument":"TheGrandeurPiano","level2":11,"level3":null,"pitch":60,"articulation":"standard","articulation_tags":["standard","long"],"duration":0.04861111111111111,"velocity":85.40401756813424},
{"position":205.85416666666666,"instrument":"Marimba","level2":11,"level3":6,"pitch":49,"articulation":"hits","articulation_tags":["hits","short"],"duration":0.0625,"velocity":99.93249787322242},
{"position":205.86458333333334,"instrument":"TheGrandeurPiano","level2":12,"level3":null,"pitch":33,"articulation":"standard","articulation_tags":["standard","long"],"duration":0.11805555555555555,"velocity":85.40401756813424},
{"position":205.88541666666666,"instrument":"Marimba","level2":11,"level3":3,"pitch":50,"articulation":"hits","articulation_tags":["hits","short"],"duration":0.0625,"velocity":99.93249787322242},
{"position":205.89583333333334,"instrument":"TheGrandeurPiano","level2":10,"level3":null,"pitch":83,"articulation":"standard","articulation_tags":["standard","long"],"duration":0.0625,"velocity":85.40401756813424},
{"position":205.91666666666666,"instrument":"TheGrandeurPiano","level2":11,"level3":null,"pitch":61,"articulation":"standard","articulation_tags":["standard","long"],"duration":0.04861111111111111,"velocity":85.40401756813424},
{"position":205.9375,"instrument":"TheGrandeurPiano","level2":10,"level3":null,"pitch":82,"articulation":"standard","articulation_tags":["standard","long"],"duration":0.09722222222222222,"velocity":85.40401756813424},
{"position":205.94791666666666,"instrument":"TheGrandeurPiano","level2":11,"level3":null,"pitch":61,"articulation":"standard","articulation_tags":["standard","long"],"duration":0.09722222222222222,"velocity":85.40401756813424},
{"position":205.97916666666666,"instrument":"TheGrandeurPiano","level2":11,"level3":null,"pitch":61,"articulation":"standard","articulation_tags":["standard","long"],"duration":0.041666666666666664,"velocity":86.1183144397056},
{"position":205.98958333333334,"instrument":"Contrabass","level2":12,"level3":7,"pitch":24,"articulation":"spiccato","articulation_tags":["spiccato","sp","short"],"duration":0.125,"velocity":127.5},
{"position":205.98958333333334,"instrument":"Marimba","level2":11,"level3":5,"pitch":49,"articulation":"hits","articulation_tags":["hits","short"],"duration":0.0625,"velocity":99.86881842705503},
{"position":205.98958333333334,"instrument":"TheGrandeurPiano","level2":10,"level3":null,"pitch":82,"articulation":"standard","articulation_tags":["standard","long"],"duration":0.0625,"velocity":86.1183144397056},
{"position":206.04166666666666,"instrument":"Marimba","level2":11,"level3":0,"pitch":49,"articulation":"hits","articulation_tags":["hits","short"],"duration":0.0625,"velocity":99.86881842705503},
{"position":206.05208333333334,"instrument":"TheGrandeurPiano","level2":12,"level3":null,"pitch":33,"articulation":"standard","articulation_tags":["standard","long"],"duration":0.125,"velocity":86.1183144397056},
{"position":206.05208333333334,"instrument":"TheGrandeurPiano","level2":11,"level3":null,"pitch":62,"articulation":"standard","articulation_tags":["standard","long"],"duration":0.041666666666666664,"velocity":86.1183144397056},
{"position":206.07291666666666,"instrument":"TheGrandeurPiano","level2":10,"level3":null,"pitch":82,"articulation":"standard","articulation_tags":["standard","long"],"duration":0.05555555555555555,"velocity":86.1183144397056},
{"position":206.08333333333334,"instrument":"TheGrandeurPiano","level2":10,"level3":null,"pitch":82,"articulation":"standard","articulation_tags":["standard","long"],"duration":0.08333333333333333,"velocity":86.1183144397056},
{"position":206.09375,"instrument":"Contrabass","level2":12,"level3":4,"pitch":24,"articulation":"spiccato","articulation_tags":["spiccato","sp","short"],"duration":0.125,"velocity":127.5},
{"position":206.09375,"instrument":"TheGrandeurPiano","level2":11,"level3":null,"pitch":62,"articulation":"standard","articulation_tags":["standard","long"],"duration":0.09027777777777778,"velocity":86.1183144397056},
{"position":206.10416666666666,"instrument":"TheGrandeurPiano","level2":12,"level3":null,"pitch":33,"articulation":"standard","articulation_tags":["standard","long"],"duration":0.1875,"velocity":86.1183144397056},
{"position":206.11458333333334,"instrument":"TheGrandeurPiano","level2":11,"level3":null,"pitch":62,"articulation":"standard","articulation_tags":["standard","long"],"duration":0.041666666666666664,"velocity":86.1183144397056},
{"position":206.16666666666666,"instrument":"TheGrandeurPiano","level2":10,"level3":null,"pitch":82,"articulation":"standard","articulation_tags":["standard","long"],"duration":0.05555555555555555,"velocity":84.48854788886726},
{"position":206.17708333333334,"instrument":"TheGrandeurPiano","level2":11,"level3":null,"pitch":63,"articulation":"standard","articulation_tags":["standard","long"],"duration":0.041666666666666664,"velocity":84.48854788886726},
{"position":206.21875,"instrument":"TheGrandeurPiano","level2":10,"level3":null,"pitch":81,"articulation":"standard","articulation_tags":["standard","long"],"duration":0.0763888888888889,"velocity":84.48854788886726},
{"position":206.22916666666666,"instrument":"Marimba","level2":11,"level3":0,"pitch":49,"articulation":"hits","articulation_tags":["hits","short"],"duration":0.0625,"velocity":99.66772888469282},
{"position":206.22916666666666,"instrument":"TheGrandeurPiano","level2":11,"level3":null,"pitch":63,"articulation":"standard","articulation_tags":["standard","long"],"duration":0.0763888888888889,"velocity":84.48854788886726},
{"position":206.23958333333334,"instrument":"TheGrandeurPiano","level2":12,"level3":null,"pitch":32,"articulation":"standard","articulation_tags":["standard","long"],"duration":0.13194444444444445,"velocity":84.48854788886726},
{"position":206.23958333333334,"instrument":"TheGrandeurPiano","level2":10,"level3":null,"pitch":81,"articulation":"standard","articulation_tags":["standard","long"],"duration":0.04861111111111111,"velocity":84.48854788886726},
{"position":206.23958333333334,"instrument":"TheGrandeurPiano","level2":11,"level3":null,"pitch":63,"articulation":"standard","articulation_tags":["standard","long"],"duration":0.041666666666666664,"velocity":84.48854788886726},
{"position":206.25,"instrument":"Marimba","level2":11,"level3":3,"pitch":50,"articulation":"hits","articulation_tags":["hits","short"],"duration":0.0625,"velocity":99.7958632798424},
{"position":206.30208333333334,"instrument":"TheGrandeurPiano","level2":11,"level3":null,"pitch":64,"articulation":"standard","articulation_tags":["standard","long"],"duration":0.041666666666666664,"velocity":85.40401756813424},
{"position":206.32291666666666,"instrument":"TheGrandeurPiano","level2":10,"level3":null,"pitch":81,"articulation":"standard","articulation_tags":["standard","long"],"duration":0.04861111111111111,"velocity":85.40401756813424},
{"position":206.33333333333334,"instrument":"TheGrandeurPiano","level2":10,"level3":null,"pitch":81,"articulation":"standard","articulation_tags":["standard","long"],"duration":0.06944444444444445,"velocity":85.40401756813424},
{"position":206.34375,"instrument":"TheGrandeurPiano","level2":11,"level3":null,"pitch":64,"articulation":"standard","articulation_tags":["standard","long"],"duration":0.06944444444444445,"velocity":85.40401756813424},
{"position":206.35416666666666,"instrument":"TheGrandeurPiano","level2":11,"level3":null,"pitch":64,"articulation":"standard","articulation_tags":["standard","long"],"duration":0.034722222222222224,"velocity":85.40401756813424},
{"position":206.38541666666666,"instrument":"TheGrandeurPiano","level2":12,"level3":null,"pitch":32,"articulation":"standard","articulation_tags":["standard","long"],"duration":0.19444444444444445,"velocity":85.40401756813424},
{"position":206.39583333333334,"instrument":"TheGrandeurPiano","level2":10,"level3":null,"pitch":81,"articulation":"standard","articulation_tags":["standard","long"],"duration":0.04861111111111111,"velocity":85.40401756813424},
{"position":206.40625,"instrument":"TheGrandeurPiano","level2":11,"level3":null,"pitch":65,"articulation":"standard","articulation_tags":["standard","long"],"duration":0.034722222222222224,"velocity":85.40401756813424},
{"position":206.42708333333334,"instrument":"TheGrandeurPiano","level2":12,"level3":null,"pitch":32,"articulation":"standard","articulation_tags":["standard","long"],"duration":0.13194444444444445,"velocity":85.40401756813424},
{"position":206.4375,"instrument":"TheGrandeurPiano","level2":10,"level3":null,"pitch":80,"articulation":"standard","articulation_tags":["standard","long"],"duration":0.0625,"velocity":86.40200399116807},
{"position":206.44791666666666,"instrument":"TheGrandeurPiano","level2":11,"level3":null,"pitch":65,"articulation":"standard","articulation_tags":["standard","long"],"duration":0.0625,"velocity":86.40200399116807},
{"position":206.46875,"instrument":"TheGrandeurPiano","level2":10,"level3":null,"pitch":80,"articulation":"standard","articulation_tags":["standard","long"],"duration":0.041666666666666664,"velocity":86.40200399116807},
{"position":206.46875,"instrument":"TheGrandeurPiano","level2":11,"level3":null,"pitch":65,"articulation":"standard","articulation_tags":["standard","long"],"duration":0.034722222222222224,"velocity":86.40200399116807},
{"position":206.52083333333334,"instrument":"TheGrandeurPiano","level2":10,"level3":null,"pitch":80,"articulation":"standard","articulation_tags":["standard","long"],"duration":0.05555555555555555,"velocity":86.40200399116807},
{"position":206.52083333333334,"instrument":"TheGrandeurPiano","level2":11,"level3":null,"pitch":66,"articulation":"standard","articulation_tags":["standard","long"],"duration":0.034722222222222224,"velocity":86.40200399116807},
{"position":206.53125,"instrument":"TheGrandeurPiano","level2":10,"level3":null,"pitch":80,"articulation":"standard","articulation_tags":["standard","long"],"duration":0.041666666666666664,"velocity":86.40200399116807},
{"position":206.54166666666666,"instrument":"TheGrandeurPiano","level2":11,"level3":null,"pitch":66,"articulation":"standard","articulation_tags":["standard","long"],"duration":0.05555555555555555,"velocity":86.40200399116807},
{"position":206.5625,"instrument":"Marimba","level2":11,"level3":6,"pitch":49,"articulation":"hits","articulation_tags":["hits","short"],"duration":0.0625,"velocity":99.95248145202683},
{"position":206.5625,"instrument":"TheGrandeurPiano","level2":11,"level3":null,"pitch":66,"articulation":"standard","articulation_tags":["standard","long"],"duration":0.034722222222222224,"velocity":86.40200399116807},
{"position":206.57291666666666,"instrument":"Marimba","level2":11,"level3":3,"pitch":49,"articulation":"hits","articulation_tags":["hits","short"],"duration":0.0625,"velocity":99.82324387746453},
{"position":206.59375,"instrument":"TheGrandeurPiano","level2":10,"level3":null,"pitch":80,"articulation":"standard","articulation_tags":["standard","long"],"duration":0.034722222222222224,"velocity":84.0506059691252},
{"position":206.60416666666666,"instrument":"TheGrandeurPiano","level2":10,"level3":null,"pitch":79,"articulation":"standard","articulation_tags":["standard","long"],"duration":0.04861111111111111,"velocity":85.16427931267728},
{"position":206.61458333333334,"instrument":"TheGrandeurPiano","level2":11,"level3":null,"pitch":67,"articulation":"standard","articulation_tags":["standard","long"],"duration":0.027777777777777776,"velocity":85.16427931267728},
{"position":206.61458333333334,"instrument":"TheGrandeurPiano","level2":11,"level3":null,"pitch":67,"articulation":"standard","articulation_tags":["standard","long"],"duration":0.04861111111111111,"velocity":85.16427931267728},
{"position":206.625,"instrument":"TheGrandeurPiano","level2":12,"level3":null,"pitch":31,"articulation":"standard","articulation_tags":["standard","long"],"duration":0.1388888888888889,"velocity":85.16427931267728},
{"position":206.64583333333334,"instrument":"TheGrandeurPiano","level2":10,"level3":null,"pitch":79,"articulation":"standard","articulation_tags":["standard","long"],"duration":0.034722222222222224,"velocity":85.16427931267728},
{"position":206.65625,"instrument":"TheGrandeurPiano","level2":11,"level3":null,"pitch":67,"articulation":"standard","articulation_tags":["standard","long"],"duration":0.027777777777777776,"velocity":85.16427931267728},
{"position":206.66666666666666,"instrument":"Marimba","level2":11,"level3":1,"pitch":50,"articulation":"hits","articulation_tags":["hits","short"],"duration":0.0625,"velocity":99.86881842705503},
{"position":206.67708333333334,"instrument":"TheGrandeurPiano","level2":12,"level3":null,"pitch":31,"articulation":"standard","articulation_tags":["standard","long"],"duration":0.2013888888888889,"velocity":85.16427931267728},
{"position":206.67708333333334,"instrument":"TheGrandeurPiano","level2":10,"level3":null,"pitch":79,"articulation":"standard","articulation_tags":["standard","long"],"duration":0.041666666666666664,"velocity":85.16427931267728},
{"position":206.6875,"instrument":"TheGrandeurPiano","level2":11,"level3":null,"pitch":67,"articulation":"standard","articulation_tags":["standard","long"],"duration":0.041666666666666664,"velocity":85.16427931267728},
{"position":206.69791666666666,"instrument":"TheGrandeurPiano","level2":10,"level3":null,"pitch":79,"articulation":"standard","articulation_tags":["standard","long"],"duration":0.034722222222222224,"velocity":85.16427931267728},
{"position":206.69791666666666,"instrument":"TheGrandeurPiano","level2":11,"level3":null,"pitch":68,"articulation":"standard","articulation_tags":["standard","long"],"duration":0.027777777777777776,"velocity":85.16427931267728},
{"position":206.70833333333334,"instrument":"Marimba","level2":11,"level3":1,"pitch":50,"articulation":"hits","articulation_tags":["hits","short"],"duration":0.0625,"velocity":100.04675653063856},
{"position":206.73958333333334,"instrument":"TheGrandeurPiano","level2":10,"level3":null,"pitch":78,"articulation":"standard","articulation_tags":["standard","long"],"duration":0.034722222222222224,"velocity":85.16427931267728},
{"position":206.73958333333334,"instrument":"TheGrandeurPiano","level2":11,"level3":null,"pitch":68,"articulation":"standard","articulation_tags":["standard","long"],"duration":0.027777777777777776,"velocity":85.16427931267728},
{"position":206.75,"instrument":"TheGrandeurPiano","level2":10,"level3":null,"pitch":78,"articulation":"standard","articulation_tags":["standard","long"],"duration":0.027777777777777776,"velocity":86.3548018376946},
{"position":206.75,"instrument":"TheGrandeurPiano","level2":11,"level3":null,"pitch":68,"articulation":"standard","articulation_tags":["standard","long"],"duration":0.034722222222222224,"velocity":86.3548018376946},
{"position":206.78125,"instrument":"TheGrandeurPiano","level2":11,"level3":null,"pitch":69,"articulation":"standard","articulation_tags":["standard","long"],"duration":0.020833333333333332,"velocity":86.3548018376946},
{"position":206.79166666666666,"instrument":"TheGrandeurPiano","level2":10,"level3":null,"pitch":78,"articulation":"standard","articulation_tags":["standard","long"],"duration":0.027777777777777776,"velocity":86.3548018376946},
{"position":206.79166666666666,"instrument":"TheGrandeurPiano","level2":10,"level3":null,"pitch":78,"articulation":"standard","articulation_tags":["standard","long"],"duration":0.027777777777777776,"velocity":86.3548018376946},
{"position":206.80208333333334,"instrument":"Contrabass","level2":12,"level3":2,"pitch":24,"articulation":"spiccato","articulation_tags":["spiccato","sp","short"],"duration":0.125,"velocity":127.5},
{"position":206.80208333333334,"instrument":"TheGrandeurPiano","level2":11,"level3":null,"pitch":69,"articulation":"standard","articulation_tags":["standard","long"],"duration":0.027777777777777776,"velocity":86.3548018376946},
{"position":206.8125,"instrument":"TheGrandeurPiano","level2":11,"level3":null,"pitch":69,"articulation":"standard","articulation_tags":["standard","long"],"duration":0.020833333333333332,"velocity":86.3548018376946},
{"position":206.83333333333334,"instrument":"TheGrandeurPiano","level2":12,"level3":null,"pitch":31,"articulation":"standard","articulation_tags":["standard","long"],"duration":0.14583333333333334,"velocity":86.3548018376946},
{"position":206.83333333333334,"instrument":"TheGrandeurPiano","level2":10,"level3":null,"pitch":77,"articulation":"standard","articulation_tags":["standard","long"],"duration":0.027777777777777776,"velocity":86.3548018376946},
{"position":206.83333333333334,"instrument":"TheGrandeurPiano","level2":10,"level3":null,"pitch":77,"articulation":"standard","articulation_tags":["standard","long"],"duration":0.020833333333333332,"velocity":86.3548018376946},
{"position":206.84375,"instrument":"TheGrandeurPiano","level2":11,"level3":null,"pitch":70,"articulation":"standard","articulation_tags":["standard","long"],"duration":0.020833333333333332,"velocity":86.3548018376946},
{"position":206.85416666666666,"instrument":"TheGrandeurPiano","level2":11,"level3":null,"pitch":70,"articulation":"standard","articulation_tags":["standard","long"],"duration":0.027777777777777776,"velocity":86.3548018376946},
{"position":206.875,"instrument":"TheGrandeurPiano","level2":10,"level3":null,"pitch":77,"articulation":"standard","articulation_tags":["standard","long"],"duration":0.020833333333333332,"velocity":86.3548018376946},
{"position":206.875,"instrument":"TheGrandeurPiano","level2":10,"level3":null,"pitch":77,"articulation":"standard","articulation_tags":["standard","long"],"duration":0.020833333333333332,"velocity":86.3548018376946},
{"position":206.875,"instrument":"TheGrandeurPiano","level2":11,"level3":null,"pitch":70,"articulation":"standard","articulation_tags":["standard","long"],"duration":0.013888888888888888,"velocity":86.3548018376946},
{"position":206.88541666666666,"instrument":"TheGrandeurPiano","level2":11,"level3":null,"pitch":70,"articulation":"standard","articulation_tags":["standard","long"],"duration":0.020833333333333332,"velocity":86.3548018376946},
{"position":206.89583333333334,"instrument":"Marimba","level2":11,"level3":6,"pitch":50,"articulation":"hits","articulation_tags":["hits","short"],"duration":0.0625,"velocity":100.72099777115622},
{"position":206.89583333333334,"instrument":"TheGrandeurPiano","level2":10,"level3":null,"pitch":77,"articulation":"standard","articulation_tags":["standard","long"],"duration":0.013888888888888888,"velocity":86.3548018376946},
{"position":206.89583333333334,"instrument":"TheGrandeurPiano","level2":11,"level3":null,"pitch":71,"articulation":"standard","articulation_tags":["standard","long"],"duration":0.013888888888888888,"velocity":86.3548018376946},
{"position":206.90625,"instrument":"TheGrandeurPiano","level2":10,"level3":null,"pitch":76,"articulation":"standard","articulation_tags":["standard","long"],"duration":0.013888888888888888,"velocity":84.09940526257412},
{"position":206.91666666666666,"instrument":"TheGrandeurPiano","level2":11,"level3":null,"pitch":71,"articulation":"standard","articulation_tags":["standard","long"],"duration":0.013888888888888888,"velocity":84.09940526257412},
{"position":206.91666666666666,"instrument":"TheGrandeurPiano","level2":11,"level3":null,"pitch":71,"articulation":"standard","articulation_tags":["standard","long"],"duration":0.013888888888888888,"velocity":84.09940526257412},
{"position":206.92708333333334,"instrument":"TheGrandeurPiano","level2":10,"level3":null,"pitch":76,"articulation":"standard","articulation_tags":["standard","long"],"duration":0.013888888888888888,"velocity":85.40401756813424},
{"position":206.92708333333334,"instrument":"TheGrandeurPiano","level2":10,"level3":null,"pitch":76,"articulation":"standard","articulation_tags":["standard","long"],"duration":0.013888888888888888,"velocity":85.40401756813424},
{"position":206.9375,"instrument":"TheGrandeurPiano","level2":11,"level3":null,"pitch":72,"articulation":"standard","articulation_tags":["standard","long"],"duration":0.013888888888888888,"velocity":85.40401756813424},
{"position":206.9375,"instrument":"TheGrandeurPiano","level2":11,"level3":null,"pitch":72,"articulation":"standard","articulation_tags":["standard","long"],"duration":0.013888888888888888,"velocity":85.40401756813424},
{"position":206.94791666666666,"instrument":"TheGrandeurPiano","level2":10,"level3":null,"pitch":76,"articulation":"standard","articulation_tags":["standard","long"],"duration":0.013888888888888888,"velocity":85.40401756813424},
{"position":206.94791666666666,"instrument":"TheGrandeurPiano","level2":10,"level3":null,"pitch":75,"articulation":"standard","articulation_tags":["standard","long"],"duration":0.006944444444444444,"velocity":85.40401756813424},
{"position":206.95833333333334,"instrument":"TheGrandeurPiano","level2":11,"level3":null,"pitch":72,"articulation":"standard","articulation_tags":["standard","long"],"duration":0.006944444444444444,"velocity":85.40401756813424},
{"position":206.95833333333334,"instrument":"TheGrandeurPiano","level2":11,"level3":null,"pitch":72,"articulation":"standard","articulation_tags":["standard","long"],"duration":0.006944444444444444,"velocity":85.40401756813424},
{"position":206.95833333333334,"instrument":"TheGrandeurPiano","level2":10,"level3":null,"pitch":75,"articulation":"standard","articulation_tags":["standard","long"],"duration":0.006944444444444444,"velocity":85.40401756813424},
{"position":206.96875,"instrument":"TheGrandeurPiano","level2":11,"level3":null,"pitch":73,"articulation":"standard","articulation_tags":["standard","long"],"duration":0.006944444444444444,"velocity":85.40401756813424},
{"position":206.96875,"instrument":"TheGrandeurPiano","level2":11,"level3":null,"pitch":73,"articulation":"standard","articulation_tags":["standard","long"],"duration":0.006944444444444444,"velocity":85.40401756813424},
{"position":206.96875,"instrument":"TheGrandeurPiano","level2":10,"level3":null,"pitch":75,"articulation":"standard","articulation_tags":["standard","long"],"duration":0.006944444444444444,"velocity":85.40401756813424},
{"position":206.96875,"instrument":"TheGrandeurPiano","level2":10,"level3":null,"pitch":75,"articulation":"standard","articulation_tags":["standard","long"],"duration":0.006944444444444444,"velocity":85.40401756813424},
{"position":206.96875,"instrument":"TheGrandeurPiano","level2":10,"level3":null,"pitch":74,"articulation":"standard","articulation_tags":["standard","long"],"duration":0.0,"velocity":85.40401756813424},
{"position":206.97916666666666,"instrument":"TheGrandeurPiano","level2":12,"level3":null,"pitch":31,"articulation":"standard","articulation_tags":["standard","long"],"duration":0.2013888888888889,"velocity":85.40401756813424},
{"position":206.97916666666666,"instrument":"TheGrandeurPiano","level2":11,"level3":null,"pitch":73,"articulation":"standard","articulation_tags":["standard","long"],"duration":0.0,"velocity":85.40401756813424},
{"position":206.97916666666666,"instrument":"TheGrandeurPiano","level2":11,"level3":null,"pitch":73,"articulation":"standard","articulation_tags":["standard","long"],"duration":0.0,"velocity":85.40401756813424},
{"position":206.97916666666666,"instrument":"TheGrandeurPiano","level2":11,"level3":null,"pitch":74,"articulation":"standard","articulation_tags":["standard","long"],"duration":0.0,"velocity":85.40401756813424},
{"position":206.97916666666666,"instrument":"TheGrandeurPiano","level2":10,"level3":null,"pitch":74,"articulation":"standard","articulation_tags":["standard","long"],"duration":0.0,"velocity":85.40401756813424},
{"position":206.97916666666666,"instrument":"TheGrandeurPiano","level2":10,"level3":null,"pitch":74,"articulation":"standard","articulation_tags":["standard","long"],"duration":0.0,"velocity":85.40401756813424},
{"position":207.05208333333334,"instrument":"TheGrandeurPiano","level2":12,"level3":null,"pitch":30,"articulation":"standard","articulation_tags":["standard","long"],"duration":0.14583333333333334,"velocity":85.40401756813424},
{"position":207.27083333333334,"instrument":"TheGrandeurPiano","level2":12,"level3":null,"pitch":30,"articulation":"standard","articulation_tags":["standard","long"],"duration":0.1527777777777778,"velocity":86.1183144397056},
{"position":207.28125,"instrument":"TheGrandeurPiano","level2":12,"level3":null,"pitch":30,"articulation":"standard","articulation_tags":["standard","long"],"duration":0.20833333333333334,"velocity":86.1183144397056},
{"position":207.33333333333334,"instrument":"Contrabass","level2":12,"level3":8,"pitch":24,"articulation":"short_hrm","articulation_tags":["short_hrm","hrm_s","short","harmonics"],"duration":0.125,"velocity":127.5},
{"position":207.51041666666666,"instrument":"TheGrandeurPiano","level2":12,"level3":null,"pitch":29,"articulation":"standard","articulation_tags":["standard","long"],"duration":0.1597222222222222,"velocity":85.64293055546796},
{"position":207.59375,"instrument":"TheGrandeurPiano","level2":12,"level3":null,"pitch":29,"articulation":"standard","articulation_tags":["standard","long"],"duration":0.2152777777777778,"velocity":85.64293055546796},
{"position":207.625,"instrument":"Contrabass","level2":12,"level3":8,"pitch":24,"articulation":"short_hrm","articulation_tags":["short_hrm","hrm_s","short","harmonics"],"duration":0.125,"velocity":127.5},
{"position":207.75,"instrument":"TheGrandeurPiano","level2":12,"level3":null,"pitch":29,"articulation":"standard","articulation_tags":["standard","long"],"duration":0.16666666666666666,"velocity":85.35613621192228},
{"position":207.91666666666666,"instrument":"TheGrandeurPiano","level2":12,"level3":null,"pitch":29,"articulation":"standard","articulation_tags":["standard","long"],"duration":0.2152777777777778,"velocity":85.2602741948397},
{"position":208.0,"instrument":"TheGrandeurPiano","level2":12,"level3":null,"pitch":28,"articulation":"standard","articulation_tags":["standard","long"],"duration":0.1736111111111111,"velocity":87.1062763139794},
{"position":208.07291666666666,"instrument":"Contrabass","level2":12,"level3":6,"pitch":24,"articulation":"short_hrm","articulation_tags":["short_hrm","hrm_s","short","harmonics"],"duration":0.125,"velocity":127.5},
{"position":208.25,"instrument":"TheGrandeurPiano","level2":12,"level3":null,"pitch":28,"articulation":"standard","articulation_tags":["standard","long"],"duration":0.2222222222222222,"velocity":87.29290728147271},
{"position":208.26041666666666,"instrument":"TheGrandeurPiano","level2":12,"level3":null,"pitch":28,"articulation":"standard","articulation_tags":["standard","long"],"duration":0.18055555555555555,"velocity":87.29290728147271},
{"position":208.52083333333334,"instrument":"TheGrandeurPiano","level2":12,"level3":null,"pitch":27,"articulation":"standard","articulation_tags":["standard","long"],"duration":0.1875,"velocity":86.1183144397056},
{"position":208.58333333333334,"instrument":"TheGrandeurPiano","level2":12,"level3":null,"pitch":27,"articulation":"standard","articulation_tags":["standard","long"],"duration":0.22916666666666666,"velocity":86.1183144397056},
{"position":208.80208333333334,"instrument":"TheGrandeurPiano","level2":12,"level3":null,"pitch":27,"articulation":"standard","articulation_tags":["standard","long"],"duration":0.19444444444444445,"velocity":86.77848798033058},
{"position":208.92708333333334,"instrument":"TheGrandeurPiano","level2":12,"level3":null,"pitch":27,"articulation":"standard","articulation_tags":["standard","long"],"duration":0.2361111111111111,"velocity":87.61834121998953},
{"position":209.09375,"instrument":"TheGrandeurPiano","level2":12,"level3":null,"pitch":26,"articulation":"standard","articulation_tags":["standard","long"],"duration":0.2013888888888889,"velocity":86.3548018376946},
{"position":209.27083333333334,"instrument":"TheGrandeurPiano","level2":12,"level3":null,"pitch":26,"articulation":"standard","articulation_tags":["standard","long"],"duration":0.2361111111111111,"velocity":87.47905095934992},
{"position":209.40625,"instrument":"TheGrandeurPiano","level2":12,"level3":null,"pitch":26,"articulation":"standard","articulation_tags":["standard","long"],"duration":0.2152777777777778,"velocity":86.40200399116807},
{"position":209.54166666666666,"instrument":"Contrabass","level2":12,"level3":7,"pitch":24,"articulation":"spiccato","articulation_tags":["spiccato","sp","short"],"duration":0.125,"velocity":127.5},
{"position":209.625,"instrument":"TheGrandeurPiano","level2":12,"level3":null,"pitch":26,"articulation":"standard","articulation_tags":["standard","long"],"duration":0.24305555555555555,"velocity":87.80364124825097},
{"position":209.72916666666666,"instrument":"TheGrandeurPiano","level2":12,"level3":null,"pitch":25,"articulation":"standard","articulation_tags":["standard","long"],"duration":0.2222222222222222,"velocity":86.9191542098135},
{"position":210.0,"instrument":"TheGrandeurPiano","level2":12,"level3":null,"pitch":25,"articulation":"standard","articulation_tags":["standard","long"],"duration":0.25,"velocity":87.89611217033831},
{"position":210.0625,"instrument":"TheGrandeurPiano","level2":12,"level3":null,"pitch":25,"articulation":"standard","articulation_tags":["standard","long"],"duration":0.2361111111111111,"velocity":87.89611217033831},
{"position":210.36458333333334,"instrument":"TheGrandeurPiano","level2":12,"level3":null,"pitch":25,"articulation":"standard","articulation_tags":["standard","long"],"duration":0.2569444444444444,"velocity":86.77848798033058},
{"position":210.375,"instrument":"Contrabass","level2":12,"level3":6,"pitch":24,"articulation":"short_hrm","articulation_tags":["short_hrm","hrm_s","short","harmonics"],"duration":0.125,"velocity":127.5},
{"position":210.41666666666666,"instrument":"TheGrandeurPiano","level2":12,"level3":null,"pitch":24,"articulation":"standard","articulation_tags":["standard","long"],"duration":0.24305555555555555,"velocity":86.3548018376946},
{"position":210.75,"instrument":"TheGrandeurPiano","level2":12,"level3":null,"pitch":24,"articulation":"standard","articulation_tags":["standard","long"],"duration":0.2569444444444444,"velocity":88.35669415279807},
{"position":210.78125,"instrument":"TheGrandeurPiano","level2":12,"level3":null,"pitch":24,"articulation":"standard","articulation_tags":["standard","long"],"duration":0.2638888888888889,"velocity":88.35669415279807},
{"position":211.125,"instrument":"Contrabass","level2":12,"level3":5,"pitch":24,"articulation":"spiccato","articulation_tags":["spiccato","sp","short"],"duration":0.125,"velocity":127.5},
{"position":211.13541666666666,"instrument":"TheGrandeurPiano","level2":12,"level3":null,"pitch":24,"articulation":"standard","articulation_tags":["standard","long"],"duration":0.2638888888888889,"velocity":88.21882798597645},
{"position":211.15625,"instrument":"Contrabass","level2":12,"level3":7,"pitch":24,"articulation":"staccato","articulation_tags":["staccato","st","short"],"duration":0.125,"velocity":127.5},
{"position":211.17708333333334,"instrument":"TheGrandeurPiano","level2":12,"level3":null,"pitch":35,"articulation":"standard","articulation_tags":["standard","long"],"duration":0.2777777777777778,"velocity":88.21882798597645},
{"position":211.53125,"instrument":"TheGrandeurPiano","level2":12,"level3":null,"pitch":35,"articulation":"standard","articulation_tags":["standard","long"],"duration":0.2708333333333333,"velocity":86.02349585077204},
{"position":211.58333333333334,"instrument":"TheGrandeurPiano","level2":12,"level3":null,"pitch":35,"articulation":"standard","articulation_tags":["standard","long"],"duration":0.2916666666666667,"velocity":86.3548018376946},
{"position":211.77083333333334,"instrument":"Contrabass","level2":12,"level3":10,"pitch":24,"articulation":"short_hrm","articulation_tags":["short_hrm","hrm_s","short","harmonics"],"duration":0.125,"velocity":127.5},
{"position":211.9375,"instrument":"TheGrandeurPiano","level2":12,"level3":null,"pitch":35,"articulation":"standard","articulation_tags":["standard","long"],"duration":0.2777777777777778,"velocity":87.29290728147271},
{"position":212.02083333333334,"instrument":"TheGrandeurPiano","level2":12,"level3":null,"pitch":34,"articulation":"standard","articulation_tags":["standard","long"],"duration":0.3125,"velocity":87.89611217033831},
{"position":212.35416666666666,"instrument":"TheGrandeurPiano","level2":12,"level3":null,"pitch":34,"articulation":"standard","articulation_tags":["standard","long"],"duration":0.2847222222222222,"velocity":86.9191542098135},
{"position":212.48958333333334,"instrument":"TheGrandeurPiano","level2":12,"level3":null,"pitch":34,"articulation":"standard","articulation_tags":["standard","long"],"duration":0.3333333333333333,"velocity":87.80364124825097},
{"position":212.78125,"instrument":"TheGrandeurPiano","level2":12,"level3":null,"pitch":34,"articulation":"standard","articulation_tags":["standard","long"],"duration":0.2916666666666667,"velocity":87.47905095934992},
{"position":212.97916666666666,"instrument":"TheGrandeurPiano","level2":12,"level3":null,"pitch":33,"articulation":"standard","articulation_tags":["standard","long"],"duration":0.3541666666666667,"velocity":86.3548018376946},
{"position":213.20833333333334,"instrument":"TheGrandeurPiano","level2":12,"level3":null,"pitch":33,"articulation":"standard","articulation_tags":["standard","long"],"duration":0.2986111111111111,"velocity":86.77848798033058},
{"position":213.52083333333334,"instrument":"TheGrandeurPiano","level2":12,"level3":null,"pitch":33,"articulation":"standard","articulation_tags":["standard","long"],"duration":0.3888888888888889,"velocity":86.1183144397056},
{"position":213.65625,"instrument":"TheGrandeurPiano","level2":12,"level3":null,"pitch":33,"articulation":"standard","articulation_tags":["standard","long"],"duration":0.2986111111111111,"velocity":87.66471114470511},
{"position":214.10416666666666,"instrument":"TheGrandeurPiano","level2":12,"level3":null,"pitch":32,"articulation":"standard","articulation_tags":["standard","long"],"duration":0.4236111111111111,"velocity":85.2602741948397},
{"position":214.10416666666666,"instrument":"TheGrandeurPiano","level2":12,"level3":null,"pitch":32,"articulation":"standard","articulation_tags":["standard","long"],"duration":0.3055555555555556,"velocity":85.2602741948397},
{"position":214.52083333333334,"instrument":"Contrabass","level2":12,"level3":4,"pitch":24,"articulation":"spiccato","articulation_tags":["spiccato","sp","short"],"duration":0.125,"velocity":127.5},
{"position":214.57291666666666,"instrument":"TheGrandeurPiano","level2":12,"level3":null,"pitch":32,"articulation":"standard","articulation_tags":["standard","long"],"duration":0.3194444444444444,"velocity":87.66471114470511},
{"position":214.61458333333334,"instrument":"Contrabass","level2":12,"level3":8,"pitch":24,"articulation":"short_hrm","articulation_tags":["short_hrm","hrm_s","short","harmonics"],"duration":0.125,"velocity":127.5},
{"position":214.73958333333334,"instrument":"TheGrandeurPiano","level2":12,"level3":null,"pitch":32,"articulation":"standard","articulation_tags":["standard","long"],"duration":0.4722222222222222,"velocity":86.1183144397056},
{"position":215.04166666666666,"instrument":"Contrabass","level2":12,"level3":6,"pitch":24,"articulation":"short_hrm","articulation_tags":["short_hrm","hrm_s","short","harmonics"],"duration":0.125,"velocity":127.5},
{"position":215.04166666666666,"instrument":"TheGrandeurPiano","level2":12,"level3":null,"pitch":32,"articulation":"standard","articulation_tags":["standard","long"],"duration":0.3263888888888889,"velocity":85.40401756813424},
{"position":215.17708333333334,"instrument":"Contrabass","level2":12,"level3":9,"pitch":24,"articulation":"staccato","articulation_tags":["staccato","st","short"],"duration":0.125,"velocity":127.5},
{"position":215.4375,"instrument":"TheGrandeurPiano","level2":12,"level3":null,"pitch":31,"articulation":"standard","articulation_tags":["standard","long"],"duration":0.5277777777777778,"velocity":87.47905095934992},
{"position":215.53125,"instrument":"TheGrandeurPiano","level2":12,"level3":null,"pitch":31,"articulation":"standard","articulation_tags":["standard","long"],"duration":0.3333333333333333,"velocity":86.40200399116807},
{"position":216.03125,"instrument":"TheGrandeurPiano","level2":12,"level3":null,"pitch":31,"articulation":"standard","articulation_tags":["standard","long"],"duration":0.3402777777777778,"velocity":86.1183144397056},
{"position":216.23958333333334,"instrument":"TheGrandeurPiano","level2":12,"level3":null,"pitch":31,"articulation":"standard","articulation_tags":["standard","long"],"duration":0.6111111111111112,"velocity":87.29290728147271},
{"position":216.53125,"instrument":"TheGrandeurPiano","level2":12,"level3":null,"pitch":31,"articulation":"standard","articulation_tags":["standard","long"],"duration":0.3472222222222222,"velocity":86.3548018376946},
{"position":216.6875,"instrument":"Contrabass","level2":12,"level3":7,"pitch":24,"articulation":"staccato","articulation_tags":["staccato","st","short"],"duration":0.125,"velocity":127.5},
{"position":217.0625,"instrument":"TheGrandeurPiano","level2":12,"level3":null,"pitch":31,"articulation":"standard","articulation_tags":["standard","long"],"duration":0.3611111111111111,"velocity":85.59521357106797},
{"position":217.15625,"instrument":"TheGrandeurPiano","level2":12,"level3":null,"pitch":30,"articulation":"standard","articulation_tags":["standard","long"],"duration":0.7430555555555556,"velocity":85.59521357106797},
{"position":217.59375,"instrument":"TheGrandeurPiano","level2":12,"level3":null,"pitch":30,"articulation":"standard","articulation_tags":["standard","long"],"duration":0.3680555555555556,"velocity":86.02349585077204},
{"position":218.14583333333334,"instrument":"TheGrandeurPiano","level2":12,"level3":null,"pitch":30,"articulation":"standard","articulation_tags":["standard","long"],"duration":0.375,"velocity":85.40401756813424},
{"position":218.27083333333334,"instrument":"TheGrandeurPiano","level2":12,"level3":null,"pitch":30,"articulation":"standard","articulation_tags":["standard","long"],"duration":0.9930555555555556,"velocity":86.1183144397056},
{"position":218.70833333333334,"instrument":"TheGrandeurPiano","level2":12,"level3":null,"pitch":30,"articulation":"standard","articulation_tags":["standard","long"],"duration":0.3888888888888889,"velocity":86.40200399116807},
{"position":218.84375,"instrument":"Contrabass","level2":12,"level3":10,"pitch":24,"articulation":"short_hrm","articulation_tags":["short_hrm","hrm_s","short","harmonics"],"duration":0.125,"velocity":127.5},
{"position":219.03125,"instrument":"Contrabass","level2":12,"level3":6,"pitch":25,"articulation":"short_hrm","articulation_tags":["short_hrm","hrm_s","short","harmonics"],"duration":0.125,"velocity":127.5},
{"position":219.29166666666666,"instrument":"TheGrandeurPiano","level2":12,"level3":null,"pitch":30,"articulation":"standard","articulation_tags":["standard","long"],"duration":0.4027777777777778,"velocity":86.77848798033058},
{"position":219.77083333333334,"instrument":"TheGrandeurPiano","level2":12,"level3":null,"pitch":29,"articulation":"standard","articulation_tags":["standard","long"],"duration":1.4566929133858268,"velocity":87.29290728147271},
{"position":219.89583333333334,"instrument":"TheGrandeurPiano","level2":12,"level3":null,"pitch":29,"articulation":"standard","articulation_tags":["standard","long"],"duration":0.4166666666666667,"velocity":85.35613621192228},
{"position":220.51041666666666,"instrument":"TheGrandeurPiano","level2":12,"level3":null,"pitch":29,"articulation":"standard","articulation_tags":["standard","long"],"duration":0.4236111111111111,"velocity":85.64293055546796},
{"position":220.75,"instrument":"Contrabass","level2":12,"level3":7,"pitch":24,"articulation":"spiccato","articulation_tags":["spiccato","sp","short"],"duration":0.125,"velocity":127.5},
{"position":221.15625,"instrument":"TheGrandeurPiano","level2":12,"level3":null,"pitch":29,"articulation":"standard","articulation_tags":["standard","long"],"duration":0.4444444444444444,"velocity":86.3548018376946},
{"position":221.82291666666666,"instrument":"TheGrandeurPiano","level2":12,"level3":null,"pitch":29,"articulation":"standard","articulation_tags":["standard","long"],"duration":0.4583333333333333,"velocity":86.1183144397056},
{"position":222.26041666666666,"instrument":"Contrabass","level2":12,"level3":6,"pitch":25,"articulation":"spiccato","articulation_tags":["spiccato","sp","short"],"duration":0.125,"velocity":127.5},
{"position":222.26041666666666,"instrument":"Contrabass","level2":12,"level3":7,"pitch":25,"articulation":"spiccato","articulation_tags":["spiccato","sp","short"],"duration":0.125,"velocity":127.5},
{"position":222.27083333333334,"instrument":"Contrabass","level2":12,"level3":9,"pitch":24,"articulation":"staccato","articulation_tags":["staccato","st","short"],"duration":0.125,"velocity":127.5},
{"position":222.51041666666666,"instrument":"TheGrandeurPiano","level2":12,"level3":null,"pitch":29,"articulation":"standard","articulation_tags":["standard","long"],"duration":0.4791666666666667,"velocity":86.02349585077204},
{"position":222.79166666666666,"instrument":"Contrabass","level2":12,"level3":8,"pitch":25,"articulation":"short_hrm","articulation_tags":["short_hrm","hrm_s","short","harmonics"],"duration":0.125,"velocity":127.5},
{"position":222.92708333333334,"instrument":"Contrabass","level2":12,"level3":11,"pitch":24,"articulation":"staccato","articulation_tags":["staccato","st","short"],"duration":0.125,"velocity":127.5},
{"position":223.04166666666666,"instrument":"TheGrandeurPiano","level2":12,"level3":null,"pitch":29,"articulation":"standard","articulation_tags":["standard","long"],"duration":0.7430555555555556,"velocity":88.21882798597645},
{"position":223.21875,"instrument":"TheGrandeurPiano","level2":12,"level3":null,"pitch":29,"articulation":"standard","articulation_tags":["standard","long"],"duration":0.5,"velocity":88.35669415279807},
{"position":223.96875,"instrument":"TheGrandeurPiano","level2":12,"level3":null,"pitch":29,"articulation":"standard","articulation_tags":["standard","long"],"duration":0.5208333333333334,"velocity":87.89611217033831},
{"position":224.16666666666666,"instrument":"TheGrandeurPiano","level2":12,"level3":null,"pitch":29,"articulation":"standard","articulation_tags":["standard","long"],"duration":1.4566929133858268,"velocity":89.35979637681183},
{"position":224.75,"instrument":"TheGrandeurPiano","level2":12,"level3":null,"pitch":29,"articulation":"standard","articulation_tags":["standard","long"],"duration":0.5486111111111112,"velocity":88.63164141631786},
{"position":225.15625,"instrument":"Contrabass","level2":12,"level3":8,"pitch":25,"articulation":"short_hrm","articulation_tags":["short_hrm","hrm_s","short","harmonics"],"duration":0.125,"velocity":127.5},
{"position":225.57291666666666,"instrument":"TheGrandeurPiano","level2":12,"level3":null,"pitch":29,"articulation":"standard","articulation_tags":["standard","long"],"duration":0.5833333333333334,"velocity":89.2691727518808},
{"position":226.44791666666666,"instrument":"TheGrandeurPiano","level2":12,"level3":null,"pitch":29,"articulation":"standard","articulation_tags":["standard","long"],"duration":0.6180555555555556,"velocity":89.72117687107719},
{"position":226.47916666666666,"instrument":"Contrabass","level2":12,"level3":11,"pitch":24,"articulation":"short_marcato","articulation_tags":["short_marcato","marcato_s","short","marcato"],"duration":0.125,"velocity":127.5},
{"position":226.8125,"instrument":"Contrabass","level2":12,"level3":10,"pitch":25,"articulation":"short_hrm","articulation_tags":["short_hrm","hrm_s","short","harmonics"],"duration":0.125,"velocity":127.5},
{"position":227.375,"instrument":"TheGrandeurPiano","level2":12,"level3":null,"pitch":29,"articulation":"standard","articulation_tags":["standard","long"],"duration":0.6666666666666666,"velocity":91.14932267488558},
{"position":227.66666666666666,"instrument":"TheGrandeurPiano","level2":12,"level3":null,"pitch":30,"articulation":"standard","articulation_tags":["standard","long"],"duration":1.1388888888888888,"velocity":91.80950510167979},
{"position":227.85416666666666,"instrument":"Contrabass","level2":12,"level3":11,"pitch":24,"articulation":"short_marcato","articulation_tags":["short_marcato","marcato_s","short","marcato"],"duration":0.125,"velocity":127.5},
{"position":228.3125,"instrument":"Contrabass","level2":12,"level3":9,"pitch":25,"articulation":"staccato","articulation_tags":["staccato","st","short"],"duration":0.125,"velocity":127.5},
{"position":228.375,"instrument":"TheGrandeurPiano","level2":12,"level3":null,"pitch":30,"articulation":"standard","articulation_tags":["standard","long"],"duration":0.7222222222222222,"velocity":91.4581265931792},
{"position":229.375,"instrument":"TheGrandeurPiano","level2":12,"level3":null,"pitch":30,"articulation":"standard","articulation_tags":["standard","long"],"duration":0.8888888888888888,"velocity":94.01234713602238},
{"position":229.45833333333334,"instrument":"TheGrandeurPiano","level2":12,"level3":null,"pitch":30,"articulation":"standard","articulation_tags":["standard","long"],"duration":0.8055555555555556,"velocity":91.4581265931792},
{"position":229.5625,"instrument":"Contrabass","level2":12,"level3":9,"pitch":25,"articulation":"spiccato","articulation_tags":["spiccato","sp","short"],"duration":0.125,"velocity":127.5},
{"position":229.79166666666666,"instrument":"Contrabass","level2":12,"level3":11,"pitch":24,"articulation":"staccato","articulation_tags":["staccato","st","short"],"duration":0.125,"velocity":127.5},
{"position":229.95833333333334,"instrument":"Contrabass","level2":12,"level3":12,"pitch":24,"articulation":"short_hrm","articulation_tags":["short_hrm","hrm_s","short","harmonics"],"duration":0.125,"velocity":127.5},
{"position":230.01041666666666,"instrument":"Contrabass","level2":12,"level3":8,"pitch":25,"articulation":"spiccato","articulation_tags":["spiccato","sp","short"],"duration":0.125,"velocity":127.5},
{"position":230.66666666666666,"instrument":"TheGrandeurPiano","level2":12,"level3":null,"pitch":30,"articulation":"standard","articulation_tags":["standard","long"],"duration":0.9166666666666666,"velocity":93.24204727575655},
{"position":230.70833333333334,"instrument":"TheGrandeurPiano","level2":12,"level3":null,"pitch":31,"articulation":"standard","articulation_tags":["standard","long"],"duration":0.7569444444444444,"velocity":94.39465877744341},
{"position":231.84375,"instrument":"TheGrandeurPiano","level2":12,"level3":null,"pitch":31,"articulation":"standard","articulation_tags":["standard","long"],"duration":0.6736111111111112,"velocity":94.39465877744341},
{"position":232.04166666666666,"instrument":"TheGrandeurPiano","level2":12,"level3":null,"pitch":31,"articulation":"standard","articulation_tags":["standard","long"],"duration":1.1041666666666667,"velocity":94.39465877744341},
{"position":232.84375,"instrument":"TheGrandeurPiano","level2":12,"level3":null,"pitch":32,"articulation":"standard","articulation_tags":["standard","long"],"duration":0.6111111111111112,"velocity":94.69072814055015},
{"position":233.69791666666666,"instrument":"TheGrandeurPiano","level2":12,"level3":null,"pitch":32,"articulation":"standard","articulation_tags":["standard","long"],"duration":1.5039370078740157,"velocity":95.0697597976021},
{"position":233.76041666666666,"instrument":"TheGrandeurPiano","level2":12,"level3":null,"pitch":32,"articulation":"standard","articulation_tags":["standard","long"],"duration":0.5625,"velocity":95.0697597976021},
{"position":233.78125,"instrument":"Contrabass","level2":12,"level3":10,"pitch":25,"articulation":"short_hrm","articulation_tags":["short_hrm","hrm_s","short","harmonics"],"duration":0.125,"velocity":127.5},
{"position":234.125,"instrument":"Contrabass","level2":12,"level3":11,"pitch":25,"articulation":"staccato","articulation_tags":["staccato","st","short"],"duration":0.125,"velocity":127.5},
{"position":234.61458333333334,"instrument":"TheGrandeurPiano","level2":12,"level3":null,"pitch":33,"articulation":"standard","articulation_tags":["standard","long"],"duration":0.5277777777777778,"velocity":96.27891143154852},
{"position":235.40625,"instrument":"TheGrandeurPiano","level2":12,"level3":null,"pitch":33,"articulation":"standard","articulation_tags":["standard","long"],"duration":0.5,"velocity":96.27891143154852},
{"position":235.98958333333334,"instrument":"TheGrandeurPiano","level2":12,"level3":null,"pitch":33,"articulation":"standard","articulation_tags":["standard","long"],"duration":1.5196850393700787,"velocity":95.40515795123042},
{"position":236.14583333333334,"instrument":"TheGrandeurPiano","level2":12,"level3":null,"pitch":34,"articulation":"standard","articulation_tags":["standard","long"],"duration":0.4722222222222222,"velocity":96.73281791500453},
{"position":236.85416666666666,"instrument":"TheGrandeurPiano","level2":12,"level3":null,"pitch":34,"articulation":"standard","articulation_tags":["standard","long"],"duration":0.4513888888888889,"velocity":94.39465877744341},
{"position":237.0625,"instrument":"Contrabass","level2":12,"level3":10,"pitch":25,"articulation":"short_hrm","articulation_tags":["short_hrm","hrm_s","short","harmonics"],"duration":0.125,"velocity":127.5},
{"position":237.53125,"instrument":"TheGrandeurPiano","level2":12,"level3":null,"pitch":35,"articulation":"standard","articulation_tags":["standard","long"],"duration":0.4305555555555556,"velocity":95.40515795123042},
{"position":237.76041666666666,"instrument":"Contrabass","level2":12,"level3":10,"pitch":25,"articulation":"spiccato","articulation_tags":["spiccato","sp","short"],"duration":0.125,"velocity":127.5},
{"position":237.77083333333334,"instrument":"Contrabass","level2":12,"level3":11,"pitch":25,"articulation":"spiccato","articulation_tags":["spiccato","sp","short"],"duration":0.125,"velocity":127.5},
{"position":238.125,"instrument":"Contrabass","level2":12,"level3":10,"pitch":25,"articulation":"spiccato","articulation_tags":["spiccato","sp","short"],"duration":0.125,"velocity":127.5},
{"position":238.17708333333334,"instrument":"TheGrandeurPiano","level2":12,"level3":null,"pitch":35,"articulation":"standard","articulation_tags":["standard","long"],"duration":0.4166666666666667,"velocity":94.39465877744341},
{"position":238.80208333333334,"instrument":"TheGrandeurPiano","level2":12,"level3":null,"pitch":24,"articulation":"standard","articulation_tags":["standard","long"],"duration":0.3958333333333333,"velocity":93.9271342792029},
{"position":239.39583333333334,"instrument":"TheGrandeurPiano","level2":12,"level3":null,"pitch":24,"articulation":"standard","articulation_tags":["standard","long"],"duration":0.3888888888888889,"velocity":93.24204727575655},
{"position":239.97916666666666,"instrument":"TheGrandeurPiano","level2":12,"level3":null,"pitch":25,"articulation":"standard","articulation_tags":["standard","long"],"duration":0.375,"velocity":94.26742906074196},
{"position":240.53125,"instrument":"TheGrandeurPiano","level2":12,"level3":null,"pitch":25,"articulation":"standard","articulation_tags":["standard","long"],"duration":0.3611111111111111,"velocity":94.39465877744341},
{"position":241.07291666666666,"instrument":"TheGrandeurPiano","level2":12,"level3":null,"pitch":26,"articulation":"standard","articulation_tags":["standard","long"],"duration":0.3541666666666667,"velocity":93.3280150789644},
{"position":241.60416666666666,"instrument":"TheGrandeurPiano","level2":12,"level3":null,"pitch":26,"articulation":"standard","articulation_tags":["standard","long"],"duration":0.3402777777777778,"velocity":94.01234713602238},
{"position":242.11458333333334,"instrument":"TheGrandeurPiano","level2":12,"level3":null,"pitch":27,"articulation":"standard","articulation_tags":["standard","long"],"duration":0.3333333333333333,"velocity":93.54251761329648},
{"position":242.3125,"instrument":"Contrabass","level2":12,"level3":12,"pitch":24,"articulation":"short_hrm","articulation_tags":["short_hrm","hrm_s","short","harmonics"],"duration":0.125,"velocity":127.5},
{"position":242.61458333333334,"instrument":"TheGrandeurPiano","level2":12,"level3":null,"pitch":27,"articulation":"standard","articulation_tags":["standard","long"],"duration":0.3263888888888889,"velocity":94.52168234242879},
{"position":242.89583333333334,"instrument":"TheGrandeurPiano","level2":12,"level3":null,"pitch":27,"articulation":"standard","articulation_tags":["standard","long"],"duration":1.3402777777777777,"velocity":94.39465877744341},
{"position":243.09375,"instrument":"TheGrandeurPiano","level2":12,"level3":null,"pitch":28,"articulation":"standard","articulation_tags":["standard","long"],"duration":0.3125,"velocity":93.37096316063099},
{"position":243.54166666666666,"instrument":"TheGrandeurPiano","level2":13,"level3":null,"pitch":29,"articulation":"standard","articulation_tags":["standard","long"],"duration":0.013888888888888888,"velocity":93.3280150789644},
{"position":243.54166666666666,"instrument":"TheGrandeurPiano","level2":14,"level3":null,"pitch":29,"articulation":"standard","articulation_tags":["standard","long"],"duration":0.11805555555555555,"velocity":93.3280150789644},
{"position":243.5625,"instrument":"TheGrandeurPiano","level2":13,"level3":null,"pitch":29,"articulation":"standard","articulation_tags":["standard","long"],"duration":0.05555555555555555,"velocity":93.3280150789644},
{"position":243.57291666666666,"instrument":"TheGrandeurPiano","level2":12,"level3":null,"pitch":28,"articulation":"standard","articulation_tags":["standard","long"],"duration":0.3055555555555556,"velocity":93.3280150789644},
{"position":243.64583333333334,"instrument":"TheGrandeurPiano","level2":13,"level3":null,"pitch":30,"articulation":"standard","articulation_tags":["standard","long"],"duration":0.05555555555555555,"velocity":94.90152607551909},
{"position":243.71875,"instrument":"TheGrandeurPiano","level2":14,"level3":null,"pitch":28,"articulation":"standard","articulation_tags":["standard","long"],"duration":0.1597222222222222,"velocity":92.89721498559524},
{"position":243.71875,"instrument":"TheGrandeurPiano","level2":13,"level3":null,"pitch":30,"articulation":"standard","articulation_tags":["standard","long"],"duration":0.05555555555555555,"velocity":92.89721498559524},
{"position":243.80208333333334,"instrument":"TheGrandeurPiano","level2":13,"level3":null,"pitch":31,"articulation":"standard","articulation_tags":["standard","long"],"duration":0.05555555555555555,"velocity":94.56397789213872},
{"position":243.88541666666666,"instrument":"TheGrandeurPiano","level2":13,"level3":null,"pitch":31,"articulation":"standard","articulation_tags":["standard","long"],"duration":0.05555555555555555,"velocity":92.63757255050447},
{"position":243.91666666666666,"instrument":"Contrabass","level2":12,"level3":12,"pitch":24,"articulation":"short_hrm","articulation_tags":["short_hrm","hrm_s","short","harmonics"],"duration":0.125,"velocity":127.5},
{"position":243.95833333333334,"instrument":"TheGrandeurPiano","level2":14,"level3":null,"pitch":28,"articulation":"standard","articulation_tags":["standard","long"],"duration":0.1736111111111111,"velocity":94.39465877744341},
{"position":243.96875,"instrument":"TheGrandeurPiano","level2":13,"level3":null,"pitch":32,"articulation":"standard","articulation_tags":["standard","long"],"duration":0.05555555555555555,"velocity":94.39465877744341},
{"position":244.03125,"instrument":"TheGrandeurPiano","level2":12,"level3":null,"pitch":29,"articulation":"standard","articulation_tags":["standard","long"],"duration":0.2986111111111111,"velocity":94.39465877744341},
{"position":244.05208333333334,"instrument":"TheGrandeurPiano","level2":13,"level3":null,"pitch":32,"articulation":"standard","articulation_tags":["standard","long"],"duration":0.05555555555555555,"velocity":92.55082937324387},
{"position":244.14583333333334,"instrument":"TheGrandeurPiano","level2":13,"level3":null,"pitch":33,"articulation":"standard","articulation_tags":["standard","long"],"duration":0.05555555555555555,"velocity":94.39465877744341},
{"position":244.15625,"instrument":"TheGrandeurPiano","level2":14,"level3":null,"pitch":28,"articulation":"standard","articulation_tags":["standard","long"],"duration":0.5486111111111112,"velocity":94.39465877744341},
{"position":244.21875,"instrument":"TheGrandeurPiano","level2":14,"level3":null,"pitch":27,"articulation":"standard","articulation_tags":["standard","long"],"duration":0.18055555555555555,"velocity":92.63757255050447},
{"position":244.22916666666666,"instrument":"TheGrandeurPiano","level2":13,"level3":null,"pitch":33,"articulation":"standard","articulation_tags":["standard","long"],"duration":0.0625,"velocity":92.63757255050447},
{"position":244.32291666666666,"instrument":"TheGrandeurPiano","level2":13,"level3":null,"pitch":34,"articulation":"standard","articulation_tags":["standard","long"],"duration":0.0625,"velocity":94.56397789213872},
{"position":244.33333333333334,"instrument":"TheGrandeurPiano","level2":13,"level3":null,"pitch":34,"articulation":"standard","articulation_tags":["standard","long"],"duration":0.8125,"velocity":94.56397789213872},
{"position":244.41666666666666,"instrument":"TheGrandeurPiano","level2":13,"level3":null,"pitch":34,"articulation":"standard","articulation_tags":["standard","long"],"duration":0.0625,"velocity":92.89721498559524},
{"position":244.48958333333334,"instrument":"TheGrandeurPiano","level2":12,"level3":null,"pitch":29,"articulation":"standard","articulation_tags":["standard","long"],"duration":0.2916666666666667,"velocity":94.90152607551909},
{"position":244.48958333333334,"instrument":"TheGrandeurPiano","level2":14,"level3":null,"pitch":27,"articulation":"standard","articulation_tags":["standard","long"],"duration":0.1875,"velocity":94.90152607551909},
{"position":244.51041666666666,"instrument":"TheGrandeurPiano","level2":13,"level3":null,"pitch":35,"articulation":"standard","articulation_tags":["standard","long"],"duration":0.0625,"velocity":94.90152607551909},
{"position":244.60416666666666,"instrument":"TheGrandeurPiano","level2":13,"level3":null,"pitch":35,"articulation":"standard","articulation_tags":["standard","long"],"duration":0.0625,"velocity":93.3280150789644},
{"position":244.69791666666666,"instrument":"TheGrandeurPiano","level2":13,"level3":null,"pitch":24,"articulation":"standard","articulation_tags":["standard","long"],"duration":0.0625,"velocity":93.9271342792029},
{"position":244.77083333333334,"instrument":"TheGrandeurPiano","level2":14,"level3":null,"pitch":26,"articulation":"standard","articulation_tags":["standard","long"],"duration":0.2013888888888889,"velocity":93.9271342792029},
{"position":244.79166666666666,"instrument":"TheGrandeurPiano","level2":13,"level3":null,"pitch":24,"articulation":"standard","articulation_tags":["standard","long"],"duration":0.0625,"velocity":93.9271342792029},
{"position":244.89583333333334,"instrument":"TheGrandeurPiano","level2":13,"level3":null,"pitch":25,"articulation":"standard","articulation_tags":["standard","long"],"duration":0.06944444444444445,"velocity":94.69072814055015},
{"position":244.90625,"instrument":"TheGrandeurPiano","level2":12,"level3":null,"pitch":29,"articulation":"standard","articulation_tags":["standard","long"],"duration":0.9166666666666666,"velocity":94.69072814055015},
{"position":244.92708333333334,"instrument":"TheGrandeurPiano","level2":12,"level3":null,"pitch":30,"articulation":"standard","articulation_tags":["standard","long"],"duration":0.2847222222222222,"velocity":94.69072814055015},
{"position":244.97916666666666,"instrument":"TheGrandeurPiano","level2":14,"level3":null,"pitch":26,"articulation":"standard","articulation_tags":["standard","long"],"duration":0.6666666666666666,"velocity":94.69072814055015},
{"position":245.0,"instrument":"TheGrandeurPiano","level2":13,"level3":null,"pitch":25,"articulation":"standard","articulation_tags":["standard","long"],"duration":0.06944444444444445,"velocity":93.37096316063099},
{"position":245.07291666666666,"instrument":"TheGrandeurPiano","level2":14,"level3":null,"pitch":26,"articulation":"standard","articulation_tags":["standard","long"],"duration":0.2152777777777778,"velocity":93.37096316063099},
{"position":245.09375,"instrument":"TheGrandeurPiano","level2":13,"level3":null,"pitch":26,"articulation":"standard","articulation_tags":["standard","long"],"duration":0.06944444444444445,"velocity":95.61406427896833},
{"position":245.19791666666666,"instrument":"TheGrandeurPiano","level2":13,"level3":null,"pitch":26,"articulation":"standard","articulation_tags":["standard","long"],"duration":0.06944444444444445,"velocity":94.39465877744341},
{"position":245.30208333333334,"instrument":"TheGrandeurPiano","level2":13,"level3":null,"pitch":27,"articulation":"standard","articulation_tags":["standard","long"],"duration":0.06944444444444445,"velocity":93.24204727575655},
{"position":245.36458333333334,"instrument":"TheGrandeurPiano","level2":12,"level3":null,"pitch":30,"articulation":"standard","articulation_tags":["standard","long"],"duration":0.2847222222222222,"velocity":95.57232688984614},
{"position":245.39583333333334,"instrument":"TheGrandeurPiano","level2":14,"level3":null,"pitch":25,"articulation":"standard","articulation_tags":["standard","long"],"duration":0.2222222222222222,"velocity":95.57232688984614},
{"position":245.41666666666666,"instrument":"TheGrandeurPiano","level2":13,"level3":null,"pitch":27,"articulation":"standard","articulation_tags":["standard","long"],"duration":0.06944444444444445,"velocity":94.52168234242879},
{"position":245.52083333333334,"instrument":"TheGrandeurPiano","level2":13,"level3":null,"pitch":28,"articulation":"standard","articulation_tags":["standard","long"],"duration":0.0763888888888889,"velocity":94.52168234242879},
{"position":245.5625,"instrument":"TheGrandeurPiano","level2":13,"level3":null,"pitch":28,"articulation":"standard","articulation_tags":["standard","long"],"duration":0.5,"velocity":93.54251761329648},
{"position":245.63541666666666,"instrument":"TheGrandeurPiano","level2":13,"level3":null,"pitch":28,"articulation":"standard","articulation_tags":["standard","long"],"duration":0.0763888888888889,"velocity":93.54251761329648},
{"position":245.72916666666666,"instrument":"TheGrandeurPiano","level2":14,"level3":null,"pitch":25,"articulation":"standard","articulation_tags":["standard","long"],"duration":0.2361111111111111,"velocity":95.0697597976021},
{"position":245.73958333333334,"instrument":"TheGrandeurPiano","level2":13,"level3":null,"pitch":29,"articulation":"standard","articulation_tags":["standard","long"],"duration":0.0763888888888889,"velocity":95.0697597976021},
{"position":245.78125,"instrument":"TheGrandeurPiano","level2":12,"level3":null,"pitch":31,"articulation":"standard","articulation_tags":["standard","long"],"duration":0.2777777777777778,"velocity":95.0697597976021},
{"position":245.85416666666666,"instrument":"TheGrandeurPiano","level2":13,"level3":null,"pitch":29,"articulation":"standard","articulation_tags":["standard","long"],"duration":0.0763888888888889,"velocity":94.26742906074196},
{"position":245.96875,"instrument":"TheGrandeurPiano","level2":13,"level3":null,"pitch":30,"articulation":"standard","articulation_tags":["standard","long"],"duration":0.0763888888888889,"velocity":93.54251761329648},
{"position":245.97916666666666,"instrument":"TheGrandeurPiano","level2":14,"level3":null,"pitch":25,"articulation":"standard","articulation_tags":["standard","long"],"duration":0.8125,"velocity":93.54251761329648},
{"position":246.08333333333334,"instrument":"TheGrandeurPiano","level2":13,"level3":null,"pitch":30,"articulation":"standard","articulation_tags":["standard","long"],"duration":0.0763888888888889,"velocity":95.40515795123042},
{"position":246.08333333333334,"instrument":"TheGrandeurPiano","level2":14,"level3":null,"pitch":24,"articulation":"standard","articulation_tags":["standard","long"],"duration":0.24305555555555555,"velocity":95.40515795123042},
{"position":246.19791666666666,"instrument":"TheGrandeurPiano","level2":12,"level3":null,"pitch":31,"articulation":"standard","articulation_tags":["standard","long"],"duration":0.2708333333333333,"velocity":94.85941156700733},
{"position":246.19791666666666,"instrument":"TheGrandeurPiano","level2":13,"level3":null,"pitch":31,"articulation":"standard","articulation_tags":["standard","long"],"duration":0.0763888888888889,"velocity":94.85941156700733},
{"position":246.27083333333334,"instrument":"TheGrandeurPiano","level2":12,"level3":null,"pitch":31,"articulation":"standard","articulation_tags":["standard","long"],"duration":0.7291666666666666,"velocity":94.85941156700733},
{"position":246.30208333333334,"instrument":"TheGrandeurPiano","level2":13,"level3":null,"pitch":31,"articulation":"standard","articulation_tags":["standard","long"],"duration":0.4097222222222222,"velocity":94.39465877744341},
{"position":246.32291666666666,"instrument":"TheGrandeurPiano","level2":13,"level3":null,"pitch":31,"articulation":"standard","articulation_tags":["standard","long"],"duration":0.08333333333333333,"velocity":94.39465877744341},
{"position":246.44791666666666,"instrument":"TheGrandeurPiano","level2":13,"level3":null,"pitch":32,"articulation":"standard","articulation_tags":["standard","long"],"duration":0.08333333333333333,"velocity":94.01234713602238},
{"position":246.45833333333334,"instrument":"TheGrandeurPiano","level2":14,"level3":null,"pitch":24,"articulation":"standard","articulation_tags":["standard","long"],"duration":0.2569444444444444,"velocity":94.01234713602238},
{"position":246.5625,"instrument":"TheGrandeurPiano","level2":13,"level3":null,"pitch":32,"articulation":"standard","articulation_tags":["standard","long"],"duration":0.08333333333333333,"velocity":93.71369335717529},
{"position":246.60416666666666,"instrument":"TheGrandeurPiano","level2":12,"level3":null,"pitch":32,"articulation":"standard","articulation_tags":["standard","long"],"duration":0.2638888888888889,"velocity":93.71369335717529},
{"position":246.6875,"instrument":"TheGrandeurPiano","level2":13,"level3":null,"pitch":33,"articulation":"standard","articulation_tags":["standard","long"],"duration":0.08333333333333333,"velocity":96.0717397018359},
{"position":246.8125,"instrument":"TheGrandeurPiano","level2":13,"level3":null,"pitch":33,"articulation":"standard","articulation_tags":["standard","long"],"duration":0.08333333333333333,"velocity":95.94717897352636},
{"position":246.84375,"instrument":"TheGrandeurPiano","level2":14,"level3":null,"pitch":35,"articulation":"standard","articulation_tags":["standard","long"],"duration":0.2708333333333333,"velocity":95.94717897352636},
{"position":246.91666666666666,"instrument":"TheGrandeurPiano","level2":13,"level3":null,"pitch":33,"articulation":"standard","articulation_tags":["standard","long"],"duration":0.3611111111111111,"velocity":95.90561558159655},
{"position":246.9375,"instrument":"TheGrandeurPiano","level2":13,"level3":null,"pitch":34,"articulation":"standard","articulation_tags":["standard","long"],"duration":0.08333333333333333,"velocity":95.90561558159655},
{"position":247.01041666666666,"instrument":"TheGrandeurPiano","level2":12,"level3":null,"pitch":32,"articulation":"standard","articulation_tags":["standard","long"],"duration":0.2638888888888889,"velocity":95.90561558159655},
{"position":247.07291666666666,"instrument":"TheGrandeurPiano","level2":13,"level3":null,"pitch":34,"articulation":"standard","articulation_tags":["standard","long"],"duration":0.09027777777777778,"velocity":95.94717897352636},
{"position":247.19791666666666,"instrument":"TheGrandeurPiano","level2":14,"level3":null,"pitch":35,"articulation":"standard","articulation_tags":["standard","long"],"duration":0.9930555555555556,"velocity":96.0717397018359},
{"position":247.19791666666666,"instrument":"TheGrandeurPiano","level2":13,"level3":null,"pitch":35,"articulation":"standard","articulation_tags":["standard","long"],"duration":0.09027777777777778,"velocity":96.0717397018359},
{"position":247.25,"instrument":"TheGrandeurPiano","level2":14,"level3":null,"pitch":35,"articulation":"standard","articulation_tags":["standard","long"],"duration":0.2847222222222222,"velocity":96.0717397018359},
{"position":247.33333333333334,"instrument":"TheGrandeurPiano","level2":13,"level3":null,"pitch":35,"articulation":"standard","articulation_tags":["standard","long"],"duration":0.09027777777777778,"velocity":96.27891143154852},
{"position":247.36458333333334,"instrument":"TheGrandeurPiano","level2":12,"level3":null,"pitch":32,"articulation":"standard","articulation_tags":["standard","long"],"duration":0.6111111111111112,"velocity":96.27891143154852},
{"position":247.39583333333334,"instrument":"TheGrandeurPiano","level2":12,"level3":null,"pitch":33,"articulation":"standard","articulation_tags":["standard","long"],"duration":0.2569444444444444,"velocity":96.56805689038677},
{"position":247.45833333333334,"instrument":"TheGrandeurPiano","level2":13,"level3":null,"pitch":35,"articulation":"standard","articulation_tags":["standard","long"],"duration":0.3263888888888889,"velocity":96.56805689038677},
{"position":247.46875,"instrument":"TheGrandeurPiano","level2":13,"level3":null,"pitch":24,"articulation":"standard","articulation_tags":["standard","long"],"duration":0.09027777777777778,"velocity":96.56805689038677},
{"position":247.60416666666666,"instrument":"TheGrandeurPiano","level2":13,"level3":null,"pitch":24,"articulation":"standard","articulation_tags":["standard","long"],"duration":0.09027777777777778,"velocity":94.39465877744341},
{"position":247.67708333333334,"instrument":"TheGrandeurPiano","level2":14,"level3":null,"pitch":34,"articulation":"standard","articulation_tags":["standard","long"],"duration":0.2986111111111111,"velocity":94.85941156700733},
{"position":247.73958333333334,"instrument":"TheGrandeurPiano","level2":13,"level3":null,"pitch":24,"articulation":"standard","articulation_tags":["standard","long"],"duration":0.09027777777777778,"velocity":94.85941156700733},
{"position":247.78125,"instrument":"TheGrandeurPiano","level2":12,"level3":null,"pitch":33,"articulation":"standard","articulation_tags":["standard","long"],"duration":0.25,"velocity":95.40515795123042},
{"position":247.88541666666666,"instrument":"TheGrandeurPiano","level2":13,"level3":null,"pitch":25,"articulation":"standard","articulation_tags":["standard","long"],"duration":0.09722222222222222,"velocity":96.0302410000582},
{"position":247.94791666666666,"instrument":"TheGrandeurPiano","level2":13,"level3":null,"pitch":25,"articulation":"standard","articulation_tags":["standard","long"],"duration":0.2986111111111111,"velocity":96.0302410000582},
{"position":248.02083333333334,"instrument":"TheGrandeurPiano","level2":13,"level3":null,"pitch":25,"articulation":"standard","articulation_tags":["standard","long"],"duration":0.09722222222222222,"velocity":96.73281791500453},
{"position":248.11458333333334,"instrument":"TheGrandeurPiano","level2":14,"level3":null,"pitch":34,"articulation":"standard","articulation_tags":["standard","long"],"duration":0.3125,"velocity":96.73281791500453},
{"position":248.15625,"instrument":"TheGrandeurPiano","level2":12,"level3":null,"pitch":34,"articulation":"standard","articulation_tags":["standard","long"],"duration":0.25,"velocity":95.0697597976021},
{"position":248.16666666666666,"instrument":"TheGrandeurPiano","level2":13,"level3":null,"pitch":26,"articulation":"standard","articulation_tags":["standard","long"],"duration":0.09722222222222222,"velocity":95.0697597976021},
{"position":248.28125,"instrument":"TheGrandeurPiano","level2":12,"level3":null,"pitch":34,"articulation":"standard","articulation_tags":["standard","long"],"duration":0.5347222222222222,"velocity":95.94717897352636},
{"position":248.3125,"instrument":"TheGrandeurPiano","level2":13,"level3":null,"pitch":26,"articulation":"standard","articulation_tags":["standard","long"],"duration":0.09722222222222222,"velocity":95.94717897352636},
{"position":248.39583333333334,"instrument":"TheGrandeurPiano","level2":13,"level3":null,"pitch":26,"articulation":"standard","articulation_tags":["standard","long"],"duration":0.2777777777777778,"velocity":96.89724337640902},
{"position":248.45833333333334,"instrument":"TheGrandeurPiano","level2":13,"level3":null,"pitch":27,"articulation":"standard","articulation_tags":["standard","long"],"duration":0.09722222222222222,"velocity":96.89724337640902},
{"position":248.53125,"instrument":"TheGrandeurPiano","level2":12,"level3":null,"pitch":34,"articulation":"standard","articulation_tags":["standard","long"],"duration":0.24305555555555555,"velocity":95.57232688984614},
{"position":248.58333333333334,"instrument":"TheGrandeurPiano","level2":14,"level3":null,"pitch":33,"articulation":"standard","articulation_tags":["standard","long"],"duration":0.3263888888888889,"velocity":95.57232688984614},
{"position":248.60416666666666,"instrument":"TheGrandeurPiano","level2":13,"level3":null,"pitch":27,"articulation":"standard","articulation_tags":["standard","long"],"duration":0.09722222222222222,"velocity":95.57232688984614},
{"position":248.67708333333334,"instrument":"TheGrandeurPiano","level2":14,"level3":null,"pitch":33,"articulation":"standard","articulation_tags":["standard","long"],"duration":1.2291666666666667,"velocity":96.69165919812349},
{"position":248.76041666666666,"instrument":"TheGrandeurPiano","level2":13,"level3":null,"pitch":28,"articulation":"standard","articulation_tags":["standard","long"],"duration":0.10416666666666667,"velocity":96.69165919812349},
{"position":248.8125,"instrument":"TheGrandeurPiano","level2":13,"level3":null,"pitch":28,"articulation":"standard","articulation_tags":["standard","long"],"duration":0.2638888888888889,"velocity":97.87686224037913},
{"position":248.89583333333334,"instrument":"TheGrandeurPiano","level2":12,"level3":null,"pitch":35,"articulation":"standard","articulation_tags":["standard","long"],"duration":0.2361111111111111,"velocity":95.61406427896833},
{"position":248.91666666666666,"instrument":"TheGrandeurPiano","level2":13,"level3":null,"pitch":28,"articulation":"standard","articulation_tags":["standard","long"],"duration":0.10416666666666667,"velocity":96.89724337640902},
{"position":249.0625,"instrument":"TheGrandeurPiano","level2":14,"level3":null,"pitch":33,"articulation":"standard","articulation_tags":["standard","long"],"duration":0.3402777777777778,"velocity":98.2412110166828},
{"position":249.07291666666666,"instrument":"TheGrandeurPiano","level2":13,"level3":null,"pitch":29,"articulation":"standard","articulation_tags":["standard","long"],"duration":0.10416666666666667,"velocity":96.0717397018359},
{"position":249.09375,"instrument":"TheGrandeurPiano","level2":12,"level3":null,"pitch":35,"articulation":"standard","articulation_tags":["standard","long"],"duration":0.4791666666666667,"velocity":96.0717397018359},
{"position":249.20833333333334,"instrument":"TheGrandeurPiano","level2":13,"level3":null,"pitch":29,"articulation":"standard","articulation_tags":["standard","long"],"duration":0.25,"velocity":97.51088486312425},
{"position":249.22916666666666,"instrument":"TheGrandeurPiano","level2":13,"level3":null,"pitch":29,"articulation":"standard","articulation_tags":["standard","long"],"duration":0.10416666666666667,"velocity":97.51088486312425},
{"position":249.25,"instrument":"TheGrandeurPiano","level2":12,"level3":null,"pitch":35,"articulation":"standard","articulation_tags":["standard","long"],"duration":0.2361111111111111,"velocity":97.51088486312425},
{"position":249.38541666666666,"instrument":"TheGrandeurPiano","level2":13,"level3":null,"pitch":30,"articulation":"standard","articulation_tags":["standard","long"],"duration":0.10416666666666667,"velocity":96.93829754975778},
{"position":249.54166666666666,"instrument":"TheGrandeurPiano","level2":13,"level3":null,"pitch":30,"articulation":"standard","articulation_tags":["standard","long"],"duration":0.1111111111111111,"velocity":96.52681396119821},
{"position":249.57291666666666,"instrument":"TheGrandeurPiano","level2":14,"level3":null,"pitch":32,"articulation":"standard","articulation_tags":["standard","long"],"duration":0.3541666666666667,"velocity":96.52681396119821},
{"position":249.58333333333334,"instrument":"TheGrandeurPiano","level2":13,"level3":null,"pitch":30,"articulation":"standard","articulation_tags":["standard","long"],"duration":0.24305555555555555,"velocity":96.52681396119821},
{"position":249.60416666666666,"instrument":"TheGrandeurPiano","level2":12,"level3":null,"pitch":24,"articulation":"standard","articulation_tags":["standard","long"],"duration":0.22916666666666666,"velocity":96.52681396119821},
{"position":249.70833333333334,"instrument":"TheGrandeurPiano","level2":13,"level3":null,"pitch":31,"articulation":"standard","articulation_tags":["standard","long"],"duration":0.1111111111111111,"velocity":96.27891143154852},
{"position":249.80208333333334,"instrument":"TheGrandeurPiano","level2":12,"level3":null,"pitch":24,"articulation":"standard","articulation_tags":["standard","long"],"duration":0.4305555555555556,"velocity":98.03899479963599},
{"position":249.875,"instrument":"TheGrandeurPiano","level2":13,"level3":null,"pitch":31,"articulation":"standard","articulation_tags":["standard","long"],"duration":0.1111111111111111,"velocity":98.03899479963599},
{"position":249.94791666666666,"instrument":"TheGrandeurPiano","level2":12,"level3":null,"pitch":24,"articulation":"standard","articulation_tags":["standard","long"],"duration":0.22916666666666666,"velocity":98.03899479963599},
{"position":249.94791666666666,"instrument":"TheGrandeurPiano","level2":13,"level3":null,"pitch":31,"articulation":"standard","articulation_tags":["standard","long"],"duration":0.22916666666666666,"velocity":98.03899479963599},
{"position":250.04166666666666,"instrument":"TheGrandeurPiano","level2":13,"level3":null,"pitch":32,"articulation":"standard","articulation_tags":["standard","long"],"duration":0.1111111111111111,"velocity":98.03899479963599},
{"position":250.10416666666666,"instrument":"TheGrandeurPiano","level2":14,"level3":null,"pitch":32,"articulation":"standard","articulation_tags":["standard","long"],"duration":0.3680555555555556,"velocity":98.20080756987355},
{"position":250.21875,"instrument":"TheGrandeurPiano","level2":13,"level3":null,"pitch":32,"articulation":"standard","articulation_tags":["standard","long"],"duration":0.11805555555555555,"velocity":98.20080756987355},
{"position":250.28125,"instrument":"TheGrandeurPiano","level2":12,"level3":null,"pitch":24,"articulation":"standard","articulation_tags":["standard","long"],"duration":0.2222222222222222,"velocity":98.52348126411496},
{"position":250.29166666666666,"instrument":"TheGrandeurPiano","level2":13,"level3":null,"pitch":32,"articulation":"standard","articulation_tags":["standard","long"],"duration":0.2222222222222222,"velocity":98.52348126411496},
{"position":250.38541666666666,"instrument":"TheGrandeurPiano","level2":13,"level3":null,"pitch":33,"articulation":"standard","articulation_tags":["standard","long"],"duration":0.11805555555555555,"velocity":96.93829754975778},
{"position":250.44791666666666,"instrument":"TheGrandeurPiano","level2":12,"level3":null,"pitch":24,"articulation":"standard","articulation_tags":["standard","long"],"duration":0.3958333333333333,"velocity":99.00513991412078},
{"position":250.52083333333334,"instrument":"TheGrandeurPiano","level2":14,"level3":null,"pitch":32,"articulation":"standard","articulation_tags":["standard","long"],"duration":1.5039370078740157,"velocity":99.00513991412078},
{"position":250.5625,"instrument":"TheGrandeurPiano","level2":13,"level3":null,"pitch":33,"articulation":"standard","articulation_tags":["standard","long"],"duration":0.11805555555555555,"velocity":97.51088486312425},
{"position":250.61458333333334,"instrument":"TheGrandeurPiano","level2":12,"level3":null,"pitch":25,"articulation":"standard","articulation_tags":["standard","long"],"duration":0.2152777777777778,"velocity":97.51088486312425},
{"position":250.625,"instrument":"TheGrandeurPiano","level2":13,"level3":null,"pitch":33,"articulation":"standard","articulation_tags":["standard","long"],"duration":0.2152777777777778,"velocity":99.64303701911761},
{"position":250.65625,"instrument":"TheGrandeurPiano","level2":14,"level3":null,"pitch":31,"articulation":"standard","articulation_tags":["standard","long"],"duration":0.3819444444444444,"velocity":99.64303701911761},
{"position":250.73958333333334,"instrument":"TheGrandeurPiano","level2":13,"level3":null,"pitch":34,"articulation":"standard","articulation_tags":["standard","long"],"duration":0.11805555555555555,"velocity":98.2412110166828},
{"position":250.92708333333334,"instrument":"TheGrandeurPiano","level2":13,"level3":null,"pitch":34,"articulation":"standard","articulation_tags":["standard","long"],"duration":0.125,"velocity":99.12511849745704},
{"position":250.9375,"instrument":"TheGrandeurPiano","level2":13,"level3":null,"pitch":34,"articulation":"standard","articulation_tags":["standard","long"],"duration":0.2013888888888889,"velocity":99.12511849745704},
{"position":250.94791666666666,"instrument":"TheGrandeurPiano","level2":12,"level3":null,"pitch":25,"articulation":"standard","articulation_tags":["standard","long"],"duration":0.2152777777777778,"velocity":99.12511849745704},
{"position":251.04166666666666,"instrument":"TheGrandeurPiano","level2":12,"level3":null,"pitch":25,"articulation":"standard","articulation_tags":["standard","long"],"duration":0.3611111111111111,"velocity":97.87686224037913},
{"position":251.10416666666666,"instrument":"TheGrandeurPiano","level2":13,"level3":null,"pitch":35,"articulation":"standard","articulation_tags":["standard","long"],"duration":0.125,"velocity":99.00513991412078},
{"position":251.22916666666666,"instrument":"TheGrandeurPiano","level2":14,"level3":null,"pitch":31,"articulation":"standard","articulation_tags":["standard","long"],"duration":0.4027777777777778,"velocity":99.00513991412078},
{"position":251.25,"instrument":"TheGrandeurPiano","level2":13,"level3":null,"pitch":35,"articulation":"standard","articulation_tags":["standard","long"],"duration":0.2013888888888889,"velocity":97.91742546419042},
{"position":251.27083333333334,"instrument":"TheGrandeurPiano","level2":12,"level3":null,"pitch":26,"articulation":"standard","articulation_tags":["standard","long"],"duration":0.20833333333333334,"velocity":97.91742546419042},
{"position":251.29166666666666,"instrument":"TheGrandeurPiano","level2":13,"level3":null,"pitch":35,"articulation":"standard","articulation_tags":["standard","long"],"duration":0.125,"velocity":97.91742546419042},
{"position":251.48958333333334,"instrument":"TheGrandeurPiano","level2":13,"level3":null,"pitch":24,"articulation":"standard","articulation_tags":["standard","long"],"duration":0.13194444444444445,"velocity":99.28482108176108},
{"position":251.54166666666666,"instrument":"TheGrandeurPiano","level2":13,"level3":null,"pitch":24,"articulation":"standard","articulation_tags":["standard","long"],"duration":0.19444444444444445,"velocity":98.36230243590848},
{"position":251.58333333333334,"instrument":"TheGrandeurPiano","level2":12,"level3":null,"pitch":26,"articulation":"standard","articulation_tags":["standard","long"],"duration":0.20833333333333334,"velocity":98.36230243590848},
{"position":251.58333333333334,"instrument":"TheGrandeurPiano","level2":12,"level3":null,"pitch":26,"articulation":"standard","articulation_tags":["standard","long"],"duration":0.3333333333333333,"velocity":98.36230243590848},
{"position":251.67708333333334,"instrument":"TheGrandeurPiano","level2":13,"level3":null,"pitch":24,"articulation":"standard","articulation_tags":["standard","long"],"duration":0.13194444444444445,"velocity":99.96016815485088},
{"position":251.82291666666666,"instrument":"TheGrandeurPiano","level2":14,"level3":null,"pitch":30,"articulation":"standard","articulation_tags":["standard","long"],"duration":0.4166666666666667,"velocity":99.20500810599452},
{"position":251.83333333333334,"instrument":"TheGrandeurPiano","level2":13,"level3":null,"pitch":24,"articulation":"standard","articulation_tags":["standard","long"],"duration":0.1875,"velocity":99.20500810599452},
{"position":251.875,"instrument":"TheGrandeurPiano","level2":13,"level3":null,"pitch":25,"articulation":"standard","articulation_tags":["standard","long"],"duration":0.13194444444444445,"velocity":98.52348126411496},
{"position":251.89583333333334,"instrument":"TheGrandeurPiano","level2":12,"level3":null,"pitch":27,"articulation":"standard","articulation_tags":["standard","long"],"duration":0.2013888888888889,"velocity":98.52348126411496},
{"position":252.07291666666666,"instrument":"TheGrandeurPiano","level2":13,"level3":null,"pitch":25,"articulation":"standard","articulation_tags":["standard","long"],"duration":0.13194444444444445,"velocity":100.43363150312125},
{"position":252.08333333333334,"instrument":"TheGrandeurPiano","level2":12,"level3":null,"pitch":27,"articulation":"standard","articulation_tags":["standard","long"],"duration":0.3125,"velocity":100.43363150312125},
{"position":252.10416666666666,"instrument":"TheGrandeurPiano","level2":13,"level3":null,"pitch":25,"articulation":"standard","articulation_tags":["standard","long"],"duration":0.18055555555555555,"velocity":100.43363150312125},
{"position":252.19791666666666,"instrument":"TheGrandeurPiano","level2":12,"level3":null,"pitch":27,"articulation":"standard","articulation_tags":["standard","long"],"duration":0.2013888888888889,"velocity":99.92059230153029},
{"position":252.28125,"instrument":"TheGrandeurPiano","level2":13,"level3":null,"pitch":26,"articulation":"standard","articulation_tags":["standard","long"],"duration":0.1388888888888889,"velocity":99.48401969465056},
{"position":252.375,"instrument":"TheGrandeurPiano","level2":13,"level3":null,"pitch":26,"articulation":"standard","articulation_tags":["standard","long"],"duration":0.1736111111111111,"velocity":99.12511849745704},
{"position":252.44791666666666,"instrument":"TheGrandeurPiano","level2":14,"level3":null,"pitch":30,"articulation":"standard","articulation_tags":["standard","long"],"duration":0.4375,"velocity":99.12511849745704},
{"position":252.47916666666666,"instrument":"TheGrandeurPiano","level2":13,"level3":null,"pitch":26,"articulation":"standard","articulation_tags":["standard","long"],"duration":0.1388888888888889,"velocity":98.84489818183187},
{"position":252.5,"instrument":"TheGrandeurPiano","level2":12,"level3":null,"pitch":28,"articulation":"standard","articulation_tags":["standard","long"],"duration":0.19444444444444445,"velocity":98.84489818183187},
{"position":252.55208333333334,"instrument":"TheGrandeurPiano","level2":12,"level3":null,"pitch":28,"articulation":"standard","articulation_tags":["standard","long"],"duration":0.2916666666666667,"velocity":101.41158432896621},
{"position":252.64583333333334,"instrument":"TheGrandeurPiano","level2":13,"level3":null,"pitch":26,"articulation":"standard","articulation_tags":["standard","long"],"duration":0.1736111111111111,"velocity":101.21689161092571},
{"position":252.6875,"instrument":"TheGrandeurPiano","level2":13,"level3":null,"pitch":27,"articulation":"standard","articulation_tags":["standard","long"],"duration":0.14583333333333334,"velocity":101.21689161092571},
{"position":252.79166666666666,"instrument":"TheGrandeurPiano","level2":12,"level3":null,"pitch":28,"articulation":"standard","articulation_tags":["standard","long"],"duration":0.19444444444444445,"velocity":101.09986217835345},
{"position":252.83333333333334,"instrument":"TheGrandeurPiano","level2":14,"level3":null,"pitch":30,"articulation":"standard","articulation_tags":["standard","long"],"duration":1.4724409448818898,"velocity":101.06081658686085},
{"position":252.89583333333334,"instrument":"TheGrandeurPiano","level2":13,"level3":null,"pitch":27,"articulation":"standard","articulation_tags":["standard","long"],"duration":0.16666666666666666,"velocity":101.06081658686085},
{"position":252.90625,"instrument":"TheGrandeurPiano","level2":13,"level3":null,"pitch":27,"articulation":"standard","articulation_tags":["standard","long"],"duration":0.14583333333333334,"velocity":101.06081658686085},
{"position":252.98958333333334,"instrument":"TheGrandeurPiano","level2":12,"level3":null,"pitch":28,"articulation":"standard","articulation_tags":["standard","long"],"duration":0.2708333333333333,"velocity":101.09986217835345},
{"position":253.08333333333334,"instrument":"TheGrandeurPiano","level2":12,"level3":null,"pitch":29,"articulation":"standard","articulation_tags":["standard","long"],"duration":0.1875,"velocity":101.21689161092571},
{"position":253.10416666666666,"instrument":"TheGrandeurPiano","level2":14,"level3":null,"pitch":29,"articulation":"standard","articulation_tags":["standard","long"],"duration":0.4513888888888889,"velocity":101.21689161092571},
{"position":253.125,"instrument":"TheGrandeurPiano","level2":13,"level3":null,"pitch":28,"articulation":"standard","articulation_tags":["standard","long"],"duration":0.14583333333333334,"velocity":101.21689161092571},
{"position":253.14583333333334,"instrument":"TheGrandeurPiano","level2":13,"level3":null,"pitch":28,"articulation":"standard","articulation_tags":["standard","long"],"duration":0.1597222222222222,"velocity":101.21689161092571},
{"position":253.34375,"instrument":"TheGrandeurPiano","level2":13,"level3":null,"pitch":28,"articulation":"standard","articulation_tags":["standard","long"],"duration":0.1527777777777778,"velocity":101.68341092674996},
{"position":253.375,"instrument":"TheGrandeurPiano","level2":12,"level3":null,"pitch":29,"articulation":"standard","articulation_tags":["standard","long"],"duration":0.1875,"velocity":101.68341092674996},
{"position":253.38541666666666,"instrument":"TheGrandeurPiano","level2":13,"level3":null,"pitch":28,"articulation":"standard","articulation_tags":["standard","long"],"duration":0.1597222222222222,"velocity":101.68341092674996},
{"position":253.39583333333334,"instrument":"TheGrandeurPiano","level2":12,"level3":null,"pitch":29,"articulation":"standard","articulation_tags":["standard","long"],"duration":0.2569444444444444,"velocity":101.68341092674996},
{"position":253.57291666666666,"instrument":"TheGrandeurPiano","level2":13,"level3":null,"pitch":29,"articulation":"standard","articulation_tags":["standard","long"],"duration":0.1527777777777778,"velocity":99.92059230153029},
{"position":253.625,"instrument":"TheGrandeurPiano","level2":13,"level3":null,"pitch":29,"articulation":"standard","articulation_tags":["standard","long"],"duration":0.1527777777777778,"velocity":99.92059230153029},
{"position":253.65625,"instrument":"TheGrandeurPiano","level2":12,"level3":null,"pitch":30,"articulation":"standard","articulation_tags":["standard","long"],"duration":0.1875,"velocity":100.43363150312125},
{"position":253.78125,"instrument":"TheGrandeurPiano","level2":14,"level3":null,"pitch":29,"articulation":"standard","articulation_tags":["standard","long"],"duration":0.4722222222222222,"velocity":101.02175306398011},
{"position":253.78125,"instrument":"TheGrandeurPiano","level2":12,"level3":null,"pitch":30,"articulation":"standard","articulation_tags":["standard","long"],"duration":0.24305555555555555,"velocity":101.02175306398011},
{"position":253.8125,"instrument":"TheGrandeurPiano","level2":13,"level3":null,"pitch":29,"articulation":"standard","articulation_tags":["standard","long"],"duration":0.1597222222222222,"velocity":101.02175306398011},
{"position":253.85416666666666,"instrument":"TheGrandeurPiano","level2":13,"level3":null,"pitch":29,"articulation":"standard","articulation_tags":["standard","long"],"duration":0.14583333333333334,"velocity":101.02175306398011},
{"position":253.92708333333334,"instrument":"TheGrandeurPiano","level2":12,"level3":null,"pitch":30,"articulation":"standard","articulation_tags":["standard","long"],"duration":0.18055555555555555,"velocity":101.68341092674996},
{"position":254.04166666666666,"instrument":"TheGrandeurPiano","level2":13,"level3":null,"pitch":30,"articulation":"standard","articulation_tags":["standard","long"],"duration":0.1597222222222222,"velocity":102.4169159986314},
{"position":254.08333333333334,"instrument":"TheGrandeurPiano","level2":13,"level3":null,"pitch":30,"articulation":"standard","articulation_tags":["standard","long"],"duration":0.14583333333333334,"velocity":102.4169159986314},
{"position":254.14583333333334,"instrument":"TheGrandeurPiano","level2":12,"level3":null,"pitch":30,"articulation":"standard","articulation_tags":["standard","long"],"duration":0.22916666666666666,"velocity":100.7869939788255},
{"position":254.19791666666666,"instrument":"TheGrandeurPiano","level2":12,"level3":null,"pitch":31,"articulation":"standard","articulation_tags":["standard","long"],"duration":0.18055555555555555,"velocity":100.7869939788255},
{"position":254.29166666666666,"instrument":"TheGrandeurPiano","level2":13,"level3":null,"pitch":30,"articulation":"standard","articulation_tags":["standard","long"],"duration":0.16666666666666666,"velocity":101.68341092674996},
{"position":254.29166666666666,"instrument":"TheGrandeurPiano","level2":13,"level3":null,"pitch":30,"articulation":"standard","articulation_tags":["standard","long"],"duration":0.1388888888888889,"velocity":101.68341092674996},
{"position":254.46875,"instrument":"TheGrandeurPiano","level2":12,"level3":null,"pitch":31,"articulation":"standard","articulation_tags":["standard","long"],"duration":0.1736111111111111,"velocity":102.64725914200362},
{"position":254.48958333333334,"instrument":"TheGrandeurPiano","level2":14,"level3":null,"pitch":28,"articulation":"standard","articulation_tags":["standard","long"],"duration":0.4930555555555556,"velocity":100.27610593400833},
{"position":254.48958333333334,"instrument":"TheGrandeurPiano","level2":12,"level3":null,"pitch":31,"articulation":"standard","articulation_tags":["standard","long"],"duration":0.2152777777777778,"velocity":100.27610593400833},
{"position":254.51041666666666,"instrument":"TheGrandeurPiano","level2":13,"level3":null,"pitch":30,"articulation":"standard","articulation_tags":["standard","long"],"duration":0.1388888888888889,"velocity":101.33376054576388},
{"position":254.54166666666666,"instrument":"TheGrandeurPiano","level2":13,"level3":null,"pitch":31,"articulation":"standard","articulation_tags":["standard","long"],"duration":0.1736111111111111,"velocity":101.33376054576388},
{"position":254.71875,"instrument":"TheGrandeurPiano","level2":13,"level3":null,"pitch":31,"articulation":"standard","articulation_tags":["standard","long"],"duration":0.13194444444444445,"velocity":102.4553491408466},
{"position":254.72916666666666,"instrument":"TheGrandeurPiano","level2":12,"level3":null,"pitch":32,"articulation":"standard","articulation_tags":["standard","long"],"duration":0.1736111111111111,"velocity":102.4553491408466},
{"position":254.80208333333334,"instrument":"TheGrandeurPiano","level2":13,"level3":null,"pitch":31,"articulation":"standard","articulation_tags":["standard","long"],"duration":0.18055555555555555,"velocity":101.37268130516307},
{"position":254.8125,"instrument":"TheGrandeurPiano","level2":12,"level3":null,"pitch":32,"articulation":"standard","articulation_tags":["standard","long"],"duration":0.20833333333333334,"velocity":101.37268130516307},
{"position":254.91666666666666,"instrument":"TheGrandeurPiano","level2":13,"level3":null,"pitch":31,"articulation":"standard","articulation_tags":["standard","long"],"duration":0.13194444444444445,"velocity":102.64725914200362},
{"position":254.98958333333334,"instrument":"TheGrandeurPiano","level2":12,"level3":null,"pitch":32,"articulation":"standard","articulation_tags":["standard","long"],"duration":0.16666666666666666,"velocity":102.64725914200362},
{"position":255.0625,"instrument":"TheGrandeurPiano","level2":13,"level3":null,"pitch":32,"articulation":"standard","articulation_tags":["standard","long"],"duration":0.18055555555555555,"velocity":101.79964441124335},
{"position":255.11458333333334,"instrument":"TheGrandeurPiano","level2":13,"level3":null,"pitch":32,"articulation":"standard","articulation_tags":["standard","long"],"duration":0.125,"velocity":101.79964441124335},
{"position":255.125,"instrument":"TheGrandeurPiano","level2":12,"level3":null,"pitch":32,"articulation":"standard","articulation_tags":["standard","long"],"duration":0.19444444444444445,"velocity":101.79964441124335},
{"position":255.22916666666666,"instrument":"TheGrandeurPiano","level2":14,"level3":null,"pitch":28,"articulation":"standard","articulation_tags":["standard","long"],"duration":0.5138888888888888,"velocity":103.22045564022854},
{"position":255.23958333333334,"instrument":"TheGrandeurPiano","level2":12,"level3":null,"pitch":33,"articulation":"standard","articulation_tags":["standard","long"],"duration":0.16666666666666666,"velocity":103.22045564022854},
{"position":255.3125,"instrument":"TheGrandeurPiano","level2":13,"level3":null,"pitch":32,"articulation":"standard","articulation_tags":["standard","long"],"duration":0.125,"velocity":102.60891116086358},
{"position":255.34375,"instrument":"TheGrandeurPiano","level2":13,"level3":null,"pitch":32,"articulation":"standard","articulation_tags":["standard","long"],"duration":0.1875,"velocity":102.60891116086358},
{"position":255.41666666666666,"instrument":"TheGrandeurPiano","level2":12,"level3":null,"pitch":33,"articulation":"standard","articulation_tags":["standard","long"],"duration":0.1875,"velocity":102.60891116086358},
{"position":255.47916666666666,"instrument":"TheGrandeurPiano","level2":12,"level3":null,"pitch":33,"articulation":"standard","articulation_tags":["standard","long"],"duration":0.1597222222222222,"velocity":102.14740390897643},
{"position":255.5,"instrument":"TheGrandeurPiano","level2":13,"level3":null,"pitch":32,"articulation":"standard","articulation_tags":["standard","long"],"duration":0.125,"velocity":102.14740390897643},
{"position":255.625,"instrument":"TheGrandeurPiano","level2":13,"level3":null,"pitch":33,"articulation":"standard","articulation_tags":["standard","long"],"duration":0.2013888888888889,"velocity":103.78990971265786},
{"position":255.67708333333334,"instrument":"TheGrandeurPiano","level2":13,"level3":null,"pitch":33,"articulation":"standard","articulation_tags":["standard","long"],"duration":0.11805555555555555,"velocity":101.83835393020402},
{"position":255.6875,"instrument":"TheGrandeurPiano","level2":12,"level3":null,"pitch":33,"articulation":"standard","articulation_tags":["standard","long"],"duration":0.1736111111111111,"velocity":101.83835393020402},
{"position":255.72916666666666,"instrument":"TheGrandeurPiano","level2":12,"level3":null,"pitch":34,"articulation":"standard","articulation_tags":["standard","long"],"duration":0.1597222222222222,"velocity":101.83835393020402},
{"position":255.84375,"instrument":"TheGrandeurPiano","level2":14,"level3":null,"pitch":28,"articulation":"standard","articulation_tags":["standard","long"],"duration":1.4409448818897639,"velocity":101.68341092674996},
{"position":255.85416666666666,"instrument":"TheGrandeurPiano","level2":13,"level3":null,"pitch":33,"articulation":"standard","articulation_tags":["standard","long"],"duration":0.11805555555555555,"velocity":101.68341092674996},
{"position":255.92708333333334,"instrument":"TheGrandeurPiano","level2":13,"level3":null,"pitch":33,"articulation":"standard","articulation_tags":["standard","long"],"duration":0.20833333333333334,"velocity":103.48666214085013},
{"position":255.95833333333334,"instrument":"TheGrandeurPiano","level2":12,"level3":null,"pitch":34,"articulation":"standard","articulation_tags":["standard","long"],"duration":0.16666666666666666,"velocity":103.48666214085013},
{"position":255.96875,"instrument":"TheGrandeurPiano","level2":12,"level3":null,"pitch":34,"articulation":"standard","articulation_tags":["standard","long"],"duration":0.1527777777777778,"velocity":103.48666214085013},
{"position":256.0,"instrument":"TheGrandeurPiano","level2":14,"level3":null,"pitch":27,"articulation":"standard","articulation_tags":["standard","long"],"duration":0.5416666666666666,"velocity":101.68341092674996},
{"position":256.03125,"instrument":"TheGrandeurPiano","level2":13,"level3":null,"pitch":33,"articulation":"standard","articulation_tags":["standard","long"],"duration":0.1111111111111111,"velocity":101.68341092674996},
{"position":256.1979166666667,"instrument":"TheGrandeurPiano","level2":12,"level3":null,"pitch":35,"articulation":"standard","articulation_tags":["standard","long"],"duration":0.1527777777777778,"velocity":101.83835393020402},
{"position":256.1979166666667,"instrument":"TheGrandeurPiano","level2":13,"level3":null,"pitch":33,"articulation":"standard","articulation_tags":["standard","long"],"duration":0.1111111111111111,"velocity":101.83835393020402},
{"position":256.2083333333333,"instrument":"TheGrandeurPiano","level2":12,"level3":null,"pitch":35,"articulation":"standard","articulation_tags":["standard","long"],"duration":0.1597222222222222,"velocity":101.83835393020402},
{"position":256.2395833333333,"instrument":"TheGrandeurPiano","level2":13,"level3":null,"pitch":34,"articulation":"standard","articulation_tags":["standard","long"],"duration":0.2222222222222222,"velocity":103.78990971265786},
{"position":256.3645833333333,"instrument":"TheGrandeurPiano","level2":13,"level3":null,"pitch":34,"articulation":"standard","articulation_tags":["standard","long"],"duration":0.10416666666666667,"velocity":102.14740390897643},
{"position":256.4270833333333,"instrument":"TheGrandeurPiano","level2":12,"level3":null,"pitch":35,"articulation":"standard","articulation_tags":["standard","long"],"duration":0.14583333333333334,"velocity":104.16750246473082},
{"position":256.4375,"instrument":"TheGrandeurPiano","level2":12,"level3":null,"pitch":35,"articulation":"standard","articulation_tags":["standard","long"],"duration":0.1527777777777778,"velocity":104.16750246473082},
{"position":256.53125,"instrument":"TheGrandeurPiano","level2":13,"level3":null,"pitch":34,"articulation":"standard","articulation_tags":["standard","long"],"duration":0.10416666666666667,"velocity":102.60891116086358},
{"position":256.5729166666667,"instrument":"TheGrandeurPiano","level2":13,"level3":null,"pitch":34,"articulation":"standard","articulation_tags":["standard","long"],"duration":0.2361111111111111,"velocity":102.60891116086358},
{"position":256.6458333333333,"instrument":"TheGrandeurPiano","level2":12,"level3":null,"pitch":24,"articulation":"standard","articulation_tags":["standard","long"],"duration":0.14583333333333334,"velocity":103.22045564022854},
{"position":256.6666666666667,"instrument":"TheGrandeurPiano","level2":12,"level3":null,"pitch":24,"articulation":"standard","articulation_tags":["standard","long"],"duration":0.14583333333333334,"velocity":103.22045564022854},
{"position":256.6875,"instrument":"TheGrandeurPiano","level2":13,"level3":null,"pitch":34,"articulation":"standard","articulation_tags":["standard","long"],"duration":0.10416666666666667,"velocity":103.22045564022854},
{"position":256.8125,"instrument":"TheGrandeurPiano","level2":14,"level3":null,"pitch":27,"articulation":"standard","articulation_tags":["standard","long"],"duration":0.5625,"velocity":103.97890866061287},
{"position":256.84375,"instrument":"TheGrandeurPiano","level2":13,"level3":null,"pitch":34,"articulation":"standard","articulation_tags":["standard","long"],"duration":0.09722222222222222,"velocity":103.97890866061287},
{"position":256.8645833333333,"instrument":"TheGrandeurPiano","level2":12,"level3":null,"pitch":24,"articulation":"standard","articulation_tags":["standard","long"],"duration":0.1388888888888889,"velocity":103.97890866061287},
{"position":256.8854166666667,"instrument":"TheGrandeurPiano","level2":12,"level3":null,"pitch":24,"articulation":"standard","articulation_tags":["standard","long"],"duration":0.1388888888888889,"velocity":102.64725914200362},
{"position":256.9270833333333,"instrument":"TheGrandeurPiano","level2":13,"level3":null,"pitch":35,"articulation":"standard","articulation_tags":["standard","long"],"duration":0.2569444444444444,"velocity":102.64725914200362},
{"position":256.9895833333333,"instrument":"TheGrandeurPiano","level2":13,"level3":null,"pitch":35,"articulation":"standard","articulation_tags":["standard","long"],"duration":0.09722222222222222,"velocity":102.64725914200362},
{"position":257.0833333333333,"instrument":"TheGrandeurPiano","level2":12,"level3":null,"pitch":25,"articulation":"standard","articulation_tags":["standard","long"],"duration":0.1388888888888889,"velocity":103.63841708949299},
{"position":257.0833333333333,"instrument":"TheGrandeurPiano","level2":12,"level3":null,"pitch":25,"articulation":"standard","articulation_tags":["standard","long"],"duration":0.13194444444444445,"velocity":103.63841708949299},
{"position":257.1354166666667,"instrument":"TheGrandeurPiano","level2":13,"level3":null,"pitch":35,"articulation":"standard","articulation_tags":["standard","long"],"duration":0.09722222222222222,"velocity":103.63841708949299},
{"position":257.2708333333333,"instrument":"TheGrandeurPiano","level2":13,"level3":null,"pitch":35,"articulation":"standard","articulation_tags":["standard","long"],"duration":0.09027777777777778,"velocity":104.7683101139535},
{"position":257.28125,"instrument":"TheGrandeurPiano","level2":12,"level3":null,"pitch":25,"articulation":"standard","articulation_tags":["standard","long"],"duration":0.125,"velocity":104.7683101139535},
{"position":257.2916666666667,"instrument":"TheGrandeurPiano","level2":12,"level3":null,"pitch":25,"articulation":"standard","articulation_tags":["standard","long"],"duration":0.13194444444444445,"velocity":103.67631478514086},
{"position":257.3125,"instrument":"TheGrandeurPiano","level2":13,"level3":null,"pitch":35,"articulation":"standard","articulation_tags":["standard","long"],"duration":0.2916666666666667,"velocity":103.67631478514086},
{"position":257.40625,"instrument":"TheGrandeurPiano","level2":13,"level3":null,"pitch":35,"articulation":"standard","articulation_tags":["standard","long"],"duration":0.09027777777777778,"velocity":103.67631478514086},
{"position":257.46875,"instrument":"TheGrandeurPiano","level2":12,"level3":null,"pitch":25,"articulation":"standard","articulation_tags":["standard","long"],"duration":0.11805555555555555,"velocity":102.64725914200362},
{"position":257.4895833333333,"instrument":"TheGrandeurPiano","level2":12,"level3":null,"pitch":26,"articulation":"standard","articulation_tags":["standard","long"],"duration":0.13194444444444445,"velocity":102.64725914200362},
{"position":257.5416666666667,"instrument":"TheGrandeurPiano","level2":13,"level3":null,"pitch":35,"articulation":"standard","articulation_tags":["standard","long"],"duration":0.08333333333333333,"velocity":102.64725914200362},
{"position":257.6458333333333,"instrument":"TheGrandeurPiano","level2":12,"level3":null,"pitch":26,"articulation":"standard","articulation_tags":["standard","long"],"duration":0.1111111111111111,"velocity":104.09211339368565},
{"position":257.65625,"instrument":"TheGrandeurPiano","level2":14,"level3":null,"pitch":26,"articulation":"standard","articulation_tags":["standard","long"],"duration":0.5902777777777778,"velocity":104.09211339368565},
{"position":257.6770833333333,"instrument":"TheGrandeurPiano","level2":13,"level3":null,"pitch":35,"articulation":"standard","articulation_tags":["standard","long"],"duration":0.08333333333333333,"velocity":103.22045564022854},
{"position":257.6875,"instrument":"TheGrandeurPiano","level2":12,"level3":null,"pitch":26,"articulation":"standard","articulation_tags":["standard","long"],"duration":0.125,"velocity":103.22045564022854},
{"position":257.75,"instrument":"TheGrandeurPiano","level2":13,"level3":null,"pitch":24,"articulation":"standard","articulation_tags":["standard","long"],"duration":0.3680555555555556,"velocity":103.22045564022854},
{"position":257.8020833333333,"instrument":"TheGrandeurPiano","level2":13,"level3":null,"pitch":24,"articulation":"standard","articulation_tags":["standard","long"],"duration":0.08333333333333333,"velocity":102.4169159986314},
{"position":257.8125,"instrument":"TheGrandeurPiano","level2":12,"level3":null,"pitch":26,"articulation":"standard","articulation_tags":["standard","long"],"duration":0.10416666666666667,"velocity":102.4169159986314},
{"position":257.8854166666667,"instrument":"TheGrandeurPiano","level2":12,"level3":null,"pitch":27,"articulation":"standard","articulation_tags":["standard","long"],"duration":0.125,"velocity":102.4169159986314},
{"position":257.9270833333333,"instrument":"TheGrandeurPiano","level2":13,"level3":null,"pitch":24,"articulation":"standard","articulation_tags":["standard","long"],"duration":0.0763888888888889,"velocity":104.16750246473082},
{"position":257.96875,"instrument":"TheGrandeurPiano","level2":12,"level3":null,"pitch":27,"articulation":"standard","articulation_tags":["standard","long"],"duration":0.09722222222222222,"velocity":104.16750246473082},
{"position":258.0416666666667,"instrument":"TheGrandeurPiano","level2":13,"level3":null,"pitch":24,"articulation":"standard","articulation_tags":["standard","long"],"duration":0.0763888888888889,"velocity":103.52462554560533},
{"position":258.0729166666667,"instrument":"TheGrandeurPiano","level2":12,"level3":null,"pitch":27,"articulation":"standard","articulation_tags":["standard","long"],"duration":0.11805555555555555,"velocity":103.52462554560533},
{"position":258.1145833333333,"instrument":"TheGrandeurPiano","level2":12,"level3":null,"pitch":27,"articulation":"standard","articulation_tags":["standard","long"],"duration":0.09722222222222222,"velocity":103.52462554560533},
{"position":258.15625,"instrument":"TheGrandeurPiano","level2":13,"level3":null,"pitch":24,"articulation":"standard","articulation_tags":["standard","long"],"duration":0.0763888888888889,"velocity":102.95343415662711},
{"position":258.25,"instrument":"TheGrandeurPiano","level2":12,"level3":null,"pitch":28,"articulation":"standard","articulation_tags":["standard","long"],"duration":0.11805555555555555,"velocity":102.95343415662711},
{"position":258.2604166666667,"instrument":"TheGrandeurPiano","level2":12,"level3":null,"pitch":28,"articulation":"standard","articulation_tags":["standard","long"],"duration":0.09027777777777778,"velocity":102.95343415662711},
{"position":258.2708333333333,"instrument":"TheGrandeurPiano","level2":13,"level3":null,"pitch":24,"articulation":"standard","articulation_tags":["standard","long"],"duration":0.06944444444444445,"velocity":102.4553491408466},
{"position":258.3020833333333,"instrument":"TheGrandeurPiano","level2":13,"level3":null,"pitch":24,"articulation":"standard","articulation_tags":["standard","long"],"duration":0.8958333333333334,"velocity":102.4553491408466},
{"position":258.375,"instrument":"TheGrandeurPiano","level2":13,"level3":null,"pitch":24,"articulation":"standard","articulation_tags":["standard","long"],"duration":0.06944444444444445,"velocity":102.4553491408466},
{"position":258.3958333333333,"instrument":"TheGrandeurPiano","level2":12,"level3":null,"pitch":28,"articulation":"standard","articulation_tags":["standard","long"],"duration":0.08333333333333333,"velocity":102.03164026800151},
{"position":258.4270833333333,"instrument":"TheGrandeurPiano","level2":12,"level3":null,"pitch":28,"articulation":"standard","articulation_tags":["standard","long"],"duration":0.1111111111111111,"velocity":104.58099547155233},
{"position":258.4791666666667,"instrument":"TheGrandeurPiano","level2":13,"level3":null,"pitch":24,"articulation":"standard","articulation_tags":["standard","long"],"duration":0.06944444444444445,"velocity":104.58099547155233},
{"position":258.5208333333333,"instrument":"TheGrandeurPiano","level2":12,"level3":null,"pitch":28,"articulation":"standard","articulation_tags":["standard","long"],"duration":0.08333333333333333,"velocity":104.2428271281618},
{"position":258.5416666666667,"instrument":"TheGrandeurPiano","level2":14,"level3":null,"pitch":26,"articulation":"standard","articulation_tags":["standard","long"],"duration":0.6180555555555556,"velocity":104.2428271281618},
{"position":258.5729166666667,"instrument":"TheGrandeurPiano","level2":13,"level3":null,"pitch":24,"articulation":"standard","articulation_tags":["standard","long"],"duration":0.0625,"velocity":104.2428271281618},
{"position":258.59375,"instrument":"TheGrandeurPiano","level2":12,"level3":null,"pitch":29,"articulation":"standard","articulation_tags":["standard","long"],"duration":0.10416666666666667,"velocity":104.2428271281618},
{"position":258.6458333333333,"instrument":"TheGrandeurPiano","level2":12,"level3":null,"pitch":29,"articulation":"standard","articulation_tags":["standard","long"],"duration":0.0763888888888889,"velocity":103.97890866061287},
{"position":258.6770833333333,"instrument":"TheGrandeurPiano","level2":13,"level3":null,"pitch":24,"articulation":"standard","articulation_tags":["standard","long"],"duration":0.0625,"velocity":103.97890866061287},
{"position":258.75,"instrument":"TheGrandeurPiano","level2":12,"level3":null,"pitch":29,"articulation":"standard","articulation_tags":["standard","long"],"duration":0.10416666666666667,"velocity":103.78990971265786},
{"position":258.7604166666667,"instrument":"TheGrandeurPiano","level2":12,"level3":null,"pitch":29,"articulation":"standard","articulation_tags":["standard","long"],"duration":0.06944444444444445,"velocity":103.78990971265786},
{"position":258.7708333333333,"instrument":"TheGrandeurPiano","level2":13,"level3":null,"pitch":24,"articulation":"standard","articulation_tags":["standard","long"],"duration":0.0625,"velocity":103.78990971265786},
{"position":258.8541666666667,"instrument":"TheGrandeurPiano","level2":13,"level3":null,"pitch":24,"articulation":"standard","articulation_tags":["standard","long"],"duration":0.05555555555555555,"velocity":103.67631478514086},
{"position":258.875,"instrument":"TheGrandeurPiano","level2":12,"level3":null,"pitch":29,"articulation":"standard","articulation_tags":["standard","long"],"duration":0.06944444444444445,"velocity":103.67631478514086},
{"position":258.90625,"instrument":"TheGrandeurPiano","level2":12,"level3":null,"pitch":30,"articulation":"standard","articulation_tags":["standard","long"],"duration":0.09722222222222222,"velocity":103.67631478514086},
{"position":258.9375,"instrument":"TheGrandeurPiano","level2":13,"level3":null,"pitch":24,"articulation":"standard","articulation_tags":["standard","long"],"duration":0.05555555555555555,"velocity":103.67631478514086},
{"position":258.96875,"instrument":"TheGrandeurPiano","level2":12,"level3":null,"pitch":30,"articulation":"standard","articulation_tags":["standard","long"],"duration":0.0625,"velocity":103.63841708949299},
{"position":259.0208333333333,"instrument":"TheGrandeurPiano","level2":13,"level3":null,"pitch":24,"articulation":"standard","articulation_tags":["standard","long"],"duration":0.05555555555555555,"velocity":103.63841708949299},
{"position":259.0520833333333,"instrument":"TheGrandeurPiano","level2":12,"level3":null,"pitch":30,"articulation":"standard","articulation_tags":["standard","long"],"duration":0.09027777777777778,"velocity":103.63841708949299},
{"position":259.0625,"instrument":"TheGrandeurPiano","level2":12,"level3":null,"pitch":30,"articulation":"standard","articulation_tags":["standard","long"],"duration":0.0625,"velocity":103.63841708949299},
{"position":259.1041666666667,"instrument":"TheGrandeurPiano","level2":13,"level3":null,"pitch":24,"articulation":"standard","articulation_tags":["standard","long"],"duration":0.04861111111111111,"velocity":103.67631478514086},
{"position":259.15625,"instrument":"TheGrandeurPiano","level2":12,"level3":null,"pitch":30,"articulation":"standard","articulation_tags":["standard","long"],"duration":0.05555555555555555,"velocity":103.67631478514086},
{"position":259.1770833333333,"instrument":"TheGrandeurPiano","level2":13,"level3":null,"pitch":24,"articulation":"standard","articulation_tags":["standard","long"],"duration":0.04861111111111111,"velocity":103.67631478514086},
{"position":259.1979166666667,"instrument":"TheGrandeurPiano","level2":12,"level3":null,"pitch":31,"articulation":"standard","articulation_tags":["standard","long"],"duration":0.09027777777777778,"velocity":103.67631478514086},
{"position":259.2395833333333,"instrument":"TheGrandeurPiano","level2":12,"level3":null,"pitch":31,"articulation":"standard","articulation_tags":["standard","long"],"duration":0.05555555555555555,"velocity":103.78990971265786},
{"position":259.25,"instrument":"TheGrandeurPiano","level2":13,"level3":null,"pitch":24,"articulation":"standard","articulation_tags":["standard","long"],"duration":0.041666666666666664,"velocity":103.78990971265786},
{"position":259.3125,"instrument":"TheGrandeurPiano","level2":13,"level3":null,"pitch":24,"articulation":"standard","articulation_tags":["standard","long"],"duration":0.041666666666666664,"velocity":103.78990971265786},
{"position":259.3229166666667,"instrument":"TheGrandeurPiano","level2":12,"level3":null,"pitch":31,"articulation":"standard","articulation_tags":["standard","long"],"duration":0.04861111111111111,"velocity":103.97890866061287},
{"position":259.3229166666667,"instrument":"TheGrandeurPiano","level2":12,"level3":null,"pitch":31,"articulation":"standard","articulation_tags":["standard","long"],"duration":0.08333333333333333,"velocity":103.97890866061287},
{"position":259.375,"instrument":"TheGrandeurPiano","level2":13,"level3":null,"pitch":24,"articulation":"standard","articulation_tags":["standard","long"],"duration":0.041666666666666664,"velocity":103.97890866061287},
{"position":259.3958333333333,"instrument":"TheGrandeurPiano","level2":12,"level3":null,"pitch":31,"articulation":"standard","articulation_tags":["standard","long"],"duration":0.041666666666666664,"velocity":103.97890866061287},
{"position":259.4375,"instrument":"TheGrandeurPiano","level2":13,"level3":null,"pitch":24,"articulation":"standard","articulation_tags":["standard","long"],"duration":0.034722222222222224,"velocity":104.2428271281618},
{"position":259.4479166666667,"instrument":"TheGrandeurPiano","level2":12,"level3":null,"pitch":32,"articulation":"standard","articulation_tags":["standard","long"],"duration":0.0763888888888889,"velocity":104.2428271281618},
{"position":259.4583333333333,"instrument":"TheGrandeurPiano","level2":12,"level3":null,"pitch":32,"articulation":"standard","articulation_tags":["standard","long"],"duration":0.041666666666666664,"velocity":104.2428271281618},
{"position":259.46875,"instrument":"TheGrandeurPiano","level2":14,"level3":null,"pitch":25,"articulation":"standard","articulation_tags":["standard","long"],"duration":0.6458333333333334,"velocity":104.2428271281618},
{"position":259.5,"instrument":"TheGrandeurPiano","level2":13,"level3":null,"pitch":24,"articulation":"standard","articulation_tags":["standard","long"],"duration":0.034722222222222224,"velocity":104.2428271281618},
{"position":259.5208333333333,"instrument":"TheGrandeurPiano","level2":12,"level3":null,"pitch":32,"articulation":"standard","articulation_tags":["standard","long"],"duration":0.034722222222222224,"velocity":104.2428271281618},
{"position":259.5520833333333,"instrument":"TheGrandeurPiano","level2":13,"level3":null,"pitch":24,"articulation":"standard","articulation_tags":["standard","long"],"duration":0.034722222222222224,"velocity":104.58099547155233},
{"position":259.5625,"instrument":"TheGrandeurPiano","level2":12,"level3":null,"pitch":32,"articulation":"standard","articulation_tags":["standard","long"],"duration":0.06944444444444445,"velocity":104.58099547155233},
{"position":259.5833333333333,"instrument":"TheGrandeurPiano","level2":12,"level3":null,"pitch":32,"articulation":"standard","articulation_tags":["standard","long"],"duration":0.034722222222222224,"velocity":104.58099547155233},
{"position":259.6041666666667,"instrument":"TheGrandeurPiano","level2":13,"level3":null,"pitch":24,"articulation":"standard","articulation_tags":["standard","long"],"duration":0.027777777777777776,"velocity":104.58099547155233},
{"position":259.6354166666667,"instrument":"TheGrandeurPiano","level2":12,"level3":null,"pitch":32,"articulation":"standard","articulation_tags":["standard","long"],"duration":0.034722222222222224,"velocity":104.58099547155233},
{"position":259.6458333333333,"instrument":"TheGrandeurPiano","level2":13,"level3":null,"pitch":24,"articulation":"standard","articulation_tags":["standard","long"],"duration":0.027777777777777776,"velocity":104.58099547155233},
{"position":259.6458333333333,"instrument":"TheGrandeurPiano","level2":13,"level3":null,"pitch":24,"articulation":"standard","articulation_tags":["standard","long"],"duration":0.11805555555555555,"velocity":104.58099547155233},
{"position":259.65625,"instrument":"TheGrandeurPiano","level2":12,"level3":null,"pitch":33,"articulation":"standard","articulation_tags":["standard","long"],"duration":0.05555555555555555,"velocity":102.03164026800151},
{"position":259.6770833333333,"instrument":"TheGrandeurPiano","level2":12,"level3":null,"pitch":33,"articulation":"standard","articulation_tags":["standard","long"],"duration":0.027777777777777776,"velocity":102.4553491408466},
{"position":259.6875,"instrument":"TheGrandeurPiano","level2":13,"level3":null,"pitch":24,"articulation":"standard","articulation_tags":["standard","long"],"duration":0.027777777777777776,"velocity":102.4553491408466},
{"position":259.71875,"instrument":"TheGrandeurPiano","level2":12,"level3":null,"pitch":33,"articulation":"standard","articulation_tags":["standard","long"],"duration":0.027777777777777776,"velocity":102.4553491408466},
{"position":259.71875,"instrument":"TheGrandeurPiano","level2":13,"level3":null,"pitch":24,"articulation":"standard","articulation_tags":["standard","long"],"duration":0.020833333333333332,"velocity":102.4553491408466},
{"position":259.7395833333333,"instrument":"TheGrandeurPiano","level2":12,"level3":null,"pitch":33,"articulation":"standard","articulation_tags":["standard","long"],"duration":0.04861111111111111,"velocity":102.4553491408466},
{"position":259.7604166666667,"instrument":"TheGrandeurPiano","level2":13,"level3":null,"pitch":24,"articulation":"standard","articulation_tags":["standard","long"],"duration":0.020833333333333332,"velocity":102.4553491408466},
{"position":259.7604166666667,"instrument":"TheGrandeurPiano","level2":12,"level3":null,"pitch":33,"articulation":"standard","articulation_tags":["standard","long"],"duration":0.020833333333333332,"velocity":102.4553491408466},
{"position":259.7916666666667,"instrument":"TheGrandeurPiano","level2":13,"level3":null,"pitch":24,"articulation":"standard","articulation_tags":["standard","long"],"duration":0.020833333333333332,"velocity":102.95343415662711},
{"position":259.7916666666667,"instrument":"TheGrandeurPiano","level2":12,"level3":null,"pitch":33,"articulation":"standard","articulation_tags":["standard","long"],"duration":0.020833333333333332,"velocity":102.95343415662711},
{"position":259.8125,"instrument":"TheGrandeurPiano","level2":13,"level3":null,"pitch":24,"articulation":"standard","articulation_tags":["standard","long"],"duration":0.013888888888888888,"velocity":102.95343415662711},
{"position":259.8125,"instrument":"TheGrandeurPiano","level2":12,"level3":null,"pitch":34,"articulation":"standard","articulation_tags":["standard","long"],"duration":0.034722222222222224,"velocity":102.95343415662711},
{"position":259.8125,"instrument":"TheGrandeurPiano","level2":12,"level3":null,"pitch":34,"articulation":"standard","articulation_tags":["standard","long"],"duration":0.013888888888888888,"velocity":102.95343415662711},
{"position":259.8229166666667,"instrument":"TheGrandeurPiano","level2":13,"level3":null,"pitch":35,"articulation":"standard","articulation_tags":["standard","long"],"duration":0.041666666666666664,"velocity":102.95343415662711},
{"position":259.8333333333333,"instrument":"TheGrandeurPiano","level2":13,"level3":null,"pitch":35,"articulation":"standard","articulation_tags":["standard","long"],"duration":0.013888888888888888,"velocity":102.95343415662711},
{"position":259.84375,"instrument":"TheGrandeurPiano","level2":12,"level3":null,"pitch":34,"articulation":"standard","articulation_tags":["standard","long"],"duration":0.013888888888888888,"velocity":102.95343415662711},
{"position":259.8541666666667,"instrument":"TheGrandeurPiano","level2":13,"level3":null,"pitch":35,"articulation":"standard","articulation_tags":["standard","long"],"duration":0.006944444444444444,"velocity":102.95343415662711},
{"position":259.8541666666667,"instrument":"TheGrandeurPiano","level2":12,"level3":null,"pitch":34,"articulation":"standard","articulation_tags":["standard","long"],"duration":0.006944444444444444,"velocity":102.95343415662711},
{"position":259.8645833333333,"instrument":"TheGrandeurPiano","level2":12,"level3":null,"pitch":34,"articulation":"standard","articulation_tags":["standard","long"],"duration":0.013888888888888888,"velocity":102.95343415662711},
{"position":259.875,"instrument":"TheGrandeurPiano","level2":13,"level3":null,"pitch":35,"articulation":"standard","articulation_tags":["standard","long"],"duration":0.006944444444444444,"velocity":102.95343415662711},
{"position":259.875,"instrument":"TheGrandeurPiano","level2":12,"level3":null,"pitch":34,"articulation":"standard","articulation_tags":["standard","long"],"duration":0.006944444444444444,"velocity":102.95343415662711},
{"position":259.8854166666667,"instrument":"TheGrandeurPiano","level2":13,"level3":null,"pitch":35,"articulation":"standard","articulation_tags":["standard","long"],"duration":0.006944444444444444,"velocity":102.95343415662711},
{"position":259.8854166666667,"instrument":"TheGrandeurPiano","level2":13,"level3":null,"pitch":35,"articulation":"standard","articulation_tags":["standard","long"],"duration":0.006944444444444444,"velocity":102.95343415662711},
{"position":259.8854166666667,"instrument":"TheGrandeurPiano","level2":13,"level3":null,"pitch":35,"articulation":"standard","articulation_tags":["standard","long"],"duration":0.0,"velocity":102.95343415662711},
{"position":259.8854166666667,"instrument":"TheGrandeurPiano","level2":13,"level3":null,"pitch":35,"articulation":"standard","articulation_tags":["standard","long"],"duration":0.0,"velocity":102.95343415662711},
{"position":259.8854166666667,"instrument":"TheGrandeurPiano","level2":12,"level3":null,"pitch":34,"articulation":"standard","articulation_tags":["standard","long"],"duration":0.006944444444444444,"velocity":102.95343415662711},
{"position":259.8854166666667,"instrument":"TheGrandeurPiano","level2":12,"level3":null,"pitch":34,"articulation":"standard","articulation_tags":["standard","long"],"duration":0.0,"velocity":102.95343415662711},
{"position":259.8854166666667,"instrument":"TheGrandeurPiano","level2":12,"level3":null,"pitch":35,"articulation":"standard","articulation_tags":["standard","long"],"duration":0.0,"velocity":102.95343415662711},
{"position":260.0416666666667,"instrument":"TheGrandeurPiano","level2":14,"level3":null,"pitch":25,"articulation":"standard","articulation_tags":["standard","long"],"duration":1.3937007874015748,"velocity":104.16750246473082},
{"position":260.4375,"instrument":"TheGrandeurPiano","level2":14,"level3":null,"pitch":25,"articulation":"standard","articulation_tags":["standard","long"],"duration":0.6805555555555556,"velocity":104.09211339368565},
{"position":261.4583333333333,"instrument":"TheGrandeurPiano","level2":14,"level3":null,"pitch":24,"articulation":"standard","articulation_tags":["standard","long"],"duration":0.7152777777777778,"velocity":104.69343172853716},
{"position":262.53125,"instrument":"TheGrandeurPiano","level2":14,"level3":null,"pitch":24,"articulation":"standard","articulation_tags":["standard","long"],"duration":0.7569444444444444,"velocity":102.14740390897643},
{"position":263.6666666666667,"instrument":"TheGrandeurPiano","level2":14,"level3":null,"pitch":35,"articulation":"standard","articulation_tags":["standard","long"],"duration":0.7986111111111112,"velocity":101.68341092674996},
{"position":264.8645833333333,"instrument":"TheGrandeurPiano","level2":14,"level3":null,"pitch":35,"articulation":"standard","articulation_tags":["standard","long"],"duration":0.8402777777777778,"velocity":101.21689161092571},
{"position":266.125,"instrument":"TheGrandeurPiano","level2":14,"level3":null,"pitch":34,"articulation":"standard","articulation_tags":["standard","long"],"duration":0.9027777777777778,"velocity":101.68341092674996},
{"position":267.0416666666667,"instrument":"TheGrandeurPiano","level2":14,"level3":null,"pitch":34,"articulation":"standard","articulation_tags":["standard","long"],"duration":1.5354330708661417,"velocity":101.37268130516307},
{"position":267.4791666666667,"instrument":"TheGrandeurPiano","level2":14,"level3":null,"pitch":34,"articulation":"standard","articulation_tags":["standard","long"],"duration":0.9583333333333334,"velocity":102.60891116086358},
{"position":268.9166666666667,"instrument":"TheGrandeurPiano","level2":14,"level3":null,"pitch":33,"articulation":"standard","articulation_tags":["standard","long"],"duration":1.0277777777777777,"velocity":101.79964441124335},
{"position":270.4583333333333,"instrument":"TheGrandeurPiano","level2":14,"level3":null,"pitch":33,"articulation":"standard","articulation_tags":["standard","long"],"duration":1.1041666666666667,"velocity":102.03164026800151},
{"position":272.1145833333333,"instrument":"TheGrandeurPiano","level2":14,"level3":null,"pitch":32,"articulation":"standard","articulation_tags":["standard","long"],"duration":1.2013888888888888,"velocity":102.4169159986314},
{"position":273.9166666666667,"instrument":"TheGrandeurPiano","level2":14,"level3":null,"pitch":32,"articulation":"standard","articulation_tags":["standard","long"],"duration":1.3194444444444444,"velocity":105.32789735437954},
{"position":275.8958333333333,"instrument":"TheGrandeurPiano","level2":14,"level3":null,"pitch":31,"articulation":"standard","articulation_tags":["standard","long"],"duration":1.4652777777777777,"velocity":106.65681509074024},
{"position":278.1041666666667,"instrument":"TheGrandeurPiano","level2":14,"level3":null,"pitch":31,"articulation":"standard","articulation_tags":["standard","long"],"duration":1.4881889763779528,"velocity":110.56667899780632},
{"position":279.96875,"instrument":"BassClarinet","level2":16,"level3":0,"pitch":39,"articulation":"legato","articulation_tags":["legato","lg"],"duration":0.11458333333333333,"velocity":127.0},
{"position":279.96875,"instrument":"Bassoon","level2":16,"level3":1,"pitch":39,"articulation":"legato","articulation_tags":["legato","lg"],"duration":0.8541666666666666,"velocity":127.0},
{"position":280.0833333333333,"instrument":"BassClarinet","level2":16,"level3":0,"pitch":39,"articulation":"legato","articulation_tags":["legato","lg"],"duration":2.6145833333333335,"velocity":127.0},
{"position":280.28125,"instrument":"Marimba","level2":16,"level3":0,"pitch":39,"articulation":"hits","articulation_tags":["hits","short"],"duration":0.0625,"velocity":127.5},
{"position":280.59375,"instrument":"TheGrandeurPiano","level2":14,"level3":null,"pitch":30,"articulation":"standard","articulation_tags":["standard","long"],"duration":1.4724409448818898,"velocity":110.39087167156735},
{"position":280.8229166666667,"instrument":"Bassoon","level2":16,"level3":1,"pitch":38,"articulation":"legato","articulation_tags":["legato","lg"],"duration":3.8958333333333335,"velocity":127.0},
{"position":281.2083333333333,"instrument":"TheGrandeurPiano","level2":15,"level3":null,"pitch":43,"articulation":"standard","articulation_tags":["standard","long"],"duration":0.006944444444444444,"velocity":111.68419700196876},
{"position":281.2083333333333,"instrument":"TheGrandeurPiano","level2":15,"level3":null,"pitch":43,"articulation":"standard","articulation_tags":["standard","long"],"duration":0.027777777777777776,"velocity":111.68419700196876},
{"position":281.2083333333333,"instrument":"TheGrandeurPiano","level2":16,"level3":null,"pitch":43,"articulation":"standard","articulation_tags":["standard","long"],"duration":0.0,"velocity":111.68419700196876},
{"position":281.2083333333333,"instrument":"TheGrandeurPiano","level2":16,"level3":null,"pitch":43,"articulation":"standard","articulation_tags":["standard","long"],"duration":0.006944444444444444,"velocity":111.68419700196876},
{"position":281.21875,"instrument":"TheGrandeurPiano","level2":15,"level3":null,"pitch":43,"articulation":"standard","articulation_tags":["standard","long"],"duration":0.013888888888888888,"velocity":110.53154368951654},
{"position":281.21875,"instrument":"TheGrandeurPiano","level2":16,"level3":null,"pitch":44,"articulation":"standard","articulation_tags":["standard","long"],"duration":0.034722222222222224,"velocity":110.53154368951654},
{"position":281.21875,"instrument":"TheGrandeurPiano","level2":16,"level3":null,"pitch":44,"articulation":"standard","articulation_tags":["standard","long"],"duration":0.013888888888888888,"velocity":110.53154368951654},
{"position":281.2291666666667,"instrument":"TheGrandeurPiano","level2":15,"level3":null,"pitch":43,"articulation":"standard","articulation_tags":["standard","long"],"duration":0.020833333333333332,"velocity":110.53154368951654},
{"position":281.2395833333333,"instrument":"TheGrandeurPiano","level2":16,"level3":null,"pitch":44,"articulation":"standard","articulation_tags":["standard","long"],"duration":0.020833333333333332,"velocity":110.53154368951654},
{"position":281.25,"instrument":"TheGrandeurPiano","level2":15,"level3":null,"pitch":42,"articulation":"standard","articulation_tags":["standard","long"],"duration":0.05555555555555555,"velocity":110.53154368951654},
{"position":281.2604166666667,"instrument":"TheGrandeurPiano","level2":15,"level3":null,"pitch":42,"articulation":"standard","articulation_tags":["standard","long"],"duration":0.027777777777777776,"velocity":110.53154368951654},
{"position":281.2708333333333,"instrument":"TheGrandeurPiano","level2":16,"level3":null,"pitch":44,"articulation":"standard","articulation_tags":["standard","long"],"duration":0.06944444444444445,"velocity":110.53154368951654},
{"position":281.2708333333333,"instrument":"TheGrandeurPiano","level2":16,"level3":null,"pitch":44,"articulation":"standard","articulation_tags":["standard","long"],"duration":0.027777777777777776,"velocity":110.53154368951654},
{"position":281.3020833333333,"instrument":"TheGrandeurPiano","level2":15,"level3":null,"pitch":42,"articulation":"standard","articulation_tags":["standard","long"],"duration":0.034722222222222224,"velocity":112.80384371094559},
{"position":281.3125,"instrument":"TheGrandeurPiano","level2":16,"level3":null,"pitch":44,"articulation":"standard","articulation_tags":["standard","long"],"duration":0.034722222222222224,"velocity":112.80384371094559},
{"position":281.3333333333333,"instrument":"TheGrandeurPiano","level2":15,"level3":null,"pitch":42,"articulation":"standard","articulation_tags":["standard","long"],"duration":0.0763888888888889,"velocity":111.78829588715456},
{"position":281.3541666666667,"instrument":"TheGrandeurPiano","level2":15,"level3":null,"pitch":42,"articulation":"standard","articulation_tags":["standard","long"],"duration":0.041666666666666664,"velocity":111.78829588715456},
{"position":281.3645833333333,"instrument":"TheGrandeurPiano","level2":16,"level3":null,"pitch":44,"articulation":"standard","articulation_tags":["standard","long"],"duration":0.041666666666666664,"velocity":111.78829588715456},
{"position":281.3645833333333,"instrument":"TheGrandeurPiano","level2":16,"level3":null,"pitch":45,"articulation":"standard","articulation_tags":["standard","long"],"duration":0.10416666666666667,"velocity":111.78829588715456},
{"position":281.4166666666667,"instrument":"TheGrandeurPiano","level2":15,"level3":null,"pitch":42,"articulation":"standard","articulation_tags":["standard","long"],"duration":0.05555555555555555,"velocity":111.78829588715456},
{"position":281.4375,"instrument":"Marimba","level2":16,"level3":1,"pitch":38,"articulation":"hits","articulation_tags":["hits","short"],"duration":0.0625,"velocity":103.35560817836156},
{"position":281.4375,"instrument":"TheGrandeurPiano","level2":16,"level3":null,"pitch":45,"articulation":"standard","articulation_tags":["standard","long"],"duration":0.05555555555555555,"velocity":110.7772173192543},
{"position":281.4479166666667,"instrument":"TheGrandeurPiano","level2":15,"level3":null,"pitch":41,"articulation":"standard","articulation_tags":["standard","long"],"duration":0.10416666666666667,"velocity":110.7772173192543},
{"position":281.5,"instrument":"TheGrandeurPiano","level2":15,"level3":null,"pitch":41,"articulation":"standard","articulation_tags":["standard","long"],"duration":0.0625,"velocity":110.7772173192543},
{"position":281.5104166666667,"instrument":"TheGrandeurPiano","level2":16,"level3":null,"pitch":45,"articulation":"standard","articulation_tags":["standard","long"],"duration":0.0625,"velocity":110.7772173192543},
{"position":281.5208333333333,"instrument":"TheGrandeurPiano","level2":16,"level3":null,"pitch":45,"articulation":"standard","articulation_tags":["standard","long"],"duration":0.14583333333333334,"velocity":110.7772173192543},
{"position":281.59375,"instrument":"TheGrandeurPiano","level2":15,"level3":null,"pitch":41,"articulation":"standard","articulation_tags":["standard","long"],"duration":0.06944444444444445,"velocity":112.22320927116661},
{"position":281.6041666666667,"instrument":"TheGrandeurPiano","level2":16,"level3":null,"pitch":45,"articulation":"standard","articulation_tags":["standard","long"],"duration":0.06944444444444445,"velocity":112.22320927116661},
{"position":281.6041666666667,"instrument":"TheGrandeurPiano","level2":15,"level3":null,"pitch":41,"articulation":"standard","articulation_tags":["standard","long"],"duration":0.125,"velocity":112.22320927116661},
{"position":281.6979166666667,"instrument":"TheGrandeurPiano","level2":15,"level3":null,"pitch":41,"articulation":"standard","articulation_tags":["standard","long"],"duration":0.0763888888888889,"velocity":111.37121859738943},
{"position":281.7083333333333,"instrument":"TheGrandeurPiano","level2":16,"level3":null,"pitch":45,"articulation":"standard","articulation_tags":["standard","long"],"duration":0.0763888888888889,"velocity":111.37121859738943},
{"position":281.7395833333333,"instrument":"TheGrandeurPiano","level2":16,"level3":null,"pitch":46,"articulation":"standard","articulation_tags":["standard","long"],"duration":0.1875,"velocity":111.37121859738943},
{"position":281.78125,"instrument":"TheGrandeurPiano","level2":15,"level3":null,"pitch":40,"articulation":"standard","articulation_tags":["standard","long"],"duration":0.14583333333333334,"velocity":110.56667899780632},
{"position":281.8125,"instrument":"TheGrandeurPiano","level2":15,"level3":null,"pitch":40,"articulation":"standard","articulation_tags":["standard","long"],"duration":0.09027777777777778,"velocity":110.56667899780632},
{"position":281.8229166666667,"instrument":"TheGrandeurPiano","level2":16,"level3":null,"pitch":46,"articulation":"standard","articulation_tags":["standard","long"],"duration":0.08333333333333333,"velocity":110.56667899780632},
{"position":281.9479166666667,"instrument":"TheGrandeurPiano","level2":15,"level3":null,"pitch":40,"articulation":"standard","articulation_tags":["standard","long"],"duration":0.09722222222222222,"velocity":112.28790860488192},
{"position":281.9479166666667,"instrument":"TheGrandeurPiano","level2":16,"level3":null,"pitch":46,"articulation":"standard","articulation_tags":["standard","long"],"duration":0.09027777777777778,"velocity":112.28790860488192},
{"position":282.0,"instrument":"TheGrandeurPiano","level2":15,"level3":null,"pitch":40,"articulation":"standard","articulation_tags":["standard","long"],"duration":0.16666666666666666,"velocity":112.28790860488192},
{"position":282.0208333333333,"instrument":"TheGrandeurPiano","level2":16,"level3":null,"pitch":46,"articulation":"standard","articulation_tags":["standard","long"],"duration":0.2361111111111111,"velocity":111.64947219697763},
{"position":282.0833333333333,"instrument":"TheGrandeurPiano","level2":16,"level3":null,"pitch":46,"articulation":"standard","articulation_tags":["standard","long"],"duration":0.09722222222222222,"velocity":111.64947219697763},
{"position":282.09375,"instrument":"TheGrandeurPiano","level2":15,"level3":null,"pitch":40,"articulation":"standard","articulation_tags":["standard","long"],"duration":0.10416666666666667,"velocity":111.64947219697763},
{"position":282.2291666666667,"instrument":"TheGrandeurPiano","level2":16,"level3":null,"pitch":46,"articulation":"standard","articulation_tags":["standard","long"],"duration":0.10416666666666667,"velocity":111.0572097086303},
{"position":282.25,"instrument":"TheGrandeurPiano","level2":15,"level3":null,"pitch":39,"articulation":"standard","articulation_tags":["standard","long"],"duration":0.18055555555555555,"velocity":110.53154368951654},
{"position":282.25,"instrument":"TheGrandeurPiano","level2":15,"level3":null,"pitch":39,"articulation":"standard","articulation_tags":["standard","long"],"duration":0.11805555555555555,"velocity":110.53154368951654},
{"position":282.375,"instrument":"TheGrandeurPiano","level2":16,"level3":null,"pitch":47,"articulation":"standard","articulation_tags":["standard","long"],"duration":0.2916666666666667,"velocity":112.57848370882607},
{"position":282.3854166666667,"instrument":"TheGrandeurPiano","level2":16,"level3":null,"pitch":47,"articulation":"standard","articulation_tags":["standard","long"],"duration":0.11805555555555555,"velocity":112.57848370882607},
{"position":282.4270833333333,"instrument":"TheGrandeurPiano","level2":15,"level3":null,"pitch":39,"articulation":"standard","articulation_tags":["standard","long"],"duration":0.125,"velocity":112.57848370882607},
{"position":282.5208333333333,"instrument":"TheGrandeurPiano","level2":15,"level3":null,"pitch":39,"articulation":"standard","articulation_tags":["standard","long"],"duration":0.2013888888888889,"velocity":112.22320927116661},
{"position":282.5625,"instrument":"TheGrandeurPiano","level2":16,"level3":null,"pitch":47,"articulation":"standard","articulation_tags":["standard","long"],"duration":0.125,"velocity":111.92691867442504},
{"position":282.6145833333333,"instrument":"TheGrandeurPiano","level2":15,"level3":null,"pitch":39,"articulation":"standard","articulation_tags":["standard","long"],"duration":0.1388888888888889,"velocity":111.92691867442504},
{"position":282.6979166666667,"instrument":"Marimba","level2":16,"level3":0,"pitch":39,"articulation":"hits","articulation_tags":["hits","short"],"duration":0.0625,"velocity":104.45658481068966},
{"position":282.7395833333333,"instrument":"TheGrandeurPiano","level2":16,"level3":null,"pitch":47,"articulation":"standard","articulation_tags":["standard","long"],"duration":0.13194444444444445,"velocity":111.68419700196876},
{"position":282.8125,"instrument":"TheGrandeurPiano","level2":15,"level3":null,"pitch":38,"articulation":"standard","articulation_tags":["standard","long"],"duration":0.2152777777777778,"velocity":111.51044672786176},
{"position":282.8125,"instrument":"TheGrandeurPiano","level2":16,"level3":null,"pitch":47,"articulation":"standard","articulation_tags":["standard","long"],"duration":0.3472222222222222,"velocity":111.51044672786176},
{"position":282.8229166666667,"instrument":"TheGrandeurPiano","level2":15,"level3":null,"pitch":38,"articulation":"standard","articulation_tags":["standard","long"],"duration":0.14583333333333334,"velocity":111.51044672786176},
{"position":282.9375,"instrument":"TheGrandeurPiano","level2":16,"level3":null,"pitch":47,"articulation":"standard","articulation_tags":["standard","long"],"duration":0.1388888888888889,"velocity":111.4060446780088},
{"position":283.0416666666667,"instrument":"TheGrandeurPiano","level2":15,"level3":null,"pitch":38,"articulation":"standard","articulation_tags":["standard","long"],"duration":0.1597222222222222,"velocity":111.37121859738943},
{"position":283.1354166666667,"instrument":"TheGrandeurPiano","level2":15,"level3":null,"pitch":38,"articulation":"standard","articulation_tags":["standard","long"],"duration":0.22916666666666666,"velocity":111.4060446780088},
{"position":283.1458333333333,"instrument":"TheGrandeurPiano","level2":16,"level3":null,"pitch":47,"articulation":"standard","articulation_tags":["standard","long"],"duration":0.14583333333333334,"velocity":111.4060446780088},
{"position":283.28125,"instrument":"TheGrandeurPiano","level2":15,"level3":null,"pitch":38,"articulation":"standard","articulation_tags":["standard","long"],"duration":0.16666666666666666,"velocity":111.51044672786176},
{"position":283.3333333333333,"instrument":"TheGrandeurPiano","level2":16,"level3":null,"pitch":48,"articulation":"standard","articulation_tags":["standard","long"],"duration":0.4166666666666667,"velocity":111.68419700196876},
{"position":283.3645833333333,"instrument":"TheGrandeurPiano","level2":16,"level3":null,"pitch":48,"articulation":"standard","articulation_tags":["standard","long"],"duration":0.1527777777777778,"velocity":111.68419700196876},
{"position":283.4791666666667,"instrument":"TheGrandeurPiano","level2":15,"level3":null,"pitch":37,"articulation":"standard","articulation_tags":["standard","long"],"duration":0.24305555555555555,"velocity":111.92691867442504},
{"position":283.5104166666667,"instrument":"TheGrandeurPiano","level2":14,"level3":null,"pitch":30,"articulation":"standard","articulation_tags":["standard","long"],"duration":1.4724409448818898,"velocity":111.92691867442504},
{"position":283.53125,"instrument":"TheGrandeurPiano","level2":15,"level3":null,"pitch":37,"articulation":"standard","articulation_tags":["standard","long"],"duration":0.18055555555555555,"velocity":112.22320927116661},
{"position":283.59375,"instrument":"TheGrandeurPiano","level2":16,"level3":null,"pitch":48,"articulation":"standard","articulation_tags":["standard","long"],"duration":0.1597222222222222,"velocity":112.22320927116661},
{"position":283.8020833333333,"instrument":"TheGrandeurPiano","level2":15,"level3":null,"pitch":37,"articulation":"standard","articulation_tags":["standard","long"],"duration":0.19444444444444445,"velocity":110.53154368951654},
{"position":283.84375,"instrument":"TheGrandeurPiano","level2":16,"level3":null,"pitch":48,"articulation":"standard","articulation_tags":["standard","long"],"duration":0.1736111111111111,"velocity":111.0572097086303},
{"position":283.8541666666667,"instrument":"TheGrandeurPiano","level2":15,"level3":null,"pitch":37,"articulation":"standard","articulation_tags":["standard","long"],"duration":0.2569444444444444,"velocity":111.0572097086303},
{"position":283.9583333333333,"instrument":"TheGrandeurPiano","level2":16,"level3":null,"pitch":48,"articulation":"standard","articulation_tags":["standard","long"],"duration":0.5,"velocity":111.64947219697763},
{"position":284.09375,"instrument":"TheGrandeurPiano","level2":15,"level3":null,"pitch":37,"articulation":"standard","articulation_tags":["standard","long"],"duration":0.20833333333333334,"velocity":112.28790860488192},
{"position":284.09375,"instrument":"TheGrandeurPiano","level2":16,"level3":null,"pitch":48,"articulation":"standard","articulation_tags":["standard","long"],"duration":0.18055555555555555,"velocity":112.28790860488192},
{"position":284.2395833333333,"instrument":"TheGrandeurPiano","level2":15,"level3":null,"pitch":36,"articulation":"standard","articulation_tags":["standard","long"],"duration":0.2708333333333333,"velocity":110.56667899780632},
{"position":284.3645833333333,"instrument":"TheGrandeurPiano","level2":16,"level3":null,"pitch":48,"articulation":"standard","articulation_tags":["standard","long"],"duration":0.1875,"velocity":111.37121859738943},
{"position":284.3958333333333,"instrument":"TheGrandeurPiano","level2":15,"level3":null,"pitch":36,"articulation":"standard","articulation_tags":["standard","long"],"duration":0.2152777777777778,"velocity":112.22320927116661},
{"position":284.6458333333333,"instrument":"TheGrandeurPiano","level2":16,"level3":null,"pitch":48,"articulation":"standard","articulation_tags":["standard","long"],"duration":0.19444444444444445,"velocity":111.78829588715456},
{"position":284.6458333333333,"instrument":"TheGrandeurPiano","level2":15,"level3":null,"pitch":36,"articulation":"standard","articulation_tags":["standard","long"],"duration":0.2847222222222222,"velocity":111.78829588715456},
{"position":284.7083333333333,"instrument":"TheGrandeurPiano","level2":16,"level3":null,"pitch":49,"articulation":"standard","articulation_tags":["standard","long"],"duration":0.5902777777777778,"velocity":111.78829588715456},
{"position":284.71875,"instrument":"Bassoon","level2":16,"level3":1,"pitch":38,"articulation":"long_fltr","articulation_tags":["long_fltr","fltr","long","flutter"],"duration":6.40625,"velocity":83.26357116970543},
{"position":284.7291666666667,"instrument":"TheGrandeurPiano","level2":15,"level3":null,"pitch":36,"articulation":"standard","articulation_tags":["standard","long"],"duration":0.22916666666666666,"velocity":112.80384371094559},
{"position":284.9479166666667,"instrument":"TheGrandeurPiano","level2":16,"level3":null,"pitch":49,"articulation":"standard","articulation_tags":["standard","long"],"duration":0.20833333333333334,"velocity":111.68419700196876},
{"position":285.0729166666667,"instrument":"TheGrandeurPiano","level2":15,"level3":null,"pitch":36,"articulation":"standard","articulation_tags":["standard","long"],"duration":0.24305555555555555,"velocity":110.63691048093489},
{"position":285.0833333333333,"instrument":"TheGrandeurPiano","level2":15,"level3":null,"pitch":35,"articulation":"standard","articulation_tags":["standard","long"],"duration":0.2986111111111111,"velocity":111.92691867442504},
{"position":285.25,"instrument":"TheGrandeurPiano","level2":16,"level3":null,"pitch":49,"articulation":"standard","articulation_tags":["standard","long"],"duration":0.2152777777777778,"velocity":111.09215079038692},
{"position":285.4375,"instrument":"TheGrandeurPiano","level2":15,"level3":null,"pitch":35,"articulation":"standard","articulation_tags":["standard","long"],"duration":0.2569444444444444,"velocity":110.39087167156735},
{"position":285.5208333333333,"instrument":"TheGrandeurPiano","level2":15,"level3":null,"pitch":35,"articulation":"standard","articulation_tags":["standard","long"],"duration":0.3125,"velocity":111.89228176458512},
{"position":285.5729166666667,"instrument":"TheGrandeurPiano","level2":16,"level3":null,"pitch":49,"articulation":"standard","articulation_tags":["standard","long"],"duration":0.2222222222222222,"velocity":109.82607454913365},
{"position":285.59375,"instrument":"TheGrandeurPiano","level2":16,"level3":null,"pitch":49,"articulation":"standard","articulation_tags":["standard","long"],"duration":0.6944444444444444,"velocity":111.4060446780088},
{"position":285.8333333333333,"instrument":"TheGrandeurPiano","level2":15,"level3":null,"pitch":35,"articulation":"standard","articulation_tags":["standard","long"],"duration":0.2777777777777778,"velocity":111.0572097086303},
{"position":285.90625,"instrument":"TheGrandeurPiano","level2":16,"level3":null,"pitch":49,"articulation":"standard","articulation_tags":["standard","long"],"duration":0.22916666666666666,"velocity":110.84729290540398},
{"position":285.9895833333333,"instrument":"TheGrandeurPiano","level2":15,"level3":null,"pitch":34,"articulation":"standard","articulation_tags":["standard","long"],"duration":0.3194444444444444,"velocity":110.84729290540398},
{"position":286.2395833333333,"instrument":"TheGrandeurPiano","level2":15,"level3":null,"pitch":34,"articulation":"standard","articulation_tags":["standard","long"],"duration":0.2916666666666667,"velocity":110.84729290540398},
{"position":286.25,"instrument":"TheGrandeurPiano","level2":16,"level3":null,"pitch":49,"articulation":"standard","articulation_tags":["standard","long"],"duration":0.24305555555555555,"velocity":110.84729290540398},
{"position":286.46875,"instrument":"TheGrandeurPiano","level2":15,"level3":null,"pitch":34,"articulation":"standard","articulation_tags":["standard","long"],"duration":0.3333333333333333,"velocity":109.40023540166025},
{"position":286.6145833333333,"instrument":"TheGrandeurPiano","level2":16,"level3":null,"pitch":49,"articulation":"standard","articulation_tags":["standard","long"],"duration":0.25,"velocity":109.82607454913365},
{"position":286.6354166666667,"instrument":"TheGrandeurPiano","level2":16,"level3":null,"pitch":50,"articulation":"standard","articulation_tags":["standard","long"],"duration":0.8263888888888888,"velocity":109.82607454913365},
{"position":286.6770833333333,"instrument":"TheGrandeurPiano","level2":15,"level3":null,"pitch":34,"articulation":"standard","articulation_tags":["standard","long"],"duration":0.3055555555555556,"velocity":109.82607454913365},
{"position":286.71875,"instrument":"Marimba","level2":16,"level3":2,"pitch":39,"articulation":"hits","articulation_tags":["hits","short"],"duration":0.0625,"velocity":106.68396091831858},
{"position":286.71875,"instrument":"Marimba","level2":16,"level3":3,"pitch":38,"articulation":"hits","articulation_tags":["hits","short"],"duration":0.0625,"velocity":106.68396091831858},
{"position":286.7604166666667,"instrument":"TheGrandeurPiano","level2":17,"level3":null,"pitch":24,"articulation":"standard","articulation_tags":["standard","long"],"duration":0.0,"velocity":110.39087167156735},
{"position":286.7604166666667,"instrument":"TheGrandeurPiano","level2":17,"level3":null,"pitch":24,"articulation":"standard","articulation_tags":["standard","long"],"duration":0.006944444444444444,"velocity":110.39087167156735},
{"position":286.7604166666667,"instrument":"TheGrandeurPiano","level2":17,"level3":null,"pitch":24,"articulation":"standard","articulation_tags":["standard","long"],"duration":0.034722222222222224,"velocity":110.39087167156735},
{"position":286.7604166666667,"instrument":"TheGrandeurPiano","level2":17,"level3":null,"pitch":24,"articulation":"standard","articulation_tags":["standard","long"],"duration":0.013888888888888888,"velocity":110.39087167156735},
{"position":286.7604166666667,"instrument":"TheGrandeurPiano","level2":18,"level3":null,"pitch":24,"articulation":"standard","articulation_tags":["standard","long"],"duration":0.006944444444444444,"velocity":110.39087167156735},
{"position":286.7604166666667,"instrument":"TheGrandeurPiano","level2":18,"level3":null,"pitch":35,"articulation":"standard","articulation_tags":["standard","long"],"duration":0.006944444444444444,"velocity":110.39087167156735},
{"position":286.7604166666667,"instrument":"BassClarinet","level2":16,"level3":3,"pitch":38,"articulation":"legato","articulation_tags":["legato","lg"],"duration":2.8333333333333335,"velocity":85.36792183663717},
{"position":286.7708333333333,"instrument":"TheGrandeurPiano","level2":18,"level3":null,"pitch":35,"articulation":"standard","articulation_tags":["standard","long"],"duration":0.05555555555555555,"velocity":110.39087167156735},
{"position":286.7708333333333,"instrument":"TheGrandeurPiano","level2":18,"level3":null,"pitch":35,"articulation":"standard","articulation_tags":["standard","long"],"duration":0.013888888888888888,"velocity":110.39087167156735},
{"position":286.78125,"instrument":"TheGrandeurPiano","level2":17,"level3":null,"pitch":25,"articulation":"standard","articulation_tags":["standard","long"],"duration":0.020833333333333332,"velocity":110.39087167156735},
{"position":286.8020833333333,"instrument":"TheGrandeurPiano","level2":18,"level3":null,"pitch":34,"articulation":"standard","articulation_tags":["standard","long"],"duration":0.020833333333333332,"velocity":110.39087167156735},
{"position":286.8125,"instrument":"TheGrandeurPiano","level2":17,"level3":null,"pitch":25,"articulation":"standard","articulation_tags":["standard","long"],"duration":0.020833333333333332,"velocity":110.39087167156735},
{"position":286.8229166666667,"instrument":"TheGrandeurPiano","level2":17,"level3":null,"pitch":25,"articulation":"standard","articulation_tags":["standard","long"],"duration":0.0763888888888889,"velocity":110.39087167156735},
{"position":286.8333333333333,"instrument":"Marimba","level2":16,"level3":3,"pitch":38,"articulation":"hits","articulation_tags":["hits","short"],"duration":0.0625,"velocity":106.68396091831858},
{"position":286.8333333333333,"instrument":"TheGrandeurPiano","level2":18,"level3":null,"pitch":34,"articulation":"standard","articulation_tags":["standard","long"],"duration":0.027777777777777776,"velocity":110.39087167156735},
{"position":286.84375,"instrument":"TheGrandeurPiano","level2":17,"level3":null,"pitch":26,"articulation":"standard","articulation_tags":["standard","long"],"duration":0.034722222222222224,"velocity":110.39087167156735},
{"position":286.84375,"instrument":"TheGrandeurPiano","level2":18,"level3":null,"pitch":34,"articulation":"standard","articulation_tags":["standard","long"],"duration":0.10416666666666667,"velocity":110.39087167156735},
{"position":286.8854166666667,"instrument":"TheGrandeurPiano","level2":18,"level3":null,"pitch":33,"articulation":"standard","articulation_tags":["standard","long"],"duration":0.034722222222222224,"velocity":111.09215079038692},
{"position":286.8958333333333,"instrument":"TheGrandeurPiano","level2":17,"level3":null,"pitch":26,"articulation":"standard","articulation_tags":["standard","long"],"duration":0.041666666666666664,"velocity":111.09215079038692},
{"position":286.9270833333333,"instrument":"TheGrandeurPiano","level2":17,"level3":null,"pitch":26,"articulation":"standard","articulation_tags":["standard","long"],"duration":0.1111111111111111,"velocity":111.09215079038692},
{"position":286.9375,"instrument":"TheGrandeurPiano","level2":18,"level3":null,"pitch":33,"articulation":"standard","articulation_tags":["standard","long"],"duration":0.04861111111111111,"velocity":111.09215079038692},
{"position":286.9583333333333,"instrument":"TheGrandeurPiano","level2":17,"level3":null,"pitch":27,"articulation":"standard","articulation_tags":["standard","long"],"duration":0.041666666666666664,"velocity":111.09215079038692},
{"position":286.96875,"instrument":"TheGrandeurPiano","level2":15,"level3":null,"pitch":33,"articulation":"standard","articulation_tags":["standard","long"],"duration":0.3402777777777778,"velocity":111.09215079038692},
{"position":286.9895833333333,"instrument":"TheGrandeurPiano","level2":16,"level3":null,"pitch":50,"articulation":"standard","articulation_tags":["standard","long"],"duration":0.2569444444444444,"velocity":109.71979615986196},
{"position":287.0,"instrument":"TheGrandeurPiano","level2":18,"level3":null,"pitch":33,"articulation":"standard","articulation_tags":["standard","long"],"duration":0.1597222222222222,"velocity":109.71979615986196},
{"position":287.0,"instrument":"TheGrandeurPiano","level2":18,"level3":null,"pitch":32,"articulation":"standard","articulation_tags":["standard","long"],"duration":0.04861111111111111,"velocity":109.71979615986196},
{"position":287.0208333333333,"instrument":"TheGrandeurPiano","level2":17,"level3":null,"pitch":27,"articulation":"standard","articulation_tags":["standard","long"],"duration":0.05555555555555555,"velocity":109.71979615986196},
{"position":287.0833333333333,"instrument":"TheGrandeurPiano","level2":18,"level3":null,"pitch":32,"articulation":"standard","articulation_tags":["standard","long"],"duration":0.05555555555555555,"velocity":111.92691867442504},
{"position":287.09375,"instrument":"TheGrandeurPiano","level2":17,"level3":null,"pitch":27,"articulation":"standard","articulation_tags":["standard","long"],"duration":0.1388888888888889,"velocity":111.92691867442504},
{"position":287.1041666666667,"instrument":"TheGrandeurPiano","level2":14,"level3":null,"pitch":29,"articulation":"standard","articulation_tags":["standard","long"],"duration":1.4566929133858268,"velocity":110.63691048093489},
{"position":287.1041666666667,"instrument":"TheGrandeurPiano","level2":17,"level3":null,"pitch":28,"articulation":"standard","articulation_tags":["standard","long"],"duration":0.0625,"velocity":110.63691048093489},
{"position":287.1458333333333,"instrument":"TheGrandeurPiano","level2":15,"level3":null,"pitch":33,"articulation":"standard","articulation_tags":["standard","long"],"duration":0.3263888888888889,"velocity":110.63691048093489},
{"position":287.1666666666667,"instrument":"TheGrandeurPiano","level2":18,"level3":null,"pitch":31,"articulation":"standard","articulation_tags":["standard","long"],"duration":0.06944444444444445,"velocity":110.63691048093489},
{"position":287.1979166666667,"instrument":"TheGrandeurPiano","level2":17,"level3":null,"pitch":28,"articulation":"standard","articulation_tags":["standard","long"],"duration":0.0625,"velocity":110.63691048093489},
{"position":287.2395833333333,"instrument":"TheGrandeurPiano","level2":18,"level3":null,"pitch":31,"articulation":"standard","articulation_tags":["standard","long"],"duration":0.2222222222222222,"velocity":109.40023540166025},
{"position":287.2708333333333,"instrument":"TheGrandeurPiano","level2":18,"level3":null,"pitch":31,"articulation":"standard","articulation_tags":["standard","long"],"duration":0.0763888888888889,"velocity":109.40023540166025},
{"position":287.2916666666667,"instrument":"TheGrandeurPiano","level2":17,"level3":null,"pitch":29,"articulation":"standard","articulation_tags":["standard","long"],"duration":0.0763888888888889,"velocity":111.68419700196876},
{"position":287.3020833333333,"instrument":"TheGrandeurPiano","level2":17,"level3":null,"pitch":29,"articulation":"standard","articulation_tags":["standard","long"],"duration":0.1736111111111111,"velocity":111.68419700196876},
{"position":287.3854166666667,"instrument":"TheGrandeurPiano","level2":16,"level3":null,"pitch":50,"articulation":"standard","articulation_tags":["standard","long"],"duration":0.2708333333333333,"velocity":110.53154368951654},
{"position":287.3854166666667,"instrument":"TheGrandeurPiano","level2":18,"level3":null,"pitch":30,"articulation":"standard","articulation_tags":["standard","long"],"duration":0.08333333333333333,"velocity":110.53154368951654},
{"position":287.40625,"instrument":"TheGrandeurPiano","level2":17,"level3":null,"pitch":29,"articulation":"standard","articulation_tags":["standard","long"],"duration":0.08333333333333333,"velocity":110.53154368951654},
{"position":287.4791666666667,"instrument":"TheGrandeurPiano","level2":15,"level3":null,"pitch":33,"articulation":"standard","articulation_tags":["standard","long"],"duration":0.3541666666666667,"velocity":109.43579612459413},
{"position":287.5,"instrument":"TheGrandeurPiano","level2":18,"level3":null,"pitch":30,"articulation":"standard","articulation_tags":["standard","long"],"duration":0.09027777777777778,"velocity":109.43579612459413},
{"position":287.5208333333333,"instrument":"TheGrandeurPiano","level2":17,"level3":null,"pitch":30,"articulation":"standard","articulation_tags":["standard","long"],"duration":0.08333333333333333,"velocity":109.43579612459413},
{"position":287.5625,"instrument":"TheGrandeurPiano","level2":17,"level3":null,"pitch":30,"articulation":"standard","articulation_tags":["standard","long"],"duration":0.19444444444444445,"velocity":111.78829588715456},
{"position":287.5729166666667,"instrument":"TheGrandeurPiano","level2":18,"level3":null,"pitch":30,"articulation":"standard","articulation_tags":["standard","long"],"duration":0.2986111111111111,"velocity":110.7772173192543},
{"position":287.6354166666667,"instrument":"TheGrandeurPiano","level2":15,"level3":null,"pitch":33,"articulation":"standard","articulation_tags":["standard","long"],"duration":0.3472222222222222,"velocity":110.7772173192543},
{"position":287.6354166666667,"instrument":"TheGrandeurPiano","level2":18,"level3":null,"pitch":29,"articulation":"standard","articulation_tags":["standard","long"],"duration":0.09722222222222222,"velocity":110.7772173192543},
{"position":287.65625,"instrument":"TheGrandeurPiano","level2":17,"level3":null,"pitch":30,"articulation":"standard","articulation_tags":["standard","long"],"duration":0.09027777777777778,"velocity":110.7772173192543},
{"position":287.78125,"instrument":"TheGrandeurPiano","level2":18,"level3":null,"pitch":29,"articulation":"standard","articulation_tags":["standard","long"],"duration":0.10416666666666667,"velocity":109.82607454913365},
{"position":287.7916666666667,"instrument":"TheGrandeurPiano","level2":16,"level3":null,"pitch":50,"articulation":"standard","articulation_tags":["standard","long"],"duration":0.2777777777777778,"velocity":109.82607454913365},
{"position":287.7916666666667,"instrument":"TheGrandeurPiano","level2":17,"level3":null,"pitch":31,"articulation":"standard","articulation_tags":["standard","long"],"duration":0.10416666666666667,"velocity":109.82607454913365},
{"position":287.8541666666667,"instrument":"TheGrandeurPiano","level2":17,"level3":null,"pitch":31,"articulation":"standard","articulation_tags":["standard","long"],"duration":0.2222222222222222,"velocity":111.37121859738943},
{"position":287.875,"instrument":"TheGrandeurPiano","level2":16,"level3":null,"pitch":50,"articulation":"standard","articulation_tags":["standard","long"],"duration":0.9861111111111112,"velocity":111.37121859738943},
{"position":287.9375,"instrument":"TheGrandeurPiano","level2":18,"level3":null,"pitch":28,"articulation":"standard","articulation_tags":["standard","long"],"duration":0.1111111111111111,"velocity":110.56667899780632},
{"position":287.9479166666667,"instrument":"TheGrandeurPiano","level2":17,"level3":null,"pitch":31,"articulation":"standard","articulation_tags":["standard","long"],"duration":0.10416666666666667,"velocity":110.56667899780632},
{"position":288.0104166666667,"instrument":"TheGrandeurPiano","level2":15,"level3":null,"pitch":32,"articulation":"standard","articulation_tags":["standard","long"],"duration":0.3611111111111111,"velocity":110.56667899780632},
{"position":288.0208333333333,"instrument":"TheGrandeurPiano","level2":18,"level3":null,"pitch":28,"articulation":"standard","articulation_tags":["standard","long"],"duration":1.4409448818897639,"velocity":109.82607454913365},
{"position":288.1041666666667,"instrument":"TheGrandeurPiano","level2":17,"level3":null,"pitch":32,"articulation":"standard","articulation_tags":["standard","long"],"duration":0.1111111111111111,"velocity":109.82607454913365},
{"position":288.1041666666667,"instrument":"TheGrandeurPiano","level2":18,"level3":null,"pitch":28,"articulation":"standard","articulation_tags":["standard","long"],"duration":0.125,"velocity":109.82607454913365},
{"position":288.15625,"instrument":"Marimba","level2":16,"level3":2,"pitch":39,"articulation":"hits","articulation_tags":["hits","short"],"duration":0.0625,"velocity":107.2414952215251},
{"position":288.15625,"instrument":"TheGrandeurPiano","level2":15,"level3":null,"pitch":32,"articulation":"standard","articulation_tags":["standard","long"],"duration":0.3680555555555556,"velocity":109.1509302295332},
{"position":288.1979166666667,"instrument":"TheGrandeurPiano","level2":17,"level3":null,"pitch":32,"articulation":"standard","articulation_tags":["standard","long"],"duration":0.24305555555555555,"velocity":109.1509302295332},
{"position":288.2083333333333,"instrument":"TheGrandeurPiano","level2":16,"level3":null,"pitch":50,"articulation":"standard","articulation_tags":["standard","long"],"duration":0.2916666666666667,"velocity":109.1509302295332},
{"position":288.2604166666667,"instrument":"Marimba","level2":16,"level3":0,"pitch":39,"articulation":"hits","articulation_tags":["hits","short"],"duration":0.0625,"velocity":107.49553523033936},
{"position":288.2708333333333,"instrument":"TheGrandeurPiano","level2":17,"level3":null,"pitch":32,"articulation":"standard","articulation_tags":["standard","long"],"duration":0.125,"velocity":111.0572097086303},
{"position":288.2916666666667,"instrument":"TheGrandeurPiano","level2":18,"level3":null,"pitch":27,"articulation":"standard","articulation_tags":["standard","long"],"duration":1.4251968503937007,"velocity":111.0572097086303},
{"position":288.4583333333333,"instrument":"TheGrandeurPiano","level2":17,"level3":null,"pitch":33,"articulation":"standard","articulation_tags":["standard","long"],"duration":0.125,"velocity":110.07359053293209},
{"position":288.5520833333333,"instrument":"TheGrandeurPiano","level2":15,"level3":null,"pitch":32,"articulation":"standard","articulation_tags":["standard","long"],"duration":0.3680555555555556,"velocity":109.68434323778388},
{"position":288.5625,"instrument":"TheGrandeurPiano","level2":17,"level3":null,"pitch":33,"articulation":"standard","articulation_tags":["standard","long"],"duration":0.2708333333333333,"velocity":109.68434323778388},
{"position":288.6458333333333,"instrument":"TheGrandeurPiano","level2":16,"level3":null,"pitch":50,"articulation":"standard","articulation_tags":["standard","long"],"duration":0.2986111111111111,"velocity":109.68434323778388},
{"position":288.6458333333333,"instrument":"TheGrandeurPiano","level2":17,"level3":null,"pitch":33,"articulation":"standard","articulation_tags":["standard","long"],"duration":0.13194444444444445,"velocity":109.36466113436272},
{"position":288.7083333333333,"instrument":"TheGrandeurPiano","level2":15,"level3":null,"pitch":32,"articulation":"standard","articulation_tags":["standard","long"],"duration":0.3958333333333333,"velocity":109.36466113436272},
{"position":288.84375,"instrument":"TheGrandeurPiano","level2":17,"level3":null,"pitch":34,"articulation":"standard","articulation_tags":["standard","long"],"duration":0.14583333333333334,"velocity":109.11526071636267},
{"position":288.8958333333333,"instrument":"Marimba","level2":16,"level3":0,"pitch":40,"articulation":"hits","articulation_tags":["hits","short"],"duration":0.0625,"velocity":107.75060990221247},
{"position":288.96875,"instrument":"TheGrandeurPiano","level2":17,"level3":null,"pitch":34,"articulation":"standard","articulation_tags":["standard","long"],"duration":0.2916666666666667,"velocity":108.82941119853577},
{"position":289.0625,"instrument":"TheGrandeurPiano","level2":17,"level3":null,"pitch":34,"articulation":"standard","articulation_tags":["standard","long"],"duration":0.14583333333333334,"velocity":108.79361809475729},
{"position":289.09375,"instrument":"TheGrandeurPiano","level2":16,"level3":null,"pitch":50,"articulation":"standard","articulation_tags":["standard","long"],"duration":0.3125,"velocity":108.79361809475729},
{"position":289.1041666666667,"instrument":"TheGrandeurPiano","level2":15,"level3":null,"pitch":31,"articulation":"standard","articulation_tags":["standard","long"],"duration":0.3819444444444444,"velocity":108.79361809475729},
{"position":289.28125,"instrument":"TheGrandeurPiano","level2":17,"level3":null,"pitch":35,"articulation":"standard","articulation_tags":["standard","long"],"duration":0.1527777777777778,"velocity":108.93670779901957},
{"position":289.3020833333333,"instrument":"TheGrandeurPiano","level2":15,"level3":null,"pitch":31,"articulation":"standard","articulation_tags":["standard","long"],"duration":0.4166666666666667,"velocity":108.93670779901957},
{"position":289.3541666666667,"instrument":"TheGrandeurPiano","level2":16,"level3":null,"pitch":51,"articulation":"standard","articulation_tags":["standard","long"],"duration":1.1875,"velocity":108.93670779901957},
{"position":289.40625,"instrument":"TheGrandeurPiano","level2":17,"level3":null,"pitch":35,"articulation":"standard","articulation_tags":["standard","long"],"duration":0.3125,"velocity":109.11526071636267},
{"position":289.5208333333333,"instrument":"TheGrandeurPiano","level2":17,"level3":null,"pitch":35,"articulation":"standard","articulation_tags":["standard","long"],"duration":0.1597222222222222,"velocity":109.36466113436272},
{"position":289.5625,"instrument":"TheGrandeurPiano","level2":16,"level3":null,"pitch":51,"articulation":"standard","articulation_tags":["standard","long"],"duration":0.3194444444444444,"velocity":109.36466113436272},
{"position":289.59375,"instrument":"Marimba","level2":16,"level3":3,"pitch":38,"articulation":"hits","articulation_tags":["hits","short"],"duration":0.0625,"velocity":108.07711917594162},
{"position":289.6666666666667,"instrument":"TheGrandeurPiano","level2":15,"level3":null,"pitch":31,"articulation":"standard","articulation_tags":["standard","long"],"duration":0.3888888888888889,"velocity":109.68434323778388},
{"position":289.7604166666667,"instrument":"TheGrandeurPiano","level2":17,"level3":null,"pitch":24,"articulation":"standard","articulation_tags":["standard","long"],"duration":0.1736111111111111,"velocity":110.07359053293209},
{"position":289.8645833333333,"instrument":"TheGrandeurPiano","level2":17,"level3":null,"pitch":24,"articulation":"standard","articulation_tags":["standard","long"],"duration":0.3263888888888889,"velocity":110.53154368951654},
{"position":289.9270833333333,"instrument":"TheGrandeurPiano","level2":15,"level3":null,"pitch":31,"articulation":"standard","articulation_tags":["standard","long"],"duration":0.4444444444444444,"velocity":108.54267874152704},
{"position":290.0208333333333,"instrument":"TheGrandeurPiano","level2":17,"level3":null,"pitch":24,"articulation":"standard","articulation_tags":["standard","long"],"duration":0.1736111111111111,"velocity":109.1509302295332},
{"position":290.0520833333333,"instrument":"TheGrandeurPiano","level2":16,"level3":null,"pitch":51,"articulation":"standard","articulation_tags":["standard","long"],"duration":0.3333333333333333,"velocity":109.1509302295332},
{"position":290.25,"instrument":"TheGrandeurPiano","level2":15,"level3":null,"pitch":30,"articulation":"standard","articulation_tags":["standard","long"],"duration":0.3958333333333333,"velocity":110.56667899780632},
{"position":290.28125,"instrument":"TheGrandeurPiano","level2":17,"level3":null,"pitch":25,"articulation":"standard","articulation_tags":["standard","long"],"duration":0.18055555555555555,"velocity":110.56667899780632},
{"position":290.2916666666667,"instrument":"Marimba","level2":16,"level3":2,"pitch":39,"articulation":"hits","articulation_tags":["hits","short"],"duration":0.0625,"velocity":108.33649362396261},
{"position":290.3645833333333,"instrument":"TheGrandeurPiano","level2":17,"level3":null,"pitch":25,"articulation":"standard","articulation_tags":["standard","long"],"duration":0.3472222222222222,"velocity":108.93670779901957},
{"position":290.5520833333333,"instrument":"TheGrandeurPiano","level2":16,"level3":null,"pitch":51,"articulation":"standard","articulation_tags":["standard","long"],"duration":0.3472222222222222,"velocity":109.82607454913365},
{"position":290.5520833333333,"instrument":"TheGrandeurPiano","level2":17,"level3":null,"pitch":25,"articulation":"standard","articulation_tags":["standard","long"],"duration":0.19444444444444445,"velocity":109.82607454913365},
{"position":290.59375,"instrument":"TheGrandeurPiano","level2":15,"level3":null,"pitch":30,"articulation":"standard","articulation_tags":["standard","long"],"duration":0.4722222222222222,"velocity":110.7772173192543},
{"position":290.84375,"instrument":"TheGrandeurPiano","level2":17,"level3":null,"pitch":26,"articulation":"standard","articulation_tags":["standard","long"],"duration":0.2013888888888889,"velocity":110.53154368951654},
{"position":290.84375,"instrument":"TheGrandeurPiano","level2":15,"level3":null,"pitch":30,"articulation":"standard","articulation_tags":["standard","long"],"duration":0.4027777777777778,"velocity":110.53154368951654},
{"position":290.8854166666667,"instrument":"TheGrandeurPiano","level2":17,"level3":null,"pitch":26,"articulation":"standard","articulation_tags":["standard","long"],"duration":0.3611111111111111,"velocity":108.2190390835697},
{"position":291.0729166666667,"instrument":"TheGrandeurPiano","level2":16,"level3":null,"pitch":51,"articulation":"standard","articulation_tags":["standard","long"],"duration":0.3611111111111111,"velocity":108.39897884312794},
{"position":291.125,"instrument":"TheGrandeurPiano","level2":16,"level3":null,"pitch":51,"articulation":"standard","articulation_tags":["standard","long"],"duration":1.4513888888888888,"velocity":108.39897884312794},
{"position":291.1354166666667,"instrument":"Bassoon","level2":16,"level3":1,"pitch":37,"articulation":"long_fltr","articulation_tags":["long_fltr","fltr","long","flutter"],"duration":11.479166666666666,"velocity":89.35433313189243},
{"position":291.1458333333333,"instrument":"TheGrandeurPiano","level2":17,"level3":null,"pitch":26,"articulation":"standard","articulation_tags":["standard","long"],"duration":0.2013888888888889,"velocity":109.71979615986196},
{"position":291.28125,"instrument":"TheGrandeurPiano","level2":18,"level3":null,"pitch":27,"articulation":"standard","articulation_tags":["standard","long"],"duration":1.4251968503937007,"velocity":108.93670779901957},
{"position":291.3020833333333,"instrument":"TheGrandeurPiano","level2":15,"level3":null,"pitch":30,"articulation":"standard","articulation_tags":["standard","long"],"duration":0.5138888888888888,"velocity":108.93670779901957},
{"position":291.4270833333333,"instrument":"TheGrandeurPiano","level2":17,"level3":null,"pitch":26,"articulation":"standard","articulation_tags":["standard","long"],"duration":0.3819444444444444,"velocity":110.39087167156735},
{"position":291.4479166666667,"instrument":"TheGrandeurPiano","level2":15,"level3":null,"pitch":29,"articulation":"standard","articulation_tags":["standard","long"],"duration":0.4097222222222222,"velocity":110.39087167156735},
{"position":291.4479166666667,"instrument":"TheGrandeurPiano","level2":17,"level3":null,"pitch":27,"articulation":"standard","articulation_tags":["standard","long"],"duration":0.2152777777777778,"velocity":108.29105708680173},
{"position":291.6041666666667,"instrument":"TheGrandeurPiano","level2":16,"level3":null,"pitch":51,"articulation":"standard","articulation_tags":["standard","long"],"duration":0.3680555555555556,"velocity":109.82607454913365},
{"position":291.7708333333333,"instrument":"TheGrandeurPiano","level2":17,"level3":null,"pitch":27,"articulation":"standard","articulation_tags":["standard","long"],"duration":0.2222222222222222,"velocity":109.40023540166025},
{"position":291.9895833333333,"instrument":"TheGrandeurPiano","level2":17,"level3":null,"pitch":27,"articulation":"standard","articulation_tags":["standard","long"],"duration":0.3958333333333333,"velocity":108.9724458152603},
{"position":292.0625,"instrument":"TheGrandeurPiano","level2":15,"level3":null,"pitch":29,"articulation":"standard","articulation_tags":["standard","long"],"duration":0.4166666666666667,"velocity":110.7772173192543},
{"position":292.0729166666667,"instrument":"TheGrandeurPiano","level2":15,"level3":null,"pitch":29,"articulation":"standard","articulation_tags":["standard","long"],"duration":0.5486111111111112,"velocity":110.7772173192543},
{"position":292.1041666666667,"instrument":"TheGrandeurPiano","level2":14,"level3":null,"pitch":29,"articulation":"standard","articulation_tags":["standard","long"],"duration":1.4566929133858268,"velocity":108.9724458152603},
{"position":292.1041666666667,"instrument":"TheGrandeurPiano","level2":17,"level3":null,"pitch":28,"articulation":"standard","articulation_tags":["standard","long"],"duration":0.22916666666666666,"velocity":108.9724458152603},
{"position":292.1666666666667,"instrument":"TheGrandeurPiano","level2":16,"level3":null,"pitch":51,"articulation":"standard","articulation_tags":["standard","long"],"duration":0.3819444444444444,"velocity":108.9724458152603},
{"position":292.4479166666667,"instrument":"TheGrandeurPiano","level2":17,"level3":null,"pitch":28,"articulation":"standard","articulation_tags":["standard","long"],"duration":0.2361111111111111,"velocity":109.40023540166025},
{"position":292.5833333333333,"instrument":"TheGrandeurPiano","level2":17,"level3":null,"pitch":28,"articulation":"standard","articulation_tags":["standard","long"],"duration":0.4097222222222222,"velocity":109.82607454913365},
{"position":292.6354166666667,"instrument":"TheGrandeurPiano","level2":18,"level3":null,"pitch":27,"articulation":"standard","articulation_tags":["standard","long"],"duration":1.4251968503937007,"velocity":108.29105708680173},
{"position":292.6875,"instrument":"TheGrandeurPiano","level2":15,"level3":null,"pitch":28,"articulation":"standard","articulation_tags":["standard","long"],"duration":0.4236111111111111,"velocity":110.39087167156735},
{"position":292.7395833333333,"instrument":"TheGrandeurPiano","level2":16,"level3":null,"pitch":51,"articulation":"standard","articulation_tags":["standard","long"],"duration":0.3958333333333333,"velocity":110.39087167156735},
{"position":292.8020833333333,"instrument":"TheGrandeurPiano","level2":17,"level3":null,"pitch":29,"articulation":"standard","articulation_tags":["standard","long"],"duration":0.24305555555555555,"velocity":108.93670779901957},
{"position":292.8958333333333,"instrument":"TheGrandeurPiano","level2":15,"level3":null,"pitch":28,"articulation":"standard","articulation_tags":["standard","long"],"duration":0.5902777777777778,"velocity":109.71979615986196},
{"position":293.1666666666667,"instrument":"TheGrandeurPiano","level2":17,"level3":null,"pitch":29,"articulation":"standard","articulation_tags":["standard","long"],"duration":0.25,"velocity":109.40023540166025},
{"position":293.1875,"instrument":"TheGrandeurPiano","level2":17,"level3":null,"pitch":29,"articulation":"standard","articulation_tags":["standard","long"],"duration":0.4166666666666667,"velocity":109.40023540166025},
{"position":293.25,"instrument":"Marimba","level2":16,"level3":3,"pitch":38,"articulation":"hits","articulation_tags":["hits","short"],"duration":0.0625,"velocity":109.46995976622856},
{"position":293.3125,"instrument":"TheGrandeurPiano","level2":16,"level3":null,"pitch":52,"articulation":"standard","articulation_tags":["standard","long"],"duration":1.8188976377952757,"velocity":110.53154368951654},
{"position":293.3229166666667,"instrument":"TheGrandeurPiano","level2":15,"level3":null,"pitch":28,"articulation":"standard","articulation_tags":["standard","long"],"duration":0.4305555555555556,"velocity":110.53154368951654},
{"position":293.3333333333333,"instrument":"TheGrandeurPiano","level2":16,"level3":null,"pitch":52,"articulation":"standard","articulation_tags":["standard","long"],"duration":0.4097222222222222,"velocity":110.53154368951654},
{"position":293.4166666666667,"instrument":"Marimba","level2":16,"level3":2,"pitch":39,"articulation":"hits","articulation_tags":["hits","short"],"duration":0.0625,"velocity":109.56197049497256},
{"position":293.4583333333333,"instrument":"Marimba","level2":16,"level3":4,"pitch":39,"articulation":"hits","articulation_tags":["hits","short"],"duration":0.0625,"velocity":109.56197049497256},
{"position":293.4583333333333,"instrument":"Marimba","level2":16,"level3":5,"pitch":38,"articulation":"hits","articulation_tags":["hits","short"],"duration":0.0625,"velocity":109.56197049497256},
{"position":293.5416666666667,"instrument":"TheGrandeurPiano","level2":17,"level3":null,"pitch":30,"articulation":"standard","articulation_tags":["standard","long"],"duration":0.2569444444444444,"velocity":110.7772173192543},
{"position":293.78125,"instrument":"TheGrandeurPiano","level2":15,"level3":null,"pitch":28,"articulation":"standard","articulation_tags":["standard","long"],"duration":0.6458333333333334,"velocity":111.37121859738943},
{"position":293.8229166666667,"instrument":"TheGrandeurPiano","level2":17,"level3":null,"pitch":30,"articulation":"standard","articulation_tags":["standard","long"],"duration":0.4305555555555556,"velocity":110.56667899780632},
{"position":293.8541666666667,"instrument":"Marimba","level2":16,"level3":4,"pitch":39,"articulation":"hits","articulation_tags":["hits","short"],"duration":0.0625,"velocity":109.56197049497256},
{"position":293.9270833333333,"instrument":"TheGrandeurPiano","level2":17,"level3":null,"pitch":30,"articulation":"standard","articulation_tags":["standard","long"],"duration":0.2708333333333333,"velocity":109.82607454913365},
{"position":293.9583333333333,"instrument":"TheGrandeurPiano","level2":16,"level3":null,"pitch":52,"articulation":"standard","articulation_tags":["standard","long"],"duration":0.4236111111111111,"velocity":109.82607454913365},
{"position":293.96875,"instrument":"TheGrandeurPiano","level2":15,"level3":null,"pitch":27,"articulation":"standard","articulation_tags":["standard","long"],"duration":0.4375,"velocity":109.82607454913365},
{"position":294.2395833333333,"instrument":"Marimba","level2":16,"level3":4,"pitch":39,"articulation":"hits","articulation_tags":["hits","short"],"duration":0.0625,"velocity":109.82995145491643},
{"position":294.3333333333333,"instrument":"TheGrandeurPiano","level2":17,"level3":null,"pitch":31,"articulation":"standard","articulation_tags":["standard","long"],"duration":0.2777777777777778,"velocity":110.07359053293209},
{"position":294.46875,"instrument":"TheGrandeurPiano","level2":17,"level3":null,"pitch":31,"articulation":"standard","articulation_tags":["standard","long"],"duration":0.4444444444444444,"velocity":109.68434323778388},
{"position":294.59375,"instrument":"TheGrandeurPiano","level2":16,"level3":null,"pitch":52,"articulation":"standard","articulation_tags":["standard","long"],"duration":0.4444444444444444,"velocity":109.36466113436272},
{"position":294.625,"instrument":"TheGrandeurPiano","level2":15,"level3":null,"pitch":27,"articulation":"standard","articulation_tags":["standard","long"],"duration":0.4444444444444444,"velocity":109.11526071636267},
{"position":294.6354166666667,"instrument":"Marimba","level2":16,"level3":5,"pitch":38,"articulation":"hits","articulation_tags":["hits","short"],"duration":0.0625,"velocity":110.09871228729264},
{"position":294.6666666666667,"instrument":"TheGrandeurPiano","level2":18,"level3":null,"pitch":27,"articulation":"standard","articulation_tags":["standard","long"],"duration":1.4251968503937007,"velocity":109.11526071636267},
{"position":294.75,"instrument":"TheGrandeurPiano","level2":17,"level3":null,"pitch":31,"articulation":"standard","articulation_tags":["standard","long"],"duration":0.2847222222222222,"velocity":111.51044672786176},
{"position":294.75,"instrument":"TheGrandeurPiano","level2":15,"level3":null,"pitch":27,"articulation":"standard","articulation_tags":["standard","long"],"duration":0.7083333333333334,"velocity":111.51044672786176},
{"position":295.1354166666667,"instrument":"TheGrandeurPiano","level2":17,"level3":null,"pitch":31,"articulation":"standard","articulation_tags":["standard","long"],"duration":0.4583333333333333,"velocity":111.51044672786176},
{"position":295.1770833333333,"instrument":"TheGrandeurPiano","level2":17,"level3":null,"pitch":32,"articulation":"standard","articulation_tags":["standard","long"],"duration":0.2916666666666667,"velocity":111.51044672786176},
{"position":295.2604166666667,"instrument":"TheGrandeurPiano","level2":16,"level3":null,"pitch":52,"articulation":"standard","articulation_tags":["standard","long"],"duration":0.4583333333333333,"velocity":111.68419700196876},
{"position":295.2916666666667,"instrument":"TheGrandeurPiano","level2":15,"level3":null,"pitch":26,"articulation":"standard","articulation_tags":["standard","long"],"duration":0.4513888888888889,"velocity":111.68419700196876},
{"position":295.4479166666667,"instrument":"Cello","level2":16,"level3":5,"pitch":38,"articulation":"staccato","articulation_tags":["staccato","st","short"],"duration":0.125,"velocity":110.36823660361387},
{"position":295.6145833333333,"instrument":"TheGrandeurPiano","level2":17,"level3":null,"pitch":32,"articulation":"standard","articulation_tags":["standard","long"],"duration":0.2986111111111111,"velocity":110.07359053293209},
{"position":295.75,"instrument":"Marimba","level2":16,"level3":3,"pitch":37,"articulation":"hits","articulation_tags":["hits","short"],"duration":0.0625,"velocity":110.36823660361387},
{"position":295.7708333333333,"instrument":"TheGrandeurPiano","level2":14,"level3":null,"pitch":29,"articulation":"standard","articulation_tags":["standard","long"],"duration":1.4566929133858268,"velocity":111.0572097086303},
{"position":295.8229166666667,"instrument":"TheGrandeurPiano","level2":15,"level3":null,"pitch":26,"articulation":"standard","articulation_tags":["standard","long"],"duration":0.7916666666666666,"velocity":111.0572097086303},
{"position":295.8229166666667,"instrument":"TheGrandeurPiano","level2":17,"level3":null,"pitch":32,"articulation":"standard","articulation_tags":["standard","long"],"duration":0.4652777777777778,"velocity":111.0572097086303},
{"position":295.9479166666667,"instrument":"TheGrandeurPiano","level2":16,"level3":null,"pitch":52,"articulation":"standard","articulation_tags":["standard","long"],"duration":0.4791666666666667,"velocity":112.28790860488192},
{"position":295.96875,"instrument":"TheGrandeurPiano","level2":15,"level3":null,"pitch":26,"articulation":"standard","articulation_tags":["standard","long"],"duration":0.4513888888888889,"velocity":112.28790860488192},
{"position":296.0625,"instrument":"TheGrandeurPiano","level2":17,"level3":null,"pitch":33,"articulation":"standard","articulation_tags":["standard","long"],"duration":0.3125,"velocity":110.56667899780632},
{"position":296.0625,"instrument":"TheGrandeurPiano","level2":16,"level3":null,"pitch":52,"articulation":"standard","articulation_tags":["standard","long"],"duration":1.8188976377952757,"velocity":110.56667899780632},
{"position":296.53125,"instrument":"TheGrandeurPiano","level2":17,"level3":null,"pitch":33,"articulation":"standard","articulation_tags":["standard","long"],"duration":0.4791666666666667,"velocity":111.78829588715456},
{"position":296.53125,"instrument":"TheGrandeurPiano","level2":17,"level3":null,"pitch":33,"articulation":"standard","articulation_tags":["standard","long"],"duration":0.3194444444444444,"velocity":111.78829588715456},
{"position":296.6458333333333,"instrument":"TheGrandeurPiano","level2":15,"level3":null,"pitch":25,"articulation":"standard","articulation_tags":["standard","long"],"duration":0.4583333333333333,"velocity":112.80384371094559},
{"position":296.65625,"instrument":"TheGrandeurPiano","level2":16,"level3":null,"pitch":52,"articulation":"standard","articulation_tags":["standard","long"],"duration":0.4930555555555556,"velocity":112.80384371094559},
{"position":296.8125,"instrument":"Cello","level2":16,"level3":0,"pitch":40,"articulation":"short_hrm","articulation_tags":["short_hrm","hrm_s","short","harmonics"],"duration":0.125,"velocity":110.74346891466038},
{"position":297.0104166666667,"instrument":"TheGrandeurPiano","level2":17,"level3":null,"pitch":34,"articulation":"standard","articulation_tags":["standard","long"],"duration":0.3263888888888889,"velocity":111.92691867442504},
{"position":297.0104166666667,"instrument":"TheGrandeurPiano","level2":15,"level3":null,"pitch":25,"articulation":"standard","articulation_tags":["standard","long"],"duration":0.8958333333333334,"velocity":111.92691867442504},
{"position":297.25,"instrument":"TheGrandeurPiano","level2":17,"level3":null,"pitch":34,"articulation":"standard","articulation_tags":["standard","long"],"duration":0.4861111111111111,"velocity":112.48172902530037},
{"position":297.3333333333333,"instrument":"TheGrandeurPiano","level2":15,"level3":null,"pitch":25,"articulation":"standard","articulation_tags":["standard","long"],"duration":0.4652777777777778,"velocity":111.89228176458512},
{"position":297.3958333333333,"instrument":"TheGrandeurPiano","level2":16,"level3":null,"pitch":52,"articulation":"standard","articulation_tags":["standard","long"],"duration":0.5138888888888888,"velocity":113.34883195557317},
{"position":297.40625,"instrument":"TheGrandeurPiano","level2":18,"level3":null,"pitch":27,"articulation":"standard","articulation_tags":["standard","long"],"duration":1.4251968503937007,"velocity":113.34883195557317},
{"position":297.5,"instrument":"TheGrandeurPiano","level2":17,"level3":null,"pitch":34,"articulation":"standard","articulation_tags":["standard","long"],"duration":0.3333333333333333,"velocity":112.96447331413955},
{"position":297.9791666666667,"instrument":"TheGrandeurPiano","level2":17,"level3":null,"pitch":34,"articulation":"standard","articulation_tags":["standard","long"],"duration":0.5,"velocity":112.57848370882607},
{"position":298.0104166666667,"instrument":"TheGrandeurPiano","level2":17,"level3":null,"pitch":35,"articulation":"standard","articulation_tags":["standard","long"],"duration":0.3472222222222222,"velocity":114.334353357766},
{"position":298.03125,"instrument":"TheGrandeurPiano","level2":15,"level3":null,"pitch":24,"articulation":"standard","articulation_tags":["standard","long"],"duration":0.4722222222222222,"velocity":114.334353357766},
{"position":298.1666666666667,"instrument":"TheGrandeurPiano","level2":16,"level3":null,"pitch":52,"articulation":"standard","articulation_tags":["standard","long"],"duration":0.5277777777777778,"velocity":114.52388695445714},
{"position":298.3541666666667,"instrument":"TheGrandeurPiano","level2":15,"level3":null,"pitch":24,"articulation":"standard","articulation_tags":["standard","long"],"duration":1.0416666666666667,"velocity":113.34883195557317},
{"position":298.53125,"instrument":"TheGrandeurPiano","level2":17,"level3":null,"pitch":35,"articulation":"standard","articulation_tags":["standard","long"],"duration":0.3611111111111111,"velocity":113.8588084621495},
{"position":298.5625,"instrument":"Cello","level2":16,"level3":4,"pitch":39,"articulation":"spiccato","articulation_tags":["spiccato","sp","short"],"duration":0.125,"velocity":111.28991151110174},
{"position":298.7291666666667,"instrument":"TheGrandeurPiano","level2":17,"level3":null,"pitch":35,"articulation":"standard","articulation_tags":["standard","long"],"duration":0.5069444444444444,"velocity":113.18887940429234},
{"position":298.7395833333333,"instrument":"TheGrandeurPiano","level2":15,"level3":null,"pitch":24,"articulation":"standard","articulation_tags":["standard","long"],"duration":0.4722222222222222,"velocity":113.18887940429234},
{"position":298.9583333333333,"instrument":"TheGrandeurPiano","level2":16,"level3":null,"pitch":52,"articulation":"standard","articulation_tags":["standard","long"],"duration":0.5555555555555556,"velocity":114.01759649503374},
{"position":299.0729166666667,"instrument":"TheGrandeurPiano","level2":17,"level3":null,"pitch":24,"articulation":"standard","articulation_tags":["standard","long"],"duration":0.3680555555555556,"velocity":114.96462929816208},
{"position":299.4583333333333,"instrument":"TheGrandeurPiano","level2":15,"level3":null,"pitch":35,"articulation":"standard","articulation_tags":["standard","long"],"duration":0.4791666666666667,"velocity":115.34075205864498},
{"position":299.4895833333333,"instrument":"TheGrandeurPiano","level2":17,"level3":null,"pitch":24,"articulation":"standard","articulation_tags":["standard","long"],"duration":0.5138888888888888,"velocity":115.34075205864498},
{"position":299.6145833333333,"instrument":"TheGrandeurPiano","level2":17,"level3":null,"pitch":24,"articulation":"standard","articulation_tags":["standard","long"],"duration":0.375,"velocity":114.49232499312456},
{"position":299.71875,"instrument":"TheGrandeurPiano","level2":16,"level3":null,"pitch":53,"articulation":"standard","articulation_tags":["standard","long"],"duration":1.8346456692913387,"velocity":115.99534541640205},
{"position":299.75,"instrument":"TheGrandeurPiano","level2":18,"level3":null,"pitch":27,"articulation":"standard","articulation_tags":["standard","long"],"duration":1.3888888888888888,"velocity":115.27817025338055},
{"position":299.7916666666667,"instrument":"TheGrandeurPiano","level2":16,"level3":null,"pitch":53,"articulation":"standard","articulation_tags":["standard","long"],"duration":0.5763888888888888,"velocity":115.27817025338055},
{"position":299.9166666666667,"instrument":"TheGrandeurPiano","level2":15,"level3":null,"pitch":35,"articulation":"standard","articulation_tags":["standard","long"],"duration":1.2638888888888888,"velocity":114.61850830553983},
{"position":300.1666666666667,"instrument":"TheGrandeurPiano","level2":18,"level3":null,"pitch":26,"articulation":"standard","articulation_tags":["standard","long"],"duration":1.4094488188976377,"velocity":115.37202723193298},
{"position":300.1770833333333,"instrument":"TheGrandeurPiano","level2":15,"level3":null,"pitch":35,"articulation":"standard","articulation_tags":["standard","long"],"duration":0.4861111111111111,"velocity":115.37202723193298},
{"position":300.1875,"instrument":"Cello","level2":16,"level3":6,"pitch":38,"articulation":"spiccato","articulation_tags":["spiccato","sp","short"],"duration":0.125,"velocity":111.6794583039181},
{"position":300.1875,"instrument":"Cello","level2":16,"level3":7,"pitch":38,"articulation":"staccato","articulation_tags":["staccato","st","short"],"duration":0.125,"velocity":111.6794583039181},
{"position":300.1875,"instrument":"TheGrandeurPiano","level2":17,"level3":null,"pitch":25,"articulation":"standard","articulation_tags":["standard","long"],"duration":0.3888888888888889,"velocity":115.37202723193298},
{"position":300.2291666666667,"instrument":"Cello","level2":16,"level3":7,"pitch":38,"articulation":"staccato","articulation_tags":["staccato","st","short"],"duration":0.125,"velocity":111.6794583039181},
{"position":300.2395833333333,"instrument":"Cello","level2":16,"level3":7,"pitch":38,"articulation":"staccato","articulation_tags":["staccato","st","short"],"duration":0.125,"velocity":111.6794583039181},
{"position":300.2604166666667,"instrument":"TheGrandeurPiano","level2":17,"level3":null,"pitch":25,"articulation":"standard","articulation_tags":["standard","long"],"duration":0.5277777777777778,"velocity":114.96462929816208},
{"position":300.375,"instrument":"Cello","level2":16,"level3":5,"pitch":37,"articulation":"staccato","articulation_tags":["staccato","st","short"],"duration":0.125,"velocity":111.6794583039181},
{"position":300.65625,"instrument":"TheGrandeurPiano","level2":16,"level3":null,"pitch":53,"articulation":"standard","articulation_tags":["standard","long"],"duration":0.5972222222222222,"velocity":116.36736011077916},
{"position":300.7604166666667,"instrument":"TheGrandeurPiano","level2":17,"level3":null,"pitch":25,"articulation":"standard","articulation_tags":["standard","long"],"duration":0.3958333333333333,"velocity":116.27449406226101},
{"position":300.8958333333333,"instrument":"TheGrandeurPiano","level2":15,"level3":null,"pitch":34,"articulation":"standard","articulation_tags":["standard","long"],"duration":0.4861111111111111,"velocity":116.24351837748787},
{"position":301.0520833333333,"instrument":"TheGrandeurPiano","level2":17,"level3":null,"pitch":25,"articulation":"standard","articulation_tags":["standard","long"],"duration":0.5347222222222222,"velocity":116.36736011077916},
{"position":301.3645833333333,"instrument":"TheGrandeurPiano","level2":17,"level3":null,"pitch":26,"articulation":"standard","articulation_tags":["standard","long"],"duration":0.4097222222222222,"velocity":117.01488104161776},
{"position":301.5520833333333,"instrument":"TheGrandeurPiano","level2":16,"level3":null,"pitch":53,"articulation":"standard","articulation_tags":["standard","long"],"duration":0.625,"velocity":117.74954312167894},
{"position":301.6354166666667,"instrument":"TheGrandeurPiano","level2":15,"level3":null,"pitch":34,"articulation":"standard","articulation_tags":["standard","long"],"duration":0.4930555555555556,"velocity":118.20585806447119},
{"position":301.8125,"instrument":"TheGrandeurPiano","level2":15,"level3":null,"pitch":34,"articulation":"standard","articulation_tags":["standard","long"],"duration":1.5354330708661417,"velocity":116.36736011077916},
{"position":301.8333333333333,"instrument":"TheGrandeurPiano","level2":18,"level3":null,"pitch":26,"articulation":"standard","articulation_tags":["standard","long"],"duration":1.25,"velocity":116.95340262622493},
{"position":301.8541666666667,"instrument":"TheGrandeurPiano","level2":17,"level3":null,"pitch":26,"articulation":"standard","articulation_tags":["standard","long"],"duration":0.5416666666666666,"velocity":116.95340262622493},
{"position":301.9791666666667,"instrument":"TheGrandeurPiano","level2":17,"level3":null,"pitch":26,"articulation":"standard","articulation_tags":["standard","long"],"duration":0.4236111111111111,"velocity":117.59695411137992},
{"position":302.375,"instrument":"TheGrandeurPiano","level2":15,"level3":null,"pitch":33,"articulation":"standard","articulation_tags":["standard","long"],"duration":0.5,"velocity":118.47861108384457},
{"position":302.4895833333333,"instrument":"TheGrandeurPiano","level2":16,"level3":null,"pitch":53,"articulation":"standard","articulation_tags":["standard","long"],"duration":0.6527777777777778,"velocity":117.19907807598317},
{"position":302.5104166666667,"instrument":"Cello","level2":16,"level3":2,"pitch":39,"articulation":"short_hrm","articulation_tags":["short_hrm","hrm_s","short","harmonics"],"duration":0.125,"velocity":112.51125458083862},
{"position":302.6145833333333,"instrument":"Cello","level2":16,"level3":1,"pitch":37,"articulation":"short_marcato","articulation_tags":["short_marcato","marcato_s","short","marcato"],"duration":0.125,"velocity":112.51125458083862},
{"position":302.6145833333333,"instrument":"TheGrandeurPiano","level2":17,"level3":null,"pitch":27,"articulation":"standard","articulation_tags":["standard","long"],"duration":0.4305555555555556,"velocity":118.20585806447119},
{"position":302.6666666666667,"instrument":"TheGrandeurPiano","level2":17,"level3":null,"pitch":27,"articulation":"standard","articulation_tags":["standard","long"],"duration":0.5486111111111112,"velocity":119.26226778345242},
{"position":303.1145833333333,"instrument":"TheGrandeurPiano","level2":15,"level3":null,"pitch":33,"articulation":"standard","articulation_tags":["standard","long"],"duration":0.5,"velocity":117.84097991773893},
{"position":303.21875,"instrument":"Cello","level2":16,"level3":0,"pitch":39,"articulation":"short_hrm","articulation_tags":["short_hrm","hrm_s","short","harmonics"],"duration":0.125,"velocity":112.51125458083862},
{"position":303.2604166666667,"instrument":"TheGrandeurPiano","level2":17,"level3":null,"pitch":27,"articulation":"standard","articulation_tags":["standard","long"],"duration":0.4444444444444444,"velocity":119.20221080471994},
{"position":303.46875,"instrument":"TheGrandeurPiano","level2":16,"level3":null,"pitch":53,"articulation":"standard","articulation_tags":["standard","long"],"duration":0.6805555555555556,"velocity":118.23620213022008},
{"position":303.4895833333333,"instrument":"TheGrandeurPiano","level2":17,"level3":null,"pitch":27,"articulation":"standard","articulation_tags":["standard","long"],"duration":0.5555555555555556,"velocity":118.23620213022008},
{"position":303.7083333333333,"instrument":"Cello","level2":16,"level3":6,"pitch":38,"articulation":"spiccato","articulation_tags":["spiccato","sp","short"],"duration":0.125,"velocity":112.78972863796409},
{"position":303.7083333333333,"instrument":"TheGrandeurPiano","level2":18,"level3":null,"pitch":26,"articulation":"standard","articulation_tags":["standard","long"],"duration":1.1458333333333333,"velocity":119.53206654801569},
{"position":303.875,"instrument":"TheGrandeurPiano","level2":15,"level3":null,"pitch":32,"articulation":"standard","articulation_tags":["standard","long"],"duration":0.5069444444444444,"velocity":119.41224823920749},
{"position":303.9270833333333,"instrument":"TheGrandeurPiano","level2":17,"level3":null,"pitch":28,"articulation":"standard","articulation_tags":["standard","long"],"duration":0.4583333333333333,"velocity":117.68853671655484},
{"position":304.3229166666667,"instrument":"TheGrandeurPiano","level2":17,"level3":null,"pitch":28,"articulation":"standard","articulation_tags":["standard","long"],"duration":0.5625,"velocity":118.23620213022008},
{"position":304.375,"instrument":"TheGrandeurPiano","level2":15,"level3":null,"pitch":32,"articulation":"standard","articulation_tags":["standard","long"],"duration":1.5039370078740157,"velocity":118.23620213022008},
{"position":304.4895833333333,"instrument":"TheGrandeurPiano","level2":16,"level3":null,"pitch":53,"articulation":"standard","articulation_tags":["standard","long"],"duration":0.7152777777777778,"velocity":118.66001884870552},
{"position":304.6041666666667,"instrument":"TheGrandeurPiano","level2":17,"level3":null,"pitch":28,"articulation":"standard","articulation_tags":["standard","long"],"duration":0.4722222222222222,"velocity":119.20221080471994},
{"position":304.625,"instrument":"TheGrandeurPiano","level2":15,"level3":null,"pitch":32,"articulation":"standard","articulation_tags":["standard","long"],"duration":0.5069444444444444,"velocity":119.20221080471994},
{"position":305.0,"instrument":"Cello","level2":16,"level3":7,"pitch":37,"articulation":"staccato","articulation_tags":["staccato","st","short"],"duration":0.125,"velocity":113.0687865447276},
{"position":305.0833333333333,"instrument":"Cello","level2":16,"level3":3,"pitch":37,"articulation":"short_marcato","articulation_tags":["short_marcato","marcato_s","short","marcato"],"duration":0.125,"velocity":113.0687865447276},
{"position":305.1666666666667,"instrument":"TheGrandeurPiano","level2":17,"level3":null,"pitch":28,"articulation":"standard","articulation_tags":["standard","long"],"duration":0.5694444444444444,"velocity":119.26226778345242},
{"position":305.1770833333333,"instrument":"TheGrandeurPiano","level2":16,"level3":null,"pitch":53,"articulation":"standard","articulation_tags":["standard","long"],"duration":1.8346456692913387,"velocity":119.26226778345242},
{"position":305.3125,"instrument":"TheGrandeurPiano","level2":17,"level3":null,"pitch":29,"articulation":"standard","articulation_tags":["standard","long"],"duration":0.4861111111111111,"velocity":118.20585806447119},
{"position":305.3854166666667,"instrument":"TheGrandeurPiano","level2":15,"level3":null,"pitch":31,"articulation":"standard","articulation_tags":["standard","long"],"duration":0.5138888888888888,"velocity":119.41224823920749},
{"position":305.4270833333333,"instrument":"TheGrandeurPiano","level2":18,"level3":null,"pitch":26,"articulation":"standard","articulation_tags":["standard","long"],"duration":1.0625,"velocity":119.41224823920749},
{"position":305.5625,"instrument":"TheGrandeurPiano","level2":16,"level3":null,"pitch":53,"articulation":"standard","articulation_tags":["standard","long"],"duration":0.75,"velocity":118.47861108384457},
{"position":306.03125,"instrument":"TheGrandeurPiano","level2":17,"level3":null,"pitch":29,"articulation":"standard","articulation_tags":["standard","long"],"duration":0.5763888888888888,"velocity":119.29228237073792},
{"position":306.0416666666667,"instrument":"TheGrandeurPiano","level2":17,"level3":null,"pitch":29,"articulation":"standard","articulation_tags":["standard","long"],"duration":0.5,"velocity":119.29228237073792},
{"position":306.15625,"instrument":"TheGrandeurPiano","level2":15,"level3":null,"pitch":31,"articulation":"standard","articulation_tags":["standard","long"],"duration":0.5138888888888888,"velocity":118.72041249336613},
{"position":306.6979166666667,"instrument":"TheGrandeurPiano","level2":16,"level3":null,"pitch":53,"articulation":"standard","articulation_tags":["standard","long"],"duration":0.7986111111111112,"velocity":118.93149392523908},
{"position":306.78125,"instrument":"TheGrandeurPiano","level2":17,"level3":null,"pitch":30,"articulation":"standard","articulation_tags":["standard","long"],"duration":0.5138888888888888,"velocity":118.93149392523908},
{"position":306.8958333333333,"instrument":"Cello","level2":16,"level3":8,"pitch":38,"articulation":"spiccato","articulation_tags":["spiccato","sp","short"],"duration":0.125,"velocity":113.47834690275064},
{"position":306.8958333333333,"instrument":"Cello","level2":16,"level3":9,"pitch":38,"articulation":"spiccato","articulation_tags":["spiccato","sp","short"],"duration":0.125,"velocity":113.47834690275064},
{"position":306.8958333333333,"instrument":"TheGrandeurPiano","level2":17,"level3":null,"pitch":30,"articulation":"standard","articulation_tags":["standard","long"],"duration":0.5833333333333334,"velocity":118.69022038634257},
{"position":306.9270833333333,"instrument":"TheGrandeurPiano","level2":15,"level3":null,"pitch":30,"articulation":"standard","articulation_tags":["standard","long"],"duration":0.5138888888888888,"velocity":118.69022038634257},
{"position":307.0208333333333,"instrument":"TheGrandeurPiano","level2":18,"level3":null,"pitch":26,"articulation":"standard","articulation_tags":["standard","long"],"duration":0.9930555555555556,"velocity":118.66001884870552},
{"position":307.5520833333333,"instrument":"TheGrandeurPiano","level2":17,"level3":null,"pitch":30,"articulation":"standard","articulation_tags":["standard","long"],"duration":0.5277777777777778,"velocity":119.41224823920749},
{"position":307.6979166666667,"instrument":"TheGrandeurPiano","level2":15,"level3":null,"pitch":30,"articulation":"standard","articulation_tags":["standard","long"],"duration":0.5208333333333334,"velocity":120.1289635921753},
{"position":307.7708333333333,"instrument":"TheGrandeurPiano","level2":17,"level3":null,"pitch":30,"articulation":"standard","articulation_tags":["standard","long"],"duration":0.5902777777777778,"velocity":120.57426445875915},
{"position":307.8333333333333,"instrument":"TheGrandeurPiano","level2":18,"level3":null,"pitch":26,"articulation":"standard","articulation_tags":["standard","long"],"duration":1.4094488188976377,"velocity":118.20585806447119},
{"position":307.8854166666667,"instrument":"TheGrandeurPiano","level2":16,"level3":null,"pitch":53,"articulation":"standard","articulation_tags":["standard","long"],"duration":0.8402777777777778,"velocity":118.72041249336613},
{"position":308.3229166666667,"instrument":"TheGrandeurPiano","level2":14,"level3":null,"pitch":29,"articulation":"standard","articulation_tags":["standard","long"],"duration":1.4566929133858268,"velocity":119.0519057653596},
{"position":308.34375,"instrument":"TheGrandeurPiano","level2":17,"level3":null,"pitch":31,"articulation":"standard","articulation_tags":["standard","long"],"duration":0.5416666666666666,"velocity":119.0519057653596},
{"position":308.4791666666667,"instrument":"TheGrandeurPiano","level2":15,"level3":null,"pitch":29,"articulation":"standard","articulation_tags":["standard","long"],"duration":0.5208333333333334,"velocity":117.59695411137992},
{"position":308.5104166666667,"instrument":"TheGrandeurPiano","level2":18,"level3":null,"pitch":26,"articulation":"standard","articulation_tags":["standard","long"],"duration":0.9375,"velocity":118.47861108384457},
{"position":308.65625,"instrument":"TheGrandeurPiano","level2":17,"level3":null,"pitch":31,"articulation":"standard","articulation_tags":["standard","long"],"duration":0.5972222222222222,"velocity":119.41224823920749},
{"position":308.7708333333333,"instrument":"Cello","level2":16,"level3":4,"pitch":39,"articulation":"short_hrm","articulation_tags":["short_hrm","hrm_s","short","harmonics"],"duration":0.125,"velocity":113.76009676042247},
{"position":308.8541666666667,"instrument":"Cello","level2":16,"level3":8,"pitch":38,"articulation":"spiccato","articulation_tags":["spiccato","sp","short"],"duration":0.125,"velocity":113.76009676042247},
{"position":309.1458333333333,"instrument":"TheGrandeurPiano","level2":16,"level3":null,"pitch":53,"articulation":"standard","articulation_tags":["standard","long"],"duration":0.8888888888888888,"velocity":118.56935756361807},
{"position":309.15625,"instrument":"TheGrandeurPiano","level2":17,"level3":null,"pitch":31,"articulation":"standard","articulation_tags":["standard","long"],"duration":0.5625,"velocity":118.56935756361807},
{"position":309.2604166666667,"instrument":"TheGrandeurPiano","level2":15,"level3":null,"pitch":29,"articulation":"standard","articulation_tags":["standard","long"],"duration":0.5277777777777778,"velocity":119.86081046531297},
{"position":309.5416666666667,"instrument":"TheGrandeurPiano","level2":17,"level3":null,"pitch":31,"articulation":"standard","articulation_tags":["standard","long"],"duration":0.6041666666666666,"velocity":118.66001884870552},
{"position":309.5729166666667,"instrument":"Cello","level2":16,"level3":0,"pitch":39,"articulation":"short_hrm","articulation_tags":["short_hrm","hrm_s","short","harmonics"],"duration":0.125,"velocity":114.04237329584515},
{"position":309.625,"instrument":"Cello","level2":16,"level3":9,"pitch":37,"articulation":"spiccato","articulation_tags":["spiccato","sp","short"],"duration":0.125,"velocity":114.04237329584515},
{"position":309.9166666666667,"instrument":"TheGrandeurPiano","level2":18,"level3":null,"pitch":26,"articulation":"standard","articulation_tags":["standard","long"],"duration":0.8819444444444444,"velocity":119.53206654801569},
{"position":310.0,"instrument":"TheGrandeurPiano","level2":17,"level3":null,"pitch":32,"articulation":"standard","articulation_tags":["standard","long"],"duration":0.5763888888888888,"velocity":117.74954312167894},
{"position":310.0520833333333,"instrument":"TheGrandeurPiano","level2":15,"level3":null,"pitch":28,"articulation":"standard","articulation_tags":["standard","long"],"duration":0.5277777777777778,"velocity":119.41224823920749},
{"position":310.4479166666667,"instrument":"TheGrandeurPiano","level2":17,"level3":null,"pitch":32,"articulation":"standard","articulation_tags":["standard","long"],"duration":0.6041666666666666,"velocity":119.7712626559856},
{"position":310.4895833333333,"instrument":"Cello","level2":16,"level3":5,"pitch":37,"articulation":"staccato","articulation_tags":["staccato","st","short"],"duration":0.125,"velocity":114.04237329584515},
{"position":310.4895833333333,"instrument":"TheGrandeurPiano","level2":16,"level3":null,"pitch":53,"articulation":"standard","articulation_tags":["standard","long"],"duration":0.9583333333333334,"velocity":118.23620213022008},
{"position":310.8333333333333,"instrument":"Cello","level2":16,"level3":2,"pitch":39,"articulation":"short_hrm","articulation_tags":["short_hrm","hrm_s","short","harmonics"],"duration":0.125,"velocity":114.3251659714048},
{"position":310.84375,"instrument":"TheGrandeurPiano","level2":15,"level3":null,"pitch":28,"articulation":"standard","articulation_tags":["standard","long"],"duration":0.5277777777777778,"velocity":117.84097991773893},
{"position":310.8645833333333,"instrument":"TheGrandeurPiano","level2":17,"level3":null,"pitch":32,"articulation":"standard","articulation_tags":["standard","long"],"duration":0.5972222222222222,"velocity":117.84097991773893},
{"position":311.2291666666667,"instrument":"TheGrandeurPiano","level2":18,"level3":null,"pitch":26,"articulation":"standard","articulation_tags":["standard","long"],"duration":0.8402777777777778,"velocity":118.23620213022008},
{"position":311.3541666666667,"instrument":"TheGrandeurPiano","level2":17,"level3":null,"pitch":32,"articulation":"standard","articulation_tags":["standard","long"],"duration":0.6111111111111112,"velocity":119.26226778345242},
{"position":311.6354166666667,"instrument":"TheGrandeurPiano","level2":15,"level3":null,"pitch":27,"articulation":"standard","articulation_tags":["standard","long"],"duration":0.5347222222222222,"velocity":118.47861108384457},
{"position":311.75,"instrument":"TheGrandeurPiano","level2":17,"level3":null,"pitch":33,"articulation":"standard","articulation_tags":["standard","long"],"duration":0.6111111111111112,"velocity":117.59695411137992},
{"position":311.9270833333333,"instrument":"TheGrandeurPiano","level2":16,"level3":null,"pitch":53,"articulation":"standard","articulation_tags":["standard","long"],"duration":1.0277777777777777,"velocity":118.29686157660261},
{"position":311.9479166666667,"instrument":"TheGrandeurPiano","level2":14,"level3":null,"pitch":29,"articulation":"standard","articulation_tags":["standard","long"],"duration":1.4566929133858268,"velocity":118.29686157660261},
{"position":312.28125,"instrument":"TheGrandeurPiano","level2":17,"level3":null,"pitch":33,"articulation":"standard","articulation_tags":["standard","long"],"duration":0.6180555555555556,"velocity":118.72041249336613},
{"position":312.4375,"instrument":"TheGrandeurPiano","level2":15,"level3":null,"pitch":27,"articulation":"standard","articulation_tags":["standard","long"],"duration":0.5347222222222222,"velocity":117.74954312167894},
{"position":312.4895833333333,"instrument":"TheGrandeurPiano","level2":18,"level3":null,"pitch":26,"articulation":"standard","articulation_tags":["standard","long"],"duration":0.7916666666666666,"velocity":117.74954312167894},
{"position":312.6770833333333,"instrument":"TheGrandeurPiano","level2":17,"level3":null,"pitch":33,"articulation":"standard","articulation_tags":["standard","long"],"duration":0.6319444444444444,"velocity":117.01488104161776},
{"position":312.7291666666667,"instrument":"Cello","level2":16,"level3":10,"pitch":38,"articulation":"spiccato","articulation_tags":["spiccato","sp","short"],"duration":0.125,"velocity":114.60846451022562},
{"position":312.7291666666667,"instrument":"Cello","level2":16,"level3":11,"pitch":38,"articulation":"spiccato","articulation_tags":["spiccato","sp","short"],"duration":0.125,"velocity":114.60846451022562},
{"position":312.8125,"instrument":"Cello","level2":16,"level3":10,"pitch":38,"articulation":"spiccato","articulation_tags":["spiccato","sp","short"],"duration":0.125,"velocity":114.60846451022562},
{"position":313.1979166666667,"instrument":"TheGrandeurPiano","level2":17,"level3":null,"pitch":33,"articulation":"standard","articulation_tags":["standard","long"],"duration":0.625,"velocity":116.27449406226101},
{"position":313.2291666666667,"instrument":"TheGrandeurPiano","level2":15,"level3":null,"pitch":26,"articulation":"standard","articulation_tags":["standard","long"],"duration":0.5347222222222222,"velocity":116.27449406226101},
{"position":313.46875,"instrument":"TheGrandeurPiano","level2":16,"level3":null,"pitch":53,"articulation":"standard","articulation_tags":["standard","long"],"duration":1.1111111111111112,"velocity":116.73791399754492},
{"position":313.625,"instrument":"TheGrandeurPiano","level2":17,"level3":null,"pitch":34,"articulation":"standard","articulation_tags":["standard","long"],"duration":0.6527777777777778,"velocity":117.01488104161776},
{"position":313.6770833333333,"instrument":"TheGrandeurPiano","level2":18,"level3":null,"pitch":26,"articulation":"standard","articulation_tags":["standard","long"],"duration":0.7569444444444444,"velocity":117.3523037957349},
{"position":314.03125,"instrument":"TheGrandeurPiano","level2":15,"level3":null,"pitch":26,"articulation":"standard","articulation_tags":["standard","long"],"duration":0.5347222222222222,"velocity":116.36736011077916},
{"position":314.1354166666667,"instrument":"TheGrandeurPiano","level2":17,"level3":null,"pitch":34,"articulation":"standard","articulation_tags":["standard","long"],"duration":0.625,"velocity":116.95340262622493},
{"position":314.6041666666667,"instrument":"TheGrandeurPiano","level2":17,"level3":null,"pitch":34,"articulation":"standard","articulation_tags":["standard","long"],"duration":0.6805555555555556,"velocity":116.24351837748787},
{"position":314.8229166666667,"instrument":"TheGrandeurPiano","level2":18,"level3":null,"pitch":26,"articulation":"standard","articulation_tags":["standard","long"],"duration":0.7291666666666666,"velocity":116.02640285832554},
{"position":314.8333333333333,"instrument":"TheGrandeurPiano","level2":15,"level3":null,"pitch":25,"articulation":"standard","articulation_tags":["standard","long"],"duration":0.5347222222222222,"velocity":116.02640285832554},
{"position":315.0729166666667,"instrument":"TheGrandeurPiano","level2":17,"level3":null,"pitch":34,"articulation":"standard","articulation_tags":["standard","long"],"duration":0.6319444444444444,"velocity":116.11951369433608},
{"position":315.1354166666667,"instrument":"TheGrandeurPiano","level2":16,"level3":null,"pitch":53,"articulation":"standard","articulation_tags":["standard","long"],"duration":1.2222222222222223,"velocity":115.24686360029088},
{"position":315.34375,"instrument":"Cello","level2":16,"level3":3,"pitch":37,"articulation":"staccato","articulation_tags":["staccato","st","short"],"duration":0.125,"velocity":115.17653932983528},
{"position":315.40625,"instrument":"Cello","level2":16,"level3":11,"pitch":38,"articulation":"spiccato","articulation_tags":["spiccato","sp","short"],"duration":0.125,"velocity":115.17653932983528},
{"position":315.625,"instrument":"TheGrandeurPiano","level2":17,"level3":null,"pitch":35,"articulation":"standard","articulation_tags":["standard","long"],"duration":0.7013888888888888,"velocity":114.83891642212933},
{"position":315.6458333333333,"instrument":"TheGrandeurPiano","level2":15,"level3":null,"pitch":25,"articulation":"standard","articulation_tags":["standard","long"],"duration":0.5416666666666666,"velocity":114.83891642212933},
{"position":315.8645833333333,"instrument":"Cello","level2":16,"level3":4,"pitch":38,"articulation":"short_hrm","articulation_tags":["short_hrm","hrm_s","short","harmonics"],"duration":0.125,"velocity":115.17653932983528},
{"position":315.90625,"instrument":"TheGrandeurPiano","level2":18,"level3":null,"pitch":26,"articulation":"standard","articulation_tags":["standard","long"],"duration":0.6944444444444444,"velocity":114.334353357766},
{"position":316.0208333333333,"instrument":"TheGrandeurPiano","level2":17,"level3":null,"pitch":35,"articulation":"standard","articulation_tags":["standard","long"],"duration":0.6388888888888888,"velocity":114.27108897667789},
{"position":316.15625,"instrument":"TheGrandeurPiano","level2":15,"level3":null,"pitch":25,"articulation":"standard","articulation_tags":["standard","long"],"duration":1.3937007874015748,"velocity":114.334353357766},
{"position":316.3645833333333,"instrument":"TheGrandeurPiano","level2":18,"level3":null,"pitch":25,"articulation":"standard","articulation_tags":["standard","long"],"duration":1.3937007874015748,"velocity":114.52388695445714},
{"position":316.4479166666667,"instrument":"TheGrandeurPiano","level2":15,"level3":null,"pitch":24,"articulation":"standard","articulation_tags":["standard","long"],"duration":0.5416666666666666,"velocity":114.83891642212933},
{"position":316.6770833333333,"instrument":"TheGrandeurPiano","level2":17,"level3":null,"pitch":35,"articulation":"standard","articulation_tags":["standard","long"],"duration":0.7291666666666666,"velocity":113.8588084621495},
{"position":316.9479166666667,"instrument":"TheGrandeurPiano","level2":18,"level3":null,"pitch":25,"articulation":"standard","articulation_tags":["standard","long"],"duration":0.6666666666666666,"velocity":113.18887940429234},
{"position":316.96875,"instrument":"TheGrandeurPiano","level2":16,"level3":null,"pitch":53,"articulation":"standard","articulation_tags":["standard","long"],"duration":1.3611111111111112,"velocity":115.24686360029088},
{"position":316.9791666666667,"instrument":"TheGrandeurPiano","level2":17,"level3":null,"pitch":35,"articulation":"standard","articulation_tags":["standard","long"],"duration":0.6388888888888888,"velocity":115.24686360029088},
{"position":317.2083333333333,"instrument":"Cello","level2":16,"level3":7,"pitch":37,"articulation":"staccato","articulation_tags":["staccato","st","short"],"duration":0.125,"velocity":115.46129629532783},
{"position":317.2604166666667,"instrument":"TheGrandeurPiano","level2":15,"level3":null,"pitch":24,"articulation":"standard","articulation_tags":["standard","long"],"duration":0.5416666666666666,"velocity":113.8588084621495},
{"position":317.375,"instrument":"TheGrandeurPiano","level2":14,"level3":null,"pitch":30,"articulation":"standard","articulation_tags":["standard","long"],"duration":1.4724409448818898,"velocity":112.80384371094559},
{"position":317.7708333333333,"instrument":"TheGrandeurPiano","level2":17,"level3":null,"pitch":36,"articulation":"standard","articulation_tags":["standard","long"],"duration":0.7569444444444444,"velocity":113.69974547101478},
{"position":317.9375,"instrument":"TheGrandeurPiano","level2":17,"level3":null,"pitch":36,"articulation":"standard","articulation_tags":["standard","long"],"duration":0.6458333333333334,"velocity":112.96447331413955},
{"position":317.9479166666667,"instrument":"TheGrandeurPiano","level2":18,"level3":null,"pitch":25,"articulation":"standard","articulation_tags":["standard","long"],"duration":0.6388888888888888,"velocity":112.28790860488192},
{"position":318.0729166666667,"instrument":"TheGrandeurPiano","level2":15,"level3":null,"pitch":35,"articulation":"standard","articulation_tags":["standard","long"],"duration":0.5416666666666666,"velocity":114.01759649503374},
{"position":318.2708333333333,"instrument":"TheGrandeurPiano","level2":14,"level3":null,"pitch":30,"articulation":"standard","articulation_tags":["standard","long"],"duration":1.4724409448818898,"velocity":112.99656520905724},
{"position":318.7291666666667,"instrument":"Cello","level2":16,"level3":6,"pitch":38,"articulation":"spiccato","articulation_tags":["spiccato","sp","short"],"duration":0.125,"velocity":115.46129629532783},
{"position":318.7916666666667,"instrument":"TheGrandeurPiano","level2":15,"level3":null,"pitch":35,"articulation":"standard","articulation_tags":["standard","long"],"duration":1.3125,"velocity":113.95411418565268},
{"position":318.875,"instrument":"Cello","level2":16,"level3":2,"pitch":39,"articulation":"short_hrm","articulation_tags":["short_hrm","hrm_s","short","harmonics"],"duration":0.125,"velocity":115.46129629532783},
{"position":318.875,"instrument":"TheGrandeurPiano","level2":15,"level3":null,"pitch":35,"articulation":"standard","articulation_tags":["standard","long"],"duration":0.5416666666666666,"velocity":113.8588084621495},
{"position":318.8958333333333,"instrument":"Cello","level2":16,"level3":12,"pitch":39,"articulation":"spiccato","articulation_tags":["spiccato","sp","short"],"duration":0.125,"velocity":115.46129629532783},
{"position":318.8958333333333,"instrument":"Cello","level2":16,"level3":12,"pitch":39,"articulation":"spiccato","articulation_tags":["spiccato","sp","short"],"duration":0.125,"velocity":115.46129629532783},
{"position":318.8958333333333,"instrument":"Cello","level2":16,"level3":13,"pitch":38,"articulation":"staccato","articulation_tags":["staccato","st","short"],"duration":0.125,"velocity":115.46129629532783},
{"position":318.90625,"instrument":"TheGrandeurPiano","level2":17,"level3":null,"pitch":36,"articulation":"standard","articulation_tags":["standard","long"],"duration":0.6458333333333334,"velocity":113.8588084621495},
{"position":318.9166666666667,"instrument":"TheGrandeurPiano","level2":18,"level3":null,"pitch":25,"articulation":"standard","articulation_tags":["standard","long"],"duration":0.6180555555555556,"velocity":113.8588084621495},
{"position":318.9166666666667,"instrument":"TheGrandeurPiano","level2":17,"level3":null,"pitch":36,"articulation":"standard","articulation_tags":["standard","long"],"duration":0.7916666666666666,"velocity":113.8588084621495},
{"position":319.0104166666667,"instrument":"TheGrandeurPiano","level2":16,"level3":null,"pitch":53,"articulation":"standard","articulation_tags":["standard","long"],"duration":1.5555555555555556,"velocity":113.82701790627023},
{"position":319.2395833333333,"instrument":"Cello","level2":16,"level3":3,"pitch":36,"articulation":"staccato","articulation_tags":["staccato","st","short"],"duration":0.125,"velocity":115.74652047982974},
{"position":319.5,"instrument":"Cello","level2":16,"level3":13,"pitch":38,"articulation":"staccato","articulation_tags":["staccato","st","short"],"duration":0.125,"velocity":115.74652047982974},
{"position":319.6875,"instrument":"TheGrandeurPiano","level2":15,"level3":null,"pitch":34,"articulation":"standard","articulation_tags":["standard","long"],"duration":0.5416666666666666,"velocity":112.99656520905724},
{"position":319.84375,"instrument":"TheGrandeurPiano","level2":18,"level3":null,"pitch":25,"articulation":"standard","articulation_tags":["standard","long"],"duration":0.5972222222222222,"velocity":114.01759649503374},
{"position":319.875,"instrument":"TheGrandeurPiano","level2":17,"level3":null,"pitch":36,"articulation":"standard","articulation_tags":["standard","long"],"duration":0.6527777777777778,"velocity":114.01759649503374},
{"position":320.1041666666667,"instrument":"TheGrandeurPiano","level2":17,"level3":null,"pitch":37,"articulation":"standard","articulation_tags":["standard","long"],"duration":0.8263888888888888,"velocity":112.96447331413955},
{"position":320.5,"instrument":"TheGrandeurPiano","level2":15,"level3":null,"pitch":34,"articulation":"standard","articulation_tags":["standard","long"],"duration":0.5416666666666666,"velocity":114.01759649503374},
{"position":320.7291666666667,"instrument":"TheGrandeurPiano","level2":18,"level3":null,"pitch":25,"articulation":"standard","articulation_tags":["standard","long"],"duration":0.5763888888888888,"velocity":113.8588084621495},
{"position":320.7604166666667,"instrument":"TheGrandeurPiano","level2":15,"level3":null,"pitch":34,"articulation":"standard","articulation_tags":["standard","long"],"duration":1.0833333333333333,"velocity":114.96462929816208},
{"position":320.8541666666667,"instrument":"TheGrandeurPiano","level2":17,"level3":null,"pitch":37,"articulation":"standard","articulation_tags":["standard","long"],"duration":0.6527777777777778,"velocity":112.83599235550426},
{"position":320.9479166666667,"instrument":"Cello","level2":16,"level3":5,"pitch":37,"articulation":"staccato","articulation_tags":["staccato","st","short"],"duration":0.125,"velocity":115.74652047982974},
{"position":321.3125,"instrument":"TheGrandeurPiano","level2":15,"level3":null,"pitch":33,"articulation":"standard","articulation_tags":["standard","long"],"duration":0.5416666666666666,"velocity":113.8588084621495},
{"position":321.3333333333333,"instrument":"TheGrandeurPiano","level2":17,"level3":null,"pitch":37,"articulation":"standard","articulation_tags":["standard","long"],"duration":0.8611111111111112,"velocity":115.27817025338055},
{"position":321.34375,"instrument":"TheGrandeurPiano","level2":16,"level3":null,"pitch":53,"articulation":"standard","articulation_tags":["standard","long"],"duration":1.8346456692913387,"velocity":115.27817025338055},
{"position":321.3854166666667,"instrument":"TheGrandeurPiano","level2":14,"level3":null,"pitch":30,"articulation":"standard","articulation_tags":["standard","long"],"duration":1.4724409448818898,"velocity":113.34883195557317},
{"position":321.5833333333333,"instrument":"Cello","level2":16,"level3":1,"pitch":36,"articulation":"short_marcato","articulation_tags":["short_marcato","marcato_s","short","marcato"],"duration":0.125,"velocity":116.03220280393063},
{"position":321.59375,"instrument":"TheGrandeurPiano","level2":18,"level3":null,"pitch":25,"articulation":"standard","articulation_tags":["standard","long"],"duration":0.5555555555555556,"velocity":114.52388695445714},
{"position":321.7395833333333,"instrument":"Cello","level2":16,"level3":12,"pitch":39,"articulation":"spiccato","articulation_tags":["spiccato","sp","short"],"duration":0.125,"velocity":116.03220280393063},
{"position":321.8333333333333,"instrument":"TheGrandeurPiano","level2":17,"level3":null,"pitch":37,"articulation":"standard","articulation_tags":["standard","long"],"duration":0.6597222222222222,"velocity":112.57848370882607},
{"position":322.125,"instrument":"TheGrandeurPiano","level2":15,"level3":null,"pitch":33,"articulation":"standard","articulation_tags":["standard","long"],"duration":0.5416666666666666,"velocity":114.52388695445714},
{"position":322.3854166666667,"instrument":"TheGrandeurPiano","level2":15,"level3":null,"pitch":33,"articulation":"standard","articulation_tags":["standard","long"],"duration":0.9444444444444444,"velocity":113.34883195557317},
{"position":322.4270833333333,"instrument":"TheGrandeurPiano","level2":18,"level3":null,"pitch":25,"articulation":"standard","articulation_tags":["standard","long"],"duration":0.5347222222222222,"velocity":113.34883195557317},
{"position":322.625,"instrument":"TheGrandeurPiano","level2":17,"level3":null,"pitch":38,"articulation":"standard","articulation_tags":["standard","long"],"duration":0.9027777777777778,"velocity":114.49232499312456},
{"position":322.8229166666667,"instrument":"TheGrandeurPiano","level2":17,"level3":null,"pitch":38,"articulation":"standard","articulation_tags":["standard","long"],"duration":0.6597222222222222,"velocity":115.24686360029088},
{"position":322.9270833333333,"instrument":"TheGrandeurPiano","level2":15,"level3":null,"pitch":32,"articulation":"standard","articulation_tags":["standard","long"],"duration":0.5416666666666666,"velocity":114.01759649503374},
{"position":323.2291666666667,"instrument":"TheGrandeurPiano","level2":18,"level3":null,"pitch":25,"articulation":"standard","articulation_tags":["standard","long"],"duration":0.5208333333333334,"velocity":114.99603096407981},
{"position":323.7395833333333,"instrument":"TheGrandeurPiano","level2":15,"level3":null,"pitch":32,"articulation":"standard","articulation_tags":["standard","long"],"duration":0.5347222222222222,"velocity":115.27817025338055},
{"position":323.8020833333333,"instrument":"TheGrandeurPiano","level2":15,"level3":null,"pitch":32,"articulation":"standard","articulation_tags":["standard","long"],"duration":0.8333333333333334,"velocity":115.27817025338055},
{"position":323.8125,"instrument":"TheGrandeurPiano","level2":17,"level3":null,"pitch":38,"articulation":"standard","articulation_tags":["standard","long"],"duration":0.6666666666666666,"velocity":115.27817025338055},
{"position":323.9791666666667,"instrument":"TheGrandeurPiano","level2":17,"level3":null,"pitch":38,"articulation":"standard","articulation_tags":["standard","long"],"duration":0.9513888888888888,"velocity":114.01759649503374},
{"position":324.0104166666667,"instrument":"TheGrandeurPiano","level2":18,"level3":null,"pitch":25,"articulation":"standard","articulation_tags":["standard","long"],"duration":0.5,"velocity":114.01759649503374},
{"position":324.0625,"instrument":"Cello","level2":16,"level3":9,"pitch":37,"articulation":"spiccato","articulation_tags":["spiccato","sp","short"],"duration":0.125,"velocity":116.03220280393063},
{"position":324.0625,"instrument":"Cello","level2":16,"level3":7,"pitch":37,"articulation":"spiccato","articulation_tags":["spiccato","sp","short"],"duration":0.125,"velocity":116.03220280393063},
{"position":324.1145833333333,"instrument":"TheGrandeurPiano","level2":16,"level3":null,"pitch":53,"articulation":"standard","articulation_tags":["standard","long"],"duration":1.8346456692913387,"velocity":115.83990402441681},
{"position":324.21875,"instrument":"Cello","level2":16,"level3":1,"pitch":36,"articulation":"staccato","articulation_tags":["staccato","st","short"],"duration":0.125,"velocity":116.3183344079311},
{"position":324.3229166666667,"instrument":"Cello","level2":16,"level3":0,"pitch":39,"articulation":"short_hrm","articulation_tags":["short_hrm","hrm_s","short","harmonics"],"duration":0.125,"velocity":116.3183344079311},
{"position":324.5416666666667,"instrument":"TheGrandeurPiano","level2":15,"level3":null,"pitch":31,"articulation":"standard","articulation_tags":["standard","long"],"duration":0.5347222222222222,"velocity":114.11273792644006},
{"position":324.6979166666667,"instrument":"TheGrandeurPiano","level2":14,"level3":null,"pitch":31,"articulation":"standard","articulation_tags":["standard","long"],"duration":1.4881889763779528,"velocity":113.95411418565268},
{"position":324.7604166666667,"instrument":"TheGrandeurPiano","level2":18,"level3":null,"pitch":25,"articulation":"standard","articulation_tags":["standard","long"],"duration":0.4861111111111111,"velocity":113.8588084621495},
{"position":324.8125,"instrument":"TheGrandeurPiano","level2":17,"level3":null,"pitch":38,"articulation":"standard","articulation_tags":["standard","long"],"duration":0.6666666666666666,"velocity":113.8588084621495},
{"position":325.0520833333333,"instrument":"TheGrandeurPiano","level2":15,"level3":null,"pitch":31,"articulation":"standard","articulation_tags":["standard","long"],"duration":0.7569444444444444,"velocity":113.95411418565268},
{"position":325.3541666666667,"instrument":"TheGrandeurPiano","level2":15,"level3":null,"pitch":31,"articulation":"standard","articulation_tags":["standard","long"],"duration":0.5347222222222222,"velocity":114.61850830553983},
{"position":325.3958333333333,"instrument":"Cello","level2":16,"level3":6,"pitch":37,"articulation":"spiccato","articulation_tags":["spiccato","sp","short"],"duration":0.125,"velocity":116.3183344079311},
{"position":325.4166666666667,"instrument":"TheGrandeurPiano","level2":17,"level3":null,"pitch":39,"articulation":"standard","articulation_tags":["standard","long"],"duration":1.0,"velocity":114.61850830553983},
{"position":325.4895833333333,"instrument":"TheGrandeurPiano","level2":18,"level3":null,"pitch":25,"articulation":"standard","articulation_tags":["standard","long"],"duration":0.4722222222222222,"velocity":114.96462929816208},
{"position":325.8125,"instrument":"TheGrandeurPiano","level2":17,"level3":null,"pitch":39,"articulation":"standard","articulation_tags":["standard","long"],"duration":0.6736111111111112,"velocity":114.01759649503374},
{"position":326.15625,"instrument":"TheGrandeurPiano","level2":15,"level3":null,"pitch":30,"articulation":"standard","articulation_tags":["standard","long"],"duration":0.5347222222222222,"velocity":113.69974547101478},
{"position":326.1875,"instrument":"TheGrandeurPiano","level2":15,"level3":null,"pitch":30,"articulation":"standard","articulation_tags":["standard","long"],"duration":0.6944444444444444,"velocity":114.49232499312456},
{"position":326.1979166666667,"instrument":"TheGrandeurPiano","level2":18,"level3":null,"pitch":25,"articulation":"standard","articulation_tags":["standard","long"],"duration":0.4583333333333333,"velocity":114.49232499312456},
{"position":326.78125,"instrument":"Cello","level2":16,"level3":2,"pitch":38,"articulation":"short_hrm","articulation_tags":["short_hrm","hrm_s","short","harmonics"],"duration":0.125,"velocity":116.3183344079311},
{"position":326.8229166666667,"instrument":"TheGrandeurPiano","level2":17,"level3":null,"pitch":39,"articulation":"standard","articulation_tags":["standard","long"],"duration":0.6736111111111112,"velocity":116.11951369433608},
{"position":326.8854166666667,"instrument":"TheGrandeurPiano","level2":18,"level3":null,"pitch":25,"articulation":"standard","articulation_tags":["standard","long"],"duration":0.4444444444444444,"velocity":114.01759649503374},
{"position":326.9166666666667,"instrument":"TheGrandeurPiano","level2":17,"level3":null,"pitch":39,"articulation":"standard","articulation_tags":["standard","long"],"duration":1.0694444444444444,"velocity":114.01759649503374},
{"position":326.9479166666667,"instrument":"TheGrandeurPiano","level2":15,"level3":null,"pitch":30,"articulation":"standard","articulation_tags":["standard","long"],"duration":0.5277777777777778,"velocity":115.24686360029088},
{"position":327.2291666666667,"instrument":"TheGrandeurPiano","level2":15,"level3":null,"pitch":30,"articulation":"standard","articulation_tags":["standard","long"],"duration":0.6388888888888888,"velocity":115.83990402441681},
{"position":327.2604166666667,"instrument":"TheGrandeurPiano","level2":14,"level3":null,"pitch":31,"articulation":"standard","articulation_tags":["standard","long"],"duration":1.4881889763779528,"velocity":115.83990402441681},
{"position":327.5520833333333,"instrument":"TheGrandeurPiano","level2":18,"level3":null,"pitch":25,"articulation":"standard","articulation_tags":["standard","long"],"duration":0.4305555555555556,"velocity":114.83891642212933},
{"position":327.6145833333333,"instrument":"TheGrandeurPiano","level2":14,"level3":null,"pitch":31,"articulation":"standard","articulation_tags":["standard","long"],"duration":1.4881889763779528,"velocity":114.52388695445714},
{"position":327.6875,"instrument":"TheGrandeurPiano","level2":16,"level3":null,"pitch":53,"articulation":"standard","articulation_tags":["standard","long"],"duration":1.8346456692913387,"velocity":114.52388695445714},
{"position":327.7083333333333,"instrument":"Cello","level2":16,"level3":4,"pitch":38,"articulation":"short_hrm","articulation_tags":["short_hrm","hrm_s","short","harmonics"],"duration":0.125,"velocity":116.60490664570848},
{"position":327.75,"instrument":"TheGrandeurPiano","level2":15,"level3":null,"pitch":29,"articulation":"standard","articulation_tags":["standard","long"],"duration":0.5277777777777778,"velocity":114.334353357766},
{"position":327.8333333333333,"instrument":"TheGrandeurPiano","level2":17,"level3":null,"pitch":39,"articulation":"standard","articulation_tags":["standard","long"],"duration":0.6805555555555556,"velocity":114.334353357766},
{"position":328.1875,"instrument":"TheGrandeurPiano","level2":15,"level3":null,"pitch":29,"articulation":"standard","articulation_tags":["standard","long"],"duration":0.5972222222222222,"velocity":114.52388695445714},
{"position":328.1979166666667,"instrument":"TheGrandeurPiano","level2":18,"level3":null,"pitch":25,"articulation":"standard","articulation_tags":["standard","long"],"duration":0.4166666666666667,"velocity":114.52388695445714},
{"position":328.5208333333333,"instrument":"TheGrandeurPiano","level2":17,"level3":null,"pitch":40,"articulation":"standard","articulation_tags":["standard","long"],"duration":1.1388888888888888,"velocity":115.27817025338055},
{"position":328.53125,"instrument":"TheGrandeurPiano","level2":15,"level3":null,"pitch":29,"articulation":"standard","articulation_tags":["standard","long"],"duration":0.5277777777777778,"velocity":115.27817025338055},
{"position":328.7604166666667,"instrument":"Cello","level2":16,"level3":12,"pitch":38,"articulation":"spiccato","articulation_tags":["spiccato","sp","short"],"duration":0.125,"velocity":116.60490664570848},
{"position":328.8229166666667,"instrument":"TheGrandeurPiano","level2":18,"level3":null,"pitch":25,"articulation":"standard","articulation_tags":["standard","long"],"duration":0.4027777777777778,"velocity":113.18887940429234},
{"position":328.8541666666667,"instrument":"TheGrandeurPiano","level2":17,"level3":null,"pitch":40,"articulation":"standard","articulation_tags":["standard","long"],"duration":0.6805555555555556,"velocity":115.24686360029088},
{"position":329.0833333333333,"instrument":"TheGrandeurPiano","level2":15,"level3":null,"pitch":29,"articulation":"standard","articulation_tags":["standard","long"],"duration":0.5625,"velocity":114.96462929816208},
{"position":329.3229166666667,"instrument":"TheGrandeurPiano","level2":15,"level3":null,"pitch":28,"articulation":"standard","articulation_tags":["standard","long"],"duration":0.5208333333333334,"velocity":114.99603096407981},
{"position":329.4270833333333,"instrument":"TheGrandeurPiano","level2":18,"level3":null,"pitch":25,"articulation":"standard","articulation_tags":["standard","long"],"duration":0.3958333333333333,"velocity":114.01759649503374},
{"position":329.875,"instrument":"TheGrandeurPiano","level2":17,"level3":null,"pitch":40,"articulation":"standard","articulation_tags":["standard","long"],"duration":0.6805555555555556,"velocity":115.27817025338055},
{"position":329.9270833333333,"instrument":"TheGrandeurPiano","level2":15,"level3":null,"pitch":28,"articulation":"standard","articulation_tags":["standard","long"],"duration":0.5208333333333334,"velocity":115.27817025338055},
{"position":330.0104166666667,"instrument":"TheGrandeurPiano","level2":18,"level3":null,"pitch":25,"articulation":"standard","articulation_tags":["standard","long"],"duration":0.3819444444444444,"velocity":114.61850830553983},
{"position":330.1041666666667,"instrument":"TheGrandeurPiano","level2":15,"level3":null,"pitch":28,"articulation":"standard","articulation_tags":["standard","long"],"duration":0.5138888888888888,"velocity":114.01759649503374},
{"position":330.2291666666667,"instrument":"TheGrandeurPiano","level2":14,"level3":null,"pitch":32,"articulation":"standard","articulation_tags":["standard","long"],"duration":1.5039370078740157,"velocity":113.47659262214093},
{"position":330.2291666666667,"instrument":"TheGrandeurPiano","level2":17,"level3":null,"pitch":40,"articulation":"standard","articulation_tags":["standard","long"],"duration":1.2291666666666667,"velocity":113.47659262214093},
{"position":330.5833333333333,"instrument":"TheGrandeurPiano","level2":18,"level3":null,"pitch":25,"articulation":"standard","articulation_tags":["standard","long"],"duration":0.3680555555555556,"velocity":114.334353357766},
{"position":330.7083333333333,"instrument":"TheGrandeurPiano","level2":15,"level3":null,"pitch":28,"articulation":"standard","articulation_tags":["standard","long"],"duration":0.4930555555555556,"velocity":114.11273792644006},
{"position":330.875,"instrument":"TheGrandeurPiano","level2":15,"level3":null,"pitch":27,"articulation":"standard","articulation_tags":["standard","long"],"duration":0.5138888888888888,"velocity":113.95411418565268},
{"position":330.8958333333333,"instrument":"TheGrandeurPiano","level2":17,"level3":null,"pitch":40,"articulation":"standard","articulation_tags":["standard","long"],"duration":0.6875,"velocity":113.8588084621495},
{"position":331.1458333333333,"instrument":"TheGrandeurPiano","level2":18,"level3":null,"pitch":25,"articulation":"standard","articulation_tags":["standard","long"],"duration":0.3611111111111111,"velocity":113.8588084621495},
{"position":331.4479166666667,"instrument":"TheGrandeurPiano","level2":15,"level3":null,"pitch":27,"articulation":"standard","articulation_tags":["standard","long"],"duration":0.4652777777777778,"velocity":111.92691867442504},
{"position":331.6458333333333,"instrument":"TheGrandeurPiano","level2":15,"level3":null,"pitch":27,"articulation":"standard","articulation_tags":["standard","long"],"duration":0.5069444444444444,"velocity":112.57848370882607},
{"position":331.6770833333333,"instrument":"TheGrandeurPiano","level2":18,"level3":null,"pitch":25,"articulation":"standard","articulation_tags":["standard","long"],"duration":0.3472222222222222,"velocity":112.57848370882607},
{"position":331.9270833333333,"instrument":"TheGrandeurPiano","level2":17,"level3":null,"pitch":40,"articulation":"standard","articulation_tags":["standard","long"],"duration":0.6875,"velocity":113.47659262214093},
{"position":332.0729166666667,"instrument":"TheGrandeurPiano","level2":17,"level3":null,"pitch":41,"articulation":"standard","articulation_tags":["standard","long"],"duration":1.3402777777777777,"velocity":112.28790860488192},
{"position":332.1458333333333,"instrument":"TheGrandeurPiano","level2":15,"level3":null,"pitch":27,"articulation":"standard","articulation_tags":["standard","long"],"duration":0.4444444444444444,"velocity":112.28790860488192},
{"position":332.2083333333333,"instrument":"TheGrandeurPiano","level2":18,"level3":null,"pitch":25,"articulation":"standard","articulation_tags":["standard","long"],"duration":0.3402777777777778,"velocity":112.96447331413955},
{"position":332.40625,"instrument":"TheGrandeurPiano","level2":15,"level3":null,"pitch":26,"articulation":"standard","articulation_tags":["standard","long"],"duration":0.5,"velocity":112.22320927116661},
{"position":332.4791666666667,"instrument":"Oboe","level2":20,"level3":0,"pitch":73,"articulation":"trill_2M","articulation_tags":["trill_2M","long","trill","M2"],"duration":0.7083333333333334,"velocity":127.0},
{"position":332.4791666666667,"instrument":"Oboe","level2":20,"level3":1,"pitch":74,"articulation":"trill_2m","articulation_tags":["trill_2m","long","trill","m2"],"duration":2.3229166666666665,"velocity":127.0},
{"position":332.625,"instrument":"TheGrandeurPiano","level2":14,"level3":null,"pitch":32,"articulation":"standard","articulation_tags":["standard","long"],"duration":1.4791666666666667,"velocity":111.78829588715456},
{"position":332.6875,"instrument":"Bassoon","level2":16,"level3":7,"pitch":37,"articulation":"legato","articulation_tags":["legato","lg"],"duration":2.1770833333333335,"velocity":105.20981329141696},
{"position":332.71875,"instrument":"TheGrandeurPiano","level2":18,"level3":null,"pitch":25,"articulation":"standard","articulation_tags":["standard","long"],"duration":0.3263888888888889,"velocity":111.78829588715456},
{"position":332.8125,"instrument":"TheGrandeurPiano","level2":15,"level3":null,"pitch":26,"articulation":"standard","articulation_tags":["standard","long"],"duration":0.4166666666666667,"velocity":110.53154368951654},
{"position":332.9583333333333,"instrument":"TheGrandeurPiano","level2":17,"level3":null,"pitch":41,"articulation":"standard","articulation_tags":["standard","long"],"duration":0.6875,"velocity":111.68419700196876},
{"position":333.1666666666667,"instrument":"TheGrandeurPiano","level2":15,"level3":null,"pitch":26,"articulation":"standard","articulation_tags":["standard","long"],"duration":0.5,"velocity":111.92691867442504},
{"position":333.1875,"instrument":"Flute","level2":20,"level3":0,"pitch":73,"articulation":"trill_2M","articulation_tags":["trill_2M","long","trill","M2"],"duration":10.3125,"velocity":127.0},
{"position":333.2083333333333,"instrument":"Marimba","level2":16,"level3":3,"pitch":36,"articulation":"hits","articulation_tags":["hits","short"],"duration":0.0625,"velocity":116.60490664570848},
{"position":333.2083333333333,"instrument":"TheGrandeurPiano","level2":18,"level3":null,"pitch":25,"articulation":"standard","articulation_tags":["standard","long"],"duration":0.3194444444444444,"velocity":109.71979615986196},
{"position":333.4375,"instrument":"TheGrandeurPiano","level2":19,"level3":null,"pitch":63,"articulation":"standard","articulation_tags":["standard","long"],"duration":0.0,"velocity":110.39087167156735},
{"position":333.4375,"instrument":"TheGrandeurPiano","level2":19,"level3":null,"pitch":63,"articulation":"standard","articulation_tags":["standard","long"],"duration":0.006944444444444444,"velocity":110.39087167156735},
{"position":333.4375,"instrument":"TheGrandeurPiano","level2":19,"level3":null,"pitch":63,"articulation":"standard","articulation_tags":["standard","long"],"duration":0.006944444444444444,"velocity":110.39087167156735},
{"position":333.4375,"instrument":"TheGrandeurPiano","level2":20,"level3":null,"pitch":64,"articulation":"standard","articulation_tags":["standard","long"],"duration":0.0,"velocity":110.39087167156735},
{"position":333.4375,"instrument":"TheGrandeurPiano","level2":20,"level3":null,"pitch":64,"articulation":"standard","articulation_tags":["standard","long"],"duration":0.006944444444444444,"velocity":110.39087167156735},
{"position":333.4375,"instrument":"TheGrandeurPiano","level2":20,"level3":null,"pitch":65,"articulation":"standard","articulation_tags":["standard","long"],"duration":0.006944444444444444,"velocity":110.39087167156735},
{"position":333.4375,"instrument":"TheGrandeurPiano","level2":20,"level3":null,"pitch":65,"articulation":"standard","articulation_tags":["standard","long"],"duration":0.06944444444444445,"velocity":110.39087167156735},
{"position":333.4375,"instrument":"TheGrandeurPiano","level2":15,"level3":null,"pitch":26,"articulation":"standard","articulation_tags":["standard","long"],"duration":0.3958333333333333,"velocity":110.39087167156735},
{"position":333.4479166666667,"instrument":"TheGrandeurPiano","level2":19,"level3":null,"pitch":62,"articulation":"standard","articulation_tags":["standard","long"],"duration":0.013888888888888888,"velocity":110.39087167156735},
{"position":333.4479166666667,"instrument":"TheGrandeurPiano","level2":20,"level3":null,"pitch":65,"articulation":"standard","articulation_tags":["standard","long"],"duration":0.013888888888888888,"velocity":110.39087167156735},
{"position":333.46875,"instrument":"TheGrandeurPiano","level2":19,"level3":null,"pitch":62,"articulation":"standard","articulation_tags":["standard","long"],"duration":0.013888888888888888,"velocity":110.39087167156735},
{"position":333.46875,"instrument":"TheGrandeurPiano","level2":20,"level3":null,"pitch":66,"articulation":"standard","articulation_tags":["standard","long"],"duration":0.013888888888888888,"velocity":110.39087167156735},
{"position":333.4895833333333,"instrument":"TheGrandeurPiano","level2":19,"level3":null,"pitch":61,"articulation":"standard","articulation_tags":["standard","long"],"duration":0.020833333333333332,"velocity":110.39087167156735},
{"position":333.4895833333333,"instrument":"TheGrandeurPiano","level2":20,"level3":null,"pitch":66,"articulation":"standard","articulation_tags":["standard","long"],"duration":0.020833333333333332,"velocity":110.39087167156735},
{"position":333.5,"instrument":"TheGrandeurPiano","level2":19,"level3":null,"pitch":61,"articulation":"standard","articulation_tags":["standard","long"],"duration":0.9444444444444444,"velocity":111.89228176458512},
{"position":333.5104166666667,"instrument":"Marimba","level2":16,"level3":7,"pitch":37,"articulation":"hits","articulation_tags":["hits","short"],"duration":0.0625,"velocity":116.60490664570848},
{"position":333.5208333333333,"instrument":"TheGrandeurPiano","level2":20,"level3":null,"pitch":67,"articulation":"standard","articulation_tags":["standard","long"],"duration":0.020833333333333332,"velocity":111.89228176458512},
{"position":333.5208333333333,"instrument":"TheGrandeurPiano","level2":19,"level3":null,"pitch":61,"articulation":"standard","articulation_tags":["standard","long"],"duration":0.020833333333333332,"velocity":111.89228176458512},
{"position":333.5416666666667,"instrument":"TheGrandeurPiano","level2":20,"level3":null,"pitch":67,"articulation":"standard","articulation_tags":["standard","long"],"duration":0.11805555555555555,"velocity":111.89228176458512},
{"position":333.5520833333333,"instrument":"TheGrandeurPiano","level2":19,"level3":null,"pitch":60,"articulation":"standard","articulation_tags":["standard","long"],"duration":0.027777777777777776,"velocity":109.82607454913365},
{"position":333.5520833333333,"instrument":"TheGrandeurPiano","level2":20,"level3":null,"pitch":67,"articulation":"standard","articulation_tags":["standard","long"],"duration":0.027777777777777776,"velocity":109.82607454913365},
{"position":333.59375,"instrument":"TheGrandeurPiano","level2":19,"level3":null,"pitch":60,"articulation":"standard","articulation_tags":["standard","long"],"duration":0.027777777777777776,"velocity":109.82607454913365},
{"position":333.6041666666667,"instrument":"TheGrandeurPiano","level2":20,"level3":null,"pitch":68,"articulation":"standard","articulation_tags":["standard","long"],"duration":0.034722222222222224,"velocity":109.82607454913365},
{"position":333.6354166666667,"instrument":"TheGrandeurPiano","level2":19,"level3":null,"pitch":59,"articulation":"standard","articulation_tags":["standard","long"],"duration":0.034722222222222224,"velocity":111.4060446780088},
{"position":333.6458333333333,"instrument":"Marimba","level2":19,"level3":0,"pitch":48,"articulation":"hits","articulation_tags":["hits","short"],"duration":0.0625,"velocity":88.27142302453635},
{"position":333.6458333333333,"instrument":"Marimba","level2":19,"level3":1,"pitch":48,"articulation":"hits","articulation_tags":["hits","short"],"duration":0.0625,"velocity":88.27142302453635},
{"position":333.6458333333333,"instrument":"TheGrandeurPiano","level2":20,"level3":null,"pitch":68,"articulation":"standard","articulation_tags":["standard","long"],"duration":0.034722222222222224,"velocity":111.4060446780088},
{"position":333.6875,"instrument":"TheGrandeurPiano","level2":18,"level3":null,"pitch":25,"articulation":"standard","articulation_tags":["standard","long"],"duration":0.3125,"velocity":111.4060446780088},
{"position":333.6875,"instrument":"TheGrandeurPiano","level2":19,"level3":null,"pitch":59,"articulation":"standard","articulation_tags":["standard","long"],"duration":0.034722222222222224,"velocity":111.4060446780088},
{"position":333.7083333333333,"instrument":"TheGrandeurPiano","level2":20,"level3":null,"pitch":69,"articulation":"standard","articulation_tags":["standard","long"],"duration":0.041666666666666664,"velocity":109.40023540166025},
{"position":333.7083333333333,"instrument":"TheGrandeurPiano","level2":20,"level3":null,"pitch":69,"articulation":"standard","articulation_tags":["standard","long"],"duration":0.14583333333333334,"velocity":109.40023540166025},
{"position":333.7395833333333,"instrument":"TheGrandeurPiano","level2":19,"level3":null,"pitch":58,"articulation":"standard","articulation_tags":["standard","long"],"duration":0.041666666666666664,"velocity":109.40023540166025},
{"position":333.75,"instrument":"Marimba","level2":19,"level3":1,"pitch":48,"articulation":"hits","articulation_tags":["hits","short"],"duration":0.0625,"velocity":88.87736956191343},
{"position":333.7708333333333,"instrument":"TheGrandeurPiano","level2":20,"level3":null,"pitch":69,"articulation":"standard","articulation_tags":["standard","long"],"duration":0.04861111111111111,"velocity":109.40023540166025},
{"position":333.8020833333333,"instrument":"TheGrandeurPiano","level2":19,"level3":null,"pitch":58,"articulation":"standard","articulation_tags":["standard","long"],"duration":0.041666666666666664,"velocity":111.0572097086303},
{"position":333.8125,"instrument":"Marimba","level2":16,"level3":4,"pitch":37,"articulation":"hits","articulation_tags":["hits","short"],"duration":0.0625,"velocity":116.60490664570848},
{"position":333.8333333333333,"instrument":"TheGrandeurPiano","level2":20,"level3":null,"pitch":70,"articulation":"standard","articulation_tags":["standard","long"],"duration":0.04861111111111111,"velocity":111.0572097086303},
{"position":333.8645833333333,"instrument":"TheGrandeurPiano","level2":19,"level3":null,"pitch":57,"articulation":"standard","articulation_tags":["standard","long"],"duration":0.04861111111111111,"velocity":109.11526071636267},
{"position":333.875,"instrument":"Marimba","level2":19,"level3":1,"pitch":48,"articulation":"hits","articulation_tags":["hits","short"],"duration":0.0625,"velocity":89.46945985891519},
{"position":333.90625,"instrument":"TheGrandeurPiano","level2":15,"level3":null,"pitch":25,"articulation":"standard","articulation_tags":["standard","long"],"duration":0.4930555555555556,"velocity":109.11526071636267},
{"position":333.90625,"instrument":"Marimba","level2":19,"level3":0,"pitch":48,"articulation":"hits","articulation_tags":["hits","short"],"duration":0.0625,"velocity":89.46945985891519},
{"position":333.9166666666667,"instrument":"TheGrandeurPiano","level2":20,"level3":null,"pitch":70,"articulation":"standard","articulation_tags":["standard","long"],"duration":0.05555555555555555,"velocity":109.11526071636267},
{"position":333.9270833333333,"instrument":"TheGrandeurPiano","level2":20,"level3":null,"pitch":70,"articulation":"standard","articulation_tags":["standard","long"],"duration":0.1736111111111111,"velocity":110.84729290540398},
{"position":333.9375,"instrument":"TheGrandeurPiano","level2":19,"level3":null,"pitch":57,"articulation":"standard","articulation_tags":["standard","long"],"duration":0.04861111111111111,"velocity":110.84729290540398},
{"position":333.96875,"instrument":"TheGrandeurPiano","level2":16,"level3":null,"pitch":53,"articulation":"standard","articulation_tags":["standard","long"],"duration":1.8346456692913387,"velocity":110.84729290540398},
{"position":333.9895833333333,"instrument":"TheGrandeurPiano","level2":17,"level3":null,"pitch":41,"articulation":"standard","articulation_tags":["standard","long"],"duration":0.6944444444444444,"velocity":110.84729290540398},
{"position":334.0,"instrument":"TheGrandeurPiano","level2":20,"level3":null,"pitch":71,"articulation":"standard","articulation_tags":["standard","long"],"duration":0.0625,"velocity":110.84729290540398},
{"position":334.0104166666667,"instrument":"TheGrandeurPiano","level2":19,"level3":null,"pitch":56,"articulation":"standard","articulation_tags":["standard","long"],"duration":0.05555555555555555,"velocity":110.84729290540398},
{"position":334.03125,"instrument":"TheGrandeurPiano","level2":15,"level3":null,"pitch":25,"articulation":"standard","articulation_tags":["standard","long"],"duration":0.3819444444444444,"velocity":108.9724458152603},
{"position":334.0833333333333,"instrument":"TheGrandeurPiano","level2":17,"level3":null,"pitch":41,"articulation":"standard","articulation_tags":["standard","long"],"duration":1.4791666666666667,"velocity":108.9724458152603},
{"position":334.09375,"instrument":"TheGrandeurPiano","level2":20,"level3":null,"pitch":71,"articulation":"standard","articulation_tags":["standard","long"],"duration":0.06944444444444445,"velocity":110.7772173192543},
{"position":334.09375,"instrument":"TheGrandeurPiano","level2":19,"level3":null,"pitch":56,"articulation":"standard","articulation_tags":["standard","long"],"duration":0.05555555555555555,"velocity":110.7772173192543},
{"position":334.125,"instrument":"Marimba","level2":16,"level3":5,"pitch":37,"articulation":"hits","articulation_tags":["hits","short"],"duration":0.0625,"velocity":116.8919110787673},
{"position":334.15625,"instrument":"TheGrandeurPiano","level2":18,"level3":null,"pitch":25,"articulation":"standard","articulation_tags":["standard","long"],"duration":0.2986111111111111,"velocity":110.7772173192543},
{"position":334.1770833333333,"instrument":"TheGrandeurPiano","level2":19,"level3":null,"pitch":55,"articulation":"standard","articulation_tags":["standard","long"],"duration":0.0625,"velocity":108.9724458152603},
{"position":334.1875,"instrument":"TheGrandeurPiano","level2":20,"level3":null,"pitch":71,"articulation":"standard","articulation_tags":["standard","long"],"duration":0.1875,"velocity":108.9724458152603},
{"position":334.1875,"instrument":"TheGrandeurPiano","level2":20,"level3":null,"pitch":72,"articulation":"standard","articulation_tags":["standard","long"],"duration":0.06944444444444445,"velocity":108.9724458152603},
{"position":334.2708333333333,"instrument":"TheGrandeurPiano","level2":19,"level3":null,"pitch":55,"articulation":"standard","articulation_tags":["standard","long"],"duration":0.0625,"velocity":110.84729290540398},
{"position":334.2916666666667,"instrument":"TheGrandeurPiano","level2":20,"level3":null,"pitch":72,"articulation":"standard","articulation_tags":["standard","long"],"duration":0.0763888888888889,"velocity":110.84729290540398},
{"position":334.3645833333333,"instrument":"TheGrandeurPiano","level2":19,"level3":null,"pitch":54,"articulation":"standard","articulation_tags":["standard","long"],"duration":0.06944444444444445,"velocity":109.11526071636267},
{"position":334.4166666666667,"instrument":"Clarinet","level2":20,"level3":0,"pitch":73,"articulation":"trill_2M","articulation_tags":["trill_2M","long","trill","M2"],"duration":175.08333333333334,"velocity":33.836256958816776},
{"position":334.4166666666667,"instrument":"TheGrandeurPiano","level2":20,"level3":null,"pitch":73,"articulation":"standard","articulation_tags":["standard","long"],"duration":0.08333333333333333,"velocity":111.0572097086303},
{"position":334.4270833333333,"instrument":"Marimba","level2":19,"level3":0,"pitch":49,"articulation":"hits","articulation_tags":["hits","short"],"duration":0.0625,"velocity":91.24787934280712},
{"position":334.46875,"instrument":"TheGrandeurPiano","level2":19,"level3":null,"pitch":54,"articulation":"standard","articulation_tags":["standard","long"],"duration":0.06944444444444445,"velocity":109.40023540166025},
{"position":334.46875,"instrument":"TheGrandeurPiano","level2":20,"level3":null,"pitch":73,"articulation":"standard","articulation_tags":["standard","long"],"duration":0.20833333333333334,"velocity":109.40023540166025},
{"position":334.5416666666667,"instrument":"TheGrandeurPiano","level2":20,"level3":null,"pitch":73,"articulation":"standard","articulation_tags":["standard","long"],"duration":0.09027777777777778,"velocity":109.40023540166025},
{"position":334.5729166666667,"instrument":"TheGrandeurPiano","level2":19,"level3":null,"pitch":53,"articulation":"standard","articulation_tags":["standard","long"],"duration":0.0763888888888889,"velocity":107.7857444120977},
{"position":334.59375,"instrument":"Marimba","level2":16,"level3":4,"pitch":37,"articulation":"hits","articulation_tags":["hits","short"],"duration":0.0625,"velocity":116.8919110787673},
{"position":334.6041666666667,"instrument":"TheGrandeurPiano","level2":15,"level3":null,"pitch":25,"articulation":"standard","articulation_tags":["standard","long"],"duration":0.3611111111111111,"velocity":109.82607454913365},
{"position":334.6041666666667,"instrument":"TheGrandeurPiano","level2":18,"level3":null,"pitch":25,"articulation":"standard","articulation_tags":["standard","long"],"duration":0.2916666666666667,"velocity":109.82607454913365},
{"position":334.6458333333333,"instrument":"TheGrandeurPiano","level2":15,"level3":null,"pitch":25,"articulation":"standard","articulation_tags":["standard","long"],"duration":0.4791666666666667,"velocity":109.82607454913365},
{"position":334.6666666666667,"instrument":"TheGrandeurPiano","level2":20,"level3":null,"pitch":74,"articulation":"standard","articulation_tags":["standard","long"],"duration":0.09722222222222222,"velocity":109.82607454913365},
{"position":334.6875,"instrument":"TheGrandeurPiano","level2":19,"level3":null,"pitch":53,"articulation":"standard","articulation_tags":["standard","long"],"duration":0.0763888888888889,"velocity":109.82607454913365},
{"position":334.78125,"instrument":"TheGrandeurPiano","level2":20,"level3":null,"pitch":74,"articulation":"standard","articulation_tags":["standard","long"],"duration":0.2222222222222222,"velocity":108.29105708680173},
{"position":334.8020833333333,"instrument":"Clarinet","level2":20,"level3":1,"pitch":74,"articulation":"trill_2m","articulation_tags":["trill_2m","long","trill","m2"],"duration":13.78125,"velocity":32.92726454316002},
{"position":334.8020833333333,"instrument":"TheGrandeurPiano","level2":19,"level3":null,"pitch":52,"articulation":"standard","articulation_tags":["standard","long"],"duration":0.08333333333333333,"velocity":110.39087167156735},
{"position":334.8125,"instrument":"TheGrandeurPiano","level2":20,"level3":null,"pitch":74,"articulation":"standard","articulation_tags":["standard","long"],"duration":0.10416666666666667,"velocity":110.39087167156735},
{"position":334.84375,"instrument":"TheGrandeurPiano","level2":14,"level3":null,"pitch":33,"articulation":"standard","articulation_tags":["standard","long"],"duration":1.3888888888888888,"velocity":108.93670779901957},
{"position":334.9166666666667,"instrument":"TheGrandeurPiano","level2":19,"level3":null,"pitch":52,"articulation":"standard","articulation_tags":["standard","long"],"duration":0.5416666666666666,"velocity":108.93670779901957},
{"position":334.9166666666667,"instrument":"TheGrandeurPiano","level2":19,"level3":null,"pitch":52,"articulation":"standard","articulation_tags":["standard","long"],"duration":0.08333333333333333,"velocity":108.93670779901957},
{"position":334.96875,"instrument":"TheGrandeurPiano","level2":20,"level3":null,"pitch":75,"articulation":"standard","articulation_tags":["standard","long"],"duration":0.10416666666666667,"velocity":107.53204196796189},
{"position":335.0208333333333,"instrument":"TheGrandeurPiano","level2":17,"level3":null,"pitch":41,"articulation":"standard","articulation_tags":["standard","long"],"duration":0.6944444444444444,"velocity":109.71979615986196},
{"position":335.0416666666667,"instrument":"TheGrandeurPiano","level2":18,"level3":null,"pitch":25,"articulation":"standard","articulation_tags":["standard","long"],"duration":0.2847222222222222,"velocity":109.71979615986196},
{"position":335.0520833333333,"instrument":"TheGrandeurPiano","level2":19,"level3":null,"pitch":51,"articulation":"standard","articulation_tags":["standard","long"],"duration":0.09027777777777778,"velocity":109.71979615986196},
{"position":335.1041666666667,"instrument":"TheGrandeurPiano","level2":20,"level3":null,"pitch":75,"articulation":"standard","articulation_tags":["standard","long"],"duration":0.22916666666666666,"velocity":108.39897884312794},
{"position":335.125,"instrument":"TheGrandeurPiano","level2":20,"level3":null,"pitch":75,"articulation":"standard","articulation_tags":["standard","long"],"duration":0.11805555555555555,"velocity":108.39897884312794},
{"position":335.1458333333333,"instrument":"TheGrandeurPiano","level2":15,"level3":null,"pitch":25,"articulation":"standard","articulation_tags":["standard","long"],"duration":0.3402777777777778,"velocity":108.39897884312794},
{"position":335.1770833333333,"instrument":"TheGrandeurPiano","level2":19,"level3":null,"pitch":51,"articulation":"standard","articulation_tags":["standard","long"],"duration":0.09027777777777778,"velocity":108.39897884312794},
{"position":335.3020833333333,"instrument":"TheGrandeurPiano","level2":20,"level3":null,"pitch":76,"articulation":"standard","articulation_tags":["standard","long"],"duration":0.125,"velocity":109.40023540166025},
{"position":335.3125,"instrument":"TheGrandeurPiano","level2":19,"level3":null,"pitch":50,"articulation":"standard","articulation_tags":["standard","long"],"duration":0.09722222222222222,"velocity":109.40023540166025},
{"position":335.3645833333333,"instrument":"TheGrandeurPiano","level2":15,"level3":null,"pitch":24,"articulation":"standard","articulation_tags":["standard","long"],"duration":0.4722222222222222,"velocity":108.2190390835697},
{"position":335.4583333333333,"instrument":"TheGrandeurPiano","level2":20,"level3":null,"pitch":76,"articulation":"standard","articulation_tags":["standard","long"],"duration":0.24305555555555555,"velocity":107.09547966068735},
{"position":335.4583333333333,"instrument":"TheGrandeurPiano","level2":19,"level3":null,"pitch":50,"articulation":"standard","articulation_tags":["standard","long"],"duration":0.09722222222222222,"velocity":107.09547966068735},
{"position":335.46875,"instrument":"TheGrandeurPiano","level2":18,"level3":null,"pitch":25,"articulation":"standard","articulation_tags":["standard","long"],"duration":0.2777777777777778,"velocity":107.09547966068735},
{"position":335.4791666666667,"instrument":"TheGrandeurPiano","level2":20,"level3":null,"pitch":76,"articulation":"standard","articulation_tags":["standard","long"],"duration":0.13194444444444445,"velocity":107.09547966068735},
{"position":335.6041666666667,"instrument":"TheGrandeurPiano","level2":19,"level3":null,"pitch":49,"articulation":"standard","articulation_tags":["standard","long"],"duration":0.10416666666666667,"velocity":108.39897884312794},
{"position":335.65625,"instrument":"TheGrandeurPiano","level2":15,"level3":null,"pitch":24,"articulation":"standard","articulation_tags":["standard","long"],"duration":0.3263888888888889,"velocity":108.39897884312794},
{"position":335.6770833333333,"instrument":"TheGrandeurPiano","level2":20,"level3":null,"pitch":77,"articulation":"standard","articulation_tags":["standard","long"],"duration":0.1388888888888889,"velocity":107.42309682881687},
{"position":335.7291666666667,"instrument":"TheGrandeurPiano","level2":19,"level3":null,"pitch":49,"articulation":"standard","articulation_tags":["standard","long"],"duration":0.4375,"velocity":107.42309682881687},
{"position":335.75,"instrument":"TheGrandeurPiano","level2":19,"level3":null,"pitch":49,"articulation":"standard","articulation_tags":["standard","long"],"duration":0.10416666666666667,"velocity":107.42309682881687},
{"position":335.8125,"instrument":"TheGrandeurPiano","level2":20,"level3":null,"pitch":77,"articulation":"standard","articulation_tags":["standard","long"],"duration":0.25,"velocity":106.51012111908805},
{"position":335.8541666666667,"instrument":"TheGrandeurPiano","level2":14,"level3":null,"pitch":33,"articulation":"standard","articulation_tags":["standard","long"],"duration":1.5196850393700787,"velocity":108.93670779901957},
{"position":335.8854166666667,"instrument":"TheGrandeurPiano","level2":18,"level3":null,"pitch":25,"articulation":"standard","articulation_tags":["standard","long"],"duration":0.2638888888888889,"velocity":108.93670779901957},
{"position":335.8854166666667,"instrument":"TheGrandeurPiano","level2":20,"level3":null,"pitch":77,"articulation":"standard","articulation_tags":["standard","long"],"duration":0.14583333333333334,"velocity":108.93670779901957},
{"position":335.9166666666667,"instrument":"TheGrandeurPiano","level2":19,"level3":null,"pitch":48,"articulation":"standard","articulation_tags":["standard","long"],"duration":0.1111111111111111,"velocity":108.1109065010406},
{"position":335.9270833333333,"instrument":"Bassoon","level2":19,"level3":2,"pitch":48,"articulation":"legato","articulation_tags":["legato","lg"],"duration":0.22916666666666666,"velocity":61.75716459111207},
{"position":335.9270833333333,"instrument":"Marimba","level2":19,"level3":3,"pitch":48,"articulation":"hits","articulation_tags":["hits","short"],"duration":0.0625,"velocity":94.87858229555604},
{"position":335.9270833333333,"instrument":"Marimba","level2":19,"level3":1,"pitch":48,"articulation":"hits","articulation_tags":["hits","short"],"duration":0.0625,"velocity":94.87858229555604},
{"position":335.9583333333333,"instrument":"Marimba","level2":19,"level3":3,"pitch":48,"articulation":"hits","articulation_tags":["hits","short"],"duration":0.0625,"velocity":94.87858229555604},
{"position":336.0625,"instrument":"TheGrandeurPiano","level2":17,"level3":null,"pitch":41,"articulation":"standard","articulation_tags":["standard","long"],"duration":0.6944444444444444,"velocity":107.3503945534385},
{"position":336.0625,"instrument":"Marimba","level2":19,"level3":1,"pitch":47,"articulation":"hits","articulation_tags":["hits","short"],"duration":0.0625,"velocity":94.87858229555604},
{"position":336.0729166666667,"instrument":"TheGrandeurPiano","level2":19,"level3":null,"pitch":48,"articulation":"standard","articulation_tags":["standard","long"],"duration":0.1111111111111111,"velocity":107.3503945534385},
{"position":336.0833333333333,"instrument":"TheGrandeurPiano","level2":15,"level3":null,"pitch":24,"articulation":"standard","articulation_tags":["standard","long"],"duration":0.4652777777777778,"velocity":107.3503945534385},
{"position":336.09375,"instrument":"TheGrandeurPiano","level2":20,"level3":null,"pitch":78,"articulation":"standard","articulation_tags":["standard","long"],"duration":0.1527777777777778,"velocity":107.3503945534385},
{"position":336.1458333333333,"instrument":"TheGrandeurPiano","level2":15,"level3":null,"pitch":24,"articulation":"standard","articulation_tags":["standard","long"],"duration":0.3125,"velocity":106.65681509074024},
{"position":336.15625,"instrument":"Bassoon","level2":19,"level3":2,"pitch":48,"articulation":"legato","articulation_tags":["legato","lg"],"duration":2.875,"velocity":62.34991979359954},
{"position":336.1979166666667,"instrument":"Marimba","level2":19,"level3":0,"pitch":49,"articulation":"hits","articulation_tags":["hits","short"],"duration":0.0625,"velocity":95.17495989679978},
{"position":336.1979166666667,"instrument":"TheGrandeurPiano","level2":20,"level3":null,"pitch":78,"articulation":"standard","articulation_tags":["standard","long"],"duration":0.2638888888888889,"velocity":106.65681509074024},
{"position":336.2291666666667,"instrument":"Marimba","level2":16,"level3":0,"pitch":38,"articulation":"hits","articulation_tags":["hits","short"],"duration":0.0625,"velocity":116.8919110787673},
{"position":336.2395833333333,"instrument":"TheGrandeurPiano","level2":19,"level3":null,"pitch":47,"articulation":"standard","articulation_tags":["standard","long"],"duration":0.11805555555555555,"velocity":106.03171501435915},
{"position":336.25,"instrument":"BassClarinet","level2":16,"level3":2,"pitch":38,"articulation":"legato","articulation_tags":["legato","lg"],"duration":5.875,"velocity":105.7838221575346},
{"position":336.28125,"instrument":"TheGrandeurPiano","level2":18,"level3":null,"pitch":25,"articulation":"standard","articulation_tags":["standard","long"],"duration":0.2569444444444444,"velocity":106.03171501435915},
{"position":336.3020833333333,"instrument":"TheGrandeurPiano","level2":17,"level3":null,"pitch":42,"articulation":"standard","articulation_tags":["standard","long"],"duration":1.6614173228346456,"velocity":106.03171501435915},
{"position":336.3229166666667,"instrument":"Marimba","level2":19,"level3":3,"pitch":48,"articulation":"hits","articulation_tags":["hits","short"],"duration":0.0625,"velocity":95.47140084525154},
{"position":336.3333333333333,"instrument":"TheGrandeurPiano","level2":20,"level3":null,"pitch":78,"articulation":"standard","articulation_tags":["standard","long"],"duration":0.1597222222222222,"velocity":108.00264682817522},
{"position":336.3958333333333,"instrument":"TheGrandeurPiano","level2":19,"level3":null,"pitch":47,"articulation":"standard","articulation_tags":["standard","long"],"duration":0.3958333333333333,"velocity":108.00264682817522},
{"position":336.4166666666667,"instrument":"TheGrandeurPiano","level2":19,"level3":null,"pitch":47,"articulation":"standard","articulation_tags":["standard","long"],"duration":0.11805555555555555,"velocity":108.00264682817522},
{"position":336.5729166666667,"instrument":"TheGrandeurPiano","level2":20,"level3":null,"pitch":79,"articulation":"standard","articulation_tags":["standard","long"],"duration":0.1736111111111111,"velocity":107.13193973005222},
{"position":336.59375,"instrument":"TheGrandeurPiano","level2":19,"level3":null,"pitch":46,"articulation":"standard","articulation_tags":["standard","long"],"duration":0.125,"velocity":107.13193973005222},
{"position":336.59375,"instrument":"TheGrandeurPiano","level2":20,"level3":null,"pitch":79,"articulation":"standard","articulation_tags":["standard","long"],"duration":0.2708333333333333,"velocity":107.13193973005222},
{"position":336.625,"instrument":"TheGrandeurPiano","level2":15,"level3":null,"pitch":24,"articulation":"standard","articulation_tags":["standard","long"],"duration":0.2986111111111111,"velocity":107.13193973005222},
{"position":336.6666666666667,"instrument":"TheGrandeurPiano","level2":18,"level3":null,"pitch":25,"articulation":"standard","articulation_tags":["standard","long"],"duration":0.25,"velocity":106.80327207651354},
{"position":336.78125,"instrument":"TheGrandeurPiano","level2":19,"level3":null,"pitch":46,"articulation":"standard","articulation_tags":["standard","long"],"duration":0.125,"velocity":106.54681689238535},
{"position":336.78125,"instrument":"TheGrandeurPiano","level2":15,"level3":null,"pitch":24,"articulation":"standard","articulation_tags":["standard","long"],"duration":0.4583333333333333,"velocity":106.54681689238535},
{"position":336.8125,"instrument":"Marimba","level2":16,"level3":12,"pitch":38,"articulation":"hits","articulation_tags":["hits","short"],"duration":0.0625,"velocity":116.8919110787673},
{"position":336.8229166666667,"instrument":"Marimba","level2":16,"level3":1,"pitch":36,"articulation":"hits","articulation_tags":["hits","short"],"duration":0.0625,"velocity":116.8919110787673},
{"position":336.8333333333333,"instrument":"TheGrandeurPiano","level2":20,"level3":null,"pitch":79,"articulation":"standard","articulation_tags":["standard","long"],"duration":0.18055555555555555,"velocity":106.54681689238535},
{"position":336.9270833333333,"instrument":"TheGrandeurPiano","level2":14,"level3":null,"pitch":33,"articulation":"standard","articulation_tags":["standard","long"],"duration":1.2986111111111112,"velocity":106.3631890074012},
{"position":336.96875,"instrument":"TheGrandeurPiano","level2":19,"level3":null,"pitch":45,"articulation":"standard","articulation_tags":["standard","long"],"duration":0.13194444444444445,"velocity":106.3631890074012},
{"position":336.9895833333333,"instrument":"TheGrandeurPiano","level2":19,"level3":null,"pitch":45,"articulation":"standard","articulation_tags":["standard","long"],"duration":0.3611111111111111,"velocity":106.25283294464393},
{"position":337.0,"instrument":"TheGrandeurPiano","level2":20,"level3":null,"pitch":79,"articulation":"standard","articulation_tags":["standard","long"],"duration":0.2847222222222222,"velocity":106.25283294464393},
{"position":337.0520833333333,"instrument":"TheGrandeurPiano","level2":18,"level3":null,"pitch":25,"articulation":"standard","articulation_tags":["standard","long"],"duration":0.24305555555555555,"velocity":106.25283294464393},
{"position":337.0729166666667,"instrument":"TheGrandeurPiano","level2":15,"level3":null,"pitch":24,"articulation":"standard","articulation_tags":["standard","long"],"duration":0.2847222222222222,"velocity":106.25283294464393},
{"position":337.1041666666667,"instrument":"TheGrandeurPiano","level2":17,"level3":null,"pitch":42,"articulation":"standard","articulation_tags":["standard","long"],"duration":0.6944444444444444,"velocity":106.21601759212514},
{"position":337.1041666666667,"instrument":"TheGrandeurPiano","level2":20,"level3":null,"pitch":80,"articulation":"standard","articulation_tags":["standard","long"],"duration":0.19444444444444445,"velocity":106.21601759212514},
{"position":337.1666666666667,"instrument":"TheGrandeurPiano","level2":19,"level3":null,"pitch":45,"articulation":"standard","articulation_tags":["standard","long"],"duration":0.13194444444444445,"velocity":106.21601759212514},
{"position":337.3645833333333,"instrument":"TheGrandeurPiano","level2":19,"level3":null,"pitch":44,"articulation":"standard","articulation_tags":["standard","long"],"duration":0.1388888888888889,"velocity":106.3631890074012},
{"position":337.3958333333333,"instrument":"TheGrandeurPiano","level2":20,"level3":null,"pitch":80,"articulation":"standard","articulation_tags":["standard","long"],"duration":0.20833333333333334,"velocity":106.3631890074012},
{"position":337.4166666666667,"instrument":"TheGrandeurPiano","level2":18,"level3":null,"pitch":25,"articulation":"standard","articulation_tags":["standard","long"],"duration":0.2361111111111111,"velocity":106.54681689238535},
{"position":337.4270833333333,"instrument":"TheGrandeurPiano","level2":20,"level3":null,"pitch":80,"articulation":"standard","articulation_tags":["standard","long"],"duration":0.2916666666666667,"velocity":106.54681689238535},
{"position":337.4583333333333,"instrument":"TheGrandeurPiano","level2":15,"level3":null,"pitch":35,"articulation":"standard","articulation_tags":["standard","long"],"duration":0.4444444444444444,"velocity":106.54681689238535},
{"position":337.5,"instrument":"TheGrandeurPiano","level2":15,"level3":null,"pitch":35,"articulation":"standard","articulation_tags":["standard","long"],"duration":0.2708333333333333,"velocity":106.54681689238535},
{"position":337.5208333333333,"instrument":"Marimba","level2":19,"level3":2,"pitch":49,"articulation":"hits","articulation_tags":["hits","short"],"duration":0.0625,"velocity":97.41468146484196},
{"position":337.53125,"instrument":"TheGrandeurPiano","level2":19,"level3":null,"pitch":44,"articulation":"standard","articulation_tags":["standard","long"],"duration":0.3402777777777778,"velocity":106.80327207651354},
{"position":337.5729166666667,"instrument":"TheGrandeurPiano","level2":19,"level3":null,"pitch":44,"articulation":"standard","articulation_tags":["standard","long"],"duration":0.14583333333333334,"velocity":104.2428271281618},
{"position":337.7083333333333,"instrument":"TheGrandeurPiano","level2":20,"level3":null,"pitch":81,"articulation":"standard","articulation_tags":["standard","long"],"duration":0.2152777777777778,"velocity":104.58099547155233},
{"position":337.7708333333333,"instrument":"TheGrandeurPiano","level2":18,"level3":null,"pitch":25,"articulation":"standard","articulation_tags":["standard","long"],"duration":0.22916666666666666,"velocity":104.99256725476594},
{"position":337.7916666666667,"instrument":"TheGrandeurPiano","level2":19,"level3":null,"pitch":43,"articulation":"standard","articulation_tags":["standard","long"],"duration":0.14583333333333334,"velocity":104.99256725476594},
{"position":337.8541666666667,"instrument":"TheGrandeurPiano","level2":20,"level3":null,"pitch":81,"articulation":"standard","articulation_tags":["standard","long"],"duration":0.2986111111111111,"velocity":104.99256725476594},
{"position":337.90625,"instrument":"TheGrandeurPiano","level2":15,"level3":null,"pitch":35,"articulation":"standard","articulation_tags":["standard","long"],"duration":0.2638888888888889,"velocity":105.47652956591044},
{"position":338.0104166666667,"instrument":"TheGrandeurPiano","level2":19,"level3":null,"pitch":43,"articulation":"standard","articulation_tags":["standard","long"],"duration":0.1527777777777778,"velocity":106.03171501435915},
{"position":338.03125,"instrument":"TheGrandeurPiano","level2":20,"level3":null,"pitch":81,"articulation":"standard","articulation_tags":["standard","long"],"duration":0.22916666666666666,"velocity":106.03171501435915},
{"position":338.0416666666667,"instrument":"TheGrandeurPiano","level2":19,"level3":null,"pitch":43,"articulation":"standard","articulation_tags":["standard","long"],"duration":0.3263888888888889,"velocity":106.03171501435915},
{"position":338.1041666666667,"instrument":"TheGrandeurPiano","level2":18,"level3":null,"pitch":26,"articulation":"standard","articulation_tags":["standard","long"],"duration":1.4094488188976377,"velocity":104.16750246473082},
{"position":338.1041666666667,"instrument":"TheGrandeurPiano","level2":18,"level3":null,"pitch":26,"articulation":"standard","articulation_tags":["standard","long"],"duration":0.2222222222222222,"velocity":104.16750246473082},
{"position":338.125,"instrument":"TheGrandeurPiano","level2":15,"level3":null,"pitch":35,"articulation":"standard","articulation_tags":["standard","long"],"duration":0.4305555555555556,"velocity":104.16750246473082},
{"position":338.15625,"instrument":"TheGrandeurPiano","level2":17,"level3":null,"pitch":42,"articulation":"standard","articulation_tags":["standard","long"],"duration":0.7013888888888888,"velocity":104.16750246473082},
{"position":338.21875,"instrument":"Marimba","level2":19,"level3":4,"pitch":48,"articulation":"hits","articulation_tags":["hits","short"],"duration":0.0625,"velocity":98.45403828298886},
{"position":338.21875,"instrument":"Marimba","level2":19,"level3":4,"pitch":48,"articulation":"hits","articulation_tags":["hits","short"],"duration":0.0625,"velocity":98.45403828298886},
{"position":338.21875,"instrument":"Marimba","level2":19,"level3":5,"pitch":48,"articulation":"hits","articulation_tags":["hits","short"],"duration":0.0625,"velocity":98.45403828298886},
{"position":338.2395833333333,"instrument":"TheGrandeurPiano","level2":19,"level3":null,"pitch":42,"articulation":"standard","articulation_tags":["standard","long"],"duration":0.1527777777777778,"velocity":104.88050941314711},
{"position":338.2916666666667,"instrument":"TheGrandeurPiano","level2":15,"level3":null,"pitch":35,"articulation":"standard","articulation_tags":["standard","long"],"duration":0.25,"velocity":104.88050941314711},
{"position":338.3125,"instrument":"TheGrandeurPiano","level2":20,"level3":null,"pitch":81,"articulation":"standard","articulation_tags":["standard","long"],"duration":0.3055555555555556,"velocity":105.66197334943666},
{"position":338.3541666666667,"instrument":"Marimba","level2":19,"level3":3,"pitch":47,"articulation":"hits","articulation_tags":["hits","short"],"duration":0.0625,"velocity":98.76878536285845},
{"position":338.3854166666667,"instrument":"TheGrandeurPiano","level2":20,"level3":null,"pitch":82,"articulation":"standard","articulation_tags":["standard","long"],"duration":0.24305555555555555,"velocity":103.22045564022854},
{"position":338.4166666666667,"instrument":"Marimba","level2":19,"level3":4,"pitch":48,"articulation":"hits","articulation_tags":["hits","short"],"duration":0.0625,"velocity":98.76878536285845},
{"position":338.4375,"instrument":"TheGrandeurPiano","level2":18,"level3":null,"pitch":26,"articulation":"standard","articulation_tags":["standard","long"],"duration":0.2152777777777778,"velocity":104.09211339368565},
{"position":338.46875,"instrument":"TheGrandeurPiano","level2":19,"level3":null,"pitch":42,"articulation":"standard","articulation_tags":["standard","long"],"duration":0.1597222222222222,"velocity":104.09211339368565},
{"position":338.53125,"instrument":"TheGrandeurPiano","level2":19,"level3":null,"pitch":42,"articulation":"standard","articulation_tags":["standard","long"],"duration":0.3125,"velocity":104.09211339368565},
{"position":338.6666666666667,"instrument":"TheGrandeurPiano","level2":15,"level3":null,"pitch":35,"articulation":"standard","articulation_tags":["standard","long"],"duration":0.2361111111111111,"velocity":103.67631478514086},
{"position":338.7083333333333,"instrument":"TheGrandeurPiano","level2":19,"level3":null,"pitch":41,"articulation":"standard","articulation_tags":["standard","long"],"duration":0.16666666666666666,"velocity":103.67631478514086},
{"position":338.75,"instrument":"TheGrandeurPiano","level2":20,"level3":null,"pitch":82,"articulation":"standard","articulation_tags":["standard","long"],"duration":0.2638888888888889,"velocity":103.67631478514086},
{"position":338.75,"instrument":"TheGrandeurPiano","level2":18,"level3":null,"pitch":26,"articulation":"standard","articulation_tags":["standard","long"],"duration":0.20833333333333334,"velocity":103.67631478514086},
{"position":338.7708333333333,"instrument":"TheGrandeurPiano","level2":15,"level3":null,"pitch":34,"articulation":"standard","articulation_tags":["standard","long"],"duration":0.4166666666666667,"velocity":103.67631478514086},
{"position":338.7708333333333,"instrument":"TheGrandeurPiano","level2":20,"level3":null,"pitch":82,"articulation":"standard","articulation_tags":["standard","long"],"duration":0.3125,"velocity":103.67631478514086},
{"position":338.8125,"instrument":"TheGrandeurPiano","level2":17,"level3":null,"pitch":42,"articulation":"standard","articulation_tags":["standard","long"],"duration":1.6614173228346456,"velocity":104.7683101139535},
{"position":338.875,"instrument":"TheGrandeurPiano","level2":14,"level3":null,"pitch":34,"articulation":"standard","articulation_tags":["standard","long"],"duration":1.2361111111111112,"velocity":104.7683101139535},
{"position":338.9375,"instrument":"Marimba","level2":19,"level3":5,"pitch":48,"articulation":"hits","articulation_tags":["hits","short"],"duration":0.0625,"velocity":99.4485276857915},
{"position":338.9583333333333,"instrument":"TheGrandeurPiano","level2":19,"level3":null,"pitch":41,"articulation":"standard","articulation_tags":["standard","long"],"duration":0.16666666666666666,"velocity":103.63841708949299},
{"position":339.0,"instrument":"TheGrandeurPiano","level2":19,"level3":null,"pitch":41,"articulation":"standard","articulation_tags":["standard","long"],"duration":0.2986111111111111,"velocity":103.63841708949299},
{"position":339.0208333333333,"instrument":"TheGrandeurPiano","level2":15,"level3":null,"pitch":34,"articulation":"standard","articulation_tags":["standard","long"],"duration":0.22916666666666666,"velocity":103.63841708949299},
{"position":339.03125,"instrument":"Bassoon","level2":19,"level3":2,"pitch":49,"articulation":"legato","articulation_tags":["legato","lg"],"duration":10.447916666666666,"velocity":71.63189004015666},
{"position":339.0625,"instrument":"TheGrandeurPiano","level2":18,"level3":null,"pitch":26,"articulation":"standard","articulation_tags":["standard","long"],"duration":0.2013888888888889,"velocity":104.88050941314711},
{"position":339.1458333333333,"instrument":"TheGrandeurPiano","level2":20,"level3":null,"pitch":83,"articulation":"standard","articulation_tags":["standard","long"],"duration":0.2777777777777778,"velocity":102.64725914200362},
{"position":339.1979166666667,"instrument":"TheGrandeurPiano","level2":17,"level3":null,"pitch":42,"articulation":"standard","articulation_tags":["standard","long"],"duration":0.7013888888888888,"velocity":103.97890866061287},
{"position":339.21875,"instrument":"TheGrandeurPiano","level2":19,"level3":null,"pitch":40,"articulation":"standard","articulation_tags":["standard","long"],"duration":0.1736111111111111,"velocity":103.97890866061287},
{"position":339.2395833333333,"instrument":"TheGrandeurPiano","level2":20,"level3":null,"pitch":83,"articulation":"standard","articulation_tags":["standard","long"],"duration":0.3263888888888889,"velocity":103.97890866061287},
{"position":339.3645833333333,"instrument":"TheGrandeurPiano","level2":15,"level3":null,"pitch":34,"articulation":"standard","articulation_tags":["standard","long"],"duration":0.2152777777777778,"velocity":103.22045564022854},
{"position":339.3645833333333,"instrument":"TheGrandeurPiano","level2":18,"level3":null,"pitch":26,"articulation":"standard","articulation_tags":["standard","long"],"duration":0.19444444444444445,"velocity":103.22045564022854},
{"position":339.3958333333333,"instrument":"TheGrandeurPiano","level2":15,"level3":null,"pitch":34,"articulation":"standard","articulation_tags":["standard","long"],"duration":0.4027777777777778,"velocity":103.22045564022854},
{"position":339.4270833333333,"instrument":"Marimba","level2":16,"level3":2,"pitch":38,"articulation":"hits","articulation_tags":["hits","short"],"duration":0.0625,"velocity":116.8919110787673},
{"position":339.4375,"instrument":"Marimba","level2":19,"level3":3,"pitch":47,"articulation":"hits","articulation_tags":["hits","short"],"duration":0.0625,"velocity":100.12989034274146},
{"position":339.4479166666667,"instrument":"TheGrandeurPiano","level2":19,"level3":null,"pitch":40,"articulation":"standard","articulation_tags":["standard","long"],"duration":0.2916666666666667,"velocity":104.69343172853716},
{"position":339.4791666666667,"instrument":"TheGrandeurPiano","level2":19,"level3":null,"pitch":40,"articulation":"standard","articulation_tags":["standard","long"],"duration":0.18055555555555555,"velocity":104.69343172853716},
{"position":339.5625,"instrument":"TheGrandeurPiano","level2":20,"level3":null,"pitch":83,"articulation":"standard","articulation_tags":["standard","long"],"duration":0.2986111111111111,"velocity":102.60891116086358},
{"position":339.6458333333333,"instrument":"TheGrandeurPiano","level2":18,"level3":null,"pitch":26,"articulation":"standard","articulation_tags":["standard","long"],"duration":0.18055555555555555,"velocity":104.16750246473082},
{"position":339.6875,"instrument":"TheGrandeurPiano","level2":15,"level3":null,"pitch":34,"articulation":"standard","articulation_tags":["standard","long"],"duration":0.20833333333333334,"velocity":102.14740390897643},
{"position":339.7291666666667,"instrument":"TheGrandeurPiano","level2":20,"level3":null,"pitch":83,"articulation":"standard","articulation_tags":["standard","long"],"duration":0.3333333333333333,"velocity":103.78990971265786},
{"position":339.75,"instrument":"TheGrandeurPiano","level2":19,"level3":null,"pitch":39,"articulation":"standard","articulation_tags":["standard","long"],"duration":0.1875,"velocity":103.78990971265786},
{"position":339.8854166666667,"instrument":"TheGrandeurPiano","level2":19,"level3":null,"pitch":39,"articulation":"standard","articulation_tags":["standard","long"],"duration":0.2777777777777778,"velocity":103.56257249104551},
{"position":339.9270833333333,"instrument":"TheGrandeurPiano","level2":18,"level3":null,"pitch":26,"articulation":"standard","articulation_tags":["standard","long"],"duration":0.1736111111111111,"velocity":103.56257249104551},
{"position":340.0,"instrument":"TheGrandeurPiano","level2":15,"level3":null,"pitch":34,"articulation":"standard","articulation_tags":["standard","long"],"duration":0.19444444444444445,"velocity":101.68341092674996},
{"position":340.0,"instrument":"TheGrandeurPiano","level2":15,"level3":null,"pitch":33,"articulation":"standard","articulation_tags":["standard","long"],"duration":0.3819444444444444,"velocity":101.68341092674996},
{"position":340.0104166666667,"instrument":"TheGrandeurPiano","level2":20,"level3":null,"pitch":84,"articulation":"standard","articulation_tags":["standard","long"],"duration":0.3194444444444444,"velocity":101.68341092674996},
{"position":340.03125,"instrument":"TheGrandeurPiano","level2":19,"level3":null,"pitch":39,"articulation":"standard","articulation_tags":["standard","long"],"duration":0.1875,"velocity":103.48666214085013},
{"position":340.1875,"instrument":"TheGrandeurPiano","level2":18,"level3":null,"pitch":26,"articulation":"standard","articulation_tags":["standard","long"],"duration":0.1736111111111111,"velocity":103.56257249104551},
{"position":340.2291666666667,"instrument":"TheGrandeurPiano","level2":20,"level3":null,"pitch":84,"articulation":"standard","articulation_tags":["standard","long"],"duration":0.3402777777777778,"velocity":103.56257249104551},
{"position":340.2395833333333,"instrument":"Marimba","level2":16,"level3":12,"pitch":38,"articulation":"hits","articulation_tags":["hits","short"],"duration":0.0625,"velocity":116.8919110787673},
{"position":340.25,"instrument":"TheGrandeurPiano","level2":17,"level3":null,"pitch":42,"articulation":"standard","articulation_tags":["standard","long"],"duration":0.7013888888888888,"velocity":103.56257249104551},
{"position":340.2916666666667,"instrument":"TheGrandeurPiano","level2":15,"level3":null,"pitch":33,"articulation":"standard","articulation_tags":["standard","long"],"duration":0.1875,"velocity":101.83835393020402},
{"position":340.3125,"instrument":"TheGrandeurPiano","level2":19,"level3":null,"pitch":39,"articulation":"standard","articulation_tags":["standard","long"],"duration":0.2708333333333333,"velocity":101.83835393020402},
{"position":340.3125,"instrument":"TheGrandeurPiano","level2":19,"level3":null,"pitch":38,"articulation":"standard","articulation_tags":["standard","long"],"duration":0.19444444444444445,"velocity":101.83835393020402},
{"position":340.4479166666667,"instrument":"TheGrandeurPiano","level2":18,"level3":null,"pitch":26,"articulation":"standard","articulation_tags":["standard","long"],"duration":0.16666666666666666,"velocity":102.14740390897643},
{"position":340.4895833333333,"instrument":"TheGrandeurPiano","level2":20,"level3":null,"pitch":84,"articulation":"standard","articulation_tags":["standard","long"],"duration":0.3472222222222222,"velocity":102.14740390897643},
{"position":340.5,"instrument":"Cello","level2":19,"level3":6,"pitch":48,"articulation":"short_hrm","articulation_tags":["short_hrm","hrm_s","short","harmonics"],"duration":0.125,"velocity":101.55719901398672},
{"position":340.5,"instrument":"Cello","level2":19,"level3":7,"pitch":48,"articulation":"spiccato","articulation_tags":["spiccato","sp","short"],"duration":0.125,"velocity":101.55719901398672},
{"position":340.5104166666667,"instrument":"Cello","level2":19,"level3":0,"pitch":49,"articulation":"short_hrm","articulation_tags":["short_hrm","hrm_s","short","harmonics"],"duration":0.125,"velocity":101.55719901398672},
{"position":340.5729166666667,"instrument":"TheGrandeurPiano","level2":15,"level3":null,"pitch":33,"articulation":"standard","articulation_tags":["standard","long"],"duration":0.1736111111111111,"velocity":102.60891116086358},
{"position":340.5833333333333,"instrument":"TheGrandeurPiano","level2":15,"level3":null,"pitch":33,"articulation":"standard","articulation_tags":["standard","long"],"duration":0.3611111111111111,"velocity":102.60891116086358},
{"position":340.6041666666667,"instrument":"TheGrandeurPiano","level2":19,"level3":null,"pitch":38,"articulation":"standard","articulation_tags":["standard","long"],"duration":0.2013888888888889,"velocity":102.60891116086358},
{"position":340.6354166666667,"instrument":"Marimba","level2":19,"level3":6,"pitch":48,"articulation":"hits","articulation_tags":["hits","short"],"duration":0.0625,"velocity":101.86983768200247},
{"position":340.6666666666667,"instrument":"Marimba","level2":19,"level3":6,"pitch":48,"articulation":"hits","articulation_tags":["hits","short"],"duration":0.0625,"velocity":101.86983768200247},
{"position":340.6875,"instrument":"TheGrandeurPiano","level2":18,"level3":null,"pitch":26,"articulation":"standard","articulation_tags":["standard","long"],"duration":0.9305555555555556,"velocity":102.60891116086358},
{"position":340.6875,"instrument":"TheGrandeurPiano","level2":18,"level3":null,"pitch":26,"articulation":"standard","articulation_tags":["standard","long"],"duration":0.1597222222222222,"velocity":102.60891116086358},
{"position":340.71875,"instrument":"TheGrandeurPiano","level2":19,"level3":null,"pitch":38,"articulation":"standard","articulation_tags":["standard","long"],"duration":0.2638888888888889,"velocity":103.22045564022854},
{"position":340.7291666666667,"instrument":"TheGrandeurPiano","level2":14,"level3":null,"pitch":34,"articulation":"standard","articulation_tags":["standard","long"],"duration":1.1736111111111112,"velocity":103.22045564022854},
{"position":340.7395833333333,"instrument":"TheGrandeurPiano","level2":20,"level3":null,"pitch":84,"articulation":"standard","articulation_tags":["standard","long"],"duration":0.3472222222222222,"velocity":103.22045564022854},
{"position":340.78125,"instrument":"Marimba","level2":19,"level3":5,"pitch":47,"articulation":"hits","articulation_tags":["hits","short"],"duration":0.0625,"velocity":101.93265192593216},
{"position":340.8333333333333,"instrument":"TheGrandeurPiano","level2":15,"level3":null,"pitch":33,"articulation":"standard","articulation_tags":["standard","long"],"duration":0.16666666666666666,"velocity":101.79964441124335},
{"position":340.9166666666667,"instrument":"TheGrandeurPiano","level2":19,"level3":null,"pitch":37,"articulation":"standard","articulation_tags":["standard","long"],"duration":0.20833333333333334,"velocity":103.97890866061287},
{"position":340.9270833333333,"instrument":"TheGrandeurPiano","level2":18,"level3":null,"pitch":26,"articulation":"standard","articulation_tags":["standard","long"],"duration":0.1527777777777778,"velocity":103.97890866061287},
{"position":341.0104166666667,"instrument":"TheGrandeurPiano","level2":20,"level3":null,"pitch":85,"articulation":"standard","articulation_tags":["standard","long"],"duration":0.375,"velocity":102.64725914200362},
{"position":341.0833333333333,"instrument":"TheGrandeurPiano","level2":15,"level3":null,"pitch":33,"articulation":"standard","articulation_tags":["standard","long"],"duration":0.1597222222222222,"velocity":101.37268130516307},
{"position":341.1145833333333,"instrument":"TheGrandeurPiano","level2":16,"level3":null,"pitch":53,"articulation":"standard","articulation_tags":["standard","long"],"duration":1.8346456692913387,"velocity":101.37268130516307},
{"position":341.1145833333333,"instrument":"TheGrandeurPiano","level2":19,"level3":null,"pitch":37,"articulation":"standard","articulation_tags":["standard","long"],"duration":0.2569444444444444,"velocity":101.37268130516307},
{"position":341.125,"instrument":"TheGrandeurPiano","level2":15,"level3":null,"pitch":32,"articulation":"standard","articulation_tags":["standard","long"],"duration":0.3402777777777778,"velocity":101.37268130516307},
{"position":341.15625,"instrument":"TheGrandeurPiano","level2":18,"level3":null,"pitch":26,"articulation":"standard","articulation_tags":["standard","long"],"duration":0.14583333333333334,"velocity":103.63841708949299},
{"position":341.2291666666667,"instrument":"TheGrandeurPiano","level2":19,"level3":null,"pitch":37,"articulation":"standard","articulation_tags":["standard","long"],"duration":0.2152777777777778,"velocity":102.4553491408466},
{"position":341.2604166666667,"instrument":"TheGrandeurPiano","level2":20,"level3":null,"pitch":85,"articulation":"standard","articulation_tags":["standard","long"],"duration":0.3541666666666667,"velocity":102.4553491408466},
{"position":341.3020833333333,"instrument":"TheGrandeurPiano","level2":17,"level3":null,"pitch":42,"articulation":"standard","articulation_tags":["standard","long"],"duration":0.7013888888888888,"velocity":102.4553491408466},
{"position":341.3229166666667,"instrument":"Marimba","level2":16,"level3":5,"pitch":37,"articulation":"hits","articulation_tags":["hits","short"],"duration":0.0625,"velocity":116.60490664570848},
{"position":341.3229166666667,"instrument":"TheGrandeurPiano","level2":15,"level3":null,"pitch":32,"articulation":"standard","articulation_tags":["standard","long"],"duration":0.1527777777777778,"velocity":101.33376054576388},
{"position":341.3645833333333,"instrument":"TheGrandeurPiano","level2":18,"level3":null,"pitch":26,"articulation":"standard","articulation_tags":["standard","long"],"duration":0.1388888888888889,"velocity":101.33376054576388},
{"position":341.5104166666667,"instrument":"TheGrandeurPiano","level2":19,"level3":null,"pitch":37,"articulation":"standard","articulation_tags":["standard","long"],"duration":0.25,"velocity":102.64725914200362},
{"position":341.5520833333333,"instrument":"TheGrandeurPiano","level2":15,"level3":null,"pitch":32,"articulation":"standard","articulation_tags":["standard","long"],"duration":0.1388888888888889,"velocity":102.64725914200362},
{"position":341.5520833333333,"instrument":"TheGrandeurPiano","level2":19,"level3":null,"pitch":36,"articulation":"standard","articulation_tags":["standard","long"],"duration":0.2222222222222222,"velocity":101.68341092674996},
{"position":341.5729166666667,"instrument":"TheGrandeurPiano","level2":20,"level3":null,"pitch":85,"articulation":"standard","articulation_tags":["standard","long"],"duration":0.4097222222222222,"velocity":101.68341092674996},
{"position":341.5729166666667,"instrument":"TheGrandeurPiano","level2":18,"level3":null,"pitch":26,"articulation":"standard","articulation_tags":["standard","long"],"duration":0.13194444444444445,"velocity":101.68341092674996},
{"position":341.6354166666667,"instrument":"TheGrandeurPiano","level2":15,"level3":null,"pitch":32,"articulation":"standard","articulation_tags":["standard","long"],"duration":0.3194444444444444,"velocity":101.68341092674996},
{"position":341.7604166666667,"instrument":"TheGrandeurPiano","level2":17,"level3":null,"pitch":43,"articulation":"standard","articulation_tags":["standard","long"],"duration":1.6771653543307086,"velocity":103.22045564022854},
{"position":341.7604166666667,"instrument":"TheGrandeurPiano","level2":15,"level3":null,"pitch":32,"articulation":"standard","articulation_tags":["standard","long"],"duration":0.13194444444444445,"velocity":103.22045564022854},
{"position":341.7708333333333,"instrument":"TheGrandeurPiano","level2":18,"level3":null,"pitch":26,"articulation":"standard","articulation_tags":["standard","long"],"duration":0.125,"velocity":103.22045564022854},
{"position":341.8020833333333,"instrument":"TheGrandeurPiano","level2":20,"level3":null,"pitch":85,"articulation":"standard","articulation_tags":["standard","long"],"duration":0.3680555555555556,"velocity":102.4169159986314},
{"position":341.8854166666667,"instrument":"TheGrandeurPiano","level2":19,"level3":null,"pitch":36,"articulation":"standard","articulation_tags":["standard","long"],"duration":0.25,"velocity":102.4169159986314},
{"position":341.8854166666667,"instrument":"TheGrandeurPiano","level2":19,"level3":null,"pitch":36,"articulation":"standard","articulation_tags":["standard","long"],"duration":0.22916666666666666,"velocity":102.4169159986314},
{"position":341.9583333333333,"instrument":"TheGrandeurPiano","level2":18,"level3":null,"pitch":26,"articulation":"standard","articulation_tags":["standard","long"],"duration":0.11805555555555555,"velocity":101.68341092674996},
{"position":341.96875,"instrument":"TheGrandeurPiano","level2":15,"level3":null,"pitch":32,"articulation":"standard","articulation_tags":["standard","long"],"duration":0.125,"velocity":101.68341092674996},
{"position":342.0416666666667,"instrument":"Cello","level2":19,"level3":7,"pitch":48,"articulation":"staccato","articulation_tags":["staccato","st","short"],"duration":0.125,"velocity":103.38150050992341},
{"position":342.0833333333333,"instrument":"TheGrandeurPiano","level2":18,"level3":null,"pitch":27,"articulation":"standard","articulation_tags":["standard","long"],"duration":0.5486111111111112,"velocity":101.02175306398011},
{"position":342.1145833333333,"instrument":"TheGrandeurPiano","level2":15,"level3":null,"pitch":31,"articulation":"standard","articulation_tags":["standard","long"],"duration":0.2847222222222222,"velocity":103.52462554560533},
{"position":342.125,"instrument":"Marimba","level2":16,"level3":2,"pitch":37,"articulation":"hits","articulation_tags":["hits","short"],"duration":0.0625,"velocity":116.60490664570848},
{"position":342.1354166666667,"instrument":"TheGrandeurPiano","level2":18,"level3":null,"pitch":27,"articulation":"standard","articulation_tags":["standard","long"],"duration":0.1111111111111111,"velocity":102.95343415662711},
{"position":342.15625,"instrument":"TheGrandeurPiano","level2":15,"level3":null,"pitch":31,"articulation":"standard","articulation_tags":["standard","long"],"duration":0.11805555555555555,"velocity":102.95343415662711},
{"position":342.1875,"instrument":"TheGrandeurPiano","level2":20,"level3":null,"pitch":86,"articulation":"standard","articulation_tags":["standard","long"],"duration":0.4444444444444444,"velocity":102.95343415662711},
{"position":342.2395833333333,"instrument":"TheGrandeurPiano","level2":19,"level3":null,"pitch":35,"articulation":"standard","articulation_tags":["standard","long"],"duration":0.24305555555555555,"velocity":102.95343415662711},
{"position":342.25,"instrument":"TheGrandeurPiano","level2":19,"level3":null,"pitch":35,"articulation":"standard","articulation_tags":["standard","long"],"duration":0.24305555555555555,"velocity":102.4553491408466},
{"position":342.3020833333333,"instrument":"Marimba","level2":16,"level3":12,"pitch":38,"articulation":"hits","articulation_tags":["hits","short"],"duration":0.0625,"velocity":116.60490664570848},
{"position":342.3020833333333,"instrument":"TheGrandeurPiano","level2":18,"level3":null,"pitch":27,"articulation":"standard","articulation_tags":["standard","long"],"duration":0.10416666666666667,"velocity":102.4553491408466},
{"position":342.3333333333333,"instrument":"TheGrandeurPiano","level2":15,"level3":null,"pitch":31,"articulation":"standard","articulation_tags":["standard","long"],"duration":0.1111111111111111,"velocity":102.4553491408466},
{"position":342.34375,"instrument":"TheGrandeurPiano","level2":20,"level3":null,"pitch":86,"articulation":"standard","articulation_tags":["standard","long"],"duration":0.375,"velocity":102.4553491408466},
{"position":342.3541666666667,"instrument":"TheGrandeurPiano","level2":17,"level3":null,"pitch":43,"articulation":"standard","articulation_tags":["standard","long"],"duration":0.7013888888888888,"velocity":102.03164026800151},
{"position":342.4583333333333,"instrument":"TheGrandeurPiano","level2":18,"level3":null,"pitch":27,"articulation":"standard","articulation_tags":["standard","long"],"duration":0.09722222222222222,"velocity":102.03164026800151},
{"position":342.4895833333333,"instrument":"TheGrandeurPiano","level2":14,"level3":null,"pitch":35,"articulation":"standard","articulation_tags":["standard","long"],"duration":1.125,"velocity":101.68341092674996},
{"position":342.5,"instrument":"TheGrandeurPiano","level2":15,"level3":null,"pitch":31,"articulation":"standard","articulation_tags":["standard","long"],"duration":0.10416666666666667,"velocity":101.68341092674996},
{"position":342.5416666666667,"instrument":"TheGrandeurPiano","level2":15,"level3":null,"pitch":31,"articulation":"standard","articulation_tags":["standard","long"],"duration":0.2569444444444444,"velocity":101.68341092674996},
{"position":342.59375,"instrument":"TheGrandeurPiano","level2":19,"level3":null,"pitch":35,"articulation":"standard","articulation_tags":["standard","long"],"duration":0.25,"velocity":101.41158432896621},
{"position":342.6041666666667,"instrument":"TheGrandeurPiano","level2":18,"level3":null,"pitch":27,"articulation":"standard","articulation_tags":["standard","long"],"duration":0.09027777777777778,"velocity":101.41158432896621},
{"position":342.6145833333333,"instrument":"TheGrandeurPiano","level2":19,"level3":null,"pitch":35,"articulation":"standard","articulation_tags":["standard","long"],"duration":0.2361111111111111,"velocity":101.41158432896621},
{"position":342.6354166666667,"instrument":"Cello","level2":19,"level3":8,"pitch":48,"articulation":"spiccato","articulation_tags":["spiccato","sp","short"],"duration":0.125,"velocity":104.14857500474913},
{"position":342.6354166666667,"instrument":"Cello","level2":19,"level3":9,"pitch":48,"articulation":"staccato","articulation_tags":["staccato","st","short"],"duration":0.125,"velocity":104.14857500474913},
{"position":342.6458333333333,"instrument":"TheGrandeurPiano","level2":15,"level3":null,"pitch":31,"articulation":"standard","articulation_tags":["standard","long"],"duration":0.09722222222222222,"velocity":101.41158432896621},
{"position":342.75,"instrument":"TheGrandeurPiano","level2":18,"level3":null,"pitch":27,"articulation":"standard","articulation_tags":["standard","long"],"duration":0.09027777777777778,"velocity":101.21689161092571},
{"position":342.7708333333333,"instrument":"Cello","level2":19,"level3":10,"pitch":48,"articulation":"short_hrm","articulation_tags":["short_hrm","hrm_s","short","harmonics"],"duration":0.125,"velocity":104.14857500474913},
{"position":342.7708333333333,"instrument":"Cello","level2":19,"level3":11,"pitch":48,"articulation":"spiccato","articulation_tags":["spiccato","sp","short"],"duration":0.125,"velocity":104.14857500474913},
{"position":342.7916666666667,"instrument":"TheGrandeurPiano","level2":15,"level3":null,"pitch":31,"articulation":"standard","articulation_tags":["standard","long"],"duration":0.09027777777777778,"velocity":101.21689161092571},
{"position":342.8020833333333,"instrument":"Cello","level2":19,"level3":9,"pitch":48,"articulation":"staccato","articulation_tags":["staccato","st","short"],"duration":0.125,"velocity":104.14857500474913},
{"position":342.8541666666667,"instrument":"TheGrandeurPiano","level2":20,"level3":null,"pitch":86,"articulation":"standard","articulation_tags":["standard","long"],"duration":0.4930555555555556,"velocity":101.09986217835345},
{"position":342.875,"instrument":"TheGrandeurPiano","level2":18,"level3":null,"pitch":27,"articulation":"standard","articulation_tags":["standard","long"],"duration":0.08333333333333333,"velocity":101.09986217835345},
{"position":342.8854166666667,"instrument":"Marimba","level2":16,"level3":1,"pitch":37,"articulation":"hits","articulation_tags":["hits","short"],"duration":0.0625,"velocity":116.60490664570848},
{"position":342.90625,"instrument":"TheGrandeurPiano","level2":20,"level3":null,"pitch":86,"articulation":"standard","articulation_tags":["standard","long"],"duration":0.3819444444444444,"velocity":101.06081658686085},
{"position":342.90625,"instrument":"TheGrandeurPiano","level2":18,"level3":null,"pitch":27,"articulation":"standard","articulation_tags":["standard","long"],"duration":0.3194444444444444,"velocity":101.06081658686085},
{"position":342.9270833333333,"instrument":"Cello","level2":19,"level3":10,"pitch":48,"articulation":"short_hrm","articulation_tags":["short_hrm","hrm_s","short","harmonics"],"duration":0.125,"velocity":104.14857500474913},
{"position":342.9270833333333,"instrument":"TheGrandeurPiano","level2":15,"level3":null,"pitch":30,"articulation":"standard","articulation_tags":["standard","long"],"duration":0.2152777777777778,"velocity":101.06081658686085},
{"position":342.9270833333333,"instrument":"TheGrandeurPiano","level2":15,"level3":null,"pitch":30,"articulation":"standard","articulation_tags":["standard","long"],"duration":0.08333333333333333,"velocity":101.06081658686085},
{"position":342.96875,"instrument":"TheGrandeurPiano","level2":19,"level3":null,"pitch":34,"articulation":"standard","articulation_tags":["standard","long"],"duration":0.2569444444444444,"velocity":101.06081658686085},
{"position":342.96875,"instrument":"TheGrandeurPiano","level2":19,"level3":null,"pitch":34,"articulation":"standard","articulation_tags":["standard","long"],"duration":0.22916666666666666,"velocity":101.06081658686085},
{"position":343.0,"instrument":"TheGrandeurPiano","level2":18,"level3":null,"pitch":27,"articulation":"standard","articulation_tags":["standard","long"],"duration":0.0763888888888889,"velocity":101.06081658686085},
{"position":343.0520833333333,"instrument":"TheGrandeurPiano","level2":15,"level3":null,"pitch":30,"articulation":"standard","articulation_tags":["standard","long"],"duration":0.0763888888888889,"velocity":101.09986217835345},
{"position":343.1041666666667,"instrument":"TheGrandeurPiano","level2":18,"level3":null,"pitch":27,"articulation":"standard","articulation_tags":["standard","long"],"duration":0.06944444444444445,"velocity":101.09986217835345},
{"position":343.15625,"instrument":"TheGrandeurPiano","level2":15,"level3":null,"pitch":30,"articulation":"standard","articulation_tags":["standard","long"],"duration":0.06944444444444445,"velocity":101.21689161092571},
{"position":343.2083333333333,"instrument":"TheGrandeurPiano","level2":18,"level3":null,"pitch":27,"articulation":"standard","articulation_tags":["standard","long"],"duration":0.0625,"velocity":101.21689161092571},
{"position":343.2395833333333,"instrument":"TheGrandeurPiano","level2":15,"level3":null,"pitch":30,"articulation":"standard","articulation_tags":["standard","long"],"duration":0.16666666666666666,"velocity":101.41158432896621},
{"position":343.2604166666667,"instrument":"TheGrandeurPiano","level2":15,"level3":null,"pitch":30,"articulation":"standard","articulation_tags":["standard","long"],"duration":0.0625,"velocity":101.41158432896621},
{"position":343.2708333333333,"instrument":"Cello","level2":19,"level3":4,"pitch":49,"articulation":"short_hrm","articulation_tags":["short_hrm","hrm_s","short","harmonics"],"duration":0.125,"velocity":104.53469192852577},
{"position":343.3020833333333,"instrument":"TheGrandeurPiano","level2":18,"level3":null,"pitch":27,"articulation":"standard","articulation_tags":["standard","long"],"duration":0.05555555555555555,"velocity":101.41158432896621},
{"position":343.3229166666667,"instrument":"TheGrandeurPiano","level2":19,"level3":null,"pitch":34,"articulation":"standard","articulation_tags":["standard","long"],"duration":0.22916666666666666,"velocity":101.41158432896621},
{"position":343.3541666666667,"instrument":"TheGrandeurPiano","level2":15,"level3":null,"pitch":30,"articulation":"standard","articulation_tags":["standard","long"],"duration":0.05555555555555555,"velocity":101.68341092674996},
{"position":343.3541666666667,"instrument":"TheGrandeurPiano","level2":19,"level3":null,"pitch":34,"articulation":"standard","articulation_tags":["standard","long"],"duration":0.2708333333333333,"velocity":101.68341092674996},
{"position":343.3854166666667,"instrument":"TheGrandeurPiano","level2":18,"level3":null,"pitch":27,"articulation":"standard","articulation_tags":["standard","long"],"duration":0.04861111111111111,"velocity":101.68341092674996},
{"position":343.3854166666667,"instrument":"TheGrandeurPiano","level2":18,"level3":null,"pitch":28,"articulation":"standard","articulation_tags":["standard","long"],"duration":0.16666666666666666,"velocity":101.68341092674996},
{"position":343.4166666666667,"instrument":"TheGrandeurPiano","level2":17,"level3":null,"pitch":43,"articulation":"standard","articulation_tags":["standard","long"],"duration":0.7083333333333334,"velocity":101.68341092674996},
{"position":343.4270833333333,"instrument":"Marimba","level2":16,"level3":3,"pitch":36,"articulation":"hits","articulation_tags":["hits","short"],"duration":0.0625,"velocity":116.60490664570848},
{"position":343.4270833333333,"instrument":"TheGrandeurPiano","level2":15,"level3":null,"pitch":30,"articulation":"standard","articulation_tags":["standard","long"],"duration":0.04861111111111111,"velocity":101.68341092674996},
{"position":343.4479166666667,"instrument":"Cello","level2":19,"level3":9,"pitch":48,"articulation":"staccato","articulation_tags":["staccato","st","short"],"duration":0.125,"velocity":104.92244804744973},
{"position":343.4583333333333,"instrument":"TheGrandeurPiano","level2":18,"level3":null,"pitch":28,"articulation":"standard","articulation_tags":["standard","long"],"duration":0.041666666666666664,"velocity":102.03164026800151},
{"position":343.4791666666667,"instrument":"TheGrandeurPiano","level2":20,"level3":null,"pitch":86,"articulation":"standard","articulation_tags":["standard","long"],"duration":0.3958333333333333,"velocity":102.03164026800151},
{"position":343.4895833333333,"instrument":"TheGrandeurPiano","level2":15,"level3":null,"pitch":29,"articulation":"standard","articulation_tags":["standard","long"],"duration":0.1111111111111111,"velocity":102.03164026800151},
{"position":343.5,"instrument":"Vibraphone","level2":20,"level3":0,"pitch":73,"articulation":"hits","articulation_tags":["hits","short"],"duration":0.0625,"velocity":83.44996641803613},
{"position":343.5,"instrument":"TheGrandeurPiano","level2":15,"level3":null,"pitch":29,"articulation":"standard","articulation_tags":["standard","long"],"duration":0.041666666666666664,"velocity":102.03164026800151},
{"position":343.5104166666667,"instrument":"TheGrandeurPiano","level2":16,"level3":null,"pitch":53,"articulation":"standard","articulation_tags":["standard","long"],"duration":1.2083333333333333,"velocity":102.03164026800151},
{"position":343.5208333333333,"instrument":"TheGrandeurPiano","level2":18,"level3":null,"pitch":28,"articulation":"standard","articulation_tags":["standard","long"],"duration":0.034722222222222224,"velocity":102.03164026800151},
{"position":343.5625,"instrument":"TheGrandeurPiano","level2":15,"level3":null,"pitch":29,"articulation":"standard","articulation_tags":["standard","long"],"duration":0.034722222222222224,"velocity":102.4553491408466},
{"position":343.5729166666667,"instrument":"TheGrandeurPiano","level2":18,"level3":null,"pitch":28,"articulation":"standard","articulation_tags":["standard","long"],"duration":0.027777777777777776,"velocity":102.4553491408466},
{"position":343.59375,"instrument":"TheGrandeurPiano","level2":20,"level3":null,"pitch":87,"articulation":"standard","articulation_tags":["standard","long"],"duration":0.5555555555555556,"velocity":102.4553491408466},
{"position":343.6145833333333,"instrument":"TheGrandeurPiano","level2":15,"level3":null,"pitch":29,"articulation":"standard","articulation_tags":["standard","long"],"duration":0.027777777777777776,"velocity":102.4553491408466},
{"position":343.625,"instrument":"TheGrandeurPiano","level2":18,"level3":null,"pitch":28,"articulation":"standard","articulation_tags":["standard","long"],"duration":0.027777777777777776,"velocity":102.4553491408466},
{"position":343.6354166666667,"instrument":"TheGrandeurPiano","level2":18,"level3":null,"pitch":28,"articulation":"standard","articulation_tags":["standard","long"],"duration":0.04861111111111111,"velocity":102.4553491408466},
{"position":343.6458333333333,"instrument":"TheGrandeurPiano","level2":15,"level3":null,"pitch":29,"articulation":"standard","articulation_tags":["standard","long"],"duration":0.020833333333333332,"velocity":102.4553491408466},
{"position":343.65625,"instrument":"TheGrandeurPiano","level2":19,"level3":null,"pitch":34,"articulation":"standard","articulation_tags":["standard","long"],"duration":0.2222222222222222,"velocity":102.4553491408466},
{"position":343.65625,"instrument":"TheGrandeurPiano","level2":18,"level3":null,"pitch":28,"articulation":"standard","articulation_tags":["standard","long"],"duration":0.020833333333333332,"velocity":102.4553491408466},
{"position":343.65625,"instrument":"TheGrandeurPiano","level2":15,"level3":null,"pitch":29,"articulation":"standard","articulation_tags":["standard","long"],"duration":0.041666666666666664,"velocity":102.4553491408466},
{"position":343.6770833333333,"instrument":"TheGrandeurPiano","level2":15,"level3":null,"pitch":29,"articulation":"standard","articulation_tags":["standard","long"],"duration":0.013888888888888888,"velocity":102.95343415662711},
{"position":343.6875,"instrument":"TheGrandeurPiano","level2":18,"level3":null,"pitch":28,"articulation":"standard","articulation_tags":["standard","long"],"duration":0.013888888888888888,"velocity":102.95343415662711},
{"position":343.6979166666667,"instrument":"TheGrandeurPiano","level2":15,"level3":null,"pitch":29,"articulation":"standard","articulation_tags":["standard","long"],"duration":0.006944444444444444,"velocity":102.95343415662711},
{"position":343.7083333333333,"instrument":"TheGrandeurPiano","level2":18,"level3":null,"pitch":28,"articulation":"standard","articulation_tags":["standard","long"],"duration":0.006944444444444444,"velocity":102.95343415662711},
{"position":343.7083333333333,"instrument":"TheGrandeurPiano","level2":18,"level3":null,"pitch":28,"articulation":"standard","articulation_tags":["standard","long"],"duration":0.0,"velocity":102.95343415662711},
{"position":343.7083333333333,"instrument":"TheGrandeurPiano","level2":15,"level3":null,"pitch":29,"articulation":"standard","articulation_tags":["standard","long"],"duration":0.0,"velocity":102.95343415662711},
{"position":343.7083333333333,"instrument":"TheGrandeurPiano","level2":15,"level3":null,"pitch":28,"articulation":"standard","articulation_tags":["standard","long"],"duration":0.0,"velocity":102.95343415662711},
{"position":343.7395833333333,"instrument":"Marimba","level2":19,"level3":4,"pitch":49,"articulation":"hits","articulation_tags":["hits","short"],"duration":0.0625,"velocity":105.0040670770475},
{"position":343.7604166666667,"instrument":"TheGrandeurPiano","level2":19,"level3":null,"pitch":33,"articulation":"standard","articulation_tags":["standard","long"],"duration":0.2847222222222222,"velocity":102.95343415662711},
{"position":343.9895833333333,"instrument":"TheGrandeurPiano","level2":19,"level3":null,"pitch":33,"articulation":"standard","articulation_tags":["standard","long"],"duration":0.2152777777777778,"velocity":101.68341092674996},
{"position":344.0729166666667,"instrument":"TheGrandeurPiano","level2":20,"level3":null,"pitch":87,"articulation":"standard","articulation_tags":["standard","long"],"duration":0.4027777777777778,"velocity":102.4169159986314},
{"position":344.0833333333333,"instrument":"Marimba","level2":16,"level3":5,"pitch":37,"articulation":"hits","articulation_tags":["hits","short"],"duration":0.0625,"velocity":116.74466838514303},
{"position":344.1041666666667,"instrument":"Marimba","level2":19,"level3":7,"pitch":47,"articulation":"hits","articulation_tags":["hits","short"],"duration":0.0625,"velocity":105.39549376692113},
{"position":344.125,"instrument":"BassClarinet","level2":16,"level3":5,"pitch":37,"articulation":"legato","articulation_tags":["legato","lg"],"duration":0.010416666666666666,"velocity":105.48933677028606},
{"position":344.1354166666667,"instrument":"BassClarinet","level2":19,"level3":9,"pitch":49,"articulation":"legato","articulation_tags":["legato","lg"],"duration":0.78125,"velocity":82.79098753384226},
{"position":344.1770833333333,"instrument":"TheGrandeurPiano","level2":14,"level3":null,"pitch":35,"articulation":"standard","articulation_tags":["standard","long"],"duration":1.0763888888888888,"velocity":103.22045564022854},
{"position":344.1875,"instrument":"TheGrandeurPiano","level2":19,"level3":null,"pitch":33,"articulation":"standard","articulation_tags":["standard","long"],"duration":0.2986111111111111,"velocity":103.22045564022854},
{"position":344.3125,"instrument":"TheGrandeurPiano","level2":19,"level3":null,"pitch":33,"articulation":"standard","articulation_tags":["standard","long"],"duration":0.2152777777777778,"velocity":101.68341092674996},
{"position":344.4166666666667,"instrument":"TheGrandeurPiano","level2":20,"level3":null,"pitch":87,"articulation":"standard","articulation_tags":["standard","long"],"duration":0.6319444444444444,"velocity":102.64725914200362},
{"position":344.4166666666667,"instrument":"TheGrandeurPiano","level2":14,"level3":null,"pitch":35,"articulation":"standard","articulation_tags":["standard","long"],"duration":1.5511811023622046,"velocity":102.64725914200362},
{"position":344.4270833333333,"instrument":"Marimba","level2":19,"level3":4,"pitch":48,"articulation":"hits","articulation_tags":["hits","short"],"duration":0.0625,"velocity":105.78839544505676},
{"position":344.46875,"instrument":"TheGrandeurPiano","level2":17,"level3":null,"pitch":43,"articulation":"standard","articulation_tags":["standard","long"],"duration":0.7083333333333334,"velocity":102.64725914200362},
{"position":344.6354166666667,"instrument":"TheGrandeurPiano","level2":19,"level3":null,"pitch":32,"articulation":"standard","articulation_tags":["standard","long"],"duration":0.3125,"velocity":102.4553491408466},
{"position":344.6354166666667,"instrument":"TheGrandeurPiano","level2":19,"level3":null,"pitch":32,"articulation":"standard","articulation_tags":["standard","long"],"duration":0.20833333333333334,"velocity":102.4553491408466},
{"position":344.65625,"instrument":"Marimba","level2":16,"level3":1,"pitch":37,"articulation":"hits","articulation_tags":["hits","short"],"duration":0.0625,"velocity":116.74466838514303},
{"position":344.6770833333333,"instrument":"Marimba","level2":16,"level3":0,"pitch":38,"articulation":"hits","articulation_tags":["hits","short"],"duration":0.0625,"velocity":116.74466838514303},
{"position":344.6770833333333,"instrument":"TheGrandeurPiano","level2":20,"level3":null,"pitch":87,"articulation":"standard","articulation_tags":["standard","long"],"duration":0.4097222222222222,"velocity":102.4553491408466},
{"position":344.7291666666667,"instrument":"Marimba","level2":19,"level3":12,"pitch":48,"articulation":"hits","articulation_tags":["hits","short"],"duration":0.0625,"velocity":106.18272125023758},
{"position":344.8645833333333,"instrument":"Marimba","level2":19,"level3":4,"pitch":48,"articulation":"hits","articulation_tags":["hits","short"],"duration":0.0625,"velocity":106.18272125023758},
{"position":344.9479166666667,"instrument":"TheGrandeurPiano","level2":19,"level3":null,"pitch":32,"articulation":"standard","articulation_tags":["standard","long"],"duration":0.20833333333333334,"velocity":102.64725914200362},
{"position":345.1041666666667,"instrument":"TheGrandeurPiano","level2":19,"level3":null,"pitch":32,"articulation":"standard","articulation_tags":["standard","long"],"duration":0.3333333333333333,"velocity":101.79964441124335},
{"position":345.1979166666667,"instrument":"Marimba","level2":19,"level3":8,"pitch":48,"articulation":"hits","articulation_tags":["hits","short"],"duration":0.0625,"velocity":106.57842246106961},
{"position":345.2604166666667,"instrument":"TheGrandeurPiano","level2":19,"level3":null,"pitch":32,"articulation":"standard","articulation_tags":["standard","long"],"duration":0.2013888888888889,"velocity":102.60891116086358},
{"position":345.2916666666667,"instrument":"TheGrandeurPiano","level2":20,"level3":null,"pitch":87,"articulation":"standard","articulation_tags":["standard","long"],"duration":0.4236111111111111,"velocity":102.60891116086358},
{"position":345.3229166666667,"instrument":"TheGrandeurPiano","level2":16,"level3":null,"pitch":52,"articulation":"standard","articulation_tags":["standard","long"],"duration":0.2708333333333333,"velocity":102.60891116086358},
{"position":345.3645833333333,"instrument":"TheGrandeurPiano","level2":20,"level3":null,"pitch":88,"articulation":"standard","articulation_tags":["standard","long"],"duration":0.7361111111111112,"velocity":102.60891116086358},
{"position":345.5,"instrument":"TheGrandeurPiano","level2":16,"level3":null,"pitch":52,"articulation":"standard","articulation_tags":["standard","long"],"duration":0.6319444444444444,"velocity":102.14740390897643},
{"position":345.5104166666667,"instrument":"TheGrandeurPiano","level2":17,"level3":null,"pitch":43,"articulation":"standard","articulation_tags":["standard","long"],"duration":1.6771653543307086,"velocity":102.14740390897643},
{"position":345.53125,"instrument":"TheGrandeurPiano","level2":17,"level3":null,"pitch":43,"articulation":"standard","articulation_tags":["standard","long"],"duration":0.7083333333333334,"velocity":103.78990971265786},
{"position":345.5625,"instrument":"TheGrandeurPiano","level2":19,"level3":null,"pitch":32,"articulation":"standard","articulation_tags":["standard","long"],"duration":0.19444444444444445,"velocity":103.78990971265786},
{"position":345.59375,"instrument":"TheGrandeurPiano","level2":19,"level3":null,"pitch":31,"articulation":"standard","articulation_tags":["standard","long"],"duration":0.3541666666666667,"velocity":101.83835393020402},
{"position":345.6666666666667,"instrument":"Cello","level2":19,"level3":13,"pitch":48,"articulation":"short_hrm","articulation_tags":["short_hrm","hrm_s","short","harmonics"],"duration":0.125,"velocity":107.06966546646224},
{"position":345.7291666666667,"instrument":"TheGrandeurPiano","level2":16,"level3":null,"pitch":52,"articulation":"standard","articulation_tags":["standard","long"],"duration":0.2638888888888889,"velocity":103.56257249104551},
{"position":345.8020833333333,"instrument":"TheGrandeurPiano","level2":14,"level3":null,"pitch":24,"articulation":"standard","articulation_tags":["standard","long"],"duration":1.0347222222222223,"velocity":101.68341092674996},
{"position":345.8541666666667,"instrument":"TheGrandeurPiano","level2":19,"level3":null,"pitch":31,"articulation":"standard","articulation_tags":["standard","long"],"duration":0.19444444444444445,"velocity":103.48666214085013},
{"position":345.9270833333333,"instrument":"TheGrandeurPiano","level2":20,"level3":null,"pitch":88,"articulation":"standard","articulation_tags":["standard","long"],"duration":0.4305555555555556,"velocity":101.68341092674996},
{"position":346.1354166666667,"instrument":"TheGrandeurPiano","level2":16,"level3":null,"pitch":51,"articulation":"standard","articulation_tags":["standard","long"],"duration":0.2569444444444444,"velocity":101.83835393020402},
{"position":346.1354166666667,"instrument":"TheGrandeurPiano","level2":19,"level3":null,"pitch":31,"articulation":"standard","articulation_tags":["standard","long"],"duration":0.3819444444444444,"velocity":101.83835393020402},
{"position":346.1458333333333,"instrument":"TheGrandeurPiano","level2":19,"level3":null,"pitch":31,"articulation":"standard","articulation_tags":["standard","long"],"duration":0.1875,"velocity":103.78990971265786},
{"position":346.3333333333333,"instrument":"Marimba","level2":16,"level3":12,"pitch":37,"articulation":"hits","articulation_tags":["hits","short"],"duration":0.0625,"velocity":116.8919110787673},
{"position":346.4270833333333,"instrument":"TheGrandeurPiano","level2":19,"level3":null,"pitch":31,"articulation":"standard","articulation_tags":["standard","long"],"duration":0.1875,"velocity":102.60891116086358},
{"position":346.4479166666667,"instrument":"TheGrandeurPiano","level2":16,"level3":null,"pitch":51,"articulation":"standard","articulation_tags":["standard","long"],"duration":0.5416666666666666,"velocity":102.60891116086358},
{"position":346.46875,"instrument":"TheGrandeurPiano","level2":20,"level3":null,"pitch":88,"articulation":"standard","articulation_tags":["standard","long"],"duration":0.9097222222222222,"velocity":102.60891116086358},
{"position":346.5208333333333,"instrument":"TheGrandeurPiano","level2":16,"level3":null,"pitch":51,"articulation":"standard","articulation_tags":["standard","long"],"duration":0.2569444444444444,"velocity":103.22045564022854},
{"position":346.5729166666667,"instrument":"TheGrandeurPiano","level2":20,"level3":null,"pitch":88,"articulation":"standard","articulation_tags":["standard","long"],"duration":0.4444444444444444,"velocity":103.22045564022854},
{"position":346.5833333333333,"instrument":"Marimba","level2":19,"level3":0,"pitch":49,"articulation":"hits","articulation_tags":["hits","short"],"duration":0.0625,"velocity":107.66958294802592},
{"position":346.59375,"instrument":"TheGrandeurPiano","level2":17,"level3":null,"pitch":43,"articulation":"standard","articulation_tags":["standard","long"],"duration":0.7083333333333334,"velocity":103.22045564022854},
{"position":346.7083333333333,"instrument":"TheGrandeurPiano","level2":19,"level3":null,"pitch":30,"articulation":"standard","articulation_tags":["standard","long"],"duration":0.4236111111111111,"velocity":103.97890866061287},
{"position":346.7083333333333,"instrument":"TheGrandeurPiano","level2":19,"level3":null,"pitch":30,"articulation":"standard","articulation_tags":["standard","long"],"duration":0.18055555555555555,"velocity":103.97890866061287},
{"position":346.75,"instrument":"Marimba","level2":19,"level3":7,"pitch":48,"articulation":"hits","articulation_tags":["hits","short"],"duration":0.0625,"velocity":108.07430493831686},
{"position":346.90625,"instrument":"TheGrandeurPiano","level2":16,"level3":null,"pitch":50,"articulation":"standard","articulation_tags":["standard","long"],"duration":0.25,"velocity":102.64725914200362},
{"position":346.9895833333333,"instrument":"TheGrandeurPiano","level2":19,"level3":null,"pitch":30,"articulation":"standard","articulation_tags":["standard","long"],"duration":0.18055555555555555,"velocity":103.63841708949299},
{"position":347.2291666666667,"instrument":"TheGrandeurPiano","level2":20,"level3":null,"pitch":88,"articulation":"standard","articulation_tags":["standard","long"],"duration":0.4513888888888889,"velocity":103.67631478514086},
{"position":347.2604166666667,"instrument":"TheGrandeurPiano","level2":16,"level3":null,"pitch":50,"articulation":"standard","articulation_tags":["standard","long"],"duration":0.4722222222222222,"velocity":103.67631478514086},
{"position":347.2604166666667,"instrument":"TheGrandeurPiano","level2":19,"level3":null,"pitch":30,"articulation":"standard","articulation_tags":["standard","long"],"duration":0.1736111111111111,"velocity":103.67631478514086},
{"position":347.28125,"instrument":"TheGrandeurPiano","level2":16,"level3":null,"pitch":50,"articulation":"standard","articulation_tags":["standard","long"],"duration":0.24305555555555555,"velocity":102.64725914200362},
{"position":347.3333333333333,"instrument":"TheGrandeurPiano","level2":19,"level3":null,"pitch":30,"articulation":"standard","articulation_tags":["standard","long"],"duration":0.4722222222222222,"velocity":102.64725914200362},
{"position":347.34375,"instrument":"TheGrandeurPiano","level2":14,"level3":null,"pitch":24,"articulation":"standard","articulation_tags":["standard","long"],"duration":0.9930555555555556,"velocity":102.64725914200362},
{"position":347.5208333333333,"instrument":"TheGrandeurPiano","level2":19,"level3":null,"pitch":30,"articulation":"standard","articulation_tags":["standard","long"],"duration":0.1736111111111111,"velocity":104.09211339368565},
{"position":347.6354166666667,"instrument":"TheGrandeurPiano","level2":16,"level3":null,"pitch":49,"articulation":"standard","articulation_tags":["standard","long"],"duration":0.2361111111111111,"velocity":103.22045564022854},
{"position":347.6458333333333,"instrument":"TheGrandeurPiano","level2":17,"level3":null,"pitch":43,"articulation":"standard","articulation_tags":["standard","long"],"duration":0.7083333333333334,"velocity":103.22045564022854},
{"position":347.7083333333333,"instrument":"Marimba","level2":19,"level3":6,"pitch":48,"articulation":"hits","articulation_tags":["hits","short"],"duration":0.0625,"velocity":108.69653806659599},
{"position":347.78125,"instrument":"TheGrandeurPiano","level2":19,"level3":null,"pitch":30,"articulation":"standard","articulation_tags":["standard","long"],"duration":0.16666666666666666,"velocity":104.16750246473082},
{"position":347.8333333333333,"instrument":"TheGrandeurPiano","level2":20,"level3":null,"pitch":89,"articulation":"standard","articulation_tags":["standard","long"],"duration":1.2430555555555556,"velocity":104.16750246473082},
{"position":347.8854166666667,"instrument":"Marimba","level2":19,"level3":6,"pitch":48,"articulation":"hits","articulation_tags":["hits","short"],"duration":0.0625,"velocity":108.8084159099014},
{"position":347.9166666666667,"instrument":"TheGrandeurPiano","level2":20,"level3":null,"pitch":89,"articulation":"standard","articulation_tags":["standard","long"],"duration":0.4652777777777778,"velocity":103.52462554560533},
{"position":347.96875,"instrument":"TheGrandeurPiano","level2":16,"level3":null,"pitch":49,"articulation":"standard","articulation_tags":["standard","long"],"duration":0.4166666666666667,"velocity":103.52462554560533},
{"position":348.0,"instrument":"TheGrandeurPiano","level2":16,"level3":null,"pitch":49,"articulation":"standard","articulation_tags":["standard","long"],"duration":0.22916666666666666,"velocity":102.95343415662711},
{"position":348.0416666666667,"instrument":"TheGrandeurPiano","level2":19,"level3":null,"pitch":30,"articulation":"standard","articulation_tags":["standard","long"],"duration":0.16666666666666666,"velocity":102.95343415662711},
{"position":348.0520833333333,"instrument":"TheGrandeurPiano","level2":19,"level3":null,"pitch":29,"articulation":"standard","articulation_tags":["standard","long"],"duration":0.5625,"velocity":102.95343415662711},
{"position":348.2916666666667,"instrument":"TheGrandeurPiano","level2":19,"level3":null,"pitch":29,"articulation":"standard","articulation_tags":["standard","long"],"duration":0.16666666666666666,"velocity":104.58099547155233},
{"position":348.3229166666667,"instrument":"Marimba","level2":16,"level3":1,"pitch":37,"articulation":"hits","articulation_tags":["hits","short"],"duration":0.0625,"velocity":116.81721755055719},
{"position":348.34375,"instrument":"TheGrandeurPiano","level2":16,"level3":null,"pitch":48,"articulation":"standard","articulation_tags":["standard","long"],"duration":0.2222222222222222,"velocity":104.58099547155233},
{"position":348.40625,"instrument":"Marimba","level2":16,"level3":1,"pitch":37,"articulation":"hits","articulation_tags":["hits","short"],"duration":0.0625,"velocity":116.97663951730758},
{"position":348.53125,"instrument":"TheGrandeurPiano","level2":19,"level3":null,"pitch":29,"articulation":"standard","articulation_tags":["standard","long"],"duration":0.1597222222222222,"velocity":103.97890866061287},
{"position":348.5833333333333,"instrument":"Marimba","level2":20,"level3":1,"pitch":75,"articulation":"hits","articulation_tags":["hits","short"],"duration":0.0625,"velocity":85.94682640191323},
{"position":348.6041666666667,"instrument":"TheGrandeurPiano","level2":16,"level3":null,"pitch":48,"articulation":"standard","articulation_tags":["standard","long"],"duration":0.375,"velocity":103.78990971265786},
{"position":348.6145833333333,"instrument":"TheGrandeurPiano","level2":20,"level3":null,"pitch":89,"articulation":"standard","articulation_tags":["standard","long"],"duration":0.4791666666666667,"velocity":103.78990971265786},
{"position":348.6770833333333,"instrument":"TheGrandeurPiano","level2":16,"level3":null,"pitch":48,"articulation":"standard","articulation_tags":["standard","long"],"duration":0.2222222222222222,"velocity":103.67631478514086},
{"position":348.7083333333333,"instrument":"Marimba","level2":19,"level3":7,"pitch":48,"articulation":"hits","articulation_tags":["hits","short"],"duration":0.0625,"velocity":109.45369911461678},
{"position":348.7083333333333,"instrument":"TheGrandeurPiano","level2":17,"level3":null,"pitch":43,"articulation":"standard","articulation_tags":["standard","long"],"duration":0.7083333333333334,"velocity":103.67631478514086},
{"position":348.7395833333333,"instrument":"Marimba","level2":19,"level3":8,"pitch":48,"articulation":"hits","articulation_tags":["hits","short"],"duration":0.0625,"velocity":109.45369911461678},
{"position":348.7708333333333,"instrument":"TheGrandeurPiano","level2":19,"level3":null,"pitch":29,"articulation":"standard","articulation_tags":["standard","long"],"duration":0.1597222222222222,"velocity":103.67631478514086},
{"position":348.84375,"instrument":"TheGrandeurPiano","level2":14,"level3":null,"pitch":25,"articulation":"standard","articulation_tags":["standard","long"],"duration":0.9583333333333334,"velocity":103.63841708949299},
{"position":348.8958333333333,"instrument":"TheGrandeurPiano","level2":19,"level3":null,"pitch":29,"articulation":"standard","articulation_tags":["standard","long"],"duration":0.7638888888888888,"velocity":103.63841708949299},
{"position":349.0104166666667,"instrument":"TheGrandeurPiano","level2":16,"level3":null,"pitch":47,"articulation":"standard","articulation_tags":["standard","long"],"duration":0.2152777777777778,"velocity":103.67631478514086},
{"position":349.0104166666667,"instrument":"TheGrandeurPiano","level2":19,"level3":null,"pitch":29,"articulation":"standard","articulation_tags":["standard","long"],"duration":0.1527777777777778,"velocity":103.67631478514086},
{"position":349.1666666666667,"instrument":"TheGrandeurPiano","level2":16,"level3":null,"pitch":47,"articulation":"standard","articulation_tags":["standard","long"],"duration":0.3402777777777778,"velocity":103.97890866061287},
{"position":349.2395833333333,"instrument":"TheGrandeurPiano","level2":19,"level3":null,"pitch":29,"articulation":"standard","articulation_tags":["standard","long"],"duration":0.1527777777777778,"velocity":103.97890866061287},
{"position":349.3333333333333,"instrument":"TheGrandeurPiano","level2":20,"level3":null,"pitch":89,"articulation":"standard","articulation_tags":["standard","long"],"duration":0.4930555555555556,"velocity":104.2428271281618},
{"position":349.3333333333333,"instrument":"TheGrandeurPiano","level2":16,"level3":null,"pitch":47,"articulation":"standard","articulation_tags":["standard","long"],"duration":0.20833333333333334,"velocity":104.2428271281618},
{"position":349.46875,"instrument":"TheGrandeurPiano","level2":19,"level3":null,"pitch":29,"articulation":"standard","articulation_tags":["standard","long"],"duration":0.14583333333333334,"velocity":104.58099547155233},
{"position":349.4791666666667,"instrument":"Bassoon","level2":19,"level3":2,"pitch":49,"articulation":"legato","articulation_tags":["legato","lg"],"duration":2.8958333333333335,"velocity":92.48202716859862},
{"position":349.6458333333333,"instrument":"TheGrandeurPiano","level2":16,"level3":null,"pitch":46,"articulation":"standard","articulation_tags":["standard","long"],"duration":0.2013888888888889,"velocity":102.95343415662711},
{"position":349.6666666666667,"instrument":"TheGrandeurPiano","level2":16,"level3":null,"pitch":46,"articulation":"standard","articulation_tags":["standard","long"],"duration":0.3055555555555556,"velocity":102.95343415662711},
{"position":349.6875,"instrument":"TheGrandeurPiano","level2":19,"level3":null,"pitch":29,"articulation":"standard","articulation_tags":["standard","long"],"duration":0.14583333333333334,"velocity":102.95343415662711},
{"position":349.7083333333333,"instrument":"TheGrandeurPiano","level2":20,"level3":null,"pitch":89,"articulation":"standard","articulation_tags":["standard","long"],"duration":2.4015748031496065,"velocity":102.95343415662711},
{"position":349.7708333333333,"instrument":"TheGrandeurPiano","level2":17,"level3":null,"pitch":43,"articulation":"standard","articulation_tags":["standard","long"],"duration":0.7083333333333334,"velocity":103.52462554560533},
{"position":349.90625,"instrument":"TheGrandeurPiano","level2":19,"level3":null,"pitch":29,"articulation":"standard","articulation_tags":["standard","long"],"duration":0.1388888888888889,"velocity":104.16750246473082},
{"position":349.9479166666667,"instrument":"Marimba","level2":16,"level3":3,"pitch":36,"articulation":"hits","articulation_tags":["hits","short"],"duration":0.0625,"velocity":116.8194828197113},
{"position":349.9479166666667,"instrument":"TheGrandeurPiano","level2":16,"level3":null,"pitch":46,"articulation":"standard","articulation_tags":["standard","long"],"duration":0.2013888888888889,"velocity":104.16750246473082},
{"position":350.0416666666667,"instrument":"TheGrandeurPiano","level2":19,"level3":null,"pitch":28,"articulation":"standard","articulation_tags":["standard","long"],"duration":1.4409448818897639,"velocity":104.88050941314711},
{"position":350.0729166666667,"instrument":"TheGrandeurPiano","level2":20,"level3":null,"pitch":89,"articulation":"standard","articulation_tags":["standard","long"],"duration":0.5069444444444444,"velocity":105.66197334943666},
{"position":350.1145833333333,"instrument":"TheGrandeurPiano","level2":19,"level3":null,"pitch":28,"articulation":"standard","articulation_tags":["standard","long"],"duration":0.1388888888888889,"velocity":103.22045564022854},
{"position":350.125,"instrument":"Marimba","level2":19,"level3":4,"pitch":48,"articulation":"hits","articulation_tags":["hits","short"],"duration":0.0625,"velocity":110.92255636944044},
{"position":350.1354166666667,"instrument":"TheGrandeurPiano","level2":16,"level3":null,"pitch":46,"articulation":"standard","articulation_tags":["standard","long"],"duration":0.2847222222222222,"velocity":103.22045564022854},
{"position":350.1875,"instrument":"Marimba","level2":19,"level3":4,"pitch":48,"articulation":"hits","articulation_tags":["hits","short"],"duration":0.0625,"velocity":110.92255636944044},
{"position":350.25,"instrument":"TheGrandeurPiano","level2":16,"level3":null,"pitch":45,"articulation":"standard","articulation_tags":["standard","long"],"duration":0.19444444444444445,"velocity":104.09211339368565},
{"position":350.2708333333333,"instrument":"Marimba","level2":19,"level3":1,"pitch":48,"articulation":"hits","articulation_tags":["hits","short"],"duration":0.0625,"velocity":110.92255636944044},
{"position":350.2708333333333,"instrument":"Marimba","level2":19,"level3":2,"pitch":48,"articulation":"hits","articulation_tags":["hits","short"],"duration":0.0625,"velocity":110.92255636944044},
{"position":350.28125,"instrument":"TheGrandeurPiano","level2":14,"level3":null,"pitch":25,"articulation":"standard","articulation_tags":["standard","long"],"duration":0.9305555555555556,"velocity":104.09211339368565},
{"position":350.2916666666667,"instrument":"Marimba","level2":19,"level3":5,"pitch":48,"articulation":"hits","articulation_tags":["hits","short"],"duration":0.0625,"velocity":110.92255636944044},
{"position":350.3229166666667,"instrument":"TheGrandeurPiano","level2":19,"level3":null,"pitch":28,"articulation":"standard","articulation_tags":["standard","long"],"duration":0.1388888888888889,"velocity":105.02988852596192},
{"position":350.4270833333333,"instrument":"Marimba","level2":16,"level3":0,"pitch":37,"articulation":"hits","articulation_tags":["hits","short"],"duration":0.0625,"velocity":116.89530328645287},
{"position":350.53125,"instrument":"TheGrandeurPiano","level2":19,"level3":null,"pitch":28,"articulation":"standard","articulation_tags":["standard","long"],"duration":0.13194444444444445,"velocity":103.67631478514086},
{"position":350.5416666666667,"instrument":"TheGrandeurPiano","level2":16,"level3":null,"pitch":45,"articulation":"standard","articulation_tags":["standard","long"],"duration":0.1875,"velocity":103.67631478514086},
{"position":350.5520833333333,"instrument":"TheGrandeurPiano","level2":16,"level3":null,"pitch":45,"articulation":"standard","articulation_tags":["standard","long"],"duration":0.2569444444444444,"velocity":104.7683101139535},
{"position":350.7291666666667,"instrument":"TheGrandeurPiano","level2":19,"level3":null,"pitch":28,"articulation":"standard","articulation_tags":["standard","long"],"duration":0.13194444444444445,"velocity":103.63841708949299},
{"position":350.8229166666667,"instrument":"TheGrandeurPiano","level2":20,"level3":null,"pitch":89,"articulation":"standard","articulation_tags":["standard","long"],"duration":0.5208333333333334,"velocity":104.88050941314711},
{"position":350.8229166666667,"instrument":"TheGrandeurPiano","level2":16,"level3":null,"pitch":44,"articulation":"standard","articulation_tags":["standard","long"],"duration":0.18055555555555555,"velocity":104.88050941314711},
{"position":350.84375,"instrument":"TheGrandeurPiano","level2":17,"level3":null,"pitch":43,"articulation":"standard","articulation_tags":["standard","long"],"duration":0.7083333333333334,"velocity":104.88050941314711},
{"position":350.8958333333333,"instrument":"Marimba","level2":19,"level3":8,"pitch":48,"articulation":"hits","articulation_tags":["hits","short"],"duration":0.0625,"velocity":111.33123398253584},
{"position":350.9270833333333,"instrument":"TheGrandeurPiano","level2":19,"level3":null,"pitch":28,"articulation":"standard","articulation_tags":["standard","long"],"duration":0.125,"velocity":104.88050941314711},
{"position":350.9375,"instrument":"TheGrandeurPiano","level2":16,"level3":null,"pitch":44,"articulation":"standard","articulation_tags":["standard","long"],"duration":0.2361111111111111,"velocity":102.64725914200362},
{"position":351.09375,"instrument":"TheGrandeurPiano","level2":16,"level3":null,"pitch":44,"articulation":"standard","articulation_tags":["standard","long"],"duration":0.1736111111111111,"velocity":105.36507858277602},
{"position":351.1145833333333,"instrument":"TheGrandeurPiano","level2":19,"level3":null,"pitch":28,"articulation":"standard","articulation_tags":["standard","long"],"duration":0.125,"velocity":105.36507858277602},
{"position":351.2916666666667,"instrument":"TheGrandeurPiano","level2":16,"level3":null,"pitch":44,"articulation":"standard","articulation_tags":["standard","long"],"duration":0.2152777777777778,"velocity":104.69343172853716},
{"position":351.3020833333333,"instrument":"TheGrandeurPiano","level2":19,"level3":null,"pitch":28,"articulation":"standard","articulation_tags":["standard","long"],"duration":0.11805555555555555,"velocity":104.69343172853716},
{"position":351.3541666666667,"instrument":"TheGrandeurPiano","level2":16,"level3":null,"pitch":43,"articulation":"standard","articulation_tags":["standard","long"],"duration":0.1736111111111111,"velocity":102.60891116086358},
{"position":351.40625,"instrument":"Marimba","level2":19,"level3":1,"pitch":48,"articulation":"hits","articulation_tags":["hits","short"],"duration":0.0625,"velocity":111.75869716323092},
{"position":351.4479166666667,"instrument":"Marimba","level2":16,"level3":3,"pitch":37,"articulation":"hits","articulation_tags":["hits","short"],"duration":0.0625,"velocity":116.8194828197113},
{"position":351.4791666666667,"instrument":"TheGrandeurPiano","level2":19,"level3":null,"pitch":28,"articulation":"standard","articulation_tags":["standard","long"],"duration":0.11805555555555555,"velocity":104.16750246473082},
{"position":351.6041666666667,"instrument":"TheGrandeurPiano","level2":20,"level3":null,"pitch":89,"articulation":"standard","articulation_tags":["standard","long"],"duration":0.5347222222222222,"velocity":103.78990971265786},
{"position":351.6145833333333,"instrument":"Marimba","level2":19,"level3":3,"pitch":47,"articulation":"hits","articulation_tags":["hits","short"],"duration":0.0625,"velocity":111.90525588355325},
{"position":351.6145833333333,"instrument":"TheGrandeurPiano","level2":16,"level3":null,"pitch":43,"articulation":"standard","articulation_tags":["standard","long"],"duration":0.16666666666666666,"velocity":103.78990971265786},
{"position":351.625,"instrument":"TheGrandeurPiano","level2":16,"level3":null,"pitch":43,"articulation":"standard","articulation_tags":["standard","long"],"duration":0.2013888888888889,"velocity":103.78990971265786},
{"position":351.65625,"instrument":"TheGrandeurPiano","level2":19,"level3":null,"pitch":28,"articulation":"standard","articulation_tags":["standard","long"],"duration":0.1111111111111111,"velocity":103.78990971265786},
{"position":351.6770833333333,"instrument":"TheGrandeurPiano","level2":14,"level3":null,"pitch":26,"articulation":"standard","articulation_tags":["standard","long"],"duration":0.9027777777777778,"velocity":105.47652956591044},
{"position":351.8125,"instrument":"TheGrandeurPiano","level2":17,"level3":null,"pitch":44,"articulation":"standard","articulation_tags":["standard","long"],"duration":1.6929133858267718,"velocity":103.56257249104551},
{"position":351.8333333333333,"instrument":"TheGrandeurPiano","level2":19,"level3":null,"pitch":28,"articulation":"standard","articulation_tags":["standard","long"],"duration":0.1111111111111111,"velocity":105.32789735437954},
{"position":351.8645833333333,"instrument":"TheGrandeurPiano","level2":16,"level3":null,"pitch":42,"articulation":"standard","articulation_tags":["standard","long"],"duration":0.1597222222222222,"velocity":105.32789735437954},
{"position":351.875,"instrument":"Marimba","level2":19,"level3":5,"pitch":48,"articulation":"hits","articulation_tags":["hits","short"],"duration":0.0625,"velocity":112.20434671671515},
{"position":351.90625,"instrument":"TheGrandeurPiano","level2":17,"level3":null,"pitch":44,"articulation":"standard","articulation_tags":["standard","long"],"duration":0.7083333333333334,"velocity":103.48666214085013},
{"position":351.9166666666667,"instrument":"TheGrandeurPiano","level2":16,"level3":null,"pitch":42,"articulation":"standard","articulation_tags":["standard","long"],"duration":0.1875,"velocity":103.48666214085013},
{"position":352.0,"instrument":"TheGrandeurPiano","level2":19,"level3":null,"pitch":28,"articulation":"standard","articulation_tags":["standard","long"],"duration":0.1111111111111111,"velocity":105.32789735437954},
{"position":352.0208333333333,"instrument":"Marimba","level2":16,"level3":0,"pitch":37,"articulation":"hits","articulation_tags":["hits","short"],"duration":0.0625,"velocity":116.67427402959434},
{"position":352.1041666666667,"instrument":"TheGrandeurPiano","level2":16,"level3":null,"pitch":42,"articulation":"standard","articulation_tags":["standard","long"],"duration":0.1527777777777778,"velocity":103.56257249104551},
{"position":352.15625,"instrument":"TheGrandeurPiano","level2":19,"level3":null,"pitch":28,"articulation":"standard","articulation_tags":["standard","long"],"duration":0.10416666666666667,"velocity":103.56257249104551},
{"position":352.1979166666667,"instrument":"TheGrandeurPiano","level2":16,"level3":null,"pitch":42,"articulation":"standard","articulation_tags":["standard","long"],"duration":0.1736111111111111,"velocity":103.78990971265786},
{"position":352.25,"instrument":"Marimba","level2":19,"level3":0,"pitch":49,"articulation":"hits","articulation_tags":["hits","short"],"duration":0.0625,"velocity":112.51125458083862},
{"position":352.3229166666667,"instrument":"TheGrandeurPiano","level2":19,"level3":null,"pitch":28,"articulation":"standard","articulation_tags":["standard","long"],"duration":0.10416666666666667,"velocity":103.78990971265786},
{"position":352.3333333333333,"instrument":"TheGrandeurPiano","level2":16,"level3":null,"pitch":41,"articulation":"standard","articulation_tags":["standard","long"],"duration":0.14583333333333334,"velocity":105.77305574596755},
{"position":352.375,"instrument":"Bassoon","level2":19,"level3":2,"pitch":48,"articulation":"legato","articulation_tags":["legato","lg"],"duration":0.16666666666666666,"velocity":97.33516953913582},
{"position":352.3854166666667,"instrument":"Marimba","level2":19,"level3":8,"pitch":48,"articulation":"hits","articulation_tags":["hits","short"],"duration":0.0625,"velocity":112.66758476956791},
{"position":352.4166666666667,"instrument":"TheGrandeurPiano","level2":20,"level3":null,"pitch":89,"articulation":"standard","articulation_tags":["standard","long"],"duration":0.5555555555555556,"velocity":104.16750246473082},
{"position":352.4583333333333,"instrument":"Marimba","level2":19,"level3":1,"pitch":48,"articulation":"hits","articulation_tags":["hits","short"],"duration":0.0625,"velocity":112.66758476956791},
{"position":352.4583333333333,"instrument":"TheGrandeurPiano","level2":16,"level3":null,"pitch":41,"articulation":"standard","articulation_tags":["standard","long"],"duration":0.1597222222222222,"velocity":104.16750246473082},
{"position":352.46875,"instrument":"TheGrandeurPiano","level2":19,"level3":null,"pitch":28,"articulation":"standard","articulation_tags":["standard","long"],"duration":0.09722222222222222,"velocity":104.16750246473082},
{"position":352.53125,"instrument":"Bassoon","level2":19,"level3":2,"pitch":48,"articulation":"legato","articulation_tags":["legato","lg"],"duration":0.0,"velocity":97.6516063655551},
{"position":352.5520833333333,"instrument":"TheGrandeurPiano","level2":16,"level3":null,"pitch":41,"articulation":"standard","articulation_tags":["standard","long"],"duration":0.1388888888888889,"velocity":104.69343172853716},
{"position":352.625,"instrument":"TheGrandeurPiano","level2":19,"level3":null,"pitch":28,"articulation":"standard","articulation_tags":["standard","long"],"duration":0.09722222222222222,"velocity":104.69343172853716},
{"position":352.6875,"instrument":"TheGrandeurPiano","level2":16,"level3":null,"pitch":41,"articulation":"standard","articulation_tags":["standard","long"],"duration":0.14583333333333334,"velocity":103.22045564022854},
{"position":352.75,"instrument":"TheGrandeurPiano","level2":19,"level3":null,"pitch":29,"articulation":"standard","articulation_tags":["standard","long"],"duration":0.4791666666666667,"velocity":105.36507858277602},
{"position":352.7604166666667,"instrument":"TheGrandeurPiano","level2":19,"level3":null,"pitch":29,"articulation":"standard","articulation_tags":["standard","long"],"duration":0.09027777777777778,"velocity":105.36507858277602},
{"position":352.7708333333333,"instrument":"TheGrandeurPiano","level2":16,"level3":null,"pitch":40,"articulation":"standard","articulation_tags":["standard","long"],"duration":0.1388888888888889,"velocity":105.36507858277602},
{"position":352.90625,"instrument":"TheGrandeurPiano","level2":19,"level3":null,"pitch":29,"articulation":"standard","articulation_tags":["standard","long"],"duration":0.09027777777777778,"velocity":103.97890866061287},
{"position":352.90625,"instrument":"TheGrandeurPiano","level2":16,"level3":null,"pitch":40,"articulation":"standard","articulation_tags":["standard","long"],"duration":0.13194444444444445,"velocity":103.97890866061287},
{"position":352.9166666666667,"instrument":"Bassoon","level2":19,"level3":3,"pitch":48,"articulation":"legato","articulation_tags":["legato","lg"],"duration":1.9375,"velocity":98.07822155059932},
{"position":352.96875,"instrument":"TheGrandeurPiano","level2":17,"level3":null,"pitch":44,"articulation":"standard","articulation_tags":["standard","long"],"duration":0.7083333333333334,"velocity":102.64725914200362},
{"position":352.96875,"instrument":"TheGrandeurPiano","level2":16,"level3":null,"pitch":40,"articulation":"standard","articulation_tags":["standard","long"],"duration":0.13194444444444445,"velocity":102.64725914200362},
{"position":353.0208333333333,"instrument":"TheGrandeurPiano","level2":14,"level3":null,"pitch":26,"articulation":"standard","articulation_tags":["standard","long"],"duration":0.875,"velocity":104.88050941314711},
{"position":353.0416666666667,"instrument":"TheGrandeurPiano","level2":19,"level3":null,"pitch":29,"articulation":"standard","articulation_tags":["standard","long"],"duration":0.08333333333333333,"velocity":104.88050941314711},
{"position":353.1041666666667,"instrument":"TheGrandeurPiano","level2":16,"level3":null,"pitch":40,"articulation":"standard","articulation_tags":["standard","long"],"duration":0.125,"velocity":103.63841708949299},
{"position":353.1666666666667,"instrument":"TheGrandeurPiano","level2":19,"level3":null,"pitch":29,"articulation":"standard","articulation_tags":["standard","long"],"duration":0.08333333333333333,"velocity":103.63841708949299},
{"position":353.1666666666667,"instrument":"TheGrandeurPiano","level2":16,"level3":null,"pitch":39,"articulation":"standard","articulation_tags":["standard","long"],"duration":0.125,"velocity":102.4553491408466},
{"position":353.1770833333333,"instrument":"Marimba","level2":16,"level3":3,"pitch":37,"articulation":"hits","articulation_tags":["hits","short"],"duration":0.0625,"velocity":116.59124790088103},
{"position":353.25,"instrument":"TheGrandeurPiano","level2":20,"level3":null,"pitch":89,"articulation":"standard","articulation_tags":["standard","long"],"duration":0.5763888888888888,"velocity":104.7683101139535},
{"position":353.2708333333333,"instrument":"Marimba","level2":16,"level3":0,"pitch":37,"articulation":"hits","articulation_tags":["hits","short"],"duration":0.0625,"velocity":116.59124790088103},
{"position":353.2916666666667,"instrument":"TheGrandeurPiano","level2":19,"level3":null,"pitch":29,"articulation":"standard","articulation_tags":["standard","long"],"duration":0.0763888888888889,"velocity":104.7683101139535},
{"position":353.2916666666667,"instrument":"TheGrandeurPiano","level2":16,"level3":null,"pitch":39,"articulation":"standard","articulation_tags":["standard","long"],"duration":0.1111111111111111,"velocity":104.7683101139535},
{"position":353.34375,"instrument":"TheGrandeurPiano","level2":14,"level3":null,"pitch":26,"articulation":"standard","articulation_tags":["standard","long"],"duration":1.4094488188976377,"velocity":103.67631478514086},
{"position":353.3541666666667,"instrument":"TheGrandeurPiano","level2":16,"level3":null,"pitch":39,"articulation":"standard","articulation_tags":["standard","long"],"duration":0.11805555555555555,"velocity":103.67631478514086},
{"position":353.40625,"instrument":"TheGrandeurPiano","level2":19,"level3":null,"pitch":29,"articulation":"standard","articulation_tags":["standard","long"],"duration":0.0763888888888889,"velocity":103.67631478514086},
{"position":353.4583333333333,"instrument":"Marimba","level2":20,"level3":2,"pitch":73,"articulation":"hits","articulation_tags":["hits","short"],"duration":0.0625,"velocity":88.1907502549617},
{"position":353.4583333333333,"instrument":"Marimba","level2":20,"level3":3,"pitch":74,"articulation":"hits","articulation_tags":["hits","short"],"duration":0.0625,"velocity":88.1907502549617},
{"position":353.4583333333333,"instrument":"BassClarinet","level2":19,"level3":0,"pitch":48,"articulation":"legato","articulation_tags":["legato","lg"],"duration":1.3854166666666667,"velocity":99.43262572630019},
{"position":353.4583333333333,"instrument":"TheGrandeurPiano","level2":16,"level3":null,"pitch":39,"articulation":"standard","articulation_tags":["standard","long"],"duration":0.10416666666666667,"velocity":102.64725914200362},
{"position":353.46875,"instrument":"TheGrandeurPiano","level2":19,"level3":null,"pitch":29,"articulation":"standard","articulation_tags":["standard","long"],"duration":0.2708333333333333,"velocity":102.64725914200362},
{"position":353.5208333333333,"instrument":"TheGrandeurPiano","level2":16,"level3":null,"pitch":38,"articulation":"standard","articulation_tags":["standard","long"],"duration":0.1111111111111111,"velocity":102.64725914200362},
{"position":353.5208333333333,"instrument":"TheGrandeurPiano","level2":19,"level3":null,"pitch":29,"articulation":"standard","articulation_tags":["standard","long"],"duration":0.0763888888888889,"velocity":102.64725914200362},
{"position":353.59375,"instrument":"Marimba","level2":20,"level3":3,"pitch":74,"articulation":"hits","articulation_tags":["hits","short"],"duration":0.0625,"velocity":88.1907502549617},
{"position":353.6145833333333,"instrument":"TheGrandeurPiano","level2":16,"level3":null,"pitch":38,"articulation":"standard","articulation_tags":["standard","long"],"duration":0.09722222222222222,"velocity":104.09211339368565},
{"position":353.6354166666667,"instrument":"TheGrandeurPiano","level2":19,"level3":null,"pitch":29,"articulation":"standard","articulation_tags":["standard","long"],"duration":0.06944444444444445,"velocity":104.09211339368565},
{"position":353.6875,"instrument":"TheGrandeurPiano","level2":16,"level3":null,"pitch":38,"articulation":"standard","articulation_tags":["standard","long"],"duration":0.10416666666666667,"velocity":103.22045564022854},
{"position":353.7395833333333,"instrument":"TheGrandeurPiano","level2":19,"level3":null,"pitch":29,"articulation":"standard","articulation_tags":["standard","long"],"duration":0.06944444444444445,"velocity":103.22045564022854},
{"position":353.7604166666667,"instrument":"TheGrandeurPiano","level2":16,"level3":null,"pitch":38,"articulation":"standard","articulation_tags":["standard","long"],"duration":0.08333333333333333,"velocity":103.22045564022854},
{"position":353.84375,"instrument":"TheGrandeurPiano","level2":19,"level3":null,"pitch":29,"articulation":"standard","articulation_tags":["standard","long"],"duration":0.0625,"velocity":102.4169159986314},
{"position":353.84375,"instrument":"TheGrandeurPiano","level2":16,"level3":null,"pitch":37,"articulation":"standard","articulation_tags":["standard","long"],"duration":0.09722222222222222,"velocity":102.4169159986314},
{"position":353.875,"instrument":"TheGrandeurPiano","level2":19,"level3":null,"pitch":30,"articulation":"standard","articulation_tags":["standard","long"],"duration":0.18055555555555555,"velocity":102.4169159986314},
{"position":353.8854166666667,"instrument":"TheGrandeurPiano","level2":16,"level3":null,"pitch":37,"articulation":"standard","articulation_tags":["standard","long"],"duration":0.0763888888888889,"velocity":102.4169159986314},
{"position":353.9375,"instrument":"TheGrandeurPiano","level2":19,"level3":null,"pitch":30,"articulation":"standard","articulation_tags":["standard","long"],"duration":0.05555555555555555,"velocity":104.16750246473082},
{"position":353.9895833333333,"instrument":"TheGrandeurPiano","level2":16,"level3":null,"pitch":37,"articulation":"standard","articulation_tags":["standard","long"],"duration":0.09027777777777778,"velocity":104.16750246473082},
{"position":354.0104166666667,"instrument":"TheGrandeurPiano","level2":16,"level3":null,"pitch":37,"articulation":"standard","articulation_tags":["standard","long"],"duration":0.06944444444444445,"velocity":104.16750246473082},
{"position":354.0208333333333,"instrument":"TheGrandeurPiano","level2":19,"level3":null,"pitch":30,"articulation":"standard","articulation_tags":["standard","long"],"duration":0.05555555555555555,"velocity":104.16750246473082},
{"position":354.03125,"instrument":"TheGrandeurPiano","level2":17,"level3":null,"pitch":44,"articulation":"standard","articulation_tags":["standard","long"],"duration":0.7083333333333334,"velocity":104.16750246473082},
{"position":354.1041666666667,"instrument":"TheGrandeurPiano","level2":19,"level3":null,"pitch":30,"articulation":"standard","articulation_tags":["standard","long"],"duration":0.04861111111111111,"velocity":103.52462554560533},
{"position":354.1145833333333,"instrument":"TheGrandeurPiano","level2":20,"level3":null,"pitch":89,"articulation":"standard","articulation_tags":["standard","long"],"duration":0.5972222222222222,"velocity":103.52462554560533},
{"position":354.1145833333333,"instrument":"TheGrandeurPiano","level2":16,"level3":null,"pitch":37,"articulation":"standard","articulation_tags":["standard","long"],"duration":0.0625,"velocity":103.52462554560533},
{"position":354.1145833333333,"instrument":"TheGrandeurPiano","level2":16,"level3":null,"pitch":36,"articulation":"standard","articulation_tags":["standard","long"],"duration":0.0763888888888889,"velocity":103.52462554560533},
{"position":354.1458333333333,"instrument":"TheGrandeurPiano","level2":19,"level3":null,"pitch":30,"articulation":"standard","articulation_tags":["standard","long"],"duration":0.125,"velocity":103.52462554560533},
{"position":354.1770833333333,"instrument":"TheGrandeurPiano","level2":19,"level3":null,"pitch":30,"articulation":"standard","articulation_tags":["standard","long"],"duration":0.04861111111111111,"velocity":102.95343415662711},
{"position":354.2083333333333,"instrument":"TheGrandeurPiano","level2":16,"level3":null,"pitch":36,"articulation":"standard","articulation_tags":["standard","long"],"duration":0.05555555555555555,"velocity":102.95343415662711},
{"position":354.2395833333333,"instrument":"TheGrandeurPiano","level2":16,"level3":null,"pitch":36,"articulation":"standard","articulation_tags":["standard","long"],"duration":0.06944444444444445,"velocity":102.95343415662711},
{"position":354.25,"instrument":"TheGrandeurPiano","level2":19,"level3":null,"pitch":30,"articulation":"standard","articulation_tags":["standard","long"],"duration":0.041666666666666664,"velocity":102.95343415662711},
{"position":354.2916666666667,"instrument":"TheGrandeurPiano","level2":16,"level3":null,"pitch":36,"articulation":"standard","articulation_tags":["standard","long"],"duration":0.04861111111111111,"velocity":102.4553491408466},
{"position":354.3229166666667,"instrument":"TheGrandeurPiano","level2":19,"level3":null,"pitch":30,"articulation":"standard","articulation_tags":["standard","long"],"duration":0.041666666666666664,"velocity":102.4553491408466},
{"position":354.3333333333333,"instrument":"TheGrandeurPiano","level2":14,"level3":null,"pitch":27,"articulation":"standard","articulation_tags":["standard","long"],"duration":0.8472222222222222,"velocity":102.4553491408466},
{"position":354.3333333333333,"instrument":"TheGrandeurPiano","level2":19,"level3":null,"pitch":31,"articulation":"standard","articulation_tags":["standard","long"],"duration":0.09027777777777778,"velocity":102.4553491408466},
{"position":354.34375,"instrument":"TheGrandeurPiano","level2":16,"level3":null,"pitch":35,"articulation":"standard","articulation_tags":["standard","long"],"duration":0.0625,"velocity":102.4553491408466},
{"position":354.3645833333333,"instrument":"TheGrandeurPiano","level2":16,"level3":null,"pitch":35,"articulation":"standard","articulation_tags":["standard","long"],"duration":0.041666666666666664,"velocity":102.4553491408466},
{"position":354.375,"instrument":"TheGrandeurPiano","level2":19,"level3":null,"pitch":31,"articulation":"standard","articulation_tags":["standard","long"],"duration":0.034722222222222224,"velocity":102.4553491408466},
{"position":354.4270833333333,"instrument":"TheGrandeurPiano","level2":16,"level3":null,"pitch":35,"articulation":"standard","articulation_tags":["standard","long"],"duration":0.034722222222222224,"velocity":102.03164026800151},
{"position":354.4270833333333,"instrument":"TheGrandeurPiano","level2":16,"level3":null,"pitch":35,"articulation":"standard","articulation_tags":["standard","long"],"duration":0.04861111111111111,"velocity":102.03164026800151},
{"position":354.4375,"instrument":"TheGrandeurPiano","level2":19,"level3":null,"pitch":31,"articulation":"standard","articulation_tags":["standard","long"],"duration":0.034722222222222224,"velocity":102.03164026800151},
{"position":354.46875,"instrument":"TheGrandeurPiano","level2":19,"level3":null,"pitch":31,"articulation":"standard","articulation_tags":["standard","long"],"duration":0.0625,"velocity":102.03164026800151},
{"position":354.4791666666667,"instrument":"TheGrandeurPiano","level2":19,"level3":null,"pitch":31,"articulation":"standard","articulation_tags":["standard","long"],"duration":0.027777777777777776,"velocity":102.03164026800151},
{"position":354.4895833333333,"instrument":"TheGrandeurPiano","level2":16,"level3":null,"pitch":35,"articulation":"standard","articulation_tags":["standard","long"],"duration":0.027777777777777776,"velocity":102.03164026800151},
{"position":354.5104166666667,"instrument":"TheGrandeurPiano","level2":16,"level3":null,"pitch":34,"articulation":"standard","articulation_tags":["standard","long"],"duration":0.041666666666666664,"velocity":102.03164026800151},
{"position":354.5208333333333,"instrument":"Cello","level2":19,"level3":3,"pitch":48,"articulation":"spiccato","articulation_tags":["spiccato","sp","short"],"duration":0.125,"velocity":114.84489289909942},
{"position":354.5208333333333,"instrument":"TheGrandeurPiano","level2":19,"level3":null,"pitch":31,"articulation":"standard","articulation_tags":["standard","long"],"duration":0.020833333333333332,"velocity":101.68341092674996},
{"position":354.53125,"instrument":"TheGrandeurPiano","level2":16,"level3":null,"pitch":34,"articulation":"standard","articulation_tags":["standard","long"],"duration":0.027777777777777776,"velocity":101.68341092674996},
{"position":354.5625,"instrument":"TheGrandeurPiano","level2":19,"level3":null,"pitch":32,"articulation":"standard","articulation_tags":["standard","long"],"duration":0.034722222222222224,"velocity":101.68341092674996},
{"position":354.5625,"instrument":"TheGrandeurPiano","level2":19,"level3":null,"pitch":32,"articulation":"standard","articulation_tags":["standard","long"],"duration":0.020833333333333332,"velocity":101.68341092674996},
{"position":354.5729166666667,"instrument":"TheGrandeurPiano","level2":16,"level3":null,"pitch":34,"articulation":"standard","articulation_tags":["standard","long"],"duration":0.020833333333333332,"velocity":101.68341092674996},
{"position":354.5729166666667,"instrument":"TheGrandeurPiano","level2":16,"level3":null,"pitch":34,"articulation":"standard","articulation_tags":["standard","long"],"duration":0.027777777777777776,"velocity":101.68341092674996},
{"position":354.59375,"instrument":"TheGrandeurPiano","level2":19,"level3":null,"pitch":32,"articulation":"standard","articulation_tags":["standard","long"],"duration":0.013888888888888888,"velocity":101.68341092674996},
{"position":354.59375,"instrument":"TheGrandeurPiano","level2":16,"level3":null,"pitch":34,"articulation":"standard","articulation_tags":["standard","long"],"duration":0.013888888888888888,"velocity":101.68341092674996},
{"position":354.6145833333333,"instrument":"Cello","level2":19,"level3":0,"pitch":48,"articulation":"spiccato","articulation_tags":["spiccato","sp","short"],"duration":0.125,"velocity":115.2035720502794},
{"position":354.6145833333333,"instrument":"TheGrandeurPiano","level2":19,"level3":null,"pitch":32,"articulation":"standard","articulation_tags":["standard","long"],"duration":0.013888888888888888,"velocity":101.68341092674996},
{"position":354.6145833333333,"instrument":"TheGrandeurPiano","level2":19,"level3":null,"pitch":32,"articulation":"standard","articulation_tags":["standard","long"],"duration":0.006944444444444444,"velocity":101.68341092674996},
{"position":354.6145833333333,"instrument":"TheGrandeurPiano","level2":16,"level3":null,"pitch":33,"articulation":"standard","articulation_tags":["standard","long"],"duration":0.013888888888888888,"velocity":101.68341092674996},
{"position":354.6145833333333,"instrument":"TheGrandeurPiano","level2":16,"level3":null,"pitch":33,"articulation":"standard","articulation_tags":["standard","long"],"duration":0.006944444444444444,"velocity":101.68341092674996},
{"position":354.625,"instrument":"Vibraphone","level2":20,"level3":2,"pitch":73,"articulation":"hits","articulation_tags":["hits","short"],"duration":0.0625,"velocity":88.50139532493013},
{"position":354.625,"instrument":"TheGrandeurPiano","level2":19,"level3":null,"pitch":32,"articulation":"standard","articulation_tags":["standard","long"],"duration":0.006944444444444444,"velocity":101.68341092674996},
{"position":354.6354166666667,"instrument":"TheGrandeurPiano","level2":16,"level3":null,"pitch":33,"articulation":"standard","articulation_tags":["standard","long"],"duration":0.006944444444444444,"velocity":101.41158432896621},
{"position":354.6354166666667,"instrument":"TheGrandeurPiano","level2":16,"level3":null,"pitch":33,"articulation":"standard","articulation_tags":["standard","long"],"duration":0.0,"velocity":101.41158432896621},
{"position":354.6354166666667,"instrument":"TheGrandeurPiano","level2":16,"level3":null,"pitch":33,"articulation":"standard","articulation_tags":["standard","long"],"duration":0.0,"velocity":101.41158432896621},
{"position":354.6354166666667,"instrument":"TheGrandeurPiano","level2":19,"level3":null,"pitch":33,"articulation":"standard","articulation_tags":["standard","long"],"duration":0.0,"velocity":101.41158432896621},
{"position":354.6354166666667,"instrument":"TheGrandeurPiano","level2":19,"level3":null,"pitch":33,"articulation":"standard","articulation_tags":["standard","long"],"duration":0.0,"velocity":101.41158432896621},
{"position":354.84375,"instrument":"Bassoon","level2":19,"level3":3,"pitch":48,"articulation":"legato","articulation_tags":["legato","lg"],"duration":0.0,"velocity":102.68633542659157},
{"position":355.0104166666667,"instrument":"TheGrandeurPiano","level2":20,"level3":null,"pitch":89,"articulation":"standard","articulation_tags":["standard","long"],"duration":0.625,"velocity":101.06081658686085},
{"position":355.09375,"instrument":"TheGrandeurPiano","level2":17,"level3":null,"pitch":44,"articulation":"standard","articulation_tags":["standard","long"],"duration":0.7083333333333334,"velocity":101.06081658686085},
{"position":355.6041666666667,"instrument":"TheGrandeurPiano","level2":14,"level3":null,"pitch":27,"articulation":"standard","articulation_tags":["standard","long"],"duration":0.8194444444444444,"velocity":102.03164026800151},
{"position":355.9375,"instrument":"TheGrandeurPiano","level2":20,"level3":null,"pitch":89,"articulation":"standard","articulation_tags":["standard","long"],"duration":0.6527777777777778,"velocity":100.43363150312125},
{"position":356.0520833333333,"instrument":"Vibraphone","level2":20,"level3":3,"pitch":74,"articulation":"hits","articulation_tags":["hits","short"],"duration":0.0625,"velocity":89.08486968753272},
{"position":356.15625,"instrument":"TheGrandeurPiano","level2":17,"level3":null,"pitch":44,"articulation":"standard","articulation_tags":["standard","long"],"duration":0.7083333333333334,"velocity":101.68341092674996},
{"position":356.8333333333333,"instrument":"TheGrandeurPiano","level2":14,"level3":null,"pitch":28,"articulation":"standard","articulation_tags":["standard","long"],"duration":0.7986111111111112,"velocity":101.33376054576388},
{"position":356.9166666666667,"instrument":"TheGrandeurPiano","level2":20,"level3":null,"pitch":89,"articulation":"standard","articulation_tags":["standard","long"],"duration":0.6805555555555556,"velocity":100.15776825906616},
{"position":357.2291666666667,"instrument":"TheGrandeurPiano","level2":17,"level3":null,"pitch":44,"articulation":"standard","articulation_tags":["standard","long"],"duration":0.7083333333333334,"velocity":100.43363150312125},
{"position":357.9375,"instrument":"TheGrandeurPiano","level2":20,"level3":null,"pitch":89,"articulation":"standard","articulation_tags":["standard","long"],"duration":0.7222222222222222,"velocity":98.20080756987355},
{"position":358.03125,"instrument":"TheGrandeurPiano","level2":14,"level3":null,"pitch":28,"articulation":"standard","articulation_tags":["standard","long"],"duration":0.7777777777777778,"velocity":98.03899479963599},
{"position":358.2916666666667,"instrument":"TheGrandeurPiano","level2":17,"level3":null,"pitch":44,"articulation":"standard","articulation_tags":["standard","long"],"duration":0.7083333333333334,"velocity":98.03899479963599},
{"position":358.9895833333333,"instrument":"TheGrandeurPiano","level2":20,"level3":null,"pitch":89,"articulation":"standard","articulation_tags":["standard","long"],"duration":1.4513888888888888,"velocity":98.2412110166828},
{"position":359.0208333333333,"instrument":"TheGrandeurPiano","level2":20,"level3":null,"pitch":89,"articulation":"standard","articulation_tags":["standard","long"],"duration":0.7638888888888888,"velocity":98.2412110166828},
{"position":359.1979166666667,"instrument":"TheGrandeurPiano","level2":14,"level3":null,"pitch":29,"articulation":"standard","articulation_tags":["standard","long"],"duration":0.7569444444444444,"velocity":96.89724337640902},
{"position":359.3541666666667,"instrument":"TheGrandeurPiano","level2":17,"level3":null,"pitch":44,"articulation":"standard","articulation_tags":["standard","long"],"duration":0.7083333333333334,"velocity":96.69165919812349},
{"position":359.8333333333333,"instrument":"TheGrandeurPiano","level2":17,"level3":null,"pitch":43,"articulation":"standard","articulation_tags":["standard","long"],"duration":1.6771653543307086,"velocity":95.94717897352636},
{"position":360.1666666666667,"instrument":"TheGrandeurPiano","level2":20,"level3":null,"pitch":89,"articulation":"standard","articulation_tags":["standard","long"],"duration":0.8194444444444444,"velocity":96.0302410000582},
{"position":360.3333333333333,"instrument":"TheGrandeurPiano","level2":14,"level3":null,"pitch":29,"articulation":"standard","articulation_tags":["standard","long"],"duration":0.7361111111111112,"velocity":95.40515795123042},
{"position":360.40625,"instrument":"TheGrandeurPiano","level2":17,"level3":null,"pitch":43,"articulation":"standard","articulation_tags":["standard","long"],"duration":0.7083333333333334,"velocity":94.85941156700733},
{"position":361.1770833333333,"instrument":"TheGrandeurPiano","level2":20,"level3":null,"pitch":88,"articulation":"standard","articulation_tags":["standard","long"],"duration":1.1180555555555556,"velocity":93.3280150789644},
{"position":361.3958333333333,"instrument":"TheGrandeurPiano","level2":20,"level3":null,"pitch":88,"articulation":"standard","articulation_tags":["standard","long"],"duration":0.8888888888888888,"velocity":93.49966460222409},
{"position":361.4375,"instrument":"TheGrandeurPiano","level2":14,"level3":null,"pitch":30,"articulation":"standard","articulation_tags":["standard","long"],"duration":0.7152777777777778,"velocity":93.49966460222409},
{"position":361.46875,"instrument":"TheGrandeurPiano","level2":17,"level3":null,"pitch":43,"articulation":"standard","articulation_tags":["standard","long"],"duration":0.7083333333333334,"velocity":93.49966460222409},
{"position":362.5104166666667,"instrument":"TheGrandeurPiano","level2":14,"level3":null,"pitch":30,"articulation":"standard","articulation_tags":["standard","long"],"duration":0.7013888888888888,"velocity":93.54251761329648},
{"position":362.53125,"instrument":"TheGrandeurPiano","level2":17,"level3":null,"pitch":43,"articulation":"standard","articulation_tags":["standard","long"],"duration":0.7013888888888888,"velocity":93.54251761329648},
{"position":362.7291666666667,"instrument":"TheGrandeurPiano","level2":20,"level3":null,"pitch":88,"articulation":"standard","articulation_tags":["standard","long"],"duration":0.9861111111111112,"velocity":92.15926246078655},
{"position":362.8541666666667,"instrument":"TheGrandeurPiano","level2":20,"level3":null,"pitch":88,"articulation":"standard","articulation_tags":["standard","long"],"duration":0.9513888888888888,"velocity":93.24204727575655},
{"position":363.4166666666667,"instrument":"TheGrandeurPiano","level2":14,"level3":null,"pitch":30,"articulation":"standard","articulation_tags":["standard","long"],"duration":1.4724409448818898,"velocity":91.80950510167979},
{"position":363.5625,"instrument":"TheGrandeurPiano","level2":14,"level3":null,"pitch":31,"articulation":"standard","articulation_tags":["standard","long"],"duration":0.6875,"velocity":93.3280150789644},
{"position":363.5833333333333,"instrument":"TheGrandeurPiano","level2":17,"level3":null,"pitch":43,"articulation":"standard","articulation_tags":["standard","long"],"duration":0.7013888888888888,"velocity":91.28182231819034},
{"position":364.2083333333333,"instrument":"TheGrandeurPiano","level2":20,"level3":null,"pitch":88,"articulation":"standard","articulation_tags":["standard","long"],"duration":1.125,"velocity":90.75041457633228},
{"position":364.2708333333333,"instrument":"TheGrandeurPiano","level2":20,"level3":null,"pitch":87,"articulation":"standard","articulation_tags":["standard","long"],"duration":0.8402777777777778,"velocity":92.63757255050447},
{"position":364.59375,"instrument":"TheGrandeurPiano","level2":14,"level3":null,"pitch":31,"articulation":"standard","articulation_tags":["standard","long"],"duration":0.6666666666666666,"velocity":91.28182231819034},
{"position":364.6458333333333,"instrument":"TheGrandeurPiano","level2":17,"level3":null,"pitch":43,"articulation":"standard","articulation_tags":["standard","long"],"duration":0.7013888888888888,"velocity":91.80950510167979},
{"position":365.53125,"instrument":"TheGrandeurPiano","level2":20,"level3":null,"pitch":87,"articulation":"standard","articulation_tags":["standard","long"],"duration":0.7569444444444444,"velocity":91.14932267488558},
{"position":365.59375,"instrument":"TheGrandeurPiano","level2":14,"level3":null,"pitch":32,"articulation":"standard","articulation_tags":["standard","long"],"duration":0.6527777777777778,"velocity":90.21520185999303},
{"position":365.6979166666667,"instrument":"TheGrandeurPiano","level2":17,"level3":null,"pitch":43,"articulation":"standard","articulation_tags":["standard","long"],"duration":0.7013888888888888,"velocity":90.21520185999303},
{"position":365.8125,"instrument":"TheGrandeurPiano","level2":17,"level3":null,"pitch":43,"articulation":"standard","articulation_tags":["standard","long"],"duration":1.6771653543307086,"velocity":91.80950510167979},
{"position":365.8958333333333,"instrument":"TheGrandeurPiano","level2":20,"level3":null,"pitch":87,"articulation":"standard","articulation_tags":["standard","long"],"duration":1.375,"velocity":91.0608596393069},
{"position":366.5729166666667,"instrument":"TheGrandeurPiano","level2":14,"level3":null,"pitch":32,"articulation":"standard","articulation_tags":["standard","long"],"duration":0.6388888888888888,"velocity":91.14932267488558},
{"position":366.6666666666667,"instrument":"TheGrandeurPiano","level2":20,"level3":null,"pitch":86,"articulation":"standard","articulation_tags":["standard","long"],"duration":0.7013888888888888,"velocity":90.92796925540038},
{"position":366.75,"instrument":"TheGrandeurPiano","level2":17,"level3":null,"pitch":43,"articulation":"standard","articulation_tags":["standard","long"],"duration":0.7013888888888888,"velocity":90.92796925540038},
{"position":367.53125,"instrument":"TheGrandeurPiano","level2":14,"level3":null,"pitch":33,"articulation":"standard","articulation_tags":["standard","long"],"duration":0.625,"velocity":91.85331296728432},
{"position":367.71875,"instrument":"TheGrandeurPiano","level2":20,"level3":null,"pitch":86,"articulation":"standard","articulation_tags":["standard","long"],"duration":0.6527777777777778,"velocity":89.81124553859655},
{"position":367.7916666666667,"instrument":"TheGrandeurPiano","level2":17,"level3":null,"pitch":43,"articulation":"standard","articulation_tags":["standard","long"],"duration":0.6944444444444444,"velocity":90.3940339309826},
{"position":367.9583333333333,"instrument":"TheGrandeurPiano","level2":20,"level3":null,"pitch":86,"articulation":"standard","articulation_tags":["standard","long"],"duration":2.013888888888889,"velocity":91.0608596393069},
{"position":367.9791666666667,"instrument":"TubularBells","level2":20,"level3":4,"pitch":73,"articulation":"hits_dumped","articulation_tags":["hits_dumped","short","hits","dumped"],"duration":0.0625,"velocity":91.46277068840806},
{"position":367.9791666666667,"instrument":"TubularBells","level2":20,"level3":5,"pitch":74,"articulation":"hits_dumped","articulation_tags":["hits_dumped","short","hits","dumped"],"duration":0.0625,"velocity":91.46277068840806},
{"position":368.46875,"instrument":"TheGrandeurPiano","level2":14,"level3":null,"pitch":33,"articulation":"standard","articulation_tags":["standard","long"],"duration":0.6111111111111112,"velocity":92.15926246078655},
{"position":368.6979166666667,"instrument":"TheGrandeurPiano","level2":20,"level3":null,"pitch":85,"articulation":"standard","articulation_tags":["standard","long"],"duration":0.6111111111111112,"velocity":90.92796925540038},
{"position":368.84375,"instrument":"TheGrandeurPiano","level2":17,"level3":null,"pitch":43,"articulation":"standard","articulation_tags":["standard","long"],"duration":0.6944444444444444,"velocity":89.85623868238997},
{"position":369.09375,"instrument":"TubularBells","level2":20,"level3":5,"pitch":74,"articulation":"hits_dumped","articulation_tags":["hits_dumped","short","hits","dumped"],"duration":0.0625,"velocity":91.44537573450171},
{"position":369.25,"instrument":"TheGrandeurPiano","level2":17,"level3":null,"pitch":42,"articulation":"standard","articulation_tags":["standard","long"],"duration":1.6614173228346456,"velocity":91.80950510167979},
{"position":369.3854166666667,"instrument":"TheGrandeurPiano","level2":14,"level3":null,"pitch":34,"articulation":"standard","articulation_tags":["standard","long"],"duration":0.5972222222222222,"velocity":91.28182231819034},
{"position":369.6145833333333,"instrument":"TheGrandeurPiano","level2":20,"level3":null,"pitch":85,"articulation":"standard","articulation_tags":["standard","long"],"duration":0.5833333333333334,"velocity":90.92796925540038},
{"position":369.6979166666667,"instrument":"TubularBells","level2":20,"level3":2,"pitch":73,"articulation":"hits","articulation_tags":["hits","short"],"duration":0.0625,"velocity":91.4329404369551},
{"position":369.8854166666667,"instrument":"TheGrandeurPiano","level2":17,"level3":null,"pitch":42,"articulation":"standard","articulation_tags":["standard","long"],"duration":0.6944444444444444,"velocity":90.75041457633228},
{"position":370.2916666666667,"instrument":"TheGrandeurPiano","level2":14,"level3":null,"pitch":34,"articulation":"standard","articulation_tags":["standard","long"],"duration":0.5833333333333334,"velocity":91.28182231819034},
{"position":370.4895833333333,"instrument":"TheGrandeurPiano","level2":20,"level3":null,"pitch":84,"articulation":"standard","articulation_tags":["standard","long"],"duration":0.5486111111111112,"velocity":91.80950510167979},
{"position":370.9166666666667,"instrument":"TheGrandeurPiano","level2":17,"level3":null,"pitch":42,"articulation":"standard","articulation_tags":["standard","long"],"duration":0.6875,"velocity":92.11563068266466},
{"position":370.9791666666667,"instrument":"TheGrandeurPiano","level2":20,"level3":null,"pitch":84,"articulation":"standard","articulation_tags":["standard","long"],"duration":2.322834645669291,"velocity":92.11563068266466},
{"position":371.1666666666667,"instrument":"TheGrandeurPiano","level2":14,"level3":null,"pitch":35,"articulation":"standard","articulation_tags":["standard","long"],"duration":0.5694444444444444,"velocity":92.15926246078655},
{"position":371.3125,"instrument":"TheGrandeurPiano","level2":20,"level3":null,"pitch":84,"articulation":"standard","articulation_tags":["standard","long"],"duration":0.5277777777777778,"velocity":91.14932267488558},
{"position":371.875,"instrument":"TheGrandeurPiano","level2":17,"level3":null,"pitch":42,"articulation":"standard","articulation_tags":["standard","long"],"duration":1.4652777777777777,"velocity":92.89721498559524},
{"position":371.9583333333333,"instrument":"TheGrandeurPiano","level2":17,"level3":null,"pitch":42,"articulation":"standard","articulation_tags":["standard","long"],"duration":0.6875,"velocity":92.89721498559524},
{"position":371.9895833333333,"instrument":"TubularBells","level2":20,"level3":4,"pitch":73,"articulation":"hits_dumped","articulation_tags":["hits_dumped","short","hits","dumped"],"duration":0.0625,"velocity":91.7217024199899},
{"position":372.0208333333333,"instrument":"TheGrandeurPiano","level2":14,"level3":null,"pitch":35,"articulation":"standard","articulation_tags":["standard","long"],"duration":0.5625,"velocity":92.33354017714396},
{"position":372.1041666666667,"instrument":"TheGrandeurPiano","level2":20,"level3":null,"pitch":83,"articulation":"standard","articulation_tags":["standard","long"],"duration":0.5,"velocity":92.33354017714396},
{"position":372.8541666666667,"instrument":"TheGrandeurPiano","level2":20,"level3":null,"pitch":83,"articulation":"standard","articulation_tags":["standard","long"],"duration":0.4861111111111111,"velocity":93.3280150789644},
{"position":372.8645833333333,"instrument":"TheGrandeurPiano","level2":14,"level3":null,"pitch":24,"articulation":"standard","articulation_tags":["standard","long"],"duration":0.5486111111111112,"velocity":93.3280150789644},
{"position":372.9895833333333,"instrument":"TheGrandeurPiano","level2":17,"level3":null,"pitch":42,"articulation":"standard","articulation_tags":["standard","long"],"duration":0.6875,"velocity":93.37096316063099},
{"position":373.4270833333333,"instrument":"TubularBells","level2":20,"level3":0,"pitch":72,"articulation":"hits","articulation_tags":["hits","short"],"duration":0.0625,"velocity":91.73149377073412},
{"position":373.5833333333333,"instrument":"TheGrandeurPiano","level2":20,"level3":null,"pitch":82,"articulation":"standard","articulation_tags":["standard","long"],"duration":0.4652777777777778,"velocity":92.33354017714396},
{"position":373.6875,"instrument":"TheGrandeurPiano","level2":14,"level3":null,"pitch":24,"articulation":"standard","articulation_tags":["standard","long"],"duration":0.5416666666666666,"velocity":92.89721498559524},
{"position":374.0104166666667,"instrument":"TheGrandeurPiano","level2":17,"level3":null,"pitch":42,"articulation":"standard","articulation_tags":["standard","long"],"duration":0.6805555555555556,"velocity":94.26742906074196},
{"position":374.0729166666667,"instrument":"TheGrandeurPiano","level2":17,"level3":null,"pitch":41,"articulation":"standard","articulation_tags":["standard","long"],"duration":1.2638888888888888,"velocity":91.80950510167979},
{"position":374.1666666666667,"instrument":"TubularBells","level2":20,"level3":3,"pitch":75,"articulation":"hits_dumped","articulation_tags":["hits_dumped","short","hits","dumped"],"duration":0.0625,"velocity":91.74372556933973},
{"position":374.28125,"instrument":"TheGrandeurPiano","level2":20,"level3":null,"pitch":82,"articulation":"standard","articulation_tags":["standard","long"],"duration":0.4513888888888889,"velocity":93.54251761329648},
{"position":374.4166666666667,"instrument":"TubularBells","level2":20,"level3":6,"pitch":73,"articulation":"hits","articulation_tags":["hits","short"],"duration":0.0625,"velocity":91.76083632261319},
{"position":374.4166666666667,"instrument":"TubularBells","level2":20,"level3":7,"pitch":74,"articulation":"hits_dumped","articulation_tags":["hits_dumped","short","hits","dumped"],"duration":0.0625,"velocity":91.76083632261319},
{"position":374.5,"instrument":"TheGrandeurPiano","level2":14,"level3":null,"pitch":25,"articulation":"standard","articulation_tags":["standard","long"],"duration":0.5277777777777778,"velocity":92.15926246078655},
{"position":374.9479166666667,"instrument":"TheGrandeurPiano","level2":20,"level3":null,"pitch":81,"articulation":"standard","articulation_tags":["standard","long"],"duration":0.4305555555555556,"velocity":93.37096316063099},
{"position":375.03125,"instrument":"TheGrandeurPiano","level2":17,"level3":null,"pitch":41,"articulation":"standard","articulation_tags":["standard","long"],"duration":0.6805555555555556,"velocity":92.50742090399027},
{"position":375.2916666666667,"instrument":"TheGrandeurPiano","level2":14,"level3":null,"pitch":25,"articulation":"standard","articulation_tags":["standard","long"],"duration":0.5138888888888888,"velocity":93.3280150789644},
{"position":375.6041666666667,"instrument":"TheGrandeurPiano","level2":20,"level3":null,"pitch":81,"articulation":"standard","articulation_tags":["standard","long"],"duration":0.4166666666666667,"velocity":92.89721498559524},
{"position":375.96875,"instrument":"TheGrandeurPiano","level2":17,"level3":null,"pitch":41,"articulation":"standard","articulation_tags":["standard","long"],"duration":1.125,"velocity":92.55082937324387},
{"position":376.0520833333333,"instrument":"TheGrandeurPiano","level2":17,"level3":null,"pitch":41,"articulation":"standard","articulation_tags":["standard","long"],"duration":0.6736111111111112,"velocity":92.63757255050447},
{"position":376.0625,"instrument":"TheGrandeurPiano","level2":14,"level3":null,"pitch":26,"articulation":"standard","articulation_tags":["standard","long"],"duration":0.5069444444444444,"velocity":92.63757255050447},
{"position":376.2291666666667,"instrument":"TheGrandeurPiano","level2":20,"level3":null,"pitch":80,"articulation":"standard","articulation_tags":["standard","long"],"duration":0.4027777777777778,"velocity":92.89721498559524},
{"position":376.4791666666667,"instrument":"Vibraphone","level2":20,"level3":6,"pitch":73,"articulation":"hits","articulation_tags":["hits","short"],"duration":0.0625,"velocity":91.84128629474739},
{"position":376.8229166666667,"instrument":"TheGrandeurPiano","level2":14,"level3":null,"pitch":26,"articulation":"standard","articulation_tags":["standard","long"],"duration":0.4930555555555556,"velocity":92.50742090399027},
{"position":376.8333333333333,"instrument":"TheGrandeurPiano","level2":20,"level3":null,"pitch":80,"articulation":"standard","articulation_tags":["standard","long"],"duration":0.3958333333333333,"velocity":92.50742090399027},
{"position":377.0,"instrument":"TheGrandeurPiano","level2":20,"level3":null,"pitch":80,"articulation":"standard","articulation_tags":["standard","long"],"duration":1.6597222222222223,"velocity":93.37096316063099},
{"position":377.0625,"instrument":"TheGrandeurPiano","level2":17,"level3":null,"pitch":41,"articulation":"standard","articulation_tags":["standard","long"],"duration":0.6736111111111112,"velocity":92.11563068266466},
{"position":377.4270833333333,"instrument":"TheGrandeurPiano","level2":20,"level3":null,"pitch":79,"articulation":"standard","articulation_tags":["standard","long"],"duration":0.3819444444444444,"velocity":92.15926246078655},
{"position":377.5625,"instrument":"Vibraphone","level2":20,"level3":7,"pitch":74,"articulation":"hits","articulation_tags":["hits","short"],"duration":0.0625,"velocity":91.6234979732434},
{"position":377.5625,"instrument":"TheGrandeurPiano","level2":14,"level3":null,"pitch":27,"articulation":"standard","articulation_tags":["standard","long"],"duration":0.4861111111111111,"velocity":93.54251761329648},
{"position":377.65625,"instrument":"TheGrandeurPiano","level2":17,"level3":null,"pitch":40,"articulation":"standard","articulation_tags":["standard","long"],"duration":1.0138888888888888,"velocity":92.63757255050447},
{"position":378.0,"instrument":"TheGrandeurPiano","level2":20,"level3":null,"pitch":79,"articulation":"standard","articulation_tags":["standard","long"],"duration":0.3680555555555556,"velocity":91.0608596393069},
{"position":378.0729166666667,"instrument":"TheGrandeurPiano","level2":17,"level3":null,"pitch":40,"articulation":"standard","articulation_tags":["standard","long"],"duration":0.6666666666666666,"velocity":92.89721498559524},
{"position":378.2916666666667,"instrument":"TheGrandeurPiano","level2":14,"level3":null,"pitch":27,"articulation":"standard","articulation_tags":["standard","long"],"duration":0.4791666666666667,"velocity":92.33354017714396},
{"position":378.5520833333333,"instrument":"TheGrandeurPiano","level2":20,"level3":null,"pitch":78,"articulation":"standard","articulation_tags":["standard","long"],"duration":0.3611111111111111,"velocity":91.4581265931792},
{"position":379.0104166666667,"instrument":"TheGrandeurPiano","level2":14,"level3":null,"pitch":28,"articulation":"standard","articulation_tags":["standard","long"],"duration":0.4652777777777778,"velocity":90.79484276128078},
{"position":379.0729166666667,"instrument":"TheGrandeurPiano","level2":17,"level3":null,"pitch":40,"articulation":"standard","articulation_tags":["standard","long"],"duration":0.6597222222222222,"velocity":90.75041457633228},
{"position":379.09375,"instrument":"TheGrandeurPiano","level2":20,"level3":null,"pitch":78,"articulation":"standard","articulation_tags":["standard","long"],"duration":0.3472222222222222,"velocity":90.75041457633228},
{"position":379.1875,"instrument":"TheGrandeurPiano","level2":17,"level3":null,"pitch":40,"articulation":"standard","articulation_tags":["standard","long"],"duration":0.9305555555555556,"velocity":90.79484276128078},
{"position":379.4895833333333,"instrument":"TheGrandeurPiano","level2":20,"level3":null,"pitch":78,"articulation":"standard","articulation_tags":["standard","long"],"duration":1.0208333333333333,"velocity":91.14932267488558},
{"position":379.6145833333333,"instrument":"TheGrandeurPiano","level2":20,"level3":null,"pitch":77,"articulation":"standard","articulation_tags":["standard","long"],"duration":0.3402777777777778,"velocity":91.4581265931792},
{"position":379.7083333333333,"instrument":"TheGrandeurPiano","level2":14,"level3":null,"pitch":28,"articulation":"standard","articulation_tags":["standard","long"],"duration":0.4583333333333333,"velocity":91.85331296728432},
{"position":380.0625,"instrument":"TheGrandeurPiano","level2":17,"level3":null,"pitch":40,"articulation":"standard","articulation_tags":["standard","long"],"duration":0.6597222222222222,"velocity":90.3940339309826},
{"position":380.1354166666667,"instrument":"TheGrandeurPiano","level2":20,"level3":null,"pitch":77,"articulation":"standard","articulation_tags":["standard","long"],"duration":0.3333333333333333,"velocity":90.3940339309826},
{"position":380.3958333333333,"instrument":"TheGrandeurPiano","level2":14,"level3":null,"pitch":29,"articulation":"standard","articulation_tags":["standard","long"],"duration":0.4513888888888889,"velocity":89.35979637681183},
{"position":380.5729166666667,"instrument":"TheGrandeurPiano","level2":17,"level3":null,"pitch":39,"articulation":"standard","articulation_tags":["standard","long"],"duration":0.8611111111111112,"velocity":90.21520185999303},
{"position":380.625,"instrument":"TheGrandeurPiano","level2":20,"level3":null,"pitch":76,"articulation":"standard","articulation_tags":["standard","long"],"duration":0.3194444444444444,"velocity":88.7687254793025},
{"position":381.0208333333333,"instrument":"TheGrandeurPiano","level2":20,"level3":null,"pitch":76,"articulation":"standard","articulation_tags":["standard","long"],"duration":0.7916666666666666,"velocity":88.63164141631786},
{"position":381.0520833333333,"instrument":"TheGrandeurPiano","level2":17,"level3":null,"pitch":39,"articulation":"standard","articulation_tags":["standard","long"],"duration":0.6527777777777778,"velocity":88.63164141631786},
{"position":381.0729166666667,"instrument":"TheGrandeurPiano","level2":14,"level3":null,"pitch":29,"articulation":"standard","articulation_tags":["standard","long"],"duration":0.4375,"velocity":89.85623868238997},
{"position":381.1145833333333,"instrument":"TheGrandeurPiano","level2":20,"level3":null,"pitch":76,"articulation":"standard","articulation_tags":["standard","long"],"duration":0.3125,"velocity":89.85623868238997},
{"position":381.5833333333333,"instrument":"TheGrandeurPiano","level2":20,"level3":null,"pitch":75,"articulation":"standard","articulation_tags":["standard","long"],"duration":0.09722222222222222,"velocity":88.21882798597645},
{"position":381.7291666666667,"instrument":"TheGrandeurPiano","level2":14,"level3":null,"pitch":30,"articulation":"standard","articulation_tags":["standard","long"],"duration":0.4305555555555556,"velocity":87.66471114470511},
{"position":381.7291666666667,"instrument":"TheGrandeurPiano","level2":20,"level3":null,"pitch":75,"articulation":"standard","articulation_tags":["standard","long"],"duration":0.06944444444444445,"velocity":87.66471114470511},
{"position":381.8020833333333,"instrument":"TubularBells","level2":20,"level3":7,"pitch":74,"articulation":"hits_dumped","articulation_tags":["hits_dumped","short","hits","dumped"],"duration":0.0625,"velocity":91.64072212835109},
{"position":381.8333333333333,"instrument":"TheGrandeurPiano","level2":20,"level3":null,"pitch":74,"articulation":"standard","articulation_tags":["standard","long"],"duration":0.0625,"velocity":87.29290728147271},
{"position":381.8645833333333,"instrument":"TheGrandeurPiano","level2":17,"level3":null,"pitch":39,"articulation":"standard","articulation_tags":["standard","long"],"duration":0.7916666666666666,"velocity":87.29290728147271},
{"position":381.9270833333333,"instrument":"TheGrandeurPiano","level2":20,"level3":null,"pitch":74,"articulation":"standard","articulation_tags":["standard","long"],"duration":0.0625,"velocity":87.29290728147271},
{"position":382.03125,"instrument":"TheGrandeurPiano","level2":17,"level3":null,"pitch":39,"articulation":"standard","articulation_tags":["standard","long"],"duration":0.6458333333333334,"velocity":87.1062763139794},
{"position":382.03125,"instrument":"TheGrandeurPiano","level2":20,"level3":null,"pitch":73,"articulation":"standard","articulation_tags":["standard","long"],"duration":0.0625,"velocity":87.1062763139794},
{"position":382.125,"instrument":"TheGrandeurPiano","level2":20,"level3":null,"pitch":73,"articulation":"standard","articulation_tags":["standard","long"],"duration":0.0625,"velocity":87.1062763139794},
{"position":382.1979166666667,"instrument":"TheGrandeurPiano","level2":20,"level3":null,"pitch":73,"articulation":"standard","articulation_tags":["standard","long"],"duration":0.375,"velocity":88.90555178404179},
{"position":382.21875,"instrument":"TheGrandeurPiano","level2":20,"level3":null,"pitch":72,"articulation":"standard","articulation_tags":["standard","long"],"duration":0.0625,"velocity":87.1062763139794},
{"position":382.3020833333333,"instrument":"TheGrandeurPiano","level2":20,"level3":null,"pitch":72,"articulation":"standard","articulation_tags":["standard","long"],"duration":0.0625,"velocity":87.1062763139794},
{"position":382.375,"instrument":"TheGrandeurPiano","level2":14,"level3":null,"pitch":30,"articulation":"standard","articulation_tags":["standard","long"],"duration":0.4236111111111111,"velocity":87.1062763139794},
{"position":382.3958333333333,"instrument":"TheGrandeurPiano","level2":20,"level3":null,"pitch":71,"articulation":"standard","articulation_tags":["standard","long"],"duration":0.05555555555555555,"velocity":85.35613621192228},
{"position":382.4791666666667,"instrument":"TheGrandeurPiano","level2":20,"level3":null,"pitch":71,"articulation":"standard","articulation_tags":["standard","long"],"duration":0.05555555555555555,"velocity":87.29290728147271},
{"position":382.5625,"instrument":"TheGrandeurPiano","level2":20,"level3":null,"pitch":70,"articulation":"standard","articulation_tags":["standard","long"],"duration":0.05555555555555555,"velocity":85.64293055546796},
{"position":382.65625,"instrument":"TheGrandeurPiano","level2":20,"level3":null,"pitch":70,"articulation":"standard","articulation_tags":["standard","long"],"duration":0.05555555555555555,"velocity":87.66471114470511},
{"position":382.7291666666667,"instrument":"TheGrandeurPiano","level2":20,"level3":null,"pitch":69,"articulation":"standard","articulation_tags":["standard","long"],"duration":0.05555555555555555,"velocity":86.1183144397056},
{"position":382.7708333333333,"instrument":"TheGrandeurPiano","level2":20,"level3":null,"pitch":69,"articulation":"standard","articulation_tags":["standard","long"],"duration":0.2361111111111111,"velocity":86.1183144397056},
{"position":382.8125,"instrument":"TheGrandeurPiano","level2":20,"level3":null,"pitch":69,"articulation":"standard","articulation_tags":["standard","long"],"duration":0.05555555555555555,"velocity":86.1183144397056},
{"position":382.8958333333333,"instrument":"TheGrandeurPiano","level2":20,"level3":null,"pitch":68,"articulation":"standard","articulation_tags":["standard","long"],"duration":0.04861111111111111,"velocity":84.63390754560878},
{"position":382.96875,"instrument":"TheGrandeurPiano","level2":20,"level3":null,"pitch":68,"articulation":"standard","articulation_tags":["standard","long"],"duration":0.04861111111111111,"velocity":86.77848798033058},
{"position":383.0,"instrument":"TheGrandeurPiano","level2":17,"level3":null,"pitch":39,"articulation":"standard","articulation_tags":["standard","long"],"duration":0.6388888888888888,"velocity":86.77848798033058},
{"position":383.0104166666667,"instrument":"TheGrandeurPiano","level2":14,"level3":null,"pitch":31,"articulation":"standard","articulation_tags":["standard","long"],"duration":0.4166666666666667,"velocity":86.77848798033058},
{"position":383.0416666666667,"instrument":"TheGrandeurPiano","level2":20,"level3":null,"pitch":67,"articulation":"standard","articulation_tags":["standard","long"],"duration":0.04861111111111111,"velocity":86.77848798033058},
{"position":383.0520833333333,"instrument":"TheGrandeurPiano","level2":17,"level3":null,"pitch":38,"articulation":"standard","articulation_tags":["standard","long"],"duration":0.7430555555555556,"velocity":86.77848798033058},
{"position":383.125,"instrument":"TheGrandeurPiano","level2":20,"level3":null,"pitch":67,"articulation":"standard","articulation_tags":["standard","long"],"duration":0.04861111111111111,"velocity":85.40401756813424},
{"position":383.125,"instrument":"TheGrandeurPiano","level2":20,"level3":null,"pitch":67,"articulation":"standard","articulation_tags":["standard","long"],"duration":0.1736111111111111,"velocity":85.40401756813424},
{"position":383.1875,"instrument":"TheGrandeurPiano","level2":20,"level3":null,"pitch":66,"articulation":"standard","articulation_tags":["standard","long"],"duration":0.04861111111111111,"velocity":85.40401756813424},
{"position":383.2604166666667,"instrument":"TheGrandeurPiano","level2":20,"level3":null,"pitch":66,"articulation":"standard","articulation_tags":["standard","long"],"duration":0.04861111111111111,"velocity":86.3548018376946},
{"position":383.3333333333333,"instrument":"TheGrandeurPiano","level2":20,"level3":null,"pitch":65,"articulation":"standard","articulation_tags":["standard","long"],"duration":0.041666666666666664,"velocity":86.3548018376946},
{"position":383.3854166666667,"instrument":"TheGrandeurPiano","level2":20,"level3":null,"pitch":65,"articulation":"standard","articulation_tags":["standard","long"],"duration":0.1388888888888889,"velocity":85.16427931267728},
{"position":383.3958333333333,"instrument":"TheGrandeurPiano","level2":20,"level3":null,"pitch":65,"articulation":"standard","articulation_tags":["standard","long"],"duration":0.041666666666666664,"velocity":85.16427931267728},
{"position":383.46875,"instrument":"TheGrandeurPiano","level2":20,"level3":null,"pitch":64,"articulation":"standard","articulation_tags":["standard","long"],"duration":0.041666666666666664,"velocity":85.16427931267728},
{"position":383.53125,"instrument":"TheGrandeurPiano","level2":20,"level3":null,"pitch":64,"articulation":"standard","articulation_tags":["standard","long"],"duration":0.041666666666666664,"velocity":84.0506059691252},
{"position":383.59375,"instrument":"TheGrandeurPiano","level2":20,"level3":null,"pitch":63,"articulation":"standard","articulation_tags":["standard","long"],"duration":0.041666666666666664,"velocity":86.40200399116807},
{"position":383.59375,"instrument":"TheGrandeurPiano","level2":20,"level3":null,"pitch":63,"articulation":"standard","articulation_tags":["standard","long"],"duration":0.1111111111111111,"velocity":86.40200399116807},
{"position":383.6354166666667,"instrument":"TubularBells","level2":20,"level3":1,"pitch":75,"articulation":"hits_dumped","articulation_tags":["hits_dumped","short","hits","dumped"],"duration":0.0625,"velocity":93.51623012165463},
{"position":383.6354166666667,"instrument":"TheGrandeurPiano","level2":14,"level3":null,"pitch":31,"articulation":"standard","articulation_tags":["standard","long"],"duration":0.4097222222222222,"velocity":86.40200399116807},
{"position":383.65625,"instrument":"TheGrandeurPiano","level2":20,"level3":null,"pitch":63,"articulation":"standard","articulation_tags":["standard","long"],"duration":0.041666666666666664,"velocity":86.40200399116807},
{"position":383.71875,"instrument":"TheGrandeurPiano","level2":20,"level3":null,"pitch":62,"articulation":"standard","articulation_tags":["standard","long"],"duration":0.041666666666666664,"velocity":85.40401756813424},
{"position":383.7708333333333,"instrument":"TheGrandeurPiano","level2":20,"level3":null,"pitch":62,"articulation":"standard","articulation_tags":["standard","long"],"duration":0.09722222222222222,"velocity":85.40401756813424},
{"position":383.7708333333333,"instrument":"TheGrandeurPiano","level2":20,"level3":null,"pitch":62,"articulation":"standard","articulation_tags":["standard","long"],"duration":0.034722222222222224,"velocity":85.40401756813424},
{"position":383.8333333333333,"instrument":"TheGrandeurPiano","level2":20,"level3":null,"pitch":61,"articulation":"standard","articulation_tags":["standard","long"],"duration":0.034722222222222224,"velocity":84.48854788886726},
{"position":383.8854166666667,"instrument":"TheGrandeurPiano","level2":20,"level3":null,"pitch":61,"articulation":"standard","articulation_tags":["standard","long"],"duration":0.034722222222222224,"velocity":84.48854788886726},
{"position":383.90625,"instrument":"TheGrandeurPiano","level2":20,"level3":null,"pitch":61,"articulation":"standard","articulation_tags":["standard","long"],"duration":0.08333333333333333,"velocity":84.48854788886726},
{"position":383.9375,"instrument":"TheGrandeurPiano","level2":20,"level3":null,"pitch":60,"articulation":"standard","articulation_tags":["standard","long"],"duration":0.034722222222222224,"velocity":84.48854788886726},
{"position":383.9583333333333,"instrument":"TheGrandeurPiano","level2":17,"level3":null,"pitch":38,"articulation":"standard","articulation_tags":["standard","long"],"duration":0.6319444444444444,"velocity":84.48854788886726},
{"position":383.9895833333333,"instrument":"TheGrandeurPiano","level2":20,"level3":null,"pitch":60,"articulation":"standard","articulation_tags":["standard","long"],"duration":0.034722222222222224,"velocity":83.65894455248163},
{"position":384.03125,"instrument":"TheGrandeurPiano","level2":20,"level3":null,"pitch":60,"articulation":"standard","articulation_tags":["standard","long"],"duration":0.06944444444444445,"velocity":83.65894455248163},
{"position":384.0416666666667,"instrument":"TheGrandeurPiano","level2":20,"level3":null,"pitch":59,"articulation":"standard","articulation_tags":["standard","long"],"duration":0.034722222222222224,"velocity":83.65894455248163},
{"position":384.09375,"instrument":"TheGrandeurPiano","level2":20,"level3":null,"pitch":59,"articulation":"standard","articulation_tags":["standard","long"],"duration":0.034722222222222224,"velocity":86.1183144397056},
{"position":384.1354166666667,"instrument":"TheGrandeurPiano","level2":20,"level3":null,"pitch":59,"articulation":"standard","articulation_tags":["standard","long"],"duration":0.0625,"velocity":85.40401756813424},
{"position":384.1354166666667,"instrument":"TheGrandeurPiano","level2":20,"level3":null,"pitch":58,"articulation":"standard","articulation_tags":["standard","long"],"duration":0.027777777777777776,"velocity":85.40401756813424},
{"position":384.1666666666667,"instrument":"TheGrandeurPiano","level2":17,"level3":null,"pitch":38,"articulation":"standard","articulation_tags":["standard","long"],"duration":0.6944444444444444,"velocity":85.40401756813424},
{"position":384.1875,"instrument":"TheGrandeurPiano","level2":20,"level3":null,"pitch":58,"articulation":"standard","articulation_tags":["standard","long"],"duration":0.027777777777777776,"velocity":85.40401756813424},
{"position":384.2291666666667,"instrument":"TheGrandeurPiano","level2":20,"level3":null,"pitch":58,"articulation":"standard","articulation_tags":["standard","long"],"duration":0.05555555555555555,"velocity":85.40401756813424},
{"position":384.2291666666667,"instrument":"TheGrandeurPiano","level2":20,"level3":null,"pitch":57,"articulation":"standard","articulation_tags":["standard","long"],"duration":0.027777777777777776,"velocity":85.40401756813424},
{"position":384.25,"instrument":"TheGrandeurPiano","level2":14,"level3":null,"pitch":32,"articulation":"standard","articulation_tags":["standard","long"],"duration":0.3958333333333333,"velocity":85.40401756813424},
{"position":384.2708333333333,"instrument":"TheGrandeurPiano","level2":20,"level3":null,"pitch":57,"articulation":"standard","articulation_tags":["standard","long"],"duration":0.027777777777777776,"velocity":84.77895999528258},
{"position":384.3020833333333,"instrument":"TheGrandeurPiano","level2":20,"level3":null,"pitch":57,"articulation":"standard","articulation_tags":["standard","long"],"duration":0.04861111111111111,"velocity":84.77895999528258},
{"position":384.3125,"instrument":"TheGrandeurPiano","level2":20,"level3":null,"pitch":56,"articulation":"standard","articulation_tags":["standard","long"],"duration":0.027777777777777776,"velocity":84.77895999528258},
{"position":384.3541666666667,"instrument":"TheGrandeurPiano","level2":20,"level3":null,"pitch":56,"articulation":"standard","articulation_tags":["standard","long"],"duration":0.027777777777777776,"velocity":84.77895999528258},
{"position":384.375,"instrument":"TheGrandeurPiano","level2":20,"level3":null,"pitch":56,"articulation":"standard","articulation_tags":["standard","long"],"duration":0.041666666666666664,"velocity":84.77895999528258},
{"position":384.3958333333333,"instrument":"TheGrandeurPiano","level2":20,"level3":null,"pitch":55,"articulation":"standard","articulation_tags":["standard","long"],"duration":0.027777777777777776,"velocity":84.77895999528258},
{"position":384.4270833333333,"instrument":"TheGrandeurPiano","level2":20,"level3":null,"pitch":55,"articulation":"standard","articulation_tags":["standard","long"],"duration":0.020833333333333332,"velocity":84.24559377842512},
{"position":384.4375,"instrument":"TheGrandeurPiano","level2":20,"level3":null,"pitch":55,"articulation":"standard","articulation_tags":["standard","long"],"duration":0.034722222222222224,"velocity":84.24559377842512},
{"position":384.46875,"instrument":"TheGrandeurPiano","level2":20,"level3":null,"pitch":54,"articulation":"standard","articulation_tags":["standard","long"],"duration":0.020833333333333332,"velocity":84.24559377842512},
{"position":384.4895833333333,"instrument":"TheGrandeurPiano","level2":20,"level3":null,"pitch":54,"articulation":"standard","articulation_tags":["standard","long"],"duration":0.034722222222222224,"velocity":84.24559377842512},
{"position":384.5,"instrument":"TheGrandeurPiano","level2":20,"level3":null,"pitch":54,"articulation":"standard","articulation_tags":["standard","long"],"duration":0.020833333333333332,"velocity":84.24559377842512},
{"position":384.53125,"instrument":"TheGrandeurPiano","level2":20,"level3":null,"pitch":53,"articulation":"standard","articulation_tags":["standard","long"],"duration":0.020833333333333332,"velocity":84.24559377842512},
{"position":384.5416666666667,"instrument":"TheGrandeurPiano","level2":20,"level3":null,"pitch":53,"articulation":"standard","articulation_tags":["standard","long"],"duration":0.027777777777777776,"velocity":84.24559377842512},
{"position":384.5625,"instrument":"TheGrandeurPiano","level2":20,"level3":null,"pitch":53,"articulation":"standard","articulation_tags":["standard","long"],"duration":0.020833333333333332,"velocity":83.80608269918925},
{"position":384.5833333333333,"instrument":"TheGrandeurPiano","level2":20,"level3":null,"pitch":53,"articulation":"standard","articulation_tags":["standard","long"],"duration":0.027777777777777776,"velocity":83.80608269918925},
{"position":384.59375,"instrument":"TheGrandeurPiano","level2":20,"level3":null,"pitch":52,"articulation":"standard","articulation_tags":["standard","long"],"duration":0.020833333333333332,"velocity":83.80608269918925},
{"position":384.6145833333333,"instrument":"TheGrandeurPiano","level2":20,"level3":null,"pitch":52,"articulation":"standard","articulation_tags":["standard","long"],"duration":0.020833333333333332,"velocity":83.80608269918925},
{"position":384.625,"instrument":"TheGrandeurPiano","level2":20,"level3":null,"pitch":52,"articulation":"standard","articulation_tags":["standard","long"],"duration":0.020833333333333332,"velocity":83.80608269918925},
{"position":384.65625,"instrument":"TheGrandeurPiano","level2":20,"level3":null,"pitch":52,"articulation":"standard","articulation_tags":["standard","long"],"duration":0.020833333333333332,"velocity":83.80608269918925},
{"position":384.65625,"instrument":"TheGrandeurPiano","level2":20,"level3":null,"pitch":51,"articulation":"standard","articulation_tags":["standard","long"],"duration":0.013888888888888888,"velocity":83.80608269918925},
{"position":384.6770833333333,"instrument":"TheGrandeurPiano","level2":20,"level3":null,"pitch":51,"articulation":"standard","articulation_tags":["standard","long"],"duration":0.013888888888888888,"velocity":83.80608269918925},
{"position":384.6770833333333,"instrument":"TheGrandeurPiano","level2":20,"level3":null,"pitch":51,"articulation":"standard","articulation_tags":["standard","long"],"duration":0.013888888888888888,"velocity":83.80608269918925},
{"position":384.6979166666667,"instrument":"TheGrandeurPiano","level2":20,"level3":null,"pitch":50,"articulation":"standard","articulation_tags":["standard","long"],"duration":0.013888888888888888,"velocity":83.46226115800674},
{"position":384.7083333333333,"instrument":"TheGrandeurPiano","level2":20,"level3":null,"pitch":50,"articulation":"standard","articulation_tags":["standard","long"],"duration":0.013888888888888888,"velocity":83.46226115800674},
{"position":384.71875,"instrument":"TheGrandeurPiano","level2":20,"level3":null,"pitch":50,"articulation":"standard","articulation_tags":["standard","long"],"duration":0.013888888888888888,"velocity":83.46226115800674},
{"position":384.7291666666667,"instrument":"TheGrandeurPiano","level2":20,"level3":null,"pitch":50,"articulation":"standard","articulation_tags":["standard","long"],"duration":0.013888888888888888,"velocity":83.46226115800674},
{"position":384.7395833333333,"instrument":"TheGrandeurPiano","level2":20,"level3":null,"pitch":49,"articulation":"standard","articulation_tags":["standard","long"],"duration":0.013888888888888888,"velocity":83.46226115800674},
{"position":384.75,"instrument":"TheGrandeurPiano","level2":20,"level3":null,"pitch":49,"articulation":"standard","articulation_tags":["standard","long"],"duration":0.013888888888888888,"velocity":83.46226115800674},
{"position":384.7604166666667,"instrument":"TheGrandeurPiano","level2":20,"level3":null,"pitch":49,"articulation":"standard","articulation_tags":["standard","long"],"duration":0.013888888888888888,"velocity":83.46226115800674},
{"position":384.7708333333333,"instrument":"TheGrandeurPiano","level2":20,"level3":null,"pitch":49,"articulation":"standard","articulation_tags":["standard","long"],"duration":0.006944444444444444,"velocity":83.46226115800674},
{"position":384.78125,"instrument":"TheGrandeurPiano","level2":20,"level3":null,"pitch":48,"articulation":"standard","articulation_tags":["standard","long"],"duration":0.013888888888888888,"velocity":83.46226115800674},
{"position":384.78125,"instrument":"TheGrandeurPiano","level2":20,"level3":null,"pitch":48,"articulation":"standard","articulation_tags":["standard","long"],"duration":0.006944444444444444,"velocity":83.46226115800674},
{"position":384.7916666666667,"instrument":"TheGrandeurPiano","level2":20,"level3":null,"pitch":48,"articulation":"standard","articulation_tags":["standard","long"],"duration":0.006944444444444444,"velocity":83.46226115800674},
{"position":384.7916666666667,"instrument":"TheGrandeurPiano","level2":20,"level3":null,"pitch":48,"articulation":"standard","articulation_tags":["standard","long"],"duration":0.006944444444444444,"velocity":83.46226115800674},
{"position":384.8125,"instrument":"TheGrandeurPiano","level2":20,"level3":null,"pitch":48,"articulation":"standard","articulation_tags":["standard","long"],"duration":0.006944444444444444,"velocity":83.46226115800674},
{"position":384.8125,"instrument":"TheGrandeurPiano","level2":20,"level3":null,"pitch":47,"articulation":"standard","articulation_tags":["standard","long"],"duration":0.006944444444444444,"velocity":83.46226115800674},
{"position":384.8229166666667,"instrument":"TheGrandeurPiano","level2":20,"level3":null,"pitch":47,"articulation":"standard","articulation_tags":["standard","long"],"duration":0.006944444444444444,"velocity":83.46226115800674},
{"position":384.8229166666667,"instrument":"TheGrandeurPiano","level2":20,"level3":null,"pitch":47,"articulation":"standard","articulation_tags":["standard","long"],"duration":0.006944444444444444,"velocity":83.46226115800674},
{"position":384.8229166666667,"instrument":"TheGrandeurPiano","level2":20,"level3":null,"pitch":47,"articulation":"standard","articulation_tags":["standard","long"],"duration":0.006944444444444444,"velocity":83.46226115800674},
{"position":384.8333333333333,"instrument":"TheGrandeurPiano","level2":20,"level3":null,"pitch":47,"articulation":"standard","articulation_tags":["standard","long"],"duration":0.006944444444444444,"velocity":83.21559758564419},
{"position":384.8333333333333,"instrument":"TheGrandeurPiano","level2":20,"level3":null,"pitch":46,"articulation":"standard","articulation_tags":["standard","long"],"duration":0.006944444444444444,"velocity":83.21559758564419},
{"position":384.84375,"instrument":"TheGrandeurPiano","level2":14,"level3":null,"pitch":32,"articulation":"standard","articulation_tags":["standard","long"],"duration":0.3888888888888889,"velocity":83.21559758564419},
{"position":384.84375,"instrument":"TheGrandeurPiano","level2":20,"level3":null,"pitch":46,"articulation":"standard","articulation_tags":["standard","long"],"duration":0.006944444444444444,"velocity":83.21559758564419},
{"position":384.84375,"instrument":"TheGrandeurPiano","level2":20,"level3":null,"pitch":46,"articulation":"standard","articulation_tags":["standard","long"],"duration":0.006944444444444444,"velocity":83.21559758564419},
{"position":384.84375,"instrument":"TheGrandeurPiano","level2":20,"level3":null,"pitch":46,"articulation":"standard","articulation_tags":["standard","long"],"duration":0.0,"velocity":83.21559758564419},
{"position":384.8541666666667,"instrument":"TheGrandeurPiano","level2":20,"level3":null,"pitch":46,"articulation":"standard","articulation_tags":["standard","long"],"duration":0.0,"velocity":83.21559758564419},
{"position":384.8541666666667,"instrument":"TheGrandeurPiano","level2":20,"level3":null,"pitch":45,"articulation":"standard","articulation_tags":["standard","long"],"duration":0.006944444444444444,"velocity":83.21559758564419},
{"position":384.8541666666667,"instrument":"TheGrandeurPiano","level2":20,"level3":null,"pitch":45,"articulation":"standard","articulation_tags":["standard","long"],"duration":0.0,"velocity":83.21559758564419},
{"position":384.8541666666667,"instrument":"TheGrandeurPiano","level2":20,"level3":null,"pitch":45,"articulation":"standard","articulation_tags":["standard","long"],"duration":0.0,"velocity":83.21559758564419},
{"position":384.8541666666667,"instrument":"TheGrandeurPiano","level2":20,"level3":null,"pitch":45,"articulation":"standard","articulation_tags":["standard","long"],"duration":0.006944444444444444,"velocity":83.21559758564419},
{"position":384.8645833333333,"instrument":"TheGrandeurPiano","level2":20,"level3":null,"pitch":45,"articulation":"standard","articulation_tags":["standard","long"],"duration":0.0,"velocity":83.21559758564419},
{"position":384.8645833333333,"instrument":"TheGrandeurPiano","level2":20,"level3":null,"pitch":45,"articulation":"standard","articulation_tags":["standard","long"],"duration":0.0,"velocity":83.21559758564419},
{"position":384.8645833333333,"instrument":"TheGrandeurPiano","level2":20,"level3":null,"pitch":44,"articulation":"standard","articulation_tags":["standard","long"],"duration":0.0,"velocity":83.21559758564419},
{"position":384.8645833333333,"instrument":"TheGrandeurPiano","level2":20,"level3":null,"pitch":44,"articulation":"standard","articulation_tags":["standard","long"],"duration":0.0,"velocity":83.21559758564419},
{"position":384.8645833333333,"instrument":"TheGrandeurPiano","level2":20,"level3":null,"pitch":44,"articulation":"standard","articulation_tags":["standard","long"],"duration":0.0,"velocity":83.21559758564419},
{"position":384.8645833333333,"instrument":"TheGrandeurPiano","level2":20,"level3":null,"pitch":44,"articulation":"standard","articulation_tags":["standard","long"],"duration":0.006944444444444444,"velocity":83.21559758564419},
{"position":384.8645833333333,"instrument":"TheGrandeurPiano","level2":20,"level3":null,"pitch":44,"articulation":"standard","articulation_tags":["standard","long"],"duration":0.0,"velocity":83.21559758564419},
{"position":384.875,"instrument":"TheGrandeurPiano","level2":20,"level3":null,"pitch":44,"articulation":"standard","articulation_tags":["standard","long"],"duration":0.0,"velocity":83.21559758564419},
{"position":384.875,"instrument":"TheGrandeurPiano","level2":20,"level3":null,"pitch":44,"articulation":"standard","articulation_tags":["standard","long"],"duration":0.0,"velocity":83.21559758564419},
{"position":384.875,"instrument":"TheGrandeurPiano","level2":20,"level3":null,"pitch":44,"articulation":"standard","articulation_tags":["standard","long"],"duration":0.0,"velocity":83.21559758564419},
{"position":384.875,"instrument":"TheGrandeurPiano","level2":20,"level3":null,"pitch":43,"articulation":"standard","articulation_tags":["standard","long"],"duration":0.013888888888888888,"velocity":83.21559758564419},
{"position":384.875,"instrument":"TheGrandeurPiano","level2":20,"level3":null,"pitch":43,"articulation":"standard","articulation_tags":["standard","long"],"duration":0.0,"velocity":83.21559758564419},
{"position":384.875,"instrument":"TheGrandeurPiano","level2":20,"level3":null,"pitch":43,"articulation":"standard","articulation_tags":["standard","long"],"duration":0.0,"velocity":83.21559758564419},
{"position":384.8854166666667,"instrument":"TheGrandeurPiano","level2":20,"level3":null,"pitch":43,"articulation":"standard","articulation_tags":["standard","long"],"duration":0.0,"velocity":83.21559758564419},
{"position":384.8854166666667,"instrument":"TheGrandeurPiano","level2":20,"level3":null,"pitch":43,"articulation":"standard","articulation_tags":["standard","long"],"duration":0.0,"velocity":83.21559758564419},
{"position":384.8854166666667,"instrument":"TheGrandeurPiano","level2":20,"level3":null,"pitch":43,"articulation":"standard","articulation_tags":["standard","long"],"duration":0.0,"velocity":83.21559758564419},
{"position":384.8958333333333,"instrument":"TheGrandeurPiano","level2":20,"level3":null,"pitch":43,"articulation":"standard","articulation_tags":["standard","long"],"duration":0.0,"velocity":83.21559758564419},
{"position":384.8958333333333,"instrument":"TheGrandeurPiano","level2":20,"level3":null,"pitch":43,"articulation":"standard","articulation_tags":["standard","long"],"duration":0.034722222222222224,"velocity":83.21559758564419},
{"position":384.8958333333333,"instrument":"TheGrandeurPiano","level2":20,"level3":null,"pitch":43,"articulation":"standard","articulation_tags":["standard","long"],"duration":0.006944444444444444,"velocity":83.21559758564419},
{"position":384.90625,"instrument":"TheGrandeurPiano","level2":20,"level3":null,"pitch":43,"articulation":"standard","articulation_tags":["standard","long"],"duration":0.006944444444444444,"velocity":83.21559758564419},
{"position":384.90625,"instrument":"TheGrandeurPiano","level2":20,"level3":null,"pitch":43,"articulation":"standard","articulation_tags":["standard","long"],"duration":0.006944444444444444,"velocity":83.21559758564419},
{"position":384.9166666666667,"instrument":"TheGrandeurPiano","level2":17,"level3":null,"pitch":38,"articulation":"standard","articulation_tags":["standard","long"],"duration":0.6319444444444444,"velocity":83.21559758564419},
{"position":384.9166666666667,"instrument":"TheGrandeurPiano","level2":20,"level3":null,"pitch":43,"articulation":"standard","articulation_tags":["standard","long"],"duration":0.006944444444444444,"velocity":83.21559758564419},
{"position":384.9270833333333,"instrument":"TheGrandeurPiano","level2":20,"level3":null,"pitch":43,"articulation":"standard","articulation_tags":["standard","long"],"duration":0.006944444444444444,"velocity":83.21559758564419},
{"position":384.9375,"instrument":"TheGrandeurPiano","level2":20,"level3":null,"pitch":43,"articulation":"standard","articulation_tags":["standard","long"],"duration":0.006944444444444444,"velocity":83.21559758564419},
{"position":384.9479166666667,"instrument":"TheGrandeurPiano","level2":20,"level3":null,"pitch":43,"articulation":"standard","articulation_tags":["standard","long"],"duration":0.0625,"velocity":83.21559758564419},
{"position":384.9479166666667,"instrument":"TheGrandeurPiano","level2":20,"level3":null,"pitch":43,"articulation":"standard","articulation_tags":["standard","long"],"duration":0.006944444444444444,"velocity":83.21559758564419},
{"position":384.9583333333333,"instrument":"TheGrandeurPiano","level2":20,"level3":null,"pitch":43,"articulation":"standard","articulation_tags":["standard","long"],"duration":0.006944444444444444,"velocity":83.21559758564419},
{"position":384.96875,"instrument":"TheGrandeurPiano","level2":20,"level3":null,"pitch":43,"articulation":"standard","articulation_tags":["standard","long"],"duration":0.006944444444444444,"velocity":83.21559758564419},
{"position":384.9895833333333,"instrument":"TheGrandeurPiano","level2":20,"level3":null,"pitch":43,"articulation":"standard","articulation_tags":["standard","long"],"duration":0.013888888888888888,"velocity":83.06716399059789},
{"position":385.0,"instrument":"TheGrandeurPiano","level2":20,"level3":null,"pitch":43,"articulation":"standard","articulation_tags":["standard","long"],"duration":0.013888888888888888,"velocity":83.06716399059789},
{"position":385.0208333333333,"instrument":"TheGrandeurPiano","level2":20,"level3":null,"pitch":43,"articulation":"standard","articulation_tags":["standard","long"],"duration":0.013888888888888888,"velocity":83.06716399059789},
{"position":385.03125,"instrument":"TheGrandeurPiano","level2":20,"level3":null,"pitch":44,"articulation":"standard","articulation_tags":["standard","long"],"duration":0.04861111111111111,"velocity":83.06716399059789},
{"position":385.0416666666667,"instrument":"TheGrandeurPiano","level2":20,"level3":null,"pitch":44,"articulation":"standard","articulation_tags":["standard","long"],"duration":0.013888888888888888,"velocity":83.06716399059789},
{"position":385.0625,"instrument":"TheGrandeurPiano","level2":20,"level3":null,"pitch":44,"articulation":"standard","articulation_tags":["standard","long"],"duration":0.013888888888888888,"velocity":83.06716399059789},
{"position":385.0833333333333,"instrument":"TheGrandeurPiano","level2":20,"level3":null,"pitch":44,"articulation":"standard","articulation_tags":["standard","long"],"duration":0.013888888888888888,"velocity":83.06716399059789},
{"position":385.1145833333333,"instrument":"TheGrandeurPiano","level2":20,"level3":null,"pitch":44,"articulation":"standard","articulation_tags":["standard","long"],"duration":0.020833333333333332,"velocity":83.06716399059789},
{"position":385.1145833333333,"instrument":"TheGrandeurPiano","level2":20,"level3":null,"pitch":44,"articulation":"standard","articulation_tags":["standard","long"],"duration":0.04861111111111111,"velocity":83.06716399059789},
{"position":385.1458333333333,"instrument":"TheGrandeurPiano","level2":20,"level3":null,"pitch":44,"articulation":"standard","articulation_tags":["standard","long"],"duration":0.020833333333333332,"velocity":83.01761306843582},
{"position":385.1666666666667,"instrument":"TheGrandeurPiano","level2":20,"level3":null,"pitch":44,"articulation":"standard","articulation_tags":["standard","long"],"duration":0.020833333333333332,"velocity":83.01761306843582},
{"position":385.1875,"instrument":"TheGrandeurPiano","level2":20,"level3":null,"pitch":45,"articulation":"standard","articulation_tags":["standard","long"],"duration":0.04861111111111111,"velocity":83.01761306843582},
{"position":385.2083333333333,"instrument":"TheGrandeurPiano","level2":17,"level3":null,"pitch":37,"articulation":"standard","articulation_tags":["standard","long"],"duration":0.6527777777777778,"velocity":83.01761306843582},
{"position":385.2083333333333,"instrument":"TheGrandeurPiano","level2":20,"level3":null,"pitch":45,"articulation":"standard","articulation_tags":["standard","long"],"duration":0.020833333333333332,"velocity":83.01761306843582},
{"position":385.2395833333333,"instrument":"TheGrandeurPiano","level2":20,"level3":null,"pitch":45,"articulation":"standard","articulation_tags":["standard","long"],"duration":0.027777777777777776,"velocity":83.01761306843582},
{"position":385.2708333333333,"instrument":"TheGrandeurPiano","level2":20,"level3":null,"pitch":45,"articulation":"standard","articulation_tags":["standard","long"],"duration":0.05555555555555555,"velocity":83.06716399059789},
{"position":385.2708333333333,"instrument":"TheGrandeurPiano","level2":20,"level3":null,"pitch":45,"articulation":"standard","articulation_tags":["standard","long"],"duration":0.027777777777777776,"velocity":83.06716399059789},
{"position":385.3125,"instrument":"TheGrandeurPiano","level2":20,"level3":null,"pitch":45,"articulation":"standard","articulation_tags":["standard","long"],"duration":0.027777777777777776,"velocity":83.06716399059789},
{"position":385.34375,"instrument":"TheGrandeurPiano","level2":20,"level3":null,"pitch":46,"articulation":"standard","articulation_tags":["standard","long"],"duration":0.05555555555555555,"velocity":83.06716399059789},
{"position":385.3645833333333,"instrument":"TheGrandeurPiano","level2":20,"level3":null,"pitch":46,"articulation":"standard","articulation_tags":["standard","long"],"duration":0.027777777777777776,"velocity":83.06716399059789},
{"position":385.40625,"instrument":"TheGrandeurPiano","level2":20,"level3":null,"pitch":46,"articulation":"standard","articulation_tags":["standard","long"],"duration":0.034722222222222224,"velocity":83.06716399059789},
{"position":385.4270833333333,"instrument":"TheGrandeurPiano","level2":14,"level3":null,"pitch":33,"articulation":"standard","articulation_tags":["standard","long"],"duration":0.3819444444444444,"velocity":83.21559758564419},
{"position":385.4270833333333,"instrument":"TheGrandeurPiano","level2":20,"level3":null,"pitch":46,"articulation":"standard","articulation_tags":["standard","long"],"duration":0.05555555555555555,"velocity":83.21559758564419},
{"position":385.4583333333333,"instrument":"TheGrandeurPiano","level2":20,"level3":null,"pitch":46,"articulation":"standard","articulation_tags":["standard","long"],"duration":0.034722222222222224,"velocity":83.21559758564419},
{"position":385.5104166666667,"instrument":"TheGrandeurPiano","level2":20,"level3":null,"pitch":47,"articulation":"standard","articulation_tags":["standard","long"],"duration":0.05555555555555555,"velocity":83.21559758564419},
{"position":385.5104166666667,"instrument":"TheGrandeurPiano","level2":20,"level3":null,"pitch":47,"articulation":"standard","articulation_tags":["standard","long"],"duration":0.041666666666666664,"velocity":83.21559758564419},
{"position":385.5625,"instrument":"TheGrandeurPiano","level2":20,"level3":null,"pitch":47,"articulation":"standard","articulation_tags":["standard","long"],"duration":0.041666666666666664,"velocity":83.46226115800674},
{"position":385.59375,"instrument":"TheGrandeurPiano","level2":20,"level3":null,"pitch":47,"articulation":"standard","articulation_tags":["standard","long"],"duration":0.05555555555555555,"velocity":83.46226115800674},
{"position":385.625,"instrument":"TheGrandeurPiano","level2":20,"level3":null,"pitch":47,"articulation":"standard","articulation_tags":["standard","long"],"duration":0.041666666666666664,"velocity":83.46226115800674},
{"position":385.6770833333333,"instrument":"TheGrandeurPiano","level2":20,"level3":null,"pitch":48,"articulation":"standard","articulation_tags":["standard","long"],"duration":0.05555555555555555,"velocity":83.46226115800674},
{"position":385.6979166666667,"instrument":"TheGrandeurPiano","level2":20,"level3":null,"pitch":48,"articulation":"standard","articulation_tags":["standard","long"],"duration":0.04861111111111111,"velocity":83.80608269918925},
{"position":385.7708333333333,"instrument":"TheGrandeurPiano","level2":20,"level3":null,"pitch":48,"articulation":"standard","articulation_tags":["standard","long"],"duration":0.04861111111111111,"velocity":81.25963230895228},
{"position":385.7708333333333,"instrument":"TheGrandeurPiano","level2":20,"level3":null,"pitch":48,"articulation":"standard","articulation_tags":["standard","long"],"duration":0.0625,"velocity":81.25963230895228},
{"position":385.84375,"instrument":"TheGrandeurPiano","level2":20,"level3":null,"pitch":48,"articulation":"standard","articulation_tags":["standard","long"],"duration":0.05555555555555555,"velocity":81.25963230895228},
{"position":385.8541666666667,"instrument":"TheGrandeurPiano","level2":17,"level3":null,"pitch":37,"articulation":"standard","articulation_tags":["standard","long"],"duration":0.6180555555555556,"velocity":81.25963230895228},
{"position":385.8541666666667,"instrument":"TheGrandeurPiano","level2":20,"level3":null,"pitch":49,"articulation":"standard","articulation_tags":["standard","long"],"duration":0.0625,"velocity":81.71617630583944},
{"position":385.9270833333333,"instrument":"TheGrandeurPiano","level2":20,"level3":null,"pitch":49,"articulation":"standard","articulation_tags":["standard","long"],"duration":0.05555555555555555,"velocity":81.71617630583944},
{"position":385.9479166666667,"instrument":"TheGrandeurPiano","level2":20,"level3":null,"pitch":49,"articulation":"standard","articulation_tags":["standard","long"],"duration":0.0625,"velocity":81.71617630583944},
{"position":386.0,"instrument":"TheGrandeurPiano","level2":14,"level3":null,"pitch":33,"articulation":"standard","articulation_tags":["standard","long"],"duration":0.375,"velocity":81.71617630583944},
{"position":386.0104166666667,"instrument":"TheGrandeurPiano","level2":20,"level3":null,"pitch":49,"articulation":"standard","articulation_tags":["standard","long"],"duration":0.0625,"velocity":82.26990339605935},
{"position":386.0416666666667,"instrument":"TheGrandeurPiano","level2":20,"level3":null,"pitch":50,"articulation":"standard","articulation_tags":["standard","long"],"duration":0.0625,"velocity":82.26990339605935},
{"position":386.1041666666667,"instrument":"TheGrandeurPiano","level2":20,"level3":null,"pitch":50,"articulation":"standard","articulation_tags":["standard","long"],"duration":0.06944444444444445,"velocity":82.26990339605935},
{"position":386.1354166666667,"instrument":"TheGrandeurPiano","level2":20,"level3":null,"pitch":50,"articulation":"standard","articulation_tags":["standard","long"],"duration":0.0625,"velocity":82.26990339605935},
{"position":386.1770833333333,"instrument":"TheGrandeurPiano","level2":17,"level3":null,"pitch":37,"articulation":"standard","articulation_tags":["standard","long"],"duration":0.6111111111111112,"velocity":82.91840115161331},
{"position":386.1979166666667,"instrument":"TheGrandeurPiano","level2":20,"level3":null,"pitch":50,"articulation":"standard","articulation_tags":["standard","long"],"duration":0.06944444444444445,"velocity":82.91840115161331},
{"position":386.2291666666667,"instrument":"TheGrandeurPiano","level2":20,"level3":null,"pitch":51,"articulation":"standard","articulation_tags":["standard","long"],"duration":0.0625,"velocity":82.91840115161331},
{"position":386.3125,"instrument":"TheGrandeurPiano","level2":20,"level3":null,"pitch":51,"articulation":"standard","articulation_tags":["standard","long"],"duration":0.0763888888888889,"velocity":81.2087078904994},
{"position":386.3229166666667,"instrument":"TheGrandeurPiano","level2":20,"level3":null,"pitch":51,"articulation":"standard","articulation_tags":["standard","long"],"duration":0.06944444444444445,"velocity":81.2087078904994},
{"position":386.4270833333333,"instrument":"TheGrandeurPiano","level2":20,"level3":null,"pitch":51,"articulation":"standard","articulation_tags":["standard","long"],"duration":0.08333333333333333,"velocity":81.2087078904994},
{"position":386.4270833333333,"instrument":"TheGrandeurPiano","level2":20,"level3":null,"pitch":52,"articulation":"standard","articulation_tags":["standard","long"],"duration":0.06944444444444445,"velocity":81.2087078904994},
{"position":386.53125,"instrument":"Piccolo","level2":20,"level3":5,"pitch":74,"articulation":"trill_2m","articulation_tags":["trill_2m","long","trill","m2"],"duration":51.53125,"velocity":60.4990131577265},
{"position":386.53125,"instrument":"TheGrandeurPiano","level2":20,"level3":null,"pitch":52,"articulation":"standard","articulation_tags":["standard","long"],"duration":0.06944444444444445,"velocity":82.06908504526425},
{"position":386.5520833333333,"instrument":"TheGrandeurPiano","level2":20,"level3":null,"pitch":52,"articulation":"standard","articulation_tags":["standard","long"],"duration":0.09027777777777778,"velocity":82.06908504526425},
{"position":386.5625,"instrument":"TheGrandeurPiano","level2":14,"level3":null,"pitch":34,"articulation":"standard","articulation_tags":["standard","long"],"duration":0.3680555555555556,"velocity":82.06908504526425},
{"position":386.6354166666667,"instrument":"TheGrandeurPiano","level2":20,"level3":null,"pitch":53,"articulation":"standard","articulation_tags":["standard","long"],"duration":0.06944444444444445,"velocity":80.64589172473077},
{"position":386.6770833333333,"instrument":"TheGrandeurPiano","level2":20,"level3":null,"pitch":53,"articulation":"standard","articulation_tags":["standard","long"],"duration":0.09722222222222222,"velocity":80.64589172473077},
{"position":386.7395833333333,"instrument":"TheGrandeurPiano","level2":20,"level3":null,"pitch":53,"articulation":"standard","articulation_tags":["standard","long"],"duration":0.06944444444444445,"velocity":80.64589172473077},
{"position":386.7916666666667,"instrument":"TheGrandeurPiano","level2":17,"level3":null,"pitch":37,"articulation":"standard","articulation_tags":["standard","long"],"duration":0.6111111111111112,"velocity":81.71617630583944},
{"position":386.8229166666667,"instrument":"TheGrandeurPiano","level2":20,"level3":null,"pitch":53,"articulation":"standard","articulation_tags":["standard","long"],"duration":0.10416666666666667,"velocity":81.71617630583944},
{"position":386.84375,"instrument":"TheGrandeurPiano","level2":20,"level3":null,"pitch":54,"articulation":"standard","articulation_tags":["standard","long"],"duration":0.06944444444444445,"velocity":81.71617630583944},
{"position":386.9583333333333,"instrument":"TheGrandeurPiano","level2":20,"level3":null,"pitch":54,"articulation":"standard","articulation_tags":["standard","long"],"duration":0.0763888888888889,"velocity":80.59448345280302},
{"position":386.9791666666667,"instrument":"TheGrandeurPiano","level2":20,"level3":null,"pitch":54,"articulation":"standard","articulation_tags":["standard","long"],"duration":0.1111111111111111,"velocity":80.59448345280302},
{"position":387.0625,"instrument":"TheGrandeurPiano","level2":20,"level3":null,"pitch":55,"articulation":"standard","articulation_tags":["standard","long"],"duration":0.0763888888888889,"velocity":80.59448345280302},
{"position":387.1041666666667,"instrument":"TheGrandeurPiano","level2":17,"level3":null,"pitch":36,"articulation":"standard","articulation_tags":["standard","long"],"duration":0.5833333333333334,"velocity":80.59448345280302},
{"position":387.1145833333333,"instrument":"TheGrandeurPiano","level2":14,"level3":null,"pitch":34,"articulation":"standard","articulation_tags":["standard","long"],"duration":0.3611111111111111,"velocity":80.59448345280302},
{"position":387.1458333333333,"instrument":"TheGrandeurPiano","level2":20,"level3":null,"pitch":55,"articulation":"standard","articulation_tags":["standard","long"],"duration":0.125,"velocity":81.86765443913788},
{"position":387.1770833333333,"instrument":"TheGrandeurPiano","level2":20,"level3":null,"pitch":55,"articulation":"standard","articulation_tags":["standard","long"],"duration":0.0763888888888889,"velocity":81.86765443913788},
{"position":387.2916666666667,"instrument":"TheGrandeurPiano","level2":20,"level3":null,"pitch":56,"articulation":"standard","articulation_tags":["standard","long"],"duration":0.0763888888888889,"velocity":79.66203620850807},
{"position":387.3333333333333,"instrument":"TheGrandeurPiano","level2":20,"level3":null,"pitch":56,"articulation":"standard","articulation_tags":["standard","long"],"duration":0.13194444444444445,"velocity":81.0556954593137},
{"position":387.40625,"instrument":"TheGrandeurPiano","level2":20,"level3":null,"pitch":56,"articulation":"standard","articulation_tags":["standard","long"],"duration":0.0763888888888889,"velocity":81.0556954593137},
{"position":387.5208333333333,"instrument":"TheGrandeurPiano","level2":20,"level3":null,"pitch":57,"articulation":"standard","articulation_tags":["standard","long"],"duration":0.0763888888888889,"velocity":80.44001256580367},
{"position":387.5416666666667,"instrument":"TheGrandeurPiano","level2":20,"level3":null,"pitch":57,"articulation":"standard","articulation_tags":["standard","long"],"duration":0.14583333333333334,"velocity":80.44001256580367},
{"position":387.6458333333333,"instrument":"TheGrandeurPiano","level2":20,"level3":null,"pitch":57,"articulation":"standard","articulation_tags":["standard","long"],"duration":0.08333333333333333,"velocity":80.44001256580367},
{"position":387.65625,"instrument":"TheGrandeurPiano","level2":14,"level3":null,"pitch":35,"articulation":"standard","articulation_tags":["standard","long"],"duration":0.3541666666666667,"velocity":80.44001256580367},
{"position":387.7083333333333,"instrument":"TheGrandeurPiano","level2":17,"level3":null,"pitch":36,"articulation":"standard","articulation_tags":["standard","long"],"duration":0.6041666666666666,"velocity":80.02626823946231},
{"position":387.7604166666667,"instrument":"TheGrandeurPiano","level2":20,"level3":null,"pitch":57,"articulation":"standard","articulation_tags":["standard","long"],"duration":0.16666666666666666,"velocity":80.02626823946231},
{"position":387.7604166666667,"instrument":"TheGrandeurPiano","level2":20,"level3":null,"pitch":58,"articulation":"standard","articulation_tags":["standard","long"],"duration":0.08333333333333333,"velocity":80.02626823946231},
{"position":387.8854166666667,"instrument":"TheGrandeurPiano","level2":20,"level3":null,"pitch":58,"articulation":"standard","articulation_tags":["standard","long"],"duration":0.08333333333333333,"velocity":81.71617630583944},
{"position":387.9791666666667,"instrument":"TheGrandeurPiano","level2":17,"level3":null,"pitch":36,"articulation":"standard","articulation_tags":["standard","long"],"duration":0.5486111111111112,"velocity":79.81839019645436},
{"position":388.0,"instrument":"TheGrandeurPiano","level2":20,"level3":null,"pitch":58,"articulation":"standard","articulation_tags":["standard","long"],"duration":0.18055555555555555,"velocity":79.81839019645436},
{"position":388.0104166666667,"instrument":"TheGrandeurPiano","level2":20,"level3":null,"pitch":59,"articulation":"standard","articulation_tags":["standard","long"],"duration":0.08333333333333333,"velocity":79.81839019645436},
{"position":388.1354166666667,"instrument":"TheGrandeurPiano","level2":20,"level3":null,"pitch":59,"articulation":"standard","articulation_tags":["standard","long"],"duration":0.08333333333333333,"velocity":79.81839019645436},
{"position":388.1875,"instrument":"TheGrandeurPiano","level2":14,"level3":null,"pitch":35,"articulation":"standard","articulation_tags":["standard","long"],"duration":0.3472222222222222,"velocity":79.81839019645436},
{"position":388.2604166666667,"instrument":"TheGrandeurPiano","level2":20,"level3":null,"pitch":60,"articulation":"standard","articulation_tags":["standard","long"],"duration":0.08333333333333333,"velocity":79.81839019645436},
{"position":388.28125,"instrument":"TheGrandeurPiano","level2":20,"level3":null,"pitch":60,"articulation":"standard","articulation_tags":["standard","long"],"duration":0.20833333333333334,"velocity":80.02626823946231},
{"position":388.3958333333333,"instrument":"TheGrandeurPiano","level2":20,"level3":null,"pitch":60,"articulation":"standard","articulation_tags":["standard","long"],"duration":0.09027777777777778,"velocity":80.02626823946231},
{"position":388.53125,"instrument":"TheGrandeurPiano","level2":20,"level3":null,"pitch":61,"articulation":"standard","articulation_tags":["standard","long"],"duration":0.09027777777777778,"velocity":80.44001256580367},
{"position":388.59375,"instrument":"TheGrandeurPiano","level2":20,"level3":null,"pitch":61,"articulation":"standard","articulation_tags":["standard","long"],"duration":0.2361111111111111,"velocity":80.44001256580367},
{"position":388.6145833333333,"instrument":"TheGrandeurPiano","level2":17,"level3":null,"pitch":36,"articulation":"standard","articulation_tags":["standard","long"],"duration":0.5972222222222222,"velocity":80.44001256580367},
{"position":388.65625,"instrument":"TheGrandeurPiano","level2":20,"level3":null,"pitch":61,"articulation":"standard","articulation_tags":["standard","long"],"duration":0.09027777777777778,"velocity":78.92724778104488},
{"position":388.6979166666667,"instrument":"TheGrandeurPiano","level2":14,"level3":null,"pitch":24,"articulation":"standard","articulation_tags":["standard","long"],"duration":0.3402777777777778,"velocity":78.92724778104488},
{"position":388.7916666666667,"instrument":"TheGrandeurPiano","level2":20,"level3":null,"pitch":62,"articulation":"standard","articulation_tags":["standard","long"],"duration":0.09027777777777778,"velocity":81.0556954593137},
{"position":388.8020833333333,"instrument":"TheGrandeurPiano","level2":17,"level3":null,"pitch":35,"articulation":"standard","articulation_tags":["standard","long"],"duration":0.5208333333333334,"velocity":81.0556954593137},
{"position":388.9375,"instrument":"TheGrandeurPiano","level2":20,"level3":null,"pitch":62,"articulation":"standard","articulation_tags":["standard","long"],"duration":0.09027777777777778,"velocity":79.66203620850807},
{"position":388.9479166666667,"instrument":"TheGrandeurPiano","level2":20,"level3":null,"pitch":62,"articulation":"standard","articulation_tags":["standard","long"],"duration":0.2777777777777778,"velocity":79.66203620850807},
{"position":389.0729166666667,"instrument":"TheGrandeurPiano","level2":20,"level3":null,"pitch":63,"articulation":"standard","articulation_tags":["standard","long"],"duration":0.09722222222222222,"velocity":78.34383887309278},
{"position":389.2083333333333,"instrument":"TheGrandeurPiano","level2":14,"level3":null,"pitch":24,"articulation":"standard","articulation_tags":["standard","long"],"duration":0.3333333333333333,"velocity":79.40058936995418},
{"position":389.21875,"instrument":"TheGrandeurPiano","level2":20,"level3":null,"pitch":63,"articulation":"standard","articulation_tags":["standard","long"],"duration":0.09722222222222222,"velocity":79.40058936995418},
{"position":389.3541666666667,"instrument":"TheGrandeurPiano","level2":20,"level3":null,"pitch":64,"articulation":"standard","articulation_tags":["standard","long"],"duration":0.09722222222222222,"velocity":78.29053074972941},
{"position":389.3541666666667,"instrument":"TheGrandeurPiano","level2":20,"level3":null,"pitch":64,"articulation":"standard","articulation_tags":["standard","long"],"duration":0.3333333333333333,"velocity":78.29053074972941},
{"position":389.5,"instrument":"TheGrandeurPiano","level2":20,"level3":null,"pitch":64,"articulation":"standard","articulation_tags":["standard","long"],"duration":0.09722222222222222,"velocity":79.66203620850807},
{"position":389.5104166666667,"instrument":"TheGrandeurPiano","level2":17,"level3":null,"pitch":35,"articulation":"standard","articulation_tags":["standard","long"],"duration":0.5902777777777778,"velocity":79.66203620850807},
{"position":389.5833333333333,"instrument":"TheGrandeurPiano","level2":17,"level3":null,"pitch":35,"articulation":"standard","articulation_tags":["standard","long"],"duration":0.4930555555555556,"velocity":79.66203620850807},
{"position":389.6458333333333,"instrument":"TheGrandeurPiano","level2":20,"level3":null,"pitch":65,"articulation":"standard","articulation_tags":["standard","long"],"duration":0.09722222222222222,"velocity":78.76867403604693},
{"position":389.7083333333333,"instrument":"TheGrandeurPiano","level2":14,"level3":null,"pitch":25,"articulation":"standard","articulation_tags":["standard","long"],"duration":0.3194444444444444,"velocity":78.76867403604693},
{"position":389.8020833333333,"instrument":"TheGrandeurPiano","level2":20,"level3":null,"pitch":65,"articulation":"standard","articulation_tags":["standard","long"],"duration":0.10416666666666667,"velocity":77.9697190164355},
{"position":389.8541666666667,"instrument":"TheGrandeurPiano","level2":20,"level3":null,"pitch":65,"articulation":"standard","articulation_tags":["standard","long"],"duration":0.4236111111111111,"velocity":77.9697190164355},
{"position":389.9479166666667,"instrument":"TheGrandeurPiano","level2":20,"level3":null,"pitch":66,"articulation":"standard","articulation_tags":["standard","long"],"duration":0.10416666666666667,"velocity":79.76631479798509},
{"position":390.1041666666667,"instrument":"TheGrandeurPiano","level2":20,"level3":null,"pitch":66,"articulation":"standard","articulation_tags":["standard","long"],"duration":0.10416666666666667,"velocity":79.19065306714964},
{"position":390.1875,"instrument":"TheGrandeurPiano","level2":14,"level3":null,"pitch":25,"articulation":"standard","articulation_tags":["standard","long"],"duration":0.3194444444444444,"velocity":79.19065306714964},
{"position":390.2604166666667,"instrument":"TheGrandeurPiano","level2":20,"level3":null,"pitch":67,"articulation":"standard","articulation_tags":["standard","long"],"duration":0.10416666666666667,"velocity":78.71572702195472},
{"position":390.3229166666667,"instrument":"TheGrandeurPiano","level2":17,"level3":null,"pitch":34,"articulation":"standard","articulation_tags":["standard","long"],"duration":0.4722222222222222,"velocity":78.71572702195472},
{"position":390.3958333333333,"instrument":"TheGrandeurPiano","level2":17,"level3":null,"pitch":34,"articulation":"standard","articulation_tags":["standard","long"],"duration":0.5763888888888888,"velocity":78.34383887309278},
{"position":390.4166666666667,"instrument":"TheGrandeurPiano","level2":20,"level3":null,"pitch":67,"articulation":"standard","articulation_tags":["standard","long"],"duration":0.10416666666666667,"velocity":78.34383887309278},
{"position":390.5,"instrument":"TheGrandeurPiano","level2":20,"level3":null,"pitch":67,"articulation":"standard","articulation_tags":["standard","long"],"duration":0.6111111111111112,"velocity":78.34383887309278},
{"position":390.5729166666667,"instrument":"TheGrandeurPiano","level2":20,"level3":null,"pitch":68,"articulation":"standard","articulation_tags":["standard","long"],"duration":0.1111111111111111,"velocity":78.07684047757512},
{"position":390.6666666666667,"instrument":"TheGrandeurPiano","level2":14,"level3":null,"pitch":26,"articulation":"standard","articulation_tags":["standard","long"],"duration":0.3125,"velocity":78.07684047757512},
{"position":390.7395833333333,"instrument":"TheGrandeurPiano","level2":20,"level3":null,"pitch":68,"articulation":"standard","articulation_tags":["standard","long"],"duration":0.1111111111111111,"velocity":77.91608878655691},
{"position":390.90625,"instrument":"TheGrandeurPiano","level2":20,"level3":null,"pitch":69,"articulation":"standard","articulation_tags":["standard","long"],"duration":0.1111111111111111,"velocity":77.86241206317153},
{"position":391.0208333333333,"instrument":"TheGrandeurPiano","level2":17,"level3":null,"pitch":34,"articulation":"standard","articulation_tags":["standard","long"],"duration":0.4444444444444444,"velocity":77.91608878655691},
{"position":391.0729166666667,"instrument":"TheGrandeurPiano","level2":20,"level3":null,"pitch":69,"articulation":"standard","articulation_tags":["standard","long"],"duration":0.1111111111111111,"velocity":77.91608878655691},
{"position":391.1354166666667,"instrument":"TheGrandeurPiano","level2":14,"level3":null,"pitch":26,"articulation":"standard","articulation_tags":["standard","long"],"duration":0.3055555555555556,"velocity":77.91608878655691},
{"position":391.1875,"instrument":"Trumpet","level2":20,"level3":5,"pitch":74,"articulation":"sforzando","articulation_tags":["sforzando","sfz","long"],"duration":37.489583333333336,"velocity":49.492495916870425},
{"position":391.2395833333333,"instrument":"TheGrandeurPiano","level2":20,"level3":null,"pitch":70,"articulation":"standard","articulation_tags":["standard","long"],"duration":0.1111111111111111,"velocity":78.07684047757512},
{"position":391.2604166666667,"instrument":"TheGrandeurPiano","level2":17,"level3":null,"pitch":34,"articulation":"standard","articulation_tags":["standard","long"],"duration":0.5694444444444444,"velocity":78.07684047757512},
{"position":391.40625,"instrument":"TheGrandeurPiano","level2":20,"level3":null,"pitch":70,"articulation":"standard","articulation_tags":["standard","long"],"duration":0.11805555555555555,"velocity":78.34383887309278},
{"position":391.4166666666667,"instrument":"TheGrandeurPiano","level2":20,"level3":null,"pitch":70,"articulation":"standard","articulation_tags":["standard","long"],"duration":2.1023622047244093,"velocity":78.34383887309278},
{"position":391.5833333333333,"instrument":"TheGrandeurPiano","level2":14,"level3":null,"pitch":27,"articulation":"standard","articulation_tags":["standard","long"],"duration":0.2986111111111111,"velocity":78.71572702195472},
{"position":391.5833333333333,"instrument":"TheGrandeurPiano","level2":20,"level3":null,"pitch":71,"articulation":"standard","articulation_tags":["standard","long"],"duration":0.11805555555555555,"velocity":78.71572702195472},
{"position":391.6875,"instrument":"TheGrandeurPiano","level2":17,"level3":null,"pitch":33,"articulation":"standard","articulation_tags":["standard","long"],"duration":0.4236111111111111,"velocity":79.19065306714964},
{"position":391.7604166666667,"instrument":"TheGrandeurPiano","level2":20,"level3":null,"pitch":71,"articulation":"standard","articulation_tags":["standard","long"],"duration":0.11805555555555555,"velocity":79.76631479798509},
{"position":391.9375,"instrument":"TheGrandeurPiano","level2":20,"level3":null,"pitch":72,"articulation":"standard","articulation_tags":["standard","long"],"duration":0.11805555555555555,"velocity":80.44001256580367},
{"position":392.03125,"instrument":"TheGrandeurPiano","level2":14,"level3":null,"pitch":27,"articulation":"standard","articulation_tags":["standard","long"],"duration":0.2916666666666667,"velocity":77.9697190164355},
{"position":392.1145833333333,"instrument":"TheGrandeurPiano","level2":17,"level3":null,"pitch":33,"articulation":"standard","articulation_tags":["standard","long"],"duration":0.5555555555555556,"velocity":78.76867403604693},
{"position":392.1145833333333,"instrument":"TheGrandeurPiano","level2":20,"level3":null,"pitch":72,"articulation":"standard","articulation_tags":["standard","long"],"duration":0.125,"velocity":78.76867403604693},
{"position":392.2916666666667,"instrument":"TheGrandeurPiano","level2":20,"level3":null,"pitch":73,"articulation":"standard","articulation_tags":["standard","long"],"duration":0.125,"velocity":79.66203620850807},
{"position":392.3333333333333,"instrument":"TheGrandeurPiano","level2":17,"level3":null,"pitch":33,"articulation":"standard","articulation_tags":["standard","long"],"duration":0.4027777777777778,"velocity":79.66203620850807},
{"position":392.46875,"instrument":"TheGrandeurPiano","level2":14,"level3":null,"pitch":28,"articulation":"standard","articulation_tags":["standard","long"],"duration":0.2847222222222222,"velocity":78.29053074972941},
{"position":392.4791666666667,"instrument":"TheGrandeurPiano","level2":20,"level3":null,"pitch":73,"articulation":"standard","articulation_tags":["standard","long"],"duration":0.125,"velocity":78.29053074972941},
{"position":392.6666666666667,"instrument":"TheGrandeurPiano","level2":20,"level3":null,"pitch":74,"articulation":"standard","articulation_tags":["standard","long"],"duration":0.125,"velocity":79.40058936995418},
{"position":392.8645833333333,"instrument":"TheGrandeurPiano","level2":20,"level3":null,"pitch":74,"articulation":"standard","articulation_tags":["standard","long"],"duration":0.13194444444444445,"velocity":79.66203620850807},
{"position":392.8958333333333,"instrument":"TheGrandeurPiano","level2":14,"level3":null,"pitch":28,"articulation":"standard","articulation_tags":["standard","long"],"duration":0.2777777777777778,"velocity":79.66203620850807},
{"position":392.9375,"instrument":"TheGrandeurPiano","level2":17,"level3":null,"pitch":32,"articulation":"standard","articulation_tags":["standard","long"],"duration":0.3888888888888889,"velocity":79.66203620850807},
{"position":392.9479166666667,"instrument":"TheGrandeurPiano","level2":17,"level3":null,"pitch":32,"articulation":"standard","articulation_tags":["standard","long"],"duration":0.5416666666666666,"velocity":79.66203620850807},
{"position":393.0520833333333,"instrument":"TheGrandeurPiano","level2":20,"level3":null,"pitch":75,"articulation":"standard","articulation_tags":["standard","long"],"duration":0.13194444444444445,"velocity":81.0556954593137},
{"position":393.25,"instrument":"TheGrandeurPiano","level2":20,"level3":null,"pitch":75,"articulation":"standard","articulation_tags":["standard","long"],"duration":0.13194444444444445,"velocity":80.44001256580367},
{"position":393.3020833333333,"instrument":"TheGrandeurPiano","level2":14,"level3":null,"pitch":29,"articulation":"standard","articulation_tags":["standard","long"],"duration":0.2708333333333333,"velocity":80.44001256580367},
{"position":393.375,"instrument":"TheGrandeurPiano","level2":14,"level3":null,"pitch":29,"articulation":"standard","articulation_tags":["standard","long"],"duration":1.4566929133858268,"velocity":78.39710145339546},
{"position":393.4479166666667,"instrument":"TheGrandeurPiano","level2":20,"level3":null,"pitch":76,"articulation":"standard","articulation_tags":["standard","long"],"duration":0.13194444444444445,"velocity":80.02626823946231},
{"position":393.5208333333333,"instrument":"TheGrandeurPiano","level2":17,"level3":null,"pitch":32,"articulation":"standard","articulation_tags":["standard","long"],"duration":0.3680555555555556,"velocity":80.02626823946231},
{"position":393.65625,"instrument":"TheGrandeurPiano","level2":20,"level3":null,"pitch":76,"articulation":"standard","articulation_tags":["standard","long"],"duration":0.1388888888888889,"velocity":79.81839019645436},
{"position":393.7083333333333,"instrument":"TheGrandeurPiano","level2":14,"level3":null,"pitch":29,"articulation":"standard","articulation_tags":["standard","long"],"duration":0.2638888888888889,"velocity":79.81839019645436},
{"position":393.7708333333333,"instrument":"TheGrandeurPiano","level2":17,"level3":null,"pitch":32,"articulation":"standard","articulation_tags":["standard","long"],"duration":0.5277777777777778,"velocity":79.81839019645436},
{"position":393.8541666666667,"instrument":"TheGrandeurPiano","level2":20,"level3":null,"pitch":77,"articulation":"standard","articulation_tags":["standard","long"],"duration":0.1388888888888889,"velocity":79.81839019645436},
{"position":394.0625,"instrument":"TheGrandeurPiano","level2":20,"level3":null,"pitch":77,"articulation":"standard","articulation_tags":["standard","long"],"duration":0.1388888888888889,"velocity":80.02626823946231},
{"position":394.0729166666667,"instrument":"TheGrandeurPiano","level2":17,"level3":null,"pitch":31,"articulation":"standard","articulation_tags":["standard","long"],"duration":0.3541666666666667,"velocity":80.02626823946231},
{"position":394.1041666666667,"instrument":"TheGrandeurPiano","level2":14,"level3":null,"pitch":30,"articulation":"standard","articulation_tags":["standard","long"],"duration":0.2569444444444444,"velocity":80.02626823946231},
{"position":394.28125,"instrument":"TheGrandeurPiano","level2":20,"level3":null,"pitch":78,"articulation":"standard","articulation_tags":["standard","long"],"duration":0.14583333333333334,"velocity":80.44001256580367},
{"position":394.4895833333333,"instrument":"TheGrandeurPiano","level2":14,"level3":null,"pitch":30,"articulation":"standard","articulation_tags":["standard","long"],"duration":0.25,"velocity":81.0556954593137},
{"position":394.4895833333333,"instrument":"TheGrandeurPiano","level2":20,"level3":null,"pitch":78,"articulation":"standard","articulation_tags":["standard","long"],"duration":0.14583333333333334,"velocity":81.0556954593137},
{"position":394.5625,"instrument":"TheGrandeurPiano","level2":17,"level3":null,"pitch":31,"articulation":"standard","articulation_tags":["standard","long"],"duration":0.5138888888888888,"velocity":81.0556954593137},
{"position":394.59375,"instrument":"TheGrandeurPiano","level2":17,"level3":null,"pitch":31,"articulation":"standard","articulation_tags":["standard","long"],"duration":0.3333333333333333,"velocity":79.66203620850807},
{"position":394.7083333333333,"instrument":"TheGrandeurPiano","level2":20,"level3":null,"pitch":79,"articulation":"standard","articulation_tags":["standard","long"],"duration":0.14583333333333334,"velocity":79.66203620850807},
{"position":394.8645833333333,"instrument":"TheGrandeurPiano","level2":14,"level3":null,"pitch":31,"articulation":"standard","articulation_tags":["standard","long"],"duration":0.24305555555555555,"velocity":80.59448345280302},
{"position":394.9270833333333,"instrument":"TheGrandeurPiano","level2":20,"level3":null,"pitch":79,"articulation":"standard","articulation_tags":["standard","long"],"duration":0.1527777777777778,"velocity":80.59448345280302},
{"position":395.09375,"instrument":"TheGrandeurPiano","level2":17,"level3":null,"pitch":30,"articulation":"standard","articulation_tags":["standard","long"],"duration":0.3194444444444444,"velocity":81.71617630583944},
{"position":395.15625,"instrument":"TheGrandeurPiano","level2":20,"level3":null,"pitch":80,"articulation":"standard","articulation_tags":["standard","long"],"duration":0.1527777777777778,"velocity":80.64589172473077},
{"position":395.2395833333333,"instrument":"TheGrandeurPiano","level2":14,"level3":null,"pitch":31,"articulation":"standard","articulation_tags":["standard","long"],"duration":0.2361111111111111,"velocity":80.64589172473077},
{"position":395.3333333333333,"instrument":"CorAnglais","level2":20,"level3":8,"pitch":73,"articulation":"trill_2M","articulation_tags":["trill_2M","long","trill","M2"],"duration":4.552083333333333,"velocity":44.87246117178363},
{"position":395.3333333333333,"instrument":"Bassoon","level2":20,"level3":9,"pitch":74,"articulation":"trill_2M","articulation_tags":["trill_2M","long","trill","M2"],"duration":4.604166666666667,"velocity":44.87246117178363},
{"position":395.34375,"instrument":"TheGrandeurPiano","level2":17,"level3":null,"pitch":30,"articulation":"standard","articulation_tags":["standard","long"],"duration":0.5,"velocity":79.66203620850807},
{"position":395.3854166666667,"instrument":"TheGrandeurPiano","level2":20,"level3":null,"pitch":80,"articulation":"standard","articulation_tags":["standard","long"],"duration":0.1527777777777778,"velocity":82.06908504526425},
{"position":395.5729166666667,"instrument":"TheGrandeurPiano","level2":17,"level3":null,"pitch":30,"articulation":"standard","articulation_tags":["standard","long"],"duration":0.3055555555555556,"velocity":81.2087078904994},
{"position":395.59375,"instrument":"TheGrandeurPiano","level2":14,"level3":null,"pitch":32,"articulation":"standard","articulation_tags":["standard","long"],"duration":0.22916666666666666,"velocity":81.2087078904994},
{"position":395.6145833333333,"instrument":"TheGrandeurPiano","level2":20,"level3":null,"pitch":81,"articulation":"standard","articulation_tags":["standard","long"],"duration":0.1597222222222222,"velocity":81.2087078904994},
{"position":395.8541666666667,"instrument":"TheGrandeurPiano","level2":20,"level3":null,"pitch":81,"articulation":"standard","articulation_tags":["standard","long"],"duration":0.1597222222222222,"velocity":82.26990339605935},
{"position":395.9375,"instrument":"TheGrandeurPiano","level2":14,"level3":null,"pitch":32,"articulation":"standard","articulation_tags":["standard","long"],"duration":0.22916666666666666,"velocity":81.71617630583944},
{"position":396.03125,"instrument":"TheGrandeurPiano","level2":17,"level3":null,"pitch":29,"articulation":"standard","articulation_tags":["standard","long"],"duration":0.2916666666666667,"velocity":81.71617630583944},
{"position":396.03125,"instrument":"TheGrandeurPiano","level2":20,"level3":null,"pitch":81,"articulation":"standard","articulation_tags":["standard","long"],"duration":0.8819444444444444,"velocity":81.71617630583944},
{"position":396.09375,"instrument":"TheGrandeurPiano","level2":17,"level3":null,"pitch":29,"articulation":"standard","articulation_tags":["standard","long"],"duration":0.4861111111111111,"velocity":81.25963230895228},
{"position":396.09375,"instrument":"TheGrandeurPiano","level2":20,"level3":null,"pitch":82,"articulation":"standard","articulation_tags":["standard","long"],"duration":0.16666666666666666,"velocity":81.25963230895228},
{"position":396.28125,"instrument":"TheGrandeurPiano","level2":14,"level3":null,"pitch":33,"articulation":"standard","articulation_tags":["standard","long"],"duration":0.2152777777777778,"velocity":80.90232229004954},
{"position":396.34375,"instrument":"TheGrandeurPiano","level2":20,"level3":null,"pitch":82,"articulation":"standard","articulation_tags":["standard","long"],"duration":0.16666666666666666,"velocity":80.90232229004954},
{"position":396.46875,"instrument":"TheGrandeurPiano","level2":17,"level3":null,"pitch":29,"articulation":"standard","articulation_tags":["standard","long"],"duration":0.2777777777777778,"velocity":80.64589172473077},
{"position":396.59375,"instrument":"TheGrandeurPiano","level2":20,"level3":null,"pitch":83,"articulation":"standard","articulation_tags":["standard","long"],"duration":0.16666666666666666,"velocity":80.49154397153247},
{"position":396.6041666666667,"instrument":"TheGrandeurPiano","level2":14,"level3":null,"pitch":33,"articulation":"standard","articulation_tags":["standard","long"],"duration":0.2152777777777778,"velocity":80.49154397153247},
{"position":396.8229166666667,"instrument":"TheGrandeurPiano","level2":17,"level3":null,"pitch":29,"articulation":"standard","articulation_tags":["standard","long"],"duration":0.4652777777777778,"velocity":80.44001256580367},
{"position":396.84375,"instrument":"TheGrandeurPiano","level2":20,"level3":null,"pitch":83,"articulation":"standard","articulation_tags":["standard","long"],"duration":0.1736111111111111,"velocity":80.44001256580367},
{"position":396.84375,"instrument":"TheGrandeurPiano","level2":14,"level3":null,"pitch":33,"articulation":"standard","articulation_tags":["standard","long"],"duration":1.3611111111111112,"velocity":80.44001256580367},
{"position":396.8854166666667,"instrument":"TheGrandeurPiano","level2":17,"level3":null,"pitch":28,"articulation":"standard","articulation_tags":["standard","long"],"duration":0.2638888888888889,"velocity":80.49154397153247},
{"position":396.9270833333333,"instrument":"TheGrandeurPiano","level2":14,"level3":null,"pitch":34,"articulation":"standard","articulation_tags":["standard","long"],"duration":0.20833333333333334,"velocity":80.49154397153247},
{"position":397.1041666666667,"instrument":"TheGrandeurPiano","level2":20,"level3":null,"pitch":84,"articulation":"standard","articulation_tags":["standard","long"],"duration":0.1736111111111111,"velocity":80.64589172473077},
{"position":397.2395833333333,"instrument":"TheGrandeurPiano","level2":14,"level3":null,"pitch":34,"articulation":"standard","articulation_tags":["standard","long"],"duration":0.2013888888888889,"velocity":80.90232229004954},
{"position":397.28125,"instrument":"TheGrandeurPiano","level2":17,"level3":null,"pitch":28,"articulation":"standard","articulation_tags":["standard","long"],"duration":0.25,"velocity":80.90232229004954},
{"position":397.3541666666667,"instrument":"TheGrandeurPiano","level2":20,"level3":null,"pitch":84,"articulation":"standard","articulation_tags":["standard","long"],"duration":0.6944444444444444,"velocity":81.25963230895228},
{"position":397.3645833333333,"instrument":"TheGrandeurPiano","level2":20,"level3":null,"pitch":84,"articulation":"standard","articulation_tags":["standard","long"],"duration":0.18055555555555555,"velocity":81.25963230895228},
{"position":397.5208333333333,"instrument":"TheGrandeurPiano","level2":17,"level3":null,"pitch":28,"articulation":"standard","articulation_tags":["standard","long"],"duration":0.4444444444444444,"velocity":81.71617630583944},
{"position":397.53125,"instrument":"TheGrandeurPiano","level2":14,"level3":null,"pitch":35,"articulation":"standard","articulation_tags":["standard","long"],"duration":0.19444444444444445,"velocity":81.71617630583944},
{"position":397.6354166666667,"instrument":"TheGrandeurPiano","level2":20,"level3":null,"pitch":85,"articulation":"standard","articulation_tags":["standard","long"],"duration":0.18055555555555555,"velocity":81.71617630583944},
{"position":397.65625,"instrument":"TheGrandeurPiano","level2":17,"level3":null,"pitch":27,"articulation":"standard","articulation_tags":["standard","long"],"duration":0.2361111111111111,"velocity":82.26990339605935},
{"position":397.8229166666667,"instrument":"TheGrandeurPiano","level2":14,"level3":null,"pitch":35,"articulation":"standard","articulation_tags":["standard","long"],"duration":0.1875,"velocity":82.91840115161331},
{"position":397.90625,"instrument":"TheGrandeurPiano","level2":20,"level3":null,"pitch":85,"articulation":"standard","articulation_tags":["standard","long"],"duration":0.1875,"velocity":82.91840115161331},
{"position":398.0104166666667,"instrument":"TheGrandeurPiano","level2":17,"level3":null,"pitch":27,"articulation":"standard","articulation_tags":["standard","long"],"duration":0.22916666666666666,"velocity":81.2087078904994},
{"position":398.1041666666667,"instrument":"TheGrandeurPiano","level2":14,"level3":null,"pitch":24,"articulation":"standard","articulation_tags":["standard","long"],"duration":0.18055555555555555,"velocity":81.2087078904994},
{"position":398.1875,"instrument":"TheGrandeurPiano","level2":20,"level3":null,"pitch":86,"articulation":"standard","articulation_tags":["standard","long"],"duration":0.1875,"velocity":82.06908504526425},
{"position":398.1875,"instrument":"TheGrandeurPiano","level2":17,"level3":null,"pitch":27,"articulation":"standard","articulation_tags":["standard","long"],"duration":0.4236111111111111,"velocity":82.06908504526425},
{"position":398.3541666666667,"instrument":"TheGrandeurPiano","level2":17,"level3":null,"pitch":26,"articulation":"standard","articulation_tags":["standard","long"],"duration":0.2152777777777778,"velocity":83.01761306843582},
{"position":398.3854166666667,"instrument":"TheGrandeurPiano","level2":14,"level3":null,"pitch":24,"articulation":"standard","articulation_tags":["standard","long"],"duration":0.1736111111111111,"velocity":83.01761306843582},
{"position":398.3958333333333,"instrument":"TheGrandeurPiano","level2":20,"level3":null,"pitch":86,"articulation":"standard","articulation_tags":["standard","long"],"duration":0.6041666666666666,"velocity":83.01761306843582},
{"position":398.46875,"instrument":"TheGrandeurPiano","level2":20,"level3":null,"pitch":86,"articulation":"standard","articulation_tags":["standard","long"],"duration":0.19444444444444445,"velocity":81.71617630583944},
{"position":398.6458333333333,"instrument":"TheGrandeurPiano","level2":14,"level3":null,"pitch":24,"articulation":"standard","articulation_tags":["standard","long"],"duration":0.1736111111111111,"velocity":82.8687399936403},
{"position":398.6770833333333,"instrument":"TheGrandeurPiano","level2":17,"level3":null,"pitch":26,"articulation":"standard","articulation_tags":["standard","long"],"duration":0.20833333333333334,"velocity":82.8687399936403},
{"position":398.7604166666667,"instrument":"TheGrandeurPiano","level2":20,"level3":null,"pitch":87,"articulation":"standard","articulation_tags":["standard","long"],"duration":0.2013888888888889,"velocity":82.8687399936403},
{"position":398.8229166666667,"instrument":"TheGrandeurPiano","level2":17,"level3":null,"pitch":26,"articulation":"standard","articulation_tags":["standard","long"],"duration":0.4027777777777778,"velocity":81.86765443913788},
{"position":398.8854166666667,"instrument":"TheGrandeurPiano","level2":14,"level3":null,"pitch":24,"articulation":"standard","articulation_tags":["standard","long"],"duration":0.8888888888888888,"velocity":81.86765443913788},
{"position":398.8958333333333,"instrument":"TheGrandeurPiano","level2":14,"level3":null,"pitch":25,"articulation":"standard","articulation_tags":["standard","long"],"duration":0.1597222222222222,"velocity":81.86765443913788},
{"position":398.9895833333333,"instrument":"TheGrandeurPiano","level2":17,"level3":null,"pitch":25,"articulation":"standard","articulation_tags":["standard","long"],"duration":0.19444444444444445,"velocity":83.21559758564419},
{"position":399.0625,"instrument":"TheGrandeurPiano","level2":20,"level3":null,"pitch":87,"articulation":"standard","articulation_tags":["standard","long"],"duration":0.2013888888888889,"velocity":83.21559758564419},
{"position":399.1458333333333,"instrument":"TheGrandeurPiano","level2":14,"level3":null,"pitch":25,"articulation":"standard","articulation_tags":["standard","long"],"duration":0.1597222222222222,"velocity":81.0556954593137},
{"position":399.2708333333333,"instrument":"TheGrandeurPiano","level2":17,"level3":null,"pitch":25,"articulation":"standard","articulation_tags":["standard","long"],"duration":0.18055555555555555,"velocity":82.52007379640287},
{"position":399.2916666666667,"instrument":"TheGrandeurPiano","level2":20,"level3":null,"pitch":87,"articulation":"standard","articulation_tags":["standard","long"],"duration":0.5486111111111112,"velocity":82.52007379640287},
{"position":399.3645833333333,"instrument":"TheGrandeurPiano","level2":20,"level3":null,"pitch":88,"articulation":"standard","articulation_tags":["standard","long"],"duration":0.20833333333333334,"velocity":80.44001256580367},
{"position":399.3854166666667,"instrument":"Cello","level2":20,"level3":4,"pitch":72,"articulation":"long_flt","articulation_tags":["long_flt","flt","long","flautando"],"duration":82.94791666666667,"velocity":42.37070101874843},
{"position":399.3854166666667,"instrument":"TheGrandeurPiano","level2":14,"level3":null,"pitch":26,"articulation":"standard","articulation_tags":["standard","long"],"duration":0.1527777777777778,"velocity":82.01878501129197},
{"position":399.4166666666667,"instrument":"TheGrandeurPiano","level2":17,"level3":null,"pitch":25,"articulation":"standard","articulation_tags":["standard","long"],"duration":0.375,"velocity":82.01878501129197},
{"position":399.5520833333333,"instrument":"TheGrandeurPiano","level2":17,"level3":null,"pitch":24,"articulation":"standard","articulation_tags":["standard","long"],"duration":0.1736111111111111,"velocity":82.01878501129197},
{"position":399.6145833333333,"instrument":"TheGrandeurPiano","level2":14,"level3":null,"pitch":26,"articulation":"standard","articulation_tags":["standard","long"],"duration":0.14583333333333334,"velocity":81.71617630583944},
{"position":399.6770833333333,"instrument":"TheGrandeurPiano","level2":20,"level3":null,"pitch":88,"articulation":"standard","articulation_tags":["standard","long"],"duration":0.2152777777777778,"velocity":81.71617630583944},
{"position":399.8020833333333,"instrument":"TheGrandeurPiano","level2":17,"level3":null,"pitch":24,"articulation":"standard","articulation_tags":["standard","long"],"duration":0.1597222222222222,"velocity":83.46226115800674},
{"position":399.8229166666667,"instrument":"TheGrandeurPiano","level2":14,"level3":null,"pitch":27,"articulation":"standard","articulation_tags":["standard","long"],"duration":0.1388888888888889,"velocity":83.46226115800674},
{"position":399.8958333333333,"instrument":"CorAnglais","level2":20,"level3":8,"pitch":73,"articulation":"trill_2M","articulation_tags":["trill_2M","long","trill","M2"],"duration":44.104166666666664,"velocity":42.50639552671298},
{"position":399.9375,"instrument":"Bassoon","level2":20,"level3":9,"pitch":74,"articulation":"trill_2M","articulation_tags":["trill_2M","long","trill","M2"],"duration":61.270833333333336,"velocity":42.50639552671298},
{"position":399.9791666666667,"instrument":"TheGrandeurPiano","level2":17,"level3":null,"pitch":24,"articulation":"standard","articulation_tags":["standard","long"],"duration":0.3402777777777778,"velocity":81.6149966056376},
{"position":400.0,"instrument":"TheGrandeurPiano","level2":20,"level3":null,"pitch":89,"articulation":"standard","articulation_tags":["standard","long"],"duration":0.2152777777777778,"velocity":81.6149966056376},
{"position":400.03125,"instrument":"TheGrandeurPiano","level2":14,"level3":null,"pitch":27,"articulation":"standard","articulation_tags":["standard","long"],"duration":0.13194444444444445,"velocity":83.46226115800674},
{"position":400.0520833333333,"instrument":"TheGrandeurPiano","level2":17,"level3":null,"pitch":35,"articulation":"standard","articulation_tags":["standard","long"],"duration":0.1527777777777778,"velocity":81.71617630583944},
{"position":400.1145833333333,"instrument":"TheGrandeurPiano","level2":20,"level3":null,"pitch":89,"articulation":"standard","articulation_tags":["standard","long"],"duration":0.5069444444444444,"velocity":81.71617630583944},
{"position":400.21875,"instrument":"TheGrandeurPiano","level2":14,"level3":null,"pitch":27,"articulation":"standard","articulation_tags":["standard","long"],"duration":0.5902777777777778,"velocity":81.71617630583944},
{"position":400.2395833333333,"instrument":"TheGrandeurPiano","level2":14,"level3":null,"pitch":28,"articulation":"standard","articulation_tags":["standard","long"],"duration":0.125,"velocity":81.71617630583944},
{"position":400.28125,"instrument":"TheGrandeurPiano","level2":17,"level3":null,"pitch":35,"articulation":"standard","articulation_tags":["standard","long"],"duration":0.14583333333333334,"velocity":82.01878501129197},
{"position":400.3229166666667,"instrument":"TheGrandeurPiano","level2":20,"level3":null,"pitch":89,"articulation":"standard","articulation_tags":["standard","long"],"duration":0.2222222222222222,"velocity":82.01878501129197},
{"position":400.4270833333333,"instrument":"TheGrandeurPiano","level2":14,"level3":null,"pitch":28,"articulation":"standard","articulation_tags":["standard","long"],"duration":0.11805555555555555,"velocity":82.01878501129197},
{"position":400.5,"instrument":"TheGrandeurPiano","level2":17,"level3":null,"pitch":35,"articulation":"standard","articulation_tags":["standard","long"],"duration":0.3055555555555556,"velocity":80.44001256580367},
{"position":400.5,"instrument":"TheGrandeurPiano","level2":17,"level3":null,"pitch":34,"articulation":"standard","articulation_tags":["standard","long"],"duration":0.13194444444444445,"velocity":80.44001256580367},
{"position":400.6041666666667,"instrument":"TheGrandeurPiano","level2":14,"level3":null,"pitch":29,"articulation":"standard","articulation_tags":["standard","long"],"duration":0.11805555555555555,"velocity":82.52007379640287},
{"position":400.65625,"instrument":"TheGrandeurPiano","level2":20,"level3":null,"pitch":90,"articulation":"standard","articulation_tags":["standard","long"],"duration":0.22916666666666666,"velocity":81.0556954593137},
{"position":400.6979166666667,"instrument":"TheGrandeurPiano","level2":17,"level3":null,"pitch":34,"articulation":"standard","articulation_tags":["standard","long"],"duration":0.125,"velocity":81.0556954593137},
{"position":400.78125,"instrument":"TheGrandeurPiano","level2":14,"level3":null,"pitch":29,"articulation":"standard","articulation_tags":["standard","long"],"duration":0.1111111111111111,"velocity":81.0556954593137},
{"position":400.875,"instrument":"TheGrandeurPiano","level2":20,"level3":null,"pitch":90,"articulation":"standard","articulation_tags":["standard","long"],"duration":0.4722222222222222,"velocity":81.86765443913788},
{"position":400.8854166666667,"instrument":"TheGrandeurPiano","level2":17,"level3":null,"pitch":33,"articulation":"standard","articulation_tags":["standard","long"],"duration":0.11805555555555555,"velocity":81.86765443913788},
{"position":400.9479166666667,"instrument":"TheGrandeurPiano","level2":14,"level3":null,"pitch":30,"articulation":"standard","articulation_tags":["standard","long"],"duration":0.10416666666666667,"velocity":81.86765443913788},
{"position":400.9583333333333,"instrument":"TheGrandeurPiano","level2":17,"level3":null,"pitch":33,"articulation":"standard","articulation_tags":["standard","long"],"duration":0.2708333333333333,"velocity":81.86765443913788},
{"position":401.0104166666667,"instrument":"TheGrandeurPiano","level2":20,"level3":null,"pitch":90,"articulation":"standard","articulation_tags":["standard","long"],"duration":0.2361111111111111,"velocity":81.86765443913788},
{"position":401.0625,"instrument":"TheGrandeurPiano","level2":17,"level3":null,"pitch":33,"articulation":"standard","articulation_tags":["standard","long"],"duration":0.1111111111111111,"velocity":80.59448345280302},
{"position":401.09375,"instrument":"TheGrandeurPiano","level2":14,"level3":null,"pitch":30,"articulation":"standard","articulation_tags":["standard","long"],"duration":0.09722222222222222,"velocity":80.59448345280302},
{"position":401.1041666666667,"instrument":"TheGrandeurPiano","level2":14,"level3":null,"pitch":30,"articulation":"standard","articulation_tags":["standard","long"],"duration":0.3888888888888889,"velocity":80.59448345280302},
{"position":401.2291666666667,"instrument":"TheGrandeurPiano","level2":17,"level3":null,"pitch":32,"articulation":"standard","articulation_tags":["standard","long"],"duration":0.09722222222222222,"velocity":81.71617630583944},
{"position":401.2395833333333,"instrument":"TheGrandeurPiano","level2":14,"level3":null,"pitch":31,"articulation":"standard","articulation_tags":["standard","long"],"duration":0.09027777777777778,"velocity":81.71617630583944},
{"position":401.3645833333333,"instrument":"TheGrandeurPiano","level2":20,"level3":null,"pitch":91,"articulation":"standard","articulation_tags":["standard","long"],"duration":0.24305555555555555,"velocity":81.71617630583944},
{"position":401.3645833333333,"instrument":"TheGrandeurPiano","level2":17,"level3":null,"pitch":32,"articulation":"standard","articulation_tags":["standard","long"],"duration":0.22916666666666666,"velocity":81.71617630583944},
{"position":401.375,"instrument":"TheGrandeurPiano","level2":14,"level3":null,"pitch":31,"articulation":"standard","articulation_tags":["standard","long"],"duration":0.08333333333333333,"velocity":80.64589172473077},
{"position":401.375,"instrument":"TheGrandeurPiano","level2":17,"level3":null,"pitch":32,"articulation":"standard","articulation_tags":["standard","long"],"duration":0.09027777777777778,"velocity":80.64589172473077},
{"position":401.5,"instrument":"TheGrandeurPiano","level2":14,"level3":null,"pitch":32,"articulation":"standard","articulation_tags":["standard","long"],"duration":0.0763888888888889,"velocity":80.64589172473077},
{"position":401.5104166666667,"instrument":"TheGrandeurPiano","level2":17,"level3":null,"pitch":31,"articulation":"standard","articulation_tags":["standard","long"],"duration":0.08333333333333333,"velocity":80.64589172473077},
{"position":401.5833333333333,"instrument":"TheGrandeurPiano","level2":20,"level3":null,"pitch":91,"articulation":"standard","articulation_tags":["standard","long"],"duration":0.4513888888888889,"velocity":82.06908504526425},
{"position":401.6145833333333,"instrument":"TheGrandeurPiano","level2":14,"level3":null,"pitch":32,"articulation":"standard","articulation_tags":["standard","long"],"duration":0.06944444444444445,"velocity":82.06908504526425},
{"position":401.6354166666667,"instrument":"TheGrandeurPiano","level2":17,"level3":null,"pitch":31,"articulation":"standard","articulation_tags":["standard","long"],"duration":0.0763888888888889,"velocity":82.06908504526425},
{"position":401.6875,"instrument":"TheGrandeurPiano","level2":14,"level3":null,"pitch":32,"articulation":"standard","articulation_tags":["standard","long"],"duration":0.2361111111111111,"velocity":82.06908504526425},
{"position":401.7083333333333,"instrument":"TheGrandeurPiano","level2":17,"level3":null,"pitch":31,"articulation":"standard","articulation_tags":["standard","long"],"duration":0.18055555555555555,"velocity":81.2087078904994},
{"position":401.7291666666667,"instrument":"TheGrandeurPiano","level2":20,"level3":null,"pitch":91,"articulation":"standard","articulation_tags":["standard","long"],"duration":0.25,"velocity":81.2087078904994},
{"position":401.7291666666667,"instrument":"TheGrandeurPiano","level2":14,"level3":null,"pitch":33,"articulation":"standard","articulation_tags":["standard","long"],"duration":0.0625,"velocity":81.2087078904994},
{"position":401.75,"instrument":"TheGrandeurPiano","level2":17,"level3":null,"pitch":30,"articulation":"standard","articulation_tags":["standard","long"],"duration":0.06944444444444445,"velocity":81.2087078904994},
{"position":401.8229166666667,"instrument":"TheGrandeurPiano","level2":14,"level3":null,"pitch":33,"articulation":"standard","articulation_tags":["standard","long"],"duration":0.05555555555555555,"velocity":81.2087078904994},
{"position":401.8541666666667,"instrument":"TheGrandeurPiano","level2":17,"level3":null,"pitch":30,"articulation":"standard","articulation_tags":["standard","long"],"duration":0.0625,"velocity":81.2087078904994},
{"position":401.90625,"instrument":"TheGrandeurPiano","level2":14,"level3":null,"pitch":34,"articulation":"standard","articulation_tags":["standard","long"],"duration":0.05555555555555555,"velocity":80.44001256580367},
{"position":401.9375,"instrument":"TheGrandeurPiano","level2":17,"level3":null,"pitch":29,"articulation":"standard","articulation_tags":["standard","long"],"duration":0.05555555555555555,"velocity":80.44001256580367},
{"position":401.9791666666667,"instrument":"TheGrandeurPiano","level2":17,"level3":null,"pitch":29,"articulation":"standard","articulation_tags":["standard","long"],"duration":0.125,"velocity":80.44001256580367},
{"position":401.9895833333333,"instrument":"TheGrandeurPiano","level2":14,"level3":null,"pitch":34,"articulation":"standard","articulation_tags":["standard","long"],"duration":0.041666666666666664,"velocity":80.44001256580367},
{"position":402.0208333333333,"instrument":"TheGrandeurPiano","level2":17,"level3":null,"pitch":29,"articulation":"standard","articulation_tags":["standard","long"],"duration":0.04861111111111111,"velocity":80.44001256580367},
{"position":402.0416666666667,"instrument":"TheGrandeurPiano","level2":14,"level3":null,"pitch":34,"articulation":"standard","articulation_tags":["standard","long"],"duration":0.11805555555555555,"velocity":79.76631479798509},
{"position":402.0520833333333,"instrument":"TheGrandeurPiano","level2":14,"level3":null,"pitch":35,"articulation":"standard","articulation_tags":["standard","long"],"duration":0.041666666666666664,"velocity":79.76631479798509},
{"position":402.0833333333333,"instrument":"TheGrandeurPiano","level2":17,"level3":null,"pitch":28,"articulation":"standard","articulation_tags":["standard","long"],"duration":0.034722222222222224,"velocity":79.76631479798509},
{"position":402.1041666666667,"instrument":"TheGrandeurPiano","level2":20,"level3":null,"pitch":92,"articulation":"standard","articulation_tags":["standard","long"],"duration":0.2569444444444444,"velocity":79.76631479798509},
{"position":402.1145833333333,"instrument":"TheGrandeurPiano","level2":14,"level3":null,"pitch":35,"articulation":"standard","articulation_tags":["standard","long"],"duration":0.034722222222222224,"velocity":79.76631479798509},
{"position":402.1354166666667,"instrument":"TheGrandeurPiano","level2":17,"level3":null,"pitch":28,"articulation":"standard","articulation_tags":["standard","long"],"duration":0.027777777777777776,"velocity":79.76631479798509},
{"position":402.1666666666667,"instrument":"TheGrandeurPiano","level2":14,"level3":null,"pitch":24,"articulation":"standard","articulation_tags":["standard","long"],"duration":0.027777777777777776,"velocity":82.26990339605935},
{"position":402.1666666666667,"instrument":"TheGrandeurPiano","level2":17,"level3":null,"pitch":28,"articulation":"standard","articulation_tags":["standard","long"],"duration":0.05555555555555555,"velocity":82.26990339605935},
{"position":402.1875,"instrument":"TheGrandeurPiano","level2":17,"level3":null,"pitch":27,"articulation":"standard","articulation_tags":["standard","long"],"duration":0.020833333333333332,"velocity":82.26990339605935},
{"position":402.1979166666667,"instrument":"TheGrandeurPiano","level2":14,"level3":null,"pitch":24,"articulation":"standard","articulation_tags":["standard","long"],"duration":0.020833333333333332,"velocity":82.26990339605935},
{"position":402.21875,"instrument":"TheGrandeurPiano","level2":17,"level3":null,"pitch":27,"articulation":"standard","articulation_tags":["standard","long"],"duration":0.013888888888888888,"velocity":81.71617630583944},
{"position":402.21875,"instrument":"TheGrandeurPiano","level2":14,"level3":null,"pitch":24,"articulation":"standard","articulation_tags":["standard","long"],"duration":0.027777777777777776,"velocity":81.71617630583944},
{"position":402.2291666666667,"instrument":"TheGrandeurPiano","level2":14,"level3":null,"pitch":25,"articulation":"standard","articulation_tags":["standard","long"],"duration":0.013888888888888888,"velocity":81.71617630583944},
{"position":402.2395833333333,"instrument":"TheGrandeurPiano","level2":17,"level3":null,"pitch":26,"articulation":"standard","articulation_tags":["standard","long"],"duration":0.006944444444444444,"velocity":81.71617630583944},
{"position":402.25,"instrument":"TheGrandeurPiano","level2":14,"level3":null,"pitch":25,"articulation":"standard","articulation_tags":["standard","long"],"duration":0.006944444444444444,"velocity":81.71617630583944},
{"position":402.25,"instrument":"TheGrandeurPiano","level2":17,"level3":null,"pitch":26,"articulation":"standard","articulation_tags":["standard","long"],"duration":0.006944444444444444,"velocity":81.71617630583944},
{"position":402.25,"instrument":"TheGrandeurPiano","level2":17,"level3":null,"pitch":26,"articulation":"standard","articulation_tags":["standard","long"],"duration":0.0,"velocity":81.71617630583944},
{"position":402.2604166666667,"instrument":"TheGrandeurPiano","level2":20,"level3":null,"pitch":92,"articulation":"standard","articulation_tags":["standard","long"],"duration":0.4305555555555556,"velocity":81.71617630583944},
{"position":402.2604166666667,"instrument":"TheGrandeurPiano","level2":14,"level3":null,"pitch":26,"articulation":"standard","articulation_tags":["standard","long"],"duration":0.0,"velocity":81.71617630583944},
{"position":402.5,"instrument":"TheGrandeurPiano","level2":20,"level3":null,"pitch":92,"articulation":"standard","articulation_tags":["standard","long"],"duration":0.2708333333333333,"velocity":81.25963230895228},
{"position":402.90625,"instrument":"TheGrandeurPiano","level2":20,"level3":null,"pitch":93,"articulation":"standard","articulation_tags":["standard","long"],"duration":0.2777777777777778,"velocity":80.49154397153247},
{"position":402.9166666666667,"instrument":"TheGrandeurPiano","level2":20,"level3":null,"pitch":93,"articulation":"standard","articulation_tags":["standard","long"],"duration":0.4166666666666667,"velocity":80.49154397153247},
{"position":403.3229166666667,"instrument":"TheGrandeurPiano","level2":20,"level3":null,"pitch":93,"articulation":"standard","articulation_tags":["standard","long"],"duration":0.2916666666666667,"velocity":80.49154397153247},
{"position":403.5416666666667,"instrument":"TheGrandeurPiano","level2":20,"level3":null,"pitch":93,"articulation":"standard","articulation_tags":["standard","long"],"duration":0.4027777777777778,"velocity":80.90232229004954},
{"position":403.7604166666667,"instrument":"TheGrandeurPiano","level2":20,"level3":null,"pitch":94,"articulation":"standard","articulation_tags":["standard","long"],"duration":0.3055555555555556,"velocity":78.71572702195472},
{"position":404.15625,"instrument":"TheGrandeurPiano","level2":20,"level3":null,"pitch":94,"articulation":"standard","articulation_tags":["standard","long"],"duration":0.3958333333333333,"velocity":79.76631479798509},
{"position":404.21875,"instrument":"TheGrandeurPiano","level2":20,"level3":null,"pitch":94,"articulation":"standard","articulation_tags":["standard","long"],"duration":0.3194444444444444,"velocity":77.9697190164355},
{"position":404.6979166666667,"instrument":"TheGrandeurPiano","level2":20,"level3":null,"pitch":95,"articulation":"standard","articulation_tags":["standard","long"],"duration":0.3333333333333333,"velocity":77.26886451053883},
{"position":404.7395833333333,"instrument":"TheGrandeurPiano","level2":20,"level3":null,"pitch":95,"articulation":"standard","articulation_tags":["standard","long"],"duration":0.3819444444444444,"velocity":78.29053074972941},
{"position":405.1979166666667,"instrument":"TheGrandeurPiano","level2":20,"level3":null,"pitch":95,"articulation":"standard","articulation_tags":["standard","long"],"duration":0.3541666666666667,"velocity":78.34383887309278},
{"position":405.3229166666667,"instrument":"TheGrandeurPiano","level2":20,"level3":null,"pitch":95,"articulation":"standard","articulation_tags":["standard","long"],"duration":0.375,"velocity":76.11945813990846},
{"position":405.7291666666667,"instrument":"TheGrandeurPiano","level2":20,"level3":null,"pitch":96,"articulation":"standard","articulation_tags":["standard","long"],"duration":0.375,"velocity":76.83355623010553},
{"position":405.8854166666667,"instrument":"TheGrandeurPiano","level2":20,"level3":null,"pitch":96,"articulation":"standard","articulation_tags":["standard","long"],"duration":0.3680555555555556,"velocity":76.39511047089866},
{"position":406.3020833333333,"instrument":"TheGrandeurPiano","level2":20,"level3":null,"pitch":96,"articulation":"standard","articulation_tags":["standard","long"],"duration":0.4027777777777778,"velocity":76.17468962435433},
{"position":406.4375,"instrument":"TheGrandeurPiano","level2":20,"level3":null,"pitch":96,"articulation":"standard","articulation_tags":["standard","long"],"duration":0.3611111111111111,"velocity":76.17468962435433},
{"position":406.90625,"instrument":"TheGrandeurPiano","level2":20,"level3":null,"pitch":85,"articulation":"standard","articulation_tags":["standard","long"],"duration":0.4444444444444444,"velocity":75.34081989760364},
{"position":406.9791666666667,"instrument":"TheGrandeurPiano","level2":20,"level3":null,"pitch":85,"articulation":"standard","articulation_tags":["standard","long"],"duration":0.3541666666666667,"velocity":75.34081989760364},
{"position":407.5104166666667,"instrument":"TheGrandeurPiano","level2":20,"level3":null,"pitch":85,"articulation":"standard","articulation_tags":["standard","long"],"duration":0.3472222222222222,"velocity":73.63689942723107},
{"position":407.5729166666667,"instrument":"TheGrandeurPiano","level2":20,"level3":null,"pitch":85,"articulation":"standard","articulation_tags":["standard","long"],"duration":0.4861111111111111,"velocity":73.63689942723107},
{"position":407.8541666666667,"instrument":"Clarinet","level2":20,"level3":6,"pitch":73,"articulation":"trill_2M","articulation_tags":["trill_2M","long","trill","M2"],"duration":27.947916666666668,"velocity":40.88669125915594},
{"position":408.03125,"instrument":"TheGrandeurPiano","level2":20,"level3":null,"pitch":85,"articulation":"standard","articulation_tags":["standard","long"],"duration":0.3472222222222222,"velocity":73.05761940418697},
{"position":408.1666666666667,"instrument":"Flute","level2":20,"level3":7,"pitch":75,"articulation":"trill_2m","articulation_tags":["trill_2m","long","trill","m2"],"duration":45.0,"velocity":40.44915332294606},
{"position":408.3020833333333,"instrument":"TheGrandeurPiano","level2":20,"level3":null,"pitch":86,"articulation":"standard","articulation_tags":["standard","long"],"duration":0.5486111111111112,"velocity":72.29564472948019},
{"position":408.5520833333333,"instrument":"TheGrandeurPiano","level2":20,"level3":null,"pitch":86,"articulation":"standard","articulation_tags":["standard","long"],"duration":0.3402777777777778,"velocity":73.63689942723107},
{"position":409.0625,"instrument":"TheGrandeurPiano","level2":20,"level3":null,"pitch":86,"articulation":"standard","articulation_tags":["standard","long"],"duration":0.3402777777777778,"velocity":72.76576265952221},
{"position":409.125,"instrument":"TheGrandeurPiano","level2":20,"level3":null,"pitch":86,"articulation":"standard","articulation_tags":["standard","long"],"duration":0.6458333333333334,"velocity":72.76576265952221},
{"position":409.5729166666667,"instrument":"TheGrandeurPiano","level2":20,"level3":null,"pitch":86,"articulation":"standard","articulation_tags":["standard","long"],"duration":0.3333333333333333,"velocity":70.37454217067419},
{"position":410.0729166666667,"instrument":"TheGrandeurPiano","level2":20,"level3":null,"pitch":86,"articulation":"standard","articulation_tags":["standard","long"],"duration":0.3333333333333333,"velocity":71.64274748469009},
{"position":410.09375,"instrument":"TheGrandeurPiano","level2":20,"level3":null,"pitch":87,"articulation":"standard","articulation_tags":["standard","long"],"duration":0.8263888888888888,"velocity":71.64274748469009},
{"position":410.5625,"instrument":"TheGrandeurPiano","level2":20,"level3":null,"pitch":87,"articulation":"standard","articulation_tags":["standard","long"],"duration":0.3263888888888889,"velocity":70.61837542141933},
{"position":410.9166666666667,"instrument":"Oboe","level2":20,"level3":4,"pitch":72,"articulation":"trill_2M","articulation_tags":["trill_2M","long","trill","M2"],"duration":109.64583333333333,"velocity":39.976798216924976},
{"position":411.0520833333333,"instrument":"TheGrandeurPiano","level2":20,"level3":null,"pitch":87,"articulation":"standard","articulation_tags":["standard","long"],"duration":0.3263888888888889,"velocity":69.07604285264554},
{"position":411.34375,"instrument":"TheGrandeurPiano","level2":20,"level3":null,"pitch":87,"articulation":"standard","articulation_tags":["standard","long"],"duration":1.4652777777777777,"velocity":68.19243224816691},
{"position":411.5416666666667,"instrument":"TheGrandeurPiano","level2":20,"level3":null,"pitch":87,"articulation":"standard","articulation_tags":["standard","long"],"duration":0.3194444444444444,"velocity":69.63639197463223},
{"position":412.03125,"instrument":"TheGrandeurPiano","level2":20,"level3":null,"pitch":87,"articulation":"standard","articulation_tags":["standard","long"],"duration":0.3194444444444444,"velocity":68.8879405142832},
{"position":412.5104166666667,"instrument":"TheGrandeurPiano","level2":20,"level3":null,"pitch":87,"articulation":"standard","articulation_tags":["standard","long"],"duration":0.3194444444444444,"velocity":69.13859566498758},
{"position":412.9791666666667,"instrument":"TheGrandeurPiano","level2":20,"level3":null,"pitch":87,"articulation":"standard","articulation_tags":["standard","long"],"duration":0.3125,"velocity":66.83822845659489},
{"position":413.4583333333333,"instrument":"TheGrandeurPiano","level2":20,"level3":null,"pitch":87,"articulation":"standard","articulation_tags":["standard","long"],"duration":0.3125,"velocity":66.77284164052435},
{"position":413.53125,"instrument":"TheGrandeurPiano","level2":20,"level3":null,"pitch":88,"articulation":"standard","articulation_tags":["standard","long"],"duration":1.4513888888888888,"velocity":68.19243224816691},
{"position":413.9270833333333,"instrument":"TheGrandeurPiano","level2":20,"level3":null,"pitch":88,"articulation":"standard","articulation_tags":["standard","long"],"duration":0.3125,"velocity":66.64181473398662},
{"position":414.3958333333333,"instrument":"TheGrandeurPiano","level2":20,"level3":null,"pitch":88,"articulation":"standard","articulation_tags":["standard","long"],"duration":0.3125,"velocity":68.12874408259155},
{"position":414.8645833333333,"instrument":"TheGrandeurPiano","level2":20,"level3":null,"pitch":88,"articulation":"standard","articulation_tags":["standard","long"],"duration":0.3125,"velocity":67.55201005264294},
{"position":415.3333333333333,"instrument":"TheGrandeurPiano","level2":20,"level3":null,"pitch":88,"articulation":"standard","articulation_tags":["standard","long"],"duration":0.3125,"velocity":68.12874408259155},
{"position":415.7083333333333,"instrument":"TheGrandeurPiano","level2":20,"level3":null,"pitch":87,"articulation":"standard","articulation_tags":["standard","long"],"duration":1.4375,"velocity":69.13859566498758},
{"position":415.7916666666667,"instrument":"TheGrandeurPiano","level2":20,"level3":null,"pitch":87,"articulation":"standard","articulation_tags":["standard","long"],"duration":0.3055555555555556,"velocity":66.64181473398662},
{"position":415.9895833333333,"instrument":"Oboe","level2":20,"level3":10,"pitch":74,"articulation":"trill_2M","articulation_tags":["trill_2M","long","trill","M2"],"duration":11.75,"velocity":37.57082424334824},
{"position":415.9895833333333,"instrument":"BassClarinet","level2":20,"level3":11,"pitch":74,"articulation":"trill_2M","articulation_tags":["trill_2M","long","trill","M2"],"duration":30.864583333333332,"velocity":37.57082424334824},
{"position":416.2604166666667,"instrument":"TheGrandeurPiano","level2":20,"level3":null,"pitch":87,"articulation":"standard","articulation_tags":["standard","long"],"duration":0.3055555555555556,"velocity":69.13859566498758},
{"position":416.71875,"instrument":"TheGrandeurPiano","level2":20,"level3":null,"pitch":87,"articulation":"standard","articulation_tags":["standard","long"],"duration":0.3055555555555556,"velocity":69.07604285264554},
{"position":417.1770833333333,"instrument":"TheGrandeurPiano","level2":20,"level3":null,"pitch":87,"articulation":"standard","articulation_tags":["standard","long"],"duration":0.3055555555555556,"velocity":67.55201005264294},
{"position":417.6458333333333,"instrument":"TheGrandeurPiano","level2":20,"level3":null,"pitch":87,"articulation":"standard","articulation_tags":["standard","long"],"duration":0.3055555555555556,"velocity":68.8879405142832},
{"position":417.8645833333333,"instrument":"TheGrandeurPiano","level2":20,"level3":null,"pitch":87,"articulation":"standard","articulation_tags":["standard","long"],"duration":0.7916666666666666,"velocity":68.8879405142832},
{"position":418.1041666666667,"instrument":"TheGrandeurPiano","level2":20,"level3":null,"pitch":87,"articulation":"standard","articulation_tags":["standard","long"],"duration":0.3055555555555556,"velocity":69.13859566498758},
{"position":418.5625,"instrument":"TheGrandeurPiano","level2":20,"level3":null,"pitch":87,"articulation":"standard","articulation_tags":["standard","long"],"duration":0.3055555555555556,"velocity":68.19243224816691},
{"position":419.03125,"instrument":"TheGrandeurPiano","level2":20,"level3":null,"pitch":87,"articulation":"standard","articulation_tags":["standard","long"],"duration":0.3055555555555556,"velocity":70.19094724413773},
{"position":419.0520833333333,"instrument":"TheGrandeurPiano","level2":20,"level3":null,"pitch":86,"articulation":"standard","articulation_tags":["standard","long"],"duration":0.6111111111111112,"velocity":70.19094724413773},
{"position":419.4895833333333,"instrument":"TheGrandeurPiano","level2":20,"level3":null,"pitch":86,"articulation":"standard","articulation_tags":["standard","long"],"duration":0.3125,"velocity":70.61837542141933},
{"position":419.9583333333333,"instrument":"TheGrandeurPiano","level2":20,"level3":null,"pitch":86,"articulation":"standard","articulation_tags":["standard","long"],"duration":0.3125,"velocity":71.10280508725903},
{"position":419.96875,"instrument":"TheGrandeurPiano","level2":20,"level3":null,"pitch":86,"articulation":"standard","articulation_tags":["standard","long"],"duration":0.5138888888888888,"velocity":71.10280508725903},
{"position":420.4166666666667,"instrument":"TheGrandeurPiano","level2":20,"level3":null,"pitch":86,"articulation":"standard","articulation_tags":["standard","long"],"duration":0.3125,"velocity":70.37454217067419},
{"position":420.75,"instrument":"TheGrandeurPiano","level2":20,"level3":null,"pitch":85,"articulation":"standard","articulation_tags":["standard","long"],"duration":0.4513888888888889,"velocity":70.1296105552751},
{"position":420.8854166666667,"instrument":"TheGrandeurPiano","level2":20,"level3":null,"pitch":85,"articulation":"standard","articulation_tags":["standard","long"],"duration":0.3125,"velocity":70.19094724413773},
{"position":421.3541666666667,"instrument":"TheGrandeurPiano","level2":20,"level3":null,"pitch":85,"articulation":"standard","articulation_tags":["standard","long"],"duration":0.3125,"velocity":70.67916383803134},
{"position":421.4270833333333,"instrument":"TheGrandeurPiano","level2":20,"level3":null,"pitch":85,"articulation":"standard","articulation_tags":["standard","long"],"duration":0.4097222222222222,"velocity":71.10280508725903},
{"position":421.8229166666667,"instrument":"TheGrandeurPiano","level2":20,"level3":null,"pitch":85,"articulation":"standard","articulation_tags":["standard","long"],"duration":0.3194444444444444,"velocity":69.82187861000301},
{"position":422.03125,"instrument":"TheGrandeurPiano","level2":20,"level3":null,"pitch":96,"articulation":"standard","articulation_tags":["standard","long"],"duration":0.375,"velocity":70.61837542141933},
{"position":422.3020833333333,"instrument":"TheGrandeurPiano","level2":20,"level3":null,"pitch":96,"articulation":"standard","articulation_tags":["standard","long"],"duration":0.3194444444444444,"velocity":71.52321405450738},
{"position":422.59375,"instrument":"TheGrandeurPiano","level2":20,"level3":null,"pitch":96,"articulation":"standard","articulation_tags":["standard","long"],"duration":0.3472222222222222,"velocity":71.3434298348877},
{"position":422.78125,"instrument":"TheGrandeurPiano","level2":20,"level3":null,"pitch":96,"articulation":"standard","articulation_tags":["standard","long"],"duration":0.3194444444444444,"velocity":71.3434298348877},
{"position":423.1041666666667,"instrument":"TheGrandeurPiano","level2":20,"level3":null,"pitch":95,"articulation":"standard","articulation_tags":["standard","long"],"duration":0.3194444444444444,"velocity":71.76202467941175},
{"position":423.2604166666667,"instrument":"TheGrandeurPiano","level2":20,"level3":null,"pitch":95,"articulation":"standard","articulation_tags":["standard","long"],"duration":0.3263888888888889,"velocity":71.16305967616036},
{"position":423.59375,"instrument":"TheGrandeurPiano","level2":20,"level3":null,"pitch":95,"articulation":"standard","articulation_tags":["standard","long"],"duration":0.2986111111111111,"velocity":70.8005383799157},
{"position":423.75,"instrument":"TheGrandeurPiano","level2":20,"level3":null,"pitch":95,"articulation":"standard","articulation_tags":["standard","long"],"duration":0.3263888888888889,"velocity":72.53119238891506},
{"position":424.0416666666667,"instrument":"TheGrandeurPiano","level2":20,"level3":null,"pitch":94,"articulation":"standard","articulation_tags":["standard","long"],"duration":0.2847222222222222,"velocity":72.53119238891506},
{"position":424.2395833333333,"instrument":"TheGrandeurPiano","level2":20,"level3":null,"pitch":94,"articulation":"standard","articulation_tags":["standard","long"],"duration":0.3333333333333333,"velocity":70.8005383799157},
{"position":424.46875,"instrument":"TheGrandeurPiano","level2":20,"level3":null,"pitch":94,"articulation":"standard","articulation_tags":["standard","long"],"duration":0.2708333333333333,"velocity":71.16305967616036},
{"position":424.7395833333333,"instrument":"TheGrandeurPiano","level2":20,"level3":null,"pitch":94,"articulation":"standard","articulation_tags":["standard","long"],"duration":0.3402777777777778,"velocity":71.76202467941175},
{"position":424.875,"instrument":"TheGrandeurPiano","level2":20,"level3":null,"pitch":93,"articulation":"standard","articulation_tags":["standard","long"],"duration":0.2569444444444444,"velocity":70.37454217067419},
{"position":425.25,"instrument":"TheGrandeurPiano","level2":20,"level3":null,"pitch":93,"articulation":"standard","articulation_tags":["standard","long"],"duration":0.3472222222222222,"velocity":70.19094724413773},
{"position":425.2604166666667,"instrument":"TheGrandeurPiano","level2":20,"level3":null,"pitch":93,"articulation":"standard","articulation_tags":["standard","long"],"duration":0.24305555555555555,"velocity":70.19094724413773},
{"position":425.6354166666667,"instrument":"TheGrandeurPiano","level2":20,"level3":null,"pitch":92,"articulation":"standard","articulation_tags":["standard","long"],"duration":0.2361111111111111,"velocity":71.52321405450738},
{"position":425.7604166666667,"instrument":"TheGrandeurPiano","level2":20,"level3":null,"pitch":92,"articulation":"standard","articulation_tags":["standard","long"],"duration":0.3541666666666667,"velocity":70.61837542141933},
{"position":425.9895833333333,"instrument":"TheGrandeurPiano","level2":20,"level3":null,"pitch":92,"articulation":"standard","articulation_tags":["standard","long"],"duration":0.22916666666666666,"velocity":69.82187861000301},
{"position":426.2916666666667,"instrument":"TheGrandeurPiano","level2":20,"level3":null,"pitch":92,"articulation":"standard","articulation_tags":["standard","long"],"duration":0.3611111111111111,"velocity":68.57294104467155},
{"position":426.3020833333333,"instrument":"Marimba","level2":20,"level3":12,"pitch":74,"articulation":"hits","articulation_tags":["hits","short"],"duration":0.0625,"velocity":78.97928996642214},
{"position":426.3020833333333,"instrument":"Marimba","level2":20,"level3":13,"pitch":74,"articulation":"hits","articulation_tags":["hits","short"],"duration":0.0625,"velocity":78.97928996642214},
{"position":426.3229166666667,"instrument":"TheGrandeurPiano","level2":20,"level3":null,"pitch":91,"articulation":"standard","articulation_tags":["standard","long"],"duration":0.2152777777777778,"velocity":68.57294104467155},
{"position":426.65625,"instrument":"TheGrandeurPiano","level2":20,"level3":null,"pitch":91,"articulation":"standard","articulation_tags":["standard","long"],"duration":0.20833333333333334,"velocity":70.37454217067419},
{"position":426.8333333333333,"instrument":"TheGrandeurPiano","level2":20,"level3":null,"pitch":91,"articulation":"standard","articulation_tags":["standard","long"],"duration":0.3680555555555556,"velocity":70.37454217067419},
{"position":426.96875,"instrument":"TheGrandeurPiano","level2":20,"level3":null,"pitch":90,"articulation":"standard","articulation_tags":["standard","long"],"duration":0.2013888888888889,"velocity":70.19094724413773},
{"position":427.2708333333333,"instrument":"TheGrandeurPiano","level2":20,"level3":null,"pitch":90,"articulation":"standard","articulation_tags":["standard","long"],"duration":0.19444444444444445,"velocity":67.61640984046613},
{"position":427.3854166666667,"instrument":"TheGrandeurPiano","level2":20,"level3":null,"pitch":90,"articulation":"standard","articulation_tags":["standard","long"],"duration":0.3819444444444444,"velocity":67.61640984046613},
{"position":427.5729166666667,"instrument":"TheGrandeurPiano","level2":20,"level3":null,"pitch":89,"articulation":"standard","articulation_tags":["standard","long"],"duration":0.1875,"velocity":67.80912890478353},
{"position":427.8541666666667,"instrument":"TheGrandeurPiano","level2":20,"level3":null,"pitch":89,"articulation":"standard","articulation_tags":["standard","long"],"duration":0.1875,"velocity":68.12874408259155},
{"position":427.9583333333333,"instrument":"TheGrandeurPiano","level2":20,"level3":null,"pitch":89,"articulation":"standard","articulation_tags":["standard","long"],"duration":0.4027777777777778,"velocity":68.57294104467155},
{"position":428.1354166666667,"instrument":"TheGrandeurPiano","level2":20,"level3":null,"pitch":88,"articulation":"standard","articulation_tags":["standard","long"],"duration":0.18055555555555555,"velocity":69.13859566498758},
{"position":428.3958333333333,"instrument":"TheGrandeurPiano","level2":20,"level3":null,"pitch":88,"articulation":"standard","articulation_tags":["standard","long"],"duration":0.1736111111111111,"velocity":67.35832617418805},
{"position":428.5625,"instrument":"TheGrandeurPiano","level2":20,"level3":null,"pitch":88,"articulation":"standard","articulation_tags":["standard","long"],"duration":0.4236111111111111,"velocity":68.19243224816691},
{"position":428.65625,"instrument":"TheGrandeurPiano","level2":20,"level3":null,"pitch":87,"articulation":"standard","articulation_tags":["standard","long"],"duration":0.16666666666666666,"velocity":68.19243224816691},
{"position":428.6875,"instrument":"Trumpet","level2":20,"level3":5,"pitch":74,"articulation":"sforzando","articulation_tags":["sforzando","sfz","long"],"duration":9.385416666666666,"velocity":28.448158887223336},
{"position":428.9166666666667,"instrument":"TheGrandeurPiano","level2":20,"level3":null,"pitch":87,"articulation":"standard","articulation_tags":["standard","long"],"duration":0.16666666666666666,"velocity":66.77284164052435},
{"position":429.1666666666667,"instrument":"TheGrandeurPiano","level2":20,"level3":null,"pitch":86,"articulation":"standard","articulation_tags":["standard","long"],"duration":0.1597222222222222,"velocity":65.58113562568644},
{"position":429.1979166666667,"instrument":"TheGrandeurPiano","level2":20,"level3":null,"pitch":86,"articulation":"standard","articulation_tags":["standard","long"],"duration":0.4513888888888889,"velocity":65.58113562568644},
{"position":429.40625,"instrument":"TheGrandeurPiano","level2":20,"level3":null,"pitch":86,"articulation":"standard","articulation_tags":["standard","long"],"duration":0.1597222222222222,"velocity":66.83822845659489},
{"position":429.6354166666667,"instrument":"TheGrandeurPiano","level2":20,"level3":null,"pitch":85,"articulation":"standard","articulation_tags":["standard","long"],"duration":0.1527777777777778,"velocity":66.0479488130223},
{"position":429.8645833333333,"instrument":"TheGrandeurPiano","level2":20,"level3":null,"pitch":85,"articulation":"standard","articulation_tags":["standard","long"],"duration":0.14583333333333334,"velocity":65.51408875846897},
{"position":429.875,"instrument":"TheGrandeurPiano","level2":20,"level3":null,"pitch":85,"articulation":"standard","articulation_tags":["standard","long"],"duration":0.5,"velocity":65.51408875846897},
{"position":430.09375,"instrument":"TheGrandeurPiano","level2":20,"level3":null,"pitch":84,"articulation":"standard","articulation_tags":["standard","long"],"duration":0.14583333333333334,"velocity":65.2449884574752},
{"position":430.3125,"instrument":"TheGrandeurPiano","level2":20,"level3":null,"pitch":84,"articulation":"standard","articulation_tags":["standard","long"],"duration":0.1388888888888889,"velocity":63.426820618400455},
{"position":430.5208333333333,"instrument":"TheGrandeurPiano","level2":20,"level3":null,"pitch":83,"articulation":"standard","articulation_tags":["standard","long"],"duration":0.1388888888888889,"velocity":65.2449884574752},
{"position":430.625,"instrument":"TheGrandeurPiano","level2":20,"level3":null,"pitch":83,"articulation":"standard","articulation_tags":["standard","long"],"duration":0.5763888888888888,"velocity":63.55806705092045},
{"position":430.7291666666667,"instrument":"TheGrandeurPiano","level2":20,"level3":null,"pitch":83,"articulation":"standard","articulation_tags":["standard","long"],"duration":0.1388888888888889,"velocity":65.51408875846897},
{"position":430.9375,"instrument":"TheGrandeurPiano","level2":20,"level3":null,"pitch":82,"articulation":"standard","articulation_tags":["standard","long"],"duration":0.13194444444444445,"velocity":63.94950707714928},
{"position":431.1354166666667,"instrument":"TheGrandeurPiano","level2":20,"level3":null,"pitch":82,"articulation":"standard","articulation_tags":["standard","long"],"duration":0.13194444444444445,"velocity":62.564081780790424},
{"position":431.3333333333333,"instrument":"TheGrandeurPiano","level2":20,"level3":null,"pitch":81,"articulation":"standard","articulation_tags":["standard","long"],"duration":0.125,"velocity":63.36105178793823},
{"position":431.4895833333333,"instrument":"TheGrandeurPiano","level2":20,"level3":null,"pitch":81,"articulation":"standard","articulation_tags":["standard","long"],"duration":0.7916666666666666,"velocity":62.2276745704233},
{"position":431.5208333333333,"instrument":"TheGrandeurPiano","level2":20,"level3":null,"pitch":81,"articulation":"standard","articulation_tags":["standard","long"],"duration":0.125,"velocity":62.2276745704233},
{"position":431.7083333333333,"instrument":"TheGrandeurPiano","level2":20,"level3":null,"pitch":80,"articulation":"standard","articulation_tags":["standard","long"],"duration":0.125,"velocity":61.20236641298085},
{"position":431.8958333333333,"instrument":"TheGrandeurPiano","level2":20,"level3":null,"pitch":80,"articulation":"standard","articulation_tags":["standard","long"],"duration":0.11805555555555555,"velocity":63.426820618400455},
{"position":432.0729166666667,"instrument":"TheGrandeurPiano","level2":20,"level3":null,"pitch":79,"articulation":"standard","articulation_tags":["standard","long"],"duration":0.11805555555555555,"velocity":62.564081780790424},
{"position":432.25,"instrument":"TheGrandeurPiano","level2":20,"level3":null,"pitch":79,"articulation":"standard","articulation_tags":["standard","long"],"duration":0.11805555555555555,"velocity":61.8204974469243},
{"position":432.4166666666667,"instrument":"TheGrandeurPiano","level2":20,"level3":null,"pitch":78,"articulation":"standard","articulation_tags":["standard","long"],"duration":0.1111111111111111,"velocity":61.20236641298085},
{"position":432.5833333333333,"instrument":"TheGrandeurPiano","level2":20,"level3":null,"pitch":78,"articulation":"standard","articulation_tags":["standard","long"],"duration":0.1111111111111111,"velocity":60.71526590067154},
{"position":432.6770833333333,"instrument":"TheGrandeurPiano","level2":20,"level3":null,"pitch":78,"articulation":"standard","articulation_tags":["standard","long"],"duration":1.7569444444444444,"velocity":60.71526590067154},
{"position":432.75,"instrument":"TheGrandeurPiano","level2":20,"level3":null,"pitch":77,"articulation":"standard","articulation_tags":["standard","long"],"duration":0.1111111111111111,"velocity":60.71526590067154},
{"position":432.9166666666667,"instrument":"TheGrandeurPiano","level2":20,"level3":null,"pitch":77,"articulation":"standard","articulation_tags":["standard","long"],"duration":0.10416666666666667,"velocity":60.36382521632585},
{"position":433.0729166666667,"instrument":"TheGrandeurPiano","level2":20,"level3":null,"pitch":76,"articulation":"standard","articulation_tags":["standard","long"],"duration":0.10416666666666667,"velocity":60.15152017780837},
{"position":433.2291666666667,"instrument":"TheGrandeurPiano","level2":20,"level3":null,"pitch":76,"articulation":"standard","articulation_tags":["standard","long"],"duration":0.10416666666666667,"velocity":60.08050801069984},
{"position":433.3854166666667,"instrument":"TheGrandeurPiano","level2":20,"level3":null,"pitch":75,"articulation":"standard","articulation_tags":["standard","long"],"duration":0.09722222222222222,"velocity":60.08050801069984},
{"position":433.5416666666667,"instrument":"TheGrandeurPiano","level2":20,"level3":null,"pitch":75,"articulation":"standard","articulation_tags":["standard","long"],"duration":0.09722222222222222,"velocity":60.15152017780837},
{"position":433.6875,"instrument":"TheGrandeurPiano","level2":20,"level3":null,"pitch":74,"articulation":"standard","articulation_tags":["standard","long"],"duration":0.09722222222222222,"velocity":60.36382521632585},
{"position":433.8333333333333,"instrument":"TheGrandeurPiano","level2":20,"level3":null,"pitch":74,"articulation":"standard","articulation_tags":["standard","long"],"duration":0.09722222222222222,"velocity":60.36382521632585},
{"position":433.96875,"instrument":"TheGrandeurPiano","level2":20,"level3":null,"pitch":73,"articulation":"standard","articulation_tags":["standard","long"],"duration":0.09027777777777778,"velocity":60.71526590067154},
{"position":434.1145833333333,"instrument":"TheGrandeurPiano","level2":20,"level3":null,"pitch":73,"articulation":"standard","articulation_tags":["standard","long"],"duration":0.09027777777777778,"velocity":58.85394674874068},
{"position":434.25,"instrument":"TheGrandeurPiano","level2":20,"level3":null,"pitch":72,"articulation":"standard","articulation_tags":["standard","long"],"duration":0.09027777777777778,"velocity":58.85394674874068},
{"position":434.3854166666667,"instrument":"TheGrandeurPiano","level2":20,"level3":null,"pitch":72,"articulation":"standard","articulation_tags":["standard","long"],"duration":0.09027777777777778,"velocity":59.50792937435847},
{"position":434.5208333333333,"instrument":"TheGrandeurPiano","level2":20,"level3":null,"pitch":71,"articulation":"standard","articulation_tags":["standard","long"],"duration":0.09722222222222222,"velocity":59.50792937435847},
{"position":434.6666666666667,"instrument":"TheGrandeurPiano","level2":20,"level3":null,"pitch":71,"articulation":"standard","articulation_tags":["standard","long"],"duration":0.11805555555555555,"velocity":58.03975988207551},
{"position":434.84375,"instrument":"TheGrandeurPiano","level2":20,"level3":null,"pitch":70,"articulation":"standard","articulation_tags":["standard","long"],"duration":0.11805555555555555,"velocity":59.00020025582682},
{"position":435.0104166666667,"instrument":"TheGrandeurPiano","level2":20,"level3":null,"pitch":70,"articulation":"standard","articulation_tags":["standard","long"],"duration":0.11805555555555555,"velocity":56.824215249120385},
{"position":435.1875,"instrument":"TheGrandeurPiano","level2":20,"level3":null,"pitch":69,"articulation":"standard","articulation_tags":["standard","long"],"duration":0.11805555555555555,"velocity":57.96489929568298},
{"position":435.3125,"instrument":"TheGrandeurPiano","level2":20,"level3":null,"pitch":69,"articulation":"standard","articulation_tags":["standard","long"],"duration":0.7083333333333334,"velocity":59.218583317770324},
{"position":435.3645833333333,"instrument":"TheGrandeurPiano","level2":20,"level3":null,"pitch":69,"articulation":"standard","articulation_tags":["standard","long"],"duration":0.11805555555555555,"velocity":59.218583317770324},
{"position":435.5416666666667,"instrument":"TheGrandeurPiano","level2":20,"level3":null,"pitch":68,"articulation":"standard","articulation_tags":["standard","long"],"duration":0.11805555555555555,"velocity":57.208227279589494},
{"position":435.71875,"instrument":"TheGrandeurPiano","level2":20,"level3":null,"pitch":68,"articulation":"standard","articulation_tags":["standard","long"],"duration":0.11805555555555555,"velocity":58.633554570203174},
{"position":435.8020833333333,"instrument":"Viola","level2":20,"level3":6,"pitch":73,"articulation":"tremolo","articulation_tags":["tremolo","tr","multi_note"],"duration":30.666666666666668,"velocity":41.39139540085941},
{"position":435.8958333333333,"instrument":"TheGrandeurPiano","level2":20,"level3":null,"pitch":67,"articulation":"standard","articulation_tags":["standard","long"],"duration":0.11805555555555555,"velocity":58.33777764134233},
{"position":436.0729166666667,"instrument":"TheGrandeurPiano","level2":20,"level3":null,"pitch":67,"articulation":"standard","articulation_tags":["standard","long"],"duration":0.11805555555555555,"velocity":56.59192513864654},
{"position":436.25,"instrument":"TheGrandeurPiano","level2":20,"level3":null,"pitch":66,"articulation":"standard","articulation_tags":["standard","long"],"duration":0.11805555555555555,"velocity":58.33777764134233},
{"position":436.375,"instrument":"TheGrandeurPiano","level2":20,"level3":null,"pitch":66,"articulation":"standard","articulation_tags":["standard","long"],"duration":0.4583333333333333,"velocity":56.74694404431166},
{"position":436.4375,"instrument":"TheGrandeurPiano","level2":20,"level3":null,"pitch":66,"articulation":"standard","articulation_tags":["standard","long"],"duration":0.11805555555555555,"velocity":56.74694404431166},
{"position":436.6145833333333,"instrument":"TheGrandeurPiano","level2":20,"level3":null,"pitch":65,"articulation":"standard","articulation_tags":["standard","long"],"duration":0.125,"velocity":57.208227279589494},
{"position":436.8020833333333,"instrument":"TheGrandeurPiano","level2":20,"level3":null,"pitch":65,"articulation":"standard","articulation_tags":["standard","long"],"duration":0.125,"velocity":57.208227279589494},
{"position":436.9791666666667,"instrument":"TheGrandeurPiano","level2":20,"level3":null,"pitch":64,"articulation":"standard","articulation_tags":["standard","long"],"duration":0.125,"velocity":55.88627881588288},
{"position":437.0520833333333,"instrument":"TheGrandeurPiano","level2":20,"level3":null,"pitch":64,"articulation":"standard","articulation_tags":["standard","long"],"duration":0.3680555555555556,"velocity":57.96489929568298},
{"position":437.1666666666667,"instrument":"TheGrandeurPiano","level2":20,"level3":null,"pitch":64,"articulation":"standard","articulation_tags":["standard","long"],"duration":0.125,"velocity":56.824215249120385},
{"position":437.3541666666667,"instrument":"TheGrandeurPiano","level2":20,"level3":null,"pitch":63,"articulation":"standard","articulation_tags":["standard","long"],"duration":0.125,"velocity":55.80703859801349},
{"position":437.5520833333333,"instrument":"TheGrandeurPiano","level2":20,"level3":null,"pitch":63,"articulation":"standard","articulation_tags":["standard","long"],"duration":0.125,"velocity":58.03975988207551},
{"position":437.6041666666667,"instrument":"TheGrandeurPiano","level2":20,"level3":null,"pitch":63,"articulation":"standard","articulation_tags":["standard","long"],"duration":0.3194444444444444,"velocity":57.208227279589494},
{"position":437.7395833333333,"instrument":"TheGrandeurPiano","level2":20,"level3":null,"pitch":62,"articulation":"standard","articulation_tags":["standard","long"],"duration":0.13194444444444445,"velocity":57.208227279589494},
{"position":437.9375,"instrument":"TheGrandeurPiano","level2":20,"level3":null,"pitch":62,"articulation":"standard","articulation_tags":["standard","long"],"duration":0.13194444444444445,"velocity":56.51417546877728},
{"position":438.0833333333333,"instrument":"TheGrandeurPiano","level2":20,"level3":null,"pitch":62,"articulation":"standard","articulation_tags":["standard","long"],"duration":0.2847222222222222,"velocity":55.965349172034685},
{"position":438.1354166666667,"instrument":"TheGrandeurPiano","level2":20,"level3":null,"pitch":61,"articulation":"standard","articulation_tags":["standard","long"],"duration":0.13194444444444445,"velocity":55.965349172034685},
{"position":438.3333333333333,"instrument":"TheGrandeurPiano","level2":20,"level3":null,"pitch":61,"articulation":"standard","articulation_tags":["standard","long"],"duration":0.13194444444444445,"velocity":55.568287720010495},
{"position":438.5104166666667,"instrument":"TheGrandeurPiano","level2":20,"level3":null,"pitch":61,"articulation":"standard","articulation_tags":["standard","long"],"duration":0.2569444444444444,"velocity":55.32796778229254},
{"position":438.53125,"instrument":"TheGrandeurPiano","level2":20,"level3":null,"pitch":60,"articulation":"standard","articulation_tags":["standard","long"],"duration":0.1388888888888889,"velocity":55.32796778229254},
{"position":438.7395833333333,"instrument":"TheGrandeurPiano","level2":20,"level3":null,"pitch":60,"articulation":"standard","articulation_tags":["standard","long"],"duration":0.1388888888888889,"velocity":57.6640075394822},
{"position":438.8958333333333,"instrument":"TheGrandeurPiano","level2":20,"level3":null,"pitch":60,"articulation":"standard","articulation_tags":["standard","long"],"duration":0.24305555555555555,"velocity":57.6640075394822},
{"position":438.9479166666667,"instrument":"TheGrandeurPiano","level2":20,"level3":null,"pitch":59,"articulation":"standard","articulation_tags":["standard","long"],"duration":0.1388888888888889,"velocity":57.739449577149806},
{"position":439.15625,"instrument":"TheGrandeurPiano","level2":20,"level3":null,"pitch":59,"articulation":"standard","articulation_tags":["standard","long"],"duration":0.14583333333333334,"velocity":55.32796778229254},
{"position":439.2604166666667,"instrument":"TheGrandeurPiano","level2":20,"level3":null,"pitch":59,"articulation":"standard","articulation_tags":["standard","long"],"duration":0.22916666666666666,"velocity":55.568287720010495},
{"position":439.375,"instrument":"TheGrandeurPiano","level2":20,"level3":null,"pitch":58,"articulation":"standard","articulation_tags":["standard","long"],"duration":0.14583333333333334,"velocity":55.568287720010495},
{"position":439.59375,"instrument":"TheGrandeurPiano","level2":20,"level3":null,"pitch":58,"articulation":"standard","articulation_tags":["standard","long"],"duration":0.1527777777777778,"velocity":55.965349172034685},
{"position":439.6041666666667,"instrument":"TheGrandeurPiano","level2":20,"level3":null,"pitch":58,"articulation":"standard","articulation_tags":["standard","long"],"duration":0.2152777777777778,"velocity":55.965349172034685},
{"position":439.8229166666667,"instrument":"TheGrandeurPiano","level2":20,"level3":null,"pitch":57,"articulation":"standard","articulation_tags":["standard","long"],"duration":0.1527777777777778,"velocity":56.51417546877728},
{"position":439.9270833333333,"instrument":"TheGrandeurPiano","level2":20,"level3":null,"pitch":57,"articulation":"standard","articulation_tags":["standard","long"],"duration":0.20833333333333334,"velocity":57.208227279589494},
{"position":440.0520833333333,"instrument":"TheGrandeurPiano","level2":20,"level3":null,"pitch":57,"articulation":"standard","articulation_tags":["standard","long"],"duration":0.1597222222222222,"velocity":57.208227279589494},
{"position":440.2395833333333,"instrument":"TheGrandeurPiano","level2":20,"level3":null,"pitch":57,"articulation":"standard","articulation_tags":["standard","long"],"duration":0.19444444444444445,"velocity":55.80703859801349},
{"position":440.28125,"instrument":"TheGrandeurPiano","level2":20,"level3":null,"pitch":56,"articulation":"standard","articulation_tags":["standard","long"],"duration":0.1597222222222222,"velocity":55.80703859801349},
{"position":440.5208333333333,"instrument":"TheGrandeurPiano","level2":20,"level3":null,"pitch":56,"articulation":"standard","articulation_tags":["standard","long"],"duration":0.16666666666666666,"velocity":56.824215249120385},
{"position":440.53125,"instrument":"TheGrandeurPiano","level2":20,"level3":null,"pitch":56,"articulation":"standard","articulation_tags":["standard","long"],"duration":0.1875,"velocity":56.824215249120385},
{"position":440.7708333333333,"instrument":"TheGrandeurPiano","level2":20,"level3":null,"pitch":55,"articulation":"standard","articulation_tags":["standard","long"],"duration":0.1736111111111111,"velocity":55.88627881588288},
{"position":440.8229166666667,"instrument":"TheGrandeurPiano","level2":20,"level3":null,"pitch":55,"articulation":"standard","articulation_tags":["standard","long"],"duration":0.1875,"velocity":55.88627881588288},
{"position":441.03125,"instrument":"TheGrandeurPiano","level2":20,"level3":null,"pitch":55,"articulation":"standard","articulation_tags":["standard","long"],"duration":0.1736111111111111,"velocity":57.208227279589494},
{"position":441.09375,"instrument":"TheGrandeurPiano","level2":20,"level3":null,"pitch":55,"articulation":"standard","articulation_tags":["standard","long"],"duration":0.18055555555555555,"velocity":57.208227279589494},
{"position":441.2916666666667,"instrument":"TheGrandeurPiano","level2":20,"level3":null,"pitch":54,"articulation":"standard","articulation_tags":["standard","long"],"duration":0.18055555555555555,"velocity":56.74694404431166},
{"position":441.3645833333333,"instrument":"TheGrandeurPiano","level2":20,"level3":null,"pitch":54,"articulation":"standard","articulation_tags":["standard","long"],"duration":0.1736111111111111,"velocity":56.74694404431166},
{"position":441.5729166666667,"instrument":"TheGrandeurPiano","level2":20,"level3":null,"pitch":54,"articulation":"standard","articulation_tags":["standard","long"],"duration":0.1875,"velocity":56.59192513864654},
{"position":441.625,"instrument":"TheGrandeurPiano","level2":20,"level3":null,"pitch":54,"articulation":"standard","articulation_tags":["standard","long"],"duration":0.16666666666666666,"velocity":56.59192513864654},
{"position":441.8541666666667,"instrument":"TheGrandeurPiano","level2":20,"level3":null,"pitch":53,"articulation":"standard","articulation_tags":["standard","long"],"duration":0.2013888888888889,"velocity":58.33777764134233},
{"position":441.875,"instrument":"TheGrandeurPiano","level2":20,"level3":null,"pitch":53,"articulation":"standard","articulation_tags":["standard","long"],"duration":0.16666666666666666,"velocity":58.33777764134233},
{"position":442.125,"instrument":"TheGrandeurPiano","level2":20,"level3":null,"pitch":53,"articulation":"standard","articulation_tags":["standard","long"],"duration":0.1597222222222222,"velocity":58.633554570203174},
{"position":442.15625,"instrument":"TheGrandeurPiano","level2":20,"level3":null,"pitch":53,"articulation":"standard","articulation_tags":["standard","long"],"duration":0.20833333333333334,"velocity":58.633554570203174},
{"position":442.3645833333333,"instrument":"TheGrandeurPiano","level2":20,"level3":null,"pitch":53,"articulation":"standard","articulation_tags":["standard","long"],"duration":0.1597222222222222,"velocity":57.208227279589494},
{"position":442.46875,"instrument":"TheGrandeurPiano","level2":20,"level3":null,"pitch":52,"articulation":"standard","articulation_tags":["standard","long"],"duration":0.2222222222222222,"velocity":59.218583317770324},
{"position":442.6041666666667,"instrument":"TheGrandeurPiano","level2":20,"level3":null,"pitch":52,"articulation":"standard","articulation_tags":["standard","long"],"duration":0.1527777777777778,"velocity":57.96489929568298},
{"position":442.8020833333333,"instrument":"TheGrandeurPiano","level2":20,"level3":null,"pitch":52,"articulation":"standard","articulation_tags":["standard","long"],"duration":0.24305555555555555,"velocity":59.00020025582682},
{"position":442.84375,"instrument":"TheGrandeurPiano","level2":20,"level3":null,"pitch":52,"articulation":"standard","articulation_tags":["standard","long"],"duration":0.1527777777777778,"velocity":59.00020025582682},
{"position":443.0729166666667,"instrument":"TheGrandeurPiano","level2":20,"level3":null,"pitch":52,"articulation":"standard","articulation_tags":["standard","long"],"duration":0.1527777777777778,"velocity":58.03975988207551},
{"position":443.1666666666667,"instrument":"TheGrandeurPiano","level2":20,"level3":null,"pitch":51,"articulation":"standard","articulation_tags":["standard","long"],"duration":0.2638888888888889,"velocity":58.03975988207551},
{"position":443.2916666666667,"instrument":"TheGrandeurPiano","level2":20,"level3":null,"pitch":51,"articulation":"standard","articulation_tags":["standard","long"],"duration":0.14583333333333334,"velocity":58.03975988207551},
{"position":443.5208333333333,"instrument":"TheGrandeurPiano","level2":20,"level3":null,"pitch":51,"articulation":"standard","articulation_tags":["standard","long"],"duration":0.14583333333333334,"velocity":59.50792937435847},
{"position":443.5520833333333,"instrument":"TheGrandeurPiano","level2":20,"level3":null,"pitch":51,"articulation":"standard","articulation_tags":["standard","long"],"duration":0.2916666666666667,"velocity":58.85394674874068},
{"position":443.7395833333333,"instrument":"TheGrandeurPiano","level2":20,"level3":null,"pitch":51,"articulation":"standard","articulation_tags":["standard","long"],"duration":0.14583333333333334,"velocity":58.85394674874068},
{"position":443.9479166666667,"instrument":"TheGrandeurPiano","level2":20,"level3":null,"pitch":51,"articulation":"standard","articulation_tags":["standard","long"],"duration":0.14583333333333334,"velocity":58.33777764134233},
{"position":443.9895833333333,"instrument":"Viola","level2":20,"level3":8,"pitch":74,"articulation":"tremolo","articulation_tags":["tremolo","tr","multi_note"],"duration":2.8645833333333335,"velocity":58.50291890016915},
{"position":443.9895833333333,"instrument":"TheGrandeurPiano","level2":20,"level3":null,"pitch":50,"articulation":"standard","articulation_tags":["standard","long"],"duration":0.3333333333333333,"velocity":58.33777764134233},
{"position":444.1666666666667,"instrument":"TheGrandeurPiano","level2":20,"level3":null,"pitch":50,"articulation":"standard","articulation_tags":["standard","long"],"duration":0.1388888888888889,"velocity":60.36382521632585},
{"position":444.375,"instrument":"TheGrandeurPiano","level2":20,"level3":null,"pitch":50,"articulation":"standard","articulation_tags":["standard","long"],"duration":0.1388888888888889,"velocity":60.15152017780837},
{"position":444.4895833333333,"instrument":"TheGrandeurPiano","level2":20,"level3":null,"pitch":50,"articulation":"standard","articulation_tags":["standard","long"],"duration":0.4027777777777778,"velocity":60.15152017780837},
{"position":444.5833333333333,"instrument":"TheGrandeurPiano","level2":20,"level3":null,"pitch":50,"articulation":"standard","articulation_tags":["standard","long"],"duration":0.1388888888888889,"velocity":60.08050801069984},
{"position":444.7916666666667,"instrument":"TheGrandeurPiano","level2":20,"level3":null,"pitch":50,"articulation":"standard","articulation_tags":["standard","long"],"duration":0.1388888888888889,"velocity":60.15152017780837},
{"position":445.0,"instrument":"TheGrandeurPiano","level2":20,"level3":null,"pitch":50,"articulation":"standard","articulation_tags":["standard","long"],"duration":0.1388888888888889,"velocity":60.36382521632585},
{"position":445.09375,"instrument":"TheGrandeurPiano","level2":20,"level3":null,"pitch":49,"articulation":"standard","articulation_tags":["standard","long"],"duration":0.5833333333333334,"velocity":60.36382521632585},
{"position":445.1979166666667,"instrument":"TheGrandeurPiano","level2":20,"level3":null,"pitch":49,"articulation":"standard","articulation_tags":["standard","long"],"duration":0.13194444444444445,"velocity":60.36382521632585},
{"position":445.40625,"instrument":"TheGrandeurPiano","level2":20,"level3":null,"pitch":49,"articulation":"standard","articulation_tags":["standard","long"],"duration":0.13194444444444445,"velocity":60.71526590067154},
{"position":445.6041666666667,"instrument":"TheGrandeurPiano","level2":20,"level3":null,"pitch":49,"articulation":"standard","articulation_tags":["standard","long"],"duration":0.13194444444444445,"velocity":58.85394674874068},
{"position":445.8020833333333,"instrument":"TheGrandeurPiano","level2":20,"level3":null,"pitch":49,"articulation":"standard","articulation_tags":["standard","long"],"duration":0.13194444444444445,"velocity":59.50792937435847},
{"position":445.96875,"instrument":"TheGrandeurPiano","level2":20,"level3":null,"pitch":49,"articulation":"standard","articulation_tags":["standard","long"],"duration":1.5902777777777777,"velocity":59.50792937435847},
{"position":446.0,"instrument":"TheGrandeurPiano","level2":20,"level3":null,"pitch":49,"articulation":"standard","articulation_tags":["standard","long"],"duration":0.13194444444444445,"velocity":60.29317815329015},
{"position":446.1979166666667,"instrument":"TheGrandeurPiano","level2":20,"level3":null,"pitch":49,"articulation":"standard","articulation_tags":["standard","long"],"duration":0.13194444444444445,"velocity":60.29317815329015},
{"position":446.3958333333333,"instrument":"TheGrandeurPiano","level2":20,"level3":null,"pitch":49,"articulation":"standard","articulation_tags":["standard","long"],"duration":0.13194444444444445,"velocity":59.00020025582682},
{"position":446.59375,"instrument":"TheGrandeurPiano","level2":20,"level3":null,"pitch":49,"articulation":"standard","articulation_tags":["standard","long"],"duration":0.13194444444444445,"velocity":60.08050801069984},
{"position":446.7916666666667,"instrument":"TheGrandeurPiano","level2":20,"level3":null,"pitch":49,"articulation":"standard","articulation_tags":["standard","long"],"duration":0.13194444444444445,"velocity":61.271494004623136},
{"position":446.9895833333333,"instrument":"TheGrandeurPiano","level2":20,"level3":null,"pitch":49,"articulation":"standard","articulation_tags":["standard","long"],"duration":0.13194444444444445,"velocity":59.218583317770324},
{"position":447.1770833333333,"instrument":"TheGrandeurPiano","level2":20,"level3":null,"pitch":49,"articulation":"standard","articulation_tags":["standard","long"],"duration":0.13194444444444445,"velocity":60.57504612275179},
{"position":447.375,"instrument":"TheGrandeurPiano","level2":20,"level3":null,"pitch":49,"articulation":"standard","articulation_tags":["standard","long"],"duration":0.13194444444444445,"velocity":60.15152017780837},
{"position":447.5729166666667,"instrument":"TheGrandeurPiano","level2":20,"level3":null,"pitch":49,"articulation":"standard","articulation_tags":["standard","long"],"duration":0.13194444444444445,"velocity":60.15152017780837},
{"position":447.7604166666667,"instrument":"TheGrandeurPiano","level2":20,"level3":null,"pitch":49,"articulation":"standard","articulation_tags":["standard","long"],"duration":0.13194444444444445,"velocity":60.0093728785235},
{"position":447.9583333333333,"instrument":"TheGrandeurPiano","level2":20,"level3":null,"pitch":49,"articulation":"standard","articulation_tags":["standard","long"],"duration":0.13194444444444445,"velocity":60.0093728785235},
{"position":448.15625,"instrument":"TheGrandeurPiano","level2":20,"level3":null,"pitch":49,"articulation":"standard","articulation_tags":["standard","long"],"duration":0.13194444444444445,"velocity":60.15152017780837},
{"position":448.34375,"instrument":"TheGrandeurPiano","level2":20,"level3":null,"pitch":49,"articulation":"standard","articulation_tags":["standard","long"],"duration":0.13194444444444445,"velocity":60.15152017780837},
{"position":448.3645833333333,"instrument":"TheGrandeurPiano","level2":20,"level3":null,"pitch":49,"articulation":"standard","articulation_tags":["standard","long"],"duration":0.5694444444444444,"velocity":60.15152017780837},
{"position":448.5416666666667,"instrument":"TheGrandeurPiano","level2":20,"level3":null,"pitch":49,"articulation":"standard","articulation_tags":["standard","long"],"duration":0.13194444444444445,"velocity":60.57504612275179},
{"position":448.7395833333333,"instrument":"TheGrandeurPiano","level2":20,"level3":null,"pitch":49,"articulation":"standard","articulation_tags":["standard","long"],"duration":0.13194444444444445,"velocity":59.218583317770324},
{"position":448.9375,"instrument":"TheGrandeurPiano","level2":20,"level3":null,"pitch":49,"articulation":"standard","articulation_tags":["standard","long"],"duration":0.13194444444444445,"velocity":61.271494004623136},
{"position":449.1354166666667,"instrument":"TheGrandeurPiano","level2":20,"level3":null,"pitch":49,"articulation":"standard","articulation_tags":["standard","long"],"duration":0.13194444444444445,"velocity":60.08050801069984},
{"position":449.2083333333333,"instrument":"TheGrandeurPiano","level2":20,"level3":null,"pitch":50,"articulation":"standard","articulation_tags":["standard","long"],"duration":0.3958333333333333,"velocity":60.08050801069984},
{"position":449.3333333333333,"instrument":"TheGrandeurPiano","level2":20,"level3":null,"pitch":50,"articulation":"standard","articulation_tags":["standard","long"],"duration":0.13194444444444445,"velocity":59.00020025582682},
{"position":449.53125,"instrument":"TheGrandeurPiano","level2":20,"level3":null,"pitch":50,"articulation":"standard","articulation_tags":["standard","long"],"duration":0.13194444444444445,"velocity":58.03975988207551},
{"position":449.7291666666667,"instrument":"TheGrandeurPiano","level2":20,"level3":null,"pitch":50,"articulation":"standard","articulation_tags":["standard","long"],"duration":0.13194444444444445,"velocity":60.29317815329015},
{"position":449.8020833333333,"instrument":"TheGrandeurPiano","level2":20,"level3":null,"pitch":50,"articulation":"standard","articulation_tags":["standard","long"],"duration":0.3194444444444444,"velocity":59.50792937435847},
{"position":449.9270833333333,"instrument":"TheGrandeurPiano","level2":20,"level3":null,"pitch":50,"articulation":"standard","articulation_tags":["standard","long"],"duration":0.13194444444444445,"velocity":59.50792937435847},
{"position":450.1354166666667,"instrument":"TheGrandeurPiano","level2":20,"level3":null,"pitch":50,"articulation":"standard","articulation_tags":["standard","long"],"duration":0.1388888888888889,"velocity":58.85394674874068},
{"position":450.28125,"instrument":"TheGrandeurPiano","level2":20,"level3":null,"pitch":51,"articulation":"standard","articulation_tags":["standard","long"],"duration":0.2777777777777778,"velocity":58.85394674874068},
{"position":450.34375,"instrument":"TheGrandeurPiano","level2":20,"level3":null,"pitch":51,"articulation":"standard","articulation_tags":["standard","long"],"duration":0.1388888888888889,"velocity":58.33777764134233},
{"position":450.5416666666667,"instrument":"TheGrandeurPiano","level2":20,"level3":null,"pitch":51,"articulation":"standard","articulation_tags":["standard","long"],"duration":0.1388888888888889,"velocity":58.33777764134233},
{"position":450.6979166666667,"instrument":"TheGrandeurPiano","level2":20,"level3":null,"pitch":51,"articulation":"standard","articulation_tags":["standard","long"],"duration":0.25,"velocity":57.96489929568298},
{"position":450.75,"instrument":"TheGrandeurPiano","level2":20,"level3":null,"pitch":51,"articulation":"standard","articulation_tags":["standard","long"],"duration":0.1388888888888889,"velocity":57.96489929568298},
{"position":450.96875,"instrument":"TheGrandeurPiano","level2":20,"level3":null,"pitch":51,"articulation":"standard","articulation_tags":["standard","long"],"duration":0.14583333333333334,"velocity":57.739449577149806},
{"position":451.0729166666667,"instrument":"TheGrandeurPiano","level2":20,"level3":null,"pitch":52,"articulation":"standard","articulation_tags":["standard","long"],"duration":0.22916666666666666,"velocity":57.739449577149806},
{"position":451.1770833333333,"instrument":"TheGrandeurPiano","level2":20,"level3":null,"pitch":52,"articulation":"standard","articulation_tags":["standard","long"],"duration":0.14583333333333334,"velocity":57.6640075394822},
{"position":451.3958333333333,"instrument":"TheGrandeurPiano","level2":20,"level3":null,"pitch":52,"articulation":"standard","articulation_tags":["standard","long"],"duration":0.14583333333333334,"velocity":57.739449577149806},
{"position":451.4166666666667,"instrument":"TheGrandeurPiano","level2":20,"level3":null,"pitch":52,"articulation":"standard","articulation_tags":["standard","long"],"duration":0.20833333333333334,"velocity":57.739449577149806},
{"position":451.6145833333333,"instrument":"TheGrandeurPiano","level2":20,"level3":null,"pitch":52,"articulation":"standard","articulation_tags":["standard","long"],"duration":0.14583333333333334,"velocity":57.96489929568298},
{"position":451.7291666666667,"instrument":"TheGrandeurPiano","level2":20,"level3":null,"pitch":53,"articulation":"standard","articulation_tags":["standard","long"],"duration":0.19444444444444445,"velocity":57.96489929568298},
{"position":451.84375,"instrument":"TheGrandeurPiano","level2":20,"level3":null,"pitch":53,"articulation":"standard","articulation_tags":["standard","long"],"duration":0.1527777777777778,"velocity":57.96489929568298},
{"position":452.0208333333333,"instrument":"TheGrandeurPiano","level2":20,"level3":null,"pitch":53,"articulation":"standard","articulation_tags":["standard","long"],"duration":0.1875,"velocity":58.33777764134233},
{"position":452.0625,"instrument":"TheGrandeurPiano","level2":20,"level3":null,"pitch":53,"articulation":"standard","articulation_tags":["standard","long"],"duration":0.1527777777777778,"velocity":58.33777764134233},
{"position":452.3020833333333,"instrument":"TheGrandeurPiano","level2":20,"level3":null,"pitch":53,"articulation":"standard","articulation_tags":["standard","long"],"duration":0.1597222222222222,"velocity":56.51417546877728},
{"position":452.3020833333333,"instrument":"TheGrandeurPiano","level2":20,"level3":null,"pitch":54,"articulation":"standard","articulation_tags":["standard","long"],"duration":0.18055555555555555,"velocity":56.51417546877728},
{"position":452.53125,"instrument":"TheGrandeurPiano","level2":20,"level3":null,"pitch":54,"articulation":"standard","articulation_tags":["standard","long"],"duration":0.1597222222222222,"velocity":57.208227279589494},
{"position":452.5729166666667,"instrument":"TheGrandeurPiano","level2":20,"level3":null,"pitch":54,"articulation":"standard","articulation_tags":["standard","long"],"duration":0.1736111111111111,"velocity":57.208227279589494},
{"position":452.7708333333333,"instrument":"TheGrandeurPiano","level2":20,"level3":null,"pitch":54,"articulation":"standard","articulation_tags":["standard","long"],"duration":0.16666666666666666,"velocity":55.80703859801349},
{"position":452.8333333333333,"instrument":"TheGrandeurPiano","level2":20,"level3":null,"pitch":55,"articulation":"standard","articulation_tags":["standard","long"],"duration":0.16666666666666666,"velocity":55.80703859801349},
{"position":453.0208333333333,"instrument":"TheGrandeurPiano","level2":20,"level3":null,"pitch":55,"articulation":"standard","articulation_tags":["standard","long"],"duration":0.1736111111111111,"velocity":55.80703859801349},
{"position":453.0729166666667,"instrument":"TheGrandeurPiano","level2":20,"level3":null,"pitch":55,"articulation":"standard","articulation_tags":["standard","long"],"duration":0.1597222222222222,"velocity":56.824215249120385},
{"position":453.1770833333333,"instrument":"Viola","level2":20,"level3":7,"pitch":74,"articulation":"long_flt","articulation_tags":["long_flt","flt","long","flautando"],"duration":31.1875,"velocity":63.51977361410261},
{"position":453.28125,"instrument":"TheGrandeurPiano","level2":20,"level3":null,"pitch":55,"articulation":"standard","articulation_tags":["standard","long"],"duration":0.1736111111111111,"velocity":54.67920188249906},
{"position":453.3125,"instrument":"TheGrandeurPiano","level2":20,"level3":null,"pitch":56,"articulation":"standard","articulation_tags":["standard","long"],"duration":0.1527777777777778,"velocity":54.67920188249906},
{"position":453.5416666666667,"instrument":"TheGrandeurPiano","level2":20,"level3":null,"pitch":56,"articulation":"standard","articulation_tags":["standard","long"],"duration":0.14583333333333334,"velocity":55.88627881588288},
{"position":453.5416666666667,"instrument":"TheGrandeurPiano","level2":20,"level3":null,"pitch":56,"articulation":"standard","articulation_tags":["standard","long"],"duration":0.18055555555555555,"velocity":55.88627881588288},
{"position":453.7604166666667,"instrument":"TheGrandeurPiano","level2":20,"level3":null,"pitch":57,"articulation":"standard","articulation_tags":["standard","long"],"duration":0.14583333333333334,"velocity":55.24750706826456},
{"position":453.8125,"instrument":"TheGrandeurPiano","level2":20,"level3":null,"pitch":57,"articulation":"standard","articulation_tags":["standard","long"],"duration":0.1875,"velocity":55.24750706826456},
{"position":453.9791666666667,"instrument":"TheGrandeurPiano","level2":20,"level3":null,"pitch":57,"articulation":"standard","articulation_tags":["standard","long"],"duration":0.1388888888888889,"velocity":55.24750706826456},
{"position":454.09375,"instrument":"TheGrandeurPiano","level2":20,"level3":null,"pitch":57,"articulation":"standard","articulation_tags":["standard","long"],"duration":0.19444444444444445,"velocity":53.34492472744412},
{"position":454.1979166666667,"instrument":"TheGrandeurPiano","level2":20,"level3":null,"pitch":58,"articulation":"standard","articulation_tags":["standard","long"],"duration":0.1388888888888889,"velocity":54.92386213304897},
{"position":454.3958333333333,"instrument":"TheGrandeurPiano","level2":20,"level3":null,"pitch":58,"articulation":"standard","articulation_tags":["standard","long"],"duration":0.20833333333333334,"velocity":53.17447739876959},
{"position":454.3958333333333,"instrument":"TheGrandeurPiano","level2":20,"level3":null,"pitch":58,"articulation":"standard","articulation_tags":["standard","long"],"duration":0.13194444444444445,"velocity":53.17447739876959},
{"position":454.6041666666667,"instrument":"TheGrandeurPiano","level2":20,"level3":null,"pitch":59,"articulation":"standard","articulation_tags":["standard","long"],"duration":0.13194444444444445,"velocity":54.92386213304897},
{"position":454.7083333333333,"instrument":"TheGrandeurPiano","level2":20,"level3":null,"pitch":59,"articulation":"standard","articulation_tags":["standard","long"],"duration":0.2222222222222222,"velocity":53.34492472744412},
{"position":454.8020833333333,"instrument":"TheGrandeurPiano","level2":20,"level3":null,"pitch":59,"articulation":"standard","articulation_tags":["standard","long"],"duration":0.13194444444444445,"velocity":53.34492472744412},
{"position":454.9895833333333,"instrument":"TheGrandeurPiano","level2":20,"level3":null,"pitch":60,"articulation":"standard","articulation_tags":["standard","long"],"duration":0.125,"velocity":53.34492472744412},
{"position":455.0416666666667,"instrument":"TheGrandeurPiano","level2":20,"level3":null,"pitch":60,"articulation":"standard","articulation_tags":["standard","long"],"duration":0.2361111111111111,"velocity":51.867959893612},
{"position":455.1875,"instrument":"TheGrandeurPiano","level2":20,"level3":null,"pitch":60,"articulation":"standard","articulation_tags":["standard","long"],"duration":0.125,"velocity":53.85126542463234},
{"position":455.375,"instrument":"TheGrandeurPiano","level2":20,"level3":null,"pitch":61,"articulation":"standard","articulation_tags":["standard","long"],"duration":0.125,"velocity":52.57109744687009},
{"position":455.3958333333333,"instrument":"TheGrandeurPiano","level2":20,"level3":null,"pitch":61,"articulation":"standard","articulation_tags":["standard","long"],"duration":0.2569444444444444,"velocity":52.57109744687009},
{"position":455.5520833333333,"instrument":"TheGrandeurPiano","level2":20,"level3":null,"pitch":61,"articulation":"standard","articulation_tags":["standard","long"],"duration":0.11805555555555555,"velocity":52.57109744687009},
{"position":455.7395833333333,"instrument":"TheGrandeurPiano","level2":20,"level3":null,"pitch":62,"articulation":"standard","articulation_tags":["standard","long"],"duration":0.11805555555555555,"velocity":51.420755927817474},
{"position":455.78125,"instrument":"TheGrandeurPiano","level2":20,"level3":null,"pitch":62,"articulation":"standard","articulation_tags":["standard","long"],"duration":0.2847222222222222,"velocity":51.420755927817474},
{"position":455.9166666666667,"instrument":"TheGrandeurPiano","level2":20,"level3":null,"pitch":62,"articulation":"standard","articulation_tags":["standard","long"],"duration":0.11805555555555555,"velocity":50.41450612582929},
{"position":456.09375,"instrument":"TheGrandeurPiano","level2":20,"level3":null,"pitch":63,"articulation":"standard","articulation_tags":["standard","long"],"duration":0.11805555555555555,"velocity":52.657956835117645},
{"position":456.2083333333333,"instrument":"TheGrandeurPiano","level2":20,"level3":null,"pitch":63,"articulation":"standard","articulation_tags":["standard","long"],"duration":0.3333333333333333,"velocity":51.867959893612},
{"position":456.2708333333333,"instrument":"TheGrandeurPiano","level2":20,"level3":null,"pitch":63,"articulation":"standard","articulation_tags":["standard","long"],"duration":0.11805555555555555,"velocity":51.867959893612},
{"position":456.4479166666667,"instrument":"TheGrandeurPiano","level2":20,"level3":null,"pitch":64,"articulation":"standard","articulation_tags":["standard","long"],"duration":0.1111111111111111,"velocity":51.24013749778871},
{"position":456.6145833333333,"instrument":"TheGrandeurPiano","level2":20,"level3":null,"pitch":64,"articulation":"standard","articulation_tags":["standard","long"],"duration":0.1111111111111111,"velocity":51.24013749778871},
{"position":456.7083333333333,"instrument":"TheGrandeurPiano","level2":20,"level3":null,"pitch":64,"articulation":"standard","articulation_tags":["standard","long"],"duration":0.4097222222222222,"velocity":51.24013749778871},
{"position":456.7916666666667,"instrument":"TheGrandeurPiano","level2":20,"level3":null,"pitch":65,"articulation":"standard","articulation_tags":["standard","long"],"duration":0.1111111111111111,"velocity":50.784101265244956},
{"position":456.9583333333333,"instrument":"TheGrandeurPiano","level2":20,"level3":null,"pitch":65,"articulation":"standard","articulation_tags":["standard","long"],"duration":0.1111111111111111,"velocity":50.784101265244956},
{"position":457.125,"instrument":"TheGrandeurPiano","level2":20,"level3":null,"pitch":66,"articulation":"standard","articulation_tags":["standard","long"],"duration":0.1111111111111111,"velocity":50.50731136827071},
{"position":457.2916666666667,"instrument":"TheGrandeurPiano","level2":20,"level3":null,"pitch":66,"articulation":"standard","articulation_tags":["standard","long"],"duration":0.1111111111111111,"velocity":50.41450612582929},
{"position":457.3229166666667,"instrument":"TheGrandeurPiano","level2":20,"level3":null,"pitch":66,"articulation":"standard","articulation_tags":["standard","long"],"duration":0.6388888888888888,"velocity":50.41450612582929},
{"position":457.4583333333333,"instrument":"TheGrandeurPiano","level2":20,"level3":null,"pitch":67,"articulation":"standard","articulation_tags":["standard","long"],"duration":0.1111111111111111,"velocity":50.41450612582929},
{"position":457.6145833333333,"instrument":"TheGrandeurPiano","level2":20,"level3":null,"pitch":67,"articulation":"standard","articulation_tags":["standard","long"],"duration":0.1111111111111111,"velocity":50.50731136827071},
{"position":457.78125,"instrument":"TheGrandeurPiano","level2":20,"level3":null,"pitch":68,"articulation":"standard","articulation_tags":["standard","long"],"duration":0.1111111111111111,"velocity":48.03842023878756},
{"position":457.9479166666667,"instrument":"TheGrandeurPiano","level2":20,"level3":null,"pitch":68,"articulation":"standard","articulation_tags":["standard","long"],"duration":0.1111111111111111,"velocity":48.35786351097736},
{"position":458.1041666666667,"instrument":"TheGrandeurPiano","level2":20,"level3":null,"pitch":69,"articulation":"standard","articulation_tags":["standard","long"],"duration":0.10416666666666667,"velocity":48.35786351097736},
{"position":458.2708333333333,"instrument":"TheGrandeurPiano","level2":20,"level3":null,"pitch":69,"articulation":"standard","articulation_tags":["standard","long"],"duration":0.10416666666666667,"velocity":48.883157398992545},
{"position":458.28125,"instrument":"TheGrandeurPiano","level2":20,"level3":null,"pitch":69,"articulation":"standard","articulation_tags":["standard","long"],"duration":1.1944444444444444,"velocity":48.883157398992545},
{"position":458.4270833333333,"instrument":"TheGrandeurPiano","level2":20,"level3":null,"pitch":70,"articulation":"standard","articulation_tags":["standard","long"],"duration":0.10416666666666667,"velocity":48.883157398992545},
{"position":458.5833333333333,"instrument":"TheGrandeurPiano","level2":20,"level3":null,"pitch":70,"articulation":"standard","articulation_tags":["standard","long"],"duration":0.10416666666666667,"velocity":47.17004037302935},
{"position":458.75,"instrument":"TheGrandeurPiano","level2":20,"level3":null,"pitch":71,"articulation":"standard","articulation_tags":["standard","long"],"duration":0.10416666666666667,"velocity":47.17004037302935},
{"position":458.90625,"instrument":"TheGrandeurPiano","level2":20,"level3":null,"pitch":71,"articulation":"standard","articulation_tags":["standard","long"],"duration":0.10416666666666667,"velocity":48.14526537486471},
{"position":459.0625,"instrument":"TheGrandeurPiano","level2":20,"level3":null,"pitch":72,"articulation":"standard","articulation_tags":["standard","long"],"duration":0.10416666666666667,"velocity":48.14526537486471},
{"position":459.2291666666667,"instrument":"TheGrandeurPiano","level2":20,"level3":null,"pitch":72,"articulation":"standard","articulation_tags":["standard","long"],"duration":0.10416666666666667,"velocity":47.05972906995423},
{"position":459.3854166666667,"instrument":"TheGrandeurPiano","level2":20,"level3":null,"pitch":73,"articulation":"standard","articulation_tags":["standard","long"],"duration":0.10416666666666667,"velocity":47.05972906995423},
{"position":459.5416666666667,"instrument":"TheGrandeurPiano","level2":20,"level3":null,"pitch":73,"articulation":"standard","articulation_tags":["standard","long"],"duration":0.10416666666666667,"velocity":48.46362389052244},
{"position":459.6979166666667,"instrument":"TheGrandeurPiano","level2":20,"level3":null,"pitch":74,"articulation":"standard","articulation_tags":["standard","long"],"duration":0.10416666666666667,"velocity":46.3891674882436},
{"position":459.8645833333333,"instrument":"TheGrandeurPiano","level2":20,"level3":null,"pitch":74,"articulation":"standard","articulation_tags":["standard","long"],"duration":0.10416666666666667,"velocity":46.3891674882436},
{"position":460.0208333333333,"instrument":"TheGrandeurPiano","level2":20,"level3":null,"pitch":75,"articulation":"standard","articulation_tags":["standard","long"],"duration":0.10416666666666667,"velocity":46.16222071361672},
{"position":460.0729166666667,"instrument":"TheGrandeurPiano","level2":20,"level3":null,"pitch":75,"articulation":"standard","articulation_tags":["standard","long"],"duration":0.6319444444444444,"velocity":46.16222071361672},
{"position":460.1875,"instrument":"TheGrandeurPiano","level2":20,"level3":null,"pitch":75,"articulation":"standard","articulation_tags":["standard","long"],"duration":0.10416666666666667,"velocity":46.16222071361672},
{"position":460.34375,"instrument":"TheGrandeurPiano","level2":20,"level3":null,"pitch":76,"articulation":"standard","articulation_tags":["standard","long"],"duration":0.1111111111111111,"velocity":48.03842023878756},
{"position":460.5104166666667,"instrument":"TheGrandeurPiano","level2":20,"level3":null,"pitch":76,"articulation":"standard","articulation_tags":["standard","long"],"duration":0.1111111111111111,"velocity":46.3891674882436},
{"position":460.6666666666667,"instrument":"TheGrandeurPiano","level2":20,"level3":null,"pitch":77,"articulation":"standard","articulation_tags":["standard","long"],"duration":0.1111111111111111,"velocity":46.3891674882436},
{"position":460.8333333333333,"instrument":"TheGrandeurPiano","level2":20,"level3":null,"pitch":77,"articulation":"standard","articulation_tags":["standard","long"],"duration":0.1111111111111111,"velocity":44.881012339705876},
{"position":461.0,"instrument":"TheGrandeurPiano","level2":20,"level3":null,"pitch":78,"articulation":"standard","articulation_tags":["standard","long"],"duration":0.1111111111111111,"velocity":47.05972906995423},
{"position":461.0208333333333,"instrument":"TheGrandeurPiano","level2":20,"level3":null,"pitch":78,"articulation":"standard","articulation_tags":["standard","long"],"duration":0.4097222222222222,"velocity":47.05972906995423},
{"position":461.15625,"instrument":"TheGrandeurPiano","level2":20,"level3":null,"pitch":78,"articulation":"standard","articulation_tags":["standard","long"],"duration":0.1111111111111111,"velocity":45.818449713615536},
{"position":461.1979166666667,"instrument":"Trumpet","level2":20,"level3":9,"pitch":74,"articulation":"cuivre","articulation_tags":["cuivre","long"],"duration":6.510416666666667,"velocity":54.85592780562534},
{"position":461.3229166666667,"instrument":"TheGrandeurPiano","level2":20,"level3":null,"pitch":79,"articulation":"standard","articulation_tags":["standard","long"],"duration":0.1111111111111111,"velocity":45.818449713615536},
{"position":461.4895833333333,"instrument":"TheGrandeurPiano","level2":20,"level3":null,"pitch":79,"articulation":"standard","articulation_tags":["standard","long"],"duration":0.1111111111111111,"velocity":44.76160702725369},
{"position":461.6354166666667,"instrument":"TheGrandeurPiano","level2":20,"level3":null,"pitch":79,"articulation":"standard","articulation_tags":["standard","long"],"duration":0.3263888888888889,"velocity":44.76160702725369},
{"position":461.6666666666667,"instrument":"TheGrandeurPiano","level2":20,"level3":null,"pitch":80,"articulation":"standard","articulation_tags":["standard","long"],"duration":0.1111111111111111,"velocity":47.17004037302935},
{"position":461.8333333333333,"instrument":"TheGrandeurPiano","level2":20,"level3":null,"pitch":80,"articulation":"standard","articulation_tags":["standard","long"],"duration":0.11805555555555555,"velocity":46.3891674882436},
{"position":462.0104166666667,"instrument":"TheGrandeurPiano","level2":20,"level3":null,"pitch":81,"articulation":"standard","articulation_tags":["standard","long"],"duration":0.11805555555555555,"velocity":45.818449713615536},
{"position":462.125,"instrument":"TheGrandeurPiano","level2":20,"level3":null,"pitch":81,"articulation":"standard","articulation_tags":["standard","long"],"duration":0.2847222222222222,"velocity":45.818449713615536},
{"position":462.1770833333333,"instrument":"TheGrandeurPiano","level2":20,"level3":null,"pitch":81,"articulation":"standard","articulation_tags":["standard","long"],"duration":0.11805555555555555,"velocity":45.818449713615536},
{"position":462.3541666666667,"instrument":"TheGrandeurPiano","level2":20,"level3":null,"pitch":82,"articulation":"standard","articulation_tags":["standard","long"],"duration":0.11805555555555555,"velocity":45.470528109655405},
{"position":462.53125,"instrument":"TheGrandeurPiano","level2":20,"level3":null,"pitch":82,"articulation":"standard","articulation_tags":["standard","long"],"duration":0.11805555555555555,"velocity":45.470528109655405},
{"position":462.5520833333333,"instrument":"TheGrandeurPiano","level2":20,"level3":null,"pitch":82,"articulation":"standard","articulation_tags":["standard","long"],"duration":0.25,"velocity":45.470528109655405},
{"position":462.71875,"instrument":"TheGrandeurPiano","level2":20,"level3":null,"pitch":83,"articulation":"standard","articulation_tags":["standard","long"],"duration":0.125,"velocity":45.35360552895362},
{"position":462.8958333333333,"instrument":"TheGrandeurPiano","level2":20,"level3":null,"pitch":83,"articulation":"standard","articulation_tags":["standard","long"],"duration":0.125,"velocity":45.470528109655405},
{"position":462.9270833333333,"instrument":"TheGrandeurPiano","level2":20,"level3":null,"pitch":83,"articulation":"standard","articulation_tags":["standard","long"],"duration":0.22916666666666666,"velocity":45.470528109655405},
{"position":463.0833333333333,"instrument":"TheGrandeurPiano","level2":20,"level3":null,"pitch":84,"articulation":"standard","articulation_tags":["standard","long"],"duration":0.125,"velocity":45.470528109655405},
{"position":463.2708333333333,"instrument":"TheGrandeurPiano","level2":20,"level3":null,"pitch":84,"articulation":"standard","articulation_tags":["standard","long"],"duration":0.13194444444444445,"velocity":45.818449713615536},
{"position":463.2708333333333,"instrument":"TheGrandeurPiano","level2":20,"level3":null,"pitch":84,"articulation":"standard","articulation_tags":["standard","long"],"duration":0.2152777777777778,"velocity":45.818449713615536},
{"position":463.46875,"instrument":"TheGrandeurPiano","level2":20,"level3":null,"pitch":85,"articulation":"standard","articulation_tags":["standard","long"],"duration":0.13194444444444445,"velocity":45.818449713615536},
{"position":463.6041666666667,"instrument":"TheGrandeurPiano","level2":20,"level3":null,"pitch":85,"articulation":"standard","articulation_tags":["standard","long"],"duration":0.2013888888888889,"velocity":46.3891674882436},
{"position":463.6666666666667,"instrument":"TheGrandeurPiano","level2":20,"level3":null,"pitch":85,"articulation":"standard","articulation_tags":["standard","long"],"duration":0.13194444444444445,"velocity":46.3891674882436},
{"position":463.8645833333333,"instrument":"TheGrandeurPiano","level2":20,"level3":null,"pitch":86,"articulation":"standard","articulation_tags":["standard","long"],"duration":0.1388888888888889,"velocity":47.17004037302935},
{"position":463.90625,"instrument":"TheGrandeurPiano","level2":20,"level3":null,"pitch":86,"articulation":"standard","articulation_tags":["standard","long"],"duration":0.19444444444444445,"velocity":47.17004037302935},
{"position":464.0729166666667,"instrument":"TheGrandeurPiano","level2":20,"level3":null,"pitch":86,"articulation":"standard","articulation_tags":["standard","long"],"duration":0.1388888888888889,"velocity":44.76160702725369},
{"position":464.1979166666667,"instrument":"TheGrandeurPiano","level2":20,"level3":null,"pitch":86,"articulation":"standard","articulation_tags":["standard","long"],"duration":0.1875,"velocity":45.818449713615536},
{"position":464.28125,"instrument":"TheGrandeurPiano","level2":20,"level3":null,"pitch":87,"articulation":"standard","articulation_tags":["standard","long"],"duration":0.14583333333333334,"velocity":45.818449713615536},
{"position":464.46875,"instrument":"TheGrandeurPiano","level2":20,"level3":null,"pitch":87,"articulation":"standard","articulation_tags":["standard","long"],"duration":0.18055555555555555,"velocity":47.05972906995423},
{"position":464.5,"instrument":"TheGrandeurPiano","level2":20,"level3":null,"pitch":87,"articulation":"standard","articulation_tags":["standard","long"],"duration":0.1527777777777778,"velocity":47.05972906995423},
{"position":464.7291666666667,"instrument":"TheGrandeurPiano","level2":20,"level3":null,"pitch":88,"articulation":"standard","articulation_tags":["standard","long"],"duration":0.1527777777777778,"velocity":44.881012339705876},
{"position":464.7395833333333,"instrument":"TheGrandeurPiano","level2":20,"level3":null,"pitch":88,"articulation":"standard","articulation_tags":["standard","long"],"duration":0.1736111111111111,"velocity":44.881012339705876},
{"position":464.9583333333333,"instrument":"TheGrandeurPiano","level2":20,"level3":null,"pitch":88,"articulation":"standard","articulation_tags":["standard","long"],"duration":0.1597222222222222,"velocity":46.3891674882436},
{"position":465.0,"instrument":"TheGrandeurPiano","level2":20,"level3":null,"pitch":88,"articulation":"standard","articulation_tags":["standard","long"],"duration":0.16666666666666666,"velocity":46.3891674882436},
{"position":465.1979166666667,"instrument":"TheGrandeurPiano","level2":20,"level3":null,"pitch":89,"articulation":"standard","articulation_tags":["standard","long"],"duration":0.16666666666666666,"velocity":48.03842023878756},
{"position":465.25,"instrument":"TheGrandeurPiano","level2":20,"level3":null,"pitch":89,"articulation":"standard","articulation_tags":["standard","long"],"duration":0.1597222222222222,"velocity":48.03842023878756},
{"position":465.4479166666667,"instrument":"TheGrandeurPiano","level2":20,"level3":null,"pitch":89,"articulation":"standard","articulation_tags":["standard","long"],"duration":0.1736111111111111,"velocity":46.16222071361672},
{"position":465.4895833333333,"instrument":"TheGrandeurPiano","level2":20,"level3":null,"pitch":89,"articulation":"standard","articulation_tags":["standard","long"],"duration":0.1597222222222222,"velocity":46.16222071361672},
{"position":465.71875,"instrument":"TheGrandeurPiano","level2":20,"level3":null,"pitch":90,"articulation":"standard","articulation_tags":["standard","long"],"duration":0.1875,"velocity":48.03842023878756},
{"position":465.7291666666667,"instrument":"TheGrandeurPiano","level2":20,"level3":null,"pitch":90,"articulation":"standard","articulation_tags":["standard","long"],"duration":0.1527777777777778,"velocity":48.03842023878756},
{"position":465.9583333333333,"instrument":"TheGrandeurPiano","level2":20,"level3":null,"pitch":90,"articulation":"standard","articulation_tags":["standard","long"],"duration":0.1527777777777778,"velocity":46.3891674882436},
{"position":465.9895833333333,"instrument":"TheGrandeurPiano","level2":20,"level3":null,"pitch":90,"articulation":"standard","articulation_tags":["standard","long"],"duration":0.19444444444444445,"velocity":46.3891674882436},
{"position":466.1875,"instrument":"TheGrandeurPiano","level2":20,"level3":null,"pitch":90,"articulation":"standard","articulation_tags":["standard","long"],"duration":0.14583333333333334,"velocity":48.46362389052244},
{"position":466.2916666666667,"instrument":"TheGrandeurPiano","level2":20,"level3":null,"pitch":91,"articulation":"standard","articulation_tags":["standard","long"],"duration":0.20833333333333334,"velocity":47.05972906995423},
{"position":466.40625,"instrument":"TheGrandeurPiano","level2":20,"level3":null,"pitch":91,"articulation":"standard","articulation_tags":["standard","long"],"duration":0.14583333333333334,"velocity":47.05972906995423},
{"position":466.46875,"instrument":"Clarinet","level2":20,"level3":6,"pitch":74,"articulation":"trill_2M","articulation_tags":["trill_2M","long","trill","M2"],"duration":1.2395833333333333,"velocity":45.212779187814895},
{"position":466.6041666666667,"instrument":"TheGrandeurPiano","level2":20,"level3":null,"pitch":91,"articulation":"standard","articulation_tags":["standard","long"],"duration":0.22916666666666666,"velocity":48.14526537486471},
{"position":466.625,"instrument":"TheGrandeurPiano","level2":20,"level3":null,"pitch":91,"articulation":"standard","articulation_tags":["standard","long"],"duration":0.14583333333333334,"velocity":48.14526537486471},
{"position":466.84375,"instrument":"TheGrandeurPiano","level2":20,"level3":null,"pitch":91,"articulation":"standard","articulation_tags":["standard","long"],"duration":0.1388888888888889,"velocity":48.14526537486471},
{"position":466.9479166666667,"instrument":"TheGrandeurPiano","level2":20,"level3":null,"pitch":92,"articulation":"standard","articulation_tags":["standard","long"],"duration":0.25,"velocity":48.14526537486471},
{"position":467.0520833333333,"instrument":"TheGrandeurPiano","level2":20,"level3":null,"pitch":92,"articulation":"standard","articulation_tags":["standard","long"],"duration":0.1388888888888889,"velocity":47.17004037302935},
{"position":467.2708333333333,"instrument":"TheGrandeurPiano","level2":20,"level3":null,"pitch":92,"articulation":"standard","articulation_tags":["standard","long"],"duration":0.1388888888888889,"velocity":49.56658182367159},
{"position":467.3229166666667,"instrument":"TheGrandeurPiano","level2":20,"level3":null,"pitch":92,"articulation":"standard","articulation_tags":["standard","long"],"duration":0.2847222222222222,"velocity":48.883157398992545},
{"position":467.4791666666667,"instrument":"TheGrandeurPiano","level2":20,"level3":null,"pitch":92,"articulation":"standard","articulation_tags":["standard","long"],"duration":0.1388888888888889,"velocity":48.883157398992545},
{"position":467.6770833333333,"instrument":"TheGrandeurPiano","level2":20,"level3":null,"pitch":92,"articulation":"standard","articulation_tags":["standard","long"],"duration":0.1388888888888889,"velocity":48.35786351097736},
{"position":467.75,"instrument":"TheGrandeurPiano","level2":20,"level3":null,"pitch":93,"articulation":"standard","articulation_tags":["standard","long"],"duration":0.3402777777777778,"velocity":48.35786351097736},
{"position":467.8854166666667,"instrument":"TheGrandeurPiano","level2":20,"level3":null,"pitch":93,"articulation":"standard","articulation_tags":["standard","long"],"duration":0.13194444444444445,"velocity":48.35786351097736},
{"position":468.0833333333333,"instrument":"TheGrandeurPiano","level2":20,"level3":null,"pitch":93,"articulation":"standard","articulation_tags":["standard","long"],"duration":0.13194444444444445,"velocity":48.03842023878756},
{"position":468.2604166666667,"instrument":"TheGrandeurPiano","level2":20,"level3":null,"pitch":93,"articulation":"standard","articulation_tags":["standard","long"],"duration":0.4513888888888889,"velocity":48.03842023878756},
{"position":468.2916666666667,"instrument":"TheGrandeurPiano","level2":20,"level3":null,"pitch":93,"articulation":"standard","articulation_tags":["standard","long"],"duration":0.13194444444444445,"velocity":48.03842023878756},
{"position":468.4895833333333,"instrument":"TheGrandeurPiano","level2":20,"level3":null,"pitch":93,"articulation":"standard","articulation_tags":["standard","long"],"duration":0.13194444444444445,"velocity":47.931206031585766},
{"position":468.6875,"instrument":"TheGrandeurPiano","level2":20,"level3":null,"pitch":93,"articulation":"standard","articulation_tags":["standard","long"],"duration":0.13194444444444445,"velocity":48.03842023878756},
{"position":468.6979166666667,"instrument":"Trumpet","level2":20,"level3":0,"pitch":73,"articulation":"cuivre","articulation_tags":["cuivre","long"],"duration":30.28125,"velocity":40.17040162379418},
{"position":468.8854166666667,"instrument":"TheGrandeurPiano","level2":20,"level3":null,"pitch":93,"articulation":"standard","articulation_tags":["standard","long"],"duration":0.13194444444444445,"velocity":48.03842023878756},
{"position":468.9375,"instrument":"TheGrandeurPiano","level2":20,"level3":null,"pitch":94,"articulation":"standard","articulation_tags":["standard","long"],"duration":2.0902777777777777,"velocity":48.03842023878756},
{"position":469.0833333333333,"instrument":"TheGrandeurPiano","level2":20,"level3":null,"pitch":94,"articulation":"standard","articulation_tags":["standard","long"],"duration":0.13194444444444445,"velocity":48.35786351097736},
{"position":469.28125,"instrument":"TheGrandeurPiano","level2":20,"level3":null,"pitch":94,"articulation":"standard","articulation_tags":["standard","long"],"duration":0.13194444444444445,"velocity":48.35786351097736},
{"position":469.4791666666667,"instrument":"TheGrandeurPiano","level2":20,"level3":null,"pitch":94,"articulation":"standard","articulation_tags":["standard","long"],"duration":0.13194444444444445,"velocity":48.883157398992545},
{"position":469.6770833333333,"instrument":"TheGrandeurPiano","level2":20,"level3":null,"pitch":94,"articulation":"standard","articulation_tags":["standard","long"],"duration":0.13194444444444445,"velocity":49.56658182367159},
{"position":469.875,"instrument":"TheGrandeurPiano","level2":20,"level3":null,"pitch":94,"articulation":"standard","articulation_tags":["standard","long"],"duration":0.13194444444444445,"velocity":49.56658182367159},
{"position":470.0729166666667,"instrument":"TheGrandeurPiano","level2":20,"level3":null,"pitch":94,"articulation":"standard","articulation_tags":["standard","long"],"duration":0.13194444444444445,"velocity":50.41450612582929},
{"position":470.2708333333333,"instrument":"TheGrandeurPiano","level2":20,"level3":null,"pitch":94,"articulation":"standard","articulation_tags":["standard","long"],"duration":0.13194444444444445,"velocity":50.41450612582929},
{"position":470.46875,"instrument":"TheGrandeurPiano","level2":20,"level3":null,"pitch":94,"articulation":"standard","articulation_tags":["standard","long"],"duration":0.13194444444444445,"velocity":49.27866411850142},
{"position":470.6770833333333,"instrument":"TheGrandeurPiano","level2":20,"level3":null,"pitch":94,"articulation":"standard","articulation_tags":["standard","long"],"duration":0.13194444444444445,"velocity":49.27866411850142},
{"position":470.875,"instrument":"TheGrandeurPiano","level2":20,"level3":null,"pitch":94,"articulation":"standard","articulation_tags":["standard","long"],"duration":0.13194444444444445,"velocity":50.50731136827071},
{"position":471.0729166666667,"instrument":"TheGrandeurPiano","level2":20,"level3":null,"pitch":94,"articulation":"standard","articulation_tags":["standard","long"],"duration":0.13194444444444445,"velocity":48.46362389052244},
{"position":471.28125,"instrument":"TheGrandeurPiano","level2":20,"level3":null,"pitch":94,"articulation":"standard","articulation_tags":["standard","long"],"duration":0.1388888888888889,"velocity":49.94630547404311},
{"position":471.4791666666667,"instrument":"TheGrandeurPiano","level2":20,"level3":null,"pitch":94,"articulation":"standard","articulation_tags":["standard","long"],"duration":0.1388888888888889,"velocity":49.94630547404311},
{"position":471.6875,"instrument":"TheGrandeurPiano","level2":20,"level3":null,"pitch":94,"articulation":"standard","articulation_tags":["standard","long"],"duration":0.1388888888888889,"velocity":49.75702965889263},
{"position":471.8958333333333,"instrument":"TheGrandeurPiano","level2":20,"level3":null,"pitch":94,"articulation":"standard","articulation_tags":["standard","long"],"duration":0.1388888888888889,"velocity":49.75702965889263},
{"position":472.0729166666667,"instrument":"TheGrandeurPiano","level2":20,"level3":null,"pitch":93,"articulation":"standard","articulation_tags":["standard","long"],"duration":0.4722222222222222,"velocity":48.03842023878756},
{"position":472.1041666666667,"instrument":"TheGrandeurPiano","level2":20,"level3":null,"pitch":93,"articulation":"standard","articulation_tags":["standard","long"],"duration":0.1388888888888889,"velocity":49.94630547404311},
{"position":472.3125,"instrument":"TheGrandeurPiano","level2":20,"level3":null,"pitch":93,"articulation":"standard","articulation_tags":["standard","long"],"duration":0.1388888888888889,"velocity":49.94630547404311},
{"position":472.53125,"instrument":"TheGrandeurPiano","level2":20,"level3":null,"pitch":93,"articulation":"standard","articulation_tags":["standard","long"],"duration":0.14583333333333334,"velocity":48.46362389052244},
{"position":472.7395833333333,"instrument":"TheGrandeurPiano","level2":20,"level3":null,"pitch":93,"articulation":"standard","articulation_tags":["standard","long"],"duration":0.14583333333333334,"velocity":50.50731136827071},
{"position":472.78125,"instrument":"TheGrandeurPiano","level2":20,"level3":null,"pitch":93,"articulation":"standard","articulation_tags":["standard","long"],"duration":0.3680555555555556,"velocity":50.50731136827071},
{"position":472.9583333333333,"instrument":"TheGrandeurPiano","level2":20,"level3":null,"pitch":93,"articulation":"standard","articulation_tags":["standard","long"],"duration":0.14583333333333334,"velocity":49.27866411850142},
{"position":473.1875,"instrument":"TheGrandeurPiano","level2":20,"level3":null,"pitch":93,"articulation":"standard","articulation_tags":["standard","long"],"duration":0.1527777777777778,"velocity":49.27866411850142},
{"position":473.2395833333333,"instrument":"Clarinet","level2":20,"level3":2,"pitch":73,"articulation":"trill_2M","articulation_tags":["trill_2M","long","trill","M2"],"duration":14.6875,"velocity":29.62618510898598},
{"position":473.3229166666667,"instrument":"TheGrandeurPiano","level2":20,"level3":null,"pitch":92,"articulation":"standard","articulation_tags":["standard","long"],"duration":0.3125,"velocity":48.14526537486471},
{"position":473.40625,"instrument":"TheGrandeurPiano","level2":20,"level3":null,"pitch":92,"articulation":"standard","articulation_tags":["standard","long"],"duration":0.1527777777777778,"velocity":48.14526537486471},
{"position":473.6354166666667,"instrument":"TheGrandeurPiano","level2":20,"level3":null,"pitch":92,"articulation":"standard","articulation_tags":["standard","long"],"duration":0.1527777777777778,"velocity":50.41450612582929},
{"position":473.7916666666667,"instrument":"TheGrandeurPiano","level2":20,"level3":null,"pitch":92,"articulation":"standard","articulation_tags":["standard","long"],"duration":0.2777777777777778,"velocity":49.56658182367159},
{"position":473.875,"instrument":"TheGrandeurPiano","level2":20,"level3":null,"pitch":92,"articulation":"standard","articulation_tags":["standard","long"],"duration":0.1597222222222222,"velocity":49.56658182367159},
{"position":474.1041666666667,"instrument":"TheGrandeurPiano","level2":20,"level3":null,"pitch":92,"articulation":"standard","articulation_tags":["standard","long"],"duration":0.1597222222222222,"velocity":48.883157398992545},
{"position":474.2083333333333,"instrument":"TheGrandeurPiano","level2":20,"level3":null,"pitch":91,"articulation":"standard","articulation_tags":["standard","long"],"duration":0.2569444444444444,"velocity":48.883157398992545},
{"position":474.3541666666667,"instrument":"TheGrandeurPiano","level2":20,"level3":null,"pitch":91,"articulation":"standard","articulation_tags":["standard","long"],"duration":0.16666666666666666,"velocity":48.883157398992545},
{"position":474.59375,"instrument":"TheGrandeurPiano","level2":20,"level3":null,"pitch":91,"articulation":"standard","articulation_tags":["standard","long"],"duration":0.2361111111111111,"velocity":48.35786351097736},
{"position":474.6041666666667,"instrument":"TheGrandeurPiano","level2":20,"level3":null,"pitch":91,"articulation":"standard","articulation_tags":["standard","long"],"duration":0.16666666666666666,"velocity":48.35786351097736},
{"position":474.8541666666667,"instrument":"TheGrandeurPiano","level2":20,"level3":null,"pitch":91,"articulation":"standard","articulation_tags":["standard","long"],"duration":0.1736111111111111,"velocity":48.03842023878756},
{"position":474.9479166666667,"instrument":"TheGrandeurPiano","level2":20,"level3":null,"pitch":90,"articulation":"standard","articulation_tags":["standard","long"],"duration":0.2222222222222222,"velocity":48.03842023878756},
{"position":475.1145833333333,"instrument":"TheGrandeurPiano","level2":20,"level3":null,"pitch":90,"articulation":"standard","articulation_tags":["standard","long"],"duration":0.18055555555555555,"velocity":48.03842023878756},
{"position":475.28125,"instrument":"TheGrandeurPiano","level2":20,"level3":null,"pitch":90,"articulation":"standard","articulation_tags":["standard","long"],"duration":0.20833333333333334,"velocity":47.931206031585766},
{"position":475.3854166666667,"instrument":"TheGrandeurPiano","level2":20,"level3":null,"pitch":90,"articulation":"standard","articulation_tags":["standard","long"],"duration":0.1875,"velocity":47.931206031585766},
{"position":475.59375,"instrument":"TheGrandeurPiano","level2":20,"level3":null,"pitch":89,"articulation":"standard","articulation_tags":["standard","long"],"duration":0.2013888888888889,"velocity":48.03842023878756},
{"position":475.6666666666667,"instrument":"TheGrandeurPiano","level2":20,"level3":null,"pitch":89,"articulation":"standard","articulation_tags":["standard","long"],"duration":0.19444444444444445,"velocity":48.03842023878756},
{"position":475.8958333333333,"instrument":"TheGrandeurPiano","level2":20,"level3":null,"pitch":89,"articulation":"standard","articulation_tags":["standard","long"],"duration":0.19444444444444445,"velocity":48.35786351097736},
{"position":475.9479166666667,"instrument":"TheGrandeurPiano","level2":20,"level3":null,"pitch":89,"articulation":"standard","articulation_tags":["standard","long"],"duration":0.2013888888888889,"velocity":45.818449713615536},
{"position":476.1875,"instrument":"TheGrandeurPiano","level2":20,"level3":null,"pitch":88,"articulation":"standard","articulation_tags":["standard","long"],"duration":0.1875,"velocity":45.818449713615536},
{"position":476.25,"instrument":"TheGrandeurPiano","level2":20,"level3":null,"pitch":88,"articulation":"standard","articulation_tags":["standard","long"],"duration":0.20833333333333334,"velocity":45.818449713615536},
{"position":476.46875,"instrument":"TheGrandeurPiano","level2":20,"level3":null,"pitch":88,"articulation":"standard","articulation_tags":["standard","long"],"duration":0.18055555555555555,"velocity":46.3891674882436},
{"position":476.5625,"instrument":"TheGrandeurPiano","level2":20,"level3":null,"pitch":88,"articulation":"standard","articulation_tags":["standard","long"],"duration":0.2152777777777778,"velocity":46.3891674882436},
{"position":476.7395833333333,"instrument":"TheGrandeurPiano","level2":20,"level3":null,"pitch":87,"articulation":"standard","articulation_tags":["standard","long"],"duration":0.1736111111111111,"velocity":47.17004037302935},
{"position":476.8854166666667,"instrument":"TheGrandeurPiano","level2":20,"level3":null,"pitch":87,"articulation":"standard","articulation_tags":["standard","long"],"duration":0.22916666666666666,"velocity":44.76160702725369},
{"position":477.0,"instrument":"TheGrandeurPiano","level2":20,"level3":null,"pitch":87,"articulation":"standard","articulation_tags":["standard","long"],"duration":0.1736111111111111,"velocity":44.76160702725369},
{"position":477.2395833333333,"instrument":"TheGrandeurPiano","level2":20,"level3":null,"pitch":87,"articulation":"standard","articulation_tags":["standard","long"],"duration":0.24305555555555555,"velocity":45.818449713615536},
{"position":477.2604166666667,"instrument":"TheGrandeurPiano","level2":20,"level3":null,"pitch":86,"articulation":"standard","articulation_tags":["standard","long"],"duration":0.16666666666666666,"velocity":45.818449713615536},
{"position":477.5104166666667,"instrument":"TheGrandeurPiano","level2":20,"level3":null,"pitch":86,"articulation":"standard","articulation_tags":["standard","long"],"duration":0.16666666666666666,"velocity":43.53802142632277},
{"position":477.6041666666667,"instrument":"TheGrandeurPiano","level2":20,"level3":null,"pitch":86,"articulation":"standard","articulation_tags":["standard","long"],"duration":0.2638888888888889,"velocity":43.53802142632277},
{"position":477.7604166666667,"instrument":"TheGrandeurPiano","level2":20,"level3":null,"pitch":85,"articulation":"standard","articulation_tags":["standard","long"],"duration":0.1597222222222222,"velocity":44.881012339705876},
{"position":478.0,"instrument":"TheGrandeurPiano","level2":20,"level3":null,"pitch":85,"articulation":"standard","articulation_tags":["standard","long"],"duration":0.2916666666666667,"velocity":44.881012339705876},
{"position":478.0,"instrument":"TheGrandeurPiano","level2":20,"level3":null,"pitch":85,"articulation":"standard","articulation_tags":["standard","long"],"duration":0.1597222222222222,"velocity":44.881012339705876},
{"position":478.2395833333333,"instrument":"TheGrandeurPiano","level2":20,"level3":null,"pitch":84,"articulation":"standard","articulation_tags":["standard","long"],"duration":0.1597222222222222,"velocity":42.77600502632147},
{"position":478.4375,"instrument":"TheGrandeurPiano","level2":20,"level3":null,"pitch":84,"articulation":"standard","articulation_tags":["standard","long"],"duration":0.3194444444444444,"velocity":44.40026918995785},
{"position":478.4791666666667,"instrument":"TheGrandeurPiano","level2":20,"level3":null,"pitch":84,"articulation":"standard","articulation_tags":["standard","long"],"duration":0.1527777777777778,"velocity":44.40026918995785},
{"position":478.7083333333333,"instrument":"TheGrandeurPiano","level2":20,"level3":null,"pitch":83,"articulation":"standard","articulation_tags":["standard","long"],"duration":0.1527777777777778,"velocity":42.516943124414624},
{"position":478.9166666666667,"instrument":"TheGrandeurPiano","level2":20,"level3":null,"pitch":83,"articulation":"standard","articulation_tags":["standard","long"],"duration":0.3680555555555556,"velocity":42.516943124414624},
{"position":478.9375,"instrument":"TheGrandeurPiano","level2":20,"level3":null,"pitch":83,"articulation":"standard","articulation_tags":["standard","long"],"duration":0.1527777777777778,"velocity":42.516943124414624},
{"position":479.1666666666667,"instrument":"TheGrandeurPiano","level2":20,"level3":null,"pitch":82,"articulation":"standard","articulation_tags":["standard","long"],"duration":0.1527777777777778,"velocity":42.77600502632147},
{"position":479.2604166666667,"instrument":"Piccolo","level2":20,"level3":1,"pitch":75,"articulation":"trill_2m","articulation_tags":["trill_2m","long","trill","m2"],"duration":34.729166666666664,"velocity":23.06903320752017},
{"position":479.3958333333333,"instrument":"TheGrandeurPiano","level2":20,"level3":null,"pitch":82,"articulation":"standard","articulation_tags":["standard","long"],"duration":0.14583333333333334,"velocity":41.317034507811286},
{"position":479.46875,"instrument":"TheGrandeurPiano","level2":20,"level3":null,"pitch":82,"articulation":"standard","articulation_tags":["standard","long"],"duration":0.4513888888888889,"velocity":41.317034507811286},
{"position":479.6145833333333,"instrument":"TheGrandeurPiano","level2":20,"level3":null,"pitch":81,"articulation":"standard","articulation_tags":["standard","long"],"duration":0.14583333333333334,"velocity":41.317034507811286},
{"position":479.8333333333333,"instrument":"TheGrandeurPiano","level2":20,"level3":null,"pitch":81,"articulation":"standard","articulation_tags":["standard","long"],"duration":0.14583333333333334,"velocity":40.054759770892424},
{"position":480.0520833333333,"instrument":"TheGrandeurPiano","level2":20,"level3":null,"pitch":80,"articulation":"standard","articulation_tags":["standard","long"],"duration":0.14583333333333334,"velocity":40.054759770892424},
{"position":480.15625,"instrument":"TheGrandeurPiano","level2":20,"level3":null,"pitch":80,"articulation":"standard","articulation_tags":["standard","long"],"duration":0.6458333333333334,"velocity":40.054759770892424},
{"position":480.2708333333333,"instrument":"TheGrandeurPiano","level2":20,"level3":null,"pitch":80,"articulation":"standard","articulation_tags":["standard","long"],"duration":0.14583333333333334,"velocity":39.02302834842141},
{"position":480.4895833333333,"instrument":"TheGrandeurPiano","level2":20,"level3":null,"pitch":79,"articulation":"standard","articulation_tags":["standard","long"],"duration":0.14583333333333334,"velocity":39.02302834842141},
{"position":480.7083333333333,"instrument":"TheGrandeurPiano","level2":20,"level3":null,"pitch":79,"articulation":"standard","articulation_tags":["standard","long"],"duration":0.14583333333333334,"velocity":38.255438265995025},
{"position":480.9166666666667,"instrument":"TheGrandeurPiano","level2":20,"level3":null,"pitch":78,"articulation":"standard","articulation_tags":["standard","long"],"duration":0.14583333333333334,"velocity":38.255438265995025},
{"position":481.125,"instrument":"TheGrandeurPiano","level2":20,"level3":null,"pitch":78,"articulation":"standard","articulation_tags":["standard","long"],"duration":2.0277777777777777,"velocity":37.78127962436426},
{"position":481.1354166666667,"instrument":"TheGrandeurPiano","level2":20,"level3":null,"pitch":78,"articulation":"standard","articulation_tags":["standard","long"],"duration":0.1388888888888889,"velocity":37.78127962436426},
{"position":481.34375,"instrument":"TheGrandeurPiano","level2":20,"level3":null,"pitch":77,"articulation":"standard","articulation_tags":["standard","long"],"duration":0.1388888888888889,"velocity":37.78127962436426},
{"position":481.5625,"instrument":"TheGrandeurPiano","level2":20,"level3":null,"pitch":77,"articulation":"standard","articulation_tags":["standard","long"],"duration":0.1388888888888889,"velocity":37.620804021057175},
{"position":481.7708333333333,"instrument":"TheGrandeurPiano","level2":20,"level3":null,"pitch":76,"articulation":"standard","articulation_tags":["standard","long"],"duration":0.1388888888888889,"velocity":37.620804021057175},
{"position":481.9791666666667,"instrument":"TheGrandeurPiano","level2":20,"level3":null,"pitch":76,"articulation":"standard","articulation_tags":["standard","long"],"duration":0.1388888888888889,"velocity":37.78127962436426},
{"position":482.1979166666667,"instrument":"TheGrandeurPiano","level2":20,"level3":null,"pitch":75,"articulation":"standard","articulation_tags":["standard","long"],"duration":0.1388888888888889,"velocity":37.78127962436426},
{"position":482.3333333333333,"instrument":"Viola","level2":20,"level3":4,"pitch":73,"articulation":"tremolo","articulation_tags":["tremolo","tr","multi_note"],"duration":35.25,"velocity":30.49037123006408},
{"position":482.40625,"instrument":"TheGrandeurPiano","level2":20,"level3":null,"pitch":75,"articulation":"standard","articulation_tags":["standard","long"],"duration":0.1388888888888889,"velocity":38.255438265995025},
{"position":482.625,"instrument":"TheGrandeurPiano","level2":20,"level3":null,"pitch":74,"articulation":"standard","articulation_tags":["standard","long"],"duration":0.1736111111111111,"velocity":35.765214909826724},
{"position":482.8854166666667,"instrument":"TheGrandeurPiano","level2":20,"level3":null,"pitch":74,"articulation":"standard","articulation_tags":["standard","long"],"duration":0.24305555555555555,"velocity":36.6304205856072},
{"position":483.25,"instrument":"TheGrandeurPiano","level2":20,"level3":null,"pitch":73,"articulation":"standard","articulation_tags":["standard","long"],"duration":0.24305555555555555,"velocity":34.29106982816932},
{"position":483.6145833333333,"instrument":"TheGrandeurPiano","level2":20,"level3":null,"pitch":73,"articulation":"standard","articulation_tags":["standard","long"],"duration":0.24305555555555555,"velocity":35.58734155980392},
{"position":483.96875,"instrument":"TheGrandeurPiano","level2":20,"level3":null,"pitch":72,"articulation":"standard","articulation_tags":["standard","long"],"duration":0.24305555555555555,"velocity":35.22638794601045},
{"position":484.1666666666667,"instrument":"TheGrandeurPiano","level2":20,"level3":null,"pitch":72,"articulation":"standard","articulation_tags":["standard","long"],"duration":0.8819444444444444,"velocity":35.22638794601045},
{"position":484.3333333333333,"instrument":"TheGrandeurPiano","level2":20,"level3":null,"pitch":72,"articulation":"standard","articulation_tags":["standard","long"],"duration":0.24305555555555555,"velocity":35.22638794601045},
{"position":484.3541666666667,"instrument":"CorAnglais","level2":20,"level3":7,"pitch":74,"articulation":"trill_2m","articulation_tags":["trill_2m","long","trill","m2"],"duration":4.302083333333333,"velocity":34.09952641127653},
{"position":484.4166666666667,"instrument":"Bassoon","level2":20,"level3":7,"pitch":74,"articulation":"trill_2M","articulation_tags":["trill_2M","long","trill","M2"],"duration":4.25,"velocity":34.09952641127653},
{"position":484.6979166666667,"instrument":"TheGrandeurPiano","level2":20,"level3":null,"pitch":71,"articulation":"standard","articulation_tags":["standard","long"],"duration":0.24305555555555555,"velocity":33.504696252822995},
{"position":485.0625,"instrument":"TheGrandeurPiano","level2":20,"level3":null,"pitch":71,"articulation":"standard","articulation_tags":["standard","long"],"duration":0.24305555555555555,"velocity":34.29106982816932},
{"position":485.4375,"instrument":"TheGrandeurPiano","level2":20,"level3":null,"pitch":70,"articulation":"standard","articulation_tags":["standard","long"],"duration":0.25,"velocity":33.30217697262485},
{"position":485.4895833333333,"instrument":"TheGrandeurPiano","level2":20,"level3":null,"pitch":70,"articulation":"standard","articulation_tags":["standard","long"],"duration":0.625,"velocity":33.30217697262485},
{"position":485.8020833333333,"instrument":"TheGrandeurPiano","level2":20,"level3":null,"pitch":70,"articulation":"standard","articulation_tags":["standard","long"],"duration":0.25,"velocity":33.30217697262485},
{"position":486.1770833333333,"instrument":"TheGrandeurPiano","level2":20,"level3":null,"pitch":69,"articulation":"standard","articulation_tags":["standard","long"],"duration":0.25,"velocity":35.22638794601045},
{"position":486.4270833333333,"instrument":"TheGrandeurPiano","level2":20,"level3":null,"pitch":69,"articulation":"standard","articulation_tags":["standard","long"],"duration":0.5069444444444444,"velocity":35.04320351842503},
{"position":486.5520833333333,"instrument":"TheGrandeurPiano","level2":20,"level3":null,"pitch":69,"articulation":"standard","articulation_tags":["standard","long"],"duration":0.2569444444444444,"velocity":35.04320351842503},
{"position":486.9375,"instrument":"TheGrandeurPiano","level2":20,"level3":null,"pitch":68,"articulation":"standard","articulation_tags":["standard","long"],"duration":0.2569444444444444,"velocity":35.22638794601045},
{"position":487.1875,"instrument":"TheGrandeurPiano","level2":20,"level3":null,"pitch":68,"articulation":"standard","articulation_tags":["standard","long"],"duration":0.4375,"velocity":35.22638794601045},
{"position":487.3229166666667,"instrument":"TheGrandeurPiano","level2":20,"level3":null,"pitch":68,"articulation":"standard","articulation_tags":["standard","long"],"duration":0.2638888888888889,"velocity":35.765214909826724},
{"position":487.71875,"instrument":"TheGrandeurPiano","level2":20,"level3":null,"pitch":67,"articulation":"standard","articulation_tags":["standard","long"],"duration":0.2638888888888889,"velocity":33.30217697262485},
{"position":487.8541666666667,"instrument":"TheGrandeurPiano","level2":20,"level3":null,"pitch":67,"articulation":"standard","articulation_tags":["standard","long"],"duration":0.3958333333333333,"velocity":34.29106982816932},
{"position":487.8958333333333,"instrument":"Flute","level2":20,"level3":3,"pitch":74,"articulation":"trill_2m","articulation_tags":["trill_2m","long","trill","m2"],"duration":18.40625,"velocity":38.63876586334712},
{"position":487.9270833333333,"instrument":"Clarinet","level2":20,"level3":2,"pitch":74,"articulation":"trill_2M","articulation_tags":["trill_2M","long","trill","M2"],"duration":0.7291666666666666,"velocity":38.63876586334712},
{"position":488.1145833333333,"instrument":"TheGrandeurPiano","level2":20,"level3":null,"pitch":67,"articulation":"standard","articulation_tags":["standard","long"],"duration":0.2708333333333333,"velocity":34.29106982816932},
{"position":488.4375,"instrument":"TheGrandeurPiano","level2":20,"level3":null,"pitch":67,"articulation":"standard","articulation_tags":["standard","long"],"duration":0.3611111111111111,"velocity":35.58734155980392},
{"position":488.5208333333333,"instrument":"TheGrandeurPiano","level2":20,"level3":null,"pitch":66,"articulation":"standard","articulation_tags":["standard","long"],"duration":0.2777777777777778,"velocity":35.58734155980392},
{"position":488.9375,"instrument":"TheGrandeurPiano","level2":20,"level3":null,"pitch":66,"articulation":"standard","articulation_tags":["standard","long"],"duration":0.2847222222222222,"velocity":35.22638794601045},
{"position":488.9791666666667,"instrument":"TheGrandeurPiano","level2":20,"level3":null,"pitch":66,"articulation":"standard","articulation_tags":["standard","long"],"duration":0.3333333333333333,"velocity":35.22638794601045},
{"position":489.3645833333333,"instrument":"TheGrandeurPiano","level2":20,"level3":null,"pitch":65,"articulation":"standard","articulation_tags":["standard","long"],"duration":0.2916666666666667,"velocity":35.22638794601045},
{"position":489.46875,"instrument":"TheGrandeurPiano","level2":20,"level3":null,"pitch":65,"articulation":"standard","articulation_tags":["standard","long"],"duration":0.3055555555555556,"velocity":37.13170349029956},
{"position":489.8020833333333,"instrument":"TheGrandeurPiano","level2":20,"level3":null,"pitch":65,"articulation":"standard","articulation_tags":["standard","long"],"duration":0.2986111111111111,"velocity":35.58734155980392},
{"position":489.9375,"instrument":"TheGrandeurPiano","level2":20,"level3":null,"pitch":65,"articulation":"standard","articulation_tags":["standard","long"],"duration":0.2916666666666667,"velocity":35.58734155980392},
{"position":490.25,"instrument":"TheGrandeurPiano","level2":20,"level3":null,"pitch":64,"articulation":"standard","articulation_tags":["standard","long"],"duration":0.3125,"velocity":36.6304205856072},
{"position":490.375,"instrument":"TheGrandeurPiano","level2":20,"level3":null,"pitch":64,"articulation":"standard","articulation_tags":["standard","long"],"duration":0.2708333333333333,"velocity":36.6304205856072},
{"position":490.71875,"instrument":"TheGrandeurPiano","level2":20,"level3":null,"pitch":64,"articulation":"standard","articulation_tags":["standard","long"],"duration":0.3333333333333333,"velocity":36.6304205856072},
{"position":490.78125,"instrument":"TheGrandeurPiano","level2":20,"level3":null,"pitch":64,"articulation":"standard","articulation_tags":["standard","long"],"duration":0.2638888888888889,"velocity":35.765214909826724},
{"position":491.1770833333333,"instrument":"TheGrandeurPiano","level2":20,"level3":null,"pitch":64,"articulation":"standard","articulation_tags":["standard","long"],"duration":0.25,"velocity":38.255438265995025},
{"position":491.21875,"instrument":"TheGrandeurPiano","level2":20,"level3":null,"pitch":63,"articulation":"standard","articulation_tags":["standard","long"],"duration":0.3472222222222222,"velocity":38.255438265995025},
{"position":491.5520833333333,"instrument":"TheGrandeurPiano","level2":20,"level3":null,"pitch":63,"articulation":"standard","articulation_tags":["standard","long"],"duration":0.2361111111111111,"velocity":37.78127962436426},
{"position":491.7395833333333,"instrument":"TheGrandeurPiano","level2":20,"level3":null,"pitch":63,"articulation":"standard","articulation_tags":["standard","long"],"duration":0.375,"velocity":37.78127962436426},
{"position":491.90625,"instrument":"TheGrandeurPiano","level2":20,"level3":null,"pitch":63,"articulation":"standard","articulation_tags":["standard","long"],"duration":0.22916666666666666,"velocity":37.620804021057175},
{"position":492.25,"instrument":"TheGrandeurPiano","level2":20,"level3":null,"pitch":63,"articulation":"standard","articulation_tags":["standard","long"],"duration":0.2222222222222222,"velocity":37.620804021057175},
{"position":492.3125,"instrument":"TheGrandeurPiano","level2":20,"level3":null,"pitch":62,"articulation":"standard","articulation_tags":["standard","long"],"duration":0.4166666666666667,"velocity":37.620804021057175},
{"position":492.5833333333333,"instrument":"TheGrandeurPiano","level2":20,"level3":null,"pitch":62,"articulation":"standard","articulation_tags":["standard","long"],"duration":0.2152777777777778,"velocity":37.78127962436426},
{"position":492.90625,"instrument":"TheGrandeurPiano","level2":20,"level3":null,"pitch":62,"articulation":"standard","articulation_tags":["standard","long"],"duration":0.20833333333333334,"velocity":37.78127962436426},
{"position":492.9375,"instrument":"TheGrandeurPiano","level2":20,"level3":null,"pitch":62,"articulation":"standard","articulation_tags":["standard","long"],"duration":0.4861111111111111,"velocity":38.255438265995025},
{"position":493.21875,"instrument":"TheGrandeurPiano","level2":20,"level3":null,"pitch":62,"articulation":"standard","articulation_tags":["standard","long"],"duration":0.2013888888888889,"velocity":38.255438265995025},
{"position":493.5208333333333,"instrument":"TheGrandeurPiano","level2":20,"level3":null,"pitch":62,"articulation":"standard","articulation_tags":["standard","long"],"duration":0.19444444444444445,"velocity":39.02302834842141},
{"position":493.65625,"instrument":"TheGrandeurPiano","level2":20,"level3":null,"pitch":61,"articulation":"standard","articulation_tags":["standard","long"],"duration":0.6180555555555556,"velocity":39.02302834842141},
{"position":493.8125,"instrument":"TheGrandeurPiano","level2":20,"level3":null,"pitch":61,"articulation":"standard","articulation_tags":["standard","long"],"duration":0.1875,"velocity":39.02302834842141},
{"position":494.09375,"instrument":"TheGrandeurPiano","level2":20,"level3":null,"pitch":61,"articulation":"standard","articulation_tags":["standard","long"],"duration":0.1875,"velocity":40.054759770892424},
{"position":494.375,"instrument":"TheGrandeurPiano","level2":20,"level3":null,"pitch":61,"articulation":"standard","articulation_tags":["standard","long"],"duration":0.18055555555555555,"velocity":37.78127962436426},
{"position":494.59375,"instrument":"TheGrandeurPiano","level2":20,"level3":null,"pitch":61,"articulation":"standard","articulation_tags":["standard","long"],"duration":1.9606299212598426,"velocity":37.78127962436426},
{"position":494.6458333333333,"instrument":"TheGrandeurPiano","level2":20,"level3":null,"pitch":61,"articulation":"standard","articulation_tags":["standard","long"],"duration":0.18055555555555555,"velocity":39.173357932134294},
{"position":494.9166666666667,"instrument":"TheGrandeurPiano","level2":20,"level3":null,"pitch":61,"articulation":"standard","articulation_tags":["standard","long"],"duration":0.1736111111111111,"velocity":39.173357932134294},
{"position":495.1770833333333,"instrument":"TheGrandeurPiano","level2":20,"level3":null,"pitch":61,"articulation":"standard","articulation_tags":["standard","long"],"duration":0.1736111111111111,"velocity":39.173357932134294},
{"position":495.4270833333333,"instrument":"TheGrandeurPiano","level2":20,"level3":null,"pitch":61,"articulation":"standard","articulation_tags":["standard","long"],"duration":0.16666666666666666,"velocity":38.87166553521253},
{"position":495.6875,"instrument":"TheGrandeurPiano","level2":20,"level3":null,"pitch":61,"articulation":"standard","articulation_tags":["standard","long"],"duration":0.16666666666666666,"velocity":38.87166553521253},
{"position":495.9270833333333,"instrument":"TheGrandeurPiano","level2":20,"level3":null,"pitch":61,"articulation":"standard","articulation_tags":["standard","long"],"duration":0.1597222222222222,"velocity":38.87166553521253},
{"position":496.1666666666667,"instrument":"TheGrandeurPiano","level2":20,"level3":null,"pitch":61,"articulation":"standard","articulation_tags":["standard","long"],"duration":0.1597222222222222,"velocity":37.13170349029956},
{"position":496.40625,"instrument":"TheGrandeurPiano","level2":20,"level3":null,"pitch":61,"articulation":"standard","articulation_tags":["standard","long"],"duration":0.1597222222222222,"velocity":39.173357932134294},
{"position":496.6458333333333,"instrument":"TheGrandeurPiano","level2":20,"level3":null,"pitch":61,"articulation":"standard","articulation_tags":["standard","long"],"duration":0.1527777777777778,"velocity":39.173357932134294},
{"position":496.875,"instrument":"TheGrandeurPiano","level2":20,"level3":null,"pitch":61,"articulation":"standard","articulation_tags":["standard","long"],"duration":0.1527777777777778,"velocity":37.78127962436426},
{"position":497.1041666666667,"instrument":"TheGrandeurPiano","level2":20,"level3":null,"pitch":61,"articulation":"standard","articulation_tags":["standard","long"],"duration":0.1527777777777778,"velocity":37.78127962436426},
{"position":497.3333333333333,"instrument":"TheGrandeurPiano","level2":20,"level3":null,"pitch":61,"articulation":"standard","articulation_tags":["standard","long"],"duration":0.14583333333333334,"velocity":37.78127962436426},
{"position":497.5520833333333,"instrument":"TheGrandeurPiano","level2":20,"level3":null,"pitch":61,"articulation":"standard","articulation_tags":["standard","long"],"duration":0.14583333333333334,"velocity":36.6304205856072},
{"position":497.7708333333333,"instrument":"TheGrandeurPiano","level2":20,"level3":null,"pitch":61,"articulation":"standard","articulation_tags":["standard","long"],"duration":0.14583333333333334,"velocity":39.02302834842141},
{"position":497.9166666666667,"instrument":"TheGrandeurPiano","level2":20,"level3":null,"pitch":61,"articulation":"standard","articulation_tags":["standard","long"],"duration":0.4861111111111111,"velocity":39.02302834842141},
{"position":497.9895833333333,"instrument":"TheGrandeurPiano","level2":20,"level3":null,"pitch":61,"articulation":"standard","articulation_tags":["standard","long"],"duration":0.14583333333333334,"velocity":39.02302834842141},
{"position":498.2083333333333,"instrument":"TheGrandeurPiano","level2":20,"level3":null,"pitch":61,"articulation":"standard","articulation_tags":["standard","long"],"duration":0.14583333333333334,"velocity":38.255438265995025},
{"position":498.4270833333333,"instrument":"TheGrandeurPiano","level2":20,"level3":null,"pitch":61,"articulation":"standard","articulation_tags":["standard","long"],"duration":0.14583333333333334,"velocity":38.255438265995025},
{"position":498.6354166666667,"instrument":"TheGrandeurPiano","level2":20,"level3":null,"pitch":61,"articulation":"standard","articulation_tags":["standard","long"],"duration":0.1388888888888889,"velocity":38.255438265995025},
{"position":498.6458333333333,"instrument":"TheGrandeurPiano","level2":20,"level3":null,"pitch":62,"articulation":"standard","articulation_tags":["standard","long"],"duration":0.3472222222222222,"velocity":38.255438265995025},
{"position":498.8541666666667,"instrument":"TheGrandeurPiano","level2":20,"level3":null,"pitch":62,"articulation":"standard","articulation_tags":["standard","long"],"duration":0.1388888888888889,"velocity":37.78127962436426},
{"position":498.9791666666667,"instrument":"Viola","level2":20,"level3":0,"pitch":73,"articulation":"tremolo","articulation_tags":["tremolo","tr","multi_note"],"duration":10.166666666666666,"velocity":50.15828622774691},
{"position":499.0625,"instrument":"TheGrandeurPiano","level2":20,"level3":null,"pitch":62,"articulation":"standard","articulation_tags":["standard","long"],"duration":0.1388888888888889,"velocity":37.78127962436426},
{"position":499.1666666666667,"instrument":"TheGrandeurPiano","level2":20,"level3":null,"pitch":62,"articulation":"standard","articulation_tags":["standard","long"],"duration":0.2847222222222222,"velocity":37.78127962436426},
{"position":499.28125,"instrument":"TheGrandeurPiano","level2":20,"level3":null,"pitch":62,"articulation":"standard","articulation_tags":["standard","long"],"duration":0.1388888888888889,"velocity":37.78127962436426},
{"position":499.4895833333333,"instrument":"TheGrandeurPiano","level2":20,"level3":null,"pitch":62,"articulation":"standard","articulation_tags":["standard","long"],"duration":0.1388888888888889,"velocity":37.620804021057175},
{"position":499.59375,"instrument":"TheGrandeurPiano","level2":20,"level3":null,"pitch":63,"articulation":"standard","articulation_tags":["standard","long"],"duration":0.24305555555555555,"velocity":35.04320351842503},
{"position":499.6979166666667,"instrument":"TheGrandeurPiano","level2":20,"level3":null,"pitch":63,"articulation":"standard","articulation_tags":["standard","long"],"duration":0.1388888888888889,"velocity":35.04320351842503},
{"position":499.9166666666667,"instrument":"TheGrandeurPiano","level2":20,"level3":null,"pitch":63,"articulation":"standard","articulation_tags":["standard","long"],"duration":0.14583333333333334,"velocity":35.04320351842503},
{"position":499.9583333333333,"instrument":"TheGrandeurPiano","level2":20,"level3":null,"pitch":63,"articulation":"standard","articulation_tags":["standard","long"],"duration":0.2152777777777778,"velocity":35.22638794601045},
{"position":500.125,"instrument":"TheGrandeurPiano","level2":20,"level3":null,"pitch":63,"articulation":"standard","articulation_tags":["standard","long"],"duration":0.14583333333333334,"velocity":35.22638794601045},
{"position":500.28125,"instrument":"TheGrandeurPiano","level2":20,"level3":null,"pitch":64,"articulation":"standard","articulation_tags":["standard","long"],"duration":0.19444444444444445,"velocity":35.22638794601045},
{"position":500.34375,"instrument":"TheGrandeurPiano","level2":20,"level3":null,"pitch":64,"articulation":"standard","articulation_tags":["standard","long"],"duration":0.14583333333333334,"velocity":35.22638794601045},
{"position":500.5625,"instrument":"TheGrandeurPiano","level2":20,"level3":null,"pitch":64,"articulation":"standard","articulation_tags":["standard","long"],"duration":0.14583333333333334,"velocity":35.22638794601045},
{"position":500.5729166666667,"instrument":"TheGrandeurPiano","level2":20,"level3":null,"pitch":64,"articulation":"standard","articulation_tags":["standard","long"],"duration":0.18055555555555555,"velocity":35.22638794601045},
{"position":500.78125,"instrument":"TheGrandeurPiano","level2":20,"level3":null,"pitch":64,"articulation":"standard","articulation_tags":["standard","long"],"duration":0.14583333333333334,"velocity":35.765214909826724},
{"position":500.84375,"instrument":"TheGrandeurPiano","level2":20,"level3":null,"pitch":65,"articulation":"standard","articulation_tags":["standard","long"],"duration":0.16666666666666666,"velocity":35.765214909826724},
{"position":501.0,"instrument":"TheGrandeurPiano","level2":20,"level3":null,"pitch":65,"articulation":"standard","articulation_tags":["standard","long"],"duration":0.1527777777777778,"velocity":35.765214909826724},
{"position":501.09375,"instrument":"TheGrandeurPiano","level2":20,"level3":null,"pitch":65,"articulation":"standard","articulation_tags":["standard","long"],"duration":0.1597222222222222,"velocity":33.30217697262485},
{"position":501.2291666666667,"instrument":"TheGrandeurPiano","level2":20,"level3":null,"pitch":65,"articulation":"standard","articulation_tags":["standard","long"],"duration":0.1527777777777778,"velocity":33.30217697262485},
{"position":501.3333333333333,"instrument":"TheGrandeurPiano","level2":20,"level3":null,"pitch":66,"articulation":"standard","articulation_tags":["standard","long"],"duration":0.14583333333333334,"velocity":33.30217697262485},
{"position":501.46875,"instrument":"TheGrandeurPiano","level2":20,"level3":null,"pitch":66,"articulation":"standard","articulation_tags":["standard","long"],"duration":0.1597222222222222,"velocity":33.30217697262485},
{"position":501.5520833333333,"instrument":"TheGrandeurPiano","level2":20,"level3":null,"pitch":66,"articulation":"standard","articulation_tags":["standard","long"],"duration":0.1388888888888889,"velocity":33.30217697262485},
{"position":501.7083333333333,"instrument":"TheGrandeurPiano","level2":20,"level3":null,"pitch":66,"articulation":"standard","articulation_tags":["standard","long"],"duration":0.16666666666666666,"velocity":34.29106982816932},
{"position":501.7708333333333,"instrument":"TheGrandeurPiano","level2":20,"level3":null,"pitch":67,"articulation":"standard","articulation_tags":["standard","long"],"duration":0.13194444444444445,"velocity":34.29106982816932},
{"position":501.9479166666667,"instrument":"TheGrandeurPiano","level2":20,"level3":null,"pitch":67,"articulation":"standard","articulation_tags":["standard","long"],"duration":0.1736111111111111,"velocity":34.29106982816932},
{"position":501.96875,"instrument":"TheGrandeurPiano","level2":20,"level3":null,"pitch":67,"articulation":"standard","articulation_tags":["standard","long"],"duration":0.13194444444444445,"velocity":34.29106982816932},
{"position":502.1666666666667,"instrument":"TheGrandeurPiano","level2":20,"level3":null,"pitch":68,"articulation":"standard","articulation_tags":["standard","long"],"duration":0.125,"velocity":31.969231068413187},
{"position":502.2083333333333,"instrument":"TheGrandeurPiano","level2":20,"level3":null,"pitch":68,"articulation":"standard","articulation_tags":["standard","long"],"duration":0.18055555555555555,"velocity":31.969231068413187},
{"position":502.3541666666667,"instrument":"TheGrandeurPiano","level2":20,"level3":null,"pitch":68,"articulation":"standard","articulation_tags":["standard","long"],"duration":0.11805555555555555,"velocity":31.969231068413187},
{"position":502.4791666666667,"instrument":"TheGrandeurPiano","level2":20,"level3":null,"pitch":68,"articulation":"standard","articulation_tags":["standard","long"],"duration":0.19444444444444445,"velocity":31.969231068413187},
{"position":502.53125,"instrument":"TheGrandeurPiano","level2":20,"level3":null,"pitch":69,"articulation":"standard","articulation_tags":["standard","long"],"duration":0.11805555555555555,"velocity":31.969231068413187},
{"position":502.7083333333333,"instrument":"TheGrandeurPiano","level2":20,"level3":null,"pitch":69,"articulation":"standard","articulation_tags":["standard","long"],"duration":0.11805555555555555,"velocity":31.969231068413187},
{"position":502.78125,"instrument":"TheGrandeurPiano","level2":20,"level3":null,"pitch":69,"articulation":"standard","articulation_tags":["standard","long"],"duration":0.2152777777777778,"velocity":31.969231068413187},
{"position":502.8854166666667,"instrument":"TheGrandeurPiano","level2":20,"level3":null,"pitch":70,"articulation":"standard","articulation_tags":["standard","long"],"duration":0.1111111111111111,"velocity":31.492429754108883},
{"position":503.0520833333333,"instrument":"TheGrandeurPiano","level2":20,"level3":null,"pitch":70,"articulation":"standard","articulation_tags":["standard","long"],"duration":0.1111111111111111,"velocity":31.492429754108883},
{"position":503.09375,"instrument":"TheGrandeurPiano","level2":20,"level3":null,"pitch":70,"articulation":"standard","articulation_tags":["standard","long"],"duration":0.2361111111111111,"velocity":31.492429754108883},
{"position":503.21875,"instrument":"TheGrandeurPiano","level2":20,"level3":null,"pitch":71,"articulation":"standard","articulation_tags":["standard","long"],"duration":0.1111111111111111,"velocity":31.492429754108883},
{"position":503.375,"instrument":"TheGrandeurPiano","level2":20,"level3":null,"pitch":71,"articulation":"standard","articulation_tags":["standard","long"],"duration":0.10416666666666667,"velocity":31.492429754108883},
{"position":503.4479166666667,"instrument":"TheGrandeurPiano","level2":20,"level3":null,"pitch":71,"articulation":"standard","articulation_tags":["standard","long"],"duration":0.2777777777777778,"velocity":31.492429754108883},
{"position":503.5416666666667,"instrument":"TheGrandeurPiano","level2":20,"level3":null,"pitch":72,"articulation":"standard","articulation_tags":["standard","long"],"duration":0.10416666666666667,"velocity":31.492429754108883},
{"position":503.6979166666667,"instrument":"TheGrandeurPiano","level2":20,"level3":null,"pitch":72,"articulation":"standard","articulation_tags":["standard","long"],"duration":0.10416666666666667,"velocity":29.69350267023328},
{"position":503.8541666666667,"instrument":"TheGrandeurPiano","level2":20,"level3":null,"pitch":73,"articulation":"standard","articulation_tags":["standard","long"],"duration":0.10416666666666667,"velocity":29.69350267023328},
{"position":503.875,"instrument":"TheGrandeurPiano","level2":20,"level3":null,"pitch":73,"articulation":"standard","articulation_tags":["standard","long"],"duration":0.3680555555555556,"velocity":29.69350267023328},
{"position":504.0,"instrument":"TheGrandeurPiano","level2":20,"level3":null,"pitch":73,"articulation":"standard","articulation_tags":["standard","long"],"duration":0.10416666666666667,"velocity":29.69350267023328},
{"position":504.15625,"instrument":"TheGrandeurPiano","level2":20,"level3":null,"pitch":74,"articulation":"standard","articulation_tags":["standard","long"],"duration":0.09722222222222222,"velocity":29.69350267023328},
{"position":504.3020833333333,"instrument":"TheGrandeurPiano","level2":20,"level3":null,"pitch":74,"articulation":"standard","articulation_tags":["standard","long"],"duration":0.09722222222222222,"velocity":29.69350267023328},
{"position":504.4270833333333,"instrument":"TheGrandeurPiano","level2":20,"level3":null,"pitch":74,"articulation":"standard","articulation_tags":["standard","long"],"duration":1.6666666666666667,"velocity":28.247841128286595},
{"position":504.4583333333333,"instrument":"TheGrandeurPiano","level2":20,"level3":null,"pitch":75,"articulation":"standard","articulation_tags":["standard","long"],"duration":0.09722222222222222,"velocity":28.247841128286595},
{"position":504.6041666666667,"instrument":"TheGrandeurPiano","level2":20,"level3":null,"pitch":75,"articulation":"standard","articulation_tags":["standard","long"],"duration":0.09722222222222222,"velocity":28.247841128286595},
{"position":504.75,"instrument":"TheGrandeurPiano","level2":20,"level3":null,"pitch":76,"articulation":"standard","articulation_tags":["standard","long"],"duration":0.09722222222222222,"velocity":28.247841128286595},
{"position":504.90625,"instrument":"TheGrandeurPiano","level2":20,"level3":null,"pitch":76,"articulation":"standard","articulation_tags":["standard","long"],"duration":0.09722222222222222,"velocity":28.247841128286595},
{"position":505.0520833333333,"instrument":"TheGrandeurPiano","level2":20,"level3":null,"pitch":77,"articulation":"standard","articulation_tags":["standard","long"],"duration":0.09722222222222222,"velocity":28.247841128286595},
{"position":505.1979166666667,"instrument":"TheGrandeurPiano","level2":20,"level3":null,"pitch":77,"articulation":"standard","articulation_tags":["standard","long"],"duration":0.09722222222222222,"velocity":27.291951578809858},
{"position":505.34375,"instrument":"TheGrandeurPiano","level2":20,"level3":null,"pitch":78,"articulation":"standard","articulation_tags":["standard","long"],"duration":0.09722222222222222,"velocity":27.291951578809858},
{"position":505.5,"instrument":"TheGrandeurPiano","level2":20,"level3":null,"pitch":78,"articulation":"standard","articulation_tags":["standard","long"],"duration":0.10416666666666667,"velocity":27.291951578809858},
{"position":505.6458333333333,"instrument":"TheGrandeurPiano","level2":20,"level3":null,"pitch":79,"articulation":"standard","articulation_tags":["standard","long"],"duration":0.10416666666666667,"velocity":27.291951578809858},
{"position":505.8020833333333,"instrument":"TheGrandeurPiano","level2":20,"level3":null,"pitch":79,"articulation":"standard","articulation_tags":["standard","long"],"duration":0.10416666666666667,"velocity":27.291951578809858},
{"position":505.9583333333333,"instrument":"TheGrandeurPiano","level2":20,"level3":null,"pitch":80,"articulation":"standard","articulation_tags":["standard","long"],"duration":0.10416666666666667,"velocity":26.95480213618663},
{"position":506.1145833333333,"instrument":"TheGrandeurPiano","level2":20,"level3":null,"pitch":80,"articulation":"standard","articulation_tags":["standard","long"],"duration":0.10416666666666667,"velocity":26.95480213618663},
{"position":506.2708333333333,"instrument":"TheGrandeurPiano","level2":20,"level3":null,"pitch":81,"articulation":"standard","articulation_tags":["standard","long"],"duration":0.10416666666666667,"velocity":24.216101602139968},
{"position":506.3020833333333,"instrument":"Viola","level2":20,"level3":3,"pitch":74,"articulation":"long_flt","articulation_tags":["long_flt","flt","long","flautando"],"duration":3.3229166666666665,"velocity":48.459049640961645},
{"position":506.4270833333333,"instrument":"TheGrandeurPiano","level2":20,"level3":null,"pitch":81,"articulation":"standard","articulation_tags":["standard","long"],"duration":0.1111111111111111,"velocity":24.216101602139968},
{"position":506.59375,"instrument":"TheGrandeurPiano","level2":20,"level3":null,"pitch":82,"articulation":"standard","articulation_tags":["standard","long"],"duration":0.1111111111111111,"velocity":24.216101602139968},
{"position":506.75,"instrument":"TheGrandeurPiano","level2":20,"level3":null,"pitch":82,"articulation":"standard","articulation_tags":["standard","long"],"duration":0.1111111111111111,"velocity":24.216101602139968},
{"position":506.9166666666667,"instrument":"TheGrandeurPiano","level2":20,"level3":null,"pitch":83,"articulation":"standard","articulation_tags":["standard","long"],"duration":0.1111111111111111,"velocity":24.660531516706953},
{"position":506.9270833333333,"instrument":"TheGrandeurPiano","level2":20,"level3":null,"pitch":83,"articulation":"standard","articulation_tags":["standard","long"],"duration":0.4236111111111111,"velocity":24.660531516706953},
{"position":507.09375,"instrument":"TheGrandeurPiano","level2":20,"level3":null,"pitch":83,"articulation":"standard","articulation_tags":["standard","long"],"duration":0.11805555555555555,"velocity":24.660531516706953},
{"position":507.2604166666667,"instrument":"TheGrandeurPiano","level2":20,"level3":null,"pitch":84,"articulation":"standard","articulation_tags":["standard","long"],"duration":0.11805555555555555,"velocity":24.660531516706953},
{"position":507.4479166666667,"instrument":"TheGrandeurPiano","level2":20,"level3":null,"pitch":84,"articulation":"standard","articulation_tags":["standard","long"],"duration":0.11805555555555555,"velocity":24.660531516706953},
{"position":507.5625,"instrument":"TheGrandeurPiano","level2":20,"level3":null,"pitch":84,"articulation":"standard","articulation_tags":["standard","long"],"duration":0.3333333333333333,"velocity":24.660531516706953},
{"position":507.625,"instrument":"TheGrandeurPiano","level2":20,"level3":null,"pitch":85,"articulation":"standard","articulation_tags":["standard","long"],"duration":0.125,"velocity":22.123920564143297},
{"position":507.8125,"instrument":"TheGrandeurPiano","level2":20,"level3":null,"pitch":85,"articulation":"standard","articulation_tags":["standard","long"],"duration":0.125,"velocity":22.123920564143297},
{"position":508.0,"instrument":"TheGrandeurPiano","level2":20,"level3":null,"pitch":86,"articulation":"standard","articulation_tags":["standard","long"],"duration":0.13194444444444445,"velocity":22.123920564143297},
{"position":508.0625,"instrument":"TheGrandeurPiano","level2":20,"level3":null,"pitch":86,"articulation":"standard","articulation_tags":["standard","long"],"duration":0.2916666666666667,"velocity":22.123920564143297},
{"position":508.1979166666667,"instrument":"TheGrandeurPiano","level2":20,"level3":null,"pitch":86,"articulation":"standard","articulation_tags":["standard","long"],"duration":0.1388888888888889,"velocity":23.746214877054438},
{"position":508.40625,"instrument":"TheGrandeurPiano","level2":20,"level3":null,"pitch":87,"articulation":"standard","articulation_tags":["standard","long"],"duration":0.1388888888888889,"velocity":23.746214877054438},
{"position":508.5,"instrument":"TheGrandeurPiano","level2":20,"level3":null,"pitch":87,"articulation":"standard","articulation_tags":["standard","long"],"duration":0.2638888888888889,"velocity":23.746214877054438},
{"position":508.6145833333333,"instrument":"TheGrandeurPiano","level2":20,"level3":null,"pitch":87,"articulation":"standard","articulation_tags":["standard","long"],"duration":0.14583333333333334,"velocity":23.746214877054438},
{"position":508.8333333333333,"instrument":"TheGrandeurPiano","level2":20,"level3":null,"pitch":88,"articulation":"standard","articulation_tags":["standard","long"],"duration":0.1527777777777778,"velocity":22.123920564143297},
{"position":508.8958333333333,"instrument":"TheGrandeurPiano","level2":20,"level3":null,"pitch":88,"articulation":"standard","articulation_tags":["standard","long"],"duration":0.25,"velocity":22.123920564143297},
{"position":509.0625,"instrument":"TheGrandeurPiano","level2":20,"level3":null,"pitch":88,"articulation":"standard","articulation_tags":["standard","long"],"duration":0.1597222222222222,"velocity":22.123920564143297},
{"position":509.1458333333333,"instrument":"Viola","level2":20,"level3":0,"pitch":74,"articulation":"tremolo","articulation_tags":["tremolo","tr","multi_note"],"duration":0.4895833333333333,"velocity":45.62007603548056},
{"position":509.2708333333333,"instrument":"TheGrandeurPiano","level2":20,"level3":null,"pitch":88,"articulation":"standard","articulation_tags":["standard","long"],"duration":0.2361111111111111,"velocity":22.123920564143297},
{"position":509.3020833333333,"instrument":"TheGrandeurPiano","level2":20,"level3":null,"pitch":89,"articulation":"standard","articulation_tags":["standard","long"],"duration":0.16666666666666666,"velocity":22.123920564143297},
{"position":509.5104166666667,"instrument":"Viola","level2":20,"level3":0,"pitch":74,"articulation":"long_flt","articulation_tags":["long_flt","flt","long","flautando"],"duration":0.125,"velocity":45.133499283720155},
{"position":509.5520833333333,"instrument":"TheGrandeurPiano","level2":20,"level3":null,"pitch":89,"articulation":"standard","articulation_tags":["standard","long"],"duration":0.1736111111111111,"velocity":22.123920564143297},
{"position":509.6354166666667,"instrument":"TheGrandeurPiano","level2":20,"level3":null,"pitch":89,"articulation":"standard","articulation_tags":["standard","long"],"duration":0.22916666666666666,"velocity":21.477401068093315},
{"position":509.8229166666667,"instrument":"TheGrandeurPiano","level2":20,"level3":null,"pitch":90,"articulation":"standard","articulation_tags":["standard","long"],"duration":0.1875,"velocity":21.477401068093315},
{"position":509.9791666666667,"instrument":"TheGrandeurPiano","level2":20,"level3":null,"pitch":90,"articulation":"standard","articulation_tags":["standard","long"],"duration":0.2222222222222222,"velocity":21.477401068093315},
{"position":510.09375,"instrument":"TheGrandeurPiano","level2":20,"level3":null,"pitch":90,"articulation":"standard","articulation_tags":["standard","long"],"duration":0.19444444444444445,"velocity":21.477401068093315},
{"position":510.3125,"instrument":"TheGrandeurPiano","level2":20,"level3":null,"pitch":90,"articulation":"standard","articulation_tags":["standard","long"],"duration":0.2152777777777778,"velocity":21.477401068093315},
{"position":510.3958333333333,"instrument":"TheGrandeurPiano","level2":20,"level3":null,"pitch":91,"articulation":"standard","articulation_tags":["standard","long"],"duration":0.20833333333333334,"velocity":21.477401068093315},
{"position":510.6354166666667,"instrument":"TheGrandeurPiano","level2":20,"level3":null,"pitch":91,"articulation":"standard","articulation_tags":["standard","long"],"duration":0.2152777777777778,"velocity":22.123920564143297},
{"position":510.7083333333333,"instrument":"TheGrandeurPiano","level2":20,"level3":null,"pitch":91,"articulation":"standard","articulation_tags":["standard","long"],"duration":0.22916666666666666,"velocity":22.123920564143297},
{"position":510.9583333333333,"instrument":"TheGrandeurPiano","level2":20,"level3":null,"pitch":91,"articulation":"standard","articulation_tags":["standard","long"],"duration":0.20833333333333334,"velocity":22.123920564143297},
{"position":511.0520833333333,"instrument":"TheGrandeurPiano","level2":20,"level3":null,"pitch":92,"articulation":"standard","articulation_tags":["standard","long"],"duration":0.25,"velocity":22.123920564143297},
{"position":511.2708333333333,"instrument":"TheGrandeurPiano","level2":20,"level3":null,"pitch":92,"articulation":"standard","articulation_tags":["standard","long"],"duration":0.20833333333333334,"velocity":22.123920564143297},
{"position":511.4270833333333,"instrument":"TheGrandeurPiano","level2":20,"level3":null,"pitch":92,"articulation":"standard","articulation_tags":["standard","long"],"duration":0.2777777777777778,"velocity":22.123920564143297},
{"position":511.59375,"instrument":"TheGrandeurPiano","level2":20,"level3":null,"pitch":92,"articulation":"standard","articulation_tags":["standard","long"],"duration":0.20833333333333334,"velocity":23.746214877054438},
{"position":511.8333333333333,"instrument":"TheGrandeurPiano","level2":20,"level3":null,"pitch":93,"articulation":"standard","articulation_tags":["standard","long"],"duration":0.3125,"velocity":23.746214877054438},
{"position":511.8958333333333,"instrument":"TheGrandeurPiano","level2":20,"level3":null,"pitch":93,"articulation":"standard","articulation_tags":["standard","long"],"duration":0.20833333333333334,"velocity":23.746214877054438},
{"position":512.2083333333334,"instrument":"TheGrandeurPiano","level2":20,"level3":null,"pitch":93,"articulation":"standard","articulation_tags":["standard","long"],"duration":0.20833333333333334,"velocity":23.746214877054438},
{"position":512.3020833333334,"instrument":"TheGrandeurPiano","level2":20,"level3":null,"pitch":93,"articulation":"standard","articulation_tags":["standard","long"],"duration":0.3611111111111111,"velocity":23.746214877054438},
{"position":512.5208333333334,"instrument":"TheGrandeurPiano","level2":20,"level3":null,"pitch":93,"articulation":"standard","articulation_tags":["standard","long"],"duration":0.20833333333333334,"velocity":23.746214877054438},
{"position":512.8333333333334,"instrument":"TheGrandeurPiano","level2":20,"level3":null,"pitch":93,"articulation":"standard","articulation_tags":["standard","long"],"duration":0.20833333333333334,"velocity":24.660531516706953},
{"position":512.84375,"instrument":"TheGrandeurPiano","level2":20,"level3":null,"pitch":94,"articulation":"standard","articulation_tags":["standard","long"],"duration":0.4375,"velocity":24.660531516706953},
{"position":513.1458333333334,"instrument":"TheGrandeurPiano","level2":20,"level3":null,"pitch":94,"articulation":"standard","articulation_tags":["standard","long"],"duration":0.20833333333333334,"velocity":24.660531516706953},
{"position":513.4583333333334,"instrument":"TheGrandeurPiano","level2":20,"level3":null,"pitch":94,"articulation":"standard","articulation_tags":["standard","long"],"duration":0.20833333333333334,"velocity":24.660531516706953},
{"position":513.5,"instrument":"TheGrandeurPiano","level2":20,"level3":null,"pitch":94,"articulation":"standard","articulation_tags":["standard","long"],"duration":0.5972222222222222,"velocity":24.660531516706953},
{"position":513.7708333333334,"instrument":"TheGrandeurPiano","level2":20,"level3":null,"pitch":94,"articulation":"standard","articulation_tags":["standard","long"],"duration":0.20833333333333334,"velocity":24.660531516706953},
{"position":513.9895833333334,"instrument":"Viola","level2":20,"level3":1,"pitch":74,"articulation":"long_flt","articulation_tags":["long_flt","flt","long","flautando"],"duration":13.854166666666666,"velocity":39.81717360266249},
{"position":514.0833333333334,"instrument":"TheGrandeurPiano","level2":20,"level3":null,"pitch":94,"articulation":"standard","articulation_tags":["standard","long"],"duration":0.2152777777777778,"velocity":24.660531516706953},
{"position":514.40625,"instrument":"TheGrandeurPiano","level2":20,"level3":null,"pitch":95,"articulation":"standard","articulation_tags":["standard","long"],"duration":2.4960629921259843,"velocity":24.216101602139968},
{"position":514.40625,"instrument":"TheGrandeurPiano","level2":20,"level3":null,"pitch":95,"articulation":"standard","articulation_tags":["standard","long"],"duration":0.2152777777777778,"velocity":24.216101602139968},
{"position":514.7291666666666,"instrument":"TheGrandeurPiano","level2":20,"level3":null,"pitch":95,"articulation":"standard","articulation_tags":["standard","long"],"duration":0.2152777777777778,"velocity":26.95480213618663},
{"position":515.0520833333334,"instrument":"TheGrandeurPiano","level2":20,"level3":null,"pitch":95,"articulation":"standard","articulation_tags":["standard","long"],"duration":0.2222222222222222,"velocity":26.95480213618663},
{"position":515.3854166666666,"instrument":"TheGrandeurPiano","level2":20,"level3":null,"pitch":95,"articulation":"standard","articulation_tags":["standard","long"],"duration":0.2222222222222222,"velocity":26.95480213618663},
{"position":515.71875,"instrument":"TheGrandeurPiano","level2":20,"level3":null,"pitch":95,"articulation":"standard","articulation_tags":["standard","long"],"duration":0.22916666666666666,"velocity":27.291951578809858},
{"position":516.0520833333334,"instrument":"TheGrandeurPiano","level2":20,"level3":null,"pitch":95,"articulation":"standard","articulation_tags":["standard","long"],"duration":0.22916666666666666,"velocity":27.291951578809858},
{"position":516.3958333333334,"instrument":"TheGrandeurPiano","level2":20,"level3":null,"pitch":95,"articulation":"standard","articulation_tags":["standard","long"],"duration":0.2361111111111111,"velocity":27.291951578809858},
{"position":516.75,"instrument":"TheGrandeurPiano","level2":20,"level3":null,"pitch":95,"articulation":"standard","articulation_tags":["standard","long"],"duration":0.2361111111111111,"velocity":28.247841128286595},
{"position":517.1041666666666,"instrument":"TheGrandeurPiano","level2":20,"level3":null,"pitch":95,"articulation":"standard","articulation_tags":["standard","long"],"duration":0.24305555555555555,"velocity":28.247841128286595},
{"position":517.4791666666666,"instrument":"TheGrandeurPiano","level2":20,"level3":null,"pitch":95,"articulation":"standard","articulation_tags":["standard","long"],"duration":0.25,"velocity":28.247841128286595},
{"position":517.5833333333334,"instrument":"Bassoon","level2":20,"level3":4,"pitch":73,"articulation":"trill_2M","articulation_tags":["trill_2M","long","trill","M2"],"duration":12.677083333333334,"velocity":35.11438168739115},
{"position":517.84375,"instrument":"TheGrandeurPiano","level2":20,"level3":null,"pitch":95,"articulation":"standard","articulation_tags":["standard","long"],"duration":0.2569444444444444,"velocity":28.247841128286595},
{"position":518.2291666666666,"instrument":"TheGrandeurPiano","level2":20,"level3":null,"pitch":95,"articulation":"standard","articulation_tags":["standard","long"],"duration":0.2638888888888889,"velocity":27.619322315581655},
{"position":518.625,"instrument":"TheGrandeurPiano","level2":20,"level3":null,"pitch":95,"articulation":"standard","articulation_tags":["standard","long"],"duration":0.2708333333333333,"velocity":27.619322315581655},
{"position":519.03125,"instrument":"TheGrandeurPiano","level2":20,"level3":null,"pitch":95,"articulation":"standard","articulation_tags":["standard","long"],"duration":0.2777777777777778,"velocity":27.619322315581655},
{"position":519.0729166666666,"instrument":"TheGrandeurPiano","level2":20,"level3":null,"pitch":94,"articulation":"standard","articulation_tags":["standard","long"],"duration":0.7569444444444444,"velocity":27.619322315581655},
{"position":519.4479166666666,"instrument":"TheGrandeurPiano","level2":20,"level3":null,"pitch":94,"articulation":"standard","articulation_tags":["standard","long"],"duration":0.2847222222222222,"velocity":27.619322315581655},
{"position":519.875,"instrument":"TheGrandeurPiano","level2":20,"level3":null,"pitch":94,"articulation":"standard","articulation_tags":["standard","long"],"duration":0.2986111111111111,"velocity":27.619322315581655},
{"position":520.2083333333334,"instrument":"TheGrandeurPiano","level2":20,"level3":null,"pitch":94,"articulation":"standard","articulation_tags":["standard","long"],"duration":0.5972222222222222,"velocity":25.87452520364583},
{"position":520.3229166666666,"instrument":"TheGrandeurPiano","level2":20,"level3":null,"pitch":94,"articulation":"standard","articulation_tags":["standard","long"],"duration":0.3125,"velocity":25.87452520364583},
{"position":520.5729166666666,"instrument":"Viola","level2":20,"level3":4,"pitch":73,"articulation":"long_flt","articulation_tags":["long_flt","flt","long","flautando"],"duration":10.041666666666666,"velocity":31.45487989938493},
{"position":520.7916666666666,"instrument":"TheGrandeurPiano","level2":20,"level3":null,"pitch":94,"articulation":"standard","articulation_tags":["standard","long"],"duration":0.3263888888888889,"velocity":25.87452520364583},
{"position":521.1041666666666,"instrument":"TheGrandeurPiano","level2":20,"level3":null,"pitch":93,"articulation":"standard","articulation_tags":["standard","long"],"duration":0.5208333333333334,"velocity":25.87452520364583},
{"position":521.2708333333334,"instrument":"TheGrandeurPiano","level2":20,"level3":null,"pitch":93,"articulation":"standard","articulation_tags":["standard","long"],"duration":0.3402777777777778,"velocity":25.87452520364583},
{"position":521.78125,"instrument":"TheGrandeurPiano","level2":20,"level3":null,"pitch":93,"articulation":"standard","articulation_tags":["standard","long"],"duration":0.3611111111111111,"velocity":25.87452520364583},
{"position":521.875,"instrument":"TheGrandeurPiano","level2":20,"level3":null,"pitch":93,"articulation":"standard","articulation_tags":["standard","long"],"duration":0.4722222222222222,"velocity":25.87452520364583},
{"position":522.3229166666666,"instrument":"TheGrandeurPiano","level2":20,"level3":null,"pitch":93,"articulation":"standard","articulation_tags":["standard","long"],"duration":0.3819444444444444,"velocity":25.87452520364583},
{"position":522.5833333333334,"instrument":"TheGrandeurPiano","level2":20,"level3":null,"pitch":92,"articulation":"standard","articulation_tags":["standard","long"],"duration":0.4375,"velocity":25.87452520364583},
{"position":522.8958333333334,"instrument":"TheGrandeurPiano","level2":20,"level3":null,"pitch":92,"articulation":"standard","articulation_tags":["standard","long"],"duration":0.4097222222222222,"velocity":25.87452520364583},
{"position":523.2395833333334,"instrument":"TheGrandeurPiano","level2":20,"level3":null,"pitch":92,"articulation":"standard","articulation_tags":["standard","long"],"duration":0.4097222222222222,"velocity":25.87452520364583},
{"position":523.5208333333334,"instrument":"TheGrandeurPiano","level2":20,"level3":null,"pitch":92,"articulation":"standard","articulation_tags":["standard","long"],"duration":0.4513888888888889,"velocity":25.87452520364583},
{"position":523.8541666666666,"instrument":"TheGrandeurPiano","level2":20,"level3":null,"pitch":91,"articulation":"standard","articulation_tags":["standard","long"],"duration":0.3888888888888889,"velocity":25.87452520364583},
{"position":524.1979166666666,"instrument":"TheGrandeurPiano","level2":20,"level3":null,"pitch":91,"articulation":"standard","articulation_tags":["standard","long"],"duration":0.5,"velocity":25.87452520364583},
{"position":524.4375,"instrument":"TheGrandeurPiano","level2":20,"level3":null,"pitch":91,"articulation":"standard","articulation_tags":["standard","long"],"duration":0.375,"velocity":25.87452520364583},
{"position":524.9479166666666,"instrument":"TheGrandeurPiano","level2":20,"level3":null,"pitch":91,"articulation":"standard","articulation_tags":["standard","long"],"duration":0.5763888888888888,"velocity":25.87452520364583},
{"position":525.0,"instrument":"TheGrandeurPiano","level2":20,"level3":null,"pitch":90,"articulation":"standard","articulation_tags":["standard","long"],"duration":0.3611111111111111,"velocity":25.87452520364583},
{"position":525.5416666666666,"instrument":"TheGrandeurPiano","level2":20,"level3":null,"pitch":90,"articulation":"standard","articulation_tags":["standard","long"],"duration":0.3541666666666667,"velocity":25.87452520364583},
{"position":525.8020833333334,"instrument":"TheGrandeurPiano","level2":20,"level3":null,"pitch":90,"articulation":"standard","articulation_tags":["standard","long"],"duration":0.6944444444444444,"velocity":25.87452520364583},
{"position":526.0625,"instrument":"TheGrandeurPiano","level2":20,"level3":null,"pitch":89,"articulation":"standard","articulation_tags":["standard","long"],"duration":0.3402777777777778,"velocity":25.87452520364583},
{"position":526.5833333333334,"instrument":"TheGrandeurPiano","level2":20,"level3":null,"pitch":89,"articulation":"standard","articulation_tags":["standard","long"],"duration":0.3333333333333333,"velocity":25.87452520364583},
{"position":526.8541666666666,"instrument":"TheGrandeurPiano","level2":20,"level3":null,"pitch":89,"articulation":"standard","articulation_tags":["standard","long"],"duration":0.9791666666666666,"velocity":25.87452520364583},
{"position":527.0833333333334,"instrument":"TheGrandeurPiano","level2":20,"level3":null,"pitch":88,"articulation":"standard","articulation_tags":["standard","long"],"duration":0.3263888888888889,"velocity":25.87452520364583},
{"position":527.5729166666666,"instrument":"TheGrandeurPiano","level2":20,"level3":null,"pitch":88,"articulation":"standard","articulation_tags":["standard","long"],"duration":0.3263888888888889,"velocity":25.87452520364583},
{"position":527.84375,"instrument":"Viola","level2":20,"level3":1,"pitch":74,"articulation":"long_flt","articulation_tags":["long_flt","flt","long","flautando"],"duration":2.7708333333333335,"velocity":21.458878788823647},
{"position":528.0625,"instrument":"TheGrandeurPiano","level2":20,"level3":null,"pitch":87,"articulation":"standard","articulation_tags":["standard","long"],"duration":0.3194444444444444,"velocity":25.87452520364583},
{"position":528.3229166666666,"instrument":"TheGrandeurPiano","level2":20,"level3":null,"pitch":87,"articulation":"standard","articulation_tags":["standard","long"],"duration":2.1597222222222223,"velocity":25.87452520364583},
{"position":528.5416666666666,"instrument":"TheGrandeurPiano","level2":20,"level3":null,"pitch":87,"articulation":"standard","articulation_tags":["standard","long"],"duration":0.3125,"velocity":25.87452520364583},
{"position":529.0104166666666,"instrument":"TheGrandeurPiano","level2":20,"level3":null,"pitch":86,"articulation":"standard","articulation_tags":["standard","long"],"duration":0.3125,"velocity":25.87452520364583},
{"position":529.4791666666666,"instrument":"TheGrandeurPiano","level2":20,"level3":null,"pitch":86,"articulation":"standard","articulation_tags":["standard","long"],"duration":0.3125,"velocity":25.87452520364583},
{"position":529.9479166666666,"instrument":"TheGrandeurPiano","level2":20,"level3":null,"pitch":85,"articulation":"standard","articulation_tags":["standard","long"],"duration":0.3125,"velocity":25.87452520364583},
{"position":530.2708333333334,"instrument":"Viola","level2":20,"level3":4,"pitch":74,"articulation":"long_flt","articulation_tags":["long_flt","flt","long","flautando"],"duration":0.34375,"velocity":18.031271745179204},
{"position":530.40625,"instrument":"TheGrandeurPiano","level2":20,"level3":null,"pitch":85,"articulation":"standard","articulation_tags":["standard","long"],"duration":0.3055555555555556,"velocity":25.87452520364583},
{"position":530.875,"instrument":"TheGrandeurPiano","level2":20,"level3":null,"pitch":84,"articulation":"standard","articulation_tags":["standard","long"],"duration":0.3055555555555556,"velocity":25.87452520364583},
{"position":531.3333333333334,"instrument":"TheGrandeurPiano","level2":20,"level3":null,"pitch":84,"articulation":"standard","articulation_tags":["standard","long"],"duration":0.1527777777777778,"velocity":25.87452520364583},
