{"position":1.0,"instrument":"TheGrandeurPiano","level2":0,"level3":null,"pitch":72,"articulation":"standard","articulation_tags":["standard","long"],"duration":2.1338582677165356,"velocity":16.0}
{"position":1.0416666666666667,"instrument":"Viola","level2":0,"level3":0,"pitch":74,"articulation":"collegno","articulation_tags":["collegno","cl","short"],"duration":1.0,"velocity":72.0}
{"position":5.989583333333333,"instrument":"Viola","level2":0,"level3":0,"pitch":74,"articulation":"collegno","articulation_tags":["collegno","cl","short"],"duration":1.0,"velocity":72.0}
{"position":6.833333333333333,"instrument":"Viola","level2":0,"level3":1,"pitch":74,"articulation":"collegno","articulation_tags":["collegno","cl","short"],"duration":1.0,"velocity":72.0}
{"position":6.833333333333333,"instrument":"Viola","level2":0,"level3":2,"pitch":74,"articulation":"collegno","articulation_tags":["collegno","cl","short"],"duration":1.0,"velocity":72.0}
{"position":6.833333333333333,"instrument":"Viola","level2":0,"level3":2,"pitch":74,"articulation":"collegno","articulation_tags":["collegno","cl","short"],"duration":1.0,"velocity":72.0}
{"position":8.135416666666666,"instrument":"Viola","level2":0,"level3":2,"pitch":75,"articulation":"collegno","articulation_tags":["collegno","cl","short"],"duration":1.0,"velocity":72.0}
{"position":8.520833333333334,"instrument":"Viola","level2":0,"level3":2,"pitch":75,"articulation":"pizzicato","articulation_tags":["pizzicato","pz","short"],"duration":1.0,"velocity":72.0}
{"position":11.791666666666666,"instrument":"Viola","level2":0,"level3":2,"pitch":75,"articulation":"pizzicato","articulation_tags":["pizzicato","pz","short"],"duration":1.0,"velocity":72.0}
{"position":11.958333333333334,"instrument":"Viola","level2":0,"level3":2,"pitch":74,"articulation":"pizzicato","articulation_tags":["pizzicato","pz","short"],"duration":1.0,"velocity":72.0}
{"position":14.989583333333334,"instrument":"TheGrandeurPiano","level2":0,"level3":null,"pitch":72,"articulation":"standard","articulation_tags":["standard","long"],"duration":2.1338582677165356,"velocity":21.40261781933033}
{"position":15.052083333333334,"instrument":"TheGrandeurPiano","level2":0,"level3":null,"pitch":72,"articulation":"standard","articulation_tags":["standard","long"],"duration":2.1338582677165356,"velocity":23.64045539241551}
{"position":17.333333333333332,"instrument":"Viola","level2":0,"level3":2,"pitch":74,"articulation":"pizzicato","articulation_tags":["pizzicato","pz","short"],"duration":1.0,"velocity":73.1431287456974}
{"position":17.510416666666668,"instrument":"Viola","level2":0,"level3":3,"pitch":75,"articulation":"collegno","articulation_tags":["collegno","cl","short"],"duration":1.0,"velocity":73.1431287456974}
{"position":17.510416666666668,"instrument":"Viola","level2":0,"level3":3,"pitch":75,"articulation":"collegno","articulation_tags":["collegno","cl","short"],"duration":1.0,"velocity":73.1431287456974}
{"position":17.510416666666668,"instrument":"Viola","level2":0,"level3":4,"pitch":75,"articulation":"collegno","articulation_tags":["collegno","cl","short"],"duration":1.0,"velocity":73.1431287456974}
{"position":17.520833333333332,"instrument":"Cello","level2":0,"level3":4,"pitch":75,"articulation":"collegno","articulation_tags":["collegno","cl","short"],"duration":1.0,"velocity":73.1431287456974}
{"position":17.875,"instrument":"Cello","level2":0,"level3":3,"pitch":74,"articulation":"collegno","articulation_tags":["collegno","cl","short"],"duration":1.0,"velocity":73.1431287456974}
{"position":18.177083333333332,"instrument":"Cello","level2":0,"level3":4,"pitch":75,"articulation":"collegno","articulation_tags":["collegno","cl","short"],"duration":1.0,"velocity":73.1431287456974}
{"position":18.958333333333332,"instrument":"Viola","level2":0,"level3":3,"pitch":74,"articulation":"collegno","articulation_tags":["collegno","cl","short"],"duration":1.0,"velocity":73.1431287456974}
{"position":19.125,"instrument":"TheGrandeurPiano","level2":0,"level3":null,"pitch":72,"articulation":"standard","articulation_tags":["standard","long"],"duration":2.1338582677165356,"velocity":21.40261781933033}
{"position":19.760416666666668,"instrument":"Viola","level2":0,"level3":4,"pitch":75,"articulation":"pizzicato","articulation_tags":["pizzicato","pz","short"],"duration":1.0,"velocity":73.80744524760759}
{"position":19.989583333333332,"instrument":"TheGrandeurPiano","level2":0,"level3":null,"pitch":73,"articulation":"standard","articulation_tags":["standard","long"],"duration":1.4236111111111112,"velocity":21.40261781933033}
{"position":20.53125,"instrument":"Viola","level2":0,"level3":3,"pitch":73,"articulation":"collegno","articulation_tags":["collegno","cl","short"],"duration":1.0,"velocity":74.28625749139479}
{"position":20.864583333333332,"instrument":"Viola","level2":0,"level3":2,"pitch":73,"articulation":"pizzicato","articulation_tags":["pizzicato","pz","short"],"duration":1.0,"velocity":74.28625749139479}
{"position":21.927083333333332,"instrument":"Viola","level2":0,"level3":3,"pitch":73,"articulation":"collegno","articulation_tags":["collegno","cl","short"],"duration":1.0,"velocity":74.28625749139479}
{"position":22.03125,"instrument":"Viola","level2":0,"level3":4,"pitch":75,"articulation":"pizzicato","articulation_tags":["pizzicato","pz","short"],"duration":1.0,"velocity":74.28625749139479}
{"position":22.125,"instrument":"TheGrandeurPiano","level2":0,"level3":null,"pitch":73,"articulation":"standard","articulation_tags":["standard","long"],"duration":0.9444444444444444,"velocity":23.64045539241551}
{"position":22.53125,"instrument":"TheGrandeurPiano","level2":0,"level3":null,"pitch":73,"articulation":"standard","articulation_tags":["standard","long"],"duration":2.1496062992125986,"velocity":23.64045539241551}
{"position":22.604166666666668,"instrument":"Viola","level2":0,"level3":3,"pitch":73,"articulation":"collegno","articulation_tags":["collegno","cl","short"],"duration":1.0,"velocity":75.42938623709219}
{"position":23.541666666666668,"instrument":"TheGrandeurPiano","level2":0,"level3":null,"pitch":74,"articulation":"standard","articulation_tags":["standard","long"],"duration":0.7083333333333334,"velocity":23.64045539241551}
{"position":23.59375,"instrument":"Viola","level2":0,"level3":2,"pitch":73,"articulation":"pizzicato","articulation_tags":["pizzicato","pz","short"],"duration":1.0,"velocity":76.0415704392595}
{"position":23.802083333333332,"instrument":"Viola","level2":0,"level3":3,"pitch":73,"articulation":"collegno","articulation_tags":["collegno","cl","short"],"duration":1.0,"velocity":76.0415704392595}
{"position":24.197916666666668,"instrument":"Viola","level2":0,"level3":2,"pitch":73,"articulation":"pizzicato","articulation_tags":["pizzicato","pz","short"],"duration":1.0,"velocity":76.0415704392595}
{"position":24.572916666666668,"instrument":"Viola","level2":0,"level3":3,"pitch":73,"articulation":"pizzicato","articulation_tags":["pizzicato","pz","short"],"duration":1.0,"velocity":76.0415704392595}
{"position":24.614583333333332,"instrument":"TheGrandeurPiano","level2":0,"level3":null,"pitch":74,"articulation":"standard","articulation_tags":["standard","long"],"duration":0.5694444444444444,"velocity":21.40261781933033}
{"position":25.083333333333332,"instrument":"Viola","level2":0,"level3":4,"pitch":75,"articulation":"pizzicato","articulation_tags":["pizzicato","pz","short"],"duration":1.0,"velocity":76.7132405621902}
{"position":25.46875,"instrument":"TheGrandeurPiano","level2":0,"level3":null,"pitch":75,"articulation":"standard","articulation_tags":["standard","long"],"duration":0.4930555555555556,"velocity":26.805235638660665}
{"position":26.208333333333332,"instrument":"TheGrandeurPiano","level2":0,"level3":null,"pitch":75,"articulation":"standard","articulation_tags":["standard","long"],"duration":0.4513888888888889,"velocity":21.40261781933033}
{"position":26.885416666666668,"instrument":"TheGrandeurPiano","level2":0,"level3":null,"pitch":76,"articulation":"standard","articulation_tags":["standard","long"],"duration":0.4652777777777778,"velocity":23.64045539241551}
{"position":27.447916666666668,"instrument":"TheGrandeurPiano","level2":0,"level3":null,"pitch":76,"articulation":"standard","articulation_tags":["standard","long"],"duration":0.8611111111111112,"velocity":23.64045539241551}
{"position":27.583333333333332,"instrument":"TheGrandeurPiano","level2":0,"level3":null,"pitch":76,"articulation":"standard","articulation_tags":["standard","long"],"duration":0.5416666666666666,"velocity":23.64045539241551}
{"position":27.885416666666668,"instrument":"Viola","level2":0,"level3":5,"pitch":75,"articulation":"collegno","articulation_tags":["collegno","cl","short"],"duration":1.0,"velocity":79.45228766840674}
{"position":27.885416666666668,"instrument":"Viola","level2":0,"level3":6,"pitch":76,"articulation":"collegno","articulation_tags":["collegno","cl","short"],"duration":1.0,"velocity":79.45228766840674}
{"position":27.885416666666668,"instrument":"Viola","level2":0,"level3":6,"pitch":76,"articulation":"collegno","articulation_tags":["collegno","cl","short"],"duration":1.0,"velocity":79.45228766840674}
{"position":27.989583333333332,"instrument":"Viola","level2":0,"level3":5,"pitch":75,"articulation":"collegno","articulation_tags":["collegno","cl","short"],"duration":1.0,"velocity":79.45228766840674}
{"position":28.083333333333332,"instrument":"Cello","level2":0,"level3":6,"pitch":76,"articulation":"collegno","articulation_tags":["collegno","cl","short"],"duration":1.0,"velocity":79.45228766840674}
{"position":28.135416666666668,"instrument":"Cello","level2":0,"level3":4,"pitch":75,"articulation":"pizzicato","articulation_tags":["pizzicato","pz","short"],"duration":1.0,"velocity":79.45228766840674}
{"position":28.3125,"instrument":"Cello","level2":0,"level3":6,"pitch":76,"articulation":"collegno","articulation_tags":["collegno","cl","short"],"duration":1.0,"velocity":79.45228766840674}
{"position":28.395833333333332,"instrument":"TheGrandeurPiano","level2":0,"level3":null,"pitch":77,"articulation":"standard","articulation_tags":["standard","long"],"duration":0.8402777777777778,"velocity":23.64045539241551}
{"position":28.677083333333332,"instrument":"Cello","level2":0,"level3":5,"pitch":75,"articulation":"collegno","articulation_tags":["collegno","cl","short"],"duration":1.0,"velocity":80.24321861413759}
{"position":28.697916666666668,"instrument":"Violin","level2":0,"level3":5,"pitch":75,"articulation":"collegno","articulation_tags":["collegno","cl","short"],"duration":1.0,"velocity":80.24321861413759}
{"position":28.739583333333332,"instrument":"TheGrandeurPiano","level2":0,"level3":null,"pitch":77,"articulation":"standard","articulation_tags":["standard","long"],"duration":0.7708333333333334,"velocity":23.64045539241551}
{"position":29.375,"instrument":"CorAnglais","level2":0,"level3":4,"pitch":75,"articulation":"tenuto","articulation_tags":["tenuto","t","short"],"duration":0.25,"velocity":80.12345604571138}
{"position":29.375,"instrument":"Clarinet","level2":0,"level3":6,"pitch":76,"articulation":"staccato","articulation_tags":["staccato","st","short"],"duration":0.25,"velocity":80.12345604571138}
{"position":29.645833333333332,"instrument":"TheGrandeurPiano","level2":0,"level3":null,"pitch":77,"articulation":"standard","articulation_tags":["standard","long"],"duration":2.2125984251968505,"velocity":28.080620700474306}
{"position":29.875,"instrument":"Bassoon","level2":0,"level3":5,"pitch":74,"articulation":"staccato","articulation_tags":["staccato","st","short"],"duration":0.25,"velocity":80.90293733233192}
{"position":29.885416666666668,"instrument":"TheGrandeurPiano","level2":0,"level3":null,"pitch":77,"articulation":"standard","articulation_tags":["standard","long"],"duration":0.8402777777777778,"velocity":26.805235638660665}
{"position":30.916666666666668,"instrument":"CorAnglais","level2":0,"level3":6,"pitch":76,"articulation":"tenuto","articulation_tags":["tenuto","t","short"],"duration":0.25,"velocity":80.8684282036432}
{"position":31.145833333333332,"instrument":"TheGrandeurPiano","level2":0,"level3":null,"pitch":77,"articulation":"standard","articulation_tags":["standard","long"],"duration":1.0,"velocity":26.805235638660665}
{"position":31.40625,"instrument":"Bassoon","level2":0,"level3":5,"pitch":74,"articulation":"staccato","articulation_tags":["staccato","st","short"],"duration":0.25,"velocity":80.90293733233192}
{"position":32.15625,"instrument":"Bassoon","level2":0,"level3":4,"pitch":74,"articulation":"tenuto","articulation_tags":["tenuto","t","short"],"duration":0.25,"velocity":80.90293733233192}
{"position":32.645833333333336,"instrument":"TheGrandeurPiano","level2":0,"level3":null,"pitch":77,"articulation":"standard","articulation_tags":["standard","long"],"duration":1.2777777777777777,"velocity":28.080620700474306}
{"position":32.90625,"instrument":"CorAnglais","level2":0,"level3":6,"pitch":76,"articulation":"tenuto","articulation_tags":["tenuto","t","short"],"duration":0.25,"velocity":81.00562469462395}
{"position":33.239583333333336,"instrument":"Bassoon","level2":0,"level3":5,"pitch":73,"articulation":"staccato","articulation_tags":["staccato","st","short"],"duration":0.25,"velocity":81.00562469462395}
{"position":34.5625,"instrument":"TheGrandeurPiano","level2":0,"level3":null,"pitch":77,"articulation":"standard","articulation_tags":["standard","long"],"duration":1.8125,"velocity":28.080620700474306}
{"position":35.177083333333336,"instrument":"Bassoon","level2":0,"level3":5,"pitch":73,"articulation":"staccato","articulation_tags":["staccato","st","short"],"duration":0.25,"velocity":81.17406925863682}
{"position":35.177083333333336,"instrument":"TheGrandeurPiano","level2":0,"level3":null,"pitch":77,"articulation":"standard","articulation_tags":["standard","long"],"duration":2.0,"velocity":28.080620700474306}
{"position":35.364583333333336,"instrument":"CorAnglais","level2":0,"level3":6,"pitch":76,"articulation":"tenuto","articulation_tags":["tenuto","t","short"],"duration":0.25,"velocity":80.4390468326443}
{"position":35.375,"instrument":"Clarinet","level2":0,"level3":5,"pitch":73,"articulation":"staccato","articulation_tags":["staccato","st","short"],"duration":0.25,"velocity":80.4390468326443}
{"position":35.479166666666664,"instrument":"Bassoon","level2":0,"level3":4,"pitch":74,"articulation":"tenuto","articulation_tags":["tenuto","t","short"],"duration":0.25,"velocity":80.4390468326443}
{"position":37.28125,"instrument":"TheGrandeurPiano","level2":0,"level3":null,"pitch":77,"articulation":"standard","articulation_tags":["standard","long"],"duration":2.2125984251968505,"velocity":26.805235638660665}
{"position":37.895833333333336,"instrument":"Bassoon","level2":0,"level3":5,"pitch":72,"articulation":"staccato","articulation_tags":["staccato","st","short"],"duration":0.25,"velocity":80.69370273696204}
{"position":38.177083333333336,"instrument":"TheGrandeurPiano","level2":0,"level3":null,"pitch":76,"articulation":"standard","articulation_tags":["standard","long"],"duration":1.7083333333333333,"velocity":28.080620700474306}
{"position":38.333333333333336,"instrument":"Bassoon","level2":0,"level3":4,"pitch":73,"articulation":"tenuto","articulation_tags":["tenuto","t","short"],"duration":0.25,"velocity":79.9609705104419}
{"position":38.375,"instrument":"CorAnglais","level2":0,"level3":6,"pitch":76,"articulation":"tenuto","articulation_tags":["tenuto","t","short"],"duration":0.25,"velocity":79.9609705104419}
{"position":38.739583333333336,"instrument":"Bassoon","level2":0,"level3":5,"pitch":72,"articulation":"staccato","articulation_tags":["staccato","st","short"],"duration":0.25,"velocity":79.9609705104419}
{"position":39.114583333333336,"instrument":"CorAnglais","level2":0,"level3":6,"pitch":76,"articulation":"tenuto","articulation_tags":["tenuto","t","short"],"duration":0.25,"velocity":79.9609705104419}
{"position":40.739583333333336,"instrument":"TheGrandeurPiano","level2":0,"level3":null,"pitch":76,"articulation":"standard","articulation_tags":["standard","long"],"duration":1.6111111111111112,"velocity":28.080620700474306}
{"position":40.791666666666664,"instrument":"CorAnglais","level2":0,"level3":4,"pitch":73,"articulation":"tenuto","articulation_tags":["tenuto","t","short"],"duration":0.25,"velocity":79.22978099043036}
{"position":41.041666666666664,"instrument":"CorAnglais","level2":0,"level3":5,"pitch":72,"articulation":"staccato","articulation_tags":["staccato","st","short"],"duration":0.25,"velocity":79.22978099043036}
{"position":41.072916666666664,"instrument":"Bassoon","level2":0,"level3":5,"pitch":72,"articulation":"staccato","articulation_tags":["staccato","st","short"],"duration":0.25,"velocity":79.22978099043036}
{"position":42.15625,"instrument":"CorAnglais","level2":0,"level3":6,"pitch":76,"articulation":"tenuto","articulation_tags":["tenuto","t","short"],"duration":0.25,"velocity":79.22978099043036}
{"position":42.541666666666664,"instrument":"CorAnglais","level2":0,"level3":4,"pitch":73,"articulation":"tenuto","articulation_tags":["tenuto","t","short"],"duration":0.25,"velocity":79.22978099043036}
{"position":42.666666666666664,"instrument":"Bassoon","level2":0,"level3":5,"pitch":72,"articulation":"staccato","articulation_tags":["staccato","st","short"],"duration":0.25,"velocity":79.22978099043036}
{"position":42.833333333333336,"instrument":"CorAnglais","level2":0,"level3":4,"pitch":72,"articulation":"tenuto","articulation_tags":["tenuto","t","short"],"duration":0.25,"velocity":79.22978099043036}
{"position":43.145833333333336,"instrument":"TheGrandeurPiano","level2":0,"level3":null,"pitch":75,"articulation":"standard","articulation_tags":["standard","long"],"duration":1.375,"velocity":32.20785345799099}
{"position":43.604166666666664,"instrument":"CorAnglais","level2":0,"level3":6,"pitch":75,"articulation":"tenuto","articulation_tags":["tenuto","t","short"],"duration":0.25,"velocity":78.51683651784286}
{"position":43.71875,"instrument":"Bassoon","level2":0,"level3":5,"pitch":72,"articulation":"tenuto","articulation_tags":["tenuto","t","short"],"duration":0.25,"velocity":78.51683651784286}
{"position":43.979166666666664,"instrument":"CorAnglais","level2":0,"level3":4,"pitch":72,"articulation":"tenuto","articulation_tags":["tenuto","t","short"],"duration":0.25,"velocity":78.51683651784286}
{"position":44.166666666666664,"instrument":"Bassoon","level2":0,"level3":4,"pitch":72,"articulation":"tenuto","articulation_tags":["tenuto","t","short"],"duration":0.25,"velocity":78.51683651784286}
{"position":44.208333333333336,"instrument":"Clarinet","level2":0,"level3":5,"pitch":72,"articulation":"staccato","articulation_tags":["staccato","st","short"],"duration":0.25,"velocity":78.51683651784286}
{"position":45.208333333333336,"instrument":"TheGrandeurPiano","level2":0,"level3":null,"pitch":75,"articulation":"standard","articulation_tags":["standard","long"],"duration":1.3888888888888888,"velocity":33.07960248140792}
{"position":45.645833333333336,"instrument":"CorAnglais","level2":0,"level3":7,"pitch":75,"articulation":"staccato","articulation_tags":["staccato","st","short"],"duration":0.25,"velocity":77.82883578085986}
{"position":45.645833333333336,"instrument":"Piccolo","level2":0,"level3":7,"pitch":75,"articulation":"staccato","articulation_tags":["staccato","st","short"],"duration":0.25,"velocity":77.82883578085986}
{"position":45.645833333333336,"instrument":"Clarinet","level2":0,"level3":7,"pitch":75,"articulation":"staccato","articulation_tags":["staccato","st","short"],"duration":0.25,"velocity":77.82883578085986}
{"position":45.645833333333336,"instrument":"Clarinet","level2":0,"level3":8,"pitch":75,"articulation":"staccato","articulation_tags":["staccato","st","short"],"duration":0.25,"velocity":77.82883578085986}
{"position":46.177083333333336,"instrument":"CorAnglais","level2":0,"level3":8,"pitch":75,"articulation":"staccato","articulation_tags":["staccato","st","short"],"duration":0.25,"velocity":77.82883578085986}
{"position":46.197916666666664,"instrument":"Bassoon","level2":0,"level3":7,"pitch":74,"articulation":"staccato","articulation_tags":["staccato","st","short"],"duration":0.25,"velocity":77.82883578085986}
{"position":46.53125,"instrument":"CorAnglais","level2":0,"level3":8,"pitch":76,"articulation":"staccato","articulation_tags":["staccato","st","short"],"duration":0.25,"velocity":77.82883578085986}
{"position":47.291666666666664,"instrument":"TheGrandeurPiano","level2":0,"level3":null,"pitch":74,"articulation":"standard","articulation_tags":["standard","long"],"duration":1.6666666666666667,"velocity":33.07960248140792}
{"position":47.302083333333336,"instrument":"CorAnglais","level2":0,"level3":6,"pitch":75,"articulation":"tenuto","articulation_tags":["tenuto","t","short"],"duration":0.25,"velocity":77.17573552738293}
{"position":47.34375,"instrument":"Bassoon","level2":0,"level3":7,"pitch":74,"articulation":"staccato","articulation_tags":["staccato","st","short"],"duration":0.25,"velocity":77.17573552738293}
{"position":47.5,"instrument":"Piccolo","level2":0,"level3":6,"pitch":75,"articulation":"marcato","articulation_tags":["marcato","short"],"duration":0.25,"velocity":77.17573552738293}
{"position":47.541666666666664,"instrument":"Clarinet","level2":0,"level3":8,"pitch":76,"articulation":"staccato","articulation_tags":["staccato","st","short"],"duration":0.25,"velocity":77.17573552738293}
{"position":47.552083333333336,"instrument":"TheGrandeurPiano","level2":0,"level3":null,"pitch":74,"articulation":"standard","articulation_tags":["standard","long"],"duration":1.0972222222222223,"velocity":33.07960248140792}
{"position":48.083333333333336,"instrument":"CorAnglais","level2":0,"level3":7,"pitch":74,"articulation":"staccato","articulation_tags":["staccato","st","short"],"duration":0.25,"velocity":76.7132405621902}
{"position":48.604166666666664,"instrument":"CorAnglais","level2":0,"level3":7,"pitch":74,"articulation":"staccato","articulation_tags":["staccato","st","short"],"duration":0.25,"velocity":76.7132405621902}
{"position":48.895833333333336,"instrument":"CorAnglais","level2":0,"level3":7,"pitch":73,"articulation":"staccato","articulation_tags":["staccato","st","short"],"duration":0.25,"velocity":76.7132405621902}
{"position":49.197916666666664,"instrument":"TheGrandeurPiano","level2":0,"level3":null,"pitch":74,"articulation":"standard","articulation_tags":["standard","long"],"duration":0.7916666666666666,"velocity":32.20785345799099}
{"position":49.59375,"instrument":"CorAnglais","level2":0,"level3":8,"pitch":76,"articulation":"tenuto","articulation_tags":["tenuto","t","short"],"duration":0.25,"velocity":76.35290457901108}
{"position":49.791666666666664,"instrument":"TheGrandeurPiano","level2":0,"level3":null,"pitch":74,"articulation":"standard","articulation_tags":["standard","long"],"duration":2.1653543307086616,"velocity":32.20785345799099}
{"position":50.385416666666664,"instrument":"TheGrandeurPiano","level2":0,"level3":null,"pitch":74,"articulation":"standard","articulation_tags":["standard","long"],"duration":0.6319444444444444,"velocity":33.07960248140792}
{"position":50.53125,"instrument":"CorAnglais","level2":0,"level3":6,"pitch":74,"articulation":"marcato","articulation_tags":["marcato","short"],"duration":0.25,"velocity":75.33276436288818}
{"position":50.802083333333336,"instrument":"CorAnglais","level2":0,"level3":7,"pitch":73,"articulation":"staccato","articulation_tags":["staccato","st","short"],"duration":0.25,"velocity":75.33276436288818}
{"position":51.333333333333336,"instrument":"TheGrandeurPiano","level2":0,"level3":null,"pitch":74,"articulation":"standard","articulation_tags":["standard","long"],"duration":0.5208333333333334,"velocity":35.33356759466443}
{"position":52.125,"instrument":"TheGrandeurPiano","level2":0,"level3":null,"pitch":74,"articulation":"standard","articulation_tags":["standard","long"],"duration":0.4444444444444444,"velocity":31.28091078483102}
{"position":52.375,"instrument":"CorAnglais","level2":0,"level3":8,"pitch":76,"articulation":"tenuto","articulation_tags":["tenuto","t","short"],"duration":0.25,"velocity":75.33276436288818}
{"position":52.447916666666664,"instrument":"Piccolo","level2":0,"level3":8,"pitch":75,"articulation":"tenuto","articulation_tags":["tenuto","t","short"],"duration":0.25,"velocity":75.33276436288818}
{"position":52.78125,"instrument":"TheGrandeurPiano","level2":0,"level3":null,"pitch":74,"articulation":"standard","articulation_tags":["standard","long"],"duration":0.3819444444444444,"velocity":35.33356759466443}
{"position":53.072916666666664,"instrument":"CorAnglais","level2":0,"level3":7,"pitch":72,"articulation":"staccato","articulation_tags":["staccato","st","short"],"duration":0.25,"velocity":75.61489049521518}
{"position":53.1875,"instrument":"TheGrandeurPiano","level2":0,"level3":null,"pitch":74,"articulation":"standard","articulation_tags":["standard","long"],"duration":0.6388888888888888,"velocity":33.07960248140792}
{"position":53.354166666666664,"instrument":"TheGrandeurPiano","level2":0,"level3":null,"pitch":74,"articulation":"standard","articulation_tags":["standard","long"],"duration":0.3263888888888889,"velocity":33.07960248140792}
{"position":53.4375,"instrument":"CorAnglais","level2":0,"level3":6,"pitch":74,"articulation":"marcato","articulation_tags":["marcato","short"],"duration":0.25,"velocity":76.7132405621902}
{"position":53.84375,"instrument":"TheGrandeurPiano","level2":0,"level3":null,"pitch":74,"articulation":"standard","articulation_tags":["standard","long"],"duration":0.2777777777777778,"velocity":33.07960248140792}
{"position":54.145833333333336,"instrument":"TheGrandeurPiano","level2":0,"level3":null,"pitch":75,"articulation":"standard","articulation_tags":["standard","long"],"duration":0.2916666666666667,"velocity":33.07960248140792}
{"position":54.239583333333336,"instrument":"CorAnglais","level2":0,"level3":7,"pitch":72,"articulation":"staccato","articulation_tags":["staccato","st","short"],"duration":0.25,"velocity":77.82883578085986}
{"position":54.260416666666664,"instrument":"TheGrandeurPiano","level2":0,"level3":null,"pitch":75,"articulation":"standard","articulation_tags":["standard","long"],"duration":0.2361111111111111,"velocity":33.07960248140792}
{"position":54.583333333333336,"instrument":"TheGrandeurPiano","level2":0,"level3":null,"pitch":75,"articulation":"standard","articulation_tags":["standard","long"],"duration":0.16666666666666666,"velocity":32.20785345799099}
{"position":54.625,"instrument":"TheGrandeurPiano","level2":0,"level3":null,"pitch":75,"articulation":"standard","articulation_tags":["standard","long"],"duration":0.19444444444444445,"velocity":32.20785345799099}
{"position":54.833333333333336,"instrument":"TheGrandeurPiano","level2":0,"level3":null,"pitch":76,"articulation":"standard","articulation_tags":["standard","long"],"duration":0.1111111111111111,"velocity":32.20785345799099}
{"position":54.916666666666664,"instrument":"TheGrandeurPiano","level2":0,"level3":null,"pitch":76,"articulation":"standard","articulation_tags":["standard","long"],"duration":0.16666666666666666,"velocity":32.20785345799099}
{"position":55.0,"instrument":"TheGrandeurPiano","level2":0,"level3":null,"pitch":76,"articulation":"standard","articulation_tags":["standard","long"],"duration":0.06944444444444445,"velocity":32.20785345799099}
{"position":55.104166666666664,"instrument":"TheGrandeurPiano","level2":0,"level3":null,"pitch":77,"articulation":"standard","articulation_tags":["standard","long"],"duration":0.04861111111111111,"velocity":32.20785345799099}
{"position":55.166666666666664,"instrument":"TheGrandeurPiano","level2":0,"level3":null,"pitch":77,"articulation":"standard","articulation_tags":["standard","long"],"duration":0.125,"velocity":32.20785345799099}
{"position":55.177083333333336,"instrument":"TheGrandeurPiano","level2":0,"level3":null,"pitch":77,"articulation":"standard","articulation_tags":["standard","long"],"duration":0.034722222222222224,"velocity":32.20785345799099}
{"position":55.229166666666664,"instrument":"TheGrandeurPiano","level2":0,"level3":null,"pitch":78,"articulation":"standard","articulation_tags":["standard","long"],"duration":0.027777777777777776,"velocity":32.20785345799099}
{"position":55.270833333333336,"instrument":"TheGrandeurPiano","level2":0,"level3":null,"pitch":78,"articulation":"standard","articulation_tags":["standard","long"],"duration":0.027777777777777776,"velocity":32.20785345799099}
{"position":55.322916666666664,"instrument":"TheGrandeurPiano","level2":0,"level3":null,"pitch":79,"articulation":"standard","articulation_tags":["standard","long"],"duration":0.034722222222222224,"velocity":32.20785345799099}
{"position":55.354166666666664,"instrument":"TheGrandeurPiano","level2":0,"level3":null,"pitch":79,"articulation":"standard","articulation_tags":["standard","long"],"duration":0.1527777777777778,"velocity":32.20785345799099}
{"position":55.375,"instrument":"TheGrandeurPiano","level2":0,"level3":null,"pitch":79,"articulation":"standard","articulation_tags":["standard","long"],"duration":0.04861111111111111,"velocity":32.20785345799099}
{"position":55.447916666666664,"instrument":"TheGrandeurPiano","level2":0,"level3":null,"pitch":80,"articulation":"standard","articulation_tags":["standard","long"],"duration":0.06944444444444445,"velocity":33.07960248140792}
{"position":55.552083333333336,"instrument":"TheGrandeurPiano","level2":0,"level3":null,"pitch":80,"articulation":"standard","articulation_tags":["standard","long"],"duration":0.10416666666666667,"velocity":33.07960248140792}
{"position":55.583333333333336,"instrument":"TheGrandeurPiano","level2":0,"level3":null,"pitch":80,"articulation":"standard","articulation_tags":["standard","long"],"duration":0.1736111111111111,"velocity":33.07960248140792}
{"position":55.708333333333336,"instrument":"TheGrandeurPiano","level2":0,"level3":null,"pitch":81,"articulation":"standard","articulation_tags":["standard","long"],"duration":0.1597222222222222,"velocity":33.07960248140792}
{"position":55.8125,"instrument":"Bassoon","level2":0,"level3":7,"pitch":72,"articulation":"staccato","articulation_tags":["staccato","st","short"],"duration":0.25,"velocity":86.93452375951122}
{"position":55.84375,"instrument":"TheGrandeurPiano","level2":0,"level3":null,"pitch":81,"articulation":"standard","articulation_tags":["standard","long"],"duration":0.2013888888888889,"velocity":33.07960248140792}
{"position":55.927083333333336,"instrument":"CorAnglais","level2":0,"level3":6,"pitch":73,"articulation":"marcato","articulation_tags":["marcato","short"],"duration":0.25,"velocity":86.7122854895567}
{"position":55.947916666666664,"instrument":"TheGrandeurPiano","level2":0,"level3":null,"pitch":81,"articulation":"standard","articulation_tags":["standard","long"],"duration":0.25,"velocity":33.07960248140792}
{"position":56.15625,"instrument":"TheGrandeurPiano","level2":0,"level3":null,"pitch":81,"articulation":"standard","articulation_tags":["standard","long"],"duration":0.2361111111111111,"velocity":33.07960248140792}
{"position":56.28125,"instrument":"CorAnglais","level2":0,"level3":8,"pitch":75,"articulation":"tenuto","articulation_tags":["tenuto","t","short"],"duration":0.25,"velocity":87.27140767701313}
{"position":56.322916666666664,"instrument":"TheGrandeurPiano","level2":0,"level3":null,"pitch":82,"articulation":"standard","articulation_tags":["standard","long"],"duration":0.4583333333333333,"velocity":33.07960248140792}
{"position":56.5,"instrument":"TheGrandeurPiano","level2":0,"level3":null,"pitch":82,"articulation":"standard","articulation_tags":["standard","long"],"duration":0.2638888888888889,"velocity":33.07960248140792}
{"position":56.90625,"instrument":"TheGrandeurPiano","level2":0,"level3":null,"pitch":82,"articulation":"standard","articulation_tags":["standard","long"],"duration":0.2986111111111111,"velocity":35.33356759466443}
{"position":56.958333333333336,"instrument":"Bassoon","level2":0,"level3":7,"pitch":72,"articulation":"staccato","articulation_tags":["staccato","st","short"],"duration":0.25,"velocity":87.79121138016261}
{"position":57.010416666666664,"instrument":"TheGrandeurPiano","level2":0,"level3":null,"pitch":82,"articulation":"standard","articulation_tags":["standard","long"],"duration":2.2913385826771653,"velocity":35.33356759466443}
{"position":57.354166666666664,"instrument":"TheGrandeurPiano","level2":0,"level3":null,"pitch":82,"articulation":"standard","articulation_tags":["standard","long"],"duration":0.3402777777777778,"velocity":35.33356759466443}
{"position":57.6875,"instrument":"CorAnglais","level2":0,"level3":8,"pitch":75,"articulation":"tenuto","articulation_tags":["tenuto","t","short"],"duration":0.25,"velocity":88.49419343112795}
{"position":57.864583333333336,"instrument":"TheGrandeurPiano","level2":0,"level3":null,"pitch":82,"articulation":"standard","articulation_tags":["standard","long"],"duration":0.3819444444444444,"velocity":35.33356759466443}
{"position":58.104166666666664,"instrument":"Bassoon","level2":0,"level3":6,"pitch":73,"articulation":"marcato","articulation_tags":["marcato","short"],"duration":0.25,"velocity":88.4760902069552}
{"position":58.4375,"instrument":"TheGrandeurPiano","level2":0,"level3":null,"pitch":82,"articulation":"standard","articulation_tags":["standard","long"],"duration":0.4305555555555556,"velocity":35.33356759466443}
{"position":58.604166666666664,"instrument":"Bassoon","level2":0,"level3":6,"pitch":73,"articulation":"tenuto","articulation_tags":["tenuto","t","short"],"duration":0.25,"velocity":88.49419343112795}
{"position":58.927083333333336,"instrument":"Bassoon","level2":0,"level3":7,"pitch":72,"articulation":"staccato","articulation_tags":["staccato","st","short"],"duration":0.25,"velocity":88.49419343112795}
{"position":59.072916666666664,"instrument":"TheGrandeurPiano","level2":0,"level3":null,"pitch":82,"articulation":"standard","articulation_tags":["standard","long"],"duration":0.4861111111111111,"velocity":35.33356759466443}
{"position":59.770833333333336,"instrument":"CorAnglais","level2":0,"level3":7,"pitch":71,"articulation":"staccato","articulation_tags":["staccato","st","short"],"duration":0.25,"velocity":88.54535679101943}
{"position":59.802083333333336,"instrument":"TheGrandeurPiano","level2":0,"level3":null,"pitch":82,"articulation":"standard","articulation_tags":["standard","long"],"duration":0.5555555555555556,"velocity":37.9652366342994}
{"position":59.979166666666664,"instrument":"Bassoon","level2":0,"level3":6,"pitch":72,"articulation":"tenuto","articulation_tags":["tenuto","t","short"],"duration":0.25,"velocity":88.629645163642}
{"position":60.375,"instrument":"CorAnglais","level2":0,"level3":7,"pitch":71,"articulation":"tenuto","articulation_tags":["tenuto","t","short"],"duration":0.25,"velocity":88.629645163642}
{"position":60.635416666666664,"instrument":"TheGrandeurPiano","level2":0,"level3":null,"pitch":82,"articulation":"standard","articulation_tags":["standard","long"],"duration":0.6458333333333334,"velocity":37.339267084537724}
{"position":60.979166666666664,"instrument":"CorAnglais","level2":0,"level3":6,"pitch":72,"articulation":"tenuto","articulation_tags":["tenuto","t","short"],"duration":0.25,"velocity":88.74686608158586}
{"position":61.354166666666664,"instrument":"CorAnglais","level2":0,"level3":7,"pitch":71,"articulation":"tenuto","articulation_tags":["tenuto","t","short"],"duration":0.25,"velocity":88.74686608158586}
{"position":61.427083333333336,"instrument":"Bassoon","level2":0,"level3":6,"pitch":72,"articulation":"tenuto","articulation_tags":["tenuto","t","short"],"duration":0.25,"velocity":88.74686608158586}
{"position":61.46875,"instrument":"Piccolo","level2":0,"level3":8,"pitch":74,"articulation":"tenuto","articulation_tags":["tenuto","t","short"],"duration":0.25,"velocity":88.74686608158586}
{"position":61.541666666666664,"instrument":"TheGrandeurPiano","level2":0,"level3":null,"pitch":82,"articulation":"standard","articulation_tags":["standard","long"],"duration":1.2152777777777777,"velocity":37.9652366342994}
{"position":61.59375,"instrument":"TheGrandeurPiano","level2":0,"level3":null,"pitch":82,"articulation":"standard","articulation_tags":["standard","long"],"duration":0.7708333333333334,"velocity":37.9652366342994}
{"position":61.6875,"instrument":"CorAnglais","level2":0,"level3":7,"pitch":72,"articulation":"tenuto","articulation_tags":["tenuto","t","short"],"duration":0.25,"velocity":88.18359700182673}
{"position":61.8125,"instrument":"Bassoon","level2":0,"level3":6,"pitch":72,"articulation":"tenuto","articulation_tags":["tenuto","t","short"],"duration":0.25,"velocity":88.18359700182673}
{"position":61.854166666666664,"instrument":"Clarinet","level2":0,"level3":7,"pitch":72,"articulation":"staccato","articulation_tags":["staccato","st","short"],"duration":0.25,"velocity":88.18359700182673}
{"position":62.75,"instrument":"TheGrandeurPiano","level2":0,"level3":null,"pitch":82,"articulation":"standard","articulation_tags":["standard","long"],"duration":0.9861111111111112,"velocity":39.73999190677516}
{"position":63.364583333333336,"instrument":"TheGrandeurPiano","level2":0,"level3":null,"pitch":81,"articulation":"standard","articulation_tags":["standard","long"],"duration":1.0069444444444444,"velocity":38.573050519761445}
{"position":64.23958333333333,"instrument":"TheGrandeurPiano","level2":0,"level3":null,"pitch":81,"articulation":"standard","articulation_tags":["standard","long"],"duration":1.5208333333333333,"velocity":38.573050519761445}
{"position":64.63541666666667,"instrument":"CorAnglais","level2":0,"level3":8,"pitch":74,"articulation":"tenuto","articulation_tags":["tenuto","t","short"],"duration":0.25,"velocity":87.90434149005443}
{"position":64.875,"instrument":"TheGrandeurPiano","level2":0,"level3":null,"pitch":81,"articulation":"standard","articulation_tags":["standard","long"],"duration":0.9166666666666666,"velocity":39.73999190677516}
{"position":66.25,"instrument":"TheGrandeurPiano","level2":0,"level3":null,"pitch":80,"articulation":"standard","articulation_tags":["standard","long"],"duration":0.8611111111111112,"velocity":37.9652366342994}
{"position":66.52083333333333,"instrument":"TheGrandeurPiano","level2":0,"level3":null,"pitch":80,"articulation":"standard","articulation_tags":["standard","long"],"duration":2.2598425196850394,"velocity":37.9652366342994}
{"position":66.8125,"instrument":"CorAnglais","level2":0,"level3":9,"pitch":74,"articulation":"staccato","articulation_tags":["staccato","st","short"],"duration":0.25,"velocity":86.79349921058275}
{"position":66.8125,"instrument":"Bassoon","level2":0,"level3":10,"pitch":74,"articulation":"staccato","articulation_tags":["staccato","st","short"],"duration":0.25,"velocity":86.79349921058275}
{"position":66.86458333333333,"instrument":"Piccolo","level2":0,"level3":10,"pitch":74,"articulation":"staccato","articulation_tags":["staccato","st","short"],"duration":0.25,"velocity":86.79349921058275}
{"position":67.15625,"instrument":"CorAnglais","level2":0,"level3":10,"pitch":74,"articulation":"staccato","articulation_tags":["staccato","st","short"],"duration":0.25,"velocity":86.79349921058275}
{"position":67.29166666666667,"instrument":"Bassoon","level2":0,"level3":9,"pitch":73,"articulation":"staccato","articulation_tags":["staccato","st","short"],"duration":0.25,"velocity":86.79349921058275}
{"position":67.33333333333333,"instrument":"Clarinet","level2":0,"level3":8,"pitch":73,"articulation":"staccato","articulation_tags":["staccato","st","short"],"duration":0.25,"velocity":86.79349921058275}
{"position":67.55208333333333,"instrument":"TheGrandeurPiano","level2":0,"level3":null,"pitch":80,"articulation":"standard","articulation_tags":["standard","long"],"duration":0.8472222222222222,"velocity":37.339267084537724}
{"position":68.10416666666667,"instrument":"CorAnglais","level2":0,"level3":9,"pitch":73,"articulation":"staccato","articulation_tags":["staccato","st","short"],"duration":0.25,"velocity":86.10899951139831}
{"position":68.82291666666667,"instrument":"TheGrandeurPiano","level2":0,"level3":null,"pitch":79,"articulation":"standard","articulation_tags":["standard","long"],"duration":0.9236111111111112,"velocity":39.73999190677516}
{"position":68.85416666666667,"instrument":"CorAnglais","level2":0,"level3":9,"pitch":73,"articulation":"staccato","articulation_tags":["staccato","st","short"],"duration":0.25,"velocity":85.43302540563042}
{"position":69.01041666666667,"instrument":"Bassoon","level2":0,"level3":8,"pitch":73,"articulation":"tenuto","articulation_tags":["tenuto","t","short"],"duration":0.25,"velocity":85.43302540563042}
{"position":69.5,"instrument":"CorAnglais","level2":0,"level3":8,"pitch":73,"articulation":"tenuto","articulation_tags":["tenuto","t","short"],"duration":0.25,"velocity":85.43302540563042}
{"position":69.51041666666667,"instrument":"Bassoon","level2":0,"level3":9,"pitch":73,"articulation":"tenuto","articulation_tags":["tenuto","t","short"],"duration":0.25,"velocity":85.43302540563042}
{"position":69.875,"instrument":"CorAnglais","level2":0,"level3":8,"pitch":73,"articulation":"tenuto","articulation_tags":["tenuto","t","short"],"duration":0.25,"velocity":85.43302540563042}
{"position":70.20833333333333,"instrument":"TheGrandeurPiano","level2":0,"level3":null,"pitch":79,"articulation":"standard","articulation_tags":["standard","long"],"duration":0.8402777777777778,"velocity":38.573050519761445}
{"position":70.26041666666667,"instrument":"TheGrandeurPiano","level2":0,"level3":null,"pitch":79,"articulation":"standard","articulation_tags":["standard","long"],"duration":1.2777777777777777,"velocity":38.573050519761445}
{"position":70.57291666666667,"instrument":"CorAnglais","level2":0,"level3":10,"pitch":74,"articulation":"tenuto","articulation_tags":["tenuto","t","short"],"duration":0.25,"velocity":84.40787457247352}
{"position":71.46875,"instrument":"TheGrandeurPiano","level2":0,"level3":null,"pitch":78,"articulation":"standard","articulation_tags":["standard","long"],"duration":0.7708333333333334,"velocity":39.73999190677516}
{"position":72.17708333333333,"instrument":"TheGrandeurPiano","level2":0,"level3":null,"pitch":78,"articulation":"standard","articulation_tags":["standard","long"],"duration":0.7638888888888888,"velocity":37.9652366342994}
{"position":72.625,"instrument":"TheGrandeurPiano","level2":0,"level3":null,"pitch":78,"articulation":"standard","articulation_tags":["standard","long"],"duration":0.7222222222222222,"velocity":37.9652366342994}
{"position":73.33333333333333,"instrument":"TheGrandeurPiano","level2":0,"level3":null,"pitch":78,"articulation":"standard","articulation_tags":["standard","long"],"duration":0.5486111111111112,"velocity":37.339267084537724}
{"position":73.70833333333333,"instrument":"TheGrandeurPiano","level2":0,"level3":null,"pitch":77,"articulation":"standard","articulation_tags":["standard","long"],"duration":0.6736111111111112,"velocity":37.9652366342994}
{"position":74.15625,"instrument":"TheGrandeurPiano","level2":0,"level3":null,"pitch":77,"articulation":"standard","articulation_tags":["standard","long"],"duration":0.4236111111111111,"velocity":37.9652366342994}
{"position":74.6875,"instrument":"CorAnglais","level2":0,"level3":10,"pitch":74,"articulation":"tenuto","articulation_tags":["tenuto","t","short"],"duration":0.25,"velocity":81.4045400770951}
{"position":74.71875,"instrument":"TheGrandeurPiano","level2":0,"level3":null,"pitch":77,"articulation":"standard","articulation_tags":["standard","long"],"duration":0.6458333333333334,"velocity":39.73999190677516}
{"position":74.79166666666667,"instrument":"TheGrandeurPiano","level2":0,"level3":null,"pitch":77,"articulation":"standard","articulation_tags":["standard","long"],"duration":0.3333333333333333,"velocity":39.73999190677516}
{"position":75.1875,"instrument":"TheGrandeurPiano","level2":1,"level3":null,"pitch":81,"articulation":"standard","articulation_tags":["standard","long"],"duration":0.0,"velocity":39.73999190677516}
{"position":75.1875,"instrument":"TheGrandeurPiano","level2":1,"level3":null,"pitch":81,"articulation":"standard","articulation_tags":["standard","long"],"duration":0.013888888888888888,"velocity":39.73999190677516}
{"position":75.1875,"instrument":"TheGrandeurPiano","level2":2,"level3":null,"pitch":82,"articulation":"standard","articulation_tags":["standard","long"],"duration":0.006944444444444444,"velocity":39.73999190677516}
{"position":75.19791666666667,"instrument":"TheGrandeurPiano","level2":2,"level3":null,"pitch":82,"articulation":"standard","articulation_tags":["standard","long"],"duration":0.027777777777777776,"velocity":39.73999190677516}
{"position":75.20833333333333,"instrument":"CorAnglais","level2":1,"level3":0,"pitch":79,"articulation":"tenuto","articulation_tags":["tenuto","t","short"],"duration":0.25,"velocity":91.21597536649718}
{"position":75.20833333333333,"instrument":"Piccolo","level2":1,"level3":1,"pitch":78,"articulation":"tenuto","articulation_tags":["tenuto","t","short"],"duration":0.25,"velocity":91.21597536649718}
{"position":75.20833333333333,"instrument":"Clarinet","level2":1,"level3":1,"pitch":78,"articulation":"staccato","articulation_tags":["staccato","st","short"],"duration":0.25,"velocity":91.21597536649718}
{"position":75.20833333333333,"instrument":"Clarinet","level2":1,"level3":1,"pitch":78,"articulation":"staccato","articulation_tags":["staccato","st","short"],"duration":0.25,"velocity":91.21597536649718}
{"position":75.20833333333333,"instrument":"TheGrandeurPiano","level2":1,"level3":null,"pitch":81,"articulation":"standard","articulation_tags":["standard","long"],"duration":0.034722222222222224,"velocity":39.73999190677516}
{"position":75.23958333333333,"instrument":"TheGrandeurPiano","level2":2,"level3":null,"pitch":83,"articulation":"standard","articulation_tags":["standard","long"],"duration":0.05555555555555555,"velocity":39.73999190677516}
{"position":75.23958333333333,"instrument":"Cello","level2":1,"level3":0,"pitch":79,"articulation":"pizzicato","articulation_tags":["pizzicato","pz","short"],"duration":1.0,"velocity":90.67657153806863}
{"position":75.25,"instrument":"Cello","level2":1,"level3":0,"pitch":79,"articulation":"pizzicato","articulation_tags":["pizzicato","pz","short"],"duration":1.0,"velocity":90.67657153806863}
{"position":75.26041666666667,"instrument":"Cello","level2":1,"level3":1,"pitch":78,"articulation":"pizzicato","articulation_tags":["pizzicato","pz","short"],"duration":1.0,"velocity":90.67657153806863}
{"position":75.27083333333333,"instrument":"TheGrandeurPiano","level2":1,"level3":null,"pitch":80,"articulation":"standard","articulation_tags":["standard","long"],"duration":0.05555555555555555,"velocity":39.73999190677516}
{"position":75.27083333333333,"instrument":"Cello","level2":1,"level3":1,"pitch":78,"articulation":"collegno","articulation_tags":["collegno","cl","short"],"duration":1.0,"velocity":90.15024916155612}
{"position":75.29166666666667,"instrument":"TheGrandeurPiano","level2":0,"level3":null,"pitch":77,"articulation":"standard","articulation_tags":["standard","long"],"duration":0.2638888888888889,"velocity":39.73999190677516}
{"position":75.32291666666667,"instrument":"TheGrandeurPiano","level2":2,"level3":null,"pitch":83,"articulation":"standard","articulation_tags":["standard","long"],"duration":0.08333333333333333,"velocity":39.73999190677516}
{"position":75.35416666666667,"instrument":"TheGrandeurPiano","level2":1,"level3":null,"pitch":80,"articulation":"standard","articulation_tags":["standard","long"],"duration":0.0763888888888889,"velocity":42.42408385567215}
{"position":75.375,"instrument":"Viola","level2":1,"level3":0,"pitch":80,"articulation":"pizzicato","articulation_tags":["pizzicato","pz","short"],"duration":1.0,"velocity":89.63828817455146}
{"position":75.39583333333333,"instrument":"Viola","level2":1,"level3":2,"pitch":79,"articulation":"pizzicato","articulation_tags":["pizzicato","pz","short"],"duration":1.0,"velocity":89.63828817455146}
{"position":75.39583333333333,"instrument":"Viola","level2":1,"level3":3,"pitch":78,"articulation":"collegno","articulation_tags":["collegno","cl","short"],"duration":1.0,"velocity":89.63828817455146}
{"position":75.39583333333333,"instrument":"Viola","level2":1,"level3":3,"pitch":78,"articulation":"collegno","articulation_tags":["collegno","cl","short"],"duration":1.0,"velocity":89.63828817455146}
{"position":75.40625,"instrument":"TheGrandeurPiano","level2":1,"level3":null,"pitch":80,"articulation":"standard","articulation_tags":["standard","long"],"duration":0.18055555555555555,"velocity":42.42408385567215}
{"position":75.40625,"instrument":"Violin","level2":1,"level3":3,"pitch":78,"articulation":"collegno","articulation_tags":["collegno","cl","short"],"duration":1.0,"velocity":89.14209877194527}
{"position":75.42708333333333,"instrument":"Violin","level2":1,"level3":2,"pitch":79,"articulation":"pizzicato","articulation_tags":["pizzicato","pz","short"],"duration":1.0,"velocity":89.14209877194527}
{"position":75.44791666666667,"instrument":"CorAnglais","level2":1,"level3":2,"pitch":79,"articulation":"tenuto","articulation_tags":["tenuto","t","short"],"duration":0.25,"velocity":89.14209877194527}
{"position":75.45833333333333,"instrument":"Piccolo","level2":1,"level3":1,"pitch":78,"articulation":"staccato","articulation_tags":["staccato","st","short"],"duration":0.25,"velocity":89.14209877194527}
{"position":75.45833333333333,"instrument":"TheGrandeurPiano","level2":2,"level3":null,"pitch":84,"articulation":"standard","articulation_tags":["standard","long"],"duration":0.11805555555555555,"velocity":42.42408385567215}
{"position":75.46875,"instrument":"Clarinet","level2":1,"level3":0,"pitch":80,"articulation":"marcato","articulation_tags":["marcato","short"],"duration":0.25,"velocity":89.14209877194527}
{"position":75.46875,"instrument":"Clarinet","level2":1,"level3":3,"pitch":78,"articulation":"staccato","articulation_tags":["staccato","st","short"],"duration":0.25,"velocity":88.629645163642}
{"position":75.47916666666667,"instrument":"Violin","level2":1,"level3":1,"pitch":77,"articulation":"collegno","articulation_tags":["collegno","cl","short"],"duration":1.0,"velocity":88.629645163642}
{"position":75.52083333333333,"instrument":"Violin","level2":1,"level3":3,"pitch":78,"articulation":"collegno","articulation_tags":["collegno","cl","short"],"duration":1.0,"velocity":88.629645163642}
{"position":75.61458333333333,"instrument":"TheGrandeurPiano","level2":1,"level3":null,"pitch":79,"articulation":"standard","articulation_tags":["standard","long"],"duration":0.1111111111111111,"velocity":42.42408385567215}
{"position":75.63541666666667,"instrument":"Violin","level2":1,"level3":2,"pitch":80,"articulation":"pizzicato","articulation_tags":["pizzicato","pz","short"],"duration":1.0,"velocity":88.10961735820078}
{"position":75.63541666666667,"instrument":"TheGrandeurPiano","level2":2,"level3":null,"pitch":84,"articulation":"standard","articulation_tags":["standard","long"],"duration":0.1527777777777778,"velocity":42.42408385567215}
{"position":75.66666666666667,"instrument":"Violin","level2":1,"level3":4,"pitch":79,"articulation":"pizzicato","articulation_tags":["pizzicato","pz","short"],"duration":1.0,"velocity":88.10961735820078}
{"position":75.66666666666667,"instrument":"Violin","level2":1,"level3":5,"pitch":78,"articulation":"pizzicato","articulation_tags":["pizzicato","pz","short"],"duration":1.0,"velocity":88.10961735820078}
{"position":75.66666666666667,"instrument":"Violin","level2":1,"level3":5,"pitch":78,"articulation":"pizzicato","articulation_tags":["pizzicato","pz","short"],"duration":1.0,"velocity":88.10961735820078}
{"position":75.66666666666667,"instrument":"Flute","level2":1,"level3":5,"pitch":78,"articulation":"staccato","articulation_tags":["staccato","st","short"],"duration":0.25,"velocity":88.10961735820078}
{"position":75.66666666666667,"instrument":"TheGrandeurPiano","level2":2,"level3":null,"pitch":84,"articulation":"standard","articulation_tags":["standard","long"],"duration":0.3958333333333333,"velocity":42.42408385567215}
{"position":75.67708333333333,"instrument":"Oboe","level2":1,"level3":6,"pitch":79,"articulation":"tenuto","articulation_tags":["tenuto","t","short"],"duration":0.25,"velocity":88.10961735820078}
{"position":75.67708333333333,"instrument":"Oboe","level2":1,"level3":6,"pitch":79,"articulation":"tenuto","articulation_tags":["tenuto","t","short"],"duration":0.25,"velocity":88.10961735820078}
{"position":75.67708333333333,"instrument":"Marimba","level2":1,"level3":7,"pitch":79,"articulation":"hits","articulation_tags":["hits","short"],"duration":0.25,"velocity":88.10961735820078}
{"position":75.67708333333333,"instrument":"Marimba","level2":1,"level3":0,"pitch":80,"articulation":"hits","articulation_tags":["hits","short"],"duration":0.25,"velocity":88.10961735820078}
{"position":75.67708333333333,"instrument":"TheGrandeurPiano","level2":1,"level3":null,"pitch":79,"articulation":"standard","articulation_tags":["standard","long"],"duration":0.1597222222222222,"velocity":42.42408385567215}
{"position":75.6875,"instrument":"TheGrandeurPiano","level2":0,"level3":null,"pitch":76,"articulation":"standard","articulation_tags":["standard","long"],"duration":0.75,"velocity":42.42408385567215}
{"position":75.69791666666667,"instrument":"CorAnglais","level2":1,"level3":6,"pitch":79,"articulation":"tenuto","articulation_tags":["tenuto","t","short"],"duration":0.25,"velocity":87.56240229624802}
{"position":75.70833333333333,"instrument":"Piccolo","level2":1,"level3":7,"pitch":78,"articulation":"staccato","articulation_tags":["staccato","st","short"],"duration":0.25,"velocity":87.56240229624802}
{"position":75.73958333333333,"instrument":"Clarinet","level2":1,"level3":4,"pitch":79,"articulation":"staccato","articulation_tags":["staccato","st","short"],"duration":0.25,"velocity":87.56240229624802}
{"position":75.78125,"instrument":"Clarinet","level2":1,"level3":7,"pitch":78,"articulation":"staccato","articulation_tags":["staccato","st","short"],"duration":0.25,"velocity":87.03441784942645}
{"position":75.78125,"instrument":"Vibraphone","level2":1,"level3":4,"pitch":79,"articulation":"hits","articulation_tags":["hits","short"],"duration":0.25,"velocity":87.03441784942645}
{"position":75.83333333333333,"instrument":"Vibraphone","level2":1,"level3":3,"pitch":78,"articulation":"hits","articulation_tags":["hits","short"],"duration":0.25,"velocity":87.03441784942645}
{"position":75.83333333333333,"instrument":"TubularBells","level2":1,"level3":5,"pitch":78,"articulation":"hits_dumped","articulation_tags":["hits_dumped","short","hits","dumped"],"duration":0.25,"velocity":87.03441784942645}
{"position":75.86458333333333,"instrument":"TheGrandeurPiano","level2":2,"level3":null,"pitch":85,"articulation":"standard","articulation_tags":["standard","long"],"duration":0.19444444444444445,"velocity":38.573050519761445}
{"position":75.88541666666667,"instrument":"TubularBells","level2":1,"level3":5,"pitch":78,"articulation":"hits_dumped","articulation_tags":["hits_dumped","short","hits","dumped"],"duration":0.25,"velocity":87.03441784942645}
{"position":75.94791666666667,"instrument":"CorAnglais","level2":1,"level3":8,"pitch":79,"articulation":"staccato","articulation_tags":["staccato","st","short"],"duration":0.25,"velocity":86.4865164179446}
{"position":75.94791666666667,"instrument":"Flute","level2":1,"level3":9,"pitch":79,"articulation":"staccato","articulation_tags":["staccato","st","short"],"duration":0.25,"velocity":86.4865164179446}
{"position":75.94791666666667,"instrument":"Oboe","level2":1,"level3":9,"pitch":79,"articulation":"staccato","articulation_tags":["staccato","st","short"],"duration":0.25,"velocity":86.4865164179446}
{"position":75.94791666666667,"instrument":"Oboe","level2":1,"level3":1,"pitch":77,"articulation":"staccato","articulation_tags":["staccato","st","short"],"duration":0.25,"velocity":86.4865164179446}
{"position":76.01041666666667,"instrument":"Piccolo","level2":1,"level3":5,"pitch":78,"articulation":"staccato","articulation_tags":["staccato","st","short"],"duration":0.25,"velocity":85.9593280374718}
{"position":76.0625,"instrument":"Clarinet","level2":1,"level3":4,"pitch":80,"articulation":"staccato","articulation_tags":["staccato","st","short"],"duration":0.25,"velocity":85.9593280374718}
{"position":76.07291666666667,"instrument":"Clarinet","level2":1,"level3":10,"pitch":78,"articulation":"staccato","articulation_tags":["staccato","st","short"],"duration":0.25,"velocity":85.9593280374718}
{"position":76.07291666666667,"instrument":"Vibraphone","level2":1,"level3":10,"pitch":78,"articulation":"hits","articulation_tags":["hits","short"],"duration":0.25,"velocity":85.9593280374718}
{"position":76.07291666666667,"instrument":"Vibraphone","level2":1,"level3":11,"pitch":78,"articulation":"hits","articulation_tags":["hits","short"],"duration":0.25,"velocity":85.9593280374718}
{"position":76.07291666666667,"instrument":"Vibraphone","level2":1,"level3":11,"pitch":78,"articulation":"hits","articulation_tags":["hits","short"],"duration":0.25,"velocity":85.9593280374718}
{"position":76.13541666666667,"instrument":"TheGrandeurPiano","level2":1,"level3":null,"pitch":78,"articulation":"standard","articulation_tags":["standard","long"],"duration":0.125,"velocity":38.573050519761445}
{"position":76.15625,"instrument":"TheGrandeurPiano","level2":2,"level3":null,"pitch":85,"articulation":"standard","articulation_tags":["standard","long"],"duration":0.24305555555555555,"velocity":38.573050519761445}
{"position":76.16666666666667,"instrument":"Vibraphone","level2":1,"level3":9,"pitch":79,"articulation":"hits","articulation_tags":["hits","short"],"duration":0.25,"velocity":85.41063053964118}
{"position":76.16666666666667,"instrument":"Marimba","level2":1,"level3":10,"pitch":78,"articulation":"hits","articulation_tags":["hits","short"],"duration":0.25,"velocity":85.41063053964118}
{"position":76.17708333333333,"instrument":"Marimba","level2":1,"level3":6,"pitch":79,"articulation":"hits","articulation_tags":["hits","short"],"duration":0.25,"velocity":85.41063053964118}
{"position":76.19791666666667,"instrument":"CorAnglais","level2":1,"level3":0,"pitch":80,"articulation":"tenuto","articulation_tags":["tenuto","t","short"],"duration":0.25,"velocity":84.88437649076806}
{"position":76.21875,"instrument":"Flute","level2":1,"level3":5,"pitch":78,"articulation":"staccato","articulation_tags":["staccato","st","short"],"duration":0.25,"velocity":84.88437649076806}
{"position":76.22916666666667,"instrument":"Cello","level2":1,"level3":1,"pitch":78,"articulation":"collegno","articulation_tags":["collegno","cl","short"],"duration":1.0,"velocity":84.88437649076806}
{"position":76.26041666666667,"instrument":"TheGrandeurPiano","level2":2,"level3":null,"pitch":85,"articulation":"standard","articulation_tags":["standard","long"],"duration":0.4166666666666667,"velocity":38.573050519761445}
{"position":76.26041666666667,"instrument":"Piccolo","level2":1,"level3":10,"pitch":78,"articulation":"tenuto","articulation_tags":["tenuto","t","short"],"duration":0.25,"velocity":84.88437649076806}
{"position":76.27083333333333,"instrument":"TheGrandeurPiano","level2":0,"level3":null,"pitch":76,"articulation":"standard","articulation_tags":["standard","long"],"duration":0.13194444444444445,"velocity":38.573050519761445}
{"position":76.27083333333333,"instrument":"Cello","level2":1,"level3":1,"pitch":78,"articulation":"collegno","articulation_tags":["collegno","cl","short"],"duration":1.0,"velocity":84.88437649076806}
{"position":76.3125,"instrument":"Cello","level2":1,"level3":4,"pitch":80,"articulation":"pizzicato","articulation_tags":["pizzicato","pz","short"],"duration":1.0,"velocity":84.88437649076806}
{"position":76.3125,"instrument":"TheGrandeurPiano","level2":1,"level3":null,"pitch":77,"articulation":"standard","articulation_tags":["standard","long"],"duration":0.10416666666666667,"velocity":38.573050519761445}
{"position":76.35416666666667,"instrument":"Cello","level2":1,"level3":7,"pitch":79,"articulation":"collegno","articulation_tags":["collegno","cl","short"],"duration":1.0,"velocity":84.33474466133774}
{"position":76.38541666666667,"instrument":"Clarinet","level2":1,"level3":2,"pitch":80,"articulation":"staccato","articulation_tags":["staccato","st","short"],"duration":0.25,"velocity":84.33474466133774}
{"position":76.42708333333333,"instrument":"TheGrandeurPiano","level2":1,"level3":null,"pitch":77,"articulation":"standard","articulation_tags":["standard","long"],"duration":0.1597222222222222,"velocity":42.42408385567215}
{"position":76.4375,"instrument":"CorAnglais","level2":1,"level3":4,"pitch":79,"articulation":"tenuto","articulation_tags":["tenuto","t","short"],"duration":0.25,"velocity":83.80960263475991}
{"position":76.44791666666667,"instrument":"Clarinet","level2":1,"level3":7,"pitch":79,"articulation":"staccato","articulation_tags":["staccato","st","short"],"duration":0.25,"velocity":83.80960263475991}
{"position":76.46875,"instrument":"TheGrandeurPiano","level2":0,"level3":null,"pitch":76,"articulation":"standard","articulation_tags":["standard","long"],"duration":0.09722222222222222,"velocity":42.42408385567215}
{"position":76.46875,"instrument":"Viola","level2":1,"level3":2,"pitch":79,"articulation":"pizzicato","articulation_tags":["pizzicato","pz","short"],"duration":1.0,"velocity":83.80960263475991}
{"position":76.5,"instrument":"Piccolo","level2":1,"level3":7,"pitch":79,"articulation":"staccato","articulation_tags":["staccato","st","short"],"duration":0.25,"velocity":83.25885878303431}
{"position":76.51041666666667,"instrument":"Viola","level2":1,"level3":2,"pitch":79,"articulation":"collegno","articulation_tags":["collegno","cl","short"],"duration":1.0,"velocity":83.25885878303431}
{"position":76.54166666666667,"instrument":"Viola","level2":1,"level3":3,"pitch":78,"articulation":"collegno","articulation_tags":["collegno","cl","short"],"duration":1.0,"velocity":83.25885878303431}
{"position":76.54166666666667,"instrument":"Viola","level2":1,"level3":1,"pitch":78,"articulation":"collegno","articulation_tags":["collegno","cl","short"],"duration":1.0,"velocity":83.25885878303431}
{"position":76.55208333333333,"instrument":"Violin","level2":1,"level3":3,"pitch":78,"articulation":"collegno","articulation_tags":["collegno","cl","short"],"duration":1.0,"velocity":83.25885878303431}
{"position":76.58333333333333,"instrument":"Violin","level2":1,"level3":0,"pitch":80,"articulation":"pizzicato","articulation_tags":["pizzicato","pz","short"],"duration":1.0,"velocity":83.25885878303431}
{"position":76.59375,"instrument":"Violin","level2":1,"level3":4,"pitch":79,"articulation":"pizzicato","articulation_tags":["pizzicato","pz","short"],"duration":1.0,"velocity":83.25885878303431}
{"position":76.59375,"instrument":"TheGrandeurPiano","level2":1,"level3":null,"pitch":77,"articulation":"standard","articulation_tags":["standard","long"],"duration":0.0625,"velocity":42.42408385567215}
{"position":76.61458333333333,"instrument":"TheGrandeurPiano","level2":0,"level3":null,"pitch":76,"articulation":"standard","articulation_tags":["standard","long"],"duration":0.06944444444444445,"velocity":42.42408385567215}
{"position":76.625,"instrument":"Clarinet","level2":1,"level3":1,"pitch":78,"articulation":"staccato","articulation_tags":["staccato","st","short"],"duration":0.25,"velocity":82.73506244697674}
{"position":76.63541666666667,"instrument":"Violin","level2":1,"level3":0,"pitch":80,"articulation":"pizzicato","articulation_tags":["pizzicato","pz","short"],"duration":1.0,"velocity":82.73506244697674}
{"position":76.66666666666667,"instrument":"Violin","level2":1,"level3":4,"pitch":79,"articulation":"pizzicato","articulation_tags":["pizzicato","pz","short"],"duration":1.0,"velocity":82.73506244697674}
{"position":76.66666666666667,"instrument":"Violin","level2":1,"level3":1,"pitch":79,"articulation":"collegno","articulation_tags":["collegno","cl","short"],"duration":1.0,"velocity":82.73506244697674}
{"position":76.67708333333333,"instrument":"TheGrandeurPiano","level2":1,"level3":null,"pitch":76,"articulation":"standard","articulation_tags":["standard","long"],"duration":0.09027777777777778,"velocity":42.42408385567215}
{"position":76.67708333333333,"instrument":"CorAnglais","level2":1,"level3":4,"pitch":79,"articulation":"staccato","articulation_tags":["staccato","st","short"],"duration":0.25,"velocity":82.18297290473089}
{"position":76.69791666666667,"instrument":"TheGrandeurPiano","level2":1,"level3":null,"pitch":76,"articulation":"standard","articulation_tags":["standard","long"],"duration":0.04861111111111111,"velocity":42.42408385567215}
{"position":76.71875,"instrument":"TheGrandeurPiano","level2":0,"level3":null,"pitch":76,"articulation":"standard","articulation_tags":["standard","long"],"duration":0.041666666666666664,"velocity":42.42408385567215}
{"position":76.73958333333333,"instrument":"Piccolo","level2":1,"level3":3,"pitch":79,"articulation":"staccato","articulation_tags":["staccato","st","short"],"duration":0.25,"velocity":81.6608381536366}
{"position":76.76041666666667,"instrument":"Clarinet","level2":1,"level3":0,"pitch":80,"articulation":"staccato","articulation_tags":["staccato","st","short"],"duration":0.25,"velocity":81.6608381536366}
{"position":76.76041666666667,"instrument":"TheGrandeurPiano","level2":1,"level3":null,"pitch":76,"articulation":"standard","articulation_tags":["standard","long"],"duration":0.027777777777777776,"velocity":42.42408385567215}
{"position":76.78125,"instrument":"TheGrandeurPiano","level2":0,"level3":null,"pitch":76,"articulation":"standard","articulation_tags":["standard","long"],"duration":0.020833333333333332,"velocity":42.42408385567215}
{"position":76.78125,"instrument":"Violin","level2":1,"level3":3,"pitch":79,"articulation":"collegno","articulation_tags":["collegno","cl","short"],"duration":1.0,"velocity":81.17406925863682}
{"position":76.80208333333333,"instrument":"Violin","level2":1,"level3":0,"pitch":79,"articulation":"pizzicato","articulation_tags":["pizzicato","pz","short"],"duration":1.0,"velocity":81.17406925863682}
{"position":76.80208333333333,"instrument":"TheGrandeurPiano","level2":1,"level3":null,"pitch":76,"articulation":"standard","articulation_tags":["standard","long"],"duration":0.006944444444444444,"velocity":39.73999190677516}
{"position":76.8125,"instrument":"TheGrandeurPiano","level2":0,"level3":null,"pitch":76,"articulation":"standard","articulation_tags":["standard","long"],"duration":0.0,"velocity":39.73999190677516}
{"position":76.82291666666667,"instrument":"Flute","level2":1,"level3":3,"pitch":79,"articulation":"staccato","articulation_tags":["staccato","st","short"],"duration":0.25,"velocity":80.72894463180216}
{"position":76.82291666666667,"instrument":"Oboe","level2":1,"level3":0,"pitch":79,"articulation":"staccato","articulation_tags":["staccato","st","short"],"duration":0.25,"velocity":80.72894463180216}
{"position":76.88541666666667,"instrument":"TheGrandeurPiano","level2":2,"level3":null,"pitch":86,"articulation":"standard","articulation_tags":["standard","long"],"duration":0.4375,"velocity":39.73999190677516}
{"position":76.96875,"instrument":"TheGrandeurPiano","level2":2,"level3":null,"pitch":86,"articulation":"standard","articulation_tags":["standard","long"],"duration":0.375,"velocity":39.73999190677516}
{"position":77.53125,"instrument":"TheGrandeurPiano","level2":2,"level3":null,"pitch":87,"articulation":"standard","articulation_tags":["standard","long"],"duration":0.4722222222222222,"velocity":39.73999190677516}
{"position":77.55208333333333,"instrument":"TheGrandeurPiano","level2":2,"level3":null,"pitch":87,"articulation":"standard","articulation_tags":["standard","long"],"duration":0.4652777777777778,"velocity":39.73999190677516}
{"position":77.92708333333333,"instrument":"CorAnglais","level2":2,"level3":0,"pitch":81,"articulation":"legato","articulation_tags":["legato","lg"],"duration":0.3125,"velocity":65.16221642177223}
{"position":77.92708333333333,"instrument":"Clarinet","level2":2,"level3":1,"pitch":81,"articulation":"long_fltr","articulation_tags":["long_fltr","fltr","long","flutter"],"duration":0.07291666666666667,"velocity":65.16221642177223}
{"position":78.01041666666667,"instrument":"Clarinet","level2":2,"level3":1,"pitch":81,"articulation":"long_fltr","articulation_tags":["long_fltr","fltr","long","flutter"],"duration":0.8645833333333334,"velocity":65.16221642177223}
{"position":78.17708333333333,"instrument":"Clarinet","level2":2,"level3":2,"pitch":81,"articulation":"legato","articulation_tags":["legato","lg"],"duration":0.4479166666666667,"velocity":65.16221642177223}
{"position":78.17708333333333,"instrument":"Piccolo","level2":2,"level3":3,"pitch":81,"articulation":"legato","articulation_tags":["legato","lg"],"duration":0.010416666666666666,"velocity":65.16221642177223}
{"position":78.17708333333333,"instrument":"Piccolo","level2":2,"level3":3,"pitch":81,"articulation":"legato","articulation_tags":["legato","lg"],"duration":0.65625,"velocity":65.16221642177223}
{"position":78.23958333333333,"instrument":"Cello","level2":2,"level3":0,"pitch":82,"articulation":"short_marcato","articulation_tags":["short_marcato","marcato_s","short","marcato"],"duration":1.0,"velocity":96.58110821088611}
{"position":78.25,"instrument":"TheGrandeurPiano","level2":2,"level3":null,"pitch":87,"articulation":"standard","articulation_tags":["standard","long"],"duration":0.4861111111111111,"velocity":42.92757993905832}
{"position":78.25,"instrument":"TheGrandeurPiano","level2":2,"level3":null,"pitch":87,"articulation":"standard","articulation_tags":["standard","long"],"duration":0.6180555555555556,"velocity":42.92757993905832}
{"position":78.42708333333333,"instrument":"CorAnglais","level2":2,"level3":4,"pitch":81,"articulation":"legato","articulation_tags":["legato","lg"],"duration":0.9791666666666666,"velocity":66.04893441082697}
{"position":78.42708333333333,"instrument":"Cello","level2":2,"level3":5,"pitch":81,"articulation":"spiccato","articulation_tags":["spiccato","sp","short"],"duration":1.0,"velocity":97.02446720541349}
{"position":78.4375,"instrument":"Cello","level2":2,"level3":5,"pitch":81,"articulation":"spiccato","articulation_tags":["spiccato","sp","short"],"duration":1.0,"velocity":97.02446720541349}
{"position":78.625,"instrument":"Clarinet","level2":2,"level3":2,"pitch":82,"articulation":"legato","articulation_tags":["legato","lg"],"duration":1.84375,"velocity":66.04893441082697}
{"position":78.66666666666667,"instrument":"Cello","level2":2,"level3":6,"pitch":81,"articulation":"spiccato","articulation_tags":["spiccato","sp","short"],"duration":1.0,"velocity":97.02446720541349}
{"position":78.66666666666667,"instrument":"Viola","level2":2,"level3":7,"pitch":81,"articulation":"short_hrm","articulation_tags":["short_hrm","hrm_s","short","harmonics"],"duration":1.0,"velocity":97.02446720541349}
{"position":78.83333333333333,"instrument":"Piccolo","level2":2,"level3":3,"pitch":80,"articulation":"legato","articulation_tags":["legato","lg"],"duration":1.9479166666666667,"velocity":66.04893441082697}
{"position":78.875,"instrument":"Clarinet","level2":2,"level3":1,"pitch":80,"articulation":"long_fltr","articulation_tags":["long_fltr","fltr","long","flutter"],"duration":1.8020833333333333,"velocity":66.04893441082697}
{"position":78.92708333333333,"instrument":"Viola","level2":2,"level3":7,"pitch":81,"articulation":"short_hrm","articulation_tags":["short_hrm","hrm_s","short","harmonics"],"duration":1.0,"velocity":97.02446720541349}
{"position":78.97916666666667,"instrument":"TheGrandeurPiano","level2":2,"level3":null,"pitch":87,"articulation":"standard","articulation_tags":["standard","long"],"duration":0.5138888888888888,"velocity":42.42408385567215}
{"position":79.01041666666667,"instrument":"Viola","level2":2,"level3":2,"pitch":82,"articulation":"staccato","articulation_tags":["staccato","st","short"],"duration":1.0,"velocity":96.78043360137028}
{"position":79.17708333333333,"instrument":"TheGrandeurPiano","level2":2,"level3":null,"pitch":88,"articulation":"standard","articulation_tags":["standard","long"],"duration":0.8611111111111112,"velocity":42.42408385567215}
{"position":79.34375,"instrument":"Cello","level2":2,"level3":0,"pitch":82,"articulation":"short_marcato","articulation_tags":["short_marcato","marcato_s","short","marcato"],"duration":1.0,"velocity":97.50553072963986}
{"position":79.39583333333333,"instrument":"Viola","level2":2,"level3":4,"pitch":82,"articulation":"spiccato","articulation_tags":["spiccato","sp","short"],"duration":1.0,"velocity":97.50553072963986}
{"position":79.54166666666667,"instrument":"CorAnglais","level2":2,"level3":3,"pitch":80,"articulation":"legato","articulation_tags":["legato","lg"],"duration":3.6770833333333335,"velocity":67.01106145927972}
{"position":79.73958333333333,"instrument":"TheGrandeurPiano","level2":2,"level3":null,"pitch":88,"articulation":"standard","articulation_tags":["standard","long"],"duration":0.5347222222222222,"velocity":42.92757993905832}
{"position":79.875,"instrument":"Cello","level2":2,"level3":5,"pitch":80,"articulation":"spiccato","articulation_tags":["spiccato","sp","short"],"duration":1.0,"velocity":97.28904028983389}
{"position":80.42708333333333,"instrument":"Cello","level2":2,"level3":0,"pitch":82,"articulation":"staccato","articulation_tags":["staccato","st","short"],"duration":1.0,"velocity":97.28904028983389}
{"position":80.4375,"instrument":"Cello","level2":2,"level3":4,"pitch":82,"articulation":"spiccato","articulation_tags":["spiccato","sp","short"],"duration":1.0,"velocity":97.28904028983389}
{"position":80.45833333333333,"instrument":"Clarinet","level2":2,"level3":2,"pitch":82,"articulation":"legato","articulation_tags":["legato","lg"],"duration":10.75,"velocity":66.57808057966778}
{"position":80.46875,"instrument":"TheGrandeurPiano","level2":2,"level3":null,"pitch":88,"articulation":"standard","articulation_tags":["standard","long"],"duration":1.4861111111111112,"velocity":39.73999190677516}
{"position":80.54166666666667,"instrument":"TheGrandeurPiano","level2":2,"level3":null,"pitch":88,"articulation":"standard","articulation_tags":["standard","long"],"duration":0.5625,"velocity":39.73999190677516}
{"position":80.66666666666667,"instrument":"Clarinet","level2":2,"level3":1,"pitch":80,"articulation":"long_fltr","articulation_tags":["long_fltr","fltr","long","flutter"],"duration":3.375,"velocity":67.66493158559402}
{"position":80.78125,"instrument":"Piccolo","level2":2,"level3":3,"pitch":80,"articulation":"legato","articulation_tags":["legato","lg"],"duration":4.989583333333333,"velocity":67.66493158559402}
{"position":80.96875,"instrument":"Cello","level2":2,"level3":1,"pitch":80,"articulation":"staccato","articulation_tags":["staccato","st","short"],"duration":1.0,"velocity":97.83246579279701}
{"position":81.39583333333333,"instrument":"TheGrandeurPiano","level2":2,"level3":null,"pitch":88,"articulation":"standard","articulation_tags":["standard","long"],"duration":0.5902777777777778,"velocity":42.42408385567215}
{"position":81.41666666666667,"instrument":"Cello","level2":2,"level3":7,"pitch":81,"articulation":"short_hrm","articulation_tags":["short_hrm","hrm_s","short","harmonics"],"duration":1.0,"velocity":97.66388144382162}
{"position":81.52083333333333,"instrument":"Viola","level2":2,"level3":0,"pitch":83,"articulation":"staccato","articulation_tags":["staccato","st","short"],"duration":1.0,"velocity":97.66388144382162}
{"position":81.95833333333333,"instrument":"Cello","level2":2,"level3":5,"pitch":80,"articulation":"spiccato","articulation_tags":["spiccato","sp","short"],"duration":1.0,"velocity":97.66388144382162}
{"position":82.05208333333333,"instrument":"Cello","level2":2,"level3":2,"pitch":82,"articulation":"spiccato","articulation_tags":["spiccato","sp","short"],"duration":1.0,"velocity":97.66388144382162}
{"position":82.28125,"instrument":"TheGrandeurPiano","level2":2,"level3":null,"pitch":88,"articulation":"standard","articulation_tags":["standard","long"],"duration":0.625,"velocity":42.42408385567215}
{"position":82.69791666666667,"instrument":"TheGrandeurPiano","level2":2,"level3":null,"pitch":89,"articulation":"standard","articulation_tags":["standard","long"],"duration":2.4015748031496065,"velocity":42.42408385567215}
{"position":82.76041666666667,"instrument":"Trumpet","level2":2,"level3":7,"pitch":81,"articulation":"long_muted","articulation_tags":["long_muted","muted","mt","long"],"duration":0.9270833333333334,"velocity":68.53144323877333}
{"position":83.07291666666667,"instrument":"Cello","level2":2,"level3":4,"pitch":82,"articulation":"short_hrm","articulation_tags":["short_hrm","hrm_s","short","harmonics"],"duration":1.0,"velocity":98.26572161938667}
{"position":83.21875,"instrument":"CorAnglais","level2":2,"level3":3,"pitch":80,"articulation":"legato","articulation_tags":["legato","lg"],"duration":3.6145833333333335,"velocity":68.53144323877333}
{"position":83.21875,"instrument":"TheGrandeurPiano","level2":2,"level3":null,"pitch":89,"articulation":"standard","articulation_tags":["standard","long"],"duration":0.6597222222222222,"velocity":44.38257632664043}
{"position":83.375,"instrument":"Cello","level2":2,"level3":4,"pitch":81,"articulation":"short_hrm","articulation_tags":["short_hrm","hrm_s","short","harmonics"],"duration":1.0,"velocity":98.14424821753124}
{"position":83.625,"instrument":"Viola","level2":2,"level3":0,"pitch":83,"articulation":"staccato","articulation_tags":["staccato","st","short"],"duration":1.0,"velocity":98.14424821753124}
{"position":84.04166666666667,"instrument":"Clarinet","level2":2,"level3":1,"pitch":79,"articulation":"legato","articulation_tags":["legato","lg"],"duration":15.364583333333334,"velocity":68.2884964350625}
{"position":84.20833333333333,"instrument":"TheGrandeurPiano","level2":2,"level3":null,"pitch":89,"articulation":"standard","articulation_tags":["standard","long"],"duration":0.7013888888888888,"velocity":42.92757993905832}
{"position":84.54166666666667,"instrument":"Cello","level2":2,"level3":1,"pitch":79,"articulation":"staccato","articulation_tags":["staccato","st","short"],"duration":1.0,"velocity":98.04443948246514}
{"position":85.13541666666667,"instrument":"Trumpet","level2":2,"level3":2,"pitch":82,"articulation":"long_muted","articulation_tags":["long_muted","muted","mt","long"],"duration":3.0520833333333335,"velocity":68.08887896493027}
{"position":85.25,"instrument":"TheGrandeurPiano","level2":2,"level3":null,"pitch":89,"articulation":"standard","articulation_tags":["standard","long"],"duration":0.75,"velocity":47.929732928888484}
{"position":85.77083333333333,"instrument":"Piccolo","level2":2,"level3":3,"pitch":79,"articulation":"legato","articulation_tags":["legato","lg"],"duration":7.083333333333333,"velocity":67.933090471291}
{"position":85.79166666666667,"instrument":"Cello","level2":2,"level3":5,"pitch":80,"articulation":"short_hrm","articulation_tags":["short_hrm","hrm_s","short","harmonics"],"duration":1.0,"velocity":97.9665452356455}
{"position":86.13541666666667,"instrument":"Viola","level2":2,"level3":0,"pitch":83,"articulation":"staccato","articulation_tags":["staccato","st","short"],"duration":1.0,"velocity":97.9665452356455}
{"position":86.375,"instrument":"TheGrandeurPiano","level2":2,"level3":null,"pitch":89,"articulation":"standard","articulation_tags":["standard","long"],"duration":0.8055555555555556,"velocity":44.38257632664043}
{"position":86.82291666666667,"instrument":"Vibraphone","level2":2,"level3":0,"pitch":83,"articulation":"hits","articulation_tags":["hits","short"],"duration":0.25,"velocity":97.91076311915558}
{"position":86.84375,"instrument":"TubularBells","level2":2,"level3":3,"pitch":79,"articulation":"hits_dumped","articulation_tags":["hits_dumped","short","hits","dumped"],"duration":0.25,"velocity":97.91076311915558}
{"position":87.59375,"instrument":"TheGrandeurPiano","level2":2,"level3":null,"pitch":89,"articulation":"standard","articulation_tags":["standard","long"],"duration":0.8819444444444444,"velocity":45.764067359681924}
{"position":88.10416666666667,"instrument":"CorAnglais","level2":2,"level3":1,"pitch":79,"articulation":"legato","articulation_tags":["legato","lg"],"duration":3.5729166666666665,"velocity":67.7544722621067}
{"position":88.1875,"instrument":"Cello","level2":2,"level3":2,"pitch":82,"articulation":"short_hrm","articulation_tags":["short_hrm","hrm_s","short","harmonics"],"duration":1.0,"velocity":97.87723613105335}
{"position":88.65625,"instrument":"TheGrandeurPiano","level2":2,"level3":null,"pitch":88,"articulation":"standard","articulation_tags":["standard","long"],"duration":2.0069444444444446,"velocity":46.649321986587466}
{"position":88.91666666666667,"instrument":"TheGrandeurPiano","level2":2,"level3":null,"pitch":88,"articulation":"standard","articulation_tags":["standard","long"],"duration":0.9861111111111112,"velocity":46.649321986587466}
{"position":89.28125,"instrument":"Trumpet","level2":2,"level3":8,"pitch":82,"articulation":"legato","articulation_tags":["legato","lg"],"duration":0.0625,"velocity":66.21056922185925}
{"position":89.28125,"instrument":"Vibraphone","level2":2,"level3":9,"pitch":81,"articulation":"hits","articulation_tags":["hits","short"],"duration":0.25,"velocity":97.10528461092963}
{"position":89.34375,"instrument":"Trumpet","level2":2,"level3":8,"pitch":82,"articulation":"legato","articulation_tags":["legato","lg"],"duration":1.25,"velocity":66.21056922185925}
{"position":89.63541666666667,"instrument":"Vibraphone","level2":2,"level3":9,"pitch":81,"articulation":"hits","articulation_tags":["hits","short"],"duration":0.25,"velocity":97.10528461092963}
{"position":89.66666666666667,"instrument":"Vibraphone","level2":2,"level3":5,"pitch":80,"articulation":"hits","articulation_tags":["hits","short"],"duration":0.25,"velocity":97.10528461092963}
{"position":90.01041666666667,"instrument":"Vibraphone","level2":2,"level3":0,"pitch":83,"articulation":"hits","articulation_tags":["hits","short"],"duration":0.25,"velocity":97.10528461092963}
{"position":90.3125,"instrument":"Vibraphone","level2":2,"level3":5,"pitch":81,"articulation":"hits","articulation_tags":["hits","short"],"duration":0.25,"velocity":97.10528461092963}
{"position":90.39583333333333,"instrument":"TheGrandeurPiano","level2":2,"level3":null,"pitch":88,"articulation":"standard","articulation_tags":["standard","long"],"duration":1.1458333333333333,"velocity":47.929732928888484}
{"position":90.46875,"instrument":"TubularBells","level2":2,"level3":3,"pitch":79,"articulation":"hits_dumped","articulation_tags":["hits_dumped","short","hits","dumped"],"duration":0.25,"velocity":97.11680872657485}
{"position":90.60416666666667,"instrument":"Trumpet","level2":2,"level3":8,"pitch":82,"articulation":"legato","articulation_tags":["legato","lg"],"duration":12.322916666666666,"velocity":66.23361745314968}
{"position":91.13541666666667,"instrument":"Vibraphone","level2":2,"level3":2,"pitch":82,"articulation":"hits","articulation_tags":["hits","short"],"duration":0.25,"velocity":97.11680872657485}
{"position":91.20833333333333,"instrument":"Vibraphone","level2":2,"level3":2,"pitch":82,"articulation":"hits","articulation_tags":["hits","short"],"duration":0.25,"velocity":97.11680872657485}
{"position":91.66666666666667,"instrument":"TheGrandeurPiano","level2":2,"level3":null,"pitch":88,"articulation":"standard","articulation_tags":["standard","long"],"duration":1.3819444444444444,"velocity":47.929732928888484}
{"position":91.67708333333333,"instrument":"TubularBells","level2":2,"level3":1,"pitch":79,"articulation":"hits_dumped","articulation_tags":["hits_dumped","short","hits","dumped"],"duration":0.25,"velocity":96.35640248180204}
{"position":91.6875,"instrument":"Vibraphone","level2":2,"level3":8,"pitch":82,"articulation":"hits","articulation_tags":["hits","short"],"duration":0.25,"velocity":96.35640248180204}
{"position":91.76041666666667,"instrument":"Vibraphone","level2":2,"level3":9,"pitch":80,"articulation":"hits","articulation_tags":["hits","short"],"duration":0.25,"velocity":96.35640248180204}
{"position":92.11458333333333,"instrument":"TheGrandeurPiano","level2":2,"level3":null,"pitch":88,"articulation":"standard","articulation_tags":["standard","long"],"duration":1.4375,"velocity":49.149254652639854}
{"position":92.29166666666667,"instrument":"Vibraphone","level2":2,"level3":5,"pitch":81,"articulation":"hits","articulation_tags":["hits","short"],"duration":0.25,"velocity":96.39201995510481}
{"position":92.5625,"instrument":"Vibraphone","level2":2,"level3":2,"pitch":81,"articulation":"hits","articulation_tags":["hits","short"],"duration":0.25,"velocity":96.39201995510481}
{"position":92.83333333333333,"instrument":"Glockenspiel","level2":2,"level3":9,"pitch":80,"articulation":"hits","articulation_tags":["hits","short"],"duration":0.25,"velocity":96.39201995510481}
{"position":92.85416666666667,"instrument":"Glockenspiel","level2":2,"level3":3,"pitch":80,"articulation":"hits","articulation_tags":["hits","short"],"duration":0.25,"velocity":96.39201995510481}
{"position":93.1875,"instrument":"Vibraphone","level2":2,"level3":0,"pitch":83,"articulation":"hits","articulation_tags":["hits","short"],"duration":0.25,"velocity":96.39201995510481}
{"position":93.73958333333333,"instrument":"TheGrandeurPiano","level2":2,"level3":null,"pitch":87,"articulation":"standard","articulation_tags":["standard","long"],"duration":1.1388888888888888,"velocity":49.52379391577116}
{"position":94.11458333333333,"instrument":"CorAnglais","level2":2,"level3":3,"pitch":80,"articulation":"legato","articulation_tags":["legato","lg"],"duration":3.7291666666666665,"velocity":63.31146799950407}
{"position":94.26041666666667,"instrument":"TheGrandeurPiano","level2":2,"level3":null,"pitch":87,"articulation":"standard","articulation_tags":["standard","long"],"duration":2.37007874015748,"velocity":45.764067359681924}
{"position":94.76041666666667,"instrument":"Vibraphone","level2":2,"level3":8,"pitch":82,"articulation":"hits","articulation_tags":["hits","short"],"duration":0.25,"velocity":95.71305811626146}
{"position":94.86458333333333,"instrument":"Vibraphone","level2":2,"level3":0,"pitch":83,"articulation":"hits","articulation_tags":["hits","short"],"duration":0.25,"velocity":95.71305811626146}
{"position":95.28125,"instrument":"TubularBells","level2":2,"level3":1,"pitch":79,"articulation":"hits_dumped","articulation_tags":["hits_dumped","short","hits","dumped"],"duration":0.25,"velocity":95.71305811626146}
{"position":95.44791666666667,"instrument":"TheGrandeurPiano","level2":2,"level3":null,"pitch":87,"articulation":"standard","articulation_tags":["standard","long"],"duration":0.9930555555555556,"velocity":46.649321986587466}
{"position":96.3125,"instrument":"Vibraphone","level2":2,"level3":0,"pitch":83,"articulation":"hits","articulation_tags":["hits","short"],"duration":0.25,"velocity":95.00326600335367}
{"position":96.65625,"instrument":"Vibraphone","level2":2,"level3":9,"pitch":80,"articulation":"hits","articulation_tags":["hits","short"],"duration":0.25,"velocity":95.00326600335367}
{"position":96.9375,"instrument":"TheGrandeurPiano","level2":2,"level3":null,"pitch":86,"articulation":"standard","articulation_tags":["standard","long"],"duration":0.8888888888888888,"velocity":47.50890062680658}
{"position":97.28125,"instrument":"TheGrandeurPiano","level2":3,"level3":null,"pitch":81,"articulation":"standard","articulation_tags":["standard","long"],"duration":0.0,"velocity":47.50890062680658}
{"position":97.28125,"instrument":"TheGrandeurPiano","level2":3,"level3":null,"pitch":81,"articulation":"standard","articulation_tags":["standard","long"],"duration":0.027777777777777776,"velocity":47.50890062680658}
{"position":97.28125,"instrument":"TheGrandeurPiano","level2":3,"level3":null,"pitch":81,"articulation":"standard","articulation_tags":["standard","long"],"duration":0.020833333333333332,"velocity":47.50890062680658}
{"position":97.28125,"instrument":"TheGrandeurPiano","level2":4,"level3":null,"pitch":82,"articulation":"standard","articulation_tags":["standard","long"],"duration":0.006944444444444444,"velocity":47.50890062680658}
{"position":97.29166666666667,"instrument":"TheGrandeurPiano","level2":4,"level3":null,"pitch":82,"articulation":"standard","articulation_tags":["standard","long"],"duration":0.027777777777777776,"velocity":47.50890062680658}
{"position":97.30208333333333,"instrument":"Marimba","level2":3,"level3":0,"pitch":81,"articulation":"hits","articulation_tags":["hits","short"],"duration":0.25,"velocity":95.89550929682247}
{"position":97.30208333333333,"instrument":"Marimba","level2":3,"level3":1,"pitch":81,"articulation":"hits","articulation_tags":["hits","short"],"duration":0.25,"velocity":95.89550929682247}
{"position":97.3125,"instrument":"Marimba","level2":3,"level3":1,"pitch":81,"articulation":"hits","articulation_tags":["hits","short"],"duration":0.25,"velocity":95.89550929682247}
{"position":97.32291666666667,"instrument":"TheGrandeurPiano","level2":3,"level3":null,"pitch":81,"articulation":"standard","articulation_tags":["standard","long"],"duration":0.04861111111111111,"velocity":47.50890062680658}
{"position":97.32291666666667,"instrument":"TheGrandeurPiano","level2":3,"level3":null,"pitch":81,"articulation":"standard","articulation_tags":["standard","long"],"duration":0.0763888888888889,"velocity":47.50890062680658}
{"position":97.32291666666667,"instrument":"TheGrandeurPiano","level2":4,"level3":null,"pitch":83,"articulation":"standard","articulation_tags":["standard","long"],"duration":0.04861111111111111,"velocity":47.50890062680658}
{"position":97.34375,"instrument":"Marimba","level2":3,"level3":0,"pitch":82,"articulation":"hits","articulation_tags":["hits","short"],"duration":0.25,"velocity":94.89654938431502}
{"position":97.39583333333333,"instrument":"TheGrandeurPiano","level2":3,"level3":null,"pitch":80,"articulation":"standard","articulation_tags":["standard","long"],"duration":0.08333333333333333,"velocity":47.50890062680658}
{"position":97.39583333333333,"instrument":"TheGrandeurPiano","level2":4,"level3":null,"pitch":83,"articulation":"standard","articulation_tags":["standard","long"],"duration":0.06944444444444445,"velocity":47.50890062680658}
{"position":97.48958333333333,"instrument":"TheGrandeurPiano","level2":4,"level3":null,"pitch":84,"articulation":"standard","articulation_tags":["standard","long"],"duration":0.09027777777777778,"velocity":47.50890062680658}
{"position":97.5,"instrument":"Vibraphone","level2":3,"level3":1,"pitch":80,"articulation":"hits","articulation_tags":["hits","short"],"duration":0.25,"velocity":93.89854249434784}
{"position":97.52083333333333,"instrument":"TheGrandeurPiano","level2":3,"level3":null,"pitch":80,"articulation":"standard","articulation_tags":["standard","long"],"duration":0.125,"velocity":47.929732928888484}
{"position":97.54166666666667,"instrument":"Vibraphone","level2":3,"level3":0,"pitch":82,"articulation":"hits","articulation_tags":["hits","short"],"duration":0.25,"velocity":93.48284474134456}
{"position":97.59375,"instrument":"TheGrandeurPiano","level2":3,"level3":null,"pitch":80,"articulation":"standard","articulation_tags":["standard","long"],"duration":0.125,"velocity":47.929732928888484}
{"position":97.625,"instrument":"TheGrandeurPiano","level2":4,"level3":null,"pitch":84,"articulation":"standard","articulation_tags":["standard","long"],"duration":1.0625,"velocity":47.929732928888484}
{"position":97.78125,"instrument":"TheGrandeurPiano","level2":4,"level3":null,"pitch":85,"articulation":"standard","articulation_tags":["standard","long"],"duration":0.125,"velocity":47.929732928888484}
{"position":97.84375,"instrument":"Vibraphone","level2":2,"level3":3,"pitch":80,"articulation":"hits","articulation_tags":["hits","short"],"duration":0.25,"velocity":94.29370836260378}
{"position":97.85416666666667,"instrument":"Vibraphone","level2":2,"level3":8,"pitch":82,"articulation":"hits","articulation_tags":["hits","short"],"duration":0.25,"velocity":94.29370836260378}
{"position":97.875,"instrument":"Marimba","level2":3,"level3":1,"pitch":80,"articulation":"hits","articulation_tags":["hits","short"],"duration":0.25,"velocity":91.90600773962184}
{"position":97.9375,"instrument":"Marimba","level2":3,"level3":0,"pitch":83,"articulation":"hits","articulation_tags":["hits","short"],"duration":0.25,"velocity":91.90600773962184}
{"position":97.95833333333333,"instrument":"TheGrandeurPiano","level2":3,"level3":null,"pitch":79,"articulation":"standard","articulation_tags":["standard","long"],"duration":0.25,"velocity":47.929732928888484}
{"position":97.96875,"instrument":"TheGrandeurPiano","level2":4,"level3":null,"pitch":85,"articulation":"standard","articulation_tags":["standard","long"],"duration":0.14583333333333334,"velocity":47.929732928888484}
{"position":98.11458333333333,"instrument":"Clarinet","level2":3,"level3":2,"pitch":81,"articulation":"legato","articulation_tags":["legato","lg"],"duration":0.020833333333333332,"velocity":53.82375600592454}
{"position":98.11458333333333,"instrument":"Vibraphone","level2":3,"level3":3,"pitch":81,"articulation":"hits","articulation_tags":["hits","short"],"duration":0.25,"velocity":90.91187800296227}
{"position":98.11458333333333,"instrument":"Vibraphone","level2":3,"level3":3,"pitch":81,"articulation":"hits","articulation_tags":["hits","short"],"duration":0.25,"velocity":90.91187800296227}
{"position":98.125,"instrument":"Marimba","level2":3,"level3":2,"pitch":81,"articulation":"hits","articulation_tags":["hits","short"],"duration":0.25,"velocity":90.91187800296227}
{"position":98.13541666666667,"instrument":"Vibraphone","level2":2,"level3":3,"pitch":80,"articulation":"hits","articulation_tags":["hits","short"],"duration":0.25,"velocity":94.29370836260378}
{"position":98.1875,"instrument":"TheGrandeurPiano","level2":4,"level3":null,"pitch":86,"articulation":"standard","articulation_tags":["standard","long"],"duration":0.16666666666666666,"velocity":49.149254652639854}
{"position":98.1875,"instrument":"Marimba","level2":3,"level3":2,"pitch":82,"articulation":"hits","articulation_tags":["hits","short"],"duration":0.25,"velocity":90.91187800296227}
{"position":98.22916666666667,"instrument":"TheGrandeurPiano","level2":3,"level3":null,"pitch":79,"articulation":"standard","articulation_tags":["standard","long"],"duration":0.1597222222222222,"velocity":49.149254652639854}
{"position":98.25,"instrument":"Clarinet","level2":3,"level3":3,"pitch":80,"articulation":"legato","articulation_tags":["legato","lg"],"duration":0.3958333333333333,"velocity":52.66511318755006}
{"position":98.32291666666667,"instrument":"Glockenspiel","level2":3,"level3":0,"pitch":83,"articulation":"hits","articulation_tags":["hits","short"],"duration":0.25,"velocity":90.33255659377502}
{"position":98.4375,"instrument":"TheGrandeurPiano","level2":4,"level3":null,"pitch":86,"articulation":"standard","articulation_tags":["standard","long"],"duration":0.1875,"velocity":49.149254652639854}
{"position":98.46875,"instrument":"TheGrandeurPiano","level2":3,"level3":null,"pitch":78,"articulation":"standard","articulation_tags":["standard","long"],"duration":0.16666666666666666,"velocity":49.149254652639854}
{"position":98.54166666666667,"instrument":"Marimba","level2":3,"level3":2,"pitch":82,"articulation":"hits","articulation_tags":["hits","short"],"duration":0.25,"velocity":89.33601649190953}
{"position":98.5625,"instrument":"Marimba","level2":3,"level3":1,"pitch":79,"articulation":"hits","articulation_tags":["hits","short"],"duration":0.25,"velocity":89.33601649190953}
{"position":98.58333333333333,"instrument":"Vibraphone","level2":3,"level3":3,"pitch":80,"articulation":"hits","articulation_tags":["hits","short"],"duration":0.25,"velocity":89.33601649190953}
{"position":98.63541666666667,"instrument":"Clarinet","level2":3,"level3":3,"pitch":80,"articulation":"legato","articulation_tags":["legato","lg"],"duration":1.1041666666666667,"velocity":50.67203298381907}
{"position":98.70833333333333,"instrument":"Piccolo","level2":3,"level3":4,"pitch":82,"articulation":"legato","articulation_tags":["legato","lg"],"duration":0.010416666666666666,"velocity":50.67203298381907}
{"position":98.70833333333333,"instrument":"CorAnglais","level2":3,"level3":5,"pitch":81,"articulation":"legato","articulation_tags":["legato","lg"],"duration":0.08333333333333333,"velocity":50.67203298381907}
{"position":98.71875,"instrument":"TheGrandeurPiano","level2":4,"level3":null,"pitch":87,"articulation":"standard","articulation_tags":["standard","long"],"duration":0.20833333333333334,"velocity":44.38257632664043}
{"position":98.71875,"instrument":"Piccolo","level2":3,"level3":4,"pitch":82,"articulation":"legato","articulation_tags":["legato","lg"],"duration":0.20833333333333334,"velocity":50.67203298381907}
{"position":98.72916666666667,"instrument":"TheGrandeurPiano","level2":3,"level3":null,"pitch":78,"articulation":"standard","articulation_tags":["standard","long"],"duration":0.1736111111111111,"velocity":44.38257632664043}
{"position":98.77083333333333,"instrument":"Viola","level2":3,"level3":0,"pitch":83,"articulation":"staccato","articulation_tags":["staccato","st","short"],"duration":1.0,"velocity":88.76353843876123}
{"position":98.79166666666667,"instrument":"Marimba","level2":3,"level3":5,"pitch":81,"articulation":"hits","articulation_tags":["hits","short"],"duration":0.25,"velocity":88.76353843876123}
{"position":98.90625,"instrument":"Marimba","level2":3,"level3":6,"pitch":81,"articulation":"hits","articulation_tags":["hits","short"],"duration":0.25,"velocity":88.76353843876123}
{"position":98.90625,"instrument":"Marimba","level2":3,"level3":7,"pitch":81,"articulation":"hits","articulation_tags":["hits","short"],"duration":0.25,"velocity":88.76353843876123}
{"position":98.91666666666667,"instrument":"Marimba","level2":3,"level3":7,"pitch":81,"articulation":"hits","articulation_tags":["hits","short"],"duration":0.25,"velocity":88.76353843876123}
{"position":98.92708333333333,"instrument":"Marimba","level2":3,"level3":4,"pitch":82,"articulation":"hits","articulation_tags":["hits","short"],"duration":0.25,"velocity":88.76353843876123}
{"position":98.92708333333333,"instrument":"TheGrandeurPiano","level2":3,"level3":null,"pitch":78,"articulation":"standard","articulation_tags":["standard","long"],"duration":1.4027777777777777,"velocity":46.649321986587466}
{"position":98.9375,"instrument":"Vibraphone","level2":2,"level3":1,"pitch":79,"articulation":"hits","articulation_tags":["hits","short"],"duration":0.25,"velocity":93.67286021818933}
{"position":98.97916666666667,"instrument":"TheGrandeurPiano","level2":3,"level3":null,"pitch":78,"articulation":"standard","articulation_tags":["standard","long"],"duration":0.1736111111111111,"velocity":46.649321986587466}
{"position":99.03125,"instrument":"TheGrandeurPiano","level2":4,"level3":null,"pitch":87,"articulation":"standard","articulation_tags":["standard","long"],"duration":0.22916666666666666,"velocity":46.649321986587466}
{"position":99.03125,"instrument":"Vibraphone","level2":3,"level3":6,"pitch":81,"articulation":"hits","articulation_tags":["hits","short"],"duration":0.25,"velocity":87.71532400662402}
{"position":99.13541666666667,"instrument":"Glockenspiel","level2":3,"level3":6,"pitch":82,"articulation":"hits","articulation_tags":["hits","short"],"duration":0.25,"velocity":87.71532400662402}
{"position":99.16666666666667,"instrument":"Marimba","level2":3,"level3":7,"pitch":80,"articulation":"hits","articulation_tags":["hits","short"],"duration":0.25,"velocity":87.71532400662402}
{"position":99.17708333333333,"instrument":"Marimba","level2":2,"level3":0,"pitch":82,"articulation":"hits","articulation_tags":["hits","short"],"duration":0.25,"velocity":93.67286021818933}
{"position":99.19791666666667,"instrument":"Vibraphone","level2":3,"level3":4,"pitch":82,"articulation":"hits","articulation_tags":["hits","short"],"duration":0.25,"velocity":87.71532400662402}
{"position":99.21875,"instrument":"TheGrandeurPiano","level2":4,"level3":null,"pitch":87,"articulation":"standard","articulation_tags":["standard","long"],"duration":0.09027777777777778,"velocity":46.649321986587466}
{"position":99.23958333333333,"instrument":"CorAnglais","level2":3,"level3":5,"pitch":80,"articulation":"legato","articulation_tags":["legato","lg"],"duration":1.3541666666666667,"velocity":47.430648013248025}
{"position":99.25,"instrument":"TheGrandeurPiano","level2":3,"level3":null,"pitch":78,"articulation":"standard","articulation_tags":["standard","long"],"duration":0.1736111111111111,"velocity":46.649321986587466}
{"position":99.35416666666667,"instrument":"TheGrandeurPiano","level2":4,"level3":null,"pitch":87,"articulation":"standard","articulation_tags":["standard","long"],"duration":2.0694444444444446,"velocity":46.649321986587466}
{"position":99.36458333333333,"instrument":"Vibraphone","level2":3,"level3":2,"pitch":82,"articulation":"hits","articulation_tags":["hits","short"],"duration":0.25,"velocity":87.11384148908121}
{"position":99.36458333333333,"instrument":"Vibraphone","level2":2,"level3":0,"pitch":82,"articulation":"hits","articulation_tags":["hits","short"],"duration":0.25,"velocity":93.67286021818933}
{"position":99.36458333333333,"instrument":"TheGrandeurPiano","level2":4,"level3":null,"pitch":88,"articulation":"standard","articulation_tags":["standard","long"],"duration":0.25,"velocity":46.649321986587466}
{"position":99.40625,"instrument":"Vibraphone","level2":2,"level3":1,"pitch":80,"articulation":"hits","articulation_tags":["hits","short"],"duration":0.25,"velocity":93.67286021818933}
{"position":99.55208333333333,"instrument":"Marimba","level2":3,"level3":7,"pitch":80,"articulation":"hits","articulation_tags":["hits","short"],"duration":0.25,"velocity":86.52783561111858}
{"position":99.64583333333333,"instrument":"Marimba","level2":3,"level3":1,"pitch":79,"articulation":"hits","articulation_tags":["hits","short"],"duration":0.25,"velocity":86.52783561111858}
{"position":99.65625,"instrument":"Clarinet","level2":3,"level3":8,"pitch":81,"articulation":"legato","articulation_tags":["legato","lg"],"duration":0.0625,"velocity":45.055671222237166}
{"position":99.65625,"instrument":"Vibraphone","level2":3,"level3":9,"pitch":81,"articulation":"hits","articulation_tags":["hits","short"],"duration":0.25,"velocity":86.52783561111858}
{"position":99.65625,"instrument":"Vibraphone","level2":3,"level3":9,"pitch":81,"articulation":"hits","articulation_tags":["hits","short"],"duration":0.25,"velocity":86.52783561111858}
{"position":99.69791666666667,"instrument":"Vibraphone","level2":2,"level3":10,"pitch":81,"articulation":"hits","articulation_tags":["hits","short"],"duration":0.25,"velocity":92.96707141527845}
{"position":99.69791666666667,"instrument":"Vibraphone","level2":2,"level3":11,"pitch":81,"articulation":"hits","articulation_tags":["hits","short"],"duration":0.25,"velocity":92.96707141527845}
{"position":99.69791666666667,"instrument":"Vibraphone","level2":2,"level3":11,"pitch":81,"articulation":"hits","articulation_tags":["hits","short"],"duration":0.25,"velocity":92.96707141527845}
{"position":99.72916666666667,"instrument":"Clarinet","level2":3,"level3":4,"pitch":83,"articulation":"legato","articulation_tags":["legato","lg"],"duration":1.0,"velocity":45.055671222237166}
{"position":99.75,"instrument":"Clarinet","level2":3,"level3":3,"pitch":79,"articulation":"legato","articulation_tags":["legato","lg"],"duration":0.78125,"velocity":45.055671222237166}
{"position":99.75,"instrument":"TheGrandeurPiano","level2":4,"level3":null,"pitch":88,"articulation":"standard","articulation_tags":["standard","long"],"duration":0.2777777777777778,"velocity":49.52379391577116}
{"position":99.84375,"instrument":"Piccolo","level2":3,"level3":0,"pitch":83,"articulation":"legato","articulation_tags":["legato","lg"],"duration":1.8229166666666667,"velocity":43.918656074943605}
{"position":100.04166666666667,"instrument":"TheGrandeurPiano","level2":2,"level3":null,"pitch":85,"articulation":"standard","articulation_tags":["standard","long"],"duration":0.9166666666666666,"velocity":45.764067359681924}
{"position":100.05208333333333,"instrument":"Cello","level2":3,"level3":10,"pitch":81,"articulation":"staccato","articulation_tags":["staccato","st","short"],"duration":1.0,"velocity":85.41063053964118}
{"position":100.05208333333333,"instrument":"Cello","level2":3,"level3":11,"pitch":81,"articulation":"short_marcato","articulation_tags":["short_marcato","marcato_s","short","marcato"],"duration":1.0,"velocity":85.41063053964118}
{"position":100.0625,"instrument":"Cello","level2":3,"level3":5,"pitch":80,"articulation":"staccato","articulation_tags":["staccato","st","short"],"duration":1.0,"velocity":85.41063053964118}
{"position":100.09375,"instrument":"Cello","level2":3,"level3":6,"pitch":81,"articulation":"spiccato","articulation_tags":["spiccato","sp","short"],"duration":1.0,"velocity":85.41063053964118}
{"position":100.125,"instrument":"Viola","level2":2,"level3":11,"pitch":81,"articulation":"spiccato","articulation_tags":["spiccato","sp","short"],"duration":1.0,"velocity":92.87539953021495}
{"position":100.125,"instrument":"Viola","level2":3,"level3":10,"pitch":81,"articulation":"staccato","articulation_tags":["staccato","st","short"],"duration":1.0,"velocity":85.41063053964118}
{"position":100.13541666666667,"instrument":"Viola","level2":3,"level3":9,"pitch":81,"articulation":"spiccato","articulation_tags":["spiccato","sp","short"],"duration":1.0,"velocity":85.41063053964118}
{"position":100.41666666666667,"instrument":"TheGrandeurPiano","level2":2,"level3":null,"pitch":85,"articulation":"standard","articulation_tags":["standard","long"],"duration":0.25,"velocity":49.52379391577116}
{"position":100.4375,"instrument":"Vibraphone","level2":2,"level3":3,"pitch":81,"articulation":"hits","articulation_tags":["hits","short"],"duration":0.25,"velocity":92.16670961320864}
{"position":100.5,"instrument":"Vibraphone","level2":4,"level3":0,"pitch":87,"articulation":"hits","articulation_tags":["hits","short"],"duration":0.25,"velocity":105.50827525311863}
{"position":100.5,"instrument":"Glockenspiel","level2":4,"level3":0,"pitch":87,"articulation":"hits","articulation_tags":["hits","short"],"duration":0.25,"velocity":105.50827525311863}
{"position":100.5,"instrument":"Glockenspiel","level2":4,"level3":1,"pitch":86,"articulation":"hits","articulation_tags":["hits","short"],"duration":0.25,"velocity":105.50827525311863}
{"position":100.53125,"instrument":"Marimba","level2":3,"level3":3,"pitch":80,"articulation":"hits","articulation_tags":["hits","short"],"duration":0.25,"velocity":84.88437649076806}
{"position":100.5625,"instrument":"TheGrandeurPiano","level2":3,"level3":null,"pitch":78,"articulation":"standard","articulation_tags":["standard","long"],"duration":0.16666666666666666,"velocity":49.52379391577116}
{"position":100.57291666666667,"instrument":"Marimba","level2":3,"level3":3,"pitch":80,"articulation":"hits","articulation_tags":["hits","short"],"duration":0.25,"velocity":84.383547939155}
{"position":100.59375,"instrument":"Marimba","level2":3,"level3":5,"pitch":81,"articulation":"hits","articulation_tags":["hits","short"],"duration":0.25,"velocity":84.383547939155}
{"position":100.65625,"instrument":"Clarinet","level2":2,"level3":9,"pitch":80,"articulation":"legato","articulation_tags":["legato","lg"],"duration":1.6770833333333333,"velocity":56.33341922641729}
{"position":100.70833333333333,"instrument":"Vibraphone","level2":2,"level3":9,"pitch":81,"articulation":"hits","articulation_tags":["hits","short"],"duration":0.25,"velocity":92.16670961320864}
{"position":100.71875,"instrument":"Clarinet","level2":3,"level3":4,"pitch":83,"articulation":"legato","articulation_tags":["legato","lg"],"duration":1.3854166666666667,"velocity":40.76709587830999}
{"position":100.72916666666667,"instrument":"Viola","level2":3,"level3":4,"pitch":82,"articulation":"spiccato","articulation_tags":["spiccato","sp","short"],"duration":1.0,"velocity":84.383547939155}
{"position":100.73958333333333,"instrument":"Violin","level2":3,"level3":0,"pitch":83,"articulation":"spiccato","articulation_tags":["spiccato","sp","short"],"duration":1.0,"velocity":84.383547939155}
{"position":100.78125,"instrument":"TheGrandeurPiano","level2":2,"level3":null,"pitch":84,"articulation":"standard","articulation_tags":["standard","long"],"duration":0.2152777777777778,"velocity":46.649321986587466}
{"position":100.8125,"instrument":"Vibraphone","level2":4,"level3":0,"pitch":87,"articulation":"hits","articulation_tags":["hits","short"],"duration":0.25,"velocity":106.09896347452283}
{"position":100.83333333333333,"instrument":"Marimba","level2":3,"level3":2,"pitch":82,"articulation":"hits","articulation_tags":["hits","short"],"duration":0.25,"velocity":83.91149300496801}
{"position":100.84375,"instrument":"Glockenspiel","level2":4,"level3":2,"pitch":85,"articulation":"hits","articulation_tags":["hits","short"],"duration":0.25,"velocity":106.09896347452283}
{"position":100.84375,"instrument":"Glockenspiel","level2":4,"level3":3,"pitch":85,"articulation":"hits","articulation_tags":["hits","short"],"duration":0.25,"velocity":106.09896347452283}
{"position":100.86458333333333,"instrument":"Marimba","level2":3,"level3":10,"pitch":81,"articulation":"hits","articulation_tags":["hits","short"],"duration":0.25,"velocity":83.91149300496801}
{"position":100.86458333333333,"instrument":"Glockenspiel","level2":4,"level3":2,"pitch":85,"articulation":"hits","articulation_tags":["hits","short"],"duration":0.25,"velocity":106.09896347452283}
{"position":100.875,"instrument":"CorAnglais","level2":3,"level3":7,"pitch":81,"articulation":"legato","articulation_tags":["legato","lg"],"duration":0.3125,"velocity":39.822986009936024}
{"position":100.91666666666667,"instrument":"Glockenspiel","level2":2,"level3":8,"pitch":82,"articulation":"hits","articulation_tags":["hits","short"],"duration":0.25,"velocity":91.45837824904339}
{"position":100.94791666666667,"instrument":"Violin","level2":4,"level3":1,"pitch":86,"articulation":"legato","articulation_tags":["legato","lg"],"duration":1.7916666666666667,"velocity":84.19792694904568}
{"position":101.02083333333333,"instrument":"Vibraphone","level2":2,"level3":0,"pitch":82,"articulation":"hits","articulation_tags":["hits","short"],"duration":0.25,"velocity":91.45837824904339}
{"position":101.04166666666667,"instrument":"TheGrandeurPiano","level2":3,"level3":null,"pitch":78,"articulation":"standard","articulation_tags":["standard","long"],"duration":0.3472222222222222,"velocity":46.649321986587466}
{"position":101.04166666666667,"instrument":"TheGrandeurPiano","level2":3,"level3":null,"pitch":78,"articulation":"standard","articulation_tags":["standard","long"],"duration":0.1527777777777778,"velocity":46.649321986587466}
{"position":101.0625,"instrument":"Vibraphone","level2":4,"level3":0,"pitch":87,"articulation":"hits","articulation_tags":["hits","short"],"duration":0.25,"velocity":106.09896347452283}
{"position":101.10416666666667,"instrument":"TheGrandeurPiano","level2":4,"level3":null,"pitch":90,"articulation":"standard","articulation_tags":["standard","long"],"duration":0.3611111111111111,"velocity":46.649321986587466}
{"position":101.11458333333333,"instrument":"Glockenspiel","level2":4,"level3":3,"pitch":85,"articulation":"hits","articulation_tags":["hits","short"],"duration":0.25,"velocity":106.69627703454731}
{"position":101.14583333333333,"instrument":"Marimba","level2":3,"level3":2,"pitch":82,"articulation":"hits","articulation_tags":["hits","short"],"duration":0.25,"velocity":84.11259205754533}
{"position":101.16666666666667,"instrument":"Marimba","level2":3,"level3":1,"pitch":80,"articulation":"hits","articulation_tags":["hits","short"],"duration":0.25,"velocity":84.11259205754533}
{"position":101.16666666666667,"instrument":"Glockenspiel","level2":3,"level3":2,"pitch":81,"articulation":"hits","articulation_tags":["hits","short"],"duration":0.25,"velocity":84.11259205754533}
{"position":101.1875,"instrument":"CorAnglais","level2":3,"level3":7,"pitch":81,"articulation":"legato","articulation_tags":["legato","lg"],"duration":0.020833333333333332,"velocity":40.225184115090656}
{"position":101.19791666666667,"instrument":"Viola","level2":4,"level3":4,"pitch":85,"articulation":"long_flt","articulation_tags":["long_flt","flt","long","flautando"],"duration":0.10416666666666667,"velocity":85.39255406909461}
{"position":101.19791666666667,"instrument":"Viola","level2":4,"level3":5,"pitch":85,"articulation":"long_flt","articulation_tags":["long_flt","flt","long","flautando"],"duration":0.08333333333333333,"velocity":85.39255406909461}
{"position":101.20833333333333,"instrument":"CorAnglais","level2":3,"level3":2,"pitch":81,"articulation":"legato","articulation_tags":["legato","lg"],"duration":0.0,"velocity":40.225184115090656}
{"position":101.28125,"instrument":"Vibraphone","level2":4,"level3":5,"pitch":85,"articulation":"hits","articulation_tags":["hits","short"],"duration":0.25,"velocity":106.69627703454731}
{"position":101.30208333333333,"instrument":"Vibraphone","level2":4,"level3":4,"pitch":85,"articulation":"hits","articulation_tags":["hits","short"],"duration":0.25,"velocity":106.69627703454731}
{"position":101.32291666666667,"instrument":"Vibraphone","level2":3,"level3":1,"pitch":80,"articulation":"hits","articulation_tags":["hits","short"],"duration":0.25,"velocity":83.73257833809626}
{"position":101.33333333333333,"instrument":"Viola","level2":4,"level3":1,"pitch":86,"articulation":"tremolo","articulation_tags":["tremolo","tr","multi_note"],"duration":17.135416666666668,"velocity":85.39255406909461}
{"position":101.38541666666667,"instrument":"TheGrandeurPiano","level2":2,"level3":null,"pitch":83,"articulation":"standard","articulation_tags":["standard","long"],"duration":0.1597222222222222,"velocity":49.149254652639854}
{"position":101.41666666666667,"instrument":"TheGrandeurPiano","level2":2,"level3":null,"pitch":83,"articulation":"standard","articulation_tags":["standard","long"],"duration":0.3055555555555556,"velocity":49.149254652639854}
{"position":101.47916666666667,"instrument":"TheGrandeurPiano","level2":3,"level3":null,"pitch":78,"articulation":"standard","articulation_tags":["standard","long"],"duration":0.13194444444444445,"velocity":49.149254652639854}
{"position":101.5,"instrument":"Glockenspiel","level2":4,"level3":6,"pitch":84,"articulation":"hits","articulation_tags":["hits","short"],"duration":0.25,"velocity":106.69627703454731}
{"position":101.53125,"instrument":"Marimba","level2":2,"level3":3,"pitch":81,"articulation":"hits","articulation_tags":["hits","short"],"duration":0.25,"velocity":89.96592338137042}
{"position":101.5625,"instrument":"TheGrandeurPiano","level2":3,"level3":null,"pitch":79,"articulation":"standard","articulation_tags":["standard","long"],"duration":0.2013888888888889,"velocity":49.149254652639854}
{"position":101.58333333333333,"instrument":"Marimba","level2":3,"level3":0,"pitch":82,"articulation":"hits","articulation_tags":["hits","short"],"duration":0.25,"velocity":84.08764553666526}
{"position":101.625,"instrument":"TheGrandeurPiano","level2":2,"level3":null,"pitch":83,"articulation":"standard","articulation_tags":["standard","long"],"duration":0.13194444444444445,"velocity":49.149254652639854}
{"position":101.63541666666667,"instrument":"Vibraphone","level2":3,"level3":3,"pitch":80,"articulation":"hits","articulation_tags":["hits","short"],"duration":0.25,"velocity":84.08764553666526}
{"position":101.63541666666667,"instrument":"Vibraphone","level2":3,"level3":4,"pitch":82,"articulation":"hits","articulation_tags":["hits","short"],"duration":0.25,"velocity":84.08764553666526}
{"position":101.64583333333333,"instrument":"TheGrandeurPiano","level2":4,"level3":null,"pitch":90,"articulation":"standard","articulation_tags":["standard","long"],"duration":0.3958333333333333,"velocity":49.149254652639854}
{"position":101.66666666666667,"instrument":"Glockenspiel","level2":3,"level3":0,"pitch":82,"articulation":"hits","articulation_tags":["hits","short"],"duration":0.25,"velocity":84.08764553666526}
{"position":101.71875,"instrument":"CorAnglais","level2":2,"level3":0,"pitch":81,"articulation":"legato","articulation_tags":["legato","lg"],"duration":0.03125,"velocity":50.5110149962447}
{"position":101.77083333333333,"instrument":"CorAnglais","level2":3,"level3":1,"pitch":80,"articulation":"legato","articulation_tags":["legato","lg"],"duration":0.2708333333333333,"velocity":39.619205269519824}
{"position":101.82291666666667,"instrument":"TheGrandeurPiano","level2":2,"level3":null,"pitch":82,"articulation":"standard","articulation_tags":["standard","long"],"duration":0.10416666666666667,"velocity":49.149254652639854}
{"position":101.84375,"instrument":"TheGrandeurPiano","level2":3,"level3":null,"pitch":79,"articulation":"standard","articulation_tags":["standard","long"],"duration":0.09722222222222222,"velocity":49.149254652639854}
{"position":101.85416666666667,"instrument":"Glockenspiel","level2":4,"level3":2,"pitch":85,"articulation":"hits","articulation_tags":["hits","short"],"duration":0.25,"velocity":107.29987961031028}
{"position":101.86458333333333,"instrument":"Marimba","level2":2,"level3":10,"pitch":81,"articulation":"hits","articulation_tags":["hits","short"],"duration":0.25,"velocity":88.54535679101943}
{"position":101.875,"instrument":"Marimba","level2":4,"level3":3,"pitch":85,"articulation":"hits","articulation_tags":["hits","short"],"duration":0.25,"velocity":107.29987961031028}
{"position":101.9375,"instrument":"Glockenspiel","level2":4,"level3":6,"pitch":84,"articulation":"hits","articulation_tags":["hits","short"],"duration":0.25,"velocity":107.29987961031028}
{"position":101.97916666666667,"instrument":"TheGrandeurPiano","level2":2,"level3":null,"pitch":82,"articulation":"standard","articulation_tags":["standard","long"],"duration":0.0763888888888889,"velocity":49.149254652639854}
{"position":101.98958333333333,"instrument":"Vibraphone","level2":3,"level3":4,"pitch":81,"articulation":"hits","articulation_tags":["hits","short"],"duration":0.25,"velocity":84.3102673969515}
{"position":101.98958333333333,"instrument":"Vibraphone","level2":3,"level3":0,"pitch":82,"articulation":"hits","articulation_tags":["hits","short"],"duration":0.25,"velocity":84.3102673969515}
{"position":101.98958333333333,"instrument":"TheGrandeurPiano","level2":3,"level3":null,"pitch":79,"articulation":"standard","articulation_tags":["standard","long"],"duration":0.06944444444444445,"velocity":47.929732928888484}
{"position":102.03125,"instrument":"Piccolo","level2":3,"level3":3,"pitch":81,"articulation":"legato","articulation_tags":["legato","lg"],"duration":0.15625,"velocity":40.274970204623784}
{"position":102.04166666666667,"instrument":"CorAnglais","level2":3,"level3":1,"pitch":81,"articulation":"legato","articulation_tags":["legato","lg"],"duration":0.0625,"velocity":40.274970204623784}
{"position":102.04166666666667,"instrument":"TheGrandeurPiano","level2":3,"level3":null,"pitch":80,"articulation":"standard","articulation_tags":["standard","long"],"duration":0.06944444444444445,"velocity":47.929732928888484}
{"position":102.07291666666667,"instrument":"Cello","level2":3,"level3":3,"pitch":81,"articulation":"short_hrm","articulation_tags":["short_hrm","hrm_s","short","harmonics"],"duration":1.0,"velocity":84.88437649076806}
{"position":102.08333333333333,"instrument":"TheGrandeurPiano","level2":2,"level3":null,"pitch":82,"articulation":"standard","articulation_tags":["standard","long"],"duration":0.05555555555555555,"velocity":47.929732928888484}
{"position":102.09375,"instrument":"TheGrandeurPiano","level2":2,"level3":null,"pitch":81,"articulation":"standard","articulation_tags":["standard","long"],"duration":0.041666666666666664,"velocity":47.929732928888484}
{"position":102.10416666666667,"instrument":"Marimba","level2":3,"level3":4,"pitch":81,"articulation":"hits","articulation_tags":["hits","short"],"duration":0.25,"velocity":84.88437649076806}
{"position":102.10416666666667,"instrument":"TheGrandeurPiano","level2":3,"level3":null,"pitch":80,"articulation":"standard","articulation_tags":["standard","long"],"duration":0.041666666666666664,"velocity":47.929732928888484}
{"position":102.13541666666667,"instrument":"TheGrandeurPiano","level2":3,"level3":null,"pitch":80,"articulation":"standard","articulation_tags":["standard","long"],"duration":0.020833333333333332,"velocity":47.929732928888484}
{"position":102.15625,"instrument":"TheGrandeurPiano","level2":2,"level3":null,"pitch":81,"articulation":"standard","articulation_tags":["standard","long"],"duration":0.013888888888888888,"velocity":47.929732928888484}
{"position":102.16666666666667,"instrument":"TheGrandeurPiano","level2":3,"level3":null,"pitch":80,"articulation":"standard","articulation_tags":["standard","long"],"duration":0.006944444444444444,"velocity":47.929732928888484}
{"position":102.16666666666667,"instrument":"TheGrandeurPiano","level2":2,"level3":null,"pitch":81,"articulation":"standard","articulation_tags":["standard","long"],"duration":0.006944444444444444,"velocity":47.929732928888484}
{"position":102.17708333333333,"instrument":"Marimba","level2":3,"level3":0,"pitch":81,"articulation":"hits","articulation_tags":["hits","short"],"duration":0.25,"velocity":85.45538155957779}
{"position":102.17708333333333,"instrument":"TheGrandeurPiano","level2":3,"level3":null,"pitch":81,"articulation":"standard","articulation_tags":["standard","long"],"duration":0.0,"velocity":47.929732928888484}
{"position":102.1875,"instrument":"Marimba","level2":3,"level3":3,"pitch":81,"articulation":"hits","articulation_tags":["hits","short"],"duration":0.25,"velocity":86.21490771967026}
{"position":102.22916666666667,"instrument":"TheGrandeurPiano","level2":4,"level3":null,"pitch":91,"articulation":"standard","articulation_tags":["standard","long"],"duration":0.4305555555555556,"velocity":47.929732928888484}
{"position":102.32291666666667,"instrument":"Marimba","level2":2,"level3":9,"pitch":81,"articulation":"hits","articulation_tags":["hits","short"],"duration":0.25,"velocity":86.21490771967026}
{"position":102.45833333333333,"instrument":"TheGrandeurPiano","level2":4,"level3":null,"pitch":91,"articulation":"standard","articulation_tags":["standard","long"],"duration":1.2013888888888888,"velocity":47.929732928888484}
{"position":102.57291666666667,"instrument":"Glockenspiel","level2":4,"level3":0,"pitch":87,"articulation":"hits","articulation_tags":["hits","short"],"duration":0.25,"velocity":107.4634573150127}
{"position":102.6875,"instrument":"Marimba","level2":2,"level3":1,"pitch":80,"articulation":"hits","articulation_tags":["hits","short"],"duration":0.25,"velocity":86.21490771967026}
{"position":102.72916666666667,"instrument":"Glockenspiel","level2":4,"level3":1,"pitch":85,"articulation":"hits","articulation_tags":["hits","short"],"duration":0.25,"velocity":107.4634573150127}
{"position":102.72916666666667,"instrument":"Marimba","level2":2,"level3":1,"pitch":80,"articulation":"hits","articulation_tags":["hits","short"],"duration":0.25,"velocity":86.21490771967026}
{"position":102.88541666666667,"instrument":"TheGrandeurPiano","level2":4,"level3":null,"pitch":91,"articulation":"standard","articulation_tags":["standard","long"],"duration":0.4791666666666667,"velocity":47.50890062680658}
{"position":102.91666666666667,"instrument":"Trumpet","level2":2,"level3":8,"pitch":82,"articulation":"long_muted","articulation_tags":["long_muted","muted","mt","long"],"duration":1.6145833333333333,"velocity":44.42981543934053}
{"position":103.14583333333333,"instrument":"Glockenspiel","level2":4,"level3":3,"pitch":85,"articulation":"hits","articulation_tags":["hits","short"],"duration":0.25,"velocity":108.08630939877807}
{"position":103.3125,"instrument":"Glockenspiel","level2":4,"level3":4,"pitch":85,"articulation":"hits","articulation_tags":["hits","short"],"duration":0.25,"velocity":108.08630939877807}
{"position":103.57291666666667,"instrument":"Glockenspiel","level2":4,"level3":5,"pitch":85,"articulation":"hits","articulation_tags":["hits","short"],"duration":0.25,"velocity":108.08630939877807}
{"position":103.60416666666667,"instrument":"TheGrandeurPiano","level2":4,"level3":null,"pitch":92,"articulation":"standard","articulation_tags":["standard","long"],"duration":0.5347222222222222,"velocity":47.929732928888484}
{"position":103.67708333333333,"instrument":"Glockenspiel","level2":4,"level3":4,"pitch":85,"articulation":"hits","articulation_tags":["hits","short"],"duration":0.25,"velocity":108.71435928540878}
{"position":103.84375,"instrument":"Marimba","level2":2,"level3":8,"pitch":82,"articulation":"hits","articulation_tags":["hits","short"],"duration":0.25,"velocity":86.21490771967026}
{"position":103.96875,"instrument":"Glockenspiel","level2":4,"level3":5,"pitch":84,"articulation":"hits","articulation_tags":["hits","short"],"duration":0.25,"velocity":108.71435928540878}
{"position":104.1875,"instrument":"Glockenspiel","level2":4,"level3":2,"pitch":85,"articulation":"hits","articulation_tags":["hits","short"],"duration":0.25,"velocity":108.71435928540878}
{"position":104.25,"instrument":"TheGrandeurPiano","level2":4,"level3":null,"pitch":92,"articulation":"standard","articulation_tags":["standard","long"],"duration":1.0555555555555556,"velocity":49.149254652639854}
{"position":104.32291666666667,"instrument":"Marimba","level2":2,"level3":1,"pitch":81,"articulation":"hits","articulation_tags":["hits","short"],"duration":0.25,"velocity":86.21490771967026}
{"position":104.40625,"instrument":"TheGrandeurPiano","level2":4,"level3":null,"pitch":92,"articulation":"standard","articulation_tags":["standard","long"],"duration":0.6041666666666666,"velocity":50.97811361890256}
{"position":104.53125,"instrument":"Trumpet","level2":2,"level3":8,"pitch":81,"articulation":"long_muted","articulation_tags":["long_muted","muted","mt","long"],"duration":0.3854166666666667,"velocity":44.42981543934053}
{"position":104.91666666666667,"instrument":"Glockenspiel","level2":4,"level3":0,"pitch":87,"articulation":"hits","articulation_tags":["hits","short"],"duration":0.25,"velocity":108.93439594283275}
{"position":104.91666666666667,"instrument":"Trumpet","level2":2,"level3":1,"pitch":81,"articulation":"long_muted","articulation_tags":["long_muted","muted","mt","long"],"duration":0.010416666666666666,"velocity":44.42981543934053}
{"position":105.29166666666667,"instrument":"Glockenspiel","level2":4,"level3":1,"pitch":85,"articulation":"hits","articulation_tags":["hits","short"],"duration":0.25,"velocity":108.93439594283275}
{"position":105.30208333333333,"instrument":"TheGrandeurPiano","level2":4,"level3":null,"pitch":93,"articulation":"standard","articulation_tags":["standard","long"],"duration":0.6875,"velocity":49.52379391577116}
{"position":105.51041666666667,"instrument":"Trumpet","level2":4,"level3":5,"pitch":84,"articulation":"multitongue","articulation_tags":["multitongue","short"],"duration":1.0,"velocity":109.57907817152982}
{"position":105.84375,"instrument":"TheGrandeurPiano","level2":4,"level3":null,"pitch":93,"articulation":"standard","articulation_tags":["standard","long"],"duration":0.9930555555555556,"velocity":52.70789143712726}
{"position":105.875,"instrument":"Glockenspiel","level2":4,"level3":6,"pitch":84,"articulation":"hits","articulation_tags":["hits","short"],"duration":0.25,"velocity":109.18427208420334}
{"position":105.90625,"instrument":"Glockenspiel","level2":4,"level3":4,"pitch":84,"articulation":"hits","articulation_tags":["hits","short"],"duration":0.25,"velocity":109.18427208420334}
{"position":106.19791666666667,"instrument":"Glockenspiel","level2":4,"level3":3,"pitch":84,"articulation":"hits","articulation_tags":["hits","short"],"duration":0.25,"velocity":109.18427208420334}
{"position":106.33333333333333,"instrument":"TheGrandeurPiano","level2":4,"level3":null,"pitch":93,"articulation":"standard","articulation_tags":["standard","long"],"duration":0.8125,"velocity":49.52379391577116}
{"position":107.05208333333333,"instrument":"Glockenspiel","level2":4,"level3":0,"pitch":86,"articulation":"hits","articulation_tags":["hits","short"],"duration":0.25,"velocity":109.83999383476701}
{"position":107.33333333333333,"instrument":"TheGrandeurPiano","level2":4,"level3":null,"pitch":93,"articulation":"standard","articulation_tags":["standard","long"],"duration":0.9513888888888888,"velocity":50.97811361890256}
{"position":107.5625,"instrument":"TheGrandeurPiano","level2":4,"level3":null,"pitch":94,"articulation":"standard","articulation_tags":["standard","long"],"duration":1.0138888888888888,"velocity":53.7043983069205}
{"position":108.11458333333333,"instrument":"Glockenspiel","level2":4,"level3":2,"pitch":85,"articulation":"hits","articulation_tags":["hits","short"],"duration":0.25,"velocity":110.12949267240161}
{"position":108.15625,"instrument":"Glockenspiel","level2":4,"level3":0,"pitch":86,"articulation":"hits","articulation_tags":["hits","short"],"duration":0.25,"velocity":110.12949267240161}
{"position":108.17708333333333,"instrument":"Vibraphone","level2":4,"level3":2,"pitch":85,"articulation":"hits","articulation_tags":["hits","short"],"duration":0.25,"velocity":110.12949267240161}
{"position":108.47916666666667,"instrument":"Trumpet","level2":4,"level3":5,"pitch":84,"articulation":"multitongue","articulation_tags":["multitongue","short"],"duration":1.0,"velocity":110.12949267240161}
{"position":108.51041666666667,"instrument":"Glockenspiel","level2":4,"level3":1,"pitch":84,"articulation":"hits","articulation_tags":["hits","short"],"duration":0.25,"velocity":110.12949267240161}
{"position":108.76041666666667,"instrument":"TheGrandeurPiano","level2":4,"level3":null,"pitch":94,"articulation":"standard","articulation_tags":["standard","long"],"duration":0.9305555555555556,"velocity":52.3691100605697}
{"position":109.07291666666667,"instrument":"TheGrandeurPiano","level2":4,"level3":null,"pitch":94,"articulation":"standard","articulation_tags":["standard","long"],"duration":1.4305555555555556,"velocity":52.70789143712726}
{"position":110.07291666666667,"instrument":"Trumpet","level2":4,"level3":3,"pitch":84,"articulation":"multitongue","articulation_tags":["multitongue","short"],"duration":1.0,"velocity":110.44692901052717}
{"position":110.15625,"instrument":"TheGrandeurPiano","level2":4,"level3":null,"pitch":94,"articulation":"standard","articulation_tags":["standard","long"],"duration":0.9166666666666666,"velocity":53.7043983069205}
{"position":111.22916666666667,"instrument":"TheGrandeurPiano","level2":4,"level3":null,"pitch":95,"articulation":"standard","articulation_tags":["standard","long"],"duration":2.4960629921259843,"velocity":53.375439239995806}
{"position":111.53125,"instrument":"TheGrandeurPiano","level2":4,"level3":null,"pitch":95,"articulation":"standard","articulation_tags":["standard","long"],"duration":0.9097222222222222,"velocity":56.23158300512256}
{"position":111.90625,"instrument":"Glockenspiel","level2":4,"level3":7,"pitch":86,"articulation":"hits","articulation_tags":["hits","short"],"duration":0.25,"velocity":110.46950280384729}
{"position":111.90625,"instrument":"Glockenspiel","level2":4,"level3":8,"pitch":86,"articulation":"hits","articulation_tags":["hits","short"],"duration":0.25,"velocity":110.46950280384729}
{"position":112.01041666666667,"instrument":"Glockenspiel","level2":4,"level3":8,"pitch":86,"articulation":"hits","articulation_tags":["hits","short"],"duration":0.25,"velocity":110.46950280384729}
{"position":112.125,"instrument":"Viola","level2":4,"level3":2,"pitch":85,"articulation":"long_hrm","articulation_tags":["long_hrm","hrm","long","harmonics"],"duration":2.8229166666666665,"velocity":92.93900560769458}
{"position":112.16666666666667,"instrument":"Viola","level2":4,"level3":7,"pitch":86,"articulation":"long_flt","articulation_tags":["long_flt","flt","long","flautando"],"duration":3.4166666666666665,"velocity":92.93900560769458}
{"position":112.33333333333333,"instrument":"Viola","level2":4,"level3":7,"pitch":86,"articulation":"long_flt","articulation_tags":["long_flt","flt","long","flautando"],"duration":1.78125,"velocity":92.93900560769458}
{"position":112.51041666666667,"instrument":"Trumpet","level2":4,"level3":5,"pitch":84,"articulation":"multitongue","articulation_tags":["multitongue","short"],"duration":1.0,"velocity":110.46950280384729}
{"position":112.54166666666667,"instrument":"Violin","level2":4,"level3":1,"pitch":84,"articulation":"tremolo","articulation_tags":["tremolo","tr","multi_note"],"duration":4.802083333333333,"velocity":92.93900560769458}
{"position":112.70833333333333,"instrument":"Glockenspiel","level2":4,"level3":0,"pitch":86,"articulation":"hits","articulation_tags":["hits","short"],"duration":0.25,"velocity":110.46950280384729}
{"position":112.85416666666667,"instrument":"Glockenspiel","level2":4,"level3":8,"pitch":85,"articulation":"hits","articulation_tags":["hits","short"],"duration":0.25,"velocity":110.46950280384729}
{"position":112.90625,"instrument":"TheGrandeurPiano","level2":4,"level3":null,"pitch":95,"articulation":"standard","articulation_tags":["standard","long"],"duration":0.9097222222222222,"velocity":53.375439239995806}
{"position":113.10416666666667,"instrument":"Violin","level2":4,"level3":0,"pitch":86,"articulation":"long_hrm","articulation_tags":["long_hrm","hrm","long","harmonics"],"duration":4.364583333333333,"velocity":92.31967694640731}
{"position":113.61458333333333,"instrument":"Trumpet","level2":4,"level3":3,"pitch":84,"articulation":"multitongue","articulation_tags":["multitongue","short"],"duration":1.0,"velocity":110.15983847320365}
{"position":114.11458333333333,"instrument":"Glockenspiel","level2":4,"level3":7,"pitch":86,"articulation":"hits","articulation_tags":["hits","short"],"duration":0.25,"velocity":110.15983847320365}
{"position":114.27083333333333,"instrument":"TheGrandeurPiano","level2":4,"level3":null,"pitch":95,"articulation":"standard","articulation_tags":["standard","long"],"duration":0.9166666666666666,"velocity":58.30981868931137}
{"position":114.9375,"instrument":"Trumpet","level2":4,"level3":2,"pitch":84,"articulation":"multitongue","articulation_tags":["multitongue","short"],"duration":1.0,"velocity":109.86292948320171}
{"position":115.01041666666667,"instrument":"Viola","level2":4,"level3":3,"pitch":83,"articulation":"long_slt","articulation_tags":["long_slt","slt","long","sultasto"],"duration":12.354166666666666,"velocity":91.72585896640342}
{"position":115.51041666666667,"instrument":"Viola","level2":4,"level3":5,"pitch":84,"articulation":"long_cs","articulation_tags":["long_cs","cs","long","consordina"],"duration":0.96875,"velocity":91.72585896640342}
{"position":115.57291666666667,"instrument":"Viola","level2":4,"level3":8,"pitch":85,"articulation":"long_slt","articulation_tags":["long_slt","slt","long","sultasto"],"duration":3.8541666666666665,"velocity":91.72585896640342}
{"position":115.58333333333333,"instrument":"Violin","level2":4,"level3":7,"pitch":86,"articulation":"long_cs","articulation_tags":["long_cs","cs","long","consordina"],"duration":5.927083333333333,"velocity":91.72585896640342}
{"position":115.65625,"instrument":"TheGrandeurPiano","level2":4,"level3":null,"pitch":95,"articulation":"standard","articulation_tags":["standard","long"],"duration":0.9305555555555556,"velocity":57.43290944852216}
{"position":116.4375,"instrument":"Trumpet","level2":4,"level3":2,"pitch":84,"articulation":"multitongue","articulation_tags":["multitongue","short"],"duration":1.0,"velocity":109.57907817152982}
{"position":116.44791666666667,"instrument":"Violin","level2":4,"level3":2,"pitch":84,"articulation":"long_cs","articulation_tags":["long_cs","cs","long","consordina"],"duration":0.03125,"velocity":91.15815634305963}
{"position":117.05208333333333,"instrument":"TheGrandeurPiano","level2":4,"level3":null,"pitch":95,"articulation":"standard","articulation_tags":["standard","long"],"duration":0.9513888888888888,"velocity":57.43290944852216}
{"position":117.15625,"instrument":"Viola","level2":4,"level3":7,"pitch":86,"articulation":"long_hrm","articulation_tags":["long_hrm","hrm","long","harmonics"],"duration":4.90625,"velocity":90.61716515164929}
{"position":117.34375,"instrument":"Glockenspiel","level2":4,"level3":1,"pitch":83,"articulation":"hits","articulation_tags":["hits","short"],"duration":0.25,"velocity":109.30858257582464}
{"position":117.46875,"instrument":"Glockenspiel","level2":4,"level3":0,"pitch":85,"articulation":"hits","articulation_tags":["hits","short"],"duration":0.25,"velocity":109.30858257582464}
{"position":118.46875,"instrument":"Trumpet","level2":4,"level3":1,"pitch":83,"articulation":"multitongue","articulation_tags":["multitongue","short"],"duration":1.0,"velocity":109.30858257582464}
{"position":118.47916666666667,"instrument":"TheGrandeurPiano","level2":4,"level3":null,"pitch":95,"articulation":"standard","articulation_tags":["standard","long"],"duration":0.9791666666666666,"velocity":56.23158300512256}
{"position":118.86458333333333,"instrument":"TheGrandeurPiano","level2":4,"level3":null,"pitch":94,"articulation":"standard","articulation_tags":["standard","long"],"duration":1.4097222222222223,"velocity":53.375439239995806}
{"position":119.25,"instrument":"Viola","level2":4,"level3":3,"pitch":83,"articulation":"long_flt","articulation_tags":["long_flt","flt","long","flautando"],"duration":3.71875,"velocity":88.66810710574195}
{"position":119.42708333333333,"instrument":"Viola","level2":4,"level3":8,"pitch":84,"articulation":"long_slt","articulation_tags":["long_slt","slt","long","sultasto"],"duration":5.729166666666667,"velocity":88.66810710574195}
{"position":119.66666666666667,"instrument":"TheGrandeurPiano","level2":5,"level3":null,"pitch":74,"articulation":"standard","articulation_tags":["standard","long"],"duration":0.0,"velocity":55.30451013798564}
{"position":119.66666666666667,"instrument":"TheGrandeurPiano","level2":5,"level3":null,"pitch":74,"articulation":"standard","articulation_tags":["standard","long"],"duration":0.013888888888888888,"velocity":55.30451013798564}
{"position":119.66666666666667,"instrument":"TheGrandeurPiano","level2":6,"level3":null,"pitch":74,"articulation":"standard","articulation_tags":["standard","long"],"duration":0.0,"velocity":55.30451013798564}
{"position":119.66666666666667,"instrument":"TheGrandeurPiano","level2":6,"level3":null,"pitch":74,"articulation":"standard","articulation_tags":["standard","long"],"duration":0.034722222222222224,"velocity":55.30451013798564}
{"position":119.67708333333333,"instrument":"TheGrandeurPiano","level2":6,"level3":null,"pitch":74,"articulation":"standard","articulation_tags":["standard","long"],"duration":0.034722222222222224,"velocity":55.30451013798564}
{"position":119.6875,"instrument":"TheGrandeurPiano","level2":5,"level3":null,"pitch":74,"articulation":"standard","articulation_tags":["standard","long"],"duration":0.034722222222222224,"velocity":55.30451013798564}
{"position":119.69791666666667,"instrument":"TheGrandeurPiano","level2":5,"level3":null,"pitch":73,"articulation":"standard","articulation_tags":["standard","long"],"duration":0.125,"velocity":55.30451013798564}
{"position":119.71875,"instrument":"TheGrandeurPiano","level2":6,"level3":null,"pitch":75,"articulation":"standard","articulation_tags":["standard","long"],"duration":0.06944444444444445,"velocity":55.30451013798564}
{"position":119.82291666666667,"instrument":"TheGrandeurPiano","level2":6,"level3":null,"pitch":75,"articulation":"standard","articulation_tags":["standard","long"],"duration":0.09722222222222222,"velocity":55.30451013798564}
{"position":119.83333333333333,"instrument":"TheGrandeurPiano","level2":5,"level3":null,"pitch":73,"articulation":"standard","articulation_tags":["standard","long"],"duration":0.08333333333333333,"velocity":55.30451013798564}
{"position":119.89583333333333,"instrument":"Trumpet","level2":5,"level3":0,"pitch":82,"articulation":"staccato","articulation_tags":["staccato","st","short"],"duration":1.0,"velocity":97.1513493920713}
{"position":119.89583333333333,"instrument":"Cello","level2":5,"level3":0,"pitch":82,"articulation":"pizzicato","articulation_tags":["pizzicato","pz","short"],"duration":1.0,"velocity":97.1513493920713}
{"position":119.89583333333333,"instrument":"Cello","level2":5,"level3":1,"pitch":81,"articulation":"pizzicato","articulation_tags":["pizzicato","pz","short"],"duration":1.0,"velocity":97.1513493920713}
{"position":119.89583333333333,"instrument":"Cello","level2":5,"level3":1,"pitch":81,"articulation":"pizzicato","articulation_tags":["pizzicato","pz","short"],"duration":1.0,"velocity":97.1513493920713}
{"position":119.94791666666667,"instrument":"TheGrandeurPiano","level2":4,"level3":null,"pitch":94,"articulation":"standard","articulation_tags":["standard","long"],"duration":1.0277777777777777,"velocity":53.7043983069205}
{"position":119.94791666666667,"instrument":"TheGrandeurPiano","level2":5,"level3":null,"pitch":73,"articulation":"standard","articulation_tags":["standard","long"],"duration":0.09722222222222222,"velocity":53.7043983069205}
{"position":119.97916666666667,"instrument":"TheGrandeurPiano","level2":6,"level3":null,"pitch":76,"articulation":"standard","articulation_tags":["standard","long"],"duration":0.125,"velocity":53.7043983069205}
{"position":120.01041666666667,"instrument":"FrenchHorn","level2":6,"level3":0,"pitch":77,"articulation":"staccato","articulation_tags":["staccato","st","short"],"duration":1.0,"velocity":103.77963647028267}
{"position":120.09375,"instrument":"TheGrandeurPiano","level2":5,"level3":null,"pitch":73,"articulation":"standard","articulation_tags":["standard","long"],"duration":0.11805555555555555,"velocity":53.7043983069205}
{"position":120.15625,"instrument":"TheGrandeurPiano","level2":6,"level3":null,"pitch":76,"articulation":"standard","articulation_tags":["standard","long"],"duration":0.1388888888888889,"velocity":53.7043983069205}
{"position":120.1875,"instrument":"Vibraphone","level2":5,"level3":0,"pitch":82,"articulation":"hits","articulation_tags":["hits","short"],"duration":0.25,"velocity":95.65573399975203}
{"position":120.28125,"instrument":"TheGrandeurPiano","level2":5,"level3":null,"pitch":73,"articulation":"standard","articulation_tags":["standard","long"],"duration":0.1388888888888889,"velocity":53.7043983069205}
{"position":120.30208333333333,"instrument":"Vibraphone","level2":5,"level3":1,"pitch":81,"articulation":"hits","articulation_tags":["hits","short"],"duration":0.25,"velocity":94.94404455792667}
{"position":120.375,"instrument":"TheGrandeurPiano","level2":6,"level3":null,"pitch":77,"articulation":"standard","articulation_tags":["standard","long"],"duration":0.1597222222222222,"velocity":53.7043983069205}
{"position":120.42708333333333,"instrument":"TheGrandeurPiano","level2":6,"level3":null,"pitch":77,"articulation":"standard","articulation_tags":["standard","long"],"duration":0.2152777777777778,"velocity":53.7043983069205}
{"position":120.47916666666667,"instrument":"TheGrandeurPiano","level2":5,"level3":null,"pitch":73,"articulation":"standard","articulation_tags":["standard","long"],"duration":0.1527777777777778,"velocity":52.70789143712726}
{"position":120.71875,"instrument":"TheGrandeurPiano","level2":5,"level3":null,"pitch":73,"articulation":"standard","articulation_tags":["standard","long"],"duration":0.1736111111111111,"velocity":52.70789143712726}
{"position":120.75,"instrument":"TheGrandeurPiano","level2":6,"level3":null,"pitch":77,"articulation":"standard","articulation_tags":["standard","long"],"duration":0.2638888888888889,"velocity":52.70789143712726}
{"position":120.9375,"instrument":"Trumpet","level2":5,"level3":1,"pitch":81,"articulation":"marcato_muted","articulation_tags":["marcato_muted","short","marcato","muted"],"duration":1.0,"velocity":93.52099210933031}
{"position":120.97916666666667,"instrument":"TheGrandeurPiano","level2":4,"level3":null,"pitch":94,"articulation":"standard","articulation_tags":["standard","long"],"duration":0.9861111111111112,"velocity":52.3691100605697}
{"position":120.97916666666667,"instrument":"TheGrandeurPiano","level2":5,"level3":null,"pitch":73,"articulation":"standard","articulation_tags":["standard","long"],"duration":0.19444444444444445,"velocity":52.3691100605697}
{"position":121.01041666666667,"instrument":"Glockenspiel","level2":4,"level3":0,"pitch":85,"articulation":"hits","articulation_tags":["hits","short"],"duration":0.25,"velocity":107.36540148499563}
{"position":121.14583333333333,"instrument":"TheGrandeurPiano","level2":6,"level3":null,"pitch":78,"articulation":"standard","articulation_tags":["standard","long"],"duration":0.3263888888888889,"velocity":52.3691100605697}
{"position":121.17708333333333,"instrument":"Vibraphone","level2":5,"level3":0,"pitch":82,"articulation":"hits","articulation_tags":["hits","short"],"duration":0.25,"velocity":92.80965315967153}
{"position":121.26041666666667,"instrument":"TheGrandeurPiano","level2":5,"level3":null,"pitch":73,"articulation":"standard","articulation_tags":["standard","long"],"duration":0.20833333333333334,"velocity":52.3691100605697}
{"position":121.4375,"instrument":"Vibraphone","level2":5,"level3":2,"pitch":81,"articulation":"hits","articulation_tags":["hits","short"],"duration":0.25,"velocity":92.09845816123516}
{"position":121.4375,"instrument":"Vibraphone","level2":5,"level3":3,"pitch":81,"articulation":"hits","articulation_tags":["hits","short"],"duration":0.25,"velocity":92.09845816123516}
{"position":121.45833333333333,"instrument":"TheGrandeurPiano","level2":6,"level3":null,"pitch":79,"articulation":"standard","articulation_tags":["standard","long"],"duration":0.2152777777777778,"velocity":52.70789143712726}
{"position":121.48958333333333,"instrument":"TheGrandeurPiano","level2":4,"level3":null,"pitch":94,"articulation":"standard","articulation_tags":["standard","long"],"duration":1.0972222222222223,"velocity":52.70789143712726}
{"position":121.51041666666667,"instrument":"Glockenspiel","level2":4,"level3":7,"pitch":85,"articulation":"hits","articulation_tags":["hits","short"],"duration":0.25,"velocity":107.12730321359024}
{"position":121.51041666666667,"instrument":"Vibraphone","level2":5,"level3":3,"pitch":81,"articulation":"hits","articulation_tags":["hits","short"],"duration":0.25,"velocity":92.09845816123516}
{"position":121.51041666666667,"instrument":"Vibraphone","level2":5,"level3":3,"pitch":81,"articulation":"hits","articulation_tags":["hits","short"],"duration":0.25,"velocity":92.09845816123516}
{"position":121.58333333333333,"instrument":"TheGrandeurPiano","level2":5,"level3":null,"pitch":73,"articulation":"standard","articulation_tags":["standard","long"],"duration":0.22916666666666666,"velocity":52.70789143712726}
{"position":121.625,"instrument":"Vibraphone","level2":5,"level3":2,"pitch":81,"articulation":"hits","articulation_tags":["hits","short"],"duration":0.25,"velocity":91.38742428431422}
{"position":121.78125,"instrument":"TheGrandeurPiano","level2":6,"level3":null,"pitch":79,"articulation":"standard","articulation_tags":["standard","long"],"duration":0.22916666666666666,"velocity":52.70789143712726}
{"position":121.90625,"instrument":"TheGrandeurPiano","level2":5,"level3":null,"pitch":73,"articulation":"standard","articulation_tags":["standard","long"],"duration":0.5138888888888888,"velocity":52.70789143712726}
{"position":121.91666666666667,"instrument":"Vibraphone","level2":5,"level3":1,"pitch":81,"articulation":"hits","articulation_tags":["hits","short"],"duration":0.25,"velocity":91.45837824904339}
{"position":122.0625,"instrument":"Glockenspiel","level2":4,"level3":7,"pitch":85,"articulation":"hits","articulation_tags":["hits","short"],"duration":0.25,"velocity":107.12730321359024}
{"position":122.125,"instrument":"TheGrandeurPiano","level2":6,"level3":null,"pitch":80,"articulation":"standard","articulation_tags":["standard","long"],"duration":0.2361111111111111,"velocity":53.7043983069205}
{"position":122.20833333333333,"instrument":"Trumpet","level2":5,"level3":4,"pitch":82,"articulation":"staccato","articulation_tags":["staccato","st","short"],"duration":1.0,"velocity":90.75044960605463}
{"position":122.20833333333333,"instrument":"Vibraphone","level2":5,"level3":5,"pitch":81,"articulation":"hits","articulation_tags":["hits","short"],"duration":0.25,"velocity":90.75044960605463}
{"position":122.21875,"instrument":"Vibraphone","level2":5,"level3":4,"pitch":82,"articulation":"hits","articulation_tags":["hits","short"],"duration":0.25,"velocity":90.75044960605463}
{"position":122.33333333333333,"instrument":"Marimba","level2":5,"level3":4,"pitch":82,"articulation":"hits","articulation_tags":["hits","short"],"duration":0.25,"velocity":90.04297538563732}
{"position":122.35416666666667,"instrument":"Marimba","level2":5,"level3":5,"pitch":81,"articulation":"hits","articulation_tags":["hits","short"],"duration":0.25,"velocity":90.04297538563732}
{"position":122.45833333333333,"instrument":"TheGrandeurPiano","level2":4,"level3":null,"pitch":93,"articulation":"standard","articulation_tags":["standard","long"],"duration":0.7916666666666666,"velocity":53.7043983069205}
{"position":122.47916666666667,"instrument":"TheGrandeurPiano","level2":6,"level3":null,"pitch":80,"articulation":"standard","articulation_tags":["standard","long"],"duration":0.25,"velocity":55.30451013798564}
{"position":122.67708333333333,"instrument":"TheGrandeurPiano","level2":5,"level3":null,"pitch":74,"articulation":"standard","articulation_tags":["standard","long"],"duration":0.4097222222222222,"velocity":55.30451013798564}
{"position":122.78125,"instrument":"Cello","level2":6,"level3":1,"pitch":77,"articulation":"collegno","articulation_tags":["collegno","cl","short"],"duration":1.0,"velocity":110.02309164827076}
{"position":122.78125,"instrument":"Cello","level2":6,"level3":2,"pitch":77,"articulation":"pizzicato","articulation_tags":["pizzicato","pz","short"],"duration":1.0,"velocity":110.02309164827076}
{"position":122.79166666666667,"instrument":"Cello","level2":6,"level3":2,"pitch":77,"articulation":"pizzicato","articulation_tags":["pizzicato","pz","short"],"duration":1.0,"velocity":110.02309164827076}
{"position":122.85416666666667,"instrument":"TheGrandeurPiano","level2":6,"level3":null,"pitch":81,"articulation":"standard","articulation_tags":["standard","long"],"duration":0.2638888888888889,"velocity":55.30451013798564}
{"position":122.875,"instrument":"Cello","level2":5,"level3":3,"pitch":81,"articulation":"pizzicato","articulation_tags":["pizzicato","pz","short"],"duration":1.0,"velocity":89.44804630241988}
{"position":122.88541666666667,"instrument":"Viola","level2":5,"level3":2,"pitch":81,"articulation":"collegno","articulation_tags":["collegno","cl","short"],"duration":1.0,"velocity":89.44804630241988}
{"position":122.96875,"instrument":"Viola","level2":5,"level3":6,"pitch":80,"articulation":"collegno","articulation_tags":["collegno","cl","short"],"duration":1.0,"velocity":89.44804630241988}
{"position":122.96875,"instrument":"Violin","level2":5,"level3":7,"pitch":80,"articulation":"pizzicato","articulation_tags":["pizzicato","pz","short"],"duration":1.0,"velocity":89.44804630241988}
{"position":122.96875,"instrument":"Violin","level2":4,"level3":3,"pitch":83,"articulation":"long_flt","articulation_tags":["long_flt","flt","long","flautando"],"duration":2.5729166666666665,"velocity":84.80624557852963}
{"position":123.05208333333333,"instrument":"Vibraphone","level2":5,"level3":6,"pitch":80,"articulation":"hits","articulation_tags":["hits","short"],"duration":0.25,"velocity":89.44804630241988}
{"position":123.10416666666667,"instrument":"TheGrandeurPiano","level2":5,"level3":null,"pitch":74,"articulation":"standard","articulation_tags":["standard","long"],"duration":0.2986111111111111,"velocity":53.375439239995806}
{"position":123.13541666666667,"instrument":"TheGrandeurPiano","level2":4,"level3":null,"pitch":93,"articulation":"standard","articulation_tags":["standard","long"],"duration":1.2430555555555556,"velocity":53.375439239995806}
{"position":123.25,"instrument":"Trumpet","level2":6,"level3":1,"pitch":77,"articulation":"staccato","articulation_tags":["staccato","st","short"],"duration":1.0,"velocity":110.9999355896446}
{"position":123.25,"instrument":"TheGrandeurPiano","level2":6,"level3":null,"pitch":81,"articulation":"standard","articulation_tags":["standard","long"],"duration":0.2708333333333333,"velocity":53.375439239995806}
{"position":123.32291666666667,"instrument":"Vibraphone","level2":5,"level3":1,"pitch":80,"articulation":"hits","articulation_tags":["hits","short"],"duration":0.25,"velocity":88.89626735820627}
{"position":123.35416666666667,"instrument":"Vibraphone","level2":5,"level3":0,"pitch":82,"articulation":"hits","articulation_tags":["hits","short"],"duration":0.25,"velocity":88.89626735820627}
{"position":123.35416666666667,"instrument":"Marimba","level2":5,"level3":4,"pitch":82,"articulation":"hits","articulation_tags":["hits","short"],"duration":0.25,"velocity":88.89626735820627}
{"position":123.39583333333333,"instrument":"Marimba","level2":5,"level3":3,"pitch":80,"articulation":"hits","articulation_tags":["hits","short"],"duration":0.25,"velocity":88.89626735820627}
{"position":123.53125,"instrument":"Glockenspiel","level2":5,"level3":7,"pitch":80,"articulation":"hits","articulation_tags":["hits","short"],"duration":0.25,"velocity":88.89626735820627}
{"position":123.55208333333333,"instrument":"TheGrandeurPiano","level2":5,"level3":null,"pitch":74,"articulation":"standard","articulation_tags":["standard","long"],"duration":0.3194444444444444,"velocity":53.375439239995806}
{"position":123.5625,"instrument":"FrenchHorn","level2":6,"level3":0,"pitch":77,"articulation":"staccato","articulation_tags":["staccato","st","short"],"duration":1.0,"velocity":111.27351892591727}
{"position":123.64583333333333,"instrument":"TheGrandeurPiano","level2":4,"level3":null,"pitch":93,"articulation":"standard","articulation_tags":["standard","long"],"duration":0.6666666666666666,"velocity":56.23158300512256}
{"position":123.65625,"instrument":"TheGrandeurPiano","level2":6,"level3":null,"pitch":82,"articulation":"standard","articulation_tags":["standard","long"],"duration":0.2847222222222222,"velocity":56.23158300512256}
{"position":123.66666666666667,"instrument":"Violin","level2":4,"level3":1,"pitch":83,"articulation":"legato","articulation_tags":["legato","lg"],"duration":9.375,"velocity":82.89553509638138}
{"position":123.69791666666667,"instrument":"Violin","level2":4,"level3":1,"pitch":83,"articulation":"long_slt","articulation_tags":["long_slt","slt","long","sultasto"],"duration":3.8125,"velocity":82.89553509638138}
{"position":123.75,"instrument":"Violin","level2":5,"level3":5,"pitch":81,"articulation":"pizzicato","articulation_tags":["pizzicato","pz","short"],"duration":1.0,"velocity":88.18359700182673}
{"position":123.84375,"instrument":"Cello","level2":5,"level3":7,"pitch":80,"articulation":"pizzicato","articulation_tags":["pizzicato","pz","short"],"duration":1.0,"velocity":88.38526462615397}
{"position":123.90625,"instrument":"Glockenspiel","level2":4,"level3":0,"pitch":84,"articulation":"hits","articulation_tags":["hits","short"],"duration":0.25,"velocity":105.44776754819068}
{"position":123.94791666666667,"instrument":"TheGrandeurPiano","level2":6,"level3":null,"pitch":82,"articulation":"standard","articulation_tags":["standard","long"],"duration":0.8402777777777778,"velocity":52.70789143712726}
{"position":124.03125,"instrument":"TheGrandeurPiano","level2":5,"level3":null,"pitch":75,"articulation":"standard","articulation_tags":["standard","long"],"duration":0.3402777777777778,"velocity":52.70789143712726}
{"position":124.17708333333333,"instrument":"Vibraphone","level2":5,"level3":0,"pitch":81,"articulation":"hits","articulation_tags":["hits","short"],"duration":0.25,"velocity":87.65815915577647}
{"position":124.25,"instrument":"Trumpet","level2":5,"level3":8,"pitch":80,"articulation":"staccato","articulation_tags":["staccato","st","short"],"duration":1.0,"velocity":87.65815915577647}
{"position":124.25,"instrument":"Cello","level2":5,"level3":9,"pitch":80,"articulation":"pizzicato","articulation_tags":["pizzicato","pz","short"],"duration":1.0,"velocity":87.65815915577647}
{"position":124.45833333333333,"instrument":"Cello","level2":5,"level3":9,"pitch":80,"articulation":"pizzicato","articulation_tags":["pizzicato","pz","short"],"duration":1.0,"velocity":87.90434149005443}
{"position":124.53125,"instrument":"TheGrandeurPiano","level2":6,"level3":null,"pitch":83,"articulation":"standard","articulation_tags":["standard","long"],"duration":0.3055555555555556,"velocity":56.23158300512256}
{"position":124.54166666666667,"instrument":"TheGrandeurPiano","level2":5,"level3":null,"pitch":75,"articulation":"standard","articulation_tags":["standard","long"],"duration":0.3680555555555556,"velocity":56.23158300512256}
{"position":124.57291666666667,"instrument":"Vibraphone","level2":5,"level3":9,"pitch":80,"articulation":"hits","articulation_tags":["hits","short"],"duration":0.25,"velocity":87.1928358023309}
{"position":124.72916666666667,"instrument":"Vibraphone","level2":5,"level3":2,"pitch":81,"articulation":"hits","articulation_tags":["hits","short"],"duration":0.25,"velocity":87.1928358023309}
{"position":124.88541666666667,"instrument":"Vibraphone","level2":5,"level3":6,"pitch":80,"articulation":"hits","articulation_tags":["hits","short"],"duration":0.25,"velocity":87.48535625494945}
{"position":124.90625,"instrument":"Glockenspiel","level2":4,"level3":9,"pitch":85,"articulation":"hits","articulation_tags":["hits","short"],"duration":0.25,"velocity":104.7217915371055}
{"position":124.90625,"instrument":"Glockenspiel","level2":4,"level3":10,"pitch":85,"articulation":"hits","articulation_tags":["hits","short"],"duration":0.25,"velocity":104.7217915371055}
{"position":124.98958333333333,"instrument":"TheGrandeurPiano","level2":6,"level3":null,"pitch":83,"articulation":"standard","articulation_tags":["standard","long"],"duration":0.3194444444444444,"velocity":53.375439239995806}
{"position":125.0,"instrument":"TheGrandeurPiano","level2":4,"level3":null,"pitch":92,"articulation":"standard","articulation_tags":["standard","long"],"duration":1.6805555555555556,"velocity":53.375439239995806}
{"position":125.02083333333333,"instrument":"Vibraphone","level2":5,"level3":4,"pitch":81,"articulation":"hits","articulation_tags":["hits","short"],"duration":0.25,"velocity":87.48535625494945}
{"position":125.05208333333333,"instrument":"Viola","level2":4,"level3":10,"pitch":85,"articulation":"long_flt","articulation_tags":["long_flt","flt","long","flautando"],"duration":2.9791666666666665,"velocity":80.99989264940766}
{"position":125.09375,"instrument":"TheGrandeurPiano","level2":5,"level3":null,"pitch":76,"articulation":"standard","articulation_tags":["standard","long"],"duration":0.3888888888888889,"velocity":57.43290944852216}
{"position":125.15625,"instrument":"Viola","level2":4,"level3":8,"pitch":84,"articulation":"long_slt","articulation_tags":["long_slt","slt","long","sultasto"],"duration":4.8125,"velocity":80.99989264940766}
{"position":125.25,"instrument":"Trumpet","level2":4,"level3":8,"pitch":84,"articulation":"multitongue","articulation_tags":["multitongue","short"],"duration":1.0,"velocity":104.49994632470383}
{"position":125.3125,"instrument":"Cello","level2":5,"level3":10,"pitch":81,"articulation":"collegno","articulation_tags":["collegno","cl","short"],"duration":1.0,"velocity":87.13363004450905}
{"position":125.3125,"instrument":"Cello","level2":5,"level3":11,"pitch":81,"articulation":"pizzicato","articulation_tags":["pizzicato","pz","short"],"duration":1.0,"velocity":87.13363004450905}
{"position":125.375,"instrument":"Cello","level2":6,"level3":2,"pitch":77,"articulation":"pizzicato","articulation_tags":["pizzicato","pz","short"],"duration":1.0,"velocity":113.86979610452555}
{"position":125.40625,"instrument":"Viola","level2":5,"level3":7,"pitch":80,"articulation":"pizzicato","articulation_tags":["pizzicato","pz","short"],"duration":1.0,"velocity":87.13363004450905}
{"position":125.45833333333333,"instrument":"TheGrandeurPiano","level2":6,"level3":null,"pitch":84,"articulation":"standard","articulation_tags":["standard","long"],"duration":0.3263888888888889,"velocity":55.30451013798564}
{"position":125.51041666666667,"instrument":"TheGrandeurPiano","level2":4,"level3":null,"pitch":92,"articulation":"standard","articulation_tags":["standard","long"],"duration":0.5069444444444444,"velocity":55.30451013798564}
{"position":125.51041666666667,"instrument":"TheGrandeurPiano","level2":5,"level3":null,"pitch":77,"articulation":"standard","articulation_tags":["standard","long"],"duration":0.2361111111111111,"velocity":55.30451013798564}
{"position":125.54166666666667,"instrument":"Violin","level2":4,"level3":3,"pitch":83,"articulation":"long_cs","articulation_tags":["long_cs","cs","long","consordina"],"duration":1.5208333333333333,"velocity":79.54105850461586}
{"position":125.55208333333333,"instrument":"Violin","level2":4,"level3":7,"pitch":85,"articulation":"long_hrm","articulation_tags":["long_hrm","hrm","long","harmonics"],"duration":3.2083333333333335,"velocity":79.54105850461586}
{"position":125.63541666666667,"instrument":"Cello","level2":5,"level3":10,"pitch":81,"articulation":"collegno","articulation_tags":["collegno","cl","short"],"duration":1.0,"velocity":87.50465485438832}
{"position":125.86458333333333,"instrument":"Glockenspiel","level2":4,"level3":9,"pitch":85,"articulation":"hits","articulation_tags":["hits","short"],"duration":0.25,"velocity":103.77052925230794}
{"position":125.86458333333333,"instrument":"TheGrandeurPiano","level2":5,"level3":null,"pitch":77,"articulation":"standard","articulation_tags":["standard","long"],"duration":0.2222222222222222,"velocity":53.7043983069205}
{"position":125.95833333333333,"instrument":"TheGrandeurPiano","level2":6,"level3":null,"pitch":84,"articulation":"standard","articulation_tags":["standard","long"],"duration":0.3402777777777778,"velocity":53.7043983069205}
{"position":125.96875,"instrument":"Glockenspiel","level2":4,"level3":10,"pitch":85,"articulation":"hits","articulation_tags":["hits","short"],"duration":0.25,"velocity":103.77052925230794}
{"position":126.05208333333333,"instrument":"FrenchHorn","level2":6,"level3":2,"pitch":77,"articulation":"marcato_muted","articulation_tags":["marcato_muted","short","marcato","muted"],"duration":1.0,"velocity":114.5281234731197}
{"position":126.10416666666667,"instrument":"Glockenspiel","level2":4,"level3":0,"pitch":84,"articulation":"hits","articulation_tags":["hits","short"],"duration":0.25,"velocity":103.77052925230794}
{"position":126.19791666666667,"instrument":"TheGrandeurPiano","level2":5,"level3":null,"pitch":78,"articulation":"standard","articulation_tags":["standard","long"],"duration":0.20833333333333334,"velocity":52.70789143712726}
{"position":126.20833333333333,"instrument":"Vibraphone","level2":4,"level3":9,"pitch":85,"articulation":"hits","articulation_tags":["hits","short"],"duration":0.25,"velocity":103.77052925230794}
{"position":126.3125,"instrument":"TheGrandeurPiano","level2":5,"level3":null,"pitch":78,"articulation":"standard","articulation_tags":["standard","long"],"duration":0.4583333333333333,"velocity":52.70789143712726}
{"position":126.42708333333333,"instrument":"Trumpet","level2":5,"level3":1,"pitch":80,"articulation":"marcato_muted","articulation_tags":["marcato_muted","short","marcato","muted"],"duration":1.0,"velocity":87.11384148908121}
{"position":126.46875,"instrument":"TheGrandeurPiano","level2":6,"level3":null,"pitch":85,"articulation":"standard","articulation_tags":["standard","long"],"duration":0.3541666666666667,"velocity":57.43290944852216}
{"position":126.47916666666667,"instrument":"Cello","level2":5,"level3":3,"pitch":80,"articulation":"pizzicato","articulation_tags":["pizzicato","pz","short"],"duration":1.0,"velocity":87.11384148908121}
{"position":126.47916666666667,"instrument":"Viola","level2":4,"level3":10,"pitch":85,"articulation":"long_flt","articulation_tags":["long_flt","flt","long","flautando"],"duration":1.5625,"velocity":78.08523422708528}
{"position":126.53125,"instrument":"Cello","level2":6,"level3":3,"pitch":78,"articulation":"collegno","articulation_tags":["collegno","cl","short"],"duration":1.0,"velocity":114.87374851741797}
{"position":126.53125,"instrument":"Cello","level2":6,"level3":3,"pitch":78,"articulation":"collegno","articulation_tags":["collegno","cl","short"],"duration":1.0,"velocity":114.87374851741797}
{"position":126.53125,"instrument":"Violin","level2":6,"level3":4,"pitch":78,"articulation":"pizzicato","articulation_tags":["pizzicato","pz","short"],"duration":1.0,"velocity":114.87374851741797}
{"position":126.82291666666667,"instrument":"TheGrandeurPiano","level2":5,"level3":null,"pitch":79,"articulation":"standard","articulation_tags":["standard","long"],"duration":0.1875,"velocity":57.13612578350823}
{"position":126.94791666666667,"instrument":"Cello","level2":5,"level3":2,"pitch":81,"articulation":"collegno","articulation_tags":["collegno","cl","short"],"duration":1.0,"velocity":88.10961735820078}
{"position":126.94791666666667,"instrument":"TheGrandeurPiano","level2":4,"level3":null,"pitch":91,"articulation":"standard","articulation_tags":["standard","long"],"duration":0.4097222222222222,"velocity":57.13612578350823}
{"position":126.98958333333333,"instrument":"TheGrandeurPiano","level2":5,"level3":null,"pitch":79,"articulation":"standard","articulation_tags":["standard","long"],"duration":0.5069444444444444,"velocity":57.13612578350823}
{"position":127.0,"instrument":"TheGrandeurPiano","level2":6,"level3":null,"pitch":85,"articulation":"standard","articulation_tags":["standard","long"],"duration":0.3680555555555556,"velocity":57.13612578350823}
{"position":127.02083333333333,"instrument":"Violin","level2":5,"level3":2,"pitch":80,"articulation":"collegno","articulation_tags":["collegno","cl","short"],"duration":1.0,"velocity":87.56240229624802}
{"position":127.0625,"instrument":"Violin","level2":4,"level3":3,"pitch":83,"articulation":"long_hrm","articulation_tags":["long_hrm","hrm","long","harmonics"],"duration":0.3020833333333333,"velocity":76.63263662310587}
{"position":127.16666666666667,"instrument":"Violin","level2":5,"level3":7,"pitch":80,"articulation":"collegno","articulation_tags":["collegno","cl","short"],"duration":1.0,"velocity":88.10961735820078}
{"position":127.19791666666667,"instrument":"Violin","level2":4,"level3":0,"pitch":84,"articulation":"long_hrm","articulation_tags":["long_hrm","hrm","long","harmonics"],"duration":0.16666666666666666,"velocity":76.63263662310587}
{"position":127.3125,"instrument":"Glockenspiel","level2":4,"level3":0,"pitch":83,"articulation":"hits","articulation_tags":["hits","short"],"duration":0.25,"velocity":102.31631831155293}
{"position":127.375,"instrument":"Viola","level2":5,"level3":0,"pitch":81,"articulation":"collegno","articulation_tags":["collegno","cl","short"],"duration":1.0,"velocity":88.10961735820078}
{"position":127.375,"instrument":"Violin","level2":5,"level3":10,"pitch":81,"articulation":"collegno","articulation_tags":["collegno","cl","short"],"duration":1.0,"velocity":88.10961735820078}
{"position":127.375,"instrument":"TheGrandeurPiano","level2":5,"level3":null,"pitch":80,"articulation":"standard","articulation_tags":["standard","long"],"duration":0.1736111111111111,"velocity":57.43290944852216}
{"position":127.52083333333333,"instrument":"Trumpet","level2":4,"level3":1,"pitch":83,"articulation":"multitongue","articulation_tags":["multitongue","short"],"duration":1.0,"velocity":102.31631831155293}
{"position":127.52083333333333,"instrument":"TheGrandeurPiano","level2":4,"level3":null,"pitch":91,"articulation":"standard","articulation_tags":["standard","long"],"duration":1.7083333333333333,"velocity":57.43290944852216}
{"position":127.55208333333333,"instrument":"TheGrandeurPiano","level2":6,"level3":null,"pitch":86,"articulation":"standard","articulation_tags":["standard","long"],"duration":0.3819444444444444,"velocity":57.43290944852216}
{"position":127.55208333333333,"instrument":"Cello","level2":5,"level3":10,"pitch":81,"articulation":"pizzicato","articulation_tags":["pizzicato","pz","short"],"duration":1.0,"velocity":88.66322932297643}
{"position":127.5625,"instrument":"TheGrandeurPiano","level2":4,"level3":null,"pitch":90,"articulation":"standard","articulation_tags":["standard","long"],"duration":0.3680555555555556,"velocity":57.43290944852216}
{"position":127.59375,"instrument":"Cello","level2":5,"level3":5,"pitch":81,"articulation":"pizzicato","articulation_tags":["pizzicato","pz","short"],"duration":1.0,"velocity":88.66322932297643}
{"position":127.60416666666667,"instrument":"Cello","level2":6,"level3":4,"pitch":78,"articulation":"pizzicato","articulation_tags":["pizzicato","pz","short"],"duration":1.0,"velocity":116.26195026376686}
{"position":127.875,"instrument":"Violin","level2":6,"level3":3,"pitch":78,"articulation":"collegno","articulation_tags":["collegno","cl","short"],"duration":1.0,"velocity":116.26195026376686}
{"position":127.98958333333333,"instrument":"TubularBells","level2":6,"level3":3,"pitch":78,"articulation":"hits_dumped","articulation_tags":["hits_dumped","short","hits","dumped"],"duration":0.25,"velocity":116.26195026376686}
{"position":128.08333333333334,"instrument":"Cello","level2":5,"level3":0,"pitch":81,"articulation":"collegno","articulation_tags":["collegno","cl","short"],"duration":1.0,"velocity":89.33601649190953}
{"position":128.10416666666666,"instrument":"TheGrandeurPiano","level2":5,"level3":null,"pitch":81,"articulation":"standard","articulation_tags":["standard","long"],"duration":0.14583333333333334,"velocity":55.30451013798564}
{"position":128.11458333333334,"instrument":"TheGrandeurPiano","level2":4,"level3":null,"pitch":90,"articulation":"standard","articulation_tags":["standard","long"],"duration":0.3333333333333333,"velocity":55.30451013798564}
{"position":128.27083333333334,"instrument":"Viola","level2":5,"level3":4,"pitch":81,"articulation":"collegno","articulation_tags":["collegno","cl","short"],"duration":1.0,"velocity":89.91951862010504}
{"position":128.32291666666666,"instrument":"TheGrandeurPiano","level2":5,"level3":null,"pitch":82,"articulation":"standard","articulation_tags":["standard","long"],"duration":0.1388888888888889,"velocity":55.30451013798564}
{"position":128.53125,"instrument":"TheGrandeurPiano","level2":5,"level3":null,"pitch":82,"articulation":"standard","articulation_tags":["standard","long"],"duration":0.13194444444444445,"velocity":55.30451013798564}
{"position":128.61458333333334,"instrument":"TheGrandeurPiano","level2":4,"level3":null,"pitch":89,"articulation":"standard","articulation_tags":["standard","long"],"duration":0.2986111111111111,"velocity":57.43290944852216}
{"position":128.66666666666666,"instrument":"Trumpet","level2":5,"level3":3,"pitch":80,"articulation":"staccato","articulation_tags":["staccato","st","short"],"duration":1.0,"velocity":90.75044960605463}
{"position":128.71875,"instrument":"TheGrandeurPiano","level2":6,"level3":null,"pitch":87,"articulation":"standard","articulation_tags":["standard","long"],"duration":0.4097222222222222,"velocity":57.43290944852216}
{"position":128.76041666666666,"instrument":"Viola","level2":4,"level3":7,"pitch":84,"articulation":"long_hrm","articulation_tags":["long_hrm","hrm","long","harmonics"],"duration":2.5,"velocity":71.82178695700586}
{"position":128.80208333333334,"instrument":"Viola","level2":4,"level3":8,"pitch":84,"articulation":"long_flt","articulation_tags":["long_flt","flt","long","flautando"],"duration":1.3333333333333333,"velocity":71.82178695700586}
{"position":128.88541666666666,"instrument":"Cello","level2":5,"level3":1,"pitch":80,"articulation":"pizzicato","articulation_tags":["pizzicato","pz","short"],"duration":1.0,"velocity":91.37319969018826}
{"position":128.90625,"instrument":"TheGrandeurPiano","level2":5,"level3":null,"pitch":83,"articulation":"standard","articulation_tags":["standard","long"],"duration":0.11805555555555555,"velocity":57.43290944852216}
{"position":129.0625,"instrument":"TheGrandeurPiano","level2":4,"level3":null,"pitch":89,"articulation":"standard","articulation_tags":["standard","long"],"duration":0.2708333333333333,"velocity":57.43290944852216}
{"position":129.125,"instrument":"Violin","level2":4,"level3":9,"pitch":84,"articulation":"long_cs","articulation_tags":["long_cs","cs","long","consordina"],"duration":1.0,"velocity":70.37216843828313}
{"position":129.19791666666666,"instrument":"Cello","level2":5,"level3":0,"pitch":80,"articulation":"collegno","articulation_tags":["collegno","cl","short"],"duration":1.0,"velocity":92.63765556290386}
{"position":129.23958333333334,"instrument":"TheGrandeurPiano","level2":5,"level3":null,"pitch":84,"articulation":"standard","articulation_tags":["standard","long"],"duration":0.09722222222222222,"velocity":56.23158300512256}
{"position":129.3125,"instrument":"Cello","level2":6,"level3":4,"pitch":78,"articulation":"pizzicato","articulation_tags":["pizzicato","pz","short"],"duration":1.0,"velocity":117.01396456316496}
{"position":129.33333333333334,"instrument":"TheGrandeurPiano","level2":6,"level3":null,"pitch":87,"articulation":"standard","articulation_tags":["standard","long"],"duration":0.4305555555555556,"velocity":56.23158300512256}
{"position":129.38541666666666,"instrument":"TheGrandeurPiano","level2":5,"level3":null,"pitch":85,"articulation":"standard","articulation_tags":["standard","long"],"duration":0.09027777777777778,"velocity":56.23158300512256}
{"position":129.40625,"instrument":"Cello","level2":5,"level3":0,"pitch":80,"articulation":"collegno","articulation_tags":["collegno","cl","short"],"duration":1.0,"velocity":93.92346436374521}
{"position":129.45833333333334,"instrument":"Viola","level2":5,"level3":3,"pitch":80,"articulation":"collegno","articulation_tags":["collegno","cl","short"],"duration":1.0,"velocity":93.92346436374521}
{"position":129.46875,"instrument":"TheGrandeurPiano","level2":4,"level3":null,"pitch":88,"articulation":"standard","articulation_tags":["standard","long"],"duration":0.24305555555555555,"velocity":56.23158300512256}
{"position":129.53125,"instrument":"TheGrandeurPiano","level2":5,"level3":null,"pitch":85,"articulation":"standard","articulation_tags":["standard","long"],"duration":0.08333333333333333,"velocity":56.23158300512256}
{"position":129.65625,"instrument":"TheGrandeurPiano","level2":5,"level3":null,"pitch":86,"articulation":"standard","articulation_tags":["standard","long"],"duration":0.0763888888888889,"velocity":59.44946972455271}
{"position":129.77083333333334,"instrument":"TheGrandeurPiano","level2":5,"level3":null,"pitch":86,"articulation":"standard","articulation_tags":["standard","long"],"duration":0.06944444444444445,"velocity":59.44946972455271}
{"position":129.8125,"instrument":"Trumpet","level2":5,"level3":4,"pitch":81,"articulation":"staccato","articulation_tags":["staccato","st","short"],"duration":1.0,"velocity":95.88414966672474}
{"position":129.84375,"instrument":"TheGrandeurPiano","level2":4,"level3":null,"pitch":88,"articulation":"standard","articulation_tags":["standard","long"],"duration":0.1597222222222222,"velocity":59.44946972455271}
{"position":129.85416666666666,"instrument":"TheGrandeurPiano","level2":5,"level3":null,"pitch":86,"articulation":"standard","articulation_tags":["standard","long"],"duration":0.1527777777777778,"velocity":59.44946972455271}
{"position":129.88541666666666,"instrument":"TheGrandeurPiano","level2":5,"level3":null,"pitch":87,"articulation":"standard","articulation_tags":["standard","long"],"duration":0.0625,"velocity":59.44946972455271}
{"position":129.96875,"instrument":"Viola","level2":4,"level3":8,"pitch":84,"articulation":"long_flt","articulation_tags":["long_flt","flt","long","flautando"],"duration":0.16666666666666666,"velocity":67.4853830613504}
{"position":129.97916666666666,"instrument":"Cello","level2":5,"level3":1,"pitch":80,"articulation":"pizzicato","articulation_tags":["pizzicato","pz","short"],"duration":1.0,"velocity":96.30883133779298}
{"position":129.97916666666666,"instrument":"TheGrandeurPiano","level2":6,"level3":null,"pitch":88,"articulation":"standard","articulation_tags":["standard","long"],"duration":0.4444444444444444,"velocity":56.23158300512256}
{"position":129.97916666666666,"instrument":"TheGrandeurPiano","level2":5,"level3":null,"pitch":87,"articulation":"standard","articulation_tags":["standard","long"],"duration":0.05555555555555555,"velocity":56.23158300512256}
{"position":130.02083333333334,"instrument":"Violin","level2":5,"level3":4,"pitch":80,"articulation":"collegno","articulation_tags":["collegno","cl","short"],"duration":1.0,"velocity":97.02446720541349}
{"position":130.0625,"instrument":"TheGrandeurPiano","level2":5,"level3":null,"pitch":88,"articulation":"standard","articulation_tags":["standard","long"],"duration":0.013888888888888888,"velocity":56.23158300512256}
{"position":130.11458333333334,"instrument":"Violin","level2":4,"level3":9,"pitch":84,"articulation":"long_flt","articulation_tags":["long_flt","flt","long","flautando"],"duration":0.020833333333333332,"velocity":67.4853830613504}
{"position":130.25,"instrument":"Cello","level2":6,"level3":5,"pitch":79,"articulation":"collegno","articulation_tags":["collegno","cl","short"],"duration":1.0,"velocity":117.80419076818299}
{"position":130.25,"instrument":"Viola","level2":6,"level3":6,"pitch":79,"articulation":"pizzicato","articulation_tags":["pizzicato","pz","short"],"duration":1.0,"velocity":117.80419076818299}
{"position":130.26041666666666,"instrument":"Viola","level2":6,"level3":5,"pitch":79,"articulation":"collegno","articulation_tags":["collegno","cl","short"],"duration":1.0,"velocity":117.80419076818299}
{"position":130.3125,"instrument":"Cello","level2":5,"level3":4,"pitch":80,"articulation":"pizzicato","articulation_tags":["pizzicato","pz","short"],"duration":1.0,"velocity":97.7426915306752}
{"position":130.36458333333334,"instrument":"Violin","level2":4,"level3":1,"pitch":83,"articulation":"long_flt","articulation_tags":["long_flt","flt","long","flautando"],"duration":1.96875,"velocity":67.4853830613504}
{"position":130.64583333333334,"instrument":"TheGrandeurPiano","level2":6,"level3":null,"pitch":88,"articulation":"standard","articulation_tags":["standard","long"],"duration":0.4652777777777778,"velocity":57.43290944852216}
{"position":130.83333333333334,"instrument":"Trumpet","level2":6,"level3":6,"pitch":79,"articulation":"marcato_muted","articulation_tags":["marcato_muted","short","marcato","muted"],"duration":1.0,"velocity":118.21302447016333}
{"position":130.9375,"instrument":"Cello","level2":6,"level3":2,"pitch":77,"articulation":"pizzicato","articulation_tags":["pizzicato","pz","short"],"duration":1.0,"velocity":118.21302447016333}
{"position":131.14583333333334,"instrument":"Cello","level2":6,"level3":5,"pitch":79,"articulation":"collegno","articulation_tags":["collegno","cl","short"],"duration":1.0,"velocity":118.21302447016333}
{"position":131.26041666666666,"instrument":"Viola","level2":4,"level3":7,"pitch":84,"articulation":"long_hrm","articulation_tags":["long_hrm","hrm","long","harmonics"],"duration":1.65625,"velocity":67.4853830613504}
{"position":131.34375,"instrument":"TheGrandeurPiano","level2":6,"level3":null,"pitch":89,"articulation":"standard","articulation_tags":["standard","long"],"duration":0.4861111111111111,"velocity":59.72940019077434}
{"position":131.47916666666666,"instrument":"Cello","level2":6,"level3":3,"pitch":77,"articulation":"collegno","articulation_tags":["collegno","cl","short"],"duration":1.0,"velocity":118.63068624687892}
{"position":132.07291666666666,"instrument":"TheGrandeurPiano","level2":6,"level3":null,"pitch":89,"articulation":"standard","articulation_tags":["standard","long"],"duration":0.5069444444444444,"velocity":58.30981868931137}
{"position":132.14583333333334,"instrument":"Trumpet","level2":6,"level3":2,"pitch":77,"articulation":"staccato","articulation_tags":["staccato","st","short"],"duration":1.0,"velocity":119.05694103374063}
{"position":132.28125,"instrument":"Cello","level2":6,"level3":4,"pitch":78,"articulation":"pizzicato","articulation_tags":["pizzicato","pz","short"],"duration":1.0,"velocity":119.05694103374063}
{"position":132.32291666666666,"instrument":"Viola","level2":4,"level3":1,"pitch":83,"articulation":"long_cs","articulation_tags":["long_cs","cs","long","consordina"],"duration":0.9479166666666666,"velocity":67.4853830613504}
{"position":132.46875,"instrument":"Viola","level2":4,"level3":7,"pitch":84,"articulation":"long_hrm","articulation_tags":["long_hrm","hrm","long","harmonics"],"duration":0.8229166666666666,"velocity":67.4853830613504}
{"position":132.63541666666666,"instrument":"Cello","level2":6,"level3":5,"pitch":78,"articulation":"collegno","articulation_tags":["collegno","cl","short"],"duration":1.0,"velocity":119.05694103374063}
{"position":132.83333333333334,"instrument":"TheGrandeurPiano","level2":6,"level3":null,"pitch":90,"articulation":"standard","articulation_tags":["standard","long"],"duration":0.5347222222222222,"velocity":61.90314150644675}
{"position":132.92708333333334,"instrument":"Viola","level2":4,"level3":7,"pitch":83,"articulation":"long_hrm","articulation_tags":["long_hrm","hrm","long","harmonics"],"duration":0.375,"velocity":67.4853830613504}
{"position":133.03125,"instrument":"Viola","level2":4,"level3":1,"pitch":83,"articulation":"long_cs","articulation_tags":["long_cs","cs","long","consordina"],"duration":0.2604166666666667,"velocity":67.4853830613504}
{"position":133.0625,"instrument":"Cello","level2":6,"level3":6,"pitch":79,"articulation":"pizzicato","articulation_tags":["pizzicato","pz","short"],"duration":1.0,"velocity":119.4915574547114}
{"position":133.27083333333334,"instrument":"Trumpet","level2":4,"level3":1,"pitch":83,"articulation":"multitongue","articulation_tags":["multitongue","short"],"duration":1.0,"velocity":97.7426915306752}
{"position":133.48958333333334,"instrument":"Cello","level2":6,"level3":6,"pitch":78,"articulation":"pizzicato","articulation_tags":["pizzicato","pz","short"],"duration":1.0,"velocity":119.4915574547114}
{"position":133.63541666666666,"instrument":"TheGrandeurPiano","level2":6,"level3":null,"pitch":90,"articulation":"standard","articulation_tags":["standard","long"],"duration":0.5625,"velocity":62.94971338624596}
{"position":134.02083333333334,"instrument":"Cello","level2":6,"level3":5,"pitch":78,"articulation":"collegno","articulation_tags":["collegno","cl","short"],"duration":1.0,"velocity":119.9343080675887}
{"position":134.19791666666666,"instrument":"Cello","level2":6,"level3":4,"pitch":77,"articulation":"pizzicato","articulation_tags":["pizzicato","pz","short"],"duration":1.0,"velocity":119.9343080675887}
{"position":134.47916666666666,"instrument":"TheGrandeurPiano","level2":6,"level3":null,"pitch":91,"articulation":"standard","articulation_tags":["standard","long"],"duration":0.5972222222222222,"velocity":61.637484825203416}
{"position":134.84375,"instrument":"Trumpet","level2":6,"level3":3,"pitch":77,"articulation":"staccato_muted","articulation_tags":["staccato_muted","stmt","short","staccato","muted"],"duration":1.0,"velocity":120.36090897668167}
{"position":135.375,"instrument":"TheGrandeurPiano","level2":6,"level3":null,"pitch":91,"articulation":"standard","articulation_tags":["standard","long"],"duration":0.6388888888888888,"velocity":60.00741980182357}
{"position":136.33333333333334,"instrument":"TheGrandeurPiano","level2":6,"level3":null,"pitch":92,"articulation":"standard","articulation_tags":["standard","long"],"duration":0.6875,"velocity":62.94971338624596}
{"position":136.35416666666666,"instrument":"Trumpet","level2":6,"level3":3,"pitch":77,"articulation":"staccato","articulation_tags":["staccato","st","short"],"duration":1.0,"velocity":121.22733173805739}
{"position":136.38541666666666,"instrument":"Cello","level2":6,"level3":2,"pitch":77,"articulation":"collegno","articulation_tags":["collegno","cl","short"],"duration":1.0,"velocity":121.22733173805739}
{"position":136.48958333333334,"instrument":"Cello","level2":6,"level3":5,"pitch":78,"articulation":"collegno","articulation_tags":["collegno","cl","short"],"duration":1.0,"velocity":121.22733173805739}
{"position":137.36458333333334,"instrument":"TheGrandeurPiano","level2":6,"level3":null,"pitch":92,"articulation":"standard","articulation_tags":["standard","long"],"duration":0.75,"velocity":61.637484825203416}
{"position":138.10416666666666,"instrument":"Trumpet","level2":6,"level3":6,"pitch":78,"articulation":"marcato_muted","articulation_tags":["marcato_muted","short","marcato","muted"],"duration":1.0,"velocity":121.67086145466351}
{"position":138.45833333333334,"instrument":"TheGrandeurPiano","level2":6,"level3":null,"pitch":92,"articulation":"standard","articulation_tags":["standard","long"],"duration":1.8402777777777777,"velocity":62.94971338624596}
{"position":138.5,"instrument":"Cello","level2":6,"level3":6,"pitch":78,"articulation":"pizzicato_bartok","articulation_tags":["pizzicato_bartok","pzb","short","pizzicato","bartok"],"duration":1.0,"velocity":121.11716158206013}
{"position":138.5,"instrument":"TheGrandeurPiano","level2":6,"level3":null,"pitch":93,"articulation":"standard","articulation_tags":["standard","long"],"duration":0.8333333333333334,"velocity":62.16716333076495}
{"position":139.09375,"instrument":"Cello","level2":6,"level3":4,"pitch":77,"articulation":"pizzicato","articulation_tags":["pizzicato","pz","short"],"duration":1.0,"velocity":121.5726643258606}
{"position":139.75,"instrument":"TheGrandeurPiano","level2":6,"level3":null,"pitch":93,"articulation":"standard","articulation_tags":["standard","long"],"duration":0.9583333333333334,"velocity":62.16716333076495}
{"position":140.3125,"instrument":"Clarinet","level2":6,"level3":5,"pitch":77,"articulation":"staccato","articulation_tags":["staccato","st","short"],"duration":0.25,"velocity":122.03457125515433}
{"position":141.1875,"instrument":"TheGrandeurPiano","level2":6,"level3":null,"pitch":94,"articulation":"standard","articulation_tags":["standard","long"],"duration":1.1666666666666667,"velocity":63.971936386419245}
{"position":141.21875,"instrument":"TheGrandeurPiano","level2":6,"level3":null,"pitch":94,"articulation":"standard","articulation_tags":["standard","long"],"duration":1.4513888888888888,"velocity":63.971936386419245}
{"position":141.97916666666666,"instrument":"Trumpet","level2":6,"level3":4,"pitch":77,"articulation":"marcato_muted","articulation_tags":["marcato_muted","short","marcato","muted"],"duration":1.0,"velocity":121.96963624316726}
{"position":142.5,"instrument":"Cello","level2":6,"level3":7,"pitch":78,"articulation":"collegno","articulation_tags":["collegno","cl","short"],"duration":1.0,"velocity":121.96963624316726}
{"position":142.5,"instrument":"Cello","level2":6,"level3":8,"pitch":78,"articulation":"pizzicato","articulation_tags":["pizzicato","pz","short"],"duration":1.0,"velocity":121.96963624316726}
{"position":142.65625,"instrument":"Cello","level2":6,"level3":8,"pitch":78,"articulation":"pizzicato","articulation_tags":["pizzicato","pz","short"],"duration":1.0,"velocity":121.96963624316726}
{"position":142.72916666666666,"instrument":"Cello","level2":6,"level3":6,"pitch":77,"articulation":"pizzicato_bartok","articulation_tags":["pizzicato_bartok","pzb","short","pizzicato","bartok"],"duration":1.0,"velocity":121.96963624316726}
{"position":142.91666666666666,"instrument":"Viola","level2":6,"level3":7,"pitch":78,"articulation":"collegno","articulation_tags":["collegno","cl","short"],"duration":1.0,"velocity":121.96963624316726}
{"position":142.94791666666666,"instrument":"TheGrandeurPiano","level2":6,"level3":null,"pitch":94,"articulation":"standard","articulation_tags":["standard","long"],"duration":1.7083333333333333,"velocity":63.971936386419245}
{"position":143.39583333333334,"instrument":"TheGrandeurPiano","level2":6,"level3":null,"pitch":94,"articulation":"standard","articulation_tags":["standard","long"],"duration":1.2430555555555556,"velocity":61.637484825203416}
{"position":144.03125,"instrument":"Clarinet","level2":6,"level3":5,"pitch":77,"articulation":"staccato","articulation_tags":["staccato","st","short"],"duration":0.25,"velocity":121.9262963158358}
{"position":144.16666666666666,"instrument":"Trumpet","level2":6,"level3":4,"pitch":76,"articulation":"marcato_muted","articulation_tags":["marcato_muted","short","marcato","muted"],"duration":1.0,"velocity":121.9262963158358}
{"position":144.78125,"instrument":"Cello","level2":6,"level3":8,"pitch":78,"articulation":"pizzicato","articulation_tags":["pizzicato","pz","short"],"duration":1.0,"velocity":121.9262963158358}
{"position":145.17708333333334,"instrument":"Trumpet","level2":6,"level3":7,"pitch":78,"articulation":"staccato_muted","articulation_tags":["staccato_muted","stmt","short","staccato","muted"],"duration":1.0,"velocity":121.9262963158358}
{"position":145.26041666666666,"instrument":"TheGrandeurPiano","level2":6,"level3":null,"pitch":94,"articulation":"standard","articulation_tags":["standard","long"],"duration":1.1041666666666667,"velocity":61.90314150644675}
{"position":145.5,"instrument":"TheGrandeurPiano","level2":6,"level3":null,"pitch":95,"articulation":"standard","articulation_tags":["standard","long"],"duration":2.4960629921259843,"velocity":62.16716333076495}
{"position":145.88541666666666,"instrument":"Cello","level2":6,"level3":7,"pitch":78,"articulation":"collegno","articulation_tags":["collegno","cl","short"],"duration":1.0,"velocity":121.90461133486464}
{"position":146.26041666666666,"instrument":"Clarinet","level2":8,"level3":0,"pitch":65,"articulation":"legato","articulation_tags":["legato","lg"],"duration":5.052083333333333,"velocity":115.80922266972928}
{"position":146.65625,"instrument":"TheGrandeurPiano","level2":7,"level3":null,"pitch":62,"articulation":"standard","articulation_tags":["standard","long"],"duration":0.0,"velocity":59.72940019077434}
{"position":146.65625,"instrument":"TheGrandeurPiano","level2":7,"level3":null,"pitch":62,"articulation":"standard","articulation_tags":["standard","long"],"duration":0.05555555555555555,"velocity":59.72940019077434}
{"position":146.65625,"instrument":"TheGrandeurPiano","level2":7,"level3":null,"pitch":62,"articulation":"standard","articulation_tags":["standard","long"],"duration":0.013888888888888888,"velocity":59.72940019077434}
{"position":146.65625,"instrument":"TheGrandeurPiano","level2":8,"level3":null,"pitch":61,"articulation":"standard","articulation_tags":["standard","long"],"duration":0.013888888888888888,"velocity":59.72940019077434}
{"position":146.67708333333334,"instrument":"TheGrandeurPiano","level2":7,"level3":null,"pitch":62,"articulation":"standard","articulation_tags":["standard","long"],"duration":0.041666666666666664,"velocity":59.72940019077434}
{"position":146.6875,"instrument":"TheGrandeurPiano","level2":8,"level3":null,"pitch":61,"articulation":"standard","articulation_tags":["standard","long"],"duration":0.041666666666666664,"velocity":61.637484825203416}
{"position":146.73958333333334,"instrument":"TheGrandeurPiano","level2":7,"level3":null,"pitch":62,"articulation":"standard","articulation_tags":["standard","long"],"duration":0.06944444444444445,"velocity":61.637484825203416}
{"position":146.73958333333334,"instrument":"TheGrandeurPiano","level2":8,"level3":null,"pitch":61,"articulation":"standard","articulation_tags":["standard","long"],"duration":0.06944444444444445,"velocity":61.637484825203416}
{"position":146.78125,"instrument":"Trumpet","level2":6,"level3":8,"pitch":78,"articulation":"marcato_muted","articulation_tags":["marcato_muted","short","marcato","muted"],"duration":1.0,"velocity":121.90461133486464}
{"position":146.80208333333334,"instrument":"TheGrandeurPiano","level2":8,"level3":null,"pitch":61,"articulation":"standard","articulation_tags":["standard","long"],"duration":0.4861111111111111,"velocity":61.637484825203416}
{"position":146.84375,"instrument":"TheGrandeurPiano","level2":7,"level3":null,"pitch":62,"articulation":"standard","articulation_tags":["standard","long"],"duration":0.09722222222222222,"velocity":61.637484825203416}
{"position":146.94791666666666,"instrument":"Cello","level2":7,"level3":0,"pitch":72,"articulation":"spiccato","articulation_tags":["spiccato","sp","short"],"duration":1.0,"velocity":107.76410375728271}
{"position":146.94791666666666,"instrument":"Cello","level2":7,"level3":0,"pitch":72,"articulation":"spiccato","articulation_tags":["spiccato","sp","short"],"duration":1.0,"velocity":107.76410375728271}
{"position":146.94791666666666,"instrument":"Cello","level2":7,"level3":1,"pitch":72,"articulation":"spiccato","articulation_tags":["spiccato","sp","short"],"duration":1.0,"velocity":107.76410375728271}
{"position":146.95833333333334,"instrument":"TheGrandeurPiano","level2":7,"level3":null,"pitch":63,"articulation":"standard","articulation_tags":["standard","long"],"duration":0.19444444444444445,"velocity":61.637484825203416}
{"position":147.15625,"instrument":"TheGrandeurPiano","level2":8,"level3":null,"pitch":61,"articulation":"standard","articulation_tags":["standard","long"],"duration":0.14583333333333334,"velocity":63.971936386419245}
{"position":147.17708333333334,"instrument":"TheGrandeurPiano","level2":7,"level3":null,"pitch":63,"articulation":"standard","articulation_tags":["standard","long"],"duration":0.1597222222222222,"velocity":63.971936386419245}
{"position":147.3125,"instrument":"Cello","level2":7,"level3":1,"pitch":72,"articulation":"staccato","articulation_tags":["staccato","st","short"],"duration":1.0,"velocity":105.76636591026275}
{"position":147.375,"instrument":"TheGrandeurPiano","level2":8,"level3":null,"pitch":61,"articulation":"standard","articulation_tags":["standard","long"],"duration":0.16666666666666666,"velocity":60.00741980182357}
{"position":147.39583333333334,"instrument":"Viola","level2":6,"level3":4,"pitch":76,"articulation":"pizzicato","articulation_tags":["pizzicato","pz","short"],"duration":1.0,"velocity":121.39757850183545}
{"position":147.41666666666666,"instrument":"TheGrandeurPiano","level2":7,"level3":null,"pitch":63,"articulation":"standard","articulation_tags":["standard","long"],"duration":0.19444444444444445,"velocity":60.00741980182357}
{"position":147.44791666666666,"instrument":"Viola","level2":6,"level3":6,"pitch":77,"articulation":"pizzicato_bartok","articulation_tags":["pizzicato_bartok","pzb","short","pizzicato","bartok"],"duration":1.0,"velocity":121.39757850183545}
{"position":147.45833333333334,"instrument":"Viola","level2":7,"level3":0,"pitch":72,"articulation":"short_hrm","articulation_tags":["short_hrm","hrm_s","short","harmonics"],"duration":1.0,"velocity":105.06489807407362}
{"position":147.48958333333334,"instrument":"Viola","level2":6,"level3":5,"pitch":77,"articulation":"collegno","articulation_tags":["collegno","cl","short"],"duration":1.0,"velocity":121.39757850183545}
{"position":147.53125,"instrument":"TheGrandeurPiano","level2":8,"level3":null,"pitch":60,"articulation":"standard","articulation_tags":["standard","long"],"duration":1.9448818897637796,"velocity":60.00741980182357}
{"position":147.53125,"instrument":"Violin","level2":6,"level3":5,"pitch":76,"articulation":"collegno","articulation_tags":["collegno","cl","short"],"duration":1.0,"velocity":121.39757850183545}
{"position":147.61458333333334,"instrument":"TheGrandeurPiano","level2":7,"level3":null,"pitch":64,"articulation":"standard","articulation_tags":["standard","long"],"duration":0.2708333333333333,"velocity":60.00741980182357}
{"position":147.91666666666666,"instrument":"TheGrandeurPiano","level2":8,"level3":null,"pitch":60,"articulation":"standard","articulation_tags":["standard","long"],"duration":0.2222222222222222,"velocity":62.94971338624596}
{"position":148.01041666666666,"instrument":"TheGrandeurPiano","level2":7,"level3":null,"pitch":64,"articulation":"standard","articulation_tags":["standard","long"],"duration":0.2916666666666667,"velocity":59.44946972455271}
{"position":148.05208333333334,"instrument":"TheGrandeurPiano","level2":7,"level3":null,"pitch":64,"articulation":"standard","articulation_tags":["standard","long"],"duration":0.2708333333333333,"velocity":59.44946972455271}
{"position":148.25,"instrument":"TheGrandeurPiano","level2":8,"level3":null,"pitch":60,"articulation":"standard","articulation_tags":["standard","long"],"duration":0.25,"velocity":62.94971338624596}
{"position":148.41666666666666,"instrument":"TheGrandeurPiano","level2":6,"level3":null,"pitch":95,"articulation":"standard","articulation_tags":["standard","long"],"duration":0.9236111111111112,"velocity":62.94971338624596}
{"position":148.44791666666666,"instrument":"TheGrandeurPiano","level2":7,"level3":null,"pitch":65,"articulation":"standard","articulation_tags":["standard","long"],"duration":0.3125,"velocity":62.94971338624596}
{"position":148.625,"instrument":"Cello","level2":7,"level3":1,"pitch":72,"articulation":"staccato","articulation_tags":["staccato","st","short"],"duration":1.0,"velocity":102.09597242325579}
{"position":148.91666666666666,"instrument":"Trumpet","level2":6,"level3":7,"pitch":77,"articulation":"staccato_muted","articulation_tags":["staccato_muted","stmt","short","staccato","muted"],"duration":1.0,"velocity":120.89602791001323}
{"position":148.91666666666666,"instrument":"TheGrandeurPiano","level2":7,"level3":null,"pitch":65,"articulation":"standard","articulation_tags":["standard","long"],"duration":0.3263888888888889,"velocity":63.971936386419245}
{"position":149.04166666666666,"instrument":"Cello","level2":7,"level3":2,"pitch":71,"articulation":"spiccato","articulation_tags":["spiccato","sp","short"],"duration":1.0,"velocity":101.11856855933574}
{"position":149.04166666666666,"instrument":"Cello","level2":7,"level3":3,"pitch":72,"articulation":"spiccato","articulation_tags":["spiccato","sp","short"],"duration":1.0,"velocity":101.11856855933574}
{"position":149.04166666666666,"instrument":"Cello","level2":7,"level3":3,"pitch":72,"articulation":"spiccato","articulation_tags":["spiccato","sp","short"],"duration":1.0,"velocity":101.11856855933574}
{"position":149.05208333333334,"instrument":"Viola","level2":7,"level3":2,"pitch":71,"articulation":"spiccato","articulation_tags":["spiccato","sp","short"],"duration":1.0,"velocity":101.11856855933574}
{"position":149.19791666666666,"instrument":"Viola","level2":7,"level3":0,"pitch":72,"articulation":"short_hrm","articulation_tags":["short_hrm","hrm_s","short","harmonics"],"duration":1.0,"velocity":101.11856855933574}
{"position":149.38541666666666,"instrument":"Viola","level2":6,"level3":4,"pitch":76,"articulation":"collegno","articulation_tags":["collegno","cl","short"],"duration":1.0,"velocity":120.89602791001323}
{"position":149.40625,"instrument":"TheGrandeurPiano","level2":7,"level3":null,"pitch":66,"articulation":"standard","articulation_tags":["standard","long"],"duration":0.3402777777777778,"velocity":61.637484825203416}
{"position":149.40625,"instrument":"Viola","level2":7,"level3":3,"pitch":71,"articulation":"spiccato","articulation_tags":["spiccato","sp","short"],"duration":1.0,"velocity":100.86904751902246}
{"position":149.47916666666666,"instrument":"TheGrandeurPiano","level2":7,"level3":null,"pitch":66,"articulation":"standard","articulation_tags":["standard","long"],"duration":0.4305555555555556,"velocity":59.72940019077434}
{"position":149.5,"instrument":"TheGrandeurPiano","level2":8,"level3":null,"pitch":60,"articulation":"standard","articulation_tags":["standard","long"],"duration":0.3402777777777778,"velocity":59.72940019077434}
{"position":149.52083333333334,"instrument":"Violin","level2":6,"level3":5,"pitch":76,"articulation":"collegno","articulation_tags":["collegno","cl","short"],"duration":1.0,"velocity":120.89602791001323}
{"position":149.54166666666666,"instrument":"TenorTrombone","level2":7,"level3":3,"pitch":71,"articulation":"legato","articulation_tags":["legato","lg"],"duration":2.4479166666666665,"velocity":72.29669882450885}
{"position":149.78125,"instrument":"CorAnglais","level2":7,"level3":4,"pitch":72,"articulation":"legato","articulation_tags":["legato","lg"],"duration":0.2604166666666667,"velocity":72.29669882450885}
{"position":149.78125,"instrument":"Bassoon","level2":7,"level3":5,"pitch":72,"articulation":"legato","articulation_tags":["legato","lg"],"duration":0.07291666666666667,"velocity":72.29669882450885}
{"position":149.79166666666666,"instrument":"TheGrandeurPiano","level2":6,"level3":null,"pitch":95,"articulation":"standard","articulation_tags":["standard","long"],"duration":0.8541666666666666,"velocity":64.23880744422377}
{"position":149.86458333333334,"instrument":"Bassoon","level2":7,"level3":5,"pitch":72,"articulation":"legato","articulation_tags":["legato","lg"],"duration":1.1770833333333333,"velocity":72.29669882450885}
{"position":149.90625,"instrument":"Cello","level2":6,"level3":6,"pitch":77,"articulation":"pizzicato","articulation_tags":["pizzicato","pz","short"],"duration":1.0,"velocity":120.40014125223509}
{"position":149.90625,"instrument":"TheGrandeurPiano","level2":7,"level3":null,"pitch":66,"articulation":"standard","articulation_tags":["standard","long"],"duration":0.3472222222222222,"velocity":62.94971338624596}
{"position":149.94791666666666,"instrument":"Trumpet","level2":7,"level3":0,"pitch":71,"articulation":"long_muted","articulation_tags":["long_muted","muted","mt","long"],"duration":4.208333333333333,"velocity":71.82178695700586}
{"position":150.01041666666666,"instrument":"TheGrandeurPiano","level2":8,"level3":null,"pitch":60,"articulation":"standard","articulation_tags":["standard","long"],"duration":0.375,"velocity":62.94971338624596}
{"position":150.05208333333334,"instrument":"Cello","level2":7,"level3":4,"pitch":72,"articulation":"short_hrm","articulation_tags":["short_hrm","hrm_s","short","harmonics"],"duration":1.0,"velocity":99.91089347850293}
{"position":150.0625,"instrument":"Cello","level2":7,"level3":2,"pitch":71,"articulation":"short_hrm","articulation_tags":["short_hrm","hrm_s","short","harmonics"],"duration":1.0,"velocity":99.91089347850293}
{"position":150.42708333333334,"instrument":"TheGrandeurPiano","level2":7,"level3":null,"pitch":67,"articulation":"standard","articulation_tags":["standard","long"],"duration":0.3541666666666667,"velocity":62.16716333076495}
{"position":150.57291666666666,"instrument":"TheGrandeurPiano","level2":8,"level3":null,"pitch":60,"articulation":"standard","articulation_tags":["standard","long"],"duration":0.4027777777777778,"velocity":62.16716333076495}
{"position":150.875,"instrument":"TheGrandeurPiano","level2":7,"level3":null,"pitch":67,"articulation":"standard","articulation_tags":["standard","long"],"duration":0.5972222222222222,"velocity":61.90314150644675}
{"position":150.96875,"instrument":"TheGrandeurPiano","level2":7,"level3":null,"pitch":67,"articulation":"standard","articulation_tags":["standard","long"],"duration":0.3611111111111111,"velocity":61.90314150644675}
{"position":150.98958333333334,"instrument":"TheGrandeurPiano","level2":6,"level3":null,"pitch":94,"articulation":"standard","articulation_tags":["standard","long"],"duration":1.4027777777777777,"velocity":61.90314150644675}
{"position":151.01041666666666,"instrument":"Cello","level2":8,"level3":1,"pitch":65,"articulation":"spiccato","articulation_tags":["spiccato","sp","short"],"duration":1.0,"velocity":121.49614540308791}
{"position":151.01041666666666,"instrument":"Cello","level2":8,"level3":2,"pitch":65,"articulation":"spiccato","articulation_tags":["spiccato","sp","short"],"duration":1.0,"velocity":121.49614540308791}
{"position":151.03125,"instrument":"TenorTrombone","level2":7,"level3":5,"pitch":72,"articulation":"legato","articulation_tags":["legato","lg"],"duration":6.84375,"velocity":68.04441555182098}
{"position":151.08333333333334,"instrument":"TheGrandeurPiano","level2":6,"level3":null,"pitch":94,"articulation":"standard","articulation_tags":["standard","long"],"duration":0.7986111111111112,"velocity":61.90314150644675}
{"position":151.08333333333334,"instrument":"Cello","level2":8,"level3":1,"pitch":65,"articulation":"spiccato","articulation_tags":["spiccato","sp","short"],"duration":1.0,"velocity":121.49614540308791}
{"position":151.125,"instrument":"Cello","level2":7,"level3":6,"pitch":71,"articulation":"spiccato","articulation_tags":["spiccato","sp","short"],"duration":1.0,"velocity":98.02220777591049}
{"position":151.125,"instrument":"Viola","level2":7,"level3":7,"pitch":71,"articulation":"spiccato","articulation_tags":["spiccato","sp","short"],"duration":1.0,"velocity":98.02220777591049}
{"position":151.17708333333334,"instrument":"TheGrandeurPiano","level2":8,"level3":null,"pitch":60,"articulation":"standard","articulation_tags":["standard","long"],"duration":0.4444444444444444,"velocity":62.16716333076495}
{"position":151.19791666666666,"instrument":"Viola","level2":7,"level3":6,"pitch":71,"articulation":"spiccato","articulation_tags":["spiccato","sp","short"],"duration":1.0,"velocity":98.02220777591049}
{"position":151.25,"instrument":"Viola","level2":7,"level3":6,"pitch":71,"articulation":"spiccato","articulation_tags":["spiccato","sp","short"],"duration":1.0,"velocity":98.02220777591049}
{"position":151.51041666666666,"instrument":"TheGrandeurPiano","level2":7,"level3":null,"pitch":68,"articulation":"standard","articulation_tags":["standard","long"],"duration":0.3680555555555556,"velocity":62.94971338624596}
{"position":151.77083333333334,"instrument":"Viola","level2":7,"level3":1,"pitch":72,"articulation":"short_marcato","articulation_tags":["short_marcato","marcato_s","short","marcato"],"duration":1.0,"velocity":97.83246579279701}
{"position":151.77083333333334,"instrument":"TheGrandeurPiano","level2":7,"level3":null,"pitch":68,"articulation":"standard","articulation_tags":["standard","long"],"duration":0.7222222222222222,"velocity":62.94971338624596}
{"position":151.80208333333334,"instrument":"Violin","level2":6,"level3":8,"pitch":77,"articulation":"pizzicato","articulation_tags":["pizzicato","pz","short"],"duration":1.0,"velocity":119.35120304288083}
{"position":151.84375,"instrument":"TheGrandeurPiano","level2":8,"level3":null,"pitch":60,"articulation":"standard","articulation_tags":["standard","long"],"duration":0.4791666666666667,"velocity":62.94971338624596}
{"position":151.85416666666666,"instrument":"Violin","level2":7,"level3":4,"pitch":72,"articulation":"short_hrm","articulation_tags":["short_hrm","hrm_s","short","harmonics"],"duration":1.0,"velocity":97.09375520292276}
{"position":151.97916666666666,"instrument":"CorAnglais","level2":7,"level3":3,"pitch":71,"articulation":"legato","articulation_tags":["legato","lg"],"duration":5.125,"velocity":66.18751040584553}
{"position":152.0625,"instrument":"Bassoon","level2":7,"level3":7,"pitch":71,"articulation":"legato","articulation_tags":["legato","lg"],"duration":4.78125,"velocity":66.18751040584553}
{"position":152.11458333333334,"instrument":"TenorTrombone","level2":7,"level3":4,"pitch":71,"articulation":"long_muted","articulation_tags":["long_muted","muted","mt","long"],"duration":4.21875,"velocity":65.84034799279465}
{"position":152.23958333333334,"instrument":"Clarinet","level2":7,"level3":7,"pitch":71,"articulation":"legato","articulation_tags":["legato","lg"],"duration":3.21875,"velocity":65.84034799279465}
{"position":152.34375,"instrument":"Clarinet","level2":6,"level3":6,"pitch":76,"articulation":"staccato","articulation_tags":["staccato","st","short"],"duration":0.25,"velocity":118.82885207460231}
{"position":152.48958333333334,"instrument":"Cello","level2":7,"level3":2,"pitch":71,"articulation":"short_hrm","articulation_tags":["short_hrm","hrm_s","short","harmonics"],"duration":1.0,"velocity":96.92017399639732}
{"position":152.5625,"instrument":"TheGrandeurPiano","level2":8,"level3":null,"pitch":61,"articulation":"standard","articulation_tags":["standard","long"],"duration":0.5277777777777778,"velocity":61.637484825203416}
{"position":152.625,"instrument":"Cello","level2":6,"level3":7,"pitch":77,"articulation":"collegno","articulation_tags":["collegno","cl","short"],"duration":1.0,"velocity":118.82885207460231}
{"position":152.625,"instrument":"TheGrandeurPiano","level2":7,"level3":null,"pitch":69,"articulation":"standard","articulation_tags":["standard","long"],"duration":0.3819444444444444,"velocity":61.637484825203416}
{"position":152.69791666666666,"instrument":"Cello","level2":7,"level3":8,"pitch":71,"articulation":"spiccato","articulation_tags":["spiccato","sp","short"],"duration":1.0,"velocity":96.76875298153612}
{"position":152.71875,"instrument":"Cello","level2":7,"level3":1,"pitch":71,"articulation":"short_marcato","articulation_tags":["short_marcato","marcato_s","short","marcato"],"duration":1.0,"velocity":96.76875298153612}
{"position":152.84375,"instrument":"TheGrandeurPiano","level2":7,"level3":null,"pitch":69,"articulation":"standard","articulation_tags":["standard","long"],"duration":0.9166666666666666,"velocity":63.971936386419245}
{"position":153.09375,"instrument":"TheGrandeurPiano","level2":6,"level3":null,"pitch":94,"articulation":"standard","articulation_tags":["standard","long"],"duration":0.8680555555555556,"velocity":63.971936386419245}
{"position":153.19791666666666,"instrument":"TheGrandeurPiano","level2":7,"level3":null,"pitch":69,"articulation":"standard","articulation_tags":["standard","long"],"duration":0.3819444444444444,"velocity":66.8481677113443}
{"position":153.35416666666666,"instrument":"TheGrandeurPiano","level2":8,"level3":null,"pitch":61,"articulation":"standard","articulation_tags":["standard","long"],"duration":0.5694444444444444,"velocity":62.94971338624596}
{"position":153.63541666666666,"instrument":"Clarinet","level2":7,"level3":8,"pitch":71,"articulation":"legato","articulation_tags":["legato","lg"],"duration":0.010416666666666666,"velocity":63.791018593644935}
{"position":153.77083333333334,"instrument":"TheGrandeurPiano","level2":7,"level3":null,"pitch":70,"articulation":"standard","articulation_tags":["standard","long"],"duration":0.3819444444444444,"velocity":66.33711787944337}
{"position":153.94791666666666,"instrument":"ContrabassTrombone","level2":8,"level3":2,"pitch":65,"articulation":"sforzando","articulation_tags":["sforzando","sfz","long"],"duration":12.677083333333334,"velocity":119.88515359089678}
{"position":154.15625,"instrument":"Trumpet","level2":7,"level3":0,"pitch":71,"articulation":"long_muted","articulation_tags":["long_muted","muted","mt","long"],"duration":4.697916666666667,"velocity":63.58612848895976}
{"position":154.21875,"instrument":"TheGrandeurPiano","level2":8,"level3":null,"pitch":61,"articulation":"standard","articulation_tags":["standard","long"],"duration":0.625,"velocity":66.8481677113443}
{"position":154.21875,"instrument":"TheGrandeurPiano","level2":7,"level3":null,"pitch":70,"articulation":"standard","articulation_tags":["standard","long"],"duration":1.2986111111111112,"velocity":66.8481677113443}
{"position":154.30208333333334,"instrument":"Clarinet","level2":7,"level3":9,"pitch":71,"articulation":"legato","articulation_tags":["legato","lg"],"duration":0.4583333333333333,"velocity":62.17180613979839}
{"position":154.30208333333334,"instrument":"Flute","level2":7,"level3":10,"pitch":72,"articulation":"legato","articulation_tags":["legato","lg"],"duration":0.22916666666666666,"velocity":62.17180613979839}
{"position":154.34375,"instrument":"TheGrandeurPiano","level2":7,"level3":null,"pitch":70,"articulation":"standard","articulation_tags":["standard","long"],"duration":0.3888888888888889,"velocity":66.8481677113443}
{"position":154.36458333333334,"instrument":"Oboe","level2":7,"level3":5,"pitch":71,"articulation":"legato","articulation_tags":["legato","lg"],"duration":4.041666666666667,"velocity":62.00653200670734}
{"position":154.39583333333334,"instrument":"TheGrandeurPiano","level2":6,"level3":null,"pitch":93,"articulation":"standard","articulation_tags":["standard","long"],"duration":0.6597222222222222,"velocity":66.8481677113443}
{"position":154.53125,"instrument":"Cello","level2":7,"level3":10,"pitch":72,"articulation":"spiccato","articulation_tags":["spiccato","sp","short"],"duration":1.0,"velocity":95.00326600335367}
{"position":154.76041666666666,"instrument":"Cello","level2":7,"level3":9,"pitch":71,"articulation":"spiccato","articulation_tags":["spiccato","sp","short"],"duration":1.0,"velocity":95.00326600335367}
{"position":154.92708333333334,"instrument":"TheGrandeurPiano","level2":7,"level3":null,"pitch":71,"articulation":"standard","articulation_tags":["standard","long"],"duration":0.3888888888888889,"velocity":68.35139281028783}
{"position":154.94791666666666,"instrument":"Clarinet","level2":7,"level3":3,"pitch":71,"articulation":"legato","articulation_tags":["legato","lg"],"duration":4.489583333333333,"velocity":61.88808911585335}
{"position":155.15625,"instrument":"TheGrandeurPiano","level2":8,"level3":null,"pitch":61,"articulation":"standard","articulation_tags":["standard","long"],"duration":0.6875,"velocity":66.079637327091}
{"position":155.38541666666666,"instrument":"TheGrandeurPiano","level2":6,"level3":null,"pitch":93,"articulation":"standard","articulation_tags":["standard","long"],"duration":0.5347222222222222,"velocity":66.079637327091}
{"position":155.45833333333334,"instrument":"Clarinet","level2":7,"level3":7,"pitch":71,"articulation":"legato","articulation_tags":["legato","lg"],"duration":1.375,"velocity":61.88808911585335}
{"position":155.51041666666666,"instrument":"TheGrandeurPiano","level2":7,"level3":null,"pitch":71,"articulation":"standard","articulation_tags":["standard","long"],"duration":0.3888888888888889,"velocity":64.23880744422377}
{"position":155.72916666666666,"instrument":"Flute","level2":7,"level3":10,"pitch":72,"articulation":"legato","articulation_tags":["legato","lg"],"duration":0.0,"velocity":61.81686611218339}
{"position":155.79166666666666,"instrument":"Piccolo","level2":6,"level3":6,"pitch":76,"articulation":"tenuto","articulation_tags":["tenuto","t","short"],"duration":0.25,"velocity":115.60325354827933}
{"position":155.94791666666666,"instrument":"Flute","level2":6,"level3":7,"pitch":77,"articulation":"staccato","articulation_tags":["staccato","st","short"],"duration":0.25,"velocity":115.60325354827933}
{"position":155.95833333333334,"instrument":"Oboe","level2":7,"level3":2,"pitch":71,"articulation":"legato","articulation_tags":["legato","lg"],"duration":0.8854166666666666,"velocity":61.81686611218339}
{"position":156.09375,"instrument":"TheGrandeurPiano","level2":7,"level3":null,"pitch":72,"articulation":"standard","articulation_tags":["standard","long"],"duration":0.3888888888888889,"velocity":67.85515987811664}
{"position":156.16666666666666,"instrument":"TheGrandeurPiano","level2":7,"level3":null,"pitch":72,"articulation":"standard","articulation_tags":["standard","long"],"duration":2.1338582677165356,"velocity":67.85515987811664}
{"position":156.17708333333334,"instrument":"TheGrandeurPiano","level2":8,"level3":null,"pitch":61,"articulation":"standard","articulation_tags":["standard","long"],"duration":0.75,"velocity":67.85515987811664}
{"position":156.1875,"instrument":"TheGrandeurPiano","level2":6,"level3":null,"pitch":92,"articulation":"standard","articulation_tags":["standard","long"],"duration":0.4513888888888889,"velocity":67.85515987811664}
{"position":156.19791666666666,"instrument":"Piccolo","level2":6,"level3":7,"pitch":76,"articulation":"staccato","articulation_tags":["staccato","st","short"],"duration":0.25,"velocity":115.04888160493284}
{"position":156.32291666666666,"instrument":"TenorTrombone","level2":7,"level3":4,"pitch":71,"articulation":"long_muted","articulation_tags":["long_muted","muted","mt","long"],"duration":4.833333333333333,"velocity":60.36666214300904}
{"position":156.6875,"instrument":"TheGrandeurPiano","level2":7,"level3":null,"pitch":72,"articulation":"standard","articulation_tags":["standard","long"],"duration":0.3888888888888889,"velocity":66.8481677113443}
{"position":156.83333333333334,"instrument":"Bassoon","level2":7,"level3":7,"pitch":71,"articulation":"legato","articulation_tags":["legato","lg"],"duration":0.0,"velocity":60.391248571416284}
{"position":156.86458333333334,"instrument":"TheGrandeurPiano","level2":6,"level3":null,"pitch":92,"articulation":"standard","articulation_tags":["standard","long"],"duration":0.3888888888888889,"velocity":66.8481677113443}
{"position":157.02083333333334,"instrument":"Clarinet","level2":6,"level3":9,"pitch":77,"articulation":"staccato","articulation_tags":["staccato","st","short"],"duration":0.25,"velocity":113.9733403961138}
{"position":157.02083333333334,"instrument":"Piccolo","level2":6,"level3":10,"pitch":77,"articulation":"tenuto","articulation_tags":["tenuto","t","short"],"duration":0.25,"velocity":113.9733403961138}
{"position":157.10416666666666,"instrument":"CorAnglais","level2":6,"level3":8,"pitch":77,"articulation":"tenuto","articulation_tags":["tenuto","t","short"],"duration":0.25,"velocity":113.9733403961138}
{"position":157.10416666666666,"instrument":"Bassoon","level2":7,"level3":3,"pitch":71,"articulation":"legato","articulation_tags":["legato","lg"],"duration":2.4270833333333335,"velocity":60.391248571416284}
{"position":157.22916666666666,"instrument":"TheGrandeurPiano","level2":6,"level3":null,"pitch":92,"articulation":"standard","articulation_tags":["standard","long"],"duration":0.5416666666666666,"velocity":67.10177610609054}
{"position":157.27083333333334,"instrument":"TheGrandeurPiano","level2":7,"level3":null,"pitch":73,"articulation":"standard","articulation_tags":["standard","long"],"duration":0.3888888888888889,"velocity":67.10177610609054}
{"position":157.39583333333334,"instrument":"Clarinet","level2":6,"level3":9,"pitch":77,"articulation":"staccato","articulation_tags":["staccato","st","short"],"duration":0.25,"velocity":113.4530326169336}
{"position":157.47916666666666,"instrument":"CorAnglais","level2":7,"level3":1,"pitch":71,"articulation":"legato","articulation_tags":["legato","lg"],"duration":4.15625,"velocity":60.4649203862917}
{"position":157.73958333333334,"instrument":"Clarinet","level2":6,"level3":6,"pitch":76,"articulation":"staccato","articulation_tags":["staccato","st","short"],"duration":0.25,"velocity":112.89781731861514}
{"position":157.73958333333334,"instrument":"Flute","level2":7,"level3":1,"pitch":71,"articulation":"legato","articulation_tags":["legato","lg"],"duration":2.8541666666666665,"velocity":60.4649203862917}
{"position":157.75,"instrument":"Piccolo","level2":6,"level3":10,"pitch":77,"articulation":"tenuto","articulation_tags":["tenuto","t","short"],"duration":0.25,"velocity":112.89781731861514}
{"position":157.78125,"instrument":"TheGrandeurPiano","level2":8,"level3":null,"pitch":62,"articulation":"standard","articulation_tags":["standard","long"],"duration":1.5347222222222223,"velocity":69.08704563229233}
{"position":157.85416666666666,"instrument":"TheGrandeurPiano","level2":7,"level3":null,"pitch":73,"articulation":"standard","articulation_tags":["standard","long"],"duration":0.3888888888888889,"velocity":69.08704563229233}
{"position":157.86458333333334,"instrument":"TenorTrombone","level2":7,"level3":0,"pitch":71,"articulation":"long_muted","articulation_tags":["long_muted","muted","mt","long"],"duration":1.7916666666666667,"velocity":60.587416725207575}
{"position":157.875,"instrument":"Oboe","level2":7,"level3":5,"pitch":71,"articulation":"legato","articulation_tags":["legato","lg"],"duration":0.53125,"velocity":60.587416725207575}
{"position":158.32291666666666,"instrument":"Clarinet","level2":7,"level3":9,"pitch":71,"articulation":"legato","articulation_tags":["legato","lg"],"duration":0.08333333333333333,"velocity":60.587416725207575}
{"position":158.40625,"instrument":"TheGrandeurPiano","level2":6,"level3":null,"pitch":90,"articulation":"standard","articulation_tags":["standard","long"],"duration":0.2638888888888889,"velocity":70.76515265328086}
{"position":158.44791666666666,"instrument":"TheGrandeurPiano","level2":7,"level3":null,"pitch":74,"articulation":"standard","articulation_tags":["standard","long"],"duration":0.3888888888888889,"velocity":70.76515265328086}
{"position":158.47916666666666,"instrument":"Clarinet","level2":6,"level3":6,"pitch":76,"articulation":"staccato","articulation_tags":["staccato","st","short"],"duration":0.25,"velocity":111.27351892591727}
{"position":158.69791666666666,"instrument":"Oboe","level2":7,"level3":4,"pitch":71,"articulation":"legato","articulation_tags":["legato","lg"],"duration":2.2708333333333335,"velocity":60.75830791596404}
{"position":158.79166666666666,"instrument":"TheGrandeurPiano","level2":6,"level3":null,"pitch":90,"articulation":"standard","articulation_tags":["standard","long"],"duration":0.4583333333333333,"velocity":68.35139281028783}
{"position":158.8125,"instrument":"Oboe","level2":8,"level3":3,"pitch":65,"articulation":"legato","articulation_tags":["legato","lg"],"duration":0.13541666666666666,"velocity":125.84615384615384}
{"position":158.8125,"instrument":"Clarinet","level2":8,"level3":4,"pitch":65,"articulation":"legato","articulation_tags":["legato","lg"],"duration":0.5,"velocity":125.84615384615384}
{"position":158.85416666666666,"instrument":"Trumpet","level2":7,"level3":0,"pitch":70,"articulation":"long_muted","articulation_tags":["long_muted","muted","mt","long"],"duration":1.28125,"velocity":60.75830791596404}
{"position":158.91666666666666,"instrument":"Piccolo","level2":6,"level3":7,"pitch":76,"articulation":"staccato","articulation_tags":["staccato","st","short"],"duration":0.25,"velocity":110.1977368224719}
{"position":158.92708333333334,"instrument":"FrenchHorn","level2":6,"level3":8,"pitch":77,"articulation":"staccato","articulation_tags":["staccato","st","short"],"duration":1.0,"velocity":110.1977368224719}
{"position":158.94791666666666,"instrument":"Oboe","level2":8,"level3":3,"pitch":65,"articulation":"legato","articulation_tags":["legato","lg"],"duration":1.8125,"velocity":125.84615384615384}
{"position":159.03125,"instrument":"TheGrandeurPiano","level2":7,"level3":null,"pitch":74,"articulation":"standard","articulation_tags":["standard","long"],"duration":0.3888888888888889,"velocity":71.00070278399329}
{"position":159.28125,"instrument":"Piccolo","level2":6,"level3":7,"pitch":76,"articulation":"staccato","articulation_tags":["staccato","st","short"],"duration":0.25,"velocity":109.65600574062009}
{"position":159.3125,"instrument":"Clarinet","level2":8,"level3":4,"pitch":65,"articulation":"legato","articulation_tags":["legato","lg"],"duration":2.7291666666666665,"velocity":125.84615384615384}
{"position":159.4375,"instrument":"Clarinet","level2":7,"level3":3,"pitch":70,"articulation":"legato","articulation_tags":["legato","lg"],"duration":0.6875,"velocity":60.9770029066712}
{"position":159.46875,"instrument":"FrenchHorn","level2":6,"level3":6,"pitch":76,"articulation":"staccato","articulation_tags":["staccato","st","short"],"duration":1.0,"velocity":109.65600574062009}
{"position":159.48958333333334,"instrument":"TheGrandeurPiano","level2":6,"level3":null,"pitch":89,"articulation":"standard","articulation_tags":["standard","long"],"duration":0.4166666666666667,"velocity":70.05234370819758}
{"position":159.48958333333334,"instrument":"TheGrandeurPiano","level2":6,"level3":null,"pitch":89,"articulation":"standard","articulation_tags":["standard","long"],"duration":0.19444444444444445,"velocity":70.05234370819758}
{"position":159.53125,"instrument":"Bassoon","level2":7,"level3":3,"pitch":70,"articulation":"legato","articulation_tags":["legato","lg"],"duration":0.59375,"velocity":60.9770029066712}
{"position":159.61458333333334,"instrument":"TheGrandeurPiano","level2":7,"level3":null,"pitch":75,"articulation":"standard","articulation_tags":["standard","long"],"duration":0.3888888888888889,"velocity":70.05234370819758}
{"position":159.65625,"instrument":"TenorTrombone","level2":7,"level3":0,"pitch":70,"articulation":"long_muted","articulation_tags":["long_muted","muted","mt","long"],"duration":0.46875,"velocity":61.24275924868931}
{"position":159.78125,"instrument":"TheGrandeurPiano","level2":6,"level3":null,"pitch":88,"articulation":"standard","articulation_tags":["standard","long"],"duration":0.1736111111111111,"velocity":70.05234370819758}
{"position":159.88541666666666,"instrument":"Piccolo","level2":6,"level3":10,"pitch":77,"articulation":"tenuto","articulation_tags":["tenuto","t","short"],"duration":0.25,"velocity":108.04619119916148}
{"position":159.95833333333334,"instrument":"TheGrandeurPiano","level2":8,"level3":null,"pitch":62,"articulation":"standard","articulation_tags":["standard","long"],"duration":1.0555555555555556,"velocity":73.52813471936385}
{"position":160.04166666666666,"instrument":"TheGrandeurPiano","level2":6,"level3":null,"pitch":88,"articulation":"standard","articulation_tags":["standard","long"],"duration":0.1527777777777778,"velocity":70.05234370819758}
{"position":160.07291666666666,"instrument":"TheGrandeurPiano","level2":8,"level3":null,"pitch":62,"articulation":"standard","articulation_tags":["standard","long"],"duration":1.4583333333333333,"velocity":70.05234370819758}
{"position":160.08333333333334,"instrument":"FrenchHorn","level2":6,"level3":9,"pitch":77,"articulation":"staccato","articulation_tags":["staccato","st","short"],"duration":1.0,"velocity":107.52053154465305}
{"position":160.11458333333334,"instrument":"TheGrandeurPiano","level2":6,"level3":null,"pitch":88,"articulation":"standard","articulation_tags":["standard","long"],"duration":0.3680555555555556,"velocity":70.05234370819758}
{"position":160.13541666666666,"instrument":"Bassoon","level2":7,"level3":3,"pitch":70,"articulation":"legato","articulation_tags":["legato","lg"],"duration":0.0,"velocity":61.24275924868931}
{"position":160.19791666666666,"instrument":"TheGrandeurPiano","level2":7,"level3":null,"pitch":75,"articulation":"standard","articulation_tags":["standard","long"],"duration":0.3819444444444444,"velocity":70.05234370819758}
{"position":160.47916666666666,"instrument":"TheGrandeurPiano","level2":6,"level3":null,"pitch":87,"articulation":"standard","articulation_tags":["standard","long"],"duration":0.125,"velocity":73.97583123579426}
{"position":160.59375,"instrument":"Bassoon","level2":7,"level3":1,"pitch":71,"articulation":"legato","articulation_tags":["legato","lg"],"duration":1.0729166666666667,"velocity":61.55469524920365}
{"position":160.65625,"instrument":"TheGrandeurPiano","level2":6,"level3":null,"pitch":86,"articulation":"standard","articulation_tags":["standard","long"],"duration":0.1111111111111111,"velocity":71.00070278399329}
{"position":160.66666666666666,"instrument":"TheGrandeurPiano","level2":6,"level3":null,"pitch":86,"articulation":"standard","articulation_tags":["standard","long"],"duration":0.3055555555555556,"velocity":71.00070278399329}
{"position":160.70833333333334,"instrument":"Trumpet","level2":8,"level3":2,"pitch":65,"articulation":"sforzando","articulation_tags":["sforzando","sfz","long"],"duration":4.8125,"velocity":126.84066604244836}
{"position":160.77083333333334,"instrument":"TenorTrombone","level2":8,"level3":3,"pitch":65,"articulation":"sforzando","articulation_tags":["sforzando","sfz","long"],"duration":3.2291666666666665,"velocity":126.84066604244836}
{"position":160.77083333333334,"instrument":"TheGrandeurPiano","level2":7,"level3":null,"pitch":76,"articulation":"standard","articulation_tags":["standard","long"],"duration":0.1875,"velocity":71.00070278399329}
{"position":160.875,"instrument":"Clarinet","level2":6,"level3":8,"pitch":77,"articulation":"staccato","articulation_tags":["staccato","st","short"],"duration":0.25,"velocity":104.34822255568305}
{"position":160.96875,"instrument":"Flute","level2":7,"level3":4,"pitch":71,"articulation":"legato","articulation_tags":["legato","lg"],"duration":0.8125,"velocity":61.91180384761623}
{"position":160.96875,"instrument":"TheGrandeurPiano","level2":6,"level3":null,"pitch":85,"articulation":"standard","articulation_tags":["standard","long"],"duration":0.08333333333333333,"velocity":68.35139281028783}
{"position":161.05208333333334,"instrument":"TheGrandeurPiano","level2":7,"level3":null,"pitch":76,"articulation":"standard","articulation_tags":["standard","long"],"duration":0.0625,"velocity":68.35139281028783}
{"position":161.09375,"instrument":"TheGrandeurPiano","level2":6,"level3":null,"pitch":85,"articulation":"standard","articulation_tags":["standard","long"],"duration":0.06944444444444445,"velocity":72.84997976693788}
{"position":161.11458333333334,"instrument":"TheGrandeurPiano","level2":6,"level3":null,"pitch":85,"articulation":"standard","articulation_tags":["standard","long"],"duration":0.2152777777777778,"velocity":72.84997976693788}
{"position":161.14583333333334,"instrument":"TheGrandeurPiano","level2":7,"level3":null,"pitch":77,"articulation":"standard","articulation_tags":["standard","long"],"duration":0.05555555555555555,"velocity":72.84997976693788}
{"position":161.15625,"instrument":"TenorTrombone","level2":7,"level3":4,"pitch":70,"articulation":"long_muted","articulation_tags":["long_muted","muted","mt","long"],"duration":0.6770833333333334,"velocity":62.75697523304325}
{"position":161.19791666666666,"instrument":"TheGrandeurPiano","level2":6,"level3":null,"pitch":84,"articulation":"standard","articulation_tags":["standard","long"],"duration":0.0625,"velocity":72.84997976693788}
{"position":161.29166666666666,"instrument":"TheGrandeurPiano","level2":6,"level3":null,"pitch":84,"articulation":"standard","articulation_tags":["standard","long"],"duration":0.04861111111111111,"velocity":72.84997976693788}
{"position":161.375,"instrument":"TheGrandeurPiano","level2":6,"level3":null,"pitch":83,"articulation":"standard","articulation_tags":["standard","long"],"duration":0.041666666666666664,"velocity":72.84997976693788}
{"position":161.375,"instrument":"TheGrandeurPiano","level2":7,"level3":null,"pitch":78,"articulation":"standard","articulation_tags":["standard","long"],"duration":0.034722222222222224,"velocity":72.84997976693788}
{"position":161.42708333333334,"instrument":"TheGrandeurPiano","level2":7,"level3":null,"pitch":79,"articulation":"standard","articulation_tags":["standard","long"],"duration":0.027777777777777776,"velocity":70.76515265328086}
{"position":161.4375,"instrument":"TheGrandeurPiano","level2":6,"level3":null,"pitch":83,"articulation":"standard","articulation_tags":["standard","long"],"duration":0.034722222222222224,"velocity":70.76515265328086}
{"position":161.44791666666666,"instrument":"TheGrandeurPiano","level2":6,"level3":null,"pitch":83,"articulation":"standard","articulation_tags":["standard","long"],"duration":0.06944444444444445,"velocity":70.76515265328086}
{"position":161.47916666666666,"instrument":"TheGrandeurPiano","level2":7,"level3":null,"pitch":79,"articulation":"standard","articulation_tags":["standard","long"],"duration":0.020833333333333332,"velocity":70.76515265328086}
{"position":161.51041666666666,"instrument":"TheGrandeurPiano","level2":7,"level3":null,"pitch":80,"articulation":"standard","articulation_tags":["standard","long"],"duration":0.013888888888888888,"velocity":70.76515265328086}
{"position":161.52083333333334,"instrument":"TheGrandeurPiano","level2":6,"level3":null,"pitch":82,"articulation":"standard","articulation_tags":["standard","long"],"duration":0.013888888888888888,"velocity":70.76515265328086}
{"position":161.54166666666666,"instrument":"TheGrandeurPiano","level2":8,"level3":null,"pitch":62,"articulation":"standard","articulation_tags":["standard","long"],"duration":1.2222222222222223,"velocity":70.76515265328086}
{"position":161.54166666666666,"instrument":"TheGrandeurPiano","level2":7,"level3":null,"pitch":80,"articulation":"standard","articulation_tags":["standard","long"],"duration":0.006944444444444444,"velocity":70.76515265328086}
{"position":161.54166666666666,"instrument":"TheGrandeurPiano","level2":7,"level3":null,"pitch":80,"articulation":"standard","articulation_tags":["standard","long"],"duration":0.006944444444444444,"velocity":70.76515265328086}
{"position":161.54166666666666,"instrument":"TheGrandeurPiano","level2":6,"level3":null,"pitch":81,"articulation":"standard","articulation_tags":["standard","long"],"duration":0.006944444444444444,"velocity":70.76515265328086}
{"position":161.55208333333334,"instrument":"TheGrandeurPiano","level2":7,"level3":null,"pitch":81,"articulation":"standard","articulation_tags":["standard","long"],"duration":0.0,"velocity":70.76515265328086}
{"position":161.55208333333334,"instrument":"TheGrandeurPiano","level2":6,"level3":null,"pitch":81,"articulation":"standard","articulation_tags":["standard","long"],"duration":0.0,"velocity":70.76515265328086}
{"position":161.63541666666666,"instrument":"CorAnglais","level2":7,"level3":1,"pitch":70,"articulation":"legato","articulation_tags":["legato","lg"],"duration":0.19791666666666666,"velocity":69.23189340826568}
{"position":161.66666666666666,"instrument":"Bassoon","level2":7,"level3":1,"pitch":70,"articulation":"legato","articulation_tags":["legato","lg"],"duration":0.16666666666666666,"velocity":69.23189340826568}
{"position":161.77083333333334,"instrument":"Clarinet","level2":7,"level3":4,"pitch":70,"articulation":"legato","articulation_tags":["legato","lg"],"duration":0.0625,"velocity":69.23189340826568}
{"position":162.04166666666666,"instrument":"Cello","level2":8,"level3":4,"pitch":65,"articulation":"staccato","articulation_tags":["staccato","st","short"],"duration":1.0,"velocity":127.5}
{"position":162.26041666666666,"instrument":"TheGrandeurPiano","level2":8,"level3":null,"pitch":63,"articulation":"standard","articulation_tags":["standard","long"],"duration":1.4097222222222223,"velocity":72.84997976693788}
{"position":163.375,"instrument":"TheGrandeurPiano","level2":8,"level3":null,"pitch":63,"articulation":"standard","articulation_tags":["standard","long"],"duration":1.4652777777777777,"velocity":72.16363694342823}
{"position":164.0,"instrument":"CorAnglais","level2":8,"level3":3,"pitch":64,"articulation":"legato","articulation_tags":["legato","lg"],"duration":2.6979166666666665,"velocity":127.0}
{"position":164.375,"instrument":"TheGrandeurPiano","level2":8,"level3":null,"pitch":63,"articulation":"standard","articulation_tags":["standard","long"],"duration":1.3819444444444444,"velocity":69.08704563229233}
{"position":165.52083333333334,"instrument":"Trumpet","level2":8,"level3":2,"pitch":64,"articulation":"sforzando","articulation_tags":["sforzando","sfz","long"],"duration":1.1666666666666667,"velocity":127.0}
{"position":165.57291666666666,"instrument":"TheGrandeurPiano","level2":8,"level3":null,"pitch":63,"articulation":"standard","articulation_tags":["standard","long"],"duration":1.8888888888888888,"velocity":71.00070278399329}
{"position":165.73958333333334,"instrument":"Cello","level2":8,"level3":3,"pitch":64,"articulation":"spiccato","articulation_tags":["spiccato","sp","short"],"duration":1.0,"velocity":127.5}
{"position":166.4375,"instrument":"TheGrandeurPiano","level2":8,"level3":null,"pitch":64,"articulation":"standard","articulation_tags":["standard","long"],"duration":1.3611111111111112,"velocity":70.05234370819758}
{"position":166.47916666666666,"instrument":"Bassoon","level2":8,"level3":5,"pitch":66,"articulation":"legato","articulation_tags":["legato","lg"],"duration":0.10416666666666667,"velocity":127.0}
{"position":166.47916666666666,"instrument":"TenorTrombone","level2":8,"level3":6,"pitch":66,"articulation":"sforzando","articulation_tags":["sforzando","sfz","long"],"duration":0.020833333333333332,"velocity":127.0}
{"position":166.5,"instrument":"TenorTrombone","level2":8,"level3":6,"pitch":66,"articulation":"sforzando","articulation_tags":["sforzando","sfz","long"],"duration":1.25,"velocity":127.0}
{"position":166.57291666666666,"instrument":"Bassoon","level2":8,"level3":5,"pitch":66,"articulation":"legato","articulation_tags":["legato","lg"],"duration":1.5,"velocity":127.0}
{"position":166.625,"instrument":"ContrabassTrombone","level2":8,"level3":2,"pitch":64,"articulation":"sforzando","articulation_tags":["sforzando","sfz","long"],"duration":0.0625,"velocity":127.0}
{"position":166.86458333333334,"instrument":"Trumpet","level2":8,"level3":4,"pitch":65,"articulation":"sforzando","articulation_tags":["sforzando","sfz","long"],"duration":16.114583333333332,"velocity":127.0}
{"position":167.75,"instrument":"CorAnglais","level2":8,"level3":6,"pitch":66,"articulation":"legato","articulation_tags":["legato","lg"],"duration":2.625,"velocity":127.0}
{"position":168.07291666666666,"instrument":"Bassoon","level2":8,"level3":5,"pitch":65,"articulation":"legato","articulation_tags":["legato","lg"],"duration":2.5729166666666665,"velocity":127.0}
{"position":168.40625,"instrument":"TheGrandeurPiano","level2":8,"level3":null,"pitch":64,"articulation":"standard","articulation_tags":["standard","long"],"duration":2.0078740157480315,"velocity":67.85515987811664}
{"position":168.45833333333334,"instrument":"ContrabassTrombone","level2":8,"level3":5,"pitch":65,"articulation":"sforzando","articulation_tags":["sforzando","sfz","long"],"duration":3.9270833333333335,"velocity":127.0}
{"position":168.47916666666666,"instrument":"TenorTrombone","level2":8,"level3":6,"pitch":67,"articulation":"sforzando","articulation_tags":["sforzando","sfz","long"],"duration":3.0729166666666665,"velocity":127.0}
{"position":168.47916666666666,"instrument":"TheGrandeurPiano","level2":8,"level3":null,"pitch":64,"articulation":"standard","articulation_tags":["standard","long"],"duration":1.3472222222222223,"velocity":67.85515987811664}
{"position":170.375,"instrument":"CorAnglais","level2":8,"level3":6,"pitch":67,"articulation":"legato","articulation_tags":["legato","lg"],"duration":3.8958333333333335,"velocity":127.0}
{"position":170.5,"instrument":"TheGrandeurPiano","level2":8,"level3":null,"pitch":65,"articulation":"standard","articulation_tags":["standard","long"],"duration":1.3472222222222223,"velocity":70.76515265328086}
{"position":170.54166666666666,"instrument":"TenorTrombone","level2":8,"level3":4,"pitch":65,"articulation":"sforzando","articulation_tags":["sforzando","sfz","long"],"duration":5.40625,"velocity":127.0}
{"position":170.65625,"instrument":"Bassoon","level2":8,"level3":5,"pitch":65,"articulation":"legato","articulation_tags":["legato","lg"],"duration":3.4166666666666665,"velocity":127.0}
{"position":171.5625,"instrument":"TenorTrombone","level2":8,"level3":6,"pitch":66,"articulation":"sforzando","articulation_tags":["sforzando","sfz","long"],"duration":9.114583333333334,"velocity":127.0}
{"position":172.38541666666666,"instrument":"ContrabassTrombone","level2":8,"level3":5,"pitch":65,"articulation":"sforzando","articulation_tags":["sforzando","sfz","long"],"duration":6.395833333333333,"velocity":127.0}
{"position":172.52083333333334,"instrument":"TheGrandeurPiano","level2":8,"level3":null,"pitch":65,"articulation":"standard","articulation_tags":["standard","long"],"duration":1.3472222222222223,"velocity":66.8481677113443}
{"position":172.9375,"instrument":"TheGrandeurPiano","level2":8,"level3":null,"pitch":65,"articulation":"standard","articulation_tags":["standard","long"],"duration":2.0236220472440944,"velocity":68.35139281028783}
{"position":174.0625,"instrument":"Bassoon","level2":8,"level3":5,"pitch":64,"articulation":"legato","articulation_tags":["legato","lg"],"duration":4.489583333333333,"velocity":127.0}
{"position":174.28125,"instrument":"CorAnglais","level2":8,"level3":6,"pitch":66,"articulation":"legato","articulation_tags":["legato","lg"],"duration":5.666666666666667,"velocity":127.0}
{"position":174.54166666666666,"instrument":"TheGrandeurPiano","level2":8,"level3":null,"pitch":66,"articulation":"standard","articulation_tags":["standard","long"],"duration":1.3541666666666667,"velocity":67.10177610609054}
{"position":175.94791666666666,"instrument":"TenorTrombone","level2":8,"level3":4,"pitch":65,"articulation":"sforzando","articulation_tags":["sforzando","sfz","long"],"duration":4.166666666666667,"velocity":127.0}
{"position":176.58333333333334,"instrument":"TheGrandeurPiano","level2":8,"level3":null,"pitch":66,"articulation":"standard","articulation_tags":["standard","long"],"duration":1.3680555555555556,"velocity":72.84997976693788}
{"position":178.5625,"instrument":"Bassoon","level2":8,"level3":5,"pitch":64,"articulation":"legato","articulation_tags":["legato","lg"],"duration":4.916666666666667,"velocity":127.0}
{"position":178.63541666666666,"instrument":"TheGrandeurPiano","level2":8,"level3":null,"pitch":67,"articulation":"standard","articulation_tags":["standard","long"],"duration":1.3888888888888888,"velocity":75.29864397317493}
{"position":178.78125,"instrument":"ContrabassTrombone","level2":8,"level3":5,"pitch":64,"articulation":"sforzando","articulation_tags":["sforzando","sfz","long"],"duration":3.0833333333333335,"velocity":127.0}
{"position":179.9375,"instrument":"CorAnglais","level2":8,"level3":6,"pitch":66,"articulation":"legato","articulation_tags":["legato","lg"],"duration":17.458333333333332,"velocity":127.0}
{"position":180.11458333333334,"instrument":"Cello","level2":8,"level3":4,"pitch":64,"articulation":"staccato","articulation_tags":["staccato","st","short"],"duration":1.0,"velocity":127.5}
{"position":180.66666666666666,"instrument":"Cello","level2":8,"level3":6,"pitch":66,"articulation":"short_marcato","articulation_tags":["short_marcato","marcato_s","short","marcato"],"duration":1.0,"velocity":127.5}
{"position":180.71875,"instrument":"TheGrandeurPiano","level2":8,"level3":null,"pitch":67,"articulation":"standard","articulation_tags":["standard","long"],"duration":1.4166666666666667,"velocity":77.01780125361316}
{"position":181.44791666666666,"instrument":"Cello","level2":8,"level3":7,"pitch":65,"articulation":"spiccato","articulation_tags":["spiccato","sp","short"],"duration":1.0,"velocity":127.5}
{"position":181.44791666666666,"instrument":"Cello","level2":8,"level3":8,"pitch":66,"articulation":"spiccato","articulation_tags":["spiccato","sp","short"],"duration":1.0,"velocity":127.5}
{"position":181.48958333333334,"instrument":"Cello","level2":8,"level3":8,"pitch":66,"articulation":"spiccato","articulation_tags":["spiccato","sp","short"],"duration":1.0,"velocity":127.5}
{"position":181.79166666666666,"instrument":"Cello","level2":8,"level3":7,"pitch":65,"articulation":"spiccato","articulation_tags":["spiccato","sp","short"],"duration":1.0,"velocity":127.5}
{"position":181.83333333333334,"instrument":"TheGrandeurPiano","level2":8,"level3":null,"pitch":67,"articulation":"standard","articulation_tags":["standard","long"],"duration":2.0551181102362204,"velocity":78.89570990289819}
{"position":181.85416666666666,"instrument":"ContrabassTrombone","level2":8,"level3":5,"pitch":64,"articulation":"sforzando","articulation_tags":["sforzando","sfz","long"],"duration":1.4895833333333333,"velocity":127.0}
{"position":182.34375,"instrument":"Viola","level2":8,"level3":8,"pitch":66,"articulation":"spiccato","articulation_tags":["spiccato","sp","short"],"duration":1.0,"velocity":127.5}
{"position":182.83333333333334,"instrument":"TheGrandeurPiano","level2":8,"level3":null,"pitch":68,"articulation":"standard","articulation_tags":["standard","long"],"duration":1.4513888888888888,"velocity":79.71257152692525}
{"position":182.97916666666666,"instrument":"Trumpet","level2":8,"level3":4,"pitch":64,"articulation":"sforzando","articulation_tags":["sforzando","sfz","long"],"duration":0.5,"velocity":127.0}
{"position":183.0625,"instrument":"Cello","level2":8,"level3":4,"pitch":64,"articulation":"staccato","articulation_tags":["staccato","st","short"],"duration":1.0,"velocity":127.5}
{"position":183.15625,"instrument":"Cello","level2":8,"level3":8,"pitch":66,"articulation":"spiccato","articulation_tags":["spiccato","sp","short"],"duration":1.0,"velocity":127.5}
{"position":183.34375,"instrument":"ContrabassTrombone","level2":8,"level3":5,"pitch":64,"articulation":"sforzando","articulation_tags":["sforzando","sfz","long"],"duration":0.13541666666666666,"velocity":127.0}
{"position":183.77083333333334,"instrument":"Trumpet","level2":8,"level3":7,"pitch":65,"articulation":"sforzando","articulation_tags":["sforzando","sfz","long"],"duration":3.0416666666666665,"velocity":127.0}
{"position":185.01041666666666,"instrument":"TheGrandeurPiano","level2":8,"level3":null,"pitch":68,"articulation":"standard","articulation_tags":["standard","long"],"duration":1.5,"velocity":79.71257152692525}
{"position":186.375,"instrument":"TheGrandeurPiano","level2":8,"level3":null,"pitch":68,"articulation":"standard","articulation_tags":["standard","long"],"duration":1.8958333333333333,"velocity":77.85946585777697}
{"position":186.39583333333334,"instrument":"ContrabassTrombone","level2":8,"level3":6,"pitch":65,"articulation":"cuivre","articulation_tags":["cuivre","long"],"duration":4.6875,"velocity":127.0}
{"position":186.61458333333334,"instrument":"Bassoon","level2":10,"level3":0,"pitch":42,"articulation":"staccato","articulation_tags":["staccato","st","short"],"duration":0.25,"velocity":127.5}
{"position":186.77083333333334,"instrument":"Cello","level2":8,"level3":8,"pitch":66,"articulation":"staccato","articulation_tags":["staccato","st","short"],"duration":1.0,"velocity":127.5}
{"position":186.82291666666666,"instrument":"Trumpet","level2":8,"level3":7,"pitch":64,"articulation":"sforzando","articulation_tags":["sforzando","sfz","long"],"duration":4.0625,"velocity":127.0}
{"position":186.86458333333334,"instrument":"TheGrandeurPiano","level2":9,"level3":null,"pitch":41,"articulation":"standard","articulation_tags":["standard","long"],"duration":0.0,"velocity":82.29789944878868}
{"position":186.86458333333334,"instrument":"TheGrandeurPiano","level2":9,"level3":null,"pitch":41,"articulation":"standard","articulation_tags":["standard","long"],"duration":0.013888888888888888,"velocity":82.29789944878868}
{"position":186.86458333333334,"instrument":"TheGrandeurPiano","level2":10,"level3":null,"pitch":40,"articulation":"standard","articulation_tags":["standard","long"],"duration":0.0,"velocity":82.29789944878868}
{"position":186.86458333333334,"instrument":"TheGrandeurPiano","level2":10,"level3":null,"pitch":40,"articulation":"standard","articulation_tags":["standard","long"],"duration":0.05555555555555555,"velocity":82.29789944878868}
{"position":186.86458333333334,"instrument":"TheGrandeurPiano","level2":10,"level3":null,"pitch":40,"articulation":"standard","articulation_tags":["standard","long"],"duration":0.020833333333333332,"velocity":82.29789944878868}
{"position":186.88541666666666,"instrument":"TheGrandeurPiano","level2":9,"level3":null,"pitch":41,"articulation":"standard","articulation_tags":["standard","long"],"duration":0.034722222222222224,"velocity":82.29789944878868}
{"position":186.92708333333334,"instrument":"TheGrandeurPiano","level2":9,"level3":null,"pitch":42,"articulation":"standard","articulation_tags":["standard","long"],"duration":0.04861111111111111,"velocity":82.29789944878868}
{"position":186.94791666666666,"instrument":"TheGrandeurPiano","level2":10,"level3":null,"pitch":39,"articulation":"standard","articulation_tags":["standard","long"],"duration":0.13194444444444445,"velocity":82.1026180247476}
{"position":187.01041666666666,"instrument":"Violin","level2":9,"level3":0,"pitch":55,"articulation":"long_hrm","articulation_tags":["long_hrm","hrm","long","harmonics"],"duration":0.0,"velocity":120.37243110505281}
{"position":187.01041666666666,"instrument":"Violin","level2":9,"level3":0,"pitch":55,"articulation":"long_hrm","articulation_tags":["long_hrm","hrm","long","harmonics"],"duration":0.8645833333333334,"velocity":120.37243110505281}
{"position":187.01041666666666,"instrument":"Violin","level2":9,"level3":1,"pitch":55,"articulation":"long_cs","articulation_tags":["long_cs","cs","long","consordina"],"duration":0.4791666666666667,"velocity":120.37243110505281}
{"position":187.01041666666666,"instrument":"TheGrandeurPiano","level2":9,"level3":null,"pitch":42,"articulation":"standard","articulation_tags":["standard","long"],"duration":0.0625,"velocity":82.1026180247476}
{"position":187.08333333333334,"instrument":"TheGrandeurPiano","level2":9,"level3":null,"pitch":42,"articulation":"standard","articulation_tags":["standard","long"],"duration":0.2361111111111111,"velocity":82.1026180247476}
{"position":187.10416666666666,"instrument":"TheGrandeurPiano","level2":9,"level3":null,"pitch":43,"articulation":"standard","articulation_tags":["standard","long"],"duration":0.0763888888888889,"velocity":82.1026180247476}
{"position":187.11458333333334,"instrument":"Bassoon","level2":8,"level3":8,"pitch":66,"articulation":"legato","articulation_tags":["legato","lg"],"duration":7.625,"velocity":127.0}
{"position":187.1875,"instrument":"TheGrandeurPiano","level2":10,"level3":null,"pitch":38,"articulation":"standard","articulation_tags":["standard","long"],"duration":0.1111111111111111,"velocity":82.1026180247476}
{"position":187.33333333333334,"instrument":"Violin","level2":9,"level3":0,"pitch":55,"articulation":"long_hrm","articulation_tags":["long_hrm","hrm","long","harmonics"],"duration":10.90625,"velocity":115.9501018451216}
{"position":187.35416666666666,"instrument":"TheGrandeurPiano","level2":10,"level3":null,"pitch":37,"articulation":"standard","articulation_tags":["standard","long"],"duration":0.1388888888888889,"velocity":82.29789944878868}
{"position":187.36458333333334,"instrument":"TheGrandeurPiano","level2":9,"level3":null,"pitch":44,"articulation":"standard","articulation_tags":["standard","long"],"duration":0.1111111111111111,"velocity":82.29789944878868}
{"position":187.48958333333334,"instrument":"Violin","level2":9,"level3":1,"pitch":55,"articulation":"long_flt","articulation_tags":["long_flt","flt","long","flautando"],"duration":2.5208333333333335,"velocity":114.00239789895804}
{"position":187.52083333333334,"instrument":"TheGrandeurPiano","level2":9,"level3":null,"pitch":44,"articulation":"standard","articulation_tags":["standard","long"],"duration":0.125,"velocity":77.2293020654445}
{"position":187.55208333333334,"instrument":"TheGrandeurPiano","level2":10,"level3":null,"pitch":37,"articulation":"standard","articulation_tags":["standard","long"],"duration":0.16666666666666666,"velocity":77.2293020654445}
{"position":187.70833333333334,"instrument":"TheGrandeurPiano","level2":9,"level3":null,"pitch":45,"articulation":"standard","articulation_tags":["standard","long"],"duration":0.13194444444444445,"velocity":77.85946585777697}
{"position":187.80208333333334,"instrument":"TheGrandeurPiano","level2":10,"level3":null,"pitch":36,"articulation":"standard","articulation_tags":["standard","long"],"duration":0.19444444444444445,"velocity":77.85946585777697}
{"position":187.84375,"instrument":"TheGrandeurPiano","level2":10,"level3":null,"pitch":36,"articulation":"standard","articulation_tags":["standard","long"],"duration":0.3263888888888889,"velocity":77.85946585777697}
{"position":187.86458333333334,"instrument":"Viola","level2":9,"level3":0,"pitch":54,"articulation":"long_hrm","articulation_tags":["long_hrm","hrm","long","harmonics"],"duration":2.5,"velocity":111.50570524469222}
{"position":187.90625,"instrument":"TheGrandeurPiano","level2":9,"level3":null,"pitch":45,"articulation":"standard","articulation_tags":["standard","long"],"duration":0.14583333333333334,"velocity":77.85946585777697}
{"position":188.09375,"instrument":"TheGrandeurPiano","level2":10,"level3":null,"pitch":36,"articulation":"standard","articulation_tags":["standard","long"],"duration":0.22916666666666666,"velocity":78.89570990289819}
{"position":188.13541666666666,"instrument":"TheGrandeurPiano","level2":9,"level3":null,"pitch":46,"articulation":"standard","articulation_tags":["standard","long"],"duration":0.1597222222222222,"velocity":78.89570990289819}
{"position":188.30208333333334,"instrument":"Violin","level2":9,"level3":1,"pitch":56,"articulation":"long_flt","articulation_tags":["long_flt","flt","long","flautando"],"duration":12.739583333333334,"velocity":108.11242045220081}
{"position":188.32291666666666,"instrument":"TheGrandeurPiano","level2":10,"level3":null,"pitch":36,"articulation":"standard","articulation_tags":["standard","long"],"duration":0.3819444444444444,"velocity":80.31840992563168}
{"position":188.375,"instrument":"TheGrandeurPiano","level2":9,"level3":null,"pitch":46,"articulation":"standard","articulation_tags":["standard","long"],"duration":0.1736111111111111,"velocity":80.31840992563168}
{"position":188.4375,"instrument":"TheGrandeurPiano","level2":10,"level3":null,"pitch":35,"articulation":"standard","articulation_tags":["standard","long"],"duration":0.2638888888888889,"velocity":80.31840992563168}
{"position":188.63541666666666,"instrument":"TheGrandeurPiano","level2":9,"level3":null,"pitch":47,"articulation":"standard","articulation_tags":["standard","long"],"duration":0.1875,"velocity":82.1026180247476}
{"position":188.84375,"instrument":"TheGrandeurPiano","level2":10,"level3":null,"pitch":35,"articulation":"standard","articulation_tags":["standard","long"],"duration":0.3125,"velocity":77.44007481292203}
{"position":188.88541666666666,"instrument":"TheGrandeurPiano","level2":9,"level3":null,"pitch":47,"articulation":"standard","articulation_tags":["standard","long"],"duration":0.9444444444444444,"velocity":77.44007481292203}
{"position":188.89583333333334,"instrument":"TheGrandeurPiano","level2":10,"level3":null,"pitch":35,"articulation":"standard","articulation_tags":["standard","long"],"duration":0.4444444444444444,"velocity":77.44007481292203}
{"position":188.90625,"instrument":"TheGrandeurPiano","level2":9,"level3":null,"pitch":47,"articulation":"standard","articulation_tags":["standard","long"],"duration":0.19444444444444445,"velocity":77.44007481292203}
{"position":189.19791666666666,"instrument":"TheGrandeurPiano","level2":9,"level3":null,"pitch":48,"articulation":"standard","articulation_tags":["standard","long"],"duration":0.20833333333333334,"velocity":79.71257152692525}
{"position":189.51041666666666,"instrument":"TheGrandeurPiano","level2":9,"level3":null,"pitch":48,"articulation":"standard","articulation_tags":["standard","long"],"duration":0.2152777777777778,"velocity":78.06809871266789}
{"position":189.5625,"instrument":"TheGrandeurPiano","level2":10,"level3":null,"pitch":34,"articulation":"standard","articulation_tags":["standard","long"],"duration":0.5,"velocity":78.06809871266789}
{"position":189.8125,"instrument":"Viola","level2":9,"level3":2,"pitch":55,"articulation":"long_hrm","articulation_tags":["long_hrm","hrm","long","harmonics"],"duration":0.010416666666666666,"velocity":100.83822352595207}
{"position":189.8125,"instrument":"Viola","level2":9,"level3":3,"pitch":55,"articulation":"long_cs","articulation_tags":["long_cs","cs","long","consordina"],"duration":0.13541666666666666,"velocity":100.83822352595207}
{"position":189.82291666666666,"instrument":"Viola","level2":9,"level3":2,"pitch":55,"articulation":"long_hrm","articulation_tags":["long_hrm","hrm","long","harmonics"],"duration":11.8125,"velocity":100.83822352595207}
{"position":189.84375,"instrument":"TheGrandeurPiano","level2":9,"level3":null,"pitch":49,"articulation":"standard","articulation_tags":["standard","long"],"duration":0.22916666666666666,"velocity":81.11742702031181}
{"position":189.84375,"instrument":"TheGrandeurPiano","level2":10,"level3":null,"pitch":34,"articulation":"standard","articulation_tags":["standard","long"],"duration":0.4097222222222222,"velocity":81.11742702031181}
{"position":189.94791666666666,"instrument":"Viola","level2":9,"level3":3,"pitch":55,"articulation":"long_cs","articulation_tags":["long_cs","cs","long","consordina"],"duration":11.71875,"velocity":99.55970028869609}
{"position":190.01041666666666,"instrument":"Viola","level2":9,"level3":1,"pitch":56,"articulation":"long_slt","articulation_tags":["long_slt","slt","long","sultasto"],"duration":4.802083333333333,"velocity":99.55970028869609}
{"position":190.05208333333334,"instrument":"Cello","level2":9,"level3":4,"pitch":54,"articulation":"long_cs","articulation_tags":["long_cs","cs","long","consordina"],"duration":0.020833333333333332,"velocity":99.55970028869609}
{"position":190.05208333333334,"instrument":"Violin","level2":9,"level3":5,"pitch":55,"articulation":"long_flt","articulation_tags":["long_flt","flt","long","flautando"],"duration":0.6770833333333334,"velocity":99.55970028869609}
{"position":190.07291666666666,"instrument":"Cello","level2":9,"level3":4,"pitch":54,"articulation":"long_cs","articulation_tags":["long_cs","cs","long","consordina"],"duration":7.333333333333333,"velocity":99.55970028869609}
{"position":190.1875,"instrument":"TheGrandeurPiano","level2":9,"level3":null,"pitch":49,"articulation":"standard","articulation_tags":["standard","long"],"duration":0.24305555555555555,"velocity":80.71915155928433}
{"position":190.29166666666666,"instrument":"Cello","level2":9,"level3":4,"pitch":54,"articulation":"long_cs","articulation_tags":["long_cs","cs","long","consordina"],"duration":2.4895833333333335,"velocity":98.2894463180216}
{"position":190.29166666666666,"instrument":"TheGrandeurPiano","level2":9,"level3":null,"pitch":49,"articulation":"standard","articulation_tags":["standard","long"],"duration":1.7716535433070866,"velocity":80.71915155928433}
{"position":190.30208333333334,"instrument":"Cello","level2":9,"level3":2,"pitch":54,"articulation":"long_hrm","articulation_tags":["long_hrm","hrm","long","harmonics"],"duration":2.3229166666666665,"velocity":97.45529071458093}
{"position":190.3125,"instrument":"TheGrandeurPiano","level2":10,"level3":null,"pitch":34,"articulation":"standard","articulation_tags":["standard","long"],"duration":0.5625,"velocity":77.2293020654445}
{"position":190.375,"instrument":"Viola","level2":9,"level3":0,"pitch":54,"articulation":"long_hrm","articulation_tags":["long_hrm","hrm","long","harmonics"],"duration":5.15625,"velocity":97.45529071458093}
{"position":190.45833333333334,"instrument":"TheGrandeurPiano","level2":10,"level3":null,"pitch":33,"articulation":"standard","articulation_tags":["standard","long"],"duration":0.4722222222222222,"velocity":77.2293020654445}
{"position":190.72916666666666,"instrument":"Violin","level2":9,"level3":5,"pitch":55,"articulation":"long_flt","articulation_tags":["long_flt","flt","long","flautando"],"duration":8.84375,"velocity":96.18057102614864}
{"position":190.76041666666666,"instrument":"Contrabass","level2":10,"level3":0,"pitch":42,"articulation":"collegno","articulation_tags":["collegno","cl","short"],"duration":1.0,"velocity":127.5}
{"position":190.88541666666666,"instrument":"Trumpet","level2":8,"level3":7,"pitch":64,"articulation":"sforzando","articulation_tags":["sforzando","sfz","long"],"duration":7.458333333333333,"velocity":126.37384072061522}
{"position":190.92708333333334,"instrument":"TheGrandeurPiano","level2":9,"level3":null,"pitch":50,"articulation":"standard","articulation_tags":["standard","long"],"duration":0.2638888888888889,"velocity":78.06809871266789}
{"position":191.08333333333334,"instrument":"ContrabassTrombone","level2":8,"level3":6,"pitch":65,"articulation":"cuivre","articulation_tags":["cuivre","long"],"duration":3.6354166666666665,"velocity":126.37384072061522}
{"position":191.15625,"instrument":"TheGrandeurPiano","level2":10,"level3":null,"pitch":33,"articulation":"standard","articulation_tags":["standard","long"],"duration":0.6180555555555556,"velocity":75.29864397317493}
{"position":191.16666666666666,"instrument":"Cello","level2":9,"level3":3,"pitch":55,"articulation":"long_flt","articulation_tags":["long_flt","flt","long","flautando"],"duration":4.53125,"velocity":94.91459735976716}
{"position":191.32291666666666,"instrument":"TheGrandeurPiano","level2":9,"level3":null,"pitch":51,"articulation":"standard","articulation_tags":["standard","long"],"duration":0.2708333333333333,"velocity":79.71257152692525}
{"position":191.70833333333334,"instrument":"Violin","level2":9,"level3":5,"pitch":55,"articulation":"long_slt","articulation_tags":["long_slt","slt","long","sultasto"],"duration":5.760416666666667,"velocity":93.65779744830266}
{"position":191.72916666666666,"instrument":"TheGrandeurPiano","level2":9,"level3":null,"pitch":51,"articulation":"standard","articulation_tags":["standard","long"],"duration":0.2847222222222222,"velocity":77.44007481292203}
{"position":191.75,"instrument":"TenorTrombone","level2":8,"level3":7,"pitch":64,"articulation":"sforzando","articulation_tags":["sforzando","sfz","long"],"duration":3.625,"velocity":124.95078444077036}
{"position":191.98958333333334,"instrument":"TheGrandeurPiano","level2":10,"level3":null,"pitch":32,"articulation":"standard","articulation_tags":["standard","long"],"duration":0.6388888888888888,"velocity":75.51625440712283}
{"position":192.08333333333334,"instrument":"TheGrandeurPiano","level2":10,"level3":null,"pitch":32,"articulation":"standard","articulation_tags":["standard","long"],"duration":0.6875,"velocity":80.31840992563168}
{"position":192.125,"instrument":"TheGrandeurPiano","level2":8,"level3":null,"pitch":70,"articulation":"standard","articulation_tags":["standard","long"],"duration":1.8472222222222223,"velocity":78.89570990289819}
{"position":192.13541666666666,"instrument":"Contrabass","level2":10,"level3":0,"pitch":42,"articulation":"collegno","articulation_tags":["collegno","cl","short"],"duration":1.0,"velocity":127.5}
{"position":192.15625,"instrument":"TheGrandeurPiano","level2":9,"level3":null,"pitch":52,"articulation":"standard","articulation_tags":["standard","long"],"duration":0.2916666666666667,"velocity":78.89570990289819}
{"position":192.59375,"instrument":"TheGrandeurPiano","level2":9,"level3":null,"pitch":52,"articulation":"standard","articulation_tags":["standard","long"],"duration":0.3055555555555556,"velocity":77.85946585777697}
{"position":192.625,"instrument":"Cello","level2":9,"level3":2,"pitch":54,"articulation":"long_hrm","articulation_tags":["long_hrm","hrm","long","harmonics"],"duration":5.052083333333333,"velocity":89.94710081456263}
{"position":192.79166666666666,"instrument":"Cello","level2":9,"level3":4,"pitch":54,"articulation":"long_cs","articulation_tags":["long_cs","cs","long","consordina"],"duration":7.479166666666667,"velocity":89.94710081456263}
{"position":192.94791666666666,"instrument":"TheGrandeurPiano","level2":10,"level3":null,"pitch":32,"articulation":"standard","articulation_tags":["standard","long"],"duration":0.7638888888888888,"velocity":77.2293020654445}
{"position":193.04166666666666,"instrument":"TheGrandeurPiano","level2":9,"level3":null,"pitch":53,"articulation":"standard","articulation_tags":["standard","long"],"duration":0.3125,"velocity":77.2293020654445}
{"position":193.08333333333334,"instrument":"Contrabass","level2":9,"level3":6,"pitch":54,"articulation":"long_slt","articulation_tags":["long_slt","slt","long","sultasto"],"duration":2.75,"velocity":88.73179520482527}
{"position":193.08333333333334,"instrument":"Violin","level2":9,"level3":7,"pitch":55,"articulation":"long_slt","articulation_tags":["long_slt","slt","long","sultasto"],"duration":0.11458333333333333,"velocity":88.73179520482527}
{"position":193.19791666666666,"instrument":"Violin","level2":9,"level3":7,"pitch":55,"articulation":"long_slt","articulation_tags":["long_slt","slt","long","sultasto"],"duration":4.895833333333333,"velocity":88.73179520482527}
{"position":193.41666666666666,"instrument":"TenorTrombone","level2":8,"level3":8,"pitch":66,"articulation":"sforzando","articulation_tags":["sforzando","sfz","long"],"duration":8.479166666666666,"velocity":123.43759834025639}
{"position":193.4375,"instrument":"Violin","level2":9,"level3":7,"pitch":55,"articulation":"long_slt","articulation_tags":["long_slt","slt","long","sultasto"],"duration":6.833333333333333,"velocity":87.81890813344013}
{"position":193.52083333333334,"instrument":"TheGrandeurPiano","level2":9,"level3":null,"pitch":53,"articulation":"standard","articulation_tags":["standard","long"],"duration":0.3263888888888889,"velocity":77.2293020654445}
{"position":194.0,"instrument":"TheGrandeurPiano","level2":9,"level3":null,"pitch":54,"articulation":"standard","articulation_tags":["standard","long"],"duration":0.3333333333333333,"velocity":78.89570990289819}
{"position":194.09375,"instrument":"TheGrandeurPiano","level2":10,"level3":null,"pitch":31,"articulation":"standard","articulation_tags":["standard","long"],"duration":0.9236111111111112,"velocity":78.89570990289819}
{"position":194.23958333333334,"instrument":"TheGrandeurPiano","level2":10,"level3":null,"pitch":31,"articulation":"standard","articulation_tags":["standard","long"],"duration":0.8263888888888888,"velocity":73.97583123579426}
{"position":194.34375,"instrument":"Contrabass","level2":10,"level3":0,"pitch":43,"articulation":"collegno","articulation_tags":["collegno","cl","short"],"duration":1.0,"velocity":127.5}
{"position":194.5,"instrument":"TheGrandeurPiano","level2":9,"level3":null,"pitch":54,"articulation":"standard","articulation_tags":["standard","long"],"duration":0.3819444444444444,"velocity":75.51625440712283}
{"position":194.71875,"instrument":"ContrabassTrombone","level2":8,"level3":6,"pitch":64,"articulation":"cuivre","articulation_tags":["cuivre","long"],"duration":2.7708333333333335,"velocity":123.43759834025639}
{"position":194.75,"instrument":"Bassoon","level2":8,"level3":8,"pitch":65,"articulation":"legato","articulation_tags":["legato","lg"],"duration":5.020833333333333,"velocity":123.43759834025639}
{"position":194.8125,"instrument":"Viola","level2":9,"level3":1,"pitch":56,"articulation":"tremolo","articulation_tags":["tremolo","tr","multi_note"],"duration":13.479166666666666,"velocity":84.19792694904568}
{"position":194.88541666666666,"instrument":"TheGrandeurPiano","level2":8,"level3":null,"pitch":70,"articulation":"standard","articulation_tags":["standard","long"],"duration":0.9444444444444444,"velocity":77.44007481292203}
{"position":194.90625,"instrument":"TheGrandeurPiano","level2":8,"level3":null,"pitch":70,"articulation":"standard","articulation_tags":["standard","long"],"duration":2.1023622047244093,"velocity":77.44007481292203}
{"position":195.0,"instrument":"Contrabass","level2":9,"level3":8,"pitch":54,"articulation":"long_slt","articulation_tags":["long_slt","slt","long","sultasto"],"duration":0.84375,"velocity":84.19792694904568}
{"position":195.07291666666666,"instrument":"TheGrandeurPiano","level2":9,"level3":null,"pitch":55,"articulation":"standard","articulation_tags":["standard","long"],"duration":0.4236111111111111,"velocity":75.29864397317493}
{"position":195.375,"instrument":"TenorTrombone","level2":8,"level3":7,"pitch":64,"articulation":"sforzando","articulation_tags":["sforzando","sfz","long"],"duration":2.1354166666666665,"velocity":121.94222122254465}
{"position":195.47916666666666,"instrument":"TheGrandeurPiano","level2":10,"level3":null,"pitch":31,"articulation":"standard","articulation_tags":["standard","long"],"duration":1.1527777777777777,"velocity":78.06809871266789}
{"position":195.52083333333334,"instrument":"Viola","level2":9,"level3":0,"pitch":53,"articulation":"long_hrm","articulation_tags":["long_hrm","hrm","long","harmonics"],"duration":7.895833333333333,"velocity":83.01655050623727}
{"position":195.69791666666666,"instrument":"Cello","level2":9,"level3":3,"pitch":55,"articulation":"long_slt","articulation_tags":["long_slt","slt","long","sultasto"],"duration":7.614583333333333,"velocity":83.01655050623727}
{"position":195.70833333333334,"instrument":"TheGrandeurPiano","level2":9,"level3":null,"pitch":55,"articulation":"standard","articulation_tags":["standard","long"],"duration":0.4166666666666667,"velocity":73.97583123579426}
{"position":195.83333333333334,"instrument":"Contrabass","level2":9,"level3":6,"pitch":54,"articulation":"long_slt","articulation_tags":["long_slt","slt","long","sultasto"],"duration":0.0,"velocity":81.84913792188371}
{"position":196.20833333333334,"instrument":"Contrabass","level2":10,"level3":0,"pitch":43,"articulation":"collegno","articulation_tags":["collegno","cl","short"],"duration":1.0,"velocity":127.5}
{"position":196.29166666666666,"instrument":"Contrabass","level2":9,"level3":9,"pitch":54,"articulation":"long_cs","articulation_tags":["long_cs","cs","long","consordina"],"duration":0.3958333333333333,"velocity":82.84360428113071}
{"position":196.29166666666666,"instrument":"Violin","level2":9,"level3":10,"pitch":55,"articulation":"long_cs","articulation_tags":["long_cs","cs","long","consordina"],"duration":2.9166666666666665,"velocity":82.84360428113071}
{"position":196.30208333333334,"instrument":"TheGrandeurPiano","level2":8,"level3":null,"pitch":70,"articulation":"standard","articulation_tags":["standard","long"],"duration":0.8402777777777778,"velocity":77.2293020654445}
{"position":196.33333333333334,"instrument":"TheGrandeurPiano","level2":9,"level3":null,"pitch":56,"articulation":"standard","articulation_tags":["standard","long"],"duration":0.4166666666666667,"velocity":77.2293020654445}
{"position":196.6875,"instrument":"Contrabass","level2":9,"level3":9,"pitch":54,"articulation":"long_cs","articulation_tags":["long_cs","cs","long","consordina"],"duration":6.895833333333333,"velocity":81.70835927250916}
{"position":196.83333333333334,"instrument":"TheGrandeurPiano","level2":10,"level3":null,"pitch":31,"articulation":"standard","articulation_tags":["standard","long"],"duration":0.9930555555555556,"velocity":75.29864397317493}
{"position":196.95833333333334,"instrument":"TheGrandeurPiano","level2":9,"level3":null,"pitch":56,"articulation":"standard","articulation_tags":["standard","long"],"duration":0.4097222222222222,"velocity":75.29864397317493}
{"position":197.20833333333334,"instrument":"TheGrandeurPiano","level2":10,"level3":null,"pitch":30,"articulation":"standard","articulation_tags":["standard","long"],"duration":1.4724409448818898,"velocity":77.44007481292203}
{"position":197.40625,"instrument":"Cello","level2":9,"level3":4,"pitch":54,"articulation":"long_flt","articulation_tags":["long_flt","flt","long","flautando"],"duration":2.8229166666666665,"velocity":80.58900560444025}
{"position":197.40625,"instrument":"CorAnglais","level2":8,"level3":6,"pitch":64,"articulation":"legato","articulation_tags":["legato","lg"],"duration":0.9479166666666666,"velocity":120.51711172063028}
{"position":197.46875,"instrument":"Violin","level2":9,"level3":5,"pitch":55,"articulation":"tremolo","articulation_tags":["tremolo","tr","multi_note"],"duration":5.9375,"velocity":80.58900560444025}
{"position":197.48958333333334,"instrument":"ContrabassTrombone","level2":8,"level3":6,"pitch":64,"articulation":"sforzando","articulation_tags":["sforzando","sfz","long"],"duration":0.8541666666666666,"velocity":120.51711172063028}
{"position":197.51041666666666,"instrument":"TenorTrombone","level2":8,"level3":7,"pitch":64,"articulation":"sforzando","articulation_tags":["sforzando","sfz","long"],"duration":0.8333333333333334,"velocity":120.51711172063028}
{"position":197.5625,"instrument":"TheGrandeurPiano","level2":8,"level3":null,"pitch":70,"articulation":"standard","articulation_tags":["standard","long"],"duration":0.7638888888888888,"velocity":75.51625440712283}
{"position":197.67708333333334,"instrument":"Cello","level2":9,"level3":2,"pitch":53,"articulation":"long_hrm","articulation_tags":["long_hrm","hrm","long","harmonics"],"duration":8.84375,"velocity":79.4863838421139}
{"position":198.09375,"instrument":"Contrabass","level2":9,"level3":7,"pitch":54,"articulation":"long_slt","articulation_tags":["long_slt","slt","long","sultasto"],"duration":2.1770833333333335,"velocity":79.4863838421139}
{"position":198.19791666666666,"instrument":"TheGrandeurPiano","level2":9,"level3":null,"pitch":57,"articulation":"standard","articulation_tags":["standard","long"],"duration":0.4027777777777778,"velocity":77.85946585777697}
{"position":198.22916666666666,"instrument":"Contrabass","level2":9,"level3":0,"pitch":53,"articulation":"long_cs","articulation_tags":["long_cs","cs","long","consordina"],"duration":4.5625,"velocity":78.401380941599}
{"position":198.23958333333334,"instrument":"Contrabass","level2":10,"level3":0,"pitch":42,"articulation":"collegno","articulation_tags":["collegno","cl","short"],"duration":1.0,"velocity":127.5}
{"position":198.33333333333334,"instrument":"TheGrandeurPiano","level2":10,"level3":null,"pitch":30,"articulation":"standard","articulation_tags":["standard","long"],"duration":1.0972222222222223,"velocity":77.85946585777697}
{"position":198.34375,"instrument":"Trumpet","level2":8,"level3":7,"pitch":64,"articulation":"sforzando","articulation_tags":["sforzando","sfz","long"],"duration":0.0,"velocity":119.03963549145008}
{"position":198.70833333333334,"instrument":"TheGrandeurPiano","level2":8,"level3":null,"pitch":71,"articulation":"standard","articulation_tags":["standard","long"],"duration":0.6944444444444444,"velocity":77.2293020654445}
{"position":198.80208333333334,"instrument":"TheGrandeurPiano","level2":9,"level3":null,"pitch":58,"articulation":"standard","articulation_tags":["standard","long"],"duration":0.4027777777777778,"velocity":77.01780125361316}
{"position":199.09375,"instrument":"ContrabassTrombone","level2":9,"level3":11,"pitch":55,"articulation":"legato","articulation_tags":["legato","lg"],"duration":0.11458333333333333,"velocity":78.43846943280309}
{"position":199.40625,"instrument":"TheGrandeurPiano","level2":9,"level3":null,"pitch":58,"articulation":"standard","articulation_tags":["standard","long"],"duration":0.3958333333333333,"velocity":77.85946585777697}
{"position":199.53125,"instrument":"TheGrandeurPiano","level2":10,"level3":null,"pitch":30,"articulation":"standard","articulation_tags":["standard","long"],"duration":1.4724409448818898,"velocity":77.85946585777697}
{"position":199.57291666666666,"instrument":"ContrabassTrombone","level2":9,"level3":5,"pitch":55,"articulation":"legato","articulation_tags":["legato","lg"],"duration":3.9375,"velocity":77.41037468186042}
{"position":199.75,"instrument":"TheGrandeurPiano","level2":8,"level3":null,"pitch":71,"articulation":"standard","articulation_tags":["standard","long"],"duration":0.6319444444444444,"velocity":78.89570990289819}
{"position":199.76041666666666,"instrument":"Trumpet","level2":8,"level3":8,"pitch":65,"articulation":"sforzando","articulation_tags":["sforzando","sfz","long"],"duration":3.59375,"velocity":116.18803272465564}
{"position":199.88541666666666,"instrument":"CorAnglais","level2":8,"level3":9,"pitch":65,"articulation":"legato","articulation_tags":["legato","lg"],"duration":0.07291666666666667,"velocity":116.18803272465564}
{"position":199.88541666666666,"instrument":"Bassoon","level2":8,"level3":10,"pitch":65,"articulation":"legato","articulation_tags":["legato","lg"],"duration":0.375,"velocity":116.18803272465564}
{"position":199.95833333333334,"instrument":"CorAnglais","level2":8,"level3":9,"pitch":65,"articulation":"legato","articulation_tags":["legato","lg"],"duration":2.3854166666666665,"velocity":116.18803272465564}
{"position":199.97916666666666,"instrument":"TheGrandeurPiano","level2":10,"level3":null,"pitch":30,"articulation":"standard","articulation_tags":["standard","long"],"duration":1.2152777777777777,"velocity":80.31840992563168}
{"position":200.0,"instrument":"TheGrandeurPiano","level2":9,"level3":null,"pitch":59,"articulation":"standard","articulation_tags":["standard","long"],"duration":0.3888888888888889,"velocity":80.31840992563168}
{"position":200.22916666666666,"instrument":"Cello","level2":9,"level3":4,"pitch":54,"articulation":"long_slt","articulation_tags":["long_slt","slt","long","sultasto"],"duration":0.041666666666666664,"velocity":76.40311162278324}
{"position":200.27083333333334,"instrument":"Bassoon","level2":8,"level3":10,"pitch":65,"articulation":"legato","articulation_tags":["legato","lg"],"duration":7.739583333333333,"velocity":116.18803272465564}
{"position":200.27083333333334,"instrument":"Cello","level2":9,"level3":4,"pitch":54,"articulation":"long_slt","articulation_tags":["long_slt","slt","long","sultasto"],"duration":0.0,"velocity":76.40311162278324}
{"position":200.58333333333334,"instrument":"TheGrandeurPiano","level2":9,"level3":null,"pitch":59,"articulation":"standard","articulation_tags":["standard","long"],"duration":0.3819444444444444,"velocity":77.44007481292203}
{"position":200.69791666666666,"instrument":"TheGrandeurPiano","level2":8,"level3":null,"pitch":71,"articulation":"standard","articulation_tags":["standard","long"],"duration":0.5833333333333334,"velocity":79.71257152692525}
{"position":201.05208333333334,"instrument":"Cello","level2":9,"level3":1,"pitch":55,"articulation":"tremolo","articulation_tags":["tremolo","tr","multi_note"],"duration":4.697916666666667,"velocity":76.59444283246664}
{"position":201.15625,"instrument":"TheGrandeurPiano","level2":9,"level3":null,"pitch":60,"articulation":"standard","articulation_tags":["standard","long"],"duration":0.3819444444444444,"velocity":78.06809871266789}
{"position":201.57291666666666,"instrument":"TheGrandeurPiano","level2":8,"level3":null,"pitch":71,"articulation":"standard","articulation_tags":["standard","long"],"duration":0.5347222222222222,"velocity":77.2293020654445}
{"position":201.63541666666666,"instrument":"Cello","level2":9,"level3":2,"pitch":53,"articulation":"long_cs","articulation_tags":["long_cs","cs","long","consordina"],"duration":4.291666666666667,"velocity":75.6510563251822}
{"position":201.66666666666666,"instrument":"Viola","level2":9,"level3":3,"pitch":55,"articulation":"long_slt","articulation_tags":["long_slt","slt","long","sultasto"],"duration":1.9166666666666667,"velocity":75.6510563251822}
{"position":201.72916666666666,"instrument":"TheGrandeurPiano","level2":9,"level3":null,"pitch":60,"articulation":"standard","articulation_tags":["standard","long"],"duration":0.375,"velocity":80.71915155928433}
{"position":201.80208333333334,"instrument":"TenorTrombone","level2":8,"level3":9,"pitch":65,"articulation":"sforzando","articulation_tags":["sforzando","sfz","long"],"duration":1.8020833333333333,"velocity":113.3365093067576}
{"position":201.80208333333334,"instrument":"TheGrandeurPiano","level2":10,"level3":null,"pitch":30,"articulation":"standard","articulation_tags":["standard","long"],"duration":1.3611111111111112,"velocity":80.71915155928433}
{"position":201.89583333333334,"instrument":"TenorTrombone","level2":8,"level3":8,"pitch":65,"articulation":"sforzando","articulation_tags":["sforzando","sfz","long"],"duration":1.7395833333333333,"velocity":113.3365093067576}
{"position":202.28125,"instrument":"TheGrandeurPiano","level2":9,"level3":null,"pitch":61,"articulation":"standard","articulation_tags":["standard","long"],"duration":0.3680555555555556,"velocity":81.11742702031181}
{"position":202.34375,"instrument":"CorAnglais","level2":8,"level3":9,"pitch":64,"articulation":"legato","articulation_tags":["legato","lg"],"duration":1.3020833333333333,"velocity":113.3365093067576}
{"position":202.375,"instrument":"TheGrandeurPiano","level2":8,"level3":null,"pitch":71,"articulation":"standard","articulation_tags":["standard","long"],"duration":0.4930555555555556,"velocity":81.11742702031181}
{"position":202.52083333333334,"instrument":"Viola","level2":9,"level3":9,"pitch":54,"articulation":"long_flt","articulation_tags":["long_flt","flt","long","flautando"],"duration":1.0625,"velocity":75.08563070805252}
{"position":202.79166666666666,"instrument":"Tuba","level2":9,"level3":0,"pitch":53,"articulation":"multitongue","articulation_tags":["multitongue","short"],"duration":1.0,"velocity":101.54281535402626}
{"position":202.83333333333334,"instrument":"TheGrandeurPiano","level2":9,"level3":null,"pitch":61,"articulation":"standard","articulation_tags":["standard","long"],"duration":0.3541666666666667,"velocity":79.71257152692525}
{"position":203.11458333333334,"instrument":"TheGrandeurPiano","level2":8,"level3":null,"pitch":71,"articulation":"standard","articulation_tags":["standard","long"],"duration":0.4513888888888889,"velocity":82.1026180247476}
{"position":203.16666666666666,"instrument":"TheGrandeurPiano","level2":9,"level3":null,"pitch":61,"articulation":"standard","articulation_tags":["standard","long"],"duration":0.6041666666666666,"velocity":82.1026180247476}
{"position":203.3125,"instrument":"Cello","level2":9,"level3":3,"pitch":55,"articulation":"long_flt","articulation_tags":["long_flt","flt","long","flautando"],"duration":0.2708333333333333,"velocity":75.51506611595252}
{"position":203.35416666666666,"instrument":"Trumpet","level2":8,"level3":8,"pitch":64,"articulation":"sforzando","articulation_tags":["sforzando","sfz","long"],"duration":0.28125,"velocity":110.38407776966201}
{"position":203.375,"instrument":"Contrabass","level2":10,"level3":0,"pitch":42,"articulation":"collegno","articulation_tags":["collegno","cl","short"],"duration":1.0,"velocity":127.5}
{"position":203.375,"instrument":"TheGrandeurPiano","level2":9,"level3":null,"pitch":62,"articulation":"standard","articulation_tags":["standard","long"],"duration":0.3472222222222222,"velocity":82.1026180247476}
{"position":203.40625,"instrument":"Viola","level2":9,"level3":5,"pitch":55,"articulation":"long_slt","articulation_tags":["long_slt","slt","long","sultasto"],"duration":1.53125,"velocity":74.71222700672591}
{"position":203.41666666666666,"instrument":"Contrabass","level2":9,"level3":0,"pitch":54,"articulation":"long_flt","articulation_tags":["long_flt","flt","long","flautando"],"duration":1.5104166666666667,"velocity":74.71222700672591}
{"position":203.51041666666666,"instrument":"ContrabassTrombone","level2":9,"level3":5,"pitch":54,"articulation":"legato","articulation_tags":["legato","lg"],"duration":1.40625,"velocity":74.71222700672591}
{"position":203.58333333333334,"instrument":"Cello","level2":9,"level3":3,"pitch":54,"articulation":"long_flt","articulation_tags":["long_flt","flt","long","flautando"],"duration":0.010416666666666666,"velocity":74.71222700672591}
{"position":203.61458333333334,"instrument":"TubularBells","level2":8,"level3":9,"pitch":64,"articulation":"hits_dumped","articulation_tags":["hits_dumped","short","hits","dumped"],"duration":0.25,"velocity":119.192038884831}
{"position":203.78125,"instrument":"TheGrandeurPiano","level2":8,"level3":null,"pitch":71,"articulation":"standard","articulation_tags":["standard","long"],"duration":0.4166666666666667,"velocity":83.83991718811113}
{"position":203.84375,"instrument":"TheGrandeurPiano","level2":10,"level3":null,"pitch":29,"articulation":"standard","articulation_tags":["standard","long"],"duration":1.4566929133858268,"velocity":83.83991718811113}
{"position":203.89583333333334,"instrument":"TheGrandeurPiano","level2":9,"level3":null,"pitch":62,"articulation":"standard","articulation_tags":["standard","long"],"duration":0.3402777777777778,"velocity":83.83991718811113}
{"position":204.40625,"instrument":"TheGrandeurPiano","level2":8,"level3":null,"pitch":71,"articulation":"standard","articulation_tags":["standard","long"],"duration":0.3819444444444444,"velocity":82.29789944878868}
{"position":204.40625,"instrument":"TheGrandeurPiano","level2":9,"level3":null,"pitch":63,"articulation":"standard","articulation_tags":["standard","long"],"duration":0.3263888888888889,"velocity":82.29789944878868}
{"position":204.78125,"instrument":"Contrabass","level2":10,"level3":1,"pitch":42,"articulation":"collegno","articulation_tags":["collegno","cl","short"],"duration":1.0,"velocity":127.5}
{"position":204.78125,"instrument":"Contrabass","level2":10,"level3":2,"pitch":43,"articulation":"collegno","articulation_tags":["collegno","cl","short"],"duration":1.0,"velocity":127.5}
{"position":204.82291666666666,"instrument":"Trumpet","level2":9,"level3":0,"pitch":54,"articulation":"multitongue","articulation_tags":["multitongue","short"],"duration":1.0,"velocity":101.2672600890181}
{"position":204.82291666666666,"instrument":"Contrabass","level2":10,"level3":1,"pitch":42,"articulation":"collegno","articulation_tags":["collegno","cl","short"],"duration":1.0,"velocity":127.5}
{"position":204.84375,"instrument":"TheGrandeurPiano","level2":9,"level3":null,"pitch":63,"articulation":"standard","articulation_tags":["standard","long"],"duration":0.4375,"velocity":82.1026180247476}
{"position":204.89583333333334,"instrument":"TheGrandeurPiano","level2":9,"level3":null,"pitch":63,"articulation":"standard","articulation_tags":["standard","long"],"duration":0.3194444444444444,"velocity":82.1026180247476}
{"position":204.91666666666666,"instrument":"ContrabassTrombone","level2":9,"level3":5,"pitch":54,"articulation":"legato","articulation_tags":["legato","lg"],"duration":0.020833333333333332,"velocity":75.20305837746858}
{"position":204.97916666666666,"instrument":"TheGrandeurPiano","level2":8,"level3":null,"pitch":71,"articulation":"standard","articulation_tags":["standard","long"],"duration":0.3472222222222222,"velocity":82.29789944878868}
{"position":205.36458333333334,"instrument":"TheGrandeurPiano","level2":9,"level3":null,"pitch":64,"articulation":"standard","articulation_tags":["standard","long"],"duration":0.3055555555555556,"velocity":82.88032263760189}
{"position":205.42708333333334,"instrument":"Contrabass","level2":10,"level3":2,"pitch":43,"articulation":"collegno","articulation_tags":["collegno","cl","short"],"duration":1.0,"velocity":127.5}
{"position":205.45833333333334,"instrument":"FrenchHorn","level2":10,"level3":2,"pitch":43,"articulation":"staccato_muted","articulation_tags":["staccato_muted","stmt","short","staccato","muted"],"duration":1.0,"velocity":127.5}
{"position":205.48958333333334,"instrument":"TheGrandeurPiano","level2":8,"level3":null,"pitch":71,"articulation":"standard","articulation_tags":["standard","long"],"duration":0.3125,"velocity":82.88032263760189}
{"position":205.5,"instrument":"TheGrandeurPiano","level2":9,"level3":null,"pitch":64,"articulation":"standard","articulation_tags":["standard","long"],"duration":0.375,"velocity":82.88032263760189}
{"position":205.59375,"instrument":"Marimba","level2":10,"level3":1,"pitch":42,"articulation":"hits","articulation_tags":["hits","short"],"duration":0.25,"velocity":127.5}
{"position":205.75,"instrument":"Vibraphone","level2":9,"level3":1,"pitch":55,"articulation":"hits","articulation_tags":["hits","short"],"duration":0.25,"velocity":101.9707125098989}
{"position":205.82291666666666,"instrument":"TheGrandeurPiano","level2":9,"level3":null,"pitch":64,"articulation":"standard","articulation_tags":["standard","long"],"duration":0.2916666666666667,"velocity":85.16098535490833}
{"position":205.92708333333334,"instrument":"Vibraphone","level2":9,"level3":2,"pitch":53,"articulation":"hits","articulation_tags":["hits","short"],"duration":0.25,"velocity":101.66988181291683}
{"position":205.96875,"instrument":"TheGrandeurPiano","level2":8,"level3":null,"pitch":71,"articulation":"standard","articulation_tags":["standard","long"],"duration":0.2847222222222222,"velocity":85.16098535490833}
{"position":206.07291666666666,"instrument":"TheGrandeurPiano","level2":9,"level3":null,"pitch":64,"articulation":"standard","articulation_tags":["standard","long"],"duration":0.3263888888888889,"velocity":85.16098535490833}
{"position":206.16666666666666,"instrument":"TheGrandeurPiano","level2":10,"level3":null,"pitch":29,"articulation":"standard","articulation_tags":["standard","long"],"duration":1.4566929133858268,"velocity":86.82330230669801}
{"position":206.26041666666666,"instrument":"TheGrandeurPiano","level2":9,"level3":null,"pitch":65,"articulation":"standard","articulation_tags":["standard","long"],"duration":0.2708333333333333,"velocity":86.82330230669801}
{"position":206.52083333333334,"instrument":"Vibraphone","level2":9,"level3":2,"pitch":54,"articulation":"hits","articulation_tags":["hits","short"],"duration":0.25,"velocity":102.09597242325579}
{"position":206.55208333333334,"instrument":"TheGrandeurPiano","level2":9,"level3":null,"pitch":65,"articulation":"standard","articulation_tags":["standard","long"],"duration":0.2777777777777778,"velocity":84.21997572032546}
{"position":206.59375,"instrument":"TheGrandeurPiano","level2":8,"level3":null,"pitch":70,"articulation":"standard","articulation_tags":["standard","long"],"duration":0.7013888888888888,"velocity":84.21997572032546}
{"position":206.75,"instrument":"Marimba","level2":10,"level3":0,"pitch":41,"articulation":"hits","articulation_tags":["hits","short"],"duration":0.25,"velocity":127.5}
{"position":206.84375,"instrument":"Marimba","level2":10,"level3":0,"pitch":41,"articulation":"hits","articulation_tags":["hits","short"],"duration":0.25,"velocity":127.5}
{"position":206.90625,"instrument":"Marimba","level2":10,"level3":1,"pitch":42,"articulation":"hits","articulation_tags":["hits","short"],"duration":0.25,"velocity":127.5}
{"position":206.96875,"instrument":"Contrabass","level2":10,"level3":1,"pitch":41,"articulation":"collegno","articulation_tags":["collegno","cl","short"],"duration":1.0,"velocity":127.5}
{"position":206.97916666666666,"instrument":"TheGrandeurPiano","level2":9,"level3":null,"pitch":65,"articulation":"standard","articulation_tags":["standard","long"],"duration":0.2361111111111111,"velocity":86.64053218960008}
{"position":207.33333333333334,"instrument":"TheGrandeurPiano","level2":9,"level3":null,"pitch":66,"articulation":"standard","articulation_tags":["standard","long"],"duration":0.2013888888888889,"velocity":85.16098535490833}
{"position":207.39583333333334,"instrument":"TheGrandeurPiano","level2":9,"level3":null,"pitch":66,"articulation":"standard","articulation_tags":["standard","long"],"duration":0.20833333333333334,"velocity":88.26882483058662}
{"position":207.41666666666666,"instrument":"TheGrandeurPiano","level2":8,"level3":null,"pitch":70,"articulation":"standard","articulation_tags":["standard","long"],"duration":0.1736111111111111,"velocity":88.26882483058662}
{"position":207.57291666666666,"instrument":"Marimba","level2":10,"level3":2,"pitch":43,"articulation":"hits","articulation_tags":["hits","short"],"duration":0.25,"velocity":127.5}
{"position":207.625,"instrument":"TheGrandeurPiano","level2":9,"level3":null,"pitch":66,"articulation":"standard","articulation_tags":["standard","long"],"duration":0.16666666666666666,"velocity":88.26882483058662}
{"position":207.64583333333334,"instrument":"TheGrandeurPiano","level2":8,"level3":null,"pitch":70,"articulation":"standard","articulation_tags":["standard","long"],"duration":0.3263888888888889,"velocity":88.26882483058662}
{"position":207.67708333333334,"instrument":"TheGrandeurPiano","level2":8,"level3":null,"pitch":70,"articulation":"standard","articulation_tags":["standard","long"],"duration":0.14583333333333334,"velocity":84.40921318709788}
{"position":207.70833333333334,"instrument":"TheGrandeurPiano","level2":9,"level3":null,"pitch":67,"articulation":"standard","articulation_tags":["standard","long"],"duration":0.18055555555555555,"velocity":84.40921318709788}
{"position":207.875,"instrument":"TheGrandeurPiano","level2":9,"level3":null,"pitch":67,"articulation":"standard","articulation_tags":["standard","long"],"duration":0.13194444444444445,"velocity":87.91016839920482}
{"position":207.89583333333334,"instrument":"TheGrandeurPiano","level2":8,"level3":null,"pitch":70,"articulation":"standard","articulation_tags":["standard","long"],"duration":0.11805555555555555,"velocity":87.91016839920482}
{"position":207.95833333333334,"instrument":"Vibraphone","level2":9,"level3":1,"pitch":54,"articulation":"hits","articulation_tags":["hits","short"],"duration":0.25,"velocity":104.84537036417336}
{"position":207.97916666666666,"instrument":"TheGrandeurPiano","level2":9,"level3":null,"pitch":67,"articulation":"standard","articulation_tags":["standard","long"],"duration":0.14583333333333334,"velocity":87.91016839920482}
{"position":208.07291666666666,"instrument":"TheGrandeurPiano","level2":8,"level3":null,"pitch":70,"articulation":"standard","articulation_tags":["standard","long"],"duration":0.09722222222222222,"velocity":87.91016839920482}
{"position":208.07291666666666,"instrument":"TheGrandeurPiano","level2":9,"level3":null,"pitch":67,"articulation":"standard","articulation_tags":["standard","long"],"duration":0.09722222222222222,"velocity":87.91016839920482}
{"position":208.13541666666666,"instrument":"TheGrandeurPiano","level2":8,"level3":null,"pitch":69,"articulation":"standard","articulation_tags":["standard","long"],"duration":0.14583333333333334,"velocity":84.40921318709788}
{"position":208.14583333333334,"instrument":"Vibraphone","level2":9,"level3":2,"pitch":54,"articulation":"hits","articulation_tags":["hits","short"],"duration":0.25,"velocity":105.42180214056535}
{"position":208.19791666666666,"instrument":"TheGrandeurPiano","level2":9,"level3":null,"pitch":68,"articulation":"standard","articulation_tags":["standard","long"],"duration":0.09722222222222222,"velocity":88.26882483058662}
{"position":208.21875,"instrument":"TheGrandeurPiano","level2":8,"level3":null,"pitch":69,"articulation":"standard","articulation_tags":["standard","long"],"duration":0.06944444444444445,"velocity":88.26882483058662}
{"position":208.21875,"instrument":"TheGrandeurPiano","level2":9,"level3":null,"pitch":68,"articulation":"standard","articulation_tags":["standard","long"],"duration":0.06944444444444445,"velocity":88.26882483058662}
{"position":208.29166666666666,"instrument":"Vibraphone","level2":9,"level3":1,"pitch":54,"articulation":"hits","articulation_tags":["hits","short"],"duration":0.25,"velocity":106.02249877849576}
{"position":208.32291666666666,"instrument":"TheGrandeurPiano","level2":8,"level3":null,"pitch":69,"articulation":"standard","articulation_tags":["standard","long"],"duration":0.041666666666666664,"velocity":88.26882483058662}
{"position":208.32291666666666,"instrument":"TheGrandeurPiano","level2":9,"level3":null,"pitch":68,"articulation":"standard","articulation_tags":["standard","long"],"duration":0.041666666666666664,"velocity":88.26882483058662}
{"position":208.34375,"instrument":"TheGrandeurPiano","level2":9,"level3":null,"pitch":68,"articulation":"standard","articulation_tags":["standard","long"],"duration":0.041666666666666664,"velocity":88.26882483058662}
{"position":208.35416666666666,"instrument":"TheGrandeurPiano","level2":8,"level3":null,"pitch":69,"articulation":"standard","articulation_tags":["standard","long"],"duration":0.034722222222222224,"velocity":88.26882483058662}
{"position":208.38541666666666,"instrument":"TheGrandeurPiano","level2":9,"level3":null,"pitch":68,"articulation":"standard","articulation_tags":["standard","long"],"duration":0.013888888888888888,"velocity":88.26882483058662}
{"position":208.38541666666666,"instrument":"TheGrandeurPiano","level2":8,"level3":null,"pitch":69,"articulation":"standard","articulation_tags":["standard","long"],"duration":0.013888888888888888,"velocity":88.26882483058662}
{"position":208.40625,"instrument":"TheGrandeurPiano","level2":9,"level3":null,"pitch":69,"articulation":"standard","articulation_tags":["standard","long"],"duration":0.0,"velocity":88.26882483058662}
{"position":208.40625,"instrument":"TheGrandeurPiano","level2":9,"level3":null,"pitch":69,"articulation":"standard","articulation_tags":["standard","long"],"duration":0.0,"velocity":88.26882483058662}
{"position":208.52083333333334,"instrument":"Vibraphone","level2":9,"level3":2,"pitch":54,"articulation":"hits","articulation_tags":["hits","short"],"duration":0.25,"velocity":108.04619119916148}
{"position":208.88541666666666,"instrument":"TheGrandeurPiano","level2":10,"level3":null,"pitch":29,"articulation":"standard","articulation_tags":["standard","long"],"duration":1.4566929133858268,"velocity":86.64053218960008}
{"position":210.55208333333334,"instrument":"Marimba","level2":10,"level3":2,"pitch":43,"articulation":"hits","articulation_tags":["hits","short"],"duration":0.25,"velocity":127.5}
{"position":210.875,"instrument":"Marimba","level2":10,"level3":2,"pitch":43,"articulation":"hits","articulation_tags":["hits","short"],"duration":0.25,"velocity":127.5}
{"position":212.20833333333334,"instrument":"TheGrandeurPiano","level2":10,"level3":null,"pitch":29,"articulation":"standard","articulation_tags":["standard","long"],"duration":1.4566929133858268,"velocity":90.0360497214304}
{"position":213.79166666666666,"instrument":"TheGrandeurPiano","level2":10,"level3":null,"pitch":30,"articulation":"standard","articulation_tags":["standard","long"],"duration":1.4724409448818898,"velocity":88.26882483058662}
{"position":215.30208333333334,"instrument":"Marimba","level2":10,"level3":2,"pitch":42,"articulation":"hits","articulation_tags":["hits","short"],"duration":0.25,"velocity":127.5}
{"position":216.09375,"instrument":"Marimba","level2":10,"level3":3,"pitch":43,"articulation":"hits","articulation_tags":["hits","short"],"duration":0.25,"velocity":127.5}
{"position":216.09375,"instrument":"Marimba","level2":10,"level3":4,"pitch":43,"articulation":"hits","articulation_tags":["hits","short"],"duration":0.25,"velocity":127.5}
{"position":216.14583333333334,"instrument":"Marimba","level2":10,"level3":3,"pitch":43,"articulation":"hits","articulation_tags":["hits","short"],"duration":0.25,"velocity":127.5}
{"position":216.19791666666666,"instrument":"Marimba","level2":10,"level3":4,"pitch":43,"articulation":"hits","articulation_tags":["hits","short"],"duration":0.25,"velocity":127.5}
{"position":216.57291666666666,"instrument":"Contrabass","level2":10,"level3":4,"pitch":44,"articulation":"collegno","articulation_tags":["collegno","cl","short"],"duration":1.0,"velocity":127.5}
{"position":216.76041666666666,"instrument":"TheGrandeurPiano","level2":10,"level3":null,"pitch":30,"articulation":"standard","articulation_tags":["standard","long"],"duration":1.4724409448818898,"velocity":82.88032263760189}
{"position":216.88541666666666,"instrument":"Contrabass","level2":10,"level3":3,"pitch":42,"articulation":"collegno","articulation_tags":["collegno","cl","short"],"duration":1.0,"velocity":127.5}
{"position":217.28125,"instrument":"Contrabass","level2":10,"level3":4,"pitch":44,"articulation":"collegno","articulation_tags":["collegno","cl","short"],"duration":1.0,"velocity":127.5}
{"position":218.19791666666666,"instrument":"Marimba","level2":10,"level3":3,"pitch":42,"articulation":"hits","articulation_tags":["hits","short"],"duration":0.25,"velocity":127.5}
{"position":218.67708333333334,"instrument":"Contrabass","level2":10,"level3":2,"pitch":42,"articulation":"pizzicato","articulation_tags":["pizzicato","pz","short"],"duration":1.0,"velocity":127.5}
{"position":218.77083333333334,"instrument":"TheGrandeurPiano","level2":10,"level3":null,"pitch":30,"articulation":"standard","articulation_tags":["standard","long"],"duration":1.4724409448818898,"velocity":82.1026180247476}
{"position":219.14583333333334,"instrument":"Contrabass","level2":10,"level3":4,"pitch":44,"articulation":"collegno","articulation_tags":["collegno","cl","short"],"duration":1.0,"velocity":127.5}
{"position":219.97916666666666,"instrument":"Marimba","level2":10,"level3":3,"pitch":41,"articulation":"hits","articulation_tags":["hits","short"],"duration":0.25,"velocity":127.5}
{"position":221.33333333333334,"instrument":"Marimba","level2":10,"level3":3,"pitch":41,"articulation":"hits","articulation_tags":["hits","short"],"duration":0.25,"velocity":127.5}
{"position":221.375,"instrument":"Contrabass","level2":10,"level3":2,"pitch":41,"articulation":"pizzicato","articulation_tags":["pizzicato","pz","short"],"duration":1.0,"velocity":127.5}
{"position":221.73958333333334,"instrument":"Marimba","level2":10,"level3":4,"pitch":44,"articulation":"hits","articulation_tags":["hits","short"],"duration":0.25,"velocity":127.5}
{"position":222.21875,"instrument":"TheGrandeurPiano","level2":10,"level3":null,"pitch":31,"articulation":"standard","articulation_tags":["standard","long"],"duration":1.4881889763779528,"velocity":83.83991718811113}
{"position":222.4375,"instrument":"Contrabass","level2":10,"level3":3,"pitch":41,"articulation":"collegno","articulation_tags":["collegno","cl","short"],"duration":1.0,"velocity":127.5}
{"position":222.82291666666666,"instrument":"Contrabass","level2":10,"level3":3,"pitch":41,"articulation":"collegno","articulation_tags":["collegno","cl","short"],"duration":1.0,"velocity":127.5}
{"position":222.88541666666666,"instrument":"Contrabass","level2":10,"level3":2,"pitch":41,"articulation":"collegno","articulation_tags":["collegno","cl","short"],"duration":1.0,"velocity":127.5}
{"position":223.07291666666666,"instrument":"TheGrandeurPiano","level2":11,"level3":null,"pitch":29,"articulation":"standard","articulation_tags":["standard","long"],"duration":0.09027777777777778,"velocity":82.29789944878868}
{"position":223.07291666666666,"instrument":"TheGrandeurPiano","level2":12,"level3":null,"pitch":28,"articulation":"standard","articulation_tags":["standard","long"],"duration":0.20833333333333334,"velocity":82.29789944878868}
{"position":223.10416666666666,"instrument":"Contrabass","level2":10,"level3":4,"pitch":43,"articulation":"pizzicato","articulation_tags":["pizzicato","pz","short"],"duration":1.0,"velocity":127.5}
{"position":223.20833333333334,"instrument":"TheGrandeurPiano","level2":11,"level3":null,"pitch":29,"articulation":"standard","articulation_tags":["standard","long"],"duration":0.3819444444444444,"velocity":82.29789944878868}
{"position":223.32291666666666,"instrument":"FrenchHorn","level2":10,"level3":2,"pitch":41,"articulation":"staccato","articulation_tags":["staccato","st","short"],"duration":1.0,"velocity":127.5}
{"position":223.36458333333334,"instrument":"BassClarinet","level2":11,"level3":0,"pitch":36,"articulation":"staccato","articulation_tags":["staccato","st","short"],"duration":0.25,"velocity":127.5}
{"position":223.36458333333334,"instrument":"Cello","level2":11,"level3":0,"pitch":36,"articulation":"collegno","articulation_tags":["collegno","cl","short"],"duration":1.0,"velocity":127.5}
{"position":223.36458333333334,"instrument":"Cello","level2":11,"level3":1,"pitch":36,"articulation":"collegno","articulation_tags":["collegno","cl","short"],"duration":1.0,"velocity":127.5}
{"position":223.36458333333334,"instrument":"Cello","level2":11,"level3":1,"pitch":36,"articulation":"collegno","articulation_tags":["collegno","cl","short"],"duration":1.0,"velocity":127.5}
{"position":223.36458333333334,"instrument":"Cello","level2":12,"level3":0,"pitch":38,"articulation":"spiccato","articulation_tags":["spiccato","sp","short"],"duration":1.0,"velocity":127.5}
{"position":223.375,"instrument":"TheGrandeurPiano","level2":12,"level3":null,"pitch":28,"articulation":"standard","articulation_tags":["standard","long"],"duration":0.3472222222222222,"velocity":82.88032263760189}
{"position":223.39583333333334,"instrument":"FrenchHorn","level2":10,"level3":3,"pitch":41,"articulation":"staccato","articulation_tags":["staccato","st","short"],"duration":1.0,"velocity":127.5}
{"position":223.63541666666666,"instrument":"Marimba","level2":11,"level3":1,"pitch":37,"articulation":"hits","articulation_tags":["hits","short"],"duration":0.25,"velocity":127.5}
{"position":223.78125,"instrument":"TheGrandeurPiano","level2":11,"level3":null,"pitch":29,"articulation":"standard","articulation_tags":["standard","long"],"duration":0.3958333333333333,"velocity":83.83991718811113}
{"position":223.84375,"instrument":"Contrabass","level2":11,"level3":0,"pitch":35,"articulation":"collegno","articulation_tags":["collegno","cl","short"],"duration":1.0,"velocity":127.5}
{"position":223.90625,"instrument":"TheGrandeurPiano","level2":12,"level3":null,"pitch":27,"articulation":"standard","articulation_tags":["standard","long"],"duration":0.4513888888888889,"velocity":85.16098535490833}
{"position":224.1875,"instrument":"TheGrandeurPiano","level2":12,"level3":null,"pitch":27,"articulation":"standard","articulation_tags":["standard","long"],"duration":1.4251968503937007,"velocity":86.82330230669801}
{"position":224.30208333333334,"instrument":"Marimba","level2":11,"level3":1,"pitch":37,"articulation":"hits","articulation_tags":["hits","short"],"duration":0.25,"velocity":127.5}
{"position":224.375,"instrument":"TheGrandeurPiano","level2":11,"level3":null,"pitch":30,"articulation":"standard","articulation_tags":["standard","long"],"duration":0.4027777777777778,"velocity":86.82330230669801}
{"position":224.57291666666666,"instrument":"TheGrandeurPiano","level2":12,"level3":null,"pitch":27,"articulation":"standard","articulation_tags":["standard","long"],"duration":0.5555555555555556,"velocity":84.21997572032546}
{"position":224.61458333333334,"instrument":"Marimba","level2":11,"level3":1,"pitch":37,"articulation":"hits","articulation_tags":["hits","short"],"duration":0.25,"velocity":127.5}
{"position":224.97916666666666,"instrument":"TheGrandeurPiano","level2":11,"level3":null,"pitch":30,"articulation":"standard","articulation_tags":["standard","long"],"duration":0.4166666666666667,"velocity":89.33427037865772}
{"position":225.0625,"instrument":"TheGrandeurPiano","level2":10,"level3":null,"pitch":31,"articulation":"standard","articulation_tags":["standard","long"],"duration":1.4881889763779528,"velocity":89.33427037865772}
{"position":225.1875,"instrument":"Contrabass","level2":11,"level3":0,"pitch":35,"articulation":"collegno","articulation_tags":["collegno","cl","short"],"duration":1.0,"velocity":127.5}
{"position":225.35416666666666,"instrument":"Marimba","level2":10,"level3":4,"pitch":43,"articulation":"hits","articulation_tags":["hits","short"],"duration":0.25,"velocity":127.5}
{"position":225.40625,"instrument":"TheGrandeurPiano","level2":12,"level3":null,"pitch":26,"articulation":"standard","articulation_tags":["standard","long"],"duration":0.6805555555555556,"velocity":88.26882483058662}
{"position":225.8125,"instrument":"Contrabass","level2":11,"level3":2,"pitch":35,"articulation":"collegno","articulation_tags":["collegno","cl","short"],"duration":1.0,"velocity":127.5}
{"position":225.8125,"instrument":"Marimba","level2":11,"level3":3,"pitch":36,"articulation":"hits","articulation_tags":["hits","short"],"duration":0.25,"velocity":127.5}
{"position":225.875,"instrument":"Contrabass","level2":11,"level3":2,"pitch":35,"articulation":"collegno","articulation_tags":["collegno","cl","short"],"duration":1.0,"velocity":127.5}
{"position":225.95833333333334,"instrument":"Marimba","level2":11,"level3":3,"pitch":36,"articulation":"hits","articulation_tags":["hits","short"],"duration":0.25,"velocity":127.5}
{"position":226.22916666666666,"instrument":"TheGrandeurPiano","level2":11,"level3":null,"pitch":31,"articulation":"standard","articulation_tags":["standard","long"],"duration":0.4305555555555556,"velocity":88.26882483058662}
{"position":226.41666666666666,"instrument":"Marimba","level2":11,"level3":1,"pitch":38,"articulation":"hits","articulation_tags":["hits","short"],"duration":0.25,"velocity":127.5}
{"position":226.42708333333334,"instrument":"TheGrandeurPiano","level2":12,"level3":null,"pitch":26,"articulation":"standard","articulation_tags":["standard","long"],"duration":0.8055555555555556,"velocity":89.33427037865772}
{"position":226.46875,"instrument":"Contrabass","level2":11,"level3":0,"pitch":35,"articulation":"collegno","articulation_tags":["collegno","cl","short"],"duration":1.0,"velocity":127.5}
{"position":226.61458333333334,"instrument":"Contrabass","level2":11,"level3":2,"pitch":35,"articulation":"collegno","articulation_tags":["collegno","cl","short"],"duration":1.0,"velocity":127.5}
{"position":226.80208333333334,"instrument":"TheGrandeurPiano","level2":12,"level3":null,"pitch":26,"articulation":"standard","articulation_tags":["standard","long"],"duration":1.4094488188976377,"velocity":91.07641991950717}
{"position":226.83333333333334,"instrument":"Marimba","level2":11,"level3":3,"pitch":37,"articulation":"hits","articulation_tags":["hits","short"],"duration":0.25,"velocity":127.5}
{"position":226.88541666666666,"instrument":"TheGrandeurPiano","level2":11,"level3":null,"pitch":32,"articulation":"standard","articulation_tags":["standard","long"],"duration":0.4444444444444444,"velocity":91.07641991950717}
{"position":227.55208333333334,"instrument":"TheGrandeurPiano","level2":10,"level3":null,"pitch":32,"articulation":"standard","articulation_tags":["standard","long"],"duration":1.4930555555555556,"velocity":91.59123568720254}
{"position":227.55208333333334,"instrument":"TheGrandeurPiano","level2":11,"level3":null,"pitch":32,"articulation":"standard","articulation_tags":["standard","long"],"duration":0.4583333333333333,"velocity":91.59123568720254}
{"position":227.63541666666666,"instrument":"TheGrandeurPiano","level2":12,"level3":null,"pitch":25,"articulation":"standard","articulation_tags":["standard","long"],"duration":0.9513888888888888,"velocity":90.0360497214304}
{"position":227.75,"instrument":"Marimba","level2":10,"level3":4,"pitch":43,"articulation":"hits","articulation_tags":["hits","short"],"duration":0.25,"velocity":127.5}
{"position":227.91666666666666,"instrument":"Contrabass","level2":11,"level3":0,"pitch":34,"articulation":"collegno","articulation_tags":["collegno","cl","short"],"duration":1.0,"velocity":127.5}
{"position":228.10416666666666,"instrument":"Contrabass","level2":11,"level3":4,"pitch":36,"articulation":"collegno","articulation_tags":["collegno","cl","short"],"duration":1.0,"velocity":127.5}
{"position":228.10416666666666,"instrument":"Contrabass","level2":11,"level3":5,"pitch":36,"articulation":"collegno","articulation_tags":["collegno","cl","short"],"duration":1.0,"velocity":127.5}
{"position":228.15625,"instrument":"Contrabass","level2":11,"level3":4,"pitch":36,"articulation":"collegno","articulation_tags":["collegno","cl","short"],"duration":1.0,"velocity":127.5}
{"position":228.22916666666666,"instrument":"TheGrandeurPiano","level2":11,"level3":null,"pitch":33,"articulation":"standard","articulation_tags":["standard","long"],"duration":0.4652777777777778,"velocity":92.94724040202017}
{"position":228.39583333333334,"instrument":"Cello","level2":11,"level3":5,"pitch":37,"articulation":"collegno","articulation_tags":["collegno","cl","short"],"duration":1.0,"velocity":127.5}
{"position":228.65625,"instrument":"Marimba","level2":11,"level3":3,"pitch":37,"articulation":"hits","articulation_tags":["hits","short"],"duration":0.25,"velocity":127.5}
{"position":228.9375,"instrument":"TheGrandeurPiano","level2":11,"level3":null,"pitch":33,"articulation":"standard","articulation_tags":["standard","long"],"duration":0.4791666666666667,"velocity":92.44155755018505}
{"position":229.0625,"instrument":"TheGrandeurPiano","level2":12,"level3":null,"pitch":25,"articulation":"standard","articulation_tags":["standard","long"],"duration":1.1180555555555556,"velocity":92.44155755018505}
{"position":229.26041666666666,"instrument":"Contrabass","level2":11,"level3":4,"pitch":35,"articulation":"collegno","articulation_tags":["collegno","cl","short"],"duration":1.0,"velocity":127.5}
{"position":229.38541666666666,"instrument":"Contrabass","level2":11,"level3":1,"pitch":38,"articulation":"collegno","articulation_tags":["collegno","cl","short"],"duration":1.0,"velocity":127.5}
{"position":229.38541666666666,"instrument":"Contrabass","level2":11,"level3":4,"pitch":35,"articulation":"collegno","articulation_tags":["collegno","cl","short"],"duration":1.0,"velocity":127.5}
{"position":229.64583333333334,"instrument":"TheGrandeurPiano","level2":11,"level3":null,"pitch":34,"articulation":"standard","articulation_tags":["standard","long"],"duration":0.4861111111111111,"velocity":93.78273981717496}
{"position":229.79166666666666,"instrument":"TheGrandeurPiano","level2":10,"level3":null,"pitch":32,"articulation":"standard","articulation_tags":["standard","long"],"duration":1.375,"velocity":94.93758385356371}
{"position":229.875,"instrument":"Contrabass","level2":11,"level3":5,"pitch":37,"articulation":"collegno","articulation_tags":["collegno","cl","short"],"duration":1.0,"velocity":127.5}
{"position":230.375,"instrument":"TheGrandeurPiano","level2":11,"level3":null,"pitch":34,"articulation":"standard","articulation_tags":["standard","long"],"duration":0.5,"velocity":93.4496216277027}
{"position":230.58333333333334,"instrument":"Contrabass","level2":11,"level3":0,"pitch":34,"articulation":"collegno","articulation_tags":["collegno","cl","short"],"duration":1.0,"velocity":127.5}
{"position":230.61458333333334,"instrument":"Contrabass","level2":11,"level3":1,"pitch":38,"articulation":"collegno","articulation_tags":["collegno","cl","short"],"duration":1.0,"velocity":127.5}
{"position":230.73958333333334,"instrument":"TheGrandeurPiano","level2":12,"level3":null,"pitch":24,"articulation":"standard","articulation_tags":["standard","long"],"duration":1.3055555555555556,"velocity":95.58997167371304}
{"position":230.95833333333334,"instrument":"Contrabass","level2":12,"level3":1,"pitch":39,"articulation":"spiccato","articulation_tags":["spiccato","sp","short"],"duration":1.0,"velocity":127.5}
{"position":230.95833333333334,"instrument":"Contrabass","level2":12,"level3":2,"pitch":39,"articulation":"spiccato","articulation_tags":["spiccato","sp","short"],"duration":1.0,"velocity":127.5}
{"position":231.125,"instrument":"TheGrandeurPiano","level2":11,"level3":null,"pitch":35,"articulation":"standard","articulation_tags":["standard","long"],"duration":0.5138888888888888,"velocity":96.39801240703959}
{"position":231.22916666666666,"instrument":"Cello","level2":10,"level3":4,"pitch":42,"articulation":"pizzicato","articulation_tags":["pizzicato","pz","short"],"duration":1.0,"velocity":127.5}
{"position":231.375,"instrument":"Marimba","level2":10,"level3":5,"pitch":43,"articulation":"hits","articulation_tags":["hits","short"],"duration":0.25,"velocity":127.5}
{"position":231.375,"instrument":"Marimba","level2":10,"level3":6,"pitch":43,"articulation":"hits","articulation_tags":["hits","short"],"duration":0.25,"velocity":127.5}
{"position":231.375,"instrument":"TheGrandeurPiano","level2":12,"level3":null,"pitch":24,"articulation":"standard","articulation_tags":["standard","long"],"duration":1.3779527559055118,"velocity":92.27225156701645}
{"position":231.5,"instrument":"Cello","level2":10,"level3":6,"pitch":43,"articulation":"collegno","articulation_tags":["collegno","cl","short"],"duration":1.0,"velocity":127.5}
{"position":231.53125,"instrument":"Cello","level2":10,"level3":5,"pitch":42,"articulation":"collegno","articulation_tags":["collegno","cl","short"],"duration":1.0,"velocity":127.5}
{"position":231.64583333333334,"instrument":"Contrabass","level2":10,"level3":6,"pitch":43,"articulation":"collegno","articulation_tags":["collegno","cl","short"],"duration":1.0,"velocity":127.5}
{"position":231.85416666666666,"instrument":"TheGrandeurPiano","level2":10,"level3":null,"pitch":33,"articulation":"standard","articulation_tags":["standard","long"],"duration":1.2708333333333333,"velocity":95.1011852391253}
{"position":231.86458333333334,"instrument":"Contrabass","level2":11,"level3":2,"pitch":34,"articulation":"collegno","articulation_tags":["collegno","cl","short"],"duration":1.0,"velocity":127.5}
{"position":231.88541666666666,"instrument":"Cello","level2":11,"level3":5,"pitch":37,"articulation":"collegno","articulation_tags":["collegno","cl","short"],"duration":1.0,"velocity":127.5}
{"position":231.89583333333334,"instrument":"TheGrandeurPiano","level2":11,"level3":null,"pitch":35,"articulation":"standard","articulation_tags":["standard","long"],"duration":0.5208333333333334,"velocity":95.1011852391253}
{"position":232.04166666666666,"instrument":"Contrabass","level2":11,"level3":3,"pitch":38,"articulation":"collegno","articulation_tags":["collegno","cl","short"],"duration":1.0,"velocity":127.10888380022581}
{"position":232.48958333333334,"instrument":"Contrabass","level2":10,"level3":5,"pitch":42,"articulation":"collegno","articulation_tags":["collegno","cl","short"],"duration":1.0,"velocity":127.5}
{"position":232.63541666666666,"instrument":"Contrabass","level2":11,"level3":3,"pitch":38,"articulation":"collegno","articulation_tags":["collegno","cl","short"],"duration":1.0,"velocity":127.14303916571737}
{"position":232.6875,"instrument":"TheGrandeurPiano","level2":11,"level3":null,"pitch":36,"articulation":"standard","articulation_tags":["standard","long"],"duration":0.5347222222222222,"velocity":96.39801240703959}
{"position":232.80208333333334,"instrument":"Cello","level2":11,"level3":6,"pitch":36,"articulation":"pizzicato","articulation_tags":["pizzicato","pz","short"],"duration":1.0,"velocity":126.4309039487635}
{"position":232.80208333333334,"instrument":"Cello","level2":11,"level3":7,"pitch":36,"articulation":"pizzicato","articulation_tags":["pizzicato","pz","short"],"duration":1.0,"velocity":126.4309039487635}
{"position":232.86458333333334,"instrument":"Contrabass","level2":11,"level3":2,"pitch":34,"articulation":"collegno","articulation_tags":["collegno","cl","short"],"duration":1.0,"velocity":126.4309039487635}
{"position":232.875,"instrument":"Cello","level2":10,"level3":4,"pitch":42,"articulation":"pizzicato_bartok","articulation_tags":["pizzicato_bartok","pzb","short","pizzicato","bartok"],"duration":1.0,"velocity":127.5}
{"position":232.90625,"instrument":"Cello","level2":10,"level3":6,"pitch":43,"articulation":"collegno","articulation_tags":["collegno","cl","short"],"duration":1.0,"velocity":127.5}
{"position":233.21875,"instrument":"Contrabass","level2":12,"level3":1,"pitch":38,"articulation":"spiccato","articulation_tags":["spiccato","sp","short"],"duration":1.0,"velocity":127.5}
{"position":233.27083333333334,"instrument":"Marimba","level2":11,"level3":6,"pitch":36,"articulation":"hits","articulation_tags":["hits","short"],"duration":0.25,"velocity":126.4309039487635}
{"position":233.30208333333334,"instrument":"Marimba","level2":11,"level3":7,"pitch":37,"articulation":"hits","articulation_tags":["hits","short"],"duration":0.25,"velocity":126.4309039487635}
{"position":233.48958333333334,"instrument":"TheGrandeurPiano","level2":11,"level3":null,"pitch":36,"articulation":"standard","articulation_tags":["standard","long"],"duration":0.5486111111111112,"velocity":98.1477289799213}
{"position":233.76041666666666,"instrument":"TheGrandeurPiano","level2":10,"level3":null,"pitch":33,"articulation":"standard","articulation_tags":["standard","long"],"duration":1.1944444444444444,"velocity":96.39801240703959}
{"position":233.86458333333334,"instrument":"TheGrandeurPiano","level2":10,"level3":null,"pitch":33,"articulation":"standard","articulation_tags":["standard","long"],"duration":1.5196850393700787,"velocity":96.39801240703959}
{"position":233.95833333333334,"instrument":"Contrabass","level2":11,"level3":4,"pitch":35,"articulation":"pizzicato","articulation_tags":["pizzicato","pz","short"],"duration":1.0,"velocity":125.7187991701282}
{"position":234.05208333333334,"instrument":"Contrabass","level2":10,"level3":5,"pitch":41,"articulation":"collegno","articulation_tags":["collegno","cl","short"],"duration":1.0,"velocity":127.5}
{"position":234.09375,"instrument":"Contrabass","level2":10,"level3":4,"pitch":42,"articulation":"pizzicato","articulation_tags":["pizzicato","pz","short"],"duration":1.0,"velocity":127.5}
{"position":234.3125,"instrument":"TheGrandeurPiano","level2":11,"level3":null,"pitch":37,"articulation":"standard","articulation_tags":["standard","long"],"duration":0.5625,"velocity":93.78273981717496}
{"position":234.80208333333334,"instrument":"TheGrandeurPiano","level2":11,"level3":null,"pitch":37,"articulation":"standard","articulation_tags":["standard","long"],"duration":1.4722222222222223,"velocity":97.51581398829656}
{"position":234.94791666666666,"instrument":"Cello","level2":11,"level3":1,"pitch":39,"articulation":"collegno","articulation_tags":["collegno","cl","short"],"duration":1.0,"velocity":125.05248027332578}
{"position":234.98958333333334,"instrument":"TheGrandeurPiano","level2":12,"level3":null,"pitch":35,"articulation":"standard","articulation_tags":["standard","long"],"duration":1.5511811023622046,"velocity":97.35706833815088}
{"position":235.01041666666666,"instrument":"Contrabass","level2":11,"level3":0,"pitch":34,"articulation":"pizzicato","articulation_tags":["pizzicato","pz","short"],"duration":1.0,"velocity":125.05248027332578}
{"position":235.1875,"instrument":"Cello","level2":11,"level3":8,"pitch":36,"articulation":"pizzicato","articulation_tags":["pizzicato","pz","short"],"duration":1.0,"velocity":124.34110062849672}
{"position":235.4375,"instrument":"Contrabass","level2":10,"level3":6,"pitch":43,"articulation":"collegno","articulation_tags":["collegno","cl","short"],"duration":1.0,"velocity":127.5}
{"position":235.55208333333334,"instrument":"TheGrandeurPiano","level2":10,"level3":null,"pitch":34,"articulation":"standard","articulation_tags":["standard","long"],"duration":1.125,"velocity":97.99020682351394}
{"position":235.55208333333334,"instrument":"Contrabass","level2":10,"level3":5,"pitch":41,"articulation":"collegno","articulation_tags":["collegno","cl","short"],"duration":1.0,"velocity":127.5}
{"position":235.76041666666666,"instrument":"Cello","level2":11,"level3":6,"pitch":36,"articulation":"pizzicato","articulation_tags":["pizzicato","pz","short"],"duration":1.0,"velocity":124.34110062849672}
{"position":235.92708333333334,"instrument":"Cello","level2":11,"level3":1,"pitch":39,"articulation":"collegno","articulation_tags":["collegno","cl","short"],"duration":1.0,"velocity":124.34110062849672}
{"position":235.97916666666666,"instrument":"Cello","level2":11,"level3":9,"pitch":36,"articulation":"collegno","articulation_tags":["collegno","cl","short"],"duration":1.0,"velocity":124.34110062849672}
{"position":235.97916666666666,"instrument":"Contrabass","level2":11,"level3":10,"pitch":36,"articulation":"collegno","articulation_tags":["collegno","cl","short"],"duration":1.0,"velocity":124.34110062849672}
{"position":236.15625,"instrument":"Contrabass","level2":11,"level3":10,"pitch":36,"articulation":"collegno","articulation_tags":["collegno","cl","short"],"duration":1.0,"velocity":123.62977484704888}
{"position":236.21875,"instrument":"Cello","level2":10,"level3":5,"pitch":41,"articulation":"collegno","articulation_tags":["collegno","cl","short"],"duration":1.0,"velocity":127.5}
{"position":236.41666666666666,"instrument":"Marimba","level2":10,"level3":4,"pitch":41,"articulation":"hits","articulation_tags":["hits","short"],"duration":0.25,"velocity":127.5}
{"position":236.58333333333334,"instrument":"Contrabass","level2":11,"level3":4,"pitch":35,"articulation":"pizzicato","articulation_tags":["pizzicato","pz","short"],"duration":1.0,"velocity":123.62977484704888}
{"position":236.92708333333334,"instrument":"TheGrandeurPiano","level2":11,"level3":null,"pitch":38,"articulation":"standard","articulation_tags":["standard","long"],"duration":0.6111111111111112,"velocity":95.58997167371304}
{"position":237.01041666666666,"instrument":"TheGrandeurPiano","level2":11,"level3":null,"pitch":38,"articulation":"standard","articulation_tags":["standard","long"],"duration":1.2569444444444444,"velocity":95.58997167371304}
{"position":237.04166666666666,"instrument":"Contrabass","level2":11,"level3":9,"pitch":35,"articulation":"collegno","articulation_tags":["collegno","cl","short"],"duration":1.0,"velocity":122.97685522020346}
{"position":237.23958333333334,"instrument":"TheGrandeurPiano","level2":10,"level3":null,"pitch":34,"articulation":"standard","articulation_tags":["standard","long"],"duration":1.0625,"velocity":93.61635943453109}
{"position":237.27083333333334,"instrument":"Contrabass","level2":11,"level3":2,"pitch":34,"articulation":"pizzicato","articulation_tags":["pizzicato","pz","short"],"duration":1.0,"velocity":122.97685522020346}
{"position":237.27083333333334,"instrument":"Cello","level2":11,"level3":5,"pitch":38,"articulation":"pizzicato","articulation_tags":["pizzicato","pz","short"],"duration":1.0,"velocity":122.97685522020346}
{"position":237.39583333333334,"instrument":"Contrabass","level2":10,"level3":5,"pitch":41,"articulation":"collegno","articulation_tags":["collegno","cl","short"],"duration":1.0,"velocity":127.5}
{"position":237.67708333333334,"instrument":"TheGrandeurPiano","level2":12,"level3":null,"pitch":35,"articulation":"standard","articulation_tags":["standard","long"],"duration":1.5511811023622046,"velocity":92.27225156701645}
{"position":237.875,"instrument":"Cello","level2":11,"level3":3,"pitch":38,"articulation":"collegno","articulation_tags":["collegno","cl","short"],"duration":1.0,"velocity":122.26652249436705}
{"position":237.875,"instrument":"Contrabass","level2":10,"level3":4,"pitch":41,"articulation":"pizzicato","articulation_tags":["pizzicato","pz","short"],"duration":1.0,"velocity":127.5}
{"position":238.23958333333334,"instrument":"Contrabass","level2":10,"level3":4,"pitch":41,"articulation":"pizzicato","articulation_tags":["pizzicato","pz","short"],"duration":1.0,"velocity":127.5}
{"position":238.30208333333334,"instrument":"Contrabass","level2":10,"level3":6,"pitch":43,"articulation":"collegno","articulation_tags":["collegno","cl","short"],"duration":1.0,"velocity":127.5}
{"position":238.39583333333334,"instrument":"Marimba","level2":10,"level3":5,"pitch":41,"articulation":"hits","articulation_tags":["hits","short"],"duration":0.25,"velocity":127.5}
{"position":238.64583333333334,"instrument":"Contrabass","level2":10,"level3":4,"pitch":41,"articulation":"collegno","articulation_tags":["collegno","cl","short"],"duration":1.0,"velocity":127.5}
{"position":238.69791666666666,"instrument":"Marimba","level2":11,"level3":7,"pitch":37,"articulation":"hits","articulation_tags":["hits","short"],"duration":0.25,"velocity":122.26652249436705}
{"position":238.79166666666666,"instrument":"TheGrandeurPiano","level2":11,"level3":null,"pitch":39,"articulation":"standard","articulation_tags":["standard","long"],"duration":0.6527777777777778,"velocity":92.27225156701645}
{"position":238.83333333333334,"instrument":"TheGrandeurPiano","level2":10,"level3":null,"pitch":35,"articulation":"standard","articulation_tags":["standard","long"],"duration":1.0138888888888888,"velocity":92.27225156701645}
{"position":238.85416666666666,"instrument":"Marimba","level2":12,"level3":2,"pitch":39,"articulation":"hits","articulation_tags":["hits","short"],"duration":0.25,"velocity":127.5}
{"position":238.89583333333334,"instrument":"TheGrandeurPiano","level2":11,"level3":null,"pitch":39,"articulation":"standard","articulation_tags":["standard","long"],"duration":1.1041666666666667,"velocity":96.39801240703959}
{"position":238.9375,"instrument":"Cello","level2":11,"level3":10,"pitch":36,"articulation":"collegno","articulation_tags":["collegno","cl","short"],"duration":1.0,"velocity":121.627243817607}
{"position":239.17708333333334,"instrument":"TheGrandeurPiano","level2":12,"level3":null,"pitch":35,"articulation":"standard","articulation_tags":["standard","long"],"duration":1.5511811023622046,"velocity":93.61635943453109}
{"position":239.65625,"instrument":"Contrabass","level2":10,"level3":6,"pitch":43,"articulation":"pizzicato","articulation_tags":["pizzicato","pz","short"],"duration":1.0,"velocity":127.5}
{"position":239.69791666666666,"instrument":"Contrabass","level2":11,"level3":0,"pitch":34,"articulation":"pizzicato","articulation_tags":["pizzicato","pz","short"],"duration":1.0,"velocity":121.627243817607}
{"position":239.77083333333334,"instrument":"TheGrandeurPiano","level2":11,"level3":null,"pitch":40,"articulation":"standard","articulation_tags":["standard","long"],"duration":0.6736111111111112,"velocity":93.4496216277027}
{"position":240.34375,"instrument":"TheGrandeurPiano","level2":10,"level3":null,"pitch":35,"articulation":"standard","articulation_tags":["standard","long"],"duration":0.9583333333333334,"velocity":93.78273981717496}
{"position":240.55208333333334,"instrument":"TheGrandeurPiano","level2":11,"level3":null,"pitch":40,"articulation":"standard","articulation_tags":["standard","long"],"duration":0.9930555555555556,"velocity":93.78273981717496}
{"position":240.77083333333334,"instrument":"TheGrandeurPiano","level2":10,"level3":null,"pitch":35,"articulation":"standard","articulation_tags":["standard","long"],"duration":1.4930555555555556,"velocity":92.94724040202017}
{"position":240.78125,"instrument":"TheGrandeurPiano","level2":11,"level3":null,"pitch":40,"articulation":"standard","articulation_tags":["standard","long"],"duration":0.6944444444444444,"velocity":92.94724040202017}
{"position":240.875,"instrument":"TheGrandeurPiano","level2":12,"level3":null,"pitch":34,"articulation":"standard","articulation_tags":["standard","long"],"duration":1.5354330708661417,"velocity":92.44155755018505}
{"position":240.92708333333334,"instrument":"Marimba","level2":11,"level3":1,"pitch":39,"articulation":"hits","articulation_tags":["hits","short"],"duration":0.25,"velocity":120.29357458680052}
{"position":240.94791666666666,"instrument":"Marimba","level2":12,"level3":0,"pitch":38,"articulation":"hits","articulation_tags":["hits","short"],"duration":0.25,"velocity":127.5}
{"position":241.17708333333334,"instrument":"Contrabass","level2":11,"level3":9,"pitch":35,"articulation":"pizzicato","articulation_tags":["pizzicato","pz","short"],"duration":1.0,"velocity":120.29357458680052}
{"position":241.42708333333334,"instrument":"Marimba","level2":11,"level3":4,"pitch":36,"articulation":"hits","articulation_tags":["hits","short"],"duration":0.25,"velocity":120.29357458680052}
{"position":241.58333333333334,"instrument":"Marimba","level2":11,"level3":11,"pitch":36,"articulation":"hits","articulation_tags":["hits","short"],"duration":0.25,"velocity":120.29357458680052}
{"position":241.63541666666666,"instrument":"Cello","level2":11,"level3":7,"pitch":36,"articulation":"pizzicato","articulation_tags":["pizzicato","pz","short"],"duration":1.0,"velocity":120.29357458680052}
{"position":241.79166666666666,"instrument":"TheGrandeurPiano","level2":10,"level3":null,"pitch":36,"articulation":"standard","articulation_tags":["standard","long"],"duration":0.9166666666666666,"velocity":92.94724040202017}
{"position":241.91666666666666,"instrument":"Contrabass","level2":11,"level3":2,"pitch":34,"articulation":"pizzicato","articulation_tags":["pizzicato","pz","short"],"duration":1.0,"velocity":119.55853705489041}
{"position":242.1875,"instrument":"Marimba","level2":11,"level3":5,"pitch":38,"articulation":"hits","articulation_tags":["hits","short"],"duration":0.25,"velocity":119.661865840502}
{"position":242.47916666666666,"instrument":"Marimba","level2":11,"level3":4,"pitch":36,"articulation":"hits","articulation_tags":["hits","short"],"duration":0.25,"velocity":119.661865840502}
{"position":242.6875,"instrument":"Contrabass","level2":10,"level3":6,"pitch":42,"articulation":"pizzicato","articulation_tags":["pizzicato","pz","short"],"duration":1.0,"velocity":127.5}
{"position":242.75,"instrument":"Marimba","level2":11,"level3":3,"pitch":38,"articulation":"hits","articulation_tags":["hits","short"],"duration":0.25,"velocity":119.661865840502}
{"position":242.90625,"instrument":"TheGrandeurPiano","level2":11,"level3":null,"pitch":41,"articulation":"standard","articulation_tags":["standard","long"],"duration":0.7569444444444444,"velocity":91.07641991950717}
{"position":243.01041666666666,"instrument":"TheGrandeurPiano","level2":10,"level3":null,"pitch":36,"articulation":"standard","articulation_tags":["standard","long"],"duration":1.2430555555555556,"velocity":91.07641991950717}
{"position":243.10416666666666,"instrument":"Marimba","level2":12,"level3":3,"pitch":39,"articulation":"hits","articulation_tags":["hits","short"],"duration":0.25,"velocity":127.5}
{"position":243.10416666666666,"instrument":"Marimba","level2":12,"level3":3,"pitch":39,"articulation":"hits","articulation_tags":["hits","short"],"duration":0.25,"velocity":127.5}
{"position":243.10416666666666,"instrument":"Marimba","level2":12,"level3":4,"pitch":40,"articulation":"hits","articulation_tags":["hits","short"],"duration":0.25,"velocity":127.5}
{"position":243.13541666666666,"instrument":"Contrabass","level2":12,"level3":4,"pitch":40,"articulation":"short_hrm","articulation_tags":["short_hrm","hrm_s","short","harmonics"],"duration":1.0,"velocity":127.5}
{"position":243.16666666666666,"instrument":"TheGrandeurPiano","level2":10,"level3":null,"pitch":36,"articulation":"standard","articulation_tags":["standard","long"],"duration":0.875,"velocity":93.61635943453109}
{"position":243.39583333333334,"instrument":"TheGrandeurPiano","level2":11,"level3":null,"pitch":41,"articulation":"standard","articulation_tags":["standard","long"],"duration":0.8263888888888888,"velocity":89.33427037865772}
{"position":244.04166666666666,"instrument":"TheGrandeurPiano","level2":11,"level3":null,"pitch":42,"articulation":"standard","articulation_tags":["standard","long"],"duration":0.7916666666666666,"velocity":87.91016839920482}
{"position":244.47916666666666,"instrument":"TheGrandeurPiano","level2":10,"level3":null,"pitch":37,"articulation":"standard","articulation_tags":["standard","long"],"duration":0.8333333333333334,"velocity":88.26882483058662}
{"position":244.53125,"instrument":"Contrabass","level2":11,"level3":0,"pitch":35,"articulation":"pizzicato","articulation_tags":["pizzicato","pz","short"],"duration":1.0,"velocity":118.27560137691977}
{"position":244.63541666666666,"instrument":"TheGrandeurPiano","level2":11,"level3":null,"pitch":42,"articulation":"standard","articulation_tags":["standard","long"],"duration":0.7638888888888888,"velocity":92.27225156701645}
{"position":244.67708333333334,"instrument":"Contrabass","level2":11,"level3":0,"pitch":35,"articulation":"pizzicato","articulation_tags":["pizzicato","pz","short"],"duration":1.0,"velocity":118.40673822020324}
{"position":244.71875,"instrument":"TheGrandeurPiano","level2":12,"level3":null,"pitch":34,"articulation":"standard","articulation_tags":["standard","long"],"duration":1.5354330708661417,"velocity":89.33427037865772}
{"position":244.89583333333334,"instrument":"Marimba","level2":11,"level3":5,"pitch":37,"articulation":"hits","articulation_tags":["hits","short"],"duration":0.25,"velocity":118.40673822020324}
{"position":245.70833333333334,"instrument":"Marimba","level2":11,"level3":1,"pitch":39,"articulation":"hits","articulation_tags":["hits","short"],"duration":0.25,"velocity":117.65864969600037}
{"position":245.72916666666666,"instrument":"TheGrandeurPiano","level2":10,"level3":null,"pitch":37,"articulation":"standard","articulation_tags":["standard","long"],"duration":0.7986111111111112,"velocity":91.59123568720254}
{"position":245.78125,"instrument":"TheGrandeurPiano","level2":11,"level3":null,"pitch":42,"articulation":"standard","articulation_tags":["standard","long"],"duration":0.7083333333333334,"velocity":91.59123568720254}
{"position":245.89583333333334,"instrument":"Contrabass","level2":11,"level3":9,"pitch":35,"articulation":"pizzicato","articulation_tags":["pizzicato","pz","short"],"duration":1.0,"velocity":117.80419076818299}
{"position":246.01041666666666,"instrument":"Marimba","level2":10,"level3":6,"pitch":42,"articulation":"hits","articulation_tags":["hits","short"],"duration":0.25,"velocity":127.5}
{"position":246.15625,"instrument":"Marimba","level2":11,"level3":3,"pitch":37,"articulation":"hits","articulation_tags":["hits","short"],"duration":0.25,"velocity":117.80419076818299}
{"position":246.46875,"instrument":"TheGrandeurPiano","level2":10,"level3":null,"pitch":37,"articulation":"standard","articulation_tags":["standard","long"],"duration":0.9236111111111112,"velocity":92.94724040202017}
{"position":246.5,"instrument":"TheGrandeurPiano","level2":11,"level3":null,"pitch":43,"articulation":"standard","articulation_tags":["standard","long"],"duration":0.9027777777777778,"velocity":92.94724040202017}
{"position":246.72916666666666,"instrument":"Marimba","level2":11,"level3":5,"pitch":37,"articulation":"hits","articulation_tags":["hits","short"],"duration":0.25,"velocity":117.05894319860192}
{"position":246.75,"instrument":"Marimba","level2":11,"level3":1,"pitch":38,"articulation":"hits","articulation_tags":["hits","short"],"duration":0.25,"velocity":117.05894319860192}
{"position":246.78125,"instrument":"Contrabass","level2":11,"level3":2,"pitch":34,"articulation":"pizzicato","articulation_tags":["pizzicato","pz","short"],"duration":1.0,"velocity":117.05894319860192}
{"position":246.84375,"instrument":"TheGrandeurPiano","level2":11,"level3":null,"pitch":43,"articulation":"standard","articulation_tags":["standard","long"],"duration":0.6597222222222222,"velocity":92.27225156701645}
{"position":246.92708333333334,"instrument":"TheGrandeurPiano","level2":10,"level3":null,"pitch":38,"articulation":"standard","articulation_tags":["standard","long"],"duration":0.7638888888888888,"velocity":92.27225156701645}
{"position":247.01041666666666,"instrument":"Marimba","level2":12,"level3":3,"pitch":39,"articulation":"hits","articulation_tags":["hits","short"],"duration":0.25,"velocity":127.5}
{"position":247.19791666666666,"instrument":"Marimba","level2":10,"level3":6,"pitch":42,"articulation":"hits","articulation_tags":["hits","short"],"duration":0.25,"velocity":127.5}
{"position":247.28125,"instrument":"Cello","level2":11,"level3":3,"pitch":37,"articulation":"pizzicato","articulation_tags":["pizzicato","pz","short"],"duration":1.0,"velocity":117.21921596472006}
{"position":247.51041666666666,"instrument":"Cello","level2":11,"level3":9,"pitch":36,"articulation":"pizzicato","articulation_tags":["pizzicato","pz","short"],"duration":1.0,"velocity":117.21921596472006}
{"position":247.54166666666666,"instrument":"Contrabass","level2":11,"level3":0,"pitch":35,"articulation":"pizzicato","articulation_tags":["pizzicato","pz","short"],"duration":1.0,"velocity":117.21921596472006}
{"position":247.65625,"instrument":"Contrabass","level2":11,"level3":2,"pitch":34,"articulation":"pizzicato","articulation_tags":["pizzicato","pz","short"],"duration":1.0,"velocity":117.21921596472006}
{"position":247.82291666666666,"instrument":"TheGrandeurPiano","level2":11,"level3":null,"pitch":43,"articulation":"standard","articulation_tags":["standard","long"],"duration":0.6111111111111112,"velocity":94.93758385356371}
{"position":247.84375,"instrument":"TheGrandeurPiano","level2":11,"level3":null,"pitch":43,"articulation":"standard","articulation_tags":["standard","long"],"duration":0.9861111111111112,"velocity":94.93758385356371}
{"position":247.85416666666666,"instrument":"TheGrandeurPiano","level2":10,"level3":null,"pitch":38,"articulation":"standard","articulation_tags":["standard","long"],"duration":0.8125,"velocity":94.93758385356371}
{"position":248.07291666666666,"instrument":"TheGrandeurPiano","level2":10,"level3":null,"pitch":38,"articulation":"standard","articulation_tags":["standard","long"],"duration":0.7222222222222222,"velocity":91.59123568720254}
{"position":248.09375,"instrument":"Marimba","level2":11,"level3":5,"pitch":37,"articulation":"hits","articulation_tags":["hits","short"],"duration":0.25,"velocity":116.65250445211504}
{"position":248.19791666666666,"instrument":"Marimba","level2":10,"level3":7,"pitch":42,"articulation":"hits","articulation_tags":["hits","short"],"duration":0.25,"velocity":127.5}
{"position":248.19791666666666,"instrument":"Contrabass","level2":10,"level3":7,"pitch":42,"articulation":"collegno","articulation_tags":["collegno","cl","short"],"duration":1.0,"velocity":127.5}
{"position":248.19791666666666,"instrument":"Contrabass","level2":10,"level3":8,"pitch":42,"articulation":"collegno","articulation_tags":["collegno","cl","short"],"duration":1.0,"velocity":127.5}
{"position":248.30208333333334,"instrument":"Cello","level2":10,"level3":7,"pitch":42,"articulation":"collegno","articulation_tags":["collegno","cl","short"],"duration":1.0,"velocity":127.5}
{"position":248.51041666666666,"instrument":"Cello","level2":12,"level3":4,"pitch":40,"articulation":"spiccato","articulation_tags":["spiccato","sp","short"],"duration":1.0,"velocity":127.5}
{"position":248.61458333333334,"instrument":"Cello","level2":10,"level3":6,"pitch":42,"articulation":"collegno","articulation_tags":["collegno","cl","short"],"duration":1.0,"velocity":127.5}
{"position":248.6875,"instrument":"Cello","level2":10,"level3":8,"pitch":42,"articulation":"collegno","articulation_tags":["collegno","cl","short"],"duration":1.0,"velocity":127.5}
{"position":248.69791666666666,"instrument":"Marimba","level2":11,"level3":3,"pitch":37,"articulation":"hits","articulation_tags":["hits","short"],"duration":0.25,"velocity":116.65250445211504}
{"position":248.73958333333334,"instrument":"TheGrandeurPiano","level2":11,"level3":null,"pitch":43,"articulation":"standard","articulation_tags":["standard","long"],"duration":0.5694444444444444,"velocity":91.07641991950717}
{"position":249.07291666666666,"instrument":"TheGrandeurPiano","level2":10,"level3":null,"pitch":38,"articulation":"standard","articulation_tags":["standard","long"],"duration":0.7152777777777778,"velocity":96.39801240703959}
{"position":249.125,"instrument":"Marimba","level2":11,"level3":0,"pitch":36,"articulation":"hits","articulation_tags":["hits","short"],"duration":0.25,"velocity":116.84005291011127}
{"position":249.15625,"instrument":"TheGrandeurPiano","level2":10,"level3":null,"pitch":39,"articulation":"standard","articulation_tags":["standard","long"],"duration":0.6875,"velocity":96.39801240703959}
{"position":249.19791666666666,"instrument":"Marimba","level2":11,"level3":9,"pitch":36,"articulation":"hits","articulation_tags":["hits","short"],"duration":0.25,"velocity":116.84005291011127}
{"position":249.32291666666666,"instrument":"TheGrandeurPiano","level2":11,"level3":null,"pitch":44,"articulation":"standard","articulation_tags":["standard","long"],"duration":1.125,"velocity":95.4273770775948}
{"position":249.4375,"instrument":"Cello","level2":11,"level3":5,"pitch":36,"articulation":"pizzicato","articulation_tags":["pizzicato","pz","short"],"duration":1.0,"velocity":116.10476024279669}
{"position":249.54166666666666,"instrument":"Cello","level2":11,"level3":3,"pitch":36,"articulation":"pizzicato","articulation_tags":["pizzicato","pz","short"],"duration":1.0,"velocity":116.10476024279669}
{"position":249.72916666666666,"instrument":"Cello","level2":11,"level3":0,"pitch":36,"articulation":"pizzicato","articulation_tags":["pizzicato","pz","short"],"duration":1.0,"velocity":116.30769230769229}
{"position":250.14583333333334,"instrument":"TheGrandeurPiano","level2":10,"level3":null,"pitch":39,"articulation":"standard","articulation_tags":["standard","long"],"duration":0.6388888888888888,"velocity":95.4273770775948}
{"position":250.19791666666666,"instrument":"TheGrandeurPiano","level2":10,"level3":null,"pitch":39,"articulation":"standard","articulation_tags":["standard","long"],"duration":0.6527777777777778,"velocity":95.4273770775948}
{"position":250.25,"instrument":"Cello","level2":11,"level3":1,"pitch":38,"articulation":"pizzicato","articulation_tags":["pizzicato","pz","short"],"duration":1.0,"velocity":116.30769230769229}
{"position":250.38541666666666,"instrument":"TheGrandeurPiano","level2":11,"level3":null,"pitch":44,"articulation":"standard","articulation_tags":["standard","long"],"duration":0.4930555555555556,"velocity":96.39801240703959}
{"position":251.0,"instrument":"TheGrandeurPiano","level2":11,"level3":null,"pitch":44,"articulation":"standard","articulation_tags":["standard","long"],"duration":1.4583333333333333,"velocity":95.58997167371304}
{"position":251.10416666666666,"instrument":"TheGrandeurPiano","level2":10,"level3":null,"pitch":39,"articulation":"standard","articulation_tags":["standard","long"],"duration":0.5694444444444444,"velocity":100.16869416420057}
{"position":251.125,"instrument":"TheGrandeurPiano","level2":11,"level3":null,"pitch":44,"articulation":"standard","articulation_tags":["standard","long"],"duration":0.4583333333333333,"velocity":100.16869416420057}
{"position":251.17708333333334,"instrument":"TheGrandeurPiano","level2":10,"level3":null,"pitch":40,"articulation":"standard","articulation_tags":["standard","long"],"duration":0.6180555555555556,"velocity":100.16869416420057}
{"position":251.80208333333334,"instrument":"TheGrandeurPiano","level2":11,"level3":null,"pitch":44,"articulation":"standard","articulation_tags":["standard","long"],"duration":0.4236111111111111,"velocity":99.86094653719759}
{"position":251.90625,"instrument":"Contrabass","level2":11,"level3":2,"pitch":35,"articulation":"pizzicato","articulation_tags":["pizzicato","pz","short"],"duration":1.0,"velocity":116.26848773522468}
{"position":251.95833333333334,"instrument":"Cello","level2":11,"level3":1,"pitch":38,"articulation":"pizzicato","articulation_tags":["pizzicato","pz","short"],"duration":1.0,"velocity":116.26848773522468}
{"position":251.95833333333334,"instrument":"TheGrandeurPiano","level2":10,"level3":null,"pitch":40,"articulation":"standard","articulation_tags":["standard","long"],"duration":0.5069444444444444,"velocity":99.86094653719759}
{"position":251.96875,"instrument":"Contrabass","level2":11,"level3":2,"pitch":35,"articulation":"pizzicato_bartok","articulation_tags":["pizzicato_bartok","pzb","short","pizzicato","bartok"],"duration":1.0,"velocity":116.26848773522468}
{"position":252.10416666666666,"instrument":"TheGrandeurPiano","level2":10,"level3":null,"pitch":40,"articulation":"standard","articulation_tags":["standard","long"],"duration":0.5833333333333334,"velocity":98.77481998133636}
{"position":252.4375,"instrument":"TheGrandeurPiano","level2":11,"level3":null,"pitch":44,"articulation":"standard","articulation_tags":["standard","long"],"duration":0.3888888888888889,"velocity":97.99020682351394}
{"position":252.71875,"instrument":"TheGrandeurPiano","level2":10,"level3":null,"pitch":40,"articulation":"standard","articulation_tags":["standard","long"],"duration":0.4513888888888889,"velocity":102.44188510928531}
{"position":252.97916666666666,"instrument":"TheGrandeurPiano","level2":10,"level3":null,"pitch":41,"articulation":"standard","articulation_tags":["standard","long"],"duration":0.5416666666666666,"velocity":102.59130939559059}
{"position":253.03125,"instrument":"TheGrandeurPiano","level2":11,"level3":null,"pitch":44,"articulation":"standard","articulation_tags":["standard","long"],"duration":0.3611111111111111,"velocity":102.59130939559059}
{"position":253.1875,"instrument":"TheGrandeurPiano","level2":11,"level3":null,"pitch":45,"articulation":"standard","articulation_tags":["standard","long"],"duration":1.7086614173228347,"velocity":103.03804310547729}
{"position":253.5625,"instrument":"TheGrandeurPiano","level2":11,"level3":null,"pitch":45,"articulation":"standard","articulation_tags":["standard","long"],"duration":0.3333333333333333,"velocity":98.77481998133636}
{"position":253.78125,"instrument":"TheGrandeurPiano","level2":10,"level3":null,"pitch":41,"articulation":"standard","articulation_tags":["standard","long"],"duration":0.5,"velocity":99.86094653719759}
{"position":253.83333333333334,"instrument":"TheGrandeurPiano","level2":12,"level3":null,"pitch":33,"articulation":"standard","articulation_tags":["standard","long"],"duration":1.5196850393700787,"velocity":99.86094653719759}
{"position":254.0625,"instrument":"Contrabass","level2":12,"level3":4,"pitch":40,"articulation":"spiccato","articulation_tags":["spiccato","sp","short"],"duration":1.0,"velocity":127.5}
{"position":254.45833333333334,"instrument":"Bassoon","level2":11,"level3":2,"pitch":35,"articulation":"marcato","articulation_tags":["marcato","short"],"duration":0.25,"velocity":116.65250445211504}
{"position":254.47916666666666,"instrument":"BassClarinet","level2":11,"level3":1,"pitch":38,"articulation":"marcato","articulation_tags":["marcato","short"],"duration":0.25,"velocity":116.65250445211504}
{"position":254.51041666666666,"instrument":"TheGrandeurPiano","level2":11,"level3":null,"pitch":45,"articulation":"standard","articulation_tags":["standard","long"],"duration":0.2708333333333333,"velocity":100.16869416420057}
{"position":254.52083333333334,"instrument":"TheGrandeurPiano","level2":10,"level3":null,"pitch":41,"articulation":"standard","articulation_tags":["standard","long"],"duration":0.3055555555555556,"velocity":100.16869416420057}
{"position":254.60416666666666,"instrument":"Marimba","level2":11,"level3":1,"pitch":37,"articulation":"hits","articulation_tags":["hits","short"],"duration":0.25,"velocity":116.95606876484835}
{"position":254.92708333333334,"instrument":"TheGrandeurPiano","level2":11,"level3":null,"pitch":45,"articulation":"standard","articulation_tags":["standard","long"],"duration":0.24305555555555555,"velocity":104.94796595976241}
{"position":254.97916666666666,"instrument":"TheGrandeurPiano","level2":10,"level3":null,"pitch":42,"articulation":"standard","articulation_tags":["standard","long"],"duration":0.2708333333333333,"velocity":104.94796595976241}
{"position":255.20833333333334,"instrument":"TheGrandeurPiano","level2":10,"level3":null,"pitch":42,"articulation":"standard","articulation_tags":["standard","long"],"duration":0.3888888888888889,"velocity":103.48249557722363}
{"position":255.21875,"instrument":"BassClarinet","level2":12,"level3":5,"pitch":40,"articulation":"legato","articulation_tags":["legato","lg"],"duration":0.59375,"velocity":127.0}
{"position":255.21875,"instrument":"Bassoon","level2":12,"level3":6,"pitch":40,"articulation":"legato","articulation_tags":["legato","lg"],"duration":0.3229166666666667,"velocity":127.0}
{"position":255.29166666666666,"instrument":"TheGrandeurPiano","level2":11,"level3":null,"pitch":45,"articulation":"standard","articulation_tags":["standard","long"],"duration":0.2152777777777778,"velocity":103.48249557722363}
{"position":255.38541666666666,"instrument":"TheGrandeurPiano","level2":10,"level3":null,"pitch":42,"articulation":"standard","articulation_tags":["standard","long"],"duration":0.22916666666666666,"velocity":103.48249557722363}
{"position":255.54166666666666,"instrument":"Bassoon","level2":12,"level3":6,"pitch":40,"articulation":"legato","articulation_tags":["legato","lg"],"duration":4.6875,"velocity":127.0}
{"position":255.61458333333334,"instrument":"TheGrandeurPiano","level2":11,"level3":null,"pitch":45,"articulation":"standard","articulation_tags":["standard","long"],"duration":0.1875,"velocity":102.59130939559059}
{"position":255.72916666666666,"instrument":"TheGrandeurPiano","level2":10,"level3":null,"pitch":42,"articulation":"standard","articulation_tags":["standard","long"],"duration":0.19444444444444445,"velocity":105.95959192632614}
{"position":255.76041666666666,"instrument":"TheGrandeurPiano","level2":12,"level3":null,"pitch":33,"articulation":"standard","articulation_tags":["standard","long"],"duration":1.5196850393700787,"velocity":105.95959192632614}
{"position":255.79166666666666,"instrument":"TheGrandeurPiano","level2":10,"level3":null,"pitch":43,"articulation":"standard","articulation_tags":["standard","long"],"duration":0.3194444444444444,"velocity":105.95959192632614}
{"position":255.80208333333334,"instrument":"BassClarinet","level2":12,"level3":5,"pitch":40,"articulation":"legato","articulation_tags":["legato","lg"],"duration":4.8125,"velocity":127.0}
{"position":256.0208333333333,"instrument":"TheGrandeurPiano","level2":10,"level3":null,"pitch":43,"articulation":"standard","articulation_tags":["standard","long"],"duration":0.1597222222222222,"velocity":105.95959192632614}
{"position":256.0729166666667,"instrument":"Marimba","level2":11,"level3":2,"pitch":36,"articulation":"hits","articulation_tags":["hits","short"],"duration":0.25,"velocity":118.27560137691977}
{"position":256.1354166666667,"instrument":"Marimba","level2":11,"level3":1,"pitch":37,"articulation":"hits","articulation_tags":["hits","short"],"duration":0.25,"velocity":118.27560137691977}
{"position":256.1458333333333,"instrument":"TheGrandeurPiano","level2":11,"level3":null,"pitch":45,"articulation":"standard","articulation_tags":["standard","long"],"duration":0.13194444444444445,"velocity":105.95959192632614}
{"position":256.2604166666667,"instrument":"TheGrandeurPiano","level2":10,"level3":null,"pitch":43,"articulation":"standard","articulation_tags":["standard","long"],"duration":0.125,"velocity":102.59130939559059}
{"position":256.2708333333333,"instrument":"TheGrandeurPiano","level2":10,"level3":null,"pitch":43,"articulation":"standard","articulation_tags":["standard","long"],"duration":0.22916666666666666,"velocity":102.59130939559059}
{"position":256.34375,"instrument":"TheGrandeurPiano","level2":11,"level3":null,"pitch":45,"articulation":"standard","articulation_tags":["standard","long"],"duration":0.1111111111111111,"velocity":102.59130939559059}
{"position":256.5104166666667,"instrument":"TheGrandeurPiano","level2":11,"level3":null,"pitch":44,"articulation":"standard","articulation_tags":["standard","long"],"duration":0.08333333333333333,"velocity":103.48249557722363}
{"position":256.5833333333333,"instrument":"Marimba","level2":12,"level3":6,"pitch":41,"articulation":"hits","articulation_tags":["hits","short"],"duration":0.25,"velocity":127.5}
{"position":256.59375,"instrument":"TheGrandeurPiano","level2":10,"level3":null,"pitch":43,"articulation":"standard","articulation_tags":["standard","long"],"duration":0.0625,"velocity":103.48249557722363}
{"position":256.6145833333333,"instrument":"TheGrandeurPiano","level2":10,"level3":null,"pitch":44,"articulation":"standard","articulation_tags":["standard","long"],"duration":0.08333333333333333,"velocity":103.48249557722363}
{"position":256.6875,"instrument":"TheGrandeurPiano","level2":10,"level3":null,"pitch":44,"articulation":"standard","articulation_tags":["standard","long"],"duration":0.034722222222222224,"velocity":103.48249557722363}
{"position":256.7083333333333,"instrument":"TheGrandeurPiano","level2":11,"level3":null,"pitch":44,"articulation":"standard","articulation_tags":["standard","long"],"duration":0.020833333333333332,"velocity":103.48249557722363}
{"position":256.7395833333333,"instrument":"TheGrandeurPiano","level2":10,"level3":null,"pitch":44,"articulation":"standard","articulation_tags":["standard","long"],"duration":0.006944444444444444,"velocity":107.66783797332214}
{"position":256.7395833333333,"instrument":"TheGrandeurPiano","level2":11,"level3":null,"pitch":44,"articulation":"standard","articulation_tags":["standard","long"],"duration":0.0,"velocity":107.66783797332214}
{"position":256.7395833333333,"instrument":"TheGrandeurPiano","level2":11,"level3":null,"pitch":44,"articulation":"standard","articulation_tags":["standard","long"],"duration":0.0,"velocity":107.66783797332214}
{"position":256.8854166666667,"instrument":"Marimba","level2":11,"level3":1,"pitch":36,"articulation":"hits","articulation_tags":["hits","short"],"duration":0.25,"velocity":121.72532624324498}
{"position":256.9895833333333,"instrument":"Marimba","level2":11,"level3":2,"pitch":36,"articulation":"hits","articulation_tags":["hits","short"],"duration":0.25,"velocity":121.72532624324498}
{"position":257.8229166666667,"instrument":"Marimba","level2":12,"level3":5,"pitch":40,"articulation":"hits","articulation_tags":["hits","short"],"duration":0.25,"velocity":127.5}
{"position":258.6458333333333,"instrument":"Marimba","level2":12,"level3":2,"pitch":39,"articulation":"hits","articulation_tags":["hits","short"],"duration":0.25,"velocity":127.5}
{"position":259.3020833333333,"instrument":"Marimba","level2":12,"level3":2,"pitch":39,"articulation":"hits","articulation_tags":["hits","short"],"duration":0.25,"velocity":127.5}
{"position":259.6770833333333,"instrument":"Marimba","level2":12,"level3":4,"pitch":40,"articulation":"hits","articulation_tags":["hits","short"],"duration":0.25,"velocity":127.5}
{"position":260.2291666666667,"instrument":"Bassoon","level2":12,"level3":6,"pitch":41,"articulation":"legato","articulation_tags":["legato","lg"],"duration":8.604166666666666,"velocity":127.0}
{"position":260.53125,"instrument":"TheGrandeurPiano","level2":13,"level3":null,"pitch":54,"articulation":"standard","articulation_tags":["standard","long"],"duration":0.0,"velocity":102.88938707365193}
{"position":260.53125,"instrument":"TheGrandeurPiano","level2":13,"level3":null,"pitch":54,"articulation":"standard","articulation_tags":["standard","long"],"duration":0.034722222222222224,"velocity":102.88938707365193}
{"position":260.53125,"instrument":"TheGrandeurPiano","level2":14,"level3":null,"pitch":54,"articulation":"standard","articulation_tags":["standard","long"],"duration":0.006944444444444444,"velocity":102.88938707365193}
{"position":260.53125,"instrument":"TheGrandeurPiano","level2":14,"level3":null,"pitch":54,"articulation":"standard","articulation_tags":["standard","long"],"duration":0.14583333333333334,"velocity":102.88938707365193}
{"position":260.5625,"instrument":"TheGrandeurPiano","level2":14,"level3":null,"pitch":54,"articulation":"standard","articulation_tags":["standard","long"],"duration":0.0763888888888889,"velocity":102.88938707365193}
{"position":260.5833333333333,"instrument":"TheGrandeurPiano","level2":13,"level3":null,"pitch":54,"articulation":"standard","articulation_tags":["standard","long"],"duration":0.09027777777777778,"velocity":102.88938707365193}
{"position":260.6145833333333,"instrument":"BassClarinet","level2":12,"level3":5,"pitch":39,"articulation":"legato","articulation_tags":["legato","lg"],"duration":8.291666666666666,"velocity":127.0}
{"position":260.625,"instrument":"TheGrandeurPiano","level2":13,"level3":null,"pitch":53,"articulation":"standard","articulation_tags":["standard","long"],"duration":0.24305555555555555,"velocity":102.88938707365193}
{"position":260.6770833333333,"instrument":"TheGrandeurPiano","level2":14,"level3":null,"pitch":54,"articulation":"standard","articulation_tags":["standard","long"],"duration":0.13194444444444445,"velocity":104.80250721000527}
{"position":260.71875,"instrument":"TheGrandeurPiano","level2":13,"level3":null,"pitch":53,"articulation":"standard","articulation_tags":["standard","long"],"duration":0.1527777777777778,"velocity":104.80250721000527}
{"position":260.75,"instrument":"TheGrandeurPiano","level2":14,"level3":null,"pitch":55,"articulation":"standard","articulation_tags":["standard","long"],"duration":0.3958333333333333,"velocity":104.80250721000527}
{"position":260.8645833333333,"instrument":"TheGrandeurPiano","level2":14,"level3":null,"pitch":55,"articulation":"standard","articulation_tags":["standard","long"],"duration":0.1875,"velocity":104.80250721000527}
{"position":260.9479166666667,"instrument":"TheGrandeurPiano","level2":13,"level3":null,"pitch":53,"articulation":"standard","articulation_tags":["standard","long"],"duration":0.20833333333333334,"velocity":102.44188510928531}
{"position":261.0,"instrument":"TheGrandeurPiano","level2":13,"level3":null,"pitch":53,"articulation":"standard","articulation_tags":["standard","long"],"duration":0.4097222222222222,"velocity":102.44188510928531}
{"position":261.1458333333333,"instrument":"TheGrandeurPiano","level2":14,"level3":null,"pitch":55,"articulation":"standard","articulation_tags":["standard","long"],"duration":0.2361111111111111,"velocity":102.44188510928531}
{"position":261.2604166666667,"instrument":"TheGrandeurPiano","level2":13,"level3":null,"pitch":53,"articulation":"standard","articulation_tags":["standard","long"],"duration":0.2777777777777778,"velocity":104.94796595976241}
{"position":261.34375,"instrument":"TheGrandeurPiano","level2":14,"level3":null,"pitch":55,"articulation":"standard","articulation_tags":["standard","long"],"duration":0.6875,"velocity":104.94796595976241}
{"position":261.5,"instrument":"TheGrandeurPiano","level2":14,"level3":null,"pitch":55,"articulation":"standard","articulation_tags":["standard","long"],"duration":0.2916666666666667,"velocity":103.48249557722363}
{"position":261.6145833333333,"instrument":"TheGrandeurPiano","level2":13,"level3":null,"pitch":52,"articulation":"standard","articulation_tags":["standard","long"],"duration":0.5486111111111112,"velocity":103.48249557722363}
{"position":261.6770833333333,"instrument":"TheGrandeurPiano","level2":13,"level3":null,"pitch":52,"articulation":"standard","articulation_tags":["standard","long"],"duration":0.3402777777777778,"velocity":103.48249557722363}
{"position":261.9479166666667,"instrument":"TheGrandeurPiano","level2":14,"level3":null,"pitch":55,"articulation":"standard","articulation_tags":["standard","long"],"duration":0.3472222222222222,"velocity":102.59130939559059}
{"position":262.1875,"instrument":"TheGrandeurPiano","level2":13,"level3":null,"pitch":52,"articulation":"standard","articulation_tags":["standard","long"],"duration":0.4097222222222222,"velocity":102.29220207904578}
{"position":262.2291666666667,"instrument":"Cello","level2":13,"level3":0,"pitch":44,"articulation":"short_marcato","articulation_tags":["short_marcato","marcato_s","short","marcato"],"duration":1.0,"velocity":104.06970191556891}
{"position":262.2291666666667,"instrument":"Cello","level2":13,"level3":0,"pitch":44,"articulation":"short_marcato","articulation_tags":["short_marcato","marcato_s","short","marcato"],"duration":1.0,"velocity":104.06970191556891}
{"position":262.2291666666667,"instrument":"Cello","level2":13,"level3":1,"pitch":43,"articulation":"staccato","articulation_tags":["staccato","st","short"],"duration":1.0,"velocity":104.06970191556891}
{"position":262.375,"instrument":"TheGrandeurPiano","level2":14,"level3":null,"pitch":56,"articulation":"standard","articulation_tags":["standard","long"],"duration":1.0347222222222223,"velocity":102.29220207904578}
{"position":262.4375,"instrument":"TheGrandeurPiano","level2":13,"level3":null,"pitch":52,"articulation":"standard","articulation_tags":["standard","long"],"duration":0.6805555555555556,"velocity":102.59130939559059}
{"position":262.46875,"instrument":"TheGrandeurPiano","level2":14,"level3":null,"pitch":56,"articulation":"standard","articulation_tags":["standard","long"],"duration":0.4027777777777778,"velocity":102.59130939559059}
{"position":262.6770833333333,"instrument":"Cello","level2":13,"level3":1,"pitch":43,"articulation":"staccato","articulation_tags":["staccato","st","short"],"duration":1.0,"velocity":104.77481094784815}
{"position":262.8020833333333,"instrument":"TheGrandeurPiano","level2":13,"level3":null,"pitch":52,"articulation":"standard","articulation_tags":["standard","long"],"duration":0.4861111111111111,"velocity":103.48249557722363}
{"position":262.8333333333333,"instrument":"Marimba","level2":13,"level3":0,"pitch":44,"articulation":"hits","articulation_tags":["hits","short"],"duration":0.25,"velocity":104.49994632470383}
{"position":262.90625,"instrument":"Marimba","level2":13,"level3":1,"pitch":43,"articulation":"hits","articulation_tags":["hits","short"],"duration":0.25,"velocity":104.49994632470383}
{"position":263.0729166666667,"instrument":"TheGrandeurPiano","level2":14,"level3":null,"pitch":56,"articulation":"standard","articulation_tags":["standard","long"],"duration":0.4583333333333333,"velocity":100.6282172924301}
{"position":263.3229166666667,"instrument":"Marimba","level2":13,"level3":0,"pitch":44,"articulation":"hits","articulation_tags":["hits","short"],"duration":0.25,"velocity":104.49994632470383}
{"position":263.4583333333333,"instrument":"TheGrandeurPiano","level2":13,"level3":null,"pitch":51,"articulation":"standard","articulation_tags":["standard","long"],"duration":0.7916666666666666,"velocity":102.44188510928531}
{"position":263.5416666666667,"instrument":"TheGrandeurPiano","level2":13,"level3":null,"pitch":51,"articulation":"standard","articulation_tags":["standard","long"],"duration":0.5694444444444444,"velocity":100.16869416420057}
{"position":263.7604166666667,"instrument":"TheGrandeurPiano","level2":14,"level3":null,"pitch":56,"articulation":"standard","articulation_tags":["standard","long"],"duration":0.5208333333333334,"velocity":98.1477289799213}
{"position":263.9270833333333,"instrument":"TheGrandeurPiano","level2":14,"level3":null,"pitch":56,"articulation":"standard","articulation_tags":["standard","long"],"duration":1.4722222222222223,"velocity":102.88938707365193}
{"position":264.3958333333333,"instrument":"TheGrandeurPiano","level2":13,"level3":null,"pitch":51,"articulation":"standard","articulation_tags":["standard","long"],"duration":0.6597222222222222,"velocity":99.86094653719759}
{"position":264.40625,"instrument":"Cello","level2":13,"level3":0,"pitch":45,"articulation":"short_marcato","articulation_tags":["short_marcato","marcato_s","short","marcato"],"duration":1.0,"velocity":104.7217915371055}
{"position":264.46875,"instrument":"Cello","level2":13,"level3":1,"pitch":42,"articulation":"staccato","articulation_tags":["staccato","st","short"],"duration":1.0,"velocity":104.7217915371055}
{"position":264.5520833333333,"instrument":"TheGrandeurPiano","level2":14,"level3":null,"pitch":56,"articulation":"standard","articulation_tags":["standard","long"],"duration":0.5833333333333334,"velocity":98.77481998133636}
{"position":264.6458333333333,"instrument":"TheGrandeurPiano","level2":13,"level3":null,"pitch":51,"articulation":"standard","articulation_tags":["standard","long"],"duration":0.8958333333333334,"velocity":97.99020682351394}
{"position":265.0520833333333,"instrument":"TheGrandeurPiano","level2":15,"level3":null,"pitch":34,"articulation":"standard","articulation_tags":["standard","long"],"duration":0.006944444444444444,"velocity":97.51581398829656}
{"position":265.0520833333333,"instrument":"TheGrandeurPiano","level2":16,"level3":null,"pitch":33,"articulation":"standard","articulation_tags":["standard","long"],"duration":0.006944444444444444,"velocity":97.51581398829656}
{"position":265.0625,"instrument":"TheGrandeurPiano","level2":16,"level3":null,"pitch":33,"articulation":"standard","articulation_tags":["standard","long"],"duration":0.05555555555555555,"velocity":97.51581398829656}
{"position":265.1458333333333,"instrument":"TheGrandeurPiano","level2":16,"level3":null,"pitch":33,"articulation":"standard","articulation_tags":["standard","long"],"duration":0.125,"velocity":97.35706833815088}
{"position":265.34375,"instrument":"TheGrandeurPiano","level2":16,"level3":null,"pitch":32,"articulation":"standard","articulation_tags":["standard","long"],"duration":1.5039370078740157,"velocity":97.51581398829656}
{"position":265.3854166666667,"instrument":"TheGrandeurPiano","level2":13,"level3":null,"pitch":51,"articulation":"standard","articulation_tags":["standard","long"],"duration":0.7638888888888888,"velocity":97.51581398829656}
{"position":265.40625,"instrument":"TheGrandeurPiano","level2":15,"level3":null,"pitch":35,"articulation":"standard","articulation_tags":["standard","long"],"duration":0.2013888888888889,"velocity":97.51581398829656}
{"position":265.59375,"instrument":"TheGrandeurPiano","level2":15,"level3":null,"pitch":35,"articulation":"standard","articulation_tags":["standard","long"],"duration":0.7847222222222222,"velocity":97.99020682351394}
{"position":265.7395833333333,"instrument":"Contrabass","level2":16,"level3":0,"pitch":31,"articulation":"collegno","articulation_tags":["collegno","cl","short"],"duration":1.0,"velocity":127.5}
{"position":265.7395833333333,"instrument":"Contrabass","level2":16,"level3":1,"pitch":32,"articulation":"collegno","articulation_tags":["collegno","cl","short"],"duration":1.0,"velocity":127.5}
{"position":265.78125,"instrument":"Contrabass","level2":16,"level3":0,"pitch":31,"articulation":"collegno","articulation_tags":["collegno","cl","short"],"duration":1.0,"velocity":127.5}
{"position":265.78125,"instrument":"Contrabass","level2":16,"level3":0,"pitch":31,"articulation":"collegno","articulation_tags":["collegno","cl","short"],"duration":1.0,"velocity":127.5}
{"position":265.9375,"instrument":"Cello","level2":13,"level3":1,"pitch":42,"articulation":"staccato","articulation_tags":["staccato","st","short"],"duration":1.0,"velocity":105.23076923076923}
{"position":266.0,"instrument":"Cello","level2":14,"level3":0,"pitch":56,"articulation":"long_slt","articulation_tags":["long_slt","slt","long","sultasto"],"duration":0.03125,"velocity":86.00702687262218}
{"position":266.0,"instrument":"Cello","level2":14,"level3":1,"pitch":55,"articulation":"long_slt","articulation_tags":["long_slt","slt","long","sultasto"],"duration":0.20833333333333334,"velocity":86.00702687262218}
{"position":266.03125,"instrument":"Cello","level2":14,"level3":0,"pitch":56,"articulation":"long_slt","articulation_tags":["long_slt","slt","long","sultasto"],"duration":0.8958333333333334,"velocity":86.00702687262218}
{"position":266.1354166666667,"instrument":"TheGrandeurPiano","level2":14,"level3":null,"pitch":57,"articulation":"standard","articulation_tags":["standard","long"],"duration":1.8976377952755905,"velocity":99.86094653719759}
{"position":266.2083333333333,"instrument":"Cello","level2":14,"level3":1,"pitch":55,"articulation":"long_slt","articulation_tags":["long_slt","slt","long","sultasto"],"duration":2.0104166666666665,"velocity":84.99105086836877}
{"position":266.3854166666667,"instrument":"TheGrandeurPiano","level2":14,"level3":null,"pitch":57,"articulation":"standard","articulation_tags":["standard","long"],"duration":0.7083333333333334,"velocity":96.39801240703959}
{"position":266.4375,"instrument":"Cello","level2":14,"level3":1,"pitch":55,"articulation":"legato","articulation_tags":["legato","lg"],"duration":2.3333333333333335,"velocity":86.13917805559292}
{"position":266.53125,"instrument":"TheGrandeurPiano","level2":13,"level3":null,"pitch":50,"articulation":"standard","articulation_tags":["standard","long"],"duration":0.8819444444444444,"velocity":98.1477289799213}
{"position":266.9270833333333,"instrument":"Cello","level2":14,"level3":0,"pitch":56,"articulation":"long_flt","articulation_tags":["long_flt","flt","long","flautando"],"duration":1.9375,"velocity":86.13917805559292}
{"position":267.1354166666667,"instrument":"TheGrandeurPiano","level2":15,"level3":null,"pitch":37,"articulation":"standard","articulation_tags":["standard","long"],"duration":0.4305555555555556,"velocity":97.99020682351394}
{"position":267.1666666666667,"instrument":"Contrabass","level2":16,"level3":1,"pitch":32,"articulation":"collegno","articulation_tags":["collegno","cl","short"],"duration":1.0,"velocity":127.5}
{"position":267.3020833333333,"instrument":"Cello","level2":14,"level3":0,"pitch":56,"articulation":"long_flt","articulation_tags":["long_flt","flt","long","flautando"],"duration":10.895833333333334,"velocity":86.13917805559292}
{"position":267.34375,"instrument":"Contrabass","level2":16,"level3":0,"pitch":31,"articulation":"pizzicato","articulation_tags":["pizzicato","pz","short"],"duration":1.0,"velocity":127.5}
{"position":267.3854166666667,"instrument":"Contrabass","level2":16,"level3":2,"pitch":32,"articulation":"collegno","articulation_tags":["collegno","cl","short"],"duration":1.0,"velocity":127.5}
{"position":267.3854166666667,"instrument":"Contrabass","level2":16,"level3":3,"pitch":32,"articulation":"collegno","articulation_tags":["collegno","cl","short"],"duration":1.0,"velocity":127.5}
{"position":267.4166666666667,"instrument":"Marimba","level2":15,"level3":0,"pitch":39,"articulation":"hits","articulation_tags":["hits","short"],"duration":0.25,"velocity":127.5}
{"position":267.4166666666667,"instrument":"Marimba","level2":15,"level3":1,"pitch":39,"articulation":"hits","articulation_tags":["hits","short"],"duration":0.25,"velocity":127.5}
{"position":267.4375,"instrument":"Marimba","level2":15,"level3":0,"pitch":39,"articulation":"hits","articulation_tags":["hits","short"],"duration":0.25,"velocity":127.5}
{"position":267.4583333333333,"instrument":"TheGrandeurPiano","level2":14,"level3":null,"pitch":57,"articulation":"standard","articulation_tags":["standard","long"],"duration":0.7847222222222222,"velocity":96.39801240703959}
{"position":267.4583333333333,"instrument":"TheGrandeurPiano","level2":13,"level3":null,"pitch":50,"articulation":"standard","articulation_tags":["standard","long"],"duration":1.0694444444444444,"velocity":96.39801240703959}
{"position":267.4583333333333,"instrument":"Marimba","level2":15,"level3":0,"pitch":39,"articulation":"hits","articulation_tags":["hits","short"],"duration":0.25,"velocity":127.5}
{"position":267.4895833333333,"instrument":"Marimba","level2":13,"level3":0,"pitch":45,"articulation":"hits","articulation_tags":["hits","short"],"duration":0.25,"velocity":106.5039134040188}
{"position":267.78125,"instrument":"TheGrandeurPiano","level2":15,"level3":null,"pitch":38,"articulation":"standard","articulation_tags":["standard","long"],"duration":0.4861111111111111,"velocity":95.4273770775948}
{"position":268.21875,"instrument":"Cello","level2":14,"level3":1,"pitch":55,"articulation":"legato","articulation_tags":["legato","lg"],"duration":3.2291666666666665,"velocity":87.30128763492996}
{"position":268.2604166666667,"instrument":"Contrabass","level2":16,"level3":1,"pitch":32,"articulation":"collegno","articulation_tags":["collegno","cl","short"],"duration":1.0,"velocity":127.5}
{"position":268.4166666666667,"instrument":"Marimba","level2":13,"level3":1,"pitch":42,"articulation":"hits","articulation_tags":["hits","short"],"duration":0.25,"velocity":106.32733561972346}
{"position":268.46875,"instrument":"TheGrandeurPiano","level2":15,"level3":null,"pitch":38,"articulation":"standard","articulation_tags":["standard","long"],"duration":1.4236111111111112,"velocity":99.39719581212958}
{"position":268.5104166666667,"instrument":"TheGrandeurPiano","level2":15,"level3":null,"pitch":38,"articulation":"standard","articulation_tags":["standard","long"],"duration":0.5347222222222222,"velocity":99.39719581212958}
{"position":268.5520833333333,"instrument":"Contrabass","level2":15,"level3":1,"pitch":40,"articulation":"collegno","articulation_tags":["collegno","cl","short"],"duration":1.0,"velocity":127.5}
{"position":268.5625,"instrument":"Contrabass","level2":16,"level3":3,"pitch":33,"articulation":"collegno","articulation_tags":["collegno","cl","short"],"duration":1.0,"velocity":127.5}
{"position":268.59375,"instrument":"Contrabass","level2":16,"level3":3,"pitch":33,"articulation":"collegno","articulation_tags":["collegno","cl","short"],"duration":1.0,"velocity":127.5}
{"position":268.625,"instrument":"TheGrandeurPiano","level2":14,"level3":null,"pitch":57,"articulation":"standard","articulation_tags":["standard","long"],"duration":0.8541666666666666,"velocity":99.39719581212958}
{"position":268.7708333333333,"instrument":"Cello","level2":14,"level3":1,"pitch":55,"articulation":"legato","articulation_tags":["legato","lg"],"duration":6.572916666666667,"velocity":88.47670701802336}
{"position":268.8333333333333,"instrument":"Marimba","level2":12,"level3":6,"pitch":41,"articulation":"hits","articulation_tags":["hits","short"],"duration":0.25,"velocity":127.5}
{"position":268.8645833333333,"instrument":"Cello","level2":14,"level3":0,"pitch":56,"articulation":"long_flt","articulation_tags":["long_flt","flt","long","flautando"],"duration":2.875,"velocity":88.47670701802336}
{"position":268.8958333333333,"instrument":"Marimba","level2":12,"level3":5,"pitch":39,"articulation":"hits","articulation_tags":["hits","short"],"duration":0.25,"velocity":127.5}
{"position":269.0729166666667,"instrument":"TheGrandeurPiano","level2":13,"level3":null,"pitch":49,"articulation":"standard","articulation_tags":["standard","long"],"duration":1.1458333333333333,"velocity":97.99020682351394}
{"position":269.0729166666667,"instrument":"BassClarinet","level2":15,"level3":1,"pitch":40,"articulation":"staccato","articulation_tags":["staccato","st","short"],"duration":0.25,"velocity":127.5}
{"position":269.1041666666667,"instrument":"Marimba","level2":13,"level3":2,"pitch":44,"articulation":"hits","articulation_tags":["hits","short"],"duration":0.25,"velocity":107.06958902779647}
{"position":269.1041666666667,"instrument":"Bassoon","level2":13,"level3":3,"pitch":43,"articulation":"legato","articulation_tags":["legato","lg"],"duration":0.53125,"velocity":86.13917805559292}
{"position":269.5,"instrument":"Contrabass","level2":15,"level3":0,"pitch":39,"articulation":"collegno","articulation_tags":["collegno","cl","short"],"duration":1.0,"velocity":127.5}
{"position":269.6354166666667,"instrument":"Marimba","level2":13,"level3":3,"pitch":43,"articulation":"hits","articulation_tags":["hits","short"],"duration":0.25,"velocity":106.91245530693567}
{"position":269.8645833333333,"instrument":"Contrabass","level2":15,"level3":0,"pitch":38,"articulation":"collegno","articulation_tags":["collegno","cl","short"],"duration":1.0,"velocity":127.5}
{"position":269.8854166666667,"instrument":"Contrabass","level2":12,"level3":3,"pitch":38,"articulation":"short_hrm","articulation_tags":["short_hrm","hrm_s","short","harmonics"],"duration":1.0,"velocity":127.5}
{"position":269.9166666666667,"instrument":"TheGrandeurPiano","level2":14,"level3":null,"pitch":57,"articulation":"standard","articulation_tags":["standard","long"],"duration":0.9375,"velocity":99.86094653719759}
{"position":270.0520833333333,"instrument":"Marimba","level2":13,"level3":2,"pitch":44,"articulation":"hits","articulation_tags":["hits","short"],"duration":0.25,"velocity":106.91245530693567}
{"position":270.0520833333333,"instrument":"Marimba","level2":13,"level3":3,"pitch":43,"articulation":"hits","articulation_tags":["hits","short"],"duration":0.25,"velocity":106.91245530693567}
{"position":270.1770833333333,"instrument":"Contrabass","level2":13,"level3":1,"pitch":42,"articulation":"spiccato","articulation_tags":["spiccato","sp","short"],"duration":1.0,"velocity":106.91245530693567}
{"position":270.2083333333333,"instrument":"TheGrandeurPiano","level2":15,"level3":null,"pitch":39,"articulation":"standard","articulation_tags":["standard","long"],"duration":0.6388888888888888,"velocity":98.77481998133636}
{"position":270.5208333333333,"instrument":"Contrabass","level2":16,"level3":3,"pitch":33,"articulation":"collegno","articulation_tags":["collegno","cl","short"],"duration":1.0,"velocity":127.5}
{"position":270.5729166666667,"instrument":"TheGrandeurPiano","level2":16,"level3":null,"pitch":33,"articulation":"standard","articulation_tags":["standard","long"],"duration":1.5196850393700787,"velocity":97.51581398829656}
{"position":270.71875,"instrument":"Marimba","level2":14,"level3":2,"pitch":54,"articulation":"hits","articulation_tags":["hits","short"],"duration":0.25,"velocity":108.36589760241264}
{"position":270.71875,"instrument":"Marimba","level2":14,"level3":3,"pitch":54,"articulation":"hits","articulation_tags":["hits","short"],"duration":0.25,"velocity":108.36589760241264}
{"position":270.7291666666667,"instrument":"Marimba","level2":14,"level3":2,"pitch":54,"articulation":"hits","articulation_tags":["hits","short"],"duration":0.25,"velocity":108.36589760241264}
{"position":271.0,"instrument":"Contrabass","level2":16,"level3":1,"pitch":33,"articulation":"collegno","articulation_tags":["collegno","cl","short"],"duration":1.0,"velocity":127.5}
{"position":271.1354166666667,"instrument":"TheGrandeurPiano","level2":13,"level3":null,"pitch":49,"articulation":"standard","articulation_tags":["standard","long"],"duration":1.3888888888888888,"velocity":97.51581398829656}
{"position":271.1666666666667,"instrument":"TheGrandeurPiano","level2":15,"level3":null,"pitch":40,"articulation":"standard","articulation_tags":["standard","long"],"duration":0.6944444444444444,"velocity":97.51581398829656}
{"position":271.21875,"instrument":"Marimba","level2":14,"level3":3,"pitch":54,"articulation":"hits","articulation_tags":["hits","short"],"duration":0.25,"velocity":108.36589760241264}
{"position":271.2291666666667,"instrument":"Contrabass","level2":16,"level3":0,"pitch":31,"articulation":"pizzicato","articulation_tags":["pizzicato","pz","short"],"duration":1.0,"velocity":127.5}
{"position":271.4479166666667,"instrument":"Cello","level2":14,"level3":1,"pitch":54,"articulation":"legato","articulation_tags":["legato","lg"],"duration":4.03125,"velocity":89.94710081456263}
{"position":271.5833333333333,"instrument":"Marimba","level2":13,"level3":0,"pitch":46,"articulation":"hits","articulation_tags":["hits","short"],"duration":0.25,"velocity":107.52053154465305}
{"position":271.7083333333333,"instrument":"Contrabass","level2":16,"level3":3,"pitch":33,"articulation":"collegno","articulation_tags":["collegno","cl","short"],"duration":1.0,"velocity":127.5}
{"position":271.71875,"instrument":"Marimba","level2":14,"level3":2,"pitch":54,"articulation":"hits","articulation_tags":["hits","short"],"duration":0.25,"velocity":108.97355040728132}
{"position":271.7395833333333,"instrument":"Cello","level2":14,"level3":0,"pitch":56,"articulation":"long_flt","articulation_tags":["long_flt","flt","long","flautando"],"duration":3.8020833333333335,"velocity":89.94710081456263}
{"position":271.84375,"instrument":"Marimba","level2":14,"level3":3,"pitch":54,"articulation":"hits","articulation_tags":["hits","short"],"duration":0.25,"velocity":108.97355040728132}
{"position":271.96875,"instrument":"Contrabass","level2":15,"level3":1,"pitch":40,"articulation":"collegno","articulation_tags":["collegno","cl","short"],"duration":1.0,"velocity":127.5}
{"position":272.1770833333333,"instrument":"Bassoon","level2":13,"level3":3,"pitch":42,"articulation":"legato","articulation_tags":["legato","lg"],"duration":7.260416666666667,"velocity":87.0410630893061}
{"position":272.2083333333333,"instrument":"TheGrandeurPiano","level2":15,"level3":null,"pitch":40,"articulation":"standard","articulation_tags":["standard","long"],"duration":0.7430555555555556,"velocity":102.88938707365193}
{"position":272.2604166666667,"instrument":"Marimba","level2":13,"level3":2,"pitch":45,"articulation":"hits","articulation_tags":["hits","short"],"duration":0.25,"velocity":107.52053154465305}
{"position":272.6145833333333,"instrument":"TheGrandeurPiano","level2":13,"level3":null,"pitch":48,"articulation":"standard","articulation_tags":["standard","long"],"duration":1.2777777777777777,"velocity":102.44188510928531}
{"position":272.84375,"instrument":"TheGrandeurPiano","level2":14,"level3":null,"pitch":57,"articulation":"standard","articulation_tags":["standard","long"],"duration":1.1111111111111112,"velocity":104.94796595976241}
{"position":273.09375,"instrument":"TheGrandeurPiano","level2":15,"level3":null,"pitch":40,"articulation":"standard","articulation_tags":["standard","long"],"duration":1.6299212598425197,"velocity":103.48249557722363}
{"position":273.3229166666667,"instrument":"Contrabass","level2":16,"level3":2,"pitch":32,"articulation":"pizzicato","articulation_tags":["pizzicato","pz","short"],"duration":1.0,"velocity":127.5}
{"position":273.6875,"instrument":"Marimba","level2":13,"level3":3,"pitch":42,"articulation":"hits","articulation_tags":["hits","short"],"duration":0.25,"velocity":108.15040591358373}
{"position":273.8020833333333,"instrument":"Contrabass","level2":16,"level3":3,"pitch":33,"articulation":"collegno","articulation_tags":["collegno","cl","short"],"duration":1.0,"velocity":127.5}
{"position":273.8854166666667,"instrument":"Contrabass","level2":15,"level3":0,"pitch":38,"articulation":"collegno","articulation_tags":["collegno","cl","short"],"duration":1.0,"velocity":127.5}
{"position":274.1145833333333,"instrument":"Clarinet","level2":14,"level3":3,"pitch":54,"articulation":"trill_2m","articulation_tags":["trill_2m","long","trill","m2"],"duration":4.208333333333333,"velocity":90.29067947930568}
{"position":274.25,"instrument":"Clarinet","level2":14,"level3":2,"pitch":54,"articulation":"trill_2m","articulation_tags":["trill_2m","long","trill","m2"],"duration":3.9895833333333335,"velocity":90.29067947930568}
{"position":274.5208333333333,"instrument":"TheGrandeurPiano","level2":14,"level3":null,"pitch":58,"articulation":"standard","articulation_tags":["standard","long"],"duration":1.2222222222222223,"velocity":103.48249557722363}
{"position":274.5208333333333,"instrument":"TheGrandeurPiano","level2":15,"level3":null,"pitch":41,"articulation":"standard","articulation_tags":["standard","long"],"duration":0.8472222222222222,"velocity":103.48249557722363}
{"position":274.9791666666667,"instrument":"TheGrandeurPiano","level2":16,"level3":null,"pitch":33,"articulation":"standard","articulation_tags":["standard","long"],"duration":1.5196850393700787,"velocity":106.95996762710062}
{"position":275.1979166666667,"instrument":"Marimba","level2":13,"level3":1,"pitch":42,"articulation":"hits","articulation_tags":["hits","short"],"duration":0.25,"velocity":108.90304246015056}
{"position":275.21875,"instrument":"BassClarinet","level2":12,"level3":4,"pitch":40,"articulation":"legato","articulation_tags":["legato","lg"],"duration":38.458333333333336,"velocity":127.0}
{"position":275.3229166666667,"instrument":"Marimba","level2":12,"level3":4,"pitch":40,"articulation":"hits","articulation_tags":["hits","short"],"duration":0.25,"velocity":127.5}
{"position":275.34375,"instrument":"CorAnglais","level2":14,"level3":1,"pitch":54,"articulation":"trill_2M","articulation_tags":["trill_2M","long","trill","M2"],"duration":21.072916666666668,"velocity":91.54220665326393}
{"position":275.4270833333333,"instrument":"Contrabass","level2":15,"level3":2,"pitch":38,"articulation":"collegno","articulation_tags":["collegno","cl","short"],"duration":1.0,"velocity":127.5}
{"position":275.4270833333333,"instrument":"Contrabass","level2":15,"level3":3,"pitch":39,"articulation":"collegno","articulation_tags":["collegno","cl","short"],"duration":1.0,"velocity":127.5}
{"position":275.4270833333333,"instrument":"Contrabass","level2":15,"level3":3,"pitch":39,"articulation":"collegno","articulation_tags":["collegno","cl","short"],"duration":1.0,"velocity":127.5}
{"position":275.4375,"instrument":"Vibraphone","level2":14,"level3":4,"pitch":54,"articulation":"hits","articulation_tags":["hits","short"],"duration":0.25,"velocity":109.77110332663196}
{"position":275.4375,"instrument":"Vibraphone","level2":14,"level3":5,"pitch":54,"articulation":"hits","articulation_tags":["hits","short"],"duration":0.25,"velocity":109.77110332663196}
{"position":275.4791666666667,"instrument":"Marimba","level2":14,"level3":5,"pitch":54,"articulation":"hits","articulation_tags":["hits","short"],"duration":0.25,"velocity":109.77110332663196}
{"position":275.4895833333333,"instrument":"Vibraphone","level2":14,"level3":1,"pitch":54,"articulation":"hits","articulation_tags":["hits","short"],"duration":0.25,"velocity":109.77110332663196}
{"position":275.5416666666667,"instrument":"Vibraphone","level2":14,"level3":0,"pitch":56,"articulation":"hits","articulation_tags":["hits","short"],"duration":0.25,"velocity":109.77110332663196}
{"position":275.7395833333333,"instrument":"TheGrandeurPiano","level2":13,"level3":null,"pitch":48,"articulation":"standard","articulation_tags":["standard","long"],"duration":1.7559055118110236,"velocity":106.10318274704358}
{"position":275.7395833333333,"instrument":"Marimba","level2":15,"level3":3,"pitch":39,"articulation":"hits","articulation_tags":["hits","short"],"duration":0.25,"velocity":127.5}
{"position":275.78125,"instrument":"Marimba","level2":13,"level3":2,"pitch":45,"articulation":"hits","articulation_tags":["hits","short"],"duration":0.25,"velocity":108.80095915958321}
{"position":275.8020833333333,"instrument":"TheGrandeurPiano","level2":15,"level3":null,"pitch":42,"articulation":"standard","articulation_tags":["standard","long"],"duration":0.8958333333333334,"velocity":106.10318274704358}
{"position":276.03125,"instrument":"Marimba","level2":15,"level3":2,"pitch":38,"articulation":"hits","articulation_tags":["hits","short"],"duration":0.25,"velocity":127.5}
{"position":276.53125,"instrument":"TheGrandeurPiano","level2":13,"level3":null,"pitch":47,"articulation":"standard","articulation_tags":["standard","long"],"duration":1.3888888888888888,"velocity":107.66783797332214}
{"position":276.7291666666667,"instrument":"Marimba","level2":15,"level3":3,"pitch":39,"articulation":"hits","articulation_tags":["hits","short"],"duration":0.25,"velocity":127.5}
{"position":276.7708333333333,"instrument":"Marimba","level2":14,"level3":4,"pitch":54,"articulation":"hits","articulation_tags":["hits","short"],"duration":0.25,"velocity":110.40174161507674}
{"position":276.78125,"instrument":"Vibraphone","level2":14,"level3":5,"pitch":53,"articulation":"hits","articulation_tags":["hits","short"],"duration":0.25,"velocity":110.40174161507674}
{"position":276.8125,"instrument":"Cello","level2":13,"level3":0,"pitch":46,"articulation":"staccato","articulation_tags":["staccato","st","short"],"duration":1.0,"velocity":109.55596917385105}
{"position":276.84375,"instrument":"Contrabass","level2":16,"level3":2,"pitch":32,"articulation":"pizzicato","articulation_tags":["pizzicato","pz","short"],"duration":1.0,"velocity":127.5}
{"position":277.1458333333333,"instrument":"Marimba","level2":15,"level3":1,"pitch":41,"articulation":"hits","articulation_tags":["hits","short"],"duration":0.25,"velocity":127.5}
{"position":277.1458333333333,"instrument":"TheGrandeurPiano","level2":15,"level3":null,"pitch":42,"articulation":"standard","articulation_tags":["standard","long"],"duration":0.9513888888888888,"velocity":108.08994843896522}
{"position":277.4270833333333,"instrument":"Marimba","level2":15,"level3":2,"pitch":38,"articulation":"hits","articulation_tags":["hits","short"],"duration":0.25,"velocity":127.5}
{"position":277.9479166666667,"instrument":"Marimba","level2":13,"level3":4,"pitch":44,"articulation":"hits","articulation_tags":["hits","short"],"duration":0.25,"velocity":109.55596917385105}
{"position":277.9479166666667,"instrument":"Marimba","level2":13,"level3":5,"pitch":44,"articulation":"hits","articulation_tags":["hits","short"],"duration":0.25,"velocity":109.55596917385105}
{"position":277.96875,"instrument":"Contrabass","level2":16,"level3":0,"pitch":32,"articulation":"pizzicato","articulation_tags":["pizzicato","pz","short"],"duration":1.0,"velocity":127.5}
{"position":277.9791666666667,"instrument":"Contrabass","level2":16,"level3":4,"pitch":33,"articulation":"collegno","articulation_tags":["collegno","cl","short"],"duration":1.0,"velocity":127.5}
{"position":277.9791666666667,"instrument":"Contrabass","level2":16,"level3":5,"pitch":33,"articulation":"collegno","articulation_tags":["collegno","cl","short"],"duration":1.0,"velocity":127.5}
{"position":278.0833333333333,"instrument":"Cello","level2":13,"level3":4,"pitch":44,"articulation":"spiccato","articulation_tags":["spiccato","sp","short"],"duration":1.0,"velocity":109.55596917385105}
{"position":278.125,"instrument":"Cello","level2":14,"level3":3,"pitch":54,"articulation":"legato","articulation_tags":["legato","lg"],"duration":15.458333333333334,"velocity":92.80348323015349}
{"position":278.1354166666667,"instrument":"Contrabass","level2":16,"level3":4,"pitch":33,"articulation":"collegno","articulation_tags":["collegno","cl","short"],"duration":1.0,"velocity":127.5}
{"position":278.1875,"instrument":"Marimba","level2":14,"level3":0,"pitch":56,"articulation":"hits","articulation_tags":["hits","short"],"duration":0.25,"velocity":110.40174161507674}
{"position":278.2395833333333,"instrument":"Clarinet","level2":14,"level3":2,"pitch":54,"articulation":"trill_2m","articulation_tags":["trill_2m","long","trill","m2"],"duration":5.729166666666667,"velocity":92.80348323015349}
{"position":278.3333333333333,"instrument":"Clarinet","level2":14,"level3":3,"pitch":53,"articulation":"trill_2m","articulation_tags":["trill_2m","long","trill","m2"],"duration":5.125,"velocity":92.80348323015349}
{"position":278.34375,"instrument":"TheGrandeurPiano","level2":14,"level3":null,"pitch":58,"articulation":"standard","articulation_tags":["standard","long"],"duration":1.4652777777777777,"velocity":109.48321891896626}
{"position":278.53125,"instrument":"Marimba","level2":13,"level3":3,"pitch":42,"articulation":"hits","articulation_tags":["hits","short"],"duration":0.25,"velocity":109.55596917385105}
{"position":278.5729166666667,"instrument":"TheGrandeurPiano","level2":15,"level3":null,"pitch":43,"articulation":"standard","articulation_tags":["standard","long"],"duration":1.0,"velocity":111.53503359182703}
{"position":278.6145833333333,"instrument":"TheGrandeurPiano","level2":13,"level3":null,"pitch":47,"articulation":"standard","articulation_tags":["standard","long"],"duration":1.4375,"velocity":111.53503359182703}
{"position":278.625,"instrument":"Marimba","level2":13,"level3":1,"pitch":41,"articulation":"hits","articulation_tags":["hits","short"],"duration":0.25,"velocity":110.31120693129259}
{"position":278.6770833333333,"instrument":"Cello","level2":13,"level3":5,"pitch":43,"articulation":"spiccato","articulation_tags":["spiccato","sp","short"],"duration":1.0,"velocity":110.31120693129259}
{"position":279.0104166666667,"instrument":"Contrabass","level2":16,"level3":1,"pitch":34,"articulation":"collegno","articulation_tags":["collegno","cl","short"],"duration":1.0,"velocity":127.5}
{"position":279.0833333333333,"instrument":"Contrabass","level2":16,"level3":5,"pitch":34,"articulation":"collegno","articulation_tags":["collegno","cl","short"],"duration":1.0,"velocity":127.5}
{"position":279.1354166666667,"instrument":"Marimba","level2":15,"level3":2,"pitch":38,"articulation":"hits","articulation_tags":["hits","short"],"duration":0.25,"velocity":127.5}
{"position":279.3020833333333,"instrument":"Contrabass","level2":16,"level3":4,"pitch":33,"articulation":"pizzicato","articulation_tags":["pizzicato","pz","short"],"duration":1.0,"velocity":127.5}
{"position":279.4375,"instrument":"Cello","level2":14,"level3":6,"pitch":53,"articulation":"long_flt","articulation_tags":["long_flt","flt","long","flautando"],"duration":0.21875,"velocity":93.25429995587582}
{"position":279.4375,"instrument":"Cello","level2":13,"level3":3,"pitch":42,"articulation":"spiccato","articulation_tags":["spiccato","sp","short"],"duration":1.0,"velocity":110.22802845040653}
{"position":279.4895833333333,"instrument":"Contrabass","level2":16,"level3":5,"pitch":34,"articulation":"collegno","articulation_tags":["collegno","cl","short"],"duration":1.0,"velocity":127.5}
{"position":279.65625,"instrument":"Bassoon","level2":14,"level3":6,"pitch":53,"articulation":"trill_2m","articulation_tags":["trill_2m","long","trill","m2"],"duration":8.677083333333334,"velocity":93.25429995587582}
{"position":279.8645833333333,"instrument":"Cello","level2":13,"level3":5,"pitch":43,"articulation":"spiccato","articulation_tags":["spiccato","sp","short"],"duration":1.0,"velocity":110.22802845040653}
{"position":279.96875,"instrument":"Cello","level2":12,"level3":5,"pitch":38,"articulation":"short_hrm","articulation_tags":["short_hrm","hrm_s","short","harmonics"],"duration":1.0,"velocity":127.5}
{"position":280.0729166666667,"instrument":"Contrabass","level2":15,"level3":0,"pitch":38,"articulation":"collegno","articulation_tags":["collegno","cl","short"],"duration":1.0,"velocity":127.5}
{"position":280.0833333333333,"instrument":"TheGrandeurPiano","level2":15,"level3":null,"pitch":43,"articulation":"standard","articulation_tags":["standard","long"],"duration":1.0555555555555556,"velocity":113.07370750936433}
{"position":280.15625,"instrument":"Viola","level2":14,"level3":1,"pitch":53,"articulation":"tremolo","articulation_tags":["tremolo","tr","multi_note"],"duration":5.322916666666667,"velocity":93.25429995587582}
{"position":280.15625,"instrument":"Contrabass","level2":13,"level3":4,"pitch":45,"articulation":"spiccato","articulation_tags":["spiccato","sp","short"],"duration":1.0,"velocity":110.22802845040653}
{"position":280.2916666666667,"instrument":"Marimba","level2":15,"level3":3,"pitch":40,"articulation":"hits","articulation_tags":["hits","short"],"duration":0.25,"velocity":127.5}
{"position":280.3333333333333,"instrument":"Viola","level2":14,"level3":0,"pitch":56,"articulation":"long_cs","articulation_tags":["long_cs","cs","long","consordina"],"duration":5.96875,"velocity":93.25429995587582}
{"position":280.3333333333333,"instrument":"Contrabass","level2":16,"level3":3,"pitch":34,"articulation":"collegno","articulation_tags":["collegno","cl","short"],"duration":1.0,"velocity":127.5}
{"position":280.375,"instrument":"Marimba","level2":13,"level3":0,"pitch":46,"articulation":"hits","articulation_tags":["hits","short"],"duration":0.25,"velocity":110.22802845040653}
{"position":280.4895833333333,"instrument":"Contrabass","level2":12,"level3":6,"pitch":41,"articulation":"spiccato","articulation_tags":["spiccato","sp","short"],"duration":1.0,"velocity":127.5}
{"position":280.5520833333333,"instrument":"TheGrandeurPiano","level2":14,"level3":null,"pitch":58,"articulation":"standard","articulation_tags":["standard","long"],"duration":1.6180555555555556,"velocity":110.58305932998493}
{"position":280.7708333333333,"instrument":"TheGrandeurPiano","level2":13,"level3":null,"pitch":46,"articulation":"standard","articulation_tags":["standard","long"],"duration":1.4791666666666667,"velocity":111.94013095769438}
{"position":280.875,"instrument":"Marimba","level2":13,"level3":1,"pitch":41,"articulation":"hits","articulation_tags":["hits","short"],"duration":0.25,"velocity":110.9850926069606}
{"position":280.9479166666667,"instrument":"Marimba","level2":15,"level3":3,"pitch":40,"articulation":"hits","articulation_tags":["hits","short"],"duration":0.25,"velocity":127.5}
{"position":280.9895833333333,"instrument":"Cello","level2":13,"level3":2,"pitch":46,"articulation":"staccato","articulation_tags":["staccato","st","short"],"duration":1.0,"velocity":110.9850926069606}
{"position":281.34375,"instrument":"TheGrandeurPiano","level2":16,"level3":null,"pitch":33,"articulation":"standard","articulation_tags":["standard","long"],"duration":1.5196850393700787,"velocity":111.53503359182703}
{"position":281.5104166666667,"instrument":"Cello","level2":14,"level3":5,"pitch":53,"articulation":"long_flt","articulation_tags":["long_flt","flt","long","flautando"],"duration":6.427083333333333,"velocity":94.54703785183456}
{"position":281.5104166666667,"instrument":"Cello","level2":15,"level3":0,"pitch":38,"articulation":"collegno","articulation_tags":["collegno","cl","short"],"duration":1.0,"velocity":127.5}
{"position":281.6770833333333,"instrument":"Viola","level2":14,"level3":4,"pitch":54,"articulation":"long_cs","articulation_tags":["long_cs","cs","long","consordina"],"duration":6.666666666666667,"velocity":94.54703785183456}
{"position":281.78125,"instrument":"Contrabass","level2":16,"level3":4,"pitch":33,"articulation":"pizzicato","articulation_tags":["pizzicato","pz","short"],"duration":1.0,"velocity":127.5}
{"position":281.8229166666667,"instrument":"Contrabass","level2":16,"level3":2,"pitch":32,"articulation":"pizzicato","articulation_tags":["pizzicato","pz","short"],"duration":1.0,"velocity":127.5}
{"position":282.09375,"instrument":"Marimba","level2":14,"level3":5,"pitch":53,"articulation":"hits","articulation_tags":["hits","short"],"duration":0.25,"velocity":111.27351892591727}
{"position":282.2708333333333,"instrument":"TheGrandeurPiano","level2":15,"level3":null,"pitch":44,"articulation":"standard","articulation_tags":["standard","long"],"duration":1.6929133858267718,"velocity":114.55870281250793}
{"position":282.84375,"instrument":"Contrabass","level2":16,"level3":5,"pitch":34,"articulation":"collegno","articulation_tags":["collegno","cl","short"],"duration":1.0,"velocity":127.5}
{"position":282.9479166666667,"instrument":"Contrabass","level2":16,"level3":0,"pitch":32,"articulation":"pizzicato","articulation_tags":["pizzicato","pz","short"],"duration":1.0,"velocity":127.5}
{"position":282.9791666666667,"instrument":"TheGrandeurPiano","level2":14,"level3":null,"pitch":58,"articulation":"standard","articulation_tags":["standard","long"],"duration":1.8055555555555556,"velocity":112.69865976293704}
{"position":282.9895833333333,"instrument":"TheGrandeurPiano","level2":13,"level3":null,"pitch":46,"articulation":"standard","articulation_tags":["standard","long"],"duration":1.5138888888888888,"velocity":112.69865976293704}
{"position":283.0833333333333,"instrument":"Contrabass","level2":16,"level3":5,"pitch":34,"articulation":"collegno","articulation_tags":["collegno","cl","short"],"duration":1.0,"velocity":127.5}
{"position":283.4166666666667,"instrument":"Contrabass","level2":16,"level3":2,"pitch":33,"articulation":"pizzicato","articulation_tags":["pizzicato","pz","short"],"duration":1.0,"velocity":127.5}
{"position":283.4479166666667,"instrument":"Cello","level2":14,"level3":3,"pitch":53,"articulation":"legato","articulation_tags":["legato","lg"],"duration":5.9375,"velocity":95.84784011239853}
{"position":283.5520833333333,"instrument":"Cello","level2":14,"level3":4,"pitch":53,"articulation":"long_cs","articulation_tags":["long_cs","cs","long","consordina"],"duration":4.34375,"velocity":95.84784011239853}
{"position":283.6770833333333,"instrument":"Marimba","level2":13,"level3":0,"pitch":47,"articulation":"hits","articulation_tags":["hits","short"],"duration":0.25,"velocity":111.67671074396836}
{"position":283.8333333333333,"instrument":"Marimba","level2":15,"level3":1,"pitch":41,"articulation":"hits","articulation_tags":["hits","short"],"duration":0.25,"velocity":127.5}
{"position":283.96875,"instrument":"Clarinet","level2":14,"level3":2,"pitch":54,"articulation":"trill_2m","articulation_tags":["trill_2m","long","trill","m2"],"duration":8.947916666666666,"velocity":95.84784011239853}
{"position":284.1666666666667,"instrument":"Contrabass","level2":16,"level3":1,"pitch":34,"articulation":"collegno","articulation_tags":["collegno","cl","short"],"duration":1.0,"velocity":127.5}
{"position":284.1875,"instrument":"Marimba","level2":15,"level3":2,"pitch":38,"articulation":"hits","articulation_tags":["hits","short"],"duration":0.25,"velocity":127.5}
{"position":284.1875,"instrument":"Marimba","level2":13,"level3":3,"pitch":42,"articulation":"hits","articulation_tags":["hits","short"],"duration":0.25,"velocity":111.67671074396836}
{"position":284.5520833333333,"instrument":"Contrabass","level2":13,"level3":2,"pitch":46,"articulation":"spiccato","articulation_tags":["spiccato","sp","short"],"duration":1.0,"velocity":111.67671074396836}
{"position":284.625,"instrument":"Clarinet","level2":14,"level3":5,"pitch":53,"articulation":"trill_2m","articulation_tags":["trill_2m","long","trill","m2"],"duration":13.8125,"velocity":95.84784011239853}
{"position":284.78125,"instrument":"Contrabass","level2":16,"level3":0,"pitch":32,"articulation":"pizzicato","articulation_tags":["pizzicato","pz","short"],"duration":1.0,"velocity":127.5}
{"position":284.875,"instrument":"Marimba","level2":12,"level3":3,"pitch":38,"articulation":"hits","articulation_tags":["hits","short"],"duration":0.25,"velocity":127.5}
{"position":284.9583333333333,"instrument":"Marimba","level2":13,"level3":5,"pitch":43,"articulation":"hits","articulation_tags":["hits","short"],"duration":0.25,"velocity":111.67671074396836}
{"position":285.0729166666667,"instrument":"TheGrandeurPiano","level2":15,"level3":null,"pitch":45,"articulation":"standard","articulation_tags":["standard","long"],"duration":1.2222222222222223,"velocity":113.69537825874846}
{"position":285.25,"instrument":"Contrabass","level2":16,"level3":6,"pitch":33,"articulation":"collegno","articulation_tags":["collegno","cl","short"],"duration":1.0,"velocity":127.5}
{"position":285.25,"instrument":"Contrabass","level2":16,"level3":7,"pitch":33,"articulation":"collegno","articulation_tags":["collegno","cl","short"],"duration":1.0,"velocity":127.5}
{"position":285.2604166666667,"instrument":"TheGrandeurPiano","level2":13,"level3":null,"pitch":45,"articulation":"standard","articulation_tags":["standard","long"],"duration":1.5486111111111112,"velocity":111.94013095769438}
{"position":285.34375,"instrument":"Marimba","level2":13,"level3":4,"pitch":45,"articulation":"hits","articulation_tags":["hits","short"],"duration":0.25,"velocity":112.43527819460382}
{"position":285.4791666666667,"instrument":"Marimba","level2":13,"level3":6,"pitch":44,"articulation":"hits","articulation_tags":["hits","short"],"duration":0.25,"velocity":112.43527819460382}
{"position":285.4791666666667,"instrument":"Vibraphone","level2":14,"level3":1,"pitch":53,"articulation":"hits","articulation_tags":["hits","short"],"duration":0.25,"velocity":111.92392005619926}
{"position":285.6458333333333,"instrument":"Marimba","level2":15,"level3":3,"pitch":40,"articulation":"hits","articulation_tags":["hits","short"],"duration":0.25,"velocity":127.5}
{"position":285.6458333333333,"instrument":"Contrabass","level2":13,"level3":7,"pitch":44,"articulation":"spiccato","articulation_tags":["spiccato","sp","short"],"duration":1.0,"velocity":112.43527819460382}
{"position":285.6875,"instrument":"TheGrandeurPiano","level2":14,"level3":null,"pitch":58,"articulation":"standard","articulation_tags":["standard","long"],"duration":1.9133858267716535,"velocity":110.58305932998493}
{"position":285.7708333333333,"instrument":"TheGrandeurPiano","level2":15,"level3":null,"pitch":45,"articulation":"standard","articulation_tags":["standard","long"],"duration":1.7086614173228347,"velocity":113.57138174731348}
{"position":286.28125,"instrument":"TheGrandeurPiano","level2":16,"level3":null,"pitch":33,"articulation":"standard","articulation_tags":["standard","long"],"duration":1.5196850393700787,"velocity":109.48321891896626}
{"position":286.3020833333333,"instrument":"Marimba","level2":14,"level3":0,"pitch":56,"articulation":"hits","articulation_tags":["hits","short"],"duration":0.25,"velocity":112.57815948150346}
{"position":286.3958333333333,"instrument":"Contrabass","level2":16,"level3":4,"pitch":33,"articulation":"pizzicato","articulation_tags":["pizzicato","pz","short"],"duration":1.0,"velocity":127.5}
{"position":286.4166666666667,"instrument":"Marimba","level2":13,"level3":8,"pitch":44,"articulation":"hits","articulation_tags":["hits","short"],"duration":0.25,"velocity":112.43527819460382}
{"position":286.4166666666667,"instrument":"Contrabass","level2":13,"level3":9,"pitch":45,"articulation":"spiccato","articulation_tags":["spiccato","sp","short"],"duration":1.0,"velocity":112.43527819460382}
{"position":286.4166666666667,"instrument":"Contrabass","level2":15,"level3":2,"pitch":37,"articulation":"collegno","articulation_tags":["collegno","cl","short"],"duration":1.0,"velocity":127.48821619297269}
{"position":286.6979166666667,"instrument":"Marimba","level2":13,"level3":7,"pitch":43,"articulation":"hits","articulation_tags":["hits","short"],"duration":0.25,"velocity":112.43527819460382}
{"position":286.8854166666667,"instrument":"Contrabass","level2":16,"level3":6,"pitch":33,"articulation":"pizzicato","articulation_tags":["pizzicato","pz","short"],"duration":1.0,"velocity":127.5}
{"position":286.8958333333333,"instrument":"Marimba","level2":14,"level3":2,"pitch":54,"articulation":"hits","articulation_tags":["hits","short"],"duration":0.25,"velocity":112.57815948150346}
{"position":287.15625,"instrument":"Marimba","level2":13,"level3":1,"pitch":41,"articulation":"hits","articulation_tags":["hits","short"],"duration":0.25,"velocity":112.43527819460382}
{"position":287.2395833333333,"instrument":"Marimba","level2":12,"level3":2,"pitch":38,"articulation":"hits","articulation_tags":["hits","short"],"duration":0.25,"velocity":127.5}
{"position":287.5833333333333,"instrument":"TheGrandeurPiano","level2":13,"level3":null,"pitch":45,"articulation":"standard","articulation_tags":["standard","long"],"duration":1.5763888888888888,"velocity":111.53503359182703}
{"position":287.6770833333333,"instrument":"Contrabass","level2":16,"level3":5,"pitch":35,"articulation":"collegno","articulation_tags":["collegno","cl","short"],"duration":1.0,"velocity":127.5}
{"position":287.6875,"instrument":"Contrabass","level2":16,"level3":4,"pitch":34,"articulation":"pizzicato","articulation_tags":["pizzicato","pz","short"],"duration":1.0,"velocity":127.5}
{"position":287.8229166666667,"instrument":"Marimba","level2":15,"level3":0,"pitch":38,"articulation":"hits","articulation_tags":["hits","short"],"duration":0.25,"velocity":126.96714385470224}
{"position":287.8958333333333,"instrument":"Marimba","level2":14,"level3":4,"pitch":53,"articulation":"hits","articulation_tags":["hits","short"],"duration":0.25,"velocity":112.19841378329886}
{"position":287.9375,"instrument":"Viola","level2":14,"level3":5,"pitch":52,"articulation":"long_flt","articulation_tags":["long_flt","flt","long","flautando"],"duration":8.5625,"velocity":96.39682756659774}
{"position":288.1770833333333,"instrument":"Marimba","level2":13,"level3":4,"pitch":45,"articulation":"hits","articulation_tags":["hits","short"],"duration":0.25,"velocity":113.19392674063258}
{"position":288.3229166666667,"instrument":"Bassoon","level2":14,"level3":6,"pitch":53,"articulation":"trill_2m","articulation_tags":["trill_2m","long","trill","m2"],"duration":0.020833333333333332,"velocity":96.39682756659774}
{"position":288.375,"instrument":"Bassoon","level2":16,"level3":8,"pitch":35,"articulation":"staccato","articulation_tags":["staccato","st","short"],"duration":0.25,"velocity":127.5}
{"position":288.375,"instrument":"Contrabass","level2":16,"level3":9,"pitch":35,"articulation":"collegno","articulation_tags":["collegno","cl","short"],"duration":1.0,"velocity":127.5}
{"position":288.4479166666667,"instrument":"Contrabass","level2":16,"level3":9,"pitch":35,"articulation":"collegno","articulation_tags":["collegno","cl","short"],"duration":1.0,"velocity":127.5}
{"position":288.7291666666667,"instrument":"TheGrandeurPiano","level2":14,"level3":null,"pitch":59,"articulation":"standard","articulation_tags":["standard","long"],"duration":1.9291338582677164,"velocity":108.08994843896522}
{"position":288.8125,"instrument":"TheGrandeurPiano","level2":15,"level3":null,"pitch":46,"articulation":"standard","articulation_tags":["standard","long"],"duration":1.3263888888888888,"velocity":108.08994843896522}
{"position":289.21875,"instrument":"Bassoon","level2":13,"level3":6,"pitch":45,"articulation":"legato","articulation_tags":["legato","lg"],"duration":4.59375,"velocity":98.38785348126517}
{"position":289.21875,"instrument":"Marimba","level2":13,"level3":7,"pitch":43,"articulation":"hits","articulation_tags":["hits","short"],"duration":0.25,"velocity":113.19392674063258}
{"position":289.2395833333333,"instrument":"Marimba","level2":13,"level3":2,"pitch":46,"articulation":"hits","articulation_tags":["hits","short"],"duration":0.25,"velocity":113.19392674063258}
{"position":289.3333333333333,"instrument":"Contrabass","level2":12,"level3":3,"pitch":37,"articulation":"short_hrm","articulation_tags":["short_hrm","hrm_s","short","harmonics"],"duration":1.0,"velocity":127.5}
{"position":289.3541666666667,"instrument":"Contrabass","level2":13,"level3":0,"pitch":47,"articulation":"staccato","articulation_tags":["staccato","st","short"],"duration":1.0,"velocity":113.19392674063258}
{"position":289.3854166666667,"instrument":"Viola","level2":14,"level3":3,"pitch":52,"articulation":"legato","articulation_tags":["legato","lg"],"duration":6.8125,"velocity":97.72484653687603}
{"position":289.4479166666667,"instrument":"TheGrandeurPiano","level2":15,"level3":null,"pitch":46,"articulation":"standard","articulation_tags":["standard","long"],"duration":1.7244094488188977,"velocity":107.66783797332214}
{"position":289.5729166666667,"instrument":"Contrabass","level2":16,"level3":7,"pitch":34,"articulation":"collegno","articulation_tags":["collegno","cl","short"],"duration":1.0,"velocity":127.5}
{"position":289.71875,"instrument":"Marimba","level2":14,"level3":0,"pitch":55,"articulation":"hits","articulation_tags":["hits","short"],"duration":0.25,"velocity":112.86242326843802}
{"position":289.7395833333333,"instrument":"Contrabass","level2":16,"level3":6,"pitch":33,"articulation":"pizzicato","articulation_tags":["pizzicato","pz","short"],"duration":1.0,"velocity":127.5}
{"position":289.7708333333333,"instrument":"Marimba","level2":14,"level3":7,"pitch":55,"articulation":"hits","articulation_tags":["hits","short"],"duration":0.25,"velocity":112.86242326843802}
{"position":289.7708333333333,"instrument":"Marimba","level2":14,"level3":8,"pitch":55,"articulation":"hits","articulation_tags":["hits","short"],"duration":0.25,"velocity":112.86242326843802}
{"position":289.78125,"instrument":"Marimba","level2":14,"level3":7,"pitch":55,"articulation":"hits","articulation_tags":["hits","short"],"duration":0.25,"velocity":112.86242326843802}
{"position":289.8854166666667,"instrument":"Marimba","level2":14,"level3":7,"pitch":55,"articulation":"hits","articulation_tags":["hits","short"],"duration":0.25,"velocity":112.86242326843802}
{"position":289.9375,"instrument":"TheGrandeurPiano","level2":13,"level3":null,"pitch":44,"articulation":"standard","articulation_tags":["standard","long"],"duration":1.5972222222222223,"velocity":103.77754699016697}
{"position":290.3229166666667,"instrument":"Marimba","level2":14,"level3":8,"pitch":55,"articulation":"hits","articulation_tags":["hits","short"],"duration":0.25,"velocity":112.86242326843802}
{"position":290.46875,"instrument":"Contrabass","level2":16,"level3":2,"pitch":33,"articulation":"pizzicato","articulation_tags":["pizzicato","pz","short"],"duration":1.0,"velocity":127.5}
{"position":290.5729166666667,"instrument":"Marimba","level2":13,"level3":3,"pitch":42,"articulation":"hits","articulation_tags":["hits","short"],"duration":0.25,"velocity":113.95265198260223}
{"position":290.8020833333333,"instrument":"Marimba","level2":15,"level3":2,"pitch":37,"articulation":"hits","articulation_tags":["hits","short"],"duration":0.25,"velocity":125.95893686707713}
{"position":290.8020833333333,"instrument":"TheGrandeurPiano","level2":15,"level3":null,"pitch":46,"articulation":"standard","articulation_tags":["standard","long"],"duration":1.3888888888888888,"velocity":104.80250721000527}
{"position":291.1875,"instrument":"Marimba","level2":13,"level3":5,"pitch":43,"articulation":"hits","articulation_tags":["hits","short"],"duration":0.25,"velocity":113.95265198260223}
{"position":291.375,"instrument":"Marimba","level2":14,"level3":7,"pitch":55,"articulation":"hits","articulation_tags":["hits","short"],"duration":0.25,"velocity":112.86242326843802}
{"position":291.4583333333333,"instrument":"Marimba","level2":13,"level3":5,"pitch":43,"articulation":"hits","articulation_tags":["hits","short"],"duration":0.25,"velocity":113.95265198260223}
{"position":291.5416666666667,"instrument":"Vibraphone","level2":14,"level3":8,"pitch":54,"articulation":"hits","articulation_tags":["hits","short"],"duration":0.25,"velocity":112.86242326843802}
{"position":291.7395833333333,"instrument":"Marimba","level2":14,"level3":1,"pitch":52,"articulation":"hits","articulation_tags":["hits","short"],"duration":0.25,"velocity":112.86242326843802}
{"position":291.9270833333333,"instrument":"Marimba","level2":15,"level3":1,"pitch":42,"articulation":"hits","articulation_tags":["hits","short"],"duration":0.25,"velocity":125.4422359671411}
{"position":292.21875,"instrument":"TheGrandeurPiano","level2":14,"level3":null,"pitch":59,"articulation":"standard","articulation_tags":["standard","long"],"duration":1.9291338582677164,"velocity":105.95959192632614}
{"position":292.34375,"instrument":"TheGrandeurPiano","level2":13,"level3":null,"pitch":44,"articulation":"standard","articulation_tags":["standard","long"],"duration":1.6180555555555556,"velocity":102.59130939559059}
{"position":292.5833333333333,"instrument":"Marimba","level2":13,"level3":2,"pitch":46,"articulation":"hits","articulation_tags":["hits","short"],"duration":0.25,"velocity":114.71144983323799}
{"position":292.59375,"instrument":"Marimba","level2":15,"level3":3,"pitch":41,"articulation":"hits","articulation_tags":["hits","short"],"duration":0.25,"velocity":125.4422359671411}
{"position":292.8854166666667,"instrument":"TheGrandeurPiano","level2":15,"level3":null,"pitch":47,"articulation":"standard","articulation_tags":["standard","long"],"duration":1.4513888888888888,"velocity":104.94796595976241}
{"position":292.90625,"instrument":"Clarinet","level2":14,"level3":2,"pitch":54,"articulation":"trill_2m","articulation_tags":["trill_2m","long","trill","m2"],"duration":15.760416666666666,"velocity":99.05950470518809}
{"position":293.1041666666667,"instrument":"Marimba","level2":15,"level3":4,"pitch":40,"articulation":"hits","articulation_tags":["hits","short"],"duration":0.25,"velocity":124.93037605336244}
{"position":293.1041666666667,"instrument":"Marimba","level2":15,"level3":4,"pitch":40,"articulation":"hits","articulation_tags":["hits","short"],"duration":0.25,"velocity":124.93037605336244}
{"position":293.1041666666667,"instrument":"Marimba","level2":15,"level3":5,"pitch":40,"articulation":"hits","articulation_tags":["hits","short"],"duration":0.25,"velocity":124.93037605336244}
{"position":293.1354166666667,"instrument":"Marimba","level2":15,"level3":4,"pitch":40,"articulation":"hits","articulation_tags":["hits","short"],"duration":0.25,"velocity":124.93037605336244}
{"position":293.1458333333333,"instrument":"Marimba","level2":13,"level3":1,"pitch":42,"articulation":"hits","articulation_tags":["hits","short"],"duration":0.25,"velocity":114.71144983323799}
{"position":293.5833333333333,"instrument":"Marimba","level2":14,"level3":3,"pitch":52,"articulation":"hits","articulation_tags":["hits","short"],"duration":0.25,"velocity":113.52975235259404}
{"position":293.6354166666667,"instrument":"Marimba","level2":12,"level3":5,"pitch":38,"articulation":"hits","articulation_tags":["hits","short"],"duration":0.25,"velocity":127.5}
{"position":293.6770833333333,"instrument":"Contrabass","level2":13,"level3":0,"pitch":47,"articulation":"staccato","articulation_tags":["staccato","st","short"],"duration":1.0,"velocity":114.71144983323799}
{"position":293.8125,"instrument":"Bassoon","level2":13,"level3":6,"pitch":46,"articulation":"legato","articulation_tags":["legato","lg"],"duration":7.59375,"velocity":101.42289966647598}
{"position":293.9375,"instrument":"Marimba","level2":14,"level3":0,"pitch":55,"articulation":"hits","articulation_tags":["hits","short"],"duration":0.25,"velocity":113.52975235259404}
{"position":294.0208333333333,"instrument":"TheGrandeurPiano","level2":16,"level3":null,"pitch":33,"articulation":"standard","articulation_tags":["standard","long"],"duration":1.5196850393700787,"velocity":104.80250721000527}
{"position":294.09375,"instrument":"Marimba","level2":13,"level3":1,"pitch":42,"articulation":"hits","articulation_tags":["hits","short"],"duration":0.25,"velocity":114.71144983323799}
{"position":294.2083333333333,"instrument":"Marimba","level2":13,"level3":6,"pitch":46,"articulation":"hits","articulation_tags":["hits","short"],"duration":0.25,"velocity":114.71144983323799}
{"position":294.2708333333333,"instrument":"Vibraphone","level2":14,"level3":2,"pitch":54,"articulation":"hits","articulation_tags":["hits","short"],"duration":0.25,"velocity":113.52975235259404}
{"position":294.3125,"instrument":"Vibraphone","level2":14,"level3":7,"pitch":55,"articulation":"hits","articulation_tags":["hits","short"],"duration":0.25,"velocity":113.52975235259404}
{"position":294.75,"instrument":"Marimba","level2":13,"level3":7,"pitch":43,"articulation":"hits","articulation_tags":["hits","short"],"duration":0.25,"velocity":114.71144983323799}
{"position":294.7708333333333,"instrument":"TheGrandeurPiano","level2":13,"level3":null,"pitch":43,"articulation":"standard","articulation_tags":["standard","long"],"duration":1.6319444444444444,"velocity":107.66783797332214}
{"position":294.9270833333333,"instrument":"Contrabass","level2":16,"level3":6,"pitch":33,"articulation":"pizzicato","articulation_tags":["pizzicato","pz","short"],"duration":1.0,"velocity":127.5}
{"position":294.96875,"instrument":"Marimba","level2":12,"level3":6,"pitch":41,"articulation":"hits","articulation_tags":["hits","short"],"duration":0.25,"velocity":127.5}
{"position":295.0625,"instrument":"TheGrandeurPiano","level2":15,"level3":null,"pitch":47,"articulation":"standard","articulation_tags":["standard","long"],"duration":1.5138888888888888,"velocity":107.66783797332214}
{"position":295.1041666666667,"instrument":"Marimba","level2":14,"level3":8,"pitch":54,"articulation":"hits","articulation_tags":["hits","short"],"duration":0.25,"velocity":113.52975235259404}
{"position":295.1145833333333,"instrument":"Contrabass","level2":16,"level3":7,"pitch":34,"articulation":"collegno","articulation_tags":["collegno","cl","short"],"duration":1.0,"velocity":127.5}
{"position":295.34375,"instrument":"Marimba","level2":15,"level3":5,"pitch":41,"articulation":"hits","articulation_tags":["hits","short"],"duration":0.25,"velocity":123.9217855554297}
{"position":295.40625,"instrument":"Marimba","level2":14,"level3":8,"pitch":54,"articulation":"hits","articulation_tags":["hits","short"],"duration":0.25,"velocity":113.52975235259404}
{"position":295.96875,"instrument":"Marimba","level2":12,"level3":4,"pitch":40,"articulation":"hits","articulation_tags":["hits","short"],"duration":0.25,"velocity":127.5}
{"position":296.0,"instrument":"Marimba","level2":15,"level3":4,"pitch":40,"articulation":"hits","articulation_tags":["hits","short"],"duration":0.25,"velocity":123.9217855554297}
{"position":296.1770833333333,"instrument":"Contrabass","level2":16,"level3":1,"pitch":35,"articulation":"collegno","articulation_tags":["collegno","cl","short"],"duration":1.0,"velocity":127.5}
{"position":296.1979166666667,"instrument":"Marimba","level2":14,"level3":3,"pitch":52,"articulation":"hits","articulation_tags":["hits","short"],"duration":0.25,"velocity":113.52975235259404}
{"position":296.3020833333333,"instrument":"TheGrandeurPiano","level2":14,"level3":null,"pitch":59,"articulation":"standard","articulation_tags":["standard","long"],"duration":1.9291338582677164,"velocity":109.48321891896626}
{"position":296.4270833333333,"instrument":"CorAnglais","level2":14,"level3":1,"pitch":52,"articulation":"trill_2m","articulation_tags":["trill_2m","long","trill","m2"],"duration":13.21875,"velocity":100.40048710735569}
{"position":296.46875,"instrument":"Marimba","level2":13,"level3":9,"pitch":45,"articulation":"hits","articulation_tags":["hits","short"],"duration":0.25,"velocity":115.47031649026962}
{"position":296.5,"instrument":"Marimba","level2":14,"level3":5,"pitch":52,"articulation":"hits","articulation_tags":["hits","short"],"duration":0.25,"velocity":114.20024355367784}
{"position":297.0625,"instrument":"Marimba","level2":15,"level3":0,"pitch":38,"articulation":"hits","articulation_tags":["hits","short"],"duration":0.25,"velocity":123.9217855554297}
{"position":297.1041666666667,"instrument":"Marimba","level2":13,"level3":0,"pitch":47,"articulation":"hits","articulation_tags":["hits","short"],"duration":0.25,"velocity":115.47031649026962}
{"position":297.1354166666667,"instrument":"Contrabass","level2":16,"level3":3,"pitch":36,"articulation":"collegno","articulation_tags":["collegno","cl","short"],"duration":1.0,"velocity":127.5}
{"position":297.1458333333333,"instrument":"Cello","level2":15,"level3":5,"pitch":41,"articulation":"collegno","articulation_tags":["collegno","cl","short"],"duration":1.0,"velocity":123.9217855554297}
{"position":297.1666666666667,"instrument":"Contrabass","level2":13,"level3":4,"pitch":45,"articulation":"spiccato","articulation_tags":["spiccato","sp","short"],"duration":1.0,"velocity":115.47031649026962}
{"position":297.2083333333333,"instrument":"TheGrandeurPiano","level2":16,"level3":null,"pitch":33,"articulation":"standard","articulation_tags":["standard","long"],"duration":1.5196850393700787,"velocity":110.58305932998493}
{"position":297.2291666666667,"instrument":"TheGrandeurPiano","level2":13,"level3":null,"pitch":43,"articulation":"standard","articulation_tags":["standard","long"],"duration":1.6458333333333333,"velocity":110.58305932998493}
{"position":297.5625,"instrument":"Marimba","level2":13,"level3":9,"pitch":45,"articulation":"hits","articulation_tags":["hits","short"],"duration":0.25,"velocity":116.22924841204448}
{"position":297.71875,"instrument":"Marimba","level2":13,"level3":3,"pitch":42,"articulation":"hits","articulation_tags":["hits","short"],"duration":0.25,"velocity":116.22924841204448}
{"position":297.75,"instrument":"Cello","level2":15,"level3":4,"pitch":39,"articulation":"collegno","articulation_tags":["collegno","cl","short"],"duration":1.0,"velocity":122.91319726838968}
{"position":298.0729166666667,"instrument":"Marimba","level2":13,"level3":3,"pitch":42,"articulation":"hits","articulation_tags":["hits","short"],"duration":0.25,"velocity":116.22924841204448}
{"position":298.125,"instrument":"Marimba","level2":14,"level3":0,"pitch":55,"articulation":"hits","articulation_tags":["hits","short"],"duration":0.25,"velocity":114.20024355367784}
{"position":298.4375,"instrument":"Clarinet","level2":14,"level3":5,"pitch":52,"articulation":"trill_2m","articulation_tags":["trill_2m","long","trill","m2"],"duration":6.270833333333333,"velocity":100.40048710735569}
{"position":298.6041666666667,"instrument":"Marimba","level2":14,"level3":7,"pitch":55,"articulation":"hits","articulation_tags":["hits","short"],"duration":0.25,"velocity":114.20024355367784}
{"position":298.6458333333333,"instrument":"Marimba","level2":14,"level3":1,"pitch":52,"articulation":"hits","articulation_tags":["hits","short"],"duration":0.25,"velocity":114.20024355367784}
{"position":298.7708333333333,"instrument":"Contrabass","level2":16,"level3":0,"pitch":33,"articulation":"pizzicato_bartok","articulation_tags":["pizzicato_bartok","pzb","short","pizzicato","bartok"],"duration":1.0,"velocity":127.5}
{"position":298.7916666666667,"instrument":"Cello","level2":15,"level3":2,"pitch":37,"articulation":"pizzicato","articulation_tags":["pizzicato","pz","short"],"duration":1.0,"velocity":122.91319726838968}
{"position":298.96875,"instrument":"Contrabass","level2":16,"level3":4,"pitch":35,"articulation":"pizzicato","articulation_tags":["pizzicato","pz","short"],"duration":1.0,"velocity":127.5}
{"position":299.1770833333333,"instrument":"TheGrandeurPiano","level2":14,"level3":null,"pitch":59,"articulation":"standard","articulation_tags":["standard","long"],"duration":1.9291338582677164,"velocity":115.89931998829564}
{"position":299.34375,"instrument":"Cello","level2":13,"level3":2,"pitch":46,"articulation":"spiccato","articulation_tags":["spiccato","sp","short"],"duration":1.0,"velocity":116.22924841204448}
{"position":299.4166666666667,"instrument":"Contrabass","level2":16,"level3":11,"pitch":34,"articulation":"collegno","articulation_tags":["collegno","cl","short"],"duration":1.0,"velocity":127.5}
{"position":299.4895833333333,"instrument":"Cello","level2":13,"level3":5,"pitch":43,"articulation":"short_hrm","articulation_tags":["short_hrm","hrm_s","short","harmonics"],"duration":1.0,"velocity":116.22924841204448}
{"position":299.6979166666667,"instrument":"TheGrandeurPiano","level2":13,"level3":null,"pitch":42,"articulation":"standard","articulation_tags":["standard","long"],"duration":1.6527777777777777,"velocity":115.65699875854901}
{"position":299.6979166666667,"instrument":"TheGrandeurPiano","level2":15,"level3":null,"pitch":48,"articulation":"standard","articulation_tags":["standard","long"],"duration":1.6458333333333333,"velocity":115.65699875854901}
{"position":299.7395833333333,"instrument":"Contrabass","level2":16,"level3":6,"pitch":34,"articulation":"pizzicato","articulation_tags":["pizzicato","pz","short"],"duration":1.0,"velocity":127.5}
{"position":299.9270833333333,"instrument":"Contrabass","level2":16,"level3":5,"pitch":36,"articulation":"collegno","articulation_tags":["collegno","cl","short"],"duration":1.0,"velocity":127.5}
{"position":300.1770833333333,"instrument":"Contrabass","level2":16,"level3":9,"pitch":35,"articulation":"collegno","articulation_tags":["collegno","cl","short"],"duration":1.0,"velocity":127.5}
{"position":300.2083333333333,"instrument":"Cello","level2":14,"level3":2,"pitch":53,"articulation":"long_hrm","articulation_tags":["long_hrm","hrm","long","harmonics"],"duration":4.84375,"velocity":99.69811300620447}
{"position":300.5,"instrument":"Cello","level2":14,"level3":8,"pitch":53,"articulation":"long_slt","articulation_tags":["long_slt","slt","long","sultasto"],"duration":6.197916666666667,"velocity":99.69811300620447}
{"position":300.78125,"instrument":"Contrabass","level2":16,"level3":4,"pitch":35,"articulation":"pizzicato","articulation_tags":["pizzicato","pz","short"],"duration":1.0,"velocity":127.5}
{"position":300.8125,"instrument":"Cello","level2":15,"level3":5,"pitch":41,"articulation":"collegno","articulation_tags":["collegno","cl","short"],"duration":1.0,"velocity":122.40622151274492}
{"position":301.0416666666667,"instrument":"Contrabass","level2":16,"level3":11,"pitch":34,"articulation":"collegno","articulation_tags":["collegno","cl","short"],"duration":1.0,"velocity":127.5}
{"position":301.0729166666667,"instrument":"Cello","level2":15,"level3":3,"pitch":41,"articulation":"collegno","articulation_tags":["collegno","cl","short"],"duration":1.0,"velocity":122.40622151274492}
{"position":301.34375,"instrument":"TheGrandeurPiano","level2":15,"level3":null,"pitch":48,"articulation":"standard","articulation_tags":["standard","long"],"duration":1.7559055118110236,"velocity":118.40692667657208}
{"position":301.3541666666667,"instrument":"TheGrandeurPiano","level2":14,"level3":null,"pitch":59,"articulation":"standard","articulation_tags":["standard","long"],"duration":1.9291338582677164,"velocity":118.40692667657208}
{"position":301.40625,"instrument":"Contrabass","level2":13,"level3":6,"pitch":46,"articulation":"spiccato","articulation_tags":["spiccato","sp","short"],"duration":1.0,"velocity":116.98824229559992}
{"position":301.4270833333333,"instrument":"Bassoon","level2":15,"level3":1,"pitch":42,"articulation":"staccato","articulation_tags":["staccato","st","short"],"duration":0.25,"velocity":121.90461133486464}
{"position":301.5520833333333,"instrument":"Contrabass","level2":16,"level3":7,"pitch":34,"articulation":"collegno","articulation_tags":["collegno","cl","short"],"duration":1.0,"velocity":127.5}
{"position":301.625,"instrument":"Viola","level2":14,"level3":7,"pitch":55,"articulation":"long_cs","articulation_tags":["long_cs","cs","long","consordina"],"duration":9.291666666666666,"velocity":101.0562469462394}
{"position":301.78125,"instrument":"Contrabass","level2":12,"level3":3,"pitch":37,"articulation":"spiccato","articulation_tags":["spiccato","sp","short"],"duration":1.0,"velocity":127.5}
{"position":301.7916666666667,"instrument":"Bassoon","level2":13,"level3":7,"pitch":43,"articulation":"legato","articulation_tags":["legato","lg"],"duration":12.916666666666666,"velocity":105.97648459119982}
{"position":301.84375,"instrument":"Cello","level2":13,"level3":1,"pitch":42,"articulation":"short_hrm","articulation_tags":["short_hrm","hrm_s","short","harmonics"],"duration":1.0,"velocity":116.98824229559992}
{"position":302.125,"instrument":"Contrabass","level2":16,"level3":2,"pitch":34,"articulation":"pizzicato","articulation_tags":["pizzicato","pz","short"],"duration":1.0,"velocity":127.5}
{"position":302.1666666666667,"instrument":"TheGrandeurPiano","level2":15,"level3":null,"pitch":49,"articulation":"standard","articulation_tags":["standard","long"],"duration":1.7152777777777777,"velocity":118.52471160342667}
{"position":302.25,"instrument":"Cello","level2":15,"level3":4,"pitch":39,"articulation":"collegno","articulation_tags":["collegno","cl","short"],"duration":1.0,"velocity":121.39757850183545}
{"position":302.5520833333333,"instrument":"Contrabass","level2":16,"level3":4,"pitch":35,"articulation":"pizzicato","articulation_tags":["pizzicato","pz","short"],"duration":1.0,"velocity":127.5}
{"position":302.6041666666667,"instrument":"Contrabass","level2":16,"level3":9,"pitch":35,"articulation":"pizzicato","articulation_tags":["pizzicato","pz","short"],"duration":1.0,"velocity":127.5}
{"position":302.84375,"instrument":"Contrabass","level2":16,"level3":5,"pitch":36,"articulation":"collegno","articulation_tags":["collegno","cl","short"],"duration":1.0,"velocity":127.5}
{"position":302.9895833333333,"instrument":"ContrabassTrombone","level2":16,"level3":1,"pitch":35,"articulation":"staccato","articulation_tags":["staccato","st","short"],"duration":1.0,"velocity":127.5}
{"position":303.0625,"instrument":"Cello","level2":13,"level3":6,"pitch":46,"articulation":"spiccato","articulation_tags":["spiccato","sp","short"],"duration":1.0,"velocity":117.74729505691023}
{"position":303.3958333333333,"instrument":"Contrabass","level2":16,"level3":1,"pitch":36,"articulation":"collegno","articulation_tags":["collegno","cl","short"],"duration":1.0,"velocity":127.5}
{"position":303.4479166666667,"instrument":"TheGrandeurPiano","level2":13,"level3":null,"pitch":42,"articulation":"standard","articulation_tags":["standard","long"],"duration":1.6614173228346456,"velocity":120.27454672327845}
{"position":303.46875,"instrument":"TenorTrombone","level2":16,"level3":7,"pitch":34,"articulation":"staccato","articulation_tags":["staccato","st","short"],"duration":1.0,"velocity":127.5}
{"position":303.6666666666667,"instrument":"Cello","level2":13,"level3":5,"pitch":44,"articulation":"short_hrm","articulation_tags":["short_hrm","hrm_s","short","harmonics"],"duration":1.0,"velocity":117.80419076818299}
{"position":303.8125,"instrument":"Contrabass","level2":16,"level3":3,"pitch":36,"articulation":"collegno","articulation_tags":["collegno","cl","short"],"duration":1.0,"velocity":127.5}
{"position":303.8854166666667,"instrument":"Contrabass","level2":16,"level3":3,"pitch":36,"articulation":"collegno","articulation_tags":["collegno","cl","short"],"duration":1.0,"velocity":127.5}
{"position":304.0833333333333,"instrument":"Cello","level2":13,"level3":0,"pitch":47,"articulation":"spiccato","articulation_tags":["spiccato","sp","short"],"duration":1.0,"velocity":117.80419076818299}
{"position":304.125,"instrument":"Viola","level2":14,"level3":3,"pitch":51,"articulation":"long_slt","articulation_tags":["long_slt","slt","long","sultasto"],"duration":9.9375,"velocity":101.0562469462394}
{"position":304.2291666666667,"instrument":"TheGrandeurPiano","level2":12,"level3":null,"pitch":33,"articulation":"standard","articulation_tags":["standard","long"],"duration":1.5196850393700787,"velocity":120.27454672327845}
{"position":304.4791666666667,"instrument":"Viola","level2":14,"level3":7,"pitch":55,"articulation":"long_hrm","articulation_tags":["long_hrm","hrm","long","harmonics"],"duration":8.260416666666666,"velocity":101.0562469462394}
{"position":304.5104166666667,"instrument":"ContrabassTrombone","level2":12,"level3":2,"pitch":38,"articulation":"legato","articulation_tags":["legato","lg"],"duration":9.833333333333334,"velocity":127.0}
{"position":304.6458333333333,"instrument":"TheGrandeurPiano","level2":13,"level3":null,"pitch":41,"articulation":"standard","articulation_tags":["standard","long"],"duration":1.6456692913385826,"velocity":121.1951714797035}
{"position":304.7083333333333,"instrument":"Tuba","level2":14,"level3":5,"pitch":52,"articulation":"multitongue","articulation_tags":["multitongue","short"],"duration":1.0,"velocity":114.5281234731197}
{"position":304.8229166666667,"instrument":"Contrabass","level2":16,"level3":0,"pitch":34,"articulation":"pizzicato_bartok","articulation_tags":["pizzicato_bartok","pzb","short","pizzicato","bartok"],"duration":1.0,"velocity":127.5}
{"position":304.9166666666667,"instrument":"Marimba","level2":14,"level3":0,"pitch":55,"articulation":"hits","articulation_tags":["hits","short"],"duration":0.25,"velocity":114.5281234731197}
{"position":305.0416666666667,"instrument":"Cello","level2":14,"level3":2,"pitch":53,"articulation":"long_hrm","articulation_tags":["long_hrm","hrm","long","harmonics"],"duration":3.6458333333333335,"velocity":101.0562469462394}
{"position":305.1666666666667,"instrument":"Cello","level2":13,"level3":2,"pitch":46,"articulation":"spiccato","articulation_tags":["spiccato","sp","short"],"duration":1.0,"velocity":118.56237195985221}
{"position":305.28125,"instrument":"Marimba","level2":14,"level3":0,"pitch":54,"articulation":"hits","articulation_tags":["hits","short"],"duration":0.25,"velocity":114.5281234731197}
{"position":305.5520833333333,"instrument":"TheGrandeurPiano","level2":15,"level3":null,"pitch":49,"articulation":"standard","articulation_tags":["standard","long"],"duration":1.7716535433070866,"velocity":120.27454672327845}
{"position":305.6041666666667,"instrument":"Contrabass","level2":16,"level3":6,"pitch":34,"articulation":"pizzicato","articulation_tags":["pizzicato","pz","short"],"duration":1.0,"velocity":127.5}
{"position":305.65625,"instrument":"Contrabass","level2":16,"level3":2,"pitch":34,"articulation":"pizzicato","articulation_tags":["pizzicato","pz","short"],"duration":1.0,"velocity":127.5}
{"position":305.8541666666667,"instrument":"TenorTrombone","level2":13,"level3":3,"pitch":42,"articulation":"sforzando","articulation_tags":["sforzando","sfz","long"],"duration":9.916666666666666,"velocity":109.12474391970443}
{"position":306.34375,"instrument":"Cello","level2":13,"level3":10,"pitch":45,"articulation":"spiccato","articulation_tags":["spiccato","sp","short"],"duration":1.0,"velocity":118.56237195985221}
{"position":306.34375,"instrument":"Cello","level2":13,"level3":11,"pitch":44,"articulation":"spiccato","articulation_tags":["spiccato","sp","short"],"duration":1.0,"velocity":118.56237195985221}
{"position":306.3645833333333,"instrument":"Viola","level2":14,"level3":1,"pitch":51,"articulation":"legato","articulation_tags":["legato","lg"],"duration":8.916666666666666,"velocity":101.0562469462394}
{"position":306.6875,"instrument":"Tuba","level2":14,"level3":8,"pitch":53,"articulation":"multitongue","articulation_tags":["multitongue","short"],"duration":1.0,"velocity":114.5281234731197}
{"position":306.8229166666667,"instrument":"Marimba","level2":14,"level3":3,"pitch":51,"articulation":"hits","articulation_tags":["hits","short"],"duration":0.25,"velocity":114.5281234731197}
{"position":306.9583333333333,"instrument":"TenorTrombone","level2":13,"level3":10,"pitch":45,"articulation":"sforzando","articulation_tags":["sforzando","sfz","long"],"duration":7.375,"velocity":109.12474391970443}
{"position":307.1145833333333,"instrument":"TheGrandeurPiano","level2":13,"level3":null,"pitch":41,"articulation":"standard","articulation_tags":["standard","long"],"duration":1.6319444444444444,"velocity":122.10733018170909}
{"position":307.2708333333333,"instrument":"FrenchHorn","level2":13,"level3":1,"pitch":42,"articulation":"sforzando","articulation_tags":["sforzando","sfz","long"],"duration":7.78125,"velocity":110.64127225582496}
{"position":307.28125,"instrument":"TheGrandeurPiano","level2":16,"level3":null,"pitch":33,"articulation":"standard","articulation_tags":["standard","long"],"duration":1.3611111111111112,"velocity":122.22076628629651}
{"position":307.4270833333333,"instrument":"TheGrandeurPiano","level2":15,"level3":null,"pitch":50,"articulation":"standard","articulation_tags":["standard","long"],"duration":1.7874015748031495,"velocity":122.5603068398297}
{"position":307.8229166666667,"instrument":"Cello","level2":15,"level3":0,"pitch":38,"articulation":"pizzicato","articulation_tags":["pizzicato","pz","short"],"duration":1.0,"velocity":119.8799436404681}
{"position":308.0729166666667,"instrument":"Cello","level2":15,"level3":2,"pitch":37,"articulation":"pizzicato","articulation_tags":["pizzicato","pz","short"],"duration":1.0,"velocity":119.8799436404681}
{"position":308.3125,"instrument":"Tuba","level2":16,"level3":5,"pitch":36,"articulation":"staccato","articulation_tags":["staccato","st","short"],"duration":1.0,"velocity":127.5}
{"position":308.5729166666667,"instrument":"Contrabass","level2":16,"level3":5,"pitch":36,"articulation":"collegno","articulation_tags":["collegno","cl","short"],"duration":1.0,"velocity":127.5}
{"position":308.6041666666667,"instrument":"Cello","level2":14,"level3":5,"pitch":52,"articulation":"long_cs","articulation_tags":["long_cs","cs","long","consordina"],"duration":1.7604166666666667,"velocity":102.41982579276859}
{"position":308.6770833333333,"instrument":"Cello","level2":14,"level3":2,"pitch":53,"articulation":"long_cs","articulation_tags":["long_cs","cs","long","consordina"],"duration":1.71875,"velocity":102.41982579276859}
{"position":308.6875,"instrument":"Clarinet","level2":14,"level3":2,"pitch":52,"articulation":"trill_2m","articulation_tags":["trill_2m","long","trill","m2"],"duration":1.6979166666666667,"velocity":102.41982579276859}
{"position":308.75,"instrument":"Contrabass","level2":15,"level3":5,"pitch":42,"articulation":"collegno","articulation_tags":["collegno","cl","short"],"duration":1.0,"velocity":119.8799436404681}
{"position":309.1458333333333,"instrument":"Contrabass","level2":16,"level3":1,"pitch":36,"articulation":"collegno","articulation_tags":["collegno","cl","short"],"duration":1.0,"velocity":127.5}
{"position":309.21875,"instrument":"Cello","level2":13,"level3":5,"pitch":44,"articulation":"short_hrm","articulation_tags":["short_hrm","hrm_s","short","harmonics"],"duration":1.0,"velocity":119.38785731469113}
{"position":309.3229166666667,"instrument":"TheGrandeurPiano","level2":16,"level3":null,"pitch":33,"articulation":"standard","articulation_tags":["standard","long"],"duration":1.2569444444444444,"velocity":118.52471160342667}
{"position":309.5625,"instrument":"TheGrandeurPiano","level2":13,"level3":null,"pitch":40,"articulation":"standard","articulation_tags":["standard","long"],"duration":1.6111111111111112,"velocity":121.1951714797035}
{"position":309.6458333333333,"instrument":"Cello","level2":14,"level3":1,"pitch":51,"articulation":"legato","articulation_tags":["legato","lg"],"duration":8.947916666666666,"velocity":102.41982579276859}
{"position":309.75,"instrument":"Contrabass","level2":13,"level3":7,"pitch":44,"articulation":"spiccato","articulation_tags":["spiccato","sp","short"],"duration":1.0,"velocity":120.13607037305829}
{"position":309.8541666666667,"instrument":"TheGrandeurPiano","level2":15,"level3":null,"pitch":50,"articulation":"standard","articulation_tags":["standard","long"],"duration":1.7874015748031495,"velocity":120.27454672327845}
{"position":309.8645833333333,"instrument":"Contrabass","level2":13,"level3":3,"pitch":43,"articulation":"short_hrm","articulation_tags":["short_hrm","hrm_s","short","harmonics"],"duration":1.0,"velocity":120.13607037305829}
{"position":310.0416666666667,"instrument":"Contrabass","level2":13,"level3":2,"pitch":46,"articulation":"short_hrm","articulation_tags":["short_hrm","hrm_s","short","harmonics"],"duration":1.0,"velocity":120.13607037305829}
{"position":310.125,"instrument":"CorAnglais","level2":14,"level3":8,"pitch":53,"articulation":"trill_2m","articulation_tags":["trill_2m","long","trill","m2"],"duration":10.854166666666666,"velocity":102.41982579276859}
{"position":310.1666666666667,"instrument":"Contrabass","level2":12,"level3":5,"pitch":37,"articulation":"short_hrm","articulation_tags":["short_hrm","hrm_s","short","harmonics"],"duration":1.0,"velocity":127.5}
{"position":310.1979166666667,"instrument":"Marimba","level2":13,"level3":6,"pitch":46,"articulation":"hits","articulation_tags":["hits","short"],"duration":0.25,"velocity":120.13607037305829}
{"position":310.3125,"instrument":"Cello","level2":13,"level3":2,"pitch":46,"articulation":"short_hrm","articulation_tags":["short_hrm","hrm_s","short","harmonics"],"duration":1.0,"velocity":120.13607037305829}
{"position":310.3541666666667,"instrument":"Cello","level2":14,"level3":5,"pitch":52,"articulation":"long_cs","articulation_tags":["long_cs","cs","long","consordina"],"duration":0.041666666666666664,"velocity":102.41982579276859}
{"position":310.3958333333333,"instrument":"Cello","level2":14,"level3":5,"pitch":52,"articulation":"long_cs","articulation_tags":["long_cs","cs","long","consordina"],"duration":0.0,"velocity":102.41982579276859}
{"position":310.4166666666667,"instrument":"Cello","level2":13,"level3":0,"pitch":47,"articulation":"spiccato","articulation_tags":["spiccato","sp","short"],"duration":1.0,"velocity":120.13607037305829}
{"position":310.6770833333333,"instrument":"Tuba","level2":16,"level3":6,"pitch":35,"articulation":"staccato","articulation_tags":["staccato","st","short"],"duration":1.0,"velocity":127.5}
{"position":310.8541666666667,"instrument":"Cello","level2":13,"level3":1,"pitch":42,"articulation":"short_hrm","articulation_tags":["short_hrm","hrm_s","short","harmonics"],"duration":1.0,"velocity":120.13607037305829}
{"position":310.9166666666667,"instrument":"Viola","level2":14,"level3":7,"pitch":54,"articulation":"long_hrm","articulation_tags":["long_hrm","hrm","long","harmonics"],"duration":7.302083333333333,"velocity":102.41982579276859}
{"position":311.1354166666667,"instrument":"Contrabass","level2":15,"level3":3,"pitch":42,"articulation":"collegno","articulation_tags":["collegno","cl","short"],"duration":1.0,"velocity":118.80412723017832}
{"position":311.1875,"instrument":"Contrabass","level2":15,"level3":4,"pitch":39,"articulation":"pizzicato","articulation_tags":["pizzicato","pz","short"],"duration":1.0,"velocity":118.80412723017832}
{"position":311.2083333333333,"instrument":"TheGrandeurPiano","level2":16,"level3":null,"pitch":33,"articulation":"standard","articulation_tags":["standard","long"],"duration":1.1736111111111112,"velocity":116.02024640026787}
{"position":311.2708333333333,"instrument":"TheGrandeurPiano","level2":13,"level3":null,"pitch":40,"articulation":"standard","articulation_tags":["standard","long"],"duration":1.6299212598425197,"velocity":116.02024640026787}
{"position":311.34375,"instrument":"Contrabass","level2":16,"level3":2,"pitch":35,"articulation":"pizzicato","articulation_tags":["pizzicato","pz","short"],"duration":1.0,"velocity":127.5}
{"position":311.5833333333333,"instrument":"Cello","level2":14,"level3":0,"pitch":54,"articulation":"long_hrm","articulation_tags":["long_hrm","hrm","long","harmonics"],"duration":5.614583333333333,"velocity":102.41982579276859}
{"position":311.59375,"instrument":"Contrabass","level2":16,"level3":3,"pitch":37,"articulation":"collegno","articulation_tags":["collegno","cl","short"],"duration":1.0,"velocity":127.5}
{"position":311.7916666666667,"instrument":"Cello","level2":12,"level3":3,"pitch":37,"articulation":"spiccato","articulation_tags":["spiccato","sp","short"],"duration":1.0,"velocity":127.5}
{"position":311.7916666666667,"instrument":"Marimba","level2":16,"level3":3,"pitch":37,"articulation":"hits","articulation_tags":["hits","short"],"duration":0.25,"velocity":127.5}
{"position":311.9895833333333,"instrument":"TheGrandeurPiano","level2":13,"level3":null,"pitch":40,"articulation":"standard","articulation_tags":["standard","long"],"duration":1.5833333333333333,"velocity":116.98211539226227}
{"position":312.0208333333333,"instrument":"Tuba","level2":16,"level3":2,"pitch":35,"articulation":"staccato","articulation_tags":["staccato","st","short"],"duration":1.0,"velocity":127.5}
{"position":312.1666666666667,"instrument":"Contrabass","level2":16,"level3":5,"pitch":36,"articulation":"collegno","articulation_tags":["collegno","cl","short"],"duration":1.0,"velocity":127.5}
{"position":312.3854166666667,"instrument":"Cello","level2":15,"level3":1,"pitch":43,"articulation":"collegno","articulation_tags":["collegno","cl","short"],"duration":1.0,"velocity":118.80412723017832}
{"position":312.4166666666667,"instrument":"Contrabass","level2":12,"level3":6,"pitch":41,"articulation":"staccato","articulation_tags":["staccato","st","short"],"duration":1.0,"velocity":127.5}
{"position":312.4270833333333,"instrument":"Contrabass","level2":13,"level3":10,"pitch":45,"articulation":"spiccato","articulation_tags":["spiccato","sp","short"],"duration":1.0,"velocity":120.91818919952775}
{"position":312.5416666666667,"instrument":"Marimba","level2":13,"level3":5,"pitch":45,"articulation":"hits","articulation_tags":["hits","short"],"duration":0.25,"velocity":120.91818919952775}
{"position":312.7395833333333,"instrument":"Viola","level2":14,"level3":7,"pitch":54,"articulation":"long_hrm","articulation_tags":["long_hrm","hrm","long","harmonics"],"duration":29.052083333333332,"velocity":102.41982579276859}
{"position":312.8541666666667,"instrument":"Contrabass","level2":16,"level3":1,"pitch":36,"articulation":"collegno","articulation_tags":["collegno","cl","short"],"duration":1.0,"velocity":127.5}
{"position":312.96875,"instrument":"TheGrandeurPiano","level2":16,"level3":null,"pitch":33,"articulation":"standard","articulation_tags":["standard","long"],"duration":1.0902777777777777,"velocity":112.69865976293704}
{"position":313.15625,"instrument":"TheGrandeurPiano","level2":15,"level3":null,"pitch":51,"articulation":"standard","articulation_tags":["standard","long"],"duration":1.8031496062992125,"velocity":112.57329873583203}
{"position":313.2604166666667,"instrument":"Contrabass","level2":16,"level3":1,"pitch":36,"articulation":"collegno","articulation_tags":["collegno","cl","short"],"duration":1.0,"velocity":127.5}
{"position":313.5520833333333,"instrument":"Cello","level2":13,"level3":2,"pitch":46,"articulation":"short_hrm","articulation_tags":["short_hrm","hrm_s","short","harmonics"],"duration":1.0,"velocity":120.91818919952775}
{"position":313.625,"instrument":"Contrabass","level2":12,"level3":5,"pitch":37,"articulation":"short_hrm","articulation_tags":["short_hrm","hrm_s","short","harmonics"],"duration":1.0,"velocity":127.5}
{"position":313.6770833333333,"instrument":"BassClarinet","level2":12,"level3":4,"pitch":39,"articulation":"legato","articulation_tags":["legato","lg"],"duration":23.802083333333332,"velocity":127.0}
{"position":313.7604166666667,"instrument":"Cello","level2":15,"level3":1,"pitch":43,"articulation":"collegno","articulation_tags":["collegno","cl","short"],"duration":1.0,"velocity":118.27560137691977}
{"position":313.8125,"instrument":"Contrabass","level2":13,"level3":2,"pitch":45,"articulation":"short_hrm","articulation_tags":["short_hrm","hrm_s","short","harmonics"],"duration":1.0,"velocity":120.91818919952775}
{"position":313.875,"instrument":"Contrabass","level2":13,"level3":7,"pitch":44,"articulation":"spiccato","articulation_tags":["spiccato","sp","short"],"duration":1.0,"velocity":120.91818919952775}
{"position":313.90625,"instrument":"TheGrandeurPiano","level2":13,"level3":null,"pitch":40,"articulation":"standard","articulation_tags":["standard","long"],"duration":1.4722222222222223,"velocity":114.55870281250793}
{"position":314.0625,"instrument":"Viola","level2":14,"level3":3,"pitch":51,"articulation":"long_slt","articulation_tags":["long_slt","slt","long","sultasto"],"duration":18.822916666666668,"velocity":102.41982579276859}
{"position":314.1354166666667,"instrument":"Marimba","level2":13,"level3":5,"pitch":45,"articulation":"hits","articulation_tags":["hits","short"],"duration":0.25,"velocity":121.00119894947902}
{"position":314.2395833333333,"instrument":"TheGrandeurPiano","level2":15,"level3":null,"pitch":51,"articulation":"standard","articulation_tags":["standard","long"],"duration":1.8031496062992125,"velocity":110.99221650749857}
{"position":314.28125,"instrument":"Clarinet","level2":14,"level3":8,"pitch":52,"articulation":"trill_2m","articulation_tags":["trill_2m","long","trill","m2"],"duration":11.25,"velocity":102.41982579276859}
{"position":314.34375,"instrument":"Contrabass","level2":12,"level3":2,"pitch":37,"articulation":"spiccato","articulation_tags":["spiccato","sp","short"],"duration":1.0,"velocity":127.5}
{"position":314.34375,"instrument":"Marimba","level2":13,"level3":10,"pitch":44,"articulation":"hits","articulation_tags":["hits","short"],"duration":0.25,"velocity":121.00119894947902}
{"position":314.3645833333333,"instrument":"TheGrandeurPiano","level2":13,"level3":null,"pitch":39,"articulation":"standard","articulation_tags":["standard","long"],"duration":1.5486111111111112,"velocity":112.44776395791955}
{"position":314.5,"instrument":"Marimba","level2":12,"level3":2,"pitch":37,"articulation":"hits","articulation_tags":["hits","short"],"duration":0.25,"velocity":127.5}
{"position":314.8125,"instrument":"Bassoon","level2":16,"level3":2,"pitch":36,"articulation":"tenuto","articulation_tags":["tenuto","t","short"],"duration":0.25,"velocity":127.5}
{"position":314.8854166666667,"instrument":"Marimba","level2":16,"level3":2,"pitch":36,"articulation":"hits","articulation_tags":["hits","short"],"duration":0.25,"velocity":127.5}
{"position":314.96875,"instrument":"Cello","level2":14,"level3":3,"pitch":51,"articulation":"long_flt","articulation_tags":["long_flt","flt","long","flautando"],"duration":6.135416666666667,"velocity":102.41982579276859}
{"position":315.0,"instrument":"Contrabass","level2":16,"level3":6,"pitch":35,"articulation":"pizzicato","articulation_tags":["pizzicato","pz","short"],"duration":1.0,"velocity":127.5}
{"position":315.0520833333333,"instrument":"Marimba","level2":13,"level3":1,"pitch":43,"articulation":"hits","articulation_tags":["hits","short"],"duration":0.25,"velocity":121.70899347505247}
{"position":315.1666666666667,"instrument":"Bassoon","level2":16,"level3":0,"pitch":35,"articulation":"marcato","articulation_tags":["marcato","short"],"duration":0.25,"velocity":127.5}
{"position":315.28125,"instrument":"Clarinet","level2":14,"level3":1,"pitch":51,"articulation":"trill_2m","articulation_tags":["trill_2m","long","trill","m2"],"duration":11.583333333333334,"velocity":102.41982579276859}
{"position":315.7708333333333,"instrument":"Bassoon","level2":13,"level3":3,"pitch":43,"articulation":"legato","articulation_tags":["legato","lg"],"duration":15.40625,"velocity":115.41798695010495}
{"position":315.9583333333333,"instrument":"Contrabass","level2":16,"level3":5,"pitch":36,"articulation":"pizzicato","articulation_tags":["pizzicato","pz","short"],"duration":1.0,"velocity":127.5}
{"position":316.1145833333333,"instrument":"TheGrandeurPiano","level2":13,"level3":null,"pitch":39,"articulation":"standard","articulation_tags":["standard","long"],"duration":1.2638888888888888,"velocity":109.48321891896626}
{"position":316.1145833333333,"instrument":"TheGrandeurPiano","level2":16,"level3":null,"pitch":33,"articulation":"standard","articulation_tags":["standard","long"],"duration":0.9444444444444444,"velocity":109.48321891896626}
{"position":316.15625,"instrument":"Marimba","level2":16,"level3":1,"pitch":36,"articulation":"hits","articulation_tags":["hits","short"],"duration":0.25,"velocity":127.5}
{"position":316.1770833333333,"instrument":"Marimba","level2":13,"level3":0,"pitch":47,"articulation":"hits","articulation_tags":["hits","short"],"duration":0.25,"velocity":121.8014704640984}
{"position":316.21875,"instrument":"TheGrandeurPiano","level2":15,"level3":null,"pitch":51,"articulation":"standard","articulation_tags":["standard","long"],"duration":1.8031496062992125,"velocity":113.07370750936433}
{"position":316.2395833333333,"instrument":"Contrabass","level2":16,"level3":2,"pitch":36,"articulation":"pizzicato","articulation_tags":["pizzicato","pz","short"],"duration":1.0,"velocity":127.5}
{"position":316.375,"instrument":"Contrabass","level2":13,"level3":6,"pitch":46,"articulation":"spiccato","articulation_tags":["spiccato","sp","short"],"duration":1.0,"velocity":121.8014704640984}
{"position":316.5416666666667,"instrument":"Marimba","level2":16,"level3":5,"pitch":36,"articulation":"hits","articulation_tags":["hits","short"],"duration":0.25,"velocity":127.5}
{"position":316.5416666666667,"instrument":"Marimba","level2":16,"level3":5,"pitch":36,"articulation":"hits","articulation_tags":["hits","short"],"duration":0.25,"velocity":127.5}
{"position":317.0,"instrument":"Marimba","level2":13,"level3":3,"pitch":43,"articulation":"hits","articulation_tags":["hits","short"],"duration":0.25,"velocity":122.50804947572861}
{"position":317.0833333333333,"instrument":"Marimba","level2":16,"level3":3,"pitch":37,"articulation":"hits","articulation_tags":["hits","short"],"duration":0.25,"velocity":127.5}
{"position":317.1979166666667,"instrument":"Vibraphone","level2":14,"level3":0,"pitch":53,"articulation":"hits","articulation_tags":["hits","short"],"duration":0.25,"velocity":115.2099128963843}
{"position":317.2916666666667,"instrument":"Contrabass","level2":16,"level3":6,"pitch":35,"articulation":"pizzicato","articulation_tags":["pizzicato","pz","short"],"duration":1.0,"velocity":127.5}
{"position":317.53125,"instrument":"TheGrandeurPiano","level2":16,"level3":null,"pitch":33,"articulation":"standard","articulation_tags":["standard","long"],"duration":0.8819444444444444,"velocity":109.48321891896626}
{"position":317.9479166666667,"instrument":"Marimba","level2":14,"level3":9,"pitch":53,"articulation":"hits","articulation_tags":["hits","short"],"duration":0.25,"velocity":115.2099128963843}
{"position":317.9479166666667,"instrument":"Marimba","level2":14,"level3":10,"pitch":53,"articulation":"hits","articulation_tags":["hits","short"],"duration":0.25,"velocity":115.2099128963843}
{"position":318.0104166666667,"instrument":"TheGrandeurPiano","level2":13,"level3":null,"pitch":39,"articulation":"standard","articulation_tags":["standard","long"],"duration":1.1041666666666667,"velocity":110.99221650749857}
{"position":318.0416666666667,"instrument":"Marimba","level2":14,"level3":10,"pitch":53,"articulation":"hits","articulation_tags":["hits","short"],"duration":0.25,"velocity":115.2099128963843}
{"position":318.125,"instrument":"Marimba","level2":16,"level3":1,"pitch":36,"articulation":"hits","articulation_tags":["hits","short"],"duration":0.25,"velocity":127.5}
{"position":318.21875,"instrument":"Vibraphone","level2":14,"level3":7,"pitch":54,"articulation":"hits","articulation_tags":["hits","short"],"duration":0.25,"velocity":115.2099128963843}
{"position":318.3020833333333,"instrument":"Contrabass","level2":16,"level3":0,"pitch":35,"articulation":"pizzicato","articulation_tags":["pizzicato","pz","short"],"duration":1.0,"velocity":127.5}
{"position":318.34375,"instrument":"Marimba","level2":16,"level3":6,"pitch":36,"articulation":"hits","articulation_tags":["hits","short"],"duration":0.25,"velocity":127.5}
{"position":318.4791666666667,"instrument":"Marimba","level2":15,"level3":6,"pitch":41,"articulation":"hits","articulation_tags":["hits","short"],"duration":0.25,"velocity":117.20001323926017}
{"position":318.4791666666667,"instrument":"Cello","level2":15,"level3":7,"pitch":41,"articulation":"collegno","articulation_tags":["collegno","cl","short"],"duration":1.0,"velocity":117.20001323926017}
{"position":318.5104166666667,"instrument":"Cello","level2":15,"level3":6,"pitch":41,"articulation":"collegno","articulation_tags":["collegno","cl","short"],"duration":1.0,"velocity":117.20001323926017}
{"position":318.59375,"instrument":"Marimba","level2":12,"level3":7,"pitch":39,"articulation":"hits","articulation_tags":["hits","short"],"duration":0.25,"velocity":127.5}
{"position":318.59375,"instrument":"Contrabass","level2":12,"level3":8,"pitch":40,"articulation":"short_hrm","articulation_tags":["short_hrm","hrm_s","short","harmonics"],"duration":1.0,"velocity":127.5}
{"position":318.59375,"instrument":"Viola","level2":14,"level3":1,"pitch":51,"articulation":"long_slt","articulation_tags":["long_slt","slt","long","sultasto"],"duration":7.0,"velocity":102.41982579276859}
{"position":318.6458333333333,"instrument":"Cello","level2":15,"level3":2,"pitch":37,"articulation":"pizzicato","articulation_tags":["pizzicato","pz","short"],"duration":1.0,"velocity":117.20001323926017}
{"position":318.6666666666667,"instrument":"Contrabass","level2":15,"level3":7,"pitch":41,"articulation":"collegno","articulation_tags":["collegno","cl","short"],"duration":1.0,"velocity":117.20001323926017}
{"position":318.7083333333333,"instrument":"TheGrandeurPiano","level2":15,"level3":null,"pitch":51,"articulation":"standard","articulation_tags":["standard","long"],"duration":1.8031496062992125,"velocity":107.66783797332214}
{"position":318.75,"instrument":"Marimba","level2":12,"level3":7,"pitch":39,"articulation":"hits","articulation_tags":["hits","short"],"duration":0.25,"velocity":127.5}
{"position":318.7604166666667,"instrument":"Marimba","level2":12,"level3":8,"pitch":40,"articulation":"hits","articulation_tags":["hits","short"],"duration":0.25,"velocity":127.5}
{"position":318.84375,"instrument":"TheGrandeurPiano","level2":16,"level3":null,"pitch":33,"articulation":"standard","articulation_tags":["standard","long"],"duration":0.8125,"velocity":107.52670188041974}
{"position":319.0208333333333,"instrument":"Marimba","level2":15,"level3":5,"pitch":42,"articulation":"hits","articulation_tags":["hits","short"],"duration":0.25,"velocity":116.65250445211504}
{"position":319.0520833333333,"instrument":"Marimba","level2":16,"level3":6,"pitch":36,"articulation":"hits","articulation_tags":["hits","short"],"duration":0.25,"velocity":127.5}
{"position":319.25,"instrument":"Vibraphone","level2":14,"level3":10,"pitch":53,"articulation":"hits","articulation_tags":["hits","short"],"duration":0.25,"velocity":115.2099128963843}
{"position":319.28125,"instrument":"Marimba","level2":16,"level3":1,"pitch":36,"articulation":"hits","articulation_tags":["hits","short"],"duration":0.25,"velocity":127.5}
{"position":319.34375,"instrument":"TheGrandeurPiano","level2":17,"level3":null,"pitch":61,"articulation":"standard","articulation_tags":["standard","long"],"duration":0.0,"velocity":108.08994843896522}
{"position":319.34375,"instrument":"TheGrandeurPiano","level2":18,"level3":null,"pitch":61,"articulation":"standard","articulation_tags":["standard","long"],"duration":0.006944444444444444,"velocity":108.08994843896522}
{"position":319.3541666666667,"instrument":"TheGrandeurPiano","level2":17,"level3":null,"pitch":61,"articulation":"standard","articulation_tags":["standard","long"],"duration":0.020833333333333332,"velocity":108.08994843896522}
{"position":319.375,"instrument":"TheGrandeurPiano","level2":17,"level3":null,"pitch":60,"articulation":"standard","articulation_tags":["standard","long"],"duration":0.041666666666666664,"velocity":108.08994843896522}
{"position":319.3854166666667,"instrument":"Marimba","level2":16,"level3":1,"pitch":36,"articulation":"hits","articulation_tags":["hits","short"],"duration":0.25,"velocity":127.5}
{"position":319.40625,"instrument":"TheGrandeurPiano","level2":17,"level3":null,"pitch":60,"articulation":"standard","articulation_tags":["standard","long"],"duration":0.7569444444444444,"velocity":108.78919878666548}
{"position":319.4583333333333,"instrument":"Marimba","level2":17,"level3":0,"pitch":58,"articulation":"hits","articulation_tags":["hits","short"],"duration":0.25,"velocity":90.8533505163449}
{"position":319.4583333333333,"instrument":"Vibraphone","level2":17,"level3":1,"pitch":57,"articulation":"hits","articulation_tags":["hits","short"],"duration":0.25,"velocity":90.8533505163449}
{"position":319.4895833333333,"instrument":"Vibraphone","level2":17,"level3":0,"pitch":58,"articulation":"hits","articulation_tags":["hits","short"],"duration":0.25,"velocity":90.8533505163449}
{"position":319.5104166666667,"instrument":"TubularBells","level2":18,"level3":0,"pitch":66,"articulation":"hits_dumped","articulation_tags":["hits_dumped","short","hits","dumped"],"duration":0.25,"velocity":86.52783561111858}
{"position":319.5104166666667,"instrument":"TubularBells","level2":18,"level3":1,"pitch":66,"articulation":"hits_dumped","articulation_tags":["hits_dumped","short","hits","dumped"],"duration":0.25,"velocity":86.52783561111858}
{"position":319.5104166666667,"instrument":"TubularBells","level2":18,"level3":1,"pitch":66,"articulation":"hits_dumped","articulation_tags":["hits_dumped","short","hits","dumped"],"duration":0.25,"velocity":86.52783561111858}
{"position":319.5833333333333,"instrument":"Viola","level2":17,"level3":1,"pitch":57,"articulation":"staccato","articulation_tags":["staccato","st","short"],"duration":1.0,"velocity":91.55724541196173}
{"position":319.5833333333333,"instrument":"Cello","level2":17,"level3":0,"pitch":58,"articulation":"spiccato","articulation_tags":["spiccato","sp","short"],"duration":1.0,"velocity":91.55724541196173}
{"position":319.6145833333333,"instrument":"Cello","level2":17,"level3":1,"pitch":57,"articulation":"staccato","articulation_tags":["staccato","st","short"],"duration":1.0,"velocity":91.55724541196173}
{"position":319.625,"instrument":"Contrabass","level2":16,"level3":6,"pitch":36,"articulation":"collegno","articulation_tags":["collegno","cl","short"],"duration":1.0,"velocity":127.5}
{"position":319.65625,"instrument":"Contrabass","level2":16,"level3":0,"pitch":35,"articulation":"pizzicato","articulation_tags":["pizzicato","pz","short"],"duration":1.0,"velocity":127.5}
{"position":319.6666666666667,"instrument":"TheGrandeurPiano","level2":13,"level3":null,"pitch":38,"articulation":"standard","articulation_tags":["standard","long"],"duration":0.9722222222222222,"velocity":109.75938855732471}
{"position":319.96875,"instrument":"Marimba","level2":17,"level3":0,"pitch":58,"articulation":"hits","articulation_tags":["hits","short"],"duration":0.25,"velocity":92.96707141527845}
{"position":319.9791666666667,"instrument":"Marimba","level2":18,"level3":1,"pitch":66,"articulation":"hits","articulation_tags":["hits","short"],"duration":0.25,"velocity":84.3102673969515}
{"position":320.0104166666667,"instrument":"Cello","level2":18,"level3":0,"pitch":65,"articulation":"spiccato","articulation_tags":["spiccato","sp","short"],"duration":1.0,"velocity":84.3102673969515}
{"position":320.2604166666667,"instrument":"Marimba","level2":18,"level3":0,"pitch":65,"articulation":"hits","articulation_tags":["hits","short"],"duration":0.25,"velocity":83.57692307692307}
{"position":320.2604166666667,"instrument":"TheGrandeurPiano","level2":17,"level3":null,"pitch":57,"articulation":"standard","articulation_tags":["standard","long"],"duration":0.18055555555555555,"velocity":109.48321891896626}
{"position":320.28125,"instrument":"Marimba","level2":15,"level3":0,"pitch":38,"articulation":"hits","articulation_tags":["hits","short"],"duration":0.25,"velocity":116.12443961920964}
{"position":320.2916666666667,"instrument":"Vibraphone","level2":18,"level3":1,"pitch":66,"articulation":"hits","articulation_tags":["hits","short"],"duration":0.25,"velocity":83.57692307692307}
{"position":320.3020833333333,"instrument":"Vibraphone","level2":17,"level3":1,"pitch":57,"articulation":"hits","articulation_tags":["hits","short"],"duration":0.25,"velocity":94.37915395798203}
{"position":320.3958333333333,"instrument":"Contrabass","level2":14,"level3":9,"pitch":53,"articulation":"long_cs","articulation_tags":["long_cs","cs","long","consordina"],"duration":12.0625,"velocity":102.41982579276859}
{"position":320.53125,"instrument":"TheGrandeurPiano","level2":17,"level3":null,"pitch":57,"articulation":"standard","articulation_tags":["standard","long"],"duration":0.20833333333333334,"velocity":111.53503359182703}
{"position":320.5520833333333,"instrument":"TheGrandeurPiano","level2":17,"level3":null,"pitch":57,"articulation":"standard","articulation_tags":["standard","long"],"duration":0.6666666666666666,"velocity":111.53503359182703}
{"position":320.6041666666667,"instrument":"Marimba","level2":13,"level3":1,"pitch":43,"articulation":"hits","articulation_tags":["hits","short"],"duration":0.25,"velocity":123.42537008188233}
{"position":320.6875,"instrument":"Marimba","level2":17,"level3":1,"pitch":56,"articulation":"hits","articulation_tags":["hits","short"],"duration":0.25,"velocity":95.19168814543114}
{"position":320.6875,"instrument":"TheGrandeurPiano","level2":18,"level3":null,"pitch":66,"articulation":"standard","articulation_tags":["standard","long"],"duration":0.22916666666666666,"velocity":109.34482769738963}
{"position":320.7708333333333,"instrument":"TheGrandeurPiano","level2":14,"level3":null,"pitch":60,"articulation":"standard","articulation_tags":["standard","long"],"duration":1.9448818897637796,"velocity":109.34482769738963}
{"position":320.9791666666667,"instrument":"CorAnglais","level2":14,"level3":8,"pitch":52,"articulation":"trill_2m","articulation_tags":["trill_2m","long","trill","m2"],"duration":6.260416666666667,"velocity":101.76099526349647}
{"position":320.9895833333333,"instrument":"Marimba","level2":17,"level3":0,"pitch":58,"articulation":"hits","articulation_tags":["hits","short"],"duration":0.25,"velocity":95.89550929682247}
{"position":321.03125,"instrument":"TheGrandeurPiano","level2":18,"level3":null,"pitch":66,"articulation":"standard","articulation_tags":["standard","long"],"duration":0.2569444444444444,"velocity":111.94013095769438}
{"position":321.0416666666667,"instrument":"Marimba","level2":16,"level3":3,"pitch":37,"articulation":"hits","articulation_tags":["hits","short"],"duration":0.25,"velocity":127.5}
{"position":321.0625,"instrument":"Vibraphone","level2":17,"level3":0,"pitch":58,"articulation":"hits","articulation_tags":["hits","short"],"duration":0.25,"velocity":95.89550929682247}
{"position":321.1041666666667,"instrument":"Viola","level2":14,"level3":3,"pitch":51,"articulation":"long_flt","articulation_tags":["long_flt","flt","long","flautando"],"duration":4.760416666666667,"velocity":101.76099526349647}
{"position":321.34375,"instrument":"Contrabass","level2":13,"level3":0,"pitch":47,"articulation":"short_hrm","articulation_tags":["short_hrm","hrm_s","short","harmonics"],"duration":1.0,"velocity":124.24822803635}
{"position":321.4270833333333,"instrument":"TheGrandeurPiano","level2":18,"level3":null,"pitch":67,"articulation":"standard","articulation_tags":["standard","long"],"duration":0.2916666666666667,"velocity":109.75938855732471}
{"position":321.5520833333333,"instrument":"TheGrandeurPiano","level2":17,"level3":null,"pitch":56,"articulation":"standard","articulation_tags":["standard","long"],"duration":0.625,"velocity":113.07370750936433}
{"position":321.7083333333333,"instrument":"Contrabass","level2":13,"level3":6,"pitch":46,"articulation":"short_hrm","articulation_tags":["short_hrm","hrm_s","short","harmonics"],"duration":1.0,"velocity":124.24822803635}
{"position":321.8541666666667,"instrument":"Cello","level2":17,"level3":1,"pitch":56,"articulation":"staccato","articulation_tags":["staccato","st","short"],"duration":1.0,"velocity":97.51687408387181}
{"position":321.8645833333333,"instrument":"TheGrandeurPiano","level2":18,"level3":null,"pitch":67,"articulation":"standard","articulation_tags":["standard","long"],"duration":0.3263888888888889,"velocity":113.07370750936433}
{"position":321.875,"instrument":"Contrabass","level2":16,"level3":3,"pitch":37,"articulation":"collegno","articulation_tags":["collegno","cl","short"],"duration":1.0,"velocity":127.5}
{"position":322.1666666666667,"instrument":"Cello","level2":14,"level3":0,"pitch":53,"articulation":"long_hrm","articulation_tags":["long_hrm","hrm","long","harmonics"],"duration":4.291666666666667,"velocity":101.76099526349647}
{"position":322.1770833333333,"instrument":"Cello","level2":13,"level3":3,"pitch":44,"articulation":"short_hrm","articulation_tags":["short_hrm","hrm_s","short","harmonics"],"duration":1.0,"velocity":124.24822803635}
{"position":322.2604166666667,"instrument":"TheGrandeurPiano","level2":16,"level3":null,"pitch":33,"articulation":"standard","articulation_tags":["standard","long"],"duration":0.6458333333333334,"velocity":113.57138174731348}
{"position":322.2708333333333,"instrument":"Cello","level2":14,"level3":9,"pitch":53,"articulation":"long_cs","articulation_tags":["long_cs","cs","long","consordina"],"duration":5.739583333333333,"velocity":101.76099526349647}
{"position":322.3541666666667,"instrument":"TheGrandeurPiano","level2":18,"level3":null,"pitch":68,"articulation":"standard","articulation_tags":["standard","long"],"duration":0.3611111111111111,"velocity":110.58305932998493}
{"position":322.4479166666667,"instrument":"Marimba","level2":18,"level3":1,"pitch":66,"articulation":"hits","articulation_tags":["hits","short"],"duration":0.25,"velocity":80.083140878519}
{"position":322.7395833333333,"instrument":"Contrabass","level2":12,"level3":8,"pitch":40,"articulation":"short_hrm","articulation_tags":["short_hrm","hrm_s","short","harmonics"],"duration":1.0,"velocity":127.5}
{"position":322.78125,"instrument":"TheGrandeurPiano","level2":15,"level3":null,"pitch":52,"articulation":"standard","articulation_tags":["standard","long"],"duration":1.8188976377952757,"velocity":113.69537825874846}
{"position":322.875,"instrument":"Contrabass","level2":13,"level3":0,"pitch":47,"articulation":"short_hrm","articulation_tags":["short_hrm","hrm_s","short","harmonics"],"duration":1.0,"velocity":124.37717057268001}
{"position":322.875,"instrument":"TheGrandeurPiano","level2":18,"level3":null,"pitch":68,"articulation":"standard","articulation_tags":["standard","long"],"duration":0.8958333333333334,"velocity":113.69537825874846}
{"position":322.8958333333333,"instrument":"Cello","level2":17,"level3":1,"pitch":56,"articulation":"staccato","articulation_tags":["staccato","st","short"],"duration":1.0,"velocity":99.15413190539441}
{"position":322.8958333333333,"instrument":"TheGrandeurPiano","level2":18,"level3":null,"pitch":68,"articulation":"standard","articulation_tags":["standard","long"],"duration":0.4027777777777778,"velocity":113.69537825874846}
{"position":322.90625,"instrument":"Violin","level2":17,"level3":2,"pitch":57,"articulation":"spiccato","articulation_tags":["spiccato","sp","short"],"duration":1.0,"velocity":99.15413190539441}
{"position":322.90625,"instrument":"Violin","level2":17,"level3":2,"pitch":57,"articulation":"spiccato","articulation_tags":["spiccato","sp","short"],"duration":1.0,"velocity":99.15413190539441}
{"position":322.90625,"instrument":"Violin","level2":17,"level3":3,"pitch":57,"articulation":"spiccato","articulation_tags":["spiccato","sp","short"],"duration":1.0,"velocity":99.15413190539441}
{"position":322.90625,"instrument":"Violin","level2":17,"level3":3,"pitch":57,"articulation":"spiccato","articulation_tags":["spiccato","sp","short"],"duration":1.0,"velocity":99.15413190539441}
{"position":322.9583333333333,"instrument":"Marimba","level2":15,"level3":4,"pitch":39,"articulation":"hits","articulation_tags":["hits","short"],"duration":0.25,"velocity":115.60325354827933}
{"position":322.9583333333333,"instrument":"Marimba","level2":18,"level3":0,"pitch":65,"articulation":"hits","articulation_tags":["hits","short"],"duration":0.25,"velocity":80.00190121988177}
{"position":322.9791666666667,"instrument":"Contrabass","level2":15,"level3":3,"pitch":42,"articulation":"collegno","articulation_tags":["collegno","cl","short"],"duration":1.0,"velocity":115.60325354827933}
{"position":323.0104166666667,"instrument":"Vibraphone","level2":17,"level3":0,"pitch":58,"articulation":"hits","articulation_tags":["hits","short"],"duration":0.25,"velocity":99.15413190539441}
{"position":323.0416666666667,"instrument":"TheGrandeurPiano","level2":17,"level3":null,"pitch":54,"articulation":"standard","articulation_tags":["standard","long"],"duration":0.3958333333333333,"velocity":111.53503359182703}
{"position":323.1875,"instrument":"Vibraphone","level2":18,"level3":0,"pitch":65,"articulation":"hits","articulation_tags":["hits","short"],"duration":0.25,"velocity":80.00190121988177}
{"position":323.3125,"instrument":"Cello","level2":17,"level3":2,"pitch":57,"articulation":"spiccato","articulation_tags":["spiccato","sp","short"],"duration":1.0,"velocity":99.90052346384869}
{"position":323.40625,"instrument":"Violin","level2":17,"level3":3,"pitch":57,"articulation":"staccato","articulation_tags":["staccato","st","short"],"duration":1.0,"velocity":100.05567122223717}
{"position":323.5,"instrument":"TheGrandeurPiano","level2":18,"level3":null,"pitch":69,"articulation":"standard","articulation_tags":["standard","long"],"duration":0.4444444444444444,"velocity":112.44776395791955}
{"position":323.5729166666667,"instrument":"Violin","level2":17,"level3":4,"pitch":58,"articulation":"spiccato","articulation_tags":["spiccato","sp","short"],"duration":1.0,"velocity":100.05567122223717}
{"position":323.5729166666667,"instrument":"Violin","level2":17,"level3":4,"pitch":58,"articulation":"spiccato","articulation_tags":["spiccato","sp","short"],"duration":1.0,"velocity":100.05567122223717}
{"position":323.5729166666667,"instrument":"Violin","level2":17,"level3":5,"pitch":57,"articulation":"spiccato","articulation_tags":["spiccato","sp","short"],"duration":1.0,"velocity":100.05567122223717}
{"position":323.5833333333333,"instrument":"Marimba","level2":17,"level3":5,"pitch":57,"articulation":"hits","articulation_tags":["hits","short"],"duration":0.25,"velocity":100.05567122223717}
{"position":323.6458333333333,"instrument":"Marimba","level2":17,"level3":3,"pitch":56,"articulation":"hits","articulation_tags":["hits","short"],"duration":0.25,"velocity":100.79879421390089}
{"position":323.8645833333333,"instrument":"Marimba","level2":17,"level3":4,"pitch":58,"articulation":"hits","articulation_tags":["hits","short"],"duration":0.25,"velocity":100.79879421390089}
{"position":324.0104166666667,"instrument":"Contrabass","level2":12,"level3":8,"pitch":40,"articulation":"short_hrm","articulation_tags":["short_hrm","hrm_s","short","harmonics"],"duration":1.0,"velocity":127.5}
{"position":324.1041666666667,"instrument":"Contrabass","level2":16,"level3":3,"pitch":37,"articulation":"collegno","articulation_tags":["collegno","cl","short"],"duration":1.0,"velocity":127.5}
{"position":324.125,"instrument":"TheGrandeurPiano","level2":16,"level3":null,"pitch":33,"articulation":"standard","articulation_tags":["standard","long"],"duration":0.5486111111111112,"velocity":113.69537825874846}
{"position":324.1666666666667,"instrument":"TheGrandeurPiano","level2":18,"level3":null,"pitch":69,"articulation":"standard","articulation_tags":["standard","long"],"duration":0.4930555555555556,"velocity":113.69537825874846}
{"position":324.1875,"instrument":"Cello","level2":15,"level3":4,"pitch":40,"articulation":"pizzicato","articulation_tags":["pizzicato","pz","short"],"duration":1.0,"velocity":115.04888160493284}
{"position":324.21875,"instrument":"Violin","level2":17,"level3":2,"pitch":58,"articulation":"spiccato","articulation_tags":["spiccato","sp","short"],"duration":1.0,"velocity":100.79879421390089}
{"position":324.3020833333333,"instrument":"Cello","level2":17,"level3":5,"pitch":57,"articulation":"staccato","articulation_tags":["staccato","st","short"],"duration":1.0,"velocity":101.70886984788748}
{"position":324.4270833333333,"instrument":"Violin","level2":17,"level3":5,"pitch":57,"articulation":"staccato","articulation_tags":["staccato","st","short"],"duration":1.0,"velocity":101.70886984788748}
{"position":324.4791666666667,"instrument":"Marimba","level2":14,"level3":7,"pitch":53,"articulation":"hits","articulation_tags":["hits","short"],"duration":0.25,"velocity":114.88049763174823}
{"position":324.5520833333333,"instrument":"Contrabass","level2":12,"level3":7,"pitch":39,"articulation":"short_hrm","articulation_tags":["short_hrm","hrm_s","short","harmonics"],"duration":1.0,"velocity":127.5}
{"position":324.6979166666667,"instrument":"Marimba","level2":13,"level3":1,"pitch":44,"articulation":"hits","articulation_tags":["hits","short"],"duration":0.25,"velocity":125.36149604188789}
{"position":324.6979166666667,"instrument":"ContrabassTrombone","level2":13,"level3":1,"pitch":44,"articulation":"sforzando","articulation_tags":["sforzando","sfz","long"],"duration":2.78125,"velocity":122.72299208377578}
{"position":324.71875,"instrument":"Violin","level2":17,"level3":2,"pitch":58,"articulation":"short_hrm","articulation_tags":["short_hrm","hrm_s","short","harmonics"],"duration":1.0,"velocity":101.70886984788748}
{"position":324.8125,"instrument":"Marimba","level2":13,"level3":6,"pitch":46,"articulation":"hits","articulation_tags":["hits","short"],"duration":0.25,"velocity":125.36149604188789}
{"position":324.8333333333333,"instrument":"Violin","level2":17,"level3":4,"pitch":58,"articulation":"spiccato","articulation_tags":["spiccato","sp","short"],"duration":1.0,"velocity":101.70886984788748}
{"position":324.9166666666667,"instrument":"TheGrandeurPiano","level2":18,"level3":null,"pitch":70,"articulation":"standard","articulation_tags":["standard","long"],"duration":0.5486111111111112,"velocity":117.45941546018393}
{"position":324.9375,"instrument":"TheGrandeurPiano","level2":13,"level3":null,"pitch":37,"articulation":"standard","articulation_tags":["standard","long"],"duration":1.0972222222222223,"velocity":117.45941546018393}
{"position":324.9479166666667,"instrument":"TheGrandeurPiano","level2":16,"level3":null,"pitch":34,"articulation":"standard","articulation_tags":["standard","long"],"duration":0.5,"velocity":117.45941546018393}
{"position":325.0,"instrument":"Marimba","level2":15,"level3":1,"pitch":43,"articulation":"hits","articulation_tags":["hits","short"],"duration":0.25,"velocity":115.04888160493284}
{"position":325.1145833333333,"instrument":"Violin","level2":17,"level3":4,"pitch":58,"articulation":"short_hrm","articulation_tags":["short_hrm","hrm_s","short","harmonics"],"duration":1.0,"velocity":102.62969813676082}
{"position":325.2083333333333,"instrument":"Cello","level2":17,"level3":3,"pitch":56,"articulation":"staccato","articulation_tags":["staccato","st","short"],"duration":1.0,"velocity":102.62969813676082}
{"position":325.3020833333333,"instrument":"Cello","level2":15,"level3":6,"pitch":41,"articulation":"pizzicato","articulation_tags":["pizzicato","pz","short"],"duration":1.0,"velocity":115.04888160493284}
{"position":325.3125,"instrument":"Contrabass","level2":12,"level3":4,"pitch":39,"articulation":"staccato","articulation_tags":["staccato","st","short"],"duration":1.0,"velocity":127.5}
{"position":325.46875,"instrument":"TheGrandeurPiano","level2":13,"level3":null,"pitch":37,"articulation":"standard","articulation_tags":["standard","long"],"duration":0.5277777777777778,"velocity":113.69537825874846}
{"position":325.53125,"instrument":"Clarinet","level2":14,"level3":8,"pitch":52,"articulation":"trill_2m","articulation_tags":["trill_2m","long","trill","m2"],"duration":5.854166666666667,"velocity":101.76099526349647}
{"position":325.59375,"instrument":"Viola","level2":14,"level3":1,"pitch":51,"articulation":"long_slt","articulation_tags":["long_slt","slt","long","sultasto"],"duration":5.677083333333333,"velocity":101.76099526349647}
{"position":325.625,"instrument":"Marimba","level2":15,"level3":7,"pitch":42,"articulation":"hits","articulation_tags":["hits","short"],"duration":0.25,"velocity":115.04888160493284}
{"position":325.6354166666667,"instrument":"TheGrandeurPiano","level2":18,"level3":null,"pitch":70,"articulation":"standard","articulation_tags":["standard","long"],"duration":0.9791666666666666,"velocity":114.55870281250793}
{"position":325.6979166666667,"instrument":"TheGrandeurPiano","level2":16,"level3":null,"pitch":34,"articulation":"standard","articulation_tags":["standard","long"],"duration":0.4513888888888889,"velocity":115.65699875854901}
{"position":325.8229166666667,"instrument":"Contrabass","level2":13,"level3":0,"pitch":47,"articulation":"short_hrm","articulation_tags":["short_hrm","hrm_s","short","harmonics"],"duration":1.0,"velocity":126.21284941370567}
{"position":325.8541666666667,"instrument":"Viola","level2":14,"level3":3,"pitch":51,"articulation":"long_flt","articulation_tags":["long_flt","flt","long","flautando"],"duration":3.5833333333333335,"velocity":101.76099526349647}
{"position":326.0208333333333,"instrument":"Contrabass","level2":13,"level3":3,"pitch":44,"articulation":"short_hrm","articulation_tags":["short_hrm","hrm_s","short","harmonics"],"duration":1.0,"velocity":126.21284941370567}
{"position":326.0625,"instrument":"Marimba","level2":18,"level3":1,"pitch":66,"articulation":"hits","articulation_tags":["hits","short"],"duration":0.25,"velocity":79.66834074724034}
{"position":326.1458333333333,"instrument":"Marimba","level2":13,"level3":6,"pitch":46,"articulation":"hits","articulation_tags":["hits","short"],"duration":0.25,"velocity":126.21284941370567}
{"position":326.1875,"instrument":"Violin","level2":17,"level3":3,"pitch":56,"articulation":"staccato","articulation_tags":["staccato","st","short"],"duration":1.0,"velocity":103.56033791177984}
{"position":326.2604166666667,"instrument":"TheGrandeurPiano","level2":13,"level3":null,"pitch":37,"articulation":"standard","articulation_tags":["standard","long"],"duration":0.4583333333333333,"velocity":114.06636579513277}
{"position":326.3229166666667,"instrument":"TheGrandeurPiano","level2":15,"level3":null,"pitch":53,"articulation":"standard","articulation_tags":["standard","long"],"duration":1.8346456692913387,"velocity":115.89931998829564}
{"position":326.34375,"instrument":"Cello","level2":17,"level3":6,"pitch":57,"articulation":"spiccato","articulation_tags":["spiccato","sp","short"],"duration":1.0,"velocity":103.56033791177984}
{"position":326.34375,"instrument":"Cello","level2":17,"level3":7,"pitch":56,"articulation":"spiccato","articulation_tags":["spiccato","sp","short"],"duration":1.0,"velocity":103.56033791177984}
{"position":326.4583333333333,"instrument":"Cello","level2":14,"level3":0,"pitch":52,"articulation":"long_hrm","articulation_tags":["long_hrm","hrm","long","harmonics"],"duration":3.5104166666666665,"velocity":101.76099526349647}
{"position":326.4583333333333,"instrument":"Contrabass","level2":16,"level3":3,"pitch":37,"articulation":"collegno","articulation_tags":["collegno","cl","short"],"duration":1.0,"velocity":127.5}
{"position":326.4895833333333,"instrument":"Marimba","level2":16,"level3":0,"pitch":36,"articulation":"hits","articulation_tags":["hits","short"],"duration":0.25,"velocity":127.5}
{"position":326.5104166666667,"instrument":"Violin","level2":17,"level3":7,"pitch":56,"articulation":"spiccato","articulation_tags":["spiccato","sp","short"],"duration":1.0,"velocity":103.56033791177984}
{"position":326.59375,"instrument":"Violin","level2":17,"level3":7,"pitch":56,"articulation":"spiccato","articulation_tags":["spiccato","sp","short"],"duration":1.0,"velocity":103.56033791177984}
{"position":326.6458333333333,"instrument":"Violin","level2":17,"level3":6,"pitch":57,"articulation":"spiccato","articulation_tags":["spiccato","sp","short"],"duration":1.0,"velocity":103.56033791177984}
{"position":326.65625,"instrument":"TheGrandeurPiano","level2":18,"level3":null,"pitch":71,"articulation":"standard","articulation_tags":["standard","long"],"duration":0.6875,"velocity":117.93434085670768}
{"position":326.78125,"instrument":"TheGrandeurPiano","level2":17,"level3":null,"pitch":51,"articulation":"standard","articulation_tags":["standard","long"],"duration":0.7291666666666666,"velocity":116.02024640026787}
{"position":326.8541666666667,"instrument":"Violin","level2":17,"level3":1,"pitch":56,"articulation":"short_marcato","articulation_tags":["short_marcato","marcato_s","short","marcato"],"duration":1.0,"velocity":104.49994632470383}
{"position":326.8645833333333,"instrument":"Clarinet","level2":18,"level3":2,"pitch":65,"articulation":"legato","articulation_tags":["legato","lg"],"duration":0.1875,"velocity":30.904575336813494}
{"position":326.8645833333333,"instrument":"Marimba","level2":18,"level3":3,"pitch":66,"articulation":"hits","articulation_tags":["hits","short"],"duration":0.25,"velocity":79.45228766840674}
{"position":326.8645833333333,"instrument":"Marimba","level2":18,"level3":3,"pitch":66,"articulation":"hits","articulation_tags":["hits","short"],"duration":0.25,"velocity":79.45228766840674}
{"position":326.8645833333333,"instrument":"Marimba","level2":14,"level3":1,"pitch":50,"articulation":"hits","articulation_tags":["hits","short"],"duration":0.25,"velocity":114.88049763174823}
{"position":326.9895833333333,"instrument":"Violin","level2":17,"level3":0,"pitch":58,"articulation":"short_hrm","articulation_tags":["short_hrm","hrm_s","short","harmonics"],"duration":1.0,"velocity":104.49994632470383}
{"position":327.0520833333333,"instrument":"Clarinet","level2":18,"level3":2,"pitch":65,"articulation":"legato","articulation_tags":["legato","lg"],"duration":2.25,"velocity":30.904575336813494}
{"position":327.09375,"instrument":"Contrabass","level2":16,"level3":0,"pitch":36,"articulation":"pizzicato","articulation_tags":["pizzicato","pz","short"],"duration":1.0,"velocity":127.5}
{"position":327.1979166666667,"instrument":"Marimba","level2":18,"level3":3,"pitch":66,"articulation":"hits","articulation_tags":["hits","short"],"duration":0.25,"velocity":80.24321861413759}
{"position":327.2395833333333,"instrument":"CorAnglais","level2":14,"level3":8,"pitch":52,"articulation":"trill_2m","articulation_tags":["trill_2m","long","trill","m2"],"duration":3.8854166666666665,"velocity":101.76099526349647}
{"position":327.4166666666667,"instrument":"TheGrandeurPiano","level2":17,"level3":null,"pitch":51,"articulation":"standard","articulation_tags":["standard","long"],"duration":0.4861111111111111,"velocity":117.34031445877056}
{"position":327.4791666666667,"instrument":"Contrabass","level2":13,"level3":1,"pitch":44,"articulation":"short_hrm","articulation_tags":["short_hrm","hrm_s","short","harmonics"],"duration":1.0,"velocity":127.24050287537534}
{"position":327.5208333333333,"instrument":"TheGrandeurPiano","level2":16,"level3":null,"pitch":34,"articulation":"standard","articulation_tags":["standard","long"],"duration":0.3125,"velocity":116.62256035259666}
{"position":327.5729166666667,"instrument":"Contrabass","level2":13,"level3":1,"pitch":44,"articulation":"short_hrm","articulation_tags":["short_hrm","hrm_s","short","harmonics"],"duration":1.0,"velocity":127.42033302122418}
{"position":327.6145833333333,"instrument":"Cello","level2":17,"level3":5,"pitch":57,"articulation":"staccato","articulation_tags":["staccato","st","short"],"duration":1.0,"velocity":104.7217915371055}
{"position":327.84375,"instrument":"TheGrandeurPiano","level2":15,"level3":null,"pitch":53,"articulation":"standard","articulation_tags":["standard","long"],"duration":1.8346456692913387,"velocity":116.38209602395632}
{"position":327.8541666666667,"instrument":"TheGrandeurPiano","level2":16,"level3":null,"pitch":34,"articulation":"standard","articulation_tags":["standard","long"],"duration":0.9097222222222222,"velocity":116.38209602395632}
{"position":327.9479166666667,"instrument":"TheGrandeurPiano","level2":13,"level3":null,"pitch":36,"articulation":"standard","articulation_tags":["standard","long"],"duration":0.6666666666666666,"velocity":116.38209602395632}
{"position":328.0104166666667,"instrument":"Cello","level2":14,"level3":9,"pitch":53,"articulation":"long_cs","articulation_tags":["long_cs","cs","long","consordina"],"duration":3.6354166666666665,"velocity":101.76099526349647}
{"position":328.0208333333333,"instrument":"Cello","level2":17,"level3":5,"pitch":56,"articulation":"staccato","articulation_tags":["staccato","st","short"],"duration":1.0,"velocity":105.44776754819068}
{"position":328.03125,"instrument":"Marimba","level2":18,"level3":0,"pitch":64,"articulation":"hits","articulation_tags":["hits","short"],"duration":0.25,"velocity":80.12345604571138}
{"position":328.0833333333333,"instrument":"Violin","level2":17,"level3":4,"pitch":58,"articulation":"short_hrm","articulation_tags":["short_hrm","hrm_s","short","harmonics"],"duration":1.0,"velocity":105.44776754819068}
{"position":328.125,"instrument":"Marimba","level2":18,"level3":4,"pitch":65,"articulation":"hits","articulation_tags":["hits","short"],"duration":0.25,"velocity":80.12345604571138}
{"position":328.125,"instrument":"Vibraphone","level2":18,"level3":5,"pitch":66,"articulation":"hits","articulation_tags":["hits","short"],"duration":0.25,"velocity":80.12345604571138}
{"position":328.1979166666667,"instrument":"Contrabass","level2":16,"level3":3,"pitch":37,"articulation":"collegno","articulation_tags":["collegno","cl","short"],"duration":1.0,"velocity":127.5}
{"position":328.3229166666667,"instrument":"Marimba","level2":13,"level3":0,"pitch":46,"articulation":"hits","articulation_tags":["hits","short"],"duration":0.25,"velocity":127.5}
{"position":328.375,"instrument":"Marimba","level2":18,"level3":5,"pitch":66,"articulation":"hits","articulation_tags":["hits","short"],"duration":0.25,"velocity":80.12345604571138}
{"position":328.4479166666667,"instrument":"Trumpet","level2":14,"level3":0,"pitch":52,"articulation":"multitongue","articulation_tags":["multitongue","short"],"duration":1.0,"velocity":114.88049763174823}
{"position":328.46875,"instrument":"ContrabassTrombone","level2":16,"level3":0,"pitch":36,"articulation":"staccato","articulation_tags":["staccato","st","short"],"duration":1.0,"velocity":127.5}
{"position":328.5104166666667,"instrument":"Vibraphone","level2":18,"level3":4,"pitch":65,"articulation":"hits","articulation_tags":["hits","short"],"duration":0.25,"velocity":80.12345604571138}
{"position":328.6354166666667,"instrument":"TheGrandeurPiano","level2":18,"level3":null,"pitch":71,"articulation":"standard","articulation_tags":["standard","long"],"duration":1.0625,"velocity":114.55870281250793}
{"position":328.6875,"instrument":"Cello","level2":17,"level3":1,"pitch":55,"articulation":"short_marcato","articulation_tags":["short_marcato","marcato_s","short","marcato"],"duration":1.0,"velocity":105.68055543885953}
{"position":328.7291666666667,"instrument":"Contrabass","level2":13,"level3":6,"pitch":45,"articulation":"short_hrm","articulation_tags":["short_hrm","hrm_s","short","harmonics"],"duration":1.0,"velocity":127.5}
{"position":328.75,"instrument":"Marimba","level2":18,"level3":2,"pitch":65,"articulation":"hits","articulation_tags":["hits","short"],"duration":0.25,"velocity":80.90293733233192}
{"position":328.75,"instrument":"TheGrandeurPiano","level2":16,"level3":null,"pitch":34,"articulation":"standard","articulation_tags":["standard","long"],"duration":0.1875,"velocity":118.52471160342667}
{"position":328.78125,"instrument":"Contrabass","level2":13,"level3":3,"pitch":45,"articulation":"short_hrm","articulation_tags":["short_hrm","hrm_s","short","harmonics"],"duration":1.0,"velocity":127.5}
{"position":328.7916666666667,"instrument":"Marimba","level2":18,"level3":4,"pitch":65,"articulation":"hits","articulation_tags":["hits","short"],"duration":0.25,"velocity":80.90293733233192}
{"position":328.84375,"instrument":"Violin","level2":17,"level3":8,"pitch":58,"articulation":"spiccato","articulation_tags":["spiccato","sp","short"],"duration":1.0,"velocity":105.68055543885953}
{"position":328.84375,"instrument":"Violin","level2":17,"level3":9,"pitch":57,"articulation":"spiccato","articulation_tags":["spiccato","sp","short"],"duration":1.0,"velocity":105.68055543885953}
{"position":328.8854166666667,"instrument":"Violin","level2":17,"level3":9,"pitch":57,"articulation":"spiccato","articulation_tags":["spiccato","sp","short"],"duration":1.0,"velocity":105.92880790427974}
{"position":328.90625,"instrument":"Marimba","level2":15,"level3":8,"pitch":41,"articulation":"hits","articulation_tags":["hits","short"],"duration":0.25,"velocity":113.9733403961138}
{"position":328.9479166666667,"instrument":"TheGrandeurPiano","level2":13,"level3":null,"pitch":35,"articulation":"standard","articulation_tags":["standard","long"],"duration":0.3333333333333333,"velocity":116.02024640026787}
{"position":328.9895833333333,"instrument":"Violin","level2":17,"level3":1,"pitch":55,"articulation":"staccato","articulation_tags":["staccato","st","short"],"duration":1.0,"velocity":105.92880790427974}
{"position":329.0,"instrument":"Violin","level2":17,"level3":8,"pitch":58,"articulation":"spiccato","articulation_tags":["spiccato","sp","short"],"duration":1.0,"velocity":105.92880790427974}
{"position":329.0833333333333,"instrument":"Marimba","level2":18,"level3":5,"pitch":66,"articulation":"hits","articulation_tags":["hits","short"],"duration":0.25,"velocity":80.8684282036432}
{"position":329.25,"instrument":"Contrabass","level2":13,"level3":6,"pitch":45,"articulation":"short_hrm","articulation_tags":["short_hrm","hrm_s","short","harmonics"],"duration":1.0,"velocity":127.5}
{"position":329.2708333333333,"instrument":"Cello","level2":17,"level3":10,"pitch":57,"articulation":"spiccato","articulation_tags":["spiccato","sp","short"],"duration":1.0,"velocity":106.6461981866504}
{"position":329.2708333333333,"instrument":"Violin","level2":17,"level3":10,"pitch":57,"articulation":"spiccato","articulation_tags":["spiccato","sp","short"],"duration":1.0,"velocity":106.6461981866504}
{"position":329.2708333333333,"instrument":"Violin","level2":17,"level3":11,"pitch":57,"articulation":"spiccato","articulation_tags":["spiccato","sp","short"],"duration":1.0,"velocity":106.6461981866504}
{"position":329.2708333333333,"instrument":"Marimba","level2":18,"level3":3,"pitch":66,"articulation":"hits","articulation_tags":["hits","short"],"duration":0.25,"velocity":80.8684282036432}
{"position":329.2916666666667,"instrument":"TheGrandeurPiano","level2":13,"level3":null,"pitch":35,"articulation":"standard","articulation_tags":["standard","long"],"duration":0.08333333333333333,"velocity":117.93434085670768}
{"position":329.3020833333333,"instrument":"Clarinet","level2":18,"level3":2,"pitch":65,"articulation":"legato","articulation_tags":["legato","lg"],"duration":8.635416666666666,"velocity":33.73685640728642}
{"position":329.3229166666667,"instrument":"Marimba","level2":13,"level3":1,"pitch":45,"articulation":"hits","articulation_tags":["hits","short"],"duration":0.25,"velocity":127.5}
{"position":329.375,"instrument":"TheGrandeurPiano","level2":16,"level3":null,"pitch":35,"articulation":"standard","articulation_tags":["standard","long"],"duration":0.05555555555555555,"velocity":115.89931998829564}
{"position":329.4375,"instrument":"Viola","level2":14,"level3":3,"pitch":51,"articulation":"long_cs","articulation_tags":["long_cs","cs","long","consordina"],"duration":2.4375,"velocity":101.76099526349647}
{"position":329.4479166666667,"instrument":"TheGrandeurPiano","level2":13,"level3":null,"pitch":35,"articulation":"standard","articulation_tags":["standard","long"],"duration":0.013888888888888888,"velocity":115.89931998829564}
{"position":329.4583333333333,"instrument":"TheGrandeurPiano","level2":16,"level3":null,"pitch":35,"articulation":"standard","articulation_tags":["standard","long"],"duration":0.013888888888888888,"velocity":115.89931998829564}
{"position":329.46875,"instrument":"TheGrandeurPiano","level2":13,"level3":null,"pitch":35,"articulation":"standard","articulation_tags":["standard","long"],"duration":0.006944444444444444,"velocity":115.89931998829564}
{"position":329.5208333333333,"instrument":"TheGrandeurPiano","level2":17,"level3":null,"pitch":50,"articulation":"standard","articulation_tags":["standard","long"],"duration":0.4375,"velocity":115.89931998829564}
{"position":329.5729166666667,"instrument":"Violin","level2":17,"level3":5,"pitch":56,"articulation":"staccato","articulation_tags":["staccato","st","short"],"duration":1.0,"velocity":106.90416551569761}
{"position":329.5729166666667,"instrument":"Marimba","level2":16,"level3":0,"pitch":37,"articulation":"hits","articulation_tags":["hits","short"],"duration":0.25,"velocity":127.5}
{"position":329.625,"instrument":"Marimba","level2":15,"level3":6,"pitch":41,"articulation":"hits","articulation_tags":["hits","short"],"duration":0.25,"velocity":113.9733403961138}
{"position":329.6354166666667,"instrument":"ContrabassTrombone","level2":16,"level3":0,"pitch":37,"articulation":"staccato","articulation_tags":["staccato","st","short"],"duration":1.0,"velocity":127.5}
{"position":329.8229166666667,"instrument":"Contrabass","level2":13,"level3":6,"pitch":45,"articulation":"short_hrm","articulation_tags":["short_hrm","hrm_s","short","harmonics"],"duration":1.0,"velocity":127.5}
{"position":329.9375,"instrument":"Cello","level2":15,"level3":5,"pitch":42,"articulation":"collegno","articulation_tags":["collegno","cl","short"],"duration":1.0,"velocity":113.9733403961138}
{"position":329.9583333333333,"instrument":"Marimba","level2":14,"level3":7,"pitch":53,"articulation":"hits","articulation_tags":["hits","short"],"duration":0.25,"velocity":114.88049763174823}
{"position":329.9583333333333,"instrument":"Cello","level2":14,"level3":0,"pitch":52,"articulation":"long_hrm","articulation_tags":["long_hrm","hrm","long","harmonics"],"duration":2.4479166666666665,"velocity":101.76099526349647}
{"position":330.03125,"instrument":"Contrabass","level2":16,"level3":3,"pitch":37,"articulation":"pizzicato","articulation_tags":["pizzicato","pz","short"],"duration":1.0,"velocity":127.5}
{"position":330.0416666666667,"instrument":"TheGrandeurPiano","level2":15,"level3":null,"pitch":53,"articulation":"standard","articulation_tags":["standard","long"],"duration":1.8346456692913387,"velocity":115.65699875854901}
{"position":330.1354166666667,"instrument":"Marimba","level2":16,"level3":0,"pitch":37,"articulation":"hits","articulation_tags":["hits","short"],"duration":0.25,"velocity":127.5}
{"position":330.1666666666667,"instrument":"TheGrandeurPiano","level2":18,"level3":null,"pitch":72,"articulation":"standard","articulation_tags":["standard","long"],"duration":1.0138888888888888,"velocity":115.65699875854901}
{"position":330.1875,"instrument":"TheGrandeurPiano","level2":17,"level3":null,"pitch":50,"articulation":"standard","articulation_tags":["standard","long"],"duration":0.4236111111111111,"velocity":114.55870281250793}
{"position":330.5104166666667,"instrument":"Contrabass","level2":13,"level3":3,"pitch":45,"articulation":"short_hrm","articulation_tags":["short_hrm","hrm_s","short","harmonics"],"duration":1.0,"velocity":127.5}
{"position":330.53125,"instrument":"Cello","level2":12,"level3":5,"pitch":37,"articulation":"short_hrm","articulation_tags":["short_hrm","hrm_s","short","harmonics"],"duration":1.0,"velocity":127.5}
{"position":330.53125,"instrument":"Marimba","level2":18,"level3":5,"pitch":66,"articulation":"hits","articulation_tags":["hits","short"],"duration":0.25,"velocity":81.6608381536366}
{"position":330.53125,"instrument":"Violin","level2":17,"level3":11,"pitch":57,"articulation":"spiccato","articulation_tags":["spiccato","sp","short"],"duration":1.0,"velocity":107.17669714923368}
{"position":330.5833333333333,"instrument":"Marimba","level2":15,"level3":2,"pitch":37,"articulation":"hits","articulation_tags":["hits","short"],"duration":0.25,"velocity":113.4530326169336}
{"position":330.6666666666667,"instrument":"Violin","level2":17,"level3":11,"pitch":57,"articulation":"spiccato","articulation_tags":["spiccato","sp","short"],"duration":1.0,"velocity":107.17669714923368}
{"position":330.8229166666667,"instrument":"TheGrandeurPiano","level2":17,"level3":null,"pitch":50,"articulation":"standard","articulation_tags":["standard","long"],"duration":0.4097222222222222,"velocity":117.45941546018393}
{"position":331.125,"instrument":"CorAnglais","level2":14,"level3":8,"pitch":52,"articulation":"trill_2m","articulation_tags":["trill_2m","long","trill","m2"],"duration":1.3645833333333333,"velocity":101.76099526349647}
{"position":331.15625,"instrument":"Cello","level2":17,"level3":2,"pitch":57,"articulation":"short_hrm","articulation_tags":["short_hrm","hrm_s","short","harmonics"],"duration":1.0,"velocity":108.16641229289964}
{"position":331.1666666666667,"instrument":"Contrabass","level2":13,"level3":3,"pitch":46,"articulation":"short_hrm","articulation_tags":["short_hrm","hrm_s","short","harmonics"],"duration":1.0,"velocity":127.5}
{"position":331.1770833333333,"instrument":"Contrabass","level2":13,"level3":0,"pitch":46,"articulation":"short_hrm","articulation_tags":["short_hrm","hrm_s","short","harmonics"],"duration":1.0,"velocity":127.5}
{"position":331.28125,"instrument":"Bassoon","level2":14,"level3":1,"pitch":50,"articulation":"trill_2m","articulation_tags":["trill_2m","long","trill","m2"],"duration":4.614583333333333,"velocity":101.76099526349647}
{"position":331.3854166666667,"instrument":"Viola","level2":14,"level3":8,"pitch":52,"articulation":"long_flt","articulation_tags":["long_flt","flt","long","flautando"],"duration":1.1041666666666667,"velocity":101.76099526349647}
{"position":331.4375,"instrument":"TheGrandeurPiano","level2":17,"level3":null,"pitch":50,"articulation":"standard","articulation_tags":["standard","long"],"duration":0.3958333333333333,"velocity":113.07370750936433}
{"position":331.4895833333333,"instrument":"Violin","level2":17,"level3":8,"pitch":57,"articulation":"spiccato","articulation_tags":["spiccato","sp","short"],"duration":1.0,"velocity":108.461262882242}
{"position":331.5833333333333,"instrument":"Clarinet","level2":18,"level3":1,"pitch":66,"articulation":"legato","articulation_tags":["legato","lg"],"duration":9.135416666666666,"velocity":35.3216763072732}
{"position":331.6458333333333,"instrument":"Cello","level2":14,"level3":9,"pitch":52,"articulation":"long_cs","articulation_tags":["long_cs","cs","long","consordina"],"duration":0.84375,"velocity":101.76099526349647}
{"position":331.65625,"instrument":"TheGrandeurPiano","level2":14,"level3":null,"pitch":59,"articulation":"standard","articulation_tags":["standard","long"],"duration":0.5902777777777778,"velocity":113.69537825874846}
{"position":331.75,"instrument":"Contrabass","level2":12,"level3":7,"pitch":38,"articulation":"short_hrm","articulation_tags":["short_hrm","hrm_s","short","harmonics"],"duration":1.0,"velocity":127.5}
{"position":331.7916666666667,"instrument":"Cello","level2":17,"level3":5,"pitch":57,"articulation":"staccato","articulation_tags":["staccato","st","short"],"duration":1.0,"velocity":108.461262882242}
{"position":331.8854166666667,"instrument":"Viola","level2":14,"level3":3,"pitch":51,"articulation":"long_cs","articulation_tags":["long_cs","cs","long","consordina"],"duration":1.15625,"velocity":102.41982579276859}
{"position":331.8854166666667,"instrument":"TheGrandeurPiano","level2":18,"level3":null,"pitch":73,"articulation":"standard","articulation_tags":["standard","long"],"duration":1.1597222222222223,"velocity":114.55870281250793}
{"position":331.9791666666667,"instrument":"Marimba","level2":15,"level3":5,"pitch":43,"articulation":"hits","articulation_tags":["hits","short"],"duration":0.25,"velocity":113.4530326169336}
{"position":332.03125,"instrument":"TheGrandeurPiano","level2":17,"level3":null,"pitch":50,"articulation":"standard","articulation_tags":["standard","long"],"duration":0.3819444444444444,"velocity":114.55870281250793}
{"position":332.0416666666667,"instrument":"Marimba","level2":18,"level3":0,"pitch":64,"articulation":"hits","articulation_tags":["hits","short"],"duration":0.25,"velocity":82.50631708477113}
{"position":332.40625,"instrument":"Cello","level2":14,"level3":0,"pitch":51,"articulation":"long_hrm","articulation_tags":["long_hrm","hrm","long","harmonics"],"duration":0.6770833333333334,"velocity":102.41982579276859}
{"position":332.4479166666667,"instrument":"Marimba","level2":18,"level3":4,"pitch":65,"articulation":"hits","articulation_tags":["hits","short"],"duration":0.25,"velocity":82.50631708477113}
{"position":332.4479166666667,"instrument":"Cello","level2":14,"level3":0,"pitch":51,"articulation":"long_hrm","articulation_tags":["long_hrm","hrm","long","harmonics"],"duration":0.6354166666666666,"velocity":102.41982579276859}
{"position":332.4583333333333,"instrument":"Marimba","level2":14,"level3":9,"pitch":52,"articulation":"hits","articulation_tags":["hits","short"],"duration":0.25,"velocity":115.2099128963843}
{"position":332.4895833333333,"instrument":"TheGrandeurPiano","level2":15,"level3":null,"pitch":53,"articulation":"standard","articulation_tags":["standard","long"],"duration":1.8346456692913387,"velocity":112.44776395791955}
{"position":332.5520833333333,"instrument":"TheGrandeurPiano","level2":14,"level3":null,"pitch":59,"articulation":"standard","articulation_tags":["standard","long"],"duration":0.5486111111111112,"velocity":114.06636579513277}
{"position":332.78125,"instrument":"Marimba","level2":15,"level3":3,"pitch":42,"articulation":"hits","articulation_tags":["hits","short"],"duration":0.25,"velocity":112.89781731861514}
{"position":332.8854166666667,"instrument":"Marimba","level2":14,"level3":3,"pitch":51,"articulation":"hits","articulation_tags":["hits","short"],"duration":0.25,"velocity":114.87374851741797}
{"position":332.9270833333333,"instrument":"Vibraphone","level2":18,"level3":4,"pitch":64,"articulation":"hits","articulation_tags":["hits","short"],"duration":0.25,"velocity":82.50631708477113}
{"position":332.96875,"instrument":"CorAnglais","level2":17,"level3":5,"pitch":57,"articulation":"legato","articulation_tags":["legato","lg"],"duration":0.5208333333333334,"velocity":90.1815316070858}
{"position":333.03125,"instrument":"Cello","level2":14,"level3":3,"pitch":51,"articulation":"long_hrm","articulation_tags":["long_hrm","hrm","long","harmonics"],"duration":0.041666666666666664,"velocity":101.74749703483593}
{"position":333.1041666666667,"instrument":"Cello","level2":17,"level3":0,"pitch":58,"articulation":"short_hrm","articulation_tags":["short_hrm","hrm_s","short","harmonics"],"duration":1.0,"velocity":109.0907658035429}
{"position":333.15625,"instrument":"TheGrandeurPiano","level2":17,"level3":null,"pitch":50,"articulation":"standard","articulation_tags":["standard","long"],"duration":0.3541666666666667,"velocity":113.69537825874846}
{"position":333.375,"instrument":"TheGrandeurPiano","level2":14,"level3":null,"pitch":58,"articulation":"standard","articulation_tags":["standard","long"],"duration":0.5069444444444444,"velocity":111.94013095769438}
{"position":333.4166666666667,"instrument":"Marimba","level2":18,"level3":2,"pitch":64,"articulation":"hits","articulation_tags":["hits","short"],"duration":0.25,"velocity":82.50631708477113}
{"position":333.4375,"instrument":"Marimba","level2":12,"level3":6,"pitch":41,"articulation":"hits","articulation_tags":["hits","short"],"duration":0.25,"velocity":127.5}
{"position":333.4375,"instrument":"Vibraphone","level2":17,"level3":4,"pitch":58,"articulation":"hits","articulation_tags":["hits","short"],"duration":0.25,"velocity":109.42474865634534}
{"position":333.4479166666667,"instrument":"Vibraphone","level2":17,"level3":8,"pitch":57,"articulation":"hits","articulation_tags":["hits","short"],"duration":0.25,"velocity":109.42474865634534}
{"position":333.46875,"instrument":"Violin","level2":17,"level3":8,"pitch":57,"articulation":"spiccato","articulation_tags":["spiccato","sp","short"],"duration":1.0,"velocity":109.42474865634534}
{"position":333.4791666666667,"instrument":"Violin","level2":17,"level3":1,"pitch":56,"articulation":"staccato","articulation_tags":["staccato","st","short"],"duration":1.0,"velocity":109.42474865634534}
{"position":333.5104166666667,"instrument":"TheGrandeurPiano","level2":12,"level3":null,"pitch":34,"articulation":"standard","articulation_tags":["standard","long"],"duration":1.5354330708661417,"velocity":114.55870281250793}
{"position":333.5625,"instrument":"CorAnglais","level2":17,"level3":7,"pitch":56,"articulation":"legato","articulation_tags":["legato","lg"],"duration":0.8020833333333334,"velocity":90.84949731269067}
{"position":333.5625,"instrument":"Violin","level2":17,"level3":0,"pitch":58,"articulation":"short_hrm","articulation_tags":["short_hrm","hrm_s","short","harmonics"],"duration":1.0,"velocity":109.42474865634534}
{"position":333.6041666666667,"instrument":"TubularBells","level2":18,"level3":3,"pitch":66,"articulation":"hits_dumped","articulation_tags":["hits_dumped","short","hits","dumped"],"duration":0.25,"velocity":82.64988707616072}
{"position":333.8229166666667,"instrument":"Cello","level2":17,"level3":2,"pitch":57,"articulation":"spiccato","articulation_tags":["spiccato","sp","short"],"duration":1.0,"velocity":109.77110332663196}
{"position":333.8541666666667,"instrument":"Marimba","level2":17,"level3":2,"pitch":57,"articulation":"hits","articulation_tags":["hits","short"],"duration":0.25,"velocity":109.77110332663196}
{"position":333.9791666666667,"instrument":"TheGrandeurPiano","level2":15,"level3":null,"pitch":54,"articulation":"standard","articulation_tags":["standard","long"],"duration":1.8503937007874016,"velocity":109.75938855732471}
{"position":334.1354166666667,"instrument":"Marimba","level2":17,"level3":3,"pitch":56,"articulation":"hits","articulation_tags":["hits","short"],"duration":0.25,"velocity":109.77110332663196}
{"position":334.28125,"instrument":"Marimba","level2":17,"level3":7,"pitch":57,"articulation":"hits","articulation_tags":["hits","short"],"duration":0.25,"velocity":110.12949267240161}
{"position":334.3541666666667,"instrument":"Contrabass","level2":12,"level3":8,"pitch":40,"articulation":"spiccato","articulation_tags":["spiccato","sp","short"],"duration":1.0,"velocity":127.5}
{"position":334.3645833333333,"instrument":"CorAnglais","level2":17,"level3":7,"pitch":57,"articulation":"legato","articulation_tags":["legato","lg"],"duration":0.010416666666666666,"velocity":92.25898534480322}
{"position":334.6666666666667,"instrument":"TheGrandeurPiano","level2":17,"level3":null,"pitch":50,"articulation":"standard","articulation_tags":["standard","long"],"duration":0.3055555555555556,"velocity":109.75938855732471}
{"position":334.7291666666667,"instrument":"CorAnglais","level2":14,"level3":7,"pitch":52,"articulation":"trill_2m","articulation_tags":["trill_2m","long","trill","m2"],"duration":4.03125,"velocity":101.86890470569418}
{"position":334.7708333333333,"instrument":"Marimba","level2":17,"level3":1,"pitch":56,"articulation":"hits","articulation_tags":["hits","short"],"duration":0.25,"velocity":110.49958060578686}
{"position":334.7916666666667,"instrument":"Marimba","level2":17,"level3":4,"pitch":58,"articulation":"hits","articulation_tags":["hits","short"],"duration":0.25,"velocity":110.49958060578686}
{"position":334.875,"instrument":"Cello","level2":15,"level3":0,"pitch":38,"articulation":"pizzicato","articulation_tags":["pizzicato","pz","short"],"duration":1.0,"velocity":112.3779841124154}
{"position":335.125,"instrument":"TheGrandeurPiano","level2":17,"level3":null,"pitch":50,"articulation":"standard","articulation_tags":["standard","long"],"duration":0.2916666666666667,"velocity":107.66783797332214}
{"position":335.1770833333333,"instrument":"Marimba","level2":18,"level3":5,"pitch":66,"articulation":"hits","articulation_tags":["hits","short"],"duration":0.25,"velocity":83.39251432733079}
{"position":335.25,"instrument":"TheGrandeurPiano","level2":14,"level3":null,"pitch":57,"articulation":"standard","articulation_tags":["standard","long"],"duration":0.5694444444444444,"velocity":109.34482769738963}
{"position":335.3854166666667,"instrument":"Marimba","level2":18,"level3":0,"pitch":64,"articulation":"hits","articulation_tags":["hits","short"],"duration":0.25,"velocity":83.39251432733079}
{"position":335.4375,"instrument":"TheGrandeurPiano","level2":18,"level3":null,"pitch":73,"articulation":"standard","articulation_tags":["standard","long"],"duration":1.2708333333333333,"velocity":106.95996762710062}
{"position":335.8854166666667,"instrument":"Bassoon","level2":14,"level3":1,"pitch":50,"articulation":"trill_2m","articulation_tags":["trill_2m","long","trill","m2"],"duration":3.6354166666666665,"velocity":102.1246477579713}
{"position":335.96875,"instrument":"TheGrandeurPiano","level2":17,"level3":null,"pitch":50,"articulation":"standard","articulation_tags":["standard","long"],"duration":0.2569444444444444,"velocity":107.66783797332214}
{"position":336.0729166666667,"instrument":"TheGrandeurPiano","level2":14,"level3":null,"pitch":56,"articulation":"standard","articulation_tags":["standard","long"],"duration":0.3541666666666667,"velocity":106.10318274704358}
{"position":336.3541666666667,"instrument":"TheGrandeurPiano","level2":17,"level3":null,"pitch":50,"articulation":"standard","articulation_tags":["standard","long"],"duration":0.24305555555555555,"velocity":104.80250721000527}
{"position":336.4270833333333,"instrument":"Marimba","level2":17,"level3":0,"pitch":57,"articulation":"hits","articulation_tags":["hits","short"],"duration":0.25,"velocity":111.45729867988358}
{"position":336.4479166666667,"instrument":"Marimba","level2":17,"level3":0,"pitch":57,"articulation":"hits","articulation_tags":["hits","short"],"duration":0.25,"velocity":111.45729867988358}
{"position":336.5416666666667,"instrument":"Marimba","level2":17,"level3":3,"pitch":56,"articulation":"hits","articulation_tags":["hits","short"],"duration":0.25,"velocity":111.45729867988358}
{"position":336.6041666666667,"instrument":"TheGrandeurPiano","level2":14,"level3":null,"pitch":56,"articulation":"standard","articulation_tags":["standard","long"],"duration":0.3194444444444444,"velocity":103.77754699016697}
{"position":336.6458333333333,"instrument":"Vibraphone","level2":17,"level3":3,"pitch":56,"articulation":"hits","articulation_tags":["hits","short"],"duration":0.25,"velocity":111.45729867988358}
{"position":336.6875,"instrument":"Vibraphone","level2":18,"level3":6,"pitch":64,"articulation":"hits","articulation_tags":["hits","short"],"duration":0.25,"velocity":84.3102673969515}
{"position":336.6875,"instrument":"TubularBells","level2":18,"level3":7,"pitch":64,"articulation":"hits_dumped","articulation_tags":["hits_dumped","short","hits","dumped"],"duration":0.25,"velocity":84.3102673969515}
{"position":336.71875,"instrument":"TheGrandeurPiano","level2":17,"level3":null,"pitch":50,"articulation":"standard","articulation_tags":["standard","long"],"duration":0.2222222222222222,"velocity":103.03804310547729}
{"position":336.7291666666667,"instrument":"Marimba","level2":18,"level3":6,"pitch":64,"articulation":"hits","articulation_tags":["hits","short"],"duration":0.25,"velocity":84.3102673969515}
{"position":336.78125,"instrument":"TheGrandeurPiano","level2":14,"level3":null,"pitch":56,"articulation":"standard","articulation_tags":["standard","long"],"duration":0.3541666666666667,"velocity":103.03804310547729}
{"position":336.9791666666667,"instrument":"Marimba","level2":17,"level3":1,"pitch":56,"articulation":"hits","articulation_tags":["hits","short"],"duration":0.25,"velocity":111.88766183415567}
{"position":337.0520833333333,"instrument":"Marimba","level2":15,"level3":3,"pitch":43,"articulation":"hits","articulation_tags":["hits","short"],"duration":0.25,"velocity":112.3779841124154}
{"position":337.0520833333333,"instrument":"TheGrandeurPiano","level2":17,"level3":null,"pitch":50,"articulation":"standard","articulation_tags":["standard","long"],"duration":0.2013888888888889,"velocity":102.59130939559059}
{"position":337.0833333333333,"instrument":"TheGrandeurPiano","level2":14,"level3":null,"pitch":55,"articulation":"standard","articulation_tags":["standard","long"],"duration":0.2777777777777778,"velocity":102.59130939559059}
{"position":337.1875,"instrument":"TheGrandeurPiano","level2":15,"level3":null,"pitch":54,"articulation":"standard","articulation_tags":["standard","long"],"duration":1.8503937007874016,"velocity":102.44188510928531}
{"position":337.3020833333333,"instrument":"TheGrandeurPiano","level2":14,"level3":null,"pitch":55,"articulation":"standard","articulation_tags":["standard","long"],"duration":0.2777777777777778,"velocity":102.44188510928531}
{"position":337.34375,"instrument":"TheGrandeurPiano","level2":18,"level3":null,"pitch":74,"articulation":"standard","articulation_tags":["standard","long"],"duration":1.3402777777777777,"velocity":102.44188510928531}
{"position":337.4375,"instrument":"Marimba","level2":15,"level3":2,"pitch":38,"articulation":"hits","articulation_tags":["hits","short"],"duration":0.25,"velocity":111.82231384151177}
{"position":337.4583333333333,"instrument":"Marimba","level2":17,"level3":4,"pitch":57,"articulation":"hits","articulation_tags":["hits","short"],"duration":0.25,"velocity":112.77735220474949}
{"position":337.4895833333333,"instrument":"BassClarinet","level2":12,"level3":4,"pitch":39,"articulation":"legato","articulation_tags":["legato","lg"],"duration":18.822916666666668,"velocity":127.0}
{"position":337.6354166666667,"instrument":"TheGrandeurPiano","level2":17,"level3":null,"pitch":51,"articulation":"standard","articulation_tags":["standard","long"],"duration":0.1597222222222222,"velocity":103.03804310547729}
{"position":337.6979166666667,"instrument":"Marimba","level2":17,"level3":3,"pitch":56,"articulation":"hits","articulation_tags":["hits","short"],"duration":0.25,"velocity":112.63517132483707}
{"position":337.71875,"instrument":"Marimba","level2":17,"level3":0,"pitch":57,"articulation":"hits","articulation_tags":["hits","short"],"duration":0.25,"velocity":112.63517132483707}
{"position":337.71875,"instrument":"Vibraphone","level2":17,"level3":1,"pitch":56,"articulation":"hits","articulation_tags":["hits","short"],"duration":0.25,"velocity":112.63517132483707}
{"position":337.8020833333333,"instrument":"Vibraphone","level2":17,"level3":0,"pitch":57,"articulation":"hits","articulation_tags":["hits","short"],"duration":0.25,"velocity":112.63517132483707}
{"position":337.8541666666667,"instrument":"TheGrandeurPiano","level2":14,"level3":null,"pitch":54,"articulation":"standard","articulation_tags":["standard","long"],"duration":0.19444444444444445,"velocity":103.77754699016697}
{"position":337.875,"instrument":"TheGrandeurPiano","level2":17,"level3":null,"pitch":51,"articulation":"standard","articulation_tags":["standard","long"],"duration":0.1388888888888889,"velocity":103.77754699016697}
{"position":337.90625,"instrument":"TubularBells","level2":18,"level3":6,"pitch":64,"articulation":"hits_dumped","articulation_tags":["hits_dumped","short","hits","dumped"],"duration":0.25,"velocity":85.04687760146138}
{"position":337.9375,"instrument":"Clarinet","level2":18,"level3":2,"pitch":64,"articulation":"legato","articulation_tags":["legato","lg"],"duration":9.791666666666666,"velocity":42.093755202922765}
{"position":338.0,"instrument":"Marimba","level2":17,"level3":3,"pitch":57,"articulation":"hits","articulation_tags":["hits","short"],"duration":0.25,"velocity":113.10954168771295}
{"position":338.03125,"instrument":"TheGrandeurPiano","level2":14,"level3":null,"pitch":54,"articulation":"standard","articulation_tags":["standard","long"],"duration":0.1527777777777778,"velocity":104.80250721000527}
{"position":338.0416666666667,"instrument":"TheGrandeurPiano","level2":17,"level3":null,"pitch":51,"articulation":"standard","articulation_tags":["standard","long"],"duration":0.2152777777777778,"velocity":104.80250721000527}
{"position":338.0729166666667,"instrument":"Marimba","level2":17,"level3":3,"pitch":57,"articulation":"hits","articulation_tags":["hits","short"],"duration":0.25,"velocity":112.52106742441268}
{"position":338.1770833333333,"instrument":"Cello","level2":17,"level3":1,"pitch":56,"articulation":"spiccato","articulation_tags":["spiccato","sp","short"],"duration":1.0,"velocity":113.01087300719016}
{"position":338.1979166666667,"instrument":"Cello","level2":15,"level3":9,"pitch":40,"articulation":"collegno","articulation_tags":["collegno","cl","short"],"duration":1.0,"velocity":111.3029814348816}
{"position":338.1979166666667,"instrument":"Cello","level2":15,"level3":10,"pitch":40,"articulation":"collegno","articulation_tags":["collegno","cl","short"],"duration":1.0,"velocity":111.3029814348816}
{"position":338.2604166666667,"instrument":"TheGrandeurPiano","level2":17,"level3":null,"pitch":51,"articulation":"standard","articulation_tags":["standard","long"],"duration":0.09027777777777778,"velocity":101.23706123793102}
{"position":338.2708333333333,"instrument":"Cello","level2":15,"level3":10,"pitch":40,"articulation":"collegno","articulation_tags":["collegno","cl","short"],"duration":1.0,"velocity":111.3029814348816}
{"position":338.2916666666667,"instrument":"Viola","level2":17,"level3":4,"pitch":57,"articulation":"spiccato","articulation_tags":["spiccato","sp","short"],"duration":1.0,"velocity":113.50884285104911}
{"position":338.3645833333333,"instrument":"TheGrandeurPiano","level2":17,"level3":null,"pitch":52,"articulation":"standard","articulation_tags":["standard","long"],"duration":0.1111111111111111,"velocity":101.23706123793102}
{"position":338.46875,"instrument":"Marimba","level2":17,"level3":4,"pitch":57,"articulation":"hits","articulation_tags":["hits","short"],"duration":0.25,"velocity":113.4530326169336}
{"position":338.5,"instrument":"TheGrandeurPiano","level2":17,"level3":null,"pitch":52,"articulation":"standard","articulation_tags":["standard","long"],"duration":0.034722222222222224,"velocity":102.88938707365193}
{"position":338.5208333333333,"instrument":"TheGrandeurPiano","level2":14,"level3":null,"pitch":53,"articulation":"standard","articulation_tags":["standard","long"],"duration":0.027777777777777776,"velocity":102.88938707365193}
{"position":338.5520833333333,"instrument":"TheGrandeurPiano","level2":17,"level3":null,"pitch":52,"articulation":"standard","articulation_tags":["standard","long"],"duration":0.006944444444444444,"velocity":102.88938707365193}
{"position":338.5625,"instrument":"TheGrandeurPiano","level2":14,"level3":null,"pitch":53,"articulation":"standard","articulation_tags":["standard","long"],"duration":0.0,"velocity":102.88938707365193}
{"position":338.5625,"instrument":"TheGrandeurPiano","level2":14,"level3":null,"pitch":52,"articulation":"standard","articulation_tags":["standard","long"],"duration":0.0,"velocity":102.88938707365193}
{"position":338.6666666666667,"instrument":"Marimba","level2":17,"level3":1,"pitch":57,"articulation":"hits","articulation_tags":["hits","short"],"duration":0.25,"velocity":113.95954925383381}
{"position":338.6666666666667,"instrument":"Marimba","level2":17,"level3":1,"pitch":57,"articulation":"hits","articulation_tags":["hits","short"],"duration":0.25,"velocity":113.95954925383381}
{"position":338.7604166666667,"instrument":"TheGrandeurPiano","level2":18,"level3":null,"pitch":74,"articulation":"standard","articulation_tags":["standard","long"],"duration":2.1653543307086616,"velocity":100.16869416420057}
{"position":338.7708333333333,"instrument":"Marimba","level2":14,"level3":7,"pitch":52,"articulation":"hits","articulation_tags":["hits","short"],"duration":0.25,"velocity":113.95954925383381}
{"position":338.8229166666667,"instrument":"Contrabass","level2":15,"level3":10,"pitch":40,"articulation":"collegno","articulation_tags":["collegno","cl","short"],"duration":1.0,"velocity":111.3029814348816}
{"position":338.8645833333333,"instrument":"Vibraphone","level2":18,"level3":7,"pitch":64,"articulation":"hits","articulation_tags":["hits","short"],"duration":0.25,"velocity":85.25276536481994}
{"position":338.9895833333333,"instrument":"Marimba","level2":15,"level3":4,"pitch":40,"articulation":"hits","articulation_tags":["hits","short"],"duration":0.25,"velocity":111.3029814348816}
{"position":339.2916666666667,"instrument":"Contrabass","level2":12,"level3":5,"pitch":37,"articulation":"short_hrm","articulation_tags":["short_hrm","hrm_s","short","harmonics"],"duration":1.0,"velocity":127.5}
{"position":339.3541666666667,"instrument":"TheGrandeurPiano","level2":18,"level3":null,"pitch":74,"articulation":"standard","articulation_tags":["standard","long"],"duration":1.4236111111111112,"velocity":100.6282172924301}
{"position":339.5208333333333,"instrument":"Cello","level2":14,"level3":1,"pitch":50,"articulation":"long_flt","articulation_tags":["long_flt","flt","long","flautando"],"duration":2.65625,"velocity":99.91909850766761}
{"position":339.65625,"instrument":"Cello","level2":15,"level3":1,"pitch":44,"articulation":"collegno","articulation_tags":["collegno","cl","short"],"duration":1.0,"velocity":111.3029814348816}
{"position":340.21875,"instrument":"Cello","level2":15,"level3":9,"pitch":39,"articulation":"collegno","articulation_tags":["collegno","cl","short"],"duration":1.0,"velocity":111.3029814348816}
{"position":340.2916666666667,"instrument":"Cello","level2":15,"level3":7,"pitch":42,"articulation":"collegno","articulation_tags":["collegno","cl","short"],"duration":1.0,"velocity":111.3029814348816}
{"position":340.3020833333333,"instrument":"TheGrandeurPiano","level2":12,"level3":null,"pitch":35,"articulation":"standard","articulation_tags":["standard","long"],"duration":1.5511811023622046,"velocity":98.77481998133636}
{"position":340.6458333333333,"instrument":"Vibraphone","level2":18,"level3":2,"pitch":64,"articulation":"hits","articulation_tags":["hits","short"],"duration":0.25,"velocity":85.98081141592897}
{"position":340.6875,"instrument":"Cello","level2":15,"level3":9,"pitch":39,"articulation":"collegno","articulation_tags":["collegno","cl","short"],"duration":1.0,"velocity":111.3029814348816}
{"position":340.71875,"instrument":"Vibraphone","level2":18,"level3":1,"pitch":66,"articulation":"hits","articulation_tags":["hits","short"],"duration":0.25,"velocity":85.98081141592897}
{"position":340.8645833333333,"instrument":"TubularBells","level2":18,"level3":4,"pitch":64,"articulation":"hits_dumped","articulation_tags":["hits_dumped","short","hits","dumped"],"duration":0.25,"velocity":85.98081141592897}
{"position":341.4791666666667,"instrument":"TheGrandeurPiano","level2":18,"level3":null,"pitch":74,"articulation":"standard","articulation_tags":["standard","long"],"duration":1.5208333333333333,"velocity":98.1477289799213}
{"position":341.5520833333333,"instrument":"Cello","level2":15,"level3":0,"pitch":39,"articulation":"pizzicato","articulation_tags":["pizzicato","pz","short"],"duration":1.0,"velocity":111.3029814348816}
{"position":341.7916666666667,"instrument":"Cello","level2":14,"level3":7,"pitch":52,"articulation":"long_hrm","articulation_tags":["long_hrm","hrm","long","harmonics"],"duration":2.1145833333333335,"velocity":99.91909850766761}
{"position":341.9166666666667,"instrument":"TheGrandeurPiano","level2":15,"level3":null,"pitch":54,"articulation":"standard","articulation_tags":["standard","long"],"duration":1.8503937007874016,"velocity":99.86094653719759}
{"position":341.9270833333333,"instrument":"Cello","level2":14,"level3":7,"pitch":51,"articulation":"long_hrm","articulation_tags":["long_hrm","hrm","long","harmonics"],"duration":1.90625,"velocity":99.91909850766761}
{"position":342.09375,"instrument":"Vibraphone","level2":18,"level3":8,"pitch":65,"articulation":"hits","articulation_tags":["hits","short"],"duration":0.25,"velocity":86.7122854895567}
{"position":342.09375,"instrument":"Vibraphone","level2":18,"level3":9,"pitch":65,"articulation":"hits","articulation_tags":["hits","short"],"duration":0.25,"velocity":86.7122854895567}
{"position":342.1770833333333,"instrument":"Cello","level2":14,"level3":1,"pitch":50,"articulation":"long_cs","articulation_tags":["long_cs","cs","long","consordina"],"duration":1.5625,"velocity":99.91909850766761}
{"position":342.1770833333333,"instrument":"Vibraphone","level2":18,"level3":9,"pitch":65,"articulation":"hits","articulation_tags":["hits","short"],"duration":0.25,"velocity":86.7122854895567}
{"position":342.1979166666667,"instrument":"Marimba","level2":15,"level3":7,"pitch":42,"articulation":"hits","articulation_tags":["hits","short"],"duration":0.25,"velocity":110.74683159695991}
{"position":342.4375,"instrument":"Vibraphone","level2":18,"level3":8,"pitch":65,"articulation":"hits","articulation_tags":["hits","short"],"duration":0.25,"velocity":86.7122854895567}
{"position":342.5729166666667,"instrument":"Vibraphone","level2":18,"level3":10,"pitch":64,"articulation":"hits","articulation_tags":["hits","short"],"duration":0.25,"velocity":86.7122854895567}
{"position":342.625,"instrument":"TheGrandeurPiano","level2":15,"level3":null,"pitch":55,"articulation":"standard","articulation_tags":["standard","long"],"duration":1.8661417322834646,"velocity":97.51581398829656}
{"position":343.0520833333333,"instrument":"Cello","level2":14,"level3":1,"pitch":51,"articulation":"long_cs","articulation_tags":["long_cs","cs","long","consordina"],"duration":0.9895833333333334,"velocity":99.91909850766761}
{"position":343.2395833333333,"instrument":"Vibraphone","level2":18,"level3":3,"pitch":66,"articulation":"hits","articulation_tags":["hits","short"],"duration":0.25,"velocity":86.7122854895567}
{"position":343.46875,"instrument":"Contrabass","level2":12,"level3":7,"pitch":38,"articulation":"short_hrm","articulation_tags":["short_hrm","hrm_s","short","harmonics"],"duration":1.0,"velocity":127.5}
{"position":343.5,"instrument":"Vibraphone","level2":18,"level3":0,"pitch":64,"articulation":"hits","articulation_tags":["hits","short"],"duration":0.25,"velocity":86.7122854895567}
{"position":343.7083333333333,"instrument":"Marimba","level2":15,"level3":4,"pitch":40,"articulation":"hits","articulation_tags":["hits","short"],"duration":0.25,"velocity":110.22802845040653}
{"position":343.7395833333333,"instrument":"Cello","level2":14,"level3":1,"pitch":51,"articulation":"long_cs","articulation_tags":["long_cs","cs","long","consordina"],"duration":0.3020833333333333,"velocity":99.91909850766761}
{"position":343.7604166666667,"instrument":"TheGrandeurPiano","level2":18,"level3":null,"pitch":74,"articulation":"standard","articulation_tags":["standard","long"],"duration":1.6527777777777777,"velocity":99.86094653719759}
{"position":343.8125,"instrument":"Marimba","level2":15,"level3":1,"pitch":44,"articulation":"hits","articulation_tags":["hits","short"],"duration":0.25,"velocity":110.22802845040653}
{"position":343.84375,"instrument":"Cello","level2":14,"level3":7,"pitch":51,"articulation":"long_hrm","articulation_tags":["long_hrm","hrm","long","harmonics"],"duration":0.19791666666666666,"velocity":99.91909850766761}
{"position":343.90625,"instrument":"Cello","level2":14,"level3":7,"pitch":51,"articulation":"long_cs","articulation_tags":["long_cs","cs","long","consordina"],"duration":0.13541666666666666,"velocity":99.91909850766761}
{"position":344.0833333333333,"instrument":"Cello","level2":15,"level3":2,"pitch":38,"articulation":"pizzicato","articulation_tags":["pizzicato","pz","short"],"duration":1.0,"velocity":110.22802845040653}
{"position":344.1770833333333,"instrument":"Cello","level2":15,"level3":10,"pitch":41,"articulation":"collegno","articulation_tags":["collegno","cl","short"],"duration":1.0,"velocity":110.22802845040653}
{"position":344.8645833333333,"instrument":"Vibraphone","level2":18,"level3":6,"pitch":64,"articulation":"hits","articulation_tags":["hits","short"],"duration":0.25,"velocity":87.44668430337043}
{"position":345.34375,"instrument":"Marimba","level2":18,"level3":5,"pitch":65,"articulation":"hits","articulation_tags":["hits","short"],"duration":0.25,"velocity":87.44668430337043}
{"position":345.46875,"instrument":"TheGrandeurPiano","level2":18,"level3":null,"pitch":75,"articulation":"standard","articulation_tags":["standard","long"],"duration":1.7222222222222223,"velocity":102.59130939559059}
{"position":346.0104166666667,"instrument":"Marimba","level2":18,"level3":5,"pitch":65,"articulation":"hits","articulation_tags":["hits","short"],"duration":0.25,"velocity":87.65815915577647}
{"position":346.2395833333333,"instrument":"TheGrandeurPiano","level2":18,"level3":null,"pitch":75,"articulation":"standard","articulation_tags":["standard","long"],"duration":1.8263888888888888,"velocity":99.39719581212958}
{"position":346.34375,"instrument":"Marimba","level2":18,"level3":4,"pitch":64,"articulation":"hits","articulation_tags":["hits","short"],"duration":0.25,"velocity":88.38526462615397}
{"position":346.4270833333333,"instrument":"TheGrandeurPiano","level2":12,"level3":null,"pitch":35,"articulation":"standard","articulation_tags":["standard","long"],"duration":1.5511811023622046,"velocity":103.48249557722363}
{"position":346.6458333333333,"instrument":"Marimba","level2":18,"level3":0,"pitch":63,"articulation":"hits","articulation_tags":["hits","short"],"duration":0.25,"velocity":88.38526462615397}
{"position":346.6770833333333,"instrument":"TheGrandeurPiano","level2":15,"level3":null,"pitch":55,"articulation":"standard","articulation_tags":["standard","long"],"duration":1.8661417322834646,"velocity":104.94796595976241}
{"position":347.46875,"instrument":"Cello","level2":15,"level3":9,"pitch":39,"articulation":"pizzicato","articulation_tags":["pizzicato","pz","short"],"duration":1.0,"velocity":109.1531294723042}
{"position":347.7291666666667,"instrument":"Marimba","level2":18,"level3":2,"pitch":64,"articulation":"hits","articulation_tags":["hits","short"],"duration":0.25,"velocity":88.38526462615397}
{"position":347.8645833333333,"instrument":"Marimba","level2":18,"level3":11,"pitch":65,"articulation":"hits","articulation_tags":["hits","short"],"duration":0.25,"velocity":88.38526462615397}
{"position":348.0520833333333,"instrument":"TheGrandeurPiano","level2":18,"level3":null,"pitch":74,"articulation":"standard","articulation_tags":["standard","long"],"duration":2.1653543307086616,"velocity":103.77754699016697}
{"position":348.8020833333333,"instrument":"Bassoon","level2":15,"level3":5,"pitch":43,"articulation":"staccato","articulation_tags":["staccato","st","short"],"duration":0.25,"velocity":109.1531294723042}
{"position":348.90625,"instrument":"Marimba","level2":12,"level3":8,"pitch":40,"articulation":"hits","articulation_tags":["hits","short"],"duration":0.25,"velocity":127.5}
{"position":348.96875,"instrument":"Marimba","level2":18,"level3":8,"pitch":64,"articulation":"hits","articulation_tags":["hits","short"],"duration":0.25,"velocity":88.18359700182673}
{"position":348.9791666666667,"instrument":"TheGrandeurPiano","level2":18,"level3":null,"pitch":74,"articulation":"standard","articulation_tags":["standard","long"],"duration":2.0902777777777777,"velocity":107.66783797332214}
{"position":349.6979166666667,"instrument":"Marimba","level2":18,"level3":1,"pitch":66,"articulation":"hits","articulation_tags":["hits","short"],"duration":0.25,"velocity":88.89626735820627}
{"position":350.65625,"instrument":"Marimba","level2":18,"level3":3,"pitch":65,"articulation":"hits","articulation_tags":["hits","short"],"duration":0.25,"velocity":88.89626735820627}
{"position":351.46875,"instrument":"TheGrandeurPiano","level2":15,"level3":null,"pitch":55,"articulation":"standard","articulation_tags":["standard","long"],"duration":1.8661417322834646,"velocity":106.53258875087558}
{"position":351.6979166666667,"instrument":"Marimba","level2":18,"level3":7,"pitch":64,"articulation":"hits","articulation_tags":["hits","short"],"duration":0.25,"velocity":88.89626735820627}
{"position":352.0625,"instrument":"TheGrandeurPiano","level2":12,"level3":null,"pitch":24,"articulation":"standard","articulation_tags":["standard","long"],"duration":1.3779527559055118,"velocity":105.95959192632614}
{"position":352.1145833333333,"instrument":"TheGrandeurPiano","level2":18,"level3":null,"pitch":74,"articulation":"standard","articulation_tags":["standard","long"],"duration":2.1653543307086616,"velocity":105.95959192632614}
{"position":352.1354166666667,"instrument":"Marimba","level2":18,"level3":2,"pitch":63,"articulation":"hits","articulation_tags":["hits","short"],"duration":0.25,"velocity":89.59093857174537}
{"position":352.6458333333333,"instrument":"Marimba","level2":18,"level3":3,"pitch":65,"articulation":"hits","articulation_tags":["hits","short"],"duration":0.25,"velocity":89.59093857174537}
{"position":352.65625,"instrument":"Bassoon","level2":15,"level3":0,"pitch":39,"articulation":"tenuto","articulation_tags":["tenuto","t","short"],"duration":0.25,"velocity":108.07828932769362}
{"position":352.7916666666667,"instrument":"Marimba","level2":18,"level3":4,"pitch":64,"articulation":"hits","articulation_tags":["hits","short"],"duration":0.25,"velocity":89.59093857174537}
{"position":352.9479166666667,"instrument":"Bassoon","level2":15,"level3":5,"pitch":43,"articulation":"staccato","articulation_tags":["staccato","st","short"],"duration":0.25,"velocity":108.07828932769362}
{"position":354.1145833333333,"instrument":"Bassoon","level2":15,"level3":10,"pitch":41,"articulation":"staccato","articulation_tags":["staccato","st","short"],"duration":0.25,"velocity":108.07828932769362}
{"position":354.21875,"instrument":"Marimba","level2":18,"level3":7,"pitch":64,"articulation":"hits","articulation_tags":["hits","short"],"duration":0.25,"velocity":89.59093857174537}
{"position":354.4166666666667,"instrument":"Bassoon","level2":15,"level3":3,"pitch":43,"articulation":"staccato","articulation_tags":["staccato","st","short"],"duration":0.25,"velocity":108.07828932769362}
{"position":355.1145833333333,"instrument":"Marimba","level2":18,"level3":0,"pitch":63,"articulation":"hits","articulation_tags":["hits","short"],"duration":0.25,"velocity":89.59093857174537}
{"position":355.1145833333333,"instrument":"Marimba","level2":18,"level3":4,"pitch":64,"articulation":"hits","articulation_tags":["hits","short"],"duration":0.25,"velocity":89.59093857174537}
{"position":355.125,"instrument":"Vibraphone","level2":18,"level3":5,"pitch":65,"articulation":"hits","articulation_tags":["hits","short"],"duration":0.25,"velocity":89.59093857174537}
{"position":355.1354166666667,"instrument":"TheGrandeurPiano","level2":18,"level3":null,"pitch":74,"articulation":"standard","articulation_tags":["standard","long"],"duration":2.1653543307086616,"velocity":107.52670188041974}
{"position":355.2291666666667,"instrument":"Vibraphone","level2":18,"level3":7,"pitch":64,"articulation":"hits","articulation_tags":["hits","short"],"duration":0.25,"velocity":89.44804630241988}
{"position":355.59375,"instrument":"Bassoon","level2":15,"level3":3,"pitch":43,"articulation":"staccato","articulation_tags":["staccato","st","short"],"duration":0.25,"velocity":108.07828932769362}
{"position":355.8020833333333,"instrument":"Marimba","level2":18,"level3":5,"pitch":65,"articulation":"hits","articulation_tags":["hits","short"],"duration":0.25,"velocity":89.44804630241988}
{"position":356.0,"instrument":"TheGrandeurPiano","level2":18,"level3":null,"pitch":74,"articulation":"standard","articulation_tags":["standard","long"],"duration":2.1653543307086616,"velocity":104.80250721000527}
{"position":356.0208333333333,"instrument":"Bassoon","level2":15,"level3":4,"pitch":41,"articulation":"tenuto","articulation_tags":["tenuto","t","short"],"duration":0.25,"velocity":108.07828932769362}
{"position":356.28125,"instrument":"TheGrandeurPiano","level2":15,"level3":null,"pitch":56,"articulation":"standard","articulation_tags":["standard","long"],"duration":1.8818897637795275,"velocity":106.10318274704358}
{"position":356.3125,"instrument":"Contrabass","level2":12,"level3":4,"pitch":38,"articulation":"staccato","articulation_tags":["staccato","st","short"],"duration":1.0,"velocity":127.5}
{"position":356.4479166666667,"instrument":"Vibraphone","level2":18,"level3":8,"pitch":64,"articulation":"hits","articulation_tags":["hits","short"],"duration":0.25,"velocity":90.15024916155612}
{"position":356.8541666666667,"instrument":"Bassoon","level2":15,"level3":7,"pitch":42,"articulation":"tenuto","articulation_tags":["tenuto","t","short"],"duration":0.25,"velocity":107.52053154465305}
{"position":357.0,"instrument":"Contrabass","level2":12,"level3":7,"pitch":38,"articulation":"short_hrm","articulation_tags":["short_hrm","hrm_s","short","harmonics"],"duration":1.0,"velocity":127.5}
{"position":357.1458333333333,"instrument":"Bassoon","level2":15,"level3":1,"pitch":44,"articulation":"staccato","articulation_tags":["staccato","st","short"],"duration":0.25,"velocity":107.52053154465305}
{"position":357.25,"instrument":"Marimba","level2":18,"level3":3,"pitch":65,"articulation":"hits","articulation_tags":["hits","short"],"duration":0.25,"velocity":90.15024916155612}
{"position":357.2916666666667,"instrument":"TheGrandeurPiano","level2":12,"level3":null,"pitch":24,"articulation":"standard","articulation_tags":["standard","long"],"duration":1.3779527559055118,"velocity":102.44188510928531}
{"position":357.3020833333333,"instrument":"Cello","level2":15,"level3":9,"pitch":39,"articulation":"pizzicato","articulation_tags":["pizzicato","pz","short"],"duration":1.0,"velocity":107.52053154465305}
{"position":357.7916666666667,"instrument":"Contrabass","level2":12,"level3":5,"pitch":37,"articulation":"short_hrm","articulation_tags":["short_hrm","hrm_s","short","harmonics"],"duration":1.0,"velocity":127.5}
{"position":358.125,"instrument":"Contrabass","level2":12,"level3":7,"pitch":37,"articulation":"short_hrm","articulation_tags":["short_hrm","hrm_s","short","harmonics"],"duration":1.0,"velocity":127.5}
{"position":358.3854166666667,"instrument":"TheGrandeurPiano","level2":15,"level3":null,"pitch":56,"articulation":"standard","articulation_tags":["standard","long"],"duration":1.8818897637795275,"velocity":98.77481998133636}
{"position":358.5520833333333,"instrument":"TheGrandeurPiano","level2":18,"level3":null,"pitch":73,"articulation":"standard","articulation_tags":["standard","long"],"duration":1.7361111111111112,"velocity":98.77481998133636}
{"position":358.6875,"instrument":"Vibraphone","level2":18,"level3":3,"pitch":65,"articulation":"hits","articulation_tags":["hits","short"],"duration":0.25,"velocity":90.04297538563732}
{"position":359.09375,"instrument":"Vibraphone","level2":18,"level3":8,"pitch":65,"articulation":"hits","articulation_tags":["hits","short"],"duration":0.25,"velocity":90.04297538563732}
{"position":359.1041666666667,"instrument":"Vibraphone","level2":18,"level3":8,"pitch":65,"articulation":"hits","articulation_tags":["hits","short"],"duration":0.25,"velocity":90.04297538563732}
{"position":359.21875,"instrument":"Contrabass","level2":12,"level3":5,"pitch":36,"articulation":"short_hrm","articulation_tags":["short_hrm","hrm_s","short","harmonics"],"duration":1.0,"velocity":127.5}
{"position":359.3020833333333,"instrument":"Cello","level2":15,"level3":0,"pitch":39,"articulation":"pizzicato","articulation_tags":["pizzicato","pz","short"],"duration":1.0,"velocity":107.0035134363111}
{"position":359.4895833333333,"instrument":"Cello","level2":15,"level3":2,"pitch":38,"articulation":"pizzicato","articulation_tags":["pizzicato","pz","short"],"duration":1.0,"velocity":107.0035134363111}
{"position":359.6979166666667,"instrument":"Contrabass","level2":12,"level3":6,"pitch":40,"articulation":"staccato","articulation_tags":["staccato","st","short"],"duration":1.0,"velocity":127.5}
{"position":359.75,"instrument":"Vibraphone","level2":18,"level3":1,"pitch":65,"articulation":"hits","articulation_tags":["hits","short"],"duration":0.25,"velocity":90.04297538563732}
{"position":359.875,"instrument":"Vibraphone","level2":18,"level3":2,"pitch":63,"articulation":"hits","articulation_tags":["hits","short"],"duration":0.25,"velocity":90.04297538563732}
{"position":360.7291666666667,"instrument":"Vibraphone","level2":18,"level3":0,"pitch":63,"articulation":"hits","articulation_tags":["hits","short"],"duration":0.25,"velocity":90.04297538563732}
{"position":361.1041666666667,"instrument":"TheGrandeurPiano","level2":15,"level3":null,"pitch":56,"articulation":"standard","articulation_tags":["standard","long"],"duration":1.8818897637795275,"velocity":92.44155755018505}
{"position":361.15625,"instrument":"TheGrandeurPiano","level2":18,"level3":null,"pitch":73,"articulation":"standard","articulation_tags":["standard","long"],"duration":1.4444444444444444,"velocity":92.44155755018505}
{"position":362.0833333333333,"instrument":"TubularBells","level2":18,"level3":5,"pitch":64,"articulation":"hits_dumped","articulation_tags":["hits_dumped","short","hits","dumped"],"duration":0.25,"velocity":89.96592338137042}
{"position":362.2083333333333,"instrument":"TheGrandeurPiano","level2":12,"level3":null,"pitch":25,"articulation":"standard","articulation_tags":["standard","long"],"duration":1.3937007874015748,"velocity":90.0360497214304}
{"position":363.0416666666667,"instrument":"Marimba","level2":15,"level3":2,"pitch":38,"articulation":"hits","articulation_tags":["hits","short"],"duration":0.25,"velocity":106.44515472038213}
{"position":363.1666666666667,"instrument":"TheGrandeurPiano","level2":18,"level3":null,"pitch":73,"articulation":"standard","articulation_tags":["standard","long"],"duration":1.9305555555555556,"velocity":91.07641991950717}
{"position":363.3229166666667,"instrument":"TheGrandeurPiano","level2":18,"level3":null,"pitch":72,"articulation":"standard","articulation_tags":["standard","long"],"duration":1.2569444444444444,"velocity":89.33427037865772}
{"position":363.4166666666667,"instrument":"TubularBells","level2":18,"level3":5,"pitch":64,"articulation":"hits_dumped","articulation_tags":["hits_dumped","short","hits","dumped"],"duration":0.25,"velocity":90.63209177879935}
{"position":364.0729166666667,"instrument":"TubularBells","level2":18,"level3":0,"pitch":63,"articulation":"hits_dumped","articulation_tags":["hits_dumped","short","hits","dumped"],"duration":0.25,"velocity":90.63209177879935}
{"position":364.1979166666667,"instrument":"Marimba","level2":15,"level3":1,"pitch":44,"articulation":"hits","articulation_tags":["hits","short"],"duration":0.25,"velocity":106.44515472038213}
{"position":364.53125,"instrument":"Marimba","level2":15,"level3":4,"pitch":41,"articulation":"hits","articulation_tags":["hits","short"],"duration":0.25,"velocity":106.44515472038213}
{"position":364.59375,"instrument":"TubularBells","level2":18,"level3":1,"pitch":65,"articulation":"hits_dumped","articulation_tags":["hits_dumped","short","hits","dumped"],"duration":0.25,"velocity":90.63209177879935}
{"position":364.7395833333333,"instrument":"TubularBells","level2":18,"level3":0,"pitch":64,"articulation":"hits_dumped","articulation_tags":["hits_dumped","short","hits","dumped"],"duration":0.25,"velocity":90.63209177879935}
{"position":364.8645833333333,"instrument":"TheGrandeurPiano","level2":15,"level3":null,"pitch":57,"articulation":"standard","articulation_tags":["standard","long"],"duration":1.8976377952755905,"velocity":89.33427037865772}
{"position":365.2083333333333,"instrument":"TheGrandeurPiano","level2":18,"level3":null,"pitch":72,"articulation":"standard","articulation_tags":["standard","long"],"duration":1.1111111111111112,"velocity":88.80349666864942}
{"position":365.5104166666667,"instrument":"TubularBells","level2":18,"level3":5,"pitch":64,"articulation":"hits_dumped","articulation_tags":["hits_dumped","short","hits","dumped"],"duration":0.25,"velocity":90.61723950745201}
{"position":365.6875,"instrument":"TubularBells","level2":18,"level3":5,"pitch":64,"articulation":"hits_dumped","articulation_tags":["hits_dumped","short","hits","dumped"],"duration":0.25,"velocity":90.61723950745201}
{"position":365.71875,"instrument":"TubularBells","level2":18,"level3":0,"pitch":64,"articulation":"hits_dumped","articulation_tags":["hits_dumped","short","hits","dumped"],"duration":0.25,"velocity":90.61723950745201}
{"position":365.7916666666667,"instrument":"TubularBells","level2":18,"level3":2,"pitch":63,"articulation":"hits_dumped","articulation_tags":["hits_dumped","short","hits","dumped"],"duration":0.25,"velocity":90.61723950745201}
{"position":365.8854166666667,"instrument":"Marimba","level2":12,"level3":6,"pitch":40,"articulation":"hits","articulation_tags":["hits","short"],"duration":0.25,"velocity":127.5}
{"position":365.9375,"instrument":"TheGrandeurPiano","level2":15,"level3":null,"pitch":57,"articulation":"standard","articulation_tags":["standard","long"],"duration":1.8976377952755905,"velocity":90.0360497214304}
{"position":366.0520833333333,"instrument":"TheGrandeurPiano","level2":18,"level3":null,"pitch":72,"articulation":"standard","articulation_tags":["standard","long"],"duration":2.1338582677165356,"velocity":88.80349666864942}
{"position":366.09375,"instrument":"Marimba","level2":15,"level3":7,"pitch":42,"articulation":"hits","articulation_tags":["hits","short"],"duration":0.25,"velocity":105.36981071348325}
{"position":366.15625,"instrument":"TubularBells","level2":18,"level3":1,"pitch":65,"articulation":"hits_dumped","articulation_tags":["hits_dumped","short","hits","dumped"],"duration":0.25,"velocity":89.90402119464152}
{"position":366.8333333333333,"instrument":"TheGrandeurPiano","level2":12,"level3":null,"pitch":25,"articulation":"standard","articulation_tags":["standard","long"],"duration":1.3937007874015748,"velocity":87.18743479588203}
{"position":368.1770833333333,"instrument":"Marimba","level2":12,"level3":8,"pitch":40,"articulation":"hits","articulation_tags":["hits","short"],"duration":0.25,"velocity":127.5}
{"position":368.375,"instrument":"TheGrandeurPiano","level2":18,"level3":null,"pitch":71,"articulation":"standard","articulation_tags":["standard","long"],"duration":0.9097222222222222,"velocity":88.80349666864942}
{"position":368.7083333333333,"instrument":"Marimba","level2":15,"level3":7,"pitch":42,"articulation":"hits","articulation_tags":["hits","short"],"duration":0.25,"velocity":105.36981071348325}
{"position":368.75,"instrument":"Marimba","level2":15,"level3":9,"pitch":40,"articulation":"hits","articulation_tags":["hits","short"],"duration":0.25,"velocity":105.36981071348325}
{"position":369.2604166666667,"instrument":"Marimba","level2":15,"level3":5,"pitch":43,"articulation":"hits","articulation_tags":["hits","short"],"duration":0.25,"velocity":105.36981071348325}
{"position":369.4479166666667,"instrument":"Marimba","level2":15,"level3":4,"pitch":42,"articulation":"hits","articulation_tags":["hits","short"],"duration":0.25,"velocity":105.36981071348325}
{"position":369.5416666666667,"instrument":"TubularBells","level2":18,"level3":2,"pitch":63,"articulation":"hits_dumped","articulation_tags":["hits_dumped","short","hits","dumped"],"duration":0.25,"velocity":89.96592338137042}
{"position":369.7395833333333,"instrument":"Marimba","level2":12,"level3":8,"pitch":40,"articulation":"hits","articulation_tags":["hits","short"],"duration":0.25,"velocity":127.5}
{"position":369.7395833333333,"instrument":"TheGrandeurPiano","level2":18,"level3":null,"pitch":70,"articulation":"standard","articulation_tags":["standard","long"],"duration":0.8333333333333334,"velocity":91.59123568720254}
{"position":369.8229166666667,"instrument":"TubularBells","level2":20,"level3":0,"pitch":64,"articulation":"hits_dumped","articulation_tags":["hits_dumped","short","hits","dumped"],"duration":0.25,"velocity":90.04297538563732}
{"position":369.8229166666667,"instrument":"TubularBells","level2":20,"level3":1,"pitch":64,"articulation":"hits_dumped","articulation_tags":["hits_dumped","short","hits","dumped"],"duration":0.25,"velocity":90.04297538563732}
{"position":369.8958333333333,"instrument":"TubularBells","level2":19,"level3":0,"pitch":62,"articulation":"hits_dumped","articulation_tags":["hits_dumped","short","hits","dumped"],"duration":0.25,"velocity":90.04297538563732}
{"position":369.8958333333333,"instrument":"Vibraphone","level2":19,"level3":0,"pitch":62,"articulation":"hits","articulation_tags":["hits","short"],"duration":0.25,"velocity":90.04297538563732}
{"position":369.8958333333333,"instrument":"Vibraphone","level2":19,"level3":0,"pitch":62,"articulation":"hits","articulation_tags":["hits","short"],"duration":0.25,"velocity":90.04297538563732}
{"position":369.8958333333333,"instrument":"Vibraphone","level2":19,"level3":1,"pitch":62,"articulation":"hits","articulation_tags":["hits","short"],"duration":0.25,"velocity":90.04297538563732}
{"position":369.90625,"instrument":"TheGrandeurPiano","level2":19,"level3":null,"pitch":56,"articulation":"standard","articulation_tags":["standard","long"],"duration":0.006944444444444444,"velocity":91.59123568720254}
{"position":369.90625,"instrument":"TheGrandeurPiano","level2":20,"level3":null,"pitch":56,"articulation":"standard","articulation_tags":["standard","long"],"duration":0.0,"velocity":91.59123568720254}
{"position":369.9166666666667,"instrument":"Vibraphone","level2":18,"level3":1,"pitch":65,"articulation":"hits","articulation_tags":["hits","short"],"duration":0.25,"velocity":90.04297538563732}
{"position":369.9166666666667,"instrument":"Marimba","level2":20,"level3":1,"pitch":64,"articulation":"hits","articulation_tags":["hits","short"],"duration":0.25,"velocity":95.71305811626146}
{"position":369.9166666666667,"instrument":"Violin","level2":19,"level3":1,"pitch":63,"articulation":"long_flt","articulation_tags":["long_flt","flt","long","flautando"],"duration":0.125,"velocity":63.58612848895976}
{"position":369.9166666666667,"instrument":"TheGrandeurPiano","level2":19,"level3":null,"pitch":56,"articulation":"standard","articulation_tags":["standard","long"],"duration":0.020833333333333332,"velocity":91.59123568720254}
{"position":369.9166666666667,"instrument":"TheGrandeurPiano","level2":20,"level3":null,"pitch":56,"articulation":"standard","articulation_tags":["standard","long"],"duration":0.006944444444444444,"velocity":91.59123568720254}
{"position":369.9270833333333,"instrument":"TheGrandeurPiano","level2":20,"level3":null,"pitch":56,"articulation":"standard","articulation_tags":["standard","long"],"duration":0.020833333333333332,"velocity":91.59123568720254}
{"position":369.9375,"instrument":"Violin","level2":19,"level3":1,"pitch":63,"articulation":"long_slt","articulation_tags":["long_slt","slt","long","sultasto"],"duration":0.19791666666666666,"velocity":63.791018593644935}
{"position":369.9479166666667,"instrument":"TheGrandeurPiano","level2":19,"level3":null,"pitch":56,"articulation":"standard","articulation_tags":["standard","long"],"duration":0.027777777777777776,"velocity":91.59123568720254}
{"position":369.9583333333333,"instrument":"Violin","level2":19,"level3":0,"pitch":61,"articulation":"long_flt","articulation_tags":["long_flt","flt","long","flautando"],"duration":0.17708333333333334,"velocity":64.04285236876234}
{"position":369.9583333333333,"instrument":"TheGrandeurPiano","level2":20,"level3":null,"pitch":56,"articulation":"standard","articulation_tags":["standard","long"],"duration":0.041666666666666664,"velocity":91.59123568720254}
{"position":369.9583333333333,"instrument":"TheGrandeurPiano","level2":19,"level3":null,"pitch":56,"articulation":"standard","articulation_tags":["standard","long"],"duration":0.11805555555555555,"velocity":91.59123568720254}
{"position":369.9895833333333,"instrument":"TheGrandeurPiano","level2":19,"level3":null,"pitch":56,"articulation":"standard","articulation_tags":["standard","long"],"duration":0.041666666666666664,"velocity":88.26882483058662}
{"position":370.0104166666667,"instrument":"Marimba","level2":19,"level3":0,"pitch":61,"articulation":"hits","articulation_tags":["hits","short"],"duration":0.25,"velocity":96.17752807220036}
{"position":370.0208333333333,"instrument":"TheGrandeurPiano","level2":20,"level3":null,"pitch":56,"articulation":"standard","articulation_tags":["standard","long"],"duration":0.05555555555555555,"velocity":88.26882483058662}
{"position":370.0416666666667,"instrument":"Violin","level2":19,"level3":1,"pitch":63,"articulation":"long_slt","articulation_tags":["long_slt","slt","long","sultasto"],"duration":0.2604166666666667,"velocity":64.35505614440072}
{"position":370.0520833333333,"instrument":"TheGrandeurPiano","level2":19,"level3":null,"pitch":56,"articulation":"standard","articulation_tags":["standard","long"],"duration":0.05555555555555555,"velocity":92.27225156701645}
{"position":370.1041666666667,"instrument":"TheGrandeurPiano","level2":20,"level3":null,"pitch":56,"articulation":"standard","articulation_tags":["standard","long"],"duration":0.06944444444444445,"velocity":92.27225156701645}
{"position":370.125,"instrument":"TubularBells","level2":19,"level3":1,"pitch":63,"articulation":"hits_dumped","articulation_tags":["hits_dumped","short","hits","dumped"],"duration":0.25,"velocity":96.35640248180204}
{"position":370.125,"instrument":"TheGrandeurPiano","level2":19,"level3":null,"pitch":57,"articulation":"standard","articulation_tags":["standard","long"],"duration":0.125,"velocity":92.27225156701645}
{"position":370.1354166666667,"instrument":"Contrabass","level2":15,"level3":7,"pitch":42,"articulation":"pizzicato","articulation_tags":["pizzicato","pz","short"],"duration":1.0,"velocity":105.36981071348325}
{"position":370.1354166666667,"instrument":"Vibraphone","level2":19,"level3":0,"pitch":61,"articulation":"hits","articulation_tags":["hits","short"],"duration":0.25,"velocity":95.64425136928409}
{"position":370.1458333333333,"instrument":"TubularBells","level2":19,"level3":2,"pitch":62,"articulation":"hits_dumped","articulation_tags":["hits_dumped","short","hits","dumped"],"duration":0.25,"velocity":95.83865338052901}
{"position":370.1458333333333,"instrument":"Violin","level2":19,"level3":3,"pitch":62,"articulation":"long_flt","articulation_tags":["long_flt","flt","long","flautando"],"duration":0.0,"velocity":63.67730676105802}
{"position":370.1458333333333,"instrument":"Violin","level2":19,"level3":3,"pitch":62,"articulation":"long_flt","articulation_tags":["long_flt","flt","long","flautando"],"duration":0.07291666666666667,"velocity":63.67730676105802}
{"position":370.1666666666667,"instrument":"Vibraphone","level2":19,"level3":2,"pitch":62,"articulation":"hits","articulation_tags":["hits","short"],"duration":0.25,"velocity":95.83865338052901}
{"position":370.1666666666667,"instrument":"Marimba","level2":19,"level3":3,"pitch":62,"articulation":"hits","articulation_tags":["hits","short"],"duration":0.25,"velocity":95.83865338052901}
{"position":370.1875,"instrument":"Contrabass","level2":15,"level3":10,"pitch":41,"articulation":"collegno","articulation_tags":["collegno","cl","short"],"duration":1.0,"velocity":105.36981071348325}
{"position":370.1875,"instrument":"Violin","level2":19,"level3":2,"pitch":61,"articulation":"long_cs","articulation_tags":["long_cs","cs","long","consordina"],"duration":0.16666666666666666,"velocity":63.67730676105802}
{"position":370.2083333333333,"instrument":"TheGrandeurPiano","level2":20,"level3":null,"pitch":56,"articulation":"standard","articulation_tags":["standard","long"],"duration":0.09027777777777778,"velocity":92.27225156701645}
{"position":370.21875,"instrument":"Violin","level2":19,"level3":3,"pitch":63,"articulation":"long_flt","articulation_tags":["long_flt","flt","long","flautando"],"duration":0.22916666666666666,"velocity":63.67730676105802}
{"position":370.2395833333333,"instrument":"TheGrandeurPiano","level2":20,"level3":null,"pitch":56,"articulation":"standard","articulation_tags":["standard","long"],"duration":0.3055555555555556,"velocity":92.27225156701645}
{"position":370.3020833333333,"instrument":"Marimba","level2":19,"level3":1,"pitch":64,"articulation":"hits","articulation_tags":["hits","short"],"duration":0.25,"velocity":96.05753959918538}
{"position":370.3125,"instrument":"TheGrandeurPiano","level2":19,"level3":null,"pitch":57,"articulation":"standard","articulation_tags":["standard","long"],"duration":0.11805555555555555,"velocity":89.33427037865772}
{"position":370.3333333333333,"instrument":"Violin","level2":19,"level3":0,"pitch":61,"articulation":"long_hrm","articulation_tags":["long_hrm","hrm","long","harmonics"],"duration":1.4583333333333333,"velocity":62.75697523304325}
{"position":370.34375,"instrument":"Contrabass","level2":15,"level3":9,"pitch":40,"articulation":"pizzicato","articulation_tags":["pizzicato","pz","short"],"duration":1.0,"velocity":105.36981071348325}
{"position":370.3541666666667,"instrument":"Violin","level2":19,"level3":2,"pitch":61,"articulation":"long_cs","articulation_tags":["long_cs","cs","long","consordina"],"duration":0.3854166666666667,"velocity":63.24253645452907}
{"position":370.3541666666667,"instrument":"Violin","level2":19,"level3":2,"pitch":61,"articulation":"long_hrm","articulation_tags":["long_hrm","hrm","long","harmonics"],"duration":0.6666666666666666,"velocity":63.24253645452907}
{"position":370.375,"instrument":"TubularBells","level2":19,"level3":4,"pitch":62,"articulation":"hits_dumped","articulation_tags":["hits_dumped","short","hits","dumped"],"duration":0.25,"velocity":95.62126822726454}
{"position":370.375,"instrument":"TubularBells","level2":19,"level3":5,"pitch":62,"articulation":"hits_dumped","articulation_tags":["hits_dumped","short","hits","dumped"],"duration":0.25,"velocity":95.62126822726454}
{"position":370.375,"instrument":"TubularBells","level2":19,"level3":5,"pitch":62,"articulation":"hits_dumped","articulation_tags":["hits_dumped","short","hits","dumped"],"duration":0.25,"velocity":95.62126822726454}
{"position":370.3854166666667,"instrument":"Vibraphone","level2":19,"level3":3,"pitch":63,"articulation":"hits","articulation_tags":["hits","short"],"duration":0.25,"velocity":95.62126822726454}
{"position":370.3958333333333,"instrument":"TubularBells","level2":19,"level3":5,"pitch":62,"articulation":"hits_dumped","articulation_tags":["hits_dumped","short","hits","dumped"],"duration":0.25,"velocity":95.62126822726454}
{"position":370.40625,"instrument":"Vibraphone","level2":19,"level3":4,"pitch":62,"articulation":"hits","articulation_tags":["hits","short"],"duration":0.25,"velocity":95.62126822726454}
{"position":370.4375,"instrument":"TubularBells","level2":19,"level3":4,"pitch":61,"articulation":"hits_dumped","articulation_tags":["hits_dumped","short","hits","dumped"],"duration":0.25,"velocity":95.62126822726454}
{"position":370.4479166666667,"instrument":"Cello","level2":19,"level3":3,"pitch":63,"articulation":"long_slt","articulation_tags":["long_slt","slt","long","sultasto"],"duration":1.1458333333333333,"velocity":63.24253645452907}
{"position":370.4583333333333,"instrument":"Cello","level2":19,"level3":5,"pitch":63,"articulation":"long_slt","articulation_tags":["long_slt","slt","long","sultasto"],"duration":0.3125,"velocity":63.24253645452907}
{"position":370.4791666666667,"instrument":"TheGrandeurPiano","level2":19,"level3":null,"pitch":57,"articulation":"standard","articulation_tags":["standard","long"],"duration":0.09722222222222222,"velocity":93.61635943453109}
{"position":370.5,"instrument":"Marimba","level2":19,"level3":0,"pitch":60,"articulation":"hits","articulation_tags":["hits","short"],"duration":0.25,"velocity":95.22683538124737}
{"position":370.5104166666667,"instrument":"Cello","level2":18,"level3":1,"pitch":64,"articulation":"staccato","articulation_tags":["staccato","st","short"],"duration":1.0,"velocity":90.04297538563732}
{"position":370.625,"instrument":"TheGrandeurPiano","level2":19,"level3":null,"pitch":58,"articulation":"standard","articulation_tags":["standard","long"],"duration":0.10416666666666667,"velocity":91.07641991950717}
{"position":370.6354166666667,"instrument":"Vibraphone","level2":19,"level3":1,"pitch":64,"articulation":"hits","articulation_tags":["hits","short"],"duration":0.25,"velocity":95.5175472005178}
{"position":370.6666666666667,"instrument":"TubularBells","level2":19,"level3":5,"pitch":63,"articulation":"hits_dumped","articulation_tags":["hits_dumped","short","hits","dumped"],"duration":0.25,"velocity":95.5175472005178}
{"position":370.6666666666667,"instrument":"TheGrandeurPiano","level2":19,"level3":null,"pitch":58,"articulation":"standard","articulation_tags":["standard","long"],"duration":0.1111111111111111,"velocity":91.07641991950717}
{"position":370.6770833333333,"instrument":"Vibraphone","level2":18,"level3":2,"pitch":64,"articulation":"hits","articulation_tags":["hits","short"],"duration":0.25,"velocity":90.04297538563732}
{"position":370.6979166666667,"instrument":"TheGrandeurPiano","level2":20,"level3":null,"pitch":57,"articulation":"standard","articulation_tags":["standard","long"],"duration":0.2986111111111111,"velocity":91.07641991950717}
{"position":370.7083333333333,"instrument":"TheGrandeurPiano","level2":20,"level3":null,"pitch":57,"articulation":"standard","articulation_tags":["standard","long"],"duration":0.1527777777777778,"velocity":91.07641991950717}
{"position":370.71875,"instrument":"TubularBells","level2":19,"level3":4,"pitch":61,"articulation":"hits_dumped","articulation_tags":["hits_dumped","short","hits","dumped"],"duration":0.25,"velocity":94.87276221811244}
{"position":370.7291666666667,"instrument":"Vibraphone","level2":19,"level3":2,"pitch":60,"articulation":"hits","articulation_tags":["hits","short"],"duration":0.25,"velocity":94.87276221811244}
{"position":370.7708333333333,"instrument":"TheGrandeurPiano","level2":15,"level3":null,"pitch":57,"articulation":"standard","articulation_tags":["standard","long"],"duration":1.8976377952755905,"velocity":91.07641991950717}
{"position":370.7708333333333,"instrument":"Marimba","level2":19,"level3":5,"pitch":63,"articulation":"hits","articulation_tags":["hits","short"],"duration":0.25,"velocity":94.87276221811244}
{"position":370.7708333333333,"instrument":"Marimba","level2":19,"level3":4,"pitch":61,"articulation":"hits","articulation_tags":["hits","short"],"duration":0.25,"velocity":94.87276221811244}
{"position":370.78125,"instrument":"TheGrandeurPiano","level2":19,"level3":null,"pitch":58,"articulation":"standard","articulation_tags":["standard","long"],"duration":0.11805555555555555,"velocity":91.07641991950717}
{"position":370.8020833333333,"instrument":"Violin","level2":20,"level3":0,"pitch":63,"articulation":"pizzicato","articulation_tags":["pizzicato","pz","short"],"duration":1.0,"velocity":95.19168814543114}
{"position":370.8333333333333,"instrument":"TheGrandeurPiano","level2":19,"level3":null,"pitch":59,"articulation":"standard","articulation_tags":["standard","long"],"duration":0.1111111111111111,"velocity":91.07641991950717}
{"position":370.8541666666667,"instrument":"Viola","level2":19,"level3":6,"pitch":62,"articulation":"long_flt","articulation_tags":["long_flt","flt","long","flautando"],"duration":0.08333333333333333,"velocity":61.122168767860956}
{"position":370.8541666666667,"instrument":"Viola","level2":19,"level3":7,"pitch":62,"articulation":"long_slt","articulation_tags":["long_slt","slt","long","sultasto"],"duration":0.010416666666666666,"velocity":61.122168767860956}
{"position":370.8541666666667,"instrument":"Viola","level2":19,"level3":7,"pitch":62,"articulation":"long_slt","articulation_tags":["long_slt","slt","long","sultasto"],"duration":0.7604166666666666,"velocity":61.122168767860956}
{"position":370.8541666666667,"instrument":"Viola","level2":19,"level3":8,"pitch":62,"articulation":"long_cs","articulation_tags":["long_cs","cs","long","consordina"],"duration":0.0,"velocity":61.122168767860956}
{"position":370.8541666666667,"instrument":"Viola","level2":19,"level3":8,"pitch":62,"articulation":"long_cs","articulation_tags":["long_cs","cs","long","consordina"],"duration":0.2708333333333333,"velocity":61.122168767860956}
{"position":370.8541666666667,"instrument":"Viola","level2":19,"level3":9,"pitch":62,"articulation":"long_flt","articulation_tags":["long_flt","flt","long","flautando"],"duration":0.3229166666666667,"velocity":61.122168767860956}
{"position":370.8645833333333,"instrument":"Violin","level2":19,"level3":8,"pitch":62,"articulation":"long_cs","articulation_tags":["long_cs","cs","long","consordina"],"duration":0.84375,"velocity":61.122168767860956}
{"position":370.875,"instrument":"Violin","level2":19,"level3":7,"pitch":62,"articulation":"long_slt","articulation_tags":["long_slt","slt","long","sultasto"],"duration":0.7604166666666666,"velocity":61.122168767860956}
{"position":370.9375,"instrument":"TheGrandeurPiano","level2":20,"level3":null,"pitch":57,"articulation":"standard","articulation_tags":["standard","long"],"duration":0.18055555555555555,"velocity":93.4496216277027}
{"position":370.9375,"instrument":"Cello","level2":19,"level3":6,"pitch":61,"articulation":"long_flt","articulation_tags":["long_flt","flt","long","flautando"],"duration":0.2916666666666667,"velocity":61.122168767860956}
{"position":370.9583333333333,"instrument":"TheGrandeurPiano","level2":19,"level3":null,"pitch":59,"articulation":"standard","articulation_tags":["standard","long"],"duration":0.125,"velocity":93.4496216277027}
{"position":370.9791666666667,"instrument":"TheGrandeurPiano","level2":18,"level3":null,"pitch":70,"articulation":"standard","articulation_tags":["standard","long"],"duration":0.7638888888888888,"velocity":93.4496216277027}
{"position":371.0104166666667,"instrument":"Cello","level2":19,"level3":1,"pitch":64,"articulation":"tremolo","articulation_tags":["tremolo","tr","multi_note"],"duration":0.3854166666666667,"velocity":60.587416725207575}
{"position":371.0208333333333,"instrument":"Marimba","level2":19,"level3":2,"pitch":60,"articulation":"hits","articulation_tags":["hits","short"],"duration":0.25,"velocity":94.29370836260378}
{"position":371.1354166666667,"instrument":"Marimba","level2":19,"level3":8,"pitch":61,"articulation":"hits","articulation_tags":["hits","short"],"duration":0.25,"velocity":94.29370836260378}
{"position":371.1458333333333,"instrument":"TheGrandeurPiano","level2":20,"level3":null,"pitch":57,"articulation":"standard","articulation_tags":["standard","long"],"duration":0.3055555555555556,"velocity":93.4496216277027}
{"position":371.1458333333333,"instrument":"TheGrandeurPiano","level2":19,"level3":null,"pitch":59,"articulation":"standard","articulation_tags":["standard","long"],"duration":0.13194444444444445,"velocity":93.4496216277027}
{"position":371.15625,"instrument":"Vibraphone","level2":19,"level3":10,"pitch":62,"articulation":"hits","articulation_tags":["hits","short"],"duration":0.25,"velocity":94.66949216874592}
{"position":371.15625,"instrument":"Vibraphone","level2":19,"level3":11,"pitch":62,"articulation":"hits","articulation_tags":["hits","short"],"duration":0.25,"velocity":94.66949216874592}
{"position":371.2291666666667,"instrument":"TubularBells","level2":19,"level3":6,"pitch":62,"articulation":"hits_dumped","articulation_tags":["hits_dumped","short","hits","dumped"],"duration":0.25,"velocity":94.0723615795054}
{"position":371.3020833333333,"instrument":"TheGrandeurPiano","level2":19,"level3":null,"pitch":60,"articulation":"standard","articulation_tags":["standard","long"],"duration":0.09027777777777778,"velocity":91.59123568720254}
{"position":371.3541666666667,"instrument":"TubularBells","level2":19,"level3":4,"pitch":61,"articulation":"hits_dumped","articulation_tags":["hits_dumped","short","hits","dumped"],"duration":0.25,"velocity":93.89854249434784}
{"position":371.40625,"instrument":"Vibraphone","level2":19,"level3":1,"pitch":64,"articulation":"hits","articulation_tags":["hits","short"],"duration":0.25,"velocity":93.89854249434784}
{"position":371.4375,"instrument":"TheGrandeurPiano","level2":19,"level3":null,"pitch":61,"articulation":"standard","articulation_tags":["standard","long"],"duration":0.09027777777777778,"velocity":91.59123568720254}
{"position":371.4583333333333,"instrument":"Vibraphone","level2":19,"level3":8,"pitch":62,"articulation":"hits","articulation_tags":["hits","short"],"duration":0.25,"velocity":93.3295214167146}
{"position":371.4791666666667,"instrument":"TubularBells","level2":19,"level3":4,"pitch":61,"articulation":"hits_dumped","articulation_tags":["hits_dumped","short","hits","dumped"],"duration":0.25,"velocity":93.3295214167146}
{"position":371.5,"instrument":"Marimba","level2":19,"level3":2,"pitch":60,"articulation":"hits","articulation_tags":["hits","short"],"duration":0.25,"velocity":93.3295214167146}
{"position":371.5625,"instrument":"TheGrandeurPiano","level2":19,"level3":null,"pitch":61,"articulation":"standard","articulation_tags":["standard","long"],"duration":0.1527777777777778,"velocity":94.93758385356371}
{"position":371.5729166666667,"instrument":"Contrabass","level2":12,"level3":4,"pitch":38,"articulation":"staccato","articulation_tags":["staccato","st","short"],"duration":1.0,"velocity":127.5}
{"position":371.6041666666667,"instrument":"Marimba","level2":19,"level3":3,"pitch":63,"articulation":"hits","articulation_tags":["hits","short"],"duration":0.25,"velocity":93.22664382813551}
{"position":371.6145833333333,"instrument":"Cello","level2":19,"level3":7,"pitch":62,"articulation":"long_flt","articulation_tags":["long_flt","flt","long","flautando"],"duration":0.07291666666666667,"velocity":58.453287656271016}
{"position":371.625,"instrument":"Cello","level2":19,"level3":7,"pitch":62,"articulation":"long_flt","articulation_tags":["long_flt","flt","long","flautando"],"duration":0.0625,"velocity":58.453287656271016}
{"position":371.6354166666667,"instrument":"Cello","level2":19,"level3":3,"pitch":63,"articulation":"long_flt","articulation_tags":["long_flt","flt","long","flautando"],"duration":0.17708333333333334,"velocity":58.453287656271016}
{"position":371.6770833333333,"instrument":"Cello","level2":19,"level3":5,"pitch":63,"articulation":"legato","articulation_tags":["legato","lg"],"duration":0.34375,"velocity":58.453287656271016}
{"position":371.6770833333333,"instrument":"Vibraphone","level2":19,"level3":4,"pitch":61,"articulation":"hits","articulation_tags":["hits","short"],"duration":0.25,"velocity":93.22664382813551}
{"position":371.6875,"instrument":"Cello","level2":19,"level3":4,"pitch":62,"articulation":"long_flt","articulation_tags":["long_flt","flt","long","flautando"],"duration":0.010416666666666666,"velocity":57.381484176162765}
{"position":371.7083333333333,"instrument":"Cello","level2":19,"level3":8,"pitch":62,"articulation":"long_flt","articulation_tags":["long_flt","flt","long","flautando"],"duration":0.10416666666666667,"velocity":57.381484176162765}
{"position":371.7291666666667,"instrument":"Cello","level2":19,"level3":0,"pitch":61,"articulation":"long_hrm","articulation_tags":["long_hrm","hrm","long","harmonics"],"duration":0.3125,"velocity":57.381484176162765}
{"position":371.7604166666667,"instrument":"Marimba","level2":19,"level3":5,"pitch":63,"articulation":"hits","articulation_tags":["hits","short"],"duration":0.25,"velocity":92.69074208808138}
{"position":371.7708333333333,"instrument":"Marimba","level2":19,"level3":1,"pitch":64,"articulation":"hits","articulation_tags":["hits","short"],"duration":0.25,"velocity":92.69074208808138}
{"position":371.78125,"instrument":"Vibraphone","level2":18,"level3":2,"pitch":64,"articulation":"hits","articulation_tags":["hits","short"],"duration":0.25,"velocity":89.44804630241988}
{"position":371.78125,"instrument":"TheGrandeurPiano","level2":19,"level3":null,"pitch":62,"articulation":"standard","articulation_tags":["standard","long"],"duration":0.1597222222222222,"velocity":93.78273981717496}
{"position":371.78125,"instrument":"Viola","level2":19,"level3":8,"pitch":62,"articulation":"long_flt","articulation_tags":["long_flt","flt","long","flautando"],"duration":0.03125,"velocity":58.35000662135668}
{"position":371.7916666666667,"instrument":"Viola","level2":19,"level3":3,"pitch":62,"articulation":"long_flt","articulation_tags":["long_flt","flt","long","flautando"],"duration":0.020833333333333332,"velocity":58.35000662135668}
{"position":371.7916666666667,"instrument":"Viola","level2":19,"level3":0,"pitch":61,"articulation":"long_cs","articulation_tags":["long_cs","cs","long","consordina"],"duration":0.3020833333333333,"velocity":58.35000662135668}
{"position":371.8020833333333,"instrument":"TheGrandeurPiano","level2":19,"level3":null,"pitch":62,"articulation":"standard","articulation_tags":["standard","long"],"duration":0.06944444444444445,"velocity":93.78273981717496}
{"position":371.8125,"instrument":"Cello","level2":19,"level3":3,"pitch":62,"articulation":"long_flt","articulation_tags":["long_flt","flt","long","flautando"],"duration":0.0,"velocity":57.32843441455972}
{"position":371.8854166666667,"instrument":"TheGrandeurPiano","level2":20,"level3":null,"pitch":58,"articulation":"standard","articulation_tags":["standard","long"],"duration":0.2777777777777778,"velocity":93.78273981717496}
{"position":371.8958333333333,"instrument":"Cello","level2":19,"level3":2,"pitch":61,"articulation":"long_hrm","articulation_tags":["long_hrm","hrm","long","harmonics"],"duration":0.3854166666666667,"velocity":57.32843441455972}
{"position":372.0104166666667,"instrument":"TheGrandeurPiano","level2":19,"level3":null,"pitch":63,"articulation":"standard","articulation_tags":["standard","long"],"duration":0.0625,"velocity":93.78273981717496}
{"position":372.03125,"instrument":"Marimba","level2":19,"level3":5,"pitch":62,"articulation":"hits","articulation_tags":["hits","short"],"duration":0.25,"velocity":92.22113162260149}
{"position":372.0416666666667,"instrument":"Marimba","level2":19,"level3":0,"pitch":61,"articulation":"hits","articulation_tags":["hits","short"],"duration":0.25,"velocity":92.22113162260149}
{"position":372.0729166666667,"instrument":"Contrabass","level2":12,"level3":5,"pitch":36,"articulation":"spiccato","articulation_tags":["spiccato","sp","short"],"duration":1.0,"velocity":127.5}
{"position":372.09375,"instrument":"Vibraphone","level2":19,"level3":5,"pitch":62,"articulation":"hits","articulation_tags":["hits","short"],"duration":0.25,"velocity":92.22113162260149}
{"position":372.09375,"instrument":"Vibraphone","level2":19,"level3":0,"pitch":61,"articulation":"hits","articulation_tags":["hits","short"],"duration":0.25,"velocity":92.22113162260149}
{"position":372.1041666666667,"instrument":"TheGrandeurPiano","level2":19,"level3":null,"pitch":64,"articulation":"standard","articulation_tags":["standard","long"],"duration":0.05555555555555555,"velocity":92.94724040202017}
{"position":372.1458333333333,"instrument":"Cello","level2":19,"level3":1,"pitch":63,"articulation":"legato","articulation_tags":["legato","lg"],"duration":0.25,"velocity":55.53460372270304}
{"position":372.15625,"instrument":"Cello","level2":19,"level3":5,"pitch":62,"articulation":"long_flt","articulation_tags":["long_flt","flt","long","flautando"],"duration":0.020833333333333332,"velocity":55.53460372270304}
{"position":372.1666666666667,"instrument":"Cello","level2":19,"level3":0,"pitch":62,"articulation":"long_flt","articulation_tags":["long_flt","flt","long","flautando"],"duration":0.010416666666666666,"velocity":55.53460372270304}
{"position":372.1770833333333,"instrument":"Cello","level2":19,"level3":5,"pitch":62,"articulation":"long_flt","articulation_tags":["long_flt","flt","long","flautando"],"duration":0.0,"velocity":55.53460372270304}
{"position":372.1875,"instrument":"TubularBells","level2":18,"level3":1,"pitch":64,"articulation":"hits_dumped","articulation_tags":["hits_dumped","short","hits","dumped"],"duration":0.25,"velocity":89.59093857174537}
{"position":372.1875,"instrument":"TheGrandeurPiano","level2":19,"level3":null,"pitch":64,"articulation":"standard","articulation_tags":["standard","long"],"duration":0.04861111111111111,"velocity":92.94724040202017}
{"position":372.2083333333333,"instrument":"Cello","level2":19,"level3":2,"pitch":61,"articulation":"long_cs","articulation_tags":["long_cs","cs","long","consordina"],"duration":0.23958333333333334,"velocity":54.66091564052503}
{"position":372.2291666666667,"instrument":"Cello","level2":15,"level3":10,"pitch":42,"articulation":"collegno","articulation_tags":["collegno","cl","short"],"duration":1.0,"velocity":104.81892836039927}
{"position":372.2604166666667,"instrument":"TheGrandeurPiano","level2":19,"level3":null,"pitch":64,"articulation":"standard","articulation_tags":["standard","long"],"duration":0.14583333333333334,"velocity":92.94724040202017}
{"position":372.2604166666667,"instrument":"TheGrandeurPiano","level2":19,"level3":null,"pitch":65,"articulation":"standard","articulation_tags":["standard","long"],"duration":0.041666666666666664,"velocity":92.94724040202017}
{"position":372.28125,"instrument":"Marimba","level2":19,"level3":2,"pitch":61,"articulation":"hits","articulation_tags":["hits","short"],"duration":0.25,"velocity":91.50081638206723}
{"position":372.3020833333333,"instrument":"TheGrandeurPiano","level2":20,"level3":null,"pitch":58,"articulation":"standard","articulation_tags":["standard","long"],"duration":0.3194444444444444,"velocity":92.44155755018505}
{"position":372.3020833333333,"instrument":"TubularBells","level2":19,"level3":1,"pitch":63,"articulation":"hits_dumped","articulation_tags":["hits_dumped","short","hits","dumped"],"duration":0.25,"velocity":91.50081638206723}
{"position":372.3958333333333,"instrument":"Vibraphone","level2":20,"level3":1,"pitch":65,"articulation":"hits","articulation_tags":["hits","short"],"duration":0.25,"velocity":94.03523849076814}
{"position":372.3958333333333,"instrument":"Vibraphone","level2":19,"level3":1,"pitch":63,"articulation":"hits","articulation_tags":["hits","short"],"duration":0.25,"velocity":90.75044960605463}
{"position":372.4270833333333,"instrument":"TheGrandeurPiano","level2":15,"level3":null,"pitch":57,"articulation":"standard","articulation_tags":["standard","long"],"duration":1.8976377952755905,"velocity":92.44155755018505}
{"position":372.4375,"instrument":"TheGrandeurPiano","level2":19,"level3":null,"pitch":66,"articulation":"standard","articulation_tags":["standard","long"],"duration":0.027777777777777776,"velocity":92.44155755018505}
{"position":372.4479166666667,"instrument":"TubularBells","level2":19,"level3":2,"pitch":61,"articulation":"hits_dumped","articulation_tags":["hits_dumped","short","hits","dumped"],"duration":0.25,"velocity":90.40793787814707}
{"position":372.4583333333333,"instrument":"Marimba","level2":19,"level3":2,"pitch":62,"articulation":"hits","articulation_tags":["hits","short"],"duration":0.25,"velocity":90.40793787814707}
{"position":372.4791666666667,"instrument":"Viola","level2":19,"level3":1,"pitch":63,"articulation":"long_flt","articulation_tags":["long_flt","flt","long","flautando"],"duration":0.041666666666666664,"velocity":52.81587575629413}
{"position":372.4791666666667,"instrument":"TheGrandeurPiano","level2":19,"level3":null,"pitch":67,"articulation":"standard","articulation_tags":["standard","long"],"duration":0.020833333333333332,"velocity":92.44155755018505}
{"position":372.5,"instrument":"Viola","level2":19,"level3":1,"pitch":62,"articulation":"long_flt","articulation_tags":["long_flt","flt","long","flautando"],"duration":0.020833333333333332,"velocity":53.47139865159534}
{"position":372.5104166666667,"instrument":"TheGrandeurPiano","level2":19,"level3":null,"pitch":67,"articulation":"standard","articulation_tags":["standard","long"],"duration":0.013888888888888888,"velocity":92.44155755018505}
{"position":372.53125,"instrument":"TheGrandeurPiano","level2":20,"level3":null,"pitch":59,"articulation":"standard","articulation_tags":["standard","long"],"duration":0.3194444444444444,"velocity":92.44155755018505}
{"position":372.53125,"instrument":"Marimba","level2":19,"level3":2,"pitch":62,"articulation":"hits","articulation_tags":["hits","short"],"duration":0.25,"velocity":90.4530057622967}
{"position":372.53125,"instrument":"Marimba","level2":19,"level3":2,"pitch":62,"articulation":"hits","articulation_tags":["hits","short"],"duration":0.25,"velocity":90.4530057622967}
{"position":372.6458333333333,"instrument":"TubularBells","level2":18,"level3":1,"pitch":64,"articulation":"hits_dumped","articulation_tags":["hits_dumped","short","hits","dumped"],"duration":0.25,"velocity":89.96592338137042}
{"position":372.6875,"instrument":"Vibraphone","level2":18,"level3":2,"pitch":64,"articulation":"hits","articulation_tags":["hits","short"],"duration":0.25,"velocity":89.96592338137042}
{"position":372.78125,"instrument":"Cello","level2":15,"level3":3,"pitch":43,"articulation":"collegno","articulation_tags":["collegno","cl","short"],"duration":1.0,"velocity":104.29450280222012}
{"position":372.78125,"instrument":"TheGrandeurPiano","level2":20,"level3":null,"pitch":59,"articulation":"standard","articulation_tags":["standard","long"],"duration":0.375,"velocity":97.35706833815088}
{"position":373.0104166666667,"instrument":"TheGrandeurPiano","level2":20,"level3":null,"pitch":59,"articulation":"standard","articulation_tags":["standard","long"],"duration":0.3263888888888889,"velocity":97.51581398829656}
{"position":373.34375,"instrument":"TheGrandeurPiano","level2":20,"level3":null,"pitch":59,"articulation":"standard","articulation_tags":["standard","long"],"duration":0.4375,"velocity":93.78273981717496}
{"position":373.40625,"instrument":"Cello","level2":15,"level3":0,"pitch":40,"articulation":"pizzicato","articulation_tags":["pizzicato","pz","short"],"duration":1.0,"velocity":104.29450280222012}
{"position":373.4895833333333,"instrument":"TheGrandeurPiano","level2":20,"level3":null,"pitch":60,"articulation":"standard","articulation_tags":["standard","long"],"duration":0.3333333333333333,"velocity":93.78273981717496}
{"position":373.9895833333333,"instrument":"TheGrandeurPiano","level2":20,"level3":null,"pitch":60,"articulation":"standard","articulation_tags":["standard","long"],"duration":0.3333333333333333,"velocity":96.39801240703959}
{"position":374.0,"instrument":"TheGrandeurPiano","level2":20,"level3":null,"pitch":60,"articulation":"standard","articulation_tags":["standard","long"],"duration":0.5138888888888888,"velocity":96.39801240703959}
{"position":374.4895833333333,"instrument":"TheGrandeurPiano","level2":20,"level3":null,"pitch":61,"articulation":"standard","articulation_tags":["standard","long"],"duration":0.3402777777777778,"velocity":95.58997167371304}
{"position":374.7708333333333,"instrument":"TheGrandeurPiano","level2":20,"level3":null,"pitch":61,"articulation":"standard","articulation_tags":["standard","long"],"duration":0.6180555555555556,"velocity":97.99020682351394}
{"position":375.0,"instrument":"TheGrandeurPiano","level2":20,"level3":null,"pitch":61,"articulation":"standard","articulation_tags":["standard","long"],"duration":0.3472222222222222,"velocity":96.39801240703959}
{"position":375.2395833333333,"instrument":"Marimba","level2":20,"level3":0,"pitch":63,"articulation":"hits","articulation_tags":["hits","short"],"duration":0.25,"velocity":91.50081638206723}
{"position":375.3125,"instrument":"Marimba","level2":20,"level3":2,"pitch":63,"articulation":"hits","articulation_tags":["hits","short"],"duration":0.25,"velocity":91.50081638206723}
{"position":375.3125,"instrument":"Marimba","level2":20,"level3":3,"pitch":64,"articulation":"hits","articulation_tags":["hits","short"],"duration":0.25,"velocity":91.50081638206723}
{"position":375.3125,"instrument":"Cello","level2":20,"level3":3,"pitch":64,"articulation":"collegno","articulation_tags":["collegno","cl","short"],"duration":1.0,"velocity":91.50081638206723}
{"position":375.3333333333333,"instrument":"Cello","level2":20,"level3":2,"pitch":63,"articulation":"pizzicato","articulation_tags":["pizzicato","pz","short"],"duration":1.0,"velocity":91.50081638206723}
{"position":375.40625,"instrument":"TheGrandeurPiano","level2":12,"level3":null,"pitch":26,"articulation":"standard","articulation_tags":["standard","long"],"duration":1.4094488188976377,"velocity":95.4273770775948}
{"position":375.53125,"instrument":"TheGrandeurPiano","level2":20,"level3":null,"pitch":62,"articulation":"standard","articulation_tags":["standard","long"],"duration":0.3541666666666667,"velocity":95.4273770775948}
{"position":375.59375,"instrument":"TheGrandeurPiano","level2":15,"level3":null,"pitch":57,"articulation":"standard","articulation_tags":["standard","long"],"duration":1.8976377952755905,"velocity":95.4273770775948}
{"position":375.90625,"instrument":"Cello","level2":15,"level3":5,"pitch":44,"articulation":"collegno","articulation_tags":["collegno","cl","short"],"duration":1.0,"velocity":103.74319192105695}
{"position":376.0625,"instrument":"TheGrandeurPiano","level2":20,"level3":null,"pitch":62,"articulation":"standard","articulation_tags":["standard","long"],"duration":0.3611111111111111,"velocity":98.77481998133636}
{"position":376.1354166666667,"instrument":"Contrabass","level2":12,"level3":7,"pitch":37,"articulation":"short_hrm","articulation_tags":["short_hrm","hrm_s","short","harmonics"],"duration":1.0,"velocity":127.5}
{"position":376.6041666666667,"instrument":"TheGrandeurPiano","level2":20,"level3":null,"pitch":63,"articulation":"standard","articulation_tags":["standard","long"],"duration":0.3680555555555556,"velocity":96.39801240703959}
{"position":376.8333333333333,"instrument":"TheGrandeurPiano","level2":20,"level3":null,"pitch":63,"articulation":"standard","articulation_tags":["standard","long"],"duration":1.0,"velocity":93.61635943453109}
{"position":377.09375,"instrument":"Marimba","level2":20,"level3":2,"pitch":63,"articulation":"hits","articulation_tags":["hits","short"],"duration":0.25,"velocity":90.67657153806863}
{"position":377.15625,"instrument":"TheGrandeurPiano","level2":20,"level3":null,"pitch":63,"articulation":"standard","articulation_tags":["standard","long"],"duration":0.375,"velocity":95.58997167371304}
{"position":377.1979166666667,"instrument":"Marimba","level2":20,"level3":3,"pitch":64,"articulation":"hits","articulation_tags":["hits","short"],"duration":0.25,"velocity":90.15024916155612}
{"position":377.5833333333333,"instrument":"Cello","level2":15,"level3":2,"pitch":38,"articulation":"pizzicato","articulation_tags":["pizzicato","pz","short"],"duration":1.0,"velocity":103.74319192105695}
{"position":377.71875,"instrument":"TheGrandeurPiano","level2":20,"level3":null,"pitch":64,"articulation":"standard","articulation_tags":["standard","long"],"duration":0.3819444444444444,"velocity":96.39801240703959}
{"position":378.28125,"instrument":"Cello","level2":15,"level3":0,"pitch":40,"articulation":"pizzicato","articulation_tags":["pizzicato","pz","short"],"duration":1.0,"velocity":103.74319192105695}
{"position":378.3020833333333,"instrument":"TheGrandeurPiano","level2":20,"level3":null,"pitch":64,"articulation":"standard","articulation_tags":["standard","long"],"duration":0.3888888888888889,"velocity":93.78273981717496}
{"position":378.3333333333333,"instrument":"TheGrandeurPiano","level2":20,"level3":null,"pitch":64,"articulation":"standard","articulation_tags":["standard","long"],"duration":1.4930555555555556,"velocity":93.78273981717496}
{"position":378.5625,"instrument":"Marimba","level2":20,"level3":1,"pitch":65,"articulation":"hits","articulation_tags":["hits","short"],"duration":0.25,"velocity":89.66977754727392}
{"position":378.84375,"instrument":"Marimba","level2":20,"level3":1,"pitch":65,"articulation":"hits","articulation_tags":["hits","short"],"duration":0.25,"velocity":89.66977754727392}
{"position":378.8854166666667,"instrument":"TheGrandeurPiano","level2":20,"level3":null,"pitch":65,"articulation":"standard","articulation_tags":["standard","long"],"duration":0.3958333333333333,"velocity":97.51581398829656}
{"position":378.9166666666667,"instrument":"Cello","level2":15,"level3":11,"pitch":41,"articulation":"collegno","articulation_tags":["collegno","cl","short"],"duration":1.0,"velocity":103.74319192105695}
{"position":379.2291666666667,"instrument":"Cello","level2":15,"level3":3,"pitch":44,"articulation":"collegno","articulation_tags":["collegno","cl","short"],"duration":1.0,"velocity":103.74319192105695}
{"position":379.3958333333333,"instrument":"TheGrandeurPiano","level2":12,"level3":null,"pitch":27,"articulation":"standard","articulation_tags":["standard","long"],"duration":1.4251968503937007,"velocity":92.44155755018505}
{"position":379.4791666666667,"instrument":"TheGrandeurPiano","level2":20,"level3":null,"pitch":65,"articulation":"standard","articulation_tags":["standard","long"],"duration":0.4027777777777778,"velocity":92.44155755018505}
{"position":379.6770833333333,"instrument":"Cello","level2":15,"level3":1,"pitch":45,"articulation":"collegno","articulation_tags":["collegno","cl","short"],"duration":1.0,"velocity":103.74319192105695}
{"position":380.0833333333333,"instrument":"TheGrandeurPiano","level2":20,"level3":null,"pitch":66,"articulation":"standard","articulation_tags":["standard","long"],"duration":0.4166666666666667,"velocity":93.78273981717496}
{"position":380.4166666666667,"instrument":"TheGrandeurPiano","level2":15,"level3":null,"pitch":57,"articulation":"standard","articulation_tags":["standard","long"],"duration":1.8976377952755905,"velocity":90.0360497214304}
{"position":380.5729166666667,"instrument":"TheGrandeurPiano","level2":20,"level3":null,"pitch":66,"articulation":"standard","articulation_tags":["standard","long"],"duration":2.0393700787401574,"velocity":91.59123568720254}
{"position":381.0104166666667,"instrument":"Marimba","level2":15,"level3":1,"pitch":45,"articulation":"hits","articulation_tags":["hits","short"],"duration":0.25,"velocity":103.2006904707995}
{"position":381.34375,"instrument":"TheGrandeurPiano","level2":20,"level3":null,"pitch":67,"articulation":"standard","articulation_tags":["standard","long"],"duration":0.4305555555555556,"velocity":91.07641991950717}
{"position":381.7395833333333,"instrument":"Marimba","level2":15,"level3":2,"pitch":39,"articulation":"hits","articulation_tags":["hits","short"],"duration":0.25,"velocity":103.2006904707995}
{"position":381.9895833333333,"instrument":"TheGrandeurPiano","level2":20,"level3":null,"pitch":67,"articulation":"standard","articulation_tags":["standard","long"],"duration":0.4375,"velocity":88.26882483058662}
{"position":382.4583333333333,"instrument":"Marimba","level2":15,"level3":5,"pitch":44,"articulation":"hits","articulation_tags":["hits","short"],"duration":0.25,"velocity":102.66746596631934}
{"position":382.5104166666667,"instrument":"Marimba","level2":15,"level3":11,"pitch":41,"articulation":"hits","articulation_tags":["hits","short"],"duration":0.25,"velocity":102.66746596631934}
{"position":382.6458333333333,"instrument":"TheGrandeurPiano","level2":20,"level3":null,"pitch":68,"articulation":"standard","articulation_tags":["standard","long"],"duration":0.4513888888888889,"velocity":88.26882483058662}
{"position":382.7708333333333,"instrument":"TubularBells","level2":20,"level3":2,"pitch":62,"articulation":"hits_dumped","articulation_tags":["hits_dumped","short","hits","dumped"],"duration":0.25,"velocity":87.48535625494945}
{"position":382.84375,"instrument":"Marimba","level2":12,"level3":5,"pitch":36,"articulation":"hits","articulation_tags":["hits","short"],"duration":0.25,"velocity":127.5}
{"position":383.0,"instrument":"Marimba","level2":15,"level3":10,"pitch":42,"articulation":"hits","articulation_tags":["hits","short"],"duration":0.25,"velocity":102.66746596631934}
{"position":383.1979166666667,"instrument":"TubularBells","level2":20,"level3":3,"pitch":65,"articulation":"hits_dumped","articulation_tags":["hits_dumped","short","hits","dumped"],"duration":0.25,"velocity":87.48535625494945}
{"position":383.2083333333333,"instrument":"TheGrandeurPiano","level2":12,"level3":null,"pitch":27,"articulation":"standard","articulation_tags":["standard","long"],"duration":1.4251968503937007,"velocity":89.33427037865772}
{"position":383.3229166666667,"instrument":"TheGrandeurPiano","level2":20,"level3":null,"pitch":68,"articulation":"standard","articulation_tags":["standard","long"],"duration":0.4583333333333333,"velocity":86.64053218960008}
{"position":383.4583333333333,"instrument":"Marimba","level2":12,"level3":4,"pitch":37,"articulation":"hits","articulation_tags":["hits","short"],"duration":0.25,"velocity":127.5}
{"position":384.0104166666667,"instrument":"TheGrandeurPiano","level2":20,"level3":null,"pitch":69,"articulation":"standard","articulation_tags":["standard","long"],"duration":0.4722222222222222,"velocity":86.82330230669801}
{"position":384.21875,"instrument":"TubularBells","level2":20,"level3":0,"pitch":62,"articulation":"hits_dumped","articulation_tags":["hits_dumped","short","hits","dumped"],"duration":0.25,"velocity":86.93452375951122}
{"position":384.5208333333333,"instrument":"Marimba","level2":15,"level3":10,"pitch":41,"articulation":"hits","articulation_tags":["hits","short"],"duration":0.25,"velocity":102.66746596631934}
{"position":384.71875,"instrument":"TheGrandeurPiano","level2":20,"level3":null,"pitch":69,"articulation":"standard","articulation_tags":["standard","long"],"duration":0.4791666666666667,"velocity":82.88032263760189}
{"position":385.1041666666667,"instrument":"ContrabassTrombone","level2":15,"level3":0,"pitch":40,"articulation":"staccato","articulation_tags":["staccato","st","short"],"duration":1.0,"velocity":102.66746596631934}
{"position":385.21875,"instrument":"TheGrandeurPiano","level2":15,"level3":null,"pitch":58,"articulation":"standard","articulation_tags":["standard","long"],"duration":1.9133858267716535,"velocity":82.29789944878868}
{"position":385.4375,"instrument":"TheGrandeurPiano","level2":20,"level3":null,"pitch":70,"articulation":"standard","articulation_tags":["standard","long"],"duration":0.4930555555555556,"velocity":82.1026180247476}
{"position":386.1875,"instrument":"TheGrandeurPiano","level2":20,"level3":null,"pitch":70,"articulation":"standard","articulation_tags":["standard","long"],"duration":0.5069444444444444,"velocity":78.89570990289819}
{"position":386.7708333333333,"instrument":"Contrabass","level2":12,"level3":4,"pitch":37,"articulation":"staccato","articulation_tags":["staccato","st","short"],"duration":1.0,"velocity":127.5}
{"position":386.875,"instrument":"TheGrandeurPiano","level2":12,"level3":null,"pitch":28,"articulation":"standard","articulation_tags":["standard","long"],"duration":1.4409448818897639,"velocity":77.44007481292203}
{"position":386.9479166666667,"instrument":"TheGrandeurPiano","level2":20,"level3":null,"pitch":71,"articulation":"standard","articulation_tags":["standard","long"],"duration":0.5208333333333334,"velocity":77.44007481292203}
{"position":387.0,"instrument":"ContrabassTrombone","level2":15,"level3":3,"pitch":44,"articulation":"staccato","articulation_tags":["staccato","st","short"],"duration":1.0,"velocity":102.12480459249606}
{"position":387.71875,"instrument":"TheGrandeurPiano","level2":20,"level3":null,"pitch":71,"articulation":"standard","articulation_tags":["standard","long"],"duration":0.5347222222222222,"velocity":81.11742702031181}
{"position":387.9479166666667,"instrument":"Cello","level2":15,"level3":9,"pitch":40,"articulation":"pizzicato","articulation_tags":["pizzicato","pz","short"],"duration":1.0,"velocity":102.12480459249606}
{"position":388.4583333333333,"instrument":"Contrabass","level2":12,"level3":7,"pitch":37,"articulation":"short_hrm","articulation_tags":["short_hrm","hrm_s","short","harmonics"],"duration":1.0,"velocity":127.5}
{"position":388.46875,"instrument":"ContrabassTrombone","level2":15,"level3":9,"pitch":40,"articulation":"staccato","articulation_tags":["staccato","st","short"],"duration":1.0,"velocity":102.12480459249606}
{"position":388.53125,"instrument":"TheGrandeurPiano","level2":20,"level3":null,"pitch":72,"articulation":"standard","articulation_tags":["standard","long"],"duration":0.5555555555555556,"velocity":73.97583123579426}
{"position":388.6041666666667,"instrument":"Contrabass","level2":12,"level3":6,"pitch":39,"articulation":"staccato","articulation_tags":["staccato","st","short"],"duration":1.0,"velocity":127.5}
{"position":389.3541666666667,"instrument":"TheGrandeurPiano","level2":20,"level3":null,"pitch":72,"articulation":"standard","articulation_tags":["standard","long"],"duration":0.5694444444444444,"velocity":77.44007481292203}
{"position":389.6458333333333,"instrument":"Trumpet","level2":20,"level3":1,"pitch":66,"articulation":"staccato_muted","articulation_tags":["staccato_muted","stmt","short","staccato","muted"],"duration":1.0,"velocity":86.21490771967026}
{"position":389.9895833333333,"instrument":"TheGrandeurPiano","level2":15,"level3":null,"pitch":58,"articulation":"standard","articulation_tags":["standard","long"],"duration":1.9133858267716535,"velocity":78.89570990289819}
{"position":390.0104166666667,"instrument":"Contrabass","level2":12,"level3":5,"pitch":36,"articulation":"spiccato","articulation_tags":["spiccato","sp","short"],"duration":1.0,"velocity":127.5}
{"position":390.2083333333333,"instrument":"TheGrandeurPiano","level2":20,"level3":null,"pitch":73,"articulation":"standard","articulation_tags":["standard","long"],"duration":0.5902777777777778,"velocity":77.85946585777697}
{"position":390.3854166666667,"instrument":"TheGrandeurPiano","level2":12,"level3":null,"pitch":28,"articulation":"standard","articulation_tags":["standard","long"],"duration":1.4409448818897639,"velocity":77.2293020654445}
{"position":390.3854166666667,"instrument":"Contrabass","level2":12,"level3":5,"pitch":37,"articulation":"spiccato","articulation_tags":["spiccato","sp","short"],"duration":1.0,"velocity":127.5}
{"position":391.09375,"instrument":"TheGrandeurPiano","level2":20,"level3":null,"pitch":73,"articulation":"standard","articulation_tags":["standard","long"],"duration":0.6111111111111112,"velocity":77.2293020654445}
{"position":391.1979166666667,"instrument":"Contrabass","level2":12,"level3":4,"pitch":37,"articulation":"staccato","articulation_tags":["staccato","st","short"],"duration":1.0,"velocity":127.5}
{"position":392.0104166666667,"instrument":"TheGrandeurPiano","level2":20,"level3":null,"pitch":74,"articulation":"standard","articulation_tags":["standard","long"],"duration":0.6388888888888888,"velocity":75.51625440712283}
{"position":392.6041666666667,"instrument":"Contrabass","level2":12,"level3":4,"pitch":37,"articulation":"spiccato","articulation_tags":["spiccato","sp","short"],"duration":1.0,"velocity":127.5}
{"position":392.96875,"instrument":"TheGrandeurPiano","level2":20,"level3":null,"pitch":74,"articulation":"standard","articulation_tags":["standard","long"],"duration":0.6666666666666666,"velocity":78.06809871266789}
{"position":393.40625,"instrument":"ContrabassTrombone","level2":15,"level3":5,"pitch":44,"articulation":"staccato","articulation_tags":["staccato","st","short"],"duration":1.0,"velocity":101.59175163960258}
{"position":393.59375,"instrument":"CorAnglais","level2":20,"level3":2,"pitch":62,"articulation":"tenuto","articulation_tags":["tenuto","t","short"],"duration":0.25,"velocity":85.98081141592897}
{"position":393.7708333333333,"instrument":"TheGrandeurPiano","level2":12,"level3":null,"pitch":29,"articulation":"standard","articulation_tags":["standard","long"],"duration":1.4566929133858268,"velocity":77.2293020654445}
{"position":393.8333333333333,"instrument":"TheGrandeurPiano","level2":20,"level3":null,"pitch":74,"articulation":"standard","articulation_tags":["standard","long"],"duration":1.5902777777777777,"velocity":81.11742702031181}
{"position":393.96875,"instrument":"TheGrandeurPiano","level2":20,"level3":null,"pitch":75,"articulation":"standard","articulation_tags":["standard","long"],"duration":0.7013888888888888,"velocity":81.11742702031181}
{"position":394.7395833333333,"instrument":"TheGrandeurPiano","level2":15,"level3":null,"pitch":58,"articulation":"standard","articulation_tags":["standard","long"],"duration":1.9133858267716535,"velocity":79.71257152692525}
{"position":394.8645833333333,"instrument":"Marimba","level2":15,"level3":0,"pitch":41,"articulation":"hits","articulation_tags":["hits","short"],"duration":0.25,"velocity":101.0688356988529}
{"position":395.2708333333333,"instrument":"CorAnglais","level2":20,"level3":3,"pitch":65,"articulation":"staccato","articulation_tags":["staccato","st","short"],"duration":0.25,"velocity":85.78621050291405}
{"position":395.3020833333333,"instrument":"Contrabass","level2":12,"level3":8,"pitch":40,"articulation":"staccato","articulation_tags":["staccato","st","short"],"duration":1.0,"velocity":127.5}
{"position":395.5520833333333,"instrument":"Marimba","level2":15,"level3":1,"pitch":45,"articulation":"hits","articulation_tags":["hits","short"],"duration":0.25,"velocity":101.0688356988529}
{"position":396.125,"instrument":"TheGrandeurPiano","level2":20,"level3":null,"pitch":76,"articulation":"standard","articulation_tags":["standard","long"],"duration":0.7847222222222222,"velocity":82.88032263760189}
{"position":396.21875,"instrument":"TheGrandeurPiano","level2":20,"level3":null,"pitch":76,"articulation":"standard","articulation_tags":["standard","long"],"duration":1.3541666666666667,"velocity":82.29789944878868}
{"position":397.03125,"instrument":"TheGrandeurPiano","level2":12,"level3":null,"pitch":29,"articulation":"standard","articulation_tags":["standard","long"],"duration":1.4566929133858268,"velocity":82.29789944878868}
{"position":397.2291666666667,"instrument":"ContrabassTrombone","level2":15,"level3":2,"pitch":39,"articulation":"staccato","articulation_tags":["staccato","st","short"],"duration":1.0,"velocity":101.0688356988529}
{"position":397.3020833333333,"instrument":"TheGrandeurPiano","level2":20,"level3":null,"pitch":76,"articulation":"standard","articulation_tags":["standard","long"],"duration":0.8472222222222222,"velocity":82.88032263760189}
{"position":397.6354166666667,"instrument":"TubularBells","level2":20,"level3":4,"pitch":64,"articulation":"hits","articulation_tags":["hits","short"],"duration":0.25,"velocity":85.80797335206643}
{"position":397.6354166666667,"instrument":"TubularBells","level2":20,"level3":5,"pitch":64,"articulation":"hits_dumped","articulation_tags":["hits_dumped","short","hits","dumped"],"duration":0.25,"velocity":85.80797335206643}
{"position":397.7395833333333,"instrument":"TubularBells","level2":20,"level3":5,"pitch":64,"articulation":"hits_dumped","articulation_tags":["hits_dumped","short","hits","dumped"],"duration":0.25,"velocity":85.80797335206643}
{"position":398.25,"instrument":"TheGrandeurPiano","level2":20,"level3":null,"pitch":76,"articulation":"standard","articulation_tags":["standard","long"],"duration":1.2083333333333333,"velocity":86.82330230669801}
{"position":398.3333333333333,"instrument":"Marimba","level2":12,"level3":6,"pitch":39,"articulation":"hits","articulation_tags":["hits","short"],"duration":0.25,"velocity":127.5}
{"position":398.5729166666667,"instrument":"TheGrandeurPiano","level2":20,"level3":null,"pitch":77,"articulation":"standard","articulation_tags":["standard","long"],"duration":0.9236111111111112,"velocity":84.21997572032546}
{"position":399.0416666666667,"instrument":"Marimba","level2":15,"level3":3,"pitch":44,"articulation":"hits","articulation_tags":["hits","short"],"duration":0.25,"velocity":101.0688356988529}
{"position":399.09375,"instrument":"Marimba","level2":12,"level3":7,"pitch":36,"articulation":"hits","articulation_tags":["hits","short"],"duration":0.25,"velocity":127.5}
{"position":399.4375,"instrument":"TheGrandeurPiano","level2":15,"level3":null,"pitch":58,"articulation":"standard","articulation_tags":["standard","long"],"duration":1.9133858267716535,"velocity":88.26882483058662}
{"position":399.5416666666667,"instrument":"TubularBells","level2":20,"level3":4,"pitch":63,"articulation":"hits","articulation_tags":["hits","short"],"duration":0.25,"velocity":85.5887166148422}
{"position":399.6458333333333,"instrument":"TheGrandeurPiano","level2":15,"level3":null,"pitch":58,"articulation":"standard","articulation_tags":["standard","long"],"duration":1.9133858267716535,"velocity":84.40921318709788}
{"position":399.8125,"instrument":"Marimba","level2":12,"level3":8,"pitch":39,"articulation":"hits","articulation_tags":["hits","short"],"duration":0.25,"velocity":127.5}
{"position":399.9583333333333,"instrument":"TheGrandeurPiano","level2":20,"level3":null,"pitch":77,"articulation":"standard","articulation_tags":["standard","long"],"duration":1.0416666666666667,"velocity":87.91016839920482}
{"position":400.0625,"instrument":"TheGrandeurPiano","level2":20,"level3":null,"pitch":77,"articulation":"standard","articulation_tags":["standard","long"],"duration":1.1041666666666667,"velocity":84.40921318709788}
{"position":400.1666666666667,"instrument":"TheGrandeurPiano","level2":12,"level3":null,"pitch":30,"articulation":"standard","articulation_tags":["standard","long"],"duration":1.4724409448818898,"velocity":88.26882483058662}
{"position":400.5625,"instrument":"Marimba","level2":15,"level3":2,"pitch":39,"articulation":"hits","articulation_tags":["hits","short"],"duration":0.25,"velocity":99.99371530291876}
{"position":401.15625,"instrument":"Marimba","level2":15,"level3":9,"pitch":41,"articulation":"hits","articulation_tags":["hits","short"],"duration":0.25,"velocity":99.99371530291876}
{"position":401.2291666666667,"instrument":"TubularBells","level2":20,"level3":0,"pitch":62,"articulation":"hits_dumped","articulation_tags":["hits_dumped","short","hits","dumped"],"duration":0.25,"velocity":85.45538155957779}
{"position":401.5208333333333,"instrument":"TheGrandeurPiano","level2":20,"level3":null,"pitch":78,"articulation":"standard","articulation_tags":["standard","long"],"duration":1.2222222222222223,"velocity":86.82330230669801}
{"position":401.65625,"instrument":"TubularBells","level2":20,"level3":5,"pitch":65,"articulation":"hits_dumped","articulation_tags":["hits_dumped","short","hits","dumped"],"duration":0.25,"velocity":85.9593280374718}
{"position":401.7291666666667,"instrument":"TheGrandeurPiano","level2":20,"level3":null,"pitch":78,"articulation":"standard","articulation_tags":["standard","long"],"duration":1.0277777777777777,"velocity":86.82330230669801}
{"position":401.8229166666667,"instrument":"Marimba","level2":15,"level3":5,"pitch":43,"articulation":"hits","articulation_tags":["hits","short"],"duration":0.25,"velocity":99.99371530291876}
{"position":402.3854166666667,"instrument":"Marimba","level2":15,"level3":5,"pitch":43,"articulation":"hits","articulation_tags":["hits","short"],"duration":0.25,"velocity":99.99371530291876}
{"position":402.8854166666667,"instrument":"Marimba","level2":15,"level3":0,"pitch":41,"articulation":"hits","articulation_tags":["hits","short"],"duration":0.25,"velocity":99.99371530291876}
{"position":403.1979166666667,"instrument":"TheGrandeurPiano","level2":12,"level3":null,"pitch":30,"articulation":"standard","articulation_tags":["standard","long"],"duration":1.4724409448818898,"velocity":87.18743479588203}
{"position":403.2708333333333,"instrument":"TheGrandeurPiano","level2":20,"level3":null,"pitch":78,"articulation":"standard","articulation_tags":["standard","long"],"duration":0.9652777777777778,"velocity":82.1026180247476}
{"position":403.3541666666667,"instrument":"TheGrandeurPiano","level2":20,"level3":null,"pitch":78,"articulation":"standard","articulation_tags":["standard","long"],"duration":1.5972222222222223,"velocity":82.1026180247476}
{"position":404.1041666666667,"instrument":"TheGrandeurPiano","level2":15,"level3":null,"pitch":58,"articulation":"standard","articulation_tags":["standard","long"],"duration":1.9133858267716535,"velocity":83.83991718811113}
{"position":404.71875,"instrument":"TheGrandeurPiano","level2":20,"level3":null,"pitch":78,"articulation":"standard","articulation_tags":["standard","long"],"duration":0.9166666666666666,"velocity":80.31840992563168}
{"position":405.75,"instrument":"TheGrandeurPiano","level2":20,"level3":null,"pitch":79,"articulation":"standard","articulation_tags":["standard","long"],"duration":2.2440944881889764,"velocity":78.06809871266789}
{"position":406.09375,"instrument":"TheGrandeurPiano","level2":20,"level3":null,"pitch":79,"articulation":"standard","articulation_tags":["standard","long"],"duration":0.875,"velocity":81.11742702031181}
{"position":406.1145833333333,"instrument":"TheGrandeurPiano","level2":12,"level3":null,"pitch":31,"articulation":"standard","articulation_tags":["standard","long"],"duration":1.4881889763779528,"velocity":81.11742702031181}
{"position":407.40625,"instrument":"TheGrandeurPiano","level2":20,"level3":null,"pitch":79,"articulation":"standard","articulation_tags":["standard","long"],"duration":0.8333333333333334,"velocity":75.29864397317493}
{"position":408.0,"instrument":"Contrabass","level2":12,"level3":6,"pitch":39,"articulation":"short_marcato","articulation_tags":["short_marcato","marcato_s","short","marcato"],"duration":1.0,"velocity":127.5}
{"position":408.3958333333333,"instrument":"ContrabassTrombone","level2":15,"level3":1,"pitch":45,"articulation":"staccato","articulation_tags":["staccato","st","short"],"duration":1.0,"velocity":99.4825144609098}
{"position":408.53125,"instrument":"Bassoon","level2":20,"level3":4,"pitch":63,"articulation":"marcato","articulation_tags":["marcato","short"],"duration":0.25,"velocity":84.76698638652775}
{"position":408.65625,"instrument":"TheGrandeurPiano","level2":20,"level3":null,"pitch":79,"articulation":"standard","articulation_tags":["standard","long"],"duration":0.8055555555555556,"velocity":72.84997976693788}
{"position":408.7083333333333,"instrument":"TheGrandeurPiano","level2":15,"level3":null,"pitch":58,"articulation":"standard","articulation_tags":["standard","long"],"duration":1.9133858267716535,"velocity":72.84997976693788}
{"position":408.75,"instrument":"TenorTrombone","level2":15,"level3":0,"pitch":41,"articulation":"marcato_muted","articulation_tags":["marcato_muted","short","marcato","muted"],"duration":1.0,"velocity":98.9830805533856}
{"position":408.9375,"instrument":"TheGrandeurPiano","level2":12,"level3":null,"pitch":31,"articulation":"standard","articulation_tags":["standard","long"],"duration":1.4881889763779528,"velocity":72.84997976693788}
{"position":409.15625,"instrument":"Bassoon","level2":15,"level3":0,"pitch":42,"articulation":"tenuto","articulation_tags":["tenuto","t","short"],"duration":0.25,"velocity":98.9830805533856}
{"position":409.2291666666667,"instrument":"TenorTrombone","level2":15,"level3":3,"pitch":44,"articulation":"staccato","articulation_tags":["staccato","st","short"],"duration":1.0,"velocity":98.9830805533856}
{"position":409.2604166666667,"instrument":"BassClarinet","level2":12,"level3":7,"pitch":36,"articulation":"legato","articulation_tags":["legato","lg"],"duration":16.25,"velocity":127.0}
{"position":409.3854166666667,"instrument":"Tuba","level2":15,"level3":5,"pitch":43,"articulation":"staccato","articulation_tags":["staccato","st","short"],"duration":1.0,"velocity":98.9830805533856}
{"position":409.8645833333333,"instrument":"TheGrandeurPiano","level2":20,"level3":null,"pitch":79,"articulation":"standard","articulation_tags":["standard","long"],"duration":0.7777777777777778,"velocity":72.16363694342823}
{"position":410.15625,"instrument":"TenorTrombone","level2":20,"level3":1,"pitch":66,"articulation":"staccato_muted","articulation_tags":["staccato_muted","stmt","short","staccato","muted"],"duration":1.0,"velocity":84.08764553666526}
{"position":410.4375,"instrument":"TheGrandeurPiano","level2":15,"level3":null,"pitch":58,"articulation":"standard","articulation_tags":["standard","long"],"duration":1.9133858267716535,"velocity":69.08704563229233}
{"position":410.5729166666667,"instrument":"ContrabassTrombone","level2":12,"level3":9,"pitch":38,"articulation":"legato","articulation_tags":["legato","lg"],"duration":0.5416666666666666,"velocity":127.0}
{"position":410.5729166666667,"instrument":"Bassoon","level2":12,"level3":10,"pitch":38,"articulation":"legato","articulation_tags":["legato","lg"],"duration":2.875,"velocity":127.0}
{"position":410.6145833333333,"instrument":"TenorTrombone","level2":15,"level3":2,"pitch":40,"articulation":"marcato","articulation_tags":["marcato","short"],"duration":1.0,"velocity":99.56662334756739}
{"position":411.03125,"instrument":"TheGrandeurPiano","level2":20,"level3":null,"pitch":79,"articulation":"standard","articulation_tags":["standard","long"],"duration":0.75,"velocity":66.079637327091}
{"position":411.1145833333333,"instrument":"ContrabassTrombone","level2":12,"level3":9,"pitch":38,"articulation":"legato","articulation_tags":["legato","lg"],"duration":9.135416666666666,"velocity":127.0}
{"position":411.3229166666667,"instrument":"TenorTrombone","level2":15,"level3":9,"pitch":41,"articulation":"marcato_muted","articulation_tags":["marcato_muted","short","marcato","muted"],"duration":1.0,"velocity":99.56662334756739}
{"position":411.6666666666667,"instrument":"TheGrandeurPiano","level2":12,"level3":null,"pitch":32,"articulation":"standard","articulation_tags":["standard","long"],"duration":1.5039370078740157,"velocity":66.8481677113443}
{"position":412.15625,"instrument":"TheGrandeurPiano","level2":20,"level3":null,"pitch":79,"articulation":"standard","articulation_tags":["standard","long"],"duration":0.7291666666666666,"velocity":66.33711787944337}
{"position":413.2395833333333,"instrument":"TheGrandeurPiano","level2":15,"level3":null,"pitch":58,"articulation":"standard","articulation_tags":["standard","long"],"duration":1.9133858267716535,"velocity":66.079637327091}
{"position":413.25,"instrument":"TheGrandeurPiano","level2":20,"level3":null,"pitch":79,"articulation":"standard","articulation_tags":["standard","long"],"duration":0.7083333333333334,"velocity":66.079637327091}
{"position":413.2604166666667,"instrument":"TenorTrombone","level2":20,"level3":5,"pitch":65,"articulation":"staccato","articulation_tags":["staccato","st","short"],"duration":1.0,"velocity":83.39251432733079}
{"position":413.4583333333333,"instrument":"Bassoon","level2":12,"level3":10,"pitch":38,"articulation":"legato","articulation_tags":["legato","lg"],"duration":24.0625,"velocity":127.0}
{"position":413.5104166666667,"instrument":"TenorTrombone","level2":15,"level3":0,"pitch":42,"articulation":"marcato_muted","articulation_tags":["marcato_muted","short","marcato","muted"],"duration":1.0,"velocity":99.09011421655805}
{"position":413.71875,"instrument":"Tuba","level2":15,"level3":5,"pitch":43,"articulation":"staccato","articulation_tags":["staccato","st","short"],"duration":1.0,"velocity":99.09011421655805}
{"position":414.0520833333333,"instrument":"FrenchHorn","level2":15,"level3":5,"pitch":43,"articulation":"marcato_muted","articulation_tags":["marcato_muted","short","marcato","muted"],"duration":1.0,"velocity":99.09011421655805}
{"position":414.15625,"instrument":"TheGrandeurPiano","level2":20,"level3":null,"pitch":78,"articulation":"standard","articulation_tags":["standard","long"],"duration":1.2083333333333333,"velocity":67.85515987811664}
{"position":414.3020833333333,"instrument":"TheGrandeurPiano","level2":12,"level3":null,"pitch":32,"articulation":"standard","articulation_tags":["standard","long"],"duration":1.5039370078740157,"velocity":67.10177610609054}
{"position":414.65625,"instrument":"TenorTrombone","level2":20,"level3":2,"pitch":61,"articulation":"staccato","articulation_tags":["staccato","st","short"],"duration":1.0,"velocity":82.50631708477113}
{"position":415.34375,"instrument":"TheGrandeurPiano","level2":20,"level3":null,"pitch":78,"articulation":"standard","articulation_tags":["standard","long"],"duration":0.6736111111111112,"velocity":67.85515987811664}
{"position":415.375,"instrument":"TenorTrombone","level2":15,"level3":0,"pitch":42,"articulation":"marcato_muted","articulation_tags":["marcato_muted","short","marcato","muted"],"duration":1.0,"velocity":99.09011421655805}
{"position":415.4479166666667,"instrument":"Tuba","level2":15,"level3":0,"pitch":43,"articulation":"staccato","articulation_tags":["staccato","st","short"],"duration":1.0,"velocity":99.09011421655805}
{"position":415.9791666666667,"instrument":"TheGrandeurPiano","level2":20,"level3":null,"pitch":78,"articulation":"standard","articulation_tags":["standard","long"],"duration":0.8402777777777778,"velocity":66.079637327091}
{"position":416.0104166666667,"instrument":"TenorTrombone","level2":20,"level3":4,"pitch":63,"articulation":"marcato","articulation_tags":["marcato","short"],"duration":1.0,"velocity":81.6608381536366}
{"position":416.3541666666667,"instrument":"TheGrandeurPiano","level2":20,"level3":null,"pitch":78,"articulation":"standard","articulation_tags":["standard","long"],"duration":0.6597222222222222,"velocity":68.35139281028783}
{"position":416.5729166666667,"instrument":"TenorTrombone","level2":20,"level3":6,"pitch":63,"articulation":"staccato_muted","articulation_tags":["staccato_muted","stmt","short","staccato","muted"],"duration":1.0,"velocity":81.62919440397441}
{"position":416.5729166666667,"instrument":"CorAnglais","level2":20,"level3":7,"pitch":64,"articulation":"staccato","articulation_tags":["staccato","st","short"],"duration":0.25,"velocity":81.62919440397441}
{"position":416.5833333333333,"instrument":"Tuba","level2":20,"level3":7,"pitch":64,"articulation":"staccato","articulation_tags":["staccato","st","short"],"duration":1.0,"velocity":81.62919440397441}
{"position":416.84375,"instrument":"TheGrandeurPiano","level2":12,"level3":null,"pitch":33,"articulation":"standard","articulation_tags":["standard","long"],"duration":1.5196850393700787,"velocity":66.8481677113443}
{"position":417.2395833333333,"instrument":"TheGrandeurPiano","level2":20,"level3":null,"pitch":77,"articulation":"standard","articulation_tags":["standard","long"],"duration":0.6597222222222222,"velocity":70.05234370819758}
{"position":417.34375,"instrument":"TheGrandeurPiano","level2":20,"level3":null,"pitch":77,"articulation":"standard","articulation_tags":["standard","long"],"duration":0.6458333333333334,"velocity":70.05234370819758}
{"position":417.5833333333333,"instrument":"TenorTrombone","level2":15,"level3":3,"pitch":44,"articulation":"staccato","articulation_tags":["staccato","st","short"],"duration":1.0,"velocity":99.09011421655805}
{"position":417.6979166666667,"instrument":"TheGrandeurPiano","level2":15,"level3":null,"pitch":58,"articulation":"standard","articulation_tags":["standard","long"],"duration":1.9133858267716535,"velocity":70.05234370819758}
{"position":418.21875,"instrument":"TheGrandeurPiano","level2":20,"level3":null,"pitch":77,"articulation":"standard","articulation_tags":["standard","long"],"duration":0.5416666666666666,"velocity":71.00070278399329}
{"position":419.03125,"instrument":"TheGrandeurPiano","level2":20,"level3":null,"pitch":76,"articulation":"standard","articulation_tags":["standard","long"],"duration":0.4652777777777778,"velocity":70.76515265328086}
{"position":419.1354166666667,"instrument":"TenorTrombone","level2":15,"level3":9,"pitch":42,"articulation":"marcato_muted","articulation_tags":["marcato_muted","short","marcato","muted"],"duration":1.0,"velocity":98.62681701159202}
{"position":419.1354166666667,"instrument":"TenorTrombone","level2":15,"level3":3,"pitch":43,"articulation":"staccato","articulation_tags":["staccato","st","short"],"duration":1.0,"velocity":98.62681701159202}
{"position":419.2708333333333,"instrument":"TheGrandeurPiano","level2":20,"level3":null,"pitch":76,"articulation":"standard","articulation_tags":["standard","long"],"duration":0.6319444444444444,"velocity":73.97583123579426}
{"position":419.3125,"instrument":"TheGrandeurPiano","level2":12,"level3":null,"pitch":33,"articulation":"standard","articulation_tags":["standard","long"],"duration":1.5196850393700787,"velocity":73.97583123579426}
{"position":419.7291666666667,"instrument":"TheGrandeurPiano","level2":20,"level3":null,"pitch":76,"articulation":"standard","articulation_tags":["standard","long"],"duration":0.4027777777777778,"velocity":72.84997976693788}
{"position":419.8229166666667,"instrument":"Tuba","level2":15,"level3":1,"pitch":45,"articulation":"staccato","articulation_tags":["staccato","st","short"],"duration":1.0,"velocity":98.62681701159202}
{"position":420.2083333333333,"instrument":"TheGrandeurPiano","level2":20,"level3":null,"pitch":76,"articulation":"standard","articulation_tags":["standard","long"],"duration":0.625,"velocity":72.16363694342823}
{"position":420.25,"instrument":"ContrabassTrombone","level2":12,"level3":9,"pitch":38,"articulation":"legato","articulation_tags":["legato","lg"],"duration":19.854166666666668,"velocity":127.0}
{"position":420.3333333333333,"instrument":"TheGrandeurPiano","level2":20,"level3":null,"pitch":75,"articulation":"standard","articulation_tags":["standard","long"],"duration":0.3541666666666667,"velocity":71.93298448247873}
{"position":420.8645833333333,"instrument":"TheGrandeurPiano","level2":20,"level3":null,"pitch":75,"articulation":"standard","articulation_tags":["standard","long"],"duration":0.3125,"velocity":72.16363694342823}
{"position":421.1354166666667,"instrument":"TenorTrombone","level2":12,"level3":8,"pitch":39,"articulation":"legato","articulation_tags":["legato","lg"],"duration":16.5625,"velocity":127.0}
{"position":421.15625,"instrument":"TheGrandeurPiano","level2":20,"level3":null,"pitch":75,"articulation":"standard","articulation_tags":["standard","long"],"duration":0.6319444444444444,"velocity":72.84997976693788}
{"position":421.34375,"instrument":"TheGrandeurPiano","level2":20,"level3":null,"pitch":74,"articulation":"standard","articulation_tags":["standard","long"],"duration":0.2847222222222222,"velocity":72.84997976693788}
{"position":421.65625,"instrument":"CorAnglais","level2":20,"level3":6,"pitch":63,"articulation":"staccato","articulation_tags":["staccato","st","short"],"duration":0.25,"velocity":77.71564372848698}
{"position":421.6875,"instrument":"TheGrandeurPiano","level2":12,"level3":null,"pitch":34,"articulation":"standard","articulation_tags":["standard","long"],"duration":1.5347222222222223,"velocity":73.97583123579426}
{"position":421.7604166666667,"instrument":"TheGrandeurPiano","level2":20,"level3":null,"pitch":74,"articulation":"standard","articulation_tags":["standard","long"],"duration":0.2569444444444444,"velocity":75.51625440712283}
{"position":422.0729166666667,"instrument":"TheGrandeurPiano","level2":15,"level3":null,"pitch":58,"articulation":"standard","articulation_tags":["standard","long"],"duration":1.9133858267716535,"velocity":75.51625440712283}
{"position":422.1041666666667,"instrument":"TheGrandeurPiano","level2":20,"level3":null,"pitch":74,"articulation":"standard","articulation_tags":["standard","long"],"duration":0.6666666666666666,"velocity":75.51625440712283}
{"position":422.375,"instrument":"Cello","level2":15,"level3":2,"pitch":40,"articulation":"pizzicato_bartok","articulation_tags":["pizzicato_bartok","pzb","short","pizzicato","bartok"],"duration":1.0,"velocity":98.1774332296844}
{"position":422.8020833333333,"instrument":"TheGrandeurPiano","level2":20,"level3":null,"pitch":72,"articulation":"standard","articulation_tags":["standard","long"],"duration":0.1875,"velocity":75.29864397317493}
{"position":423.0833333333333,"instrument":"TheGrandeurPiano","level2":20,"level3":null,"pitch":72,"articulation":"standard","articulation_tags":["standard","long"],"duration":0.1736111111111111,"velocity":78.06809871266789}
{"position":423.34375,"instrument":"TheGrandeurPiano","level2":20,"level3":null,"pitch":71,"articulation":"standard","articulation_tags":["standard","long"],"duration":0.1527777777777778,"velocity":73.97583123579426}
{"position":423.5625,"instrument":"Trumpet","level2":20,"level3":7,"pitch":64,"articulation":"staccato_muted","articulation_tags":["staccato_muted","stmt","short","staccato","muted"],"duration":1.0,"velocity":77.71564372848698}
{"position":423.5729166666667,"instrument":"TheGrandeurPiano","level2":20,"level3":null,"pitch":71,"articulation":"standard","articulation_tags":["standard","long"],"duration":0.1388888888888889,"velocity":77.2293020654445}
{"position":423.78125,"instrument":"TheGrandeurPiano","level2":20,"level3":null,"pitch":70,"articulation":"standard","articulation_tags":["standard","long"],"duration":0.125,"velocity":77.2293020654445}
{"position":423.9270833333333,"instrument":"Cello","level2":15,"level3":3,"pitch":43,"articulation":"pizzicato","articulation_tags":["pizzicato","pz","short"],"duration":1.0,"velocity":98.1774332296844}
{"position":423.96875,"instrument":"TheGrandeurPiano","level2":20,"level3":null,"pitch":70,"articulation":"standard","articulation_tags":["standard","long"],"duration":0.1111111111111111,"velocity":77.2293020654445}
{"position":423.9895833333333,"instrument":"TheGrandeurPiano","level2":12,"level3":null,"pitch":34,"articulation":"standard","articulation_tags":["standard","long"],"duration":1.4791666666666667,"velocity":77.2293020654445}
{"position":424.1458333333333,"instrument":"TheGrandeurPiano","level2":20,"level3":null,"pitch":69,"articulation":"standard","articulation_tags":["standard","long"],"duration":0.10416666666666667,"velocity":77.2293020654445}
{"position":424.2916666666667,"instrument":"TheGrandeurPiano","level2":20,"level3":null,"pitch":69,"articulation":"standard","articulation_tags":["standard","long"],"duration":0.09027777777777778,"velocity":77.2293020654445}
{"position":424.4375,"instrument":"TheGrandeurPiano","level2":20,"level3":null,"pitch":68,"articulation":"standard","articulation_tags":["standard","long"],"duration":0.08333333333333333,"velocity":78.06809871266789}
{"position":424.5520833333333,"instrument":"TheGrandeurPiano","level2":20,"level3":null,"pitch":68,"articulation":"standard","articulation_tags":["standard","long"],"duration":0.06944444444444445,"velocity":78.06809871266789}
{"position":424.5625,"instrument":"TheGrandeurPiano","level2":20,"level3":null,"pitch":68,"articulation":"standard","articulation_tags":["standard","long"],"duration":0.034722222222222224,"velocity":78.06809871266789}
{"position":424.6145833333333,"instrument":"TheGrandeurPiano","level2":20,"level3":null,"pitch":68,"articulation":"standard","articulation_tags":["standard","long"],"duration":0.9861111111111112,"velocity":78.06809871266789}
{"position":424.6666666666667,"instrument":"TheGrandeurPiano","level2":20,"level3":null,"pitch":67,"articulation":"standard","articulation_tags":["standard","long"],"duration":0.0625,"velocity":78.06809871266789}
{"position":424.6979166666667,"instrument":"Cello","level2":15,"level3":9,"pitch":42,"articulation":"pizzicato","articulation_tags":["pizzicato","pz","short"],"duration":1.0,"velocity":98.1774332296844}
{"position":424.7604166666667,"instrument":"TheGrandeurPiano","level2":20,"level3":null,"pitch":67,"articulation":"standard","articulation_tags":["standard","long"],"duration":0.125,"velocity":75.29864397317493}
{"position":424.8333333333333,"instrument":"Contrabass","level2":12,"level3":6,"pitch":38,"articulation":"short_marcato","articulation_tags":["short_marcato","marcato_s","short","marcato"],"duration":1.0,"velocity":127.5}
{"position":424.9375,"instrument":"TheGrandeurPiano","level2":20,"level3":null,"pitch":66,"articulation":"standard","articulation_tags":["standard","long"],"duration":0.1388888888888889,"velocity":75.29864397317493}
{"position":425.1145833333333,"instrument":"Trumpet","level2":20,"level3":8,"pitch":64,"articulation":"marcato","articulation_tags":["marcato","short"],"duration":1.0,"velocity":82.41917768599208}
{"position":425.1145833333333,"instrument":"CorAnglais","level2":20,"level3":9,"pitch":64,"articulation":"tenuto","articulation_tags":["tenuto","t","short"],"duration":0.25,"velocity":82.41917768599208}
{"position":425.1458333333333,"instrument":"TheGrandeurPiano","level2":20,"level3":null,"pitch":66,"articulation":"standard","articulation_tags":["standard","long"],"duration":0.14583333333333334,"velocity":79.71257152692525}
{"position":425.28125,"instrument":"Cello","level2":20,"level3":9,"pitch":64,"articulation":"pizzicato","articulation_tags":["pizzicato","pz","short"],"duration":1.0,"velocity":83.06890182716776}
{"position":425.3645833333333,"instrument":"TheGrandeurPiano","level2":20,"level3":null,"pitch":65,"articulation":"standard","articulation_tags":["standard","long"],"duration":0.14583333333333334,"velocity":77.44007481292203}
{"position":425.5104166666667,"instrument":"Contrabass","level2":12,"level3":7,"pitch":36,"articulation":"spiccato","articulation_tags":["spiccato","sp","short"],"duration":1.0,"velocity":127.5}
{"position":425.5833333333333,"instrument":"TheGrandeurPiano","level2":20,"level3":null,"pitch":65,"articulation":"standard","articulation_tags":["standard","long"],"duration":0.1527777777777778,"velocity":75.51625440712283}
{"position":425.8229166666667,"instrument":"TheGrandeurPiano","level2":20,"level3":null,"pitch":64,"articulation":"standard","articulation_tags":["standard","long"],"duration":0.16666666666666666,"velocity":75.51625440712283}
{"position":426.0625,"instrument":"TheGrandeurPiano","level2":20,"level3":null,"pitch":64,"articulation":"standard","articulation_tags":["standard","long"],"duration":0.1736111111111111,"velocity":73.97583123579426}
{"position":426.1041666666667,"instrument":"TheGrandeurPiano","level2":20,"level3":null,"pitch":64,"articulation":"standard","articulation_tags":["standard","long"],"duration":0.4791666666666667,"velocity":73.97583123579426}
{"position":426.1979166666667,"instrument":"TheGrandeurPiano","level2":12,"level3":null,"pitch":35,"articulation":"standard","articulation_tags":["standard","long"],"duration":1.4305555555555556,"velocity":73.97583123579426}
{"position":426.3229166666667,"instrument":"TheGrandeurPiano","level2":20,"level3":null,"pitch":63,"articulation":"standard","articulation_tags":["standard","long"],"duration":0.18055555555555555,"velocity":73.97583123579426}
{"position":426.4270833333333,"instrument":"Trumpet","level2":20,"level3":9,"pitch":64,"articulation":"staccato","articulation_tags":["staccato","st","short"],"duration":1.0,"velocity":86.21490771967026}
{"position":426.59375,"instrument":"TheGrandeurPiano","level2":20,"level3":null,"pitch":63,"articulation":"standard","articulation_tags":["standard","long"],"duration":0.19444444444444445,"velocity":77.85946585777697}
{"position":426.6354166666667,"instrument":"Cello","level2":15,"level3":9,"pitch":42,"articulation":"pizzicato","articulation_tags":["pizzicato","pz","short"],"duration":1.0,"velocity":98.37566651864516}
{"position":426.8125,"instrument":"TheGrandeurPiano","level2":20,"level3":null,"pitch":63,"articulation":"standard","articulation_tags":["standard","long"],"duration":0.4027777777777778,"velocity":77.2293020654445}
{"position":426.8958333333333,"instrument":"TheGrandeurPiano","level2":20,"level3":null,"pitch":62,"articulation":"standard","articulation_tags":["standard","long"],"duration":0.20833333333333334,"velocity":77.2293020654445}
{"position":427.2083333333333,"instrument":"TheGrandeurPiano","level2":20,"level3":null,"pitch":62,"articulation":"standard","articulation_tags":["standard","long"],"duration":0.22916666666666666,"velocity":77.01780125361316}
{"position":427.2395833333333,"instrument":"Cello","level2":15,"level3":3,"pitch":43,"articulation":"pizzicato","articulation_tags":["pizzicato","pz","short"],"duration":1.0,"velocity":98.37566651864516}
{"position":427.4166666666667,"instrument":"TheGrandeurPiano","level2":20,"level3":null,"pitch":62,"articulation":"standard","articulation_tags":["standard","long"],"duration":0.3680555555555556,"velocity":71.93298448247873}
{"position":427.5416666666667,"instrument":"TheGrandeurPiano","level2":20,"level3":null,"pitch":61,"articulation":"standard","articulation_tags":["standard","long"],"duration":0.25,"velocity":72.16363694342823}
{"position":427.6458333333333,"instrument":"TenorTrombone","level2":15,"level3":3,"pitch":43,"articulation":"marcato_muted","articulation_tags":["marcato_muted","short","marcato","muted"],"duration":1.0,"velocity":98.37566651864516}
{"position":427.7291666666667,"instrument":"FrenchHorn","level2":15,"level3":9,"pitch":43,"articulation":"marcato_muted","articulation_tags":["marcato_muted","short","marcato","muted"],"duration":1.0,"velocity":98.37566651864516}
{"position":427.9166666666667,"instrument":"TheGrandeurPiano","level2":20,"level3":null,"pitch":61,"articulation":"standard","articulation_tags":["standard","long"],"duration":0.2777777777777778,"velocity":72.84997976693788}
{"position":427.96875,"instrument":"TheGrandeurPiano","level2":20,"level3":null,"pitch":61,"articulation":"standard","articulation_tags":["standard","long"],"duration":0.3472222222222222,"velocity":72.84997976693788}
{"position":428.3333333333333,"instrument":"TheGrandeurPiano","level2":20,"level3":null,"pitch":60,"articulation":"standard","articulation_tags":["standard","long"],"duration":0.3125,"velocity":73.97583123579426}
{"position":428.34375,"instrument":"TheGrandeurPiano","level2":12,"level3":null,"pitch":35,"articulation":"standard","articulation_tags":["standard","long"],"duration":1.3819444444444444,"velocity":73.97583123579426}
{"position":428.4895833333333,"instrument":"TheGrandeurPiano","level2":20,"level3":null,"pitch":60,"articulation":"standard","articulation_tags":["standard","long"],"duration":0.3333333333333333,"velocity":73.97583123579426}
{"position":428.7916666666667,"instrument":"TheGrandeurPiano","level2":20,"level3":null,"pitch":60,"articulation":"standard","articulation_tags":["standard","long"],"duration":0.3541666666666667,"velocity":70.76515265328086}
{"position":428.9895833333333,"instrument":"TheGrandeurPiano","level2":20,"level3":null,"pitch":60,"articulation":"standard","articulation_tags":["standard","long"],"duration":0.3263888888888889,"velocity":70.76515265328086}
{"position":429.3333333333333,"instrument":"TheGrandeurPiano","level2":20,"level3":null,"pitch":59,"articulation":"standard","articulation_tags":["standard","long"],"duration":0.4236111111111111,"velocity":72.84997976693788}
{"position":429.4791666666667,"instrument":"TheGrandeurPiano","level2":20,"level3":null,"pitch":59,"articulation":"standard","articulation_tags":["standard","long"],"duration":0.3263888888888889,"velocity":68.35139281028783}
{"position":429.9479166666667,"instrument":"TenorTrombone","level2":15,"level3":1,"pitch":45,"articulation":"staccato","articulation_tags":["staccato","st","short"],"duration":1.0,"velocity":98.37566651864516}
{"position":429.96875,"instrument":"TheGrandeurPiano","level2":20,"level3":null,"pitch":59,"articulation":"standard","articulation_tags":["standard","long"],"duration":0.5416666666666666,"velocity":66.8481677113443}
{"position":429.96875,"instrument":"TheGrandeurPiano","level2":20,"level3":null,"pitch":59,"articulation":"standard","articulation_tags":["standard","long"],"duration":0.3263888888888889,"velocity":66.8481677113443}
{"position":430.4166666666667,"instrument":"TheGrandeurPiano","level2":12,"level3":null,"pitch":36,"articulation":"standard","articulation_tags":["standard","long"],"duration":1.3263888888888888,"velocity":70.05234370819758}
{"position":430.4583333333333,"instrument":"TheGrandeurPiano","level2":20,"level3":null,"pitch":59,"articulation":"standard","articulation_tags":["standard","long"],"duration":0.3263888888888889,"velocity":70.05234370819758}
{"position":430.4895833333333,"instrument":"TheGrandeurPiano","level2":15,"level3":null,"pitch":57,"articulation":"standard","articulation_tags":["standard","long"],"duration":1.8976377952755905,"velocity":66.33711787944337}
{"position":430.7708333333333,"instrument":"TheGrandeurPiano","level2":20,"level3":null,"pitch":58,"articulation":"standard","articulation_tags":["standard","long"],"duration":0.7847222222222222,"velocity":66.33711787944337}
{"position":431.9375,"instrument":"TheGrandeurPiano","level2":20,"level3":null,"pitch":58,"articulation":"standard","articulation_tags":["standard","long"],"duration":0.3333333333333333,"velocity":66.079637327091}
{"position":431.9583333333333,"instrument":"TheGrandeurPiano","level2":20,"level3":null,"pitch":58,"articulation":"standard","articulation_tags":["standard","long"],"duration":1.9133858267716535,"velocity":66.079637327091}
{"position":432.40625,"instrument":"TheGrandeurPiano","level2":12,"level3":null,"pitch":36,"articulation":"standard","articulation_tags":["standard","long"],"duration":1.2847222222222223,"velocity":64.23880744422377}
{"position":432.4375,"instrument":"TheGrandeurPiano","level2":15,"level3":null,"pitch":57,"articulation":"standard","articulation_tags":["standard","long"],"duration":1.8976377952755905,"velocity":64.23880744422377}
{"position":432.4895833333333,"instrument":"BassClarinet","level2":12,"level3":9,"pitch":38,"articulation":"legato","articulation_tags":["legato","lg"],"duration":14.0625,"velocity":123.43759834025639}
{"position":432.7604166666667,"instrument":"Cello","level2":15,"level3":2,"pitch":41,"articulation":"pizzicato_bartok","articulation_tags":["pizzicato_bartok","pzb","short","pizzicato","bartok"],"duration":1.0,"velocity":98.61594670413284}
{"position":434.0104166666667,"instrument":"TheGrandeurPiano","level2":20,"level3":null,"pitch":58,"articulation":"standard","articulation_tags":["standard","long"],"duration":0.3611111111111111,"velocity":57.43290944852216}
{"position":434.3229166666667,"instrument":"TheGrandeurPiano","level2":12,"level3":null,"pitch":37,"articulation":"standard","articulation_tags":["standard","long"],"duration":1.2291666666666667,"velocity":58.30981868931137}
{"position":434.5104166666667,"instrument":"TheGrandeurPiano","level2":15,"level3":null,"pitch":57,"articulation":"standard","articulation_tags":["standard","long"],"duration":1.8976377952755905,"velocity":58.30981868931137}
{"position":434.5625,"instrument":"TheGrandeurPiano","level2":20,"level3":null,"pitch":58,"articulation":"standard","articulation_tags":["standard","long"],"duration":0.375,"velocity":58.30981868931137}
{"position":435.1145833333333,"instrument":"TheGrandeurPiano","level2":20,"level3":null,"pitch":58,"articulation":"standard","articulation_tags":["standard","long"],"duration":0.3819444444444444,"velocity":55.30451013798564}
{"position":435.6979166666667,"instrument":"TheGrandeurPiano","level2":20,"level3":null,"pitch":58,"articulation":"standard","articulation_tags":["standard","long"],"duration":0.3958333333333333,"velocity":56.23158300512256}
{"position":436.1666666666667,"instrument":"TheGrandeurPiano","level2":12,"level3":null,"pitch":37,"articulation":"standard","articulation_tags":["standard","long"],"duration":1.1875,"velocity":52.70789143712726}
{"position":436.2916666666667,"instrument":"TheGrandeurPiano","level2":20,"level3":null,"pitch":58,"articulation":"standard","articulation_tags":["standard","long"],"duration":0.4097222222222222,"velocity":56.23158300512256}
{"position":436.7604166666667,"instrument":"TheGrandeurPiano","level2":20,"level3":null,"pitch":58,"articulation":"standard","articulation_tags":["standard","long"],"duration":1.0416666666666667,"velocity":53.375439239995806}
{"position":436.90625,"instrument":"TheGrandeurPiano","level2":20,"level3":null,"pitch":58,"articulation":"standard","articulation_tags":["standard","long"],"duration":0.4236111111111111,"velocity":53.375439239995806}
{"position":437.40625,"instrument":"TheGrandeurPiano","level2":15,"level3":null,"pitch":56,"articulation":"standard","articulation_tags":["standard","long"],"duration":1.8818897637795275,"velocity":55.30451013798564}
{"position":437.5208333333333,"instrument":"Contrabass","level2":12,"level3":10,"pitch":38,"articulation":"spiccato","articulation_tags":["spiccato","sp","short"],"duration":1.0,"velocity":124.29468620425415}
{"position":437.5416666666667,"instrument":"TheGrandeurPiano","level2":20,"level3":null,"pitch":58,"articulation":"standard","articulation_tags":["standard","long"],"duration":0.4444444444444444,"velocity":55.30451013798564}
{"position":437.6979166666667,"instrument":"TenorTrombone","level2":12,"level3":8,"pitch":38,"articulation":"legato","articulation_tags":["legato","lg"],"duration":12.114583333333334,"velocity":120.5893724085083}
{"position":437.90625,"instrument":"TenorTrombone","level2":12,"level3":6,"pitch":38,"articulation":"long_fltr","articulation_tags":["long_fltr","fltr","long","flutter"],"duration":10.583333333333334,"velocity":120.5893724085083}
{"position":437.9479166666667,"instrument":"TheGrandeurPiano","level2":12,"level3":null,"pitch":38,"articulation":"standard","articulation_tags":["standard","long"],"duration":1.1388888888888888,"velocity":53.7043983069205}
{"position":438.2083333333333,"instrument":"TheGrandeurPiano","level2":20,"level3":null,"pitch":58,"articulation":"standard","articulation_tags":["standard","long"],"duration":0.4652777777777778,"velocity":57.43290944852216}
{"position":438.46875,"instrument":"Contrabass","level2":12,"level3":7,"pitch":36,"articulation":"spiccato","articulation_tags":["spiccato","sp","short"],"duration":1.0,"velocity":123.58268084841669}
{"position":438.8541666666667,"instrument":"Cello","level2":15,"level3":1,"pitch":45,"articulation":"pizzicato","articulation_tags":["pizzicato","pz","short"],"duration":1.0,"velocity":98.53972988702552}
{"position":438.90625,"instrument":"TheGrandeurPiano","level2":20,"level3":null,"pitch":59,"articulation":"standard","articulation_tags":["standard","long"],"duration":0.4930555555555556,"velocity":57.43290944852216}
{"position":439.2291666666667,"instrument":"Cello","level2":20,"level3":10,"pitch":64,"articulation":"collegno","articulation_tags":["collegno","cl","short"],"duration":1.0,"velocity":95.65573399975203}
{"position":439.2291666666667,"instrument":"Cello","level2":20,"level3":11,"pitch":64,"articulation":"pizzicato_bartok","articulation_tags":["pizzicato_bartok","pzb","short","pizzicato","bartok"],"duration":1.0,"velocity":95.65573399975203}
{"position":439.5208333333333,"instrument":"TheGrandeurPiano","level2":20,"level3":null,"pitch":59,"articulation":"standard","articulation_tags":["standard","long"],"duration":0.6805555555555556,"velocity":58.30981868931137}
{"position":439.6458333333333,"instrument":"TheGrandeurPiano","level2":20,"level3":null,"pitch":59,"articulation":"standard","articulation_tags":["standard","long"],"duration":0.5208333333333334,"velocity":53.7043983069205}
{"position":439.65625,"instrument":"TheGrandeurPiano","level2":12,"level3":null,"pitch":38,"articulation":"standard","articulation_tags":["standard","long"],"duration":1.0902777777777777,"velocity":53.7043983069205}
{"position":440.1145833333333,"instrument":"Contrabass","level2":12,"level3":9,"pitch":37,"articulation":"spiccato","articulation_tags":["spiccato","sp","short"],"duration":1.0,"velocity":122.8707116051746}
{"position":440.4270833333333,"instrument":"TheGrandeurPiano","level2":20,"level3":null,"pitch":59,"articulation":"standard","articulation_tags":["standard","long"],"duration":0.5555555555555556,"velocity":57.43290944852216}
{"position":440.5416666666667,"instrument":"TheGrandeurPiano","level2":20,"level3":null,"pitch":60,"articulation":"standard","articulation_tags":["standard","long"],"duration":0.6111111111111112,"velocity":57.43290944852216}
{"position":441.2708333333333,"instrument":"TheGrandeurPiano","level2":15,"level3":null,"pitch":56,"articulation":"standard","articulation_tags":["standard","long"],"duration":1.8818897637795275,"velocity":59.44946972455271}
{"position":441.2708333333333,"instrument":"TheGrandeurPiano","level2":20,"level3":null,"pitch":60,"articulation":"standard","articulation_tags":["standard","long"],"duration":0.6041666666666666,"velocity":59.44946972455271}
{"position":441.2916666666667,"instrument":"TheGrandeurPiano","level2":12,"level3":null,"pitch":39,"articulation":"standard","articulation_tags":["standard","long"],"duration":1.0486111111111112,"velocity":59.44946972455271}
{"position":441.4270833333333,"instrument":"Cello","level2":15,"level3":2,"pitch":41,"articulation":"pizzicato_bartok","articulation_tags":["pizzicato_bartok","pzb","short","pizzicato","bartok"],"duration":1.0,"velocity":99.2179990227966}
{"position":441.6145833333333,"instrument":"Cello","level2":20,"level3":7,"pitch":64,"articulation":"collegno","articulation_tags":["collegno","cl","short"],"duration":1.0,"velocity":95.23853849838004}
{"position":442.03125,"instrument":"TheGrandeurPiano","level2":15,"level3":null,"pitch":56,"articulation":"standard","articulation_tags":["standard","long"],"duration":1.8818897637795275,"velocity":60.00741980182357}
{"position":442.1770833333333,"instrument":"TheGrandeurPiano","level2":20,"level3":null,"pitch":60,"articulation":"standard","articulation_tags":["standard","long"],"duration":0.6666666666666666,"velocity":57.43290944852216}
{"position":442.8541666666667,"instrument":"TheGrandeurPiano","level2":12,"level3":null,"pitch":39,"articulation":"standard","articulation_tags":["standard","long"],"duration":1.0,"velocity":59.72940019077434}
{"position":443.1041666666667,"instrument":"ContrabassTrombone","level2":12,"level3":6,"pitch":38,"articulation":"legato","articulation_tags":["legato","lg"],"duration":13.958333333333334,"velocity":114.89377619818323}
{"position":443.1145833333333,"instrument":"TheGrandeurPiano","level2":20,"level3":null,"pitch":61,"articulation":"standard","articulation_tags":["standard","long"],"duration":0.5069444444444444,"velocity":64.23880744422377}
{"position":443.875,"instrument":"TheGrandeurPiano","level2":20,"level3":null,"pitch":62,"articulation":"standard","articulation_tags":["standard","long"],"duration":0.4861111111111111,"velocity":62.16716333076495}
{"position":444.3229166666667,"instrument":"TheGrandeurPiano","level2":20,"level3":null,"pitch":62,"articulation":"standard","articulation_tags":["standard","long"],"duration":0.9027777777777778,"velocity":61.90314150644675}
{"position":444.3541666666667,"instrument":"TheGrandeurPiano","level2":12,"level3":null,"pitch":40,"articulation":"standard","articulation_tags":["standard","long"],"duration":0.9513888888888888,"velocity":61.90314150644675}
{"position":444.4166666666667,"instrument":"TheGrandeurPiano","level2":15,"level3":null,"pitch":55,"articulation":"standard","articulation_tags":["standard","long"],"duration":1.7430555555555556,"velocity":61.90314150644675}
{"position":445.3125,"instrument":"TheGrandeurPiano","level2":20,"level3":null,"pitch":63,"articulation":"standard","articulation_tags":["standard","long"],"duration":0.4583333333333333,"velocity":62.94971338624596}
{"position":445.4895833333333,"instrument":"TheGrandeurPiano","level2":15,"level3":null,"pitch":55,"articulation":"standard","articulation_tags":["standard","long"],"duration":1.8661417322834646,"velocity":64.23880744422377}
{"position":445.6770833333333,"instrument":"TheGrandeurPiano","level2":20,"level3":null,"pitch":63,"articulation":"standard","articulation_tags":["standard","long"],"duration":1.2013888888888888,"velocity":64.23880744422377}
{"position":445.78125,"instrument":"TheGrandeurPiano","level2":12,"level3":null,"pitch":40,"articulation":"standard","articulation_tags":["standard","long"],"duration":0.9027777777777778,"velocity":64.23880744422377}
{"position":446.5,"instrument":"Bassoon","level2":15,"level3":1,"pitch":45,"articulation":"tenuto","articulation_tags":["tenuto","t","short"],"duration":0.25,"velocity":99.27110736407286}
{"position":446.5520833333333,"instrument":"BassClarinet","level2":12,"level3":9,"pitch":37,"articulation":"legato","articulation_tags":["legato","lg"],"duration":7.135416666666667,"velocity":112.0464600411833}
{"position":447.03125,"instrument":"TheGrandeurPiano","level2":15,"level3":null,"pitch":55,"articulation":"standard","articulation_tags":["standard","long"],"duration":1.4722222222222223,"velocity":66.8481677113443}
{"position":447.1458333333333,"instrument":"TheGrandeurPiano","level2":12,"level3":null,"pitch":41,"articulation":"standard","articulation_tags":["standard","long"],"duration":0.8611111111111112,"velocity":66.8481677113443}
{"position":447.3020833333333,"instrument":"TheGrandeurPiano","level2":20,"level3":null,"pitch":64,"articulation":"standard","articulation_tags":["standard","long"],"duration":0.4236111111111111,"velocity":66.8481677113443}
{"position":447.5520833333333,"instrument":"Bassoon","level2":12,"level3":10,"pitch":38,"articulation":"legato","articulation_tags":["legato","lg"],"duration":2.9583333333333335,"velocity":110.64127225582496}
{"position":447.9479166666667,"instrument":"TheGrandeurPiano","level2":20,"level3":null,"pitch":65,"articulation":"standard","articulation_tags":["standard","long"],"duration":0.4166666666666667,"velocity":66.33711787944337}
{"position":448.1354166666667,"instrument":"FrenchHorn","level2":15,"level3":2,"pitch":42,"articulation":"marcato","articulation_tags":["marcato","short"],"duration":1.0,"velocity":99.9730328358892}
{"position":448.4375,"instrument":"TheGrandeurPiano","level2":12,"level3":null,"pitch":41,"articulation":"standard","articulation_tags":["standard","long"],"duration":0.8125,"velocity":66.8481677113443}
{"position":448.4895833333333,"instrument":"TenorTrombone","level2":12,"level3":6,"pitch":37,"articulation":"legato","articulation_tags":["legato","lg"],"duration":7.614583333333333,"velocity":109.12474391970443}
{"position":448.5,"instrument":"Tuba","level2":12,"level3":7,"pitch":36,"articulation":"legato","articulation_tags":["legato","lg"],"duration":7.0,"velocity":109.12474391970443}
{"position":448.5729166666667,"instrument":"TheGrandeurPiano","level2":20,"level3":null,"pitch":65,"articulation":"standard","articulation_tags":["standard","long"],"duration":0.4097222222222222,"velocity":66.8481677113443}
{"position":448.6979166666667,"instrument":"TheGrandeurPiano","level2":15,"level3":null,"pitch":55,"articulation":"standard","articulation_tags":["standard","long"],"duration":1.8661417322834646,"velocity":66.8481677113443}
{"position":449.1875,"instrument":"TheGrandeurPiano","level2":20,"level3":null,"pitch":66,"articulation":"standard","articulation_tags":["standard","long"],"duration":0.4097222222222222,"velocity":68.35139281028783}
{"position":449.2395833333333,"instrument":"TheGrandeurPiano","level2":15,"level3":null,"pitch":54,"articulation":"standard","articulation_tags":["standard","long"],"duration":1.25,"velocity":68.35139281028783}
{"position":449.6458333333333,"instrument":"TheGrandeurPiano","level2":12,"level3":null,"pitch":42,"articulation":"standard","articulation_tags":["standard","long"],"duration":0.7638888888888888,"velocity":66.079637327091}
{"position":449.8125,"instrument":"TenorTrombone","level2":12,"level3":8,"pitch":38,"articulation":"legato","articulation_tags":["legato","lg"],"duration":4.666666666666667,"velocity":107.60838153636598}
{"position":450.3333333333333,"instrument":"Contrabass","level2":12,"level3":10,"pitch":38,"articulation":"spiccato","articulation_tags":["spiccato","sp","short"],"duration":1.0,"velocity":117.80419076818299}
{"position":450.40625,"instrument":"TheGrandeurPiano","level2":20,"level3":null,"pitch":67,"articulation":"standard","articulation_tags":["standard","long"],"duration":0.4027777777777778,"velocity":67.85515987811664}
{"position":450.8020833333333,"instrument":"TheGrandeurPiano","level2":12,"level3":null,"pitch":42,"articulation":"standard","articulation_tags":["standard","long"],"duration":0.7152777777777778,"velocity":67.10177610609054}
{"position":451.0104166666667,"instrument":"TheGrandeurPiano","level2":20,"level3":null,"pitch":67,"articulation":"standard","articulation_tags":["standard","long"],"duration":0.3958333333333333,"velocity":67.10177610609054}
{"position":451.1145833333333,"instrument":"TheGrandeurPiano","level2":15,"level3":null,"pitch":54,"articulation":"standard","articulation_tags":["standard","long"],"duration":1.0625,"velocity":67.10177610609054}
{"position":451.6041666666667,"instrument":"TheGrandeurPiano","level2":20,"level3":null,"pitch":68,"articulation":"standard","articulation_tags":["standard","long"],"duration":0.3958333333333333,"velocity":61.90314150644675}
{"position":451.6041666666667,"instrument":"TheGrandeurPiano","level2":15,"level3":null,"pitch":54,"articulation":"standard","articulation_tags":["standard","long"],"duration":1.6944444444444444,"velocity":61.90314150644675}
{"position":451.8541666666667,"instrument":"Cello","level2":15,"level3":1,"pitch":44,"articulation":"pizzicato","articulation_tags":["pizzicato","pz","short"],"duration":1.0,"velocity":100.86904751902246}
{"position":451.875,"instrument":"TheGrandeurPiano","level2":12,"level3":null,"pitch":43,"articulation":"standard","articulation_tags":["standard","long"],"duration":0.6736111111111112,"velocity":62.16716333076495}
{"position":452.15625,"instrument":"Contrabass","level2":12,"level3":8,"pitch":38,"articulation":"spiccato","articulation_tags":["spiccato","sp","short"],"duration":1.0,"velocity":116.28809435952778}
{"position":452.1979166666667,"instrument":"TheGrandeurPiano","level2":20,"level3":null,"pitch":68,"articulation":"standard","articulation_tags":["standard","long"],"duration":0.3958333333333333,"velocity":62.94971338624596}
{"position":452.6979166666667,"instrument":"TheGrandeurPiano","level2":15,"level3":null,"pitch":53,"articulation":"standard","articulation_tags":["standard","long"],"duration":0.8958333333333334,"velocity":64.23880744422377}
{"position":452.7916666666667,"instrument":"TheGrandeurPiano","level2":20,"level3":null,"pitch":69,"articulation":"standard","articulation_tags":["standard","long"],"duration":0.3958333333333333,"velocity":64.23880744422377}
{"position":452.8229166666667,"instrument":"Bassoon","level2":15,"level3":1,"pitch":44,"articulation":"tenuto","articulation_tags":["tenuto","t","short"],"duration":0.25,"velocity":101.59175163960258}
{"position":453.3958333333333,"instrument":"TheGrandeurPiano","level2":20,"level3":null,"pitch":69,"articulation":"standard","articulation_tags":["standard","long"],"duration":0.3958333333333333,"velocity":61.637484825203416}
{"position":453.625,"instrument":"Cello","level2":15,"level3":2,"pitch":42,"articulation":"pizzicato_bartok","articulation_tags":["pizzicato_bartok","pzb","short","pizzicato","bartok"],"duration":1.0,"velocity":101.59175163960258}
{"position":453.6875,"instrument":"Contrabass","level2":12,"level3":9,"pitch":37,"articulation":"spiccato","articulation_tags":["spiccato","sp","short"],"duration":1.0,"velocity":115.53018840607405}
{"position":453.7083333333333,"instrument":"TheGrandeurPiano","level2":12,"level3":null,"pitch":43,"articulation":"standard","articulation_tags":["standard","long"],"duration":1.6771653543307086,"velocity":57.43290944852216}
{"position":453.78125,"instrument":"Contrabass","level2":12,"level3":9,"pitch":38,"articulation":"spiccato","articulation_tags":["spiccato","sp","short"],"duration":1.0,"velocity":115.60325354827933}
{"position":453.8229166666667,"instrument":"TheGrandeurPiano","level2":12,"level3":null,"pitch":44,"articulation":"standard","articulation_tags":["standard","long"],"duration":0.5694444444444444,"velocity":57.43290944852216}
{"position":453.9895833333333,"instrument":"TheGrandeurPiano","level2":20,"level3":null,"pitch":70,"articulation":"standard","articulation_tags":["standard","long"],"duration":0.4027777777777778,"velocity":60.00741980182357}
{"position":454.5729166666667,"instrument":"TheGrandeurPiano","level2":20,"level3":null,"pitch":70,"articulation":"standard","articulation_tags":["standard","long"],"duration":1.0972222222222223,"velocity":56.23158300512256}
{"position":454.5833333333333,"instrument":"TheGrandeurPiano","level2":20,"level3":null,"pitch":70,"articulation":"standard","articulation_tags":["standard","long"],"duration":0.4027777777777778,"velocity":56.23158300512256}
{"position":454.6770833333333,"instrument":"TheGrandeurPiano","level2":12,"level3":null,"pitch":44,"articulation":"standard","articulation_tags":["standard","long"],"duration":0.5208333333333334,"velocity":56.23158300512256}
{"position":455.1979166666667,"instrument":"TheGrandeurPiano","level2":20,"level3":null,"pitch":71,"articulation":"standard","articulation_tags":["standard","long"],"duration":0.4097222222222222,"velocity":56.23158300512256}
{"position":455.4583333333333,"instrument":"TheGrandeurPiano","level2":12,"level3":null,"pitch":45,"articulation":"standard","articulation_tags":["standard","long"],"duration":0.4722222222222222,"velocity":56.23158300512256}
{"position":455.5,"instrument":"TenorTrombone","level2":12,"level3":7,"pitch":36,"articulation":"legato","articulation_tags":["legato","lg"],"duration":3.40625,"velocity":98.66837132891713}
{"position":455.8020833333333,"instrument":"TheGrandeurPiano","level2":20,"level3":null,"pitch":71,"articulation":"standard","articulation_tags":["standard","long"],"duration":0.4166666666666667,"velocity":53.375439239995806}
{"position":456.1041666666667,"instrument":"Cello","level2":12,"level3":6,"pitch":37,"articulation":"staccato","articulation_tags":["staccato","st","short"],"duration":1.0,"velocity":113.33418566445857}
{"position":456.1354166666667,"instrument":"TheGrandeurPiano","level2":15,"level3":null,"pitch":52,"articulation":"standard","articulation_tags":["standard","long"],"duration":0.5208333333333334,"velocity":55.30451013798564}
{"position":456.1666666666667,"instrument":"TheGrandeurPiano","level2":12,"level3":null,"pitch":45,"articulation":"standard","articulation_tags":["standard","long"],"duration":0.4166666666666667,"velocity":55.30451013798564}
{"position":456.2083333333333,"instrument":"TheGrandeurPiano","level2":20,"level3":null,"pitch":71,"articulation":"standard","articulation_tags":["standard","long"],"duration":0.7986111111111112,"velocity":55.30451013798564}
{"position":456.4166666666667,"instrument":"Cello","level2":15,"level3":2,"pitch":42,"articulation":"pizzicato","articulation_tags":["pizzicato","pz","short"],"duration":1.0,"velocity":103.36719400365345}
{"position":456.7916666666667,"instrument":"TheGrandeurPiano","level2":12,"level3":null,"pitch":46,"articulation":"standard","articulation_tags":["standard","long"],"duration":0.3680555555555556,"velocity":53.7043983069205}
{"position":456.9166666666667,"instrument":"TheGrandeurPiano","level2":15,"level3":null,"pitch":51,"articulation":"standard","articulation_tags":["standard","long"],"duration":0.4166666666666667,"velocity":53.7043983069205}
{"position":457.0625,"instrument":"ContrabassTrombone","level2":12,"level3":6,"pitch":37,"articulation":"legato","articulation_tags":["legato","lg"],"duration":1.9791666666666667,"velocity":95.64462768302356}
{"position":457.0625,"instrument":"TheGrandeurPiano","level2":20,"level3":null,"pitch":72,"articulation":"standard","articulation_tags":["standard","long"],"duration":0.4305555555555556,"velocity":52.70789143712726}
{"position":457.1458333333333,"instrument":"TheGrandeurPiano","level2":12,"level3":null,"pitch":46,"articulation":"standard","articulation_tags":["standard","long"],"duration":0.9444444444444444,"velocity":52.70789143712726}
{"position":457.34375,"instrument":"TheGrandeurPiano","level2":12,"level3":null,"pitch":46,"articulation":"standard","articulation_tags":["standard","long"],"duration":0.3055555555555556,"velocity":52.70789143712726}
{"position":457.4166666666667,"instrument":"TheGrandeurPiano","level2":20,"level3":null,"pitch":72,"articulation":"standard","articulation_tags":["standard","long"],"duration":0.6597222222222222,"velocity":52.70789143712726}
{"position":457.5416666666667,"instrument":"TheGrandeurPiano","level2":15,"level3":null,"pitch":51,"articulation":"standard","articulation_tags":["standard","long"],"duration":0.3263888888888889,"velocity":52.3691100605697}
{"position":457.625,"instrument":"TenorTrombone","level2":15,"level3":1,"pitch":44,"articulation":"marcato_muted","articulation_tags":["marcato_muted","short","marcato","muted"],"duration":1.0,"velocity":104.84537036417336}
{"position":457.78125,"instrument":"FrenchHorn","level2":15,"level3":2,"pitch":43,"articulation":"marcato_muted","articulation_tags":["marcato_muted","short","marcato","muted"],"duration":1.0,"velocity":104.84537036417336}
{"position":458.03125,"instrument":"TheGrandeurPiano","level2":15,"level3":null,"pitch":50,"articulation":"standard","articulation_tags":["standard","long"],"duration":0.2361111111111111,"velocity":47.50890062680658}
{"position":458.1770833333333,"instrument":"TheGrandeurPiano","level2":12,"level3":null,"pitch":47,"articulation":"standard","articulation_tags":["standard","long"],"duration":0.19444444444444445,"velocity":47.929732928888484}
{"position":458.375,"instrument":"TheGrandeurPiano","level2":20,"level3":null,"pitch":73,"articulation":"standard","articulation_tags":["standard","long"],"duration":0.4652777777777778,"velocity":47.929732928888484}
{"position":458.3854166666667,"instrument":"TheGrandeurPiano","level2":15,"level3":null,"pitch":50,"articulation":"standard","articulation_tags":["standard","long"],"duration":0.1527777777777778,"velocity":47.929732928888484}
{"position":458.3958333333333,"instrument":"TheGrandeurPiano","level2":20,"level3":null,"pitch":73,"articulation":"standard","articulation_tags":["standard","long"],"duration":0.5694444444444444,"velocity":47.929732928888484}
{"position":458.4583333333333,"instrument":"TheGrandeurPiano","level2":12,"level3":null,"pitch":48,"articulation":"standard","articulation_tags":["standard","long"],"duration":0.125,"velocity":47.929732928888484}
{"position":458.5729166666667,"instrument":"TheGrandeurPiano","level2":12,"level3":null,"pitch":48,"articulation":"standard","articulation_tags":["standard","long"],"duration":0.125,"velocity":47.929732928888484}
{"position":458.6145833333333,"instrument":"TheGrandeurPiano","level2":15,"level3":null,"pitch":49,"articulation":"standard","articulation_tags":["standard","long"],"duration":0.0763888888888889,"velocity":49.149254652639854}
{"position":458.7291666666667,"instrument":"TheGrandeurPiano","level2":15,"level3":null,"pitch":49,"articulation":"standard","articulation_tags":["standard","long"],"duration":0.013888888888888888,"velocity":49.149254652639854}
{"position":458.7395833333333,"instrument":"TheGrandeurPiano","level2":12,"level3":null,"pitch":49,"articulation":"standard","articulation_tags":["standard","long"],"duration":0.006944444444444444,"velocity":49.149254652639854}
{"position":458.90625,"instrument":"TenorTrombone","level2":12,"level3":7,"pitch":36,"articulation":"legato","articulation_tags":["legato","lg"],"duration":0.14583333333333334,"velocity":87.0410630893061}
{"position":458.9479166666667,"instrument":"TenorTrombone","level2":15,"level3":1,"pitch":44,"articulation":"marcato_muted","articulation_tags":["marcato_muted","short","marcato","muted"],"duration":1.0,"velocity":107.52053154465305}
{"position":459.0,"instrument":"Cello","level2":12,"level3":7,"pitch":37,"articulation":"staccato","articulation_tags":["staccato","st","short"],"duration":1.0,"velocity":107.52053154465305}
{"position":459.0729166666667,"instrument":"TheGrandeurPiano","level2":20,"level3":null,"pitch":74,"articulation":"standard","articulation_tags":["standard","long"],"duration":0.4930555555555556,"velocity":44.38257632664043}
{"position":459.25,"instrument":"TheGrandeurPiano","level2":20,"level3":null,"pitch":74,"articulation":"standard","articulation_tags":["standard","long"],"duration":0.5069444444444444,"velocity":46.649321986587466}
{"position":459.625,"instrument":"TenorTrombone","level2":20,"level3":4,"pitch":63,"articulation":"marcato","articulation_tags":["marcato","short"],"duration":1.0,"velocity":88.01664680308252}
{"position":459.8125,"instrument":"TheGrandeurPiano","level2":20,"level3":null,"pitch":74,"articulation":"standard","articulation_tags":["standard","long"],"duration":0.5277777777777778,"velocity":46.649321986587466}
{"position":460.0104166666667,"instrument":"TheGrandeurPiano","level2":20,"level3":null,"pitch":74,"articulation":"standard","articulation_tags":["standard","long"],"duration":0.4583333333333333,"velocity":45.764067359681924}
{"position":460.3958333333333,"instrument":"Cello","level2":15,"level3":2,"pitch":43,"articulation":"pizzicato","articulation_tags":["pizzicato","pz","short"],"duration":1.0,"velocity":107.52053154465305}
{"position":460.5416666666667,"instrument":"Cello","level2":15,"level3":1,"pitch":44,"articulation":"pizzicato","articulation_tags":["pizzicato","pz","short"],"duration":1.0,"velocity":107.52053154465305}
{"position":460.6041666666667,"instrument":"TheGrandeurPiano","level2":20,"level3":null,"pitch":75,"articulation":"standard","articulation_tags":["standard","long"],"duration":0.5902777777777778,"velocity":42.42408385567215}
{"position":460.6979166666667,"instrument":"TheGrandeurPiano","level2":20,"level3":null,"pitch":75,"articulation":"standard","articulation_tags":["standard","long"],"duration":0.4236111111111111,"velocity":42.42408385567215}
{"position":460.8229166666667,"instrument":"ContrabassTrombone","level2":15,"level3":2,"pitch":43,"articulation":"staccato","articulation_tags":["staccato","st","short"],"duration":1.0,"velocity":107.52053154465305}
{"position":461.0520833333333,"instrument":"TenorTrombone","level2":15,"level3":1,"pitch":43,"articulation":"marcato_muted","articulation_tags":["marcato_muted","short","marcato","muted"],"duration":1.0,"velocity":107.52053154465305}
{"position":461.3333333333333,"instrument":"TheGrandeurPiano","level2":20,"level3":null,"pitch":75,"articulation":"standard","articulation_tags":["standard","long"],"duration":0.3958333333333333,"velocity":44.38257632664043}
{"position":461.4895833333333,"instrument":"TheGrandeurPiano","level2":20,"level3":null,"pitch":75,"articulation":"standard","articulation_tags":["standard","long"],"duration":0.7013888888888888,"velocity":44.38257632664043}
{"position":461.9270833333333,"instrument":"TheGrandeurPiano","level2":20,"level3":null,"pitch":75,"articulation":"standard","articulation_tags":["standard","long"],"duration":0.3680555555555556,"velocity":42.92757993905832}
{"position":462.4791666666667,"instrument":"TheGrandeurPiano","level2":20,"level3":null,"pitch":75,"articulation":"standard","articulation_tags":["standard","long"],"duration":0.3472222222222222,"velocity":42.42408385567215}
{"position":462.5416666666667,"instrument":"TheGrandeurPiano","level2":20,"level3":null,"pitch":76,"articulation":"standard","articulation_tags":["standard","long"],"duration":1.0972222222222223,"velocity":42.42408385567215}
{"position":463.0,"instrument":"TheGrandeurPiano","level2":20,"level3":null,"pitch":76,"articulation":"standard","articulation_tags":["standard","long"],"duration":0.3333333333333333,"velocity":42.92757993905832}
{"position":463.4895833333333,"instrument":"TheGrandeurPiano","level2":20,"level3":null,"pitch":76,"articulation":"standard","articulation_tags":["standard","long"],"duration":0.3125,"velocity":44.38257632664043}
{"position":463.96875,"instrument":"TheGrandeurPiano","level2":20,"level3":null,"pitch":76,"articulation":"standard","articulation_tags":["standard","long"],"duration":0.3055555555555556,"velocity":46.649321986587466}
{"position":464.1979166666667,"instrument":"TheGrandeurPiano","level2":20,"level3":null,"pitch":76,"articulation":"standard","articulation_tags":["standard","long"],"duration":1.1805555555555556,"velocity":46.649321986587466}
{"position":464.4166666666667,"instrument":"TheGrandeurPiano","level2":20,"level3":null,"pitch":76,"articulation":"standard","articulation_tags":["standard","long"],"duration":0.2916666666666667,"velocity":46.649321986587466}
{"position":464.6875,"instrument":"TenorTrombone","level2":20,"level3":9,"pitch":64,"articulation":"staccato","articulation_tags":["staccato","st","short"],"duration":1.0,"velocity":83.3125192594699}
{"position":464.8541666666667,"instrument":"TheGrandeurPiano","level2":20,"level3":null,"pitch":76,"articulation":"standard","articulation_tags":["standard","long"],"duration":0.2847222222222222,"velocity":49.52379391577116}
{"position":464.8854166666667,"instrument":"CorAnglais","level2":20,"level3":4,"pitch":63,"articulation":"tenuto","articulation_tags":["tenuto","t","short"],"duration":0.25,"velocity":82.73506244697674}
{"position":465.28125,"instrument":"TheGrandeurPiano","level2":20,"level3":null,"pitch":76,"articulation":"standard","articulation_tags":["standard","long"],"duration":0.2777777777777778,"velocity":49.52379391577116}
{"position":465.6875,"instrument":"TheGrandeurPiano","level2":20,"level3":null,"pitch":76,"articulation":"standard","articulation_tags":["standard","long"],"duration":0.2708333333333333,"velocity":49.52379391577116}
{"position":465.9583333333333,"instrument":"TheGrandeurPiano","level2":20,"level3":null,"pitch":76,"articulation":"standard","articulation_tags":["standard","long"],"duration":0.8680555555555556,"velocity":50.97811361890256}
{"position":466.09375,"instrument":"TheGrandeurPiano","level2":20,"level3":null,"pitch":76,"articulation":"standard","articulation_tags":["standard","long"],"duration":0.2638888888888889,"velocity":50.97811361890256}
{"position":466.4895833333333,"instrument":"TheGrandeurPiano","level2":20,"level3":null,"pitch":76,"articulation":"standard","articulation_tags":["standard","long"],"duration":0.2569444444444444,"velocity":50.97811361890256}
{"position":466.65625,"instrument":"TenorTrombone","level2":20,"level3":4,"pitch":64,"articulation":"staccato","articulation_tags":["staccato","st","short"],"duration":1.0,"velocity":80.083140878519}
{"position":466.875,"instrument":"TheGrandeurPiano","level2":20,"level3":null,"pitch":76,"articulation":"standard","articulation_tags":["standard","long"],"duration":0.2569444444444444,"velocity":53.7043983069205}
{"position":467.1875,"instrument":"TenorTrombone","level2":20,"level3":0,"pitch":62,"articulation":"staccato","articulation_tags":["staccato","st","short"],"duration":1.0,"velocity":79.62561985357037}
{"position":467.2708333333333,"instrument":"TheGrandeurPiano","level2":20,"level3":null,"pitch":76,"articulation":"standard","articulation_tags":["standard","long"],"duration":0.2569444444444444,"velocity":52.70789143712726}
{"position":467.2708333333333,"instrument":"TheGrandeurPiano","level2":20,"level3":null,"pitch":75,"articulation":"standard","articulation_tags":["standard","long"],"duration":0.4791666666666667,"velocity":52.70789143712726}
{"position":467.65625,"instrument":"TheGrandeurPiano","level2":20,"level3":null,"pitch":75,"articulation":"standard","articulation_tags":["standard","long"],"duration":0.2569444444444444,"velocity":52.70789143712726}
{"position":467.9791666666667,"instrument":"TheGrandeurPiano","level2":20,"level3":null,"pitch":75,"articulation":"standard","articulation_tags":["standard","long"],"duration":0.3611111111111111,"velocity":52.3691100605697}
{"position":468.0416666666667,"instrument":"TheGrandeurPiano","level2":20,"level3":null,"pitch":75,"articulation":"standard","articulation_tags":["standard","long"],"duration":0.2638888888888889,"velocity":52.3691100605697}
{"position":468.4375,"instrument":"TheGrandeurPiano","level2":20,"level3":null,"pitch":75,"articulation":"standard","articulation_tags":["standard","long"],"duration":0.2708333333333333,"velocity":52.70789143712726}
{"position":468.53125,"instrument":"TheGrandeurPiano","level2":20,"level3":null,"pitch":74,"articulation":"standard","articulation_tags":["standard","long"],"duration":0.3055555555555556,"velocity":52.70789143712726}
{"position":468.7916666666667,"instrument":"TenorTrombone","level2":20,"level3":3,"pitch":65,"articulation":"staccato_muted","articulation_tags":["staccato_muted","stmt","short","staccato","muted"],"duration":1.0,"velocity":76.1216093070688}
{"position":468.8541666666667,"instrument":"TheGrandeurPiano","level2":20,"level3":null,"pitch":74,"articulation":"standard","articulation_tags":["standard","long"],"duration":0.2847222222222222,"velocity":52.70789143712726}
{"position":468.9895833333333,"instrument":"TheGrandeurPiano","level2":20,"level3":null,"pitch":74,"articulation":"standard","articulation_tags":["standard","long"],"duration":0.2708333333333333,"velocity":53.7043983069205}
{"position":469.28125,"instrument":"TheGrandeurPiano","level2":20,"level3":null,"pitch":74,"articulation":"standard","articulation_tags":["standard","long"],"duration":0.3125,"velocity":53.7043983069205}
{"position":469.3854166666667,"instrument":"TheGrandeurPiano","level2":20,"level3":null,"pitch":73,"articulation":"standard","articulation_tags":["standard","long"],"duration":0.24305555555555555,"velocity":53.7043983069205}
{"position":469.75,"instrument":"TheGrandeurPiano","level2":20,"level3":null,"pitch":73,"articulation":"standard","articulation_tags":["standard","long"],"duration":0.3541666666666667,"velocity":55.30451013798564}
{"position":469.75,"instrument":"TheGrandeurPiano","level2":20,"level3":null,"pitch":73,"articulation":"standard","articulation_tags":["standard","long"],"duration":0.22916666666666666,"velocity":55.30451013798564}
{"position":470.09375,"instrument":"TheGrandeurPiano","level2":20,"level3":null,"pitch":72,"articulation":"standard","articulation_tags":["standard","long"],"duration":0.2152777777777778,"velocity":55.30451013798564}
{"position":470.28125,"instrument":"TheGrandeurPiano","level2":20,"level3":null,"pitch":72,"articulation":"standard","articulation_tags":["standard","long"],"duration":0.4375,"velocity":57.43290944852216}
{"position":470.4166666666667,"instrument":"TheGrandeurPiano","level2":20,"level3":null,"pitch":72,"articulation":"standard","articulation_tags":["standard","long"],"duration":0.2013888888888889,"velocity":57.43290944852216}
{"position":470.71875,"instrument":"TheGrandeurPiano","level2":20,"level3":null,"pitch":71,"articulation":"standard","articulation_tags":["standard","long"],"duration":0.19444444444444445,"velocity":57.43290944852216}
{"position":470.9375,"instrument":"TheGrandeurPiano","level2":20,"level3":null,"pitch":71,"articulation":"standard","articulation_tags":["standard","long"],"duration":0.7361111111111112,"velocity":56.23158300512256}
{"position":471.0208333333333,"instrument":"TheGrandeurPiano","level2":20,"level3":null,"pitch":71,"articulation":"standard","articulation_tags":["standard","long"],"duration":0.19444444444444445,"velocity":56.23158300512256}
{"position":471.2708333333333,"instrument":"ContrabassTrombone","level2":20,"level3":6,"pitch":63,"articulation":"staccato","articulation_tags":["staccato","st","short"],"duration":1.0,"velocity":75.61489049521518}
{"position":471.3020833333333,"instrument":"TheGrandeurPiano","level2":20,"level3":null,"pitch":70,"articulation":"standard","articulation_tags":["standard","long"],"duration":0.1875,"velocity":56.23158300512256}
{"position":471.59375,"instrument":"TheGrandeurPiano","level2":20,"level3":null,"pitch":70,"articulation":"standard","articulation_tags":["standard","long"],"duration":0.1875,"velocity":59.44946972455271}
{"position":471.875,"instrument":"TheGrandeurPiano","level2":20,"level3":null,"pitch":69,"articulation":"standard","articulation_tags":["standard","long"],"duration":0.1875,"velocity":56.23158300512256}
{"position":472.0416666666667,"instrument":"TheGrandeurPiano","level2":20,"level3":null,"pitch":69,"articulation":"standard","articulation_tags":["standard","long"],"duration":1.1875,"velocity":56.23158300512256}
{"position":472.1666666666667,"instrument":"TheGrandeurPiano","level2":20,"level3":null,"pitch":69,"articulation":"standard","articulation_tags":["standard","long"],"duration":0.19444444444444445,"velocity":56.23158300512256}
{"position":472.4479166666667,"instrument":"TheGrandeurPiano","level2":20,"level3":null,"pitch":68,"articulation":"standard","articulation_tags":["standard","long"],"duration":0.19444444444444445,"velocity":56.23158300512256}
{"position":472.7395833333333,"instrument":"TheGrandeurPiano","level2":20,"level3":null,"pitch":68,"articulation":"standard","articulation_tags":["standard","long"],"duration":0.375,"velocity":57.43290944852216}
{"position":473.3020833333333,"instrument":"TheGrandeurPiano","level2":20,"level3":null,"pitch":67,"articulation":"standard","articulation_tags":["standard","long"],"duration":0.4583333333333333,"velocity":57.43290944852216}
{"position":473.8229166666667,"instrument":"TheGrandeurPiano","level2":20,"level3":null,"pitch":67,"articulation":"standard","articulation_tags":["standard","long"],"duration":1.4652777777777777,"velocity":55.30451013798564}
{"position":474.0,"instrument":"TheGrandeurPiano","level2":20,"level3":null,"pitch":67,"articulation":"standard","articulation_tags":["standard","long"],"duration":0.4652777777777778,"velocity":53.7043983069205}
{"position":474.6979166666667,"instrument":"TheGrandeurPiano","level2":20,"level3":null,"pitch":66,"articulation":"standard","articulation_tags":["standard","long"],"duration":0.4791666666666667,"velocity":57.43290944852216}
{"position":474.9583333333333,"instrument":"ContrabassTrombone","level2":20,"level3":5,"pitch":65,"articulation":"staccato","articulation_tags":["staccato","st","short"],"duration":1.0,"velocity":81.4045400770951}
{"position":475.4166666666667,"instrument":"TheGrandeurPiano","level2":20,"level3":null,"pitch":66,"articulation":"standard","articulation_tags":["standard","long"],"duration":0.5,"velocity":52.3691100605697}
{"position":476.0208333333333,"instrument":"TheGrandeurPiano","level2":20,"level3":null,"pitch":66,"articulation":"standard","articulation_tags":["standard","long"],"duration":0.8888888888888888,"velocity":52.70789143712726}
{"position":476.1666666666667,"instrument":"TheGrandeurPiano","level2":20,"level3":null,"pitch":65,"articulation":"standard","articulation_tags":["standard","long"],"duration":0.5208333333333334,"velocity":52.70789143712726}
{"position":476.6458333333333,"instrument":"Trumpet","level2":20,"level3":2,"pitch":62,"articulation":"staccato","articulation_tags":["staccato","st","short"],"duration":1.0,"velocity":82.64988707616072}
{"position":476.9479166666667,"instrument":"TheGrandeurPiano","level2":20,"level3":null,"pitch":65,"articulation":"standard","articulation_tags":["standard","long"],"duration":0.5555555555555556,"velocity":53.7043983069205}
{"position":477.3541666666667,"instrument":"TheGrandeurPiano","level2":20,"level3":null,"pitch":65,"articulation":"standard","articulation_tags":["standard","long"],"duration":0.7152777777777778,"velocity":49.149254652639854}
{"position":477.7916666666667,"instrument":"TheGrandeurPiano","level2":20,"level3":null,"pitch":64,"articulation":"standard","articulation_tags":["standard","long"],"duration":0.6111111111111112,"velocity":50.97811361890256}
{"position":477.9375,"instrument":"Trumpet","level2":20,"level3":1,"pitch":66,"articulation":"staccato_muted","articulation_tags":["staccato_muted","stmt","short","staccato","muted"],"duration":1.0,"velocity":84.01248163727956}
{"position":478.4270833333333,"instrument":"TheGrandeurPiano","level2":20,"level3":null,"pitch":64,"articulation":"standard","articulation_tags":["standard","long"],"duration":0.6180555555555556,"velocity":49.52379391577116}
{"position":478.7083333333333,"instrument":"TheGrandeurPiano","level2":20,"level3":null,"pitch":64,"articulation":"standard","articulation_tags":["standard","long"],"duration":0.6875,"velocity":49.52379391577116}
{"position":478.9375,"instrument":"Cello","level2":20,"level3":3,"pitch":64,"articulation":"collegno","articulation_tags":["collegno","cl","short"],"duration":1.0,"velocity":84.69600997755241}
{"position":479.3541666666667,"instrument":"TheGrandeurPiano","level2":20,"level3":null,"pitch":64,"articulation":"standard","articulation_tags":["standard","long"],"duration":0.5625,"velocity":45.764067359681924}
{"position":479.7395833333333,"instrument":"TheGrandeurPiano","level2":20,"level3":null,"pitch":63,"articulation":"standard","articulation_tags":["standard","long"],"duration":0.8402777777777778,"velocity":42.42408385567215}
{"position":480.1979166666667,"instrument":"TheGrandeurPiano","level2":20,"level3":null,"pitch":63,"articulation":"standard","articulation_tags":["standard","long"],"duration":0.5208333333333334,"velocity":42.42408385567215}
{"position":480.2708333333333,"instrument":"Trumpet","level2":20,"level3":6,"pitch":64,"articulation":"staccato_muted","articulation_tags":["staccato_muted","stmt","short","staccato","muted"],"duration":1.0,"velocity":85.45538155957779}
{"position":480.9791666666667,"instrument":"TheGrandeurPiano","level2":20,"level3":null,"pitch":63,"articulation":"standard","articulation_tags":["standard","long"],"duration":0.4930555555555556,"velocity":44.38257632664043}
{"position":481.0,"instrument":"TheGrandeurPiano","level2":20,"level3":null,"pitch":63,"articulation":"standard","articulation_tags":["standard","long"],"duration":1.2847222222222223,"velocity":44.38257632664043}
{"position":481.71875,"instrument":"TheGrandeurPiano","level2":20,"level3":null,"pitch":63,"articulation":"standard","articulation_tags":["standard","long"],"duration":0.4722222222222222,"velocity":37.9652366342994}
{"position":482.3229166666667,"instrument":"Cello","level2":20,"level3":3,"pitch":64,"articulation":"collegno","articulation_tags":["collegno","cl","short"],"duration":1.0,"velocity":86.38268041307593}
{"position":482.4270833333333,"instrument":"TheGrandeurPiano","level2":20,"level3":null,"pitch":63,"articulation":"standard","articulation_tags":["standard","long"],"duration":0.4513888888888889,"velocity":37.339267084537724}
{"position":482.9270833333333,"instrument":"TheGrandeurPiano","level2":20,"level3":null,"pitch":62,"articulation":"standard","articulation_tags":["standard","long"],"duration":1.9763779527559056,"velocity":37.9652366342994}
{"position":483.1041666666667,"instrument":"TheGrandeurPiano","level2":20,"level3":null,"pitch":62,"articulation":"standard","articulation_tags":["standard","long"],"duration":0.4444444444444444,"velocity":37.9652366342994}
{"position":483.4895833333333,"instrument":"CorAnglais","level2":20,"level3":0,"pitch":63,"articulation":"tenuto","articulation_tags":["tenuto","t","short"],"duration":0.25,"velocity":87.44668430337043}
{"position":483.7708333333333,"instrument":"TheGrandeurPiano","level2":20,"level3":null,"pitch":62,"articulation":"standard","articulation_tags":["standard","long"],"duration":0.4305555555555556,"velocity":35.33356759466443}
{"position":484.4166666666667,"instrument":"TheGrandeurPiano","level2":20,"level3":null,"pitch":62,"articulation":"standard","articulation_tags":["standard","long"],"duration":0.4305555555555556,"velocity":31.28091078483102}
{"position":485.0625,"instrument":"TheGrandeurPiano","level2":20,"level3":null,"pitch":62,"articulation":"standard","articulation_tags":["standard","long"],"duration":0.4236111111111111,"velocity":35.33356759466443}
{"position":485.6979166666667,"instrument":"TheGrandeurPiano","level2":20,"level3":null,"pitch":62,"articulation":"standard","articulation_tags":["standard","long"],"duration":0.4305555555555556,"velocity":33.07960248140792}
{"position":486.2708333333333,"instrument":"TheGrandeurPiano","level2":20,"level3":null,"pitch":63,"articulation":"standard","articulation_tags":["standard","long"],"duration":1.2291666666666667,"velocity":32.20785345799099}
{"position":486.34375,"instrument":"TheGrandeurPiano","level2":20,"level3":null,"pitch":63,"articulation":"standard","articulation_tags":["standard","long"],"duration":0.4305555555555556,"velocity":32.20785345799099}
{"position":486.9895833333333,"instrument":"TheGrandeurPiano","level2":20,"level3":null,"pitch":63,"articulation":"standard","articulation_tags":["standard","long"],"duration":0.4375,"velocity":33.07960248140792}
{"position":487.6458333333333,"instrument":"TheGrandeurPiano","level2":20,"level3":null,"pitch":63,"articulation":"standard","articulation_tags":["standard","long"],"duration":0.4513888888888889,"velocity":35.33356759466443}
{"position":487.78125,"instrument":"CorAnglais","level2":20,"level3":5,"pitch":64,"articulation":"tenuto","articulation_tags":["tenuto","t","short"],"duration":0.25,"velocity":88.92927118462904}
{"position":488.1145833333333,"instrument":"TheGrandeurPiano","level2":20,"level3":null,"pitch":63,"articulation":"standard","articulation_tags":["standard","long"],"duration":0.7847222222222222,"velocity":35.33356759466443}
{"position":488.3229166666667,"instrument":"TheGrandeurPiano","level2":20,"level3":null,"pitch":63,"articulation":"standard","articulation_tags":["standard","long"],"duration":0.4652777777777778,"velocity":38.573050519761445}
{"position":489.0208333333333,"instrument":"TheGrandeurPiano","level2":20,"level3":null,"pitch":63,"articulation":"standard","articulation_tags":["standard","long"],"duration":0.4861111111111111,"velocity":35.33356759466443}
{"position":489.2916666666667,"instrument":"TheGrandeurPiano","level2":20,"level3":null,"pitch":64,"articulation":"standard","articulation_tags":["standard","long"],"duration":0.6319444444444444,"velocity":39.73999190677516}
{"position":489.75,"instrument":"TheGrandeurPiano","level2":20,"level3":null,"pitch":64,"articulation":"standard","articulation_tags":["standard","long"],"duration":0.5208333333333334,"velocity":39.73999190677516}
{"position":490.2395833333333,"instrument":"TheGrandeurPiano","level2":20,"level3":null,"pitch":64,"articulation":"standard","articulation_tags":["standard","long"],"duration":0.5486111111111112,"velocity":37.9652366342994}
{"position":490.5208333333333,"instrument":"TheGrandeurPiano","level2":20,"level3":null,"pitch":64,"articulation":"standard","articulation_tags":["standard","long"],"duration":0.5625,"velocity":42.92757993905832}
{"position":491.0625,"instrument":"TheGrandeurPiano","level2":20,"level3":null,"pitch":65,"articulation":"standard","articulation_tags":["standard","long"],"duration":0.5,"velocity":42.92757993905832}
{"position":491.3645833333333,"instrument":"TheGrandeurPiano","level2":20,"level3":null,"pitch":65,"articulation":"standard","articulation_tags":["standard","long"],"duration":0.6319444444444444,"velocity":42.42408385567215}
{"position":491.4895833333333,"instrument":"Cello","level2":20,"level3":0,"pitch":63,"articulation":"pizzicato","articulation_tags":["pizzicato","pz","short"],"duration":1.0,"velocity":89.20700402489936}
{"position":491.8125,"instrument":"TheGrandeurPiano","level2":20,"level3":null,"pitch":65,"articulation":"standard","articulation_tags":["standard","long"],"duration":0.4652777777777778,"velocity":42.42408385567215}
{"position":492.3229166666667,"instrument":"TheGrandeurPiano","level2":20,"level3":null,"pitch":65,"articulation":"standard","articulation_tags":["standard","long"],"duration":0.7569444444444444,"velocity":42.92757993905832}
{"position":492.5,"instrument":"TheGrandeurPiano","level2":20,"level3":null,"pitch":66,"articulation":"standard","articulation_tags":["standard","long"],"duration":0.4375,"velocity":42.92757993905832}
{"position":493.15625,"instrument":"TheGrandeurPiano","level2":20,"level3":null,"pitch":66,"articulation":"standard","articulation_tags":["standard","long"],"duration":0.4166666666666667,"velocity":44.38257632664043}
{"position":493.4583333333333,"instrument":"TheGrandeurPiano","level2":20,"level3":null,"pitch":66,"articulation":"standard","articulation_tags":["standard","long"],"duration":1.0625,"velocity":44.38257632664043}
{"position":493.5,"instrument":"Cello","level2":20,"level3":5,"pitch":64,"articulation":"pizzicato","articulation_tags":["pizzicato","pz","short"],"duration":1.0,"velocity":89.15835030752027}
{"position":493.78125,"instrument":"TheGrandeurPiano","level2":20,"level3":null,"pitch":67,"articulation":"standard","articulation_tags":["standard","long"],"duration":0.4027777777777778,"velocity":46.649321986587466}
{"position":494.3854166666667,"instrument":"TheGrandeurPiano","level2":20,"level3":null,"pitch":67,"articulation":"standard","articulation_tags":["standard","long"],"duration":0.3888888888888889,"velocity":46.649321986587466}
{"position":494.59375,"instrument":"TenorTrombone","level2":20,"level3":0,"pitch":64,"articulation":"staccato","articulation_tags":["staccato","st","short"],"duration":1.0,"velocity":88.49419343112795}
{"position":494.96875,"instrument":"TheGrandeurPiano","level2":20,"level3":null,"pitch":68,"articulation":"standard","articulation_tags":["standard","long"],"duration":0.3819444444444444,"velocity":49.52379391577116}
{"position":495.0520833333333,"instrument":"TheGrandeurPiano","level2":20,"level3":null,"pitch":68,"articulation":"standard","articulation_tags":["standard","long"],"duration":2.0708661417322833,"velocity":49.52379391577116}
{"position":495.5520833333333,"instrument":"TheGrandeurPiano","level2":20,"level3":null,"pitch":68,"articulation":"standard","articulation_tags":["standard","long"],"duration":0.3819444444444444,"velocity":45.764067359681924}
{"position":496.1145833333333,"instrument":"TheGrandeurPiano","level2":20,"level3":null,"pitch":69,"articulation":"standard","articulation_tags":["standard","long"],"duration":0.375,"velocity":49.52379391577116}
{"position":496.6770833333333,"instrument":"TheGrandeurPiano","level2":20,"level3":null,"pitch":69,"articulation":"standard","articulation_tags":["standard","long"],"duration":0.375,"velocity":46.649321986587466}
{"position":497.2395833333333,"instrument":"TheGrandeurPiano","level2":20,"level3":null,"pitch":70,"articulation":"standard","articulation_tags":["standard","long"],"duration":0.375,"velocity":46.649321986587466}
{"position":497.8125,"instrument":"TheGrandeurPiano","level2":20,"level3":null,"pitch":70,"articulation":"standard","articulation_tags":["standard","long"],"duration":0.3819444444444444,"velocity":44.38257632664043}
{"position":498.3854166666667,"instrument":"TheGrandeurPiano","level2":20,"level3":null,"pitch":71,"articulation":"standard","articulation_tags":["standard","long"],"duration":0.3888888888888889,"velocity":49.149254652639854}
{"position":498.9479166666667,"instrument":"TenorTrombone","level2":20,"level3":2,"pitch":62,"articulation":"staccato","articulation_tags":["staccato","st","short"],"duration":1.0,"velocity":87.79121138016261}
{"position":498.9583333333333,"instrument":"TheGrandeurPiano","level2":20,"level3":null,"pitch":71,"articulation":"standard","articulation_tags":["standard","long"],"duration":0.3958333333333333,"velocity":47.929732928888484}
{"position":499.03125,"instrument":"TenorTrombone","level2":20,"level3":1,"pitch":65,"articulation":"staccato_muted","articulation_tags":["staccato_muted","stmt","short","staccato","muted"],"duration":1.0,"velocity":87.73433128949596}
{"position":499.5520833333333,"instrument":"TheGrandeurPiano","level2":20,"level3":null,"pitch":72,"articulation":"standard","articulation_tags":["standard","long"],"duration":0.4097222222222222,"velocity":42.42408385567215}
{"position":499.7604166666667,"instrument":"TheGrandeurPiano","level2":20,"level3":null,"pitch":72,"articulation":"standard","articulation_tags":["standard","long"],"duration":1.1111111111111112,"velocity":42.42408385567215}
{"position":500.1666666666667,"instrument":"TheGrandeurPiano","level2":20,"level3":null,"pitch":72,"articulation":"standard","articulation_tags":["standard","long"],"duration":0.4236111111111111,"velocity":42.42408385567215}
{"position":500.8020833333333,"instrument":"TheGrandeurPiano","level2":20,"level3":null,"pitch":73,"articulation":"standard","articulation_tags":["standard","long"],"duration":0.4444444444444444,"velocity":42.92757993905832}
{"position":501.4270833333333,"instrument":"TheGrandeurPiano","level2":20,"level3":null,"pitch":73,"articulation":"standard","articulation_tags":["standard","long"],"duration":0.8125,"velocity":42.92757993905832}
{"position":501.46875,"instrument":"TheGrandeurPiano","level2":20,"level3":null,"pitch":73,"articulation":"standard","articulation_tags":["standard","long"],"duration":0.4722222222222222,"velocity":42.92757993905832}
{"position":502.1666666666667,"instrument":"TheGrandeurPiano","level2":20,"level3":null,"pitch":74,"articulation":"standard","articulation_tags":["standard","long"],"duration":0.5069444444444444,"velocity":39.73999190677516}
{"position":502.6458333333333,"instrument":"TheGrandeurPiano","level2":20,"level3":null,"pitch":74,"articulation":"standard","articulation_tags":["standard","long"],"duration":0.6875,"velocity":39.73999190677516}
{"position":502.9270833333333,"instrument":"TheGrandeurPiano","level2":20,"level3":null,"pitch":74,"articulation":"standard","articulation_tags":["standard","long"],"duration":0.5555555555555556,"velocity":39.73999190677516}
{"position":503.6770833333333,"instrument":"TheGrandeurPiano","level2":20,"level3":null,"pitch":74,"articulation":"standard","articulation_tags":["standard","long"],"duration":0.6180555555555556,"velocity":35.33356759466443}
{"position":503.7604166666667,"instrument":"TheGrandeurPiano","level2":20,"level3":null,"pitch":75,"articulation":"standard","articulation_tags":["standard","long"],"duration":0.6319444444444444,"velocity":35.33356759466443}
{"position":504.6041666666667,"instrument":"TheGrandeurPiano","level2":20,"level3":null,"pitch":75,"articulation":"standard","articulation_tags":["standard","long"],"duration":0.5763888888888888,"velocity":31.28091078483102}
{"position":504.7083333333333,"instrument":"TheGrandeurPiano","level2":20,"level3":null,"pitch":75,"articulation":"standard","articulation_tags":["standard","long"],"duration":0.7638888888888888,"velocity":31.28091078483102}
{"position":505.4791666666667,"instrument":"TheGrandeurPiano","level2":20,"level3":null,"pitch":75,"articulation":"standard","articulation_tags":["standard","long"],"duration":0.5555555555555556,"velocity":28.080620700474306}
{"position":505.8541666666667,"instrument":"TheGrandeurPiano","level2":20,"level3":null,"pitch":76,"articulation":"standard","articulation_tags":["standard","long"],"duration":1.0555555555555556,"velocity":28.080620700474306}
{"position":506.3020833333333,"instrument":"TheGrandeurPiano","level2":20,"level3":null,"pitch":76,"articulation":"standard","articulation_tags":["standard","long"],"duration":0.5347222222222222,"velocity":28.080620700474306}
{"position":507.1041666666667,"instrument":"TheGrandeurPiano","level2":20,"level3":null,"pitch":76,"articulation":"standard","articulation_tags":["standard","long"],"duration":0.5277777777777778,"velocity":26.805235638660665}
{"position":507.4375,"instrument":"TheGrandeurPiano","level2":20,"level3":null,"pitch":76,"articulation":"standard","articulation_tags":["standard","long"],"duration":2.1968503937007875,"velocity":26.805235638660665}
{"position":507.8958333333333,"instrument":"TheGrandeurPiano","level2":20,"level3":null,"pitch":76,"articulation":"standard","articulation_tags":["standard","long"],"duration":0.5208333333333334,"velocity":21.40261781933033}
{"position":508.6770833333333,"instrument":"TheGrandeurPiano","level2":20,"level3":null,"pitch":76,"articulation":"standard","articulation_tags":["standard","long"],"duration":0.5208333333333334,"velocity":23.64045539241551}
{"position":509.4583333333333,"instrument":"TheGrandeurPiano","level2":20,"level3":null,"pitch":76,"articulation":"standard","articulation_tags":["standard","long"],"duration":0.5277777777777778,"velocity":21.40261781933033}
{"position":510.25,"instrument":"TheGrandeurPiano","level2":20,"level3":null,"pitch":76,"articulation":"standard","articulation_tags":["standard","long"],"duration":0.5416666666666666,"velocity":21.40261781933033}
{"position":510.84375,"instrument":"Viola","level2":20,"level3":1,"pitch":65,"articulation":"collegno","articulation_tags":["collegno","cl","short"],"duration":1.0,"velocity":81.6608381536366}
{"position":511.0625,"instrument":"TheGrandeurPiano","level2":20,"level3":null,"pitch":76,"articulation":"standard","articulation_tags":["standard","long"],"duration":0.5625,"velocity":23.64045539241551}
{"position":511.25,"instrument":"Viola","level2":20,"level3":2,"pitch":63,"articulation":"pizzicato","articulation_tags":["pizzicato","pz","short"],"duration":1.0,"velocity":81.17406925863682}
{"position":511.90625,"instrument":"TheGrandeurPiano","level2":20,"level3":null,"pitch":76,"articulation":"standard","articulation_tags":["standard","long"],"duration":0.5833333333333334,"velocity":28.080620700474306}
{"position":512.78125,"instrument":"TheGrandeurPiano","level2":20,"level3":null,"pitch":76,"articulation":"standard","articulation_tags":["standard","long"],"duration":0.625,"velocity":28.080620700474306}
{"position":513.0729166666666,"instrument":"TheGrandeurPiano","level2":20,"level3":null,"pitch":76,"articulation":"standard","articulation_tags":["standard","long"],"duration":1.1805555555555556,"velocity":28.080620700474306}
{"position":513.7291666666666,"instrument":"TheGrandeurPiano","level2":20,"level3":null,"pitch":76,"articulation":"standard","articulation_tags":["standard","long"],"duration":0.6805555555555556,"velocity":32.20785345799099}
{"position":514.75,"instrument":"TheGrandeurPiano","level2":20,"level3":null,"pitch":76,"articulation":"standard","articulation_tags":["standard","long"],"duration":0.7708333333333334,"velocity":32.20785345799099}
{"position":514.84375,"instrument":"TheGrandeurPiano","level2":20,"level3":null,"pitch":75,"articulation":"standard","articulation_tags":["standard","long"],"duration":0.8958333333333334,"velocity":32.20785345799099}
{"position":515.8958333333334,"instrument":"TheGrandeurPiano","level2":20,"level3":null,"pitch":75,"articulation":"standard","articulation_tags":["standard","long"],"duration":0.9236111111111112,"velocity":33.07960248140792}
{"position":516.1875,"instrument":"TheGrandeurPiano","level2":20,"level3":null,"pitch":75,"articulation":"standard","articulation_tags":["standard","long"],"duration":0.7708333333333334,"velocity":33.07960248140792}
{"position":517.28125,"instrument":"TheGrandeurPiano","level2":20,"level3":null,"pitch":75,"articulation":"standard","articulation_tags":["standard","long"],"duration":1.3055555555555556,"velocity":35.33356759466443}
{"position":517.34375,"instrument":"TheGrandeurPiano","level2":20,"level3":null,"pitch":74,"articulation":"standard","articulation_tags":["standard","long"],"duration":0.7013888888888888,"velocity":35.33356759466443}
{"position":517.9583333333334,"instrument":"CorAnglais","level2":20,"level3":1,"pitch":64,"articulation":"staccato","articulation_tags":["staccato","st","short"],"duration":0.25,"velocity":76.1216093070688}
{"position":518.3958333333334,"instrument":"TheGrandeurPiano","level2":20,"level3":null,"pitch":74,"articulation":"standard","articulation_tags":["standard","long"],"duration":0.6597222222222222,"velocity":38.573050519761445}
{"position":518.7291666666666,"instrument":"CorAnglais","level2":20,"level3":2,"pitch":63,"articulation":"tenuto","articulation_tags":["tenuto","t","short"],"duration":0.25,"velocity":75.33276436288818}
{"position":519.2395833333334,"instrument":"TheGrandeurPiano","level2":20,"level3":null,"pitch":74,"articulation":"standard","articulation_tags":["standard","long"],"duration":2.1653543307086616,"velocity":38.573050519761445}
{"position":519.34375,"instrument":"CorAnglais","level2":20,"level3":1,"pitch":64,"articulation":"tenuto","articulation_tags":["tenuto","t","short"],"duration":0.25,"velocity":75.2332563514076}
{"position":519.3854166666666,"instrument":"TheGrandeurPiano","level2":20,"level3":null,"pitch":73,"articulation":"standard","articulation_tags":["standard","long"],"duration":0.6319444444444444,"velocity":38.573050519761445}
{"position":520.3333333333334,"instrument":"TheGrandeurPiano","level2":20,"level3":null,"pitch":73,"articulation":"standard","articulation_tags":["standard","long"],"duration":0.6180555555555556,"velocity":35.33356759466443}
{"position":521.2708333333334,"instrument":"TheGrandeurPiano","level2":20,"level3":null,"pitch":72,"articulation":"standard","articulation_tags":["standard","long"],"duration":0.6111111111111112,"velocity":35.33356759466443}
{"position":521.6770833333334,"instrument":"CorAnglais","level2":20,"level3":1,"pitch":64,"articulation":"tenuto","articulation_tags":["tenuto","t","short"],"duration":0.25,"velocity":72.8083140878519}
{"position":522.1875,"instrument":"TheGrandeurPiano","level2":20,"level3":null,"pitch":72,"articulation":"standard","articulation_tags":["standard","long"],"duration":0.3055555555555556,"velocity":35.33356759466443}
{"position":522.5,"instrument":"CorAnglais","level2":20,"level3":2,"pitch":64,"articulation":"tenuto","articulation_tags":["tenuto","t","short"],"duration":0.25,"velocity":72.0}
