[
{"position":1.0,"instrument":"TheGrandeurPiano","level2":0,"level3":null,"pitch":72,"articulation":"standard","articulation_tags":["standard","long"],"duration":2.1338582677165356,"velocity":43.352941176470594},
{"position":1.03125,"instrument":"Viola","level2":0,"level3":0,"pitch":74,"articulation":"pizzicato","articulation_tags":["pizzicato","pz","short"],"duration":0.125,"velocity":72.0},
{"position":1.7916666666666667,"instrument":"Viola","level2":0,"level3":0,"pitch":74,"articulation":"pizzicato","articulation_tags":["pizzicato","pz","short"],"duration":0.125,"velocity":72.0},
{"position":4.635416666666667,"instrument":"Viola","level2":0,"level3":0,"pitch":74,"articulation":"pizzicato","articulation_tags":["pizzicato","pz","short"],"duration":0.125,"velocity":72.0},
{"position":4.697916666666667,"instrument":"Viola","level2":0,"level3":0,"pitch":74,"articulation":"collegno","articulation_tags":["collegno","cl","short"],"duration":0.125,"velocity":72.0},
{"position":6.21875,"instrument":"TheGrandeurPiano","level2":0,"level3":null,"pitch":72,"articulation":"standard","articulation_tags":["standard","long"],"duration":2.1338582677165356,"velocity":43.352941176470594},
{"position":6.572916666666667,"instrument":"Viola","level2":0,"level3":1,"pitch":74,"articulation":"collegno","articulation_tags":["collegno","cl","short"],"duration":0.125,"velocity":72.70875881355649},
{"position":6.572916666666667,"instrument":"Viola","level2":0,"level3":2,"pitch":75,"articulation":"collegno","articulation_tags":["collegno","cl","short"],"duration":0.125,"velocity":72.70875881355649},
{"position":6.59375,"instrument":"Viola","level2":0,"level3":2,"pitch":75,"articulation":"collegno","articulation_tags":["collegno","cl","short"],"duration":0.125,"velocity":72.70875881355649},
{"position":6.59375,"instrument":"Viola","level2":0,"level3":2,"pitch":75,"articulation":"collegno","articulation_tags":["collegno","cl","short"],"duration":0.125,"velocity":72.70875881355649},
{"position":6.708333333333333,"instrument":"Viola","level2":0,"level3":1,"pitch":74,"articulation":"collegno","articulation_tags":["collegno","cl","short"],"duration":0.125,"velocity":72.70875881355649},
{"position":6.802083333333333,"instrument":"Viola","level2":0,"level3":1,"pitch":74,"articulation":"collegno","articulation_tags":["collegno","cl","short"],"duration":0.125,"velocity":72.70875881355649},
{"position":8.770833333333334,"instrument":"Viola","level2":0,"level3":2,"pitch":75,"articulation":"pizzicato","articulation_tags":["pizzicato","pz","short"],"duration":0.125,"velocity":72.70875881355649},
{"position":12.697916666666666,"instrument":"Viola","level2":0,"level3":2,"pitch":75,"articulation":"pizzicato","articulation_tags":["pizzicato","pz","short"],"duration":0.125,"velocity":72.70875881355649},
{"position":14.78125,"instrument":"TheGrandeurPiano","level2":0,"level3":null,"pitch":72,"articulation":"standard","articulation_tags":["standard","long"],"duration":2.1338582677165356,"velocity":46.42909353369746},
{"position":15.78125,"instrument":"Viola","level2":0,"level3":2,"pitch":74,"articulation":"pizzicato","articulation_tags":["pizzicato","pz","short"],"duration":0.125,"velocity":73.00233632658303},
{"position":16.479166666666668,"instrument":"Viola","level2":0,"level3":3,"pitch":75,"articulation":"collegno","articulation_tags":["collegno","cl","short"],"duration":0.125,"velocity":73.00233632658303},
{"position":16.479166666666668,"instrument":"Viola","level2":0,"level3":4,"pitch":76,"articulation":"collegno","articulation_tags":["collegno","cl","short"],"duration":0.125,"velocity":73.00233632658303},
{"position":16.5,"instrument":"Viola","level2":0,"level3":4,"pitch":76,"articulation":"collegno","articulation_tags":["collegno","cl","short"],"duration":0.125,"velocity":73.00233632658303},
{"position":16.625,"instrument":"Viola","level2":0,"level3":4,"pitch":76,"articulation":"collegno","articulation_tags":["collegno","cl","short"],"duration":0.125,"velocity":73.00233632658303},
{"position":16.760416666666668,"instrument":"Viola","level2":0,"level3":3,"pitch":75,"articulation":"collegno","articulation_tags":["collegno","cl","short"],"duration":0.125,"velocity":73.00233632658303},
{"position":17.375,"instrument":"Viola","level2":0,"level3":4,"pitch":76,"articulation":"collegno","articulation_tags":["collegno","cl","short"],"duration":0.125,"velocity":73.00233632658303},
{"position":17.90625,"instrument":"Viola","level2":0,"level3":3,"pitch":74,"articulation":"collegno","articulation_tags":["collegno","cl","short"],"duration":0.125,"velocity":73.00233632658303},
{"position":18.864583333333332,"instrument":"TheGrandeurPiano","level2":0,"level3":null,"pitch":72,"articulation":"standard","articulation_tags":["standard","long"],"duration":2.1338582677165356,"velocity":46.115368043501384},
{"position":18.895833333333332,"instrument":"TheGrandeurPiano","level2":0,"level3":null,"pitch":73,"articulation":"standard","articulation_tags":["standard","long"],"duration":1.6666666666666667,"velocity":46.115368043501384},
{"position":19.208333333333332,"instrument":"Viola","level2":0,"level3":4,"pitch":76,"articulation":"pizzicato","articulation_tags":["pizzicato","pz","short"],"duration":0.125,"velocity":74.00467265316608},
{"position":19.65625,"instrument":"Viola","level2":0,"level3":3,"pitch":74,"articulation":"collegno","articulation_tags":["collegno","cl","short"],"duration":0.125,"velocity":74.00467265316608},
{"position":20.0625,"instrument":"Viola","level2":0,"level3":2,"pitch":74,"articulation":"pizzicato","articulation_tags":["pizzicato","pz","short"],"duration":0.125,"velocity":74.00467265316608},
{"position":21.395833333333332,"instrument":"TheGrandeurPiano","level2":0,"level3":null,"pitch":73,"articulation":"standard","articulation_tags":["standard","long"],"duration":1.0555555555555556,"velocity":47.51950142269209},
{"position":21.84375,"instrument":"Viola","level2":0,"level3":4,"pitch":76,"articulation":"pizzicato","articulation_tags":["pizzicato","pz","short"],"duration":0.125,"velocity":74.55546624421491},
{"position":21.9375,"instrument":"Viola","level2":0,"level3":3,"pitch":73,"articulation":"collegno","articulation_tags":["collegno","cl","short"],"duration":0.125,"velocity":74.55546624421491},
{"position":22.21875,"instrument":"TheGrandeurPiano","level2":0,"level3":null,"pitch":73,"articulation":"standard","articulation_tags":["standard","long"],"duration":2.1496062992125986,"velocity":47.20577593249601},
{"position":22.833333333333332,"instrument":"Viola","level2":0,"level3":3,"pitch":73,"articulation":"collegno","articulation_tags":["collegno","cl","short"],"duration":0.125,"velocity":75.00700897974912},
{"position":22.979166666666668,"instrument":"TheGrandeurPiano","level2":0,"level3":null,"pitch":74,"articulation":"standard","articulation_tags":["standard","long"],"duration":0.7708333333333334,"velocity":47.20577593249601},
{"position":23.34375,"instrument":"Viola","level2":0,"level3":2,"pitch":73,"articulation":"pizzicato","articulation_tags":["pizzicato","pz","short"],"duration":0.125,"velocity":75.5437940677824},
{"position":24.145833333333332,"instrument":"TheGrandeurPiano","level2":0,"level3":null,"pitch":74,"articulation":"standard","articulation_tags":["standard","long"],"duration":0.6111111111111112,"velocity":45.80164255330531},
{"position":24.510416666666668,"instrument":"Viola","level2":0,"level3":2,"pitch":73,"articulation":"pizzicato","articulation_tags":["pizzicato","pz","short"],"duration":0.125,"velocity":76.13273854689547},
{"position":24.6875,"instrument":"Viola","level2":0,"level3":3,"pitch":73,"articulation":"collegno","articulation_tags":["collegno","cl","short"],"duration":0.125,"velocity":76.13273854689547},
{"position":25.0625,"instrument":"TheGrandeurPiano","level2":0,"level3":null,"pitch":75,"articulation":"standard","articulation_tags":["standard","long"],"duration":0.5138888888888888,"velocity":45.80164255330531},
{"position":25.333333333333332,"instrument":"CorAnglais","level2":0,"level3":3,"pitch":73,"articulation":"tenuto","articulation_tags":["tenuto","t","short"],"duration":0.125,"velocity":76.75449866029318},
{"position":25.427083333333332,"instrument":"Piccolo","level2":0,"level3":4,"pitch":76,"articulation":"tenuto","articulation_tags":["tenuto","t","short"],"duration":0.125,"velocity":76.75449866029318},
{"position":25.802083333333332,"instrument":"CorAnglais","level2":0,"level3":4,"pitch":75,"articulation":"tenuto","articulation_tags":["tenuto","t","short"],"duration":0.125,"velocity":76.75449866029318},
{"position":25.833333333333332,"instrument":"TheGrandeurPiano","level2":0,"level3":null,"pitch":75,"articulation":"standard","articulation_tags":["standard","long"],"duration":0.4583333333333333,"velocity":49.17955037568275},
{"position":26.197916666666668,"instrument":"Viola","level2":0,"level3":5,"pitch":76,"articulation":"collegno","articulation_tags":["collegno","cl","short"],"duration":0.125,"velocity":77.39774631082746},
{"position":26.197916666666668,"instrument":"Viola","level2":0,"level3":6,"pitch":76,"articulation":"collegno","articulation_tags":["collegno","cl","short"],"duration":0.125,"velocity":77.39774631082746},
{"position":26.208333333333332,"instrument":"Viola","level2":0,"level3":6,"pitch":76,"articulation":"collegno","articulation_tags":["collegno","cl","short"],"duration":0.125,"velocity":77.39774631082746},
{"position":26.239583333333332,"instrument":"Viola","level2":0,"level3":5,"pitch":76,"articulation":"collegno","articulation_tags":["collegno","cl","short"],"duration":0.125,"velocity":77.39774631082746},
{"position":26.520833333333332,"instrument":"TheGrandeurPiano","level2":0,"level3":null,"pitch":76,"articulation":"standard","articulation_tags":["standard","long"],"duration":0.4444444444444444,"velocity":47.20577593249601},
{"position":26.71875,"instrument":"Viola","level2":0,"level3":6,"pitch":77,"articulation":"collegno","articulation_tags":["collegno","cl","short"],"duration":0.125,"velocity":78.05563795755339},
{"position":26.75,"instrument":"Viola","level2":0,"level3":6,"pitch":77,"articulation":"collegno","articulation_tags":["collegno","cl","short"],"duration":0.125,"velocity":78.05563795755339},
{"position":26.791666666666668,"instrument":"Viola","level2":0,"level3":5,"pitch":76,"articulation":"collegno","articulation_tags":["collegno","cl","short"],"duration":0.125,"velocity":78.05563795755339},
{"position":26.96875,"instrument":"Viola","level2":0,"level3":5,"pitch":75,"articulation":"collegno","articulation_tags":["collegno","cl","short"],"duration":0.125,"velocity":78.05563795755339},
{"position":27.1875,"instrument":"TheGrandeurPiano","level2":0,"level3":null,"pitch":76,"articulation":"standard","articulation_tags":["standard","long"],"duration":0.4791666666666667,"velocity":47.20577593249601},
{"position":27.5625,"instrument":"TheGrandeurPiano","level2":0,"level3":null,"pitch":76,"articulation":"standard","articulation_tags":["standard","long"],"duration":0.8333333333333334,"velocity":47.51950142269209},
{"position":27.90625,"instrument":"TheGrandeurPiano","level2":0,"level3":null,"pitch":77,"articulation":"standard","articulation_tags":["standard","long"],"duration":0.6180555555555556,"velocity":47.51950142269209},
{"position":27.958333333333332,"instrument":"Viola","level2":0,"level3":6,"pitch":77,"articulation":"collegno","articulation_tags":["collegno","cl","short"],"duration":0.125,"velocity":79.22795004151074},
{"position":28.28125,"instrument":"Viola","level2":0,"level3":5,"pitch":75,"articulation":"collegno","articulation_tags":["collegno","cl","short"],"duration":0.125,"velocity":79.22795004151074},
{"position":28.8125,"instrument":"TheGrandeurPiano","level2":0,"level3":null,"pitch":77,"articulation":"standard","articulation_tags":["standard","long"],"duration":0.7708333333333334,"velocity":47.833226912888165},
{"position":28.822916666666668,"instrument":"TheGrandeurPiano","level2":0,"level3":null,"pitch":77,"articulation":"standard","articulation_tags":["standard","long"],"duration":1.2986111111111112,"velocity":47.833226912888165},
{"position":29.708333333333332,"instrument":"CorAnglais","level2":0,"level3":6,"pitch":77,"articulation":"tenuto","articulation_tags":["tenuto","t","short"],"duration":0.125,"velocity":79.82849696984465},
{"position":29.96875,"instrument":"TheGrandeurPiano","level2":0,"level3":null,"pitch":77,"articulation":"standard","articulation_tags":["standard","long"],"duration":0.8611111111111112,"velocity":50.061903316859215},
{"position":30.0,"instrument":"Bassoon","level2":0,"level3":5,"pitch":74,"articulation":"staccato","articulation_tags":["staccato","st","short"],"duration":0.125,"velocity":79.7963469491213},
{"position":30.708333333333332,"instrument":"CorAnglais","level2":0,"level3":4,"pitch":75,"articulation":"tenuto","articulation_tags":["tenuto","t","short"],"duration":0.125,"velocity":79.7963469491213},
{"position":30.770833333333332,"instrument":"TheGrandeurPiano","level2":0,"level3":null,"pitch":78,"articulation":"standard","articulation_tags":["standard","long"],"duration":1.8333333333333333,"velocity":50.061903316859215},
{"position":30.791666666666668,"instrument":"Clarinet","level2":0,"level3":4,"pitch":75,"articulation":"staccato","articulation_tags":["staccato","st","short"],"duration":0.125,"velocity":80.50480542369672},
{"position":31.260416666666668,"instrument":"TheGrandeurPiano","level2":0,"level3":null,"pitch":78,"articulation":"standard","articulation_tags":["standard","long"],"duration":1.0347222222222223,"velocity":50.35602096391804},
{"position":31.96875,"instrument":"CorAnglais","level2":0,"level3":6,"pitch":77,"articulation":"tenuto","articulation_tags":["tenuto","t","short"],"duration":0.125,"velocity":80.53255179952282},
{"position":32.052083333333336,"instrument":"Bassoon","level2":0,"level3":5,"pitch":74,"articulation":"staccato","articulation_tags":["staccato","st","short"],"duration":0.125,"velocity":80.53255179952282},
{"position":32.8125,"instrument":"TheGrandeurPiano","level2":0,"level3":null,"pitch":78,"articulation":"standard","articulation_tags":["standard","long"],"duration":1.3333333333333333,"velocity":51.400365117926064},
{"position":33.520833333333336,"instrument":"TheGrandeurPiano","level2":0,"level3":null,"pitch":77,"articulation":"standard","articulation_tags":["standard","long"],"duration":2.2125984251968505,"velocity":51.400365117926064},
{"position":34.447916666666664,"instrument":"Bassoon","level2":0,"level3":5,"pitch":73,"articulation":"staccato","articulation_tags":["staccato","st","short"],"duration":0.125,"velocity":79.92416443382196},
{"position":34.614583333333336,"instrument":"Bassoon","level2":0,"level3":4,"pitch":74,"articulation":"tenuto","articulation_tags":["tenuto","t","short"],"duration":0.125,"velocity":79.92416443382196},
{"position":34.791666666666664,"instrument":"CorAnglais","level2":0,"level3":6,"pitch":77,"articulation":"tenuto","articulation_tags":["tenuto","t","short"],"duration":0.125,"velocity":79.92416443382196},
{"position":34.8125,"instrument":"TheGrandeurPiano","level2":0,"level3":null,"pitch":77,"articulation":"standard","articulation_tags":["standard","long"],"duration":1.9722222222222223,"velocity":51.69448276498488},
{"position":35.9375,"instrument":"CorAnglais","level2":0,"level3":6,"pitch":76,"articulation":"tenuto","articulation_tags":["tenuto","t","short"],"duration":0.125,"velocity":80.08109381539522},
{"position":36.489583333333336,"instrument":"Bassoon","level2":0,"level3":5,"pitch":73,"articulation":"staccato","articulation_tags":["staccato","st","short"],"duration":0.125,"velocity":80.08109381539522},
{"position":37.21875,"instrument":"Bassoon","level2":0,"level3":5,"pitch":73,"articulation":"staccato","articulation_tags":["staccato","st","short"],"duration":0.125,"velocity":80.08109381539522},
{"position":37.302083333333336,"instrument":"TheGrandeurPiano","level2":0,"level3":null,"pitch":77,"articulation":"standard","articulation_tags":["standard","long"],"duration":1.8472222222222223,"velocity":50.944256258035686},
{"position":37.770833333333336,"instrument":"TheGrandeurPiano","level2":0,"level3":null,"pitch":77,"articulation":"standard","articulation_tags":["standard","long"],"duration":2.2125984251968505,"velocity":51.98860041204371},
{"position":37.958333333333336,"instrument":"Bassoon","level2":0,"level3":4,"pitch":74,"articulation":"tenuto","articulation_tags":["tenuto","t","short"],"duration":0.125,"velocity":79.63356603902153},
{"position":38.28125,"instrument":"CorAnglais","level2":0,"level3":6,"pitch":76,"articulation":"tenuto","articulation_tags":["tenuto","t","short"],"duration":0.125,"velocity":79.63356603902153},
{"position":40.072916666666664,"instrument":"TheGrandeurPiano","level2":0,"level3":null,"pitch":76,"articulation":"standard","articulation_tags":["standard","long"],"duration":1.7291666666666667,"velocity":53.87112399107707},
{"position":40.083333333333336,"instrument":"CorAnglais","level2":0,"level3":5,"pitch":73,"articulation":"staccato","articulation_tags":["staccato","st","short"],"duration":0.125,"velocity":78.9804647704875},
{"position":40.5625,"instrument":"CorAnglais","level2":0,"level3":5,"pitch":72,"articulation":"staccato","articulation_tags":["staccato","st","short"],"duration":0.125,"velocity":78.9804647704875},
{"position":40.864583333333336,"instrument":"CorAnglais","level2":0,"level3":4,"pitch":73,"articulation":"tenuto","articulation_tags":["tenuto","t","short"],"duration":0.125,"velocity":78.9804647704875},
{"position":41.46875,"instrument":"CorAnglais","level2":0,"level3":6,"pitch":76,"articulation":"tenuto","articulation_tags":["tenuto","t","short"],"duration":0.125,"velocity":78.9804647704875},
{"position":42.5,"instrument":"CorAnglais","level2":0,"level3":5,"pitch":72,"articulation":"staccato","articulation_tags":["staccato","st","short"],"duration":0.125,"velocity":78.9804647704875},
{"position":42.666666666666664,"instrument":"TheGrandeurPiano","level2":0,"level3":null,"pitch":76,"articulation":"standard","articulation_tags":["standard","long"],"duration":1.4166666666666667,"velocity":54.416384387053526},
{"position":42.791666666666664,"instrument":"CorAnglais","level2":0,"level3":6,"pitch":76,"articulation":"tenuto","articulation_tags":["tenuto","t","short"],"duration":0.125,"velocity":78.33933154705757},
{"position":42.833333333333336,"instrument":"Bassoon","level2":0,"level3":4,"pitch":73,"articulation":"tenuto","articulation_tags":["tenuto","t","short"],"duration":0.125,"velocity":78.33933154705757},
{"position":43.322916666666664,"instrument":"CorAnglais","level2":0,"level3":4,"pitch":73,"articulation":"tenuto","articulation_tags":["tenuto","t","short"],"duration":0.125,"velocity":78.33933154705757},
{"position":44.197916666666664,"instrument":"CorAnglais","level2":0,"level3":5,"pitch":72,"articulation":"staccato","articulation_tags":["staccato","st","short"],"duration":0.125,"velocity":78.33933154705757},
{"position":44.40625,"instrument":"CorAnglais","level2":0,"level3":7,"pitch":75,"articulation":"staccato","articulation_tags":["staccato","st","short"],"duration":0.125,"velocity":78.33933154705757},
{"position":44.40625,"instrument":"Piccolo","level2":0,"level3":8,"pitch":76,"articulation":"staccato","articulation_tags":["staccato","st","short"],"duration":0.125,"velocity":78.33933154705757},
{"position":44.416666666666664,"instrument":"Clarinet","level2":0,"level3":8,"pitch":76,"articulation":"staccato","articulation_tags":["staccato","st","short"],"duration":0.125,"velocity":78.33933154705757},
{"position":44.416666666666664,"instrument":"Clarinet","level2":0,"level3":8,"pitch":76,"articulation":"staccato","articulation_tags":["staccato","st","short"],"duration":0.125,"velocity":78.33933154705757},
{"position":44.791666666666664,"instrument":"TheGrandeurPiano","level2":0,"level3":null,"pitch":75,"articulation":"standard","articulation_tags":["standard","long"],"duration":1.3472222222222223,"velocity":54.93210449205642},
{"position":44.875,"instrument":"CorAnglais","level2":0,"level3":7,"pitch":75,"articulation":"staccato","articulation_tags":["staccato","st","short"],"duration":0.125,"velocity":77.71419623627062},
{"position":45.09375,"instrument":"CorAnglais","level2":0,"level3":4,"pitch":73,"articulation":"tenuto","articulation_tags":["tenuto","t","short"],"duration":0.125,"velocity":77.71419623627062},
{"position":45.125,"instrument":"Piccolo","level2":0,"level3":8,"pitch":76,"articulation":"staccato","articulation_tags":["staccato","st","short"],"duration":0.125,"velocity":77.71419623627062},
{"position":45.177083333333336,"instrument":"Bassoon","level2":0,"level3":4,"pitch":72,"articulation":"tenuto","articulation_tags":["tenuto","t","short"],"duration":0.125,"velocity":77.71419623627062},
{"position":45.25,"instrument":"CorAnglais","level2":0,"level3":5,"pitch":72,"articulation":"tenuto","articulation_tags":["tenuto","t","short"],"duration":0.125,"velocity":77.71419623627062},
{"position":45.46875,"instrument":"CorAnglais","level2":0,"level3":7,"pitch":75,"articulation":"staccato","articulation_tags":["staccato","st","short"],"duration":0.125,"velocity":77.71419623627062},
{"position":45.614583333333336,"instrument":"CorAnglais","level2":0,"level3":4,"pitch":72,"articulation":"tenuto","articulation_tags":["tenuto","t","short"],"duration":0.125,"velocity":77.71419623627062},
{"position":45.8125,"instrument":"CorAnglais","level2":0,"level3":6,"pitch":75,"articulation":"tenuto","articulation_tags":["tenuto","t","short"],"duration":0.125,"velocity":77.71419623627062},
{"position":46.125,"instrument":"CorAnglais","level2":0,"level3":7,"pitch":74,"articulation":"staccato","articulation_tags":["staccato","st","short"],"duration":0.125,"velocity":77.71419623627062},
{"position":46.71875,"instrument":"CorAnglais","level2":0,"level3":8,"pitch":76,"articulation":"staccato","articulation_tags":["staccato","st","short"],"duration":0.125,"velocity":77.71419623627062},
{"position":46.8125,"instrument":"TheGrandeurPiano","level2":0,"level3":null,"pitch":75,"articulation":"standard","articulation_tags":["standard","long"],"duration":1.4861111111111112,"velocity":53.87112399107707},
{"position":47.302083333333336,"instrument":"TheGrandeurPiano","level2":0,"level3":null,"pitch":75,"articulation":"standard","articulation_tags":["standard","long"],"duration":1.1458333333333333,"velocity":54.6379868449976},
{"position":47.864583333333336,"instrument":"CorAnglais","level2":0,"level3":7,"pitch":74,"articulation":"staccato","articulation_tags":["staccato","st","short"],"duration":0.125,"velocity":76.75449866029318},
{"position":49.020833333333336,"instrument":"TheGrandeurPiano","level2":0,"level3":null,"pitch":75,"articulation":"standard","articulation_tags":["standard","long"],"duration":0.8055555555555556,"velocity":53.82814909293588},
{"position":49.041666666666664,"instrument":"TheGrandeurPiano","level2":0,"level3":null,"pitch":74,"articulation":"standard","articulation_tags":["standard","long"],"duration":2.1653543307086616,"velocity":53.82814909293588},
{"position":49.09375,"instrument":"CorAnglais","level2":0,"level3":8,"pitch":76,"articulation":"tenuto","articulation_tags":["tenuto","t","short"],"duration":0.125,"velocity":75.81678301951077},
{"position":49.572916666666664,"instrument":"CorAnglais","level2":0,"level3":6,"pitch":75,"articulation":"tenuto","articulation_tags":["tenuto","t","short"],"duration":0.125,"velocity":75.81678301951077},
{"position":49.75,"instrument":"CorAnglais","level2":0,"level3":6,"pitch":75,"articulation":"marcato","articulation_tags":["marcato","short"],"duration":0.125,"velocity":75.81678301951077},
{"position":49.989583333333336,"instrument":"CorAnglais","level2":0,"level3":7,"pitch":73,"articulation":"staccato","articulation_tags":["staccato","st","short"],"duration":0.125,"velocity":75.81678301951077},
{"position":50.21875,"instrument":"TheGrandeurPiano","level2":0,"level3":null,"pitch":74,"articulation":"standard","articulation_tags":["standard","long"],"duration":0.6319444444444444,"velocity":54.049751550879954},
{"position":51.177083333333336,"instrument":"TheGrandeurPiano","level2":0,"level3":null,"pitch":74,"articulation":"standard","articulation_tags":["standard","long"],"duration":0.5208333333333334,"velocity":55.16436209960645},
{"position":51.239583333333336,"instrument":"CorAnglais","level2":0,"level3":7,"pitch":73,"articulation":"staccato","articulation_tags":["staccato","st","short"],"duration":0.125,"velocity":75.5437940677824},
{"position":51.958333333333336,"instrument":"TheGrandeurPiano","level2":0,"level3":null,"pitch":74,"articulation":"standard","articulation_tags":["standard","long"],"duration":0.4444444444444444,"velocity":52.400535755782954},
{"position":52.364583333333336,"instrument":"CorAnglais","level2":0,"level3":8,"pitch":76,"articulation":"tenuto","articulation_tags":["tenuto","t","short"],"duration":0.125,"velocity":75.61397502075536},
{"position":52.510416666666664,"instrument":"CorAnglais","level2":0,"level3":7,"pitch":73,"articulation":"staccato","articulation_tags":["staccato","st","short"],"duration":0.125,"velocity":75.61397502075536},
{"position":52.614583333333336,"instrument":"TheGrandeurPiano","level2":0,"level3":null,"pitch":74,"articulation":"standard","articulation_tags":["standard","long"],"duration":0.375,"velocity":54.5761268054888},
{"position":52.947916666666664,"instrument":"CorAnglais","level2":0,"level3":6,"pitch":74,"articulation":"marcato","articulation_tags":["marcato","short"],"duration":0.125,"velocity":75.81678301951077},
{"position":53.1875,"instrument":"TheGrandeurPiano","level2":0,"level3":null,"pitch":74,"articulation":"standard","articulation_tags":["standard","long"],"duration":0.3263888888888889,"velocity":52.87328096264466},
{"position":53.635416666666664,"instrument":"TheGrandeurPiano","level2":0,"level3":null,"pitch":75,"articulation":"standard","articulation_tags":["standard","long"],"duration":0.4513888888888889,"velocity":52.87328096264466},
{"position":53.677083333333336,"instrument":"TheGrandeurPiano","level2":0,"level3":null,"pitch":75,"articulation":"standard","articulation_tags":["standard","long"],"duration":0.2777777777777778,"velocity":52.57916331558583},
{"position":54.083333333333336,"instrument":"TheGrandeurPiano","level2":0,"level3":null,"pitch":75,"articulation":"standard","articulation_tags":["standard","long"],"duration":0.2361111111111111,"velocity":52.28504566852701},
{"position":54.3125,"instrument":"TheGrandeurPiano","level2":0,"level3":null,"pitch":75,"articulation":"standard","articulation_tags":["standard","long"],"duration":0.22916666666666666,"velocity":52.28504566852701},
{"position":54.4375,"instrument":"TheGrandeurPiano","level2":0,"level3":null,"pitch":75,"articulation":"standard","articulation_tags":["standard","long"],"duration":0.19444444444444445,"velocity":51.475207916465294},
{"position":54.65625,"instrument":"TheGrandeurPiano","level2":0,"level3":null,"pitch":76,"articulation":"standard","articulation_tags":["standard","long"],"duration":0.13194444444444445,"velocity":51.475207916465294},
{"position":54.729166666666664,"instrument":"TheGrandeurPiano","level2":0,"level3":null,"pitch":76,"articulation":"standard","articulation_tags":["standard","long"],"duration":0.1527777777777778,"velocity":51.18109026940647},
{"position":54.864583333333336,"instrument":"TheGrandeurPiano","level2":0,"level3":null,"pitch":76,"articulation":"standard","articulation_tags":["standard","long"],"duration":0.08333333333333333,"velocity":51.18109026940647},
{"position":54.958333333333336,"instrument":"TheGrandeurPiano","level2":0,"level3":null,"pitch":76,"articulation":"standard","articulation_tags":["standard","long"],"duration":0.10416666666666667,"velocity":50.88697262234765},
{"position":54.989583333333336,"instrument":"TheGrandeurPiano","level2":0,"level3":null,"pitch":77,"articulation":"standard","articulation_tags":["standard","long"],"duration":0.04861111111111111,"velocity":50.88697262234765},
{"position":55.0625,"instrument":"TheGrandeurPiano","level2":0,"level3":null,"pitch":77,"articulation":"standard","articulation_tags":["standard","long"],"duration":0.027777777777777776,"velocity":50.88697262234765},
{"position":55.104166666666664,"instrument":"TheGrandeurPiano","level2":0,"level3":null,"pitch":78,"articulation":"standard","articulation_tags":["standard","long"],"duration":0.013888888888888888,"velocity":50.88697262234765},
{"position":55.104166666666664,"instrument":"TheGrandeurPiano","level2":0,"level3":null,"pitch":78,"articulation":"standard","articulation_tags":["standard","long"],"duration":0.034722222222222224,"velocity":50.592854975288816},
{"position":55.125,"instrument":"TheGrandeurPiano","level2":0,"level3":null,"pitch":78,"articulation":"standard","articulation_tags":["standard","long"],"duration":0.006944444444444444,"velocity":50.592854975288816},
{"position":55.135416666666664,"instrument":"TheGrandeurPiano","level2":0,"level3":null,"pitch":79,"articulation":"standard","articulation_tags":["standard","long"],"duration":0.006944444444444444,"velocity":50.592854975288816},
{"position":55.145833333333336,"instrument":"TheGrandeurPiano","level2":0,"level3":null,"pitch":79,"articulation":"standard","articulation_tags":["standard","long"],"duration":0.006944444444444444,"velocity":50.592854975288816},
{"position":55.15625,"instrument":"TheGrandeurPiano","level2":0,"level3":null,"pitch":80,"articulation":"standard","articulation_tags":["standard","long"],"duration":0.013888888888888888,"velocity":50.592854975288816},
{"position":55.166666666666664,"instrument":"TheGrandeurPiano","level2":0,"level3":null,"pitch":80,"articulation":"standard","articulation_tags":["standard","long"],"duration":0.0763888888888889,"velocity":50.88697262234765},
{"position":55.177083333333336,"instrument":"TheGrandeurPiano","level2":0,"level3":null,"pitch":80,"articulation":"standard","articulation_tags":["standard","long"],"duration":0.020833333333333332,"velocity":50.88697262234765},
{"position":55.208333333333336,"instrument":"TheGrandeurPiano","level2":0,"level3":null,"pitch":81,"articulation":"standard","articulation_tags":["standard","long"],"duration":0.041666666666666664,"velocity":50.88697262234765},
{"position":55.270833333333336,"instrument":"TheGrandeurPiano","level2":0,"level3":null,"pitch":81,"articulation":"standard","articulation_tags":["standard","long"],"duration":0.0625,"velocity":50.88697262234765},
{"position":55.28125,"instrument":"TheGrandeurPiano","level2":0,"level3":null,"pitch":81,"articulation":"standard","articulation_tags":["standard","long"],"duration":0.11805555555555555,"velocity":51.18109026940647},
{"position":55.364583333333336,"instrument":"TheGrandeurPiano","level2":0,"level3":null,"pitch":82,"articulation":"standard","articulation_tags":["standard","long"],"duration":0.10416666666666667,"velocity":51.18109026940647},
{"position":55.458333333333336,"instrument":"TheGrandeurPiano","level2":0,"level3":null,"pitch":82,"articulation":"standard","articulation_tags":["standard","long"],"duration":0.1527777777777778,"velocity":51.99092802146818},
{"position":55.479166666666664,"instrument":"Bassoon","level2":0,"level3":7,"pitch":72,"articulation":"staccato","articulation_tags":["staccato","st","short"],"duration":0.125,"velocity":86.42877036126391},
{"position":55.510416666666664,"instrument":"CorAnglais","level2":0,"level3":8,"pitch":75,"articulation":"tenuto","articulation_tags":["tenuto","t","short"],"duration":0.125,"velocity":86.42877036126391},
{"position":55.520833333333336,"instrument":"TheGrandeurPiano","level2":0,"level3":null,"pitch":82,"articulation":"standard","articulation_tags":["standard","long"],"duration":0.1597222222222222,"velocity":51.99092802146818},
{"position":55.6875,"instrument":"TheGrandeurPiano","level2":0,"level3":null,"pitch":82,"articulation":"standard","articulation_tags":["standard","long"],"duration":0.18055555555555555,"velocity":52.28504566852701},
{"position":55.760416666666664,"instrument":"TheGrandeurPiano","level2":0,"level3":null,"pitch":83,"articulation":"standard","articulation_tags":["standard","long"],"duration":0.2708333333333333,"velocity":52.28504566852701},
{"position":55.791666666666664,"instrument":"Bassoon","level2":0,"level3":7,"pitch":72,"articulation":"staccato","articulation_tags":["staccato","st","short"],"duration":0.125,"velocity":87.5497201719241},
{"position":55.916666666666664,"instrument":"Bassoon","level2":0,"level3":6,"pitch":74,"articulation":"marcato","articulation_tags":["marcato","short"],"duration":0.125,"velocity":87.5497201719241},
{"position":55.958333333333336,"instrument":"TheGrandeurPiano","level2":0,"level3":null,"pitch":83,"articulation":"standard","articulation_tags":["standard","long"],"duration":0.2152777777777778,"velocity":52.57916331558583},
{"position":56.15625,"instrument":"TheGrandeurPiano","level2":0,"level3":null,"pitch":83,"articulation":"standard","articulation_tags":["standard","long"],"duration":0.5416666666666666,"velocity":52.57916331558583},
{"position":56.28125,"instrument":"TheGrandeurPiano","level2":0,"level3":null,"pitch":83,"articulation":"standard","articulation_tags":["standard","long"],"duration":0.24305555555555555,"velocity":52.87328096264466},
{"position":56.645833333333336,"instrument":"TheGrandeurPiano","level2":0,"level3":null,"pitch":83,"articulation":"standard","articulation_tags":["standard","long"],"duration":0.2708333333333333,"velocity":54.5761268054888},
{"position":56.96875,"instrument":"TheGrandeurPiano","level2":0,"level3":null,"pitch":84,"articulation":"standard","articulation_tags":["standard","long"],"duration":2.3055555555555554,"velocity":54.5761268054888},
{"position":57.052083333333336,"instrument":"TheGrandeurPiano","level2":0,"level3":null,"pitch":84,"articulation":"standard","articulation_tags":["standard","long"],"duration":0.3055555555555556,"velocity":54.870244452547624},
{"position":57.1875,"instrument":"Clarinet","level2":0,"level3":8,"pitch":75,"articulation":"staccato","articulation_tags":["staccato","st","short"],"duration":0.125,"velocity":88.52203317419767},
{"position":57.520833333333336,"instrument":"TheGrandeurPiano","level2":0,"level3":null,"pitch":84,"articulation":"standard","articulation_tags":["standard","long"],"duration":0.3402777777777778,"velocity":55.16436209960645},
{"position":58.03125,"instrument":"TheGrandeurPiano","level2":0,"level3":null,"pitch":84,"articulation":"standard","articulation_tags":["standard","long"],"duration":0.3819444444444444,"velocity":55.45847974666527},
{"position":58.375,"instrument":"Bassoon","level2":0,"level3":6,"pitch":74,"articulation":"tenuto","articulation_tags":["tenuto","t","short"],"duration":0.125,"velocity":88.52203317419767},
{"position":58.489583333333336,"instrument":"Bassoon","level2":0,"level3":6,"pitch":73,"articulation":"tenuto","articulation_tags":["tenuto","t","short"],"duration":0.125,"velocity":88.52203317419767},
{"position":58.604166666666664,"instrument":"TheGrandeurPiano","level2":0,"level3":null,"pitch":84,"articulation":"standard","articulation_tags":["standard","long"],"duration":0.4305555555555556,"velocity":55.75259739372409},
{"position":58.645833333333336,"instrument":"Bassoon","level2":0,"level3":7,"pitch":72,"articulation":"staccato","articulation_tags":["staccato","st","short"],"duration":0.125,"velocity":88.56103462410528},
{"position":59.25,"instrument":"TheGrandeurPiano","level2":0,"level3":null,"pitch":84,"articulation":"standard","articulation_tags":["standard","long"],"duration":0.4861111111111111,"velocity":54.6379868449976},
{"position":59.28125,"instrument":"Bassoon","level2":0,"level3":7,"pitch":72,"articulation":"staccato","articulation_tags":["staccato","st","short"],"duration":0.125,"velocity":88.62581356659872},
{"position":59.979166666666664,"instrument":"TheGrandeurPiano","level2":0,"level3":null,"pitch":84,"articulation":"standard","articulation_tags":["standard","long"],"duration":0.5555555555555556,"velocity":57.98562583761359},
{"position":60.03125,"instrument":"CorAnglais","level2":0,"level3":8,"pitch":75,"articulation":"tenuto","articulation_tags":["tenuto","t","short"],"duration":0.125,"velocity":88.71604077924701},
{"position":60.427083333333336,"instrument":"TheGrandeurPiano","level2":0,"level3":null,"pitch":83,"articulation":"standard","articulation_tags":["standard","long"],"duration":1.2638888888888888,"velocity":57.59439486901254},
{"position":60.739583333333336,"instrument":"CorAnglais","level2":0,"level3":6,"pitch":73,"articulation":"tenuto","articulation_tags":["tenuto","t","short"],"duration":0.125,"velocity":88.07283868538521},
{"position":60.739583333333336,"instrument":"Bassoon","level2":0,"level3":7,"pitch":72,"articulation":"staccato","articulation_tags":["staccato","st","short"],"duration":0.125,"velocity":88.07283868538521},
{"position":60.8125,"instrument":"TheGrandeurPiano","level2":0,"level3":null,"pitch":83,"articulation":"standard","articulation_tags":["standard","long"],"duration":0.6458333333333334,"velocity":57.88851251607137},
{"position":61.78125,"instrument":"TheGrandeurPiano","level2":0,"level3":null,"pitch":83,"articulation":"standard","articulation_tags":["standard","long"],"duration":0.7777777777777778,"velocity":58.57386113173124},
{"position":62.083333333333336,"instrument":"CorAnglais","level2":0,"level3":6,"pitch":73,"articulation":"tenuto","articulation_tags":["tenuto","t","short"],"duration":0.125,"velocity":88.35600440011545},
{"position":62.239583333333336,"instrument":"CorAnglais","level2":0,"level3":7,"pitch":72,"articulation":"tenuto","articulation_tags":["tenuto","t","short"],"duration":0.125,"velocity":88.35600440011545},
{"position":62.322916666666664,"instrument":"TheGrandeurPiano","level2":0,"level3":null,"pitch":83,"articulation":"standard","articulation_tags":["standard","long"],"duration":0.9861111111111112,"velocity":59.683083177028585},
{"position":62.583333333333336,"instrument":"CorAnglais","level2":0,"level3":6,"pitch":72,"articulation":"tenuto","articulation_tags":["tenuto","t","short"],"duration":0.125,"velocity":87.71147071133218},
{"position":62.947916666666664,"instrument":"TheGrandeurPiano","level2":0,"level3":null,"pitch":83,"articulation":"standard","articulation_tags":["standard","long"],"duration":1.0,"velocity":59.97720082408741},
{"position":63.21875,"instrument":"Bassoon","level2":0,"level3":7,"pitch":72,"articulation":"tenuto","articulation_tags":["tenuto","t","short"],"duration":0.125,"velocity":87.90044032590495},
{"position":63.364583333333336,"instrument":"CorAnglais","level2":0,"level3":6,"pitch":72,"articulation":"tenuto","articulation_tags":["tenuto","t","short"],"duration":0.125,"velocity":87.90044032590495},
{"position":63.635416666666664,"instrument":"CorAnglais","level2":0,"level3":7,"pitch":72,"articulation":"tenuto","articulation_tags":["tenuto","t","short"],"duration":0.125,"velocity":87.90044032590495},
{"position":63.635416666666664,"instrument":"Bassoon","level2":0,"level3":6,"pitch":72,"articulation":"tenuto","articulation_tags":["tenuto","t","short"],"duration":0.125,"velocity":87.90044032590495},
{"position":63.739583333333336,"instrument":"Piccolo","level2":0,"level3":8,"pitch":74,"articulation":"tenuto","articulation_tags":["tenuto","t","short"],"duration":0.125,"velocity":87.90044032590495},
{"position":63.802083333333336,"instrument":"TheGrandeurPiano","level2":0,"level3":null,"pitch":82,"articulation":"standard","articulation_tags":["standard","long"],"duration":0.8819444444444444,"velocity":59.24786245720384},
{"position":64.44791666666667,"instrument":"TheGrandeurPiano","level2":0,"level3":null,"pitch":82,"articulation":"standard","articulation_tags":["standard","long"],"duration":1.5972222222222223,"velocity":59.54198010426266},
{"position":65.13541666666667,"instrument":"TheGrandeurPiano","level2":0,"level3":null,"pitch":82,"articulation":"standard","articulation_tags":["standard","long"],"duration":0.8263888888888888,"velocity":60.27131847114623},
{"position":66.36458333333333,"instrument":"TheGrandeurPiano","level2":0,"level3":null,"pitch":81,"articulation":"standard","articulation_tags":["standard","long"],"duration":0.7847222222222222,"velocity":59.16209642584889},
{"position":66.55208333333333,"instrument":"CorAnglais","level2":0,"level3":9,"pitch":74,"articulation":"staccato","articulation_tags":["staccato","st","short"],"duration":0.125,"velocity":86.25194094767448},
{"position":66.55208333333333,"instrument":"Piccolo","level2":0,"level3":10,"pitch":75,"articulation":"staccato","articulation_tags":["staccato","st","short"],"duration":0.125,"velocity":86.25194094767448},
{"position":66.84375,"instrument":"TheGrandeurPiano","level2":0,"level3":null,"pitch":81,"articulation":"standard","articulation_tags":["standard","long"],"duration":1.9861111111111112,"velocity":59.06498310430666},
{"position":66.88541666666667,"instrument":"CorAnglais","level2":0,"level3":9,"pitch":74,"articulation":"staccato","articulation_tags":["staccato","st","short"],"duration":0.125,"velocity":86.52428304839357},
{"position":66.89583333333333,"instrument":"Bassoon","level2":0,"level3":8,"pitch":74,"articulation":"tenuto","articulation_tags":["tenuto","t","short"],"duration":0.125,"velocity":86.52428304839357},
{"position":66.89583333333333,"instrument":"Piccolo","level2":0,"level3":10,"pitch":75,"articulation":"staccato","articulation_tags":["staccato","st","short"],"duration":0.125,"velocity":86.52428304839357},
{"position":67.36458333333333,"instrument":"CorAnglais","level2":0,"level3":10,"pitch":75,"articulation":"staccato","articulation_tags":["staccato","st","short"],"duration":0.125,"velocity":86.52428304839357},
{"position":67.54166666666667,"instrument":"TheGrandeurPiano","level2":0,"level3":null,"pitch":81,"articulation":"standard","articulation_tags":["standard","long"],"duration":0.7777777777777778,"velocity":59.06498310430666},
{"position":68.47916666666667,"instrument":"CorAnglais","level2":0,"level3":9,"pitch":73,"articulation":"staccato","articulation_tags":["staccato","st","short"],"duration":0.125,"velocity":85.92446680553368},
{"position":68.70833333333333,"instrument":"TheGrandeurPiano","level2":0,"level3":null,"pitch":80,"articulation":"standard","articulation_tags":["standard","long"],"duration":0.8263888888888888,"velocity":60.56543611820506},
{"position":68.98958333333333,"instrument":"CorAnglais","level2":0,"level3":9,"pitch":73,"articulation":"staccato","articulation_tags":["staccato","st","short"],"duration":0.125,"velocity":85.33129222197971},
{"position":69.05208333333333,"instrument":"Piccolo","level2":0,"level3":8,"pitch":74,"articulation":"tenuto","articulation_tags":["tenuto","t","short"],"duration":0.125,"velocity":85.33129222197971},
{"position":69.52083333333333,"instrument":"CorAnglais","level2":0,"level3":8,"pitch":73,"articulation":"tenuto","articulation_tags":["tenuto","t","short"],"duration":0.125,"velocity":85.33129222197971},
{"position":69.83333333333333,"instrument":"TheGrandeurPiano","level2":0,"level3":null,"pitch":80,"articulation":"standard","articulation_tags":["standard","long"],"duration":1.3125,"velocity":59.54198010426266},
{"position":69.94791666666667,"instrument":"TheGrandeurPiano","level2":0,"level3":null,"pitch":80,"articulation":"standard","articulation_tags":["standard","long"],"duration":0.7569444444444444,"velocity":59.54198010426266},
{"position":70.35416666666667,"instrument":"CorAnglais","level2":0,"level3":9,"pitch":73,"articulation":"tenuto","articulation_tags":["tenuto","t","short"],"duration":0.125,"velocity":84.43285938269659},
{"position":70.54166666666667,"instrument":"CorAnglais","level2":0,"level3":8,"pitch":73,"articulation":"tenuto","articulation_tags":["tenuto","t","short"],"duration":0.125,"velocity":84.43285938269659},
{"position":71.08333333333333,"instrument":"TheGrandeurPiano","level2":0,"level3":null,"pitch":79,"articulation":"standard","articulation_tags":["standard","long"],"duration":0.7083333333333334,"velocity":60.27131847114623},
{"position":71.80208333333333,"instrument":"TheGrandeurPiano","level2":0,"level3":null,"pitch":79,"articulation":"standard","articulation_tags":["standard","long"],"duration":0.7638888888888888,"velocity":59.97720082408741},
{"position":72.13541666666667,"instrument":"TheGrandeurPiano","level2":0,"level3":null,"pitch":79,"articulation":"standard","articulation_tags":["standard","long"],"duration":0.6597222222222222,"velocity":58.86797877879006},
{"position":72.22916666666667,"instrument":"CorAnglais","level2":0,"level3":10,"pitch":74,"articulation":"staccato","articulation_tags":["staccato","st","short"],"duration":0.125,"velocity":82.94125195985953},
{"position":72.4375,"instrument":"CorAnglais","level2":0,"level3":10,"pitch":74,"articulation":"tenuto","articulation_tags":["tenuto","t","short"],"duration":0.125,"velocity":82.94125195985953},
{"position":72.94791666666667,"instrument":"TheGrandeurPiano","level2":0,"level3":null,"pitch":79,"articulation":"standard","articulation_tags":["standard","long"],"duration":0.5555555555555556,"velocity":58.18263016313019},
{"position":73.13541666666667,"instrument":"TheGrandeurPiano","level2":0,"level3":null,"pitch":78,"articulation":"standard","articulation_tags":["standard","long"],"duration":0.625,"velocity":58.18263016313019},
{"position":73.78125,"instrument":"TheGrandeurPiano","level2":0,"level3":null,"pitch":78,"articulation":"standard","articulation_tags":["standard","long"],"duration":0.4305555555555556,"velocity":58.279743484672416},
{"position":74.07291666666667,"instrument":"TheGrandeurPiano","level2":0,"level3":null,"pitch":78,"articulation":"standard","articulation_tags":["standard","long"],"duration":0.5972222222222222,"velocity":58.279743484672416},
{"position":74.42708333333333,"instrument":"TheGrandeurPiano","level2":0,"level3":null,"pitch":78,"articulation":"standard","articulation_tags":["standard","long"],"duration":0.3402777777777778,"velocity":57.98562583761359},
{"position":74.9375,"instrument":"TheGrandeurPiano","level2":0,"level3":null,"pitch":78,"articulation":"standard","articulation_tags":["standard","long"],"duration":0.2777777777777778,"velocity":58.80073023585212},
{"position":74.97916666666667,"instrument":"TheGrandeurPiano","level2":0,"level3":null,"pitch":77,"articulation":"standard","articulation_tags":["standard","long"],"duration":0.5902777777777778,"velocity":58.80073023585212},
{"position":75.19791666666667,"instrument":"CorAnglais","level2":0,"level3":10,"pitch":74,"articulation":"staccato","articulation_tags":["staccato","st","short"],"duration":0.125,"velocity":80.08109381539522},
{"position":75.36458333333333,"instrument":"TheGrandeurPiano","level2":0,"level3":null,"pitch":77,"articulation":"standard","articulation_tags":["standard","long"],"duration":0.22916666666666666,"velocity":60.184170056853915},
{"position":75.40625,"instrument":"TheGrandeurPiano","level2":1,"level3":null,"pitch":82,"articulation":"standard","articulation_tags":["standard","long"],"duration":0.0,"velocity":54.59593476273627},
{"position":75.40625,"instrument":"TheGrandeurPiano","level2":1,"level3":null,"pitch":82,"articulation":"standard","articulation_tags":["standard","long"],"duration":0.013888888888888888,"velocity":54.59593476273627},
{"position":75.40625,"instrument":"TheGrandeurPiano","level2":2,"level3":null,"pitch":83,"articulation":"standard","articulation_tags":["standard","long"],"duration":0.006944444444444444,"velocity":54.59593476273627},
{"position":75.41666666666667,"instrument":"CorAnglais","level2":1,"level3":0,"pitch":80,"articulation":"tenuto","articulation_tags":["tenuto","t","short"],"duration":0.125,"velocity":90.39671349815184},
{"position":75.41666666666667,"instrument":"Piccolo","level2":1,"level3":0,"pitch":80,"articulation":"tenuto","articulation_tags":["tenuto","t","short"],"duration":0.125,"velocity":90.39671349815184},
{"position":75.41666666666667,"instrument":"Clarinet","level2":1,"level3":1,"pitch":79,"articulation":"staccato","articulation_tags":["staccato","st","short"],"duration":0.125,"velocity":90.39671349815184},
{"position":75.41666666666667,"instrument":"Clarinet","level2":1,"level3":1,"pitch":79,"articulation":"staccato","articulation_tags":["staccato","st","short"],"duration":0.125,"velocity":90.39671349815184},
{"position":75.41666666666667,"instrument":"TheGrandeurPiano","level2":2,"level3":null,"pitch":83,"articulation":"standard","articulation_tags":["standard","long"],"duration":0.027777777777777776,"velocity":54.59593476273627},
{"position":75.42708333333333,"instrument":"TheGrandeurPiano","level2":1,"level3":null,"pitch":82,"articulation":"standard","articulation_tags":["standard","long"],"duration":0.027777777777777776,"velocity":54.59593476273627},
{"position":75.4375,"instrument":"Viola","level2":1,"level3":1,"pitch":79,"articulation":"pizzicato","articulation_tags":["pizzicato","pz","short"],"duration":0.125,"velocity":89.91536036138078},
{"position":75.44791666666667,"instrument":"Viola","level2":1,"level3":0,"pitch":80,"articulation":"pizzicato","articulation_tags":["pizzicato","pz","short"],"duration":0.125,"velocity":89.91536036138078},
{"position":75.45833333333333,"instrument":"TheGrandeurPiano","level2":2,"level3":null,"pitch":84,"articulation":"standard","articulation_tags":["standard","long"],"duration":0.04861111111111111,"velocity":54.59593476273627},
{"position":75.46875,"instrument":"TheGrandeurPiano","level2":1,"level3":null,"pitch":81,"articulation":"standard","articulation_tags":["standard","long"],"duration":0.041666666666666664,"velocity":54.59593476273627},
{"position":75.48958333333333,"instrument":"Viola","level2":1,"level3":1,"pitch":79,"articulation":"collegno","articulation_tags":["collegno","cl","short"],"duration":0.125,"velocity":89.44400744450898},
{"position":75.48958333333333,"instrument":"Viola","level2":1,"level3":0,"pitch":80,"articulation":"pizzicato","articulation_tags":["pizzicato","pz","short"],"duration":0.125,"velocity":89.44400744450898},
{"position":75.51041666666667,"instrument":"Violin","level2":1,"level3":2,"pitch":80,"articulation":"pizzicato","articulation_tags":["pizzicato","pz","short"],"duration":0.125,"velocity":89.44400744450898},
{"position":75.51041666666667,"instrument":"Violin","level2":1,"level3":2,"pitch":80,"articulation":"pizzicato","articulation_tags":["pizzicato","pz","short"],"duration":0.125,"velocity":89.44400744450898},
{"position":75.51041666666667,"instrument":"Violin","level2":1,"level3":2,"pitch":80,"articulation":"pizzicato","articulation_tags":["pizzicato","pz","short"],"duration":0.125,"velocity":89.44400744450898},
{"position":75.51041666666667,"instrument":"Violin","level2":1,"level3":3,"pitch":79,"articulation":"pizzicato","articulation_tags":["pizzicato","pz","short"],"duration":0.125,"velocity":89.44400744450898},
{"position":75.53125,"instrument":"TheGrandeurPiano","level2":2,"level3":null,"pitch":84,"articulation":"standard","articulation_tags":["standard","long"],"duration":0.06944444444444445,"velocity":54.59593476273627},
{"position":75.53125,"instrument":"TheGrandeurPiano","level2":1,"level3":null,"pitch":81,"articulation":"standard","articulation_tags":["standard","long"],"duration":0.05555555555555555,"velocity":54.59593476273627},
{"position":75.53125,"instrument":"CorAnglais","level2":1,"level3":3,"pitch":79,"articulation":"tenuto","articulation_tags":["tenuto","t","short"],"duration":0.125,"velocity":88.98356805869778},
{"position":75.54166666666667,"instrument":"Piccolo","level2":1,"level3":3,"pitch":79,"articulation":"staccato","articulation_tags":["staccato","st","short"],"duration":0.125,"velocity":88.98356805869778},
{"position":75.55208333333333,"instrument":"Clarinet","level2":1,"level3":1,"pitch":78,"articulation":"staccato","articulation_tags":["staccato","st","short"],"duration":0.125,"velocity":88.98356805869778},
{"position":75.58333333333333,"instrument":"TheGrandeurPiano","level2":1,"level3":null,"pitch":81,"articulation":"standard","articulation_tags":["standard","long"],"duration":0.14583333333333334,"velocity":54.890052409795096},
{"position":75.59375,"instrument":"Clarinet","level2":1,"level3":2,"pitch":80,"articulation":"staccato","articulation_tags":["staccato","st","short"],"duration":0.125,"velocity":88.56103462410528},
{"position":75.60416666666667,"instrument":"Viola","level2":1,"level3":0,"pitch":80,"articulation":"pizzicato_bartok","articulation_tags":["pizzicato_bartok","pzb","short","pizzicato","bartok"],"duration":0.125,"velocity":88.56103462410528},
{"position":75.61458333333333,"instrument":"TheGrandeurPiano","level2":1,"level3":null,"pitch":80,"articulation":"standard","articulation_tags":["standard","long"],"duration":0.0763888888888889,"velocity":54.890052409795096},
{"position":75.61458333333333,"instrument":"Viola","level2":1,"level3":2,"pitch":80,"articulation":"pizzicato","articulation_tags":["pizzicato","pz","short"],"duration":0.125,"velocity":88.07283868538521},
{"position":75.63541666666667,"instrument":"TheGrandeurPiano","level2":2,"level3":null,"pitch":85,"articulation":"standard","articulation_tags":["standard","long"],"duration":0.09722222222222222,"velocity":54.59593476273627},
{"position":75.63541666666667,"instrument":"Viola","level2":1,"level3":0,"pitch":81,"articulation":"pizzicato_bartok","articulation_tags":["pizzicato_bartok","pzb","short","pizzicato","bartok"],"duration":0.125,"velocity":88.07283868538521},
{"position":75.64583333333333,"instrument":"Viola","level2":1,"level3":4,"pitch":80,"articulation":"pizzicato","articulation_tags":["pizzicato","pz","short"],"duration":0.125,"velocity":88.07283868538521},
{"position":75.64583333333333,"instrument":"Violin","level2":1,"level3":4,"pitch":80,"articulation":"pizzicato","articulation_tags":["pizzicato","pz","short"],"duration":0.125,"velocity":88.07283868538521},
{"position":75.64583333333333,"instrument":"Violin","level2":1,"level3":5,"pitch":79,"articulation":"pizzicato","articulation_tags":["pizzicato","pz","short"],"duration":0.125,"velocity":88.07283868538521},
{"position":75.66666666666667,"instrument":"CorAnglais","level2":1,"level3":6,"pitch":80,"articulation":"tenuto","articulation_tags":["tenuto","t","short"],"duration":0.125,"velocity":88.07283868538521},
{"position":75.66666666666667,"instrument":"Piccolo","level2":1,"level3":7,"pitch":79,"articulation":"tenuto","articulation_tags":["tenuto","t","short"],"duration":0.125,"velocity":88.07283868538521},
{"position":75.66666666666667,"instrument":"Violin","level2":1,"level3":7,"pitch":79,"articulation":"pizzicato","articulation_tags":["pizzicato","pz","short"],"duration":0.125,"velocity":88.07283868538521},
{"position":75.66666666666667,"instrument":"Violin","level2":1,"level3":3,"pitch":78,"articulation":"collegno","articulation_tags":["collegno","cl","short"],"duration":0.125,"velocity":88.07283868538521},
{"position":75.66666666666667,"instrument":"Clarinet","level2":1,"level3":1,"pitch":78,"articulation":"staccato","articulation_tags":["staccato","st","short"],"duration":0.125,"velocity":88.07283868538521},
{"position":75.66666666666667,"instrument":"Violin","level2":1,"level3":4,"pitch":80,"articulation":"pizzicato","articulation_tags":["pizzicato","pz","short"],"duration":0.125,"velocity":88.07283868538521},
{"position":75.66666666666667,"instrument":"Violin","level2":1,"level3":5,"pitch":79,"articulation":"collegno","articulation_tags":["collegno","cl","short"],"duration":0.125,"velocity":88.07283868538521},
{"position":75.67708333333333,"instrument":"Violin","level2":1,"level3":6,"pitch":80,"articulation":"pizzicato","articulation_tags":["pizzicato","pz","short"],"duration":0.125,"velocity":88.07283868538521},
{"position":75.67708333333333,"instrument":"Violin","level2":1,"level3":3,"pitch":78,"articulation":"collegno","articulation_tags":["collegno","cl","short"],"duration":0.125,"velocity":88.07283868538521},
{"position":75.69791666666667,"instrument":"Flute","level2":1,"level3":7,"pitch":79,"articulation":"staccato","articulation_tags":["staccato","st","short"],"duration":0.125,"velocity":88.07283868538521},
{"position":75.69791666666667,"instrument":"Oboe","level2":1,"level3":5,"pitch":79,"articulation":"staccato","articulation_tags":["staccato","st","short"],"duration":0.125,"velocity":88.07283868538521},
{"position":75.70833333333333,"instrument":"TheGrandeurPiano","level2":0,"level3":null,"pitch":77,"articulation":"standard","articulation_tags":["standard","long"],"duration":0.1875,"velocity":57.4831565748509},
{"position":75.70833333333333,"instrument":"Clarinet","level2":1,"level3":6,"pitch":80,"articulation":"staccato","articulation_tags":["staccato","st","short"],"duration":0.125,"velocity":88.07283868538521},
{"position":75.71875,"instrument":"Viola","level2":1,"level3":4,"pitch":80,"articulation":"pizzicato","articulation_tags":["pizzicato","pz","short"],"duration":0.125,"velocity":88.07283868538521},
{"position":75.72916666666667,"instrument":"TheGrandeurPiano","level2":1,"level3":null,"pitch":80,"articulation":"standard","articulation_tags":["standard","long"],"duration":0.09027777777777778,"velocity":52.4831565748509},
{"position":75.77083333333333,"instrument":"TheGrandeurPiano","level2":2,"level3":null,"pitch":85,"articulation":"standard","articulation_tags":["standard","long"],"duration":0.125,"velocity":52.189038927792076},
{"position":75.77083333333333,"instrument":"Viola","level2":1,"level3":6,"pitch":80,"articulation":"pizzicato","articulation_tags":["pizzicato","pz","short"],"duration":0.125,"velocity":87.59400585913284},
{"position":75.78125,"instrument":"Viola","level2":1,"level3":8,"pitch":80,"articulation":"pizzicato","articulation_tags":["pizzicato","pz","short"],"duration":0.125,"velocity":87.59400585913284},
{"position":75.78125,"instrument":"Viola","level2":1,"level3":9,"pitch":79,"articulation":"collegno","articulation_tags":["collegno","cl","short"],"duration":0.125,"velocity":87.59400585913284},
{"position":75.78125,"instrument":"Violin","level2":1,"level3":9,"pitch":79,"articulation":"collegno","articulation_tags":["collegno","cl","short"],"duration":0.125,"velocity":87.59400585913284},
{"position":75.78125,"instrument":"CorAnglais","level2":1,"level3":7,"pitch":79,"articulation":"staccato","articulation_tags":["staccato","st","short"],"duration":0.125,"velocity":87.59400585913284},
{"position":75.79166666666667,"instrument":"Piccolo","level2":1,"level3":2,"pitch":81,"articulation":"tenuto","articulation_tags":["tenuto","t","short"],"duration":0.125,"velocity":87.59400585913284},
{"position":75.79166666666667,"instrument":"Clarinet","level2":1,"level3":9,"pitch":79,"articulation":"staccato","articulation_tags":["staccato","st","short"],"duration":0.125,"velocity":87.59400585913284},
{"position":75.80208333333333,"instrument":"TheGrandeurPiano","level2":1,"level3":null,"pitch":80,"articulation":"standard","articulation_tags":["standard","long"],"duration":0.13194444444444445,"velocity":52.77727422190973},
{"position":75.8125,"instrument":"Violin","level2":1,"level3":5,"pitch":79,"articulation":"collegno","articulation_tags":["collegno","cl","short"],"duration":0.125,"velocity":87.12992406376696},
{"position":75.84375,"instrument":"Clarinet","level2":1,"level3":8,"pitch":80,"articulation":"staccato","articulation_tags":["staccato","st","short"],"duration":0.125,"velocity":87.12992406376696},
{"position":75.85416666666667,"instrument":"TheGrandeurPiano","level2":1,"level3":null,"pitch":79,"articulation":"standard","articulation_tags":["standard","long"],"duration":0.09722222222222222,"velocity":52.77727422190973},
{"position":75.86458333333333,"instrument":"TheGrandeurPiano","level2":0,"level3":null,"pitch":77,"articulation":"standard","articulation_tags":["standard","long"],"duration":0.6041666666666666,"velocity":57.4831565748509},
{"position":75.875,"instrument":"Viola","level2":1,"level3":8,"pitch":80,"articulation":"pizzicato","articulation_tags":["pizzicato","pz","short"],"duration":0.125,"velocity":86.65063049293704},
{"position":75.91666666666667,"instrument":"CorAnglais","level2":1,"level3":10,"pitch":80,"articulation":"tenuto","articulation_tags":["tenuto","t","short"],"duration":0.125,"velocity":86.65063049293704},
{"position":75.91666666666667,"instrument":"Piccolo","level2":1,"level3":11,"pitch":79,"articulation":"tenuto","articulation_tags":["tenuto","t","short"],"duration":0.125,"velocity":86.65063049293704},
{"position":75.91666666666667,"instrument":"Clarinet","level2":1,"level3":12,"pitch":80,"articulation":"staccato","articulation_tags":["staccato","st","short"],"duration":0.125,"velocity":86.65063049293704},
{"position":75.91666666666667,"instrument":"Viola","level2":1,"level3":12,"pitch":80,"articulation":"pizzicato","articulation_tags":["pizzicato","pz","short"],"duration":0.125,"velocity":86.65063049293704},
{"position":75.91666666666667,"instrument":"Viola","level2":1,"level3":13,"pitch":79,"articulation":"collegno","articulation_tags":["collegno","cl","short"],"duration":0.125,"velocity":86.65063049293704},
{"position":75.92708333333333,"instrument":"Viola","level2":1,"level3":10,"pitch":80,"articulation":"pizzicato","articulation_tags":["pizzicato","pz","short"],"duration":0.125,"velocity":86.65063049293704},
{"position":75.92708333333333,"instrument":"Violin","level2":1,"level3":11,"pitch":79,"articulation":"pizzicato","articulation_tags":["pizzicato","pz","short"],"duration":0.125,"velocity":86.65063049293704},
{"position":75.95833333333333,"instrument":"TheGrandeurPiano","level2":2,"level3":null,"pitch":86,"articulation":"standard","articulation_tags":["standard","long"],"duration":0.1527777777777778,"velocity":52.189038927792076},
{"position":75.95833333333333,"instrument":"Violin","level2":1,"level3":9,"pitch":79,"articulation":"collegno","articulation_tags":["collegno","cl","short"],"duration":0.125,"velocity":86.65063049293704},
{"position":75.95833333333333,"instrument":"Clarinet","level2":1,"level3":13,"pitch":79,"articulation":"staccato","articulation_tags":["staccato","st","short"],"duration":0.125,"velocity":86.65063049293704},
{"position":75.97916666666667,"instrument":"Violin","level2":1,"level3":4,"pitch":81,"articulation":"pizzicato","articulation_tags":["pizzicato","pz","short"],"duration":0.125,"velocity":86.65063049293704},
{"position":75.97916666666667,"instrument":"Violin","level2":1,"level3":12,"pitch":80,"articulation":"pizzicato","articulation_tags":["pizzicato","pz","short"],"duration":0.125,"velocity":86.65063049293704},
{"position":75.97916666666667,"instrument":"TheGrandeurPiano","level2":2,"level3":null,"pitch":86,"articulation":"standard","articulation_tags":["standard","long"],"duration":0.3680555555555556,"velocity":52.4831565748509},
{"position":75.98958333333333,"instrument":"TheGrandeurPiano","level2":0,"level3":null,"pitch":77,"articulation":"standard","articulation_tags":["standard","long"],"duration":0.1527777777777778,"velocity":57.18903892779208},
{"position":75.98958333333333,"instrument":"Viola","level2":1,"level3":11,"pitch":79,"articulation":"pizzicato","articulation_tags":["pizzicato","pz","short"],"duration":0.125,"velocity":86.65063049293704},
{"position":76.0,"instrument":"TheGrandeurPiano","level2":1,"level3":null,"pitch":79,"articulation":"standard","articulation_tags":["standard","long"],"duration":0.11805555555555555,"velocity":53.071391868968554},
{"position":76.0,"instrument":"Violin","level2":1,"level3":9,"pitch":79,"articulation":"collegno","articulation_tags":["collegno","cl","short"],"duration":0.125,"velocity":86.187072940013},
{"position":76.01041666666667,"instrument":"TheGrandeurPiano","level2":1,"level3":null,"pitch":79,"articulation":"standard","articulation_tags":["standard","long"],"duration":0.1111111111111111,"velocity":53.071391868968554},
{"position":76.03125,"instrument":"CorAnglais","level2":1,"level3":10,"pitch":80,"articulation":"tenuto","articulation_tags":["tenuto","t","short"],"duration":0.125,"velocity":85.70725512674123},
{"position":76.04166666666667,"instrument":"Piccolo","level2":1,"level3":0,"pitch":81,"articulation":"marcato","articulation_tags":["marcato","short"],"duration":0.125,"velocity":85.70725512674123},
{"position":76.05208333333333,"instrument":"Clarinet","level2":1,"level3":14,"pitch":80,"articulation":"staccato","articulation_tags":["staccato","st","short"],"duration":0.125,"velocity":85.70725512674123},
{"position":76.05208333333333,"instrument":"Viola","level2":1,"level3":15,"pitch":80,"articulation":"collegno","articulation_tags":["collegno","cl","short"],"duration":0.125,"velocity":85.70725512674123},
{"position":76.05208333333333,"instrument":"Viola","level2":1,"level3":3,"pitch":78,"articulation":"collegno","articulation_tags":["collegno","cl","short"],"duration":0.125,"velocity":85.70725512674123},
{"position":76.07291666666667,"instrument":"Viola","level2":1,"level3":6,"pitch":81,"articulation":"pizzicato","articulation_tags":["pizzicato","pz","short"],"duration":0.125,"velocity":85.70725512674123},
{"position":76.125,"instrument":"Clarinet","level2":1,"level3":16,"pitch":79,"articulation":"staccato","articulation_tags":["staccato","st","short"],"duration":0.125,"velocity":85.70725512674123},
{"position":76.125,"instrument":"Viola","level2":1,"level3":17,"pitch":79,"articulation":"pizzicato","articulation_tags":["pizzicato","pz","short"],"duration":0.125,"velocity":85.70725512674123},
{"position":76.125,"instrument":"Violin","level2":1,"level3":9,"pitch":79,"articulation":"collegno","articulation_tags":["collegno","cl","short"],"duration":0.125,"velocity":85.70725512674123},
{"position":76.15625,"instrument":"CorAnglais","level2":1,"level3":11,"pitch":79,"articulation":"tenuto","articulation_tags":["tenuto","t","short"],"duration":0.125,"velocity":85.70725512674123},
{"position":76.16666666666667,"instrument":"Piccolo","level2":1,"level3":12,"pitch":80,"articulation":"tenuto","articulation_tags":["tenuto","t","short"],"duration":0.125,"velocity":85.70725512674123},
{"position":76.16666666666667,"instrument":"Violin","level2":1,"level3":12,"pitch":80,"articulation":"collegno","articulation_tags":["collegno","cl","short"],"duration":0.125,"velocity":85.70725512674123},
{"position":76.17708333333333,"instrument":"Clarinet","level2":1,"level3":8,"pitch":80,"articulation":"staccato","articulation_tags":["staccato","st","short"],"duration":0.125,"velocity":85.70725512674123},
{"position":76.17708333333333,"instrument":"TheGrandeurPiano","level2":1,"level3":null,"pitch":78,"articulation":"standard","articulation_tags":["standard","long"],"duration":0.125,"velocity":53.071391868968554},
{"position":76.17708333333333,"instrument":"TheGrandeurPiano","level2":1,"level3":null,"pitch":78,"articulation":"standard","articulation_tags":["standard","long"],"duration":0.10416666666666667,"velocity":53.36550951602737},
{"position":76.1875,"instrument":"TheGrandeurPiano","level2":2,"level3":null,"pitch":86,"articulation":"standard","articulation_tags":["standard","long"],"duration":0.1875,"velocity":52.4831565748509},
{"position":76.19791666666667,"instrument":"Viola","level2":1,"level3":10,"pitch":80,"articulation":"pizzicato","articulation_tags":["pizzicato","pz","short"],"duration":0.125,"velocity":84.76387976054544},
{"position":76.21875,"instrument":"TheGrandeurPiano","level2":0,"level3":null,"pitch":77,"articulation":"standard","articulation_tags":["standard","long"],"duration":0.11805555555555555,"velocity":56.89492128073326},
{"position":76.22916666666667,"instrument":"Viola","level2":1,"level3":13,"pitch":80,"articulation":"collegno","articulation_tags":["collegno","cl","short"],"duration":0.125,"velocity":84.76387976054544},
{"position":76.22916666666667,"instrument":"Viola","level2":1,"level3":16,"pitch":79,"articulation":"pizzicato","articulation_tags":["pizzicato","pz","short"],"duration":0.125,"velocity":84.76387976054544},
{"position":76.3125,"instrument":"CorAnglais","level2":1,"level3":4,"pitch":80,"articulation":"tenuto","articulation_tags":["tenuto","t","short"],"duration":0.125,"velocity":84.76387976054544},
{"position":76.32291666666667,"instrument":"Piccolo","level2":1,"level3":8,"pitch":80,"articulation":"tenuto","articulation_tags":["tenuto","t","short"],"duration":0.125,"velocity":84.76387976054544},
{"position":76.32291666666667,"instrument":"Clarinet","level2":1,"level3":8,"pitch":80,"articulation":"staccato","articulation_tags":["staccato","st","short"],"duration":0.125,"velocity":84.76387976054544},
{"position":76.33333333333333,"instrument":"TheGrandeurPiano","level2":1,"level3":null,"pitch":78,"articulation":"standard","articulation_tags":["standard","long"],"duration":0.09027777777777778,"velocity":53.6596271630862},
{"position":76.35416666666667,"instrument":"Clarinet","level2":1,"level3":9,"pitch":79,"articulation":"staccato","articulation_tags":["staccato","st","short"],"duration":0.125,"velocity":84.3016220606238},
{"position":76.35416666666667,"instrument":"TheGrandeurPiano","level2":1,"level3":null,"pitch":78,"articulation":"standard","articulation_tags":["standard","long"],"duration":0.125,"velocity":53.6596271630862},
{"position":76.375,"instrument":"Viola","level2":1,"level3":0,"pitch":81,"articulation":"pizzicato","articulation_tags":["pizzicato","pz","short"],"duration":0.125,"velocity":83.82050439434963},
{"position":76.375,"instrument":"Viola","level2":1,"level3":0,"pitch":81,"articulation":"pizzicato","articulation_tags":["pizzicato","pz","short"],"duration":0.125,"velocity":83.82050439434963},
{"position":76.38541666666667,"instrument":"Viola","level2":1,"level3":3,"pitch":78,"articulation":"collegno","articulation_tags":["collegno","cl","short"],"duration":0.125,"velocity":83.82050439434963},
{"position":76.39583333333333,"instrument":"TheGrandeurPiano","level2":0,"level3":null,"pitch":77,"articulation":"standard","articulation_tags":["standard","long"],"duration":0.09722222222222222,"velocity":59.007699468618625},
{"position":76.40625,"instrument":"Viola","level2":1,"level3":7,"pitch":79,"articulation":"collegno","articulation_tags":["collegno","cl","short"],"duration":0.125,"velocity":83.82050439434963},
{"position":76.40625,"instrument":"Violin","level2":1,"level3":4,"pitch":80,"articulation":"pizzicato","articulation_tags":["pizzicato","pz","short"],"duration":0.125,"velocity":83.82050439434963},
{"position":76.41666666666667,"instrument":"Violin","level2":1,"level3":2,"pitch":81,"articulation":"pizzicato","articulation_tags":["pizzicato","pz","short"],"duration":0.125,"velocity":83.82050439434963},
{"position":76.42708333333333,"instrument":"Violin","level2":1,"level3":6,"pitch":80,"articulation":"pizzicato","articulation_tags":["pizzicato","pz","short"],"duration":0.125,"velocity":83.82050439434963},
{"position":76.42708333333333,"instrument":"CorAnglais","level2":1,"level3":9,"pitch":80,"articulation":"staccato","articulation_tags":["staccato","st","short"],"duration":0.125,"velocity":83.82050439434963},
{"position":76.42708333333333,"instrument":"Violin","level2":1,"level3":7,"pitch":79,"articulation":"pizzicato","articulation_tags":["pizzicato","pz","short"],"duration":0.125,"velocity":83.82050439434963},
{"position":76.4375,"instrument":"Violin","level2":1,"level3":10,"pitch":80,"articulation":"pizzicato","articulation_tags":["pizzicato","pz","short"],"duration":0.125,"velocity":83.82050439434963},
{"position":76.44791666666667,"instrument":"Piccolo","level2":1,"level3":1,"pitch":79,"articulation":"staccato","articulation_tags":["staccato","st","short"],"duration":0.125,"velocity":83.82050439434963},
{"position":76.44791666666667,"instrument":"Clarinet","level2":1,"level3":3,"pitch":79,"articulation":"staccato","articulation_tags":["staccato","st","short"],"duration":0.125,"velocity":83.82050439434963},
{"position":76.45833333333333,"instrument":"Violin","level2":1,"level3":5,"pitch":79,"articulation":"collegno","articulation_tags":["collegno","cl","short"],"duration":0.125,"velocity":83.82050439434963},
{"position":76.45833333333333,"instrument":"TheGrandeurPiano","level2":1,"level3":null,"pitch":78,"articulation":"standard","articulation_tags":["standard","long"],"duration":0.06944444444444445,"velocity":56.36064064508921},
{"position":76.45833333333333,"instrument":"Violin","level2":1,"level3":10,"pitch":79,"articulation":"pizzicato","articulation_tags":["pizzicato","pz","short"],"duration":0.125,"velocity":83.35906594992042},
{"position":76.46875,"instrument":"TheGrandeurPiano","level2":2,"level3":null,"pitch":87,"articulation":"standard","articulation_tags":["standard","long"],"duration":0.22916666666666666,"velocity":54.890052409795096},
{"position":76.46875,"instrument":"Clarinet","level2":1,"level3":4,"pitch":80,"articulation":"staccato","articulation_tags":["staccato","st","short"],"duration":0.125,"velocity":83.35906594992042},
{"position":76.47916666666667,"instrument":"Violin","level2":1,"level3":9,"pitch":80,"articulation":"pizzicato","articulation_tags":["pizzicato","pz","short"],"duration":0.125,"velocity":83.35906594992042},
{"position":76.51041666666667,"instrument":"Viola","level2":1,"level3":6,"pitch":80,"articulation":"pizzicato","articulation_tags":["pizzicato","pz","short"],"duration":0.125,"velocity":83.35906594992042},
{"position":76.52083333333333,"instrument":"Viola","level2":1,"level3":2,"pitch":80,"articulation":"pizzicato","articulation_tags":["pizzicato","pz","short"],"duration":0.125,"velocity":83.35906594992042},
{"position":76.53125,"instrument":"TheGrandeurPiano","level2":2,"level3":null,"pitch":87,"articulation":"standard","articulation_tags":["standard","long"],"duration":0.3819444444444444,"velocity":55.184170056853915},
{"position":76.54166666666667,"instrument":"TheGrandeurPiano","level2":0,"level3":null,"pitch":77,"articulation":"standard","articulation_tags":["standard","long"],"duration":0.06944444444444445,"velocity":58.7135818215598},
{"position":76.54166666666667,"instrument":"CorAnglais","level2":1,"level3":5,"pitch":79,"articulation":"staccato","articulation_tags":["staccato","st","short"],"duration":0.125,"velocity":83.35906594992042},
{"position":76.55208333333333,"instrument":"TheGrandeurPiano","level2":1,"level3":null,"pitch":77,"articulation":"standard","articulation_tags":["standard","long"],"duration":0.11805555555555555,"velocity":56.36064064508921},
{"position":76.57291666666667,"instrument":"TheGrandeurPiano","level2":1,"level3":null,"pitch":77,"articulation":"standard","articulation_tags":["standard","long"],"duration":0.05555555555555555,"velocity":56.65475829214804},
{"position":76.58333333333333,"instrument":"Piccolo","level2":1,"level3":2,"pitch":80,"articulation":"tenuto","articulation_tags":["tenuto","t","short"],"duration":0.125,"velocity":82.41666564479864},
{"position":76.60416666666667,"instrument":"Clarinet","level2":1,"level3":1,"pitch":79,"articulation":"staccato","articulation_tags":["staccato","st","short"],"duration":0.125,"velocity":82.41666564479864},
{"position":76.60416666666667,"instrument":"Clarinet","level2":1,"level3":5,"pitch":80,"articulation":"staccato","articulation_tags":["staccato","st","short"],"duration":0.125,"velocity":82.41666564479864},
{"position":76.625,"instrument":"Viola","level2":1,"level3":2,"pitch":80,"articulation":"pizzicato","articulation_tags":["pizzicato","pz","short"],"duration":0.125,"velocity":82.41666564479864},
{"position":76.625,"instrument":"Viola","level2":1,"level3":1,"pitch":79,"articulation":"collegno","articulation_tags":["collegno","cl","short"],"duration":0.125,"velocity":82.41666564479864},
{"position":76.625,"instrument":"Viola","level2":1,"level3":5,"pitch":80,"articulation":"pizzicato","articulation_tags":["pizzicato","pz","short"],"duration":0.125,"velocity":82.41666564479864},
{"position":76.63541666666667,"instrument":"Violin","level2":1,"level3":0,"pitch":81,"articulation":"pizzicato","articulation_tags":["pizzicato","pz","short"],"duration":0.125,"velocity":82.41666564479864},
{"position":76.64583333333333,"instrument":"TheGrandeurPiano","level2":0,"level3":null,"pitch":77,"articulation":"standard","articulation_tags":["standard","long"],"duration":0.04861111111111111,"velocity":58.41946417450097},
{"position":76.65625,"instrument":"Viola","level2":1,"level3":6,"pitch":80,"articulation":"pizzicato","articulation_tags":["pizzicato","pz","short"],"duration":0.125,"velocity":82.41666564479864},
{"position":76.65625,"instrument":"Violin","level2":1,"level3":6,"pitch":80,"articulation":"pizzicato","articulation_tags":["pizzicato","pz","short"],"duration":0.125,"velocity":82.41666564479864},
{"position":76.65625,"instrument":"TheGrandeurPiano","level2":1,"level3":null,"pitch":77,"articulation":"standard","articulation_tags":["standard","long"],"duration":0.041666666666666664,"velocity":56.94887593920686},
{"position":76.66666666666667,"instrument":"CorAnglais","level2":1,"level3":3,"pitch":79,"articulation":"staccato","articulation_tags":["staccato","st","short"],"duration":0.125,"velocity":81.98080509429718},
{"position":76.6875,"instrument":"Violin","level2":1,"level3":1,"pitch":79,"articulation":"pizzicato","articulation_tags":["pizzicato","pz","short"],"duration":0.125,"velocity":81.98080509429718},
{"position":76.6875,"instrument":"Violin","level2":1,"level3":1,"pitch":80,"articulation":"pizzicato","articulation_tags":["pizzicato","pz","short"],"duration":0.125,"velocity":81.98080509429718},
{"position":76.69791666666667,"instrument":"Piccolo","level2":1,"level3":0,"pitch":80,"articulation":"tenuto","articulation_tags":["tenuto","t","short"],"duration":0.125,"velocity":81.98080509429718},
{"position":76.70833333333333,"instrument":"Violin","level2":1,"level3":3,"pitch":79,"articulation":"collegno","articulation_tags":["collegno","cl","short"],"duration":0.125,"velocity":81.98080509429718},
{"position":76.71875,"instrument":"TheGrandeurPiano","level2":0,"level3":null,"pitch":77,"articulation":"standard","articulation_tags":["standard","long"],"duration":0.027777777777777776,"velocity":58.125346527442154},
{"position":76.71875,"instrument":"TheGrandeurPiano","level2":1,"level3":null,"pitch":77,"articulation":"standard","articulation_tags":["standard","long"],"duration":0.027777777777777776,"velocity":57.24299358626568},
{"position":76.72916666666667,"instrument":"TheGrandeurPiano","level2":1,"level3":null,"pitch":77,"articulation":"standard","articulation_tags":["standard","long"],"duration":0.027777777777777776,"velocity":57.24299358626568},
{"position":76.75,"instrument":"Clarinet","level2":1,"level3":0,"pitch":80,"articulation":"staccato","articulation_tags":["staccato","st","short"],"duration":0.125,"velocity":81.04262727073441},
{"position":76.76041666666667,"instrument":"Clarinet","level2":1,"level3":3,"pitch":80,"articulation":"staccato","articulation_tags":["staccato","st","short"],"duration":0.125,"velocity":81.04262727073441},
{"position":76.76041666666667,"instrument":"TheGrandeurPiano","level2":0,"level3":null,"pitch":77,"articulation":"standard","articulation_tags":["standard","long"],"duration":0.006944444444444444,"velocity":57.831228880383335},
{"position":76.76041666666667,"instrument":"TheGrandeurPiano","level2":1,"level3":null,"pitch":77,"articulation":"standard","articulation_tags":["standard","long"],"duration":0.006944444444444444,"velocity":57.53711123332451},
{"position":76.77083333333333,"instrument":"Viola","level2":1,"level3":0,"pitch":80,"articulation":"pizzicato","articulation_tags":["pizzicato","pz","short"],"duration":0.125,"velocity":80.64259188312342},
{"position":76.77083333333333,"instrument":"TheGrandeurPiano","level2":1,"level3":null,"pitch":77,"articulation":"standard","articulation_tags":["standard","long"],"duration":0.0,"velocity":57.831228880383335},
{"position":76.78125,"instrument":"CorAnglais","level2":1,"level3":3,"pitch":80,"articulation":"tenuto","articulation_tags":["tenuto","t","short"],"duration":0.125,"velocity":80.26547709379095},
{"position":76.8125,"instrument":"TheGrandeurPiano","level2":2,"level3":null,"pitch":87,"articulation":"standard","articulation_tags":["standard","long"],"duration":0.2777777777777778,"velocity":53.506612588793296},
{"position":77.10416666666667,"instrument":"TheGrandeurPiano","level2":2,"level3":null,"pitch":87,"articulation":"standard","articulation_tags":["standard","long"],"duration":0.4027777777777778,"velocity":53.800730235852114},
{"position":77.22916666666667,"instrument":"TheGrandeurPiano","level2":2,"level3":null,"pitch":88,"articulation":"standard","articulation_tags":["standard","long"],"duration":0.3402777777777778,"velocity":53.800730235852114},
{"position":77.39583333333333,"instrument":"Clarinet","level2":2,"level3":0,"pitch":82,"articulation":"long_fltr","articulation_tags":["long_fltr","fltr","long","flutter"],"duration":0.13541666666666666,"velocity":62.686848965474596},
{"position":77.39583333333333,"instrument":"Clarinet","level2":2,"level3":1,"pitch":82,"articulation":"long_fltr","articulation_tags":["long_fltr","fltr","long","flutter"],"duration":0.14583333333333334,"velocity":62.686848965474596},
{"position":77.53125,"instrument":"Clarinet","level2":2,"level3":0,"pitch":82,"articulation":"long_fltr","articulation_tags":["long_fltr","fltr","long","flutter"],"duration":0.65625,"velocity":62.686848965474596},
{"position":77.54166666666667,"instrument":"CorAnglais","level2":2,"level3":1,"pitch":81,"articulation":"legato","articulation_tags":["legato","lg"],"duration":0.6666666666666666,"velocity":62.686848965474596},
{"position":77.70833333333333,"instrument":"TheGrandeurPiano","level2":2,"level3":null,"pitch":88,"articulation":"standard","articulation_tags":["standard","long"],"duration":0.4236111111111111,"velocity":52.9856258376136},
{"position":77.73958333333333,"instrument":"TheGrandeurPiano","level2":2,"level3":null,"pitch":88,"articulation":"standard","articulation_tags":["standard","long"],"duration":0.4166666666666667,"velocity":52.9856258376136},
{"position":78.1875,"instrument":"Clarinet","level2":2,"level3":0,"pitch":83,"articulation":"long_fltr","articulation_tags":["long_fltr","fltr","long","flutter"],"duration":1.2083333333333333,"velocity":63.362000906896874},
{"position":78.20833333333333,"instrument":"CorAnglais","level2":2,"level3":1,"pitch":81,"articulation":"legato","articulation_tags":["legato","lg"],"duration":1.2708333333333333,"velocity":63.362000906896874},
{"position":78.34375,"instrument":"TheGrandeurPiano","level2":2,"level3":null,"pitch":88,"articulation":"standard","articulation_tags":["standard","long"],"duration":0.4375,"velocity":56.381208050146746},
{"position":78.36458333333333,"instrument":"TheGrandeurPiano","level2":2,"level3":null,"pitch":89,"articulation":"standard","articulation_tags":["standard","long"],"duration":0.5277777777777778,"velocity":56.381208050146746},
{"position":78.64583333333333,"instrument":"Clarinet","level2":2,"level3":2,"pitch":82,"articulation":"legato","articulation_tags":["legato","lg"],"duration":0.125,"velocity":64.10289400875135},
{"position":78.64583333333333,"instrument":"Piccolo","level2":2,"level3":3,"pitch":81,"articulation":"legato","articulation_tags":["legato","lg"],"duration":0.020833333333333332,"velocity":64.10289400875135},
{"position":78.66666666666667,"instrument":"Piccolo","level2":2,"level3":3,"pitch":81,"articulation":"legato","articulation_tags":["legato","lg"],"duration":0.5208333333333334,"velocity":64.10289400875135},
{"position":78.77083333333333,"instrument":"Clarinet","level2":2,"level3":2,"pitch":82,"articulation":"legato","articulation_tags":["legato","lg"],"duration":2.6979166666666665,"velocity":64.10289400875135},
{"position":78.77083333333333,"instrument":"Viola","level2":2,"level3":3,"pitch":81,"articulation":"staccato","articulation_tags":["staccato","st","short"],"duration":0.125,"velocity":96.05144700437567},
{"position":78.85416666666667,"instrument":"Violin","level2":2,"level3":2,"pitch":82,"articulation":"staccato","articulation_tags":["staccato","st","short"],"duration":0.125,"velocity":96.05144700437567},
{"position":79.0,"instrument":"TheGrandeurPiano","level2":2,"level3":null,"pitch":89,"articulation":"standard","articulation_tags":["standard","long"],"duration":0.4583333333333333,"velocity":56.36064064508921},
{"position":79.16666666666667,"instrument":"TheGrandeurPiano","level2":2,"level3":null,"pitch":89,"articulation":"standard","articulation_tags":["standard","long"],"duration":0.7083333333333334,"velocity":56.36064064508921},
{"position":79.1875,"instrument":"Piccolo","level2":2,"level3":3,"pitch":81,"articulation":"legato","articulation_tags":["legato","lg"],"duration":1.3541666666666667,"velocity":64.94654700302476},
{"position":79.39583333333333,"instrument":"Clarinet","level2":2,"level3":0,"pitch":83,"articulation":"long_fltr","articulation_tags":["long_fltr","fltr","long","flutter"],"duration":1.9583333333333333,"velocity":64.94654700302476},
{"position":79.47916666666667,"instrument":"CorAnglais","level2":2,"level3":1,"pitch":80,"articulation":"legato","articulation_tags":["legato","lg"],"duration":2.1458333333333335,"velocity":64.94654700302476},
{"position":79.6875,"instrument":"TheGrandeurPiano","level2":2,"level3":null,"pitch":89,"articulation":"standard","articulation_tags":["standard","long"],"duration":0.4791666666666667,"velocity":56.96944334426439},
{"position":79.69791666666667,"instrument":"Viola","level2":2,"level3":1,"pitch":80,"articulation":"staccato","articulation_tags":["staccato","st","short"],"duration":0.125,"velocity":96.28160963617538},
{"position":79.79166666666667,"instrument":"Violin","level2":2,"level3":2,"pitch":83,"articulation":"staccato","articulation_tags":["staccato","st","short"],"duration":0.125,"velocity":96.28160963617538},
{"position":79.94791666666667,"instrument":"Violin","level2":2,"level3":4,"pitch":82,"articulation":"spiccato","articulation_tags":["spiccato","sp","short"],"duration":0.125,"velocity":96.28160963617538},
{"position":79.94791666666667,"instrument":"Viola","level2":2,"level3":5,"pitch":81,"articulation":"spiccato","articulation_tags":["spiccato","sp","short"],"duration":0.125,"velocity":96.28160963617538},
{"position":79.96875,"instrument":"Violin","level2":2,"level3":0,"pitch":83,"articulation":"staccato","articulation_tags":["staccato","st","short"],"duration":0.125,"velocity":96.28160963617538},
{"position":80.03125,"instrument":"Viola","level2":2,"level3":5,"pitch":81,"articulation":"spiccato","articulation_tags":["spiccato","sp","short"],"duration":0.125,"velocity":96.28160963617538},
{"position":80.21875,"instrument":"TheGrandeurPiano","level2":2,"level3":null,"pitch":90,"articulation":"standard","articulation_tags":["standard","long"],"duration":1.0555555555555556,"velocity":57.87881608650321},
{"position":80.25,"instrument":"Violin","level2":2,"level3":4,"pitch":82,"articulation":"spiccato","articulation_tags":["spiccato","sp","short"],"duration":0.125,"velocity":96.92368437688246},
{"position":80.36458333333333,"instrument":"Violin","level2":2,"level3":4,"pitch":82,"articulation":"spiccato","articulation_tags":["spiccato","sp","short"],"duration":0.125,"velocity":96.92368437688246},
{"position":80.40625,"instrument":"TheGrandeurPiano","level2":2,"level3":null,"pitch":90,"articulation":"standard","articulation_tags":["standard","long"],"duration":0.5,"velocity":55.27131847114624},
{"position":80.54166666666667,"instrument":"Piccolo","level2":2,"level3":3,"pitch":80,"articulation":"legato","articulation_tags":["legato","lg"],"duration":2.78125,"velocity":65.50698741162813},
{"position":80.63541666666667,"instrument":"Viola","level2":2,"level3":5,"pitch":81,"articulation":"spiccato","articulation_tags":["spiccato","sp","short"],"duration":0.125,"velocity":96.75349370581407},
{"position":81.15625,"instrument":"TheGrandeurPiano","level2":2,"level3":null,"pitch":90,"articulation":"standard","articulation_tags":["standard","long"],"duration":0.5208333333333334,"velocity":57.24299358626568},
{"position":81.19791666666667,"instrument":"Violin","level2":2,"level3":6,"pitch":82,"articulation":"spiccato","articulation_tags":["spiccato","sp","short"],"duration":0.125,"velocity":96.60021982525042},
{"position":81.19791666666667,"instrument":"Violin","level2":2,"level3":7,"pitch":82,"articulation":"spiccato","articulation_tags":["spiccato","sp","short"],"duration":0.125,"velocity":96.60021982525042},
{"position":81.3125,"instrument":"Viola","level2":2,"level3":5,"pitch":81,"articulation":"spiccato","articulation_tags":["spiccato","sp","short"],"duration":0.125,"velocity":96.60021982525042},
{"position":81.35416666666667,"instrument":"Clarinet","level2":2,"level3":0,"pitch":84,"articulation":"legato","articulation_tags":["legato","lg"],"duration":3.3229166666666665,"velocity":65.20043965050084},
{"position":81.46875,"instrument":"Clarinet","level2":2,"level3":2,"pitch":83,"articulation":"legato","articulation_tags":["legato","lg"],"duration":2.6354166666666665,"velocity":65.20043965050084},
{"position":81.53125,"instrument":"Viola","level2":2,"level3":3,"pitch":80,"articulation":"staccato","articulation_tags":["staccato","st","short"],"duration":0.125,"velocity":96.60021982525042},
{"position":81.625,"instrument":"CorAnglais","level2":2,"level3":1,"pitch":80,"articulation":"legato","articulation_tags":["legato","lg"],"duration":4.114583333333333,"velocity":65.20043965050084},
{"position":81.80208333333333,"instrument":"TheGrandeurPiano","level2":2,"level3":null,"pitch":90,"articulation":"standard","articulation_tags":["standard","long"],"duration":2.4173228346456694,"velocity":59.33048327627179},
{"position":81.85416666666667,"instrument":"Violin","level2":2,"level3":2,"pitch":83,"articulation":"staccato","articulation_tags":["staccato","st","short"],"duration":0.125,"velocity":97.25181674507873},
{"position":81.9375,"instrument":"TheGrandeurPiano","level2":2,"level3":null,"pitch":90,"articulation":"standard","articulation_tags":["standard","long"],"duration":0.5486111111111112,"velocity":57.53711123332451},
{"position":82.42708333333333,"instrument":"Viola","level2":2,"level3":1,"pitch":80,"articulation":"staccato","articulation_tags":["staccato","st","short"],"duration":0.125,"velocity":97.11930673437169},
{"position":82.73958333333333,"instrument":"Vibraphone","level2":2,"level3":0,"pitch":84,"articulation":"hits","articulation_tags":["hits","short"],"duration":0.0625,"velocity":97.11930673437169},
{"position":82.75,"instrument":"Trumpet","level2":2,"level3":4,"pitch":82,"articulation":"long_muted","articulation_tags":["long_muted","muted","mt","long"],"duration":2.2604166666666665,"velocity":66.23861346874338},
{"position":82.75,"instrument":"TheGrandeurPiano","level2":2,"level3":null,"pitch":90,"articulation":"standard","articulation_tags":["standard","long"],"duration":0.5694444444444444,"velocity":60.4720027122054},
{"position":83.32291666666667,"instrument":"Piccolo","level2":2,"level3":3,"pitch":80,"articulation":"legato","articulation_tags":["legato","lg"],"duration":12.135416666666666,"velocity":66.00779338404796},
{"position":83.40625,"instrument":"Violin","level2":2,"level3":7,"pitch":82,"articulation":"spiccato","articulation_tags":["spiccato","sp","short"],"duration":0.125,"velocity":97.00389669202397},
{"position":83.61458333333333,"instrument":"TheGrandeurPiano","level2":2,"level3":null,"pitch":90,"articulation":"standard","articulation_tags":["standard","long"],"duration":0.6041666666666666,"velocity":59.34940432179734},
{"position":83.63541666666667,"instrument":"Viola","level2":2,"level3":5,"pitch":81,"articulation":"spiccato","articulation_tags":["spiccato","sp","short"],"duration":0.125,"velocity":96.90582433562298},
{"position":84.11458333333333,"instrument":"Clarinet","level2":2,"level3":2,"pitch":83,"articulation":"legato","articulation_tags":["legato","lg"],"duration":2.59375,"velocity":65.81164867124596},
{"position":84.34375,"instrument":"Viola","level2":2,"level3":3,"pitch":80,"articulation":"spiccato","articulation_tags":["spiccato","sp","short"],"duration":0.125,"velocity":96.90582433562298},
{"position":84.52083333333333,"instrument":"TheGrandeurPiano","level2":2,"level3":null,"pitch":90,"articulation":"standard","articulation_tags":["standard","long"],"duration":0.6388888888888888,"velocity":58.41946417450097},
{"position":84.66666666666667,"instrument":"Vibraphone","level2":2,"level3":0,"pitch":84,"articulation":"hits","articulation_tags":["hits","short"],"duration":0.0625,"velocity":96.82529514366259},
{"position":85.0,"instrument":"Trumpet","level2":2,"level3":4,"pitch":82,"articulation":"long_muted","articulation_tags":["long_muted","muted","mt","long"],"duration":0.7916666666666666,"velocity":65.65059028732517},
{"position":85.20833333333333,"instrument":"Vibraphone","level2":2,"level3":1,"pitch":80,"articulation":"hits","articulation_tags":["hits","short"],"duration":0.0625,"velocity":96.82529514366259},
{"position":85.44791666666667,"instrument":"Vibraphone","level2":2,"level3":0,"pitch":84,"articulation":"hits","articulation_tags":["hits","short"],"duration":0.0625,"velocity":96.82529514366259},
{"position":85.46875,"instrument":"TheGrandeurPiano","level2":2,"level3":null,"pitch":90,"articulation":"standard","articulation_tags":["standard","long"],"duration":0.6805555555555556,"velocity":62.15461249232001},
{"position":85.73958333333333,"instrument":"Clarinet","level2":2,"level3":1,"pitch":79,"articulation":"legato","articulation_tags":["legato","lg"],"duration":9.875,"velocity":65.52496054252035},
{"position":85.79166666666667,"instrument":"Violin","level2":2,"level3":7,"pitch":82,"articulation":"spiccato","articulation_tags":["spiccato","sp","short"],"duration":0.125,"velocity":96.76248027126017},
{"position":86.48958333333333,"instrument":"TheGrandeurPiano","level2":2,"level3":null,"pitch":90,"articulation":"standard","articulation_tags":["standard","long"],"duration":0.7291666666666666,"velocity":60.2317572629738},
{"position":86.63541666666667,"instrument":"Trumpet","level2":2,"level3":5,"pitch":81,"articulation":"long_muted","articulation_tags":["long_muted","muted","mt","long"],"duration":3.0833333333333335,"velocity":65.43502954305526},
{"position":86.69791666666667,"instrument":"Vibraphone","level2":2,"level3":2,"pitch":83,"articulation":"hits","articulation_tags":["hits","short"],"duration":0.0625,"velocity":96.71751477152763},
{"position":87.19791666666667,"instrument":"Vibraphone","level2":2,"level3":3,"pitch":80,"articulation":"hits","articulation_tags":["hits","short"],"duration":0.0625,"velocity":96.71751477152763},
{"position":87.58333333333333,"instrument":"TheGrandeurPiano","level2":2,"level3":null,"pitch":90,"articulation":"standard","articulation_tags":["standard","long"],"duration":0.7847222222222222,"velocity":61.38930680568355},
{"position":87.9375,"instrument":"Clarinet","level2":2,"level3":8,"pitch":82,"articulation":"legato","articulation_tags":["legato","lg"],"duration":0.0,"velocity":65.3809923293718},
{"position":87.9375,"instrument":"Clarinet","level2":2,"level3":8,"pitch":82,"articulation":"legato","articulation_tags":["legato","lg"],"duration":0.4583333333333333,"velocity":65.3809923293718},
{"position":87.9375,"instrument":"Violin","level2":2,"level3":9,"pitch":82,"articulation":"staccato","articulation_tags":["staccato","st","short"],"duration":0.125,"velocity":96.6904961646859},
{"position":88.03125,"instrument":"CorAnglais","level2":2,"level3":1,"pitch":79,"articulation":"legato","articulation_tags":["legato","lg"],"duration":2.8645833333333335,"velocity":65.3809923293718},
{"position":88.125,"instrument":"Violin","level2":2,"level3":0,"pitch":84,"articulation":"spiccato","articulation_tags":["spiccato","sp","short"],"duration":0.125,"velocity":96.6904961646859},
{"position":88.39583333333333,"instrument":"Vibraphone","level2":2,"level3":8,"pitch":83,"articulation":"hits","articulation_tags":["hits","short"],"duration":0.0625,"velocity":96.6904961646859},
{"position":88.42708333333333,"instrument":"Vibraphone","level2":2,"level3":9,"pitch":81,"articulation":"hits","articulation_tags":["hits","short"],"duration":0.0625,"velocity":96.6904961646859},
{"position":88.76041666666667,"instrument":"TheGrandeurPiano","level2":2,"level3":null,"pitch":90,"articulation":"standard","articulation_tags":["standard","long"],"duration":0.8680555555555556,"velocity":62.236708594558344},
{"position":89.03125,"instrument":"Vibraphone","level2":2,"level3":8,"pitch":83,"articulation":"hits","articulation_tags":["hits","short"],"duration":0.0625,"velocity":96.6814833897316},
{"position":89.19791666666667,"instrument":"Vibraphone","level2":2,"level3":9,"pitch":81,"articulation":"hits","articulation_tags":["hits","short"],"duration":0.0625,"velocity":96.6814833897316},
{"position":89.22916666666667,"instrument":"Vibraphone","level2":2,"level3":2,"pitch":83,"articulation":"hits","articulation_tags":["hits","short"],"duration":0.0625,"velocity":96.6814833897316},
{"position":89.72916666666667,"instrument":"Trumpet","level2":2,"level3":5,"pitch":81,"articulation":"long_muted","articulation_tags":["long_muted","muted","mt","long"],"duration":3.3958333333333335,"velocity":65.36296677946319},
{"position":89.95833333333333,"instrument":"Vibraphone","level2":2,"level3":8,"pitch":83,"articulation":"hits","articulation_tags":["hits","short"],"duration":0.0625,"velocity":96.6814833897316},
{"position":90.0,"instrument":"TheGrandeurPiano","level2":2,"level3":null,"pitch":90,"articulation":"standard","articulation_tags":["standard","long"],"duration":1.5277777777777777,"velocity":63.80538545470108},
{"position":90.0625,"instrument":"TheGrandeurPiano","level2":2,"level3":null,"pitch":90,"articulation":"standard","articulation_tags":["standard","long"],"duration":0.9791666666666666,"velocity":64.10613664187723},
{"position":90.08333333333333,"instrument":"Vibraphone","level2":2,"level3":3,"pitch":80,"articulation":"hits","articulation_tags":["hits","short"],"duration":0.0625,"velocity":96.02367930567618},
{"position":90.26041666666667,"instrument":"Vibraphone","level2":2,"level3":9,"pitch":81,"articulation":"hits","articulation_tags":["hits","short"],"duration":0.0625,"velocity":96.02367930567618},
{"position":90.77083333333333,"instrument":"Vibraphone","level2":2,"level3":0,"pitch":84,"articulation":"hits","articulation_tags":["hits","short"],"duration":0.0625,"velocity":96.02367930567618},
{"position":90.89583333333333,"instrument":"Vibraphone","level2":2,"level3":1,"pitch":79,"articulation":"hits","articulation_tags":["hits","short"],"duration":0.0625,"velocity":96.02367930567618},
{"position":91.27083333333333,"instrument":"Vibraphone","level2":2,"level3":5,"pitch":81,"articulation":"hits","articulation_tags":["hits","short"],"duration":0.0625,"velocity":96.02367930567618},
{"position":91.54166666666667,"instrument":"TheGrandeurPiano","level2":2,"level3":null,"pitch":90,"articulation":"standard","articulation_tags":["standard","long"],"duration":1.1666666666666667,"velocity":63.62520072761413},
{"position":91.65625,"instrument":"Vibraphone","level2":2,"level3":2,"pitch":83,"articulation":"hits","articulation_tags":["hits","short"],"duration":0.0625,"velocity":96.05144700437567},
{"position":91.67708333333333,"instrument":"Vibraphone","level2":2,"level3":8,"pitch":83,"articulation":"hits","articulation_tags":["hits","short"],"duration":0.0625,"velocity":96.05144700437567},
{"position":92.07291666666667,"instrument":"Vibraphone","level2":2,"level3":2,"pitch":83,"articulation":"hits","articulation_tags":["hits","short"],"duration":0.0625,"velocity":96.05144700437567},
{"position":92.13541666666667,"instrument":"Vibraphone","level2":2,"level3":9,"pitch":81,"articulation":"hits","articulation_tags":["hits","short"],"duration":0.0625,"velocity":96.05144700437567},
{"position":92.29166666666667,"instrument":"TheGrandeurPiano","level2":2,"level3":null,"pitch":89,"articulation":"standard","articulation_tags":["standard","long"],"duration":1.1736111111111112,"velocity":64.4198621320733},
{"position":93.03125,"instrument":"Vibraphone","level2":2,"level3":3,"pitch":80,"articulation":"hits","articulation_tags":["hits","short"],"duration":0.0625,"velocity":95.4238464444188},
{"position":93.11458333333333,"instrument":"Trumpet","level2":2,"level3":5,"pitch":81,"articulation":"long_muted","articulation_tags":["long_muted","muted","mt","long"],"duration":0.75,"velocity":62.84769288883761},
{"position":93.16666666666667,"instrument":"Vibraphone","level2":2,"level3":5,"pitch":82,"articulation":"hits","articulation_tags":["hits","short"],"duration":0.0625,"velocity":95.4238464444188},
{"position":93.29166666666667,"instrument":"TheGrandeurPiano","level2":2,"level3":null,"pitch":89,"articulation":"standard","articulation_tags":["standard","long"],"duration":1.5833333333333333,"velocity":63.119061535734815},
{"position":93.375,"instrument":"Vibraphone","level2":2,"level3":0,"pitch":84,"articulation":"hits","articulation_tags":["hits","short"],"duration":0.0625,"velocity":95.46839809866572},
{"position":93.57291666666667,"instrument":"Vibraphone","level2":2,"level3":2,"pitch":82,"articulation":"hits","articulation_tags":["hits","short"],"duration":0.0625,"velocity":95.46839809866572},
{"position":93.77083333333333,"instrument":"Vibraphone","level2":2,"level3":2,"pitch":82,"articulation":"hits","articulation_tags":["hits","short"],"duration":0.0625,"velocity":95.46839809866572},
{"position":93.79166666666667,"instrument":"Vibraphone","level2":2,"level3":1,"pitch":79,"articulation":"hits","articulation_tags":["hits","short"],"duration":0.0625,"velocity":95.46839809866572},
{"position":93.84375,"instrument":"Vibraphone","level2":2,"level3":5,"pitch":82,"articulation":"hits","articulation_tags":["hits","short"],"duration":0.0625,"velocity":95.46839809866572},
{"position":94.0625,"instrument":"TheGrandeurPiano","level2":2,"level3":null,"pitch":89,"articulation":"standard","articulation_tags":["standard","long"],"duration":1.0,"velocity":62.56577739391885},
{"position":94.28125,"instrument":"Clarinet","level2":2,"level3":8,"pitch":83,"articulation":"legato","articulation_tags":["legato","lg"],"duration":2.5729166666666665,"velocity":61.690748412273116},
{"position":94.82291666666667,"instrument":"Vibraphone","level2":2,"level3":8,"pitch":84,"articulation":"hits","articulation_tags":["hits","short"],"duration":0.0625,"velocity":94.84537420613655},
{"position":95.14583333333333,"instrument":"Trumpet","level2":2,"level3":9,"pitch":81,"articulation":"long_muted","articulation_tags":["long_muted","muted","mt","long"],"duration":3.1770833333333335,"velocity":61.690748412273116},
{"position":95.45833333333333,"instrument":"Vibraphone","level2":2,"level3":3,"pitch":80,"articulation":"hits","articulation_tags":["hits","short"],"duration":0.0625,"velocity":94.84537420613655},
{"position":95.5625,"instrument":"TheGrandeurPiano","level2":2,"level3":null,"pitch":88,"articulation":"standard","articulation_tags":["standard","long"],"duration":0.8888888888888888,"velocity":63.119061535734815},
{"position":95.61458333333333,"instrument":"CorAnglais","level2":2,"level3":1,"pitch":80,"articulation":"legato","articulation_tags":["legato","lg"],"duration":4.25,"velocity":60.44498395800112},
{"position":95.66666666666667,"instrument":"TheGrandeurPiano","level2":2,"level3":null,"pitch":88,"articulation":"standard","articulation_tags":["standard","long"],"duration":2.3858267716535435,"velocity":65.04731311246546},
{"position":95.92708333333333,"instrument":"Vibraphone","level2":2,"level3":0,"pitch":84,"articulation":"hits","articulation_tags":["hits","short"],"duration":0.0625,"velocity":94.28844233616238},
{"position":96.03125,"instrument":"Vibraphone","level2":2,"level3":3,"pitch":80,"articulation":"hits","articulation_tags":["hits","short"],"duration":0.0625,"velocity":94.28844233616238},
{"position":96.76041666666667,"instrument":"Vibraphone","level2":2,"level3":1,"pitch":80,"articulation":"hits","articulation_tags":["hits","short"],"duration":0.0625,"velocity":94.28844233616238},
{"position":96.85416666666667,"instrument":"Vibraphone","level2":2,"level3":8,"pitch":84,"articulation":"hits","articulation_tags":["hits","short"],"duration":0.0625,"velocity":94.28844233616238},
{"position":96.88541666666667,"instrument":"TheGrandeurPiano","level2":2,"level3":null,"pitch":88,"articulation":"standard","articulation_tags":["standard","long"],"duration":0.8055555555555556,"velocity":64.22766508984722},
{"position":96.88541666666667,"instrument":"Vibraphone","level2":2,"level3":0,"pitch":84,"articulation":"hits","articulation_tags":["hits","short"],"duration":0.0625,"velocity":93.66775142213163},
{"position":97.05208333333333,"instrument":"Vibraphone","level2":2,"level3":8,"pitch":83,"articulation":"hits","articulation_tags":["hits","short"],"duration":0.0625,"velocity":93.66775142213163},
{"position":97.57291666666667,"instrument":"Vibraphone","level2":2,"level3":10,"pitch":82,"articulation":"hits","articulation_tags":["hits","short"],"duration":0.0625,"velocity":93.66775142213163},
{"position":97.57291666666667,"instrument":"Vibraphone","level2":2,"level3":11,"pitch":82,"articulation":"hits","articulation_tags":["hits","short"],"duration":0.0625,"velocity":93.66775142213163},
{"position":97.59375,"instrument":"Vibraphone","level2":2,"level3":10,"pitch":82,"articulation":"hits","articulation_tags":["hits","short"],"duration":0.0625,"velocity":93.66775142213163},
{"position":97.6875,"instrument":"Vibraphone","level2":2,"level3":10,"pitch":82,"articulation":"hits","articulation_tags":["hits","short"],"duration":0.0625,"velocity":93.66775142213163},
{"position":97.83333333333333,"instrument":"TheGrandeurPiano","level2":3,"level3":null,"pitch":83,"articulation":"standard","articulation_tags":["standard","long"],"duration":0.0,"velocity":54.801671315849426},
{"position":97.83333333333333,"instrument":"TheGrandeurPiano","level2":3,"level3":null,"pitch":83,"articulation":"standard","articulation_tags":["standard","long"],"duration":0.027777777777777776,"velocity":54.801671315849426},
{"position":97.83333333333333,"instrument":"TheGrandeurPiano","level2":3,"level3":null,"pitch":82,"articulation":"standard","articulation_tags":["standard","long"],"duration":0.020833333333333332,"velocity":54.801671315849426},
{"position":97.83333333333333,"instrument":"TheGrandeurPiano","level2":4,"level3":null,"pitch":83,"articulation":"standard","articulation_tags":["standard","long"],"duration":0.0,"velocity":54.5075536687906},
{"position":97.83333333333333,"instrument":"TheGrandeurPiano","level2":4,"level3":null,"pitch":83,"articulation":"standard","articulation_tags":["standard","long"],"duration":0.013888888888888888,"velocity":54.5075536687906},
{"position":97.85416666666667,"instrument":"Marimba","level2":3,"level3":0,"pitch":82,"articulation":"hits","articulation_tags":["hits","short"],"duration":0.0625,"velocity":95.38813983042076},
{"position":97.85416666666667,"instrument":"Marimba","level2":3,"level3":0,"pitch":82,"articulation":"hits","articulation_tags":["hits","short"],"duration":0.0625,"velocity":95.38813983042076},
{"position":97.85416666666667,"instrument":"Marimba","level2":3,"level3":1,"pitch":82,"articulation":"hits","articulation_tags":["hits","short"],"duration":0.0625,"velocity":95.38813983042076},
{"position":97.85416666666667,"instrument":"TheGrandeurPiano","level2":4,"level3":null,"pitch":84,"articulation":"standard","articulation_tags":["standard","long"],"duration":0.027777777777777776,"velocity":54.5075536687906},
{"position":97.86458333333333,"instrument":"TheGrandeurPiano","level2":3,"level3":null,"pitch":82,"articulation":"standard","articulation_tags":["standard","long"],"duration":0.041666666666666664,"velocity":54.801671315849426},
{"position":97.86458333333333,"instrument":"TheGrandeurPiano","level2":4,"level3":null,"pitch":84,"articulation":"standard","articulation_tags":["standard","long"],"duration":0.1111111111111111,"velocity":54.21343602173178},
{"position":97.875,"instrument":"TheGrandeurPiano","level2":3,"level3":null,"pitch":82,"articulation":"standard","articulation_tags":["standard","long"],"duration":0.0625,"velocity":55.095788962908244},
{"position":97.89583333333333,"instrument":"TheGrandeurPiano","level2":4,"level3":null,"pitch":84,"articulation":"standard","articulation_tags":["standard","long"],"duration":0.04861111111111111,"velocity":54.21343602173178},
{"position":97.92708333333333,"instrument":"Marimba","level2":3,"level3":0,"pitch":83,"articulation":"hits","articulation_tags":["hits","short"],"duration":0.0625,"velocity":94.51298648118275},
{"position":97.9375,"instrument":"TheGrandeurPiano","level2":3,"level3":null,"pitch":81,"articulation":"standard","articulation_tags":["standard","long"],"duration":0.06944444444444445,"velocity":55.095788962908244},
{"position":97.94791666666667,"instrument":"Marimba","level2":3,"level3":1,"pitch":81,"articulation":"hits","articulation_tags":["hits","short"],"duration":0.0625,"velocity":94.14686219392514},
{"position":97.96875,"instrument":"TheGrandeurPiano","level2":4,"level3":null,"pitch":85,"articulation":"standard","articulation_tags":["standard","long"],"duration":0.0625,"velocity":54.21343602173178},
{"position":97.96875,"instrument":"TheGrandeurPiano","level2":3,"level3":null,"pitch":81,"articulation":"standard","articulation_tags":["standard","long"],"duration":0.08333333333333333,"velocity":55.38990660996707},
{"position":98.03125,"instrument":"TheGrandeurPiano","level2":4,"level3":null,"pitch":85,"articulation":"standard","articulation_tags":["standard","long"],"duration":0.3402777777777778,"velocity":53.91931837467295},
{"position":98.03125,"instrument":"TheGrandeurPiano","level2":3,"level3":null,"pitch":81,"articulation":"standard","articulation_tags":["standard","long"],"duration":0.09722222222222222,"velocity":55.38990660996707},
{"position":98.0625,"instrument":"TheGrandeurPiano","level2":4,"level3":null,"pitch":85,"articulation":"standard","articulation_tags":["standard","long"],"duration":0.0763888888888889,"velocity":53.91931837467295},
{"position":98.09375,"instrument":"TheGrandeurPiano","level2":2,"level3":null,"pitch":87,"articulation":"standard","articulation_tags":["standard","long"],"duration":0.7430555555555556,"velocity":64.22766508984722},
{"position":98.09375,"instrument":"TheGrandeurPiano","level2":3,"level3":null,"pitch":81,"articulation":"standard","articulation_tags":["standard","long"],"duration":0.10416666666666667,"velocity":55.68402425702589},
{"position":98.14583333333333,"instrument":"Marimba","level2":3,"level3":0,"pitch":83,"articulation":"hits","articulation_tags":["hits","short"],"duration":0.0625,"velocity":92.76521749553362},
{"position":98.17708333333333,"instrument":"TheGrandeurPiano","level2":4,"level3":null,"pitch":86,"articulation":"standard","articulation_tags":["standard","long"],"duration":0.09027777777777778,"velocity":54.687738395877545},
{"position":98.17708333333333,"instrument":"TheGrandeurPiano","level2":3,"level3":null,"pitch":80,"articulation":"standard","articulation_tags":["standard","long"],"duration":0.125,"velocity":56.45244427823049},
{"position":98.20833333333333,"instrument":"Marimba","level2":3,"level3":1,"pitch":81,"articulation":"hits","articulation_tags":["hits","short"],"duration":0.0625,"velocity":92.40662054490926},
{"position":98.23958333333333,"instrument":"TheGrandeurPiano","level2":3,"level3":null,"pitch":80,"articulation":"standard","articulation_tags":["standard","long"],"duration":0.1111111111111111,"velocity":56.74656192528931},
{"position":98.26041666666667,"instrument":"Vibraphone","level2":2,"level3":11,"pitch":82,"articulation":"hits","articulation_tags":["hits","short"],"duration":0.0625,"velocity":93.04735912922865},
{"position":98.28125,"instrument":"Marimba","level2":3,"level3":2,"pitch":82,"articulation":"hits","articulation_tags":["hits","short"],"duration":0.0625,"velocity":91.89284300535789},
{"position":98.28125,"instrument":"Marimba","level2":3,"level3":2,"pitch":82,"articulation":"hits","articulation_tags":["hits","short"],"duration":0.0625,"velocity":91.89284300535789},
{"position":98.28125,"instrument":"Marimba","level2":3,"level3":3,"pitch":82,"articulation":"hits","articulation_tags":["hits","short"],"duration":0.0625,"velocity":91.89284300535789},
{"position":98.3125,"instrument":"TheGrandeurPiano","level2":4,"level3":null,"pitch":86,"articulation":"standard","articulation_tags":["standard","long"],"duration":0.10416666666666667,"velocity":54.687738395877545},
{"position":98.32291666666667,"instrument":"Trumpet","level2":2,"level3":9,"pitch":81,"articulation":"long_muted","articulation_tags":["long_muted","muted","mt","long"],"duration":2.21875,"velocity":58.09471825845729},
{"position":98.34375,"instrument":"Marimba","level2":3,"level3":3,"pitch":81,"articulation":"hits","articulation_tags":["hits","short"],"duration":0.0625,"velocity":91.89284300535789},
{"position":98.36458333333333,"instrument":"TheGrandeurPiano","level2":3,"level3":null,"pitch":80,"articulation":"standard","articulation_tags":["standard","long"],"duration":0.1736111111111111,"velocity":56.74656192528931},
{"position":98.375,"instrument":"Marimba","level2":3,"level3":2,"pitch":83,"articulation":"hits","articulation_tags":["hits","short"],"duration":0.0625,"velocity":91.53858525328175},
{"position":98.40625,"instrument":"Vibraphone","level2":2,"level3":0,"pitch":84,"articulation":"hits","articulation_tags":["hits","short"],"duration":0.0625,"velocity":93.04735912922865},
{"position":98.41666666666667,"instrument":"TheGrandeurPiano","level2":3,"level3":null,"pitch":80,"articulation":"standard","articulation_tags":["standard","long"],"duration":0.125,"velocity":57.04067957234814},
{"position":98.46875,"instrument":"TheGrandeurPiano","level2":4,"level3":null,"pitch":87,"articulation":"standard","articulation_tags":["standard","long"],"duration":0.11805555555555555,"velocity":54.687738395877545},
{"position":98.53125,"instrument":"TheGrandeurPiano","level2":4,"level3":null,"pitch":87,"articulation":"standard","articulation_tags":["standard","long"],"duration":1.9236111111111112,"velocity":54.39362074881872},
{"position":98.58333333333333,"instrument":"Marimba","level2":3,"level3":0,"pitch":84,"articulation":"hits","articulation_tags":["hits","short"],"duration":0.0625,"velocity":91.0216757238477},
{"position":98.58333333333333,"instrument":"Marimba","level2":3,"level3":3,"pitch":81,"articulation":"hits","articulation_tags":["hits","short"],"duration":0.0625,"velocity":91.0216757238477},
{"position":98.59375,"instrument":"Vibraphone","level2":3,"level3":2,"pitch":83,"articulation":"hits","articulation_tags":["hits","short"],"duration":0.0625,"velocity":91.0216757238477},
{"position":98.59375,"instrument":"TheGrandeurPiano","level2":3,"level3":null,"pitch":80,"articulation":"standard","articulation_tags":["standard","long"],"duration":0.13194444444444445,"velocity":57.33479721940696},
{"position":98.625,"instrument":"TheGrandeurPiano","level2":3,"level3":null,"pitch":79,"articulation":"standard","articulation_tags":["standard","long"],"duration":0.24305555555555555,"velocity":57.33479721940696},
{"position":98.65625,"instrument":"Piccolo","level2":3,"level3":4,"pitch":82,"articulation":"long_fltr","articulation_tags":["long_fltr","fltr","long","flutter"],"duration":0.052083333333333336,"velocity":52.303810244835866},
{"position":98.65625,"instrument":"Clarinet","level2":3,"level3":5,"pitch":82,"articulation":"long_fltr","articulation_tags":["long_fltr","fltr","long","flutter"],"duration":0.010416666666666666,"velocity":52.303810244835866},
{"position":98.65625,"instrument":"TheGrandeurPiano","level2":4,"level3":null,"pitch":87,"articulation":"standard","articulation_tags":["standard","long"],"duration":0.1388888888888889,"velocity":51.4082278512091},
{"position":98.66666666666667,"instrument":"Clarinet","level2":3,"level3":5,"pitch":82,"articulation":"long_fltr","articulation_tags":["long_fltr","fltr","long","flutter"],"duration":0.15625,"velocity":52.303810244835866},
{"position":98.67708333333333,"instrument":"Clarinet","level2":3,"level3":2,"pitch":83,"articulation":"legato","articulation_tags":["legato","lg"],"duration":0.7708333333333334,"velocity":52.303810244835866},
{"position":98.6875,"instrument":"Viola","level2":2,"level3":3,"pitch":81,"articulation":"short_hrm","articulation_tags":["short_hrm","hrm_s","short","harmonics"],"duration":0.125,"velocity":93.04735912922865},
{"position":98.6875,"instrument":"Viola","level2":3,"level3":1,"pitch":80,"articulation":"short_marcato","articulation_tags":["short_marcato","marcato_s","short","marcato"],"duration":0.125,"velocity":90.15190512241793},
{"position":98.69791666666667,"instrument":"Violin","level2":3,"level3":6,"pitch":82,"articulation":"spiccato","articulation_tags":["spiccato","sp","short"],"duration":0.125,"velocity":90.15190512241793},
{"position":98.69791666666667,"instrument":"Violin","level2":3,"level3":6,"pitch":82,"articulation":"spiccato","articulation_tags":["spiccato","sp","short"],"duration":0.125,"velocity":90.15190512241793},
{"position":98.69791666666667,"instrument":"Violin","level2":3,"level3":7,"pitch":82,"articulation":"spiccato","articulation_tags":["spiccato","sp","short"],"duration":0.125,"velocity":90.15190512241793},
{"position":98.70833333333333,"instrument":"Piccolo","level2":3,"level3":4,"pitch":83,"articulation":"long_fltr","articulation_tags":["long_fltr","fltr","long","flutter"],"duration":0.2604166666666667,"velocity":52.303810244835866},
{"position":98.76041666666667,"instrument":"Viola","level2":2,"level3":9,"pitch":81,"articulation":"spiccato","articulation_tags":["spiccato","sp","short"],"duration":0.125,"velocity":93.04735912922865},
{"position":98.78125,"instrument":"Viola","level2":3,"level3":7,"pitch":81,"articulation":"spiccato","articulation_tags":["spiccato","sp","short"],"duration":0.125,"velocity":90.15190512241793},
{"position":98.79166666666667,"instrument":"TheGrandeurPiano","level2":3,"level3":null,"pitch":79,"articulation":"standard","articulation_tags":["standard","long"],"duration":0.13194444444444445,"velocity":54.643521968856156},
{"position":98.82291666666667,"instrument":"Marimba","level2":3,"level3":5,"pitch":81,"articulation":"hits","articulation_tags":["hits","short"],"duration":0.0625,"velocity":89.63904842672491},
{"position":98.84375,"instrument":"Marimba","level2":3,"level3":6,"pitch":83,"articulation":"hits","articulation_tags":["hits","short"],"duration":0.0625,"velocity":89.63904842672491},
{"position":98.85416666666667,"instrument":"TheGrandeurPiano","level2":4,"level3":null,"pitch":88,"articulation":"standard","articulation_tags":["standard","long"],"duration":0.1527777777777778,"velocity":52.82494388867599},
{"position":98.89583333333333,"instrument":"Marimba","level2":3,"level3":0,"pitch":84,"articulation":"hits","articulation_tags":["hits","short"],"duration":0.0625,"velocity":89.63904842672491},
{"position":98.96875,"instrument":"Marimba","level2":3,"level3":4,"pitch":83,"articulation":"hits","articulation_tags":["hits","short"],"duration":0.0625,"velocity":89.63904842672491},
{"position":99.0,"instrument":"TheGrandeurPiano","level2":3,"level3":null,"pitch":79,"articulation":"standard","articulation_tags":["standard","long"],"duration":0.1388888888888889,"velocity":56.35435565338187},
{"position":99.0,"instrument":"TheGrandeurPiano","level2":3,"level3":null,"pitch":79,"articulation":"standard","articulation_tags":["standard","long"],"duration":0.4027777777777778,"velocity":56.35435565338187},
{"position":99.08333333333333,"instrument":"TheGrandeurPiano","level2":4,"level3":null,"pitch":88,"articulation":"standard","articulation_tags":["standard","long"],"duration":0.16666666666666666,"velocity":52.82494388867599},
{"position":99.10416666666667,"instrument":"Marimba","level2":3,"level3":3,"pitch":81,"articulation":"hits","articulation_tags":["hits","short"],"duration":0.0625,"velocity":88.7673597808564},
{"position":99.11458333333333,"instrument":"Marimba","level2":3,"level3":3,"pitch":80,"articulation":"hits","articulation_tags":["hits","short"],"duration":0.0625,"velocity":88.7673597808564},
{"position":99.125,"instrument":"Clarinet","level2":3,"level3":8,"pitch":82,"articulation":"legato","articulation_tags":["legato","lg"],"duration":0.0,"velocity":49.5347195617128},
{"position":99.125,"instrument":"Clarinet","level2":3,"level3":8,"pitch":82,"articulation":"legato","articulation_tags":["legato","lg"],"duration":0.23958333333333334,"velocity":49.5347195617128},
{"position":99.125,"instrument":"Vibraphone","level2":3,"level3":9,"pitch":82,"articulation":"hits","articulation_tags":["hits","short"],"duration":0.0625,"velocity":88.7673597808564},
{"position":99.125,"instrument":"Vibraphone","level2":3,"level3":7,"pitch":81,"articulation":"hits","articulation_tags":["hits","short"],"duration":0.0625,"velocity":88.7673597808564},
{"position":99.17708333333333,"instrument":"Vibraphone","level2":2,"level3":3,"pitch":81,"articulation":"hits","articulation_tags":["hits","short"],"duration":0.0625,"velocity":93.04735912922865},
{"position":99.20833333333333,"instrument":"TheGrandeurPiano","level2":2,"level3":null,"pitch":87,"articulation":"standard","articulation_tags":["standard","long"],"duration":0.6458333333333334,"velocity":63.413179182793634},
{"position":99.20833333333333,"instrument":"TheGrandeurPiano","level2":3,"level3":null,"pitch":79,"articulation":"standard","articulation_tags":["standard","long"],"duration":0.1388888888888889,"velocity":56.6484733004407},
{"position":99.23958333333333,"instrument":"Marimba","level2":3,"level3":9,"pitch":81,"articulation":"hits","articulation_tags":["hits","short"],"duration":0.0625,"velocity":88.24334930090482},
{"position":99.29166666666667,"instrument":"Marimba","level2":3,"level3":5,"pitch":81,"articulation":"hits","articulation_tags":["hits","short"],"duration":0.0625,"velocity":88.24334930090482},
{"position":99.33333333333333,"instrument":"TheGrandeurPiano","level2":4,"level3":null,"pitch":89,"articulation":"standard","articulation_tags":["standard","long"],"duration":0.18055555555555555,"velocity":52.82494388867599},
{"position":99.34375,"instrument":"Marimba","level2":3,"level3":6,"pitch":83,"articulation":"hits","articulation_tags":["hits","short"],"duration":0.0625,"velocity":88.24334930090482},
{"position":99.36458333333333,"instrument":"Marimba","level2":3,"level3":8,"pitch":83,"articulation":"hits","articulation_tags":["hits","short"],"duration":0.0625,"velocity":88.24334930090482},
{"position":99.375,"instrument":"Vibraphone","level2":2,"level3":8,"pitch":83,"articulation":"hits","articulation_tags":["hits","short"],"duration":0.0625,"velocity":92.42729482177488},
{"position":99.41666666666667,"instrument":"TheGrandeurPiano","level2":3,"level3":null,"pitch":79,"articulation":"standard","articulation_tags":["standard","long"],"duration":0.14583333333333334,"velocity":56.942590947499525},
{"position":99.4375,"instrument":"Marimba","level2":3,"level3":2,"pitch":84,"articulation":"hits","articulation_tags":["hits","short"],"duration":0.0625,"velocity":87.71147071133218},
{"position":99.44791666666667,"instrument":"Marimba","level2":3,"level3":4,"pitch":83,"articulation":"hits","articulation_tags":["hits","short"],"duration":0.0625,"velocity":87.71147071133218},
{"position":99.47916666666667,"instrument":"Clarinet","level2":3,"level3":10,"pitch":82,"articulation":"legato","articulation_tags":["legato","lg"],"duration":0.10416666666666667,"velocity":47.42294142266436},
{"position":99.47916666666667,"instrument":"Clarinet","level2":3,"level3":11,"pitch":82,"articulation":"legato","articulation_tags":["legato","lg"],"duration":0.010416666666666666,"velocity":47.42294142266436},
{"position":99.48958333333333,"instrument":"Marimba","level2":3,"level3":11,"pitch":82,"articulation":"hits","articulation_tags":["hits","short"],"duration":0.0625,"velocity":87.71147071133218},
{"position":99.53125,"instrument":"Marimba","level2":3,"level3":8,"pitch":83,"articulation":"hits","articulation_tags":["hits","short"],"duration":0.0625,"velocity":87.71147071133218},
{"position":99.54166666666667,"instrument":"Clarinet","level2":3,"level3":12,"pitch":82,"articulation":"legato","articulation_tags":["legato","lg"],"duration":0.010416666666666666,"velocity":47.42294142266436},
{"position":99.54166666666667,"instrument":"Clarinet","level2":3,"level3":13,"pitch":82,"articulation":"legato","articulation_tags":["legato","lg"],"duration":0.2916666666666667,"velocity":47.42294142266436},
{"position":99.55208333333333,"instrument":"Marimba","level2":3,"level3":12,"pitch":82,"articulation":"hits","articulation_tags":["hits","short"],"duration":0.0625,"velocity":87.71147071133218},
{"position":99.58333333333333,"instrument":"Clarinet","level2":3,"level3":10,"pitch":83,"articulation":"legato","articulation_tags":["legato","lg"],"duration":1.6145833333333333,"velocity":47.42294142266436},
{"position":99.60416666666667,"instrument":"TheGrandeurPiano","level2":3,"level3":null,"pitch":78,"articulation":"standard","articulation_tags":["standard","long"],"duration":1.0138888888888888,"velocity":58.760960649729796},
{"position":99.61458333333333,"instrument":"TheGrandeurPiano","level2":4,"level3":null,"pitch":89,"articulation":"standard","articulation_tags":["standard","long"],"duration":0.2013888888888889,"velocity":54.64331359090627},
{"position":99.63541666666667,"instrument":"TheGrandeurPiano","level2":3,"level3":null,"pitch":78,"articulation":"standard","articulation_tags":["standard","long"],"duration":0.14583333333333334,"velocity":59.05507829678862},
{"position":99.67708333333333,"instrument":"Marimba","level2":3,"level3":1,"pitch":80,"articulation":"hits","articulation_tags":["hits","short"],"duration":0.0625,"velocity":86.77585975252698},
{"position":99.67708333333333,"instrument":"Marimba","level2":3,"level3":4,"pitch":84,"articulation":"hits","articulation_tags":["hits","short"],"duration":0.0625,"velocity":86.77585975252698},
{"position":99.70833333333333,"instrument":"Vibraphone","level2":3,"level3":0,"pitch":84,"articulation":"hits","articulation_tags":["hits","short"],"duration":0.0625,"velocity":86.77585975252698},
{"position":99.73958333333333,"instrument":"Vibraphone","level2":2,"level3":10,"pitch":82,"articulation":"hits","articulation_tags":["hits","short"],"duration":0.0625,"velocity":92.42729482177488},
{"position":99.76041666666667,"instrument":"Vibraphone","level2":2,"level3":0,"pitch":83,"articulation":"hits","articulation_tags":["hits","short"],"duration":0.0625,"velocity":92.42729482177488},
{"position":99.8125,"instrument":"Vibraphone","level2":2,"level3":1,"pitch":80,"articulation":"hits","articulation_tags":["hits","short"],"duration":0.0625,"velocity":92.42729482177488},
{"position":99.83333333333333,"instrument":"Piccolo","level2":3,"level3":13,"pitch":81,"articulation":"legato","articulation_tags":["legato","lg"],"duration":0.5416666666666666,"velocity":45.55171950505396},
{"position":99.85416666666667,"instrument":"TheGrandeurPiano","level2":3,"level3":null,"pitch":78,"articulation":"standard","articulation_tags":["standard","long"],"duration":0.14583333333333334,"velocity":56.977542099801205},
{"position":99.86458333333333,"instrument":"Clarinet","level2":3,"level3":6,"pitch":83,"articulation":"legato","articulation_tags":["legato","lg"],"duration":1.3541666666666667,"velocity":44.50388189534897},
{"position":99.86458333333333,"instrument":"CorAnglais","level2":2,"level3":1,"pitch":80,"articulation":"legato","articulation_tags":["legato","lg"],"duration":2.2604166666666665,"velocity":56.854589643549765},
{"position":99.91666666666667,"instrument":"TheGrandeurPiano","level2":4,"level3":null,"pitch":90,"articulation":"standard","articulation_tags":["standard","long"],"duration":0.2152777777777778,"velocity":52.27165974686003},
{"position":99.92708333333333,"instrument":"Violin","level2":3,"level3":14,"pitch":82,"articulation":"short_hrm","articulation_tags":["short_hrm","hrm_s","short","harmonics"],"duration":0.125,"velocity":86.25194094767448},
{"position":99.92708333333333,"instrument":"Violin","level2":3,"level3":15,"pitch":82,"articulation":"short_hrm","articulation_tags":["short_hrm","hrm_s","short","harmonics"],"duration":0.125,"velocity":86.25194094767448},
{"position":99.92708333333333,"instrument":"Viola","level2":3,"level3":11,"pitch":81,"articulation":"spiccato","articulation_tags":["spiccato","sp","short"],"duration":0.125,"velocity":86.25194094767448},
{"position":99.96875,"instrument":"Viola","level2":3,"level3":9,"pitch":81,"articulation":"short_hrm","articulation_tags":["short_hrm","hrm_s","short","harmonics"],"duration":0.125,"velocity":86.25194094767448},
{"position":100.03125,"instrument":"Violin","level2":3,"level3":10,"pitch":83,"articulation":"spiccato","articulation_tags":["spiccato","sp","short"],"duration":0.125,"velocity":86.25194094767448},
{"position":100.0625,"instrument":"TheGrandeurPiano","level2":3,"level3":null,"pitch":78,"articulation":"standard","articulation_tags":["standard","long"],"duration":0.14583333333333334,"velocity":57.271659746860024},
{"position":100.09375,"instrument":"Viola","level2":3,"level3":5,"pitch":81,"articulation":"spiccato","articulation_tags":["spiccato","sp","short"],"duration":0.125,"velocity":85.74090423892483},
{"position":100.10416666666667,"instrument":"Violin","level2":2,"level3":10,"pitch":82,"articulation":"spiccato","articulation_tags":["spiccato","sp","short"],"duration":0.125,"velocity":92.42729482177488},
{"position":100.17708333333333,"instrument":"TheGrandeurPiano","level2":2,"level3":null,"pitch":86,"articulation":"standard","articulation_tags":["standard","long"],"duration":0.2361111111111111,"velocity":62.859895040977676},
{"position":100.21875,"instrument":"Violin","level2":3,"level3":15,"pitch":82,"articulation":"short_hrm","articulation_tags":["short_hrm","hrm_s","short","harmonics"],"duration":0.125,"velocity":85.74090423892483},
{"position":100.22916666666667,"instrument":"Violin","level2":3,"level3":16,"pitch":82,"articulation":"spiccato","articulation_tags":["spiccato","sp","short"],"duration":0.125,"velocity":85.74090423892483},
{"position":100.22916666666667,"instrument":"Violin","level2":3,"level3":17,"pitch":82,"articulation":"short_marcato","articulation_tags":["short_marcato","marcato_s","short","marcato"],"duration":0.125,"velocity":85.74090423892483},
{"position":100.23958333333333,"instrument":"TheGrandeurPiano","level2":4,"level3":null,"pitch":90,"articulation":"standard","articulation_tags":["standard","long"],"duration":0.2361111111111111,"velocity":52.27165974686003},
{"position":100.25,"instrument":"Violin","level2":3,"level3":2,"pitch":84,"articulation":"short_hrm","articulation_tags":["short_hrm","hrm_s","short","harmonics"],"duration":0.125,"velocity":85.74090423892483},
{"position":100.28125,"instrument":"TheGrandeurPiano","level2":3,"level3":null,"pitch":78,"articulation":"standard","articulation_tags":["standard","long"],"duration":0.1388888888888889,"velocity":57.56577739391885},
{"position":100.375,"instrument":"Marimba","level2":3,"level3":13,"pitch":82,"articulation":"hits","articulation_tags":["hits","short"],"duration":0.0625,"velocity":85.2442994072634},
{"position":100.38541666666667,"instrument":"Marimba","level2":3,"level3":11,"pitch":82,"articulation":"hits","articulation_tags":["hits","short"],"duration":0.0625,"velocity":85.2442994072634},
{"position":100.39583333333333,"instrument":"Marimba","level2":3,"level3":0,"pitch":84,"articulation":"hits","articulation_tags":["hits","short"],"duration":0.0625,"velocity":85.2442994072634},
{"position":100.40625,"instrument":"Vibraphone","level2":2,"level3":9,"pitch":82,"articulation":"hits","articulation_tags":["hits","short"],"duration":0.0625,"velocity":91.80759182565899},
{"position":100.48958333333333,"instrument":"TheGrandeurPiano","level2":3,"level3":null,"pitch":78,"articulation":"standard","articulation_tags":["standard","long"],"duration":0.1388888888888889,"velocity":60.23154888502391},
{"position":100.51041666666667,"instrument":"Marimba","level2":3,"level3":11,"pitch":82,"articulation":"hits","articulation_tags":["hits","short"],"duration":0.0625,"velocity":84.76387976054544},
{"position":100.52083333333333,"instrument":"Marimba","level2":3,"level3":7,"pitch":81,"articulation":"hits","articulation_tags":["hits","short"],"duration":0.0625,"velocity":84.76387976054544},
{"position":100.52083333333333,"instrument":"Vibraphone","level2":3,"level3":8,"pitch":82,"articulation":"hits","articulation_tags":["hits","short"],"duration":0.0625,"velocity":84.76387976054544},
{"position":100.53125,"instrument":"Trumpet","level2":2,"level3":3,"pitch":81,"articulation":"long_muted","articulation_tags":["long_muted","muted","mt","long"],"duration":1.0625,"velocity":55.61518365131796},
{"position":100.53125,"instrument":"TheGrandeurPiano","level2":2,"level3":null,"pitch":86,"articulation":"standard","articulation_tags":["standard","long"],"duration":0.2152777777777778,"velocity":65.3136521440255},
{"position":100.55208333333333,"instrument":"Vibraphone","level2":3,"level3":16,"pitch":82,"articulation":"hits","articulation_tags":["hits","short"],"duration":0.0625,"velocity":84.76387976054544},
{"position":100.57291666666667,"instrument":"Vibraphone","level2":4,"level3":0,"pitch":88,"articulation":"hits","articulation_tags":["hits","short"],"duration":0.0625,"velocity":104.63178891922215},
{"position":100.57291666666667,"instrument":"Vibraphone","level2":4,"level3":1,"pitch":87,"articulation":"hits","articulation_tags":["hits","short"],"duration":0.0625,"velocity":104.63178891922215},
{"position":100.59375,"instrument":"TheGrandeurPiano","level2":4,"level3":null,"pitch":91,"articulation":"standard","articulation_tags":["standard","long"],"duration":0.2569444444444444,"velocity":54.64331359090627},
{"position":100.60416666666667,"instrument":"Marimba","level2":3,"level3":2,"pitch":83,"articulation":"hits","articulation_tags":["hits","short"],"duration":0.0625,"velocity":84.76387976054544},
{"position":100.60416666666667,"instrument":"Vibraphone","level2":4,"level3":0,"pitch":88,"articulation":"hits","articulation_tags":["hits","short"],"duration":0.0625,"velocity":105.13920697039399},
{"position":100.625,"instrument":"Marimba","level2":3,"level3":6,"pitch":83,"articulation":"hits","articulation_tags":["hits","short"],"duration":0.0625,"velocity":84.76387976054544},
{"position":100.63541666666667,"instrument":"Marimba","level2":3,"level3":0,"pitch":84,"articulation":"hits","articulation_tags":["hits","short"],"duration":0.0625,"velocity":84.76387976054544},
{"position":100.67708333333333,"instrument":"Vibraphone","level2":3,"level3":16,"pitch":82,"articulation":"hits","articulation_tags":["hits","short"],"duration":0.0625,"velocity":84.76387976054544},
{"position":100.69791666666667,"instrument":"TheGrandeurPiano","level2":3,"level3":null,"pitch":78,"articulation":"standard","articulation_tags":["standard","long"],"duration":0.13194444444444445,"velocity":58.70729682985246},
{"position":100.71875,"instrument":"Marimba","level2":3,"level3":13,"pitch":82,"articulation":"hits","articulation_tags":["hits","short"],"duration":0.0625,"velocity":84.3016220606238},
{"position":100.73958333333333,"instrument":"Vibraphone","level2":4,"level3":1,"pitch":87,"articulation":"hits","articulation_tags":["hits","short"],"duration":0.0625,"velocity":105.13920697039399},
{"position":100.76041666666667,"instrument":"Vibraphone","level2":2,"level3":0,"pitch":83,"articulation":"hits","articulation_tags":["hits","short"],"duration":0.0625,"velocity":91.1882881161713},
{"position":100.85416666666667,"instrument":"TheGrandeurPiano","level2":2,"level3":null,"pitch":85,"articulation":"standard","articulation_tags":["standard","long"],"duration":0.1875,"velocity":63.413179182793634},
{"position":100.875,"instrument":"TheGrandeurPiano","level2":2,"level3":null,"pitch":85,"articulation":"standard","articulation_tags":["standard","long"],"duration":0.4513888888888889,"velocity":63.119061535734815},
{"position":100.90625,"instrument":"TheGrandeurPiano","level2":3,"level3":null,"pitch":78,"articulation":"standard","articulation_tags":["standard","long"],"duration":0.13194444444444445,"velocity":59.00141447691128},
{"position":100.9375,"instrument":"Marimba","level2":3,"level3":4,"pitch":83,"articulation":"hits","articulation_tags":["hits","short"],"duration":0.0625,"velocity":83.85974369534958},
{"position":100.9375,"instrument":"Marimba","level2":3,"level3":5,"pitch":81,"articulation":"hits","articulation_tags":["hits","short"],"duration":0.0625,"velocity":83.85974369534958},
{"position":100.97916666666667,"instrument":"TheGrandeurPiano","level2":4,"level3":null,"pitch":91,"articulation":"standard","articulation_tags":["standard","long"],"duration":0.2777777777777778,"velocity":52.82494388867599},
{"position":101.05208333333333,"instrument":"Marimba","level2":3,"level3":3,"pitch":80,"articulation":"hits","articulation_tags":["hits","short"],"duration":0.0625,"velocity":83.85974369534958},
{"position":101.0625,"instrument":"Marimba","level2":3,"level3":9,"pitch":82,"articulation":"hits","articulation_tags":["hits","short"],"duration":0.0625,"velocity":83.85974369534958},
{"position":101.10416666666667,"instrument":"Vibraphone","level2":4,"level3":1,"pitch":87,"articulation":"hits","articulation_tags":["hits","short"],"duration":0.0625,"velocity":105.65219734677208},
{"position":101.10416666666667,"instrument":"TheGrandeurPiano","level2":3,"level3":null,"pitch":78,"articulation":"standard","articulation_tags":["standard","long"],"duration":0.125,"velocity":59.295532123970105},
{"position":101.11458333333333,"instrument":"Marimba","level2":3,"level3":6,"pitch":82,"articulation":"hits","articulation_tags":["hits","short"],"duration":0.0625,"velocity":83.44071421196126},
{"position":101.125,"instrument":"TheGrandeurPiano","level2":3,"level3":null,"pitch":79,"articulation":"standard","articulation_tags":["standard","long"],"duration":0.3472222222222222,"velocity":59.295532123970105},
{"position":101.13541666666667,"instrument":"TheGrandeurPiano","level2":2,"level3":null,"pitch":85,"articulation":"standard","articulation_tags":["standard","long"],"duration":0.16666666666666666,"velocity":63.119061535734815},
{"position":101.19791666666667,"instrument":"Marimba","level2":3,"level3":10,"pitch":82,"articulation":"hits","articulation_tags":["hits","short"],"duration":0.0625,"velocity":83.97665665900438},
{"position":101.19791666666667,"instrument":"Marimba","level2":3,"level3":4,"pitch":83,"articulation":"hits","articulation_tags":["hits","short"],"duration":0.0625,"velocity":83.97665665900438},
{"position":101.22916666666667,"instrument":"Clarinet","level2":3,"level3":9,"pitch":82,"articulation":"legato","articulation_tags":["legato","lg"],"duration":0.0,"velocity":39.95331331800875},
{"position":101.25,"instrument":"Vibraphone","level2":2,"level3":0,"pitch":83,"articulation":"hits","articulation_tags":["hits","short"],"duration":0.0625,"velocity":89.86764118960298},
{"position":101.26041666666667,"instrument":"Marimba","level2":3,"level3":7,"pitch":81,"articulation":"hits","articulation_tags":["hits","short"],"duration":0.0625,"velocity":83.97665665900438},
{"position":101.29166666666667,"instrument":"TheGrandeurPiano","level2":3,"level3":null,"pitch":79,"articulation":"standard","articulation_tags":["standard","long"],"duration":0.11805555555555555,"velocity":59.58964977102893},
{"position":101.34375,"instrument":"Vibraphone","level2":3,"level3":5,"pitch":82,"articulation":"hits","articulation_tags":["hits","short"],"duration":0.0625,"velocity":83.60220950054499},
{"position":101.36458333333333,"instrument":"Marimba","level2":3,"level3":2,"pitch":83,"articulation":"hits","articulation_tags":["hits","short"],"duration":0.0625,"velocity":83.60220950054499},
{"position":101.375,"instrument":"Marimba","level2":3,"level3":3,"pitch":81,"articulation":"hits","articulation_tags":["hits","short"],"duration":0.0625,"velocity":83.60220950054499},
{"position":101.38541666666667,"instrument":"TheGrandeurPiano","level2":2,"level3":null,"pitch":84,"articulation":"standard","articulation_tags":["standard","long"],"duration":0.14583333333333334,"velocity":64.73358762226938},
{"position":101.39583333333333,"instrument":"TheGrandeurPiano","level2":4,"level3":null,"pitch":92,"articulation":"standard","articulation_tags":["standard","long"],"duration":0.2986111111111111,"velocity":54.39362074881872},
{"position":101.40625,"instrument":"Glockenspiel","level2":4,"level3":0,"pitch":88,"articulation":"hits","articulation_tags":["hits","short"],"duration":0.0625,"velocity":106.17050908293766},
{"position":101.40625,"instrument":"Clarinet","level2":3,"level3":10,"pitch":82,"articulation":"legato","articulation_tags":["legato","lg"],"duration":0.010416666666666666,"velocity":39.20441900108998},
{"position":101.42708333333333,"instrument":"TheGrandeurPiano","level2":4,"level3":null,"pitch":92,"articulation":"standard","articulation_tags":["standard","long"],"duration":1.1944444444444444,"velocity":54.687738395877545},
{"position":101.45833333333333,"instrument":"Marimba","level2":3,"level3":1,"pitch":81,"articulation":"hits","articulation_tags":["hits","short"],"duration":0.0625,"velocity":83.60220950054499},
{"position":101.46875,"instrument":"TheGrandeurPiano","level2":3,"level3":null,"pitch":79,"articulation":"standard","articulation_tags":["standard","long"],"duration":0.1111111111111111,"velocity":61.45244427823049},
{"position":101.46875,"instrument":"Glockenspiel","level2":4,"level3":0,"pitch":88,"articulation":"hits","articulation_tags":["hits","short"],"duration":0.0625,"velocity":105.75781454594558},
{"position":101.51041666666667,"instrument":"Marimba","level2":3,"level3":1,"pitch":81,"articulation":"hits","articulation_tags":["hits","short"],"duration":0.0625,"velocity":83.25613409180355},
{"position":101.53125,"instrument":"Marimba","level2":3,"level3":0,"pitch":83,"articulation":"hits","articulation_tags":["hits","short"],"duration":0.0625,"velocity":83.25613409180355},
{"position":101.55208333333333,"instrument":"TheGrandeurPiano","level2":2,"level3":null,"pitch":84,"articulation":"standard","articulation_tags":["standard","long"],"duration":0.22916666666666666,"velocity":64.4198621320733},
{"position":101.59375,"instrument":"Trumpet","level2":2,"level3":3,"pitch":82,"articulation":"long_muted","articulation_tags":["long_muted","muted","mt","long"],"duration":0.4583333333333333,"velocity":50.36867166827055},
{"position":101.60416666666667,"instrument":"TheGrandeurPiano","level2":2,"level3":null,"pitch":84,"articulation":"standard","articulation_tags":["standard","long"],"duration":0.125,"velocity":64.4198621320733},
{"position":101.625,"instrument":"Marimba","level2":3,"level3":7,"pitch":82,"articulation":"hits","articulation_tags":["hits","short"],"duration":0.0625,"velocity":83.25613409180355},
{"position":101.63541666666667,"instrument":"TheGrandeurPiano","level2":3,"level3":null,"pitch":79,"articulation":"standard","articulation_tags":["standard","long"],"duration":0.10416666666666667,"velocity":61.746561925289306},
{"position":101.63541666666667,"instrument":"TheGrandeurPiano","level2":3,"level3":null,"pitch":79,"articulation":"standard","articulation_tags":["standard","long"],"duration":0.18055555555555555,"velocity":61.746561925289306},
{"position":101.65625,"instrument":"Marimba","level2":3,"level3":2,"pitch":82,"articulation":"hits","articulation_tags":["hits","short"],"duration":0.0625,"velocity":83.5419255644871},
{"position":101.6875,"instrument":"Glockenspiel","level2":4,"level3":2,"pitch":87,"articulation":"hits","articulation_tags":["hits","short"],"duration":0.0625,"velocity":105.75781454594558},
{"position":101.6875,"instrument":"Glockenspiel","level2":4,"level3":3,"pitch":87,"articulation":"hits","articulation_tags":["hits","short"],"duration":0.0625,"velocity":105.75781454594558},
{"position":101.69791666666667,"instrument":"Marimba","level2":3,"level3":4,"pitch":83,"articulation":"hits","articulation_tags":["hits","short"],"duration":0.0625,"velocity":83.5419255644871},
{"position":101.72916666666667,"instrument":"Marimba","level2":3,"level3":7,"pitch":82,"articulation":"hits","articulation_tags":["hits","short"],"duration":0.0625,"velocity":83.5419255644871},
{"position":101.73958333333333,"instrument":"Glockenspiel","level2":4,"level3":3,"pitch":87,"articulation":"hits","articulation_tags":["hits","short"],"duration":0.0625,"velocity":105.75781454594558},
{"position":101.76041666666667,"instrument":"Glockenspiel","level2":4,"level3":2,"pitch":87,"articulation":"hits","articulation_tags":["hits","short"],"duration":0.0625,"velocity":105.75781454594558},
{"position":101.79166666666667,"instrument":"TheGrandeurPiano","level2":2,"level3":null,"pitch":83,"articulation":"standard","articulation_tags":["standard","long"],"duration":0.10416666666666667,"velocity":64.4198621320733},
{"position":101.79166666666667,"instrument":"TheGrandeurPiano","level2":3,"level3":null,"pitch":79,"articulation":"standard","articulation_tags":["standard","long"],"duration":0.09027777777777778,"velocity":62.04067957234813},
{"position":101.80208333333333,"instrument":"Vibraphone","level2":2,"level3":8,"pitch":83,"articulation":"hits","articulation_tags":["hits","short"],"duration":0.0625,"velocity":87.90044032590495},
{"position":101.85416666666667,"instrument":"TheGrandeurPiano","level2":4,"level3":null,"pitch":92,"articulation":"standard","articulation_tags":["standard","long"],"duration":0.3263888888888889,"velocity":54.687738395877545},
{"position":101.875,"instrument":"Vibraphone","level2":2,"level3":8,"pitch":83,"articulation":"hits","articulation_tags":["hits","short"],"duration":0.0625,"velocity":87.90044032590495},
{"position":101.89583333333333,"instrument":"Marimba","level2":3,"level3":1,"pitch":81,"articulation":"hits","articulation_tags":["hits","short"],"duration":0.0625,"velocity":83.27679911391276},
{"position":101.90625,"instrument":"Marimba","level2":3,"level3":3,"pitch":81,"articulation":"hits","articulation_tags":["hits","short"],"duration":0.0625,"velocity":83.27679911391276},
{"position":101.90625,"instrument":"TheGrandeurPiano","level2":2,"level3":null,"pitch":83,"articulation":"standard","articulation_tags":["standard","long"],"duration":0.125,"velocity":64.10613664187723},
{"position":101.91666666666667,"instrument":"TheGrandeurPiano","level2":3,"level3":null,"pitch":80,"articulation":"standard","articulation_tags":["standard","long"],"duration":0.1111111111111111,"velocity":62.04067957234813},
{"position":101.92708333333333,"instrument":"TheGrandeurPiano","level2":3,"level3":null,"pitch":80,"articulation":"standard","articulation_tags":["standard","long"],"duration":0.0763888888888889,"velocity":62.334797219406965},
{"position":101.94791666666667,"instrument":"TheGrandeurPiano","level2":2,"level3":null,"pitch":83,"articulation":"standard","articulation_tags":["standard","long"],"duration":0.08333333333333333,"velocity":64.10613664187723},
{"position":101.95833333333333,"instrument":"Vibraphone","level2":2,"level3":0,"pitch":82,"articulation":"hits","articulation_tags":["hits","short"],"duration":0.0625,"velocity":87.1906294036259},
{"position":101.95833333333333,"instrument":"Marimba","level2":3,"level3":0,"pitch":83,"articulation":"hits","articulation_tags":["hits","short"],"duration":0.0625,"velocity":83.68208254114955},
{"position":102.01041666666667,"instrument":"Marimba","level2":3,"level3":4,"pitch":82,"articulation":"hits","articulation_tags":["hits","short"],"duration":0.0625,"velocity":83.68208254114955},
{"position":102.04166666666667,"instrument":"TheGrandeurPiano","level2":3,"level3":null,"pitch":80,"articulation":"standard","articulation_tags":["standard","long"],"duration":0.0625,"velocity":61.86049484526119},
{"position":102.0625,"instrument":"Trumpet","level2":2,"level3":3,"pitch":82,"articulation":"long_muted","articulation_tags":["long_muted","muted","mt","long"],"duration":0.03125,"velocity":46.38125880725181},
{"position":102.07291666666667,"instrument":"TheGrandeurPiano","level2":2,"level3":null,"pitch":82,"articulation":"standard","articulation_tags":["standard","long"],"duration":0.05555555555555555,"velocity":63.3310830805553},
{"position":102.08333333333333,"instrument":"TheGrandeurPiano","level2":3,"level3":null,"pitch":80,"articulation":"standard","articulation_tags":["standard","long"],"duration":0.0625,"velocity":61.86049484526119},
{"position":102.09375,"instrument":"Trumpet","level2":3,"level3":1,"pitch":82,"articulation":"sforzando","articulation_tags":["sforzando","sfz","long"],"duration":0.041666666666666664,"velocity":40.299652781586445},
{"position":102.09375,"instrument":"TheGrandeurPiano","level2":2,"level3":null,"pitch":82,"articulation":"standard","articulation_tags":["standard","long"],"duration":0.0625,"velocity":63.036965433496476},
{"position":102.125,"instrument":"Marimba","level2":2,"level3":1,"pitch":81,"articulation":"hits","articulation_tags":["hits","short"],"duration":0.0625,"velocity":86.50840949146928},
{"position":102.125,"instrument":"TheGrandeurPiano","level2":3,"level3":null,"pitch":80,"articulation":"standard","articulation_tags":["standard","long"],"duration":0.041666666666666664,"velocity":62.15461249232001},
{"position":102.13541666666667,"instrument":"Trumpet","level2":3,"level3":4,"pitch":82,"articulation":"sforzando","articulation_tags":["sforzando","sfz","long"],"duration":0.010416666666666666,"velocity":40.03072774796442},
{"position":102.15625,"instrument":"Trumpet","level2":3,"level3":3,"pitch":82,"articulation":"sforzando","articulation_tags":["sforzando","sfz","long"],"duration":0.08333333333333333,"velocity":40.03072774796442},
{"position":102.15625,"instrument":"TheGrandeurPiano","level2":2,"level3":null,"pitch":82,"articulation":"standard","articulation_tags":["standard","long"],"duration":0.034722222222222224,"velocity":63.036965433496476},
{"position":102.16666666666667,"instrument":"Glockenspiel","level2":4,"level3":1,"pitch":87,"articulation":"hits","articulation_tags":["hits","short"],"duration":0.0625,"velocity":106.28750945637536},
{"position":102.17708333333333,"instrument":"Marimba","level2":3,"level3":0,"pitch":82,"articulation":"hits","articulation_tags":["hits","short"],"duration":0.0625,"velocity":84.01536387398221},
{"position":102.17708333333333,"instrument":"TheGrandeurPiano","level2":3,"level3":null,"pitch":81,"articulation":"standard","articulation_tags":["standard","long"],"duration":0.027777777777777776,"velocity":62.15461249232001},
{"position":102.1875,"instrument":"TheGrandeurPiano","level2":2,"level3":null,"pitch":82,"articulation":"standard","articulation_tags":["standard","long"],"duration":0.020833333333333332,"velocity":62.74284778643766},
{"position":102.1875,"instrument":"TheGrandeurPiano","level2":3,"level3":null,"pitch":81,"articulation":"standard","articulation_tags":["standard","long"],"duration":0.013888888888888888,"velocity":62.44873013937884},
{"position":102.19791666666667,"instrument":"TheGrandeurPiano","level2":2,"level3":null,"pitch":81,"articulation":"standard","articulation_tags":["standard","long"],"duration":0.006944444444444444,"velocity":62.74284778643766},
{"position":102.20833333333333,"instrument":"TheGrandeurPiano","level2":3,"level3":null,"pitch":81,"articulation":"standard","articulation_tags":["standard","long"],"duration":0.0,"velocity":62.44873013937884},
{"position":102.20833333333333,"instrument":"TheGrandeurPiano","level2":2,"level3":null,"pitch":81,"articulation":"standard","articulation_tags":["standard","long"],"duration":0.0,"velocity":62.44873013937884},
{"position":102.23958333333333,"instrument":"Trumpet","level2":3,"level3":3,"pitch":82,"articulation":"sforzando","articulation_tags":["sforzando","sfz","long"],"duration":0.0,"velocity":42.488598814526796},
{"position":102.34375,"instrument":"TheGrandeurPiano","level2":4,"level3":null,"pitch":93,"articulation":"standard","articulation_tags":["standard","long"],"duration":0.3541666666666667,"velocity":53.91931837467295},
{"position":102.36458333333333,"instrument":"Glockenspiel","level2":4,"level3":3,"pitch":87,"articulation":"hits","articulation_tags":["hits","short"],"duration":0.0625,"velocity":106.82192590315978},
{"position":102.79166666666667,"instrument":"Glockenspiel","level2":4,"level3":4,"pitch":87,"articulation":"hits","articulation_tags":["hits","short"],"duration":0.0625,"velocity":106.82192590315978},
{"position":102.79166666666667,"instrument":"Glockenspiel","level2":4,"level3":5,"pitch":86,"articulation":"hits","articulation_tags":["hits","short"],"duration":0.0625,"velocity":106.82192590315978},
{"position":102.80208333333333,"instrument":"Vibraphone","level2":4,"level3":4,"pitch":87,"articulation":"hits","articulation_tags":["hits","short"],"duration":0.0625,"velocity":106.82192590315978},
{"position":102.875,"instrument":"TheGrandeurPiano","level2":4,"level3":null,"pitch":93,"articulation":"standard","articulation_tags":["standard","long"],"duration":0.3888888888888889,"velocity":53.65629818587176},
{"position":103.02083333333333,"instrument":"Glockenspiel","level2":4,"level3":2,"pitch":87,"articulation":"hits","articulation_tags":["hits","short"],"duration":0.0625,"velocity":107.36084981403607},
{"position":103.03125,"instrument":"Glockenspiel","level2":4,"level3":4,"pitch":87,"articulation":"hits","articulation_tags":["hits","short"],"duration":0.0625,"velocity":107.36084981403607},
{"position":103.11458333333333,"instrument":"Trumpet","level2":2,"level3":1,"pitch":81,"articulation":"long_muted","articulation_tags":["long_muted","muted","mt","long"],"duration":1.0833333333333333,"velocity":42.488598814526796},
{"position":103.125,"instrument":"Glockenspiel","level2":4,"level3":0,"pitch":88,"articulation":"hits","articulation_tags":["hits","short"],"duration":0.0625,"velocity":107.36084981403607},
{"position":103.20833333333333,"instrument":"TheGrandeurPiano","level2":4,"level3":null,"pitch":93,"articulation":"standard","articulation_tags":["standard","long"],"duration":0.9652777777777778,"velocity":54.21343602173178},
{"position":103.34375,"instrument":"Glockenspiel","level2":4,"level3":3,"pitch":86,"articulation":"hits","articulation_tags":["hits","short"],"duration":0.0625,"velocity":106.97493400399335},
{"position":103.45833333333333,"instrument":"Marimba","level2":2,"level3":1,"pitch":81,"articulation":"hits","articulation_tags":["hits","short"],"duration":0.0625,"velocity":85.2442994072634},
{"position":103.45833333333333,"instrument":"TheGrandeurPiano","level2":4,"level3":null,"pitch":94,"articulation":"standard","articulation_tags":["standard","long"],"duration":0.4305555555555556,"velocity":54.21343602173178},
{"position":103.48958333333333,"instrument":"Marimba","level2":2,"level3":8,"pitch":82,"articulation":"hits","articulation_tags":["hits","short"],"duration":0.0625,"velocity":85.2442994072634},
{"position":103.75,"instrument":"Glockenspiel","level2":4,"level3":6,"pitch":86,"articulation":"hits","articulation_tags":["hits","short"],"duration":0.0625,"velocity":107.52406426115826},
{"position":103.96875,"instrument":"Marimba","level2":2,"level3":8,"pitch":82,"articulation":"hits","articulation_tags":["hits","short"],"duration":0.0625,"velocity":85.2442994072634},
{"position":104.09375,"instrument":"TheGrandeurPiano","level2":4,"level3":null,"pitch":94,"articulation":"standard","articulation_tags":["standard","long"],"duration":0.4722222222222222,"velocity":54.98185604293637},
{"position":104.10416666666667,"instrument":"Marimba","level2":2,"level3":1,"pitch":82,"articulation":"hits","articulation_tags":["hits","short"],"duration":0.0625,"velocity":85.2442994072634},
{"position":104.13541666666667,"instrument":"Marimba","level2":2,"level3":8,"pitch":82,"articulation":"hits","articulation_tags":["hits","short"],"duration":0.0625,"velocity":85.2442994072634},
{"position":104.26041666666667,"instrument":"Glockenspiel","level2":4,"level3":5,"pitch":86,"articulation":"hits","articulation_tags":["hits","short"],"duration":0.0625,"velocity":108.07717050656352},
{"position":104.45833333333333,"instrument":"Glockenspiel","level2":4,"level3":1,"pitch":86,"articulation":"hits","articulation_tags":["hits","short"],"duration":0.0625,"velocity":108.07717050656352},
{"position":104.55208333333333,"instrument":"Glockenspiel","level2":4,"level3":4,"pitch":86,"articulation":"hits","articulation_tags":["hits","short"],"duration":0.0625,"velocity":108.07717050656352},
{"position":104.65625,"instrument":"TheGrandeurPiano","level2":4,"level3":null,"pitch":94,"articulation":"standard","articulation_tags":["standard","long"],"duration":0.8819444444444444,"velocity":56.495213000837005},
{"position":104.80208333333333,"instrument":"TheGrandeurPiano","level2":4,"level3":null,"pitch":95,"articulation":"standard","articulation_tags":["standard","long"],"duration":0.5277777777777778,"velocity":56.495213000837005},
{"position":104.84375,"instrument":"Glockenspiel","level2":4,"level3":5,"pitch":86,"articulation":"hits","articulation_tags":["hits","short"],"duration":0.0625,"velocity":108.27397889761167},
{"position":105.57291666666667,"instrument":"Glockenspiel","level2":4,"level3":2,"pitch":87,"articulation":"hits","articulation_tags":["hits","short"],"duration":0.0625,"velocity":108.27397889761167},
{"position":105.59375,"instrument":"TheGrandeurPiano","level2":4,"level3":null,"pitch":95,"articulation":"standard","articulation_tags":["standard","long"],"duration":0.5972222222222222,"velocity":55.52566653208274},
{"position":105.64583333333333,"instrument":"Glockenspiel","level2":4,"level3":0,"pitch":88,"articulation":"hits","articulation_tags":["hits","short"],"duration":0.0625,"velocity":108.83998574044543},
{"position":105.69791666666667,"instrument":"Glockenspiel","level2":4,"level3":1,"pitch":86,"articulation":"hits","articulation_tags":["hits","short"],"duration":0.0625,"velocity":108.83998574044543},
{"position":105.80208333333333,"instrument":"Glockenspiel","level2":4,"level3":4,"pitch":86,"articulation":"hits","articulation_tags":["hits","short"],"duration":0.0625,"velocity":108.83998574044543},
{"position":105.97916666666667,"instrument":"TheGrandeurPiano","level2":4,"level3":null,"pitch":95,"articulation":"standard","articulation_tags":["standard","long"],"duration":0.8333333333333334,"velocity":55.81978417914156},
{"position":106.11458333333333,"instrument":"Glockenspiel","level2":4,"level3":3,"pitch":86,"articulation":"hits","articulation_tags":["hits","short"],"duration":0.0625,"velocity":108.49411969800326},
{"position":106.48958333333333,"instrument":"TheGrandeurPiano","level2":4,"level3":null,"pitch":96,"articulation":"standard","articulation_tags":["standard","long"],"duration":0.6944444444444444,"velocity":58.387547728624654},
{"position":106.69791666666667,"instrument":"Glockenspiel","level2":4,"level3":0,"pitch":88,"articulation":"hits","articulation_tags":["hits","short"],"duration":0.0625,"velocity":109.06877033171696},
{"position":107.22916666666667,"instrument":"TheGrandeurPiano","level2":4,"level3":null,"pitch":96,"articulation":"standard","articulation_tags":["standard","long"],"duration":0.8055555555555556,"velocity":57.08344829495465},
{"position":107.41666666666667,"instrument":"Glockenspiel","level2":4,"level3":1,"pitch":86,"articulation":"hits","articulation_tags":["hits","short"],"duration":0.0625,"velocity":108.73717346453166},
{"position":107.53125,"instrument":"TheGrandeurPiano","level2":4,"level3":null,"pitch":96,"articulation":"standard","articulation_tags":["standard","long"],"duration":0.8333333333333334,"velocity":58.90097142029994},
{"position":107.63541666666667,"instrument":"Glockenspiel","level2":4,"level3":5,"pitch":86,"articulation":"hits","articulation_tags":["hits","short"],"duration":0.0625,"velocity":109.320005796061},
{"position":107.71875,"instrument":"Glockenspiel","level2":4,"level3":4,"pitch":86,"articulation":"hits","articulation_tags":["hits","short"],"duration":0.0625,"velocity":109.320005796061},
{"position":107.83333333333333,"instrument":"Glockenspiel","level2":4,"level3":6,"pitch":86,"articulation":"hits","articulation_tags":["hits","short"],"duration":0.0625,"velocity":109.320005796061},
{"position":108.42708333333333,"instrument":"TheGrandeurPiano","level2":4,"level3":null,"pitch":96,"articulation":"standard","articulation_tags":["standard","long"],"duration":0.7847222222222222,"velocity":58.53075115416327},
{"position":108.73958333333333,"instrument":"Glockenspiel","level2":4,"level3":1,"pitch":86,"articulation":"hits","articulation_tags":["hits","short"],"duration":0.0625,"velocity":109.00268868551422},
{"position":108.79166666666667,"instrument":"TheGrandeurPiano","level2":4,"level3":null,"pitch":85,"articulation":"standard","articulation_tags":["standard","long"],"duration":1.0972222222222223,"velocity":58.3048969031249},
{"position":108.88541666666667,"instrument":"Glockenspiel","level2":4,"level3":2,"pitch":87,"articulation":"hits","articulation_tags":["hits","short"],"duration":0.0625,"velocity":109.59324201892625},
{"position":108.98958333333333,"instrument":"Glockenspiel","level2":4,"level3":5,"pitch":85,"articulation":"hits","articulation_tags":["hits","short"],"duration":0.0625,"velocity":109.59324201892625},
{"position":109.08333333333333,"instrument":"Glockenspiel","level2":4,"level3":0,"pitch":88,"articulation":"hits","articulation_tags":["hits","short"],"duration":0.0625,"velocity":109.59324201892625},
{"position":109.61458333333333,"instrument":"TheGrandeurPiano","level2":4,"level3":null,"pitch":85,"articulation":"standard","articulation_tags":["standard","long"],"duration":0.7777777777777778,"velocity":58.824868801222095},
{"position":109.77083333333333,"instrument":"Glockenspiel","level2":4,"level3":3,"pitch":85,"articulation":"hits","articulation_tags":["hits","short"],"duration":0.0625,"velocity":109.29018557092687},
{"position":109.83333333333333,"instrument":"Glockenspiel","level2":4,"level3":2,"pitch":87,"articulation":"hits","articulation_tags":["hits","short"],"duration":0.0625,"velocity":109.29018557092687},
{"position":110.4375,"instrument":"TheGrandeurPiano","level2":4,"level3":null,"pitch":85,"articulation":"standard","articulation_tags":["standard","long"],"duration":2.0277777777777777,"velocity":60.55594793512769},
{"position":110.77083333333333,"instrument":"TheGrandeurPiano","level2":4,"level3":null,"pitch":85,"articulation":"standard","articulation_tags":["standard","long"],"duration":0.7708333333333334,"velocity":62.268998455877515},
{"position":111.20833333333333,"instrument":"Glockenspiel","level2":4,"level3":7,"pitch":88,"articulation":"hits","articulation_tags":["hits","short"],"duration":0.0625,"velocity":109.59915988468805},
{"position":111.20833333333333,"instrument":"Glockenspiel","level2":4,"level3":8,"pitch":87,"articulation":"hits","articulation_tags":["hits","short"],"duration":0.0625,"velocity":109.59915988468805},
{"position":111.21875,"instrument":"Vibraphone","level2":4,"level3":8,"pitch":87,"articulation":"hits","articulation_tags":["hits","short"],"duration":0.0625,"velocity":109.59915988468805},
{"position":111.28125,"instrument":"Glockenspiel","level2":4,"level3":1,"pitch":85,"articulation":"hits","articulation_tags":["hits","short"],"duration":0.0625,"velocity":109.59915988468805},
{"position":111.77083333333333,"instrument":"Violin","level2":4,"level3":8,"pitch":87,"articulation":"long_slt","articulation_tags":["long_slt","slt","long","sultasto"],"duration":2.375,"velocity":91.19831976937608},
{"position":111.89583333333333,"instrument":"Glockenspiel","level2":4,"level3":7,"pitch":88,"articulation":"hits","articulation_tags":["hits","short"],"duration":0.0625,"velocity":109.59915988468805},
{"position":111.92708333333333,"instrument":"TheGrandeurPiano","level2":4,"level3":null,"pitch":85,"articulation":"standard","articulation_tags":["standard","long"],"duration":0.7708333333333334,"velocity":59.41310409533974},
{"position":112.10416666666667,"instrument":"Violin","level2":4,"level3":7,"pitch":88,"articulation":"long_cs","articulation_tags":["long_cs","cs","long","consordina"],"duration":2.125,"velocity":90.64001159212198},
{"position":113.08333333333333,"instrument":"TheGrandeurPiano","level2":4,"level3":null,"pitch":85,"articulation":"standard","articulation_tags":["standard","long"],"duration":0.7708333333333334,"velocity":62.85723374999517},
{"position":113.09375,"instrument":"Violin","level2":4,"level3":2,"pitch":86,"articulation":"long_hrm","articulation_tags":["long_hrm","hrm","long","harmonics"],"duration":2.875,"velocity":90.1015195062358},
{"position":113.35416666666667,"instrument":"Violin","level2":4,"level3":0,"pitch":87,"articulation":"long_hrm","articulation_tags":["long_hrm","hrm","long","harmonics"],"duration":4.479166666666667,"velocity":90.1015195062358},
{"position":113.47916666666667,"instrument":"TheGrandeurPiano","level2":4,"level3":null,"pitch":86,"articulation":"standard","articulation_tags":["standard","long"],"duration":1.9166666666666667,"velocity":61.438300876304154},
{"position":113.79166666666667,"instrument":"Glockenspiel","level2":4,"level3":5,"pitch":85,"articulation":"hits","articulation_tags":["hits","short"],"duration":0.0625,"velocity":109.66419503962393},
{"position":113.875,"instrument":"Glockenspiel","level2":4,"level3":0,"pitch":87,"articulation":"hits","articulation_tags":["hits","short"],"duration":0.0625,"velocity":109.66419503962393},
{"position":113.9375,"instrument":"Glockenspiel","level2":4,"level3":7,"pitch":88,"articulation":"hits","articulation_tags":["hits","short"],"duration":0.0625,"velocity":109.66419503962393},
{"position":114.14583333333333,"instrument":"Glockenspiel","level2":4,"level3":8,"pitch":86,"articulation":"hits","articulation_tags":["hits","short"],"duration":0.0625,"velocity":109.66419503962393},
{"position":114.1875,"instrument":"Glockenspiel","level2":4,"level3":3,"pitch":85,"articulation":"hits","articulation_tags":["hits","short"],"duration":0.0625,"velocity":109.66419503962393},
{"position":114.22916666666667,"instrument":"Glockenspiel","level2":4,"level3":7,"pitch":87,"articulation":"hits","articulation_tags":["hits","short"],"duration":0.0625,"velocity":109.66419503962393},
{"position":114.23958333333333,"instrument":"TheGrandeurPiano","level2":4,"level3":null,"pitch":86,"articulation":"standard","articulation_tags":["standard","long"],"duration":0.7777777777777778,"velocity":60.66567730265288},
{"position":114.5,"instrument":"Violin","level2":4,"level3":3,"pitch":85,"articulation":"long_slt","articulation_tags":["long_slt","slt","long","sultasto"],"duration":7.802083333333333,"velocity":90.81864769506633},
{"position":114.72916666666667,"instrument":"Violin","level2":4,"level3":8,"pitch":86,"articulation":"long_slt","articulation_tags":["long_slt","slt","long","sultasto"],"duration":1.7604166666666667,"velocity":90.81864769506633},
{"position":115.39583333333333,"instrument":"TheGrandeurPiano","level2":4,"level3":null,"pitch":86,"articulation":"standard","articulation_tags":["standard","long"],"duration":0.7847222222222222,"velocity":63.44546904411281},
{"position":115.9375,"instrument":"Violin","level2":4,"level3":1,"pitch":85,"articulation":"legato","articulation_tags":["legato","lg"],"duration":6.135416666666667,"velocity":90.32935868303828},
{"position":115.96875,"instrument":"Violin","level2":4,"level3":2,"pitch":86,"articulation":"long_hrm","articulation_tags":["long_hrm","hrm","long","harmonics"],"duration":1.5520833333333333,"velocity":90.32935868303828},
{"position":116.35416666666667,"instrument":"TheGrandeurPiano","level2":4,"level3":null,"pitch":85,"articulation":"standard","articulation_tags":["standard","long"],"duration":2.0277777777777777,"velocity":60.95979494971171},
{"position":116.5,"instrument":"Violin","level2":4,"level3":8,"pitch":86,"articulation":"long_slt","articulation_tags":["long_slt","slt","long","sultasto"],"duration":7.78125,"velocity":89.08571955884045},
{"position":116.57291666666667,"instrument":"TheGrandeurPiano","level2":4,"level3":null,"pitch":85,"articulation":"standard","articulation_tags":["standard","long"],"duration":0.7986111111111112,"velocity":62.32065381748062},
{"position":116.6875,"instrument":"Violin","level2":4,"level3":5,"pitch":85,"articulation":"long_cs","articulation_tags":["long_cs","cs","long","consordina"],"duration":0.8854166666666666,"velocity":88.60926766655176},
{"position":117.22916666666667,"instrument":"Violin","level2":4,"level3":7,"pitch":87,"articulation":"long_hrm","articulation_tags":["long_hrm","hrm","long","harmonics"],"duration":5.333333333333333,"velocity":88.60926766655176},
{"position":117.48958333333333,"instrument":"Glockenspiel","level2":4,"level3":2,"pitch":86,"articulation":"hits","articulation_tags":["hits","short"],"duration":0.0625,"velocity":108.30463383327589},
{"position":117.52083333333333,"instrument":"Glockenspiel","level2":4,"level3":2,"pitch":85,"articulation":"hits","articulation_tags":["hits","short"],"duration":0.0625,"velocity":108.30463383327589},
{"position":117.73958333333333,"instrument":"Violin","level2":4,"level3":8,"pitch":86,"articulation":"long_slt","articulation_tags":["long_slt","slt","long","sultasto"],"duration":5.395833333333333,"velocity":88.60926766655176},
{"position":117.77083333333333,"instrument":"TheGrandeurPiano","level2":4,"level3":null,"pitch":85,"articulation":"standard","articulation_tags":["standard","long"],"duration":0.8194444444444444,"velocity":63.23282004263072},
{"position":117.83333333333333,"instrument":"Violin","level2":4,"level3":0,"pitch":87,"articulation":"long_hrm","articulation_tags":["long_hrm","hrm","long","harmonics"],"duration":3.5729166666666665,"velocity":88.15434101312704},
{"position":118.0625,"instrument":"Violin","level2":4,"level3":1,"pitch":85,"articulation":"long_slt","articulation_tags":["long_slt","slt","long","sultasto"],"duration":5.083333333333333,"velocity":88.15434101312704},
{"position":118.33333333333333,"instrument":"TheGrandeurPiano","level2":5,"level3":null,"pitch":74,"articulation":"standard","articulation_tags":["standard","long"],"duration":0.006944444444444444,"velocity":57.05634945439543},
{"position":118.33333333333333,"instrument":"TheGrandeurPiano","level2":5,"level3":null,"pitch":74,"articulation":"standard","articulation_tags":["standard","long"],"duration":0.020833333333333332,"velocity":57.05634945439543},
{"position":118.33333333333333,"instrument":"TheGrandeurPiano","level2":6,"level3":null,"pitch":75,"articulation":"standard","articulation_tags":["standard","long"],"duration":0.0,"velocity":56.76223180733661},
{"position":118.33333333333333,"instrument":"TheGrandeurPiano","level2":6,"level3":null,"pitch":75,"articulation":"standard","articulation_tags":["standard","long"],"duration":0.020833333333333332,"velocity":56.76223180733661},
{"position":118.33333333333333,"instrument":"TheGrandeurPiano","level2":6,"level3":null,"pitch":75,"articulation":"standard","articulation_tags":["standard","long"],"duration":0.020833333333333332,"velocity":56.468114160277786},
{"position":118.35416666666667,"instrument":"TheGrandeurPiano","level2":6,"level3":null,"pitch":75,"articulation":"standard","articulation_tags":["standard","long"],"duration":0.05555555555555555,"velocity":56.468114160277786},
{"position":118.36458333333333,"instrument":"TheGrandeurPiano","level2":6,"level3":null,"pitch":75,"articulation":"standard","articulation_tags":["standard","long"],"duration":0.041666666666666664,"velocity":56.17399651321897},
{"position":118.375,"instrument":"TheGrandeurPiano","level2":5,"level3":null,"pitch":74,"articulation":"standard","articulation_tags":["standard","long"],"duration":0.041666666666666664,"velocity":57.35046710145426},
{"position":118.375,"instrument":"TheGrandeurPiano","level2":5,"level3":null,"pitch":74,"articulation":"standard","articulation_tags":["standard","long"],"duration":0.1111111111111111,"velocity":57.35046710145426},
{"position":118.42708333333333,"instrument":"TheGrandeurPiano","level2":6,"level3":null,"pitch":75,"articulation":"standard","articulation_tags":["standard","long"],"duration":0.06944444444444445,"velocity":55.879878866160134},
{"position":118.4375,"instrument":"TheGrandeurPiano","level2":5,"level3":null,"pitch":74,"articulation":"standard","articulation_tags":["standard","long"],"duration":0.0625,"velocity":57.64458474851308},
{"position":118.4375,"instrument":"TheGrandeurPiano","level2":6,"level3":null,"pitch":76,"articulation":"standard","articulation_tags":["standard","long"],"duration":0.0763888888888889,"velocity":55.879878866160134},
{"position":118.51041666666667,"instrument":"Trumpet","level2":5,"level3":0,"pitch":83,"articulation":"staccato","articulation_tags":["staccato","st","short"],"duration":0.25,"velocity":96.82529514366259},
{"position":118.51041666666667,"instrument":"Violin","level2":5,"level3":1,"pitch":83,"articulation":"pizzicato","articulation_tags":["pizzicato","pz","short"],"duration":0.125,"velocity":96.82529514366259},
{"position":118.52083333333333,"instrument":"Vibraphone","level2":5,"level3":0,"pitch":83,"articulation":"hits","articulation_tags":["hits","short"],"duration":0.0625,"velocity":96.82529514366259},
{"position":118.53125,"instrument":"TheGrandeurPiano","level2":5,"level3":null,"pitch":74,"articulation":"standard","articulation_tags":["standard","long"],"duration":0.08333333333333333,"velocity":57.93870239557191},
{"position":118.53125,"instrument":"TheGrandeurPiano","level2":6,"level3":null,"pitch":76,"articulation":"standard","articulation_tags":["standard","long"],"duration":0.09722222222222222,"velocity":55.585761219101315},
{"position":118.54166666666667,"instrument":"TheGrandeurPiano","level2":5,"level3":null,"pitch":73,"articulation":"standard","articulation_tags":["standard","long"],"duration":0.3541666666666667,"velocity":57.93870239557191},
{"position":118.55208333333333,"instrument":"TheGrandeurPiano","level2":6,"level3":null,"pitch":76,"articulation":"standard","articulation_tags":["standard","long"],"duration":0.09722222222222222,"velocity":55.585761219101315},
{"position":118.625,"instrument":"Violin","level2":5,"level3":0,"pitch":83,"articulation":"pizzicato","articulation_tags":["pizzicato","pz","short"],"duration":0.125,"velocity":96.09765539856843},
{"position":118.63541666666667,"instrument":"Vibraphone","level2":5,"level3":1,"pitch":83,"articulation":"hits","articulation_tags":["hits","short"],"duration":0.0625,"velocity":96.09765539856843},
{"position":118.65625,"instrument":"TheGrandeurPiano","level2":5,"level3":null,"pitch":73,"articulation":"standard","articulation_tags":["standard","long"],"duration":0.09722222222222222,"velocity":58.23282004263073},
{"position":118.67708333333333,"instrument":"Viola","level2":6,"level3":0,"pitch":78,"articulation":"collegno","articulation_tags":["collegno","cl","short"],"duration":0.125,"velocity":101.9586668050866},
{"position":118.6875,"instrument":"TheGrandeurPiano","level2":6,"level3":null,"pitch":76,"articulation":"standard","articulation_tags":["standard","long"],"duration":0.13194444444444445,"velocity":55.29164357204249},
{"position":118.70833333333333,"instrument":"TheGrandeurPiano","level2":6,"level3":null,"pitch":77,"articulation":"standard","articulation_tags":["standard","long"],"duration":0.11805555555555555,"velocity":55.29164357204249},
{"position":118.80208333333333,"instrument":"TheGrandeurPiano","level2":5,"level3":null,"pitch":73,"articulation":"standard","articulation_tags":["standard","long"],"duration":0.11805555555555555,"velocity":56.62284184627171},
{"position":118.82291666666667,"instrument":"Trumpet","level2":5,"level3":0,"pitch":83,"articulation":"staccato","articulation_tags":["staccato","st","short"],"duration":0.25,"velocity":94.84537420613655},
{"position":118.88541666666667,"instrument":"Vibraphone","level2":5,"level3":1,"pitch":82,"articulation":"hits","articulation_tags":["hits","short"],"duration":0.0625,"velocity":94.84537420613655},
{"position":118.88541666666667,"instrument":"TheGrandeurPiano","level2":6,"level3":null,"pitch":77,"articulation":"standard","articulation_tags":["standard","long"],"duration":0.16666666666666666,"velocity":53.09343008156583},
{"position":118.88541666666667,"instrument":"TheGrandeurPiano","level2":6,"level3":null,"pitch":77,"articulation":"standard","articulation_tags":["standard","long"],"duration":0.13194444444444445,"velocity":53.09343008156583},
{"position":118.97916666666667,"instrument":"TheGrandeurPiano","level2":5,"level3":null,"pitch":73,"articulation":"standard","articulation_tags":["standard","long"],"duration":0.13194444444444445,"velocity":56.91695949333054},
{"position":119.0,"instrument":"TheGrandeurPiano","level2":4,"level3":null,"pitch":85,"articulation":"standard","articulation_tags":["standard","long"],"duration":0.8472222222222222,"velocity":61.62284184627171},
{"position":119.07291666666667,"instrument":"TheGrandeurPiano","level2":5,"level3":null,"pitch":73,"articulation":"standard","articulation_tags":["standard","long"],"duration":0.7291666666666666,"velocity":56.91695949333054},
{"position":119.08333333333333,"instrument":"TheGrandeurPiano","level2":6,"level3":null,"pitch":78,"articulation":"standard","articulation_tags":["standard","long"],"duration":0.1527777777777778,"velocity":53.09343008156583},
{"position":119.13541666666667,"instrument":"TheGrandeurPiano","level2":6,"level3":null,"pitch":78,"articulation":"standard","articulation_tags":["standard","long"],"duration":0.20833333333333334,"velocity":52.79931243450701},
{"position":119.17708333333333,"instrument":"TheGrandeurPiano","level2":5,"level3":null,"pitch":73,"articulation":"standard","articulation_tags":["standard","long"],"duration":0.14583333333333334,"velocity":59.91605727940693},
{"position":119.3125,"instrument":"Trumpet","level2":5,"level3":1,"pitch":82,"articulation":"marcato_muted","articulation_tags":["marcato_muted","short","marcato","muted"],"duration":0.25,"velocity":93.55106142770707},
{"position":119.3125,"instrument":"TheGrandeurPiano","level2":6,"level3":null,"pitch":78,"articulation":"standard","articulation_tags":["standard","long"],"duration":0.1597222222222222,"velocity":55.50429257352458},
{"position":119.39583333333333,"instrument":"TheGrandeurPiano","level2":4,"level3":null,"pitch":85,"articulation":"standard","articulation_tags":["standard","long"],"duration":1.0972222222222223,"velocity":62.90888911159827},
{"position":119.39583333333333,"instrument":"TheGrandeurPiano","level2":5,"level3":null,"pitch":73,"articulation":"standard","articulation_tags":["standard","long"],"duration":0.16666666666666666,"velocity":58.791242052774734},
{"position":119.4375,"instrument":"TheGrandeurPiano","level2":6,"level3":null,"pitch":78,"articulation":"standard","articulation_tags":["standard","long"],"duration":0.25,"velocity":53.79124205277474},
{"position":119.55208333333333,"instrument":"Violin","level2":5,"level3":2,"pitch":82,"articulation":"pizzicato","articulation_tags":["pizzicato","pz","short"],"duration":0.125,"velocity":92.92694304001091},
{"position":119.55208333333333,"instrument":"Vibraphone","level2":5,"level3":3,"pitch":82,"articulation":"hits","articulation_tags":["hits","short"],"duration":0.0625,"velocity":92.92694304001091},
{"position":119.55208333333333,"instrument":"Vibraphone","level2":5,"level3":3,"pitch":82,"articulation":"hits","articulation_tags":["hits","short"],"duration":0.0625,"velocity":92.92694304001091},
{"position":119.55208333333333,"instrument":"Vibraphone","level2":5,"level3":0,"pitch":83,"articulation":"hits","articulation_tags":["hits","short"],"duration":0.0625,"velocity":92.92694304001091},
{"position":119.55208333333333,"instrument":"TheGrandeurPiano","level2":6,"level3":null,"pitch":79,"articulation":"standard","articulation_tags":["standard","long"],"duration":0.1736111111111111,"velocity":53.79124205277474},
{"position":119.57291666666667,"instrument":"Trumpet","level2":5,"level3":3,"pitch":82,"articulation":"staccato","articulation_tags":["staccato","st","short"],"duration":0.25,"velocity":92.92694304001091},
{"position":119.59375,"instrument":"Glockenspiel","level2":4,"level3":3,"pitch":85,"articulation":"hits","articulation_tags":["hits","short"],"duration":0.0625,"velocity":107.2284707334081},
{"position":119.64583333333333,"instrument":"TheGrandeurPiano","level2":5,"level3":null,"pitch":73,"articulation":"standard","articulation_tags":["standard","long"],"duration":0.18055555555555555,"velocity":59.08535969983356},
{"position":119.80208333333333,"instrument":"Violin","level2":5,"level3":2,"pitch":82,"articulation":"collegno","articulation_tags":["collegno","cl","short"],"duration":0.125,"velocity":92.30290818525623},
{"position":119.82291666666667,"instrument":"TheGrandeurPiano","level2":6,"level3":null,"pitch":79,"articulation":"standard","articulation_tags":["standard","long"],"duration":0.1875,"velocity":53.79124205277474},
{"position":119.82291666666667,"instrument":"TheGrandeurPiano","level2":6,"level3":null,"pitch":79,"articulation":"standard","articulation_tags":["standard","long"],"duration":0.3055555555555556,"velocity":53.49712440571592},
{"position":119.86458333333333,"instrument":"Trumpet","level2":5,"level3":3,"pitch":82,"articulation":"marcato_muted","articulation_tags":["marcato_muted","short","marcato","muted"],"duration":0.25,"velocity":92.30290818525623},
{"position":119.91666666666667,"instrument":"TheGrandeurPiano","level2":5,"level3":null,"pitch":73,"articulation":"standard","articulation_tags":["standard","long"],"duration":0.19444444444444445,"velocity":59.379477346892386},
{"position":120.10416666666667,"instrument":"TheGrandeurPiano","level2":6,"level3":null,"pitch":80,"articulation":"standard","articulation_tags":["standard","long"],"duration":0.2013888888888889,"velocity":52.43038318500583},
{"position":120.14583333333333,"instrument":"Trumpet","level2":5,"level3":4,"pitch":83,"articulation":"staccato","articulation_tags":["staccato","st","short"],"duration":0.25,"velocity":91.67896546582685},
{"position":120.14583333333333,"instrument":"Vibraphone","level2":5,"level3":5,"pitch":83,"articulation":"hits","articulation_tags":["hits","short"],"duration":0.0625,"velocity":91.67896546582685},
{"position":120.15625,"instrument":"Vibraphone","level2":5,"level3":5,"pitch":83,"articulation":"hits","articulation_tags":["hits","short"],"duration":0.0625,"velocity":91.67896546582685},
{"position":120.16666666666667,"instrument":"TheGrandeurPiano","level2":5,"level3":null,"pitch":73,"articulation":"standard","articulation_tags":["standard","long"],"duration":0.7222222222222222,"velocity":58.31273612618229},
{"position":120.20833333333333,"instrument":"TheGrandeurPiano","level2":5,"level3":null,"pitch":73,"articulation":"standard","articulation_tags":["standard","long"],"duration":0.20833333333333334,"velocity":58.60685377324111},
{"position":120.25,"instrument":"Vibraphone","level2":5,"level3":1,"pitch":82,"articulation":"hits","articulation_tags":["hits","short"],"duration":0.0625,"velocity":91.1107318285323},
{"position":120.26041666666667,"instrument":"TheGrandeurPiano","level2":4,"level3":null,"pitch":85,"articulation":"standard","articulation_tags":["standard","long"],"duration":0.8819444444444444,"velocity":62.136265537947},
{"position":120.28125,"instrument":"TheGrandeurPiano","level2":6,"level3":null,"pitch":80,"articulation":"standard","articulation_tags":["standard","long"],"duration":0.375,"velocity":52.136265537947},
{"position":120.32291666666667,"instrument":"Vibraphone","level2":5,"level3":4,"pitch":83,"articulation":"hits","articulation_tags":["hits","short"],"duration":0.0625,"velocity":91.1107318285323},
{"position":120.39583333333333,"instrument":"TheGrandeurPiano","level2":6,"level3":null,"pitch":80,"articulation":"standard","articulation_tags":["standard","long"],"duration":0.20833333333333334,"velocity":52.136265537947},
{"position":120.48958333333333,"instrument":"Trumpet","level2":5,"level3":4,"pitch":83,"articulation":"staccato","articulation_tags":["staccato","st","short"],"duration":0.25,"velocity":91.1107318285323},
{"position":120.53125,"instrument":"TheGrandeurPiano","level2":5,"level3":null,"pitch":73,"articulation":"standard","articulation_tags":["standard","long"],"duration":0.22916666666666666,"velocity":58.23663350710445},
{"position":120.54166666666667,"instrument":"Vibraphone","level2":5,"level3":5,"pitch":82,"articulation":"hits","articulation_tags":["hits","short"],"duration":0.0625,"velocity":90.48904595330278},
{"position":120.59375,"instrument":"Vibraphone","level2":5,"level3":6,"pitch":82,"articulation":"hits","articulation_tags":["hits","short"],"duration":0.0625,"velocity":90.48904595330278},
{"position":120.59375,"instrument":"Vibraphone","level2":5,"level3":7,"pitch":82,"articulation":"hits","articulation_tags":["hits","short"],"duration":0.0625,"velocity":90.48904595330278},
{"position":120.59375,"instrument":"Vibraphone","level2":5,"level3":3,"pitch":82,"articulation":"hits","articulation_tags":["hits","short"],"duration":0.0625,"velocity":90.48904595330278},
{"position":120.60416666666667,"instrument":"Vibraphone","level2":5,"level3":2,"pitch":82,"articulation":"hits","articulation_tags":["hits","short"],"duration":0.0625,"velocity":90.48904595330278},
{"position":120.61458333333333,"instrument":"Vibraphone","level2":5,"level3":5,"pitch":82,"articulation":"hits","articulation_tags":["hits","short"],"duration":0.0625,"velocity":90.48904595330278},
{"position":120.625,"instrument":"Vibraphone","level2":5,"level3":7,"pitch":82,"articulation":"hits","articulation_tags":["hits","short"],"duration":0.0625,"velocity":90.48904595330278},
{"position":120.71875,"instrument":"TheGrandeurPiano","level2":6,"level3":null,"pitch":81,"articulation":"standard","articulation_tags":["standard","long"],"duration":0.2222222222222222,"velocity":51.47192762475151},
{"position":120.78125,"instrument":"Trumpet","level2":5,"level3":6,"pitch":82,"articulation":"staccato","articulation_tags":["staccato","st","short"],"duration":0.25,"velocity":90.48904595330278},
{"position":120.83333333333333,"instrument":"Vibraphone","level2":5,"level3":0,"pitch":83,"articulation":"hits","articulation_tags":["hits","short"],"duration":0.0625,"velocity":90.48904595330278},
{"position":120.84375,"instrument":"TheGrandeurPiano","level2":6,"level3":null,"pitch":81,"articulation":"standard","articulation_tags":["standard","long"],"duration":0.4513888888888889,"velocity":51.17780997769268},
{"position":120.875,"instrument":"TheGrandeurPiano","level2":5,"level3":null,"pitch":73,"articulation":"standard","articulation_tags":["standard","long"],"duration":0.24305555555555555,"velocity":58.53075115416327},
{"position":120.9375,"instrument":"Glockenspiel","level2":4,"level3":7,"pitch":87,"articulation":"hits","articulation_tags":["hits","short"],"duration":0.0625,"velocity":107.01943543761234},
{"position":121.01041666666667,"instrument":"Vibraphone","level2":5,"level3":7,"pitch":82,"articulation":"hits","articulation_tags":["hits","short"],"duration":0.0625,"velocity":89.86764118960298},
{"position":121.03125,"instrument":"TheGrandeurPiano","level2":4,"level3":null,"pitch":96,"articulation":"standard","articulation_tags":["standard","long"],"duration":0.8333333333333334,"velocity":61.24607337371313},
{"position":121.04166666666667,"instrument":"Trumpet","level2":5,"level3":4,"pitch":83,"articulation":"staccato_muted","articulation_tags":["staccato_muted","stmt","short","staccato","muted"],"duration":0.25,"velocity":89.86764118960298},
{"position":121.04166666666667,"instrument":"TheGrandeurPiano","level2":6,"level3":null,"pitch":81,"articulation":"standard","articulation_tags":["standard","long"],"duration":0.22916666666666666,"velocity":50.95195572665431},
{"position":121.11458333333333,"instrument":"Vibraphone","level2":5,"level3":1,"pitch":82,"articulation":"hits","articulation_tags":["hits","short"],"duration":0.0625,"velocity":89.86764118960298},
{"position":121.11458333333333,"instrument":"Vibraphone","level2":5,"level3":3,"pitch":82,"articulation":"hits","articulation_tags":["hits","short"],"duration":0.0625,"velocity":89.86764118960298},
{"position":121.23958333333333,"instrument":"TheGrandeurPiano","level2":5,"level3":null,"pitch":73,"articulation":"standard","articulation_tags":["standard","long"],"duration":0.2569444444444444,"velocity":58.599014550183725},
{"position":121.25,"instrument":"TheGrandeurPiano","level2":5,"level3":null,"pitch":74,"articulation":"standard","articulation_tags":["standard","long"],"duration":0.4791666666666667,"velocity":58.599014550183725},
{"position":121.33333333333333,"instrument":"Trumpet","level2":5,"level3":7,"pitch":82,"articulation":"marcato_muted","articulation_tags":["marcato_muted","short","marcato","muted"],"duration":0.25,"velocity":89.33324109603433},
{"position":121.39583333333333,"instrument":"TheGrandeurPiano","level2":6,"level3":null,"pitch":82,"articulation":"standard","articulation_tags":["standard","long"],"duration":0.24305555555555555,"velocity":50.95195572665431},
{"position":121.40625,"instrument":"Glockenspiel","level2":4,"level3":0,"pitch":86,"articulation":"hits","articulation_tags":["hits","short"],"duration":0.0625,"velocity":106.38470565284248},
{"position":121.52083333333333,"instrument":"TheGrandeurPiano","level2":6,"level3":null,"pitch":82,"articulation":"standard","articulation_tags":["standard","long"],"duration":0.5625,"velocity":50.88369233063386},
{"position":121.57291666666667,"instrument":"Vibraphone","level2":6,"level3":1,"pitch":78,"articulation":"hits","articulation_tags":["hits","short"],"duration":0.0625,"velocity":109.16467934151913},
{"position":121.57291666666667,"instrument":"Vibraphone","level2":6,"level3":2,"pitch":78,"articulation":"hits","articulation_tags":["hits","short"],"duration":0.0625,"velocity":109.16467934151913},
{"position":121.59375,"instrument":"TheGrandeurPiano","level2":4,"level3":null,"pitch":96,"articulation":"standard","articulation_tags":["standard","long"],"duration":0.9444444444444444,"velocity":61.766045271810334},
{"position":121.625,"instrument":"TheGrandeurPiano","level2":5,"level3":null,"pitch":74,"articulation":"standard","articulation_tags":["standard","long"],"duration":0.2777777777777778,"velocity":59.11898644828092},
{"position":121.63541666666667,"instrument":"Trumpet","level2":5,"level3":8,"pitch":82,"articulation":"staccato","articulation_tags":["staccato","st","short"],"duration":0.25,"velocity":88.71604077924701},
{"position":121.63541666666667,"instrument":"Vibraphone","level2":5,"level3":9,"pitch":82,"articulation":"hits","articulation_tags":["hits","short"],"duration":0.0625,"velocity":88.71604077924701},
{"position":121.63541666666667,"instrument":"Vibraphone","level2":5,"level3":9,"pitch":82,"articulation":"hits","articulation_tags":["hits","short"],"duration":0.0625,"velocity":88.71604077924701},
{"position":121.71875,"instrument":"Vibraphone","level2":5,"level3":6,"pitch":82,"articulation":"hits","articulation_tags":["hits","short"],"duration":0.0625,"velocity":88.71604077924701},
{"position":121.76041666666667,"instrument":"TheGrandeurPiano","level2":6,"level3":null,"pitch":82,"articulation":"standard","articulation_tags":["standard","long"],"duration":0.25,"velocity":50.88369233063386},
{"position":121.77083333333333,"instrument":"Vibraphone","level2":5,"level3":8,"pitch":82,"articulation":"hits","articulation_tags":["hits","short"],"duration":0.0625,"velocity":88.71604077924701},
{"position":121.80208333333333,"instrument":"Vibraphone","level2":5,"level3":9,"pitch":82,"articulation":"hits","articulation_tags":["hits","short"],"duration":0.0625,"velocity":88.71604077924701},
{"position":121.875,"instrument":"Vibraphone","level2":6,"level3":2,"pitch":78,"articulation":"hits","articulation_tags":["hits","short"],"duration":0.0625,"velocity":109.40932384753316},
{"position":121.96875,"instrument":"TheGrandeurPiano","level2":5,"level3":null,"pitch":74,"articulation":"standard","articulation_tags":["standard","long"],"duration":0.3958333333333333,"velocity":59.78332436147642},
{"position":122.04166666666667,"instrument":"TheGrandeurPiano","level2":5,"level3":null,"pitch":74,"articulation":"standard","articulation_tags":["standard","long"],"duration":0.2916666666666667,"velocity":60.07744200853524},
{"position":122.08333333333333,"instrument":"Glockenspiel","level2":4,"level3":1,"pitch":84,"articulation":"hits","articulation_tags":["hits","short"],"duration":0.0625,"velocity":106.18352890016871},
{"position":122.13541666666667,"instrument":"TheGrandeurPiano","level2":6,"level3":null,"pitch":83,"articulation":"standard","articulation_tags":["standard","long"],"duration":0.2638888888888889,"velocity":51.54803024382935},
{"position":122.16666666666667,"instrument":"Trumpet","level2":5,"level3":5,"pitch":82,"articulation":"marcato_muted","articulation_tags":["marcato_muted","short","marcato","muted"],"duration":0.25,"velocity":88.20089524797814},
{"position":122.26041666666667,"instrument":"Vibraphone","level2":5,"level3":2,"pitch":82,"articulation":"hits","articulation_tags":["hits","short"],"duration":0.0625,"velocity":88.20089524797814},
{"position":122.28125,"instrument":"TheGrandeurPiano","level2":4,"level3":null,"pitch":96,"articulation":"standard","articulation_tags":["standard","long"],"duration":0.6875,"velocity":62.43038318500582},
{"position":122.29166666666667,"instrument":"Glockenspiel","level2":4,"level3":3,"pitch":84,"articulation":"hits","articulation_tags":["hits","short"],"duration":0.0625,"velocity":105.54624762344864},
{"position":122.33333333333333,"instrument":"Vibraphone","level2":5,"level3":1,"pitch":81,"articulation":"hits","articulation_tags":["hits","short"],"duration":0.0625,"velocity":88.20089524797814},
{"position":122.36458333333333,"instrument":"TheGrandeurPiano","level2":6,"level3":null,"pitch":83,"articulation":"standard","articulation_tags":["standard","long"],"duration":0.7152777777777778,"velocity":51.25391259677053},
{"position":122.39583333333333,"instrument":"Vibraphone","level2":5,"level3":10,"pitch":82,"articulation":"hits","articulation_tags":["hits","short"],"duration":0.0625,"velocity":88.20089524797814},
{"position":122.39583333333333,"instrument":"Vibraphone","level2":5,"level3":11,"pitch":82,"articulation":"hits","articulation_tags":["hits","short"],"duration":0.0625,"velocity":88.20089524797814},
{"position":122.45833333333333,"instrument":"Trumpet","level2":5,"level3":11,"pitch":82,"articulation":"staccato","articulation_tags":["staccato","st","short"],"duration":0.25,"velocity":88.20089524797814},
{"position":122.47916666666667,"instrument":"TheGrandeurPiano","level2":5,"level3":null,"pitch":74,"articulation":"standard","articulation_tags":["standard","long"],"duration":0.3125,"velocity":61.438300876304154},
{"position":122.48958333333333,"instrument":"Violin","level2":5,"level3":4,"pitch":83,"articulation":"collegno","articulation_tags":["collegno","cl","short"],"duration":0.125,"velocity":87.5497201719241},
{"position":122.5,"instrument":"Violin","level2":5,"level3":11,"pitch":82,"articulation":"pizzicato","articulation_tags":["pizzicato","pz","short"],"duration":0.125,"velocity":87.5497201719241},
{"position":122.53125,"instrument":"TheGrandeurPiano","level2":6,"level3":null,"pitch":83,"articulation":"standard","articulation_tags":["standard","long"],"duration":0.2708333333333333,"velocity":52.320653817480625},
{"position":122.5625,"instrument":"Violin","level2":4,"level3":7,"pitch":87,"articulation":"long_hrm","articulation_tags":["long_hrm","hrm","long","harmonics"],"duration":9.020833333333334,"velocity":83.09249524689729},
{"position":122.5625,"instrument":"Viola","level2":5,"level3":3,"pitch":81,"articulation":"pizzicato","articulation_tags":["pizzicato","pz","short"],"duration":0.125,"velocity":87.5497201719241},
{"position":122.5625,"instrument":"TheGrandeurPiano","level2":5,"level3":null,"pitch":75,"articulation":"standard","articulation_tags":["standard","long"],"duration":0.3472222222222222,"velocity":61.438300876304154},
{"position":122.59375,"instrument":"Violin","level2":5,"level3":10,"pitch":82,"articulation":"collegno","articulation_tags":["collegno","cl","short"],"duration":0.125,"velocity":87.71147071133218},
{"position":122.625,"instrument":"Violin","level2":5,"level3":4,"pitch":83,"articulation":"collegno","articulation_tags":["collegno","cl","short"],"duration":0.125,"velocity":87.71147071133218},
{"position":122.65625,"instrument":"Violin","level2":5,"level3":0,"pitch":83,"articulation":"collegno","articulation_tags":["collegno","cl","short"],"duration":0.125,"velocity":87.71147071133218},
{"position":122.67708333333333,"instrument":"Violin","level2":5,"level3":12,"pitch":82,"articulation":"collegno","articulation_tags":["collegno","cl","short"],"duration":0.125,"velocity":87.71147071133218},
{"position":122.67708333333333,"instrument":"Viola","level2":5,"level3":13,"pitch":81,"articulation":"collegno","articulation_tags":["collegno","cl","short"],"duration":0.125,"velocity":87.71147071133218},
{"position":122.67708333333333,"instrument":"Viola","level2":6,"level3":1,"pitch":78,"articulation":"collegno","articulation_tags":["collegno","cl","short"],"duration":0.125,"velocity":110.54008781903218},
{"position":122.75,"instrument":"Trumpet","level2":5,"level3":12,"pitch":82,"articulation":"staccato","articulation_tags":["staccato","st","short"],"duration":0.25,"velocity":87.71147071133218},
{"position":122.79166666666667,"instrument":"Violin","level2":5,"level3":5,"pitch":82,"articulation":"pizzicato","articulation_tags":["pizzicato","pz","short"],"duration":0.125,"velocity":87.71147071133218},
{"position":122.83333333333333,"instrument":"Viola","level2":5,"level3":7,"pitch":81,"articulation":"pizzicato","articulation_tags":["pizzicato","pz","short"],"duration":0.125,"velocity":87.71147071133218},
{"position":122.9375,"instrument":"TheGrandeurPiano","level2":6,"level3":null,"pitch":84,"articulation":"standard","articulation_tags":["standard","long"],"duration":0.2847222222222222,"velocity":52.320653817480625},
{"position":122.9375,"instrument":"TheGrandeurPiano","level2":5,"level3":null,"pitch":75,"articulation":"standard","articulation_tags":["standard","long"],"duration":0.3263888888888889,"velocity":61.73241852336298},
{"position":123.0,"instrument":"TheGrandeurPiano","level2":4,"level3":null,"pitch":96,"articulation":"standard","articulation_tags":["standard","long"],"duration":1.0486111111111112,"velocity":63.79124205277474},
{"position":123.08333333333333,"instrument":"TheGrandeurPiano","level2":5,"level3":null,"pitch":75,"articulation":"standard","articulation_tags":["standard","long"],"duration":0.3194444444444444,"velocity":60.44637125803642},
{"position":123.09375,"instrument":"Trumpet","level2":5,"level3":9,"pitch":81,"articulation":"staccato","articulation_tags":["staccato","st","short"],"duration":0.25,"velocity":87.266160129788},
{"position":123.13541666666667,"instrument":"Glockenspiel","level2":4,"level3":8,"pitch":85,"articulation":"hits","articulation_tags":["hits","short"],"duration":0.0625,"velocity":105.35335593206972},
{"position":123.14583333333333,"instrument":"Vibraphone","level2":5,"level3":8,"pitch":82,"articulation":"hits","articulation_tags":["hits","short"],"duration":0.0625,"velocity":87.266160129788},
{"position":123.14583333333333,"instrument":"Glockenspiel","level2":4,"level3":1,"pitch":84,"articulation":"hits","articulation_tags":["hits","short"],"duration":0.0625,"velocity":105.35335593206972},
{"position":123.23958333333333,"instrument":"Glockenspiel","level2":4,"level3":3,"pitch":84,"articulation":"hits","articulation_tags":["hits","short"],"duration":0.0625,"velocity":105.35335593206972},
{"position":123.3125,"instrument":"TheGrandeurPiano","level2":4,"level3":null,"pitch":95,"articulation":"standard","articulation_tags":["standard","long"],"duration":0.5902777777777778,"velocity":62.50519478744818},
{"position":123.35416666666667,"instrument":"Glockenspiel","level2":4,"level3":9,"pitch":86,"articulation":"hits","articulation_tags":["hits","short"],"duration":0.0625,"velocity":104.71350471224292},
{"position":123.35416666666667,"instrument":"Glockenspiel","level2":4,"level3":10,"pitch":86,"articulation":"hits","articulation_tags":["hits","short"],"duration":0.0625,"velocity":104.71350471224292},
{"position":123.35416666666667,"instrument":"Glockenspiel","level2":4,"level3":10,"pitch":86,"articulation":"hits","articulation_tags":["hits","short"],"duration":0.0625,"velocity":104.71350471224292},
{"position":123.36458333333333,"instrument":"Trumpet","level2":5,"level3":13,"pitch":81,"articulation":"staccato","articulation_tags":["staccato","st","short"],"duration":0.25,"velocity":87.266160129788},
{"position":123.36458333333333,"instrument":"TheGrandeurPiano","level2":6,"level3":null,"pitch":84,"articulation":"standard","articulation_tags":["standard","long"],"duration":0.2916666666666667,"velocity":51.03460655215407},
{"position":123.39583333333333,"instrument":"Vibraphone","level2":5,"level3":0,"pitch":83,"articulation":"hits","articulation_tags":["hits","short"],"duration":0.0625,"velocity":87.266160129788},
{"position":123.42708333333333,"instrument":"TheGrandeurPiano","level2":5,"level3":null,"pitch":75,"articulation":"standard","articulation_tags":["standard","long"],"duration":0.3472222222222222,"velocity":60.74048890509524},
{"position":123.4375,"instrument":"TheGrandeurPiano","level2":6,"level3":null,"pitch":84,"articulation":"standard","articulation_tags":["standard","long"],"duration":0.9652777777777778,"velocity":50.74048890509524},
{"position":123.5,"instrument":"Vibraphone","level2":5,"level3":8,"pitch":82,"articulation":"hits","articulation_tags":["hits","short"],"duration":0.0625,"velocity":86.634898825491},
{"position":123.53125,"instrument":"Glockenspiel","level2":4,"level3":10,"pitch":86,"articulation":"hits","articulation_tags":["hits","short"],"duration":0.0625,"velocity":104.71350471224292},
{"position":123.54166666666667,"instrument":"Vibraphone","level2":5,"level3":14,"pitch":82,"articulation":"hits","articulation_tags":["hits","short"],"duration":0.0625,"velocity":86.634898825491},
{"position":123.54166666666667,"instrument":"Vibraphone","level2":5,"level3":15,"pitch":81,"articulation":"hits","articulation_tags":["hits","short"],"duration":0.0625,"velocity":86.634898825491},
{"position":123.5625,"instrument":"TheGrandeurPiano","level2":5,"level3":null,"pitch":76,"articulation":"standard","articulation_tags":["standard","long"],"duration":0.2916666666666667,"velocity":60.74048890509524},
{"position":123.5625,"instrument":"Vibraphone","level2":5,"level3":15,"pitch":81,"articulation":"hits","articulation_tags":["hits","short"],"duration":0.0625,"velocity":86.86906548521702},
{"position":123.63541666666667,"instrument":"Trumpet","level2":5,"level3":15,"pitch":81,"articulation":"staccato","articulation_tags":["staccato","st","short"],"duration":0.25,"velocity":86.86906548521702},
{"position":123.80208333333333,"instrument":"TheGrandeurPiano","level2":6,"level3":null,"pitch":85,"articulation":"standard","articulation_tags":["standard","long"],"duration":0.3055555555555556,"velocity":52.64458474851308},
{"position":123.85416666666667,"instrument":"Violin","level2":5,"level3":10,"pitch":82,"articulation":"collegno","articulation_tags":["collegno","cl","short"],"duration":0.125,"velocity":86.86906548521702},
{"position":123.86458333333333,"instrument":"Viola","level2":5,"level3":15,"pitch":81,"articulation":"collegno","articulation_tags":["collegno","cl","short"],"duration":0.125,"velocity":86.86906548521702},
{"position":123.95833333333333,"instrument":"TheGrandeurPiano","level2":5,"level3":null,"pitch":76,"articulation":"standard","articulation_tags":["standard","long"],"duration":0.3680555555555556,"velocity":60.58957468357503},
{"position":124.0,"instrument":"TheGrandeurPiano","level2":5,"level3":null,"pitch":76,"articulation":"standard","articulation_tags":["standard","long"],"duration":0.2708333333333333,"velocity":60.58957468357503},
{"position":124.03125,"instrument":"Trumpet","level2":5,"level3":15,"pitch":82,"articulation":"staccato","articulation_tags":["staccato","st","short"],"duration":0.25,"velocity":86.52428304839357},
{"position":124.0625,"instrument":"Glockenspiel","level2":4,"level3":9,"pitch":86,"articulation":"hits","articulation_tags":["hits","short"],"duration":0.0625,"velocity":104.71350471224292},
{"position":124.14583333333333,"instrument":"Vibraphone","level2":5,"level3":2,"pitch":82,"articulation":"hits","articulation_tags":["hits","short"],"duration":0.0625,"velocity":86.52428304839357},
{"position":124.20833333333333,"instrument":"TheGrandeurPiano","level2":4,"level3":null,"pitch":95,"articulation":"standard","articulation_tags":["standard","long"],"duration":0.5208333333333334,"velocity":62.06016291886915},
{"position":124.25,"instrument":"TheGrandeurPiano","level2":6,"level3":null,"pitch":85,"articulation":"standard","articulation_tags":["standard","long"],"duration":0.3125,"velocity":52.64458474851308},
{"position":124.26041666666667,"instrument":"Violin","level2":4,"level3":0,"pitch":86,"articulation":"long_hrm","articulation_tags":["long_hrm","hrm","long","harmonics"],"duration":2.1354166666666665,"velocity":80.14952490131456},
{"position":124.28125,"instrument":"Violin","level2":4,"level3":8,"pitch":85,"articulation":"long_flt","articulation_tags":["long_flt","flt","long","flautando"],"duration":3.34375,"velocity":80.14952490131456},
{"position":124.375,"instrument":"Trumpet","level2":5,"level3":5,"pitch":82,"articulation":"marcato_muted","articulation_tags":["marcato_muted","short","marcato","muted"],"duration":0.25,"velocity":86.52428304839357},
{"position":124.40625,"instrument":"TheGrandeurPiano","level2":5,"level3":null,"pitch":77,"articulation":"standard","articulation_tags":["standard","long"],"duration":0.2569444444444444,"velocity":62.9387023955719},
{"position":124.47916666666667,"instrument":"Violin","level2":5,"level3":11,"pitch":82,"articulation":"pizzicato","articulation_tags":["pizzicato","pz","short"],"duration":0.125,"velocity":86.8225384375863},
{"position":124.51041666666667,"instrument":"TheGrandeurPiano","level2":5,"level3":null,"pitch":77,"articulation":"standard","articulation_tags":["standard","long"],"duration":0.3958333333333333,"velocity":63.23282004263072},
{"position":124.5625,"instrument":"Violin","level2":5,"level3":16,"pitch":82,"articulation":"pizzicato","articulation_tags":["pizzicato","pz","short"],"duration":0.125,"velocity":86.23575266549139},
{"position":124.5625,"instrument":"Violin","level2":5,"level3":17,"pitch":82,"articulation":"pizzicato","articulation_tags":["pizzicato","pz","short"],"duration":0.125,"velocity":86.23575266549139},
{"position":124.57291666666667,"instrument":"TheGrandeurPiano","level2":4,"level3":null,"pitch":95,"articulation":"standard","articulation_tags":["standard","long"],"duration":1.2916666666666667,"velocity":62.799312434507},
{"position":124.72916666666667,"instrument":"TheGrandeurPiano","level2":6,"level3":null,"pitch":86,"articulation":"standard","articulation_tags":["standard","long"],"duration":0.3263888888888889,"velocity":50.74048890509524},
{"position":124.79166666666667,"instrument":"TheGrandeurPiano","level2":5,"level3":null,"pitch":77,"articulation":"standard","articulation_tags":["standard","long"],"duration":0.24305555555555555,"velocity":61.32872419921289},
{"position":124.83333333333333,"instrument":"Trumpet","level2":5,"level3":8,"pitch":82,"articulation":"staccato","articulation_tags":["staccato","st","short"],"duration":0.25,"velocity":86.57179628348055},
{"position":124.88541666666667,"instrument":"TheGrandeurPiano","level2":6,"level3":null,"pitch":86,"articulation":"standard","articulation_tags":["standard","long"],"duration":1.5208333333333333,"velocity":50.44637125803642},
{"position":124.98958333333333,"instrument":"TheGrandeurPiano","level2":4,"level3":null,"pitch":94,"articulation":"standard","articulation_tags":["standard","long"],"duration":0.4652777777777778,"velocity":62.799312434507},
{"position":125.04166666666667,"instrument":"Viola","level2":5,"level3":5,"pitch":81,"articulation":"pizzicato","articulation_tags":["pizzicato","pz","short"],"duration":0.125,"velocity":86.57179628348055},
{"position":125.0625,"instrument":"Violin","level2":4,"level3":7,"pitch":86,"articulation":"long_hrm","articulation_tags":["long_hrm","hrm","long","harmonics"],"duration":3.2083333333333335,"velocity":78.4910527501317},
{"position":125.09375,"instrument":"TheGrandeurPiano","level2":5,"level3":null,"pitch":77,"articulation":"standard","articulation_tags":["standard","long"],"duration":0.4236111111111111,"velocity":64.34967678430857},
{"position":125.13541666666667,"instrument":"Trumpet","level2":5,"level3":6,"pitch":82,"articulation":"staccato_muted","articulation_tags":["staccato_muted","stmt","short","staccato","muted"],"duration":0.25,"velocity":86.0070796886943},
{"position":125.14583333333333,"instrument":"TheGrandeurPiano","level2":5,"level3":null,"pitch":78,"articulation":"standard","articulation_tags":["standard","long"],"duration":0.22916666666666666,"velocity":62.90888911159827},
{"position":125.16666666666667,"instrument":"Viola","level2":5,"level3":1,"pitch":81,"articulation":"pizzicato","articulation_tags":["pizzicato","pz","short"],"duration":0.125,"velocity":86.3807675635934},
{"position":125.21875,"instrument":"TheGrandeurPiano","level2":6,"level3":null,"pitch":86,"articulation":"standard","articulation_tags":["standard","long"],"duration":0.3402777777777778,"velocity":51.73241852336297},
{"position":125.28125,"instrument":"Violin","level2":5,"level3":16,"pitch":82,"articulation":"collegno","articulation_tags":["collegno","cl","short"],"duration":0.125,"velocity":86.3807675635934},
{"position":125.33333333333333,"instrument":"Violin","level2":4,"level3":9,"pitch":86,"articulation":"long_cs","articulation_tags":["long_cs","cs","long","consordina"],"duration":3.2708333333333335,"velocity":78.4910527501317},
{"position":125.35416666666667,"instrument":"Viola","level2":5,"level3":13,"pitch":81,"articulation":"collegno","articulation_tags":["collegno","cl","short"],"duration":0.125,"velocity":86.3807675635934},
{"position":125.35416666666667,"instrument":"Violin","level2":5,"level3":10,"pitch":82,"articulation":"collegno","articulation_tags":["collegno","cl","short"],"duration":0.125,"velocity":86.3807675635934},
{"position":125.375,"instrument":"Viola","level2":5,"level3":8,"pitch":81,"articulation":"collegno","articulation_tags":["collegno","cl","short"],"duration":0.125,"velocity":86.3807675635934},
{"position":125.48958333333333,"instrument":"TheGrandeurPiano","level2":5,"level3":null,"pitch":78,"articulation":"standard","articulation_tags":["standard","long"],"duration":0.2152777777777778,"velocity":62.90888911159827},
{"position":125.5,"instrument":"Trumpet","level2":6,"level3":3,"pitch":79,"articulation":"staccato","articulation_tags":["staccato","st","short"],"duration":0.25,"velocity":113.47634312022468},
{"position":125.5,"instrument":"Viola","level2":6,"level3":4,"pitch":79,"articulation":"pizzicato","articulation_tags":["pizzicato","pz","short"],"duration":0.125,"velocity":113.47634312022468},
{"position":125.58333333333333,"instrument":"Viola","level2":6,"level3":4,"pitch":79,"articulation":"pizzicato","articulation_tags":["pizzicato","pz","short"],"duration":0.125,"velocity":113.47634312022468},
{"position":125.625,"instrument":"Viola","level2":5,"level3":1,"pitch":81,"articulation":"pizzicato","articulation_tags":["pizzicato","pz","short"],"duration":0.125,"velocity":86.77585975252698},
{"position":125.65625,"instrument":"Violin","level2":4,"level3":3,"pitch":85,"articulation":"long_cs","articulation_tags":["long_cs","cs","long","consordina"],"duration":1.9166666666666667,"velocity":78.4910527501317},
{"position":125.6875,"instrument":"TheGrandeurPiano","level2":4,"level3":null,"pitch":94,"articulation":"standard","articulation_tags":["standard","long"],"duration":0.4236111111111111,"velocity":63.01861847912347},
{"position":125.71875,"instrument":"TheGrandeurPiano","level2":6,"level3":null,"pitch":87,"articulation":"standard","articulation_tags":["standard","long"],"duration":0.3472222222222222,"velocity":50.66567730265288},
{"position":125.72916666666667,"instrument":"TheGrandeurPiano","level2":5,"level3":null,"pitch":78,"articulation":"standard","articulation_tags":["standard","long"],"duration":0.4513888888888889,"velocity":62.136265537947},
{"position":125.73958333333333,"instrument":"Vibraphone","level2":5,"level3":16,"pitch":82,"articulation":"hits","articulation_tags":["hits","short"],"duration":0.0625,"velocity":86.25194094767448},
{"position":125.75,"instrument":"Trumpet","level2":5,"level3":3,"pitch":81,"articulation":"marcato_muted","articulation_tags":["marcato_muted","short","marcato","muted"],"duration":0.25,"velocity":86.25194094767448},
{"position":125.79166666666667,"instrument":"Glockenspiel","level2":4,"level3":3,"pitch":85,"articulation":"hits","articulation_tags":["hits","short"],"duration":0.0625,"velocity":102.60522550686696},
{"position":125.8125,"instrument":"TheGrandeurPiano","level2":5,"level3":null,"pitch":79,"articulation":"standard","articulation_tags":["standard","long"],"duration":0.20833333333333334,"velocity":62.136265537947},
{"position":125.85416666666667,"instrument":"Vibraphone","level2":5,"level3":0,"pitch":82,"articulation":"hits","articulation_tags":["hits","short"],"duration":0.0625,"velocity":86.68204147607757},
{"position":125.86458333333333,"instrument":"Glockenspiel","level2":4,"level3":10,"pitch":86,"articulation":"hits","articulation_tags":["hits","short"],"duration":0.0625,"velocity":102.60522550686696},
{"position":125.95833333333333,"instrument":"Vibraphone","level2":6,"level3":2,"pitch":78,"articulation":"hits","articulation_tags":["hits","short"],"duration":0.0625,"velocity":113.79163519811337},
{"position":125.95833333333333,"instrument":"Vibraphone","level2":5,"level3":9,"pitch":81,"articulation":"hits","articulation_tags":["hits","short"],"duration":0.0625,"velocity":86.68204147607757},
{"position":126.11458333333333,"instrument":"TheGrandeurPiano","level2":5,"level3":null,"pitch":79,"articulation":"standard","articulation_tags":["standard","long"],"duration":0.19444444444444445,"velocity":62.136265537947},
{"position":126.13541666666667,"instrument":"Trumpet","level2":6,"level3":3,"pitch":79,"articulation":"staccato_muted","articulation_tags":["staccato_muted","stmt","short","staccato","muted"],"duration":0.25,"velocity":113.79163519811337},
{"position":126.1875,"instrument":"Vibraphone","level2":5,"level3":7,"pitch":81,"articulation":"hits","articulation_tags":["hits","short"],"duration":0.0625,"velocity":87.12992406376696},
{"position":126.1875,"instrument":"Vibraphone","level2":5,"level3":3,"pitch":81,"articulation":"hits","articulation_tags":["hits","short"],"duration":0.0625,"velocity":87.12992406376696},
{"position":126.20833333333333,"instrument":"Vibraphone","level2":5,"level3":4,"pitch":82,"articulation":"hits","articulation_tags":["hits","short"],"duration":0.0625,"velocity":87.12992406376696},
{"position":126.23958333333333,"instrument":"Vibraphone","level2":5,"level3":11,"pitch":82,"articulation":"hits","articulation_tags":["hits","short"],"duration":0.0625,"velocity":87.12992406376696},
{"position":126.25,"instrument":"TheGrandeurPiano","level2":6,"level3":null,"pitch":87,"articulation":"standard","articulation_tags":["standard","long"],"duration":0.3611111111111111,"velocity":50.001339389457385},
{"position":126.32291666666667,"instrument":"TheGrandeurPiano","level2":4,"level3":null,"pitch":93,"articulation":"standard","articulation_tags":["standard","long"],"duration":0.3819444444444444,"velocity":62.35428056592798},
{"position":126.375,"instrument":"Violin","level2":5,"level3":16,"pitch":82,"articulation":"pizzicato","articulation_tags":["pizzicato","pz","short"],"duration":0.125,"velocity":87.12992406376696},
{"position":126.39583333333333,"instrument":"Violin","level2":4,"level3":0,"pitch":85,"articulation":"long_hrm","articulation_tags":["long_hrm","hrm","long","harmonics"],"duration":1.1458333333333333,"velocity":75.93218485184633},
{"position":126.40625,"instrument":"TheGrandeurPiano","level2":5,"level3":null,"pitch":79,"articulation":"standard","articulation_tags":["standard","long"],"duration":0.5,"velocity":64.97712776470073},
{"position":126.41666666666667,"instrument":"TheGrandeurPiano","level2":5,"level3":null,"pitch":80,"articulation":"standard","articulation_tags":["standard","long"],"duration":0.1875,"velocity":64.97712776470073},
{"position":126.51041666666667,"instrument":"TheGrandeurPiano","level2":4,"level3":null,"pitch":93,"articulation":"standard","articulation_tags":["standard","long"],"duration":2.2430555555555554,"velocity":65.91830423528896},
{"position":126.57291666666667,"instrument":"Trumpet","level2":5,"level3":2,"pitch":82,"articulation":"staccato_muted","articulation_tags":["staccato_muted","stmt","short","staccato","muted"],"duration":0.25,"velocity":87.12992406376696},
{"position":126.625,"instrument":"Violin","level2":5,"level3":6,"pitch":82,"articulation":"collegno","articulation_tags":["collegno","cl","short"],"duration":0.125,"velocity":87.12992406376696},
{"position":126.6875,"instrument":"TheGrandeurPiano","level2":5,"level3":null,"pitch":80,"articulation":"standard","articulation_tags":["standard","long"],"duration":0.1736111111111111,"velocity":64.76608160291303},
{"position":126.6875,"instrument":"Viola","level2":5,"level3":6,"pitch":81,"articulation":"collegno","articulation_tags":["collegno","cl","short"],"duration":0.125,"velocity":87.62345760588767},
{"position":126.77083333333333,"instrument":"Viola","level2":5,"level3":9,"pitch":81,"articulation":"collegno","articulation_tags":["collegno","cl","short"],"duration":0.125,"velocity":87.62345760588767},
{"position":126.79166666666667,"instrument":"TheGrandeurPiano","level2":6,"level3":null,"pitch":88,"articulation":"standard","articulation_tags":["standard","long"],"duration":0.375,"velocity":52.95349562037803},
{"position":126.89583333333333,"instrument":"TheGrandeurPiano","level2":4,"level3":null,"pitch":93,"articulation":"standard","articulation_tags":["standard","long"],"duration":0.3541666666666667,"velocity":65.70725807350127},
{"position":126.90625,"instrument":"Violin","level2":4,"level3":1,"pitch":84,"articulation":"long_flt","articulation_tags":["long_flt","flt","long","flautando"],"duration":2.8229166666666665,"velocity":74.27586312682092},
{"position":126.95833333333333,"instrument":"TheGrandeurPiano","level2":5,"level3":null,"pitch":81,"articulation":"standard","articulation_tags":["standard","long"],"duration":0.16666666666666666,"velocity":64.76608160291303},
{"position":127.07291666666667,"instrument":"Trumpet","level2":5,"level3":5,"pitch":81,"articulation":"staccato","articulation_tags":["staccato","st","short"],"duration":0.25,"velocity":88.12988224153081},
{"position":127.14583333333333,"instrument":"Violin","level2":5,"level3":0,"pitch":82,"articulation":"collegno","articulation_tags":["collegno","cl","short"],"duration":0.125,"velocity":88.12988224153081},
{"position":127.15625,"instrument":"TheGrandeurPiano","level2":5,"level3":null,"pitch":81,"articulation":"standard","articulation_tags":["standard","long"],"duration":0.5625,"velocity":65.2908532548968},
{"position":127.16666666666667,"instrument":"TheGrandeurPiano","level2":6,"level3":null,"pitch":88,"articulation":"standard","articulation_tags":["standard","long"],"duration":2.3858267716535435,"velocity":52.85723374999516},
{"position":127.20833333333333,"instrument":"Vibraphone","level2":5,"level3":2,"pitch":82,"articulation":"hits","articulation_tags":["hits","short"],"duration":0.0625,"velocity":87.71147071133218},
{"position":127.20833333333333,"instrument":"TheGrandeurPiano","level2":5,"level3":null,"pitch":81,"articulation":"standard","articulation_tags":["standard","long"],"duration":0.1597222222222222,"velocity":65.2908532548968},
{"position":127.30208333333333,"instrument":"Violin","level2":4,"level3":3,"pitch":85,"articulation":"long_hrm","articulation_tags":["long_hrm","hrm","long","harmonics"],"duration":0.28125,"velocity":74.27586312682092},
{"position":127.35416666666667,"instrument":"TheGrandeurPiano","level2":6,"level3":null,"pitch":88,"articulation":"standard","articulation_tags":["standard","long"],"duration":0.3888888888888889,"velocity":52.85723374999516},
{"position":127.375,"instrument":"Glockenspiel","level2":4,"level3":0,"pitch":85,"articulation":"hits","articulation_tags":["hits","short"],"duration":0.0625,"velocity":101.13793156341046},
{"position":127.40625,"instrument":"Trumpet","level2":5,"level3":10,"pitch":82,"articulation":"staccato","articulation_tags":["staccato","st","short"],"duration":0.25,"velocity":88.24334930090482},
{"position":127.42708333333333,"instrument":"TheGrandeurPiano","level2":4,"level3":null,"pitch":92,"articulation":"standard","articulation_tags":["standard","long"],"duration":0.3194444444444444,"velocity":65.91830423528896},
{"position":127.44791666666667,"instrument":"TheGrandeurPiano","level2":5,"level3":null,"pitch":82,"articulation":"standard","articulation_tags":["standard","long"],"duration":0.1527777777777778,"velocity":65.2908532548968},
{"position":127.46875,"instrument":"Viola","level2":6,"level3":4,"pitch":79,"articulation":"pizzicato","articulation_tags":["pizzicato","pz","short"],"duration":0.125,"velocity":115.35936271169064},
{"position":127.46875,"instrument":"Vibraphone","level2":5,"level3":10,"pitch":82,"articulation":"hits","articulation_tags":["hits","short"],"duration":0.0625,"velocity":88.7673597808564},
{"position":127.54166666666667,"instrument":"Violin","level2":4,"level3":0,"pitch":85,"articulation":"long_hrm","articulation_tags":["long_hrm","hrm","long","harmonics"],"duration":0.041666666666666664,"velocity":72.99423960050248},
{"position":127.60416666666667,"instrument":"Viola","level2":5,"level3":7,"pitch":81,"articulation":"pizzicato","articulation_tags":["pizzicato","pz","short"],"duration":0.125,"velocity":88.7673597808564},
{"position":127.625,"instrument":"Violin","level2":4,"level3":8,"pitch":85,"articulation":"long_cs","articulation_tags":["long_cs","cs","long","consordina"],"duration":1.1041666666666667,"velocity":72.99423960050248},
{"position":127.64583333333333,"instrument":"Violin","level2":4,"level3":9,"pitch":86,"articulation":"long_cs","articulation_tags":["long_cs","cs","long","consordina"],"duration":1.0833333333333333,"velocity":72.99423960050248},
{"position":127.67708333333333,"instrument":"TheGrandeurPiano","level2":5,"level3":null,"pitch":82,"articulation":"standard","articulation_tags":["standard","long"],"duration":0.14583333333333334,"velocity":65.91443315945801},
{"position":127.72916666666667,"instrument":"Trumpet","level2":5,"level3":1,"pitch":81,"articulation":"marcato_muted","articulation_tags":["marcato_muted","short","marcato","muted"],"duration":0.25,"velocity":89.28376209662154},
{"position":127.89583333333333,"instrument":"TheGrandeurPiano","level2":5,"level3":null,"pitch":83,"articulation":"standard","articulation_tags":["standard","long"],"duration":0.1388888888888889,"velocity":62.72450083206465},
{"position":127.90625,"instrument":"TheGrandeurPiano","level2":4,"level3":null,"pitch":92,"articulation":"standard","articulation_tags":["standard","long"],"duration":0.2916666666666667,"velocity":63.312736126182294},
{"position":127.9375,"instrument":"TheGrandeurPiano","level2":6,"level3":null,"pitch":89,"articulation":"standard","articulation_tags":["standard","long"],"duration":0.4027777777777778,"velocity":50.371559655594055},
{"position":127.95833333333333,"instrument":"Vibraphone","level2":5,"level3":0,"pitch":82,"articulation":"hits","articulation_tags":["hits","short"],"duration":0.0625,"velocity":89.80779586604467},
{"position":127.96875,"instrument":"Vibraphone","level2":6,"level3":3,"pitch":78,"articulation":"hits","articulation_tags":["hits","short"],"duration":0.0625,"velocity":115.70180656443972},
{"position":128.0,"instrument":"Trumpet","level2":5,"level3":5,"pitch":81,"articulation":"staccato","articulation_tags":["staccato","st","short"],"duration":0.25,"velocity":89.80779586604467},
{"position":128.0,"instrument":"Vibraphone","level2":5,"level3":2,"pitch":81,"articulation":"hits","articulation_tags":["hits","short"],"duration":0.0625,"velocity":89.80779586604467},
{"position":128.0,"instrument":"TheGrandeurPiano","level2":5,"level3":null,"pitch":83,"articulation":"standard","articulation_tags":["standard","long"],"duration":0.6944444444444444,"velocity":63.01861847912347},
{"position":128.10416666666666,"instrument":"TheGrandeurPiano","level2":5,"level3":null,"pitch":83,"articulation":"standard","articulation_tags":["standard","long"],"duration":0.13194444444444445,"velocity":64.09105034648914},
{"position":128.125,"instrument":"Viola","level2":5,"level3":3,"pitch":81,"articulation":"pizzicato","articulation_tags":["pizzicato","pz","short"],"duration":0.125,"velocity":90.02222459535638},
{"position":128.14583333333334,"instrument":"Viola","level2":5,"level3":2,"pitch":81,"articulation":"collegno","articulation_tags":["collegno","cl","short"],"duration":0.125,"velocity":90.02222459535638},
{"position":128.16666666666666,"instrument":"Violin","level2":5,"level3":5,"pitch":82,"articulation":"pizzicato","articulation_tags":["pizzicato","pz","short"],"duration":0.125,"velocity":90.02222459535638},
{"position":128.1875,"instrument":"Violin","level2":5,"level3":10,"pitch":82,"articulation":"pizzicato","articulation_tags":["pizzicato","pz","short"],"duration":0.125,"velocity":90.02222459535638},
{"position":128.1875,"instrument":"Viola","level2":5,"level3":7,"pitch":81,"articulation":"collegno","articulation_tags":["collegno","cl","short"],"duration":0.125,"velocity":90.02222459535638},
{"position":128.27083333333334,"instrument":"Violin","level2":4,"level3":7,"pitch":86,"articulation":"long_hrm","articulation_tags":["long_hrm","hrm","long","harmonics"],"duration":2.4479166666666665,"velocity":71.71508144505565},
{"position":128.30208333333334,"instrument":"TheGrandeurPiano","level2":5,"level3":null,"pitch":84,"articulation":"standard","articulation_tags":["standard","long"],"duration":0.125,"velocity":64.09105034648914},
{"position":128.33333333333334,"instrument":"Trumpet","level2":5,"level3":4,"pitch":82,"articulation":"staccato_muted","articulation_tags":["staccato_muted","stmt","short","staccato","muted"],"duration":0.25,"velocity":90.5694271534706},
{"position":128.34375,"instrument":"TheGrandeurPiano","level2":4,"level3":null,"pitch":91,"articulation":"standard","articulation_tags":["standard","long"],"duration":0.2708333333333333,"velocity":64.40477583668522},
{"position":128.48958333333334,"instrument":"TheGrandeurPiano","level2":5,"level3":null,"pitch":84,"articulation":"standard","articulation_tags":["standard","long"],"duration":0.11805555555555555,"velocity":64.09105034648914},
{"position":128.54166666666666,"instrument":"TheGrandeurPiano","level2":6,"level3":null,"pitch":89,"articulation":"standard","articulation_tags":["standard","long"],"duration":0.4166666666666667,"velocity":51.43830087630415},
{"position":128.61458333333334,"instrument":"Violin","level2":4,"level3":9,"pitch":86,"articulation":"long_cs","articulation_tags":["long_cs","cs","long","consordina"],"duration":0.11458333333333333,"velocity":70.43856244928833},
{"position":128.625,"instrument":"Violin","level2":4,"level3":8,"pitch":86,"articulation":"long_cs","articulation_tags":["long_cs","cs","long","consordina"],"duration":0.10416666666666667,"velocity":70.43856244928833},
{"position":128.66666666666666,"instrument":"TheGrandeurPiano","level2":5,"level3":null,"pitch":85,"articulation":"standard","articulation_tags":["standard","long"],"duration":0.1111111111111111,"velocity":65.60457874509288},
{"position":128.75,"instrument":"TheGrandeurPiano","level2":4,"level3":null,"pitch":91,"articulation":"standard","articulation_tags":["standard","long"],"duration":0.25,"velocity":65.91830423528896},
{"position":128.83333333333334,"instrument":"TheGrandeurPiano","level2":5,"level3":null,"pitch":85,"articulation":"standard","articulation_tags":["standard","long"],"duration":0.10416666666666667,"velocity":65.60457874509288},
{"position":128.95833333333334,"instrument":"Trumpet","level2":5,"level3":4,"pitch":82,"articulation":"staccato_muted","articulation_tags":["staccato_muted","stmt","short","staccato","muted"],"duration":0.25,"velocity":92.2404052704196},
{"position":128.98958333333334,"instrument":"TheGrandeurPiano","level2":5,"level3":null,"pitch":86,"articulation":"standard","articulation_tags":["standard","long"],"duration":0.09722222222222222,"velocity":65.60457874509288},
{"position":129.02083333333334,"instrument":"Violin","level2":5,"level3":0,"pitch":82,"articulation":"collegno","articulation_tags":["collegno","cl","short"],"duration":0.125,"velocity":92.80577589304863},
{"position":129.03125,"instrument":"Viola","level2":5,"level3":1,"pitch":81,"articulation":"pizzicato","articulation_tags":["pizzicato","pz","short"],"duration":0.125,"velocity":92.80577589304863},
{"position":129.04166666666666,"instrument":"TheGrandeurPiano","level2":5,"level3":null,"pitch":86,"articulation":"standard","articulation_tags":["standard","long"],"duration":0.5486111111111112,"velocity":65.91830423528896},
{"position":129.125,"instrument":"Viola","level2":5,"level3":3,"pitch":81,"articulation":"pizzicato","articulation_tags":["pizzicato","pz","short"],"duration":0.125,"velocity":92.55086933233223},
{"position":129.125,"instrument":"TheGrandeurPiano","level2":4,"level3":null,"pitch":90,"articulation":"standard","articulation_tags":["standard","long"],"duration":0.22916666666666666,"velocity":67.74906715319219},
{"position":129.13541666666666,"instrument":"TheGrandeurPiano","level2":5,"level3":null,"pitch":86,"articulation":"standard","articulation_tags":["standard","long"],"duration":0.09027777777777778,"velocity":67.74906715319219},
{"position":129.16666666666666,"instrument":"TheGrandeurPiano","level2":6,"level3":null,"pitch":90,"articulation":"standard","articulation_tags":["standard","long"],"duration":0.4375,"velocity":54.573573985529436},
{"position":129.27083333333334,"instrument":"TheGrandeurPiano","level2":5,"level3":null,"pitch":87,"articulation":"standard","articulation_tags":["standard","long"],"duration":0.08333333333333333,"velocity":65.06402765331592},
{"position":129.30208333333334,"instrument":"Trumpet","level2":5,"level3":0,"pitch":81,"articulation":"staccato_muted","articulation_tags":["staccato_muted","stmt","short","staccato","muted"],"duration":0.25,"velocity":93.70649833858643},
{"position":129.39583333333334,"instrument":"Viola","level2":6,"level3":5,"pitch":79,"articulation":"collegno","articulation_tags":["collegno","cl","short"],"duration":0.125,"velocity":116.40883800217996},
{"position":129.39583333333334,"instrument":"Viola","level2":6,"level3":6,"pitch":79,"articulation":"pizzicato","articulation_tags":["pizzicato","pz","short"],"duration":0.125,"velocity":116.40883800217996},
{"position":129.39583333333334,"instrument":"TheGrandeurPiano","level2":5,"level3":null,"pitch":87,"articulation":"standard","articulation_tags":["standard","long"],"duration":0.0763888888888889,"velocity":65.06402765331592},
{"position":129.42708333333334,"instrument":"Viola","level2":6,"level3":6,"pitch":79,"articulation":"pizzicato","articulation_tags":["pizzicato","pz","short"],"duration":0.125,"velocity":116.40883800217996},
{"position":129.46875,"instrument":"TheGrandeurPiano","level2":4,"level3":null,"pitch":90,"articulation":"standard","articulation_tags":["standard","long"],"duration":0.20833333333333334,"velocity":65.06402765331592},
{"position":129.51041666666666,"instrument":"Viola","level2":5,"level3":3,"pitch":81,"articulation":"pizzicato","articulation_tags":["pizzicato","pz","short"],"duration":0.125,"velocity":94.28844233616238},
{"position":129.52083333333334,"instrument":"TheGrandeurPiano","level2":5,"level3":null,"pitch":88,"articulation":"standard","articulation_tags":["standard","long"],"duration":0.06944444444444445,"velocity":65.06402765331592},
{"position":129.60416666666666,"instrument":"Trumpet","level2":5,"level3":0,"pitch":81,"articulation":"staccato","articulation_tags":["staccato","st","short"],"duration":0.25,"velocity":94.87283985018843},
{"position":129.60416666666666,"instrument":"Viola","level2":5,"level3":3,"pitch":81,"articulation":"collegno","articulation_tags":["collegno","cl","short"],"duration":0.125,"velocity":94.87283985018843},
{"position":129.625,"instrument":"TheGrandeurPiano","level2":5,"level3":null,"pitch":88,"articulation":"standard","articulation_tags":["standard","long"],"duration":0.0625,"velocity":65.06402765331592},
{"position":129.6875,"instrument":"Viola","level2":5,"level3":4,"pitch":81,"articulation":"collegno","articulation_tags":["collegno","cl","short"],"duration":0.125,"velocity":95.45949499876667},
{"position":129.71875,"instrument":"Violin","level2":4,"level3":1,"pitch":84,"articulation":"long_cs","articulation_tags":["long_cs","cs","long","consordina"],"duration":1.9583333333333333,"velocity":66.62683473070172},
{"position":129.71875,"instrument":"TheGrandeurPiano","level2":5,"level3":null,"pitch":89,"articulation":"standard","articulation_tags":["standard","long"],"duration":0.0625,"velocity":67.35230265379957},
{"position":129.76041666666666,"instrument":"Viola","level2":5,"level3":1,"pitch":81,"articulation":"pizzicato","articulation_tags":["pizzicato","pz","short"],"duration":0.125,"velocity":96.05144700437567},
{"position":129.79166666666666,"instrument":"TheGrandeurPiano","level2":4,"level3":null,"pitch":89,"articulation":"standard","articulation_tags":["standard","long"],"duration":0.05555555555555555,"velocity":67.35230265379957},
{"position":129.8125,"instrument":"TheGrandeurPiano","level2":5,"level3":null,"pitch":89,"articulation":"standard","articulation_tags":["standard","long"],"duration":0.041666666666666664,"velocity":67.35230265379957},
{"position":129.82291666666666,"instrument":"TheGrandeurPiano","level2":6,"level3":null,"pitch":90,"articulation":"standard","articulation_tags":["standard","long"],"duration":0.4513888888888889,"velocity":54.20160726734886},
{"position":129.84375,"instrument":"Trumpet","level2":5,"level3":4,"pitch":81,"articulation":"staccato","articulation_tags":["staccato","st","short"],"duration":0.25,"velocity":96.6814833897316},
{"position":129.85416666666666,"instrument":"Viola","level2":6,"level3":5,"pitch":79,"articulation":"collegno","articulation_tags":["collegno","cl","short"],"duration":0.125,"velocity":116.77307590707005},
{"position":129.86458333333334,"instrument":"Viola","level2":6,"level3":4,"pitch":78,"articulation":"pizzicato","articulation_tags":["pizzicato","pz","short"],"duration":0.125,"velocity":116.77307590707005},
{"position":129.91666666666666,"instrument":"Viola","level2":5,"level3":1,"pitch":81,"articulation":"pizzicato","articulation_tags":["pizzicato","pz","short"],"duration":0.125,"velocity":96.6814833897316},
{"position":130.04166666666666,"instrument":"Viola","level2":5,"level3":1,"pitch":81,"articulation":"collegno","articulation_tags":["collegno","cl","short"],"duration":0.125,"velocity":96.6814833897316},
{"position":130.48958333333334,"instrument":"Trumpet","level2":6,"level3":6,"pitch":79,"articulation":"marcato_muted","articulation_tags":["marcato_muted","short","marcato","muted"],"duration":0.25,"velocity":116.77307590707005},
{"position":130.51041666666666,"instrument":"TheGrandeurPiano","level2":6,"level3":null,"pitch":91,"articulation":"standard","articulation_tags":["standard","long"],"duration":0.4722222222222222,"velocity":54.573573985529436},
{"position":130.71875,"instrument":"Violin","level2":4,"level3":7,"pitch":85,"articulation":"long_hrm","articulation_tags":["long_hrm","hrm","long","harmonics"],"duration":1.5729166666666667,"velocity":65.36296677946319},
{"position":131.21875,"instrument":"TheGrandeurPiano","level2":6,"level3":null,"pitch":91,"articulation":"standard","articulation_tags":["standard","long"],"duration":0.5,"velocity":54.38822757816329},
{"position":131.51041666666666,"instrument":"Trumpet","level2":6,"level3":3,"pitch":78,"articulation":"staccato_muted","articulation_tags":["staccato_muted","stmt","short","staccato","muted"],"duration":0.25,"velocity":117.52213817888702},
{"position":131.59375,"instrument":"Violin","level2":4,"level3":7,"pitch":85,"articulation":"long_hrm","articulation_tags":["long_hrm","hrm","long","harmonics"],"duration":1.0208333333333333,"velocity":65.36296677946319},
{"position":131.65625,"instrument":"Viola","level2":6,"level3":2,"pitch":77,"articulation":"pizzicato","articulation_tags":["pizzicato","pz","short"],"duration":0.125,"velocity":117.52213817888702},
{"position":131.67708333333334,"instrument":"Violin","level2":4,"level3":1,"pitch":84,"articulation":"long_cs","articulation_tags":["long_cs","cs","long","consordina"],"duration":0.9166666666666666,"velocity":65.36296677946319},
{"position":131.96875,"instrument":"TheGrandeurPiano","level2":6,"level3":null,"pitch":92,"articulation":"standard","articulation_tags":["standard","long"],"duration":0.5208333333333334,"velocity":53.4418399105213},
{"position":132.03125,"instrument":"Trumpet","level2":6,"level3":5,"pitch":79,"articulation":"staccato_muted","articulation_tags":["staccato_muted","stmt","short","staccato","muted"],"duration":0.25,"velocity":117.9066266360175},
{"position":132.29166666666666,"instrument":"Violin","level2":4,"level3":7,"pitch":85,"articulation":"long_hrm","articulation_tags":["long_hrm","hrm","long","harmonics"],"duration":0.3229166666666667,"velocity":65.36296677946319},
{"position":132.34375,"instrument":"Violin","level2":4,"level3":1,"pitch":85,"articulation":"long_cs","articulation_tags":["long_cs","cs","long","consordina"],"duration":0.2708333333333333,"velocity":65.36296677946319},
{"position":132.59375,"instrument":"Violin","level2":4,"level3":1,"pitch":85,"articulation":"long_hrm","articulation_tags":["long_hrm","hrm","long","harmonics"],"duration":0.020833333333333332,"velocity":65.36296677946319},
{"position":132.75,"instrument":"TheGrandeurPiano","level2":6,"level3":null,"pitch":92,"articulation":"standard","articulation_tags":["standard","long"],"duration":0.5486111111111112,"velocity":55.83738845527822},
{"position":132.89583333333334,"instrument":"Trumpet","level2":6,"level3":5,"pitch":79,"articulation":"staccato_muted","articulation_tags":["staccato_muted","stmt","short","staccato","muted"],"duration":0.25,"velocity":118.29753374534423},
{"position":133.44791666666666,"instrument":"Trumpet","level2":6,"level3":6,"pitch":79,"articulation":"marcato_muted","articulation_tags":["marcato_muted","short","marcato","muted"],"duration":0.25,"velocity":118.29753374534423},
{"position":133.57291666666666,"instrument":"TheGrandeurPiano","level2":6,"level3":null,"pitch":93,"articulation":"standard","articulation_tags":["standard","long"],"duration":0.5833333333333334,"velocity":56.53510304181103},
{"position":134.14583333333334,"instrument":"Trumpet","level2":6,"level3":6,"pitch":79,"articulation":"marcato_muted","articulation_tags":["marcato_muted","short","marcato","muted"],"duration":0.25,"velocity":118.6946983048976},
{"position":134.44791666666666,"instrument":"TheGrandeurPiano","level2":6,"level3":null,"pitch":93,"articulation":"standard","articulation_tags":["standard","long"],"duration":0.625,"velocity":55.660284001116004},
{"position":134.82291666666666,"instrument":"Trumpet","level2":6,"level3":3,"pitch":77,"articulation":"staccato_muted","articulation_tags":["staccato_muted","stmt","short","staccato","muted"],"duration":0.25,"velocity":119.09796201271423},
{"position":134.85416666666666,"instrument":"Viola","level2":6,"level3":4,"pitch":78,"articulation":"pizzicato","articulation_tags":["pizzicato","pz","short"],"duration":0.125,"velocity":119.09796201271423},
{"position":134.88541666666666,"instrument":"Viola","level2":6,"level3":2,"pitch":77,"articulation":"collegno","articulation_tags":["collegno","cl","short"],"duration":0.125,"velocity":119.09796201271423},
{"position":135.38541666666666,"instrument":"TheGrandeurPiano","level2":6,"level3":null,"pitch":94,"articulation":"standard","articulation_tags":["standard","long"],"duration":0.6666666666666666,"velocity":54.573573985529436},
{"position":135.85416666666666,"instrument":"Trumpet","level2":6,"level3":3,"pitch":77,"articulation":"staccato","articulation_tags":["staccato","st","short"],"duration":0.25,"velocity":119.50716955153489},
{"position":136.21875,"instrument":"TheGrandeurPiano","level2":6,"level3":null,"pitch":94,"articulation":"standard","articulation_tags":["standard","long"],"duration":2.111111111111111,"velocity":56.82922068886985},
{"position":136.39583333333334,"instrument":"TheGrandeurPiano","level2":6,"level3":null,"pitch":94,"articulation":"standard","articulation_tags":["standard","long"],"duration":0.7291666666666666,"velocity":56.82922068886985},
{"position":136.80208333333334,"instrument":"Trumpet","level2":6,"level3":5,"pitch":78,"articulation":"staccato_muted","articulation_tags":["staccato_muted","stmt","short","staccato","muted"],"duration":0.25,"velocity":119.40402547148594},
{"position":137.48958333333334,"instrument":"TheGrandeurPiano","level2":6,"level3":null,"pitch":95,"articulation":"standard","articulation_tags":["standard","long"],"duration":0.8055555555555556,"velocity":58.82918509413777},
{"position":138.69791666666666,"instrument":"TheGrandeurPiano","level2":6,"level3":null,"pitch":95,"articulation":"standard","articulation_tags":["standard","long"],"duration":0.9236111111111112,"velocity":56.30752065188251},
{"position":138.875,"instrument":"Trumpet","level2":6,"level3":6,"pitch":78,"articulation":"marcato_muted","articulation_tags":["marcato_muted","short","marcato","muted"],"duration":0.25,"velocity":120.24365367015459},
{"position":139.38541666666666,"instrument":"TheGrandeurPiano","level2":6,"level3":null,"pitch":95,"articulation":"standard","articulation_tags":["standard","long"],"duration":1.5555555555555556,"velocity":56.60163829894134},
{"position":139.88541666666666,"instrument":"Trumpet","level2":6,"level3":4,"pitch":77,"articulation":"marcato_muted","articulation_tags":["marcato_muted","short","marcato","muted"],"duration":0.25,"velocity":119.7547382095141},
{"position":140.07291666666666,"instrument":"TheGrandeurPiano","level2":6,"level3":null,"pitch":96,"articulation":"standard","articulation_tags":["standard","long"],"duration":1.1041666666666667,"velocity":57.12333833592868},
{"position":140.67708333333334,"instrument":"Clarinet","level2":6,"level3":5,"pitch":78,"articulation":"staccato","articulation_tags":["staccato","st","short"],"duration":0.125,"velocity":120.18310387231581},
{"position":141.71875,"instrument":"TheGrandeurPiano","level2":6,"level3":null,"pitch":96,"articulation":"standard","articulation_tags":["standard","long"],"duration":1.3055555555555556,"velocity":57.417455982987505},
{"position":141.72916666666666,"instrument":"TheGrandeurPiano","level2":6,"level3":null,"pitch":96,"articulation":"standard","articulation_tags":["standard","long"],"duration":1.5069444444444444,"velocity":57.417455982987505},
{"position":141.98958333333334,"instrument":"Trumpet","level2":6,"level3":7,"pitch":79,"articulation":"staccato_muted","articulation_tags":["staccato_muted","stmt","short","staccato","muted"],"duration":0.25,"velocity":120.13980428989997},
{"position":141.98958333333334,"instrument":"Viola","level2":6,"level3":8,"pitch":79,"articulation":"collegno","articulation_tags":["collegno","cl","short"],"duration":0.125,"velocity":120.13980428989997},
{"position":142.09375,"instrument":"Viola","level2":6,"level3":7,"pitch":79,"articulation":"collegno","articulation_tags":["collegno","cl","short"],"duration":0.125,"velocity":120.13980428989997},
{"position":142.13541666666666,"instrument":"Viola","level2":6,"level3":7,"pitch":79,"articulation":"collegno","articulation_tags":["collegno","cl","short"],"duration":0.125,"velocity":120.13980428989997},
{"position":142.27083333333334,"instrument":"Trumpet","level2":6,"level3":6,"pitch":78,"articulation":"marcato","articulation_tags":["marcato","short"],"duration":0.25,"velocity":120.13980428989997},
{"position":142.5,"instrument":"Viola","level2":6,"level3":8,"pitch":79,"articulation":"pizzicato","articulation_tags":["pizzicato","pz","short"],"duration":0.125,"velocity":120.13980428989997},
{"position":142.64583333333334,"instrument":"Trumpet","level2":6,"level3":8,"pitch":79,"articulation":"staccato","articulation_tags":["staccato","st","short"],"duration":0.25,"velocity":120.13980428989997},
{"position":143.625,"instrument":"Trumpet","level2":6,"level3":6,"pitch":78,"articulation":"marcato","articulation_tags":["marcato","short"],"duration":0.25,"velocity":120.13980428989997},
{"position":143.67708333333334,"instrument":"TheGrandeurPiano","level2":6,"level3":null,"pitch":96,"articulation":"standard","articulation_tags":["standard","long"],"duration":1.1458333333333333,"velocity":56.8367545893513},
{"position":143.98958333333334,"instrument":"TheGrandeurPiano","level2":6,"level3":null,"pitch":85,"articulation":"standard","articulation_tags":["standard","long"],"duration":2.338582677165354,"velocity":58.5610193585222},
{"position":144.07291666666666,"instrument":"Clarinet","level2":6,"level3":7,"pitch":79,"articulation":"staccato","articulation_tags":["staccato","st","short"],"duration":0.125,"velocity":120.11380459246223},
{"position":144.42708333333334,"instrument":"Trumpet","level2":6,"level3":5,"pitch":77,"articulation":"staccato_muted","articulation_tags":["staccato_muted","stmt","short","staccato","muted"],"duration":0.25,"velocity":120.11380459246223},
{"position":145.16666666666666,"instrument":"Trumpet","level2":6,"level3":4,"pitch":77,"articulation":"marcato_muted","articulation_tags":["marcato_muted","short","marcato","muted"],"duration":0.25,"velocity":120.11380459246223},
{"position":145.19791666666666,"instrument":"Viola","level2":6,"level3":6,"pitch":78,"articulation":"pizzicato","articulation_tags":["pizzicato","pz","short"],"duration":0.125,"velocity":120.11380459246223},
{"position":145.39583333333334,"instrument":"TheGrandeurPiano","level2":6,"level3":null,"pitch":85,"articulation":"standard","articulation_tags":["standard","long"],"duration":1.0347222222222223,"velocity":57.307976690572346},
{"position":145.75,"instrument":"Trumpet","level2":6,"level3":7,"pitch":78,"articulation":"staccato_muted","articulation_tags":["staccato_muted","stmt","short","staccato","muted"],"duration":0.25,"velocity":119.64279102320398},
{"position":145.78125,"instrument":"Viola","level2":6,"level3":8,"pitch":79,"articulation":"pizzicato","articulation_tags":["pizzicato","pz","short"],"duration":0.125,"velocity":119.64279102320398},
{"position":145.82291666666666,"instrument":"Viola","level2":6,"level3":4,"pitch":77,"articulation":"pizzicato","articulation_tags":["pizzicato","pz","short"],"duration":0.125,"velocity":119.64279102320398},
{"position":146.66666666666666,"instrument":"TenorTrombone","level2":8,"level3":0,"pitch":64,"articulation":"sforzando","articulation_tags":["sforzando","sfz","long"],"duration":4.78125,"velocity":111.28558204640798},
{"position":146.94791666666666,"instrument":"TheGrandeurPiano","level2":6,"level3":null,"pitch":85,"articulation":"standard","articulation_tags":["standard","long"],"duration":0.9513888888888888,"velocity":57.424989883468946},
{"position":147.09375,"instrument":"TheGrandeurPiano","level2":7,"level3":null,"pitch":60,"articulation":"standard","articulation_tags":["standard","long"],"duration":0.006944444444444444,"velocity":57.13087223641013},
{"position":147.09375,"instrument":"TheGrandeurPiano","level2":8,"level3":null,"pitch":60,"articulation":"standard","articulation_tags":["standard","long"],"duration":0.0,"velocity":56.8367545893513},
{"position":147.09375,"instrument":"TheGrandeurPiano","level2":8,"level3":null,"pitch":60,"articulation":"standard","articulation_tags":["standard","long"],"duration":0.013888888888888888,"velocity":56.8367545893513},
{"position":147.09375,"instrument":"TheGrandeurPiano","level2":8,"level3":null,"pitch":60,"articulation":"standard","articulation_tags":["standard","long"],"duration":0.10416666666666667,"velocity":56.8367545893513},
{"position":147.10416666666666,"instrument":"TheGrandeurPiano","level2":7,"level3":null,"pitch":60,"articulation":"standard","articulation_tags":["standard","long"],"duration":0.027777777777777776,"velocity":57.424989883468946},
{"position":147.10416666666666,"instrument":"TheGrandeurPiano","level2":8,"level3":null,"pitch":60,"articulation":"standard","articulation_tags":["standard","long"],"duration":0.034722222222222224,"velocity":56.542636942292475},
{"position":147.13541666666666,"instrument":"TheGrandeurPiano","level2":7,"level3":null,"pitch":61,"articulation":"standard","articulation_tags":["standard","long"],"duration":0.09722222222222222,"velocity":57.424989883468946},
{"position":147.15625,"instrument":"TheGrandeurPiano","level2":8,"level3":null,"pitch":60,"articulation":"standard","articulation_tags":["standard","long"],"duration":0.05555555555555555,"velocity":57.8048203360442},
{"position":147.15625,"instrument":"TheGrandeurPiano","level2":7,"level3":null,"pitch":61,"articulation":"standard","articulation_tags":["standard","long"],"duration":0.05555555555555555,"velocity":59.27540857133832},
{"position":147.22916666666666,"instrument":"TheGrandeurPiano","level2":7,"level3":null,"pitch":61,"articulation":"standard","articulation_tags":["standard","long"],"duration":0.0763888888888889,"velocity":59.56952621839714},
{"position":147.23958333333334,"instrument":"TheGrandeurPiano","level2":8,"level3":null,"pitch":60,"articulation":"standard","articulation_tags":["standard","long"],"duration":0.0763888888888889,"velocity":57.51070268898538},
{"position":147.26041666666666,"instrument":"TheGrandeurPiano","level2":8,"level3":null,"pitch":59,"articulation":"standard","articulation_tags":["standard","long"],"duration":0.4166666666666667,"velocity":57.51070268898538},
{"position":147.28125,"instrument":"TheGrandeurPiano","level2":7,"level3":null,"pitch":61,"articulation":"standard","articulation_tags":["standard","long"],"duration":0.1527777777777778,"velocity":56.92651516200002},
{"position":147.34375,"instrument":"Cello","level2":7,"level3":0,"pitch":71,"articulation":"spiccato","articulation_tags":["spiccato","sp","short"],"duration":0.125,"velocity":106.94947917237968},
{"position":147.34375,"instrument":"Cello","level2":7,"level3":1,"pitch":71,"articulation":"spiccato","articulation_tags":["spiccato","sp","short"],"duration":0.125,"velocity":106.94947917237968},
{"position":147.34375,"instrument":"TheGrandeurPiano","level2":8,"level3":null,"pitch":59,"articulation":"standard","articulation_tags":["standard","long"],"duration":0.09027777777777778,"velocity":54.573573985529436},
{"position":147.34375,"instrument":"TheGrandeurPiano","level2":7,"level3":null,"pitch":61,"articulation":"standard","articulation_tags":["standard","long"],"duration":0.09722222222222222,"velocity":57.220632809058856},
{"position":147.36458333333334,"instrument":"Cello","level2":7,"level3":0,"pitch":71,"articulation":"spiccato","articulation_tags":["spiccato","sp","short"],"duration":0.125,"velocity":106.33938166372846},
{"position":147.48958333333334,"instrument":"TheGrandeurPiano","level2":8,"level3":null,"pitch":59,"articulation":"standard","articulation_tags":["standard","long"],"duration":0.1111111111111111,"velocity":54.27945633847062},
{"position":147.5,"instrument":"TheGrandeurPiano","level2":7,"level3":null,"pitch":61,"articulation":"standard","articulation_tags":["standard","long"],"duration":0.125,"velocity":57.514750456117675},
{"position":147.51041666666666,"instrument":"TheGrandeurPiano","level2":7,"level3":null,"pitch":62,"articulation":"standard","articulation_tags":["standard","long"],"duration":0.1875,"velocity":57.514750456117675},
{"position":147.625,"instrument":"Cello","level2":7,"level3":1,"pitch":71,"articulation":"staccato","articulation_tags":["staccato","st","short"],"duration":0.125,"velocity":105.45991644615526},
{"position":147.65625,"instrument":"TheGrandeurPiano","level2":8,"level3":null,"pitch":59,"articulation":"standard","articulation_tags":["standard","long"],"duration":0.13194444444444445,"velocity":55.94686774769338},
{"position":147.6875,"instrument":"TheGrandeurPiano","level2":7,"level3":null,"pitch":62,"articulation":"standard","articulation_tags":["standard","long"],"duration":0.1527777777777778,"velocity":59.770397159458085},
{"position":147.79166666666666,"instrument":"TheGrandeurPiano","level2":7,"level3":null,"pitch":62,"articulation":"standard","articulation_tags":["standard","long"],"duration":0.2152777777777778,"velocity":59.770397159458085},
{"position":147.82291666666666,"instrument":"Trumpet","level2":6,"level3":5,"pitch":77,"articulation":"staccato_muted","articulation_tags":["staccato_muted","stmt","short","staccato","muted"],"duration":0.25,"velocity":119.16876830979012},
{"position":147.85416666666666,"instrument":"TheGrandeurPiano","level2":8,"level3":null,"pitch":59,"articulation":"standard","articulation_tags":["standard","long"],"duration":0.1527777777777778,"velocity":55.65275010063456},
{"position":147.875,"instrument":"TheGrandeurPiano","level2":8,"level3":null,"pitch":59,"articulation":"standard","articulation_tags":["standard","long"],"duration":1.9291338582677164,"velocity":55.65275010063456},
{"position":147.89583333333334,"instrument":"Viola","level2":6,"level3":8,"pitch":78,"articulation":"pizzicato","articulation_tags":["pizzicato","pz","short"],"duration":0.125,"velocity":119.16876830979012},
{"position":147.90625,"instrument":"Viola","level2":6,"level3":5,"pitch":77,"articulation":"collegno","articulation_tags":["collegno","cl","short"],"duration":0.125,"velocity":119.16876830979012},
{"position":147.91666666666666,"instrument":"TheGrandeurPiano","level2":7,"level3":null,"pitch":62,"articulation":"standard","articulation_tags":["standard","long"],"duration":0.18055555555555555,"velocity":60.06451480651692},
{"position":147.92708333333334,"instrument":"Cello","level2":7,"level3":0,"pitch":71,"articulation":"spiccato","articulation_tags":["spiccato","sp","short"],"duration":0.125,"velocity":103.97054438314284},
{"position":147.95833333333334,"instrument":"Cello","level2":7,"level3":0,"pitch":71,"articulation":"short_hrm","articulation_tags":["short_hrm","hrm_s","short","harmonics"],"duration":0.125,"velocity":103.97054438314284},
{"position":148.09375,"instrument":"TheGrandeurPiano","level2":8,"level3":null,"pitch":59,"articulation":"standard","articulation_tags":["standard","long"],"duration":0.1736111111111111,"velocity":53.02513667911357},
{"position":148.11458333333334,"instrument":"TheGrandeurPiano","level2":7,"level3":null,"pitch":63,"articulation":"standard","articulation_tags":["standard","long"],"duration":0.2361111111111111,"velocity":57.731019032054746},
{"position":148.17708333333334,"instrument":"TheGrandeurPiano","level2":7,"level3":null,"pitch":63,"articulation":"standard","articulation_tags":["standard","long"],"duration":0.20833333333333334,"velocity":58.02513667911357},
{"position":148.35416666666666,"instrument":"TheGrandeurPiano","level2":8,"level3":null,"pitch":59,"articulation":"standard","articulation_tags":["standard","long"],"duration":0.19444444444444445,"velocity":55.06451480651691},
{"position":148.375,"instrument":"TheGrandeurPiano","level2":6,"level3":null,"pitch":85,"articulation":"standard","articulation_tags":["standard","long"],"duration":0.8819444444444444,"velocity":58.593926571222795},
{"position":148.46875,"instrument":"TheGrandeurPiano","level2":7,"level3":null,"pitch":63,"articulation":"standard","articulation_tags":["standard","long"],"duration":0.2569444444444444,"velocity":60.35863245357574},
{"position":148.48958333333334,"instrument":"Trumpet","level2":6,"level3":6,"pitch":77,"articulation":"marcato_muted","articulation_tags":["marcato_muted","short","marcato","muted"],"duration":0.25,"velocity":118.6994628269553},
{"position":148.5,"instrument":"TheGrandeurPiano","level2":7,"level3":null,"pitch":63,"articulation":"standard","articulation_tags":["standard","long"],"duration":0.24305555555555555,"velocity":58.69122104435297},
{"position":148.52083333333334,"instrument":"Viola","level2":6,"level3":4,"pitch":77,"articulation":"collegno","articulation_tags":["collegno","cl","short"],"duration":0.125,"velocity":118.6994628269553},
{"position":148.5625,"instrument":"Cello","level2":7,"level3":2,"pitch":71,"articulation":"spiccato","articulation_tags":["spiccato","sp","short"],"duration":0.125,"velocity":102.22483985410028},
{"position":148.5625,"instrument":"Cello","level2":7,"level3":3,"pitch":71,"articulation":"spiccato","articulation_tags":["spiccato","sp","short"],"duration":0.125,"velocity":102.22483985410028},
{"position":148.59375,"instrument":"Cello","level2":7,"level3":2,"pitch":71,"articulation":"spiccato","articulation_tags":["spiccato","sp","short"],"duration":0.125,"velocity":102.22483985410028},
{"position":148.64583333333334,"instrument":"TheGrandeurPiano","level2":8,"level3":null,"pitch":59,"articulation":"standard","articulation_tags":["standard","long"],"duration":0.2222222222222222,"velocity":52.80886810317649},
{"position":148.79166666666666,"instrument":"Cello","level2":7,"level3":1,"pitch":71,"articulation":"staccato","articulation_tags":["staccato","st","short"],"duration":0.125,"velocity":102.22483985410028},
{"position":148.84375,"instrument":"TheGrandeurPiano","level2":7,"level3":null,"pitch":64,"articulation":"standard","articulation_tags":["standard","long"],"duration":0.2708333333333333,"velocity":61.334232100750086},
{"position":148.86458333333334,"instrument":"TheGrandeurPiano","level2":7,"level3":null,"pitch":64,"articulation":"standard","articulation_tags":["standard","long"],"duration":0.2777777777777778,"velocity":61.62834974780891},
{"position":148.875,"instrument":"Cello","level2":7,"level3":3,"pitch":71,"articulation":"staccato","articulation_tags":["staccato","st","short"],"duration":0.125,"velocity":101.35853254977835},
{"position":148.97916666666666,"instrument":"TheGrandeurPiano","level2":8,"level3":null,"pitch":59,"articulation":"standard","articulation_tags":["standard","long"],"duration":0.24305555555555555,"velocity":55.15776151251479},
{"position":149.14583333333334,"instrument":"Cello","level2":7,"level3":4,"pitch":71,"articulation":"spiccato","articulation_tags":["spiccato","sp","short"],"duration":0.125,"velocity":101.35853254977835},
{"position":149.14583333333334,"instrument":"Cello","level2":7,"level3":5,"pitch":71,"articulation":"spiccato","articulation_tags":["spiccato","sp","short"],"duration":0.125,"velocity":101.35853254977835},
{"position":149.15625,"instrument":"Trumpet","level2":6,"level3":5,"pitch":77,"articulation":"staccato","articulation_tags":["staccato","st","short"],"duration":0.25,"velocity":118.6994628269553},
{"position":149.15625,"instrument":"Cello","level2":7,"level3":5,"pitch":71,"articulation":"spiccato","articulation_tags":["spiccato","sp","short"],"duration":0.125,"velocity":101.35853254977835},
{"position":149.25,"instrument":"TheGrandeurPiano","level2":7,"level3":null,"pitch":64,"articulation":"standard","articulation_tags":["standard","long"],"duration":0.2777777777777778,"velocity":60.07204870699835},
{"position":149.28125,"instrument":"TheGrandeurPiano","level2":7,"level3":null,"pitch":64,"articulation":"standard","articulation_tags":["standard","long"],"duration":0.3194444444444444,"velocity":60.36616635405718},
{"position":149.33333333333334,"instrument":"TheGrandeurPiano","level2":8,"level3":null,"pitch":59,"articulation":"standard","articulation_tags":["standard","long"],"duration":0.2638888888888889,"velocity":53.30734282464542},
{"position":149.44791666666666,"instrument":"Cello","level2":7,"level3":2,"pitch":71,"articulation":"short_hrm","articulation_tags":["short_hrm","hrm_s","short","harmonics"],"duration":0.125,"velocity":100.49711980025124},
{"position":149.44791666666666,"instrument":"Cello","level2":7,"level3":4,"pitch":71,"articulation":"spiccato","articulation_tags":["spiccato","sp","short"],"duration":0.125,"velocity":100.49711980025124},
{"position":149.55208333333334,"instrument":"Trumpet","level2":6,"level3":7,"pitch":78,"articulation":"staccato_muted","articulation_tags":["staccato_muted","stmt","short","staccato","muted"],"duration":0.25,"velocity":118.6994628269553},
{"position":149.60416666666666,"instrument":"Cello","level2":7,"level3":4,"pitch":71,"articulation":"short_hrm","articulation_tags":["short_hrm","hrm_s","short","harmonics"],"duration":0.125,"velocity":100.49711980025124},
{"position":149.67708333333334,"instrument":"TheGrandeurPiano","level2":7,"level3":null,"pitch":65,"articulation":"standard","articulation_tags":["standard","long"],"duration":0.2916666666666667,"velocity":59.09410993110447},
{"position":149.69791666666666,"instrument":"TheGrandeurPiano","level2":6,"level3":null,"pitch":85,"articulation":"standard","articulation_tags":["standard","long"],"duration":0.8194444444444444,"velocity":56.741168754633875},
{"position":149.69791666666666,"instrument":"Cello","level2":7,"level3":1,"pitch":71,"articulation":"staccato","articulation_tags":["staccato","st","short"],"duration":0.125,"velocity":100.26979765098201},
{"position":149.73958333333334,"instrument":"TheGrandeurPiano","level2":8,"level3":null,"pitch":59,"articulation":"standard","articulation_tags":["standard","long"],"duration":0.2847222222222222,"velocity":54.7374899467575},
{"position":149.76041666666666,"instrument":"TheGrandeurPiano","level2":7,"level3":null,"pitch":65,"articulation":"standard","articulation_tags":["standard","long"],"duration":0.3680555555555556,"velocity":62.38454877028691},
{"position":149.77083333333334,"instrument":"CorAnglais","level2":7,"level3":5,"pitch":71,"articulation":"legato","articulation_tags":["legato","lg"],"duration":2.28125,"velocity":71.28211842925116},
{"position":149.78125,"instrument":"Bassoon","level2":7,"level3":6,"pitch":71,"articulation":"legato","articulation_tags":["legato","lg"],"duration":0.052083333333333336,"velocity":71.28211842925116},
{"position":149.78125,"instrument":"Flute","level2":7,"level3":7,"pitch":71,"articulation":"legato","articulation_tags":["legato","lg"],"duration":0.3854166666666667,"velocity":71.28211842925116},
{"position":149.83333333333334,"instrument":"Trumpet","level2":7,"level3":6,"pitch":71,"articulation":"long_muted","articulation_tags":["long_muted","muted","mt","long"],"duration":1.4479166666666667,"velocity":71.28211842925116},
{"position":149.84375,"instrument":"Bassoon","level2":7,"level3":0,"pitch":71,"articulation":"legato","articulation_tags":["legato","lg"],"duration":8.395833333333334,"velocity":71.28211842925116},
{"position":150.10416666666666,"instrument":"TheGrandeurPiano","level2":7,"level3":null,"pitch":65,"articulation":"standard","articulation_tags":["standard","long"],"duration":0.2986111111111111,"velocity":61.53510304181103},
{"position":150.16666666666666,"instrument":"TheGrandeurPiano","level2":8,"level3":null,"pitch":59,"articulation":"standard","articulation_tags":["standard","long"],"duration":0.3125,"velocity":53.593926571222795},
{"position":150.16666666666666,"instrument":"Cello","level2":7,"level3":7,"pitch":71,"articulation":"staccato","articulation_tags":["staccato","st","short"],"duration":0.125,"velocity":99.42286881246343},
{"position":150.30208333333334,"instrument":"TheGrandeurPiano","level2":7,"level3":null,"pitch":65,"articulation":"standard","articulation_tags":["standard","long"],"duration":0.4236111111111111,"velocity":61.30752065188251},
{"position":150.3125,"instrument":"Cello","level2":7,"level3":6,"pitch":71,"articulation":"spiccato","articulation_tags":["spiccato","sp","short"],"duration":0.125,"velocity":98.7908638581531},
{"position":150.40625,"instrument":"Cello","level2":7,"level3":3,"pitch":71,"articulation":"staccato","articulation_tags":["staccato","st","short"],"duration":0.125,"velocity":98.7908638581531},
{"position":150.5625,"instrument":"TheGrandeurPiano","level2":7,"level3":null,"pitch":66,"articulation":"standard","articulation_tags":["standard","long"],"duration":0.3055555555555556,"velocity":61.30752065188251},
{"position":150.63541666666666,"instrument":"TheGrandeurPiano","level2":8,"level3":null,"pitch":59,"articulation":"standard","articulation_tags":["standard","long"],"duration":0.3402777777777778,"velocity":52.77810888717663},
{"position":150.77083333333334,"instrument":"Cello","level2":7,"level3":5,"pitch":71,"articulation":"staccato","articulation_tags":["staccato","st","short"],"duration":0.125,"velocity":98.5824363583698},
{"position":150.86458333333334,"instrument":"TheGrandeurPiano","level2":6,"level3":null,"pitch":96,"articulation":"standard","articulation_tags":["standard","long"],"duration":1.2291666666666667,"velocity":58.19032963174882},
{"position":150.92708333333334,"instrument":"TheGrandeurPiano","level2":6,"level3":null,"pitch":96,"articulation":"standard","articulation_tags":["standard","long"],"duration":0.7708333333333334,"velocity":58.484447278807636},
{"position":150.9375,"instrument":"TheGrandeurPiano","level2":7,"level3":null,"pitch":66,"articulation":"standard","articulation_tags":["standard","long"],"duration":0.4930555555555556,"velocity":61.42562374939588},
{"position":151.0,"instrument":"Cello","level2":7,"level3":8,"pitch":71,"articulation":"spiccato","articulation_tags":["spiccato","sp","short"],"duration":0.125,"velocity":97.94711028590353},
{"position":151.0,"instrument":"Cello","level2":7,"level3":9,"pitch":71,"articulation":"spiccato","articulation_tags":["spiccato","sp","short"],"duration":0.125,"velocity":97.94711028590353},
{"position":151.02083333333334,"instrument":"TheGrandeurPiano","level2":7,"level3":null,"pitch":66,"articulation":"standard","articulation_tags":["standard","long"],"duration":0.3125,"velocity":61.42562374939588},
{"position":151.08333333333334,"instrument":"Cello","level2":7,"level3":2,"pitch":71,"articulation":"short_hrm","articulation_tags":["short_hrm","hrm_s","short","harmonics"],"duration":0.125,"velocity":97.74913640786954},
{"position":151.11458333333334,"instrument":"Cello","level2":7,"level3":8,"pitch":71,"articulation":"spiccato","articulation_tags":["spiccato","sp","short"],"duration":0.125,"velocity":97.74913640786954},
{"position":151.14583333333334,"instrument":"TheGrandeurPiano","level2":8,"level3":null,"pitch":59,"articulation":"standard","articulation_tags":["standard","long"],"duration":0.3680555555555556,"velocity":52.48399124011781},
{"position":151.17708333333334,"instrument":"Cello","level2":8,"level3":1,"pitch":64,"articulation":"spiccato","articulation_tags":["spiccato","sp","short"],"duration":0.125,"velocity":120.52801806782884},
{"position":151.17708333333334,"instrument":"Cello","level2":8,"level3":2,"pitch":64,"articulation":"spiccato","articulation_tags":["spiccato","sp","short"],"duration":0.125,"velocity":120.52801806782884},
{"position":151.28125,"instrument":"Trumpet","level2":7,"level3":6,"pitch":71,"articulation":"long_muted","articulation_tags":["long_muted","muted","mt","long"],"duration":4.458333333333333,"velocity":67.49827281573909},
{"position":151.34375,"instrument":"Cello","level2":8,"level3":1,"pitch":64,"articulation":"spiccato","articulation_tags":["spiccato","sp","short"],"duration":0.125,"velocity":120.52801806782884},
{"position":151.44791666666666,"instrument":"Cello","level2":8,"level3":0,"pitch":64,"articulation":"spiccato","articulation_tags":["spiccato","sp","short"],"duration":0.125,"velocity":120.52801806782884},
{"position":151.48958333333334,"instrument":"TheGrandeurPiano","level2":7,"level3":null,"pitch":67,"articulation":"standard","articulation_tags":["standard","long"],"duration":0.3194444444444444,"velocity":61.60163829894133},
{"position":151.54166666666666,"instrument":"Cello","level2":7,"level3":9,"pitch":71,"articulation":"staccato","articulation_tags":["staccato","st","short"],"duration":0.125,"velocity":97.56703886637735},
{"position":151.60416666666666,"instrument":"Cello","level2":7,"level3":4,"pitch":71,"articulation":"short_hrm","articulation_tags":["short_hrm","hrm_s","short","harmonics"],"duration":0.125,"velocity":97.56703886637735},
{"position":151.60416666666666,"instrument":"Cello","level2":7,"level3":1,"pitch":71,"articulation":"short_marcato","articulation_tags":["short_marcato","marcato_s","short","marcato"],"duration":0.125,"velocity":97.56703886637735},
{"position":151.65625,"instrument":"Cello","level2":7,"level3":7,"pitch":71,"articulation":"staccato","articulation_tags":["staccato","st","short"],"duration":0.125,"velocity":97.56703886637735},
{"position":151.67708333333334,"instrument":"TheGrandeurPiano","level2":7,"level3":null,"pitch":67,"articulation":"standard","articulation_tags":["standard","long"],"duration":0.5763888888888888,"velocity":62.4174559829875},
{"position":151.69791666666666,"instrument":"TheGrandeurPiano","level2":8,"level3":null,"pitch":59,"articulation":"standard","articulation_tags":["standard","long"],"duration":0.3958333333333333,"velocity":52.711573630046324},
{"position":151.96875,"instrument":"TheGrandeurPiano","level2":7,"level3":null,"pitch":67,"articulation":"standard","articulation_tags":["standard","long"],"duration":0.3194444444444444,"velocity":63.266901711463376},
{"position":152.02083333333334,"instrument":"Clarinet","level2":7,"level3":0,"pitch":71,"articulation":"legato","articulation_tags":["legato","lg"],"duration":4.833333333333333,"velocity":65.50698741162813},
{"position":152.03125,"instrument":"Clarinet","level2":7,"level3":10,"pitch":71,"articulation":"legato","articulation_tags":["legato","lg"],"duration":0.96875,"velocity":65.50698741162813},
{"position":152.03125,"instrument":"Flute","level2":7,"level3":11,"pitch":71,"articulation":"legato","articulation_tags":["legato","lg"],"duration":0.0,"velocity":65.50698741162813},
{"position":152.04166666666666,"instrument":"CorAnglais","level2":7,"level3":11,"pitch":71,"articulation":"legato","articulation_tags":["legato","lg"],"duration":1.2708333333333333,"velocity":65.50698741162813},
{"position":152.05208333333334,"instrument":"Flute","level2":7,"level3":5,"pitch":71,"articulation":"legato","articulation_tags":["legato","lg"],"duration":5.447916666666667,"velocity":65.50698741162813},
{"position":152.08333333333334,"instrument":"TheGrandeurPiano","level2":6,"level3":null,"pitch":96,"articulation":"standard","articulation_tags":["standard","long"],"duration":0.7222222222222222,"velocity":60.325725240875144},
{"position":152.15625,"instrument":"TenorTrombone","level2":8,"level3":2,"pitch":64,"articulation":"sforzando","articulation_tags":["sforzando","sfz","long"],"duration":6.197916666666667,"velocity":114.22538402862557},
{"position":152.20833333333334,"instrument":"Oboe","level2":7,"level3":12,"pitch":70,"articulation":"legato","articulation_tags":["legato","lg"],"duration":0.5,"velocity":65.50698741162813},
{"position":152.20833333333334,"instrument":"Oboe","level2":7,"level3":13,"pitch":70,"articulation":"legato","articulation_tags":["legato","lg"],"duration":1.4583333333333333,"velocity":65.50698741162813},
{"position":152.29166666666666,"instrument":"TheGrandeurPiano","level2":8,"level3":null,"pitch":59,"articulation":"standard","articulation_tags":["standard","long"],"duration":0.4305555555555556,"velocity":53.266901711463376},
{"position":152.44791666666666,"instrument":"TheGrandeurPiano","level2":7,"level3":null,"pitch":68,"articulation":"standard","articulation_tags":["standard","long"],"duration":0.3263888888888889,"velocity":64.4452484141391},
{"position":152.54166666666666,"instrument":"TheGrandeurPiano","level2":7,"level3":null,"pitch":68,"articulation":"standard","articulation_tags":["standard","long"],"duration":0.7013888888888888,"velocity":61.836754589351294},
{"position":152.6875,"instrument":"Cello","level2":7,"level3":7,"pitch":71,"articulation":"staccato","articulation_tags":["staccato","st","short"],"duration":0.125,"velocity":95.95263254396923},
{"position":152.69791666666666,"instrument":"Cello","level2":7,"level3":12,"pitch":70,"articulation":"spiccato","articulation_tags":["spiccato","sp","short"],"duration":0.125,"velocity":95.95263254396923},
{"position":152.70833333333334,"instrument":"TheGrandeurPiano","level2":6,"level3":null,"pitch":96,"articulation":"standard","articulation_tags":["standard","long"],"duration":0.8263888888888888,"velocity":58.601460471704236},
{"position":152.75,"instrument":"Cello","level2":7,"level3":12,"pitch":70,"articulation":"spiccato","articulation_tags":["spiccato","sp","short"],"duration":0.125,"velocity":95.95263254396923},
{"position":152.91666666666666,"instrument":"TheGrandeurPiano","level2":8,"level3":null,"pitch":59,"articulation":"standard","articulation_tags":["standard","long"],"duration":1.7986111111111112,"velocity":53.09893798310303},
{"position":152.9375,"instrument":"TheGrandeurPiano","level2":7,"level3":null,"pitch":68,"articulation":"standard","articulation_tags":["standard","long"],"duration":0.3263888888888889,"velocity":63.39305563016184},
{"position":152.9375,"instrument":"TheGrandeurPiano","level2":8,"level3":null,"pitch":59,"articulation":"standard","articulation_tags":["standard","long"],"duration":0.4652777777777778,"velocity":52.8048203360442},
{"position":153.0,"instrument":"Cello","level2":7,"level3":10,"pitch":71,"articulation":"short_hrm","articulation_tags":["short_hrm","hrm_s","short","harmonics"],"duration":0.125,"velocity":95.82161042231257},
{"position":153.07291666666666,"instrument":"Viola","level2":6,"level3":8,"pitch":78,"articulation":"pizzicato","articulation_tags":["pizzicato","pz","short"],"duration":0.125,"velocity":116.34867698381308},
{"position":153.11458333333334,"instrument":"Cello","level2":7,"level3":14,"pitch":70,"articulation":"spiccato","articulation_tags":["spiccato","sp","short"],"duration":0.125,"velocity":95.82161042231257},
{"position":153.16666666666666,"instrument":"TheGrandeurPiano","level2":6,"level3":null,"pitch":96,"articulation":"standard","articulation_tags":["standard","long"],"duration":0.6805555555555556,"velocity":62.25069305488431},
{"position":153.27083333333334,"instrument":"Clarinet","level2":7,"level3":12,"pitch":70,"articulation":"legato","articulation_tags":["legato","lg"],"duration":0.375,"velocity":63.643220844625155},
{"position":153.3125,"instrument":"CorAnglais","level2":6,"level3":7,"pitch":77,"articulation":"staccato","articulation_tags":["staccato","st","short"],"duration":0.125,"velocity":115.88977219130092},
{"position":153.3125,"instrument":"Oboe","level2":7,"level3":11,"pitch":71,"articulation":"legato","articulation_tags":["legato","lg"],"duration":3.4166666666666665,"velocity":63.643220844625155},
{"position":153.42708333333334,"instrument":"TheGrandeurPiano","level2":7,"level3":null,"pitch":69,"articulation":"standard","articulation_tags":["standard","long"],"duration":0.3333333333333333,"velocity":62.71157363004632},
{"position":153.47916666666666,"instrument":"Cello","level2":7,"level3":4,"pitch":71,"articulation":"short_hrm","articulation_tags":["short_hrm","hrm_s","short","harmonics"],"duration":0.125,"velocity":95.70743263814353},
{"position":153.52083333333334,"instrument":"Cello","level2":7,"level3":3,"pitch":71,"articulation":"staccato","articulation_tags":["staccato","st","short"],"duration":0.125,"velocity":95.70743263814353},
{"position":153.55208333333334,"instrument":"Viola","level2":6,"level3":6,"pitch":77,"articulation":"pizzicato","articulation_tags":["pizzicato","pz","short"],"duration":0.125,"velocity":115.88977219130092},
{"position":153.59375,"instrument":"TheGrandeurPiano","level2":7,"level3":null,"pitch":69,"articulation":"standard","articulation_tags":["standard","long"],"duration":0.8958333333333334,"velocity":63.00569127710515},
{"position":153.61458333333334,"instrument":"Cello","level2":7,"level3":8,"pitch":70,"articulation":"spiccato","articulation_tags":["spiccato","sp","short"],"duration":0.125,"velocity":95.09130726371664},
{"position":153.63541666666666,"instrument":"TheGrandeurPiano","level2":8,"level3":null,"pitch":59,"articulation":"standard","articulation_tags":["standard","long"],"duration":0.5,"velocity":53.99011043935799},
{"position":153.66666666666666,"instrument":"CorAnglais","level2":7,"level3":13,"pitch":70,"articulation":"legato","articulation_tags":["legato","lg"],"duration":1.7604166666666667,"velocity":62.18261452743329},
{"position":153.92708333333334,"instrument":"TheGrandeurPiano","level2":7,"level3":null,"pitch":69,"articulation":"standard","articulation_tags":["standard","long"],"duration":0.3333333333333333,"velocity":65.2443530960995},
{"position":153.94791666666666,"instrument":"TheGrandeurPiano","level2":6,"level3":null,"pitch":95,"articulation":"standard","articulation_tags":["standard","long"],"duration":0.6388888888888888,"velocity":61.93128690994622},
{"position":154.1875,"instrument":"TheGrandeurPiano","level2":6,"level3":null,"pitch":95,"articulation":"standard","articulation_tags":["standard","long"],"duration":0.6458333333333334,"velocity":62.544810701943135},
{"position":154.33333333333334,"instrument":"Clarinet","level2":6,"level3":6,"pitch":77,"articulation":"staccato","articulation_tags":["staccato","st","short"],"duration":0.125,"velocity":114.9468980428406},
{"position":154.38541666666666,"instrument":"TheGrandeurPiano","level2":8,"level3":null,"pitch":59,"articulation":"standard","articulation_tags":["standard","long"],"duration":0.5416666666666666,"velocity":54.01539893723725},
{"position":154.4375,"instrument":"TheGrandeurPiano","level2":7,"level3":null,"pitch":70,"articulation":"standard","articulation_tags":["standard","long"],"duration":0.3333333333333333,"velocity":65.58505298403347},
{"position":154.66666666666666,"instrument":"Cello","level2":7,"level3":6,"pitch":70,"articulation":"short_hrm","articulation_tags":["short_hrm","hrm_s","short","harmonics"],"duration":0.125,"velocity":94.90940589890822},
{"position":154.84375,"instrument":"Clarinet","level2":7,"level3":15,"pitch":71,"articulation":"legato","articulation_tags":["legato","lg"],"duration":2.3125,"velocity":61.81881179781644},
{"position":154.84375,"instrument":"Oboe","level2":7,"level3":16,"pitch":71,"articulation":"legato","articulation_tags":["legato","lg"],"duration":0.0,"velocity":61.81881179781644},
{"position":154.85416666666666,"instrument":"Oboe","level2":7,"level3":16,"pitch":71,"articulation":"legato","articulation_tags":["legato","lg"],"duration":0.8854166666666666,"velocity":61.81881179781644},
{"position":154.90625,"instrument":"TheGrandeurPiano","level2":6,"level3":null,"pitch":95,"articulation":"standard","articulation_tags":["standard","long"],"duration":0.5277777777777778,"velocity":63.48432638878285},
{"position":154.92708333333334,"instrument":"TheGrandeurPiano","level2":7,"level3":null,"pitch":70,"articulation":"standard","articulation_tags":["standard","long"],"duration":1.3194444444444444,"velocity":66.9009285401919},
{"position":154.9375,"instrument":"TheGrandeurPiano","level2":7,"level3":null,"pitch":70,"articulation":"standard","articulation_tags":["standard","long"],"duration":0.3402777777777778,"velocity":66.9009285401919},
{"position":155.15625,"instrument":"TheGrandeurPiano","level2":6,"level3":null,"pitch":95,"articulation":"standard","articulation_tags":["standard","long"],"duration":0.6041666666666666,"velocity":62.358596858843654},
{"position":155.1875,"instrument":"TheGrandeurPiano","level2":8,"level3":null,"pitch":59,"articulation":"standard","articulation_tags":["standard","long"],"duration":0.5833333333333334,"velocity":53.24094980002012},
{"position":155.21875,"instrument":"FrenchHorn","level2":7,"level3":1,"pitch":71,"articulation":"long_fltr","articulation_tags":["long_fltr","fltr","long","flutter"],"duration":4.708333333333333,"velocity":60.44498395800112},
{"position":155.32291666666666,"instrument":"FrenchHorn","level2":7,"level3":9,"pitch":70,"articulation":"legato","articulation_tags":["legato","lg"],"duration":1.9375,"velocity":60.44498395800112},
{"position":155.34375,"instrument":"FrenchHorn","level2":7,"level3":10,"pitch":71,"articulation":"long_muted","articulation_tags":["long_muted","muted","mt","long"],"duration":4.291666666666667,"velocity":60.44498395800112},
{"position":155.35416666666666,"instrument":"FrenchHorn","level2":7,"level3":8,"pitch":70,"articulation":"legato","articulation_tags":["legato","lg"],"duration":0.0625,"velocity":60.44498395800112},
{"position":155.44791666666666,"instrument":"TheGrandeurPiano","level2":7,"level3":null,"pitch":71,"articulation":"standard","articulation_tags":["standard","long"],"duration":0.3402777777777778,"velocity":64.15920496281583},
{"position":155.625,"instrument":"TheGrandeurPiano","level2":8,"level3":null,"pitch":60,"articulation":"standard","articulation_tags":["standard","long"],"duration":1.5,"velocity":55.12057999077094},
{"position":155.69791666666666,"instrument":"TheGrandeurPiano","level2":6,"level3":null,"pitch":94,"articulation":"standard","articulation_tags":["standard","long"],"duration":0.4513888888888889,"velocity":64.25410885290077},
{"position":155.73958333333334,"instrument":"CorAnglais","level2":7,"level3":6,"pitch":70,"articulation":"legato","articulation_tags":["legato","lg"],"duration":1.4791666666666667,"velocity":60.35051156717354},
{"position":155.76041666666666,"instrument":"Trumpet","level2":7,"level3":2,"pitch":70,"articulation":"long_muted","articulation_tags":["long_muted","muted","mt","long"],"duration":3.34375,"velocity":60.35051156717354},
{"position":155.94791666666666,"instrument":"TheGrandeurPiano","level2":7,"level3":null,"pitch":71,"articulation":"standard","articulation_tags":["standard","long"],"duration":0.3402777777777778,"velocity":66.57010658541108},
{"position":156.0625,"instrument":"TheGrandeurPiano","level2":6,"level3":null,"pitch":94,"articulation":"standard","articulation_tags":["standard","long"],"duration":0.5694444444444444,"velocity":63.762416100293485},
{"position":156.07291666666666,"instrument":"TheGrandeurPiano","level2":8,"level3":null,"pitch":60,"articulation":"standard","articulation_tags":["standard","long"],"duration":0.6388888888888888,"velocity":54.056533747352304},
{"position":156.26041666666666,"instrument":"Oboe","level2":7,"level3":5,"pitch":71,"articulation":"legato","articulation_tags":["legato","lg"],"duration":3.375,"velocity":60.29372438785029},
{"position":156.26041666666666,"instrument":"FrenchHorn","level2":7,"level3":7,"pitch":71,"articulation":"legato","articulation_tags":["legato","lg"],"duration":2.4479166666666665,"velocity":60.29372438785029},
{"position":156.375,"instrument":"TheGrandeurPiano","level2":6,"level3":null,"pitch":94,"articulation":"standard","articulation_tags":["standard","long"],"duration":0.3958333333333333,"velocity":63.29155124277718},
{"position":156.45833333333334,"instrument":"TheGrandeurPiano","level2":7,"level3":null,"pitch":72,"articulation":"standard","articulation_tags":["standard","long"],"duration":0.3402777777777778,"velocity":66.0678507373937},
{"position":156.64583333333334,"instrument":"BassClarinet","level2":7,"level3":9,"pitch":70,"articulation":"legato","articulation_tags":["legato","lg"],"duration":0.6041666666666666,"velocity":60.27477796593627},
{"position":156.72916666666666,"instrument":"Oboe","level2":7,"level3":11,"pitch":71,"articulation":"legato","articulation_tags":["legato","lg"],"duration":0.7291666666666666,"velocity":60.27477796593627},
{"position":156.85416666666666,"instrument":"Clarinet","level2":7,"level3":0,"pitch":70,"articulation":"legato","articulation_tags":["legato","lg"],"duration":4.09375,"velocity":60.27477796593627},
{"position":156.89583333333334,"instrument":"Piccolo","level2":6,"level3":9,"pitch":78,"articulation":"staccato","articulation_tags":["staccato","st","short"],"duration":0.125,"velocity":112.57610874465871},
{"position":156.89583333333334,"instrument":"Vibraphone","level2":6,"level3":10,"pitch":78,"articulation":"hits","articulation_tags":["hits","short"],"duration":0.0625,"velocity":112.57610874465871},
{"position":156.89583333333334,"instrument":"TubularBells","level2":6,"level3":7,"pitch":77,"articulation":"hits_dumped","articulation_tags":["hits_dumped","short","hits","dumped"],"duration":0.0625,"velocity":112.57610874465871},
{"position":156.89583333333334,"instrument":"Marimba","level2":7,"level3":7,"pitch":70,"articulation":"hits","articulation_tags":["hits","short"],"duration":0.0625,"velocity":94.13738898296813},
{"position":156.90625,"instrument":"TheGrandeurPiano","level2":7,"level3":null,"pitch":72,"articulation":"standard","articulation_tags":["standard","long"],"duration":2.1338582677165356,"velocity":66.21250396442562},
{"position":156.91666666666666,"instrument":"TheGrandeurPiano","level2":6,"level3":null,"pitch":94,"articulation":"standard","articulation_tags":["standard","long"],"duration":0.5347222222222222,"velocity":63.427163643119606},
{"position":156.94791666666666,"instrument":"TubularBells","level2":6,"level3":7,"pitch":77,"articulation":"hits_dumped","articulation_tags":["hits_dumped","short","hits","dumped"],"duration":0.0625,"velocity":112.11841699237706},
{"position":156.96875,"instrument":"TheGrandeurPiano","level2":7,"level3":null,"pitch":72,"articulation":"standard","articulation_tags":["standard","long"],"duration":0.3402777777777778,"velocity":66.21250396442562},
{"position":156.96875,"instrument":"TheGrandeurPiano","level2":6,"level3":null,"pitch":93,"articulation":"standard","articulation_tags":["standard","long"],"duration":0.3472222222222222,"velocity":63.427163643119606},
{"position":157.02083333333334,"instrument":"TheGrandeurPiano","level2":8,"level3":null,"pitch":60,"articulation":"standard","articulation_tags":["standard","long"],"duration":0.6944444444444444,"velocity":53.291551242777174},
{"position":157.15625,"instrument":"Clarinet","level2":7,"level3":15,"pitch":71,"articulation":"legato","articulation_tags":["legato","lg"],"duration":0.2916666666666667,"velocity":59.04356533156756},
{"position":157.21875,"instrument":"CorAnglais","level2":7,"level3":6,"pitch":70,"articulation":"legato","articulation_tags":["legato","lg"],"duration":0.041666666666666664,"velocity":59.04356533156756},
{"position":157.26041666666666,"instrument":"CorAnglais","level2":7,"level3":15,"pitch":71,"articulation":"legato","articulation_tags":["legato","lg"],"duration":0.19791666666666666,"velocity":59.04356533156756},
{"position":157.27083333333334,"instrument":"FrenchHorn","level2":7,"level3":11,"pitch":71,"articulation":"legato","articulation_tags":["legato","lg"],"duration":0.17708333333333334,"velocity":59.04356533156756},
{"position":157.39583333333334,"instrument":"Piccolo","level2":6,"level3":8,"pitch":78,"articulation":"tenuto","articulation_tags":["tenuto","t","short"],"duration":0.125,"velocity":111.63299444814936},
{"position":157.47916666666666,"instrument":"TheGrandeurPiano","level2":7,"level3":null,"pitch":73,"articulation":"standard","articulation_tags":["standard","long"],"duration":0.3402777777777778,"velocity":66.88383207560716},
{"position":157.48958333333334,"instrument":"TheGrandeurPiano","level2":6,"level3":null,"pitch":93,"articulation":"standard","articulation_tags":["standard","long"],"duration":0.3125,"velocity":64.06030266384246},
{"position":157.5,"instrument":"CorAnglais","level2":7,"level3":5,"pitch":71,"articulation":"legato","articulation_tags":["legato","lg"],"duration":1.90625,"velocity":59.10212285541414},
{"position":157.5,"instrument":"Clarinet","level2":6,"level3":9,"pitch":78,"articulation":"staccato","articulation_tags":["staccato","st","short"],"duration":0.125,"velocity":111.15291908608313},
{"position":157.69791666666666,"instrument":"Clarinet","level2":6,"level3":6,"pitch":77,"articulation":"staccato","articulation_tags":["staccato","st","short"],"duration":0.125,"velocity":111.15291908608313},
{"position":157.71875,"instrument":"TheGrandeurPiano","level2":6,"level3":null,"pitch":93,"articulation":"standard","articulation_tags":["standard","long"],"duration":0.5,"velocity":64.37402815403854},
{"position":157.875,"instrument":"TheGrandeurPiano","level2":8,"level3":null,"pitch":60,"articulation":"standard","articulation_tags":["standard","long"],"duration":1.375,"velocity":54.53234469665329},
{"position":157.95833333333334,"instrument":"TheGrandeurPiano","level2":6,"level3":null,"pitch":92,"articulation":"standard","articulation_tags":["standard","long"],"duration":0.2777777777777778,"velocity":65.195285323489},
{"position":157.98958333333334,"instrument":"TheGrandeurPiano","level2":7,"level3":null,"pitch":73,"articulation":"standard","articulation_tags":["standard","long"],"duration":0.3402777777777778,"velocity":67.70508924505762},
{"position":158.01041666666666,"instrument":"Clarinet","level2":6,"level3":9,"pitch":78,"articulation":"staccato","articulation_tags":["staccato","st","short"],"duration":0.125,"velocity":110.2096138723578},
{"position":158.04166666666666,"instrument":"Flute","level2":7,"level3":10,"pitch":71,"articulation":"legato","articulation_tags":["legato","lg"],"duration":1.4791666666666667,"velocity":59.19952917538645},
{"position":158.0625,"instrument":"TheGrandeurPiano","level2":8,"level3":null,"pitch":60,"articulation":"standard","articulation_tags":["standard","long"],"duration":0.7638888888888888,"velocity":54.23822704959447},
{"position":158.15625,"instrument":"Clarinet","level2":7,"level3":2,"pitch":70,"articulation":"legato","articulation_tags":["legato","lg"],"duration":0.9166666666666666,"velocity":59.19952917538645},
{"position":158.21875,"instrument":"Oboe","level2":7,"level3":1,"pitch":71,"articulation":"legato","articulation_tags":["legato","lg"],"duration":2.5625,"velocity":59.19952917538645},
{"position":158.23958333333334,"instrument":"Bassoon","level2":7,"level3":0,"pitch":70,"articulation":"legato","articulation_tags":["legato","lg"],"duration":2.0,"velocity":59.19952917538645},
{"position":158.35416666666666,"instrument":"TenorTrombone","level2":8,"level3":2,"pitch":64,"articulation":"sforzando","articulation_tags":["sforzando","sfz","long"],"duration":7.65625,"velocity":122.51244237884866},
{"position":158.36458333333334,"instrument":"FrenchHorn","level2":7,"level3":4,"pitch":70,"articulation":"long_muted","articulation_tags":["long_muted","muted","mt","long"],"duration":3.4791666666666665,"velocity":59.19952917538645},
{"position":158.375,"instrument":"TheGrandeurPiano","level2":6,"level3":null,"pitch":92,"articulation":"standard","articulation_tags":["standard","long"],"duration":0.25,"velocity":66.31402333748136},
{"position":158.44791666666666,"instrument":"BassClarinet","level2":7,"level3":3,"pitch":70,"articulation":"legato","articulation_tags":["legato","lg"],"duration":2.5,"velocity":59.19952917538645},
{"position":158.46875,"instrument":"TheGrandeurPiano","level2":6,"level3":null,"pitch":92,"articulation":"standard","articulation_tags":["standard","long"],"duration":0.4652777777777778,"velocity":66.62774882767744},
{"position":158.48958333333334,"instrument":"TenorTrombone","level2":8,"level3":3,"pitch":64,"articulation":"sforzando","articulation_tags":["sforzando","sfz","long"],"duration":0.22916666666666666,"velocity":122.51244237884866},
{"position":158.48958333333334,"instrument":"Marimba","level2":8,"level3":4,"pitch":64,"articulation":"hits","articulation_tags":["hits","short"],"duration":0.0625,"velocity":125.25622118942434},
{"position":158.48958333333334,"instrument":"Marimba","level2":8,"level3":4,"pitch":64,"articulation":"hits","articulation_tags":["hits","short"],"duration":0.0625,"velocity":125.25622118942434},
{"position":158.5,"instrument":"TheGrandeurPiano","level2":7,"level3":null,"pitch":74,"articulation":"standard","articulation_tags":["standard","long"],"duration":0.3402777777777778,"velocity":68.82382725904999},
{"position":158.52083333333334,"instrument":"Marimba","level2":7,"level3":4,"pitch":70,"articulation":"hits","articulation_tags":["hits","short"],"duration":0.0625,"velocity":93.66775142213163},
{"position":158.70833333333334,"instrument":"FrenchHorn","level2":7,"level3":7,"pitch":70,"articulation":"legato","articulation_tags":["legato","lg"],"duration":0.3854166666666667,"velocity":59.33550284426327},
{"position":158.70833333333334,"instrument":"TenorTrombone","level2":8,"level3":3,"pitch":64,"articulation":"sforzando","articulation_tags":["sforzando","sfz","long"],"duration":2.15625,"velocity":122.51244237884866},
{"position":158.73958333333334,"instrument":"Piccolo","level2":6,"level3":8,"pitch":77,"articulation":"tenuto","articulation_tags":["tenuto","t","short"],"duration":0.125,"velocity":109.26631221023987},
{"position":158.75,"instrument":"TheGrandeurPiano","level2":6,"level3":null,"pitch":91,"articulation":"standard","articulation_tags":["standard","long"],"duration":0.22916666666666666,"velocity":65.01857559901542},
{"position":159.01041666666666,"instrument":"TheGrandeurPiano","level2":7,"level3":null,"pitch":74,"articulation":"standard","articulation_tags":["standard","long"],"duration":0.3402777777777778,"velocity":68.98086067952494},
{"position":159.05208333333334,"instrument":"Piccolo","level2":6,"level3":7,"pitch":77,"articulation":"staccato","articulation_tags":["staccato","st","short"],"duration":0.125,"velocity":108.7916392816363},
{"position":159.07291666666666,"instrument":"Clarinet","level2":7,"level3":2,"pitch":70,"articulation":"legato","articulation_tags":["legato","lg"],"duration":0.03125,"velocity":59.50965550138882},
{"position":159.08333333333334,"instrument":"TheGrandeurPiano","level2":6,"level3":null,"pitch":91,"articulation":"standard","articulation_tags":["standard","long"],"duration":0.2013888888888889,"velocity":66.7847822481524},
{"position":159.14583333333334,"instrument":"Clarinet","level2":6,"level3":6,"pitch":77,"articulation":"staccato","articulation_tags":["staccato","st","short"],"duration":0.125,"velocity":108.323014376433},
{"position":159.15625,"instrument":"TheGrandeurPiano","level2":6,"level3":null,"pitch":91,"articulation":"standard","articulation_tags":["standard","long"],"duration":0.4236111111111111,"velocity":67.09850773834847},
{"position":159.20833333333334,"instrument":"TheGrandeurPiano","level2":8,"level3":null,"pitch":60,"articulation":"standard","articulation_tags":["standard","long"],"duration":0.8402777777777778,"velocity":55.14014512234875},
{"position":159.21875,"instrument":"Trumpet","level2":7,"level3":3,"pitch":70,"articulation":"legato","articulation_tags":["legato","lg"],"duration":1.4375,"velocity":59.50965550138882},
{"position":159.39583333333334,"instrument":"TheGrandeurPiano","level2":6,"level3":null,"pitch":90,"articulation":"standard","articulation_tags":["standard","long"],"duration":0.1875,"velocity":69.08192670621577},
{"position":159.40625,"instrument":"CorAnglais","level2":7,"level3":5,"pitch":71,"articulation":"legato","articulation_tags":["legato","lg"],"duration":0.22916666666666666,"velocity":59.50965550138882},
{"position":159.51041666666666,"instrument":"TheGrandeurPiano","level2":7,"level3":null,"pitch":75,"articulation":"standard","articulation_tags":["standard","long"],"duration":0.3333333333333333,"velocity":68.34862129566113},
{"position":159.52083333333334,"instrument":"Clarinet","level2":7,"level3":10,"pitch":71,"articulation":"legato","articulation_tags":["legato","lg"],"duration":0.11458333333333333,"velocity":59.72149731220156},
{"position":159.58333333333334,"instrument":"Piccolo","level2":6,"level3":9,"pitch":78,"articulation":"staccato","articulation_tags":["staccato","st","short"],"duration":0.125,"velocity":107.37972067714969},
{"position":159.66666666666666,"instrument":"TheGrandeurPiano","level2":6,"level3":null,"pitch":90,"articulation":"standard","articulation_tags":["standard","long"],"duration":0.16666666666666666,"velocity":66.46626835448467},
{"position":159.79166666666666,"instrument":"TheGrandeurPiano","level2":6,"level3":null,"pitch":90,"articulation":"standard","articulation_tags":["standard","long"],"duration":0.3819444444444444,"velocity":66.77999384468075},
{"position":159.91666666666666,"instrument":"CorAnglais","level2":7,"level3":1,"pitch":70,"articulation":"legato","articulation_tags":["legato","lg"],"duration":1.9166666666666667,"velocity":59.72149731220156},
{"position":159.92708333333334,"instrument":"TheGrandeurPiano","level2":6,"level3":null,"pitch":89,"articulation":"standard","articulation_tags":["standard","long"],"duration":0.1527777777777778,"velocity":69.09718785212492},
{"position":159.9375,"instrument":"TheGrandeurPiano","level2":8,"level3":null,"pitch":61,"articulation":"standard","articulation_tags":["standard","long"],"duration":1.3055555555555556,"velocity":56.71979008195535},
{"position":160.01041666666666,"instrument":"TheGrandeurPiano","level2":7,"level3":null,"pitch":75,"articulation":"standard","articulation_tags":["standard","long"],"duration":0.3333333333333333,"velocity":68.34862129566113},
{"position":160.14583333333334,"instrument":"TheGrandeurPiano","level2":6,"level3":null,"pitch":89,"articulation":"standard","articulation_tags":["standard","long"],"duration":0.1388888888888889,"velocity":66.77999384468075},
{"position":160.23958333333334,"instrument":"Bassoon","level2":7,"level3":0,"pitch":70,"articulation":"legato","articulation_tags":["legato","lg"],"duration":0.6770833333333334,"velocity":59.970443654162246},
{"position":160.3125,"instrument":"Flute","level2":8,"level3":4,"pitch":64,"articulation":"legato","articulation_tags":["legato","lg"],"duration":4.083333333333333,"velocity":123.36484902581246},
{"position":160.35416666666666,"instrument":"TheGrandeurPiano","level2":6,"level3":null,"pitch":88,"articulation":"standard","articulation_tags":["standard","long"],"duration":0.125,"velocity":66.77999384468075},
{"position":160.36458333333334,"instrument":"TheGrandeurPiano","level2":6,"level3":null,"pitch":88,"articulation":"standard","articulation_tags":["standard","long"],"duration":0.3333333333333333,"velocity":67.09371933487682},
{"position":160.46875,"instrument":"TheGrandeurPiano","level2":8,"level3":null,"pitch":61,"articulation":"standard","articulation_tags":["standard","long"],"duration":0.9444444444444444,"velocity":56.70548275766553},
{"position":160.52083333333334,"instrument":"TheGrandeurPiano","level2":7,"level3":null,"pitch":76,"articulation":"standard","articulation_tags":["standard","long"],"duration":0.3263888888888889,"velocity":68.98086067952494},
{"position":160.54166666666666,"instrument":"TheGrandeurPiano","level2":6,"level3":null,"pitch":88,"articulation":"standard","articulation_tags":["standard","long"],"duration":0.1111111111111111,"velocity":67.72595871874063},
{"position":160.59375,"instrument":"Clarinet","level2":6,"level3":8,"pitch":77,"articulation":"staccato","articulation_tags":["staccato","st","short"],"duration":0.125,"velocity":104.13020719809126},
{"position":160.65625,"instrument":"Trumpet","level2":7,"level3":3,"pitch":70,"articulation":"legato","articulation_tags":["legato","lg"],"duration":0.28125,"velocity":60.255822843023445},
{"position":160.65625,"instrument":"Piccolo","level2":6,"level3":9,"pitch":77,"articulation":"staccato","articulation_tags":["staccato","st","short"],"duration":0.125,"velocity":104.13020719809126},
{"position":160.70833333333334,"instrument":"TheGrandeurPiano","level2":6,"level3":null,"pitch":87,"articulation":"standard","articulation_tags":["standard","long"],"duration":0.09722222222222222,"velocity":67.72595871874063},
{"position":160.78125,"instrument":"Clarinet","level2":7,"level3":1,"pitch":70,"articulation":"legato","articulation_tags":["legato","lg"],"duration":0.9375,"velocity":60.255822843023445},
{"position":160.86458333333334,"instrument":"Oboe","level2":7,"level3":4,"pitch":70,"articulation":"legato","articulation_tags":["legato","lg"],"duration":0.875,"velocity":60.255822843023445},
{"position":160.86458333333334,"instrument":"TenorTrombone","level2":8,"level3":3,"pitch":64,"articulation":"sforzando","articulation_tags":["sforzando","sfz","long"],"duration":3.6979166666666665,"velocity":124.56919573713682},
{"position":160.86458333333334,"instrument":"TheGrandeurPiano","level2":6,"level3":null,"pitch":87,"articulation":"standard","articulation_tags":["standard","long"],"duration":0.09027777777777778,"velocity":67.72595871874063},
{"position":160.86458333333334,"instrument":"TheGrandeurPiano","level2":6,"level3":null,"pitch":87,"articulation":"standard","articulation_tags":["standard","long"],"duration":0.2708333333333333,"velocity":68.0396842089367},
{"position":160.91666666666666,"instrument":"Bassoon","level2":7,"level3":0,"pitch":70,"articulation":"legato","articulation_tags":["legato","lg"],"duration":0.020833333333333332,"velocity":60.255822843023445},
{"position":160.98958333333334,"instrument":"TheGrandeurPiano","level2":6,"level3":null,"pitch":86,"articulation":"standard","articulation_tags":["standard","long"],"duration":0.0763888888888889,"velocity":66.27347755979973},
{"position":161.0,"instrument":"TheGrandeurPiano","level2":7,"level3":null,"pitch":76,"articulation":"standard","articulation_tags":["standard","long"],"duration":0.0625,"velocity":67.21465403038798},
{"position":161.10416666666666,"instrument":"TheGrandeurPiano","level2":7,"level3":null,"pitch":77,"articulation":"standard","articulation_tags":["standard","long"],"duration":0.0625,"velocity":70.213712001488},
{"position":161.11458333333334,"instrument":"TheGrandeurPiano","level2":6,"level3":null,"pitch":86,"articulation":"standard","articulation_tags":["standard","long"],"duration":0.06944444444444445,"velocity":69.27253553089976},
{"position":161.1875,"instrument":"TheGrandeurPiano","level2":7,"level3":null,"pitch":77,"articulation":"standard","articulation_tags":["standard","long"],"duration":0.05555555555555555,"velocity":70.213712001488},
{"position":161.21875,"instrument":"TheGrandeurPiano","level2":6,"level3":null,"pitch":85,"articulation":"standard","articulation_tags":["standard","long"],"duration":0.05555555555555555,"velocity":69.27253553089976},
{"position":161.27083333333334,"instrument":"TheGrandeurPiano","level2":7,"level3":null,"pitch":78,"articulation":"standard","articulation_tags":["standard","long"],"duration":0.04861111111111111,"velocity":70.213712001488},
{"position":161.27083333333334,"instrument":"TheGrandeurPiano","level2":6,"level3":null,"pitch":85,"articulation":"standard","articulation_tags":["standard","long"],"duration":0.1736111111111111,"velocity":69.58626102109585},
{"position":161.30208333333334,"instrument":"TheGrandeurPiano","level2":6,"level3":null,"pitch":85,"articulation":"standard","articulation_tags":["standard","long"],"duration":0.04861111111111111,"velocity":69.58626102109585},
{"position":161.34375,"instrument":"TheGrandeurPiano","level2":7,"level3":null,"pitch":78,"articulation":"standard","articulation_tags":["standard","long"],"duration":0.041666666666666664,"velocity":70.213712001488},
{"position":161.375,"instrument":"TheGrandeurPiano","level2":6,"level3":null,"pitch":84,"articulation":"standard","articulation_tags":["standard","long"],"duration":0.041666666666666664,"velocity":69.58626102109585},
{"position":161.40625,"instrument":"TheGrandeurPiano","level2":7,"level3":null,"pitch":79,"articulation":"standard","articulation_tags":["standard","long"],"duration":0.034722222222222224,"velocity":68.82382725904999},
{"position":161.4375,"instrument":"Trumpet","level2":8,"level3":2,"pitch":64,"articulation":"sforzando","articulation_tags":["sforzando","sfz","long"],"duration":5.03125,"velocity":124.56919573713682},
{"position":161.44791666666666,"instrument":"TheGrandeurPiano","level2":6,"level3":null,"pitch":84,"articulation":"standard","articulation_tags":["standard","long"],"duration":0.034722222222222224,"velocity":68.19637627865784},
{"position":161.45833333333334,"instrument":"TheGrandeurPiano","level2":7,"level3":null,"pitch":79,"articulation":"standard","articulation_tags":["standard","long"],"duration":0.027777777777777776,"velocity":68.82382725904999},
{"position":161.48958333333334,"instrument":"TheGrandeurPiano","level2":6,"level3":null,"pitch":83,"articulation":"standard","articulation_tags":["standard","long"],"duration":0.027777777777777776,"velocity":68.19637627865784},
{"position":161.5,"instrument":"TheGrandeurPiano","level2":7,"level3":null,"pitch":80,"articulation":"standard","articulation_tags":["standard","long"],"duration":0.020833333333333332,"velocity":68.82382725904999},
{"position":161.52083333333334,"instrument":"TheGrandeurPiano","level2":7,"level3":null,"pitch":80,"articulation":"standard","articulation_tags":["standard","long"],"duration":0.041666666666666664,"velocity":68.51010176885391},
{"position":161.53125,"instrument":"TheGrandeurPiano","level2":6,"level3":null,"pitch":83,"articulation":"standard","articulation_tags":["standard","long"],"duration":0.034722222222222224,"velocity":68.51010176885391},
{"position":161.53125,"instrument":"TheGrandeurPiano","level2":6,"level3":null,"pitch":83,"articulation":"standard","articulation_tags":["standard","long"],"duration":0.020833333333333332,"velocity":68.51010176885391},
{"position":161.53125,"instrument":"TheGrandeurPiano","level2":7,"level3":null,"pitch":80,"articulation":"standard","articulation_tags":["standard","long"],"duration":0.013888888888888888,"velocity":68.51010176885391},
{"position":161.5625,"instrument":"TheGrandeurPiano","level2":6,"level3":null,"pitch":82,"articulation":"standard","articulation_tags":["standard","long"],"duration":0.013888888888888888,"velocity":68.51010176885391},
{"position":161.5625,"instrument":"TheGrandeurPiano","level2":7,"level3":null,"pitch":81,"articulation":"standard","articulation_tags":["standard","long"],"duration":0.006944444444444444,"velocity":68.51010176885391},
{"position":161.57291666666666,"instrument":"TheGrandeurPiano","level2":6,"level3":null,"pitch":82,"articulation":"standard","articulation_tags":["standard","long"],"duration":0.006944444444444444,"velocity":68.51010176885391},
{"position":161.57291666666666,"instrument":"TheGrandeurPiano","level2":7,"level3":null,"pitch":81,"articulation":"standard","articulation_tags":["standard","long"],"duration":0.006944444444444444,"velocity":68.51010176885391},
{"position":161.58333333333334,"instrument":"TheGrandeurPiano","level2":7,"level3":null,"pitch":82,"articulation":"standard","articulation_tags":["standard","long"],"duration":0.0,"velocity":68.51010176885391},
{"position":161.71875,"instrument":"Bassoon","level2":7,"level3":1,"pitch":70,"articulation":"legato","articulation_tags":["legato","lg"],"duration":0.11458333333333333,"velocity":67.48098861561617},
{"position":161.73958333333334,"instrument":"Clarinet","level2":7,"level3":4,"pitch":70,"articulation":"legato","articulation_tags":["legato","lg"],"duration":0.09375,"velocity":67.48098861561617},
{"position":161.89583333333334,"instrument":"TheGrandeurPiano","level2":8,"level3":null,"pitch":61,"articulation":"standard","articulation_tags":["standard","long"],"duration":1.0763888888888888,"velocity":53.355874108418},
{"position":161.89583333333334,"instrument":"TheGrandeurPiano","level2":8,"level3":null,"pitch":61,"articulation":"standard","articulation_tags":["standard","long"],"duration":1.2638888888888888,"velocity":53.355874108418},
{"position":163.5,"instrument":"TheGrandeurPiano","level2":8,"level3":null,"pitch":61,"articulation":"standard","articulation_tags":["standard","long"],"duration":1.2569444444444444,"velocity":54.984626030819115},
{"position":163.78125,"instrument":"TheGrandeurPiano","level2":8,"level3":null,"pitch":62,"articulation":"standard","articulation_tags":["standard","long"],"duration":1.2361111111111112,"velocity":55.41359029551264},
{"position":164.40625,"instrument":"CorAnglais","level2":8,"level3":4,"pitch":64,"articulation":"legato","articulation_tags":["legato","lg"],"duration":7.479166666666667,"velocity":126.353404578913},
{"position":164.5625,"instrument":"Bassoon","level2":8,"level3":3,"pitch":63,"articulation":"legato","articulation_tags":["legato","lg"],"duration":2.96875,"velocity":126.353404578913},
{"position":164.95833333333334,"instrument":"TenorTrombone","level2":8,"level3":3,"pitch":63,"articulation":"sforzando","articulation_tags":["sforzando","sfz","long"],"duration":2.4583333333333335,"velocity":126.353404578913},
{"position":165.39583333333334,"instrument":"TheGrandeurPiano","level2":8,"level3":null,"pitch":62,"articulation":"standard","articulation_tags":["standard","long"],"duration":1.5486111111111112,"velocity":53.96367453411345},
{"position":165.63541666666666,"instrument":"TheGrandeurPiano","level2":8,"level3":null,"pitch":62,"articulation":"standard","articulation_tags":["standard","long"],"duration":1.2152777777777777,"velocity":53.96367453411345},
{"position":165.6875,"instrument":"Cello","level2":8,"level3":5,"pitch":65,"articulation":"short_hrm","articulation_tags":["short_hrm","hrm_s","short","harmonics"],"duration":0.125,"velocity":127.5},
{"position":165.6875,"instrument":"Cello","level2":8,"level3":6,"pitch":65,"articulation":"short_hrm","articulation_tags":["short_hrm","hrm_s","short","harmonics"],"duration":0.125,"velocity":127.5},
{"position":165.85416666666666,"instrument":"Flute","level2":8,"level3":5,"pitch":65,"articulation":"legato","articulation_tags":["legato","lg"],"duration":1.7708333333333333,"velocity":127.0},
{"position":165.85416666666666,"instrument":"Oboe","level2":8,"level3":5,"pitch":65,"articulation":"legato","articulation_tags":["legato","lg"],"duration":11.395833333333334,"velocity":127.0},
{"position":166.01041666666666,"instrument":"TenorTrombone","level2":8,"level3":2,"pitch":64,"articulation":"sforzando","articulation_tags":["sforzando","sfz","long"],"duration":1.53125,"velocity":127.0},
{"position":166.20833333333334,"instrument":"Oboe","level2":8,"level3":6,"pitch":65,"articulation":"legato","articulation_tags":["legato","lg"],"duration":2.1875,"velocity":127.0},
{"position":166.47916666666666,"instrument":"Trumpet","level2":8,"level3":2,"pitch":63,"articulation":"sforzando","articulation_tags":["sforzando","sfz","long"],"duration":1.0625,"velocity":127.0},
{"position":167.36458333333334,"instrument":"Clarinet","level2":8,"level3":6,"pitch":66,"articulation":"legato","articulation_tags":["legato","lg"],"duration":4.28125,"velocity":127.0},
{"position":167.40625,"instrument":"Clarinet","level2":8,"level3":3,"pitch":63,"articulation":"legato","articulation_tags":["legato","lg"],"duration":0.125,"velocity":127.0},
{"position":167.45833333333334,"instrument":"TheGrandeurPiano","level2":8,"level3":null,"pitch":63,"articulation":"standard","articulation_tags":["standard","long"],"duration":1.2013888888888888,"velocity":52.30785580054754},
{"position":167.63541666666666,"instrument":"Trumpet","level2":8,"level3":5,"pitch":64,"articulation":"sforzando","articulation_tags":["sforzando","sfz","long"],"duration":2.9166666666666665,"velocity":127.0},
{"position":167.71875,"instrument":"TheGrandeurPiano","level2":8,"level3":null,"pitch":63,"articulation":"standard","articulation_tags":["standard","long"],"duration":1.9921259842519685,"velocity":53.52233805535937},
{"position":168.39583333333334,"instrument":"Bassoon","level2":8,"level3":6,"pitch":66,"articulation":"legato","articulation_tags":["legato","lg"],"duration":3.5625,"velocity":127.0},
{"position":169.26041666666666,"instrument":"TheGrandeurPiano","level2":8,"level3":null,"pitch":63,"articulation":"standard","articulation_tags":["standard","long"],"duration":1.1944444444444444,"velocity":51.07422246664901},
{"position":170.54166666666666,"instrument":"TenorTrombone","level2":8,"level3":5,"pitch":64,"articulation":"sforzando","articulation_tags":["sforzando","sfz","long"],"duration":3.8333333333333335,"velocity":127.0},
{"position":170.89583333333334,"instrument":"TheGrandeurPiano","level2":8,"level3":null,"pitch":63,"articulation":"standard","articulation_tags":["standard","long"],"duration":1.9921259842519685,"velocity":51.7196205064299},
{"position":171.05208333333334,"instrument":"TheGrandeurPiano","level2":8,"level3":null,"pitch":64,"articulation":"standard","articulation_tags":["standard","long"],"duration":1.1944444444444444,"velocity":51.7196205064299},
{"position":171.10416666666666,"instrument":"Trumpet","level2":8,"level3":4,"pitch":64,"articulation":"sforzando","articulation_tags":["sforzando","sfz","long"],"duration":5.760416666666667,"velocity":127.0},
{"position":171.65625,"instrument":"TenorTrombone","level2":8,"level3":6,"pitch":65,"articulation":"sforzando","articulation_tags":["sforzando","sfz","long"],"duration":9.395833333333334,"velocity":127.0},
{"position":171.875,"instrument":"Flute","level2":8,"level3":4,"pitch":64,"articulation":"legato","articulation_tags":["legato","lg"],"duration":10.208333333333334,"velocity":127.0},
{"position":171.94791666666666,"instrument":"CorAnglais","level2":8,"level3":6,"pitch":65,"articulation":"legato","articulation_tags":["legato","lg"],"duration":5.145833333333333,"velocity":127.0},
{"position":172.83333333333334,"instrument":"TheGrandeurPiano","level2":8,"level3":null,"pitch":64,"articulation":"standard","articulation_tags":["standard","long"],"duration":1.1944444444444444,"velocity":53.375439239995806},
{"position":174.375,"instrument":"Bassoon","level2":8,"level3":5,"pitch":63,"articulation":"legato","articulation_tags":["legato","lg"],"duration":5.052083333333333,"velocity":127.0},
{"position":174.625,"instrument":"TheGrandeurPiano","level2":8,"level3":null,"pitch":65,"articulation":"standard","articulation_tags":["standard","long"],"duration":1.2013888888888888,"velocity":50.938610066306595},
{"position":176.42708333333334,"instrument":"TheGrandeurPiano","level2":8,"level3":null,"pitch":65,"articulation":"standard","articulation_tags":["standard","long"],"duration":1.2083333333333333,"velocity":53.228220408300544},
{"position":176.86458333333334,"instrument":"Trumpet","level2":8,"level3":4,"pitch":64,"articulation":"sforzando","articulation_tags":["sforzando","sfz","long"],"duration":4.4375,"velocity":127.0},
{"position":177.09375,"instrument":"CorAnglais","level2":8,"level3":6,"pitch":65,"articulation":"legato","articulation_tags":["legato","lg"],"duration":8.333333333333334,"velocity":127.0},
{"position":177.26041666666666,"instrument":"Cello","level2":8,"level3":5,"pitch":63,"articulation":"short_hrm","articulation_tags":["short_hrm","hrm_s","short","harmonics"],"duration":0.125,"velocity":127.5},
{"position":178.23958333333334,"instrument":"TheGrandeurPiano","level2":8,"level3":null,"pitch":66,"articulation":"standard","articulation_tags":["standard","long"],"duration":1.2222222222222223,"velocity":55.234894522371405},
{"position":179.42708333333334,"instrument":"Cello","level2":8,"level3":5,"pitch":63,"articulation":"short_hrm","articulation_tags":["short_hrm","hrm_s","short","harmonics"],"duration":0.125,"velocity":127.5},
{"position":180.07291666666666,"instrument":"TheGrandeurPiano","level2":8,"level3":null,"pitch":66,"articulation":"standard","articulation_tags":["standard","long"],"duration":1.2430555555555556,"velocity":54.53123735433618},
{"position":180.90625,"instrument":"Cello","level2":8,"level3":7,"pitch":65,"articulation":"short_hrm","articulation_tags":["short_hrm","hrm_s","short","harmonics"],"duration":0.125,"velocity":127.5},
{"position":180.90625,"instrument":"Cello","level2":8,"level3":8,"pitch":65,"articulation":"short_hrm","articulation_tags":["short_hrm","hrm_s","short","harmonics"],"duration":0.125,"velocity":127.5},
{"position":181.04166666666666,"instrument":"Cello","level2":8,"level3":6,"pitch":65,"articulation":"staccato","articulation_tags":["staccato","st","short"],"duration":0.125,"velocity":127.5},
{"position":181.14583333333334,"instrument":"Cello","level2":8,"level3":7,"pitch":65,"articulation":"short_hrm","articulation_tags":["short_hrm","hrm_s","short","harmonics"],"duration":0.125,"velocity":127.5},
{"position":181.3125,"instrument":"Trumpet","level2":8,"level3":4,"pitch":63,"articulation":"sforzando","articulation_tags":["sforzando","sfz","long"],"duration":3.0729166666666665,"velocity":127.0},
{"position":181.39583333333334,"instrument":"Cello","level2":8,"level3":7,"pitch":64,"articulation":"short_hrm","articulation_tags":["short_hrm","hrm_s","short","harmonics"],"duration":0.125,"velocity":127.5},
{"position":181.60416666666666,"instrument":"Cello","level2":8,"level3":8,"pitch":65,"articulation":"short_hrm","articulation_tags":["short_hrm","hrm_s","short","harmonics"],"duration":0.125,"velocity":127.5},
{"position":181.63541666666666,"instrument":"Cello","level2":8,"level3":8,"pitch":65,"articulation":"spiccato","articulation_tags":["spiccato","sp","short"],"duration":0.125,"velocity":127.5},
{"position":181.65625,"instrument":"Cello","level2":8,"level3":5,"pitch":63,"articulation":"spiccato","articulation_tags":["spiccato","sp","short"],"duration":0.125,"velocity":127.5},
{"position":181.92708333333334,"instrument":"TheGrandeurPiano","level2":8,"level3":null,"pitch":67,"articulation":"standard","articulation_tags":["standard","long"],"duration":1.2638888888888888,"velocity":58.30981868931137},
{"position":182.08333333333334,"instrument":"Cello","level2":8,"level3":4,"pitch":63,"articulation":"staccato","articulation_tags":["staccato","st","short"],"duration":0.125,"velocity":127.5},
{"position":183.70833333333334,"instrument":"Cello","level2":8,"level3":7,"pitch":64,"articulation":"short_hrm","articulation_tags":["short_hrm","hrm_s","short","harmonics"],"duration":0.125,"velocity":127.5},
{"position":183.83333333333334,"instrument":"TheGrandeurPiano","level2":8,"level3":null,"pitch":67,"articulation":"standard","articulation_tags":["standard","long"],"duration":1.2986111111111112,"velocity":59.44946972455271},
{"position":184.05208333333334,"instrument":"Bassoon","level2":8,"level3":5,"pitch":63,"articulation":"legato","articulation_tags":["legato","lg"],"duration":0.6770833333333334,"velocity":127.0},
{"position":184.375,"instrument":"Cello","level2":8,"level3":4,"pitch":63,"articulation":"staccato","articulation_tags":["staccato","st","short"],"duration":0.125,"velocity":127.5},
{"position":184.39583333333334,"instrument":"TheGrandeurPiano","level2":8,"level3":null,"pitch":67,"articulation":"standard","articulation_tags":["standard","long"],"duration":2.0551181102362204,"velocity":59.99250953475371},
{"position":184.57291666666666,"instrument":"Trumpet","level2":8,"level3":8,"pitch":65,"articulation":"sforzando","articulation_tags":["sforzando","sfz","long"],"duration":5.28125,"velocity":126.42084296897784},
{"position":184.6875,"instrument":"Cello","level2":8,"level3":4,"pitch":63,"articulation":"spiccato","articulation_tags":["spiccato","sp","short"],"duration":0.125,"velocity":127.21042148448892},
{"position":185.41666666666666,"instrument":"Bassoon","level2":8,"level3":6,"pitch":65,"articulation":"long_fltr","articulation_tags":["long_fltr","fltr","long","flutter"],"duration":10.9375,"velocity":126.42084296897784},
{"position":185.65625,"instrument":"ContrabassTrombone","level2":10,"level3":0,"pitch":38,"articulation":"staccato","articulation_tags":["staccato","st","short"],"duration":0.25,"velocity":127.21042148448892},
{"position":185.76041666666666,"instrument":"TheGrandeurPiano","level2":9,"level3":null,"pitch":37,"articulation":"standard","articulation_tags":["standard","long"],"duration":0.006944444444444444,"velocity":72.99658700924465},
{"position":185.76041666666666,"instrument":"TheGrandeurPiano","level2":10,"level3":null,"pitch":36,"articulation":"standard","articulation_tags":["standard","long"],"duration":0.0,"velocity":72.68286151904857},
{"position":185.76041666666666,"instrument":"TheGrandeurPiano","level2":10,"level3":null,"pitch":36,"articulation":"standard","articulation_tags":["standard","long"],"duration":0.013888888888888888,"velocity":72.68286151904857},
{"position":185.77083333333334,"instrument":"TheGrandeurPiano","level2":8,"level3":null,"pitch":68,"articulation":"standard","articulation_tags":["standard","long"],"duration":1.3402777777777777,"velocity":59.49312385057863},
{"position":185.77083333333334,"instrument":"TheGrandeurPiano","level2":9,"level3":null,"pitch":37,"articulation":"standard","articulation_tags":["standard","long"],"duration":0.020833333333333332,"velocity":72.99658700924465},
{"position":185.77083333333334,"instrument":"TheGrandeurPiano","level2":10,"level3":null,"pitch":36,"articulation":"standard","articulation_tags":["standard","long"],"duration":0.0625,"velocity":72.68286151904857},
{"position":185.78125,"instrument":"TheGrandeurPiano","level2":9,"level3":null,"pitch":37,"articulation":"standard","articulation_tags":["standard","long"],"duration":0.09027777777777778,"velocity":73.31031249944073},
{"position":185.78125,"instrument":"TheGrandeurPiano","level2":10,"level3":null,"pitch":36,"articulation":"standard","articulation_tags":["standard","long"],"duration":0.034722222222222224,"velocity":72.68286151904857},
{"position":185.80208333333334,"instrument":"TheGrandeurPiano","level2":9,"level3":null,"pitch":38,"articulation":"standard","articulation_tags":["standard","long"],"duration":0.041666666666666664,"velocity":73.31031249944073},
{"position":185.83333333333334,"instrument":"TheGrandeurPiano","level2":10,"level3":null,"pitch":35,"articulation":"standard","articulation_tags":["standard","long"],"duration":0.04861111111111111,"velocity":72.68286151904857},
{"position":185.86458333333334,"instrument":"TheGrandeurPiano","level2":9,"level3":null,"pitch":38,"articulation":"standard","articulation_tags":["standard","long"],"duration":0.05555555555555555,"velocity":73.31031249944073},
{"position":185.86458333333334,"instrument":"TheGrandeurPiano","level2":10,"level3":null,"pitch":35,"articulation":"standard","articulation_tags":["standard","long"],"duration":0.13194444444444445,"velocity":72.3691360288525},
{"position":185.90625,"instrument":"TheGrandeurPiano","level2":10,"level3":null,"pitch":35,"articulation":"standard","articulation_tags":["standard","long"],"duration":0.0763888888888889,"velocity":72.3691360288525},
{"position":185.92708333333334,"instrument":"TheGrandeurPiano","level2":9,"level3":null,"pitch":38,"articulation":"standard","articulation_tags":["standard","long"],"duration":0.1875,"velocity":73.6240379896368},
{"position":185.94791666666666,"instrument":"TheGrandeurPiano","level2":9,"level3":null,"pitch":39,"articulation":"standard","articulation_tags":["standard","long"],"duration":0.06944444444444445,"velocity":73.6240379896368},
{"position":186.02083333333334,"instrument":"TheGrandeurPiano","level2":10,"level3":null,"pitch":34,"articulation":"standard","articulation_tags":["standard","long"],"duration":0.09722222222222222,"velocity":71.42066934703017},
{"position":186.03125,"instrument":"Viola","level2":9,"level3":0,"pitch":53,"articulation":"long_hrm","articulation_tags":["long_hrm","hrm","long","harmonics"],"duration":0.08333333333333333,"velocity":116.63647410887441},
{"position":186.03125,"instrument":"Viola","level2":9,"level3":1,"pitch":53,"articulation":"long_cs","articulation_tags":["long_cs","cs","long","consordina"],"duration":0.19791666666666666,"velocity":116.63647410887441},
{"position":186.05208333333334,"instrument":"TheGrandeurPiano","level2":10,"level3":null,"pitch":34,"articulation":"standard","articulation_tags":["standard","long"],"duration":0.19444444444444445,"velocity":71.10694385683409},
{"position":186.0625,"instrument":"TheGrandeurPiano","level2":9,"level3":null,"pitch":39,"articulation":"standard","articulation_tags":["standard","long"],"duration":0.09027777777777778,"velocity":72.67557130781448},
{"position":186.11458333333334,"instrument":"Viola","level2":9,"level3":0,"pitch":53,"articulation":"long_hrm","articulation_tags":["long_hrm","hrm","long","harmonics"],"duration":14.5625,"velocity":115.54746792599362},
{"position":186.16666666666666,"instrument":"TheGrandeurPiano","level2":10,"level3":null,"pitch":34,"articulation":"standard","articulation_tags":["standard","long"],"duration":0.11805555555555555,"velocity":71.10694385683409},
{"position":186.1875,"instrument":"TheGrandeurPiano","level2":9,"level3":null,"pitch":40,"articulation":"standard","articulation_tags":["standard","long"],"duration":0.10416666666666667,"velocity":72.67557130781448},
{"position":186.20833333333334,"instrument":"TheGrandeurPiano","level2":9,"level3":null,"pitch":40,"articulation":"standard","articulation_tags":["standard","long"],"duration":0.2986111111111111,"velocity":72.98929679801056},
{"position":186.22916666666666,"instrument":"Viola","level2":9,"level3":1,"pitch":53,"articulation":"long_cs","articulation_tags":["long_cs","cs","long","consordina"],"duration":3.6041666666666665,"velocity":113.84293366132918},
{"position":186.34375,"instrument":"TheGrandeurPiano","level2":10,"level3":null,"pitch":34,"articulation":"standard","articulation_tags":["standard","long"],"duration":0.25,"velocity":70.10238900322386},
{"position":186.34375,"instrument":"TheGrandeurPiano","level2":10,"level3":null,"pitch":33,"articulation":"standard","articulation_tags":["standard","long"],"duration":0.14583333333333334,"velocity":70.10238900322386},
{"position":186.34375,"instrument":"TheGrandeurPiano","level2":9,"level3":null,"pitch":40,"articulation":"standard","articulation_tags":["standard","long"],"duration":0.11805555555555555,"velocity":72.29846743459642},
{"position":186.36458333333334,"instrument":"Viola","level2":9,"level3":0,"pitch":52,"articulation":"long_hrm","articulation_tags":["long_hrm","hrm","long","harmonics"],"duration":1.9583333333333333,"velocity":112.75488139959236},
{"position":186.51041666666666,"instrument":"TheGrandeurPiano","level2":9,"level3":null,"pitch":41,"articulation":"standard","articulation_tags":["standard","long"],"duration":0.13194444444444445,"velocity":72.29846743459642},
{"position":186.5625,"instrument":"TheGrandeurPiano","level2":10,"level3":null,"pitch":33,"articulation":"standard","articulation_tags":["standard","long"],"duration":0.1736111111111111,"velocity":70.10238900322386},
{"position":186.65625,"instrument":"TheGrandeurPiano","level2":9,"level3":null,"pitch":41,"articulation":"standard","articulation_tags":["standard","long"],"duration":0.4444444444444444,"velocity":72.19208372990418},
{"position":186.70833333333334,"instrument":"TheGrandeurPiano","level2":9,"level3":null,"pitch":41,"articulation":"standard","articulation_tags":["standard","long"],"duration":0.1388888888888889,"velocity":72.19208372990418},
{"position":186.71875,"instrument":"TheGrandeurPiano","level2":10,"level3":null,"pitch":33,"articulation":"standard","articulation_tags":["standard","long"],"duration":0.3055555555555556,"velocity":69.36855431813947},
{"position":186.82291666666666,"instrument":"TheGrandeurPiano","level2":10,"level3":null,"pitch":32,"articulation":"standard","articulation_tags":["standard","long"],"duration":0.2013888888888889,"velocity":72.74761924036893},
{"position":186.86458333333334,"instrument":"Viola","level2":9,"level3":1,"pitch":53,"articulation":"long_flt","articulation_tags":["long_flt","flt","long","flautando"],"duration":3.03125,"velocity":109.82673100265069},
{"position":186.91666666666666,"instrument":"TheGrandeurPiano","level2":9,"level3":null,"pitch":42,"articulation":"standard","articulation_tags":["standard","long"],"duration":0.1527777777777778,"velocity":75.57114865213363},
{"position":187.125,"instrument":"TheGrandeurPiano","level2":10,"level3":null,"pitch":32,"articulation":"standard","articulation_tags":["standard","long"],"duration":0.2361111111111111,"velocity":72.61743162434153},
{"position":187.14583333333334,"instrument":"CorAnglais","level2":8,"level3":7,"pitch":63,"articulation":"legato","articulation_tags":["legato","lg"],"duration":4.572916666666667,"velocity":126.29342273485453},
{"position":187.15625,"instrument":"TheGrandeurPiano","level2":9,"level3":null,"pitch":42,"articulation":"standard","articulation_tags":["standard","long"],"duration":0.16666666666666666,"velocity":75.44096103610624},
{"position":187.17708333333334,"instrument":"Cello","level2":8,"level3":6,"pitch":64,"articulation":"short_marcato","articulation_tags":["short_marcato","marcato_s","short","marcato"],"duration":0.125,"velocity":127.14671136742726},
{"position":187.17708333333334,"instrument":"TheGrandeurPiano","level2":10,"level3":null,"pitch":32,"articulation":"standard","articulation_tags":["standard","long"],"duration":0.3611111111111111,"velocity":72.30370613414546},
{"position":187.3125,"instrument":"TheGrandeurPiano","level2":9,"level3":null,"pitch":42,"articulation":"standard","articulation_tags":["standard","long"],"duration":0.6319444444444444,"velocity":75.88487414232972},
{"position":187.32291666666666,"instrument":"Cello","level2":8,"level3":8,"pitch":65,"articulation":"spiccato","articulation_tags":["spiccato","sp","short"],"duration":0.125,"velocity":127.14671136742726},
{"position":187.40625,"instrument":"TheGrandeurPiano","level2":9,"level3":null,"pitch":43,"articulation":"standard","articulation_tags":["standard","long"],"duration":0.18055555555555555,"velocity":72.50580922010026},
{"position":187.47916666666666,"instrument":"TheGrandeurPiano","level2":10,"level3":null,"pitch":31,"articulation":"standard","articulation_tags":["standard","long"],"duration":0.2708333333333333,"velocity":69.0548288279434},
{"position":187.59375,"instrument":"TheGrandeurPiano","level2":8,"level3":null,"pitch":68,"articulation":"standard","articulation_tags":["standard","long"],"duration":1.5555555555555556,"velocity":58.25040145522826},
{"position":187.67708333333334,"instrument":"TheGrandeurPiano","level2":9,"level3":null,"pitch":43,"articulation":"standard","articulation_tags":["standard","long"],"duration":0.19444444444444445,"velocity":72.92591841498857},
{"position":187.72916666666666,"instrument":"TheGrandeurPiano","level2":10,"level3":null,"pitch":31,"articulation":"standard","articulation_tags":["standard","long"],"duration":0.4166666666666667,"velocity":69.16121253263563},
{"position":187.78125,"instrument":"TheGrandeurPiano","level2":8,"level3":null,"pitch":68,"articulation":"standard","articulation_tags":["standard","long"],"duration":1.3958333333333333,"velocity":58.25040145522826},
{"position":187.89583333333334,"instrument":"TheGrandeurPiano","level2":10,"level3":null,"pitch":31,"articulation":"standard","articulation_tags":["standard","long"],"duration":0.3125,"velocity":69.16121253263563},
{"position":187.92708333333334,"instrument":"Cello","level2":9,"level3":2,"pitch":52,"articulation":"long_cs","articulation_tags":["long_cs","cs","long","consordina"],"duration":0.07291666666666667,"velocity":104.54672150007598},
{"position":187.92708333333334,"instrument":"Cello","level2":9,"level3":3,"pitch":53,"articulation":"long_flt","articulation_tags":["long_flt","flt","long","flautando"],"duration":0.28125,"velocity":104.54672150007598},
{"position":187.95833333333334,"instrument":"TheGrandeurPiano","level2":9,"level3":null,"pitch":44,"articulation":"standard","articulation_tags":["standard","long"],"duration":0.2013888888888889,"velocity":73.61674777840273},
{"position":188.01041666666666,"instrument":"Cello","level2":9,"level3":2,"pitch":52,"articulation":"long_cs","articulation_tags":["long_cs","cs","long","consordina"],"duration":1.71875,"velocity":103.40361312887946},
{"position":188.0625,"instrument":"Cello","level2":9,"level3":4,"pitch":52,"articulation":"long_hrm","articulation_tags":["long_hrm","hrm","long","harmonics"],"duration":0.0,"velocity":103.40361312887946},
{"position":188.0625,"instrument":"Cello","level2":9,"level3":5,"pitch":53,"articulation":"long_cs","articulation_tags":["long_cs","cs","long","consordina"],"duration":0.5520833333333334,"velocity":103.40361312887946},
{"position":188.07291666666666,"instrument":"Cello","level2":9,"level3":4,"pitch":52,"articulation":"long_hrm","articulation_tags":["long_hrm","hrm","long","harmonics"],"duration":14.635416666666666,"velocity":103.40361312887946},
{"position":188.20833333333334,"instrument":"Cello","level2":9,"level3":3,"pitch":53,"articulation":"long_flt","articulation_tags":["long_flt","flt","long","flautando"],"duration":2.7395833333333335,"velocity":103.40361312887946},
{"position":188.23958333333334,"instrument":"Contrabass","level2":9,"level3":4,"pitch":52,"articulation":"long_hrm","articulation_tags":["long_hrm","hrm","long","harmonics"],"duration":1.8125,"velocity":103.40361312887946},
{"position":188.26041666666666,"instrument":"TheGrandeurPiano","level2":9,"level3":null,"pitch":44,"articulation":"standard","articulation_tags":["standard","long"],"duration":0.9305555555555556,"velocity":74.87893995042111},
{"position":188.27083333333334,"instrument":"TheGrandeurPiano","level2":9,"level3":null,"pitch":44,"articulation":"standard","articulation_tags":["standard","long"],"duration":0.2152777777777778,"velocity":74.87893995042111},
{"position":188.33333333333334,"instrument":"Viola","level2":9,"level3":0,"pitch":52,"articulation":"long_hrm","articulation_tags":["long_hrm","hrm","long","harmonics"],"duration":4.0,"velocity":101.57199814748273},
{"position":188.35416666666666,"instrument":"TheGrandeurPiano","level2":10,"level3":null,"pitch":31,"articulation":"standard","articulation_tags":["standard","long"],"duration":0.4722222222222222,"velocity":70.48678308767603},
{"position":188.36458333333334,"instrument":"TheGrandeurPiano","level2":10,"level3":null,"pitch":30,"articulation":"standard","articulation_tags":["standard","long"],"duration":0.3541666666666667,"velocity":70.48678308767603},
{"position":188.59375,"instrument":"TheGrandeurPiano","level2":9,"level3":null,"pitch":45,"articulation":"standard","articulation_tags":["standard","long"],"duration":0.22916666666666666,"velocity":76.0684120164984},
{"position":188.61458333333334,"instrument":"Cello","level2":9,"level3":5,"pitch":53,"articulation":"long_cs","articulation_tags":["long_cs","cs","long","consordina"],"duration":12.677083333333334,"velocity":100.43077770088325},
{"position":188.89583333333334,"instrument":"TheGrandeurPiano","level2":10,"level3":null,"pitch":30,"articulation":"standard","articulation_tags":["standard","long"],"duration":0.4027777777777778,"velocity":68.56789301253626},
{"position":188.92708333333334,"instrument":"Contrabass","level2":9,"level3":3,"pitch":53,"articulation":"long_flt","articulation_tags":["long_flt","flt","long","flautando"],"duration":11.083333333333334,"velocity":100.43077770088325},
{"position":188.92708333333334,"instrument":"TheGrandeurPiano","level2":9,"level3":null,"pitch":45,"articulation":"standard","articulation_tags":["standard","long"],"duration":0.2361111111111111,"velocity":72.96004987528136},
{"position":189.07291666666666,"instrument":"TheGrandeurPiano","level2":10,"level3":null,"pitch":30,"articulation":"standard","articulation_tags":["standard","long"],"duration":0.5277777777777778,"velocity":69.76916533167565},
{"position":189.11458333333334,"instrument":"Contrabass","level2":9,"level3":2,"pitch":52,"articulation":"long_hrm","articulation_tags":["long_hrm","hrm","long","harmonics"],"duration":6.78125,"velocity":99.29529042944338},
{"position":189.28125,"instrument":"TheGrandeurPiano","level2":9,"level3":null,"pitch":46,"articulation":"standard","articulation_tags":["standard","long"],"duration":0.25,"velocity":74.47504768461684},
{"position":189.5,"instrument":"TheGrandeurPiano","level2":10,"level3":null,"pitch":29,"articulation":"standard","articulation_tags":["standard","long"],"duration":0.4652777777777778,"velocity":68.67285012217074},
{"position":189.54166666666666,"instrument":"Contrabass","level2":9,"level3":5,"pitch":53,"articulation":"long_flt","articulation_tags":["long_flt","flt","long","flautando"],"duration":4.302083333333333,"velocity":98.16577402179607},
{"position":189.65625,"instrument":"TheGrandeurPiano","level2":9,"level3":null,"pitch":46,"articulation":"standard","articulation_tags":["standard","long"],"duration":0.2569444444444444,"velocity":73.37873247511192},
{"position":189.66666666666666,"instrument":"TheGrandeurPiano","level2":9,"level3":null,"pitch":46,"articulation":"standard","articulation_tags":["standard","long"],"duration":1.5555555555555556,"velocity":73.692457965308},
{"position":189.72916666666666,"instrument":"Cello","level2":9,"level3":2,"pitch":52,"articulation":"long_hrm","articulation_tags":["long_hrm","hrm","long","harmonics"],"duration":4.510416666666667,"velocity":96.32551799522811},
{"position":189.73958333333334,"instrument":"BassClarinet","level2":10,"level3":0,"pitch":38,"articulation":"staccato","articulation_tags":["staccato","st","short"],"duration":0.125,"velocity":127.5},
{"position":189.82291666666666,"instrument":"FrenchHorn","level2":9,"level3":6,"pitch":52,"articulation":"multitongue","articulation_tags":["multitongue","short"],"duration":0.25,"velocity":112.16275899761405},
{"position":189.82291666666666,"instrument":"FrenchHorn","level2":9,"level3":7,"pitch":53,"articulation":"multitongue","articulation_tags":["multitongue","short"],"duration":0.25,"velocity":112.16275899761405},
{"position":189.82291666666666,"instrument":"FrenchHorn","level2":9,"level3":7,"pitch":53,"articulation":"multitongue","articulation_tags":["multitongue","short"],"duration":0.25,"velocity":112.16275899761405},
{"position":189.83333333333334,"instrument":"Viola","level2":9,"level3":1,"pitch":54,"articulation":"long_flt","articulation_tags":["long_flt","flt","long","flautando"],"duration":7.208333333333333,"velocity":96.32551799522811},
{"position":189.84375,"instrument":"FrenchHorn","level2":9,"level3":7,"pitch":53,"articulation":"multitongue","articulation_tags":["multitongue","short"],"duration":0.25,"velocity":112.16275899761405},
{"position":189.86458333333334,"instrument":"Trumpet","level2":8,"level3":8,"pitch":65,"articulation":"sforzando","articulation_tags":["sforzando","sfz","long"],"duration":14.239583333333334,"velocity":124.93459109025719},
{"position":189.86458333333334,"instrument":"TheGrandeurPiano","level2":10,"level3":null,"pitch":29,"articulation":"standard","articulation_tags":["standard","long"],"duration":0.5902777777777778,"velocity":67.79992686715909},
{"position":189.875,"instrument":"TheGrandeurPiano","level2":8,"level3":null,"pitch":69,"articulation":"standard","articulation_tags":["standard","long"],"duration":1.4791666666666667,"velocity":57.85654908502046},
{"position":189.89583333333334,"instrument":"TenorTrombone","level2":8,"level3":7,"pitch":63,"articulation":"sforzando","articulation_tags":["sforzando","sfz","long"],"duration":5.135416666666667,"velocity":124.83575804673785},
{"position":189.89583333333334,"instrument":"Viola","level2":9,"level3":1,"pitch":54,"articulation":"long_slt","articulation_tags":["long_slt","slt","long","sultasto"],"duration":5.75,"velocity":96.32551799522811},
{"position":189.9375,"instrument":"TheGrandeurPiano","level2":8,"level3":null,"pitch":69,"articulation":"standard","articulation_tags":["standard","long"],"duration":1.2708333333333333,"velocity":58.15066673207929},
{"position":190.05208333333334,"instrument":"Contrabass","level2":9,"level3":4,"pitch":52,"articulation":"long_hrm","articulation_tags":["long_hrm","hrm","long","harmonics"],"duration":4.0,"velocity":96.32551799522811},
{"position":190.05208333333334,"instrument":"TheGrandeurPiano","level2":9,"level3":null,"pitch":47,"articulation":"standard","articulation_tags":["standard","long"],"duration":0.2708333333333333,"velocity":73.13326020049242},
{"position":190.19791666666666,"instrument":"TheGrandeurPiano","level2":10,"level3":null,"pitch":29,"articulation":"standard","articulation_tags":["standard","long"],"duration":0.5277777777777778,"velocity":70.12649319638564},
{"position":190.45833333333334,"instrument":"TheGrandeurPiano","level2":9,"level3":null,"pitch":47,"articulation":"standard","articulation_tags":["standard","long"],"duration":0.2777777777777778,"velocity":73.13326020049242},
{"position":190.75,"instrument":"TheGrandeurPiano","level2":10,"level3":null,"pitch":29,"articulation":"standard","articulation_tags":["standard","long"],"duration":0.6458333333333334,"velocity":68.04539914177859},
{"position":190.875,"instrument":"TheGrandeurPiano","level2":9,"level3":null,"pitch":48,"articulation":"standard","articulation_tags":["standard","long"],"duration":0.2916666666666667,"velocity":73.692457965308},
{"position":190.94791666666666,"instrument":"Cello","level2":9,"level3":3,"pitch":53,"articulation":"long_slt","articulation_tags":["long_slt","slt","long","sultasto"],"duration":6.552083333333333,"velocity":92.96463041400217},
{"position":190.98958333333334,"instrument":"TheGrandeurPiano","level2":10,"level3":null,"pitch":28,"articulation":"standard","articulation_tags":["standard","long"],"duration":0.6041666666666666,"velocity":68.04539914177859},
{"position":191.125,"instrument":"FrenchHorn","level2":9,"level3":6,"pitch":52,"articulation":"multitongue","articulation_tags":["multitongue","short"],"duration":0.25,"velocity":110.48231520700108},
{"position":191.3125,"instrument":"TheGrandeurPiano","level2":9,"level3":null,"pitch":48,"articulation":"standard","articulation_tags":["standard","long"],"duration":0.3055555555555556,"velocity":74.78877317481292},
{"position":191.71875,"instrument":"CorAnglais","level2":9,"level3":8,"pitch":52,"articulation":"trill_2m","articulation_tags":["trill_2m","long","trill","m2"],"duration":0.8125,"velocity":91.85817351657226},
{"position":191.71875,"instrument":"FrenchHorn","level2":9,"level3":9,"pitch":53,"articulation":"multitongue","articulation_tags":["multitongue","short"],"duration":0.25,"velocity":109.92908675828613},
{"position":191.71875,"instrument":"TenorTrombone","level2":8,"level3":7,"pitch":63,"articulation":"sforzando","articulation_tags":["sforzando","sfz","long"],"duration":8.09375,"velocity":123.58838305050165},
{"position":191.71875,"instrument":"TheGrandeurPiano","level2":10,"level3":null,"pitch":28,"articulation":"standard","articulation_tags":["standard","long"],"duration":0.7083333333333334,"velocity":67.31299105175194},
{"position":191.77083333333334,"instrument":"TheGrandeurPiano","level2":9,"level3":null,"pitch":49,"articulation":"standard","articulation_tags":["standard","long"],"duration":0.3125,"velocity":73.27377536547743},
{"position":191.84375,"instrument":"TheGrandeurPiano","level2":8,"level3":null,"pitch":69,"articulation":"standard","articulation_tags":["standard","long"],"duration":1.0902777777777777,"velocity":57.374129592687055},
{"position":191.89583333333334,"instrument":"TheGrandeurPiano","level2":10,"level3":null,"pitch":28,"articulation":"standard","articulation_tags":["standard","long"],"duration":0.7013888888888888,"velocity":66.03044411455247},
{"position":192.0,"instrument":"FrenchHorn","level2":9,"level3":7,"pitch":53,"articulation":"multitongue","articulation_tags":["multitongue","short"],"duration":0.25,"velocity":109.37957487754176},
{"position":192.0,"instrument":"TheGrandeurPiano","level2":9,"level3":null,"pitch":49,"articulation":"standard","articulation_tags":["standard","long"],"duration":1.7716535433070866,"velocity":72.30495391847404},
{"position":192.09375,"instrument":"TheGrandeurPiano","level2":8,"level3":null,"pitch":69,"articulation":"standard","articulation_tags":["standard","long"],"duration":1.6041666666666667,"velocity":60.3754767917551},
{"position":192.16666666666666,"instrument":"BassClarinet","level2":10,"level3":0,"pitch":38,"articulation":"staccato","articulation_tags":["staccato","st","short"],"duration":0.125,"velocity":127.5},
{"position":192.19791666666666,"instrument":"Violin","level2":8,"level3":6,"pitch":64,"articulation":"short_marcato","articulation_tags":["short_marcato","marcato_s","short","marcato"],"duration":0.125,"velocity":125.12765356926768},
{"position":192.23958333333334,"instrument":"TheGrandeurPiano","level2":9,"level3":null,"pitch":49,"articulation":"standard","articulation_tags":["standard","long"],"duration":0.3263888888888889,"velocity":74.55792424899096},
{"position":192.33333333333334,"instrument":"Viola","level2":9,"level3":0,"pitch":51,"articulation":"long_hrm","articulation_tags":["long_hrm","hrm","long","harmonics"],"duration":13.958333333333334,"velocity":88.90283733152725},
{"position":192.35416666666666,"instrument":"BassClarinet","level2":10,"level3":0,"pitch":38,"articulation":"staccato","articulation_tags":["staccato","st","short"],"duration":0.125,"velocity":127.5},
{"position":192.5,"instrument":"FrenchHorn","level2":9,"level3":9,"pitch":53,"articulation":"multitongue","articulation_tags":["multitongue","short"],"duration":0.25,"velocity":108.45141866576363},
{"position":192.53125,"instrument":"CorAnglais","level2":9,"level3":8,"pitch":52,"articulation":"trill_2m","articulation_tags":["trill_2m","long","trill","m2"],"duration":5.53125,"velocity":88.90283733152725},
{"position":192.61458333333334,"instrument":"FrenchHorn","level2":9,"level3":10,"pitch":52,"articulation":"multitongue","articulation_tags":["multitongue","short"],"duration":0.25,"velocity":108.45141866576363},
{"position":192.61458333333334,"instrument":"FrenchHorn","level2":9,"level3":11,"pitch":52,"articulation":"multitongue","articulation_tags":["multitongue","short"],"duration":0.25,"velocity":108.45141866576363},
{"position":192.6875,"instrument":"FrenchHorn","level2":9,"level3":10,"pitch":52,"articulation":"multitongue","articulation_tags":["multitongue","short"],"duration":0.25,"velocity":108.45141866576363},
{"position":192.71875,"instrument":"TheGrandeurPiano","level2":9,"level3":null,"pitch":50,"articulation":"standard","articulation_tags":["standard","long"],"duration":0.3333333333333333,"velocity":73.8670948855768},
{"position":192.78125,"instrument":"TheGrandeurPiano","level2":10,"level3":null,"pitch":28,"articulation":"standard","articulation_tags":["standard","long"],"duration":0.7777777777777778,"velocity":66.85875039657085},
{"position":192.8125,"instrument":"FrenchHorn","level2":9,"level3":10,"pitch":52,"articulation":"multitongue","articulation_tags":["multitongue","short"],"duration":0.25,"velocity":107.9040782170776},
{"position":192.94791666666666,"instrument":"TheGrandeurPiano","level2":10,"level3":null,"pitch":27,"articulation":"standard","articulation_tags":["standard","long"],"duration":0.8194444444444444,"velocity":66.85875039657085},
{"position":193.05208333333334,"instrument":"FrenchHorn","level2":9,"level3":9,"pitch":53,"articulation":"multitongue","articulation_tags":["multitongue","short"],"duration":0.25,"velocity":107.9040782170776},
{"position":193.21875,"instrument":"TheGrandeurPiano","level2":9,"level3":null,"pitch":50,"articulation":"standard","articulation_tags":["standard","long"],"duration":0.3472222222222222,"velocity":73.3059851494676},
{"position":193.47916666666666,"instrument":"TheGrandeurPiano","level2":8,"level3":null,"pitch":69,"articulation":"standard","articulation_tags":["standard","long"],"duration":0.9583333333333334,"velocity":58.73890202619694},
{"position":193.59375,"instrument":"FrenchHorn","level2":9,"level3":12,"pitch":52,"articulation":"multitongue","articulation_tags":["multitongue","short"],"duration":0.25,"velocity":107.36084981403607},
{"position":193.59375,"instrument":"FrenchHorn","level2":9,"level3":13,"pitch":52,"articulation":"multitongue","articulation_tags":["multitongue","short"],"duration":0.25,"velocity":107.36084981403607},
{"position":193.73958333333334,"instrument":"TheGrandeurPiano","level2":9,"level3":null,"pitch":51,"articulation":"standard","articulation_tags":["standard","long"],"duration":0.3541666666666667,"velocity":73.8670948855768},
{"position":193.83333333333334,"instrument":"Contrabass","level2":9,"level3":5,"pitch":53,"articulation":"long_slt","articulation_tags":["long_slt","slt","long","sultasto"],"duration":11.583333333333334,"velocity":85.64385180631956},
{"position":193.91666666666666,"instrument":"FrenchHorn","level2":9,"level3":12,"pitch":52,"articulation":"multitongue","articulation_tags":["multitongue","short"],"duration":0.25,"velocity":106.82192590315978},
{"position":193.94791666666666,"instrument":"TheGrandeurPiano","level2":10,"level3":null,"pitch":27,"articulation":"standard","articulation_tags":["standard","long"],"duration":0.8472222222222222,"velocity":66.96513410126309},
{"position":194.05208333333334,"instrument":"Contrabass","level2":9,"level3":4,"pitch":51,"articulation":"long_hrm","articulation_tags":["long_hrm","hrm","long","harmonics"],"duration":14.15625,"velocity":85.64385180631956},
{"position":194.09375,"instrument":"FrenchHorn","level2":9,"level3":13,"pitch":52,"articulation":"multitongue","articulation_tags":["multitongue","short"],"duration":0.25,"velocity":106.82192590315978},
{"position":194.16666666666666,"instrument":"BassClarinet","level2":10,"level3":0,"pitch":38,"articulation":"tenuto","articulation_tags":["tenuto","t","short"],"duration":0.125,"velocity":127.5},
{"position":194.16666666666666,"instrument":"TheGrandeurPiano","level2":10,"level3":null,"pitch":27,"articulation":"standard","articulation_tags":["standard","long"],"duration":0.9722222222222222,"velocity":64.37604435327461},
{"position":194.1875,"instrument":"FrenchHorn","level2":9,"level3":11,"pitch":52,"articulation":"multitongue","articulation_tags":["multitongue","short"],"duration":0.25,"velocity":106.82192590315978},
{"position":194.23958333333334,"instrument":"Cello","level2":9,"level3":2,"pitch":51,"articulation":"long_hrm","articulation_tags":["long_hrm","hrm","long","harmonics"],"duration":8.71875,"velocity":85.64385180631956},
{"position":194.27083333333334,"instrument":"TheGrandeurPiano","level2":9,"level3":null,"pitch":51,"articulation":"standard","articulation_tags":["standard","long"],"duration":0.3680555555555556,"velocity":71.27800513758832},
{"position":194.5,"instrument":"TheGrandeurPiano","level2":8,"level3":null,"pitch":70,"articulation":"standard","articulation_tags":["standard","long"],"duration":1.8402777777777777,"velocity":57.66824723974588},
{"position":194.76041666666666,"instrument":"BassClarinet","level2":10,"level3":0,"pitch":39,"articulation":"tenuto","articulation_tags":["tenuto","t","short"],"duration":0.125,"velocity":127.5},
{"position":194.78125,"instrument":"FrenchHorn","level2":9,"level3":14,"pitch":52,"articulation":"multitongue","articulation_tags":["multitongue","short"],"duration":0.25,"velocity":106.28750945637536},
{"position":194.8125,"instrument":"TheGrandeurPiano","level2":9,"level3":null,"pitch":52,"articulation":"standard","articulation_tags":["standard","long"],"duration":0.375,"velocity":73.58750085567351},
{"position":194.91666666666666,"instrument":"TheGrandeurPiano","level2":8,"level3":null,"pitch":70,"articulation":"standard","articulation_tags":["standard","long"],"duration":0.8541666666666666,"velocity":59.164752640429214},
{"position":195.03125,"instrument":"TenorTrombone","level2":8,"level3":7,"pitch":63,"articulation":"sforzando","articulation_tags":["sforzando","sfz","long"],"duration":3.0,"velocity":119.68676400956755},
{"position":195.04166666666666,"instrument":"FrenchHorn","level2":9,"level3":10,"pitch":52,"articulation":"multitongue","articulation_tags":["multitongue","short"],"duration":0.25,"velocity":105.75781454594558},
{"position":195.21875,"instrument":"TheGrandeurPiano","level2":10,"level3":null,"pitch":27,"articulation":"standard","articulation_tags":["standard","long"],"duration":0.9236111111111112,"velocity":64.94419402133232},
{"position":195.25,"instrument":"Clarinet","level2":8,"level3":8,"pitch":64,"articulation":"legato","articulation_tags":["legato","lg"],"duration":5.3125,"velocity":119.68676400956755},
{"position":195.375,"instrument":"TheGrandeurPiano","level2":9,"level3":null,"pitch":52,"articulation":"standard","articulation_tags":["standard","long"],"duration":0.375,"velocity":74.00618345550407},
{"position":195.63541666666666,"instrument":"TheGrandeurPiano","level2":10,"level3":null,"pitch":26,"articulation":"standard","articulation_tags":["standard","long"],"duration":1.1944444444444444,"velocity":64.06231886307853},
{"position":195.64583333333334,"instrument":"Viola","level2":9,"level3":1,"pitch":54,"articulation":"tremolo","articulation_tags":["tremolo","tr","multi_note"],"duration":12.552083333333334,"velocity":82.46613387876339},
{"position":195.89583333333334,"instrument":"Contrabass","level2":9,"level3":2,"pitch":51,"articulation":"long_cs","articulation_tags":["long_cs","cs","long","consordina"],"duration":5.864583333333333,"velocity":82.46613387876339},
{"position":195.9375,"instrument":"TheGrandeurPiano","level2":9,"level3":null,"pitch":53,"articulation":"standard","articulation_tags":["standard","long"],"duration":0.3680555555555556,"velocity":73.44698569068849},
{"position":196.09375,"instrument":"Clarinet","level2":8,"level3":6,"pitch":63,"articulation":"long_fltr","articulation_tags":["long_fltr","fltr","long","flutter"],"duration":2.9270833333333335,"velocity":119.68676400956755},
{"position":196.19791666666666,"instrument":"TheGrandeurPiano","level2":8,"level3":null,"pitch":70,"articulation":"standard","articulation_tags":["standard","long"],"duration":0.7708333333333334,"velocity":59.32713732031458},
{"position":196.36458333333334,"instrument":"Bassoon","level2":8,"level3":6,"pitch":63,"articulation":"legato","articulation_tags":["legato","lg"],"duration":3.1979166666666665,"velocity":118.43767584242379},
{"position":196.48958333333334,"instrument":"TheGrandeurPiano","level2":9,"level3":null,"pitch":53,"articulation":"standard","articulation_tags":["standard","long"],"duration":0.3680555555555556,"velocity":71.27800513758832},
{"position":196.60416666666666,"instrument":"TheGrandeurPiano","level2":10,"level3":null,"pitch":26,"articulation":"standard","articulation_tags":["standard","long"],"duration":1.0069444444444444,"velocity":63.76430628707729},
{"position":196.97916666666666,"instrument":"FrenchHorn","level2":9,"level3":9,"pitch":52,"articulation":"multitongue","articulation_tags":["multitongue","short"],"duration":0.25,"velocity":104.19937887599697},
{"position":197.04166666666666,"instrument":"Viola","level2":9,"level3":1,"pitch":53,"articulation":"tremolo","articulation_tags":["tremolo","tr","multi_note"],"duration":7.166666666666667,"velocity":80.39875775199394},
{"position":197.04166666666666,"instrument":"TheGrandeurPiano","level2":9,"level3":null,"pitch":54,"articulation":"standard","articulation_tags":["standard","long"],"duration":0.3680555555555556,"velocity":72.15988029584211},
{"position":197.07291666666666,"instrument":"FrenchHorn","level2":9,"level3":15,"pitch":52,"articulation":"multitongue","articulation_tags":["multitongue","short"],"duration":0.25,"velocity":103.69095401725238},
{"position":197.07291666666666,"instrument":"FrenchHorn","level2":9,"level3":15,"pitch":52,"articulation":"multitongue","articulation_tags":["multitongue","short"],"duration":0.25,"velocity":103.69095401725238},
{"position":197.07291666666666,"instrument":"FrenchHorn","level2":9,"level3":16,"pitch":53,"articulation":"multitongue","articulation_tags":["multitongue","short"],"duration":0.25,"velocity":103.69095401725238},
{"position":197.26041666666666,"instrument":"TheGrandeurPiano","level2":8,"level3":null,"pitch":70,"articulation":"standard","articulation_tags":["standard","long"],"duration":2.1023622047244093,"velocity":59.45887028748804},
{"position":197.35416666666666,"instrument":"TheGrandeurPiano","level2":8,"level3":null,"pitch":70,"articulation":"standard","articulation_tags":["standard","long"],"duration":0.7083333333333334,"velocity":59.75298793454686},
{"position":197.42708333333334,"instrument":"TheGrandeurPiano","level2":10,"level3":null,"pitch":26,"articulation":"standard","articulation_tags":["standard","long"],"duration":1.4094488188976377,"velocity":66.05808909096763},
{"position":197.5,"instrument":"Cello","level2":9,"level3":3,"pitch":53,"articulation":"tremolo","articulation_tags":["tremolo","tr","multi_note"],"duration":7.416666666666667,"velocity":79.38190803450478},
{"position":197.58333333333334,"instrument":"TheGrandeurPiano","level2":9,"level3":null,"pitch":54,"articulation":"standard","articulation_tags":["standard","long"],"duration":0.3611111111111111,"velocity":72.30495391847404},
{"position":197.6875,"instrument":"TheGrandeurPiano","level2":9,"level3":null,"pitch":54,"articulation":"standard","articulation_tags":["standard","long"],"duration":1.4305555555555556,"velocity":71.99122842827796},
{"position":197.84375,"instrument":"FrenchHorn","level2":9,"level3":13,"pitch":52,"articulation":"multitongue","articulation_tags":["multitongue","short"],"duration":0.25,"velocity":103.63473942041288},
{"position":197.95833333333334,"instrument":"BassClarinet","level2":10,"level3":0,"pitch":39,"articulation":"tenuto","articulation_tags":["tenuto","t","short"],"duration":0.125,"velocity":127.5},
{"position":197.98958333333334,"instrument":"ContrabassTrombone","level2":10,"level3":0,"pitch":38,"articulation":"staccato","articulation_tags":["staccato","st","short"],"duration":0.25,"velocity":127.5},
{"position":198.02083333333334,"instrument":"Violin","level2":8,"level3":7,"pitch":63,"articulation":"spiccato","articulation_tags":["spiccato","sp","short"],"duration":0.125,"velocity":122.5655465980994},
{"position":198.05208333333334,"instrument":"CorAnglais","level2":9,"level3":13,"pitch":52,"articulation":"trill_2m","articulation_tags":["trill_2m","long","trill","m2"],"duration":0.0,"velocity":79.26947884082577},
{"position":198.11458333333334,"instrument":"TheGrandeurPiano","level2":10,"level3":null,"pitch":26,"articulation":"standard","articulation_tags":["standard","long"],"duration":1.1041666666666667,"velocity":66.714786994089},
{"position":198.125,"instrument":"TheGrandeurPiano","level2":9,"level3":null,"pitch":55,"articulation":"standard","articulation_tags":["standard","long"],"duration":0.3611111111111111,"velocity":74.24419875879488},
{"position":198.36458333333334,"instrument":"CorAnglais","level2":9,"level3":6,"pitch":52,"articulation":"trill_2m","articulation_tags":["trill_2m","long","trill","m2"],"duration":2.5729166666666665,"velocity":78.29135474154083},
{"position":198.41666666666666,"instrument":"TheGrandeurPiano","level2":8,"level3":null,"pitch":70,"articulation":"standard","articulation_tags":["standard","long"],"duration":0.6458333333333334,"velocity":60.30922498464002},
{"position":198.66666666666666,"instrument":"TheGrandeurPiano","level2":9,"level3":null,"pitch":55,"articulation":"standard","articulation_tags":["standard","long"],"duration":0.3541666666666667,"velocity":73.13326020049242},
{"position":199.0,"instrument":"TenorTrombone","level2":9,"level3":17,"pitch":53,"articulation":"multitongue","articulation_tags":["multitongue","short"],"duration":0.25,"velocity":102.66332755348579},
{"position":199.02083333333334,"instrument":"Clarinet","level2":8,"level3":6,"pitch":63,"articulation":"legato","articulation_tags":["legato","lg"],"duration":0.7916666666666666,"velocity":115.88132861576334},
{"position":199.19791666666666,"instrument":"TheGrandeurPiano","level2":9,"level3":null,"pitch":56,"articulation":"standard","articulation_tags":["standard","long"],"duration":0.3541666666666667,"velocity":73.13326020049242},
{"position":199.38541666666666,"instrument":"TheGrandeurPiano","level2":8,"level3":null,"pitch":70,"articulation":"standard","articulation_tags":["standard","long"],"duration":0.5972222222222222,"velocity":60.60334263169885},
{"position":199.5625,"instrument":"Bassoon","level2":8,"level3":6,"pitch":63,"articulation":"legato","articulation_tags":["legato","lg"],"duration":0.25,"velocity":114.63159065881807},
{"position":199.59375,"instrument":"TenorTrombone","level2":8,"level3":7,"pitch":63,"articulation":"sforzando","articulation_tags":["sforzando","sfz","long"],"duration":0.21875,"velocity":114.63159065881807},
{"position":199.72916666666666,"instrument":"TheGrandeurPiano","level2":9,"level3":null,"pitch":56,"articulation":"standard","articulation_tags":["standard","long"],"duration":0.3472222222222222,"velocity":74.24419875879488},
{"position":199.73958333333334,"instrument":"TheGrandeurPiano","level2":10,"level3":null,"pitch":25,"articulation":"standard","articulation_tags":["standard","long"],"duration":1.3937007874015748,"velocity":66.714786994089},
{"position":199.78125,"instrument":"TheGrandeurPiano","level2":10,"level3":null,"pitch":25,"articulation":"standard","articulation_tags":["standard","long"],"duration":1.2222222222222223,"velocity":66.40106150389292},
{"position":199.82291666666666,"instrument":"Bassoon","level2":9,"level3":10,"pitch":52,"articulation":"trill_2m","articulation_tags":["trill_2m","long","trill","m2"],"duration":4.572916666666667,"velocity":75.44013470487684},
{"position":199.84375,"instrument":"TheGrandeurPiano","level2":9,"level3":null,"pitch":56,"articulation":"standard","articulation_tags":["standard","long"],"duration":0.9861111111111112,"velocity":73.9304732685988},
{"position":199.96875,"instrument":"TenorTrombone","level2":8,"level3":9,"pitch":64,"articulation":"sforzando","articulation_tags":["sforzando","sfz","long"],"duration":0.16666666666666666,"velocity":114.63159065881807},
{"position":199.96875,"instrument":"TenorTrombone","level2":8,"level3":10,"pitch":64,"articulation":"sforzando","articulation_tags":["sforzando","sfz","long"],"duration":3.6354166666666665,"velocity":114.63159065881807},
{"position":200.01041666666666,"instrument":"Contrabass","level2":9,"level3":3,"pitch":53,"articulation":"tremolo","articulation_tags":["tremolo","tr","multi_note"],"duration":4.53125,"velocity":76.40549672285432},
{"position":200.13541666666666,"instrument":"TenorTrombone","level2":8,"level3":9,"pitch":64,"articulation":"sforzando","articulation_tags":["sforzando","sfz","long"],"duration":2.9479166666666665,"velocity":114.63159065881807},
{"position":200.25,"instrument":"TheGrandeurPiano","level2":9,"level3":null,"pitch":57,"articulation":"standard","articulation_tags":["standard","long"],"duration":0.3472222222222222,"velocity":71.67750293808189},
{"position":200.28125,"instrument":"TheGrandeurPiano","level2":8,"level3":null,"pitch":70,"articulation":"standard","articulation_tags":["standard","long"],"duration":0.5486111111111112,"velocity":60.63534087572333},
{"position":200.57291666666666,"instrument":"Clarinet","level2":8,"level3":8,"pitch":64,"articulation":"legato","articulation_tags":["legato","lg"],"duration":3.6979166666666665,"velocity":113.38188041767103},
{"position":200.67708333333334,"instrument":"Viola","level2":9,"level3":0,"pitch":51,"articulation":"long_cs","articulation_tags":["long_cs","cs","long","consordina"],"duration":4.208333333333333,"velocity":75.49999386879183},
{"position":200.75,"instrument":"Tuba","level2":9,"level3":9,"pitch":52,"articulation":"multitongue","articulation_tags":["multitongue","short"],"duration":0.25,"velocity":101.74999693439591},
{"position":200.77083333333334,"instrument":"TheGrandeurPiano","level2":9,"level3":null,"pitch":57,"articulation":"standard","articulation_tags":["standard","long"],"duration":0.3402777777777778,"velocity":74.47504768461684},
{"position":200.9375,"instrument":"CorAnglais","level2":9,"level3":6,"pitch":52,"articulation":"trill_2m","articulation_tags":["trill_2m","long","trill","m2"],"duration":0.010416666666666666,"velocity":74.61087215495047},
{"position":201.11458333333334,"instrument":"TheGrandeurPiano","level2":8,"level3":null,"pitch":70,"articulation":"standard","articulation_tags":["standard","long"],"duration":0.5138888888888888,"velocity":61.32197346012331},
{"position":201.14583333333334,"instrument":"TheGrandeurPiano","level2":8,"level3":null,"pitch":71,"articulation":"standard","articulation_tags":["standard","long"],"duration":2.1181102362204722,"velocity":61.32197346012331},
{"position":201.17708333333334,"instrument":"CorAnglais","level2":9,"level3":7,"pitch":52,"articulation":"trill_2m","articulation_tags":["trill_2m","long","trill","m2"],"duration":2.46875,"velocity":74.61087215495047},
{"position":201.28125,"instrument":"TheGrandeurPiano","level2":9,"level3":null,"pitch":58,"articulation":"standard","articulation_tags":["standard","long"],"duration":0.3333333333333333,"velocity":75.41161801354122},
{"position":201.29166666666666,"instrument":"Cello","level2":9,"level3":5,"pitch":53,"articulation":"long_slt","articulation_tags":["long_slt","slt","long","sultasto"],"duration":3.4270833333333335,"velocity":73.73888834631137},
{"position":201.32291666666666,"instrument":"TheGrandeurPiano","level2":9,"level3":null,"pitch":58,"articulation":"standard","articulation_tags":["standard","long"],"duration":0.7777777777777778,"velocity":75.09789252334514},
{"position":201.60416666666666,"instrument":"TheGrandeurPiano","level2":10,"level3":null,"pitch":25,"articulation":"standard","articulation_tags":["standard","long"],"duration":1.3541666666666667,"velocity":64.97639745539438},
{"position":201.75,"instrument":"Contrabass","level2":9,"level3":2,"pitch":51,"articulation":"long_flt","articulation_tags":["long_flt","flt","long","flautando"],"duration":2.0625,"velocity":74.76251761450362},
{"position":201.78125,"instrument":"TheGrandeurPiano","level2":9,"level3":null,"pitch":58,"articulation":"standard","articulation_tags":["standard","long"],"duration":0.3333333333333333,"velocity":74.83237554932681},
{"position":201.875,"instrument":"Tuba","level2":9,"level3":11,"pitch":52,"articulation":"multitongue","articulation_tags":["multitongue","short"],"duration":0.25,"velocity":100.96177738600004},
{"position":201.875,"instrument":"TheGrandeurPiano","level2":8,"level3":null,"pitch":71,"articulation":"standard","articulation_tags":["standard","long"],"duration":0.4722222222222222,"velocity":63.27299913631742},
{"position":201.88541666666666,"instrument":"FrenchHorn","level2":9,"level3":15,"pitch":52,"articulation":"multitongue","articulation_tags":["multitongue","short"],"duration":0.25,"velocity":100.96177738600004},
{"position":202.28125,"instrument":"TheGrandeurPiano","level2":9,"level3":null,"pitch":59,"articulation":"standard","articulation_tags":["standard","long"],"duration":0.3263888888888889,"velocity":75.09789252334514},
{"position":202.47916666666666,"instrument":"TheGrandeurPiano","level2":9,"level3":null,"pitch":59,"articulation":"standard","articulation_tags":["standard","long"],"duration":0.6388888888888888,"velocity":75.57114865213363},
{"position":202.58333333333334,"instrument":"TheGrandeurPiano","level2":8,"level3":null,"pitch":71,"articulation":"standard","articulation_tags":["standard","long"],"duration":0.4375,"velocity":64.59075649527088},
{"position":202.69791666666666,"instrument":"Cello","level2":9,"level3":4,"pitch":51,"articulation":"long_cs","articulation_tags":["long_cs","cs","long","consordina"],"duration":4.114583333333333,"velocity":74.1688647304925},
{"position":202.77083333333334,"instrument":"TheGrandeurPiano","level2":9,"level3":null,"pitch":59,"articulation":"standard","articulation_tags":["standard","long"],"duration":0.3194444444444444,"velocity":73.84759670422467},
{"position":202.95833333333334,"instrument":"Marimba","level2":9,"level3":2,"pitch":52,"articulation":"hits","articulation_tags":["hits","short"],"duration":0.0625,"velocity":100.69164164751095},
{"position":203.08333333333334,"instrument":"TubularBells","level2":8,"level3":9,"pitch":63,"articulation":"hits_dumped","articulation_tags":["hits_dumped","short","hits","dumped"],"duration":0.0625,"velocity":118.71375347741281},
{"position":203.15625,"instrument":"TheGrandeurPiano","level2":10,"level3":null,"pitch":25,"articulation":"standard","articulation_tags":["standard","long"],"duration":1.3937007874015748,"velocity":68.22527476159644},
{"position":203.25,"instrument":"TheGrandeurPiano","level2":8,"level3":null,"pitch":71,"articulation":"standard","articulation_tags":["standard","long"],"duration":0.4097222222222222,"velocity":64.77429436943957},
{"position":203.25,"instrument":"TheGrandeurPiano","level2":9,"level3":null,"pitch":60,"articulation":"standard","articulation_tags":["standard","long"],"duration":0.3125,"velocity":75.44096103610624},
{"position":203.33333333333334,"instrument":"BassClarinet","level2":10,"level3":0,"pitch":38,"articulation":"tenuto","articulation_tags":["tenuto","t","short"],"duration":0.125,"velocity":127.5},
{"position":203.4375,"instrument":"TheGrandeurPiano","level2":9,"level3":null,"pitch":60,"articulation":"standard","articulation_tags":["standard","long"],"duration":0.5416666666666666,"velocity":73.93776347983288},
{"position":203.60416666666666,"instrument":"TubularBells","level2":8,"level3":10,"pitch":64,"articulation":"hits_dumped","articulation_tags":["hits_dumped","short","hits","dumped"],"duration":0.0625,"velocity":118.04696240558236},
{"position":203.63541666666666,"instrument":"Marimba","level2":9,"level3":7,"pitch":52,"articulation":"hits","articulation_tags":["hits","short"],"duration":0.0625,"velocity":100.86173640525081},
{"position":203.64583333333334,"instrument":"TheGrandeurPiano","level2":10,"level3":null,"pitch":25,"articulation":"standard","articulation_tags":["standard","long"],"duration":1.3937007874015748,"velocity":69.95046082484086},
{"position":203.71875,"instrument":"TheGrandeurPiano","level2":9,"level3":null,"pitch":60,"articulation":"standard","articulation_tags":["standard","long"],"duration":0.3055555555555556,"velocity":77.16614709935065},
{"position":203.82291666666666,"instrument":"Marimba","level2":9,"level3":2,"pitch":52,"articulation":"hits","articulation_tags":["hits","short"],"duration":0.0625,"velocity":100.49711980025124},
{"position":203.85416666666666,"instrument":"TheGrandeurPiano","level2":8,"level3":null,"pitch":71,"articulation":"standard","articulation_tags":["standard","long"],"duration":0.375,"velocity":66.24621930187801},
{"position":203.88541666666666,"instrument":"TubularBells","level2":8,"level3":9,"pitch":63,"articulation":"hits_dumped","articulation_tags":["hits_dumped","short","hits","dumped"],"duration":0.0625,"velocity":117.38017944758789},
{"position":204.10416666666666,"instrument":"Trumpet","level2":8,"level3":8,"pitch":64,"articulation":"sforzando","articulation_tags":["sforzando","sfz","long"],"duration":0.3333333333333333,"velocity":106.7603588951758},
{"position":204.17708333333334,"instrument":"TheGrandeurPiano","level2":9,"level3":null,"pitch":61,"articulation":"standard","articulation_tags":["standard","long"],"duration":0.2986111111111111,"velocity":75.64570528781303},
{"position":204.21875,"instrument":"Cello","level2":9,"level3":1,"pitch":53,"articulation":"tremolo","articulation_tags":["tremolo","tr","multi_note"],"duration":3.3229166666666665,"velocity":72.28718513392218},
{"position":204.26041666666666,"instrument":"TheGrandeurPiano","level2":9,"level3":null,"pitch":61,"articulation":"standard","articulation_tags":["standard","long"],"duration":0.4722222222222222,"velocity":75.33197979761695},
{"position":204.27083333333334,"instrument":"CorAnglais","level2":8,"level3":8,"pitch":63,"articulation":"legato","articulation_tags":["legato","lg"],"duration":0.16666666666666666,"velocity":106.7603588951758},
{"position":204.39583333333334,"instrument":"Viola","level2":9,"level3":10,"pitch":52,"articulation":"long_flt","articulation_tags":["long_flt","flt","long","flautando"],"duration":1.1145833333333333,"velocity":73.42979143446377},
{"position":204.42708333333334,"instrument":"TheGrandeurPiano","level2":8,"level3":null,"pitch":71,"articulation":"standard","articulation_tags":["standard","long"],"duration":0.3472222222222222,"velocity":65.53193296585913},
{"position":204.53125,"instrument":"CorAnglais","level2":9,"level3":3,"pitch":52,"articulation":"trill_2M","articulation_tags":["trill_2M","long","trill","M2"],"duration":1.9895833333333333,"velocity":73.42979143446377},
{"position":204.625,"instrument":"TheGrandeurPiano","level2":9,"level3":null,"pitch":61,"articulation":"standard","articulation_tags":["standard","long"],"duration":0.2916666666666667,"velocity":74.94369767174148},
{"position":204.70833333333334,"instrument":"Cello","level2":9,"level3":5,"pitch":52,"articulation":"long_slt","articulation_tags":["long_slt","slt","long","sultasto"],"duration":0.8020833333333334,"velocity":72.75953343001626},
{"position":204.89583333333334,"instrument":"Viola","level2":9,"level3":0,"pitch":51,"articulation":"long_flt","articulation_tags":["long_flt","flt","long","flautando"],"duration":1.8020833333333333,"velocity":72.75953343001626},
{"position":204.91666666666666,"instrument":"Cello","level2":9,"level3":3,"pitch":52,"articulation":"long_slt","articulation_tags":["long_slt","slt","long","sultasto"],"duration":1.8333333333333333,"velocity":72.75953343001626},
{"position":204.94791666666666,"instrument":"TheGrandeurPiano","level2":8,"level3":null,"pitch":71,"articulation":"standard","articulation_tags":["standard","long"],"duration":0.3263888888888889,"velocity":65.8456584560552},
{"position":204.95833333333334,"instrument":"TheGrandeurPiano","level2":9,"level3":null,"pitch":61,"articulation":"standard","articulation_tags":["standard","long"],"duration":0.4097222222222222,"velocity":74.6299721815454},
{"position":205.0625,"instrument":"TheGrandeurPiano","level2":9,"level3":null,"pitch":62,"articulation":"standard","articulation_tags":["standard","long"],"duration":0.2847222222222222,"velocity":74.6299721815454},
{"position":205.40625,"instrument":"Bassoon","level2":9,"level3":10,"pitch":52,"articulation":"trill_2m","articulation_tags":["trill_2m","long","trill","m2"],"duration":0.10416666666666667,"velocity":73.29015375034524},
{"position":205.41666666666666,"instrument":"TenorTrombone","level2":9,"level3":5,"pitch":52,"articulation":"multitongue","articulation_tags":["multitongue","short"],"duration":0.25,"velocity":100.64507687517262},
{"position":205.41666666666666,"instrument":"TheGrandeurPiano","level2":8,"level3":null,"pitch":70,"articulation":"standard","articulation_tags":["standard","long"],"duration":1.2430555555555556,"velocity":66.23394058193068},
{"position":205.4375,"instrument":"TheGrandeurPiano","level2":8,"level3":null,"pitch":70,"articulation":"standard","articulation_tags":["standard","long"],"duration":0.2986111111111111,"velocity":66.54766607212676},
{"position":205.47916666666666,"instrument":"TheGrandeurPiano","level2":9,"level3":null,"pitch":62,"articulation":"standard","articulation_tags":["standard","long"],"duration":0.2708333333333333,"velocity":75.01825430742088},
{"position":205.57291666666666,"instrument":"TheGrandeurPiano","level2":9,"level3":null,"pitch":62,"articulation":"standard","articulation_tags":["standard","long"],"duration":0.3541666666666667,"velocity":75.34425851756428},
{"position":205.88541666666666,"instrument":"TheGrandeurPiano","level2":8,"level3":null,"pitch":70,"articulation":"standard","articulation_tags":["standard","long"],"duration":0.2708333333333333,"velocity":68.38183337386046},
{"position":205.89583333333334,"instrument":"TheGrandeurPiano","level2":9,"level3":null,"pitch":63,"articulation":"standard","articulation_tags":["standard","long"],"duration":0.2638888888888889,"velocity":76.22497062876242},
{"position":205.92708333333334,"instrument":"TheGrandeurPiano","level2":10,"level3":null,"pitch":25,"articulation":"standard","articulation_tags":["standard","long"],"duration":1.3937007874015748,"velocity":69.63673533464478},
{"position":206.10416666666666,"instrument":"TheGrandeurPiano","level2":9,"level3":null,"pitch":63,"articulation":"standard","articulation_tags":["standard","long"],"duration":0.3125,"velocity":75.91124513856634},
{"position":206.28125,"instrument":"TheGrandeurPiano","level2":9,"level3":null,"pitch":63,"articulation":"standard","articulation_tags":["standard","long"],"duration":0.25,"velocity":77.01945643975947},
{"position":206.29166666666666,"instrument":"Marimba","level2":9,"level3":0,"pitch":52,"articulation":"hits","articulation_tags":["hits","short"],"duration":0.0625,"velocity":100.99248977785994},
{"position":206.29166666666666,"instrument":"TheGrandeurPiano","level2":8,"level3":null,"pitch":70,"articulation":"standard","articulation_tags":["standard","long"],"duration":0.25,"velocity":69.80377016524966},
{"position":206.53125,"instrument":"Marimba","level2":9,"level3":3,"pitch":52,"articulation":"hits","articulation_tags":["hits","short"],"duration":0.0625,"velocity":100.99248977785994},
{"position":206.57291666666666,"instrument":"TheGrandeurPiano","level2":9,"level3":null,"pitch":63,"articulation":"standard","articulation_tags":["standard","long"],"duration":0.2708333333333333,"velocity":74.97017989198169},
{"position":206.65625,"instrument":"TheGrandeurPiano","level2":9,"level3":null,"pitch":64,"articulation":"standard","articulation_tags":["standard","long"],"duration":0.2361111111111111,"velocity":74.97017989198169},
{"position":206.66666666666666,"instrument":"TheGrandeurPiano","level2":8,"level3":null,"pitch":70,"articulation":"standard","articulation_tags":["standard","long"],"duration":0.22916666666666666,"velocity":68.38194459786403},
{"position":206.69791666666666,"instrument":"Marimba","level2":9,"level3":0,"pitch":52,"articulation":"hits","articulation_tags":["hits","short"],"duration":0.0625,"velocity":101.35853254977835},
{"position":206.82291666666666,"instrument":"Marimba","level2":9,"level3":4,"pitch":51,"articulation":"hits","articulation_tags":["hits","short"],"duration":0.0625,"velocity":101.35853254977835},
{"position":206.875,"instrument":"Marimba","level2":10,"level3":0,"pitch":38,"articulation":"hits","articulation_tags":["hits","short"],"duration":0.0625,"velocity":127.5},
{"position":206.98958333333334,"instrument":"TheGrandeurPiano","level2":9,"level3":null,"pitch":64,"articulation":"standard","articulation_tags":["standard","long"],"duration":0.2361111111111111,"velocity":76.27015871463536},
{"position":207.01041666666666,"instrument":"TheGrandeurPiano","level2":8,"level3":null,"pitch":70,"articulation":"standard","articulation_tags":["standard","long"],"duration":0.20833333333333334,"velocity":70.30937440090986},
{"position":207.01041666666666,"instrument":"TheGrandeurPiano","level2":9,"level3":null,"pitch":64,"articulation":"standard","articulation_tags":["standard","long"],"duration":0.2222222222222222,"velocity":76.27015871463536},
{"position":207.04166666666666,"instrument":"Marimba","level2":10,"level3":1,"pitch":38,"articulation":"hits","articulation_tags":["hits","short"],"duration":0.0625,"velocity":127.5},
{"position":207.04166666666666,"instrument":"Marimba","level2":10,"level3":2,"pitch":39,"articulation":"hits","articulation_tags":["hits","short"],"duration":0.0625,"velocity":127.5},
{"position":207.04166666666666,"instrument":"Contrabass","level2":10,"level3":2,"pitch":39,"articulation":"collegno","articulation_tags":["collegno","cl","short"],"duration":0.125,"velocity":127.5},
{"position":207.10416666666666,"instrument":"Marimba","level2":10,"level3":1,"pitch":38,"articulation":"hits","articulation_tags":["hits","short"],"duration":0.0625,"velocity":127.5},
{"position":207.28125,"instrument":"TheGrandeurPiano","level2":8,"level3":null,"pitch":70,"articulation":"standard","articulation_tags":["standard","long"],"duration":0.5,"velocity":69.32300984444869},
{"position":207.32291666666666,"instrument":"TheGrandeurPiano","level2":8,"level3":null,"pitch":70,"articulation":"standard","articulation_tags":["standard","long"],"duration":0.18055555555555555,"velocity":69.63673533464478},
{"position":207.34375,"instrument":"TheGrandeurPiano","level2":9,"level3":null,"pitch":64,"articulation":"standard","articulation_tags":["standard","long"],"duration":0.2013888888888889,"velocity":74.97006866797811},
{"position":207.34375,"instrument":"TheGrandeurPiano","level2":9,"level3":null,"pitch":65,"articulation":"standard","articulation_tags":["standard","long"],"duration":0.20833333333333334,"velocity":74.97006866797811},
{"position":207.36458333333334,"instrument":"Marimba","level2":10,"level3":0,"pitch":37,"articulation":"hits","articulation_tags":["hits","short"],"duration":0.0625,"velocity":127.5},
{"position":207.53125,"instrument":"Marimba","level2":9,"level3":1,"pitch":52,"articulation":"hits","articulation_tags":["hits","short"],"duration":0.0625,"velocity":102.16589325512885},
{"position":207.55208333333334,"instrument":"Marimba","level2":10,"level3":2,"pitch":39,"articulation":"hits","articulation_tags":["hits","short"],"duration":0.0625,"velocity":127.5},
{"position":207.59375,"instrument":"TheGrandeurPiano","level2":8,"level3":null,"pitch":70,"articulation":"standard","articulation_tags":["standard","long"],"duration":0.1597222222222222,"velocity":72.02235380862638},
{"position":207.64583333333334,"instrument":"TheGrandeurPiano","level2":9,"level3":null,"pitch":65,"articulation":"standard","articulation_tags":["standard","long"],"duration":0.1736111111111111,"velocity":76.72823616156755},
{"position":207.65625,"instrument":"TheGrandeurPiano","level2":9,"level3":null,"pitch":65,"articulation":"standard","articulation_tags":["standard","long"],"duration":0.1875,"velocity":76.72823616156755},
{"position":207.71875,"instrument":"Marimba","level2":10,"level3":1,"pitch":38,"articulation":"hits","articulation_tags":["hits","short"],"duration":0.0625,"velocity":127.5},
{"position":207.83333333333334,"instrument":"TheGrandeurPiano","level2":8,"level3":null,"pitch":70,"articulation":"standard","articulation_tags":["standard","long"],"duration":0.1388888888888889,"velocity":72.09697501123458},
{"position":207.91666666666666,"instrument":"TheGrandeurPiano","level2":9,"level3":null,"pitch":65,"articulation":"standard","articulation_tags":["standard","long"],"duration":0.14583333333333334,"velocity":76.17540638378361},
{"position":207.92708333333334,"instrument":"TheGrandeurPiano","level2":9,"level3":null,"pitch":66,"articulation":"standard","articulation_tags":["standard","long"],"duration":0.16666666666666666,"velocity":76.17540638378361},
{"position":208.01041666666666,"instrument":"Marimba","level2":10,"level3":2,"pitch":39,"articulation":"hits","articulation_tags":["hits","short"],"duration":0.0625,"velocity":127.5},
{"position":208.03125,"instrument":"TheGrandeurPiano","level2":8,"level3":null,"pitch":69,"articulation":"standard","articulation_tags":["standard","long"],"duration":0.2638888888888889,"velocity":72.09697501123458},
{"position":208.05208333333334,"instrument":"TheGrandeurPiano","level2":8,"level3":null,"pitch":69,"articulation":"standard","articulation_tags":["standard","long"],"duration":0.11805555555555555,"velocity":72.41070050143065},
{"position":208.0625,"instrument":"Marimba","level2":10,"level3":1,"pitch":38,"articulation":"hits","articulation_tags":["hits","short"],"duration":0.0625,"velocity":127.5},
{"position":208.13541666666666,"instrument":"TheGrandeurPiano","level2":9,"level3":null,"pitch":66,"articulation":"standard","articulation_tags":["standard","long"],"duration":0.11805555555555555,"velocity":73.5277107521829},
{"position":208.16666666666666,"instrument":"TubularBells","level2":8,"level3":10,"pitch":64,"articulation":"hits_dumped","articulation_tags":["hits_dumped","short","hits","dumped"],"duration":0.0625,"velocity":110.16883208180819},
{"position":208.17708333333334,"instrument":"TheGrandeurPiano","level2":9,"level3":null,"pitch":66,"articulation":"standard","articulation_tags":["standard","long"],"duration":0.1388888888888889,"velocity":76.1007851811754},
{"position":208.19791666666666,"instrument":"Marimba","level2":9,"level3":1,"pitch":52,"articulation":"hits","articulation_tags":["hits","short"],"duration":0.0625,"velocity":103.5502297251249},
{"position":208.20833333333334,"instrument":"Marimba","level2":9,"level3":4,"pitch":52,"articulation":"hits","articulation_tags":["hits","short"],"duration":0.0625,"velocity":103.5502297251249},
{"position":208.22916666666666,"instrument":"TheGrandeurPiano","level2":8,"level3":null,"pitch":69,"articulation":"standard","articulation_tags":["standard","long"],"duration":0.09722222222222222,"velocity":72.96353027921461},
{"position":208.3125,"instrument":"TheGrandeurPiano","level2":9,"level3":null,"pitch":66,"articulation":"standard","articulation_tags":["standard","long"],"duration":0.09722222222222222,"velocity":75.78705969097932},
{"position":208.375,"instrument":"Marimba","level2":10,"level3":0,"pitch":37,"articulation":"hits","articulation_tags":["hits","short"],"duration":0.0625,"velocity":127.5},
{"position":208.38541666666666,"instrument":"TheGrandeurPiano","level2":8,"level3":null,"pitch":69,"articulation":"standard","articulation_tags":["standard","long"],"duration":0.08333333333333333,"velocity":73.27725576941069},
{"position":208.38541666666666,"instrument":"TheGrandeurPiano","level2":9,"level3":null,"pitch":67,"articulation":"standard","articulation_tags":["standard","long"],"duration":0.10416666666666667,"velocity":75.78705969097932},
{"position":208.42708333333334,"instrument":"TheGrandeurPiano","level2":8,"level3":null,"pitch":69,"articulation":"standard","articulation_tags":["standard","long"],"duration":0.125,"velocity":73.27725576941069},
{"position":208.45833333333334,"instrument":"Marimba","level2":10,"level3":1,"pitch":37,"articulation":"hits","articulation_tags":["hits","short"],"duration":0.0625,"velocity":127.5},
{"position":208.45833333333334,"instrument":"TheGrandeurPiano","level2":9,"level3":null,"pitch":67,"articulation":"standard","articulation_tags":["standard","long"],"duration":0.06944444444444445,"velocity":75.47333420078324},
{"position":208.5,"instrument":"TheGrandeurPiano","level2":8,"level3":null,"pitch":69,"articulation":"standard","articulation_tags":["standard","long"],"duration":0.0625,"velocity":71.51908827582125},
{"position":208.54166666666666,"instrument":"TheGrandeurPiano","level2":10,"level3":null,"pitch":25,"articulation":"standard","articulation_tags":["standard","long"],"duration":1.3937007874015748,"velocity":69.32300984444869},
{"position":208.54166666666666,"instrument":"TheGrandeurPiano","level2":9,"level3":null,"pitch":67,"articulation":"standard","articulation_tags":["standard","long"],"duration":0.06944444444444445,"velocity":73.40144121699771},
{"position":208.5625,"instrument":"TheGrandeurPiano","level2":9,"level3":null,"pitch":67,"articulation":"standard","articulation_tags":["standard","long"],"duration":0.04861111111111111,"velocity":73.08771572680163},
{"position":208.59375,"instrument":"TheGrandeurPiano","level2":8,"level3":null,"pitch":69,"articulation":"standard","articulation_tags":["standard","long"],"duration":0.041666666666666664,"velocity":71.83281376601732},
{"position":208.61458333333334,"instrument":"TheGrandeurPiano","level2":8,"level3":null,"pitch":68,"articulation":"standard","articulation_tags":["standard","long"],"duration":0.041666666666666664,"velocity":74.61500378185025},
{"position":208.63541666666666,"instrument":"TheGrandeurPiano","level2":9,"level3":null,"pitch":67,"articulation":"standard","articulation_tags":["standard","long"],"duration":0.027777777777777776,"velocity":75.55618025243848},
{"position":208.64583333333334,"instrument":"TheGrandeurPiano","level2":9,"level3":null,"pitch":68,"articulation":"standard","articulation_tags":["standard","long"],"duration":0.020833333333333332,"velocity":75.55618025243848},
{"position":208.65625,"instrument":"TheGrandeurPiano","level2":8,"level3":null,"pitch":68,"articulation":"standard","articulation_tags":["standard","long"],"duration":0.020833333333333332,"velocity":74.92872927204633},
{"position":208.66666666666666,"instrument":"TheGrandeurPiano","level2":9,"level3":null,"pitch":68,"articulation":"standard","articulation_tags":["standard","long"],"duration":0.006944444444444444,"velocity":75.2424547622424},
{"position":208.67708333333334,"instrument":"TheGrandeurPiano","level2":8,"level3":null,"pitch":68,"articulation":"standard","articulation_tags":["standard","long"],"duration":0.0,"velocity":75.2424547622424},
{"position":208.67708333333334,"instrument":"TheGrandeurPiano","level2":8,"level3":null,"pitch":68,"articulation":"standard","articulation_tags":["standard","long"],"duration":0.0,"velocity":75.2424547622424},
{"position":208.78125,"instrument":"Marimba","level2":9,"level3":4,"pitch":52,"articulation":"hits","articulation_tags":["hits","short"],"duration":0.0625,"velocity":106.4364314521525},
{"position":208.88541666666666,"instrument":"Marimba","level2":9,"level3":1,"pitch":52,"articulation":"hits","articulation_tags":["hits","short"],"duration":0.0625,"velocity":106.4364314521525},
{"position":210.11458333333334,"instrument":"Marimba","level2":10,"level3":2,"pitch":39,"articulation":"hits","articulation_tags":["hits","short"],"duration":0.0625,"velocity":127.5},
{"position":211.625,"instrument":"Marimba","level2":10,"level3":2,"pitch":39,"articulation":"hits","articulation_tags":["hits","short"],"duration":0.0625,"velocity":127.5},
{"position":211.64583333333334,"instrument":"TheGrandeurPiano","level2":10,"level3":null,"pitch":25,"articulation":"standard","articulation_tags":["standard","long"],"duration":1.3937007874015748,"velocity":70.84207305045027},
{"position":213.67708333333334,"instrument":"Marimba","level2":10,"level3":2,"pitch":39,"articulation":"hits","articulation_tags":["hits","short"],"duration":0.0625,"velocity":127.5},
{"position":215.5625,"instrument":"TheGrandeurPiano","level2":10,"level3":null,"pitch":25,"articulation":"standard","articulation_tags":["standard","long"],"duration":1.3937007874015748,"velocity":68.06821910766796},
{"position":216.1875,"instrument":"Marimba","level2":10,"level3":2,"pitch":38,"articulation":"hits","articulation_tags":["hits","short"],"duration":0.0625,"velocity":127.5},
{"position":218.96875,"instrument":"TheGrandeurPiano","level2":10,"level3":null,"pitch":25,"articulation":"standard","articulation_tags":["standard","long"],"duration":1.3937007874015748,"velocity":68.06821910766796},
{"position":219.625,"instrument":"Contrabass","level2":10,"level3":2,"pitch":38,"articulation":"pizzicato","articulation_tags":["pizzicato","pz","short"],"duration":0.125,"velocity":127.5},
{"position":220.25,"instrument":"Marimba","level2":10,"level3":3,"pitch":39,"articulation":"hits","articulation_tags":["hits","short"],"duration":0.0625,"velocity":127.5},
{"position":220.25,"instrument":"Marimba","level2":10,"level3":4,"pitch":40,"articulation":"hits","articulation_tags":["hits","short"],"duration":0.0625,"velocity":127.5},
{"position":220.38541666666666,"instrument":"Contrabass","level2":10,"level3":4,"pitch":40,"articulation":"collegno","articulation_tags":["collegno","cl","short"],"duration":0.125,"velocity":127.5},
{"position":220.40625,"instrument":"Contrabass","level2":10,"level3":3,"pitch":39,"articulation":"collegno","articulation_tags":["collegno","cl","short"],"duration":0.125,"velocity":127.5},
{"position":220.47916666666666,"instrument":"Contrabass","level2":10,"level3":4,"pitch":40,"articulation":"collegno","articulation_tags":["collegno","cl","short"],"duration":0.125,"velocity":127.5},
{"position":220.52083333333334,"instrument":"Contrabass","level2":10,"level3":3,"pitch":39,"articulation":"collegno","articulation_tags":["collegno","cl","short"],"duration":0.125,"velocity":127.5},
{"position":221.25,"instrument":"Marimba","level2":10,"level3":3,"pitch":38,"articulation":"hits","articulation_tags":["hits","short"],"duration":0.0625,"velocity":127.5},
{"position":221.34375,"instrument":"Marimba","level2":10,"level3":4,"pitch":40,"articulation":"hits","articulation_tags":["hits","short"],"duration":0.0625,"velocity":127.5},
{"position":221.55208333333334,"instrument":"TheGrandeurPiano","level2":10,"level3":null,"pitch":25,"articulation":"standard","articulation_tags":["standard","long"],"duration":1.3937007874015748,"velocity":66.34292182041997},
{"position":222.46875,"instrument":"Contrabass","level2":10,"level3":3,"pitch":38,"articulation":"collegno","articulation_tags":["collegno","cl","short"],"duration":0.125,"velocity":127.5},
{"position":222.63541666666666,"instrument":"Contrabass","level2":10,"level3":2,"pitch":37,"articulation":"pizzicato","articulation_tags":["pizzicato","pz","short"],"duration":0.125,"velocity":127.5},
{"position":223.01041666666666,"instrument":"Contrabass","level2":10,"level3":4,"pitch":40,"articulation":"pizzicato","articulation_tags":["pizzicato","pz","short"],"duration":0.125,"velocity":127.5},
{"position":223.53125,"instrument":"TheGrandeurPiano","level2":10,"level3":null,"pitch":26,"articulation":"standard","articulation_tags":["standard","long"],"duration":1.4094488188976377,"velocity":66.86139156232284},
{"position":223.72916666666666,"instrument":"Marimba","level2":10,"level3":3,"pitch":38,"articulation":"hits","articulation_tags":["hits","short"],"duration":0.0625,"velocity":127.5},
{"position":223.80208333333334,"instrument":"Marimba","level2":10,"level3":2,"pitch":37,"articulation":"hits","articulation_tags":["hits","short"],"duration":0.0625,"velocity":127.5},
{"position":223.94791666666666,"instrument":"Marimba","level2":10,"level3":3,"pitch":37,"articulation":"hits","articulation_tags":["hits","short"],"duration":0.0625,"velocity":127.5},
{"position":224.125,"instrument":"TheGrandeurPiano","level2":11,"level3":null,"pitch":24,"articulation":"standard","articulation_tags":["standard","long"],"duration":0.16666666666666666,"velocity":88.94102506721043},
{"position":224.125,"instrument":"TheGrandeurPiano","level2":12,"level3":null,"pitch":35,"articulation":"standard","articulation_tags":["standard","long"],"duration":0.1388888888888889,"velocity":89.25475055740651},
{"position":224.32291666666666,"instrument":"TheGrandeurPiano","level2":12,"level3":null,"pitch":35,"articulation":"standard","articulation_tags":["standard","long"],"duration":0.2708333333333333,"velocity":89.25475055740651},
{"position":224.36458333333334,"instrument":"TheGrandeurPiano","level2":11,"level3":null,"pitch":24,"articulation":"standard","articulation_tags":["standard","long"],"duration":0.4166666666666667,"velocity":88.94102506721043},
{"position":224.54166666666666,"instrument":"TheGrandeurPiano","level2":12,"level3":null,"pitch":35,"articulation":"standard","articulation_tags":["standard","long"],"duration":1.0416666666666667,"velocity":87.51919949982482},
{"position":224.55208333333334,"instrument":"Contrabass","level2":11,"level3":0,"pitch":31,"articulation":"collegno","articulation_tags":["collegno","cl","short"],"duration":0.125,"velocity":127.5},
{"position":224.55208333333334,"instrument":"Contrabass","level2":11,"level3":1,"pitch":31,"articulation":"collegno","articulation_tags":["collegno","cl","short"],"duration":0.125,"velocity":127.5},
{"position":224.625,"instrument":"Contrabass","level2":11,"level3":0,"pitch":31,"articulation":"collegno","articulation_tags":["collegno","cl","short"],"duration":0.125,"velocity":127.5},
{"position":224.625,"instrument":"Contrabass","level2":11,"level3":1,"pitch":32,"articulation":"collegno","articulation_tags":["collegno","cl","short"],"duration":0.125,"velocity":127.5},
{"position":224.67708333333334,"instrument":"Contrabass","level2":11,"level3":0,"pitch":31,"articulation":"collegno","articulation_tags":["collegno","cl","short"],"duration":0.125,"velocity":127.5},
{"position":224.72916666666666,"instrument":"TheGrandeurPiano","level2":12,"level3":null,"pitch":34,"articulation":"standard","articulation_tags":["standard","long"],"duration":0.3333333333333333,"velocity":89.13290381267456},
{"position":224.98958333333334,"instrument":"TheGrandeurPiano","level2":11,"level3":null,"pitch":24,"articulation":"standard","articulation_tags":["standard","long"],"duration":0.4305555555555556,"velocity":90.61500378185025},
{"position":225.17708333333334,"instrument":"Contrabass","level2":11,"level3":1,"pitch":32,"articulation":"collegno","articulation_tags":["collegno","cl","short"],"duration":0.125,"velocity":127.5},
{"position":225.22916666666666,"instrument":"Contrabass","level2":11,"level3":0,"pitch":30,"articulation":"collegno","articulation_tags":["collegno","cl","short"],"duration":0.125,"velocity":127.5},
{"position":225.22916666666666,"instrument":"TheGrandeurPiano","level2":12,"level3":null,"pitch":34,"articulation":"standard","articulation_tags":["standard","long"],"duration":0.4027777777777778,"velocity":88.1465392562134},
{"position":225.35416666666666,"instrument":"Marimba","level2":10,"level3":2,"pitch":37,"articulation":"hits","articulation_tags":["hits","short"],"duration":0.0625,"velocity":127.5},
{"position":225.4375,"instrument":"Marimba","level2":10,"level3":3,"pitch":37,"articulation":"hits","articulation_tags":["hits","short"],"duration":0.0625,"velocity":127.5},
{"position":225.46875,"instrument":"Marimba","level2":10,"level3":4,"pitch":39,"articulation":"hits","articulation_tags":["hits","short"],"duration":0.0625,"velocity":127.5},
{"position":225.46875,"instrument":"Contrabass","level2":10,"level3":4,"pitch":39,"articulation":"pizzicato","articulation_tags":["pizzicato","pz","short"],"duration":0.125,"velocity":127.5},
{"position":225.58333333333334,"instrument":"Marimba","level2":10,"level3":2,"pitch":37,"articulation":"hits","articulation_tags":["hits","short"],"duration":0.0625,"velocity":127.5},
{"position":225.63541666666666,"instrument":"TheGrandeurPiano","level2":11,"level3":null,"pitch":25,"articulation":"standard","articulation_tags":["standard","long"],"duration":0.4375,"velocity":89.66560246221498},
{"position":225.63541666666666,"instrument":"Marimba","level2":10,"level3":3,"pitch":37,"articulation":"hits","articulation_tags":["hits","short"],"duration":0.0625,"velocity":127.5},
{"position":225.83333333333334,"instrument":"TheGrandeurPiano","level2":12,"level3":null,"pitch":33,"articulation":"standard","articulation_tags":["standard","long"],"duration":0.4722222222222222,"velocity":89.97932795241105},
{"position":225.96875,"instrument":"Marimba","level2":10,"level3":3,"pitch":37,"articulation":"hits","articulation_tags":["hits","short"],"duration":0.0625,"velocity":127.5},
{"position":226.10416666666666,"instrument":"TheGrandeurPiano","level2":12,"level3":null,"pitch":33,"articulation":"standard","articulation_tags":["standard","long"],"duration":1.5196850393700787,"velocity":90.53215773019501},
{"position":226.29166666666666,"instrument":"TheGrandeurPiano","level2":11,"level3":null,"pitch":25,"articulation":"standard","articulation_tags":["standard","long"],"duration":0.4513888888888889,"velocity":89.90470674980284},
{"position":226.3125,"instrument":"Contrabass","level2":11,"level3":1,"pitch":33,"articulation":"collegno","articulation_tags":["collegno","cl","short"],"duration":0.125,"velocity":127.5},
{"position":226.52083333333334,"instrument":"Contrabass","level2":11,"level3":2,"pitch":31,"articulation":"collegno","articulation_tags":["collegno","cl","short"],"duration":0.125,"velocity":127.5},
{"position":226.52083333333334,"instrument":"Contrabass","level2":11,"level3":3,"pitch":31,"articulation":"collegno","articulation_tags":["collegno","cl","short"],"duration":0.125,"velocity":127.5},
{"position":226.52083333333334,"instrument":"Contrabass","level2":11,"level3":3,"pitch":31,"articulation":"collegno","articulation_tags":["collegno","cl","short"],"duration":0.125,"velocity":127.5},
{"position":226.53125,"instrument":"TheGrandeurPiano","level2":12,"level3":null,"pitch":33,"articulation":"standard","articulation_tags":["standard","long"],"duration":0.5416666666666666,"velocity":91.2424547622424},
{"position":226.53125,"instrument":"Contrabass","level2":11,"level3":3,"pitch":31,"articulation":"collegno","articulation_tags":["collegno","cl","short"],"duration":0.125,"velocity":127.5},
{"position":226.8125,"instrument":"Contrabass","level2":11,"level3":2,"pitch":30,"articulation":"collegno","articulation_tags":["collegno","cl","short"],"duration":0.125,"velocity":127.5},
{"position":226.83333333333334,"instrument":"Contrabass","level2":11,"level3":1,"pitch":33,"articulation":"collegno","articulation_tags":["collegno","cl","short"],"duration":0.125,"velocity":127.5},
{"position":226.83333333333334,"instrument":"Contrabass","level2":11,"level3":3,"pitch":32,"articulation":"collegno","articulation_tags":["collegno","cl","short"],"duration":0.125,"velocity":127.5},
{"position":226.96875,"instrument":"TheGrandeurPiano","level2":11,"level3":null,"pitch":26,"articulation":"standard","articulation_tags":["standard","long"],"duration":0.4583333333333333,"velocity":91.77643680908321},
{"position":226.98958333333334,"instrument":"TheGrandeurPiano","level2":10,"level3":null,"pitch":26,"articulation":"standard","articulation_tags":["standard","long"],"duration":1.4094488188976377,"velocity":72.32545641692636},
{"position":227.35416666666666,"instrument":"TheGrandeurPiano","level2":12,"level3":null,"pitch":32,"articulation":"standard","articulation_tags":["standard","long"],"duration":0.625,"velocity":92.74709830127229},
{"position":227.5625,"instrument":"Contrabass","level2":11,"level3":3,"pitch":32,"articulation":"collegno","articulation_tags":["collegno","cl","short"],"duration":0.125,"velocity":127.5},
{"position":227.64583333333334,"instrument":"Contrabass","level2":11,"level3":0,"pitch":30,"articulation":"collegno","articulation_tags":["collegno","cl","short"],"duration":0.125,"velocity":127.5},
{"position":227.65625,"instrument":"TheGrandeurPiano","level2":11,"level3":null,"pitch":26,"articulation":"standard","articulation_tags":["standard","long"],"duration":0.4722222222222222,"velocity":91.08285667703203},
{"position":227.77083333333334,"instrument":"Contrabass","level2":11,"level3":3,"pitch":32,"articulation":"collegno","articulation_tags":["collegno","cl","short"],"duration":0.125,"velocity":127.5},
{"position":227.78125,"instrument":"Contrabass","level2":11,"level3":2,"pitch":30,"articulation":"collegno","articulation_tags":["collegno","cl","short"],"duration":0.125,"velocity":127.5},
{"position":227.85416666666666,"instrument":"Contrabass","level2":11,"level3":4,"pitch":31,"articulation":"collegno","articulation_tags":["collegno","cl","short"],"duration":0.125,"velocity":127.5},
{"position":227.85416666666666,"instrument":"Contrabass","level2":11,"level3":5,"pitch":32,"articulation":"collegno","articulation_tags":["collegno","cl","short"],"duration":0.125,"velocity":127.5},
{"position":227.88541666666666,"instrument":"Contrabass","level2":11,"level3":4,"pitch":31,"articulation":"collegno","articulation_tags":["collegno","cl","short"],"duration":0.125,"velocity":127.5},
{"position":227.89583333333334,"instrument":"Contrabass","level2":11,"level3":5,"pitch":32,"articulation":"collegno","articulation_tags":["collegno","cl","short"],"duration":0.125,"velocity":127.5},
{"position":228.01041666666666,"instrument":"Contrabass","level2":11,"level3":4,"pitch":31,"articulation":"collegno","articulation_tags":["collegno","cl","short"],"duration":0.125,"velocity":127.5},
{"position":228.11458333333334,"instrument":"Contrabass","level2":11,"level3":1,"pitch":33,"articulation":"collegno","articulation_tags":["collegno","cl","short"],"duration":0.125,"velocity":127.5},
{"position":228.29166666666666,"instrument":"TheGrandeurPiano","level2":12,"level3":null,"pitch":32,"articulation":"standard","articulation_tags":["standard","long"],"duration":0.7083333333333334,"velocity":93.65110144448404},
{"position":228.35416666666666,"instrument":"TheGrandeurPiano","level2":11,"level3":null,"pitch":27,"articulation":"standard","articulation_tags":["standard","long"],"duration":0.4791666666666667,"velocity":93.02365046409187},
{"position":228.51041666666666,"instrument":"Contrabass","level2":11,"level3":5,"pitch":32,"articulation":"collegno","articulation_tags":["collegno","cl","short"],"duration":0.125,"velocity":127.5},
{"position":228.72916666666666,"instrument":"TheGrandeurPiano","level2":12,"level3":null,"pitch":32,"articulation":"standard","articulation_tags":["standard","long"],"duration":1.5039370078740157,"velocity":93.51483437801097},
{"position":228.85416666666666,"instrument":"Contrabass","level2":11,"level3":0,"pitch":29,"articulation":"collegno","articulation_tags":["collegno","cl","short"],"duration":0.125,"velocity":127.5},
{"position":228.9375,"instrument":"Contrabass","level2":11,"level3":4,"pitch":30,"articulation":"collegno","articulation_tags":["collegno","cl","short"],"duration":0.125,"velocity":127.5},
{"position":229.07291666666666,"instrument":"TheGrandeurPiano","level2":11,"level3":null,"pitch":27,"articulation":"standard","articulation_tags":["standard","long"],"duration":0.4930555555555556,"velocity":92.68652856286846},
{"position":229.125,"instrument":"Contrabass","level2":11,"level3":2,"pitch":30,"articulation":"collegno","articulation_tags":["collegno","cl","short"],"duration":0.125,"velocity":127.5},
{"position":229.25,"instrument":"Contrabass","level2":10,"level3":4,"pitch":39,"articulation":"pizzicato_bartok","articulation_tags":["pizzicato_bartok","pzb","short","pizzicato","bartok"],"duration":0.125,"velocity":127.5},
{"position":229.35416666666666,"instrument":"TheGrandeurPiano","level2":12,"level3":null,"pitch":31,"articulation":"standard","articulation_tags":["standard","long"],"duration":0.8055555555555556,"velocity":93.96482693468012},
{"position":229.36458333333334,"instrument":"Contrabass","level2":11,"level3":5,"pitch":32,"articulation":"collegno","articulation_tags":["collegno","cl","short"],"duration":0.125,"velocity":127.5},
{"position":229.40625,"instrument":"Contrabass","level2":11,"level3":3,"pitch":33,"articulation":"collegno","articulation_tags":["collegno","cl","short"],"duration":0.125,"velocity":127.5},
{"position":229.61458333333334,"instrument":"Contrabass","level2":11,"level3":2,"pitch":29,"articulation":"collegno","articulation_tags":["collegno","cl","short"],"duration":0.125,"velocity":127.5},
{"position":229.67708333333334,"instrument":"Contrabass","level2":12,"level3":0,"pitch":33,"articulation":"spiccato","articulation_tags":["spiccato","sp","short"],"duration":0.125,"velocity":127.5},
{"position":229.76041666666666,"instrument":"Contrabass","level2":10,"level3":4,"pitch":39,"articulation":"pizzicato_bartok","articulation_tags":["pizzicato_bartok","pzb","short","pizzicato","bartok"],"duration":0.125,"velocity":127.5},
{"position":229.8125,"instrument":"TheGrandeurPiano","level2":11,"level3":null,"pitch":28,"articulation":"standard","articulation_tags":["standard","long"],"duration":0.5,"velocity":94.35054609845423},
{"position":229.88541666666666,"instrument":"Contrabass","level2":11,"level3":5,"pitch":33,"articulation":"collegno","articulation_tags":["collegno","cl","short"],"duration":0.125,"velocity":127.5},
{"position":229.92708333333334,"instrument":"TheGrandeurPiano","level2":10,"level3":null,"pitch":27,"articulation":"standard","articulation_tags":["standard","long"],"duration":1.4251968503937007,"velocity":74.89956570629738},
{"position":230.5625,"instrument":"TheGrandeurPiano","level2":12,"level3":null,"pitch":31,"articulation":"standard","articulation_tags":["standard","long"],"duration":0.9166666666666666,"velocity":95.72664778247537},
{"position":230.5625,"instrument":"TheGrandeurPiano","level2":11,"level3":null,"pitch":28,"articulation":"standard","articulation_tags":["standard","long"],"duration":0.5138888888888888,"velocity":94.78547131188714},
{"position":230.79166666666666,"instrument":"Contrabass","level2":11,"level3":1,"pitch":34,"articulation":"collegno","articulation_tags":["collegno","cl","short"],"duration":0.125,"velocity":127.5},
{"position":230.875,"instrument":"Contrabass","level2":11,"level3":4,"pitch":30,"articulation":"collegno","articulation_tags":["collegno","cl","short"],"duration":0.125,"velocity":127.5},
{"position":230.98958333333334,"instrument":"Contrabass","level2":11,"level3":4,"pitch":30,"articulation":"collegno","articulation_tags":["collegno","cl","short"],"duration":0.125,"velocity":127.5},
{"position":231.14583333333334,"instrument":"Contrabass","level2":11,"level3":6,"pitch":31,"articulation":"collegno","articulation_tags":["collegno","cl","short"],"duration":0.125,"velocity":127.5},
{"position":231.14583333333334,"instrument":"Contrabass","level2":11,"level3":7,"pitch":32,"articulation":"collegno","articulation_tags":["collegno","cl","short"],"duration":0.125,"velocity":127.5},
{"position":231.15625,"instrument":"Contrabass","level2":11,"level3":7,"pitch":32,"articulation":"collegno","articulation_tags":["collegno","cl","short"],"duration":0.125,"velocity":127.5},
{"position":231.16666666666666,"instrument":"Contrabass","level2":11,"level3":7,"pitch":32,"articulation":"collegno","articulation_tags":["collegno","cl","short"],"duration":0.125,"velocity":127.5},
{"position":231.33333333333334,"instrument":"TheGrandeurPiano","level2":11,"level3":null,"pitch":29,"articulation":"standard","articulation_tags":["standard","long"],"duration":0.5277777777777778,"velocity":95.32416513410482},
{"position":231.39583333333334,"instrument":"Contrabass","level2":11,"level3":0,"pitch":29,"articulation":"collegno","articulation_tags":["collegno","cl","short"],"duration":0.125,"velocity":127.5},
{"position":231.47916666666666,"instrument":"Contrabass","level2":11,"level3":6,"pitch":31,"articulation":"collegno","articulation_tags":["collegno","cl","short"],"duration":0.125,"velocity":127.5},
{"position":231.83333333333334,"instrument":"Contrabass","level2":11,"level3":7,"pitch":32,"articulation":"collegno","articulation_tags":["collegno","cl","short"],"duration":0.125,"velocity":127.5},
{"position":231.88541666666666,"instrument":"Contrabass","level2":11,"level3":7,"pitch":32,"articulation":"collegno","articulation_tags":["collegno","cl","short"],"duration":0.125,"velocity":127.5},
{"position":231.9375,"instrument":"TheGrandeurPiano","level2":12,"level3":null,"pitch":30,"articulation":"standard","articulation_tags":["standard","long"],"duration":1.0277777777777777,"velocity":95.40079015941687},
{"position":231.96875,"instrument":"Contrabass","level2":11,"level3":3,"pitch":33,"articulation":"collegno","articulation_tags":["collegno","cl","short"],"duration":0.125,"velocity":127.5},
{"position":232.10416666666666,"instrument":"TheGrandeurPiano","level2":11,"level3":null,"pitch":29,"articulation":"standard","articulation_tags":["standard","long"],"duration":1.4566929133858268,"velocity":96.59497802677328},
{"position":232.125,"instrument":"TheGrandeurPiano","level2":11,"level3":null,"pitch":29,"articulation":"standard","articulation_tags":["standard","long"],"duration":0.5347222222222222,"velocity":96.59497802677328},
{"position":232.23958333333334,"instrument":"Contrabass","level2":11,"level3":5,"pitch":33,"articulation":"collegno","articulation_tags":["collegno","cl","short"],"duration":0.125,"velocity":127.5},
{"position":232.51041666666666,"instrument":"TheGrandeurPiano","level2":10,"level3":null,"pitch":27,"articulation":"standard","articulation_tags":["standard","long"],"duration":1.4251968503937007,"velocity":75.87318474194797},
{"position":232.6875,"instrument":"Contrabass","level2":11,"level3":1,"pitch":34,"articulation":"collegno","articulation_tags":["collegno","cl","short"],"duration":0.125,"velocity":127.5},
{"position":232.8125,"instrument":"Contrabass","level2":11,"level3":2,"pitch":29,"articulation":"collegno","articulation_tags":["collegno","cl","short"],"duration":0.125,"velocity":127.5},
{"position":232.8125,"instrument":"Contrabass","level2":11,"level3":2,"pitch":29,"articulation":"collegno","articulation_tags":["collegno","cl","short"],"duration":0.125,"velocity":127.5},
{"position":232.92708333333334,"instrument":"TheGrandeurPiano","level2":11,"level3":null,"pitch":30,"articulation":"standard","articulation_tags":["standard","long"],"duration":0.5486111111111112,"velocity":96.07190258822499},
{"position":232.98958333333334,"instrument":"Contrabass","level2":12,"level3":1,"pitch":33,"articulation":"spiccato","articulation_tags":["spiccato","sp","short"],"duration":0.125,"velocity":127.5},
{"position":232.98958333333334,"instrument":"Contrabass","level2":12,"level3":2,"pitch":34,"articulation":"spiccato","articulation_tags":["spiccato","sp","short"],"duration":0.125,"velocity":127.5},
{"position":233.0,"instrument":"TheGrandeurPiano","level2":12,"level3":null,"pitch":30,"articulation":"standard","articulation_tags":["standard","long"],"duration":1.4724409448818898,"velocity":97.64053003920537},
{"position":233.125,"instrument":"Contrabass","level2":10,"level3":4,"pitch":38,"articulation":"pizzicato_bartok","articulation_tags":["pizzicato_bartok","pzb","short","pizzicato","bartok"],"duration":0.125,"velocity":127.5},
{"position":233.13541666666666,"instrument":"Contrabass","level2":11,"level3":0,"pitch":29,"articulation":"collegno","articulation_tags":["collegno","cl","short"],"duration":0.125,"velocity":127.5},
{"position":233.13541666666666,"instrument":"Contrabass","level2":11,"level3":6,"pitch":30,"articulation":"collegno","articulation_tags":["collegno","cl","short"],"duration":0.125,"velocity":127.5},
{"position":233.47916666666666,"instrument":"TheGrandeurPiano","level2":12,"level3":null,"pitch":30,"articulation":"standard","articulation_tags":["standard","long"],"duration":1.1597222222222223,"velocity":97.74554481014361},
{"position":233.73958333333334,"instrument":"Contrabass","level2":11,"level3":3,"pitch":33,"articulation":"collegno","articulation_tags":["collegno","cl","short"],"duration":0.125,"velocity":127.5},
{"position":233.75,"instrument":"Contrabass","level2":11,"level3":7,"pitch":33,"articulation":"collegno","articulation_tags":["collegno","cl","short"],"duration":0.125,"velocity":127.5},
{"position":233.76041666666666,"instrument":"TheGrandeurPiano","level2":11,"level3":null,"pitch":30,"articulation":"standard","articulation_tags":["standard","long"],"duration":0.5625,"velocity":95.01043964390874},
{"position":234.125,"instrument":"Contrabass","level2":11,"level3":6,"pitch":30,"articulation":"collegno","articulation_tags":["collegno","cl","short"],"duration":0.125,"velocity":126.94005499905367},
{"position":234.16666666666666,"instrument":"Contrabass","level2":12,"level3":2,"pitch":34,"articulation":"spiccato","articulation_tags":["spiccato","sp","short"],"duration":0.125,"velocity":127.5},
{"position":234.26041666666666,"instrument":"Contrabass","level2":11,"level3":8,"pitch":31,"articulation":"collegno","articulation_tags":["collegno","cl","short"],"duration":0.125,"velocity":126.94005499905367},
{"position":234.26041666666666,"instrument":"Contrabass","level2":11,"level3":9,"pitch":31,"articulation":"collegno","articulation_tags":["collegno","cl","short"],"duration":0.125,"velocity":126.94005499905367},
{"position":234.27083333333334,"instrument":"Contrabass","level2":11,"level3":8,"pitch":31,"articulation":"collegno","articulation_tags":["collegno","cl","short"],"duration":0.125,"velocity":126.94005499905367},
{"position":234.41666666666666,"instrument":"TheGrandeurPiano","level2":10,"level3":null,"pitch":27,"articulation":"standard","articulation_tags":["standard","long"],"duration":1.4251968503937007,"velocity":77.77144861500855},
{"position":234.4375,"instrument":"Contrabass","level2":11,"level3":10,"pitch":31,"articulation":"collegno","articulation_tags":["collegno","cl","short"],"duration":0.125,"velocity":126.94005499905367},
{"position":234.4375,"instrument":"Contrabass","level2":11,"level3":11,"pitch":32,"articulation":"collegno","articulation_tags":["collegno","cl","short"],"duration":0.125,"velocity":126.94005499905367},
{"position":234.4375,"instrument":"Contrabass","level2":11,"level3":11,"pitch":32,"articulation":"collegno","articulation_tags":["collegno","cl","short"],"duration":0.125,"velocity":126.94005499905367},
{"position":234.59375,"instrument":"TheGrandeurPiano","level2":11,"level3":null,"pitch":31,"articulation":"standard","articulation_tags":["standard","long"],"duration":0.5763888888888888,"velocity":96.07190258822499},
{"position":234.61458333333334,"instrument":"Contrabass","level2":11,"level3":9,"pitch":32,"articulation":"collegno","articulation_tags":["collegno","cl","short"],"duration":0.125,"velocity":126.31509265221665},
{"position":234.73958333333334,"instrument":"Contrabass","level2":11,"level3":4,"pitch":30,"articulation":"collegno","articulation_tags":["collegno","cl","short"],"duration":0.125,"velocity":126.31509265221665},
{"position":234.86458333333334,"instrument":"TheGrandeurPiano","level2":10,"level3":null,"pitch":28,"articulation":"standard","articulation_tags":["standard","long"],"duration":1.4409448818897639,"velocity":76.93211128631535},
{"position":234.89583333333334,"instrument":"Contrabass","level2":11,"level3":1,"pitch":34,"articulation":"collegno","articulation_tags":["collegno","cl","short"],"duration":0.125,"velocity":126.31509265221665},
{"position":234.96875,"instrument":"Contrabass","level2":11,"level3":8,"pitch":30,"articulation":"collegno","articulation_tags":["collegno","cl","short"],"duration":0.125,"velocity":126.31509265221665},
{"position":235.1875,"instrument":"Contrabass","level2":11,"level3":5,"pitch":33,"articulation":"collegno","articulation_tags":["collegno","cl","short"],"duration":0.125,"velocity":126.31509265221665},
{"position":235.21875,"instrument":"TheGrandeurPiano","level2":12,"level3":null,"pitch":29,"articulation":"standard","articulation_tags":["standard","long"],"duration":1.3194444444444444,"velocity":97.21843771563},
{"position":235.3125,"instrument":"Contrabass","level2":11,"level3":10,"pitch":31,"articulation":"collegno","articulation_tags":["collegno","cl","short"],"duration":0.125,"velocity":126.31509265221665},
{"position":235.40625,"instrument":"Contrabass","level2":11,"level3":11,"pitch":32,"articulation":"collegno","articulation_tags":["collegno","cl","short"],"duration":0.125,"velocity":126.31509265221665},
{"position":235.44791666666666,"instrument":"Contrabass","level2":11,"level3":0,"pitch":29,"articulation":"collegno","articulation_tags":["collegno","cl","short"],"duration":0.125,"velocity":126.31509265221665},
{"position":235.45833333333334,"instrument":"TheGrandeurPiano","level2":11,"level3":null,"pitch":31,"articulation":"standard","articulation_tags":["standard","long"],"duration":0.5902777777777778,"velocity":95.75564069808007},
{"position":235.71875,"instrument":"Contrabass","level2":11,"level3":4,"pitch":29,"articulation":"collegno","articulation_tags":["collegno","cl","short"],"duration":0.125,"velocity":125.69014049445552},
{"position":235.85416666666666,"instrument":"TheGrandeurPiano","level2":11,"level3":null,"pitch":31,"articulation":"standard","articulation_tags":["standard","long"],"duration":1.4881889763779528,"velocity":92.95319909380291},
{"position":236.01041666666666,"instrument":"Contrabass","level2":11,"level3":8,"pitch":30,"articulation":"collegno","articulation_tags":["collegno","cl","short"],"duration":0.125,"velocity":125.71713718549032},
{"position":236.02083333333334,"instrument":"Contrabass","level2":12,"level3":1,"pitch":33,"articulation":"spiccato","articulation_tags":["spiccato","sp","short"],"duration":0.125,"velocity":127.5},
{"position":236.04166666666666,"instrument":"Contrabass","level2":11,"level3":9,"pitch":32,"articulation":"collegno","articulation_tags":["collegno","cl","short"],"duration":0.125,"velocity":125.71713718549032},
{"position":236.0625,"instrument":"Contrabass","level2":10,"level3":4,"pitch":38,"articulation":"pizzicato_bartok","articulation_tags":["pizzicato_bartok","pzb","short","pizzicato","bartok"],"duration":0.125,"velocity":127.5},
{"position":236.19791666666666,"instrument":"Contrabass","level2":11,"level3":3,"pitch":34,"articulation":"collegno","articulation_tags":["collegno","cl","short"],"duration":0.125,"velocity":125.71713718549032},
{"position":236.26041666666666,"instrument":"Contrabass","level2":11,"level3":5,"pitch":34,"articulation":"collegno","articulation_tags":["collegno","cl","short"],"duration":0.125,"velocity":125.71713718549032},
{"position":236.34375,"instrument":"TheGrandeurPiano","level2":11,"level3":null,"pitch":32,"articulation":"standard","articulation_tags":["standard","long"],"duration":0.6041666666666666,"velocity":94.69671415371266},
{"position":236.82291666666666,"instrument":"Contrabass","level2":11,"level3":2,"pitch":29,"articulation":"collegno","articulation_tags":["collegno","cl","short"],"duration":0.125,"velocity":125.09253240329448},
{"position":237.03125,"instrument":"TheGrandeurPiano","level2":10,"level3":null,"pitch":28,"articulation":"standard","articulation_tags":["standard","long"],"duration":1.3472222222222223,"velocity":75.64821640992633},
{"position":237.04166666666666,"instrument":"Contrabass","level2":10,"level3":5,"pitch":39,"articulation":"collegno","articulation_tags":["collegno","cl","short"],"duration":0.125,"velocity":127.5},
{"position":237.04166666666666,"instrument":"Contrabass","level2":10,"level3":6,"pitch":39,"articulation":"collegno","articulation_tags":["collegno","cl","short"],"duration":0.125,"velocity":127.5},
{"position":237.09375,"instrument":"Contrabass","level2":11,"level3":8,"pitch":30,"articulation":"collegno","articulation_tags":["collegno","cl","short"],"duration":0.125,"velocity":125.09253240329448},
{"position":237.17708333333334,"instrument":"Contrabass","level2":10,"level3":6,"pitch":39,"articulation":"collegno","articulation_tags":["collegno","cl","short"],"duration":0.125,"velocity":127.5},
{"position":237.19791666666666,"instrument":"TheGrandeurPiano","level2":12,"level3":null,"pitch":29,"articulation":"standard","articulation_tags":["standard","long"],"duration":1.4566929133858268,"velocity":94.72463177988347},
{"position":237.25,"instrument":"TheGrandeurPiano","level2":11,"level3":null,"pitch":32,"articulation":"standard","articulation_tags":["standard","long"],"duration":0.6180555555555556,"velocity":92.842278838707},
{"position":237.27083333333334,"instrument":"Contrabass","level2":10,"level3":5,"pitch":38,"articulation":"collegno","articulation_tags":["collegno","cl","short"],"duration":0.125,"velocity":127.5},
{"position":237.28125,"instrument":"Contrabass","level2":10,"level3":6,"pitch":39,"articulation":"collegno","articulation_tags":["collegno","cl","short"],"duration":0.125,"velocity":127.5},
{"position":237.42708333333334,"instrument":"Contrabass","level2":11,"level3":10,"pitch":31,"articulation":"pizzicato","articulation_tags":["pizzicato","pz","short"],"duration":0.125,"velocity":124.4679470940484},
{"position":237.51041666666666,"instrument":"Contrabass","level2":10,"level3":5,"pitch":38,"articulation":"collegno","articulation_tags":["collegno","cl","short"],"duration":0.125,"velocity":127.5},
{"position":237.5625,"instrument":"Contrabass","level2":12,"level3":2,"pitch":34,"articulation":"spiccato","articulation_tags":["spiccato","sp","short"],"duration":0.125,"velocity":127.5},
{"position":237.64583333333334,"instrument":"Contrabass","level2":11,"level3":7,"pitch":33,"articulation":"collegno","articulation_tags":["collegno","cl","short"],"duration":0.125,"velocity":124.4679470940484},
{"position":237.6875,"instrument":"Contrabass","level2":11,"level3":12,"pitch":31,"articulation":"pizzicato","articulation_tags":["pizzicato","pz","short"],"duration":0.125,"velocity":124.4679470940484},
{"position":237.6875,"instrument":"Contrabass","level2":11,"level3":13,"pitch":31,"articulation":"pizzicato","articulation_tags":["pizzicato","pz","short"],"duration":0.125,"velocity":124.4679470940484},
{"position":237.6875,"instrument":"Contrabass","level2":11,"level3":7,"pitch":33,"articulation":"collegno","articulation_tags":["collegno","cl","short"],"duration":0.125,"velocity":124.4679470940484},
{"position":237.77083333333334,"instrument":"Contrabass","level2":11,"level3":1,"pitch":34,"articulation":"collegno","articulation_tags":["collegno","cl","short"],"duration":0.125,"velocity":124.4679470940484},
{"position":238.14583333333334,"instrument":"Contrabass","level2":11,"level3":6,"pitch":30,"articulation":"pizzicato","articulation_tags":["pizzicato","pz","short"],"duration":0.125,"velocity":124.4679470940484},
{"position":238.17708333333334,"instrument":"TheGrandeurPiano","level2":11,"level3":null,"pitch":33,"articulation":"standard","articulation_tags":["standard","long"],"duration":0.6319444444444444,"velocity":93.83216270843647},
{"position":238.20833333333334,"instrument":"Contrabass","level2":10,"level3":5,"pitch":38,"articulation":"collegno","articulation_tags":["collegno","cl","short"],"duration":0.125,"velocity":127.5},
{"position":238.27083333333334,"instrument":"Contrabass","level2":12,"level3":3,"pitch":34,"articulation":"short_hrm","articulation_tags":["short_hrm","hrm_s","short","harmonics"],"duration":0.125,"velocity":127.5},
{"position":238.27083333333334,"instrument":"Contrabass","level2":12,"level3":4,"pitch":34,"articulation":"short_hrm","articulation_tags":["short_hrm","hrm_s","short","harmonics"],"duration":0.125,"velocity":127.5},
{"position":238.32291666666666,"instrument":"Contrabass","level2":12,"level3":3,"pitch":34,"articulation":"short_hrm","articulation_tags":["short_hrm","hrm_s","short","harmonics"],"duration":0.125,"velocity":127.5},
{"position":238.36458333333334,"instrument":"Contrabass","level2":12,"level3":3,"pitch":34,"articulation":"short_hrm","articulation_tags":["short_hrm","hrm_s","short","harmonics"],"duration":0.125,"velocity":127.5},
{"position":238.59375,"instrument":"TheGrandeurPiano","level2":11,"level3":null,"pitch":33,"articulation":"standard","articulation_tags":["standard","long"],"duration":1.5069444444444444,"velocity":93.73589844388673},
{"position":238.6875,"instrument":"Marimba","level2":10,"level3":4,"pitch":37,"articulation":"hits","articulation_tags":["hits","short"],"duration":0.0625,"velocity":127.5},
{"position":238.6875,"instrument":"Marimba","level2":10,"level3":6,"pitch":39,"articulation":"hits","articulation_tags":["hits","short"],"duration":0.0625,"velocity":127.5},
{"position":238.8125,"instrument":"Contrabass","level2":11,"level3":3,"pitch":34,"articulation":"collegno","articulation_tags":["collegno","cl","short"],"duration":0.125,"velocity":123.87940072720454},
{"position":238.91666666666666,"instrument":"Contrabass","level2":11,"level3":4,"pitch":29,"articulation":"pizzicato","articulation_tags":["pizzicato","pz","short"],"duration":0.125,"velocity":123.87940072720454},
{"position":238.95833333333334,"instrument":"Contrabass","level2":10,"level3":5,"pitch":38,"articulation":"collegno","articulation_tags":["collegno","cl","short"],"duration":0.125,"velocity":127.5},
{"position":239.04166666666666,"instrument":"TheGrandeurPiano","level2":10,"level3":null,"pitch":29,"articulation":"standard","articulation_tags":["standard","long"],"duration":1.2569444444444444,"velocity":74.33247491713837},
{"position":239.08333333333334,"instrument":"Contrabass","level2":11,"level3":9,"pitch":32,"articulation":"collegno","articulation_tags":["collegno","cl","short"],"duration":0.125,"velocity":123.87940072720454},
{"position":239.11458333333334,"instrument":"Contrabass","level2":11,"level3":11,"pitch":33,"articulation":"collegno","articulation_tags":["collegno","cl","short"],"duration":0.125,"velocity":123.87940072720454},
{"position":239.13541666666666,"instrument":"TheGrandeurPiano","level2":11,"level3":null,"pitch":33,"articulation":"standard","articulation_tags":["standard","long"],"duration":0.6527777777777778,"velocity":92.52855334851093},
{"position":239.20833333333334,"instrument":"Contrabass","level2":11,"level3":9,"pitch":33,"articulation":"collegno","articulation_tags":["collegno","cl","short"],"duration":0.125,"velocity":123.25532281787689},
{"position":239.33333333333334,"instrument":"Contrabass","level2":11,"level3":14,"pitch":31,"articulation":"pizzicato","articulation_tags":["pizzicato","pz","short"],"duration":0.125,"velocity":123.25532281787689},
{"position":239.44791666666666,"instrument":"TheGrandeurPiano","level2":12,"level3":null,"pitch":28,"articulation":"standard","articulation_tags":["standard","long"],"duration":1.4409448818897639,"velocity":96.04037327267145},
{"position":239.55208333333334,"instrument":"Contrabass","level2":10,"level3":5,"pitch":37,"articulation":"collegno","articulation_tags":["collegno","cl","short"],"duration":0.125,"velocity":127.5},
{"position":239.71875,"instrument":"Contrabass","level2":11,"level3":0,"pitch":29,"articulation":"pizzicato","articulation_tags":["pizzicato","pz","short"],"duration":0.125,"velocity":123.25532281787689},
{"position":239.72916666666666,"instrument":"Contrabass","level2":10,"level3":4,"pitch":37,"articulation":"pizzicato","articulation_tags":["pizzicato","pz","short"],"duration":0.125,"velocity":127.5},
{"position":239.78125,"instrument":"Contrabass","level2":11,"level3":8,"pitch":30,"articulation":"collegno","articulation_tags":["collegno","cl","short"],"duration":0.125,"velocity":123.25532281787689},
{"position":239.94791666666666,"instrument":"TheGrandeurPiano","level2":10,"level3":null,"pitch":29,"articulation":"standard","articulation_tags":["standard","long"],"duration":1.4566929133858268,"velocity":73.29611790911542},
{"position":240.10416666666666,"instrument":"TheGrandeurPiano","level2":11,"level3":null,"pitch":34,"articulation":"standard","articulation_tags":["standard","long"],"duration":0.6666666666666666,"velocity":90.1416802064438},
{"position":240.14583333333334,"instrument":"Contrabass","level2":11,"level3":11,"pitch":33,"articulation":"pizzicato","articulation_tags":["pizzicato","pz","short"],"duration":0.125,"velocity":122.63127894467647},
{"position":240.16666666666666,"instrument":"Contrabass","level2":11,"level3":5,"pitch":34,"articulation":"collegno","articulation_tags":["collegno","cl","short"],"duration":0.125,"velocity":122.63127894467647},
{"position":240.1875,"instrument":"TheGrandeurPiano","level2":12,"level3":null,"pitch":28,"articulation":"standard","articulation_tags":["standard","long"],"duration":1.4409448818897639,"velocity":95.91917354943463},
{"position":240.86458333333334,"instrument":"TheGrandeurPiano","level2":11,"level3":null,"pitch":34,"articulation":"standard","articulation_tags":["standard","long"],"duration":1.3125,"velocity":91.43162660208415},
{"position":240.9375,"instrument":"TheGrandeurPiano","level2":10,"level3":null,"pitch":29,"articulation":"standard","articulation_tags":["standard","long"],"duration":1.1875,"velocity":73.86299915110376},
{"position":241.0625,"instrument":"Contrabass","level2":11,"level3":2,"pitch":29,"articulation":"pizzicato","articulation_tags":["pizzicato","pz","short"],"duration":0.125,"velocity":122.67641736259331},
{"position":241.08333333333334,"instrument":"Marimba","level2":10,"level3":4,"pitch":37,"articulation":"hits","articulation_tags":["hits","short"],"duration":0.0625,"velocity":127.5},
{"position":241.11458333333334,"instrument":"TheGrandeurPiano","level2":11,"level3":null,"pitch":34,"articulation":"standard","articulation_tags":["standard","long"],"duration":0.6875,"velocity":91.31875594663842},
{"position":241.1875,"instrument":"Marimba","level2":10,"level3":5,"pitch":37,"articulation":"hits","articulation_tags":["hits","short"],"duration":0.0625,"velocity":127.5},
{"position":241.26041666666666,"instrument":"Marimba","level2":10,"level3":6,"pitch":39,"articulation":"hits","articulation_tags":["hits","short"],"duration":0.0625,"velocity":127.5},
{"position":241.32291666666666,"instrument":"Marimba","level2":10,"level3":5,"pitch":37,"articulation":"hits","articulation_tags":["hits","short"],"duration":0.0625,"velocity":127.5},
{"position":241.6875,"instrument":"Contrabass","level2":12,"level3":4,"pitch":34,"articulation":"spiccato","articulation_tags":["spiccato","sp","short"],"duration":0.125,"velocity":127.5},
{"position":241.69791666666666,"instrument":"Contrabass","level2":10,"level3":4,"pitch":37,"articulation":"pizzicato","articulation_tags":["pizzicato","pz","short"],"duration":0.125,"velocity":127.5},
{"position":241.73958333333334,"instrument":"Contrabass","level2":11,"level3":10,"pitch":31,"articulation":"pizzicato","articulation_tags":["pizzicato","pz","short"],"duration":0.125,"velocity":122.05300750240583},
{"position":241.8125,"instrument":"Contrabass","level2":11,"level3":2,"pitch":28,"articulation":"pizzicato","articulation_tags":["pizzicato","pz","short"],"duration":0.125,"velocity":122.05300750240583},
{"position":241.89583333333334,"instrument":"Contrabass","level2":11,"level3":15,"pitch":31,"articulation":"collegno","articulation_tags":["collegno","cl","short"],"duration":0.125,"velocity":122.05300750240583},
{"position":241.89583333333334,"instrument":"Contrabass","level2":11,"level3":16,"pitch":31,"articulation":"collegno","articulation_tags":["collegno","cl","short"],"duration":0.125,"velocity":122.05300750240583},
{"position":242.02083333333334,"instrument":"TheGrandeurPiano","level2":12,"level3":null,"pitch":28,"articulation":"standard","articulation_tags":["standard","long"],"duration":1.4409448818897639,"velocity":91.8297820928251},
{"position":242.07291666666666,"instrument":"Contrabass","level2":11,"level3":15,"pitch":31,"articulation":"collegno","articulation_tags":["collegno","cl","short"],"duration":0.125,"velocity":122.05300750240583},
{"position":242.14583333333334,"instrument":"TheGrandeurPiano","level2":11,"level3":null,"pitch":35,"articulation":"standard","articulation_tags":["standard","long"],"duration":0.7083333333333334,"velocity":89.82795471624772},
{"position":242.21875,"instrument":"Marimba","level2":10,"level3":5,"pitch":37,"articulation":"hits","articulation_tags":["hits","short"],"duration":0.0625,"velocity":127.5},
{"position":242.35416666666666,"instrument":"Marimba","level2":10,"level3":4,"pitch":37,"articulation":"hits","articulation_tags":["hits","short"],"duration":0.0625,"velocity":127.5},
{"position":242.51041666666666,"instrument":"Contrabass","level2":11,"level3":7,"pitch":33,"articulation":"pizzicato","articulation_tags":["pizzicato","pz","short"],"duration":0.125,"velocity":121.42965050861282},
{"position":242.52083333333334,"instrument":"Contrabass","level2":11,"level3":13,"pitch":31,"articulation":"pizzicato","articulation_tags":["pizzicato","pz","short"],"duration":0.125,"velocity":121.42965050861282},
{"position":242.55208333333334,"instrument":"Contrabass","level2":11,"level3":1,"pitch":34,"articulation":"collegno","articulation_tags":["collegno","cl","short"],"duration":0.125,"velocity":121.42965050861282},
{"position":242.55208333333334,"instrument":"Contrabass","level2":11,"level3":16,"pitch":32,"articulation":"collegno","articulation_tags":["collegno","cl","short"],"duration":0.125,"velocity":121.42965050861282},
{"position":242.57291666666666,"instrument":"Marimba","level2":10,"level3":6,"pitch":39,"articulation":"hits","articulation_tags":["hits","short"],"duration":0.0625,"velocity":127.5},
{"position":242.71875,"instrument":"TheGrandeurPiano","level2":10,"level3":null,"pitch":30,"articulation":"standard","articulation_tags":["standard","long"],"duration":1.125,"velocity":74.53504186944886},
{"position":242.82291666666666,"instrument":"TheGrandeurPiano","level2":11,"level3":null,"pitch":35,"articulation":"standard","articulation_tags":["standard","long"],"duration":1.1666666666666667,"velocity":88.69252719086431},
{"position":242.83333333333334,"instrument":"Contrabass","level2":11,"level3":15,"pitch":31,"articulation":"collegno","articulation_tags":["collegno","cl","short"],"duration":0.125,"velocity":121.48437020999361},
{"position":243.20833333333334,"instrument":"TheGrandeurPiano","level2":11,"level3":null,"pitch":35,"articulation":"standard","articulation_tags":["standard","long"],"duration":0.7291666666666666,"velocity":91.90110236811876},
{"position":243.30208333333334,"instrument":"Contrabass","level2":11,"level3":10,"pitch":31,"articulation":"pizzicato","articulation_tags":["pizzicato","pz","short"],"duration":0.125,"velocity":120.86181193532823},
{"position":243.375,"instrument":"Contrabass","level2":11,"level3":4,"pitch":29,"articulation":"pizzicato","articulation_tags":["pizzicato","pz","short"],"duration":0.125,"velocity":120.86181193532823},
{"position":243.41666666666666,"instrument":"TheGrandeurPiano","level2":10,"level3":null,"pitch":30,"articulation":"standard","articulation_tags":["standard","long"],"duration":1.4724409448818898,"velocity":72.10519986028162},
{"position":243.53125,"instrument":"Contrabass","level2":12,"level3":5,"pitch":35,"articulation":"short_hrm","articulation_tags":["short_hrm","hrm_s","short","harmonics"],"duration":0.125,"velocity":127.5},
{"position":243.53125,"instrument":"Contrabass","level2":12,"level3":6,"pitch":35,"articulation":"short_hrm","articulation_tags":["short_hrm","hrm_s","short","harmonics"],"duration":0.125,"velocity":127.5},
{"position":243.54166666666666,"instrument":"Contrabass","level2":11,"level3":3,"pitch":34,"articulation":"collegno","articulation_tags":["collegno","cl","short"],"duration":0.125,"velocity":120.86181193532823},
{"position":243.57291666666666,"instrument":"Contrabass","level2":12,"level3":6,"pitch":35,"articulation":"short_hrm","articulation_tags":["short_hrm","hrm_s","short","harmonics"],"duration":0.125,"velocity":127.5},
{"position":243.96875,"instrument":"Contrabass","level2":11,"level3":8,"pitch":30,"articulation":"pizzicato","articulation_tags":["pizzicato","pz","short"],"duration":0.125,"velocity":120.86181193532823},
{"position":243.97916666666666,"instrument":"Contrabass","level2":11,"level3":2,"pitch":29,"articulation":"pizzicato","articulation_tags":["pizzicato","pz","short"],"duration":0.125,"velocity":120.86181193532823},
{"position":244.03125,"instrument":"Contrabass","level2":11,"level3":9,"pitch":33,"articulation":"collegno","articulation_tags":["collegno","cl","short"],"duration":0.125,"velocity":120.86181193532823},
{"position":244.19791666666666,"instrument":"Contrabass","level2":11,"level3":0,"pitch":29,"articulation":"pizzicato","articulation_tags":["pizzicato","pz","short"],"duration":0.125,"velocity":120.86181193532823},
{"position":244.20833333333334,"instrument":"Contrabass","level2":11,"level3":13,"pitch":31,"articulation":"pizzicato","articulation_tags":["pizzicato","pz","short"],"duration":0.125,"velocity":120.86181193532823},
{"position":244.3125,"instrument":"TheGrandeurPiano","level2":11,"level3":null,"pitch":36,"articulation":"standard","articulation_tags":["standard","long"],"duration":0.7569444444444444,"velocity":90.55101986989973},
{"position":244.33333333333334,"instrument":"Contrabass","level2":12,"level3":5,"pitch":34,"articulation":"short_hrm","articulation_tags":["short_hrm","hrm_s","short","harmonics"],"duration":0.125,"velocity":127.5},
{"position":244.35416666666666,"instrument":"Contrabass","level2":12,"level3":6,"pitch":35,"articulation":"short_hrm","articulation_tags":["short_hrm","hrm_s","short","harmonics"],"duration":0.125,"velocity":127.5},
{"position":244.40625,"instrument":"TheGrandeurPiano","level2":10,"level3":null,"pitch":30,"articulation":"standard","articulation_tags":["standard","long"],"duration":1.0694444444444444,"velocity":71.39490282823422},
{"position":244.41666666666666,"instrument":"Contrabass","level2":11,"level3":16,"pitch":32,"articulation":"collegno","articulation_tags":["collegno","cl","short"],"duration":0.125,"velocity":120.23933137220632},
{"position":244.51041666666666,"instrument":"Contrabass","level2":11,"level3":4,"pitch":30,"articulation":"pizzicato","articulation_tags":["pizzicato","pz","short"],"duration":0.125,"velocity":120.23933137220632},
{"position":244.57291666666666,"instrument":"TheGrandeurPiano","level2":11,"level3":null,"pitch":36,"articulation":"standard","articulation_tags":["standard","long"],"duration":1.0555555555555556,"velocity":90.69130496624626},
{"position":244.72916666666666,"instrument":"Contrabass","level2":11,"level3":11,"pitch":33,"articulation":"pizzicato","articulation_tags":["pizzicato","pz","short"],"duration":0.125,"velocity":120.30412254214073},
{"position":244.82291666666666,"instrument":"Contrabass","level2":11,"level3":5,"pitch":34,"articulation":"pizzicato","articulation_tags":["pizzicato","pz","short"],"duration":0.125,"velocity":120.30412254214073},
{"position":244.875,"instrument":"Contrabass","level2":12,"level3":0,"pitch":33,"articulation":"spiccato","articulation_tags":["spiccato","sp","short"],"duration":0.125,"velocity":127.5},
{"position":245.0,"instrument":"TheGrandeurPiano","level2":12,"level3":null,"pitch":27,"articulation":"standard","articulation_tags":["standard","long"],"duration":1.4251968503937007,"velocity":93.34506426006361},
{"position":245.0,"instrument":"Contrabass","level2":11,"level3":11,"pitch":32,"articulation":"pizzicato","articulation_tags":["pizzicato","pz","short"],"duration":0.125,"velocity":120.30412254214073},
{"position":245.42708333333334,"instrument":"Contrabass","level2":12,"level3":4,"pitch":35,"articulation":"spiccato","articulation_tags":["spiccato","sp","short"],"duration":0.125,"velocity":127.5},
{"position":245.44791666666666,"instrument":"TheGrandeurPiano","level2":11,"level3":null,"pitch":36,"articulation":"standard","articulation_tags":["standard","long"],"duration":0.7847222222222222,"velocity":91.4762183400371},
{"position":245.47916666666666,"instrument":"Contrabass","level2":11,"level3":2,"pitch":29,"articulation":"pizzicato","articulation_tags":["pizzicato","pz","short"],"duration":0.125,"velocity":119.6614671474114},
{"position":246.01041666666666,"instrument":"TheGrandeurPiano","level2":10,"level3":null,"pitch":31,"articulation":"standard","articulation_tags":["standard","long"],"duration":1.0138888888888888,"velocity":72.57305275546341},
{"position":246.08333333333334,"instrument":"TheGrandeurPiano","level2":10,"level3":null,"pitch":31,"articulation":"standard","articulation_tags":["standard","long"],"duration":1.4583333333333333,"velocity":72.06507621047216},
{"position":246.13541666666666,"instrument":"Contrabass","level2":11,"level3":17,"pitch":32,"articulation":"collegno","articulation_tags":["collegno","cl","short"],"duration":0.125,"velocity":119.6614671474114},
{"position":246.15625,"instrument":"TheGrandeurPiano","level2":11,"level3":null,"pitch":36,"articulation":"standard","articulation_tags":["standard","long"],"duration":0.9652777777777778,"velocity":88.06507621047216},
{"position":246.54166666666666,"instrument":"Contrabass","level2":11,"level3":6,"pitch":31,"articulation":"pizzicato","articulation_tags":["pizzicato","pz","short"],"duration":0.125,"velocity":119.74075916695199},
{"position":246.625,"instrument":"TheGrandeurPiano","level2":11,"level3":null,"pitch":37,"articulation":"standard","articulation_tags":["standard","long"],"duration":0.8194444444444444,"velocity":90.49045013149592},
{"position":246.70833333333334,"instrument":"Contrabass","level2":11,"level3":17,"pitch":32,"articulation":"collegno","articulation_tags":["collegno","cl","short"],"duration":0.125,"velocity":119.07906234822421},
{"position":246.83333333333334,"instrument":"Contrabass","level2":11,"level3":15,"pitch":31,"articulation":"pizzicato","articulation_tags":["pizzicato","pz","short"],"duration":0.125,"velocity":119.07906234822421},
{"position":246.875,"instrument":"Marimba","level2":10,"level3":6,"pitch":38,"articulation":"hits","articulation_tags":["hits","short"],"duration":0.0625,"velocity":127.5},
{"position":246.92708333333334,"instrument":"Contrabass","level2":12,"level3":6,"pitch":35,"articulation":"short_hrm","articulation_tags":["short_hrm","hrm_s","short","harmonics"],"duration":0.125,"velocity":127.5},
{"position":246.97916666666666,"instrument":"Contrabass","level2":11,"level3":7,"pitch":33,"articulation":"pizzicato","articulation_tags":["pizzicato","pz","short"],"duration":0.125,"velocity":119.07906234822421},
{"position":247.09375,"instrument":"Marimba","level2":10,"level3":6,"pitch":38,"articulation":"hits","articulation_tags":["hits","short"],"duration":0.0625,"velocity":127.5},
{"position":247.11458333333334,"instrument":"Contrabass","level2":11,"level3":1,"pitch":34,"articulation":"pizzicato","articulation_tags":["pizzicato","pz","short"],"duration":0.125,"velocity":119.07906234822421},
{"position":247.53125,"instrument":"TheGrandeurPiano","level2":10,"level3":null,"pitch":31,"articulation":"standard","articulation_tags":["standard","long"],"duration":0.9722222222222222,"velocity":75.38457164282252},
{"position":247.53125,"instrument":"Contrabass","level2":11,"level3":6,"pitch":31,"articulation":"pizzicato","articulation_tags":["pizzicato","pz","short"],"duration":0.125,"velocity":119.07906234822421},
{"position":247.60416666666666,"instrument":"TheGrandeurPiano","level2":11,"level3":null,"pitch":37,"articulation":"standard","articulation_tags":["standard","long"],"duration":0.8888888888888888,"velocity":91.07084615262644},
{"position":247.625,"instrument":"Contrabass","level2":12,"level3":5,"pitch":34,"articulation":"short_hrm","articulation_tags":["short_hrm","hrm_s","short","harmonics"],"duration":0.125,"velocity":127.5},
{"position":247.85416666666666,"instrument":"TheGrandeurPiano","level2":11,"level3":null,"pitch":37,"articulation":"standard","articulation_tags":["standard","long"],"duration":0.8541666666666666,"velocity":91.84074217688561},
{"position":248.03125,"instrument":"Contrabass","level2":11,"level3":3,"pitch":34,"articulation":"pizzicato","articulation_tags":["pizzicato","pz","short"],"duration":0.125,"velocity":118.50850123036948},
{"position":248.10416666666666,"instrument":"Contrabass","level2":11,"level3":0,"pitch":29,"articulation":"pizzicato","articulation_tags":["pizzicato","pz","short"],"duration":0.125,"velocity":118.50850123036948},
{"position":248.15625,"instrument":"Contrabass","level2":11,"level3":4,"pitch":30,"articulation":"pizzicato","articulation_tags":["pizzicato","pz","short"],"duration":0.125,"velocity":118.50850123036948},
{"position":248.27083333333334,"instrument":"TheGrandeurPiano","level2":10,"level3":null,"pitch":31,"articulation":"standard","articulation_tags":["standard","long"],"duration":1.2430555555555556,"velocity":75.4762183400371},
{"position":248.34375,"instrument":"Contrabass","level2":11,"level3":11,"pitch":32,"articulation":"pizzicato","articulation_tags":["pizzicato","pz","short"],"duration":0.125,"velocity":118.50850123036948},
{"position":248.45833333333334,"instrument":"Contrabass","level2":11,"level3":8,"pitch":30,"articulation":"pizzicato","articulation_tags":["pizzicato","pz","short"],"duration":0.125,"velocity":118.50850123036948},
{"position":248.48958333333334,"instrument":"Contrabass","level2":11,"level3":9,"pitch":33,"articulation":"pizzicato","articulation_tags":["pizzicato","pz","short"],"duration":0.125,"velocity":118.50850123036948},
{"position":248.53125,"instrument":"TheGrandeurPiano","level2":12,"level3":null,"pitch":27,"articulation":"standard","articulation_tags":["standard","long"],"duration":1.4251968503937007,"velocity":96.35409876286752},
{"position":248.57291666666666,"instrument":"Contrabass","level2":11,"level3":6,"pitch":31,"articulation":"pizzicato","articulation_tags":["pizzicato","pz","short"],"duration":0.125,"velocity":118.50850123036948},
{"position":248.66666666666666,"instrument":"Contrabass","level2":11,"level3":11,"pitch":32,"articulation":"pizzicato","articulation_tags":["pizzicato","pz","short"],"duration":0.125,"velocity":118.50850123036948},
{"position":248.73958333333334,"instrument":"Contrabass","level2":11,"level3":7,"pitch":33,"articulation":"pizzicato","articulation_tags":["pizzicato","pz","short"],"duration":0.125,"velocity":118.50850123036948},
{"position":248.90625,"instrument":"Contrabass","level2":11,"level3":0,"pitch":29,"articulation":"pizzicato","articulation_tags":["pizzicato","pz","short"],"duration":0.125,"velocity":118.50850123036948},
{"position":248.94791666666666,"instrument":"TheGrandeurPiano","level2":11,"level3":null,"pitch":37,"articulation":"standard","articulation_tags":["standard","long"],"duration":0.8263888888888888,"velocity":90.64620040733445},
{"position":248.98958333333334,"instrument":"TheGrandeurPiano","level2":10,"level3":null,"pitch":32,"articulation":"standard","articulation_tags":["standard","long"],"duration":0.9236111111111112,"velocity":75.58737687792268},
{"position":249.11458333333334,"instrument":"Contrabass","level2":12,"level3":5,"pitch":34,"articulation":"short_hrm","articulation_tags":["short_hrm","hrm_s","short","harmonics"],"duration":0.125,"velocity":127.5},
{"position":249.125,"instrument":"Contrabass","level2":11,"level3":11,"pitch":31,"articulation":"pizzicato","articulation_tags":["pizzicato","pz","short"],"duration":0.125,"velocity":118.60885362301353},
{"position":249.13541666666666,"instrument":"TheGrandeurPiano","level2":11,"level3":null,"pitch":38,"articulation":"standard","articulation_tags":["standard","long"],"duration":0.9027777777777778,"velocity":92.50063572234012},
{"position":249.23958333333334,"instrument":"Contrabass","level2":11,"level3":5,"pitch":34,"articulation":"pizzicato","articulation_tags":["pizzicato","pz","short"],"duration":0.125,"velocity":117.95022498275353},
{"position":249.5625,"instrument":"Cello","level2":10,"level3":6,"pitch":38,"articulation":"pizzicato","articulation_tags":["pizzicato","pz","short"],"duration":0.125,"velocity":127.5},
{"position":249.72916666666666,"instrument":"Contrabass","level2":11,"level3":4,"pitch":30,"articulation":"pizzicato","articulation_tags":["pizzicato","pz","short"],"duration":0.125,"velocity":117.95022498275353},
{"position":249.73958333333334,"instrument":"Contrabass","level2":11,"level3":9,"pitch":32,"articulation":"pizzicato","articulation_tags":["pizzicato","pz","short"],"duration":0.125,"velocity":117.95022498275353},
{"position":250.10416666666666,"instrument":"Contrabass","level2":11,"level3":2,"pitch":29,"articulation":"pizzicato","articulation_tags":["pizzicato","pz","short"],"duration":0.125,"velocity":117.95022498275353},
{"position":250.13541666666666,"instrument":"TheGrandeurPiano","level2":10,"level3":null,"pitch":32,"articulation":"standard","articulation_tags":["standard","long"],"duration":1.0763888888888888,"velocity":77.10844746349457},
{"position":250.1875,"instrument":"TheGrandeurPiano","level2":11,"level3":null,"pitch":38,"articulation":"standard","articulation_tags":["standard","long"],"duration":0.7708333333333334,"velocity":91.53982001251418},
{"position":250.375,"instrument":"TheGrandeurPiano","level2":10,"level3":null,"pitch":32,"articulation":"standard","articulation_tags":["standard","long"],"duration":0.8819444444444444,"velocity":77.75553768312443},
{"position":250.42708333333334,"instrument":"Cello","level2":10,"level3":6,"pitch":38,"articulation":"pizzicato","articulation_tags":["pizzicato","pz","short"],"duration":0.125,"velocity":127.5},
{"position":250.48958333333334,"instrument":"TheGrandeurPiano","level2":11,"level3":null,"pitch":38,"articulation":"standard","articulation_tags":["standard","long"],"duration":0.9583333333333334,"velocity":92.18691023214404},
{"position":250.84375,"instrument":"Contrabass","level2":11,"level3":15,"pitch":31,"articulation":"pizzicato","articulation_tags":["pizzicato","pz","short"],"duration":0.125,"velocity":117.40468675587512},
{"position":250.85416666666666,"instrument":"Contrabass","level2":12,"level3":4,"pitch":35,"articulation":"spiccato","articulation_tags":["spiccato","sp","short"],"duration":0.125,"velocity":127.5},
{"position":251.08333333333334,"instrument":"Contrabass","level2":11,"level3":7,"pitch":33,"articulation":"pizzicato","articulation_tags":["pizzicato","pz","short"],"duration":0.125,"velocity":117.40468675587512},
{"position":251.33333333333334,"instrument":"TheGrandeurPiano","level2":11,"level3":null,"pitch":38,"articulation":"standard","articulation_tags":["standard","long"],"duration":0.7152777777777778,"velocity":93.03966245720244},
{"position":251.48958333333334,"instrument":"Contrabass","level2":11,"level3":1,"pitch":34,"articulation":"pizzicato","articulation_tags":["pizzicato","pz","short"],"duration":0.125,"velocity":117.52702541258823},
{"position":251.52083333333334,"instrument":"Contrabass","level2":12,"level3":3,"pitch":33,"articulation":"short_hrm","articulation_tags":["short_hrm","hrm_s","short","harmonics"],"duration":0.125,"velocity":127.5},
{"position":251.69791666666666,"instrument":"TheGrandeurPiano","level2":10,"level3":null,"pitch":33,"articulation":"standard","articulation_tags":["standard","long"],"duration":0.8402777777777778,"velocity":80.98157023705205},
{"position":251.75,"instrument":"TheGrandeurPiano","level2":10,"level3":null,"pitch":33,"articulation":"standard","articulation_tags":["standard","long"],"duration":0.9513888888888888,"velocity":80.37788592675918},
{"position":251.77083333333334,"instrument":"Contrabass","level2":11,"level3":15,"pitch":31,"articulation":"pizzicato","articulation_tags":["pizzicato","pz","short"],"duration":0.125,"velocity":117.52702541258823},
{"position":251.92708333333334,"instrument":"TheGrandeurPiano","level2":11,"level3":null,"pitch":39,"articulation":"standard","articulation_tags":["standard","long"],"duration":1.0347222222222223,"velocity":94.18180749538664},
{"position":251.9375,"instrument":"Contrabass","level2":11,"level3":9,"pitch":32,"articulation":"pizzicato","articulation_tags":["pizzicato","pz","short"],"duration":0.125,"velocity":116.87235114183018},
{"position":252.17708333333334,"instrument":"Contrabass","level2":11,"level3":7,"pitch":32,"articulation":"pizzicato","articulation_tags":["pizzicato","pz","short"],"duration":0.125,"velocity":116.87235114183018},
{"position":252.1875,"instrument":"Contrabass","level2":11,"level3":15,"pitch":32,"articulation":"pizzicato","articulation_tags":["pizzicato","pz","short"],"duration":0.125,"velocity":116.87235114183018},
{"position":252.19791666666666,"instrument":"Contrabass","level2":11,"level3":3,"pitch":33,"articulation":"pizzicato","articulation_tags":["pizzicato","pz","short"],"duration":0.125,"velocity":116.87235114183018},
{"position":252.23958333333334,"instrument":"Contrabass","level2":11,"level3":9,"pitch":32,"articulation":"pizzicato","articulation_tags":["pizzicato","pz","short"],"duration":0.125,"velocity":116.87235114183018},
{"position":252.38541666666666,"instrument":"Contrabass","level2":11,"level3":5,"pitch":33,"articulation":"pizzicato","articulation_tags":["pizzicato","pz","short"],"duration":0.125,"velocity":116.87235114183018},
{"position":252.41666666666666,"instrument":"TheGrandeurPiano","level2":11,"level3":null,"pitch":39,"articulation":"standard","articulation_tags":["standard","long"],"duration":0.6736111111111112,"velocity":92.62092219606811},
{"position":252.83333333333334,"instrument":"TheGrandeurPiano","level2":12,"level3":null,"pitch":26,"articulation":"standard","articulation_tags":["standard","long"],"duration":1.4094488188976377,"velocity":100.92204105324903},
{"position":252.96875,"instrument":"TheGrandeurPiano","level2":10,"level3":null,"pitch":33,"articulation":"standard","articulation_tags":["standard","long"],"duration":0.8055555555555556,"velocity":82.19812783235452},
{"position":253.1875,"instrument":"TheGrandeurPiano","level2":10,"level3":null,"pitch":33,"articulation":"standard","articulation_tags":["standard","long"],"duration":0.8472222222222222,"velocity":82.80967579580839},
{"position":253.40625,"instrument":"BassClarinet","level2":12,"level3":2,"pitch":34,"articulation":"legato","articulation_tags":["legato","lg"],"duration":52.197916666666664,"velocity":127.0},
{"position":253.41666666666666,"instrument":"TheGrandeurPiano","level2":11,"level3":null,"pitch":39,"articulation":"standard","articulation_tags":["standard","long"],"duration":0.625,"velocity":96.16542348364072},
{"position":253.47916666666666,"instrument":"TheGrandeurPiano","level2":11,"level3":null,"pitch":39,"articulation":"standard","articulation_tags":["standard","long"],"duration":1.1458333333333333,"velocity":96.16542348364072},
{"position":253.59375,"instrument":"Contrabass","level2":11,"level3":4,"pitch":31,"articulation":"pizzicato","articulation_tags":["pizzicato","pz","short"],"duration":0.125,"velocity":116.49892702569095},
{"position":253.64583333333334,"instrument":"Contrabass","level2":11,"level3":7,"pitch":32,"articulation":"pizzicato","articulation_tags":["pizzicato","pz","short"],"duration":0.125,"velocity":116.49892702569095},
{"position":253.67708333333334,"instrument":"Cello","level2":10,"level3":6,"pitch":38,"articulation":"pizzicato","articulation_tags":["pizzicato","pz","short"],"duration":0.125,"velocity":127.5},
{"position":253.73958333333334,"instrument":"Contrabass","level2":11,"level3":2,"pitch":29,"articulation":"pizzicato","articulation_tags":["pizzicato","pz","short"],"duration":0.125,"velocity":116.49892702569095},
{"position":253.98958333333334,"instrument":"Contrabass","level2":11,"level3":0,"pitch":30,"articulation":"pizzicato","articulation_tags":["pizzicato","pz","short"],"duration":0.125,"velocity":116.49892702569095},
{"position":254.05208333333334,"instrument":"Contrabass","level2":11,"level3":4,"pitch":32,"articulation":"pizzicato","articulation_tags":["pizzicato","pz","short"],"duration":0.125,"velocity":116.49892702569095},
{"position":254.08333333333334,"instrument":"Contrabass","level2":12,"level3":6,"pitch":35,"articulation":"spiccato","articulation_tags":["spiccato","sp","short"],"duration":0.125,"velocity":127.5},
{"position":254.17708333333334,"instrument":"TheGrandeurPiano","level2":10,"level3":null,"pitch":34,"articulation":"standard","articulation_tags":["standard","long"],"duration":0.7638888888888888,"velocity":82.71057177459149},
{"position":254.36458333333334,"instrument":"TheGrandeurPiano","level2":11,"level3":null,"pitch":39,"articulation":"standard","articulation_tags":["standard","long"],"duration":0.5902777777777778,"velocity":96.53500480667019},
{"position":254.45833333333334,"instrument":"TheGrandeurPiano","level2":10,"level3":null,"pitch":34,"articulation":"standard","articulation_tags":["standard","long"],"duration":0.7569444444444444,"velocity":84.29971068902313},
{"position":254.53125,"instrument":"Cello","level2":10,"level3":6,"pitch":38,"articulation":"collegno","articulation_tags":["collegno","cl","short"],"duration":0.125,"velocity":127.5},
{"position":254.625,"instrument":"Bassoon","level2":10,"level3":6,"pitch":38,"articulation":"staccato","articulation_tags":["staccato","st","short"],"duration":0.125,"velocity":127.5},
{"position":255.20833333333334,"instrument":"TheGrandeurPiano","level2":11,"level3":null,"pitch":40,"articulation":"standard","articulation_tags":["standard","long"],"duration":1.3402777777777777,"velocity":95.65499705148241},
{"position":255.23958333333334,"instrument":"TheGrandeurPiano","level2":11,"level3":null,"pitch":40,"articulation":"standard","articulation_tags":["standard","long"],"duration":0.5486111111111112,"velocity":95.34127156128633},
{"position":255.27083333333334,"instrument":"TheGrandeurPiano","level2":12,"level3":null,"pitch":26,"articulation":"standard","articulation_tags":["standard","long"],"duration":1.4094488188976377,"velocity":101.92950685540399},
{"position":255.32291666666666,"instrument":"TheGrandeurPiano","level2":10,"level3":null,"pitch":34,"articulation":"standard","articulation_tags":["standard","long"],"duration":0.7291666666666666,"velocity":83.41970293383535},
{"position":255.59375,"instrument":"TheGrandeurPiano","level2":10,"level3":null,"pitch":34,"articulation":"standard","articulation_tags":["standard","long"],"duration":0.6805555555555556,"velocity":83.13930430294275},
{"position":255.67708333333334,"instrument":"Bassoon","level2":11,"level3":1,"pitch":34,"articulation":"tenuto","articulation_tags":["tenuto","t","short"],"duration":0.125,"velocity":116.17273934552344},
{"position":255.91666666666666,"instrument":"Contrabass","level2":11,"level3":5,"pitch":33,"articulation":"pizzicato","articulation_tags":["pizzicato","pz","short"],"duration":0.125,"velocity":116.17273934552344},
{"position":256.0104166666667,"instrument":"Contrabass","level2":11,"level3":1,"pitch":34,"articulation":"pizzicato","articulation_tags":["pizzicato","pz","short"],"duration":0.125,"velocity":116.17273934552344},
{"position":256.0729166666667,"instrument":"TheGrandeurPiano","level2":11,"level3":null,"pitch":40,"articulation":"standard","articulation_tags":["standard","long"],"duration":0.5138888888888888,"velocity":96.6789436371586},
{"position":256.4166666666667,"instrument":"TheGrandeurPiano","level2":10,"level3":null,"pitch":35,"articulation":"standard","articulation_tags":["standard","long"],"duration":0.6875,"velocity":85.76682387313274},
{"position":256.4583333333333,"instrument":"Bassoon","level2":10,"level3":6,"pitch":38,"articulation":"tenuto","articulation_tags":["tenuto","t","short"],"duration":0.125,"velocity":127.5},
{"position":256.6145833333333,"instrument":"TheGrandeurPiano","level2":10,"level3":null,"pitch":35,"articulation":"standard","articulation_tags":["standard","long"],"duration":0.6111111111111112,"velocity":84.04715391422752},
{"position":256.84375,"instrument":"TheGrandeurPiano","level2":11,"level3":null,"pitch":40,"articulation":"standard","articulation_tags":["standard","long"],"duration":0.4791666666666667,"velocity":95.69080083592004},
{"position":257.21875,"instrument":"TheGrandeurPiano","level2":11,"level3":null,"pitch":40,"articulation":"standard","articulation_tags":["standard","long"],"duration":1.6299212598425197,"velocity":97.03213528081218},
{"position":257.4479166666667,"instrument":"TheGrandeurPiano","level2":10,"level3":null,"pitch":35,"articulation":"standard","articulation_tags":["standard","long"],"duration":0.6527777777777778,"velocity":84.92716166941528},
{"position":257.5416666666667,"instrument":"TheGrandeurPiano","level2":10,"level3":null,"pitch":35,"articulation":"standard","articulation_tags":["standard","long"],"duration":0.5555555555555556,"velocity":85.24088715961136},
{"position":257.5625,"instrument":"TheGrandeurPiano","level2":11,"level3":null,"pitch":40,"articulation":"standard","articulation_tags":["standard","long"],"duration":0.4513888888888889,"velocity":94.00468942165031},
{"position":257.7916666666667,"instrument":"Contrabass","level2":11,"level3":5,"pitch":32,"articulation":"pizzicato","articulation_tags":["pizzicato","pz","short"],"duration":0.125,"velocity":116.09207689183162},
{"position":258.2395833333333,"instrument":"TheGrandeurPiano","level2":11,"level3":null,"pitch":40,"articulation":"standard","articulation_tags":["standard","long"],"duration":0.4236111111111111,"velocity":94.96637735568979},
{"position":258.375,"instrument":"TheGrandeurPiano","level2":12,"level3":null,"pitch":26,"articulation":"standard","articulation_tags":["standard","long"],"duration":1.4094488188976377,"velocity":102.12620779736622},
{"position":258.375,"instrument":"TheGrandeurPiano","level2":10,"level3":null,"pitch":35,"articulation":"standard","articulation_tags":["standard","long"],"duration":0.5,"velocity":84.87130583658191},
{"position":258.4270833333333,"instrument":"TheGrandeurPiano","level2":10,"level3":null,"pitch":36,"articulation":"standard","articulation_tags":["standard","long"],"duration":0.6111111111111112,"velocity":84.87130583658191},
{"position":258.875,"instrument":"TheGrandeurPiano","level2":11,"level3":null,"pitch":40,"articulation":"standard","articulation_tags":["standard","long"],"duration":0.3888888888888889,"velocity":93.17851998921725},
{"position":259.1145833333333,"instrument":"TheGrandeurPiano","level2":10,"level3":null,"pitch":36,"articulation":"standard","articulation_tags":["standard","long"],"duration":0.4513888888888889,"velocity":84.29459007285688},
{"position":259.34375,"instrument":"TheGrandeurPiano","level2":10,"level3":null,"pitch":36,"articulation":"standard","articulation_tags":["standard","long"],"duration":0.5694444444444444,"velocity":84.39420626372706},
{"position":259.4583333333333,"instrument":"TheGrandeurPiano","level2":11,"level3":null,"pitch":40,"articulation":"standard","articulation_tags":["standard","long"],"duration":0.3611111111111111,"velocity":93.16261697227898},
{"position":259.6041666666667,"instrument":"Bassoon","level2":11,"level3":1,"pitch":34,"articulation":"tenuto","articulation_tags":["tenuto","t","short"],"duration":0.125,"velocity":116.73827753048668},
{"position":259.7916666666667,"instrument":"TheGrandeurPiano","level2":10,"level3":null,"pitch":36,"articulation":"standard","articulation_tags":["standard","long"],"duration":0.4027777777777778,"velocity":85.49875681697407},
{"position":260.0,"instrument":"TheGrandeurPiano","level2":11,"level3":null,"pitch":40,"articulation":"standard","articulation_tags":["standard","long"],"duration":0.3333333333333333,"velocity":94.02520088510155},
{"position":260.1979166666667,"instrument":"TheGrandeurPiano","level2":10,"level3":null,"pitch":37,"articulation":"standard","articulation_tags":["standard","long"],"duration":0.5208333333333334,"velocity":87.0491806548918},
{"position":260.2083333333333,"instrument":"TheGrandeurPiano","level2":11,"level3":null,"pitch":41,"articulation":"standard","articulation_tags":["standard","long"],"duration":1.375,"velocity":94.89231790979376},
{"position":260.34375,"instrument":"Contrabass","level2":11,"level3":2,"pitch":30,"articulation":"pizzicato","articulation_tags":["pizzicato","pz","short"],"duration":0.125,"velocity":116.34867698381308},
{"position":260.3541666666667,"instrument":"Contrabass","level2":11,"level3":2,"pitch":30,"articulation":"pizzicato_bartok","articulation_tags":["pizzicato_bartok","pzb","short","pizzicato","bartok"],"duration":0.125,"velocity":116.34867698381308},
{"position":260.3958333333333,"instrument":"TheGrandeurPiano","level2":10,"level3":null,"pitch":37,"articulation":"standard","articulation_tags":["standard","long"],"duration":0.3611111111111111,"velocity":84.11882513901284},
{"position":260.5,"instrument":"TheGrandeurPiano","level2":11,"level3":null,"pitch":41,"articulation":"standard","articulation_tags":["standard","long"],"duration":0.3055555555555556,"velocity":92.43606197066993},
{"position":260.9375,"instrument":"TheGrandeurPiano","level2":10,"level3":null,"pitch":37,"articulation":"standard","articulation_tags":["standard","long"],"duration":0.3194444444444444,"velocity":85.23576654344511},
{"position":260.9583333333333,"instrument":"TheGrandeurPiano","level2":11,"level3":null,"pitch":41,"articulation":"standard","articulation_tags":["standard","long"],"duration":0.2777777777777778,"velocity":91.82400183756275},
{"position":260.9791666666667,"instrument":"TheGrandeurPiano","level2":10,"level3":null,"pitch":37,"articulation":"standard","articulation_tags":["standard","long"],"duration":0.4722222222222222,"velocity":85.23576654344511},
{"position":261.3854166666667,"instrument":"TheGrandeurPiano","level2":11,"level3":null,"pitch":41,"articulation":"standard","articulation_tags":["standard","long"],"duration":0.2569444444444444,"velocity":90.3011644694632},
{"position":261.4166666666667,"instrument":"TheGrandeurPiano","level2":10,"level3":null,"pitch":37,"articulation":"standard","articulation_tags":["standard","long"],"duration":0.2777777777777778,"velocity":84.3403801557377},
{"position":261.6875,"instrument":"TheGrandeurPiano","level2":10,"level3":null,"pitch":38,"articulation":"standard","articulation_tags":["standard","long"],"duration":0.4166666666666667,"velocity":86.24323234560006},
{"position":261.7083333333333,"instrument":"Bassoon","level2":12,"level3":6,"pitch":36,"articulation":"legato","articulation_tags":["legato","lg"],"duration":15.583333333333334,"velocity":127.0},
{"position":261.7604166666667,"instrument":"TheGrandeurPiano","level2":11,"level3":null,"pitch":41,"articulation":"standard","articulation_tags":["standard","long"],"duration":0.22916666666666666,"velocity":91.29616704804079},
{"position":261.8333333333333,"instrument":"TheGrandeurPiano","level2":10,"level3":null,"pitch":38,"articulation":"standard","articulation_tags":["standard","long"],"duration":0.24305555555555555,"velocity":85.96283371470744},
{"position":262.1041666666667,"instrument":"TheGrandeurPiano","level2":11,"level3":null,"pitch":41,"articulation":"standard","articulation_tags":["standard","long"],"duration":0.2013888888888889,"velocity":90.78303668014816},
{"position":262.1458333333333,"instrument":"Contrabass","level2":11,"level3":2,"pitch":31,"articulation":"pizzicato_bartok","articulation_tags":["pizzicato_bartok","pzb","short","pizzicato","bartok"],"duration":0.125,"velocity":117.65878298333533},
{"position":262.2083333333333,"instrument":"TheGrandeurPiano","level2":10,"level3":null,"pitch":38,"articulation":"standard","articulation_tags":["standard","long"],"duration":0.20833333333333334,"velocity":86.07715432720698},
{"position":262.2708333333333,"instrument":"TheGrandeurPiano","level2":11,"level3":null,"pitch":40,"articulation":"standard","articulation_tags":["standard","long"],"duration":0.7291666666666666,"velocity":90.78303668014816},
{"position":262.3125,"instrument":"TheGrandeurPiano","level2":10,"level3":null,"pitch":38,"articulation":"standard","articulation_tags":["standard","long"],"duration":0.3472222222222222,"velocity":86.07715432720698},
{"position":262.40625,"instrument":"TheGrandeurPiano","level2":11,"level3":null,"pitch":40,"articulation":"standard","articulation_tags":["standard","long"],"duration":0.1736111111111111,"velocity":90.66871606764863},
{"position":262.5208333333333,"instrument":"TheGrandeurPiano","level2":10,"level3":null,"pitch":38,"articulation":"standard","articulation_tags":["standard","long"],"duration":0.18055555555555555,"velocity":86.59028469509961},
{"position":262.6770833333333,"instrument":"TheGrandeurPiano","level2":11,"level3":null,"pitch":40,"articulation":"standard","articulation_tags":["standard","long"],"duration":0.1527777777777778,"velocity":88.22558152181188},
{"position":262.7916666666667,"instrument":"TheGrandeurPiano","level2":10,"level3":null,"pitch":38,"articulation":"standard","articulation_tags":["standard","long"],"duration":0.14583333333333334,"velocity":87.49813430638437},
{"position":262.84375,"instrument":"TheGrandeurPiano","level2":10,"level3":null,"pitch":39,"articulation":"standard","articulation_tags":["standard","long"],"duration":0.2638888888888889,"velocity":87.49813430638437},
{"position":262.8854166666667,"instrument":"TheGrandeurPiano","level2":13,"level3":null,"pitch":52,"articulation":"standard","articulation_tags":["standard","long"],"duration":0.013888888888888888,"velocity":108.51774214952164},
{"position":262.8854166666667,"instrument":"TheGrandeurPiano","level2":14,"level3":null,"pitch":53,"articulation":"standard","articulation_tags":["standard","long"],"duration":0.0,"velocity":108.83146763971772},
{"position":262.8854166666667,"instrument":"TheGrandeurPiano","level2":14,"level3":null,"pitch":53,"articulation":"standard","articulation_tags":["standard","long"],"duration":0.027777777777777776,"velocity":108.83146763971772},
{"position":262.8958333333333,"instrument":"TheGrandeurPiano","level2":14,"level3":null,"pitch":53,"articulation":"standard","articulation_tags":["standard","long"],"duration":0.1111111111111111,"velocity":108.83146763971772},
{"position":262.90625,"instrument":"TheGrandeurPiano","level2":11,"level3":null,"pitch":40,"articulation":"standard","articulation_tags":["standard","long"],"duration":0.125,"velocity":90.63538920834516},
{"position":262.90625,"instrument":"TheGrandeurPiano","level2":13,"level3":null,"pitch":52,"articulation":"standard","articulation_tags":["standard","long"],"duration":0.05555555555555555,"velocity":108.20401665932556},
{"position":262.9375,"instrument":"TheGrandeurPiano","level2":14,"level3":null,"pitch":53,"articulation":"standard","articulation_tags":["standard","long"],"duration":0.06944444444444445,"velocity":107.24234094005143},
{"position":262.9583333333333,"instrument":"TheGrandeurPiano","level2":13,"level3":null,"pitch":52,"articulation":"standard","articulation_tags":["standard","long"],"duration":0.18055555555555555,"velocity":106.3011644694632},
{"position":262.9895833333333,"instrument":"TheGrandeurPiano","level2":13,"level3":null,"pitch":52,"articulation":"standard","articulation_tags":["standard","long"],"duration":0.09722222222222222,"velocity":105.98743897926711},
{"position":263.0104166666667,"instrument":"TheGrandeurPiano","level2":10,"level3":null,"pitch":39,"articulation":"standard","articulation_tags":["standard","long"],"duration":0.11805555555555555,"velocity":85.90900760671809},
{"position":263.03125,"instrument":"TheGrandeurPiano","level2":14,"level3":null,"pitch":53,"articulation":"standard","articulation_tags":["standard","long"],"duration":0.1111111111111111,"velocity":107.55606643024751},
{"position":263.0416666666667,"instrument":"Contrabass","level2":11,"level3":1,"pitch":33,"articulation":"pizzicato_bartok","articulation_tags":["pizzicato_bartok","pzb","short","pizzicato","bartok"],"duration":0.125,"velocity":119.13573860752851},
{"position":263.0625,"instrument":"TheGrandeurPiano","level2":14,"level3":null,"pitch":53,"articulation":"standard","articulation_tags":["standard","long"],"duration":0.2916666666666667,"velocity":107.55606643024751},
{"position":263.0729166666667,"instrument":"Contrabass","level2":11,"level3":1,"pitch":32,"articulation":"pizzicato_bartok","articulation_tags":["pizzicato_bartok","pzb","short","pizzicato","bartok"],"duration":0.125,"velocity":119.13573860752851},
{"position":263.09375,"instrument":"TheGrandeurPiano","level2":11,"level3":null,"pitch":40,"articulation":"standard","articulation_tags":["standard","long"],"duration":0.09722222222222222,"velocity":88.41881152828672},
{"position":263.1354166666667,"instrument":"TheGrandeurPiano","level2":13,"level3":null,"pitch":52,"articulation":"standard","articulation_tags":["standard","long"],"duration":0.1388888888888889,"velocity":105.67371348907103},
{"position":263.1875,"instrument":"TheGrandeurPiano","level2":10,"level3":null,"pitch":39,"articulation":"standard","articulation_tags":["standard","long"],"duration":0.09027777777777778,"velocity":86.22273309691417},
{"position":263.1979166666667,"instrument":"TheGrandeurPiano","level2":14,"level3":null,"pitch":53,"articulation":"standard","articulation_tags":["standard","long"],"duration":0.14583333333333334,"velocity":106.11111827449949},
{"position":263.21875,"instrument":"TheGrandeurPiano","level2":13,"level3":null,"pitch":51,"articulation":"standard","articulation_tags":["standard","long"],"duration":0.2986111111111111,"velocity":103.91503984312693},
{"position":263.2395833333333,"instrument":"TheGrandeurPiano","level2":11,"level3":null,"pitch":40,"articulation":"standard","articulation_tags":["standard","long"],"duration":0.0763888888888889,"velocity":89.31419791599413},
{"position":263.2395833333333,"instrument":"TheGrandeurPiano","level2":10,"level3":null,"pitch":39,"articulation":"standard","articulation_tags":["standard","long"],"duration":0.14583333333333334,"velocity":87.43184497481765},
{"position":263.3229166666667,"instrument":"TheGrandeurPiano","level2":10,"level3":null,"pitch":39,"articulation":"standard","articulation_tags":["standard","long"],"duration":0.0625,"velocity":87.74557046501374},
{"position":263.34375,"instrument":"TheGrandeurPiano","level2":13,"level3":null,"pitch":51,"articulation":"standard","articulation_tags":["standard","long"],"duration":0.1875,"velocity":106.56909987677844},
{"position":263.3541666666667,"instrument":"TheGrandeurPiano","level2":11,"level3":null,"pitch":40,"articulation":"standard","articulation_tags":["standard","long"],"duration":0.04861111111111111,"velocity":89.00047242579805},
{"position":263.3541666666667,"instrument":"TheGrandeurPiano","level2":11,"level3":null,"pitch":40,"articulation":"standard","articulation_tags":["standard","long"],"duration":0.06944444444444445,"velocity":89.00047242579805},
{"position":263.40625,"instrument":"TheGrandeurPiano","level2":10,"level3":null,"pitch":39,"articulation":"standard","articulation_tags":["standard","long"],"duration":0.034722222222222224,"velocity":88.05929595520982},
{"position":263.4166666666667,"instrument":"TheGrandeurPiano","level2":14,"level3":null,"pitch":53,"articulation":"standard","articulation_tags":["standard","long"],"duration":0.1875,"velocity":109.39262928854315},
{"position":263.4270833333333,"instrument":"TheGrandeurPiano","level2":11,"level3":null,"pitch":40,"articulation":"standard","articulation_tags":["standard","long"],"duration":0.020833333333333332,"velocity":88.68674693560197},
{"position":263.4479166666667,"instrument":"TheGrandeurPiano","level2":10,"level3":null,"pitch":40,"articulation":"standard","articulation_tags":["standard","long"],"duration":0.006944444444444444,"velocity":88.05929595520982},
{"position":263.4583333333333,"instrument":"TheGrandeurPiano","level2":11,"level3":null,"pitch":40,"articulation":"standard","articulation_tags":["standard","long"],"duration":0.0,"velocity":86.8575608153494},
{"position":263.4583333333333,"instrument":"TheGrandeurPiano","level2":10,"level3":null,"pitch":40,"articulation":"standard","articulation_tags":["standard","long"],"duration":0.006944444444444444,"velocity":86.8575608153494},
{"position":263.5104166666667,"instrument":"TheGrandeurPiano","level2":14,"level3":null,"pitch":54,"articulation":"standard","articulation_tags":["standard","long"],"duration":0.5069444444444444,"velocity":107.87716865848665},
{"position":263.6145833333333,"instrument":"TheGrandeurPiano","level2":13,"level3":null,"pitch":51,"articulation":"standard","articulation_tags":["standard","long"],"duration":0.22916666666666666,"velocity":104.73991375652587},
{"position":263.6666666666667,"instrument":"TheGrandeurPiano","level2":13,"level3":null,"pitch":51,"articulation":"standard","articulation_tags":["standard","long"],"duration":0.4027777777777778,"velocity":104.73991375652587},
{"position":263.6979166666667,"instrument":"TheGrandeurPiano","level2":14,"level3":null,"pitch":54,"articulation":"standard","articulation_tags":["standard","long"],"duration":0.22916666666666666,"velocity":106.84358402582988},
{"position":263.75,"instrument":"Contrabass","level2":11,"level3":1,"pitch":32,"articulation":"pizzicato_bartok","articulation_tags":["pizzicato_bartok","pzb","short","pizzicato","bartok"],"duration":0.125,"velocity":121.23127738429571},
{"position":263.96875,"instrument":"TheGrandeurPiano","level2":13,"level3":null,"pitch":51,"articulation":"standard","articulation_tags":["standard","long"],"duration":0.2777777777777778,"velocity":105.13843298215009},
{"position":264.0416666666667,"instrument":"TheGrandeurPiano","level2":14,"level3":null,"pitch":54,"articulation":"standard","articulation_tags":["standard","long"],"duration":0.2638888888888889,"velocity":109.21686435469911},
{"position":264.09375,"instrument":"Contrabass","level2":12,"level3":6,"pitch":36,"articulation":"spiccato","articulation_tags":["spiccato","sp","short"],"duration":0.125,"velocity":127.5},
{"position":264.1354166666667,"instrument":"Cello","level2":13,"level3":0,"pitch":40,"articulation":"short_marcato","articulation_tags":["short_marcato","marcato_s","short","marcato"],"duration":0.125,"velocity":102.75027478156302},
{"position":264.1354166666667,"instrument":"Cello","level2":13,"level3":1,"pitch":40,"articulation":"short_marcato","articulation_tags":["short_marcato","marcato_s","short","marcato"],"duration":0.125,"velocity":102.75027478156302},
{"position":264.15625,"instrument":"Contrabass","level2":12,"level3":4,"pitch":35,"articulation":"spiccato","articulation_tags":["spiccato","sp","short"],"duration":0.125,"velocity":127.5},
{"position":264.1875,"instrument":"Cello","level2":13,"level3":1,"pitch":40,"articulation":"short_marcato","articulation_tags":["short_marcato","marcato_s","short","marcato"],"duration":0.125,"velocity":102.75027478156302},
{"position":264.1979166666667,"instrument":"Cello","level2":13,"level3":1,"pitch":40,"articulation":"short_marcato","articulation_tags":["short_marcato","marcato_s","short","marcato"],"duration":0.125,"velocity":102.75027478156302},
{"position":264.2708333333333,"instrument":"TheGrandeurPiano","level2":14,"level3":null,"pitch":54,"articulation":"standard","articulation_tags":["standard","long"],"duration":0.7569444444444444,"velocity":108.29945455421016},
{"position":264.28125,"instrument":"TheGrandeurPiano","level2":13,"level3":null,"pitch":50,"articulation":"standard","articulation_tags":["standard","long"],"duration":0.5,"velocity":104.22102318166114},
{"position":264.28125,"instrument":"Cello","level2":13,"level3":0,"pitch":41,"articulation":"short_marcato","articulation_tags":["short_marcato","marcato_s","short","marcato"],"duration":0.125,"velocity":103.359250231906},
{"position":264.3854166666667,"instrument":"TheGrandeurPiano","level2":13,"level3":null,"pitch":50,"articulation":"standard","articulation_tags":["standard","long"],"duration":0.3333333333333333,"velocity":103.90729769146506},
{"position":264.4375,"instrument":"TheGrandeurPiano","level2":14,"level3":null,"pitch":54,"articulation":"standard","articulation_tags":["standard","long"],"duration":0.3055555555555556,"velocity":107.88909567383209},
{"position":264.46875,"instrument":"Contrabass","level2":12,"level3":3,"pitch":32,"articulation":"short_hrm","articulation_tags":["short_hrm","hrm_s","short","harmonics"],"duration":0.125,"velocity":127.5},
{"position":264.8854166666667,"instrument":"TheGrandeurPiano","level2":13,"level3":null,"pitch":50,"articulation":"standard","articulation_tags":["standard","long"],"duration":0.3888888888888889,"velocity":102.03015050200163},
{"position":264.8958333333333,"instrument":"TheGrandeurPiano","level2":14,"level3":null,"pitch":54,"articulation":"standard","articulation_tags":["standard","long"],"duration":0.3472222222222222,"velocity":107.36348383533496},
{"position":264.9166666666667,"instrument":"Cello","level2":13,"level3":1,"pitch":39,"articulation":"short_marcato","articulation_tags":["short_marcato","marcato_s","short","marcato"],"duration":0.125,"velocity":102.84419102799868},
{"position":265.03125,"instrument":"TheGrandeurPiano","level2":13,"level3":null,"pitch":50,"articulation":"standard","articulation_tags":["standard","long"],"duration":0.5902777777777778,"velocity":102.03015050200163},
{"position":265.0729166666667,"instrument":"Cello","level2":13,"level3":0,"pitch":41,"articulation":"short_marcato","articulation_tags":["short_marcato","marcato_s","short","marcato"],"duration":0.125,"velocity":103.46549305539139},
{"position":265.40625,"instrument":"TheGrandeurPiano","level2":14,"level3":null,"pitch":55,"articulation":"standard","articulation_tags":["standard","long"],"duration":1.0694444444444444,"velocity":107.36348383533496},
{"position":265.4166666666667,"instrument":"TheGrandeurPiano","level2":14,"level3":null,"pitch":55,"articulation":"standard","articulation_tags":["standard","long"],"duration":0.3888888888888889,"velocity":107.67720932553104},
{"position":265.46875,"instrument":"TheGrandeurPiano","level2":13,"level3":null,"pitch":50,"articulation":"standard","articulation_tags":["standard","long"],"duration":0.4444444444444444,"velocity":101.71642501180555},
{"position":265.8854166666667,"instrument":"Cello","level2":13,"level3":1,"pitch":39,"articulation":"staccato","articulation_tags":["staccato","st","short"],"duration":0.125,"velocity":103.2312817760237},
{"position":265.90625,"instrument":"TheGrandeurPiano","level2":13,"level3":null,"pitch":49,"articulation":"standard","articulation_tags":["standard","long"],"duration":0.6666666666666666,"velocity":102.55576234049876},
{"position":266.0,"instrument":"TheGrandeurPiano","level2":14,"level3":null,"pitch":55,"articulation":"standard","articulation_tags":["standard","long"],"duration":0.4305555555555556,"velocity":108.83027214442032},
{"position":266.09375,"instrument":"TheGrandeurPiano","level2":15,"level3":null,"pitch":30,"articulation":"standard","articulation_tags":["standard","long"],"duration":0.0,"velocity":118.82485629163085},
{"position":266.09375,"instrument":"TheGrandeurPiano","level2":15,"level3":null,"pitch":30,"articulation":"standard","articulation_tags":["standard","long"],"duration":0.16666666666666666,"velocity":118.82485629163085},
{"position":266.09375,"instrument":"TheGrandeurPiano","level2":16,"level3":null,"pitch":29,"articulation":"standard","articulation_tags":["standard","long"],"duration":0.0,"velocity":119.11897393868968},
{"position":266.09375,"instrument":"TheGrandeurPiano","level2":16,"level3":null,"pitch":29,"articulation":"standard","articulation_tags":["standard","long"],"duration":0.034722222222222224,"velocity":119.11897393868968},
{"position":266.1145833333333,"instrument":"TheGrandeurPiano","level2":15,"level3":null,"pitch":30,"articulation":"standard","articulation_tags":["standard","long"],"duration":0.05555555555555555,"velocity":118.82485629163085},
{"position":266.1354166666667,"instrument":"TheGrandeurPiano","level2":13,"level3":null,"pitch":49,"articulation":"standard","articulation_tags":["standard","long"],"duration":0.5069444444444444,"velocity":102.96612122087683},
{"position":266.1458333333333,"instrument":"TheGrandeurPiano","level2":16,"level3":null,"pitch":29,"articulation":"standard","articulation_tags":["standard","long"],"duration":0.0763888888888889,"velocity":119.11897393868968},
{"position":266.1875,"instrument":"TheGrandeurPiano","level2":15,"level3":null,"pitch":31,"articulation":"standard","articulation_tags":["standard","long"],"duration":0.09722222222222222,"velocity":118.82485629163085},
{"position":266.25,"instrument":"TheGrandeurPiano","level2":16,"level3":null,"pitch":28,"articulation":"standard","articulation_tags":["standard","long"],"duration":0.125,"velocity":119.97904562664807},
{"position":266.3333333333333,"instrument":"TheGrandeurPiano","level2":15,"level3":null,"pitch":31,"articulation":"standard","articulation_tags":["standard","long"],"duration":0.13194444444444445,"velocity":116.6605224602821},
{"position":266.34375,"instrument":"TheGrandeurPiano","level2":15,"level3":null,"pitch":31,"articulation":"standard","articulation_tags":["standard","long"],"duration":0.4444444444444444,"velocity":116.36640481322327},
{"position":266.375,"instrument":"TheGrandeurPiano","level2":16,"level3":null,"pitch":28,"articulation":"standard","articulation_tags":["standard","long"],"duration":1.3611111111111112,"velocity":117.24875775439975},
{"position":266.4375,"instrument":"TheGrandeurPiano","level2":16,"level3":null,"pitch":28,"articulation":"standard","articulation_tags":["standard","long"],"duration":1.4409448818897639,"velocity":117.24875775439975},
{"position":266.53125,"instrument":"TheGrandeurPiano","level2":15,"level3":null,"pitch":32,"articulation":"standard","articulation_tags":["standard","long"],"duration":0.1736111111111111,"velocity":117.45997767127434},
{"position":266.5416666666667,"instrument":"Cello","level2":13,"level3":0,"pitch":42,"articulation":"short_marcato","articulation_tags":["short_marcato","marcato_s","short","marcato"],"duration":0.125,"velocity":103.64177170668857},
{"position":266.5729166666667,"instrument":"Contrabass","level2":16,"level3":0,"pitch":27,"articulation":"collegno","articulation_tags":["collegno","cl","short"],"duration":0.125,"velocity":127.5},
{"position":266.5729166666667,"instrument":"Contrabass","level2":16,"level3":0,"pitch":27,"articulation":"collegno","articulation_tags":["collegno","cl","short"],"duration":0.125,"velocity":127.5},
{"position":266.5729166666667,"instrument":"Contrabass","level2":16,"level3":1,"pitch":27,"articulation":"collegno","articulation_tags":["collegno","cl","short"],"duration":0.125,"velocity":127.5},
{"position":266.625,"instrument":"TheGrandeurPiano","level2":12,"level3":null,"pitch":25,"articulation":"standard","articulation_tags":["standard","long"],"duration":1.3937007874015748,"velocity":98.37299579053577},
{"position":266.625,"instrument":"Contrabass","level2":16,"level3":0,"pitch":27,"articulation":"collegno","articulation_tags":["collegno","cl","short"],"duration":0.125,"velocity":127.5},
{"position":266.6458333333333,"instrument":"TheGrandeurPiano","level2":14,"level3":null,"pitch":55,"articulation":"standard","articulation_tags":["standard","long"],"duration":0.4722222222222222,"velocity":108.72593696700636},
{"position":266.7083333333333,"instrument":"Cello","level2":13,"level3":1,"pitch":39,"articulation":"staccato","articulation_tags":["staccato","st","short"],"duration":0.125,"velocity":103.64177170668857},
{"position":266.7604166666667,"instrument":"Cello","level2":14,"level3":0,"pitch":54,"articulation":"long_slt","articulation_tags":["long_slt","slt","long","sultasto"],"duration":0.041666666666666664,"velocity":83.03941573285505},
{"position":266.7604166666667,"instrument":"Cello","level2":14,"level3":1,"pitch":54,"articulation":"long_slt","articulation_tags":["long_slt","slt","long","sultasto"],"duration":0.19791666666666666,"velocity":83.03941573285505},
{"position":266.7916666666667,"instrument":"TheGrandeurPiano","level2":15,"level3":null,"pitch":32,"articulation":"standard","articulation_tags":["standard","long"],"duration":0.2152777777777778,"velocity":118.72308091144887},
{"position":266.8020833333333,"instrument":"Cello","level2":14,"level3":0,"pitch":54,"articulation":"long_slt","articulation_tags":["long_slt","slt","long","sultasto"],"duration":0.7395833333333334,"velocity":83.03941573285505},
{"position":266.8958333333333,"instrument":"TheGrandeurPiano","level2":13,"level3":null,"pitch":49,"articulation":"standard","articulation_tags":["standard","long"],"duration":0.5763888888888888,"velocity":102.85756081534939},
{"position":266.90625,"instrument":"TheGrandeurPiano","level2":13,"level3":null,"pitch":49,"articulation":"standard","articulation_tags":["standard","long"],"duration":0.7361111111111112,"velocity":99.80507915502437},
{"position":266.96875,"instrument":"Cello","level2":14,"level3":1,"pitch":54,"articulation":"long_slt","articulation_tags":["long_slt","slt","long","sultasto"],"duration":1.5416666666666667,"velocity":83.03941573285505},
{"position":267.0,"instrument":"TheGrandeurPiano","level2":14,"level3":null,"pitch":55,"articulation":"standard","articulation_tags":["standard","long"],"duration":1.4513888888888888,"velocity":108.62092219606811},
{"position":267.0104166666667,"instrument":"TheGrandeurPiano","level2":15,"level3":null,"pitch":32,"articulation":"standard","articulation_tags":["standard","long"],"duration":0.6736111111111112,"velocity":117.0674086764609},
{"position":267.0520833333333,"instrument":"Cello","level2":14,"level3":1,"pitch":54,"articulation":"legato","articulation_tags":["legato","lg"],"duration":1.6354166666666667,"velocity":82.14400209297541},
{"position":267.0625,"instrument":"Contrabass","level2":16,"level3":0,"pitch":27,"articulation":"pizzicato","articulation_tags":["pizzicato","pz","short"],"duration":0.125,"velocity":127.5},
{"position":267.1145833333333,"instrument":"Contrabass","level2":16,"level3":1,"pitch":27,"articulation":"collegno","articulation_tags":["collegno","cl","short"],"duration":0.125,"velocity":127.5},
{"position":267.1145833333333,"instrument":"TheGrandeurPiano","level2":15,"level3":null,"pitch":33,"articulation":"standard","articulation_tags":["standard","long"],"duration":0.25,"velocity":117.0674086764609},
{"position":267.2916666666667,"instrument":"Cello","level2":14,"level3":0,"pitch":55,"articulation":"long_slt","articulation_tags":["long_slt","slt","long","sultasto"],"duration":17.229166666666668,"velocity":82.14400209297541},
{"position":267.3333333333333,"instrument":"Contrabass","level2":12,"level3":5,"pitch":33,"articulation":"short_hrm","articulation_tags":["short_hrm","hrm_s","short","harmonics"],"duration":0.125,"velocity":127.5},
{"position":267.3645833333333,"instrument":"TheGrandeurPiano","level2":14,"level3":null,"pitch":55,"articulation":"standard","articulation_tags":["standard","long"],"duration":0.5208333333333334,"velocity":107.87318474194797},
{"position":267.4895833333333,"instrument":"TheGrandeurPiano","level2":15,"level3":null,"pitch":33,"articulation":"standard","articulation_tags":["standard","long"],"duration":0.2916666666666667,"velocity":116.07228716616446},
{"position":267.5416666666667,"instrument":"Cello","level2":14,"level3":0,"pitch":55,"articulation":"long_slt","articulation_tags":["long_slt","slt","long","sultasto"],"duration":1.53125,"velocity":83.14553280082968},
{"position":267.7604166666667,"instrument":"TheGrandeurPiano","level2":13,"level3":null,"pitch":49,"articulation":"standard","articulation_tags":["standard","long"],"duration":0.6527777777777778,"velocity":99.38295726741615},
{"position":267.9270833333333,"instrument":"TheGrandeurPiano","level2":15,"level3":null,"pitch":34,"articulation":"standard","articulation_tags":["standard","long"],"duration":0.3263888888888889,"velocity":117.55779190009993},
{"position":267.9375,"instrument":"Contrabass","level2":16,"level3":0,"pitch":27,"articulation":"pizzicato","articulation_tags":["pizzicato","pz","short"],"duration":0.125,"velocity":127.5},
{"position":268.0104166666667,"instrument":"TheGrandeurPiano","level2":13,"level3":null,"pitch":48,"articulation":"standard","articulation_tags":["standard","long"],"duration":0.7986111111111112,"velocity":101.61458586991051},
{"position":268.0208333333333,"instrument":"TheGrandeurPiano","level2":15,"level3":null,"pitch":34,"articulation":"standard","articulation_tags":["standard","long"],"duration":0.8680555555555556,"velocity":117.2636742530411},
{"position":268.0520833333333,"instrument":"Contrabass","level2":15,"level3":0,"pitch":34,"articulation":"collegno","articulation_tags":["collegno","cl","short"],"duration":0.125,"velocity":127.5},
{"position":268.0520833333333,"instrument":"Contrabass","level2":15,"level3":1,"pitch":34,"articulation":"collegno","articulation_tags":["collegno","cl","short"],"duration":0.125,"velocity":127.5},
{"position":268.1458333333333,"instrument":"Contrabass","level2":16,"level3":1,"pitch":28,"articulation":"collegno","articulation_tags":["collegno","cl","short"],"duration":0.125,"velocity":127.5},
{"position":268.1458333333333,"instrument":"TheGrandeurPiano","level2":14,"level3":null,"pitch":55,"articulation":"standard","articulation_tags":["standard","long"],"duration":0.5694444444444444,"velocity":109.77144861500857},
{"position":268.15625,"instrument":"Contrabass","level2":16,"level3":1,"pitch":28,"articulation":"collegno","articulation_tags":["collegno","cl","short"],"duration":0.125,"velocity":127.5},
{"position":268.1666666666667,"instrument":"Contrabass","level2":15,"level3":1,"pitch":34,"articulation":"collegno","articulation_tags":["collegno","cl","short"],"duration":0.125,"velocity":127.5},
{"position":268.1979166666667,"instrument":"Contrabass","level2":15,"level3":0,"pitch":34,"articulation":"collegno","articulation_tags":["collegno","cl","short"],"duration":0.125,"velocity":127.5},
{"position":268.3854166666667,"instrument":"Marimba","level2":13,"level3":2,"pitch":40,"articulation":"hits","articulation_tags":["hits","short"],"duration":0.0625,"velocity":104.52935551093937},
{"position":268.3854166666667,"instrument":"Marimba","level2":13,"level3":3,"pitch":40,"articulation":"hits","articulation_tags":["hits","short"],"duration":0.0625,"velocity":104.52935551093937},
{"position":268.40625,"instrument":"Marimba","level2":13,"level3":3,"pitch":40,"articulation":"hits","articulation_tags":["hits","short"],"duration":0.0625,"velocity":104.52935551093937},
{"position":268.4166666666667,"instrument":"TheGrandeurPiano","level2":16,"level3":null,"pitch":28,"articulation":"standard","articulation_tags":["standard","long"],"duration":1.4409448818897639,"velocity":116.34799302643793},
{"position":268.4166666666667,"instrument":"TheGrandeurPiano","level2":15,"level3":null,"pitch":34,"articulation":"standard","articulation_tags":["standard","long"],"duration":0.3680555555555556,"velocity":115.17152243820263},
{"position":268.4270833333333,"instrument":"Marimba","level2":13,"level3":2,"pitch":40,"articulation":"hits","articulation_tags":["hits","short"],"duration":0.0625,"velocity":104.52935551093937},
{"position":268.5104166666667,"instrument":"Cello","level2":14,"level3":1,"pitch":53,"articulation":"legato","articulation_tags":["legato","lg"],"duration":2.4895833333333335,"velocity":84.15846217209743},
{"position":268.5625,"instrument":"Contrabass","level2":15,"level3":1,"pitch":34,"articulation":"collegno","articulation_tags":["collegno","cl","short"],"duration":0.125,"velocity":127.5},
{"position":268.625,"instrument":"Marimba","level2":13,"level3":2,"pitch":41,"articulation":"hits","articulation_tags":["hits","short"],"duration":0.0625,"velocity":104.52935551093937},
{"position":268.6875,"instrument":"Contrabass","level2":16,"level3":2,"pitch":27,"articulation":"collegno","articulation_tags":["collegno","cl","short"],"duration":0.125,"velocity":127.5},
{"position":268.6875,"instrument":"Contrabass","level2":16,"level3":3,"pitch":28,"articulation":"collegno","articulation_tags":["collegno","cl","short"],"duration":0.125,"velocity":127.5},
{"position":268.6875,"instrument":"Cello","level2":14,"level3":1,"pitch":53,"articulation":"legato","articulation_tags":["legato","lg"],"duration":4.15625,"velocity":84.15846217209743},
{"position":268.75,"instrument":"TheGrandeurPiano","level2":13,"level3":null,"pitch":48,"articulation":"standard","articulation_tags":["standard","long"],"duration":0.7430555555555556,"velocity":99.71632199684993},
{"position":268.75,"instrument":"Contrabass","level2":16,"level3":2,"pitch":27,"articulation":"collegno","articulation_tags":["collegno","cl","short"],"duration":0.125,"velocity":127.5},
{"position":268.75,"instrument":"Contrabass","level2":16,"level3":3,"pitch":28,"articulation":"collegno","articulation_tags":["collegno","cl","short"],"duration":0.125,"velocity":127.5},
{"position":268.8645833333333,"instrument":"Marimba","level2":13,"level3":1,"pitch":39,"articulation":"hits","articulation_tags":["hits","short"],"duration":0.0625,"velocity":104.35791257849877},
{"position":268.90625,"instrument":"Contrabass","level2":15,"level3":0,"pitch":33,"articulation":"collegno","articulation_tags":["collegno","cl","short"],"duration":0.125,"velocity":127.5},
{"position":268.9270833333333,"instrument":"Contrabass","level2":16,"level3":2,"pitch":27,"articulation":"collegno","articulation_tags":["collegno","cl","short"],"duration":0.125,"velocity":127.5},
{"position":268.9583333333333,"instrument":"TheGrandeurPiano","level2":15,"level3":null,"pitch":35,"articulation":"standard","articulation_tags":["standard","long"],"duration":0.3958333333333333,"velocity":116.77329102940209},
{"position":268.9895833333333,"instrument":"TheGrandeurPiano","level2":14,"level3":null,"pitch":55,"articulation":"standard","articulation_tags":["standard","long"],"duration":0.6180555555555556,"velocity":109.56209866665635},
{"position":269.0,"instrument":"Marimba","level2":13,"level3":0,"pitch":42,"articulation":"hits","articulation_tags":["hits","short"],"duration":0.0625,"velocity":104.35791257849877},
{"position":269.0729166666667,"instrument":"Cello","level2":14,"level3":0,"pitch":55,"articulation":"long_flt","articulation_tags":["long_flt","flt","long","flautando"],"duration":2.2395833333333335,"velocity":85.18228952954185},
{"position":269.1666666666667,"instrument":"Marimba","level2":13,"level3":3,"pitch":39,"articulation":"hits","articulation_tags":["hits","short"],"duration":0.0625,"velocity":104.35791257849877},
{"position":269.1875,"instrument":"TheGrandeurPiano","level2":14,"level3":null,"pitch":56,"articulation":"standard","articulation_tags":["standard","long"],"duration":1.8818897637795275,"velocity":107.96194190012243},
{"position":269.2083333333333,"instrument":"TheGrandeurPiano","level2":13,"level3":null,"pitch":48,"articulation":"standard","articulation_tags":["standard","long"],"duration":0.8611111111111112,"velocity":99.17762817463222},
{"position":269.25,"instrument":"Contrabass","level2":16,"level3":0,"pitch":27,"articulation":"pizzicato","articulation_tags":["pizzicato","pz","short"],"duration":0.125,"velocity":127.5},
{"position":269.2604166666667,"instrument":"Contrabass","level2":16,"level3":2,"pitch":27,"articulation":"collegno","articulation_tags":["collegno","cl","short"],"duration":0.125,"velocity":127.5},
{"position":269.28125,"instrument":"Contrabass","level2":16,"level3":3,"pitch":28,"articulation":"collegno","articulation_tags":["collegno","cl","short"],"duration":0.125,"velocity":127.5},
{"position":269.3333333333333,"instrument":"TheGrandeurPiano","level2":15,"level3":null,"pitch":35,"articulation":"standard","articulation_tags":["standard","long"],"duration":1.0277777777777777,"velocity":117.84072797027241},
{"position":269.5625,"instrument":"TheGrandeurPiano","level2":15,"level3":null,"pitch":35,"articulation":"standard","articulation_tags":["standard","long"],"duration":0.4375,"velocity":116.57762473009788},
{"position":269.6145833333333,"instrument":"Marimba","level2":13,"level3":3,"pitch":39,"articulation":"hits","articulation_tags":["hits","short"],"duration":0.0625,"velocity":105.00465827441876},
{"position":269.6666666666667,"instrument":"Marimba","level2":13,"level3":2,"pitch":41,"articulation":"hits","articulation_tags":["hits","short"],"duration":0.0625,"velocity":105.00465827441876},
{"position":269.8541666666667,"instrument":"Contrabass","level2":16,"level3":1,"pitch":28,"articulation":"collegno","articulation_tags":["collegno","cl","short"],"duration":0.125,"velocity":127.5},
{"position":269.8541666666667,"instrument":"Contrabass","level2":16,"level3":3,"pitch":28,"articulation":"collegno","articulation_tags":["collegno","cl","short"],"duration":0.125,"velocity":127.5},
{"position":269.8645833333333,"instrument":"TheGrandeurPiano","level2":13,"level3":null,"pitch":48,"articulation":"standard","articulation_tags":["standard","long"],"duration":0.8472222222222222,"velocity":102.62862906058146},
{"position":269.9166666666667,"instrument":"TheGrandeurPiano","level2":14,"level3":null,"pitch":56,"articulation":"standard","articulation_tags":["standard","long"],"duration":0.6666666666666666,"velocity":111.12298396597487},
{"position":269.9583333333333,"instrument":"Contrabass","level2":15,"level3":0,"pitch":33,"articulation":"collegno","articulation_tags":["collegno","cl","short"],"duration":0.125,"velocity":127.5},
{"position":270.0520833333333,"instrument":"Contrabass","level2":15,"level3":1,"pitch":35,"articulation":"collegno","articulation_tags":["collegno","cl","short"],"duration":0.125,"velocity":127.5},
{"position":270.1354166666667,"instrument":"Marimba","level2":13,"level3":1,"pitch":38,"articulation":"hits","articulation_tags":["hits","short"],"duration":0.0625,"velocity":104.84924597876473},
{"position":270.21875,"instrument":"TheGrandeurPiano","level2":15,"level3":null,"pitch":36,"articulation":"standard","articulation_tags":["standard","long"],"duration":0.4722222222222222,"velocity":116.96955660598229},
{"position":270.2708333333333,"instrument":"Contrabass","level2":16,"level3":2,"pitch":27,"articulation":"pizzicato","articulation_tags":["pizzicato","pz","short"],"duration":0.125,"velocity":127.5},
{"position":270.4166666666667,"instrument":"Contrabass","level2":16,"level3":3,"pitch":28,"articulation":"collegno","articulation_tags":["collegno","cl","short"],"duration":0.125,"velocity":127.5},
{"position":270.5,"instrument":"TheGrandeurPiano","level2":13,"level3":null,"pitch":47,"articulation":"standard","articulation_tags":["standard","long"],"duration":0.9166666666666666,"velocity":100.46405945097007},
{"position":270.59375,"instrument":"Contrabass","level2":12,"level3":4,"pitch":34,"articulation":"spiccato","articulation_tags":["spiccato","sp","short"],"duration":0.125,"velocity":127.5},
{"position":270.8645833333333,"instrument":"TheGrandeurPiano","level2":15,"level3":null,"pitch":36,"articulation":"standard","articulation_tags":["standard","long"],"duration":1.1666666666666667,"velocity":115.78934418193255},
{"position":270.9166666666667,"instrument":"TheGrandeurPiano","level2":14,"level3":null,"pitch":56,"articulation":"standard","articulation_tags":["standard","long"],"duration":0.7222222222222222,"velocity":109.76745732347314},
{"position":270.9270833333333,"instrument":"TheGrandeurPiano","level2":15,"level3":null,"pitch":36,"articulation":"standard","articulation_tags":["standard","long"],"duration":0.5138888888888888,"velocity":115.78934418193255},
{"position":270.9895833333333,"instrument":"Marimba","level2":14,"level3":1,"pitch":53,"articulation":"hits","articulation_tags":["hits","short"],"duration":0.0625,"velocity":107.2221545575199},
{"position":271.0416666666667,"instrument":"Contrabass","level2":16,"level3":0,"pitch":27,"articulation":"pizzicato","articulation_tags":["pizzicato","pz","short"],"duration":0.125,"velocity":127.5},
{"position":271.1145833333333,"instrument":"Contrabass","level2":15,"level3":2,"pitch":33,"articulation":"collegno","articulation_tags":["collegno","cl","short"],"duration":0.125,"velocity":127.5},
{"position":271.1145833333333,"instrument":"Contrabass","level2":15,"level3":3,"pitch":34,"articulation":"collegno","articulation_tags":["collegno","cl","short"],"duration":0.125,"velocity":127.5},
{"position":271.1145833333333,"instrument":"Contrabass","level2":15,"level3":3,"pitch":34,"articulation":"collegno","articulation_tags":["collegno","cl","short"],"duration":0.125,"velocity":127.5},
{"position":271.125,"instrument":"TheGrandeurPiano","level2":13,"level3":null,"pitch":47,"articulation":"standard","articulation_tags":["standard","long"],"duration":0.9652777777777778,"velocity":99.83407207062908},
{"position":271.21875,"instrument":"Cello","level2":13,"level3":3,"pitch":39,"articulation":"staccato","articulation_tags":["staccato","st","short"],"duration":0.125,"velocity":105.36002593632239},
{"position":271.25,"instrument":"Contrabass","level2":16,"level3":1,"pitch":28,"articulation":"collegno","articulation_tags":["collegno","cl","short"],"duration":0.125,"velocity":127.5},
{"position":271.3125,"instrument":"Marimba","level2":14,"level3":0,"pitch":55,"articulation":"hits","articulation_tags":["hits","short"],"duration":0.0625,"velocity":107.2221545575199},
{"position":271.4895833333333,"instrument":"Cello","level2":13,"level3":2,"pitch":42,"articulation":"short_marcato","articulation_tags":["short_marcato","marcato_s","short","marcato"],"duration":0.125,"velocity":105.36002593632239},
{"position":271.6979166666667,"instrument":"TheGrandeurPiano","level2":15,"level3":null,"pitch":37,"articulation":"standard","articulation_tags":["standard","long"],"duration":0.5486111111111112,"velocity":117.35426805633674},
{"position":271.8125,"instrument":"Contrabass","level2":16,"level3":2,"pitch":27,"articulation":"pizzicato","articulation_tags":["pizzicato","pz","short"],"duration":0.125,"velocity":127.5},
{"position":271.875,"instrument":"TheGrandeurPiano","level2":13,"level3":null,"pitch":47,"articulation":"standard","articulation_tags":["standard","long"],"duration":0.9652777777777778,"velocity":101.39749376989644},
{"position":272.0,"instrument":"TheGrandeurPiano","level2":14,"level3":null,"pitch":56,"articulation":"standard","articulation_tags":["standard","long"],"duration":0.7777777777777778,"velocity":112.62610445017748},
{"position":272.0625,"instrument":"Contrabass","level2":15,"level3":2,"pitch":33,"articulation":"collegno","articulation_tags":["collegno","cl","short"],"duration":0.125,"velocity":127.5},
{"position":272.1145833333333,"instrument":"TheGrandeurPiano","level2":14,"level3":null,"pitch":56,"articulation":"standard","articulation_tags":["standard","long"],"duration":1.8818897637795275,"velocity":112.62610445017748},
{"position":272.1458333333333,"instrument":"Marimba","level2":13,"level3":0,"pitch":43,"articulation":"hits","articulation_tags":["hits","short"],"duration":0.0625,"velocity":106.01388254828584},
{"position":272.4791666666667,"instrument":"Contrabass","level2":16,"level3":1,"pitch":28,"articulation":"collegno","articulation_tags":["collegno","cl","short"],"duration":0.125,"velocity":127.5},
{"position":272.5208333333333,"instrument":"TheGrandeurPiano","level2":15,"level3":null,"pitch":37,"articulation":"standard","articulation_tags":["standard","long"],"duration":0.5833333333333334,"velocity":117.54661032321359},
{"position":272.5416666666667,"instrument":"Cello","level2":13,"level3":3,"pitch":39,"articulation":"staccato","articulation_tags":["staccato","st","short"],"duration":0.125,"velocity":106.01388254828584},
{"position":272.5729166666667,"instrument":"TheGrandeurPiano","level2":13,"level3":null,"pitch":47,"articulation":"standard","articulation_tags":["standard","long"],"duration":1.1111111111111112,"velocity":101.288933364369},
{"position":272.59375,"instrument":"Marimba","level2":13,"level3":1,"pitch":38,"articulation":"hits","articulation_tags":["hits","short"],"duration":0.0625,"velocity":105.88937316820578},
{"position":272.6145833333333,"instrument":"TheGrandeurPiano","level2":15,"level3":null,"pitch":37,"articulation":"standard","articulation_tags":["standard","long"],"duration":1.2847222222222223,"velocity":118.67323701683273},
{"position":272.84375,"instrument":"Clarinet","level2":14,"level3":1,"pitch":53,"articulation":"trill_2M","articulation_tags":["trill_2M","long","trill","M2"],"duration":27.489583333333332,"velocity":86.72169962807216},
{"position":273.1666666666667,"instrument":"TheGrandeurPiano","level2":14,"level3":null,"pitch":56,"articulation":"standard","articulation_tags":["standard","long"],"duration":0.8402777777777778,"velocity":114.32361855929418},
{"position":273.3125,"instrument":"TheGrandeurPiano","level2":13,"level3":null,"pitch":46,"articulation":"standard","articulation_tags":["standard","long"],"duration":1.0069444444444444,"velocity":100.77460112965501},
{"position":273.3229166666667,"instrument":"Contrabass","level2":15,"level3":0,"pitch":33,"articulation":"collegno","articulation_tags":["collegno","cl","short"],"duration":0.125,"velocity":127.5},
{"position":273.3958333333333,"instrument":"TheGrandeurPiano","level2":15,"level3":null,"pitch":38,"articulation":"standard","articulation_tags":["standard","long"],"duration":0.625,"velocity":118.76662719577352},
{"position":273.6875,"instrument":"Contrabass","level2":15,"level3":1,"pitch":35,"articulation":"collegno","articulation_tags":["collegno","cl","short"],"duration":0.125,"velocity":127.5},
{"position":273.8125,"instrument":"Cello","level2":13,"level3":4,"pitch":41,"articulation":"staccato","articulation_tags":["staccato","st","short"],"duration":0.125,"velocity":106.54609162194663},
{"position":273.8125,"instrument":"Cello","level2":13,"level3":5,"pitch":40,"articulation":"staccato","articulation_tags":["staccato","st","short"],"duration":0.125,"velocity":106.54609162194663},
{"position":273.8333333333333,"instrument":"Cello","level2":13,"level3":4,"pitch":41,"articulation":"staccato","articulation_tags":["staccato","st","short"],"duration":0.125,"velocity":106.54609162194663},
{"position":274.1145833333333,"instrument":"Marimba","level2":13,"level3":2,"pitch":42,"articulation":"hits","articulation_tags":["hits","short"],"duration":0.0625,"velocity":106.54609162194663},
{"position":274.1354166666667,"instrument":"Clarinet","level2":14,"level3":1,"pitch":52,"articulation":"trill_2M","articulation_tags":["trill_2M","long","trill","M2"],"duration":3.6666666666666665,"velocity":87.80815643415518},
{"position":274.1979166666667,"instrument":"CorAnglais","level2":14,"level3":2,"pitch":53,"articulation":"trill_2m","articulation_tags":["trill_2m","long","trill","m2"],"duration":0.5416666666666666,"velocity":87.80815643415518},
{"position":274.1979166666667,"instrument":"Marimba","level2":14,"level3":3,"pitch":53,"articulation":"hits","articulation_tags":["hits","short"],"duration":0.0625,"velocity":107.9040782170776},
{"position":274.2083333333333,"instrument":"Marimba","level2":14,"level3":3,"pitch":53,"articulation":"hits","articulation_tags":["hits","short"],"duration":0.0625,"velocity":107.9040782170776},
{"position":274.21875,"instrument":"Marimba","level2":13,"level3":5,"pitch":40,"articulation":"hits","articulation_tags":["hits","short"],"duration":0.0625,"velocity":106.54609162194663},
{"position":274.2291666666667,"instrument":"Vibraphone","level2":14,"level3":0,"pitch":55,"articulation":"hits","articulation_tags":["hits","short"],"duration":0.0625,"velocity":107.9040782170776},
{"position":274.2395833333333,"instrument":"TheGrandeurPiano","level2":13,"level3":null,"pitch":46,"articulation":"standard","articulation_tags":["standard","long"],"duration":1.2986111111111112,"velocity":105.2178042652896},
{"position":274.3333333333333,"instrument":"TheGrandeurPiano","level2":15,"level3":null,"pitch":38,"articulation":"standard","articulation_tags":["standard","long"],"duration":0.6597222222222222,"velocity":119.32361855929418},
{"position":274.34375,"instrument":"Marimba","level2":14,"level3":3,"pitch":53,"articulation":"hits","articulation_tags":["hits","short"],"duration":0.0625,"velocity":107.9040782170776},
{"position":274.4270833333333,"instrument":"TheGrandeurPiano","level2":14,"level3":null,"pitch":56,"articulation":"standard","articulation_tags":["standard","long"],"duration":0.9027777777777778,"velocity":114.617736206353},
{"position":274.5416666666667,"instrument":"TheGrandeurPiano","level2":15,"level3":null,"pitch":38,"articulation":"standard","articulation_tags":["standard","long"],"duration":1.3888888888888888,"velocity":121.64533990979692},
{"position":274.6145833333333,"instrument":"Marimba","level2":13,"level3":4,"pitch":41,"articulation":"hits","articulation_tags":["hits","short"],"duration":0.0625,"velocity":106.4364314521525},
{"position":274.625,"instrument":"Marimba","level2":13,"level3":4,"pitch":41,"articulation":"hits","articulation_tags":["hits","short"],"duration":0.0625,"velocity":106.4364314521525},
{"position":274.7291666666667,"instrument":"Marimba","level2":13,"level3":5,"pitch":40,"articulation":"hits","articulation_tags":["hits","short"],"duration":0.0625,"velocity":106.4364314521525},
{"position":274.7395833333333,"instrument":"CorAnglais","level2":14,"level3":2,"pitch":53,"articulation":"trill_2m","articulation_tags":["trill_2m","long","trill","m2"],"duration":1.75,"velocity":88.90283733152725},
{"position":274.8333333333333,"instrument":"TheGrandeurPiano","level2":13,"level3":null,"pitch":46,"articulation":"standard","articulation_tags":["standard","long"],"duration":1.0486111111111112,"velocity":104.16138907121416},
{"position":275.3229166666667,"instrument":"TheGrandeurPiano","level2":15,"level3":null,"pitch":39,"articulation":"standard","articulation_tags":["standard","long"],"duration":0.6944444444444444,"velocity":119.85450818272388},
{"position":275.4479166666667,"instrument":"Marimba","level2":14,"level3":3,"pitch":53,"articulation":"hits","articulation_tags":["hits","short"],"duration":0.0625,"velocity":108.45141866576363},
{"position":275.5625,"instrument":"Contrabass","level2":15,"level3":0,"pitch":33,"articulation":"collegno","articulation_tags":["collegno","cl","short"],"duration":0.125,"velocity":127.5},
{"position":275.5833333333333,"instrument":"Marimba","level2":13,"level3":3,"pitch":38,"articulation":"hits","articulation_tags":["hits","short"],"duration":0.0625,"velocity":107.09559232807403},
{"position":275.78125,"instrument":"TheGrandeurPiano","level2":14,"level3":null,"pitch":56,"articulation":"standard","articulation_tags":["standard","long"],"duration":0.9722222222222222,"velocity":116.54978333454929},
{"position":276.09375,"instrument":"TheGrandeurPiano","level2":14,"level3":null,"pitch":57,"articulation":"standard","articulation_tags":["standard","long"],"duration":1.8976377952755905,"velocity":118.22854335931298},
{"position":276.1145833333333,"instrument":"Marimba","level2":13,"level3":0,"pitch":43,"articulation":"hits","articulation_tags":["hits","short"],"duration":0.0625,"velocity":107.09559232807403},
{"position":276.1770833333333,"instrument":"TheGrandeurPiano","level2":13,"level3":null,"pitch":46,"articulation":"standard","articulation_tags":["standard","long"],"duration":1.5555555555555556,"velocity":106.40848546562012},
{"position":276.1979166666667,"instrument":"Marimba","level2":14,"level3":3,"pitch":52,"articulation":"hits","articulation_tags":["hits","short"],"duration":0.0625,"velocity":108.63407265060707},
{"position":276.2395833333333,"instrument":"Marimba","level2":13,"level3":5,"pitch":39,"articulation":"hits","articulation_tags":["hits","short"],"duration":0.0625,"velocity":107.00037032299488},
{"position":276.28125,"instrument":"Contrabass","level2":16,"level3":0,"pitch":27,"articulation":"pizzicato","articulation_tags":["pizzicato","pz","short"],"duration":0.125,"velocity":127.5},
{"position":276.3333333333333,"instrument":"Marimba","level2":13,"level3":3,"pitch":38,"articulation":"hits","articulation_tags":["hits","short"],"duration":0.0625,"velocity":107.00037032299488},
{"position":276.3645833333333,"instrument":"TheGrandeurPiano","level2":15,"level3":null,"pitch":39,"articulation":"standard","articulation_tags":["standard","long"],"duration":0.7361111111111112,"velocity":121.90915895082384},
{"position":276.40625,"instrument":"TheGrandeurPiano","level2":13,"level3":null,"pitch":45,"articulation":"standard","articulation_tags":["standard","long"],"duration":1.0902777777777777,"velocity":105.94231856715328},
{"position":276.4479166666667,"instrument":"TheGrandeurPiano","level2":16,"level3":null,"pitch":28,"articulation":"standard","articulation_tags":["standard","long"],"duration":1.4409448818897639,"velocity":123.96798248023562},
{"position":276.4479166666667,"instrument":"Marimba","level2":13,"level3":4,"pitch":42,"articulation":"hits","articulation_tags":["hits","short"],"duration":0.0625,"velocity":107.66158534793283},
{"position":276.4895833333333,"instrument":"CorAnglais","level2":14,"level3":2,"pitch":53,"articulation":"trill_2m","articulation_tags":["trill_2m","long","trill","m2"],"duration":2.8229166666666665,"velocity":89.26814530121415},
{"position":276.6145833333333,"instrument":"Contrabass","level2":16,"level3":1,"pitch":29,"articulation":"collegno","articulation_tags":["collegno","cl","short"],"duration":0.125,"velocity":127.5},
{"position":276.625,"instrument":"TheGrandeurPiano","level2":15,"level3":null,"pitch":39,"articulation":"standard","articulation_tags":["standard","long"],"duration":1.4791666666666667,"velocity":121.3512222627381},
{"position":276.6666666666667,"instrument":"Contrabass","level2":16,"level3":3,"pitch":29,"articulation":"collegno","articulation_tags":["collegno","cl","short"],"duration":0.125,"velocity":127.5},
{"position":276.6770833333333,"instrument":"Marimba","level2":12,"level3":6,"pitch":36,"articulation":"hits","articulation_tags":["hits","short"],"duration":0.0625,"velocity":127.5},
{"position":276.8645833333333,"instrument":"Contrabass","level2":16,"level3":2,"pitch":28,"articulation":"pizzicato","articulation_tags":["pizzicato","pz","short"],"duration":0.125,"velocity":127.5},
{"position":276.8854166666667,"instrument":"Marimba","level2":13,"level3":1,"pitch":38,"articulation":"hits","articulation_tags":["hits","short"],"duration":0.0625,"velocity":107.66158534793283},
{"position":277.0416666666667,"instrument":"Marimba","level2":14,"level3":2,"pitch":54,"articulation":"hits","articulation_tags":["hits","short"],"duration":0.0625,"velocity":108.63407265060707},
{"position":277.2395833333333,"instrument":"TheGrandeurPiano","level2":14,"level3":null,"pitch":57,"articulation":"standard","articulation_tags":["standard","long"],"duration":1.0555555555555556,"velocity":118.08562953905914},
{"position":277.2916666666667,"instrument":"Bassoon","level2":12,"level3":6,"pitch":35,"articulation":"legato","articulation_tags":["legato","lg"],"duration":42.0625,"velocity":127.0},
{"position":277.46875,"instrument":"TheGrandeurPiano","level2":15,"level3":null,"pitch":40,"articulation":"standard","articulation_tags":["standard","long"],"duration":0.7777777777777778,"velocity":122.05207277107769},
{"position":277.5729166666667,"instrument":"Marimba","level2":13,"level3":6,"pitch":41,"articulation":"hits","articulation_tags":["hits","short"],"duration":0.0625,"velocity":107.66158534793283},
{"position":277.5729166666667,"instrument":"Marimba","level2":13,"level3":7,"pitch":40,"articulation":"hits","articulation_tags":["hits","short"],"duration":0.0625,"velocity":107.66158534793283},
{"position":277.5729166666667,"instrument":"Cello","level2":13,"level3":1,"pitch":38,"articulation":"spiccato","articulation_tags":["spiccato","sp","short"],"duration":0.125,"velocity":107.66158534793283},
{"position":277.5833333333333,"instrument":"Cello","level2":13,"level3":7,"pitch":40,"articulation":"staccato","articulation_tags":["staccato","st","short"],"duration":0.125,"velocity":107.66158534793283},
{"position":277.6666666666667,"instrument":"Marimba","level2":13,"level3":2,"pitch":43,"articulation":"hits","articulation_tags":["hits","short"],"duration":0.0625,"velocity":107.66158534793283},
{"position":277.8020833333333,"instrument":"Clarinet","level2":14,"level3":1,"pitch":52,"articulation":"trill_2M","articulation_tags":["trill_2M","long","trill","M2"],"duration":4.125,"velocity":90.38920037913574},
{"position":277.8229166666667,"instrument":"Marimba","level2":14,"level3":0,"pitch":55,"articulation":"hits","articulation_tags":["hits","short"],"duration":0.0625,"velocity":109.19460018956786},
{"position":277.8229166666667,"instrument":"Marimba","level2":13,"level3":5,"pitch":39,"articulation":"hits","articulation_tags":["hits","short"],"duration":0.0625,"velocity":107.66158534793283},
{"position":277.9791666666667,"instrument":"Marimba","level2":13,"level3":6,"pitch":41,"articulation":"hits","articulation_tags":["hits","short"],"duration":0.0625,"velocity":107.66158534793283},
{"position":278.0416666666667,"instrument":"TheGrandeurPiano","level2":13,"level3":null,"pitch":45,"articulation":"standard","articulation_tags":["standard","long"],"duration":1.125,"velocity":108.86742953347482},
{"position":278.0729166666667,"instrument":"Contrabass","level2":15,"level3":0,"pitch":33,"articulation":"collegno","articulation_tags":["collegno","cl","short"],"duration":0.125,"velocity":127.5},
{"position":278.1145833333333,"instrument":"Cello","level2":13,"level3":7,"pitch":40,"articulation":"staccato","articulation_tags":["staccato","st","short"],"duration":0.125,"velocity":108.323014376433},
{"position":278.3958333333333,"instrument":"Marimba","level2":13,"level3":7,"pitch":40,"articulation":"hits","articulation_tags":["hits","short"],"duration":0.0625,"velocity":108.323014376433},
{"position":278.5104166666667,"instrument":"Marimba","level2":13,"level3":4,"pitch":42,"articulation":"hits","articulation_tags":["hits","short"],"duration":0.0625,"velocity":108.323014376433},
{"position":278.5104166666667,"instrument":"TheGrandeurPiano","level2":13,"level3":null,"pitch":45,"articulation":"standard","articulation_tags":["standard","long"],"duration":1.7086614173228347,"velocity":107.9253165121984},
{"position":278.6354166666667,"instrument":"TheGrandeurPiano","level2":15,"level3":null,"pitch":40,"articulation":"standard","articulation_tags":["standard","long"],"duration":0.8194444444444444,"velocity":123.76821952430365},
{"position":278.6979166666667,"instrument":"Cello","level2":15,"level3":1,"pitch":36,"articulation":"collegno","articulation_tags":["collegno","cl","short"],"duration":0.125,"velocity":127.5},
{"position":278.7291666666667,"instrument":"Contrabass","level2":15,"level3":3,"pitch":35,"articulation":"collegno","articulation_tags":["collegno","cl","short"],"duration":0.125,"velocity":127.5},
{"position":278.8229166666667,"instrument":"TheGrandeurPiano","level2":14,"level3":null,"pitch":57,"articulation":"standard","articulation_tags":["standard","long"],"duration":1.1388888888888888,"velocity":119.16404672263324},
{"position":278.8541666666667,"instrument":"Contrabass","level2":15,"level3":2,"pitch":33,"articulation":"collegno","articulation_tags":["collegno","cl","short"],"duration":0.125,"velocity":127.5},
{"position":278.8541666666667,"instrument":"TheGrandeurPiano","level2":15,"level3":null,"pitch":40,"articulation":"standard","articulation_tags":["standard","long"],"duration":1.5625,"velocity":122.10522319322146},
{"position":279.1458333333333,"instrument":"Marimba","level2":13,"level3":0,"pitch":43,"articulation":"hits","articulation_tags":["hits","short"],"duration":0.0625,"velocity":108.24329803371259},
{"position":279.1875,"instrument":"Marimba","level2":13,"level3":2,"pitch":43,"articulation":"hits","articulation_tags":["hits","short"],"duration":0.0625,"velocity":108.24329803371259},
{"position":279.2395833333333,"instrument":"Marimba","level2":13,"level3":8,"pitch":41,"articulation":"hits","articulation_tags":["hits","short"],"duration":0.0625,"velocity":108.24329803371259},
{"position":279.2395833333333,"instrument":"Cello","level2":13,"level3":9,"pitch":40,"articulation":"spiccato","articulation_tags":["spiccato","sp","short"],"duration":0.125,"velocity":108.24329803371259},
{"position":279.2708333333333,"instrument":"Contrabass","level2":16,"level3":4,"pitch":29,"articulation":"collegno","articulation_tags":["collegno","cl","short"],"duration":0.125,"velocity":127.5},
{"position":279.2708333333333,"instrument":"Contrabass","level2":16,"level3":5,"pitch":29,"articulation":"collegno","articulation_tags":["collegno","cl","short"],"duration":0.125,"velocity":127.5},
{"position":279.2708333333333,"instrument":"Marimba","level2":14,"level3":3,"pitch":52,"articulation":"hits","articulation_tags":["hits","short"],"duration":0.0625,"velocity":109.75859166646967},
{"position":279.2708333333333,"instrument":"Vibraphone","level2":14,"level3":2,"pitch":53,"articulation":"hits","articulation_tags":["hits","short"],"duration":0.0625,"velocity":109.75859166646967},
{"position":279.28125,"instrument":"Contrabass","level2":16,"level3":5,"pitch":29,"articulation":"collegno","articulation_tags":["collegno","cl","short"],"duration":0.125,"velocity":127.5},
{"position":279.3020833333333,"instrument":"CorAnglais","level2":14,"level3":2,"pitch":53,"articulation":"trill_2m","articulation_tags":["trill_2m","long","trill","m2"],"duration":3.9166666666666665,"velocity":91.51718333293934},
{"position":279.34375,"instrument":"Marimba","level2":13,"level3":9,"pitch":40,"articulation":"hits","articulation_tags":["hits","short"],"duration":0.0625,"velocity":108.24329803371259},
{"position":279.3645833333333,"instrument":"Marimba","level2":13,"level3":6,"pitch":42,"articulation":"hits","articulation_tags":["hits","short"],"duration":0.0625,"velocity":108.24329803371259},
{"position":279.3854166666667,"instrument":"Cello","level2":13,"level3":4,"pitch":42,"articulation":"staccato","articulation_tags":["staccato","st","short"],"duration":0.125,"velocity":108.24329803371259},
{"position":279.46875,"instrument":"Contrabass","level2":16,"level3":1,"pitch":29,"articulation":"collegno","articulation_tags":["collegno","cl","short"],"duration":0.125,"velocity":127.5},
{"position":279.59375,"instrument":"Marimba","level2":13,"level3":8,"pitch":41,"articulation":"hits","articulation_tags":["hits","short"],"duration":0.0625,"velocity":108.24329803371259},
{"position":279.625,"instrument":"Contrabass","level2":16,"level3":4,"pitch":29,"articulation":"collegno","articulation_tags":["collegno","cl","short"],"duration":0.125,"velocity":127.5},
{"position":279.7291666666667,"instrument":"TheGrandeurPiano","level2":13,"level3":null,"pitch":44,"articulation":"standard","articulation_tags":["standard","long"],"duration":1.1597222222222223,"velocity":108.99881945763947},
{"position":279.7916666666667,"instrument":"Contrabass","level2":15,"level3":3,"pitch":35,"articulation":"collegno","articulation_tags":["collegno","cl","short"],"duration":0.125,"velocity":127.5},
{"position":279.84375,"instrument":"Cello","level2":13,"level3":9,"pitch":40,"articulation":"spiccato","articulation_tags":["spiccato","sp","short"],"duration":0.125,"velocity":108.90635871099614},
{"position":279.8541666666667,"instrument":"Contrabass","level2":16,"level3":5,"pitch":29,"articulation":"collegno","articulation_tags":["collegno","cl","short"],"duration":0.125,"velocity":127.5},
{"position":279.8645833333333,"instrument":"TheGrandeurPiano","level2":15,"level3":null,"pitch":41,"articulation":"standard","articulation_tags":["standard","long"],"duration":0.8541666666666666,"velocity":124.48051088859583},
{"position":279.9375,"instrument":"Contrabass","level2":16,"level3":3,"pitch":29,"articulation":"collegno","articulation_tags":["collegno","cl","short"],"duration":0.125,"velocity":127.5},
{"position":280.03125,"instrument":"Contrabass","level2":16,"level3":0,"pitch":27,"articulation":"pizzicato","articulation_tags":["pizzicato","pz","short"],"duration":0.125,"velocity":127.5},
{"position":280.0729166666667,"instrument":"Contrabass","level2":16,"level3":5,"pitch":29,"articulation":"collegno","articulation_tags":["collegno","cl","short"],"duration":0.125,"velocity":127.5},
{"position":280.09375,"instrument":"Contrabass","level2":12,"level3":5,"pitch":32,"articulation":"short_hrm","articulation_tags":["short_hrm","hrm_s","short","harmonics"],"duration":0.125,"velocity":127.5},
{"position":280.53125,"instrument":"TheGrandeurPiano","level2":14,"level3":null,"pitch":57,"articulation":"standard","articulation_tags":["standard","long"],"duration":1.2361111111111112,"velocity":120.23205914006412},
{"position":280.7395833333333,"instrument":"Marimba","level2":13,"level3":3,"pitch":38,"articulation":"hits","articulation_tags":["hits","short"],"duration":0.0625,"velocity":108.90635871099614},
{"position":280.84375,"instrument":"Contrabass","level2":16,"level3":2,"pitch":28,"articulation":"pizzicato","articulation_tags":["pizzicato","pz","short"],"duration":0.125,"velocity":127.5},
{"position":280.8854166666667,"instrument":"Contrabass","level2":16,"level3":4,"pitch":29,"articulation":"pizzicato","articulation_tags":["pizzicato","pz","short"],"duration":0.125,"velocity":127.5},
{"position":280.9375,"instrument":"Marimba","level2":13,"level3":7,"pitch":40,"articulation":"hits","articulation_tags":["hits","short"],"duration":0.0625,"velocity":108.90635871099614},
{"position":280.9583333333333,"instrument":"Marimba","level2":14,"level3":3,"pitch":52,"articulation":"hits","articulation_tags":["hits","short"],"duration":0.0625,"velocity":110.3258941590425},
{"position":281.0,"instrument":"Contrabass","level2":16,"level3":3,"pitch":30,"articulation":"collegno","articulation_tags":["collegno","cl","short"],"duration":0.125,"velocity":127.5},
{"position":281.0104166666667,"instrument":"Contrabass","level2":15,"level3":4,"pitch":34,"articulation":"collegno","articulation_tags":["collegno","cl","short"],"duration":0.125,"velocity":127.5},
{"position":281.0104166666667,"instrument":"Contrabass","level2":15,"level3":5,"pitch":35,"articulation":"collegno","articulation_tags":["collegno","cl","short"],"duration":0.125,"velocity":127.5},
{"position":281.0416666666667,"instrument":"Contrabass","level2":15,"level3":5,"pitch":35,"articulation":"collegno","articulation_tags":["collegno","cl","short"],"duration":0.125,"velocity":127.5},
{"position":281.1041666666667,"instrument":"Cello","level2":13,"level3":7,"pitch":39,"articulation":"staccato","articulation_tags":["staccato","st","short"],"duration":0.125,"velocity":108.90635871099614},
{"position":281.125,"instrument":"Cello","level2":13,"level3":0,"pitch":44,"articulation":"short_marcato","articulation_tags":["short_marcato","marcato_s","short","marcato"],"duration":0.125,"velocity":108.90635871099614},
{"position":281.1458333333333,"instrument":"TheGrandeurPiano","level2":15,"level3":null,"pitch":41,"articulation":"standard","articulation_tags":["standard","long"],"duration":0.8958333333333334,"velocity":124.89495805485193},
{"position":281.1875,"instrument":"Contrabass","level2":15,"level3":4,"pitch":34,"articulation":"collegno","articulation_tags":["collegno","cl","short"],"duration":0.125,"velocity":127.5},
{"position":281.1979166666667,"instrument":"TheGrandeurPiano","level2":15,"level3":null,"pitch":41,"articulation":"standard","articulation_tags":["standard","long"],"duration":1.6388888888888888,"velocity":124.6008404077931},
{"position":281.2916666666667,"instrument":"Marimba","level2":13,"level3":9,"pitch":40,"articulation":"hits","articulation_tags":["hits","short"],"duration":0.0625,"velocity":108.90635871099614},
{"position":281.4479166666667,"instrument":"Marimba","level2":13,"level3":8,"pitch":42,"articulation":"hits","articulation_tags":["hits","short"],"duration":0.0625,"velocity":108.90635871099614},
{"position":281.4583333333333,"instrument":"TheGrandeurPiano","level2":13,"level3":null,"pitch":44,"articulation":"standard","articulation_tags":["standard","long"],"duration":1.6929133858267718,"velocity":107.61159102200233},
{"position":281.46875,"instrument":"TheGrandeurPiano","level2":13,"level3":null,"pitch":44,"articulation":"standard","articulation_tags":["standard","long"],"duration":1.1875,"velocity":110.69441839690566},
{"position":281.5833333333333,"instrument":"Contrabass","level2":16,"level3":5,"pitch":29,"articulation":"collegno","articulation_tags":["collegno","cl","short"],"duration":0.125,"velocity":127.5},
{"position":281.6041666666667,"instrument":"Cello","level2":14,"level3":4,"pitch":52,"articulation":"long_flt","articulation_tags":["long_flt","flt","long","flautando"],"duration":0.3125,"velocity":92.65178831808501},
{"position":281.6041666666667,"instrument":"Cello","level2":14,"level3":5,"pitch":52,"articulation":"long_flt","articulation_tags":["long_flt","flt","long","flautando"],"duration":0.09375,"velocity":92.65178831808501},
{"position":281.6041666666667,"instrument":"TheGrandeurPiano","level2":14,"level3":null,"pitch":57,"articulation":"standard","articulation_tags":["standard","long"],"duration":1.8976377952755905,"velocity":122.4952242555787},
{"position":281.6666666666667,"instrument":"Cello","level2":13,"level3":1,"pitch":38,"articulation":"spiccato","articulation_tags":["spiccato","sp","short"],"duration":0.125,"velocity":109.50436197806829},
{"position":281.6979166666667,"instrument":"Cello","level2":13,"level3":6,"pitch":42,"articulation":"staccato","articulation_tags":["staccato","st","short"],"duration":0.125,"velocity":109.50436197806829},
{"position":281.6979166666667,"instrument":"Viola","level2":14,"level3":5,"pitch":52,"articulation":"long_flt","articulation_tags":["long_flt","flt","long","flautando"],"duration":2.7395833333333335,"velocity":91.96368682955163},
{"position":281.7291666666667,"instrument":"Contrabass","level2":15,"level3":5,"pitch":35,"articulation":"collegno","articulation_tags":["collegno","cl","short"],"duration":0.125,"velocity":127.21042148448892},
{"position":281.84375,"instrument":"Contrabass","level2":12,"level3":4,"pitch":34,"articulation":"staccato","articulation_tags":["staccato","st","short"],"duration":0.125,"velocity":127.5},
{"position":281.84375,"instrument":"TheGrandeurPiano","level2":16,"level3":null,"pitch":28,"articulation":"standard","articulation_tags":["standard","long"],"duration":1.4409448818897639,"velocity":126.41615636410322},
{"position":281.9166666666667,"instrument":"Cello","level2":14,"level3":4,"pitch":52,"articulation":"long_flt","articulation_tags":["long_flt","flt","long","flautando"],"duration":2.4895833333333335,"velocity":91.96368682955163},
{"position":281.9270833333333,"instrument":"Marimba","level2":13,"level3":5,"pitch":39,"articulation":"hits","articulation_tags":["hits","short"],"duration":0.0625,"velocity":109.50436197806829},
{"position":281.9375,"instrument":"Clarinet","level2":14,"level3":1,"pitch":51,"articulation":"trill_2M","articulation_tags":["trill_2M","long","trill","M2"],"duration":4.802083333333333,"velocity":91.96368682955163},
{"position":281.9583333333333,"instrument":"Marimba","level2":13,"level3":5,"pitch":39,"articulation":"hits","articulation_tags":["hits","short"],"duration":0.0625,"velocity":109.50436197806829},
{"position":282.1666666666667,"instrument":"Cello","level2":14,"level3":0,"pitch":55,"articulation":"long_cs","articulation_tags":["long_cs","cs","long","consordina"],"duration":5.21875,"velocity":91.96368682955163},
{"position":282.1666666666667,"instrument":"Cello","level2":14,"level3":5,"pitch":52,"articulation":"long_slt","articulation_tags":["long_slt","slt","long","sultasto"],"duration":17.65625,"velocity":91.96368682955163},
{"position":282.3854166666667,"instrument":"TheGrandeurPiano","level2":14,"level3":null,"pitch":57,"articulation":"standard","articulation_tags":["standard","long"],"duration":1.3402777777777777,"velocity":122.54201687838133},
{"position":282.4166666666667,"instrument":"Contrabass","level2":13,"level3":2,"pitch":43,"articulation":"staccato","articulation_tags":["staccato","st","short"],"duration":0.125,"velocity":109.50436197806829},
{"position":282.4895833333333,"instrument":"TheGrandeurPiano","level2":15,"level3":null,"pitch":42,"articulation":"standard","articulation_tags":["standard","long"],"duration":0.9375,"velocity":124.6008404077931},
{"position":282.9270833333333,"instrument":"Contrabass","level2":15,"level3":4,"pitch":34,"articulation":"collegno","articulation_tags":["collegno","cl","short"],"duration":0.125,"velocity":126.75524791453789},
{"position":282.9791666666667,"instrument":"Contrabass","level2":15,"level3":5,"pitch":35,"articulation":"collegno","articulation_tags":["collegno","cl","short"],"duration":0.125,"velocity":126.75524791453789},
{"position":283.1458333333333,"instrument":"Viola","level2":14,"level3":3,"pitch":51,"articulation":"legato","articulation_tags":["legato","lg"],"duration":4.53125,"velocity":93.11480544541443},
{"position":283.1770833333333,"instrument":"Contrabass","level2":12,"level3":3,"pitch":32,"articulation":"short_hrm","articulation_tags":["short_hrm","hrm_s","short","harmonics"],"duration":0.125,"velocity":127.5},
{"position":283.2083333333333,"instrument":"Contrabass","level2":16,"level3":2,"pitch":28,"articulation":"pizzicato","articulation_tags":["pizzicato","pz","short"],"duration":0.125,"velocity":127.5},
{"position":283.21875,"instrument":"CorAnglais","level2":14,"level3":2,"pitch":53,"articulation":"trill_2m","articulation_tags":["trill_2m","long","trill","m2"],"duration":5.270833333333333,"velocity":93.11480544541443},
{"position":283.21875,"instrument":"Contrabass","level2":13,"level3":9,"pitch":40,"articulation":"spiccato","articulation_tags":["spiccato","sp","short"],"duration":0.125,"velocity":109.50436197806829},
{"position":283.2395833333333,"instrument":"Contrabass","level2":12,"level3":2,"pitch":33,"articulation":"spiccato","articulation_tags":["spiccato","sp","short"],"duration":0.125,"velocity":127.5},
{"position":283.2395833333333,"instrument":"TheGrandeurPiano","level2":13,"level3":null,"pitch":43,"articulation":"standard","articulation_tags":["standard","long"],"duration":1.2152777777777777,"velocity":108.41839334776178},
{"position":283.3333333333333,"instrument":"Contrabass","level2":15,"level3":4,"pitch":34,"articulation":"collegno","articulation_tags":["collegno","cl","short"],"duration":0.125,"velocity":126.75524791453789},
{"position":283.5104166666667,"instrument":"Contrabass","level2":16,"level3":5,"pitch":30,"articulation":"collegno","articulation_tags":["collegno","cl","short"],"duration":0.125,"velocity":127.5},
{"position":283.65625,"instrument":"TheGrandeurPiano","level2":15,"level3":null,"pitch":42,"articulation":"standard","articulation_tags":["standard","long"],"duration":1.6614173228346456,"velocity":124.30672276073427},
{"position":283.71875,"instrument":"Contrabass","level2":13,"level3":4,"pitch":43,"articulation":"staccato","articulation_tags":["staccato","st","short"],"duration":0.125,"velocity":110.16883208180819},
{"position":283.90625,"instrument":"TheGrandeurPiano","level2":15,"level3":null,"pitch":42,"articulation":"standard","articulation_tags":["standard","long"],"duration":0.9861111111111112,"velocity":124.88227246324058},
{"position":284.1041666666667,"instrument":"Contrabass","level2":15,"level3":0,"pitch":33,"articulation":"pizzicato","articulation_tags":["pizzicato","pz","short"],"duration":0.125,"velocity":125.87112915117847},
{"position":284.2083333333333,"instrument":"Contrabass","level2":15,"level3":2,"pitch":33,"articulation":"pizzicato","articulation_tags":["pizzicato","pz","short"],"duration":0.125,"velocity":125.87112915117847},
{"position":284.3020833333333,"instrument":"Contrabass","level2":16,"level3":1,"pitch":30,"articulation":"collegno","articulation_tags":["collegno","cl","short"],"duration":0.125,"velocity":127.5},
{"position":284.3541666666667,"instrument":"Contrabass","level2":16,"level3":0,"pitch":28,"articulation":"pizzicato","articulation_tags":["pizzicato","pz","short"],"duration":0.125,"velocity":127.5},
{"position":284.3958333333333,"instrument":"TheGrandeurPiano","level2":14,"level3":null,"pitch":57,"articulation":"standard","articulation_tags":["standard","long"],"duration":1.4722222222222223,"velocity":122.00439165822088},
{"position":284.40625,"instrument":"Cello","level2":14,"level3":4,"pitch":52,"articulation":"long_flt","articulation_tags":["long_flt","flt","long","flautando"],"duration":5.677083333333333,"velocity":94.27173531586114},
{"position":284.4375,"instrument":"Viola","level2":14,"level3":5,"pitch":51,"articulation":"long_slt","articulation_tags":["long_slt","slt","long","sultasto"],"duration":4.447916666666667,"velocity":94.27173531586114},
{"position":284.5208333333333,"instrument":"Cello","level2":14,"level3":0,"pitch":54,"articulation":"long_cs","articulation_tags":["long_cs","cs","long","consordina"],"duration":9.135416666666666,"velocity":94.27173531586114},
{"position":284.6458333333333,"instrument":"Marimba","level2":13,"level3":10,"pitch":41,"articulation":"hits","articulation_tags":["hits","short"],"duration":0.0625,"velocity":110.16883208180819},
{"position":284.6458333333333,"instrument":"Marimba","level2":13,"level3":11,"pitch":41,"articulation":"hits","articulation_tags":["hits","short"],"duration":0.0625,"velocity":110.16883208180819},
{"position":284.6666666666667,"instrument":"Marimba","level2":13,"level3":10,"pitch":41,"articulation":"hits","articulation_tags":["hits","short"],"duration":0.0625,"velocity":110.16883208180819},
{"position":284.90625,"instrument":"Marimba","level2":15,"level3":1,"pitch":36,"articulation":"hits","articulation_tags":["hits","short"],"duration":0.0625,"velocity":125.87112915117847},
{"position":284.9166666666667,"instrument":"Marimba","level2":13,"level3":7,"pitch":39,"articulation":"hits","articulation_tags":["hits","short"],"duration":0.0625,"velocity":110.16883208180819},
{"position":284.9375,"instrument":"Contrabass","level2":15,"level3":1,"pitch":36,"articulation":"collegno","articulation_tags":["collegno","cl","short"],"duration":0.125,"velocity":125.87112915117847},
{"position":284.9583333333333,"instrument":"Contrabass","level2":13,"level3":11,"pitch":41,"articulation":"spiccato","articulation_tags":["spiccato","sp","short"],"duration":0.125,"velocity":110.16883208180819},
{"position":284.9895833333333,"instrument":"Contrabass","level2":16,"level3":0,"pitch":28,"articulation":"pizzicato","articulation_tags":["pizzicato","pz","short"],"duration":0.125,"velocity":127.5},
{"position":285.0520833333333,"instrument":"Contrabass","level2":13,"level3":6,"pitch":43,"articulation":"staccato","articulation_tags":["staccato","st","short"],"duration":0.125,"velocity":110.16883208180819},
{"position":285.0625,"instrument":"TheGrandeurPiano","level2":13,"level3":null,"pitch":43,"articulation":"standard","articulation_tags":["standard","long"],"duration":1.2361111111111112,"velocity":109.12717094478323},
{"position":285.0729166666667,"instrument":"Contrabass","level2":13,"level3":8,"pitch":42,"articulation":"spiccato","articulation_tags":["spiccato","sp","short"],"duration":0.125,"velocity":110.83339123329446},
{"position":285.1041666666667,"instrument":"Contrabass","level2":16,"level3":6,"pitch":29,"articulation":"collegno","articulation_tags":["collegno","cl","short"],"duration":0.125,"velocity":127.5},
{"position":285.125,"instrument":"Contrabass","level2":16,"level3":7,"pitch":29,"articulation":"collegno","articulation_tags":["collegno","cl","short"],"duration":0.125,"velocity":127.5},
{"position":285.34375,"instrument":"Contrabass","level2":16,"level3":5,"pitch":30,"articulation":"collegno","articulation_tags":["collegno","cl","short"],"duration":0.125,"velocity":127.5},
{"position":285.3854166666667,"instrument":"TheGrandeurPiano","level2":15,"level3":null,"pitch":43,"articulation":"standard","articulation_tags":["standard","long"],"duration":1.0277777777777777,"velocity":123.13905243679429},
{"position":285.4270833333333,"instrument":"Contrabass","level2":16,"level3":6,"pitch":29,"articulation":"pizzicato","articulation_tags":["pizzicato","pz","short"],"duration":0.125,"velocity":127.5},
{"position":285.5104166666667,"instrument":"Contrabass","level2":16,"level3":7,"pitch":29,"articulation":"collegno","articulation_tags":["collegno","cl","short"],"duration":0.125,"velocity":127.5},
{"position":285.625,"instrument":"TheGrandeurPiano","level2":13,"level3":null,"pitch":43,"articulation":"standard","articulation_tags":["standard","long"],"duration":1.6771653543307086,"velocity":106.66321602391153},
{"position":285.6666666666667,"instrument":"Marimba","level2":15,"level3":3,"pitch":36,"articulation":"hits","articulation_tags":["hits","short"],"duration":0.0625,"velocity":125.41937855532909},
{"position":285.6770833333333,"instrument":"Marimba","level2":13,"level3":3,"pitch":38,"articulation":"hits","articulation_tags":["hits","short"],"duration":0.0625,"velocity":110.78179299376396},
{"position":285.7708333333333,"instrument":"Contrabass","level2":16,"level3":3,"pitch":30,"articulation":"collegno","articulation_tags":["collegno","cl","short"],"duration":0.125,"velocity":127.5},
{"position":285.90625,"instrument":"Contrabass","level2":16,"level3":1,"pitch":30,"articulation":"collegno","articulation_tags":["collegno","cl","short"],"duration":0.125,"velocity":127.5},
{"position":285.9791666666667,"instrument":"Contrabass","level2":16,"level3":7,"pitch":29,"articulation":"collegno","articulation_tags":["collegno","cl","short"],"duration":0.125,"velocity":127.5},
{"position":286.1458333333333,"instrument":"TheGrandeurPiano","level2":16,"level3":null,"pitch":28,"articulation":"standard","articulation_tags":["standard","long"],"duration":1.4409448818897639,"velocity":124.25054123611861},
{"position":286.2083333333333,"instrument":"TheGrandeurPiano","level2":15,"level3":null,"pitch":43,"articulation":"standard","articulation_tags":["standard","long"],"duration":1.6771653543307086,"velocity":121.30936476553039},
{"position":286.4791666666667,"instrument":"Contrabass","level2":15,"level3":2,"pitch":32,"articulation":"pizzicato","articulation_tags":["pizzicato","pz","short"],"duration":0.125,"velocity":124.98702084760487},
{"position":286.5208333333333,"instrument":"Marimba","level2":13,"level3":11,"pitch":40,"articulation":"hits","articulation_tags":["hits","short"],"duration":0.0625,"velocity":110.78179299376396},
{"position":286.5833333333333,"instrument":"Marimba","level2":13,"level3":10,"pitch":42,"articulation":"hits","articulation_tags":["hits","short"],"duration":0.0625,"velocity":110.78179299376396},
{"position":286.6041666666667,"instrument":"TheGrandeurPiano","level2":14,"level3":null,"pitch":57,"articulation":"standard","articulation_tags":["standard","long"],"duration":1.6180555555555556,"velocity":120.59961784832794},
{"position":286.7395833333333,"instrument":"Clarinet","level2":14,"level3":1,"pitch":51,"articulation":"trill_2M","articulation_tags":["trill_2M","long","trill","M2"],"duration":5.447916666666667,"velocity":95.4342225250207},
{"position":286.75,"instrument":"Contrabass","level2":16,"level3":6,"pitch":29,"articulation":"pizzicato","articulation_tags":["pizzicato","pz","short"],"duration":0.125,"velocity":127.5},
{"position":286.7708333333333,"instrument":"Marimba","level2":13,"level3":5,"pitch":39,"articulation":"hits","articulation_tags":["hits","short"],"duration":0.0625,"velocity":110.78179299376396},
{"position":286.9166666666667,"instrument":"Contrabass","level2":16,"level3":2,"pitch":28,"articulation":"pizzicato","articulation_tags":["pizzicato","pz","short"],"duration":0.125,"velocity":127.5},
{"position":286.9166666666667,"instrument":"TheGrandeurPiano","level2":13,"level3":null,"pitch":42,"articulation":"standard","articulation_tags":["standard","long"],"duration":1.2569444444444444,"velocity":104.71973511946966},
{"position":286.9270833333333,"instrument":"Marimba","level2":13,"level3":1,"pitch":38,"articulation":"hits","articulation_tags":["hits","short"],"duration":0.0625,"velocity":111.44730608142393},
{"position":286.9270833333333,"instrument":"TheGrandeurPiano","level2":15,"level3":null,"pitch":43,"articulation":"standard","articulation_tags":["standard","long"],"duration":1.0763888888888888,"velocity":120.1747516745028},
{"position":287.09375,"instrument":"Marimba","level2":15,"level3":5,"pitch":36,"articulation":"hits","articulation_tags":["hits","short"],"duration":0.0625,"velocity":124.53510265306599},
{"position":287.3854166666667,"instrument":"Marimba","level2":14,"level3":0,"pitch":54,"articulation":"hits","articulation_tags":["hits","short"],"duration":0.0625,"velocity":111.71711126251034},
{"position":287.46875,"instrument":"Marimba","level2":15,"level3":5,"pitch":36,"articulation":"hits","articulation_tags":["hits","short"],"duration":0.0625,"velocity":124.53510265306599},
{"position":287.5,"instrument":"BassClarinet","level2":13,"level3":0,"pitch":44,"articulation":"legato","articulation_tags":["legato","lg"],"duration":7.03125,"velocity":94.89461216284785},
{"position":287.6770833333333,"instrument":"Marimba","level2":14,"level3":3,"pitch":51,"articulation":"hits","articulation_tags":["hits","short"],"duration":0.0625,"velocity":111.71711126251034},
{"position":287.7708333333333,"instrument":"Marimba","level2":13,"level3":0,"pitch":44,"articulation":"hits","articulation_tags":["hits","short"],"duration":0.0625,"velocity":111.44730608142393},
{"position":287.8645833333333,"instrument":"Marimba","level2":13,"level3":2,"pitch":43,"articulation":"hits","articulation_tags":["hits","short"],"duration":0.0625,"velocity":111.44730608142393},
{"position":287.8645833333333,"instrument":"Marimba","level2":13,"level3":9,"pitch":40,"articulation":"hits","articulation_tags":["hits","short"],"duration":0.0625,"velocity":111.44730608142393},
{"position":287.9375,"instrument":"Marimba","level2":14,"level3":6,"pitch":51,"articulation":"hits","articulation_tags":["hits","short"],"duration":0.0625,"velocity":111.71711126251034},
{"position":287.9375,"instrument":"Marimba","level2":14,"level3":7,"pitch":51,"articulation":"hits","articulation_tags":["hits","short"],"duration":0.0625,"velocity":111.71711126251034},
{"position":287.9479166666667,"instrument":"Marimba","level2":14,"level3":4,"pitch":52,"articulation":"hits","articulation_tags":["hits","short"],"duration":0.0625,"velocity":111.71711126251034},
{"position":287.9583333333333,"instrument":"Contrabass","level2":16,"level3":5,"pitch":30,"articulation":"collegno","articulation_tags":["collegno","cl","short"],"duration":0.125,"velocity":127.5},
{"position":287.9895833333333,"instrument":"Vibraphone","level2":14,"level3":8,"pitch":54,"articulation":"hits","articulation_tags":["hits","short"],"duration":0.0625,"velocity":111.71711126251034},
{"position":287.9895833333333,"instrument":"Vibraphone","level2":14,"level3":8,"pitch":54,"articulation":"hits","articulation_tags":["hits","short"],"duration":0.0625,"velocity":111.71711126251034},
{"position":287.9895833333333,"instrument":"Vibraphone","level2":14,"level3":9,"pitch":53,"articulation":"hits","articulation_tags":["hits","short"],"duration":0.0625,"velocity":111.71711126251034},
{"position":288.03125,"instrument":"Marimba","level2":14,"level3":8,"pitch":54,"articulation":"hits","articulation_tags":["hits","short"],"duration":0.0625,"velocity":111.71711126251034},
{"position":288.2291666666667,"instrument":"Marimba","level2":13,"level3":4,"pitch":43,"articulation":"hits","articulation_tags":["hits","short"],"duration":0.0625,"velocity":111.44730608142393},
{"position":288.4895833333333,"instrument":"CorAnglais","level2":14,"level3":2,"pitch":53,"articulation":"trill_2m","articulation_tags":["trill_2m","long","trill","m2"],"duration":7.635416666666667,"velocity":95.4342225250207},
{"position":288.5416666666667,"instrument":"TheGrandeurPiano","level2":15,"level3":null,"pitch":44,"articulation":"standard","articulation_tags":["standard","long"],"duration":1.125,"velocity":120.87560218284239},
{"position":288.6041666666667,"instrument":"Marimba","level2":13,"level3":8,"pitch":42,"articulation":"hits","articulation_tags":["hits","short"],"duration":0.0625,"velocity":111.44730608142393},
{"position":288.78125,"instrument":"Marimba","level2":14,"level3":8,"pitch":54,"articulation":"hits","articulation_tags":["hits","short"],"duration":0.0625,"velocity":111.71711126251034},
{"position":288.8125,"instrument":"TheGrandeurPiano","level2":13,"level3":null,"pitch":42,"articulation":"standard","articulation_tags":["standard","long"],"duration":1.2777777777777777,"velocity":105.00114209656505},
{"position":288.84375,"instrument":"TheGrandeurPiano","level2":15,"level3":null,"pitch":44,"articulation":"standard","articulation_tags":["standard","long"],"duration":1.6929133858267718,"velocity":120.14445306847091},
{"position":288.8645833333333,"instrument":"Contrabass","level2":16,"level3":7,"pitch":29,"articulation":"collegno","articulation_tags":["collegno","cl","short"],"duration":0.125,"velocity":127.5},
{"position":288.8854166666667,"instrument":"Marimba","level2":14,"level3":5,"pitch":51,"articulation":"hits","articulation_tags":["hits","short"],"duration":0.0625,"velocity":111.71711126251034},
{"position":288.9166666666667,"instrument":"Marimba","level2":14,"level3":9,"pitch":53,"articulation":"hits","articulation_tags":["hits","short"],"duration":0.0625,"velocity":111.71711126251034},
{"position":288.9583333333333,"instrument":"Marimba","level2":13,"level3":11,"pitch":40,"articulation":"hits","articulation_tags":["hits","short"],"duration":0.0625,"velocity":112.1128707952133},
{"position":289.03125,"instrument":"Marimba","level2":13,"level3":10,"pitch":42,"articulation":"hits","articulation_tags":["hits","short"],"duration":0.0625,"velocity":112.1128707952133},
{"position":289.03125,"instrument":"TheGrandeurPiano","level2":14,"level3":null,"pitch":57,"articulation":"standard","articulation_tags":["standard","long"],"duration":1.7986111111111112,"velocity":119.58651638038516},
{"position":289.0625,"instrument":"Contrabass","level2":16,"level3":7,"pitch":29,"articulation":"collegno","articulation_tags":["collegno","cl","short"],"duration":0.125,"velocity":127.5},
{"position":289.0625,"instrument":"Marimba","level2":14,"level3":9,"pitch":53,"articulation":"hits","articulation_tags":["hits","short"],"duration":0.0625,"velocity":112.30101331008618},
{"position":289.15625,"instrument":"Marimba","level2":13,"level3":2,"pitch":44,"articulation":"hits","articulation_tags":["hits","short"],"duration":0.0625,"velocity":112.1128707952133},
{"position":289.21875,"instrument":"Contrabass","level2":16,"level3":6,"pitch":29,"articulation":"pizzicato","articulation_tags":["pizzicato","pz","short"],"duration":0.125,"velocity":127.5},
{"position":289.5833333333333,"instrument":"Contrabass","level2":16,"level3":1,"pitch":30,"articulation":"collegno","articulation_tags":["collegno","cl","short"],"duration":0.125,"velocity":127.5},
{"position":289.6458333333333,"instrument":"Contrabass","level2":16,"level3":8,"pitch":30,"articulation":"collegno","articulation_tags":["collegno","cl","short"],"duration":0.125,"velocity":127.5},
{"position":289.6458333333333,"instrument":"Contrabass","level2":16,"level3":9,"pitch":30,"articulation":"collegno","articulation_tags":["collegno","cl","short"],"duration":0.125,"velocity":127.5},
{"position":289.7083333333333,"instrument":"Marimba","level2":13,"level3":7,"pitch":39,"articulation":"hits","articulation_tags":["hits","short"],"duration":0.0625,"velocity":112.1128707952133},
{"position":289.71875,"instrument":"TheGrandeurPiano","level2":14,"level3":null,"pitch":58,"articulation":"standard","articulation_tags":["standard","long"],"duration":1.9133858267716535,"velocity":119.85033542141208},
{"position":289.7395833333333,"instrument":"Marimba","level2":13,"level3":6,"pitch":43,"articulation":"hits","articulation_tags":["hits","short"],"duration":0.0625,"velocity":112.1128707952133},
{"position":289.7604166666667,"instrument":"Contrabass","level2":16,"level3":8,"pitch":30,"articulation":"collegno","articulation_tags":["collegno","cl","short"],"duration":0.125,"velocity":127.5},
{"position":289.78125,"instrument":"TheGrandeurPiano","level2":16,"level3":null,"pitch":28,"articulation":"standard","articulation_tags":["standard","long"],"duration":1.4409448818897639,"velocity":123.52266100637179},
{"position":289.8125,"instrument":"Marimba","level2":13,"level3":12,"pitch":41,"articulation":"hits","articulation_tags":["hits","short"],"duration":0.0625,"velocity":112.1128707952133},
{"position":289.8125,"instrument":"Marimba","level2":13,"level3":13,"pitch":41,"articulation":"hits","articulation_tags":["hits","short"],"duration":0.0625,"velocity":112.1128707952133},
{"position":289.8645833333333,"instrument":"Contrabass","level2":16,"level3":2,"pitch":29,"articulation":"pizzicato","articulation_tags":["pizzicato","pz","short"],"duration":0.125,"velocity":127.5},
{"position":290.0729166666667,"instrument":"Marimba","level2":13,"level3":13,"pitch":41,"articulation":"hits","articulation_tags":["hits","short"],"duration":0.0625,"velocity":112.1128707952133},
{"position":290.0833333333333,"instrument":"Marimba","level2":14,"level3":4,"pitch":52,"articulation":"hits","articulation_tags":["hits","short"],"duration":0.0625,"velocity":111.98509593580724},
{"position":290.2395833333333,"instrument":"TheGrandeurPiano","level2":15,"level3":null,"pitch":44,"articulation":"standard","articulation_tags":["standard","long"],"duration":1.1736111111111112,"velocity":118.90272451101988},
{"position":290.3645833333333,"instrument":"Marimba","level2":13,"level3":12,"pitch":41,"articulation":"hits","articulation_tags":["hits","short"],"duration":0.0625,"velocity":112.1128707952133},
{"position":290.6666666666667,"instrument":"Marimba","level2":13,"level3":4,"pitch":43,"articulation":"hits","articulation_tags":["hits","short"],"duration":0.0625,"velocity":112.1128707952133},
{"position":290.6979166666667,"instrument":"Marimba","level2":14,"level3":2,"pitch":53,"articulation":"hits","articulation_tags":["hits","short"],"duration":0.0625,"velocity":111.98509593580724},
{"position":290.7291666666667,"instrument":"Marimba","level2":14,"level3":7,"pitch":51,"articulation":"hits","articulation_tags":["hits","short"],"duration":0.0625,"velocity":111.98509593580724},
{"position":290.7291666666667,"instrument":"TheGrandeurPiano","level2":13,"level3":null,"pitch":41,"articulation":"standard","articulation_tags":["standard","long"],"duration":1.2916666666666667,"velocity":102.80951461059175},
{"position":290.75,"instrument":"Vibraphone","level2":14,"level3":8,"pitch":54,"articulation":"hits","articulation_tags":["hits","short"],"duration":0.0625,"velocity":111.98509593580724},
{"position":290.9479166666667,"instrument":"Marimba","level2":13,"level3":14,"pitch":41,"articulation":"hits","articulation_tags":["hits","short"],"duration":0.0625,"velocity":112.77848460728958},
{"position":290.9479166666667,"instrument":"Marimba","level2":13,"level3":15,"pitch":41,"articulation":"hits","articulation_tags":["hits","short"],"duration":0.0625,"velocity":112.77848460728958},
{"position":290.96875,"instrument":"Marimba","level2":13,"level3":14,"pitch":41,"articulation":"hits","articulation_tags":["hits","short"],"duration":0.0625,"velocity":112.77848460728958},
{"position":291.1354166666667,"instrument":"Marimba","level2":13,"level3":3,"pitch":38,"articulation":"hits","articulation_tags":["hits","short"],"duration":0.0625,"velocity":112.77848460728958},
{"position":291.4166666666667,"instrument":"Contrabass","level2":15,"level3":0,"pitch":33,"articulation":"pizzicato","articulation_tags":["pizzicato","pz","short"],"duration":0.125,"velocity":123.20261354729325},
{"position":291.5625,"instrument":"Marimba","level2":13,"level3":14,"pitch":41,"articulation":"hits","articulation_tags":["hits","short"],"duration":0.0625,"velocity":112.77848460728958},
{"position":291.5729166666667,"instrument":"TheGrandeurPiano","level2":15,"level3":null,"pitch":44,"articulation":"standard","articulation_tags":["standard","long"],"duration":1.6929133858267718,"velocity":118.87698561635607},
{"position":291.7291666666667,"instrument":"TheGrandeurPiano","level2":14,"level3":null,"pitch":58,"articulation":"standard","articulation_tags":["standard","long"],"duration":1.9133858267716535,"velocity":119.17110326341489},
{"position":291.7604166666667,"instrument":"Marimba","level2":13,"level3":6,"pitch":43,"articulation":"hits","articulation_tags":["hits","short"],"duration":0.0625,"velocity":112.77848460728958},
{"position":291.8854166666667,"instrument":"Marimba","level2":14,"level3":9,"pitch":52,"articulation":"hits","articulation_tags":["hits","short"],"duration":0.0625,"velocity":112.57610874465871},
{"position":292.0,"instrument":"TheGrandeurPiano","level2":15,"level3":null,"pitch":45,"articulation":"standard","articulation_tags":["standard","long"],"duration":1.2361111111111112,"velocity":118.51886260101266},
{"position":292.0833333333333,"instrument":"Cello","level2":13,"level3":15,"pitch":40,"articulation":"staccato","articulation_tags":["staccato","st","short"],"duration":0.125,"velocity":112.77848460728958},
{"position":292.1770833333333,"instrument":"Marimba","level2":14,"level3":1,"pitch":50,"articulation":"hits","articulation_tags":["hits","short"],"duration":0.0625,"velocity":112.57610874465871},
{"position":292.21875,"instrument":"Marimba","level2":13,"level3":14,"pitch":42,"articulation":"hits","articulation_tags":["hits","short"],"duration":0.0625,"velocity":112.77848460728958},
{"position":292.2395833333333,"instrument":"Marimba","level2":15,"level3":1,"pitch":37,"articulation":"hits","articulation_tags":["hits","short"],"duration":0.0625,"velocity":122.3182370544372},
{"position":292.3020833333333,"instrument":"Marimba","level2":13,"level3":5,"pitch":39,"articulation":"hits","articulation_tags":["hits","short"],"duration":0.0625,"velocity":112.77848460728958},
{"position":292.6666666666667,"instrument":"TheGrandeurPiano","level2":13,"level3":null,"pitch":41,"articulation":"standard","articulation_tags":["standard","long"],"duration":1.3055555555555556,"velocity":101.92950685540399},
{"position":292.6979166666667,"instrument":"Marimba","level2":13,"level3":1,"pitch":38,"articulation":"hits","articulation_tags":["hits","short"],"duration":0.0625,"velocity":113.44414515202327},
{"position":292.7291666666667,"instrument":"Marimba","level2":15,"level3":3,"pitch":36,"articulation":"hits","articulation_tags":["hits","short"],"duration":0.0625,"velocity":122.3182370544372},
{"position":292.7708333333333,"instrument":"Marimba","level2":13,"level3":8,"pitch":43,"articulation":"hits","articulation_tags":["hits","short"],"duration":0.0625,"velocity":113.44414515202327},
{"position":292.8125,"instrument":"Contrabass","level2":12,"level3":5,"pitch":32,"articulation":"short_hrm","articulation_tags":["short_hrm","hrm_s","short","harmonics"],"duration":0.125,"velocity":127.5},
{"position":292.8541666666667,"instrument":"Clarinet","level2":14,"level3":3,"pitch":50,"articulation":"trill_2m","articulation_tags":["trill_2m","long","trill","m2"],"duration":5.885416666666667,"velocity":97.15221748931742},
{"position":292.8645833333333,"instrument":"Marimba","level2":15,"level3":5,"pitch":36,"articulation":"hits","articulation_tags":["hits","short"],"duration":0.0625,"velocity":122.3182370544372},
{"position":292.96875,"instrument":"Marimba","level2":13,"level3":14,"pitch":42,"articulation":"hits","articulation_tags":["hits","short"],"duration":0.0625,"velocity":113.44414515202327},
{"position":292.9791666666667,"instrument":"TheGrandeurPiano","level2":16,"level3":null,"pitch":28,"articulation":"standard","articulation_tags":["standard","long"],"duration":1.4409448818897639,"velocity":120.82777284249856},
{"position":292.9791666666667,"instrument":"Marimba","level2":13,"level3":15,"pitch":40,"articulation":"hits","articulation_tags":["hits","short"],"duration":0.0625,"velocity":113.44414515202327},
{"position":293.1145833333333,"instrument":"Marimba","level2":14,"level3":7,"pitch":51,"articulation":"hits","articulation_tags":["hits","short"],"duration":0.0625,"velocity":112.57610874465871},
{"position":293.3125,"instrument":"Marimba","level2":14,"level3":4,"pitch":51,"articulation":"hits","articulation_tags":["hits","short"],"duration":0.0625,"velocity":112.57610874465871},
{"position":293.5208333333333,"instrument":"Marimba","level2":13,"level3":9,"pitch":40,"articulation":"hits","articulation_tags":["hits","short"],"duration":0.0625,"velocity":113.44414515202327},
{"position":293.65625,"instrument":"Marimba","level2":14,"level3":0,"pitch":54,"articulation":"hits","articulation_tags":["hits","short"],"duration":0.0625,"velocity":112.57610874465871},
{"position":293.7291666666667,"instrument":"Marimba","level2":14,"level3":8,"pitch":54,"articulation":"hits","articulation_tags":["hits","short"],"duration":0.0625,"velocity":112.57610874465871},
{"position":293.7708333333333,"instrument":"Marimba","level2":14,"level3":0,"pitch":54,"articulation":"hits","articulation_tags":["hits","short"],"duration":0.0625,"velocity":112.57610874465871},
{"position":293.8541666666667,"instrument":"TheGrandeurPiano","level2":15,"level3":null,"pitch":45,"articulation":"standard","articulation_tags":["standard","long"],"duration":1.2847222222222223,"velocity":118.60860686396106},
{"position":294.3645833333333,"instrument":"TheGrandeurPiano","level2":15,"level3":null,"pitch":45,"articulation":"standard","articulation_tags":["standard","long"],"duration":1.7086614173228347,"velocity":119.99324924166592},
{"position":294.375,"instrument":"Marimba","level2":13,"level3":10,"pitch":42,"articulation":"hits","articulation_tags":["hits","short"],"duration":0.0625,"velocity":113.44414515202327},
{"position":294.53125,"instrument":"Marimba","level2":13,"level3":0,"pitch":44,"articulation":"hits","articulation_tags":["hits","short"],"duration":0.0625,"velocity":113.44414515202327},
{"position":294.5416666666667,"instrument":"Marimba","level2":14,"level3":9,"pitch":52,"articulation":"hits","articulation_tags":["hits","short"],"duration":0.0625,"velocity":112.57610874465871},
{"position":294.625,"instrument":"TheGrandeurPiano","level2":13,"level3":null,"pitch":40,"articulation":"standard","articulation_tags":["standard","long"],"duration":1.3194444444444444,"velocity":104.71973511946966},
{"position":294.6458333333333,"instrument":"Marimba","level2":14,"level3":5,"pitch":50,"articulation":"hits","articulation_tags":["hits","short"],"duration":0.0625,"velocity":112.57610874465871},
{"position":294.7708333333333,"instrument":"Marimba","level2":13,"level3":2,"pitch":44,"articulation":"hits","articulation_tags":["hits","short"],"duration":0.0625,"velocity":114.10985021320477},
{"position":294.78125,"instrument":"TheGrandeurPiano","level2":14,"level3":null,"pitch":58,"articulation":"standard","articulation_tags":["standard","long"],"duration":1.9133858267716535,"velocity":120.1747516745028},
{"position":294.9479166666667,"instrument":"Marimba","level2":13,"level3":4,"pitch":43,"articulation":"hits","articulation_tags":["hits","short"],"duration":0.0625,"velocity":114.10985021320477},
{"position":294.96875,"instrument":"Marimba","level2":13,"level3":8,"pitch":43,"articulation":"hits","articulation_tags":["hits","short"],"duration":0.0625,"velocity":114.10985021320477},
{"position":294.9895833333333,"instrument":"Marimba","level2":13,"level3":11,"pitch":40,"articulation":"hits","articulation_tags":["hits","short"],"duration":0.0625,"velocity":114.10985021320477},
{"position":295.1145833333333,"instrument":"Contrabass","level2":15,"level3":7,"pitch":35,"articulation":"collegno","articulation_tags":["collegno","cl","short"],"duration":0.125,"velocity":121.43386200578767},
{"position":295.25,"instrument":"Marimba","level2":13,"level3":7,"pitch":39,"articulation":"hits","articulation_tags":["hits","short"],"duration":0.0625,"velocity":114.10985021320477},
{"position":295.3229166666667,"instrument":"Contrabass","level2":12,"level3":7,"pitch":34,"articulation":"short_hrm","articulation_tags":["short_hrm","hrm_s","short","harmonics"],"duration":0.125,"velocity":127.5},
{"position":295.3229166666667,"instrument":"Contrabass","level2":12,"level3":8,"pitch":34,"articulation":"short_hrm","articulation_tags":["short_hrm","hrm_s","short","harmonics"],"duration":0.125,"velocity":127.5},
{"position":295.3229166666667,"instrument":"Contrabass","level2":12,"level3":8,"pitch":34,"articulation":"short_hrm","articulation_tags":["short_hrm","hrm_s","short","harmonics"],"duration":0.125,"velocity":127.5},
{"position":295.375,"instrument":"Contrabass","level2":16,"level3":1,"pitch":31,"articulation":"collegno","articulation_tags":["collegno","cl","short"],"duration":0.125,"velocity":127.5},
{"position":295.4375,"instrument":"Marimba","level2":13,"level3":14,"pitch":42,"articulation":"hits","articulation_tags":["hits","short"],"duration":0.0625,"velocity":114.10985021320477},
{"position":295.5,"instrument":"Marimba","level2":13,"level3":13,"pitch":42,"articulation":"hits","articulation_tags":["hits","short"],"duration":0.0625,"velocity":114.10985021320477},
{"position":295.5104166666667,"instrument":"Contrabass","level2":12,"level3":5,"pitch":32,"articulation":"short_hrm","articulation_tags":["short_hrm","hrm_s","short","harmonics"],"duration":0.125,"velocity":127.5},
{"position":295.5729166666667,"instrument":"Marimba","level2":14,"level3":4,"pitch":51,"articulation":"hits","articulation_tags":["hits","short"],"duration":0.0625,"velocity":113.16944573105854},
{"position":295.6666666666667,"instrument":"Contrabass","level2":12,"level3":7,"pitch":34,"articulation":"short_hrm","articulation_tags":["short_hrm","hrm_s","short","harmonics"],"duration":0.125,"velocity":127.5},
{"position":295.6770833333333,"instrument":"Marimba","level2":13,"level3":11,"pitch":41,"articulation":"hits","articulation_tags":["hits","short"],"duration":0.0625,"velocity":114.10985021320477},
{"position":295.7083333333333,"instrument":"Contrabass","level2":16,"level3":2,"pitch":29,"articulation":"pizzicato","articulation_tags":["pizzicato","pz","short"],"duration":0.125,"velocity":127.5},
{"position":295.7291666666667,"instrument":"Marimba","level2":14,"level3":7,"pitch":51,"articulation":"hits","articulation_tags":["hits","short"],"duration":0.0625,"velocity":113.16944573105854},
{"position":295.7395833333333,"instrument":"Marimba","level2":14,"level3":9,"pitch":52,"articulation":"hits","articulation_tags":["hits","short"],"duration":0.0625,"velocity":113.16944573105854},
{"position":295.78125,"instrument":"TheGrandeurPiano","level2":15,"level3":null,"pitch":46,"articulation":"standard","articulation_tags":["standard","long"],"duration":1.3472222222222223,"velocity":120.59961784832794},
{"position":295.8333333333333,"instrument":"TheGrandeurPiano","level2":16,"level3":null,"pitch":28,"articulation":"standard","articulation_tags":["standard","long"],"duration":1.4409448818897639,"velocity":121.25566568749048},
{"position":295.96875,"instrument":"Marimba","level2":15,"level3":7,"pitch":36,"articulation":"hits","articulation_tags":["hits","short"],"duration":0.0625,"velocity":120.98954910204537},
{"position":296.0,"instrument":"Marimba","level2":14,"level3":3,"pitch":50,"articulation":"hits","articulation_tags":["hits","short"],"duration":0.0625,"velocity":113.16944573105854},
{"position":296.0625,"instrument":"Marimba","level2":13,"level3":1,"pitch":38,"articulation":"hits","articulation_tags":["hits","short"],"duration":0.0625,"velocity":114.10985021320477},
{"position":296.125,"instrument":"CorAnglais","level2":14,"level3":2,"pitch":53,"articulation":"trill_2m","articulation_tags":["trill_2m","long","trill","m2"],"duration":17.802083333333332,"velocity":98.33889146211709},
{"position":296.6041666666667,"instrument":"TheGrandeurPiano","level2":13,"level3":null,"pitch":40,"articulation":"standard","articulation_tags":["standard","long"],"duration":1.3263888888888888,"velocity":104.24782155532198},
{"position":296.6979166666667,"instrument":"Marimba","level2":13,"level3":6,"pitch":44,"articulation":"hits","articulation_tags":["hits","short"],"duration":0.0625,"velocity":114.77559771244175},
{"position":297.0,"instrument":"Contrabass","level2":15,"level3":6,"pitch":35,"articulation":"collegno","articulation_tags":["collegno","cl","short"],"duration":0.125,"velocity":120.98954910204537},
{"position":297.1145833333333,"instrument":"Marimba","level2":13,"level3":5,"pitch":39,"articulation":"hits","articulation_tags":["hits","short"],"duration":0.0625,"velocity":114.77559771244175},
{"position":297.1666666666667,"instrument":"Marimba","level2":13,"level3":3,"pitch":38,"articulation":"hits","articulation_tags":["hits","short"],"duration":0.0625,"velocity":114.77559771244175},
{"position":297.21875,"instrument":"TheGrandeurPiano","level2":15,"level3":null,"pitch":46,"articulation":"standard","articulation_tags":["standard","long"],"duration":1.7244094488188977,"velocity":120.82029443418178},
{"position":297.4375,"instrument":"Contrabass","level2":16,"level3":0,"pitch":29,"articulation":"pizzicato_bartok","articulation_tags":["pizzicato_bartok","pzb","short","pizzicato","bartok"],"duration":0.125,"velocity":127.5},
{"position":297.5104166666667,"instrument":"Marimba","level2":14,"level3":2,"pitch":52,"articulation":"hits","articulation_tags":["hits","short"],"duration":0.0625,"velocity":113.16944573105854},
{"position":297.7083333333333,"instrument":"Marimba","level2":14,"level3":8,"pitch":54,"articulation":"hits","articulation_tags":["hits","short"],"duration":0.0625,"velocity":113.16944573105854},
{"position":297.75,"instrument":"Marimba","level2":13,"level3":15,"pitch":40,"articulation":"hits","articulation_tags":["hits","short"],"duration":0.0625,"velocity":114.77559771244175},
{"position":297.8020833333333,"instrument":"TheGrandeurPiano","level2":15,"level3":null,"pitch":46,"articulation":"standard","articulation_tags":["standard","long"],"duration":1.4097222222222223,"velocity":120.13289417729509},
{"position":297.9270833333333,"instrument":"Contrabass","level2":12,"level3":2,"pitch":32,"articulation":"spiccato","articulation_tags":["spiccato","sp","short"],"duration":0.125,"velocity":127.5},
{"position":297.9895833333333,"instrument":"Contrabass","level2":12,"level3":8,"pitch":35,"articulation":"short_hrm","articulation_tags":["short_hrm","hrm_s","short","harmonics"],"duration":0.125,"velocity":127.5},
{"position":298.1458333333333,"instrument":"Cello","level2":14,"level3":1,"pitch":50,"articulation":"tremolo","articulation_tags":["tremolo","tr","multi_note"],"duration":6.604166666666667,"velocity":98.33889146211709},
{"position":298.2604166666667,"instrument":"TheGrandeurPiano","level2":12,"level3":null,"pitch":26,"articulation":"standard","articulation_tags":["standard","long"],"duration":1.4094488188976377,"velocity":108.72527015756671},
{"position":298.3020833333333,"instrument":"TheGrandeurPiano","level2":14,"level3":null,"pitch":58,"articulation":"standard","articulation_tags":["standard","long"],"duration":1.9133858267716535,"velocity":122.29088266947588},
{"position":298.3333333333333,"instrument":"Contrabass","level2":16,"level3":6,"pitch":29,"articulation":"pizzicato","articulation_tags":["pizzicato","pz","short"],"duration":0.125,"velocity":127.5},
{"position":298.3541666666667,"instrument":"Marimba","level2":13,"level3":0,"pitch":45,"articulation":"hits","articulation_tags":["hits","short"],"duration":0.0625,"velocity":114.77559771244175},
{"position":298.4166666666667,"instrument":"TheGrandeurPiano","level2":16,"level3":null,"pitch":28,"articulation":"standard","articulation_tags":["standard","long"],"duration":1.4409448818897639,"velocity":123.76147090477},
{"position":298.46875,"instrument":"Contrabass","level2":16,"level3":4,"pitch":30,"articulation":"pizzicato","articulation_tags":["pizzicato","pz","short"],"duration":0.125,"velocity":127.5},
{"position":298.5104166666667,"instrument":"Contrabass","level2":15,"level3":2,"pitch":32,"articulation":"pizzicato","articulation_tags":["pizzicato","pz","short"],"duration":0.125,"velocity":120.1051346962368},
{"position":298.59375,"instrument":"TheGrandeurPiano","level2":13,"level3":null,"pitch":39,"articulation":"standard","articulation_tags":["standard","long"],"duration":1.3333333333333333,"velocity":107.5679304423845},
{"position":298.6041666666667,"instrument":"Marimba","level2":13,"level3":5,"pitch":39,"articulation":"hits","articulation_tags":["hits","short"],"duration":0.0625,"velocity":115.44138569862048},
{"position":298.6770833333333,"instrument":"Contrabass","level2":16,"level3":11,"pitch":30,"articulation":"collegno","articulation_tags":["collegno","cl","short"],"duration":0.125,"velocity":127.5},
{"position":298.7291666666667,"instrument":"Marimba","level2":14,"level3":3,"pitch":50,"articulation":"hits","articulation_tags":["hits","short"],"duration":0.0625,"velocity":113.76500783943811},
{"position":298.75,"instrument":"Contrabass","level2":16,"level3":11,"pitch":30,"articulation":"collegno","articulation_tags":["collegno","cl","short"],"duration":0.125,"velocity":127.5},
{"position":298.9479166666667,"instrument":"Contrabass","level2":12,"level3":8,"pitch":35,"articulation":"short_hrm","articulation_tags":["short_hrm","hrm_s","short","harmonics"],"duration":0.125,"velocity":127.5},
{"position":299.0625,"instrument":"Contrabass","level2":16,"level3":5,"pitch":31,"articulation":"collegno","articulation_tags":["collegno","cl","short"],"duration":0.125,"velocity":127.5},
{"position":299.0625,"instrument":"Contrabass","level2":16,"level3":9,"pitch":31,"articulation":"collegno","articulation_tags":["collegno","cl","short"],"duration":0.125,"velocity":127.5},
{"position":299.0625,"instrument":"Marimba","level2":13,"level3":1,"pitch":38,"articulation":"hits","articulation_tags":["hits","short"],"duration":0.0625,"velocity":115.44138569862048},
{"position":299.09375,"instrument":"Marimba","level2":13,"level3":6,"pitch":44,"articulation":"hits","articulation_tags":["hits","short"],"duration":0.0625,"velocity":115.44138569862048},
{"position":299.3541666666667,"instrument":"Contrabass","level2":16,"level3":7,"pitch":30,"articulation":"collegno","articulation_tags":["collegno","cl","short"],"duration":0.125,"velocity":127.5},
{"position":299.6145833333333,"instrument":"Contrabass","level2":16,"level3":11,"pitch":30,"articulation":"collegno","articulation_tags":["collegno","cl","short"],"duration":0.125,"velocity":127.5},
{"position":299.78125,"instrument":"Cello","level2":13,"level3":8,"pitch":42,"articulation":"spiccato","articulation_tags":["spiccato","sp","short"],"duration":0.125,"velocity":115.44138569862048},
{"position":299.8229166666667,"instrument":"Cello","level2":14,"level3":5,"pitch":50,"articulation":"long_flt","articulation_tags":["long_flt","flt","long","flautando"],"duration":6.75,"velocity":99.53001567887621},
{"position":299.90625,"instrument":"Cello","level2":13,"level3":8,"pitch":42,"articulation":"spiccato","articulation_tags":["spiccato","sp","short"],"duration":0.125,"velocity":115.44138569862048},
{"position":299.9166666666667,"instrument":"TheGrandeurPiano","level2":15,"level3":null,"pitch":47,"articulation":"standard","articulation_tags":["standard","long"],"duration":1.4791666666666667,"velocity":123.41168422794648},
{"position":300.09375,"instrument":"Cello","level2":15,"level3":5,"pitch":37,"articulation":"collegno","articulation_tags":["collegno","cl","short"],"duration":0.125,"velocity":119.64279102320398},
{"position":300.1041666666667,"instrument":"Contrabass","level2":15,"level3":0,"pitch":33,"articulation":"pizzicato","articulation_tags":["pizzicato","pz","short"],"duration":0.125,"velocity":119.64279102320398},
{"position":300.1354166666667,"instrument":"TheGrandeurPiano","level2":15,"level3":null,"pitch":47,"articulation":"standard","articulation_tags":["standard","long"],"duration":1.7401574803149606,"velocity":122.54201687838133},
{"position":300.1979166666667,"instrument":"Contrabass","level2":15,"level3":6,"pitch":34,"articulation":"collegno","articulation_tags":["collegno","cl","short"],"duration":0.125,"velocity":119.16876830979012},
{"position":300.25,"instrument":"Contrabass","level2":12,"level3":7,"pitch":33,"articulation":"short_hrm","articulation_tags":["short_hrm","hrm_s","short","harmonics"],"duration":0.125,"velocity":127.5},
{"position":300.3333333333333,"instrument":"Cello","level2":14,"level3":1,"pitch":50,"articulation":"legato","articulation_tags":["legato","lg"],"duration":10.041666666666666,"velocity":99.53001567887621},
{"position":300.4479166666667,"instrument":"Cello","level2":14,"level3":9,"pitch":51,"articulation":"long_slt","articulation_tags":["long_slt","slt","long","sultasto"],"duration":5.625,"velocity":99.53001567887621},
{"position":300.4895833333333,"instrument":"Contrabass","level2":13,"level3":9,"pitch":40,"articulation":"short_hrm","articulation_tags":["short_hrm","hrm_s","short","harmonics"],"duration":0.125,"velocity":115.44138569862048},
{"position":300.5625,"instrument":"Contrabass","level2":16,"level3":4,"pitch":30,"articulation":"pizzicato","articulation_tags":["pizzicato","pz","short"],"duration":0.125,"velocity":127.5},
{"position":300.59375,"instrument":"TheGrandeurPiano","level2":13,"level3":null,"pitch":39,"articulation":"standard","articulation_tags":["standard","long"],"duration":1.3333333333333333,"velocity":111.49009413116347},
{"position":300.6041666666667,"instrument":"Contrabass","level2":13,"level3":4,"pitch":43,"articulation":"spiccato","articulation_tags":["spiccato","sp","short"],"duration":0.125,"velocity":116.10721233831845},
{"position":300.6875,"instrument":"Contrabass","level2":15,"level3":1,"pitch":37,"articulation":"collegno","articulation_tags":["collegno","cl","short"],"duration":0.125,"velocity":119.16876830979012},
{"position":300.75,"instrument":"Contrabass","level2":15,"level3":4,"pitch":34,"articulation":"pizzicato","articulation_tags":["pizzicato","pz","short"],"duration":0.125,"velocity":119.16876830979012},
{"position":300.78125,"instrument":"TheGrandeurPiano","level2":16,"level3":null,"pitch":28,"articulation":"standard","articulation_tags":["standard","long"],"duration":1.4409448818897639,"velocity":127.0},
{"position":300.8125,"instrument":"Contrabass","level2":13,"level3":2,"pitch":44,"articulation":"spiccato","articulation_tags":["spiccato","sp","short"],"duration":0.125,"velocity":116.10721233831845},
{"position":300.8125,"instrument":"Contrabass","level2":13,"level3":0,"pitch":45,"articulation":"staccato","articulation_tags":["staccato","st","short"],"duration":0.125,"velocity":116.10721233831845},
{"position":300.8854166666667,"instrument":"Contrabass","level2":15,"level3":7,"pitch":36,"articulation":"collegno","articulation_tags":["collegno","cl","short"],"duration":0.125,"velocity":119.16876830979012},
{"position":300.90625,"instrument":"Viola","level2":14,"level3":0,"pitch":53,"articulation":"long_hrm","articulation_tags":["long_hrm","hrm","long","harmonics"],"duration":6.28125,"velocity":99.53001567887621},
{"position":300.96875,"instrument":"Contrabass","level2":16,"level3":2,"pitch":30,"articulation":"pizzicato","articulation_tags":["pizzicato","pz","short"],"duration":0.125,"velocity":127.5},
{"position":301.0,"instrument":"Contrabass","level2":15,"level3":3,"pitch":37,"articulation":"collegno","articulation_tags":["collegno","cl","short"],"duration":0.125,"velocity":119.16876830979012},
{"position":301.0520833333333,"instrument":"Contrabass","level2":13,"level3":9,"pitch":40,"articulation":"short_hrm","articulation_tags":["short_hrm","hrm_s","short","harmonics"],"duration":0.125,"velocity":116.10721233831845},
{"position":301.2708333333333,"instrument":"Contrabass","level2":13,"level3":11,"pitch":41,"articulation":"spiccato","articulation_tags":["spiccato","sp","short"],"duration":0.125,"velocity":116.10721233831845},
{"position":301.4270833333333,"instrument":"Viola","level2":14,"level3":8,"pitch":53,"articulation":"long_cs","articulation_tags":["long_cs","cs","long","consordina"],"duration":8.302083333333334,"velocity":99.53001567887621},
{"position":301.5,"instrument":"Contrabass","level2":12,"level3":3,"pitch":32,"articulation":"spiccato","articulation_tags":["spiccato","sp","short"],"duration":0.125,"velocity":127.5},
{"position":301.7395833333333,"instrument":"Contrabass","level2":13,"level3":7,"pitch":39,"articulation":"spiccato","articulation_tags":["spiccato","sp","short"],"duration":0.125,"velocity":116.10721233831845},
{"position":301.8645833333333,"instrument":"Contrabass","level2":16,"level3":1,"pitch":31,"articulation":"collegno","articulation_tags":["collegno","cl","short"],"duration":0.125,"velocity":127.5},
{"position":301.90625,"instrument":"Contrabass","level2":13,"level3":14,"pitch":42,"articulation":"spiccato","articulation_tags":["spiccato","sp","short"],"duration":0.125,"velocity":116.10721233831845},
{"position":301.9270833333333,"instrument":"Contrabass","level2":16,"level3":7,"pitch":30,"articulation":"collegno","articulation_tags":["collegno","cl","short"],"duration":0.125,"velocity":127.5},
{"position":302.0104166666667,"instrument":"Contrabass","level2":13,"level3":14,"pitch":43,"articulation":"spiccato","articulation_tags":["spiccato","sp","short"],"duration":0.125,"velocity":116.10721233831845},
{"position":302.0833333333333,"instrument":"Viola","level2":14,"level3":0,"pitch":53,"articulation":"long_hrm","articulation_tags":["long_hrm","hrm","long","harmonics"],"duration":16.0625,"velocity":99.53001567887621},
{"position":302.1354166666667,"instrument":"TheGrandeurPiano","level2":15,"level3":null,"pitch":47,"articulation":"standard","articulation_tags":["standard","long"],"duration":1.5555555555555556,"velocity":125.76157244150014},
{"position":302.2083333333333,"instrument":"Contrabass","level2":15,"level3":8,"pitch":34,"articulation":"collegno","articulation_tags":["collegno","cl","short"],"duration":0.125,"velocity":118.6994628269553},
{"position":302.2083333333333,"instrument":"Contrabass","level2":15,"level3":9,"pitch":35,"articulation":"collegno","articulation_tags":["collegno","cl","short"],"duration":0.125,"velocity":118.6994628269553},
{"position":302.3125,"instrument":"Viola","level2":14,"level3":5,"pitch":50,"articulation":"long_flt","articulation_tags":["long_flt","flt","long","flautando"],"duration":12.8125,"velocity":99.53001567887621},
{"position":302.3125,"instrument":"Contrabass","level2":16,"level3":4,"pitch":31,"articulation":"pizzicato","articulation_tags":["pizzicato","pz","short"],"duration":0.125,"velocity":127.5},
{"position":302.3333333333333,"instrument":"Contrabass","level2":16,"level3":9,"pitch":31,"articulation":"collegno","articulation_tags":["collegno","cl","short"],"duration":0.125,"velocity":127.5},
{"position":302.3541666666667,"instrument":"Contrabass","level2":15,"level3":9,"pitch":35,"articulation":"collegno","articulation_tags":["collegno","cl","short"],"duration":0.125,"velocity":118.6994628269553},
{"position":302.3645833333333,"instrument":"Contrabass","level2":16,"level3":7,"pitch":30,"articulation":"collegno","articulation_tags":["collegno","cl","short"],"duration":0.125,"velocity":127.5},
{"position":302.3854166666667,"instrument":"ContrabassTrombone","level2":16,"level3":11,"pitch":30,"articulation":"staccato","articulation_tags":["staccato","st","short"],"duration":0.25,"velocity":127.5},
{"position":302.5208333333333,"instrument":"TheGrandeurPiano","level2":14,"level3":null,"pitch":58,"articulation":"standard","articulation_tags":["standard","long"],"duration":1.9133858267716535,"velocity":127.0},
{"position":302.53125,"instrument":"TheGrandeurPiano","level2":13,"level3":null,"pitch":39,"articulation":"standard","articulation_tags":["standard","long"],"duration":1.6141732283464567,"velocity":112.13269782604041},
{"position":302.59375,"instrument":"Contrabass","level2":12,"level3":4,"pitch":34,"articulation":"staccato","articulation_tags":["staccato","st","short"],"duration":0.125,"velocity":127.5},
{"position":302.6041666666667,"instrument":"TheGrandeurPiano","level2":13,"level3":null,"pitch":38,"articulation":"standard","articulation_tags":["standard","long"],"duration":1.3333333333333333,"velocity":112.13269782604041},
{"position":302.6458333333333,"instrument":"Contrabass","level2":15,"level3":8,"pitch":34,"articulation":"collegno","articulation_tags":["collegno","cl","short"],"duration":0.125,"velocity":118.6994628269553},
{"position":302.6979166666667,"instrument":"Contrabass","level2":16,"level3":3,"pitch":32,"articulation":"collegno","articulation_tags":["collegno","cl","short"],"duration":0.125,"velocity":127.5},
{"position":302.7083333333333,"instrument":"Contrabass","level2":15,"level3":9,"pitch":35,"articulation":"collegno","articulation_tags":["collegno","cl","short"],"duration":0.125,"velocity":118.6994628269553},
{"position":302.8645833333333,"instrument":"Clarinet","level2":14,"level3":8,"pitch":53,"articulation":"trill_2m","articulation_tags":["trill_2m","long","trill","m2"],"duration":6.802083333333333,"velocity":100.72540244662453},
{"position":302.9583333333333,"instrument":"TheGrandeurPiano","level2":16,"level3":null,"pitch":28,"articulation":"standard","articulation_tags":["standard","long"],"duration":1.3472222222222223,"velocity":127.0},
{"position":302.96875,"instrument":"Contrabass","level2":13,"level3":16,"pitch":41,"articulation":"spiccato","articulation_tags":["spiccato","sp","short"],"duration":0.125,"velocity":116.81777697574044},
{"position":302.96875,"instrument":"Contrabass","level2":13,"level3":17,"pitch":41,"articulation":"spiccato","articulation_tags":["spiccato","sp","short"],"duration":0.125,"velocity":116.81777697574044},
{"position":303.0416666666667,"instrument":"Clarinet","level2":14,"level3":2,"pitch":52,"articulation":"trill_2m","articulation_tags":["trill_2m","long","trill","m2"],"duration":4.625,"velocity":100.72540244662453},
{"position":303.0520833333333,"instrument":"Contrabass","level2":16,"level3":5,"pitch":31,"articulation":"collegno","articulation_tags":["collegno","cl","short"],"duration":0.125,"velocity":127.5},
{"position":303.0833333333333,"instrument":"Contrabass","level2":16,"level3":4,"pitch":31,"articulation":"pizzicato","articulation_tags":["pizzicato","pz","short"],"duration":0.125,"velocity":127.5},
{"position":303.1041666666667,"instrument":"TheGrandeurPiano","level2":15,"level3":null,"pitch":47,"articulation":"standard","articulation_tags":["standard","long"],"duration":1.7401574803149606,"velocity":125.46745479444131},
{"position":303.15625,"instrument":"Contrabass","level2":16,"level3":0,"pitch":29,"articulation":"pizzicato_bartok","articulation_tags":["pizzicato_bartok","pzb","short","pizzicato","bartok"],"duration":0.125,"velocity":127.5},
{"position":303.4166666666667,"instrument":"Contrabass","level2":13,"level3":8,"pitch":42,"articulation":"spiccato","articulation_tags":["spiccato","sp","short"],"duration":0.125,"velocity":116.81777697574044},
{"position":303.4479166666667,"instrument":"Contrabass","level2":15,"level3":2,"pitch":33,"articulation":"pizzicato","articulation_tags":["pizzicato","pz","short"],"duration":0.125,"velocity":118.22539294359431},
{"position":303.46875,"instrument":"Contrabass","level2":16,"level3":9,"pitch":31,"articulation":"pizzicato","articulation_tags":["pizzicato","pz","short"],"duration":0.125,"velocity":127.5},
{"position":303.6354166666667,"instrument":"Contrabass","level2":13,"level3":3,"pitch":39,"articulation":"short_hrm","articulation_tags":["short_hrm","hrm_s","short","harmonics"],"duration":0.125,"velocity":116.81777697574044},
{"position":303.65625,"instrument":"Contrabass","level2":13,"level3":11,"pitch":42,"articulation":"spiccato","articulation_tags":["spiccato","sp","short"],"duration":0.125,"velocity":116.81777697574044},
{"position":303.6979166666667,"instrument":"TheGrandeurPiano","level2":14,"level3":null,"pitch":58,"articulation":"standard","articulation_tags":["standard","long"],"duration":1.9133858267716535,"velocity":127.0},
{"position":303.84375,"instrument":"Contrabass","level2":13,"level3":8,"pitch":42,"articulation":"spiccato","articulation_tags":["spiccato","sp","short"],"duration":0.125,"velocity":116.81777697574044},
{"position":303.90625,"instrument":"Contrabass","level2":13,"level3":3,"pitch":39,"articulation":"short_hrm","articulation_tags":["short_hrm","hrm_s","short","harmonics"],"duration":0.125,"velocity":116.81777697574044},
{"position":303.9375,"instrument":"Contrabass","level2":16,"level3":6,"pitch":30,"articulation":"pizzicato","articulation_tags":["pizzicato","pz","short"],"duration":0.125,"velocity":127.5},
{"position":303.9791666666667,"instrument":"Contrabass","level2":15,"level3":8,"pitch":34,"articulation":"collegno","articulation_tags":["collegno","cl","short"],"duration":0.125,"velocity":118.22539294359431},
{"position":304.3020833333333,"instrument":"Contrabass","level2":16,"level3":1,"pitch":31,"articulation":"collegno","articulation_tags":["collegno","cl","short"],"duration":0.125,"velocity":127.5},
{"position":304.4583333333333,"instrument":"TheGrandeurPiano","level2":15,"level3":null,"pitch":48,"articulation":"standard","articulation_tags":["standard","long"],"duration":1.6319444444444444,"velocity":126.63401154100916},
{"position":304.6041666666667,"instrument":"TheGrandeurPiano","level2":13,"level3":null,"pitch":38,"articulation":"standard","articulation_tags":["standard","long"],"duration":1.3333333333333333,"velocity":114.30658490803764},
{"position":304.65625,"instrument":"Tuba","level2":14,"level3":9,"pitch":51,"articulation":"multitongue","articulation_tags":["multitongue","short"],"duration":0.25,"velocity":114.07284914518071},
{"position":304.75,"instrument":"Cello","level2":14,"level3":1,"pitch":49,"articulation":"legato","articulation_tags":["legato","lg"],"duration":7.510416666666667,"velocity":100.14569829036142},
{"position":304.75,"instrument":"Contrabass","level2":13,"level3":16,"pitch":41,"articulation":"spiccato","articulation_tags":["spiccato","sp","short"],"duration":0.125,"velocity":117.48302140416247},
{"position":304.8854166666667,"instrument":"ContrabassTrombone","level2":13,"level3":15,"pitch":40,"articulation":"sforzando","articulation_tags":["sforzando","sfz","long"],"duration":3.3958333333333335,"velocity":106.96604280832494},
{"position":304.8958333333333,"instrument":"Tuba","level2":13,"level3":15,"pitch":41,"articulation":"sforzando","articulation_tags":["sforzando","sfz","long"],"duration":3.1875,"velocity":106.96604280832494},
{"position":304.9791666666667,"instrument":"TheGrandeurPiano","level2":16,"level3":null,"pitch":28,"articulation":"standard","articulation_tags":["standard","long"],"duration":1.25,"velocity":127.0},
{"position":305.0729166666667,"instrument":"Contrabass","level2":15,"level3":9,"pitch":35,"articulation":"collegno","articulation_tags":["collegno","cl","short"],"duration":0.125,"velocity":117.75613657570713},
{"position":305.2291666666667,"instrument":"Contrabass","level2":12,"level3":7,"pitch":33,"articulation":"short_hrm","articulation_tags":["short_hrm","hrm_s","short","harmonics"],"duration":0.125,"velocity":127.5},
{"position":305.34375,"instrument":"Marimba","level2":13,"level3":6,"pitch":44,"articulation":"hits","articulation_tags":["hits","short"],"duration":0.0625,"velocity":117.48302140416247},
{"position":305.4479166666667,"instrument":"Contrabass","level2":13,"level3":4,"pitch":43,"articulation":"spiccato","articulation_tags":["spiccato","sp","short"],"duration":0.125,"velocity":117.48302140416247},
{"position":305.5104166666667,"instrument":"Marimba","level2":14,"level3":3,"pitch":49,"articulation":"hits","articulation_tags":["hits","short"],"duration":0.0625,"velocity":114.07284914518071},
{"position":305.53125,"instrument":"Contrabass","level2":12,"level3":2,"pitch":32,"articulation":"spiccato","articulation_tags":["spiccato","sp","short"],"duration":0.125,"velocity":127.5},
{"position":305.5416666666667,"instrument":"Contrabass","level2":15,"level3":8,"pitch":34,"articulation":"collegno","articulation_tags":["collegno","cl","short"],"duration":0.125,"velocity":117.75613657570713},
{"position":305.6041666666667,"instrument":"Contrabass","level2":12,"level3":2,"pitch":32,"articulation":"spiccato","articulation_tags":["spiccato","sp","short"],"duration":0.125,"velocity":127.5},
{"position":305.78125,"instrument":"Marimba","level2":13,"level3":7,"pitch":40,"articulation":"hits","articulation_tags":["hits","short"],"duration":0.0625,"velocity":117.48302140416247},
{"position":306.0729166666667,"instrument":"Cello","level2":14,"level3":9,"pitch":51,"articulation":"long_slt","articulation_tags":["long_slt","slt","long","sultasto"],"duration":6.90625,"velocity":100.14569829036142},
{"position":306.1145833333333,"instrument":"Contrabass","level2":13,"level3":5,"pitch":39,"articulation":"short_hrm","articulation_tags":["short_hrm","hrm_s","short","harmonics"],"duration":0.125,"velocity":117.48302140416247},
{"position":306.125,"instrument":"TheGrandeurPiano","level2":15,"level3":null,"pitch":48,"articulation":"standard","articulation_tags":["standard","long"],"duration":1.7559055118110236,"velocity":126.33989389395035},
{"position":306.1875,"instrument":"Contrabass","level2":16,"level3":5,"pitch":32,"articulation":"collegno","articulation_tags":["collegno","cl","short"],"duration":0.125,"velocity":127.5},
{"position":306.1979166666667,"instrument":"Contrabass","level2":13,"level3":2,"pitch":44,"articulation":"spiccato","articulation_tags":["spiccato","sp","short"],"duration":0.125,"velocity":117.48302140416247},
{"position":306.2395833333333,"instrument":"Contrabass","level2":13,"level3":5,"pitch":40,"articulation":"short_hrm","articulation_tags":["short_hrm","hrm_s","short","harmonics"],"duration":0.125,"velocity":117.48302140416247},
{"position":306.2708333333333,"instrument":"Contrabass","level2":13,"level3":1,"pitch":38,"articulation":"short_hrm","articulation_tags":["short_hrm","hrm_s","short","harmonics"],"duration":0.125,"velocity":117.48302140416247},
{"position":306.4479166666667,"instrument":"BassClarinet","level2":12,"level3":4,"pitch":34,"articulation":"legato","articulation_tags":["legato","lg"],"duration":60.583333333333336,"velocity":127.0},
{"position":306.53125,"instrument":"Contrabass","level2":13,"level3":0,"pitch":45,"articulation":"spiccato","articulation_tags":["spiccato","sp","short"],"duration":0.125,"velocity":117.48302140416247},
{"position":306.53125,"instrument":"Contrabass","level2":13,"level3":9,"pitch":41,"articulation":"short_hrm","articulation_tags":["short_hrm","hrm_s","short","harmonics"],"duration":0.125,"velocity":117.48302140416247},
{"position":306.5520833333333,"instrument":"Contrabass","level2":13,"level3":1,"pitch":39,"articulation":"short_hrm","articulation_tags":["short_hrm","hrm_s","short","harmonics"],"duration":0.125,"velocity":117.48302140416247},
{"position":306.5729166666667,"instrument":"Cello","level2":14,"level3":5,"pitch":50,"articulation":"long_flt","articulation_tags":["long_flt","flt","long","flautando"],"duration":4.447916666666667,"velocity":100.14569829036142},
{"position":306.6041666666667,"instrument":"TheGrandeurPiano","level2":13,"level3":null,"pitch":37,"articulation":"standard","articulation_tags":["standard","long"],"duration":1.3263888888888888,"velocity":115.59225346248981},
{"position":306.8125,"instrument":"TheGrandeurPiano","level2":13,"level3":null,"pitch":37,"articulation":"standard","articulation_tags":["standard","long"],"duration":1.5826771653543308,"velocity":115.28443242615846},
{"position":306.8541666666667,"instrument":"TheGrandeurPiano","level2":16,"level3":null,"pitch":28,"articulation":"standard","articulation_tags":["standard","long"],"duration":1.1666666666666667,"velocity":127.0},
{"position":306.8958333333333,"instrument":"Marimba","level2":15,"level3":11,"pitch":36,"articulation":"hits","articulation_tags":["hits","short"],"duration":0.0625,"velocity":117.2820175773985},
{"position":306.90625,"instrument":"TheGrandeurPiano","level2":15,"level3":null,"pitch":48,"articulation":"standard","articulation_tags":["standard","long"],"duration":1.7152777777777777,"velocity":127.0},
{"position":307.1875,"instrument":"Marimba","level2":14,"level3":0,"pitch":53,"articulation":"hits","articulation_tags":["hits","short"],"duration":0.0625,"velocity":114.07284914518071},
{"position":307.5,"instrument":"Contrabass","level2":12,"level3":8,"pitch":35,"articulation":"spiccato","articulation_tags":["spiccato","sp","short"],"duration":0.125,"velocity":127.5},
{"position":307.5520833333333,"instrument":"Contrabass","level2":15,"level3":2,"pitch":33,"articulation":"pizzicato","articulation_tags":["pizzicato","pz","short"],"duration":0.125,"velocity":116.81281239228841},
{"position":307.65625,"instrument":"Viola","level2":14,"level3":3,"pitch":49,"articulation":"long_slt","articulation_tags":["long_slt","slt","long","sultasto"],"duration":7.427083333333333,"velocity":100.14569829036142},
{"position":307.6666666666667,"instrument":"Clarinet","level2":14,"level3":2,"pitch":51,"articulation":"trill_2m","articulation_tags":["trill_2m","long","trill","m2"],"duration":3.7604166666666665,"velocity":100.14569829036142},
{"position":307.8020833333333,"instrument":"Contrabass","level2":13,"level3":14,"pitch":43,"articulation":"spiccato","articulation_tags":["spiccato","sp","short"],"duration":0.125,"velocity":118.20132097771487},
{"position":307.9479166666667,"instrument":"Contrabass","level2":15,"level3":7,"pitch":37,"articulation":"collegno","articulation_tags":["collegno","cl","short"],"duration":0.125,"velocity":116.81281239228841},
{"position":307.9479166666667,"instrument":"TheGrandeurPiano","level2":14,"level3":null,"pitch":58,"articulation":"standard","articulation_tags":["standard","long"],"duration":1.9133858267716535,"velocity":127.0},
{"position":308.0833333333333,"instrument":"Contrabass","level2":13,"level3":15,"pitch":41,"articulation":"spiccato","articulation_tags":["spiccato","sp","short"],"duration":0.125,"velocity":118.20132097771487},
{"position":308.28125,"instrument":"ContrabassTrombone","level2":13,"level3":15,"pitch":41,"articulation":"sforzando","articulation_tags":["sforzando","sfz","long"],"duration":0.0,"velocity":108.40264195542974},
{"position":308.3229166666667,"instrument":"ContrabassTrombone","level2":16,"level3":5,"pitch":32,"articulation":"staccato","articulation_tags":["staccato","st","short"],"duration":0.25,"velocity":127.5},
{"position":308.3645833333333,"instrument":"TheGrandeurPiano","level2":12,"level3":null,"pitch":26,"articulation":"standard","articulation_tags":["standard","long"],"duration":1.4094488188976377,"velocity":111.15068074953031},
{"position":308.40625,"instrument":"Contrabass","level2":13,"level3":4,"pitch":43,"articulation":"spiccato","articulation_tags":["spiccato","sp","short"],"duration":0.125,"velocity":118.20132097771487},
{"position":308.4583333333333,"instrument":"Contrabass","level2":12,"level3":7,"pitch":33,"articulation":"short_hrm","articulation_tags":["short_hrm","hrm_s","short","harmonics"],"duration":0.125,"velocity":127.5},
{"position":308.59375,"instrument":"TheGrandeurPiano","level2":13,"level3":null,"pitch":37,"articulation":"standard","articulation_tags":["standard","long"],"duration":1.3125,"velocity":112.82039597091189},
{"position":308.6041666666667,"instrument":"TheGrandeurPiano","level2":16,"level3":null,"pitch":28,"articulation":"standard","articulation_tags":["standard","long"],"duration":1.0902777777777777,"velocity":127.0},
{"position":308.78125,"instrument":"Contrabass","level2":15,"level3":5,"pitch":37,"articulation":"collegno","articulation_tags":["collegno","cl","short"],"duration":0.125,"velocity":116.81281239228841},
{"position":308.84375,"instrument":"Contrabass","level2":16,"level3":6,"pitch":30,"articulation":"pizzicato","articulation_tags":["pizzicato","pz","short"],"duration":0.125,"velocity":127.5},
{"position":309.1770833333333,"instrument":"Contrabass","level2":15,"level3":11,"pitch":36,"articulation":"collegno","articulation_tags":["collegno","cl","short"],"duration":0.125,"velocity":116.81281239228841},
{"position":309.1875,"instrument":"TheGrandeurPiano","level2":15,"level3":null,"pitch":48,"articulation":"standard","articulation_tags":["standard","long"],"duration":1.7559055118110236,"velocity":125.96865277756568},
{"position":309.34375,"instrument":"Contrabass","level2":16,"level3":1,"pitch":31,"articulation":"collegno","articulation_tags":["collegno","cl","short"],"duration":0.125,"velocity":127.5},
{"position":309.4375,"instrument":"Contrabass","level2":15,"level3":11,"pitch":36,"articulation":"collegno","articulation_tags":["collegno","cl","short"],"duration":0.125,"velocity":116.33864221120271},
{"position":309.4583333333333,"instrument":"Contrabass","level2":13,"level3":4,"pitch":43,"articulation":"spiccato","articulation_tags":["spiccato","sp","short"],"duration":0.125,"velocity":118.86591594382018},
{"position":309.4895833333333,"instrument":"TheGrandeurPiano","level2":15,"level3":null,"pitch":49,"articulation":"standard","articulation_tags":["standard","long"],"duration":1.7716535433070866,"velocity":124.87921950032364},
{"position":309.5416666666667,"instrument":"ContrabassTrombone","level2":16,"level3":3,"pitch":32,"articulation":"staccato","articulation_tags":["staccato","st","short"],"duration":0.25,"velocity":127.5},
{"position":309.6666666666667,"instrument":"Clarinet","level2":14,"level3":8,"pitch":53,"articulation":"trill_2m","articulation_tags":["trill_2m","long","trill","m2"],"duration":10.53125,"velocity":101.35331668733147},
{"position":309.7291666666667,"instrument":"Contrabass","level2":16,"level3":1,"pitch":32,"articulation":"collegno","articulation_tags":["collegno","cl","short"],"duration":0.125,"velocity":127.5},
{"position":309.7291666666667,"instrument":"Viola","level2":14,"level3":8,"pitch":53,"articulation":"long_hrm","articulation_tags":["long_hrm","hrm","long","harmonics"],"duration":6.604166666666667,"velocity":101.35331668733147},
{"position":309.75,"instrument":"Contrabass","level2":15,"level3":9,"pitch":35,"articulation":"collegno","articulation_tags":["collegno","cl","short"],"duration":0.125,"velocity":115.86949041009254},
{"position":309.8645833333333,"instrument":"TheGrandeurPiano","level2":13,"level3":null,"pitch":37,"articulation":"standard","articulation_tags":["standard","long"],"duration":1.5826771653543308,"velocity":114.28107036453856},
{"position":309.9166666666667,"instrument":"Contrabass","level2":13,"level3":9,"pitch":41,"articulation":"short_hrm","articulation_tags":["short_hrm","hrm_s","short","harmonics"],"duration":0.125,"velocity":118.92759101299853},
{"position":309.9895833333333,"instrument":"Contrabass","level2":16,"level3":2,"pitch":31,"articulation":"pizzicato","articulation_tags":["pizzicato","pz","short"],"duration":0.125,"velocity":127.5},
{"position":310.0104166666667,"instrument":"Contrabass","level2":15,"level3":0,"pitch":33,"articulation":"pizzicato","articulation_tags":["pizzicato","pz","short"],"duration":0.125,"velocity":115.86949041009254},
{"position":310.1041666666667,"instrument":"Contrabass","level2":15,"level3":4,"pitch":34,"articulation":"pizzicato","articulation_tags":["pizzicato","pz","short"],"duration":0.125,"velocity":115.86949041009254},
{"position":310.1041666666667,"instrument":"Contrabass","level2":13,"level3":7,"pitch":40,"articulation":"short_hrm","articulation_tags":["short_hrm","hrm_s","short","harmonics"],"duration":0.125,"velocity":118.92759101299853},
{"position":310.2395833333333,"instrument":"Contrabass","level2":15,"level3":6,"pitch":34,"articulation":"pizzicato","articulation_tags":["pizzicato","pz","short"],"duration":0.125,"velocity":115.86949041009254},
{"position":310.2395833333333,"instrument":"TheGrandeurPiano","level2":16,"level3":null,"pitch":28,"articulation":"standard","articulation_tags":["standard","long"],"duration":1.0208333333333333,"velocity":125.80375029048068},
{"position":310.2604166666667,"instrument":"Contrabass","level2":15,"level3":9,"pitch":36,"articulation":"collegno","articulation_tags":["collegno","cl","short"],"duration":0.125,"velocity":115.86949041009254},
{"position":310.2708333333333,"instrument":"Contrabass","level2":12,"level3":6,"pitch":35,"articulation":"staccato","articulation_tags":["staccato","st","short"],"duration":0.125,"velocity":127.5},
{"position":310.3333333333333,"instrument":"Contrabass","level2":15,"level3":1,"pitch":38,"articulation":"collegno","articulation_tags":["collegno","cl","short"],"duration":0.125,"velocity":115.86949041009254},
{"position":310.375,"instrument":"Cello","level2":14,"level3":1,"pitch":49,"articulation":"legato","articulation_tags":["legato","lg"],"duration":7.489583333333333,"velocity":101.35331668733147},
{"position":310.375,"instrument":"Contrabass","level2":15,"level3":0,"pitch":33,"articulation":"pizzicato","articulation_tags":["pizzicato","pz","short"],"duration":0.125,"velocity":115.86949041009254},
{"position":310.5520833333333,"instrument":"Contrabass","level2":15,"level3":8,"pitch":34,"articulation":"pizzicato","articulation_tags":["pizzicato","pz","short"],"duration":0.125,"velocity":115.86949041009254},
{"position":310.5729166666667,"instrument":"Contrabass","level2":15,"level3":3,"pitch":37,"articulation":"collegno","articulation_tags":["collegno","cl","short"],"duration":0.125,"velocity":115.86949041009254},
{"position":310.5729166666667,"instrument":"TheGrandeurPiano","level2":13,"level3":null,"pitch":36,"articulation":"standard","articulation_tags":["standard","long"],"duration":1.2986111111111112,"velocity":111.83617363635632},
{"position":310.875,"instrument":"Contrabass","level2":13,"level3":6,"pitch":44,"articulation":"spiccato","articulation_tags":["spiccato","sp","short"],"duration":0.125,"velocity":119.59139389146097},
{"position":311.0,"instrument":"Contrabass","level2":13,"level3":2,"pitch":44,"articulation":"spiccato","articulation_tags":["spiccato","sp","short"],"duration":0.125,"velocity":119.59139389146097},
{"position":311.0104166666667,"instrument":"Cello","level2":14,"level3":5,"pitch":50,"articulation":"long_flt","articulation_tags":["long_flt","flt","long","flautando"],"duration":2.875,"velocity":101.35331668733147},
{"position":311.3541666666667,"instrument":"Contrabass","level2":13,"level3":7,"pitch":40,"articulation":"short_hrm","articulation_tags":["short_hrm","hrm_s","short","harmonics"],"duration":0.125,"velocity":119.59139389146097},
{"position":311.375,"instrument":"Contrabass","level2":13,"level3":3,"pitch":39,"articulation":"short_hrm","articulation_tags":["short_hrm","hrm_s","short","harmonics"],"duration":0.125,"velocity":119.59139389146097},
{"position":311.4270833333333,"instrument":"Clarinet","level2":14,"level3":2,"pitch":51,"articulation":"trill_2m","articulation_tags":["trill_2m","long","trill","m2"],"duration":2.7395833333333335,"velocity":101.35331668733147},
{"position":311.53125,"instrument":"Contrabass","level2":15,"level3":10,"pitch":35,"articulation":"pizzicato","articulation_tags":["pizzicato","pz","short"],"duration":0.125,"velocity":115.86949041009254},
{"position":311.6145833333333,"instrument":"Contrabass","level2":16,"level3":5,"pitch":32,"articulation":"collegno","articulation_tags":["collegno","cl","short"],"duration":0.125,"velocity":127.5},
{"position":311.6979166666667,"instrument":"Contrabass","level2":13,"level3":5,"pitch":40,"articulation":"short_hrm","articulation_tags":["short_hrm","hrm_s","short","harmonics"],"duration":0.125,"velocity":119.59139389146097},
{"position":311.7604166666667,"instrument":"Contrabass","level2":13,"level3":0,"pitch":45,"articulation":"spiccato","articulation_tags":["spiccato","sp","short"],"duration":0.125,"velocity":119.59139389146097},
{"position":311.7708333333333,"instrument":"TheGrandeurPiano","level2":16,"level3":null,"pitch":28,"articulation":"standard","articulation_tags":["standard","long"],"duration":0.9583333333333334,"velocity":123.96581249087282},
{"position":311.7916666666667,"instrument":"Contrabass","level2":13,"level3":3,"pitch":39,"articulation":"short_hrm","articulation_tags":["short_hrm","hrm_s","short","harmonics"],"duration":0.125,"velocity":119.59139389146097},
{"position":311.8125,"instrument":"Contrabass","level2":16,"level3":2,"pitch":31,"articulation":"pizzicato","articulation_tags":["pizzicato","pz","short"],"duration":0.125,"velocity":127.5},
{"position":311.8645833333333,"instrument":"Contrabass","level2":13,"level3":4,"pitch":42,"articulation":"spiccato","articulation_tags":["spiccato","sp","short"],"duration":0.125,"velocity":119.59139389146097},
{"position":311.90625,"instrument":"Contrabass","level2":13,"level3":9,"pitch":42,"articulation":"short_hrm","articulation_tags":["short_hrm","hrm_s","short","harmonics"],"duration":0.125,"velocity":119.59139389146097},
{"position":312.2083333333333,"instrument":"TheGrandeurPiano","level2":15,"level3":null,"pitch":49,"articulation":"standard","articulation_tags":["standard","long"],"duration":1.7716535433070866,"velocity":122.96741093707189},
{"position":312.2291666666667,"instrument":"Contrabass","level2":13,"level3":4,"pitch":42,"articulation":"short_hrm","articulation_tags":["short_hrm","hrm_s","short","harmonics"],"duration":0.125,"velocity":119.59139389146097},
{"position":312.2708333333333,"instrument":"Cello","level2":14,"level3":1,"pitch":49,"articulation":"legato","articulation_tags":["legato","lg"],"duration":9.145833333333334,"velocity":101.35331668733147},
{"position":312.28125,"instrument":"TheGrandeurPiano","level2":15,"level3":null,"pitch":49,"articulation":"standard","articulation_tags":["standard","long"],"duration":1.7716535433070866,"velocity":122.67329329001306},
{"position":312.3125,"instrument":"TheGrandeurPiano","level2":13,"level3":null,"pitch":36,"articulation":"standard","articulation_tags":["standard","long"],"duration":1.375,"velocity":111.46327754856296},
{"position":312.3541666666667,"instrument":"Contrabass","level2":16,"level3":6,"pitch":30,"articulation":"pizzicato","articulation_tags":["pizzicato","pz","short"],"duration":0.125,"velocity":127.5},
{"position":312.5208333333333,"instrument":"TheGrandeurPiano","level2":13,"level3":null,"pitch":36,"articulation":"standard","articulation_tags":["standard","long"],"duration":1.2777777777777777,"velocity":110.68226709804486},
{"position":312.59375,"instrument":"Contrabass","level2":13,"level3":14,"pitch":43,"articulation":"spiccato","articulation_tags":["spiccato","sp","short"],"duration":0.125,"velocity":120.30412254214073},
{"position":312.6354166666667,"instrument":"Contrabass","level2":13,"level3":9,"pitch":42,"articulation":"short_hrm","articulation_tags":["short_hrm","hrm_s","short","harmonics"],"duration":0.125,"velocity":120.30412254214073},
{"position":312.78125,"instrument":"Marimba","level2":14,"level3":0,"pitch":52,"articulation":"hits","articulation_tags":["hits","short"],"duration":0.0625,"velocity":114.67665834366574},
{"position":312.8125,"instrument":"TheGrandeurPiano","level2":16,"level3":null,"pitch":28,"articulation":"standard","articulation_tags":["standard","long"],"duration":1.4409448818897639,"velocity":123.30404030036054},
{"position":312.8229166666667,"instrument":"Contrabass","level2":16,"level3":1,"pitch":32,"articulation":"collegno","articulation_tags":["collegno","cl","short"],"duration":0.125,"velocity":127.5},
{"position":312.9895833333333,"instrument":"Cello","level2":14,"level3":9,"pitch":50,"articulation":"long_slt","articulation_tags":["long_slt","slt","long","sultasto"],"duration":11.65625,"velocity":101.35331668733147},
{"position":313.0,"instrument":"Contrabass","level2":13,"level3":1,"pitch":39,"articulation":"short_hrm","articulation_tags":["short_hrm","hrm_s","short","harmonics"],"duration":0.125,"velocity":120.30412254214073},
{"position":313.0520833333333,"instrument":"Contrabass","level2":16,"level3":0,"pitch":30,"articulation":"pizzicato_bartok","articulation_tags":["pizzicato_bartok","pzb","short","pizzicato","bartok"],"duration":0.125,"velocity":127.5},
{"position":313.1145833333333,"instrument":"Contrabass","level2":16,"level3":6,"pitch":31,"articulation":"pizzicato","articulation_tags":["pizzicato","pz","short"],"duration":0.125,"velocity":127.5},
{"position":313.2083333333333,"instrument":"TheGrandeurPiano","level2":16,"level3":null,"pitch":28,"articulation":"standard","articulation_tags":["standard","long"],"duration":0.9027777777777778,"velocity":122.67631680428018},
{"position":313.2291666666667,"instrument":"Contrabass","level2":16,"level3":3,"pitch":32,"articulation":"collegno","articulation_tags":["collegno","cl","short"],"duration":0.125,"velocity":127.5},
{"position":313.5208333333333,"instrument":"Contrabass","level2":16,"level3":0,"pitch":30,"articulation":"pizzicato","articulation_tags":["pizzicato","pz","short"],"duration":0.125,"velocity":127.5},
{"position":313.5729166666667,"instrument":"Contrabass","level2":16,"level3":2,"pitch":31,"articulation":"pizzicato","articulation_tags":["pizzicato","pz","short"],"duration":0.125,"velocity":127.5},
{"position":313.59375,"instrument":"Marimba","level2":14,"level3":10,"pitch":52,"articulation":"hits","articulation_tags":["hits","short"],"duration":0.0625,"velocity":114.67665834366574},
{"position":313.59375,"instrument":"Marimba","level2":14,"level3":11,"pitch":52,"articulation":"hits","articulation_tags":["hits","short"],"duration":0.0625,"velocity":114.67665834366574},
{"position":313.6041666666667,"instrument":"Contrabass","level2":13,"level3":14,"pitch":42,"articulation":"spiccato","articulation_tags":["spiccato","sp","short"],"duration":0.125,"velocity":120.30412254214073},
{"position":313.6979166666667,"instrument":"Marimba","level2":14,"level3":10,"pitch":52,"articulation":"hits","articulation_tags":["hits","short"],"duration":0.0625,"velocity":114.67665834366574},
{"position":313.75,"instrument":"Marimba","level2":14,"level3":3,"pitch":49,"articulation":"hits","articulation_tags":["hits","short"],"duration":0.0625,"velocity":114.67665834366574},
{"position":313.84375,"instrument":"Marimba","level2":14,"level3":10,"pitch":52,"articulation":"hits","articulation_tags":["hits","short"],"duration":0.0625,"velocity":114.67665834366574},
{"position":313.8541666666667,"instrument":"Contrabass","level2":16,"level3":5,"pitch":32,"articulation":"collegno","articulation_tags":["collegno","cl","short"],"duration":0.125,"velocity":127.5},
{"position":313.8958333333333,"instrument":"Cello","level2":14,"level3":5,"pitch":50,"articulation":"long_cs","articulation_tags":["long_cs","cs","long","consordina"],"duration":1.2708333333333333,"velocity":101.35331668733147},
{"position":313.9166666666667,"instrument":"Marimba","level2":14,"level3":2,"pitch":51,"articulation":"hits","articulation_tags":["hits","short"],"duration":0.0625,"velocity":114.67665834366574},
{"position":314.1666666666667,"instrument":"Clarinet","level2":14,"level3":2,"pitch":50,"articulation":"trill_2m","articulation_tags":["trill_2m","long","trill","m2"],"duration":1.0208333333333333,"velocity":101.35331668733147},
{"position":314.3125,"instrument":"Contrabass","level2":16,"level3":2,"pitch":31,"articulation":"pizzicato","articulation_tags":["pizzicato","pz","short"],"duration":0.125,"velocity":127.5},
{"position":314.3645833333333,"instrument":"TheGrandeurPiano","level2":13,"level3":null,"pitch":36,"articulation":"standard","articulation_tags":["standard","long"],"duration":1.1875,"velocity":109.49488051386697},
{"position":314.4375,"instrument":"TheGrandeurPiano","level2":13,"level3":null,"pitch":35,"articulation":"standard","articulation_tags":["standard","long"],"duration":1.25,"velocity":109.49488051386697},
{"position":314.5,"instrument":"Contrabass","level2":15,"level3":1,"pitch":38,"articulation":"collegno","articulation_tags":["collegno","cl","short"],"duration":0.125,"velocity":114.92617077423813},
{"position":314.5625,"instrument":"TheGrandeurPiano","level2":16,"level3":null,"pitch":28,"articulation":"standard","articulation_tags":["standard","long"],"duration":0.8472222222222222,"velocity":123.37757719675517},
{"position":314.59375,"instrument":"Contrabass","level2":12,"level3":5,"pitch":31,"articulation":"short_hrm","articulation_tags":["short_hrm","hrm_s","short","harmonics"],"duration":0.125,"velocity":127.5},
{"position":314.9270833333333,"instrument":"Marimba","level2":13,"level3":7,"pitch":41,"articulation":"hits","articulation_tags":["hits","short"],"duration":0.0625,"velocity":120.99805230062077},
{"position":315.0,"instrument":"CorAnglais","level2":14,"level3":10,"pitch":52,"articulation":"trill_2m","articulation_tags":["trill_2m","long","trill","m2"],"duration":6.895833333333333,"velocity":101.35331668733147},
{"position":315.0208333333333,"instrument":"TheGrandeurPiano","level2":12,"level3":null,"pitch":26,"articulation":"standard","articulation_tags":["standard","long"],"duration":1.4094488188976377,"velocity":108.49971996439108},
{"position":315.0833333333333,"instrument":"TheGrandeurPiano","level2":15,"level3":null,"pitch":50,"articulation":"standard","articulation_tags":["standard","long"],"duration":1.7874015748031495,"velocity":118.57581142851558},
{"position":315.0833333333333,"instrument":"Marimba","level2":14,"level3":3,"pitch":49,"articulation":"hits","articulation_tags":["hits","short"],"duration":0.0625,"velocity":114.67665834366574},
{"position":315.125,"instrument":"Marimba","level2":14,"level3":5,"pitch":50,"articulation":"hits","articulation_tags":["hits","short"],"duration":0.0625,"velocity":114.67665834366574},
{"position":315.1458333333333,"instrument":"Marimba","level2":13,"level3":1,"pitch":39,"articulation":"hits","articulation_tags":["hits","short"],"duration":0.0625,"velocity":120.99805230062077},
{"position":315.1666666666667,"instrument":"Viola","level2":14,"level3":5,"pitch":50,"articulation":"long_cs","articulation_tags":["long_cs","cs","long","consordina"],"duration":0.020833333333333332,"velocity":101.35331668733147},
{"position":315.1979166666667,"instrument":"Marimba","level2":13,"level3":2,"pitch":44,"articulation":"hits","articulation_tags":["hits","short"],"duration":0.0625,"velocity":120.99805230062077},
{"position":315.3125,"instrument":"Contrabass","level2":16,"level3":5,"pitch":32,"articulation":"collegno","articulation_tags":["collegno","cl","short"],"duration":0.125,"velocity":127.5},
{"position":315.3333333333333,"instrument":"Contrabass","level2":16,"level3":1,"pitch":32,"articulation":"collegno","articulation_tags":["collegno","cl","short"],"duration":0.125,"velocity":127.5},
{"position":315.4166666666667,"instrument":"TheGrandeurPiano","level2":15,"level3":null,"pitch":50,"articulation":"standard","articulation_tags":["standard","long"],"duration":1.7874015748031495,"velocity":119.05558855182882},
{"position":315.5729166666667,"instrument":"Marimba","level2":13,"level3":5,"pitch":41,"articulation":"hits","articulation_tags":["hits","short"],"duration":0.0625,"velocity":120.99805230062077},
{"position":315.65625,"instrument":"Cello","level2":14,"level3":9,"pitch":50,"articulation":"long_slt","articulation_tags":["long_slt","slt","long","sultasto"],"duration":6.15625,"velocity":101.35331668733147},
{"position":315.6770833333333,"instrument":"Contrabass","level2":16,"level3":2,"pitch":31,"articulation":"pizzicato","articulation_tags":["pizzicato","pz","short"],"duration":0.125,"velocity":127.5},
{"position":315.7395833333333,"instrument":"TheGrandeurPiano","level2":12,"level3":null,"pitch":27,"articulation":"standard","articulation_tags":["standard","long"],"duration":1.4251968503937007,"velocity":105.8003766852753},
{"position":315.8229166666667,"instrument":"Marimba","level2":15,"level3":11,"pitch":37,"articulation":"hits","articulation_tags":["hits","short"],"duration":0.0625,"velocity":113.98285364288616},
{"position":315.8229166666667,"instrument":"Marimba","level2":13,"level3":6,"pitch":44,"articulation":"hits","articulation_tags":["hits","short"],"duration":0.0625,"velocity":120.99805230062077},
{"position":315.8333333333333,"instrument":"TheGrandeurPiano","level2":16,"level3":null,"pitch":28,"articulation":"standard","articulation_tags":["standard","long"],"duration":0.7916666666666666,"velocity":120.30550020126913},
{"position":315.875,"instrument":"Contrabass","level2":16,"level3":6,"pitch":31,"articulation":"pizzicato","articulation_tags":["pizzicato","pz","short"],"duration":0.125,"velocity":127.5},
{"position":316.03125,"instrument":"Contrabass","level2":16,"level3":2,"pitch":32,"articulation":"pizzicato","articulation_tags":["pizzicato","pz","short"],"duration":0.125,"velocity":127.5},
{"position":316.09375,"instrument":"Contrabass","level2":16,"level3":5,"pitch":32,"articulation":"pizzicato","articulation_tags":["pizzicato","pz","short"],"duration":0.125,"velocity":127.5},
{"position":316.1458333333333,"instrument":"TheGrandeurPiano","level2":13,"level3":null,"pitch":35,"articulation":"standard","articulation_tags":["standard","long"],"duration":1.0416666666666667,"velocity":107.81234202440888},
{"position":316.2291666666667,"instrument":"Contrabass","level2":16,"level3":2,"pitch":32,"articulation":"pizzicato","articulation_tags":["pizzicato","pz","short"],"duration":0.125,"velocity":127.5},
{"position":316.3020833333333,"instrument":"Marimba","level2":13,"level3":14,"pitch":42,"articulation":"hits","articulation_tags":["hits","short"],"duration":0.0625,"velocity":121.07875442589632},
{"position":316.3125,"instrument":"TheGrandeurPiano","level2":13,"level3":null,"pitch":35,"articulation":"standard","articulation_tags":["standard","long"],"duration":1.2152777777777777,"velocity":107.99645511664784},
{"position":316.3333333333333,"instrument":"Clarinet","level2":14,"level3":8,"pitch":52,"articulation":"trill_2m","articulation_tags":["trill_2m","long","trill","m2"],"duration":5.697916666666667,"velocity":101.35331668733147},
{"position":316.4791666666667,"instrument":"Marimba","level2":13,"level3":2,"pitch":43,"articulation":"hits","articulation_tags":["hits","short"],"duration":0.0625,"velocity":121.69842062929308},
{"position":316.5416666666667,"instrument":"Marimba","level2":13,"level3":0,"pitch":45,"articulation":"hits","articulation_tags":["hits","short"],"duration":0.0625,"velocity":121.69842062929308},
{"position":316.625,"instrument":"Contrabass","level2":16,"level3":6,"pitch":31,"articulation":"pizzicato","articulation_tags":["pizzicato","pz","short"],"duration":0.125,"velocity":127.5},
{"position":316.8125,"instrument":"TheGrandeurPiano","level2":14,"level3":null,"pitch":58,"articulation":"standard","articulation_tags":["standard","long"],"duration":1.9133858267716535,"velocity":121.3512222627381},
{"position":316.8333333333333,"instrument":"Marimba","level2":13,"level3":3,"pitch":40,"articulation":"hits","articulation_tags":["hits","short"],"duration":0.0625,"velocity":121.69842062929308},
{"position":317.0208333333333,"instrument":"TheGrandeurPiano","level2":16,"level3":null,"pitch":28,"articulation":"standard","articulation_tags":["standard","long"],"duration":0.7430555555555556,"velocity":119.75228201675088},
{"position":317.0729166666667,"instrument":"Marimba","level2":15,"level3":7,"pitch":37,"articulation":"hits","articulation_tags":["hits","short"],"duration":0.0625,"velocity":113.98285364288616},
{"position":317.09375,"instrument":"Contrabass","level2":16,"level3":1,"pitch":32,"articulation":"collegno","articulation_tags":["collegno","cl","short"],"duration":0.125,"velocity":127.5},
{"position":317.1354166666667,"instrument":"Marimba","level2":13,"level3":7,"pitch":41,"articulation":"hits","articulation_tags":["hits","short"],"duration":0.0625,"velocity":121.69842062929308},
{"position":317.25,"instrument":"Marimba","level2":13,"level3":0,"pitch":44,"articulation":"hits","articulation_tags":["hits","short"],"duration":0.0625,"velocity":121.69842062929308},
{"position":317.40625,"instrument":"Marimba","level2":13,"level3":14,"pitch":42,"articulation":"hits","articulation_tags":["hits","short"],"duration":0.0625,"velocity":121.69842062929308},
{"position":317.4166666666667,"instrument":"Contrabass","level2":16,"level3":0,"pitch":31,"articulation":"pizzicato","articulation_tags":["pizzicato","pz","short"],"duration":0.125,"velocity":127.5},
{"position":317.4583333333333,"instrument":"Contrabass","level2":15,"level3":8,"pitch":34,"articulation":"pizzicato","articulation_tags":["pizzicato","pz","short"],"duration":0.125,"velocity":113.98285364288616},
{"position":317.4791666666667,"instrument":"Marimba","level2":15,"level3":9,"pitch":36,"articulation":"hits","articulation_tags":["hits","short"],"duration":0.0625,"velocity":113.98285364288616},
{"position":317.5416666666667,"instrument":"Contrabass","level2":16,"level3":3,"pitch":32,"articulation":"collegno","articulation_tags":["collegno","cl","short"],"duration":0.125,"velocity":127.5},
{"position":317.6458333333333,"instrument":"Marimba","level2":14,"level3":10,"pitch":52,"articulation":"hits","articulation_tags":["hits","short"],"duration":0.0625,"velocity":115.28232499129824},
{"position":317.71875,"instrument":"TheGrandeurPiano","level2":13,"level3":null,"pitch":35,"articulation":"standard","articulation_tags":["standard","long"],"duration":0.9305555555555556,"velocity":106.91581355084222},
{"position":317.71875,"instrument":"Contrabass","level2":16,"level3":6,"pitch":31,"articulation":"pizzicato","articulation_tags":["pizzicato","pz","short"],"duration":0.125,"velocity":127.5},
{"position":317.78125,"instrument":"Contrabass","level2":13,"level3":1,"pitch":40,"articulation":"short_hrm","articulation_tags":["short_hrm","hrm_s","short","harmonics"],"duration":0.125,"velocity":121.7862743986204},
{"position":317.8020833333333,"instrument":"Viola","level2":14,"level3":0,"pitch":52,"articulation":"long_hrm","articulation_tags":["long_hrm","hrm","long","harmonics"],"duration":4.510416666666667,"velocity":102.56464998259648},
{"position":317.8229166666667,"instrument":"Contrabass","level2":16,"level3":3,"pitch":33,"articulation":"collegno","articulation_tags":["collegno","cl","short"],"duration":0.125,"velocity":127.5},
{"position":317.8645833333333,"instrument":"Marimba","level2":14,"level3":1,"pitch":49,"articulation":"hits","articulation_tags":["hits","short"],"duration":0.0625,"velocity":115.28232499129824},
{"position":318.0520833333333,"instrument":"Marimba","level2":13,"level3":7,"pitch":41,"articulation":"hits","articulation_tags":["hits","short"],"duration":0.0625,"velocity":121.7862743986204},
{"position":318.0520833333333,"instrument":"Marimba","level2":13,"level3":7,"pitch":42,"articulation":"hits","articulation_tags":["hits","short"],"duration":0.0625,"velocity":121.7862743986204},
{"position":318.0833333333333,"instrument":"Contrabass","level2":15,"level3":2,"pitch":33,"articulation":"pizzicato","articulation_tags":["pizzicato","pz","short"],"duration":0.125,"velocity":113.98285364288616},
{"position":318.1041666666667,"instrument":"TheGrandeurPiano","level2":17,"level3":null,"pitch":60,"articulation":"standard","articulation_tags":["standard","long"],"duration":0.0,"velocity":106.74155315586353},
{"position":318.1041666666667,"instrument":"TheGrandeurPiano","level2":17,"level3":null,"pitch":60,"articulation":"standard","articulation_tags":["standard","long"],"duration":0.013888888888888888,"velocity":106.74155315586353},
{"position":318.1041666666667,"instrument":"TheGrandeurPiano","level2":18,"level3":null,"pitch":60,"articulation":"standard","articulation_tags":["standard","long"],"duration":0.006944444444444444,"velocity":106.74155315586353},
{"position":318.1041666666667,"instrument":"TheGrandeurPiano","level2":18,"level3":null,"pitch":61,"articulation":"standard","articulation_tags":["standard","long"],"duration":0.020833333333333332,"velocity":106.74155315586353},
{"position":318.1041666666667,"instrument":"Contrabass","level2":12,"level3":5,"pitch":31,"articulation":"short_hrm","articulation_tags":["short_hrm","hrm_s","short","harmonics"],"duration":0.125,"velocity":127.5},
{"position":318.1354166666667,"instrument":"TheGrandeurPiano","level2":13,"level3":null,"pitch":34,"articulation":"standard","articulation_tags":["standard","long"],"duration":1.1736111111111112,"velocity":108.31018060684391},
{"position":318.1354166666667,"instrument":"TheGrandeurPiano","level2":17,"level3":null,"pitch":59,"articulation":"standard","articulation_tags":["standard","long"],"duration":0.034722222222222224,"velocity":106.74155315586353},
{"position":318.1458333333333,"instrument":"TheGrandeurPiano","level2":16,"level3":null,"pitch":28,"articulation":"standard","articulation_tags":["standard","long"],"duration":0.7013888888888888,"velocity":119.71726490715147},
{"position":318.1458333333333,"instrument":"Marimba","level2":14,"level3":0,"pitch":52,"articulation":"hits","articulation_tags":["hits","short"],"duration":0.0625,"velocity":115.28232499129824},
{"position":318.1458333333333,"instrument":"TheGrandeurPiano","level2":18,"level3":null,"pitch":61,"articulation":"standard","articulation_tags":["standard","long"],"duration":0.041666666666666664,"velocity":106.74155315586353},
{"position":318.15625,"instrument":"TheGrandeurPiano","level2":15,"level3":null,"pitch":50,"articulation":"standard","articulation_tags":["standard","long"],"duration":1.7874015748031495,"velocity":118.54079431891617},
{"position":318.1666666666667,"instrument":"Marimba","level2":17,"level3":0,"pitch":56,"articulation":"hits","articulation_tags":["hits","short"],"duration":0.0625,"velocity":89.57835227929677},
{"position":318.1666666666667,"instrument":"Vibraphone","level2":17,"level3":1,"pitch":56,"articulation":"hits","articulation_tags":["hits","short"],"duration":0.0625,"velocity":89.57835227929677},
{"position":318.1875,"instrument":"TheGrandeurPiano","level2":17,"level3":null,"pitch":59,"articulation":"standard","articulation_tags":["standard","long"],"duration":0.05555555555555555,"velocity":106.74155315586353},
{"position":318.1875,"instrument":"Vibraphone","level2":17,"level3":0,"pitch":56,"articulation":"hits","articulation_tags":["hits","short"],"duration":0.0625,"velocity":90.18709763463411},
{"position":318.1979166666667,"instrument":"TheGrandeurPiano","level2":18,"level3":null,"pitch":62,"articulation":"standard","articulation_tags":["standard","long"],"duration":0.0625,"velocity":106.74155315586353},
{"position":318.2083333333333,"instrument":"Contrabass","level2":16,"level3":1,"pitch":32,"articulation":"collegno","articulation_tags":["collegno","cl","short"],"duration":0.125,"velocity":127.5},
{"position":318.25,"instrument":"Marimba","level2":17,"level3":0,"pitch":56,"articulation":"hits","articulation_tags":["hits","short"],"duration":0.0625,"velocity":90.18709763463411},
{"position":318.2708333333333,"instrument":"Marimba","level2":18,"level3":0,"pitch":65,"articulation":"hits","articulation_tags":["hits","short"],"duration":0.0625,"velocity":86.42877036126391},
{"position":318.2708333333333,"instrument":"Vibraphone","level2":18,"level3":1,"pitch":65,"articulation":"hits","articulation_tags":["hits","short"],"duration":0.0625,"velocity":86.42877036126391},
{"position":318.2708333333333,"instrument":"Vibraphone","level2":18,"level3":1,"pitch":65,"articulation":"hits","articulation_tags":["hits","short"],"duration":0.0625,"velocity":86.42877036126391},
{"position":318.2708333333333,"instrument":"TheGrandeurPiano","level2":17,"level3":null,"pitch":58,"articulation":"standard","articulation_tags":["standard","long"],"duration":0.0763888888888889,"velocity":106.09475997542404},
{"position":318.2916666666667,"instrument":"Vibraphone","level2":17,"level3":1,"pitch":56,"articulation":"hits","articulation_tags":["hits","short"],"duration":0.0625,"velocity":90.7970295646292},
{"position":318.2916666666667,"instrument":"TheGrandeurPiano","level2":18,"level3":null,"pitch":62,"articulation":"standard","articulation_tags":["standard","long"],"duration":0.08333333333333333,"velocity":106.09475997542404},
{"position":318.3020833333333,"instrument":"Marimba","level2":17,"level3":1,"pitch":55,"articulation":"hits","articulation_tags":["hits","short"],"duration":0.0625,"velocity":90.7970295646292},
{"position":318.34375,"instrument":"Marimba","level2":13,"level3":5,"pitch":41,"articulation":"hits","articulation_tags":["hits","short"],"duration":0.0625,"velocity":122.40494215556572},
{"position":318.375,"instrument":"TheGrandeurPiano","level2":17,"level3":null,"pitch":58,"articulation":"standard","articulation_tags":["standard","long"],"duration":0.09027777777777778,"velocity":106.09475997542404},
{"position":318.4166666666667,"instrument":"TheGrandeurPiano","level2":18,"level3":null,"pitch":63,"articulation":"standard","articulation_tags":["standard","long"],"duration":0.10416666666666667,"velocity":105.6285930769572},
{"position":318.4479166666667,"instrument":"TheGrandeurPiano","level2":18,"level3":null,"pitch":63,"articulation":"standard","articulation_tags":["standard","long"],"duration":0.6597222222222222,"velocity":105.6285930769572},
{"position":318.5208333333333,"instrument":"Marimba","level2":17,"level3":0,"pitch":56,"articulation":"hits","articulation_tags":["hits","short"],"duration":0.0625,"velocity":91.40802682856778},
{"position":318.5208333333333,"instrument":"TheGrandeurPiano","level2":17,"level3":null,"pitch":57,"articulation":"standard","articulation_tags":["standard","long"],"duration":0.1111111111111111,"velocity":105.6285930769572},
{"position":318.5625,"instrument":"Marimba","level2":14,"level3":11,"pitch":51,"articulation":"hits","articulation_tags":["hits","short"],"duration":0.0625,"velocity":115.28232499129824},
{"position":318.5625,"instrument":"TheGrandeurPiano","level2":18,"level3":null,"pitch":63,"articulation":"standard","articulation_tags":["standard","long"],"duration":0.125,"velocity":105.6285930769572},
{"position":318.5833333333333,"instrument":"Contrabass","level2":16,"level3":6,"pitch":31,"articulation":"collegno","articulation_tags":["collegno","cl","short"],"duration":0.125,"velocity":127.5},
{"position":318.5833333333333,"instrument":"TheGrandeurPiano","level2":15,"level3":null,"pitch":50,"articulation":"standard","articulation_tags":["standard","long"],"duration":1.7874015748031495,"velocity":117.20327659788268},
{"position":318.65625,"instrument":"Marimba","level2":18,"level3":1,"pitch":65,"articulation":"hits","articulation_tags":["hits","short"],"duration":0.0625,"velocity":84.52572350218784},
{"position":318.6666666666667,"instrument":"Marimba","level2":13,"level3":2,"pitch":43,"articulation":"hits","articulation_tags":["hits","short"],"duration":0.0625,"velocity":122.40494215556572},
{"position":318.6875,"instrument":"TheGrandeurPiano","level2":17,"level3":null,"pitch":57,"articulation":"standard","articulation_tags":["standard","long"],"duration":0.13194444444444445,"velocity":105.34718609986182},
{"position":318.71875,"instrument":"Contrabass","level2":16,"level3":1,"pitch":32,"articulation":"collegno","articulation_tags":["collegno","cl","short"],"duration":0.125,"velocity":127.5},
{"position":318.71875,"instrument":"Contrabass","level2":16,"level3":6,"pitch":32,"articulation":"collegno","articulation_tags":["collegno","cl","short"],"duration":0.125,"velocity":127.5},
{"position":318.75,"instrument":"TheGrandeurPiano","level2":18,"level3":null,"pitch":64,"articulation":"standard","articulation_tags":["standard","long"],"duration":0.14583333333333334,"velocity":105.34718609986182},
{"position":318.875,"instrument":"Marimba","level2":17,"level3":1,"pitch":55,"articulation":"hits","articulation_tags":["hits","short"],"duration":0.0625,"velocity":92.63280893341079},
{"position":318.875,"instrument":"TheGrandeurPiano","level2":17,"level3":null,"pitch":57,"articulation":"standard","articulation_tags":["standard","long"],"duration":0.7291666666666666,"velocity":105.25309537126022},
{"position":318.8854166666667,"instrument":"TheGrandeurPiano","level2":17,"level3":null,"pitch":56,"articulation":"standard","articulation_tags":["standard","long"],"duration":0.1527777777777778,"velocity":105.25309537126022},
{"position":318.9166666666667,"instrument":"Marimba","level2":18,"level3":0,"pitch":64,"articulation":"hits","articulation_tags":["hits","short"],"duration":0.0625,"velocity":83.8988479201005},
{"position":318.9583333333333,"instrument":"TheGrandeurPiano","level2":18,"level3":null,"pitch":64,"articulation":"standard","articulation_tags":["standard","long"],"duration":0.16666666666666666,"velocity":105.25309537126022},
{"position":319.0208333333333,"instrument":"Marimba","level2":18,"level3":1,"pitch":65,"articulation":"hits","articulation_tags":["hits","short"],"duration":0.0625,"velocity":83.27679911391276},
{"position":319.0625,"instrument":"Marimba","level2":15,"level3":5,"pitch":38,"articulation":"hits","articulation_tags":["hits","short"],"duration":0.0625,"velocity":113.03953918873887},
{"position":319.09375,"instrument":"Marimba","level2":18,"level3":0,"pitch":64,"articulation":"hits","articulation_tags":["hits","short"],"duration":0.0625,"velocity":83.27679911391276},
{"position":319.1041666666667,"instrument":"TheGrandeurPiano","level2":13,"level3":null,"pitch":34,"articulation":"standard","articulation_tags":["standard","long"],"duration":0.8263888888888888,"velocity":107.2295390410383},
{"position":319.1145833333333,"instrument":"TheGrandeurPiano","level2":17,"level3":null,"pitch":56,"articulation":"standard","articulation_tags":["standard","long"],"duration":0.1736111111111111,"velocity":105.34718609986182},
{"position":319.1666666666667,"instrument":"Marimba","level2":17,"level3":1,"pitch":55,"articulation":"hits","articulation_tags":["hits","short"],"duration":0.0625,"velocity":93.86074865610078},
{"position":319.1875,"instrument":"TheGrandeurPiano","level2":16,"level3":null,"pitch":28,"articulation":"standard","articulation_tags":["standard","long"],"duration":0.6527777777777778,"velocity":118.11592814509103},
{"position":319.2083333333333,"instrument":"TheGrandeurPiano","level2":18,"level3":null,"pitch":65,"articulation":"standard","articulation_tags":["standard","long"],"duration":0.1875,"velocity":105.6285930769572},
{"position":319.2291666666667,"instrument":"Marimba","level2":17,"level3":0,"pitch":57,"articulation":"hits","articulation_tags":["hits","short"],"duration":0.0625,"velocity":93.86074865610078},
{"position":319.3125,"instrument":"Marimba","level2":17,"level3":0,"pitch":57,"articulation":"hits","articulation_tags":["hits","short"],"duration":0.0625,"velocity":93.86074865610078},
{"position":319.3541666666667,"instrument":"Bassoon","level2":12,"level3":6,"pitch":35,"articulation":"legato","articulation_tags":["legato","lg"],"duration":24.822916666666668,"velocity":127.0},
{"position":319.3541666666667,"instrument":"Contrabass","level2":16,"level3":0,"pitch":31,"articulation":"pizzicato","articulation_tags":["pizzicato","pz","short"],"duration":0.125,"velocity":127.5},
{"position":319.375,"instrument":"TheGrandeurPiano","level2":17,"level3":null,"pitch":55,"articulation":"standard","articulation_tags":["standard","long"],"duration":0.19444444444444445,"velocity":105.6285930769572},
{"position":319.4375,"instrument":"TheGrandeurPiano","level2":18,"level3":null,"pitch":65,"articulation":"standard","articulation_tags":["standard","long"],"duration":0.7430555555555556,"velocity":106.40848546562012},
{"position":319.4791666666667,"instrument":"Contrabass","level2":12,"level3":7,"pitch":32,"articulation":"short_hrm","articulation_tags":["short_hrm","hrm_s","short","harmonics"],"duration":0.125,"velocity":127.5},
{"position":319.5,"instrument":"TheGrandeurPiano","level2":18,"level3":null,"pitch":65,"articulation":"standard","articulation_tags":["standard","long"],"duration":0.2152777777777778,"velocity":106.40848546562012},
{"position":319.6458333333333,"instrument":"Marimba","level2":15,"level3":12,"pitch":36,"articulation":"hits","articulation_tags":["hits","short"],"duration":0.0625,"velocity":113.03953918873887},
{"position":319.6458333333333,"instrument":"Marimba","level2":15,"level3":13,"pitch":36,"articulation":"hits","articulation_tags":["hits","short"],"duration":0.0625,"velocity":113.03953918873887},
{"position":319.6666666666667,"instrument":"TheGrandeurPiano","level2":17,"level3":null,"pitch":55,"articulation":"standard","articulation_tags":["standard","long"],"duration":0.2152777777777778,"velocity":106.74155315586353},
{"position":319.8020833333333,"instrument":"Marimba","level2":13,"level3":2,"pitch":43,"articulation":"hits","articulation_tags":["hits","short"],"duration":0.0625,"velocity":122.49972328810297},
{"position":319.8125,"instrument":"TheGrandeurPiano","level2":18,"level3":null,"pitch":66,"articulation":"standard","articulation_tags":["standard","long"],"duration":0.2361111111111111,"velocity":107.87716394617551},
{"position":319.8958333333333,"instrument":"TheGrandeurPiano","level2":13,"level3":null,"pitch":34,"articulation":"standard","articulation_tags":["standard","long"],"duration":1.125,"velocity":109.44579139715592},
{"position":319.9166666666667,"instrument":"Contrabass","level2":12,"level3":8,"pitch":35,"articulation":"spiccato","articulation_tags":["spiccato","sp","short"],"duration":0.125,"velocity":127.5},
{"position":319.96875,"instrument":"TheGrandeurPiano","level2":17,"level3":null,"pitch":55,"articulation":"standard","articulation_tags":["standard","long"],"duration":0.6597222222222222,"velocity":107.87716394617551},
{"position":319.9895833333333,"instrument":"TheGrandeurPiano","level2":17,"level3":null,"pitch":54,"articulation":"standard","articulation_tags":["standard","long"],"duration":0.2361111111111111,"velocity":108.86742953347482},
{"position":320.0729166666667,"instrument":"Cello","level2":17,"level3":1,"pitch":55,"articulation":"staccato","articulation_tags":["staccato","st","short"],"duration":0.125,"velocity":95.82161042231257},
{"position":320.1770833333333,"instrument":"TheGrandeurPiano","level2":16,"level3":null,"pitch":28,"articulation":"standard","articulation_tags":["standard","long"],"duration":0.6111111111111112,"velocity":117.82181049803222},
{"position":320.1770833333333,"instrument":"TheGrandeurPiano","level2":18,"level3":null,"pitch":66,"articulation":"standard","articulation_tags":["standard","long"],"duration":0.2638888888888889,"velocity":105.66091159005789},
{"position":320.1875,"instrument":"Marimba","level2":14,"level3":8,"pitch":52,"articulation":"hits","articulation_tags":["hits","short"],"duration":0.0625,"velocity":115.28232499129824},
{"position":320.1875,"instrument":"Marimba","level2":13,"level3":5,"pitch":42,"articulation":"hits","articulation_tags":["hits","short"],"duration":0.0625,"velocity":123.1173458324239},
{"position":320.1979166666667,"instrument":"Contrabass","level2":13,"level3":6,"pitch":44,"articulation":"spiccato","articulation_tags":["spiccato","sp","short"],"duration":0.125,"velocity":123.1173458324239},
{"position":320.34375,"instrument":"TheGrandeurPiano","level2":13,"level3":null,"pitch":34,"articulation":"standard","articulation_tags":["standard","long"],"duration":0.7430555555555556,"velocity":108.75351849499711},
{"position":320.3541666666667,"instrument":"TheGrandeurPiano","level2":17,"level3":null,"pitch":54,"articulation":"standard","articulation_tags":["standard","long"],"duration":0.2638888888888889,"velocity":106.87116555382065},
{"position":320.3854166666667,"instrument":"Clarinet","level2":17,"level3":2,"pitch":56,"articulation":"legato","articulation_tags":["legato","lg"],"duration":0.0,"velocity":64.92836140068685},
{"position":320.3854166666667,"instrument":"Clarinet","level2":17,"level3":2,"pitch":56,"articulation":"legato","articulation_tags":["legato","lg"],"duration":0.2916666666666667,"velocity":64.92836140068685},
{"position":320.3854166666667,"instrument":"Marimba","level2":17,"level3":3,"pitch":55,"articulation":"hits","articulation_tags":["hits","short"],"duration":0.0625,"velocity":96.46418070034343},
{"position":320.3854166666667,"instrument":"Contrabass","level2":15,"level3":10,"pitch":35,"articulation":"pizzicato","articulation_tags":["pizzicato","pz","short"],"duration":0.125,"velocity":113.03953918873887},
{"position":320.40625,"instrument":"Marimba","level2":17,"level3":3,"pitch":55,"articulation":"hits","articulation_tags":["hits","short"],"duration":0.0625,"velocity":96.46418070034343},
{"position":320.5416666666667,"instrument":"Marimba","level2":15,"level3":12,"pitch":36,"articulation":"hits","articulation_tags":["hits","short"],"duration":0.0625,"velocity":113.03953918873887},
{"position":320.5416666666667,"instrument":"TheGrandeurPiano","level2":18,"level3":null,"pitch":66,"articulation":"standard","articulation_tags":["standard","long"],"duration":0.7916666666666666,"velocity":108.55276749259056},
{"position":320.5729166666667,"instrument":"TheGrandeurPiano","level2":18,"level3":null,"pitch":67,"articulation":"standard","articulation_tags":["standard","long"],"duration":0.2916666666666667,"velocity":108.55276749259056},
{"position":320.65625,"instrument":"Cello","level2":17,"level3":0,"pitch":57,"articulation":"short_hrm","articulation_tags":["short_hrm","hrm_s","short","harmonics"],"duration":0.125,"velocity":96.46418070034343},
{"position":320.65625,"instrument":"Viola","level2":17,"level3":3,"pitch":55,"articulation":"staccato","articulation_tags":["staccato","st","short"],"duration":0.125,"velocity":96.46418070034343},
{"position":320.6770833333333,"instrument":"Clarinet","level2":17,"level3":2,"pitch":56,"articulation":"legato","articulation_tags":["legato","lg"],"duration":0.875,"velocity":64.92836140068685},
{"position":320.75,"instrument":"TheGrandeurPiano","level2":17,"level3":null,"pitch":53,"articulation":"standard","articulation_tags":["standard","long"],"duration":0.2916666666666667,"velocity":106.77890473943623},
{"position":320.78125,"instrument":"Marimba","level2":17,"level3":2,"pitch":56,"articulation":"hits","articulation_tags":["hits","short"],"duration":0.0625,"velocity":97.11930673437169},
{"position":320.8125,"instrument":"Marimba","level2":14,"level3":3,"pitch":49,"articulation":"hits","articulation_tags":["hits","short"],"duration":0.0625,"velocity":115.28232499129824},
{"position":320.8541666666667,"instrument":"Marimba","level2":13,"level3":0,"pitch":44,"articulation":"hits","articulation_tags":["hits","short"],"duration":0.0625,"velocity":123.2188379212119},
{"position":320.8541666666667,"instrument":"Contrabass","level2":16,"level3":3,"pitch":33,"articulation":"collegno","articulation_tags":["collegno","cl","short"],"duration":0.125,"velocity":127.5},
{"position":320.8854166666667,"instrument":"Marimba","level2":17,"level3":1,"pitch":54,"articulation":"hits","articulation_tags":["hits","short"],"duration":0.0625,"velocity":97.11930673437169},
{"position":320.9583333333333,"instrument":"TheGrandeurPiano","level2":17,"level3":null,"pitch":53,"articulation":"standard","articulation_tags":["standard","long"],"duration":0.625,"velocity":108.8228324031688},
{"position":320.96875,"instrument":"Marimba","level2":13,"level3":2,"pitch":43,"articulation":"hits","articulation_tags":["hits","short"],"duration":0.0625,"velocity":123.2188379212119},
{"position":321.0,"instrument":"Marimba","level2":13,"level3":3,"pitch":40,"articulation":"hits","articulation_tags":["hits","short"],"duration":0.0625,"velocity":123.2188379212119},
{"position":321.0208333333333,"instrument":"TheGrandeurPiano","level2":18,"level3":null,"pitch":67,"articulation":"standard","articulation_tags":["standard","long"],"duration":0.3263888888888889,"velocity":108.8228324031688},
{"position":321.0833333333333,"instrument":"Marimba","level2":13,"level3":2,"pitch":42,"articulation":"hits","articulation_tags":["hits","short"],"duration":0.0625,"velocity":123.2188379212119},
{"position":321.09375,"instrument":"TheGrandeurPiano","level2":16,"level3":null,"pitch":28,"articulation":"standard","articulation_tags":["standard","long"],"duration":0.5763888888888888,"velocity":119.34970619888765},
{"position":321.1041666666667,"instrument":"Contrabass","level2":15,"level3":6,"pitch":35,"articulation":"pizzicato","articulation_tags":["pizzicato","pz","short"],"duration":0.125,"velocity":113.03953918873887},
{"position":321.1145833333333,"instrument":"Marimba","level2":17,"level3":4,"pitch":56,"articulation":"hits","articulation_tags":["hits","short"],"duration":0.0625,"velocity":97.25181674507873},
{"position":321.1145833333333,"instrument":"Vibraphone","level2":17,"level3":5,"pitch":56,"articulation":"hits","articulation_tags":["hits","short"],"duration":0.0625,"velocity":97.25181674507873},
{"position":321.125,"instrument":"Contrabass","level2":13,"level3":5,"pitch":42,"articulation":"short_hrm","articulation_tags":["short_hrm","hrm_s","short","harmonics"],"duration":0.125,"velocity":123.2188379212119},
{"position":321.125,"instrument":"Vibraphone","level2":17,"level3":3,"pitch":55,"articulation":"hits","articulation_tags":["hits","short"],"duration":0.0625,"velocity":97.25181674507873},
{"position":321.125,"instrument":"Vibraphone","level2":17,"level3":4,"pitch":56,"articulation":"hits","articulation_tags":["hits","short"],"duration":0.0625,"velocity":97.25181674507873},
{"position":321.125,"instrument":"Vibraphone","level2":17,"level3":5,"pitch":56,"articulation":"hits","articulation_tags":["hits","short"],"duration":0.0625,"velocity":97.25181674507873},
{"position":321.1666666666667,"instrument":"Marimba","level2":18,"level3":1,"pitch":65,"articulation":"hits","articulation_tags":["hits","short"],"duration":0.0625,"velocity":80.53255179952282},
{"position":321.1770833333333,"instrument":"TheGrandeurPiano","level2":17,"level3":null,"pitch":53,"articulation":"standard","articulation_tags":["standard","long"],"duration":0.3194444444444444,"velocity":107.91811798469584},
{"position":321.3229166666667,"instrument":"Cello","level2":17,"level3":4,"pitch":56,"articulation":"spiccato","articulation_tags":["spiccato","sp","short"],"duration":0.125,"velocity":97.9042011937249},
{"position":321.3541666666667,"instrument":"Marimba","level2":15,"level3":1,"pitch":38,"articulation":"hits","articulation_tags":["hits","short"],"duration":0.0625,"velocity":113.03953918873887},
{"position":321.3958333333333,"instrument":"Contrabass","level2":16,"level3":0,"pitch":31,"articulation":"pizzicato","articulation_tags":["pizzicato","pz","short"],"duration":0.125,"velocity":127.5},
{"position":321.40625,"instrument":"Cello","level2":14,"level3":1,"pitch":48,"articulation":"long_slt","articulation_tags":["long_slt","slt","long","sultasto"],"duration":21.5625,"velocity":102.56464998259648},
{"position":321.4270833333333,"instrument":"TheGrandeurPiano","level2":15,"level3":null,"pitch":51,"articulation":"standard","articulation_tags":["standard","long"],"duration":1.8031496062992125,"velocity":118.24667667185736},
{"position":321.4479166666667,"instrument":"Marimba","level2":13,"level3":1,"pitch":40,"articulation":"hits","articulation_tags":["hits","short"],"duration":0.0625,"velocity":123.2188379212119},
{"position":321.4583333333333,"instrument":"TheGrandeurPiano","level2":13,"level3":null,"pitch":34,"articulation":"standard","articulation_tags":["standard","long"],"duration":0.6666666666666666,"velocity":109.25135707743215},
{"position":321.5,"instrument":"TheGrandeurPiano","level2":18,"level3":null,"pitch":68,"articulation":"standard","articulation_tags":["standard","long"],"duration":0.3611111111111111,"velocity":107.36900413625568},
{"position":321.5416666666667,"instrument":"Clarinet","level2":17,"level3":2,"pitch":56,"articulation":"legato","articulation_tags":["legato","lg"],"duration":1.6354166666666667,"velocity":67.8084023874498},
{"position":321.5416666666667,"instrument":"Marimba","level2":17,"level3":5,"pitch":55,"articulation":"hits","articulation_tags":["hits","short"],"duration":0.0625,"velocity":97.9042011937249},
{"position":321.5416666666667,"instrument":"Marimba","level2":17,"level3":5,"pitch":55,"articulation":"hits","articulation_tags":["hits","short"],"duration":0.0625,"velocity":97.9042011937249},
{"position":321.5833333333333,"instrument":"TheGrandeurPiano","level2":13,"level3":null,"pitch":33,"articulation":"standard","articulation_tags":["standard","long"],"duration":1.0555555555555556,"velocity":111.5086233792081},
{"position":321.6041666666667,"instrument":"Cello","level2":17,"level3":3,"pitch":55,"articulation":"staccato","articulation_tags":["staccato","st","short"],"duration":0.125,"velocity":97.9042011937249},
{"position":321.65625,"instrument":"TheGrandeurPiano","level2":17,"level3":null,"pitch":52,"articulation":"standard","articulation_tags":["standard","long"],"duration":0.3472222222222222,"velocity":109.62627043803163},
{"position":321.6666666666667,"instrument":"Marimba","level2":15,"level3":3,"pitch":38,"articulation":"hits","articulation_tags":["hits","short"],"duration":0.0625,"velocity":112.57610874465871},
{"position":321.7291666666667,"instrument":"TheGrandeurPiano","level2":18,"level3":null,"pitch":68,"articulation":"standard","articulation_tags":["standard","long"],"duration":0.8333333333333334,"velocity":109.9399959282277},
{"position":321.78125,"instrument":"TheGrandeurPiano","level2":15,"level3":null,"pitch":51,"articulation":"standard","articulation_tags":["standard","long"],"duration":1.8031496062992125,"velocity":117.77995300082449},
{"position":321.8020833333333,"instrument":"Marimba","level2":13,"level3":6,"pitch":43,"articulation":"hits","articulation_tags":["hits","short"],"duration":0.0625,"velocity":123.94336856184152},
{"position":321.8125,"instrument":"Marimba","level2":14,"level3":9,"pitch":50,"articulation":"hits","articulation_tags":["hits","short"],"duration":0.0625,"velocity":115.28232499129824},
{"position":321.8854166666667,"instrument":"TheGrandeurPiano","level2":12,"level3":null,"pitch":27,"articulation":"standard","articulation_tags":["standard","long"],"duration":1.4251968503937007,"velocity":108.05764298705124},
{"position":321.8958333333333,"instrument":"Cello","level2":14,"level3":10,"pitch":51,"articulation":"long_cs","articulation_tags":["long_cs","cs","long","consordina"],"duration":4.239583333333333,"velocity":102.56464998259648},
{"position":321.8958333333333,"instrument":"TheGrandeurPiano","level2":17,"level3":null,"pitch":52,"articulation":"standard","articulation_tags":["standard","long"],"duration":0.5972222222222222,"velocity":109.9399959282277},
{"position":321.90625,"instrument":"Contrabass","level2":15,"level3":4,"pitch":34,"articulation":"pizzicato","articulation_tags":["pizzicato","pz","short"],"duration":0.125,"velocity":112.09622760075015},
{"position":321.9583333333333,"instrument":"TheGrandeurPiano","level2":16,"level3":null,"pitch":28,"articulation":"standard","articulation_tags":["standard","long"],"duration":0.5347222222222222,"velocity":120.65698147683112},
{"position":322.0208333333333,"instrument":"CorAnglais","level2":14,"level3":8,"pitch":52,"articulation":"trill_2m","articulation_tags":["trill_2m","long","trill","m2"],"duration":5.03125,"velocity":102.56464998259648},
{"position":322.03125,"instrument":"Clarinet","level2":17,"level3":4,"pitch":57,"articulation":"legato","articulation_tags":["legato","lg"],"duration":12.916666666666666,"velocity":69.39871243082914},
{"position":322.0416666666667,"instrument":"TheGrandeurPiano","level2":18,"level3":null,"pitch":68,"articulation":"standard","articulation_tags":["standard","long"],"duration":0.3958333333333333,"velocity":107.68272962645176},
{"position":322.125,"instrument":"Cello","level2":17,"level3":4,"pitch":57,"articulation":"short_hrm","articulation_tags":["short_hrm","hrm_s","short","harmonics"],"duration":0.125,"velocity":98.69935621541457},
{"position":322.1458333333333,"instrument":"Marimba","level2":18,"level3":0,"pitch":64,"articulation":"hits","articulation_tags":["hits","short"],"duration":0.0625,"velocity":80.08109381539522},
{"position":322.1770833333333,"instrument":"TheGrandeurPiano","level2":17,"level3":null,"pitch":52,"articulation":"standard","articulation_tags":["standard","long"],"duration":0.3819444444444444,"velocity":110.2938976085471},
{"position":322.1875,"instrument":"Marimba","level2":18,"level3":0,"pitch":64,"articulation":"hits","articulation_tags":["hits","short"],"duration":0.0625,"velocity":80.08109381539522},
{"position":322.2708333333333,"instrument":"Cello","level2":17,"level3":1,"pitch":54,"articulation":"short_marcato","articulation_tags":["short_marcato","marcato_s","short","marcato"],"duration":0.125,"velocity":99.34975186429716},
{"position":322.3125,"instrument":"Marimba","level2":14,"level3":0,"pitch":51,"articulation":"hits","articulation_tags":["hits","short"],"duration":0.0625,"velocity":115.28232499129824},
{"position":322.3125,"instrument":"Marimba","level2":17,"level3":0,"pitch":57,"articulation":"hits","articulation_tags":["hits","short"],"duration":0.0625,"velocity":99.34975186429716},
{"position":322.46875,"instrument":"TheGrandeurPiano","level2":13,"level3":null,"pitch":33,"articulation":"standard","articulation_tags":["standard","long"],"duration":0.6041666666666666,"velocity":112.82344893382883},
{"position":322.6041666666667,"instrument":"Marimba","level2":17,"level3":6,"pitch":56,"articulation":"hits","articulation_tags":["hits","short"],"duration":0.0625,"velocity":99.34975186429716},
{"position":322.6041666666667,"instrument":"Marimba","level2":17,"level3":7,"pitch":55,"articulation":"hits","articulation_tags":["hits","short"],"duration":0.0625,"velocity":99.34975186429716},
{"position":322.6041666666667,"instrument":"TheGrandeurPiano","level2":16,"level3":null,"pitch":29,"articulation":"standard","articulation_tags":["standard","long"],"duration":1.4566929133858268,"velocity":119.90375831914723},
{"position":322.625,"instrument":"TheGrandeurPiano","level2":18,"level3":null,"pitch":69,"articulation":"standard","articulation_tags":["standard","long"],"duration":0.4305555555555556,"velocity":109.13655789336488},
{"position":322.625,"instrument":"Vibraphone","level2":17,"level3":6,"pitch":56,"articulation":"hits","articulation_tags":["hits","short"],"duration":0.0625,"velocity":99.34975186429716},
{"position":322.625,"instrument":"Vibraphone","level2":17,"level3":7,"pitch":55,"articulation":"hits","articulation_tags":["hits","short"],"duration":0.0625,"velocity":99.34975186429716},
{"position":322.7291666666667,"instrument":"Contrabass","level2":15,"level3":0,"pitch":33,"articulation":"pizzicato","articulation_tags":["pizzicato","pz","short"],"duration":0.125,"velocity":112.09622760075015},
{"position":322.7395833333333,"instrument":"TheGrandeurPiano","level2":17,"level3":null,"pitch":51,"articulation":"standard","articulation_tags":["standard","long"],"duration":0.4166666666666667,"velocity":112.03310544331583},
{"position":322.7604166666667,"instrument":"TheGrandeurPiano","level2":16,"level3":null,"pitch":29,"articulation":"standard","articulation_tags":["standard","long"],"duration":0.5,"velocity":122.32722309037466},
{"position":322.78125,"instrument":"Cello","level2":17,"level3":5,"pitch":55,"articulation":"staccato","articulation_tags":["staccato","st","short"],"duration":0.125,"velocity":100.00093192808413},
{"position":322.78125,"instrument":"TheGrandeurPiano","level2":17,"level3":null,"pitch":51,"articulation":"standard","articulation_tags":["standard","long"],"duration":0.5694444444444444,"velocity":110.69579839576363},
{"position":322.7916666666667,"instrument":"Viola","level2":14,"level3":0,"pitch":51,"articulation":"long_hrm","articulation_tags":["long_hrm","hrm","long","harmonics"],"duration":9.927083333333334,"velocity":102.56464998259648},
{"position":322.8020833333333,"instrument":"Viola","level2":17,"level3":0,"pitch":57,"articulation":"short_hrm","articulation_tags":["short_hrm","hrm_s","short","harmonics"],"duration":0.125,"velocity":100.15149696047938},
{"position":322.8229166666667,"instrument":"Viola","level2":17,"level3":6,"pitch":56,"articulation":"spiccato","articulation_tags":["spiccato","sp","short"],"duration":0.125,"velocity":100.15149696047938},
{"position":322.875,"instrument":"Contrabass","level2":15,"level3":4,"pitch":34,"articulation":"pizzicato","articulation_tags":["pizzicato","pz","short"],"duration":0.125,"velocity":112.09622760075015},
{"position":322.90625,"instrument":"Cello","level2":17,"level3":3,"pitch":54,"articulation":"staccato","articulation_tags":["staccato","st","short"],"duration":0.125,"velocity":100.15149696047938},
{"position":322.9791666666667,"instrument":"TheGrandeurPiano","level2":18,"level3":null,"pitch":69,"articulation":"standard","articulation_tags":["standard","long"],"duration":0.875,"velocity":110.69579839576363},
{"position":322.9895833333333,"instrument":"Contrabass","level2":16,"level3":0,"pitch":31,"articulation":"pizzicato","articulation_tags":["pizzicato","pz","short"],"duration":0.125,"velocity":127.5},
{"position":323.0729166666667,"instrument":"Marimba","level2":17,"level3":7,"pitch":55,"articulation":"hits","articulation_tags":["hits","short"],"duration":0.0625,"velocity":100.15149696047938},
{"position":323.0833333333333,"instrument":"Marimba","level2":17,"level3":2,"pitch":57,"articulation":"hits","articulation_tags":["hits","short"],"duration":0.0625,"velocity":100.15149696047938},
{"position":323.1145833333333,"instrument":"Vibraphone","level2":17,"level3":5,"pitch":55,"articulation":"hits","articulation_tags":["hits","short"],"duration":0.0625,"velocity":100.15149696047938},
{"position":323.1666666666667,"instrument":"TheGrandeurPiano","level2":13,"level3":null,"pitch":33,"articulation":"standard","articulation_tags":["standard","long"],"duration":0.9791666666666666,"velocity":113.7171937176873},
{"position":323.1770833333333,"instrument":"Cello","level2":17,"level3":2,"pitch":57,"articulation":"short_hrm","articulation_tags":["short_hrm","hrm_s","short","harmonics"],"duration":0.125,"velocity":100.15149696047938},
{"position":323.2083333333333,"instrument":"Viola","level2":17,"level3":7,"pitch":55,"articulation":"staccato","articulation_tags":["staccato","st","short"],"duration":0.125,"velocity":100.15149696047938},
{"position":323.2708333333333,"instrument":"TheGrandeurPiano","level2":18,"level3":null,"pitch":69,"articulation":"standard","articulation_tags":["standard","long"],"duration":0.4722222222222222,"velocity":110.95961175497024},
{"position":323.3645833333333,"instrument":"TheGrandeurPiano","level2":17,"level3":null,"pitch":51,"articulation":"standard","articulation_tags":["standard","long"],"duration":0.4583333333333333,"velocity":110.95961175497024},
{"position":323.3645833333333,"instrument":"TheGrandeurPiano","level2":13,"level3":null,"pitch":33,"articulation":"standard","articulation_tags":["standard","long"],"duration":0.5416666666666666,"velocity":112.78934190263753},
{"position":323.4375,"instrument":"Contrabass","level2":12,"level3":4,"pitch":33,"articulation":"staccato","articulation_tags":["staccato","st","short"],"duration":0.125,"velocity":127.5},
{"position":323.4479166666667,"instrument":"Contrabass","level2":16,"level3":3,"pitch":33,"articulation":"collegno","articulation_tags":["collegno","cl","short"],"duration":0.125,"velocity":127.5},
{"position":323.5,"instrument":"TheGrandeurPiano","level2":16,"level3":null,"pitch":29,"articulation":"standard","articulation_tags":["standard","long"],"duration":0.4583333333333333,"velocity":119.65145048175029},
{"position":323.59375,"instrument":"Contrabass","level2":12,"level3":7,"pitch":32,"articulation":"short_hrm","articulation_tags":["short_hrm","hrm_s","short","harmonics"],"duration":0.125,"velocity":127.5},
{"position":323.6458333333333,"instrument":"TheGrandeurPiano","level2":17,"level3":null,"pitch":51,"articulation":"standard","articulation_tags":["standard","long"],"duration":0.5486111111111112,"velocity":113.26258673209644},
{"position":323.65625,"instrument":"Cello","level2":17,"level3":3,"pitch":54,"articulation":"staccato","articulation_tags":["staccato","st","short"],"duration":0.125,"velocity":100.96177738600004},
{"position":323.6666666666667,"instrument":"Viola","level2":17,"level3":4,"pitch":57,"articulation":"short_hrm","articulation_tags":["short_hrm","hrm_s","short","harmonics"],"duration":0.125,"velocity":100.96177738600004},
{"position":323.7395833333333,"instrument":"Marimba","level2":15,"level3":13,"pitch":37,"articulation":"hits","articulation_tags":["hits","short"],"duration":0.0625,"velocity":112.09622760075015},
{"position":323.8020833333333,"instrument":"Contrabass","level2":13,"level3":3,"pitch":40,"articulation":"short_hrm","articulation_tags":["short_hrm","hrm_s","short","harmonics"],"duration":0.125,"velocity":124.79496587617508},
{"position":323.84375,"instrument":"Cello","level2":17,"level3":6,"pitch":56,"articulation":"short_hrm","articulation_tags":["short_hrm","hrm_s","short","harmonics"],"duration":0.125,"velocity":100.96177738600004},
{"position":323.9270833333333,"instrument":"Contrabass","level2":13,"level3":6,"pitch":43,"articulation":"short_hrm","articulation_tags":["short_hrm","hrm_s","short","harmonics"],"duration":0.125,"velocity":124.79496587617508},
{"position":323.9479166666667,"instrument":"Viola","level2":14,"level3":1,"pitch":48,"articulation":"long_slt","articulation_tags":["long_slt","slt","long","sultasto"],"duration":5.083333333333333,"velocity":102.56464998259648},
{"position":323.9479166666667,"instrument":"Viola","level2":17,"level3":1,"pitch":54,"articulation":"short_marcato","articulation_tags":["short_marcato","marcato_s","short","marcato"],"duration":0.125,"velocity":100.96177738600004},
{"position":323.9791666666667,"instrument":"TheGrandeurPiano","level2":18,"level3":null,"pitch":70,"articulation":"standard","articulation_tags":["standard","long"],"duration":0.5208333333333334,"velocity":111.30971807843702},
{"position":324.03125,"instrument":"Cello","level2":17,"level3":6,"pitch":56,"articulation":"short_hrm","articulation_tags":["short_hrm","hrm_s","short","harmonics"],"duration":0.125,"velocity":100.96177738600004},
{"position":324.0520833333333,"instrument":"TheGrandeurPiano","level2":17,"level3":null,"pitch":50,"articulation":"standard","articulation_tags":["standard","long"],"duration":0.5069444444444444,"velocity":111.62344356863309},
{"position":324.1770833333333,"instrument":"TheGrandeurPiano","level2":13,"level3":null,"pitch":33,"articulation":"standard","articulation_tags":["standard","long"],"duration":0.4861111111111111,"velocity":112.83613452544016},
{"position":324.1979166666667,"instrument":"TheGrandeurPiano","level2":16,"level3":null,"pitch":29,"articulation":"standard","articulation_tags":["standard","long"],"duration":0.4236111111111111,"velocity":120.18907570191075},
{"position":324.2395833333333,"instrument":"Contrabass","level2":13,"level3":1,"pitch":41,"articulation":"short_hrm","articulation_tags":["short_hrm","hrm_s","short","harmonics"],"duration":0.125,"velocity":124.92439025655966},
{"position":324.2395833333333,"instrument":"Contrabass","level2":13,"level3":3,"pitch":41,"articulation":"short_hrm","articulation_tags":["short_hrm","hrm_s","short","harmonics"],"duration":0.125,"velocity":124.92439025655966},
{"position":324.3020833333333,"instrument":"TheGrandeurPiano","level2":18,"level3":null,"pitch":70,"articulation":"standard","articulation_tags":["standard","long"],"duration":0.9166666666666666,"velocity":110.56744690861987},
{"position":324.4479166666667,"instrument":"Contrabass","level2":13,"level3":0,"pitch":44,"articulation":"spiccato","articulation_tags":["spiccato","sp","short"],"duration":0.125,"velocity":124.92439025655966},
{"position":324.46875,"instrument":"TheGrandeurPiano","level2":17,"level3":null,"pitch":50,"articulation":"standard","articulation_tags":["standard","long"],"duration":0.5347222222222222,"velocity":110.88117239881595},
{"position":324.625,"instrument":"Contrabass","level2":13,"level3":0,"pitch":44,"articulation":"short_hrm","articulation_tags":["short_hrm","hrm_s","short","harmonics"],"duration":0.125,"velocity":124.92439025655966},
{"position":324.6354166666667,"instrument":"TheGrandeurPiano","level2":13,"level3":null,"pitch":32,"articulation":"standard","articulation_tags":["standard","long"],"duration":0.875,"velocity":115.34549265973047},
{"position":324.6458333333333,"instrument":"Cello","level2":14,"level3":9,"pitch":50,"articulation":"long_flt","articulation_tags":["long_flt","flt","long","flautando"],"duration":1.75,"velocity":102.56464998259648},
{"position":324.71875,"instrument":"Cello","level2":15,"level3":14,"pitch":36,"articulation":"pizzicato","articulation_tags":["pizzicato","pz","short"],"duration":0.125,"velocity":112.09622760075015},
{"position":324.7604166666667,"instrument":"TheGrandeurPiano","level2":18,"level3":null,"pitch":70,"articulation":"standard","articulation_tags":["standard","long"],"duration":0.5694444444444444,"velocity":113.50138610976862},
{"position":324.8020833333333,"instrument":"Clarinet","level2":18,"level3":1,"pitch":65,"articulation":"legato","articulation_tags":["legato","lg"],"duration":5.583333333333333,"velocity":32.16218763079044},
{"position":324.8125,"instrument":"Viola","level2":17,"level3":8,"pitch":55,"articulation":"spiccato","articulation_tags":["spiccato","sp","short"],"duration":0.125,"velocity":101.77989643634874},
{"position":324.8125,"instrument":"Viola","level2":17,"level3":9,"pitch":55,"articulation":"spiccato","articulation_tags":["spiccato","sp","short"],"duration":0.125,"velocity":101.77989643634874},
{"position":324.8125,"instrument":"TheGrandeurPiano","level2":17,"level3":null,"pitch":50,"articulation":"standard","articulation_tags":["standard","long"],"duration":0.5625,"velocity":113.79550375682743},
{"position":324.8333333333333,"instrument":"TheGrandeurPiano","level2":16,"level3":null,"pitch":29,"articulation":"standard","articulation_tags":["standard","long"],"duration":0.3888888888888889,"velocity":122.32491552153333},
{"position":324.8958333333333,"instrument":"Contrabass","level2":16,"level3":0,"pitch":32,"articulation":"pizzicato","articulation_tags":["pizzicato","pz","short"],"duration":0.125,"velocity":127.5},
{"position":324.90625,"instrument":"TheGrandeurPiano","level2":13,"level3":null,"pitch":32,"articulation":"standard","articulation_tags":["standard","long"],"duration":0.4305555555555556,"velocity":115.63961030678928},
{"position":324.9479166666667,"instrument":"Cello","level2":17,"level3":9,"pitch":55,"articulation":"spiccato","articulation_tags":["spiccato","sp","short"],"duration":0.125,"velocity":102.42294142266437},
{"position":324.9583333333333,"instrument":"TheGrandeurPiano","level2":15,"level3":null,"pitch":51,"articulation":"standard","articulation_tags":["standard","long"],"duration":1.8031496062992125,"velocity":122.99255148325987},
{"position":324.9791666666667,"instrument":"Viola","level2":17,"level3":8,"pitch":55,"articulation":"spiccato","articulation_tags":["spiccato","sp","short"],"duration":0.125,"velocity":102.42294142266437},
{"position":325.0,"instrument":"Viola","level2":17,"level3":10,"pitch":56,"articulation":"spiccato","articulation_tags":["spiccato","sp","short"],"duration":0.125,"velocity":102.42294142266437},
{"position":325.0,"instrument":"Violin","level2":17,"level3":11,"pitch":56,"articulation":"spiccato","articulation_tags":["spiccato","sp","short"],"duration":0.125,"velocity":102.42294142266437},
{"position":325.0,"instrument":"Marimba","level2":17,"level3":7,"pitch":54,"articulation":"hits","articulation_tags":["hits","short"],"duration":0.0625,"velocity":102.42294142266437},
{"position":325.0,"instrument":"TheGrandeurPiano","level2":15,"level3":null,"pitch":51,"articulation":"standard","articulation_tags":["standard","long"],"duration":1.8031496062992125,"velocity":122.69843383620105},
{"position":325.0104166666667,"instrument":"Violin","level2":17,"level3":11,"pitch":56,"articulation":"spiccato","articulation_tags":["spiccato","sp","short"],"duration":0.125,"velocity":102.42294142266437},
{"position":325.0416666666667,"instrument":"Violin","level2":17,"level3":9,"pitch":55,"articulation":"spiccato","articulation_tags":["spiccato","sp","short"],"duration":0.125,"velocity":102.42294142266437},
{"position":325.0416666666667,"instrument":"Marimba","level2":17,"level3":7,"pitch":54,"articulation":"hits","articulation_tags":["hits","short"],"duration":0.0625,"velocity":102.42294142266437},
{"position":325.0520833333333,"instrument":"Violin","level2":17,"level3":10,"pitch":56,"articulation":"spiccato","articulation_tags":["spiccato","sp","short"],"duration":0.125,"velocity":102.42294142266437},
{"position":325.09375,"instrument":"Cello","level2":15,"level3":10,"pitch":36,"articulation":"pizzicato","articulation_tags":["pizzicato","pz","short"],"duration":0.125,"velocity":111.15291908608313},
{"position":325.2395833333333,"instrument":"Cello","level2":17,"level3":8,"pitch":56,"articulation":"spiccato","articulation_tags":["spiccato","sp","short"],"duration":0.125,"velocity":102.42294142266437},
{"position":325.2604166666667,"instrument":"TheGrandeurPiano","level2":17,"level3":null,"pitch":50,"articulation":"standard","articulation_tags":["standard","long"],"duration":0.5138888888888888,"velocity":114.40663189731907},
{"position":325.3645833333333,"instrument":"Cello","level2":17,"level3":10,"pitch":56,"articulation":"spiccato","articulation_tags":["spiccato","sp","short"],"duration":0.125,"velocity":102.60522550686696},
{"position":325.4166666666667,"instrument":"Viola","level2":14,"level3":3,"pitch":49,"articulation":"long_flt","articulation_tags":["long_flt","flt","long","flautando"],"duration":3.6875,"velocity":102.56464998259648},
{"position":325.4166666666667,"instrument":"TheGrandeurPiano","level2":16,"level3":null,"pitch":29,"articulation":"standard","articulation_tags":["standard","long"],"duration":0.3541666666666667,"velocity":119.6008404077931},
{"position":325.46875,"instrument":"Contrabass","level2":16,"level3":3,"pitch":33,"articulation":"collegno","articulation_tags":["collegno","cl","short"],"duration":0.125,"velocity":127.5},
{"position":325.4895833333333,"instrument":"Contrabass","level2":16,"level3":0,"pitch":32,"articulation":"pizzicato","articulation_tags":["pizzicato","pz","short"],"duration":0.125,"velocity":127.5},
{"position":325.5520833333333,"instrument":"TheGrandeurPiano","level2":13,"level3":null,"pitch":32,"articulation":"standard","articulation_tags":["standard","long"],"duration":0.3819444444444444,"velocity":113.99991952206412},
{"position":325.625,"instrument":"TheGrandeurPiano","level2":18,"level3":null,"pitch":71,"articulation":"standard","articulation_tags":["standard","long"],"duration":0.6319444444444444,"velocity":111.62344356863309},
{"position":325.6458333333333,"instrument":"Cello","level2":17,"level3":11,"pitch":55,"articulation":"spiccato","articulation_tags":["spiccato","sp","short"],"duration":0.125,"velocity":102.60522550686696},
{"position":325.6458333333333,"instrument":"TheGrandeurPiano","level2":17,"level3":null,"pitch":49,"articulation":"standard","articulation_tags":["standard","long"],"duration":0.6319444444444444,"velocity":112.23521363971116},
{"position":325.6666666666667,"instrument":"TheGrandeurPiano","level2":18,"level3":null,"pitch":71,"articulation":"standard","articulation_tags":["standard","long"],"duration":0.9513888888888888,"velocity":111.93716905882917},
{"position":325.7604166666667,"instrument":"Contrabass","level2":13,"level3":6,"pitch":43,"articulation":"short_hrm","articulation_tags":["short_hrm","hrm_s","short","harmonics"],"duration":0.125,"velocity":125.8134368529316},
{"position":325.8958333333333,"instrument":"Marimba","level2":18,"level3":2,"pitch":64,"articulation":"hits","articulation_tags":["hits","short"],"duration":0.0625,"velocity":80.61522174893175},
{"position":325.8958333333333,"instrument":"Marimba","level2":18,"level3":3,"pitch":64,"articulation":"hits","articulation_tags":["hits","short"],"duration":0.0625,"velocity":80.61522174893175},
{"position":325.90625,"instrument":"Marimba","level2":18,"level3":2,"pitch":64,"articulation":"hits","articulation_tags":["hits","short"],"duration":0.0625,"velocity":80.61522174893175},
{"position":325.9166666666667,"instrument":"Cello","level2":17,"level3":11,"pitch":55,"articulation":"staccato","articulation_tags":["staccato","st","short"],"duration":0.125,"velocity":103.24552637506585},
{"position":325.9479166666667,"instrument":"TheGrandeurPiano","level2":16,"level3":null,"pitch":29,"articulation":"standard","articulation_tags":["standard","long"],"duration":0.3194444444444444,"velocity":121.4978808497435},
{"position":325.9479166666667,"instrument":"TheGrandeurPiano","level2":13,"level3":null,"pitch":32,"articulation":"standard","articulation_tags":["standard","long"],"duration":0.75,"velocity":115.61552790856702},
{"position":326.0,"instrument":"Viola","level2":14,"level3":9,"pitch":50,"articulation":"long_flt","articulation_tags":["long_flt","flt","long","flautando"],"duration":2.5208333333333335,"velocity":102.56464998259648},
{"position":326.03125,"instrument":"Marimba","level2":15,"level3":11,"pitch":37,"articulation":"hits","articulation_tags":["hits","short"],"duration":0.0625,"velocity":111.15291908608313},
{"position":326.03125,"instrument":"TheGrandeurPiano","level2":17,"level3":null,"pitch":49,"articulation":"standard","articulation_tags":["standard","long"],"duration":0.5,"velocity":114.1449396732729},
{"position":326.1041666666667,"instrument":"Marimba","level2":18,"level3":2,"pitch":64,"articulation":"hits","articulation_tags":["hits","short"],"duration":0.0625,"velocity":80.61522174893175},
{"position":326.1354166666667,"instrument":"Cello","level2":14,"level3":10,"pitch":51,"articulation":"long_cs","articulation_tags":["long_cs","cs","long","consordina"],"duration":2.59375,"velocity":102.56464998259648},
{"position":326.1354166666667,"instrument":"TheGrandeurPiano","level2":13,"level3":null,"pitch":32,"articulation":"standard","articulation_tags":["standard","long"],"duration":0.3402777777777778,"velocity":116.93804302973541},
{"position":326.1979166666667,"instrument":"Marimba","level2":18,"level3":3,"pitch":64,"articulation":"hits","articulation_tags":["hits","short"],"duration":0.0625,"velocity":80.61522174893175},
{"position":326.21875,"instrument":"Cello","level2":17,"level3":6,"pitch":56,"articulation":"short_hrm","articulation_tags":["short_hrm","hrm_s","short","harmonics"],"duration":0.125,"velocity":103.43719674296348},
{"position":326.2604166666667,"instrument":"Contrabass","level2":13,"level3":1,"pitch":41,"articulation":"short_hrm","articulation_tags":["short_hrm","hrm_s","short","harmonics"],"duration":0.125,"velocity":126.56977855377932},
{"position":326.2916666666667,"instrument":"Violin","level2":17,"level3":5,"pitch":55,"articulation":"staccato","articulation_tags":["staccato","st","short"],"duration":0.125,"velocity":103.43719674296348},
{"position":326.3020833333333,"instrument":"Marimba","level2":14,"level3":0,"pitch":51,"articulation":"hits","articulation_tags":["hits","short"],"duration":0.0625,"velocity":115.28232499129824},
{"position":326.3125,"instrument":"Contrabass","level2":15,"level3":8,"pitch":34,"articulation":"pizzicato","articulation_tags":["pizzicato","pz","short"],"duration":0.125,"velocity":111.15291908608313},
{"position":326.3125,"instrument":"TheGrandeurPiano","level2":16,"level3":null,"pitch":29,"articulation":"standard","articulation_tags":["standard","long"],"duration":1.1111111111111112,"velocity":119.55404778499047},
{"position":326.3541666666667,"instrument":"Cello","level2":17,"level3":8,"pitch":56,"articulation":"short_hrm","articulation_tags":["short_hrm","hrm_s","short","harmonics"],"duration":0.125,"velocity":103.43719674296348},
{"position":326.3958333333333,"instrument":"Cello","level2":14,"level3":9,"pitch":50,"articulation":"long_flt","articulation_tags":["long_flt","flt","long","flautando"],"duration":2.6666666666666665,"velocity":102.56464998259648},
{"position":326.4166666666667,"instrument":"Violin","level2":17,"level3":9,"pitch":55,"articulation":"staccato","articulation_tags":["staccato","st","short"],"duration":0.125,"velocity":103.43719674296348},
{"position":326.4270833333333,"instrument":"Contrabass","level2":17,"level3":3,"pitch":54,"articulation":"staccato","articulation_tags":["staccato","st","short"],"duration":0.125,"velocity":103.43719674296348},
{"position":326.4375,"instrument":"TheGrandeurPiano","level2":16,"level3":null,"pitch":29,"articulation":"standard","articulation_tags":["standard","long"],"duration":0.2916666666666667,"velocity":120.48189960004024},
{"position":326.46875,"instrument":"Violin","level2":17,"level3":2,"pitch":57,"articulation":"short_hrm","articulation_tags":["short_hrm","hrm_s","short","harmonics"],"duration":0.125,"velocity":103.43719674296348},
{"position":326.5729166666667,"instrument":"TheGrandeurPiano","level2":18,"level3":null,"pitch":71,"articulation":"standard","articulation_tags":["standard","long"],"duration":0.7013888888888888,"velocity":114.19152135545218},
{"position":326.5833333333333,"instrument":"Cello","level2":17,"level3":4,"pitch":57,"articulation":"short_hrm","articulation_tags":["short_hrm","hrm_s","short","harmonics"],"duration":0.125,"velocity":103.43719674296348},
{"position":326.6041666666667,"instrument":"TheGrandeurPiano","level2":17,"level3":null,"pitch":49,"articulation":"standard","articulation_tags":["standard","long"],"duration":0.7291666666666666,"velocity":114.77975664956983},
{"position":326.6458333333333,"instrument":"TheGrandeurPiano","level2":13,"level3":null,"pitch":32,"articulation":"standard","articulation_tags":["standard","long"],"duration":0.2986111111111111,"velocity":116.83858017898159},
{"position":326.6770833333333,"instrument":"Contrabass","level2":17,"level3":5,"pitch":54,"articulation":"staccato","articulation_tags":["staccato","st","short"],"duration":0.125,"velocity":104.07476245065729},
{"position":326.7083333333333,"instrument":"Contrabass","level2":13,"level3":3,"pitch":41,"articulation":"short_hrm","articulation_tags":["short_hrm","hrm_s","short","harmonics"],"duration":0.125,"velocity":126.72501262764924},
{"position":326.78125,"instrument":"Cello","level2":15,"level3":9,"pitch":37,"articulation":"collegno","articulation_tags":["collegno","cl","short"],"duration":0.125,"velocity":111.15291908608313},
{"position":326.78125,"instrument":"Contrabass","level2":13,"level3":6,"pitch":43,"articulation":"short_hrm","articulation_tags":["short_hrm","hrm_s","short","harmonics"],"duration":0.125,"velocity":126.72501262764924},
{"position":326.78125,"instrument":"TheGrandeurPiano","level2":17,"level3":null,"pitch":49,"articulation":"standard","articulation_tags":["standard","long"],"duration":0.4861111111111111,"velocity":113.79781132566877},
{"position":326.8645833333333,"instrument":"TheGrandeurPiano","level2":16,"level3":null,"pitch":29,"articulation":"standard","articulation_tags":["standard","long"],"duration":0.2569444444444444,"velocity":120.2683995609629},
{"position":326.9895833333333,"instrument":"Cello","level2":17,"level3":10,"pitch":56,"articulation":"short_hrm","articulation_tags":["short_hrm","hrm_s","short","harmonics"],"duration":0.125,"velocity":104.27529649667835},
{"position":327.0104166666667,"instrument":"Contrabass","level2":16,"level3":3,"pitch":33,"articulation":"collegno","articulation_tags":["collegno","cl","short"],"duration":0.125,"velocity":127.5},
{"position":327.0208333333333,"instrument":"Violin","level2":17,"level3":12,"pitch":55,"articulation":"spiccato","articulation_tags":["spiccato","sp","short"],"duration":0.125,"velocity":104.27529649667835},
{"position":327.0208333333333,"instrument":"Violin","level2":17,"level3":13,"pitch":55,"articulation":"spiccato","articulation_tags":["spiccato","sp","short"],"duration":0.125,"velocity":104.27529649667835},
{"position":327.0416666666667,"instrument":"Violin","level2":17,"level3":13,"pitch":55,"articulation":"spiccato","articulation_tags":["spiccato","sp","short"],"duration":0.125,"velocity":104.27529649667835},
{"position":327.0520833333333,"instrument":"Marimba","level2":14,"level3":8,"pitch":51,"articulation":"hits","articulation_tags":["hits","short"],"duration":0.0625,"velocity":115.28232499129824},
{"position":327.0729166666667,"instrument":"Violin","level2":17,"level3":0,"pitch":57,"articulation":"short_hrm","articulation_tags":["short_hrm","hrm_s","short","harmonics"],"duration":0.125,"velocity":104.27529649667835},
{"position":327.0729166666667,"instrument":"TheGrandeurPiano","level2":13,"level3":null,"pitch":31,"articulation":"standard","articulation_tags":["standard","long"],"duration":0.5833333333333334,"velocity":117.23216067679424},
{"position":327.0833333333333,"instrument":"TheGrandeurPiano","level2":13,"level3":null,"pitch":31,"articulation":"standard","articulation_tags":["standard","long"],"duration":0.2569444444444444,"velocity":117.52627832385306},
{"position":327.09375,"instrument":"TheGrandeurPiano","level2":18,"level3":null,"pitch":71,"articulation":"standard","articulation_tags":["standard","long"],"duration":0.9930555555555556,"velocity":114.87921950032364},
{"position":327.125,"instrument":"Cello","level2":17,"level3":12,"pitch":55,"articulation":"spiccato","articulation_tags":["spiccato","sp","short"],"duration":0.125,"velocity":104.27529649667835},
{"position":327.1770833333333,"instrument":"Marimba","level2":18,"level3":4,"pitch":64,"articulation":"hits","articulation_tags":["hits","short"],"duration":0.0625,"velocity":81.19749112855716},
{"position":327.1770833333333,"instrument":"Marimba","level2":18,"level3":5,"pitch":65,"articulation":"hits","articulation_tags":["hits","short"],"duration":0.0625,"velocity":81.19749112855716},
{"position":327.2083333333333,"instrument":"Contrabass","level2":16,"level3":0,"pitch":32,"articulation":"pizzicato","articulation_tags":["pizzicato","pz","short"],"duration":0.125,"velocity":127.5},
{"position":327.25,"instrument":"TheGrandeurPiano","level2":16,"level3":null,"pitch":29,"articulation":"standard","articulation_tags":["standard","long"],"duration":0.2222222222222222,"velocity":120.8543272862392},
{"position":327.2604166666667,"instrument":"TheGrandeurPiano","level2":12,"level3":null,"pitch":28,"articulation":"standard","articulation_tags":["standard","long"],"duration":1.4409448818897639,"velocity":111.0916745955179},
{"position":327.3229166666667,"instrument":"Cello","level2":17,"level3":9,"pitch":54,"articulation":"staccato","articulation_tags":["staccato","st","short"],"duration":0.125,"velocity":104.27529649667835},
{"position":327.40625,"instrument":"Marimba","level2":18,"level3":5,"pitch":65,"articulation":"hits","articulation_tags":["hits","short"],"duration":0.0625,"velocity":81.19749112855716},
{"position":327.46875,"instrument":"TheGrandeurPiano","level2":13,"level3":null,"pitch":31,"articulation":"standard","articulation_tags":["standard","long"],"duration":0.2152777777777778,"velocity":117.0307978744745},
{"position":327.5,"instrument":"Contrabass","level2":13,"level3":3,"pitch":41,"articulation":"short_hrm","articulation_tags":["short_hrm","hrm_s","short","harmonics"],"duration":0.125,"velocity":127.5},
{"position":327.5,"instrument":"Contrabass","level2":13,"level3":6,"pitch":42,"articulation":"short_hrm","articulation_tags":["short_hrm","hrm_s","short","harmonics"],"duration":0.125,"velocity":127.5},
{"position":327.5104166666667,"instrument":"TheGrandeurPiano","level2":17,"level3":null,"pitch":49,"articulation":"standard","articulation_tags":["standard","long"],"duration":0.4722222222222222,"velocity":114.49347160761347},
{"position":327.5208333333333,"instrument":"Contrabass","level2":13,"level3":1,"pitch":42,"articulation":"short_hrm","articulation_tags":["short_hrm","hrm_s","short","harmonics"],"duration":0.125,"velocity":127.5},
{"position":327.59375,"instrument":"Marimba","level2":18,"level3":4,"pitch":64,"articulation":"hits","articulation_tags":["hits","short"],"duration":0.0625,"velocity":81.19749112855716},
{"position":327.59375,"instrument":"TheGrandeurPiano","level2":16,"level3":null,"pitch":29,"articulation":"standard","articulation_tags":["standard","long"],"duration":0.19444444444444445,"velocity":120.08170690173112},
{"position":327.625,"instrument":"TheGrandeurPiano","level2":18,"level3":null,"pitch":72,"articulation":"standard","articulation_tags":["standard","long"],"duration":0.7847222222222222,"velocity":113.611118666437},
{"position":327.6770833333333,"instrument":"Marimba","level2":18,"level3":0,"pitch":63,"articulation":"hits","articulation_tags":["hits","short"],"duration":0.0625,"velocity":81.17187254233812},
{"position":327.6875,"instrument":"Contrabass","level2":16,"level3":0,"pitch":32,"articulation":"pizzicato","articulation_tags":["pizzicato","pz","short"],"duration":0.125,"velocity":127.5},
{"position":327.6979166666667,"instrument":"Contrabass","level2":13,"level3":0,"pitch":44,"articulation":"short_hrm","articulation_tags":["short_hrm","hrm_s","short","harmonics"],"duration":0.125,"velocity":127.5},
{"position":327.6979166666667,"instrument":"TheGrandeurPiano","level2":17,"level3":null,"pitch":48,"articulation":"standard","articulation_tags":["standard","long"],"duration":0.8819444444444444,"velocity":114.49347160761347},
{"position":327.7083333333333,"instrument":"Contrabass","level2":13,"level3":0,"pitch":43,"articulation":"short_hrm","articulation_tags":["short_hrm","hrm_s","short","harmonics"],"duration":0.125,"velocity":127.5},
{"position":327.7708333333333,"instrument":"Cello","level2":17,"level3":13,"pitch":55,"articulation":"spiccato","articulation_tags":["spiccato","sp","short"],"duration":0.125,"velocity":105.11905951267777},
{"position":327.7916666666667,"instrument":"TheGrandeurPiano","level2":13,"level3":null,"pitch":31,"articulation":"standard","articulation_tags":["standard","long"],"duration":0.18055555555555555,"velocity":118.97202918632571},
{"position":327.875,"instrument":"TheGrandeurPiano","level2":16,"level3":null,"pitch":29,"articulation":"standard","articulation_tags":["standard","long"],"duration":0.1597222222222222,"velocity":119.6272797022454},
{"position":327.9375,"instrument":"Marimba","level2":18,"level3":5,"pitch":65,"articulation":"hits","articulation_tags":["hits","short"],"duration":0.0625,"velocity":81.17187254233812},
{"position":327.9375,"instrument":"TheGrandeurPiano","level2":13,"level3":null,"pitch":31,"articulation":"standard","articulation_tags":["standard","long"],"duration":0.3611111111111111,"velocity":116.68610323165714},
{"position":327.9479166666667,"instrument":"Contrabass","level2":13,"level3":1,"pitch":42,"articulation":"short_hrm","articulation_tags":["short_hrm","hrm_s","short","harmonics"],"duration":0.125,"velocity":127.5},
{"position":327.96875,"instrument":"TheGrandeurPiano","level2":16,"level3":null,"pitch":30,"articulation":"standard","articulation_tags":["standard","long"],"duration":0.3888888888888889,"velocity":119.6272797022454},
{"position":327.9791666666667,"instrument":"Contrabass","level2":13,"level3":1,"pitch":42,"articulation":"short_hrm","articulation_tags":["short_hrm","hrm_s","short","harmonics"],"duration":0.125,"velocity":127.5},
{"position":328.03125,"instrument":"Marimba","level2":18,"level3":4,"pitch":64,"articulation":"hits","articulation_tags":["hits","short"],"duration":0.0625,"velocity":81.17187254233812},
{"position":328.0625,"instrument":"TheGrandeurPiano","level2":13,"level3":null,"pitch":31,"articulation":"standard","articulation_tags":["standard","long"],"duration":0.1388888888888889,"velocity":119.26614683338452},
{"position":328.1145833333333,"instrument":"Contrabass","level2":16,"level3":3,"pitch":33,"articulation":"collegno","articulation_tags":["collegno","cl","short"],"duration":0.125,"velocity":127.5},
{"position":328.1145833333333,"instrument":"TheGrandeurPiano","level2":16,"level3":null,"pitch":30,"articulation":"standard","articulation_tags":["standard","long"],"duration":0.125,"velocity":119.49347160761346},
{"position":328.1354166666667,"instrument":"Marimba","level2":18,"level3":2,"pitch":64,"articulation":"hits","articulation_tags":["hits","short"],"duration":0.0625,"velocity":81.17187254233812},
{"position":328.21875,"instrument":"TheGrandeurPiano","level2":17,"level3":null,"pitch":48,"articulation":"standard","articulation_tags":["standard","long"],"duration":0.4583333333333333,"velocity":114.78758925467228},
{"position":328.2395833333333,"instrument":"TheGrandeurPiano","level2":15,"level3":null,"pitch":51,"articulation":"standard","articulation_tags":["standard","long"],"duration":1.8031496062992125,"velocity":121.84641278408405},
{"position":328.2604166666667,"instrument":"Marimba","level2":18,"level3":3,"pitch":64,"articulation":"hits","articulation_tags":["hits","short"],"duration":0.0625,"velocity":81.17187254233812},
{"position":328.2708333333333,"instrument":"TheGrandeurPiano","level2":13,"level3":null,"pitch":31,"articulation":"standard","articulation_tags":["standard","long"],"duration":0.10416666666666667,"velocity":117.43464807820169},
{"position":328.3125,"instrument":"Contrabass","level2":16,"level3":0,"pitch":32,"articulation":"pizzicato","articulation_tags":["pizzicato","pz","short"],"duration":0.125,"velocity":127.5},
{"position":328.3125,"instrument":"TheGrandeurPiano","level2":16,"level3":null,"pitch":30,"articulation":"standard","articulation_tags":["standard","long"],"duration":0.09722222222222222,"velocity":119.19935396055465},
{"position":328.4270833333333,"instrument":"TheGrandeurPiano","level2":13,"level3":null,"pitch":31,"articulation":"standard","articulation_tags":["standard","long"],"duration":0.06944444444444445,"velocity":118.2072684627098},
{"position":328.4479166666667,"instrument":"TheGrandeurPiano","level2":16,"level3":null,"pitch":30,"articulation":"standard","articulation_tags":["standard","long"],"duration":0.0625,"velocity":119.38373905094508},
{"position":328.46875,"instrument":"Contrabass","level2":13,"level3":3,"pitch":42,"articulation":"short_hrm","articulation_tags":["short_hrm","hrm_s","short","harmonics"],"duration":0.125,"velocity":127.5},
{"position":328.4791666666667,"instrument":"Marimba","level2":18,"level3":2,"pitch":64,"articulation":"hits","articulation_tags":["hits","short"],"duration":0.0625,"velocity":81.17187254233812},
{"position":328.4791666666667,"instrument":"TheGrandeurPiano","level2":13,"level3":null,"pitch":30,"articulation":"standard","articulation_tags":["standard","long"],"duration":0.0763888888888889,"velocity":118.2072684627098},
{"position":328.5208333333333,"instrument":"Cello","level2":14,"level3":9,"pitch":50,"articulation":"long_flt","articulation_tags":["long_flt","flt","long","flautando"],"duration":0.5520833333333334,"velocity":102.56464998259648},
{"position":328.53125,"instrument":"TheGrandeurPiano","level2":13,"level3":null,"pitch":30,"articulation":"standard","articulation_tags":["standard","long"],"duration":0.034722222222222224,"velocity":118.50138610976862},
{"position":328.5416666666667,"instrument":"TheGrandeurPiano","level2":16,"level3":null,"pitch":30,"articulation":"standard","articulation_tags":["standard","long"],"duration":0.027777777777777776,"velocity":119.08962140388627},
{"position":328.5625,"instrument":"TheGrandeurPiano","level2":16,"level3":null,"pitch":30,"articulation":"standard","articulation_tags":["standard","long"],"duration":0.020833333333333332,"velocity":119.08962140388627},
{"position":328.5833333333333,"instrument":"TheGrandeurPiano","level2":18,"level3":null,"pitch":72,"articulation":"standard","articulation_tags":["standard","long"],"duration":1.0347222222222223,"velocity":114.38373905094508},
{"position":328.5833333333333,"instrument":"TheGrandeurPiano","level2":13,"level3":null,"pitch":30,"articulation":"standard","articulation_tags":["standard","long"],"duration":0.006944444444444444,"velocity":118.79550375682744},
{"position":328.59375,"instrument":"TheGrandeurPiano","level2":16,"level3":null,"pitch":30,"articulation":"standard","articulation_tags":["standard","long"],"duration":0.006944444444444444,"velocity":118.79550375682744},
{"position":328.6666666666667,"instrument":"Marimba","level2":15,"level3":7,"pitch":38,"articulation":"hits","articulation_tags":["hits","short"],"duration":0.0625,"velocity":110.6783900140279},
{"position":328.7291666666667,"instrument":"Cello","level2":17,"level3":14,"pitch":56,"articulation":"spiccato","articulation_tags":["spiccato","sp","short"],"duration":0.125,"velocity":105.34001192036058},
{"position":328.7291666666667,"instrument":"Viola","level2":17,"level3":15,"pitch":56,"articulation":"spiccato","articulation_tags":["spiccato","sp","short"],"duration":0.125,"velocity":105.34001192036058},
{"position":328.7291666666667,"instrument":"Marimba","level2":14,"level3":10,"pitch":50,"articulation":"hits","articulation_tags":["hits","short"],"duration":0.0625,"velocity":115.28232499129824},
{"position":328.7604166666667,"instrument":"Marimba","level2":15,"level3":11,"pitch":37,"articulation":"hits","articulation_tags":["hits","short"],"duration":0.0625,"velocity":110.6783900140279},
{"position":328.78125,"instrument":"Marimba","level2":14,"level3":10,"pitch":50,"articulation":"hits","articulation_tags":["hits","short"],"duration":0.0625,"velocity":115.28232499129824},
{"position":328.7916666666667,"instrument":"TheGrandeurPiano","level2":15,"level3":null,"pitch":52,"articulation":"standard","articulation_tags":["standard","long"],"duration":1.8188976377952757,"velocity":123.11451361797072},
{"position":328.8020833333333,"instrument":"Contrabass","level2":16,"level3":3,"pitch":33,"articulation":"pizzicato","articulation_tags":["pizzicato","pz","short"],"duration":0.125,"velocity":127.5},
{"position":328.8020833333333,"instrument":"Violin","level2":17,"level3":15,"pitch":56,"articulation":"spiccato","articulation_tags":["spiccato","sp","short"],"duration":0.125,"velocity":105.34001192036058},
{"position":328.8125,"instrument":"TheGrandeurPiano","level2":18,"level3":null,"pitch":72,"articulation":"standard","articulation_tags":["standard","long"],"duration":0.8958333333333334,"velocity":115.17333714738247},
{"position":328.8958333333333,"instrument":"TheGrandeurPiano","level2":17,"level3":null,"pitch":48,"articulation":"standard","articulation_tags":["standard","long"],"duration":0.4444444444444444,"velocity":114.68016426684524},
{"position":328.90625,"instrument":"Cello","level2":17,"level3":16,"pitch":55,"articulation":"spiccato","articulation_tags":["spiccato","sp","short"],"duration":0.125,"velocity":105.57276640041485},
{"position":328.90625,"instrument":"Viola","level2":17,"level3":17,"pitch":55,"articulation":"spiccato","articulation_tags":["spiccato","sp","short"],"duration":0.125,"velocity":105.57276640041485},
{"position":328.90625,"instrument":"Violin","level2":17,"level3":17,"pitch":55,"articulation":"spiccato","articulation_tags":["spiccato","sp","short"],"duration":0.125,"velocity":105.57276640041485},
{"position":328.9166666666667,"instrument":"Contrabass","level2":16,"level3":0,"pitch":32,"articulation":"pizzicato","articulation_tags":["pizzicato","pz","short"],"duration":0.125,"velocity":127.5},
{"position":329.0208333333333,"instrument":"TheGrandeurPiano","level2":17,"level3":null,"pitch":48,"articulation":"standard","articulation_tags":["standard","long"],"duration":1.1666666666666667,"velocity":114.68016426684524},
{"position":329.03125,"instrument":"Cello","level2":14,"level3":1,"pitch":48,"articulation":"long_slt","articulation_tags":["long_slt","slt","long","sultasto"],"duration":4.260416666666667,"velocity":102.56464998259648},
{"position":329.0729166666667,"instrument":"Contrabass","level2":16,"level3":3,"pitch":33,"articulation":"pizzicato","articulation_tags":["pizzicato","pz","short"],"duration":0.125,"velocity":127.5},
{"position":329.0729166666667,"instrument":"Contrabass","level2":16,"level3":3,"pitch":32,"articulation":"pizzicato","articulation_tags":["pizzicato","pz","short"],"duration":0.125,"velocity":127.5},
{"position":329.1041666666667,"instrument":"Cello","level2":14,"level3":3,"pitch":49,"articulation":"long_flt","articulation_tags":["long_flt","flt","long","flautando"],"duration":2.8541666666666665,"velocity":102.56464998259648},
{"position":329.1145833333333,"instrument":"Cello","level2":15,"level3":5,"pitch":38,"articulation":"collegno","articulation_tags":["collegno","cl","short"],"duration":0.125,"velocity":110.2096138723578},
{"position":329.3125,"instrument":"Contrabass","level2":13,"level3":0,"pitch":43,"articulation":"short_hrm","articulation_tags":["short_hrm","hrm_s","short","harmonics"],"duration":0.125,"velocity":127.5},
{"position":329.5208333333333,"instrument":"Contrabass","level2":13,"level3":3,"pitch":42,"articulation":"short_hrm","articulation_tags":["short_hrm","hrm_s","short","harmonics"],"duration":0.125,"velocity":127.5},
{"position":329.5520833333333,"instrument":"Marimba","level2":18,"level3":5,"pitch":65,"articulation":"hits","articulation_tags":["hits","short"],"duration":0.0625,"velocity":81.86273317638546},
{"position":329.5625,"instrument":"TheGrandeurPiano","level2":17,"level3":null,"pitch":48,"articulation":"standard","articulation_tags":["standard","long"],"duration":0.4305555555555556,"velocity":113.67169484381401},
{"position":329.65625,"instrument":"Contrabass","level2":13,"level3":0,"pitch":43,"articulation":"short_hrm","articulation_tags":["short_hrm","hrm_s","short","harmonics"],"duration":0.125,"velocity":127.5},
{"position":329.6666666666667,"instrument":"Cello","level2":17,"level3":17,"pitch":55,"articulation":"spiccato","articulation_tags":["spiccato","sp","short"],"duration":0.125,"velocity":106.4364314521525},
{"position":329.7604166666667,"instrument":"Viola","level2":14,"level3":0,"pitch":50,"articulation":"long_hrm","articulation_tags":["long_hrm","hrm","long","harmonics"],"duration":2.8125,"velocity":102.56464998259648},
{"position":329.8333333333333,"instrument":"Cello","level2":17,"level3":12,"pitch":55,"articulation":"spiccato","articulation_tags":["spiccato","sp","short"],"duration":0.125,"velocity":106.4364314521525},
{"position":329.84375,"instrument":"Contrabass","level2":13,"level3":0,"pitch":42,"articulation":"short_hrm","articulation_tags":["short_hrm","hrm_s","short","harmonics"],"duration":0.125,"velocity":127.5},
{"position":329.90625,"instrument":"Viola","level2":17,"level3":5,"pitch":54,"articulation":"staccato","articulation_tags":["staccato","st","short"],"duration":0.125,"velocity":106.4364314521525},
{"position":330.1145833333333,"instrument":"Cello","level2":15,"level3":3,"pitch":38,"articulation":"collegno","articulation_tags":["collegno","cl","short"],"duration":0.125,"velocity":110.2096138723578},
{"position":330.1354166666667,"instrument":"TheGrandeurPiano","level2":18,"level3":null,"pitch":72,"articulation":"standard","articulation_tags":["standard","long"],"duration":1.0763888888888888,"velocity":113.55564623118954},
{"position":330.1458333333333,"instrument":"TheGrandeurPiano","level2":18,"level3":null,"pitch":73,"articulation":"standard","articulation_tags":["standard","long"],"duration":1.0277777777777777,"velocity":113.55564623118954},
{"position":330.1979166666667,"instrument":"TheGrandeurPiano","level2":17,"level3":null,"pitch":48,"articulation":"standard","articulation_tags":["standard","long"],"duration":0.4166666666666667,"velocity":114.29403716912294},
{"position":330.3854166666667,"instrument":"Clarinet","level2":18,"level3":1,"pitch":65,"articulation":"legato","articulation_tags":["legato","lg"],"duration":9.197916666666666,"velocity":37.18911447655988},
{"position":330.5,"instrument":"Contrabass","level2":15,"level3":2,"pitch":33,"articulation":"pizzicato","articulation_tags":["pizzicato","pz","short"],"duration":0.125,"velocity":110.2096138723578},
{"position":330.6875,"instrument":"Cello","level2":17,"level3":13,"pitch":55,"articulation":"spiccato","articulation_tags":["spiccato","sp","short"],"duration":0.125,"velocity":106.68749016935251},
{"position":330.7291666666667,"instrument":"Viola","level2":17,"level3":0,"pitch":57,"articulation":"short_hrm","articulation_tags":["short_hrm","hrm_s","short","harmonics"],"duration":0.125,"velocity":106.68749016935251},
{"position":330.7708333333333,"instrument":"TheGrandeurPiano","level2":17,"level3":null,"pitch":47,"articulation":"standard","articulation_tags":["standard","long"],"duration":1.7401574803149606,"velocity":116.46545542673083},
{"position":330.78125,"instrument":"Viola","level2":17,"level3":8,"pitch":55,"articulation":"short_hrm","articulation_tags":["short_hrm","hrm_s","short","harmonics"],"duration":0.125,"velocity":107.30417670338542},
{"position":330.7916666666667,"instrument":"Contrabass","level2":15,"level3":0,"pitch":34,"articulation":"pizzicato","articulation_tags":["pizzicato","pz","short"],"duration":0.125,"velocity":110.2096138723578},
{"position":330.8229166666667,"instrument":"TheGrandeurPiano","level2":17,"level3":null,"pitch":47,"articulation":"standard","articulation_tags":["standard","long"],"duration":0.4027777777777778,"velocity":116.52196324796576},
{"position":330.9583333333333,"instrument":"Cello","level2":17,"level3":2,"pitch":56,"articulation":"short_hrm","articulation_tags":["short_hrm","hrm_s","short","harmonics"],"duration":0.125,"velocity":107.56162275368683},
{"position":331.0104166666667,"instrument":"Viola","level2":17,"level3":6,"pitch":56,"articulation":"short_hrm","articulation_tags":["short_hrm","hrm_s","short","harmonics"],"duration":0.125,"velocity":107.56162275368683},
{"position":331.1041666666667,"instrument":"Marimba","level2":18,"level3":0,"pitch":63,"articulation":"hits","articulation_tags":["hits","short"],"duration":0.0625,"velocity":82.59455723827995},
{"position":331.2291666666667,"instrument":"Contrabass","level2":15,"level3":2,"pitch":33,"articulation":"pizzicato","articulation_tags":["pizzicato","pz","short"],"duration":0.125,"velocity":110.2096138723578},
{"position":331.2395833333333,"instrument":"Cello","level2":17,"level3":11,"pitch":55,"articulation":"spiccato","articulation_tags":["spiccato","sp","short"],"duration":0.125,"velocity":107.56162275368683},
{"position":331.3645833333333,"instrument":"Cello","level2":15,"level3":5,"pitch":38,"articulation":"collegno","articulation_tags":["collegno","cl","short"],"duration":0.125,"velocity":110.2096138723578},
{"position":331.4270833333333,"instrument":"TheGrandeurPiano","level2":17,"level3":null,"pitch":47,"articulation":"standard","articulation_tags":["standard","long"],"duration":0.3888888888888889,"velocity":113.64224376352666},
{"position":331.4895833333333,"instrument":"TheGrandeurPiano","level2":15,"level3":null,"pitch":52,"articulation":"standard","articulation_tags":["standard","long"],"duration":1.8188976377952757,"velocity":119.186393241537},
{"position":331.5,"instrument":"Cello","level2":14,"level3":8,"pitch":51,"articulation":"long_hrm","articulation_tags":["long_hrm","hrm","long","harmonics"],"duration":3.8958333333333335,"velocity":102.56464998259648},
{"position":331.53125,"instrument":"Viola","level2":17,"level3":8,"pitch":55,"articulation":"spiccato","articulation_tags":["spiccato","sp","short"],"duration":0.125,"velocity":107.82963982694712},
{"position":331.65625,"instrument":"Marimba","level2":18,"level3":4,"pitch":64,"articulation":"hits","articulation_tags":["hits","short"],"duration":0.0625,"velocity":82.59455723827995},
{"position":331.6875,"instrument":"TheGrandeurPiano","level2":18,"level3":null,"pitch":73,"articulation":"standard","articulation_tags":["standard","long"],"duration":1.2152777777777777,"velocity":112.24789923132252},
{"position":331.75,"instrument":"TheGrandeurPiano","level2":18,"level3":null,"pitch":73,"articulation":"standard","articulation_tags":["standard","long"],"duration":1.125,"velocity":112.54201687838133},
{"position":331.8020833333333,"instrument":"Viola","level2":17,"level3":9,"pitch":54,"articulation":"spiccato","articulation_tags":["spiccato","sp","short"],"duration":0.125,"velocity":107.82963982694712},
{"position":331.9583333333333,"instrument":"Cello","level2":14,"level3":3,"pitch":49,"articulation":"long_cs","articulation_tags":["long_cs","cs","long","consordina"],"duration":2.0104166666666665,"velocity":102.56464998259648},
{"position":331.96875,"instrument":"Contrabass","level2":15,"level3":6,"pitch":35,"articulation":"pizzicato","articulation_tags":["pizzicato","pz","short"],"duration":0.125,"velocity":109.7350146478321},
{"position":332.0104166666667,"instrument":"TheGrandeurPiano","level2":17,"level3":null,"pitch":47,"articulation":"standard","articulation_tags":["standard","long"],"duration":0.375,"velocity":115.17639011029941},
{"position":332.0208333333333,"instrument":"Viola","level2":17,"level3":14,"pitch":56,"articulation":"spiccato","articulation_tags":["spiccato","sp","short"],"duration":0.125,"velocity":108.10799252885045},
{"position":332.0208333333333,"instrument":"Viola","level2":17,"level3":14,"pitch":55,"articulation":"spiccato","articulation_tags":["spiccato","sp","short"],"duration":0.125,"velocity":108.10799252885045},
{"position":332.0520833333333,"instrument":"TheGrandeurPiano","level2":14,"level3":null,"pitch":58,"articulation":"standard","articulation_tags":["standard","long"],"duration":1.1388888888888888,"velocity":125.47050775735823},
{"position":332.09375,"instrument":"TheGrandeurPiano","level2":12,"level3":null,"pitch":28,"articulation":"standard","articulation_tags":["standard","long"],"duration":1.4409448818897639,"velocity":109.89465009758257},
{"position":332.1145833333333,"instrument":"Violin","level2":17,"level3":13,"pitch":55,"articulation":"spiccato","articulation_tags":["spiccato","sp","short"],"duration":0.125,"velocity":108.10799252885045},
{"position":332.1458333333333,"instrument":"Viola","level2":17,"level3":13,"pitch":55,"articulation":"spiccato","articulation_tags":["spiccato","sp","short"],"duration":0.125,"velocity":108.10799252885045},
{"position":332.3645833333333,"instrument":"Viola","level2":17,"level3":6,"pitch":56,"articulation":"short_hrm","articulation_tags":["short_hrm","hrm_s","short","harmonics"],"duration":0.125,"velocity":108.10799252885045},
{"position":332.5625,"instrument":"Viola","level2":14,"level3":0,"pitch":50,"articulation":"long_hrm","articulation_tags":["long_hrm","hrm","long","harmonics"],"duration":1.9583333333333333,"velocity":101.35331668733147},
{"position":332.5729166666667,"instrument":"TheGrandeurPiano","level2":17,"level3":null,"pitch":47,"articulation":"standard","articulation_tags":["standard","long"],"duration":0.3611111111111111,"velocity":115.14228307910811},
{"position":332.6145833333333,"instrument":"Marimba","level2":18,"level3":4,"pitch":63,"articulation":"hits","articulation_tags":["hits","short"],"duration":0.0625,"velocity":83.35906594992042},
{"position":332.625,"instrument":"Marimba","level2":18,"level3":3,"pitch":64,"articulation":"hits","articulation_tags":["hits","short"],"duration":0.0625,"velocity":83.35906594992042},
{"position":332.6458333333333,"instrument":"TheGrandeurPiano","level2":14,"level3":null,"pitch":58,"articulation":"standard","articulation_tags":["standard","long"],"duration":0.5416666666666666,"velocity":125.14228307910813},
{"position":332.71875,"instrument":"Viola","level2":14,"level3":0,"pitch":50,"articulation":"long_hrm","articulation_tags":["long_hrm","hrm","long","harmonics"],"duration":2.1354166666666665,"velocity":101.92487386372966},
{"position":332.7916666666667,"instrument":"CorAnglais","level2":17,"level3":2,"pitch":56,"articulation":"legato","articulation_tags":["legato","lg"],"duration":2.7395833333333335,"velocity":88.79288745144895},
{"position":332.8645833333333,"instrument":"Marimba","level2":17,"level3":0,"pitch":57,"articulation":"hits","articulation_tags":["hits","short"],"duration":0.0625,"velocity":108.39644372572448},
{"position":332.9375,"instrument":"Marimba","level2":17,"level3":7,"pitch":54,"articulation":"hits","articulation_tags":["hits","short"],"duration":0.0625,"velocity":108.39644372572448},
{"position":333.0104166666667,"instrument":"Contrabass","level2":15,"level3":15,"pitch":35,"articulation":"collegno","articulation_tags":["collegno","cl","short"],"duration":0.125,"velocity":109.7350146478321},
{"position":333.0104166666667,"instrument":"Contrabass","level2":15,"level3":16,"pitch":35,"articulation":"collegno","articulation_tags":["collegno","cl","short"],"duration":0.125,"velocity":109.7350146478321},
{"position":333.0104166666667,"instrument":"TheGrandeurPiano","level2":15,"level3":null,"pitch":52,"articulation":"standard","articulation_tags":["standard","long"],"duration":1.8188976377952757,"velocity":119.6008404077931},
{"position":333.0416666666667,"instrument":"Contrabass","level2":15,"level3":15,"pitch":35,"articulation":"collegno","articulation_tags":["collegno","cl","short"],"duration":0.125,"velocity":109.26631221023987},
{"position":333.0625,"instrument":"Contrabass","level2":12,"level3":6,"pitch":35,"articulation":"staccato","articulation_tags":["staccato","st","short"],"duration":0.125,"velocity":127.5},
{"position":333.125,"instrument":"TheGrandeurPiano","level2":17,"level3":null,"pitch":47,"articulation":"standard","articulation_tags":["standard","long"],"duration":0.3541666666666667,"velocity":115.18907570191074},
{"position":333.1770833333333,"instrument":"Marimba","level2":15,"level3":9,"pitch":37,"articulation":"hits","articulation_tags":["hits","short"],"duration":0.0625,"velocity":109.26631221023987},
{"position":333.2083333333333,"instrument":"Contrabass","level2":12,"level3":7,"pitch":32,"articulation":"short_hrm","articulation_tags":["short_hrm","hrm_s","short","harmonics"],"duration":0.125,"velocity":127.5},
{"position":333.25,"instrument":"Marimba","level2":18,"level3":2,"pitch":63,"articulation":"hits","articulation_tags":["hits","short"],"duration":0.0625,"velocity":83.35906594992042},
{"position":333.2708333333333,"instrument":"Marimba","level2":17,"level3":1,"pitch":54,"articulation":"hits","articulation_tags":["hits","short"],"duration":0.0625,"velocity":108.6947552707152},
{"position":333.28125,"instrument":"Vibraphone","level2":17,"level3":9,"pitch":55,"articulation":"hits","articulation_tags":["hits","short"],"duration":0.0625,"velocity":108.6947552707152},
{"position":333.2916666666667,"instrument":"Viola","level2":14,"level3":1,"pitch":48,"articulation":"long_flt","articulation_tags":["long_flt","flt","long","flautando"],"duration":3.53125,"velocity":101.92487386372966},
{"position":333.4479166666667,"instrument":"TheGrandeurPiano","level2":18,"level3":null,"pitch":73,"articulation":"standard","articulation_tags":["standard","long"],"duration":1.1805555555555556,"velocity":111.64636181493351},
{"position":333.4583333333333,"instrument":"TheGrandeurPiano","level2":14,"level3":null,"pitch":57,"articulation":"standard","articulation_tags":["standard","long"],"duration":0.5069444444444444,"velocity":123.72728773091193},
{"position":333.5104166666667,"instrument":"TheGrandeurPiano","level2":18,"level3":null,"pitch":74,"articulation":"standard","articulation_tags":["standard","long"],"duration":1.5,"velocity":113.41168422794647},
{"position":333.59375,"instrument":"Marimba","level2":17,"level3":5,"pitch":55,"articulation":"hits","articulation_tags":["hits","short"],"duration":0.0625,"velocity":108.6947552707152},
{"position":333.6458333333333,"instrument":"TheGrandeurPiano","level2":17,"level3":null,"pitch":47,"articulation":"standard","articulation_tags":["standard","long"],"duration":0.3402777777777778,"velocity":113.46735325771118},
{"position":333.6875,"instrument":"Marimba","level2":17,"level3":5,"pitch":55,"articulation":"hits","articulation_tags":["hits","short"],"duration":0.0625,"velocity":109.00268868551422},
{"position":333.7291666666667,"instrument":"Marimba","level2":17,"level3":6,"pitch":55,"articulation":"hits","articulation_tags":["hits","short"],"duration":0.0625,"velocity":109.00268868551422},
{"position":333.7604166666667,"instrument":"TheGrandeurPiano","level2":14,"level3":null,"pitch":57,"articulation":"standard","articulation_tags":["standard","long"],"duration":0.8472222222222222,"velocity":122.5850003165347},
{"position":333.84375,"instrument":"Marimba","level2":17,"level3":9,"pitch":55,"articulation":"hits","articulation_tags":["hits","short"],"duration":0.0625,"velocity":109.00268868551422},
{"position":333.9479166666667,"instrument":"Marimba","level2":17,"level3":10,"pitch":56,"articulation":"hits","articulation_tags":["hits","short"],"duration":0.0625,"velocity":109.00268868551422},
{"position":333.96875,"instrument":"Marimba","level2":14,"level3":3,"pitch":49,"articulation":"hits","articulation_tags":["hits","short"],"duration":0.0625,"velocity":114.66101536250228},
{"position":334.0729166666667,"instrument":"Marimba","level2":17,"level3":3,"pitch":54,"articulation":"hits","articulation_tags":["hits","short"],"duration":0.0625,"velocity":109.00268868551422},
{"position":334.0729166666667,"instrument":"Marimba","level2":17,"level3":10,"pitch":56,"articulation":"hits","articulation_tags":["hits","short"],"duration":0.0625,"velocity":109.00268868551422},
{"position":334.1041666666667,"instrument":"Cello","level2":15,"level3":1,"pitch":39,"articulation":"collegno","articulation_tags":["collegno","cl","short"],"duration":0.125,"velocity":109.26631221023987},
{"position":334.1458333333333,"instrument":"Marimba","level2":17,"level3":6,"pitch":55,"articulation":"hits","articulation_tags":["hits","short"],"duration":0.0625,"velocity":109.00268868551422},
{"position":334.15625,"instrument":"TheGrandeurPiano","level2":17,"level3":null,"pitch":47,"articulation":"standard","articulation_tags":["standard","long"],"duration":0.3263888888888889,"velocity":113.07407064788332},
{"position":334.2083333333333,"instrument":"TheGrandeurPiano","level2":14,"level3":null,"pitch":57,"articulation":"standard","articulation_tags":["standard","long"],"duration":0.4722222222222222,"velocity":121.89760005964803},
{"position":334.2395833333333,"instrument":"Marimba","level2":18,"level3":5,"pitch":65,"articulation":"hits","articulation_tags":["hits","short"],"duration":0.0625,"velocity":84.14982639079322},
{"position":334.4791666666667,"instrument":"Marimba","level2":17,"level3":9,"pitch":55,"articulation":"hits","articulation_tags":["hits","short"],"duration":0.0625,"velocity":109.320005796061},
{"position":334.4895833333333,"instrument":"Marimba","level2":17,"level3":9,"pitch":55,"articulation":"hits","articulation_tags":["hits","short"],"duration":0.0625,"velocity":109.320005796061},
{"position":334.5208333333333,"instrument":"Marimba","level2":14,"level3":0,"pitch":49,"articulation":"hits","articulation_tags":["hits","short"],"duration":0.0625,"velocity":114.96761531275894},
{"position":334.5625,"instrument":"Contrabass","level2":15,"level3":15,"pitch":35,"articulation":"collegno","articulation_tags":["collegno","cl","short"],"duration":0.125,"velocity":109.26631221023987},
{"position":334.6145833333333,"instrument":"Marimba","level2":17,"level3":2,"pitch":56,"articulation":"hits","articulation_tags":["hits","short"],"duration":0.0625,"velocity":109.320005796061},
{"position":334.6458333333333,"instrument":"TheGrandeurPiano","level2":17,"level3":null,"pitch":47,"articulation":"standard","articulation_tags":["standard","long"],"duration":0.3125,"velocity":113.54079431891618},
{"position":334.6979166666667,"instrument":"Marimba","level2":15,"level3":16,"pitch":36,"articulation":"hits","articulation_tags":["hits","short"],"duration":0.0625,"velocity":109.26631221023987},
{"position":334.7604166666667,"instrument":"TheGrandeurPiano","level2":15,"level3":null,"pitch":52,"articulation":"standard","articulation_tags":["standard","long"],"duration":1.8188976377952757,"velocity":114.75933855753253},
{"position":334.7916666666667,"instrument":"Marimba","level2":15,"level3":3,"pitch":38,"articulation":"hits","articulation_tags":["hits","short"],"duration":0.0625,"velocity":108.7916392816363},
{"position":334.8541666666667,"instrument":"Marimba","level2":14,"level3":0,"pitch":49,"articulation":"hits","articulation_tags":["hits","short"],"duration":0.0625,"velocity":114.96761531275894},
{"position":334.9166666666667,"instrument":"TheGrandeurPiano","level2":14,"level3":null,"pitch":56,"articulation":"standard","articulation_tags":["standard","long"],"duration":0.4375,"velocity":122.5850003165347},
{"position":334.9479166666667,"instrument":"Clarinet","level2":17,"level3":4,"pitch":56,"articulation":"legato","articulation_tags":["legato","lg"],"duration":2.5833333333333335,"velocity":91.29293864262478},
{"position":335.0208333333333,"instrument":"Marimba","level2":14,"level3":3,"pitch":49,"articulation":"hits","articulation_tags":["hits","short"],"duration":0.0625,"velocity":115.28232499129824},
{"position":335.03125,"instrument":"TheGrandeurPiano","level2":14,"level3":null,"pitch":56,"articulation":"standard","articulation_tags":["standard","long"],"duration":0.6597222222222222,"velocity":120.46886932156163},
{"position":335.0625,"instrument":"Marimba","level2":14,"level3":3,"pitch":49,"articulation":"hits","articulation_tags":["hits","short"],"duration":0.0625,"velocity":114.69750673687005},
{"position":335.1041666666667,"instrument":"TheGrandeurPiano","level2":17,"level3":null,"pitch":47,"articulation":"standard","articulation_tags":["standard","long"],"duration":0.2986111111111111,"velocity":112.5276928509734},
{"position":335.1041666666667,"instrument":"Marimba","level2":17,"level3":4,"pitch":56,"articulation":"hits","articulation_tags":["hits","short"],"duration":0.0625,"velocity":109.98184341477582},
{"position":335.1666666666667,"instrument":"Marimba","level2":17,"level3":5,"pitch":55,"articulation":"hits","articulation_tags":["hits","short"],"duration":0.0625,"velocity":109.98184341477582},
{"position":335.1979166666667,"instrument":"Marimba","level2":17,"level3":0,"pitch":56,"articulation":"hits","articulation_tags":["hits","short"],"duration":0.0625,"velocity":109.98184341477582},
{"position":335.2083333333333,"instrument":"TheGrandeurPiano","level2":18,"level3":null,"pitch":74,"articulation":"standard","articulation_tags":["standard","long"],"duration":1.2361111111111112,"velocity":107.29864397317493},
{"position":335.2916666666667,"instrument":"Marimba","level2":17,"level3":7,"pitch":54,"articulation":"hits","articulation_tags":["hits","short"],"duration":0.0625,"velocity":109.98184341477582},
{"position":335.3958333333333,"instrument":"Marimba","level2":14,"level3":8,"pitch":50,"articulation":"hits","articulation_tags":["hits","short"],"duration":0.0625,"velocity":114.69750673687005},
{"position":335.4583333333333,"instrument":"Marimba","level2":17,"level3":10,"pitch":56,"articulation":"hits","articulation_tags":["hits","short"],"duration":0.0625,"velocity":109.98184341477582},
{"position":335.5,"instrument":"Marimba","level2":17,"level3":10,"pitch":55,"articulation":"hits","articulation_tags":["hits","short"],"duration":0.0625,"velocity":109.98184341477582},
{"position":335.5416666666667,"instrument":"CorAnglais","level2":17,"level3":2,"pitch":56,"articulation":"legato","articulation_tags":["legato","lg"],"duration":1.0625,"velocity":91.96368682955163},
{"position":335.5520833333333,"instrument":"TheGrandeurPiano","level2":17,"level3":null,"pitch":47,"articulation":"standard","articulation_tags":["standard","long"],"duration":0.2847222222222222,"velocity":112.37939153164378},
{"position":335.5625,"instrument":"TheGrandeurPiano","level2":14,"level3":null,"pitch":56,"articulation":"standard","articulation_tags":["standard","long"],"duration":0.4027777777777778,"velocity":120.02645035517318},
{"position":335.59375,"instrument":"Marimba","level2":17,"level3":5,"pitch":55,"articulation":"hits","articulation_tags":["hits","short"],"duration":0.0625,"velocity":110.3258941590425},
{"position":335.6041666666667,"instrument":"Marimba","level2":18,"level3":0,"pitch":63,"articulation":"hits","articulation_tags":["hits","short"],"duration":0.0625,"velocity":84.8001099126252},
{"position":335.71875,"instrument":"Marimba","level2":17,"level3":5,"pitch":55,"articulation":"hits","articulation_tags":["hits","short"],"duration":0.0625,"velocity":110.3258941590425},
{"position":335.75,"instrument":"TheGrandeurPiano","level2":18,"level3":null,"pitch":74,"articulation":"standard","articulation_tags":["standard","long"],"duration":2.0347222222222223,"velocity":107.20167147333686},
{"position":335.8125,"instrument":"Contrabass","level2":12,"level3":5,"pitch":31,"articulation":"short_hrm","articulation_tags":["short_hrm","hrm_s","short","harmonics"],"duration":0.125,"velocity":127.5},
{"position":335.8333333333333,"instrument":"Marimba","level2":15,"level3":13,"pitch":37,"articulation":"hits","articulation_tags":["hits","short"],"duration":0.0625,"velocity":108.7916392816363},
{"position":335.9791666666667,"instrument":"TheGrandeurPiano","level2":17,"level3":null,"pitch":47,"articulation":"standard","articulation_tags":["standard","long"],"duration":0.2708333333333333,"velocity":113.11592814509105},
{"position":336.0104166666667,"instrument":"Marimba","level2":18,"level3":6,"pitch":64,"articulation":"hits","articulation_tags":["hits","short"],"duration":0.0625,"velocity":84.96184218844124},
{"position":336.0104166666667,"instrument":"Marimba","level2":18,"level3":7,"pitch":64,"articulation":"hits","articulation_tags":["hits","short"],"duration":0.0625,"velocity":84.96184218844124},
{"position":336.0208333333333,"instrument":"TheGrandeurPiano","level2":14,"level3":null,"pitch":56,"articulation":"standard","articulation_tags":["standard","long"],"duration":0.5277777777777778,"velocity":120.1747516745028},
{"position":336.0625,"instrument":"Marimba","level2":18,"level3":6,"pitch":64,"articulation":"hits","articulation_tags":["hits","short"],"duration":0.0625,"velocity":84.96184218844124},
{"position":336.09375,"instrument":"Marimba","level2":17,"level3":7,"pitch":55,"articulation":"hits","articulation_tags":["hits","short"],"duration":0.0625,"velocity":110.6783900140279},
{"position":336.1666666666667,"instrument":"Marimba","level2":17,"level3":1,"pitch":54,"articulation":"hits","articulation_tags":["hits","short"],"duration":0.0625,"velocity":110.6783900140279},
{"position":336.1666666666667,"instrument":"TheGrandeurPiano","level2":14,"level3":null,"pitch":55,"articulation":"standard","articulation_tags":["standard","long"],"duration":0.3680555555555556,"velocity":119.19684215807871},
{"position":336.3125,"instrument":"Marimba","level2":15,"level3":10,"pitch":36,"articulation":"hits","articulation_tags":["hits","short"],"duration":0.0625,"velocity":108.7916392816363},
{"position":336.3229166666667,"instrument":"Marimba","level2":17,"level3":2,"pitch":55,"articulation":"hits","articulation_tags":["hits","short"],"duration":0.0625,"velocity":110.6783900140279},
{"position":336.3854166666667,"instrument":"TheGrandeurPiano","level2":17,"level3":null,"pitch":47,"articulation":"standard","articulation_tags":["standard","long"],"duration":0.2569444444444444,"velocity":111.59382833608194},
{"position":336.3958333333333,"instrument":"Marimba","level2":17,"level3":3,"pitch":54,"articulation":"hits","articulation_tags":["hits","short"],"duration":0.0625,"velocity":111.03910222002963},
{"position":336.4375,"instrument":"Marimba","level2":17,"level3":7,"pitch":55,"articulation":"hits","articulation_tags":["hits","short"],"duration":0.0625,"velocity":111.03910222002963},
{"position":336.53125,"instrument":"TheGrandeurPiano","level2":12,"level3":null,"pitch":29,"articulation":"standard","articulation_tags":["standard","long"],"duration":1.4566929133858268,"velocity":101.81248230717014},
{"position":336.59375,"instrument":"CorAnglais","level2":17,"level3":2,"pitch":55,"articulation":"legato","articulation_tags":["legato","lg"],"duration":0.2604166666666667,"velocity":94.07820444005928},
{"position":336.6041666666667,"instrument":"Marimba","level2":17,"level3":0,"pitch":56,"articulation":"hits","articulation_tags":["hits","short"],"duration":0.0625,"velocity":111.03910222002963},
{"position":336.625,"instrument":"Marimba","level2":17,"level3":3,"pitch":54,"articulation":"hits","articulation_tags":["hits","short"],"duration":0.0625,"velocity":111.03910222002963},
{"position":336.7291666666667,"instrument":"TheGrandeurPiano","level2":14,"level3":null,"pitch":55,"articulation":"standard","articulation_tags":["standard","long"],"duration":0.3402777777777778,"velocity":117.28112988209978},
{"position":336.7708333333333,"instrument":"TheGrandeurPiano","level2":17,"level3":null,"pitch":47,"articulation":"standard","articulation_tags":["standard","long"],"duration":0.24305555555555555,"velocity":110.73124442325937},
{"position":336.8020833333333,"instrument":"TheGrandeurPiano","level2":14,"level3":null,"pitch":55,"articulation":"standard","articulation_tags":["standard","long"],"duration":0.4236111111111111,"velocity":116.98701223504096},
{"position":336.8333333333333,"instrument":"Marimba","level2":14,"level3":1,"pitch":48,"articulation":"hits","articulation_tags":["hits","short"],"duration":0.0625,"velocity":114.56703675410998},
{"position":336.84375,"instrument":"Marimba","level2":17,"level3":7,"pitch":55,"articulation":"hits","articulation_tags":["hits","short"],"duration":0.0625,"velocity":111.40780515705153},
{"position":336.8541666666667,"instrument":"CorAnglais","level2":17,"level3":7,"pitch":55,"articulation":"legato","articulation_tags":["legato","lg"],"duration":0.0,"velocity":94.81561031410305},
{"position":336.9895833333333,"instrument":"TheGrandeurPiano","level2":17,"level3":null,"pitch":48,"articulation":"standard","articulation_tags":["standard","long"],"duration":0.6944444444444444,"velocity":110.43342195000156},
{"position":337.0729166666667,"instrument":"TheGrandeurPiano","level2":18,"level3":null,"pitch":74,"articulation":"standard","articulation_tags":["standard","long"],"duration":1.3055555555555556,"velocity":106.04126508725648},
{"position":337.1354166666667,"instrument":"TheGrandeurPiano","level2":17,"level3":null,"pitch":48,"articulation":"standard","articulation_tags":["standard","long"],"duration":0.22916666666666666,"velocity":110.74714744019765},
{"position":337.2291666666667,"instrument":"TheGrandeurPiano","level2":14,"level3":null,"pitch":54,"articulation":"standard","articulation_tags":["standard","long"],"duration":0.3055555555555556,"velocity":116.61441348742096},
{"position":337.2604166666667,"instrument":"CorAnglais","level2":17,"level3":1,"pitch":54,"articulation":"legato","articulation_tags":["legato","lg"],"duration":1.78125,"velocity":94.47613015619365},
{"position":337.28125,"instrument":"Marimba","level2":18,"level3":2,"pitch":63,"articulation":"hits","articulation_tags":["hits","short"],"duration":0.0625,"velocity":85.60578943590188},
{"position":337.4375,"instrument":"TheGrandeurPiano","level2":14,"level3":null,"pitch":54,"articulation":"standard","articulation_tags":["standard","long"],"duration":0.3402777777777778,"velocity":116.41368601930294},
{"position":337.46875,"instrument":"TheGrandeurPiano","level2":17,"level3":null,"pitch":48,"articulation":"standard","articulation_tags":["standard","long"],"duration":0.20833333333333334,"velocity":111.06087293039373},
{"position":337.53125,"instrument":"Clarinet","level2":17,"level3":4,"pitch":56,"articulation":"legato","articulation_tags":["legato","lg"],"duration":1.40625,"velocity":95.25476062385819},
{"position":337.53125,"instrument":"Marimba","level2":17,"level3":0,"pitch":56,"articulation":"hits","articulation_tags":["hits","short"],"duration":0.0625,"velocity":111.6273803119291},
{"position":337.5833333333333,"instrument":"Marimba","level2":18,"level3":6,"pitch":63,"articulation":"hits","articulation_tags":["hits","short"],"duration":0.0625,"velocity":85.60578943590188},
{"position":337.6666666666667,"instrument":"Marimba","level2":17,"level3":4,"pitch":56,"articulation":"hits","articulation_tags":["hits","short"],"duration":0.0625,"velocity":111.6273803119291},
{"position":337.6875,"instrument":"TheGrandeurPiano","level2":14,"level3":null,"pitch":54,"articulation":"standard","articulation_tags":["standard","long"],"duration":0.2708333333333333,"velocity":116.69289458798214},
{"position":337.75,"instrument":"TheGrandeurPiano","level2":15,"level3":null,"pitch":53,"articulation":"standard","articulation_tags":["standard","long"],"duration":1.8346456692913387,"velocity":112.5752475291586},
{"position":337.7916666666667,"instrument":"TheGrandeurPiano","level2":17,"level3":null,"pitch":48,"articulation":"standard","articulation_tags":["standard","long"],"duration":0.19444444444444445,"velocity":111.6724208938476},
{"position":337.8645833333333,"instrument":"Bassoon","level2":17,"level3":1,"pitch":54,"articulation":"legato","articulation_tags":["legato","lg"],"duration":1.0208333333333333,"velocity":96.04805423696733},
{"position":337.9583333333333,"instrument":"TheGrandeurPiano","level2":14,"level3":null,"pitch":54,"articulation":"standard","articulation_tags":["standard","long"],"duration":0.2777777777777778,"velocity":116.86096686885436},
{"position":338.03125,"instrument":"TheGrandeurPiano","level2":17,"level3":null,"pitch":48,"articulation":"standard","articulation_tags":["standard","long"],"duration":0.4097222222222222,"velocity":112.79568465331212},
{"position":338.0416666666667,"instrument":"TheGrandeurPiano","level2":15,"level3":null,"pitch":53,"articulation":"standard","articulation_tags":["standard","long"],"duration":1.8346456692913387,"velocity":113.38391994742977},
{"position":338.0833333333333,"instrument":"TheGrandeurPiano","level2":17,"level3":null,"pitch":48,"articulation":"standard","articulation_tags":["standard","long"],"duration":0.1736111111111111,"velocity":109.86808200519056},
{"position":338.09375,"instrument":"Cello","level2":17,"level3":3,"pitch":54,"articulation":"spiccato","articulation_tags":["spiccato","sp","short"],"duration":0.125,"velocity":111.90154406641577},
{"position":338.1041666666667,"instrument":"TheGrandeurPiano","level2":14,"level3":null,"pitch":53,"articulation":"standard","articulation_tags":["standard","long"],"duration":0.2361111111111111,"velocity":114.41309158574849},
{"position":338.1979166666667,"instrument":"Vibraphone","level2":18,"level3":7,"pitch":64,"articulation":"hits","articulation_tags":["hits","short"],"duration":0.0625,"velocity":85.60578943590188},
{"position":338.21875,"instrument":"Cello","level2":17,"level3":0,"pitch":56,"articulation":"short_hrm","articulation_tags":["short_hrm","hrm_s","short","harmonics"],"duration":0.125,"velocity":111.90154406641577},
{"position":338.34375,"instrument":"TheGrandeurPiano","level2":17,"level3":null,"pitch":48,"articulation":"standard","articulation_tags":["standard","long"],"duration":0.1597222222222222,"velocity":111.09921729587559},
{"position":338.3645833333333,"instrument":"Contrabass","level2":15,"level3":0,"pitch":34,"articulation":"pizzicato","articulation_tags":["pizzicato","pz","short"],"duration":0.125,"velocity":107.8482639154405},
{"position":338.375,"instrument":"TheGrandeurPiano","level2":14,"level3":null,"pitch":53,"articulation":"standard","articulation_tags":["standard","long"],"duration":0.2222222222222222,"velocity":114.97904562664807},
{"position":338.3854166666667,"instrument":"Contrabass","level2":15,"level3":8,"pitch":34,"articulation":"pizzicato","articulation_tags":["pizzicato","pz","short"],"duration":0.125,"velocity":107.8482639154405},
{"position":338.4583333333333,"instrument":"TheGrandeurPiano","level2":14,"level3":null,"pitch":53,"articulation":"standard","articulation_tags":["standard","long"],"duration":0.2013888888888889,"velocity":114.97904562664807},
{"position":338.5833333333333,"instrument":"TheGrandeurPiano","level2":17,"level3":null,"pitch":48,"articulation":"standard","articulation_tags":["standard","long"],"duration":0.1388888888888889,"velocity":112.48233750926777},
{"position":338.6354166666667,"instrument":"Marimba","level2":17,"level3":3,"pitch":55,"articulation":"hits","articulation_tags":["hits","short"],"duration":0.0625,"velocity":112.74027438642926},
{"position":338.6458333333333,"instrument":"TheGrandeurPiano","level2":17,"level3":null,"pitch":49,"articulation":"standard","articulation_tags":["standard","long"],"duration":0.2569444444444444,"velocity":112.48233750926777},
{"position":338.6979166666667,"instrument":"Cello","level2":15,"level3":7,"pitch":38,"articulation":"collegno","articulation_tags":["collegno","cl","short"],"duration":0.125,"velocity":107.8482639154405},
{"position":338.6979166666667,"instrument":"Cello","level2":14,"level3":8,"pitch":50,"articulation":"long_hrm","articulation_tags":["long_hrm","hrm","long","harmonics"],"duration":2.6041666666666665,"velocity":100.85135702921652},
{"position":338.6979166666667,"instrument":"TheGrandeurPiano","level2":14,"level3":null,"pitch":53,"articulation":"standard","articulation_tags":["standard","long"],"duration":0.1736111111111111,"velocity":112.75409531833316},
{"position":338.7395833333333,"instrument":"Contrabass","level2":15,"level3":6,"pitch":35,"articulation":"pizzicato","articulation_tags":["pizzicato","pz","short"],"duration":0.125,"velocity":107.8482639154405},
{"position":338.7604166666667,"instrument":"TheGrandeurPiano","level2":14,"level3":null,"pitch":52,"articulation":"standard","articulation_tags":["standard","long"],"duration":0.16666666666666666,"velocity":114.01719855850772},
{"position":338.7916666666667,"instrument":"Cello","level2":15,"level3":9,"pitch":37,"articulation":"collegno","articulation_tags":["collegno","cl","short"],"duration":0.125,"velocity":107.8482639154405},
{"position":338.8020833333333,"instrument":"Contrabass","level2":15,"level3":4,"pitch":35,"articulation":"pizzicato","articulation_tags":["pizzicato","pz","short"],"duration":0.125,"velocity":107.8482639154405},
{"position":338.8020833333333,"instrument":"Viola","level2":17,"level3":0,"pitch":55,"articulation":"short_hrm","articulation_tags":["short_hrm","hrm_s","short","harmonics"],"duration":0.125,"velocity":112.22918036437854},
{"position":338.8020833333333,"instrument":"TheGrandeurPiano","level2":17,"level3":null,"pitch":49,"articulation":"standard","articulation_tags":["standard","long"],"duration":0.125,"velocity":111.01442356044744},
{"position":338.8125,"instrument":"TheGrandeurPiano","level2":18,"level3":null,"pitch":75,"articulation":"standard","articulation_tags":["standard","long"],"duration":2.1811023622047245,"velocity":104.42618826632979},
{"position":338.8854166666667,"instrument":"Cello","level2":17,"level3":4,"pitch":56,"articulation":"spiccato","articulation_tags":["spiccato","sp","short"],"duration":0.125,"velocity":112.66374623065033},
{"position":338.8854166666667,"instrument":"Viola","level2":17,"level3":1,"pitch":54,"articulation":"spiccato","articulation_tags":["spiccato","sp","short"],"duration":0.125,"velocity":112.66374623065033},
{"position":338.90625,"instrument":"Viola","level2":17,"level3":3,"pitch":55,"articulation":"spiccato","articulation_tags":["spiccato","sp","short"],"duration":0.125,"velocity":112.66374623065033},
{"position":338.9375,"instrument":"Cello","level2":17,"level3":4,"pitch":55,"articulation":"spiccato","articulation_tags":["spiccato","sp","short"],"duration":0.125,"velocity":112.66374623065033},
{"position":338.9583333333333,"instrument":"TheGrandeurPiano","level2":14,"level3":null,"pitch":52,"articulation":"standard","articulation_tags":["standard","long"],"duration":0.125,"velocity":115.14382525212685},
{"position":338.9791666666667,"instrument":"TheGrandeurPiano","level2":17,"level3":null,"pitch":49,"articulation":"standard","articulation_tags":["standard","long"],"duration":0.10416666666666667,"velocity":112.79088407565627},
{"position":339.0,"instrument":"Clarinet","level2":17,"level3":0,"pitch":55,"articulation":"legato","articulation_tags":["legato","lg"],"duration":0.20833333333333334,"velocity":98.20908755881686},
{"position":339.0104166666667,"instrument":"TheGrandeurPiano","level2":14,"level3":null,"pitch":52,"articulation":"standard","articulation_tags":["standard","long"],"duration":0.125,"velocity":115.14382525212685},
{"position":339.03125,"instrument":"TheGrandeurPiano","level2":18,"level3":null,"pitch":75,"articulation":"standard","articulation_tags":["standard","long"],"duration":1.3888888888888888,"velocity":106.25537438658236},
{"position":339.03125,"instrument":"TheGrandeurPiano","level2":17,"level3":null,"pitch":49,"articulation":"standard","articulation_tags":["standard","long"],"duration":0.1527777777777778,"velocity":112.79088407565627},
{"position":339.0416666666667,"instrument":"CorAnglais","level2":17,"level3":1,"pitch":55,"articulation":"legato","articulation_tags":["legato","lg"],"duration":0.4166666666666667,"velocity":97.21798993087687},
{"position":339.1354166666667,"instrument":"TheGrandeurPiano","level2":17,"level3":null,"pitch":49,"articulation":"standard","articulation_tags":["standard","long"],"duration":0.0763888888888889,"velocity":110.18954964704851},
{"position":339.1458333333333,"instrument":"TheGrandeurPiano","level2":14,"level3":null,"pitch":52,"articulation":"standard","articulation_tags":["standard","long"],"duration":0.09027777777777778,"velocity":112.06740867646093},
{"position":339.2083333333333,"instrument":"Cello","level2":17,"level3":3,"pitch":55,"articulation":"spiccato","articulation_tags":["spiccato","sp","short"],"duration":0.125,"velocity":113.06121882003899},
{"position":339.2083333333333,"instrument":"Cello","level2":17,"level3":3,"pitch":55,"articulation":"spiccato","articulation_tags":["spiccato","sp","short"],"duration":0.125,"velocity":113.06121882003899},
{"position":339.2083333333333,"instrument":"TheGrandeurPiano","level2":14,"level3":null,"pitch":51,"articulation":"standard","articulation_tags":["standard","long"],"duration":0.08333333333333333,"velocity":113.71616521953352},
{"position":339.25,"instrument":"TheGrandeurPiano","level2":17,"level3":null,"pitch":49,"articulation":"standard","articulation_tags":["standard","long"],"duration":0.05555555555555555,"velocity":112.24557698423939},
{"position":339.2604166666667,"instrument":"TheGrandeurPiano","level2":17,"level3":null,"pitch":50,"articulation":"standard","articulation_tags":["standard","long"],"duration":0.0763888888888889,"velocity":112.24557698423939},
{"position":339.28125,"instrument":"TheGrandeurPiano","level2":14,"level3":null,"pitch":51,"articulation":"standard","articulation_tags":["standard","long"],"duration":0.05555555555555555,"velocity":113.42204757247468},
{"position":339.3333333333333,"instrument":"TheGrandeurPiano","level2":17,"level3":null,"pitch":50,"articulation":"standard","articulation_tags":["standard","long"],"duration":0.034722222222222224,"velocity":112.53969463129822},
{"position":339.3333333333333,"instrument":"TheGrandeurPiano","level2":14,"level3":null,"pitch":51,"articulation":"standard","articulation_tags":["standard","long"],"duration":0.041666666666666664,"velocity":113.42204757247468},
{"position":339.3645833333333,"instrument":"TheGrandeurPiano","level2":14,"level3":null,"pitch":51,"articulation":"standard","articulation_tags":["standard","long"],"duration":0.020833333333333332,"velocity":113.12792992541586},
{"position":339.375,"instrument":"TheGrandeurPiano","level2":17,"level3":null,"pitch":50,"articulation":"standard","articulation_tags":["standard","long"],"duration":0.013888888888888888,"velocity":112.53969463129822},
{"position":339.3854166666667,"instrument":"TheGrandeurPiano","level2":17,"level3":null,"pitch":50,"articulation":"standard","articulation_tags":["standard","long"],"duration":0.006944444444444444,"velocity":112.83381227835704},
{"position":339.3958333333333,"instrument":"Cello","level2":17,"level3":1,"pitch":55,"articulation":"spiccato","articulation_tags":["spiccato","sp","short"],"duration":0.125,"velocity":113.51923490326851},
{"position":339.3958333333333,"instrument":"TheGrandeurPiano","level2":14,"level3":null,"pitch":50,"articulation":"standard","articulation_tags":["standard","long"],"duration":0.0,"velocity":113.12792992541586},
{"position":339.3958333333333,"instrument":"TheGrandeurPiano","level2":14,"level3":null,"pitch":50,"articulation":"standard","articulation_tags":["standard","long"],"duration":0.0,"velocity":112.83381227835704},
{"position":339.40625,"instrument":"Cello","level2":17,"level3":4,"pitch":55,"articulation":"spiccato","articulation_tags":["spiccato","sp","short"],"duration":0.125,"velocity":113.51923490326851},
{"position":339.4583333333333,"instrument":"Marimba","level2":17,"level3":4,"pitch":55,"articulation":"hits","articulation_tags":["hits","short"],"duration":0.0625,"velocity":113.51923490326851},
{"position":339.5729166666667,"instrument":"Vibraphone","level2":18,"level3":1,"pitch":65,"articulation":"hits","articulation_tags":["hits","short"],"duration":0.0625,"velocity":86.42877036126391},
{"position":339.65625,"instrument":"Cello","level2":14,"level3":1,"pitch":48,"articulation":"long_flt","articulation_tags":["long_flt","flt","long","flautando"],"duration":2.0833333333333335,"velocity":99.03846980653701},
{"position":339.90625,"instrument":"Cello","level2":15,"level3":1,"pitch":39,"articulation":"collegno","articulation_tags":["collegno","cl","short"],"duration":0.125,"velocity":107.8482639154405},
{"position":339.9479166666667,"instrument":"Contrabass","level2":12,"level3":4,"pitch":33,"articulation":"staccato","articulation_tags":["staccato","st","short"],"duration":0.125,"velocity":127.5},
{"position":340.6354166666667,"instrument":"TheGrandeurPiano","level2":12,"level3":null,"pitch":29,"articulation":"standard","articulation_tags":["standard","long"],"duration":1.4566929133858268,"velocity":98.89224818847855},
{"position":341.0833333333333,"instrument":"Vibraphone","level2":18,"level3":2,"pitch":63,"articulation":"hits","articulation_tags":["hits","short"],"duration":0.0625,"velocity":86.42877036126391},
{"position":341.1145833333333,"instrument":"TheGrandeurPiano","level2":18,"level3":null,"pitch":75,"articulation":"standard","articulation_tags":["standard","long"],"duration":1.4861111111111112,"velocity":103.60131435293086},
{"position":341.3020833333333,"instrument":"Cello","level2":14,"level3":8,"pitch":49,"articulation":"long_hrm","articulation_tags":["long_hrm","hrm","long","harmonics"],"duration":1.6666666666666667,"velocity":99.03846980653701},
{"position":341.3125,"instrument":"Vibraphone","level2":18,"level3":4,"pitch":63,"articulation":"hits","articulation_tags":["hits","short"],"duration":0.0625,"velocity":87.06896578170523},
{"position":341.3333333333333,"instrument":"TheGrandeurPiano","level2":15,"level3":null,"pitch":53,"articulation":"standard","articulation_tags":["standard","long"],"duration":1.8346456692913387,"velocity":110.0732470898592},
{"position":341.5833333333333,"instrument":"Vibraphone","level2":18,"level3":8,"pitch":64,"articulation":"hits","articulation_tags":["hits","short"],"duration":0.0625,"velocity":87.06896578170523},
{"position":341.5833333333333,"instrument":"Vibraphone","level2":18,"level3":9,"pitch":64,"articulation":"hits","articulation_tags":["hits","short"],"duration":0.0625,"velocity":87.06896578170523},
{"position":341.6458333333333,"instrument":"Vibraphone","level2":18,"level3":9,"pitch":64,"articulation":"hits","articulation_tags":["hits","short"],"duration":0.0625,"velocity":87.06896578170523},
{"position":341.7395833333333,"instrument":"Cello","level2":14,"level3":1,"pitch":48,"articulation":"long_cs","articulation_tags":["long_cs","cs","long","consordina"],"duration":1.2604166666666667,"velocity":99.03846980653701},
{"position":341.8645833333333,"instrument":"Cello","level2":14,"level3":8,"pitch":49,"articulation":"long_cs","articulation_tags":["long_cs","cs","long","consordina"],"duration":1.34375,"velocity":99.03846980653701},
{"position":341.8958333333333,"instrument":"Marimba","level2":15,"level3":10,"pitch":37,"articulation":"hits","articulation_tags":["hits","short"],"duration":0.0625,"velocity":107.37972067714969},
{"position":342.0,"instrument":"Marimba","level2":15,"level3":13,"pitch":37,"articulation":"hits","articulation_tags":["hits","short"],"duration":0.0625,"velocity":107.37972067714969},
{"position":342.1041666666667,"instrument":"Vibraphone","level2":18,"level3":10,"pitch":63,"articulation":"hits","articulation_tags":["hits","short"],"duration":0.0625,"velocity":87.06896578170523},
{"position":342.1770833333333,"instrument":"Vibraphone","level2":18,"level3":8,"pitch":64,"articulation":"hits","articulation_tags":["hits","short"],"duration":0.0625,"velocity":87.06896578170523},
{"position":342.2291666666667,"instrument":"Vibraphone","level2":18,"level3":3,"pitch":64,"articulation":"hits","articulation_tags":["hits","short"],"duration":0.0625,"velocity":87.06896578170523},
{"position":342.5416666666667,"instrument":"Contrabass","level2":12,"level3":5,"pitch":31,"articulation":"short_hrm","articulation_tags":["short_hrm","hrm_s","short","harmonics"],"duration":0.125,"velocity":127.5},
{"position":342.6041666666667,"instrument":"Marimba","level2":15,"level3":16,"pitch":36,"articulation":"hits","articulation_tags":["hits","short"],"duration":0.0625,"velocity":107.37972067714969},
{"position":342.96875,"instrument":"Cello","level2":14,"level3":1,"pitch":49,"articulation":"long_cs","articulation_tags":["long_cs","cs","long","consordina"],"duration":0.3020833333333333,"velocity":99.03846980653701},
{"position":342.96875,"instrument":"Cello","level2":14,"level3":8,"pitch":49,"articulation":"long_cs","articulation_tags":["long_cs","cs","long","consordina"],"duration":0.3020833333333333,"velocity":99.03846980653701},
{"position":342.9895833333333,"instrument":"Cello","level2":14,"level3":1,"pitch":49,"articulation":"long_cs","articulation_tags":["long_cs","cs","long","consordina"],"duration":0.28125,"velocity":99.03846980653701},
{"position":343.1041666666667,"instrument":"Marimba","level2":15,"level3":11,"pitch":38,"articulation":"hits","articulation_tags":["hits","short"],"duration":0.0625,"velocity":107.37972067714969},
{"position":343.2083333333333,"instrument":"Cello","level2":14,"level3":8,"pitch":49,"articulation":"long_cs","articulation_tags":["long_cs","cs","long","consordina"],"duration":0.0625,"velocity":99.03846980653701},
{"position":343.2291666666667,"instrument":"TheGrandeurPiano","level2":15,"level3":null,"pitch":53,"articulation":"standard","articulation_tags":["standard","long"],"duration":1.8346456692913387,"velocity":108.62092219606811},
{"position":343.34375,"instrument":"TheGrandeurPiano","level2":18,"level3":null,"pitch":75,"articulation":"standard","articulation_tags":["standard","long"],"duration":1.6111111111111112,"velocity":103.91503984312693},
{"position":343.4583333333333,"instrument":"Contrabass","level2":12,"level3":8,"pitch":34,"articulation":"spiccato","articulation_tags":["spiccato","sp","short"],"duration":0.125,"velocity":127.5},
{"position":343.5729166666667,"instrument":"Vibraphone","level2":18,"level3":0,"pitch":63,"articulation":"hits","articulation_tags":["hits","short"],"duration":0.0625,"velocity":87.71147071133218},
{"position":343.78125,"instrument":"Cello","level2":15,"level3":6,"pitch":36,"articulation":"pizzicato","articulation_tags":["pizzicato","pz","short"],"duration":0.125,"velocity":106.90488854924469},
{"position":344.1666666666667,"instrument":"Cello","level2":15,"level3":11,"pitch":38,"articulation":"collegno","articulation_tags":["collegno","cl","short"],"duration":0.125,"velocity":106.90488854924469},
{"position":344.1770833333333,"instrument":"Contrabass","level2":12,"level3":6,"pitch":34,"articulation":"staccato","articulation_tags":["staccato","st","short"],"duration":0.125,"velocity":127.5},
{"position":344.46875,"instrument":"TheGrandeurPiano","level2":12,"level3":null,"pitch":30,"articulation":"standard","articulation_tags":["standard","long"],"duration":1.4724409448818898,"velocity":99.40658042319254},
{"position":344.4895833333333,"instrument":"Vibraphone","level2":18,"level3":6,"pitch":63,"articulation":"hits","articulation_tags":["hits","short"],"duration":0.0625,"velocity":87.71147071133218},
{"position":344.5,"instrument":"Cello","level2":15,"level3":7,"pitch":38,"articulation":"collegno","articulation_tags":["collegno","cl","short"],"duration":0.125,"velocity":106.90488854924469},
{"position":344.625,"instrument":"TheGrandeurPiano","level2":15,"level3":null,"pitch":53,"articulation":"standard","articulation_tags":["standard","long"],"duration":1.8346456692913387,"velocity":111.27498222971963},
{"position":344.9375,"instrument":"Contrabass","level2":15,"level3":15,"pitch":35,"articulation":"pizzicato","articulation_tags":["pizzicato","pz","short"],"duration":0.125,"velocity":106.4364314521525},
{"position":345.0416666666667,"instrument":"Vibraphone","level2":18,"level3":5,"pitch":65,"articulation":"hits","articulation_tags":["hits","short"],"duration":0.0625,"velocity":87.71147071133218},
{"position":345.2708333333333,"instrument":"Contrabass","level2":15,"level3":15,"pitch":35,"articulation":"pizzicato","articulation_tags":["pizzicato","pz","short"],"duration":0.125,"velocity":106.4364314521525},
{"position":345.3541666666667,"instrument":"Marimba","level2":18,"level3":5,"pitch":64,"articulation":"hits","articulation_tags":["hits","short"],"duration":0.0625,"velocity":87.71147071133218},
{"position":345.625,"instrument":"Contrabass","level2":15,"level3":0,"pitch":34,"articulation":"pizzicato","articulation_tags":["pizzicato","pz","short"],"duration":0.125,"velocity":106.4364314521525},
{"position":345.6979166666667,"instrument":"Contrabass","level2":15,"level3":2,"pitch":33,"articulation":"pizzicato","articulation_tags":["pizzicato","pz","short"],"duration":0.125,"velocity":106.4364314521525},
{"position":345.7604166666667,"instrument":"TheGrandeurPiano","level2":18,"level3":null,"pitch":75,"articulation":"standard","articulation_tags":["standard","long"],"duration":1.7847222222222223,"velocity":107.09676217034423},
{"position":346.1979166666667,"instrument":"Vibraphone","level2":18,"level3":4,"pitch":63,"articulation":"hits","articulation_tags":["hits","short"],"duration":0.0625,"velocity":88.35600440011545},
{"position":346.84375,"instrument":"Bassoon","level2":15,"level3":5,"pitch":39,"articulation":"staccato","articulation_tags":["staccato","st","short"],"duration":0.125,"velocity":106.4364314521525},
{"position":347.5,"instrument":"Vibraphone","level2":18,"level3":11,"pitch":64,"articulation":"hits","articulation_tags":["hits","short"],"duration":0.0625,"velocity":88.35600440011545},
{"position":347.6354166666667,"instrument":"Bassoon","level2":15,"level3":5,"pitch":39,"articulation":"staccato","articulation_tags":["staccato","st","short"],"duration":0.125,"velocity":106.4364314521525},
{"position":347.8125,"instrument":"Marimba","level2":18,"level3":2,"pitch":63,"articulation":"hits","articulation_tags":["hits","short"],"duration":0.0625,"velocity":88.35600440011545},
{"position":347.9270833333333,"instrument":"TheGrandeurPiano","level2":15,"level3":null,"pitch":53,"articulation":"standard","articulation_tags":["standard","long"],"duration":1.8346456692913387,"velocity":112.5015670062533},
{"position":348.0625,"instrument":"Marimba","level2":18,"level3":0,"pitch":62,"articulation":"hits","articulation_tags":["hits","short"],"duration":0.0625,"velocity":88.35600440011545},
{"position":348.0729166666667,"instrument":"TheGrandeurPiano","level2":12,"level3":null,"pitch":30,"articulation":"standard","articulation_tags":["standard","long"],"duration":1.4724409448818898,"velocity":101.81248230717014},
{"position":348.1770833333333,"instrument":"Bassoon","level2":15,"level3":2,"pitch":34,"articulation":"tenuto","articulation_tags":["tenuto","t","short"],"duration":0.125,"velocity":105.97461309218912},
{"position":348.2916666666667,"instrument":"Marimba","level2":15,"level3":3,"pitch":38,"articulation":"hits","articulation_tags":["hits","short"],"duration":0.0625,"velocity":105.97461309218912},
{"position":348.4375,"instrument":"TheGrandeurPiano","level2":18,"level3":null,"pitch":75,"articulation":"standard","articulation_tags":["standard","long"],"duration":2.048611111111111,"velocity":107.60989253823686},
{"position":349.4166666666667,"instrument":"Bassoon","level2":15,"level3":1,"pitch":39,"articulation":"staccato","articulation_tags":["staccato","st","short"],"duration":0.125,"velocity":105.97461309218912},
{"position":349.59375,"instrument":"Marimba","level2":18,"level3":1,"pitch":65,"articulation":"hits","articulation_tags":["hits","short"],"duration":0.0625,"velocity":88.9709335661338},
{"position":349.7708333333333,"instrument":"Marimba","level2":18,"level3":8,"pitch":63,"articulation":"hits","articulation_tags":["hits","short"],"duration":0.0625,"velocity":88.9709335661338},
{"position":349.9895833333333,"instrument":"TheGrandeurPiano","level2":15,"level3":null,"pitch":54,"articulation":"standard","articulation_tags":["standard","long"],"duration":1.8503937007874016,"velocity":113.31448921690225},
{"position":350.0625,"instrument":"Contrabass","level2":12,"level3":7,"pitch":31,"articulation":"short_hrm","articulation_tags":["short_hrm","hrm_s","short","harmonics"],"duration":0.125,"velocity":127.5},
{"position":350.7395833333333,"instrument":"Marimba","level2":18,"level3":3,"pitch":64,"articulation":"hits","articulation_tags":["hits","short"],"duration":0.0625,"velocity":88.9709335661338},
{"position":350.84375,"instrument":"Bassoon","level2":15,"level3":4,"pitch":35,"articulation":"tenuto","articulation_tags":["tenuto","t","short"],"duration":0.125,"velocity":105.49314707947812},
{"position":351.2291666666667,"instrument":"TheGrandeurPiano","level2":15,"level3":null,"pitch":54,"articulation":"standard","articulation_tags":["standard","long"],"duration":1.8503937007874016,"velocity":113.99828108626753},
{"position":351.34375,"instrument":"Bassoon","level2":15,"level3":3,"pitch":39,"articulation":"staccato","articulation_tags":["staccato","st","short"],"duration":0.125,"velocity":105.03161185855527},
{"position":351.4895833333333,"instrument":"TheGrandeurPiano","level2":12,"level3":null,"pitch":31,"articulation":"standard","articulation_tags":["standard","long"],"duration":1.4881889763779528,"velocity":103.6491768143092},
{"position":351.5208333333333,"instrument":"TheGrandeurPiano","level2":18,"level3":null,"pitch":75,"articulation":"standard","articulation_tags":["standard","long"],"duration":2.1811023622047245,"velocity":110.55113759862293},
{"position":351.8333333333333,"instrument":"Marimba","level2":18,"level3":7,"pitch":63,"articulation":"hits","articulation_tags":["hits","short"],"duration":0.0625,"velocity":89.57835227929677},
{"position":352.0104166666667,"instrument":"Bassoon","level2":15,"level3":9,"pitch":37,"articulation":"staccato","articulation_tags":["staccato","st","short"],"duration":0.125,"velocity":105.03161185855527},
{"position":352.4583333333333,"instrument":"Bassoon","level2":15,"level3":6,"pitch":36,"articulation":"tenuto","articulation_tags":["tenuto","t","short"],"duration":0.125,"velocity":105.03161185855527},
{"position":352.5833333333333,"instrument":"Bassoon","level2":15,"level3":7,"pitch":38,"articulation":"staccato","articulation_tags":["staccato","st","short"],"duration":0.125,"velocity":105.03161185855527},
{"position":352.6354166666667,"instrument":"Marimba","level2":18,"level3":3,"pitch":64,"articulation":"hits","articulation_tags":["hits","short"],"duration":0.0625,"velocity":89.57835227929677},
{"position":352.7291666666667,"instrument":"Marimba","level2":18,"level3":4,"pitch":63,"articulation":"hits","articulation_tags":["hits","short"],"duration":0.0625,"velocity":89.57835227929677},
{"position":352.7708333333333,"instrument":"Bassoon","level2":15,"level3":8,"pitch":34,"articulation":"tenuto","articulation_tags":["tenuto","t","short"],"duration":0.125,"velocity":105.03161185855527},
{"position":353.4479166666667,"instrument":"Bassoon","level2":15,"level3":17,"pitch":36,"articulation":"staccato","articulation_tags":["staccato","st","short"],"duration":0.125,"velocity":105.03161185855527},
{"position":353.46875,"instrument":"Marimba","level2":15,"level3":11,"pitch":38,"articulation":"hits","articulation_tags":["hits","short"],"duration":0.0625,"velocity":105.03161185855527},
{"position":353.9270833333333,"instrument":"Marimba","level2":18,"level3":2,"pitch":62,"articulation":"hits","articulation_tags":["hits","short"],"duration":0.0625,"velocity":89.57835227929677},
{"position":354.09375,"instrument":"Marimba","level2":18,"level3":7,"pitch":63,"articulation":"hits","articulation_tags":["hits","short"],"duration":0.0625,"velocity":89.57835227929677},
{"position":354.5208333333333,"instrument":"TheGrandeurPiano","level2":15,"level3":null,"pitch":54,"articulation":"standard","articulation_tags":["standard","long"],"duration":1.8503937007874016,"velocity":111.22424701305249},
{"position":354.71875,"instrument":"TheGrandeurPiano","level2":18,"level3":null,"pitch":74,"articulation":"standard","articulation_tags":["standard","long"],"duration":2.1653543307086616,"velocity":111.5893773906827},
{"position":354.7291666666667,"instrument":"TheGrandeurPiano","level2":12,"level3":null,"pitch":31,"articulation":"standard","articulation_tags":["standard","long"],"duration":1.4881889763779528,"velocity":104.68741660636897},
{"position":354.8229166666667,"instrument":"Bassoon","level2":15,"level3":16,"pitch":36,"articulation":"staccato","articulation_tags":["staccato","st","short"],"duration":0.125,"velocity":104.57719784976125},
{"position":354.9583333333333,"instrument":"Bassoon","level2":15,"level3":8,"pitch":35,"articulation":"tenuto","articulation_tags":["tenuto","t","short"],"duration":0.125,"velocity":104.57719784976125},
{"position":355.0625,"instrument":"Marimba","level2":18,"level3":4,"pitch":63,"articulation":"hits","articulation_tags":["hits","short"],"duration":0.0625,"velocity":89.44400744450898},
{"position":355.1458333333333,"instrument":"Marimba","level2":18,"level3":4,"pitch":63,"articulation":"hits","articulation_tags":["hits","short"],"duration":0.0625,"velocity":89.44400744450898},
{"position":355.2708333333333,"instrument":"Marimba","level2":18,"level3":0,"pitch":62,"articulation":"hits","articulation_tags":["hits","short"],"duration":0.0625,"velocity":89.44400744450898},
{"position":355.28125,"instrument":"Marimba","level2":18,"level3":5,"pitch":64,"articulation":"hits","articulation_tags":["hits","short"],"duration":0.0625,"velocity":89.44400744450898},
{"position":355.3229166666667,"instrument":"TheGrandeurPiano","level2":18,"level3":null,"pitch":74,"articulation":"standard","articulation_tags":["standard","long"],"duration":2.1653543307086616,"velocity":108.23734351862902},
{"position":356.0,"instrument":"Marimba","level2":18,"level3":5,"pitch":64,"articulation":"hits","articulation_tags":["hits","short"],"duration":0.0625,"velocity":90.05769273906246},
{"position":356.15625,"instrument":"Bassoon","level2":15,"level3":17,"pitch":36,"articulation":"staccato","articulation_tags":["staccato","st","short"],"duration":0.125,"velocity":104.57719784976125},
{"position":356.34375,"instrument":"Cello","level2":15,"level3":1,"pitch":39,"articulation":"collegno","articulation_tags":["collegno","cl","short"],"duration":0.125,"velocity":104.57719784976125},
{"position":356.375,"instrument":"Vibraphone","level2":18,"level3":8,"pitch":63,"articulation":"hits","articulation_tags":["hits","short"],"duration":0.0625,"velocity":90.05769273906246},
{"position":356.7604166666667,"instrument":"Bassoon","level2":15,"level3":9,"pitch":38,"articulation":"staccato","articulation_tags":["staccato","st","short"],"duration":0.125,"velocity":104.57719784976125},
{"position":357.40625,"instrument":"Vibraphone","level2":18,"level3":3,"pitch":64,"articulation":"hits","articulation_tags":["hits","short"],"duration":0.0625,"velocity":90.05769273906246},
{"position":357.4791666666667,"instrument":"Cello","level2":15,"level3":6,"pitch":36,"articulation":"pizzicato","articulation_tags":["pizzicato","pz","short"],"duration":0.125,"velocity":104.57719784976125},
{"position":357.8020833333333,"instrument":"Contrabass","level2":15,"level3":0,"pitch":35,"articulation":"pizzicato","articulation_tags":["pizzicato","pz","short"],"duration":0.125,"velocity":104.57719784976125},
{"position":357.8125,"instrument":"TheGrandeurPiano","level2":15,"level3":null,"pitch":54,"articulation":"standard","articulation_tags":["standard","long"],"duration":1.8503937007874016,"velocity":107.99028740416482},
{"position":357.8229166666667,"instrument":"TheGrandeurPiano","level2":12,"level3":null,"pitch":32,"articulation":"standard","articulation_tags":["standard","long"],"duration":1.5039370078740157,"velocity":98.89224818847855},
{"position":358.1145833333333,"instrument":"TheGrandeurPiano","level2":18,"level3":null,"pitch":74,"articulation":"standard","articulation_tags":["standard","long"],"duration":1.7222222222222223,"velocity":105.69301724245955},
{"position":358.4479166666667,"instrument":"Cello","level2":15,"level3":11,"pitch":37,"articulation":"pizzicato","articulation_tags":["pizzicato","pz","short"],"duration":0.125,"velocity":104.13020719809126},
{"position":358.6145833333333,"instrument":"Cello","level2":15,"level3":6,"pitch":37,"articulation":"pizzicato","articulation_tags":["pizzicato","pz","short"],"duration":0.125,"velocity":104.13020719809126},
{"position":358.65625,"instrument":"Vibraphone","level2":18,"level3":3,"pitch":64,"articulation":"hits","articulation_tags":["hits","short"],"duration":0.0625,"velocity":89.9510589037847},
{"position":358.8333333333333,"instrument":"Vibraphone","level2":18,"level3":8,"pitch":64,"articulation":"hits","articulation_tags":["hits","short"],"duration":0.0625,"velocity":89.9510589037847},
{"position":359.0833333333333,"instrument":"Vibraphone","level2":18,"level3":8,"pitch":64,"articulation":"hits","articulation_tags":["hits","short"],"duration":0.0625,"velocity":89.9510589037847},
{"position":359.34375,"instrument":"Contrabass","level2":12,"level3":8,"pitch":34,"articulation":"staccato","articulation_tags":["staccato","st","short"],"duration":0.125,"velocity":127.5},
{"position":359.4270833333333,"instrument":"Cello","level2":15,"level3":11,"pitch":37,"articulation":"pizzicato","articulation_tags":["pizzicato","pz","short"],"duration":0.125,"velocity":104.13020719809126},
{"position":359.90625,"instrument":"Contrabass","level2":12,"level3":5,"pitch":31,"articulation":"spiccato","articulation_tags":["spiccato","sp","short"],"duration":0.125,"velocity":127.5},
{"position":359.96875,"instrument":"Vibraphone","level2":18,"level3":1,"pitch":64,"articulation":"hits","articulation_tags":["hits","short"],"duration":0.0625,"velocity":89.9510589037847},
{"position":360.03125,"instrument":"TheGrandeurPiano","level2":15,"level3":null,"pitch":54,"articulation":"standard","articulation_tags":["standard","long"],"duration":1.8503937007874016,"velocity":105.99083180077149},
{"position":360.125,"instrument":"Vibraphone","level2":18,"level3":2,"pitch":62,"articulation":"hits","articulation_tags":["hits","short"],"duration":0.0625,"velocity":89.9510589037847},
{"position":360.46875,"instrument":"Contrabass","level2":15,"level3":15,"pitch":35,"articulation":"pizzicato","articulation_tags":["pizzicato","pz","short"],"duration":0.125,"velocity":103.63473942041288},
{"position":360.625,"instrument":"Cello","level2":15,"level3":4,"pitch":36,"articulation":"pizzicato","articulation_tags":["pizzicato","pz","short"],"duration":0.125,"velocity":103.63473942041288},
{"position":360.6875,"instrument":"TheGrandeurPiano","level2":18,"level3":null,"pitch":73,"articulation":"standard","articulation_tags":["standard","long"],"duration":1.4305555555555556,"velocity":102.36496379968526},
{"position":360.7708333333333,"instrument":"TheGrandeurPiano","level2":12,"level3":null,"pitch":32,"articulation":"standard","articulation_tags":["standard","long"],"duration":1.5039370078740157,"velocity":94.59227791507227},
{"position":360.96875,"instrument":"TubularBells","level2":18,"level3":0,"pitch":62,"articulation":"hits_dumped","articulation_tags":["hits_dumped","short","hits","dumped"],"duration":0.0625,"velocity":89.86764118960298},
{"position":361.03125,"instrument":"Marimba","level2":15,"level3":5,"pitch":39,"articulation":"hits","articulation_tags":["hits","short"],"duration":0.0625,"velocity":103.63473942041288},
{"position":361.0625,"instrument":"Marimba","level2":15,"level3":15,"pitch":36,"articulation":"hits","articulation_tags":["hits","short"],"duration":0.0625,"velocity":103.63473942041288},
{"position":361.0833333333333,"instrument":"TheGrandeurPiano","level2":15,"level3":null,"pitch":54,"articulation":"standard","articulation_tags":["standard","long"],"duration":1.8503937007874016,"velocity":103.03946973933905},
{"position":361.8229166666667,"instrument":"Cello","level2":15,"level3":6,"pitch":37,"articulation":"pizzicato","articulation_tags":["pizzicato","pz","short"],"duration":0.125,"velocity":103.18850894365993},
{"position":361.8333333333333,"instrument":"Cello","level2":15,"level3":3,"pitch":39,"articulation":"collegno","articulation_tags":["collegno","cl","short"],"duration":0.125,"velocity":103.18850894365993},
{"position":361.90625,"instrument":"Contrabass","level2":15,"level3":2,"pitch":34,"articulation":"pizzicato","articulation_tags":["pizzicato","pz","short"],"duration":0.125,"velocity":103.18850894365993},
{"position":361.9479166666667,"instrument":"Cello","level2":15,"level3":11,"pitch":37,"articulation":"pizzicato","articulation_tags":["pizzicato","pz","short"],"duration":0.125,"velocity":103.18850894365993},
{"position":362.0,"instrument":"TheGrandeurPiano","level2":18,"level3":null,"pitch":73,"articulation":"standard","articulation_tags":["standard","long"],"duration":2.1496062992125986,"velocity":102.67868928988133},
{"position":362.4375,"instrument":"TubularBells","level2":18,"level3":5,"pitch":63,"articulation":"hits_dumped","articulation_tags":["hits_dumped","short","hits","dumped"],"duration":0.0625,"velocity":90.48904595330278},
{"position":362.84375,"instrument":"TheGrandeurPiano","level2":18,"level3":null,"pitch":73,"articulation":"standard","articulation_tags":["standard","long"],"duration":1.2430555555555556,"velocity":99.35919385753098},
{"position":362.8541666666667,"instrument":"Marimba","level2":15,"level3":7,"pitch":38,"articulation":"hits","articulation_tags":["hits","short"],"duration":0.0625,"velocity":103.18850894365993},
{"position":363.46875,"instrument":"Contrabass","level2":12,"level3":4,"pitch":32,"articulation":"staccato","articulation_tags":["staccato","st","short"],"duration":0.125,"velocity":127.5},
{"position":363.5729166666667,"instrument":"TubularBells","level2":18,"level3":5,"pitch":63,"articulation":"hits_dumped","articulation_tags":["hits_dumped","short","hits","dumped"],"duration":0.0625,"velocity":90.43139717508362},
{"position":363.5833333333333,"instrument":"TheGrandeurPiano","level2":12,"level3":null,"pitch":33,"articulation":"standard","articulation_tags":["standard","long"],"duration":1.5196850393700787,"velocity":94.14228535840313},
{"position":363.6458333333333,"instrument":"Contrabass","level2":15,"level3":0,"pitch":35,"articulation":"pizzicato","articulation_tags":["pizzicato","pz","short"],"duration":0.125,"velocity":103.18850894365993},
{"position":363.6770833333333,"instrument":"Marimba","level2":15,"level3":9,"pitch":38,"articulation":"hits","articulation_tags":["hits","short"],"duration":0.0625,"velocity":103.18850894365993},
{"position":364.2916666666667,"instrument":"Contrabass","level2":12,"level3":6,"pitch":34,"articulation":"staccato","articulation_tags":["staccato","st","short"],"duration":0.125,"velocity":127.5},
{"position":364.3541666666667,"instrument":"TubularBells","level2":18,"level3":0,"pitch":62,"articulation":"hits_dumped","articulation_tags":["hits_dumped","short","hits","dumped"],"duration":0.0625,"velocity":90.43139717508362},
{"position":364.3541666666667,"instrument":"TheGrandeurPiano","level2":15,"level3":null,"pitch":54,"articulation":"standard","articulation_tags":["standard","long"],"duration":1.8503937007874016,"velocity":99.94392243607736},
{"position":364.4791666666667,"instrument":"TubularBells","level2":18,"level3":0,"pitch":63,"articulation":"hits_dumped","articulation_tags":["hits_dumped","short","hits","dumped"],"duration":0.0625,"velocity":90.43139717508362},
{"position":364.6979166666667,"instrument":"TheGrandeurPiano","level2":18,"level3":null,"pitch":72,"articulation":"standard","articulation_tags":["standard","long"],"duration":1.1041666666666667,"velocity":99.71304299753652},
{"position":364.7916666666667,"instrument":"TubularBells","level2":18,"level3":1,"pitch":64,"articulation":"hits_dumped","articulation_tags":["hits_dumped","short","hits","dumped"],"duration":0.0625,"velocity":90.39671349815184},
{"position":365.21875,"instrument":"Contrabass","level2":12,"level3":6,"pitch":34,"articulation":"short_marcato","articulation_tags":["short_marcato","marcato_s","short","marcato"],"duration":0.125,"velocity":127.5},
{"position":365.8645833333333,"instrument":"TubularBells","level2":18,"level3":5,"pitch":63,"articulation":"hits_dumped","articulation_tags":["hits_dumped","short","hits","dumped"],"duration":0.0625,"velocity":90.39671349815184},
{"position":365.9166666666667,"instrument":"TubularBells","level2":18,"level3":5,"pitch":63,"articulation":"hits_dumped","articulation_tags":["hits_dumped","short","hits","dumped"],"duration":0.0625,"velocity":90.39671349815184},
{"position":366.0,"instrument":"TubularBells","level2":18,"level3":0,"pitch":63,"articulation":"hits_dumped","articulation_tags":["hits_dumped","short","hits","dumped"],"duration":0.0625,"velocity":90.39671349815184},
{"position":366.0625,"instrument":"TheGrandeurPiano","level2":18,"level3":null,"pitch":72,"articulation":"standard","articulation_tags":["standard","long"],"duration":2.1338582677165356,"velocity":99.0454683673349},
{"position":366.1458333333333,"instrument":"TubularBells","level2":18,"level3":2,"pitch":62,"articulation":"hits_dumped","articulation_tags":["hits_dumped","short","hits","dumped"],"duration":0.0625,"velocity":89.77178302297511},
{"position":366.2916666666667,"instrument":"TheGrandeurPiano","level2":12,"level3":null,"pitch":33,"articulation":"standard","articulation_tags":["standard","long"],"duration":1.5196850393700787,"velocity":91.23422991319536},
{"position":366.3541666666667,"instrument":"TheGrandeurPiano","level2":18,"level3":null,"pitch":72,"articulation":"standard","articulation_tags":["standard","long"],"duration":0.9930555555555556,"velocity":98.44991618770517},
{"position":366.5416666666667,"instrument":"TubularBells","level2":18,"level3":1,"pitch":64,"articulation":"hits_dumped","articulation_tags":["hits_dumped","short","hits","dumped"],"duration":0.0625,"velocity":89.75976101688399},
{"position":366.5833333333333,"instrument":"ContrabassTrombone","level2":15,"level3":2,"pitch":34,"articulation":"marcato","articulation_tags":["marcato","short"],"duration":0.25,"velocity":102.75027478156302},
{"position":366.9166666666667,"instrument":"Contrabass","level2":12,"level3":5,"pitch":31,"articulation":"spiccato","articulation_tags":["spiccato","sp","short"],"duration":0.125,"velocity":127.5},
{"position":367.03125,"instrument":"Contrabass","level2":12,"level3":4,"pitch":32,"articulation":"staccato","articulation_tags":["staccato","st","short"],"duration":0.125,"velocity":127.5},
{"position":367.125,"instrument":"Contrabass","level2":12,"level3":5,"pitch":31,"articulation":"spiccato","articulation_tags":["spiccato","sp","short"],"duration":0.125,"velocity":127.5},
{"position":367.3541666666667,"instrument":"ContrabassTrombone","level2":15,"level3":8,"pitch":35,"articulation":"staccato","articulation_tags":["staccato","st","short"],"duration":0.25,"velocity":102.75027478156302},
{"position":367.59375,"instrument":"TheGrandeurPiano","level2":15,"level3":null,"pitch":54,"articulation":"standard","articulation_tags":["standard","long"],"duration":1.8503937007874016,"velocity":99.98664483792314},
{"position":367.8541666666667,"instrument":"TheGrandeurPiano","level2":18,"level3":null,"pitch":71,"articulation":"standard","articulation_tags":["standard","long"],"duration":0.9027777777777778,"velocity":99.86717040252222},
{"position":368.1770833333333,"instrument":"ContrabassTrombone","level2":15,"level3":0,"pitch":35,"articulation":"staccato","articulation_tags":["staccato","st","short"],"duration":0.25,"velocity":102.32038365911703},
{"position":368.6145833333333,"instrument":"Marimba","level2":15,"level3":4,"pitch":36,"articulation":"hits","articulation_tags":["hits","short"],"duration":0.0625,"velocity":102.32038365911703},
{"position":368.8854166666667,"instrument":"TheGrandeurPiano","level2":12,"level3":null,"pitch":34,"articulation":"standard","articulation_tags":["standard","long"],"duration":1.5354330708661417,"velocity":92.18363123283063},
{"position":369.2083333333333,"instrument":"TheGrandeurPiano","level2":18,"level3":null,"pitch":71,"articulation":"standard","articulation_tags":["standard","long"],"duration":0.8263888888888888,"velocity":98.68902047529303},
{"position":369.25,"instrument":"Contrabass","level2":12,"level3":8,"pitch":34,"articulation":"staccato","articulation_tags":["staccato","st","short"],"duration":0.125,"velocity":127.5},
{"position":369.4791666666667,"instrument":"Marimba","level2":15,"level3":1,"pitch":39,"articulation":"hits","articulation_tags":["hits","short"],"duration":0.0625,"velocity":102.32038365911703},
{"position":369.71875,"instrument":"Contrabass","level2":12,"level3":4,"pitch":31,"articulation":"staccato","articulation_tags":["staccato","st","short"],"duration":0.125,"velocity":127.5},
{"position":369.9583333333333,"instrument":"TubularBells","level2":18,"level3":2,"pitch":62,"articulation":"hits_dumped","articulation_tags":["hits_dumped","short","hits","dumped"],"duration":0.0625,"velocity":89.80779586604467},
{"position":369.96875,"instrument":"Marimba","level2":15,"level3":1,"pitch":40,"articulation":"hits","articulation_tags":["hits","short"],"duration":0.0625,"velocity":102.32038365911703},
{"position":370.2083333333333,"instrument":"TubularBells","level2":18,"level3":1,"pitch":64,"articulation":"hits_dumped","articulation_tags":["hits_dumped","short","hits","dumped"],"duration":0.0625,"velocity":89.80779586604467},
{"position":370.34375,"instrument":"TubularBells","level2":18,"level3":2,"pitch":63,"articulation":"hits_dumped","articulation_tags":["hits_dumped","short","hits","dumped"],"duration":0.0625,"velocity":89.80779586604467},
{"position":370.4166666666667,"instrument":"Contrabass","level2":12,"level3":5,"pitch":31,"articulation":"staccato","articulation_tags":["staccato","st","short"],"duration":0.125,"velocity":127.5},
{"position":370.4479166666667,"instrument":"TheGrandeurPiano","level2":18,"level3":null,"pitch":70,"articulation":"standard","articulation_tags":["standard","long"],"duration":0.7638888888888888,"velocity":99.39931750734044},
{"position":370.5520833333333,"instrument":"Cello","level2":15,"level3":15,"pitch":36,"articulation":"pizzicato","articulation_tags":["pizzicato","pz","short"],"duration":0.125,"velocity":102.32038365911703},
{"position":370.5625,"instrument":"Vibraphone","level2":20,"level3":0,"pitch":63,"articulation":"hits","articulation_tags":["hits","short"],"duration":0.0625,"velocity":89.86764118960298},
{"position":370.5625,"instrument":"Vibraphone","level2":20,"level3":1,"pitch":63,"articulation":"hits","articulation_tags":["hits","short"],"duration":0.0625,"velocity":89.86764118960298},
{"position":370.5625,"instrument":"Vibraphone","level2":20,"level3":1,"pitch":63,"articulation":"hits","articulation_tags":["hits","short"],"duration":0.0625,"velocity":89.86764118960298},
{"position":370.625,"instrument":"Vibraphone","level2":19,"level3":0,"pitch":61,"articulation":"hits","articulation_tags":["hits","short"],"duration":0.0625,"velocity":89.86764118960298},
{"position":370.625,"instrument":"Vibraphone","level2":19,"level3":1,"pitch":61,"articulation":"hits","articulation_tags":["hits","short"],"duration":0.0625,"velocity":89.86764118960298},
{"position":370.6354166666667,"instrument":"TheGrandeurPiano","level2":19,"level3":null,"pitch":54,"articulation":"standard","articulation_tags":["standard","long"],"duration":0.006944444444444444,"velocity":93.65878975025969},
{"position":370.6354166666667,"instrument":"TheGrandeurPiano","level2":20,"level3":null,"pitch":54,"articulation":"standard","articulation_tags":["standard","long"],"duration":0.0,"velocity":93.34506426006361},
{"position":370.6354166666667,"instrument":"TheGrandeurPiano","level2":20,"level3":null,"pitch":54,"articulation":"standard","articulation_tags":["standard","long"],"duration":0.006944444444444444,"velocity":93.34506426006361},
{"position":370.6354166666667,"instrument":"Vibraphone","level2":19,"level3":0,"pitch":60,"articulation":"hits","articulation_tags":["hits","short"],"duration":0.0625,"velocity":95.5306190554343},
{"position":370.6354166666667,"instrument":"Vibraphone","level2":19,"level3":0,"pitch":60,"articulation":"hits","articulation_tags":["hits","short"],"duration":0.0625,"velocity":95.5306190554343},
{"position":370.6354166666667,"instrument":"Vibraphone","level2":19,"level3":1,"pitch":61,"articulation":"hits","articulation_tags":["hits","short"],"duration":0.0625,"velocity":95.5306190554343},
{"position":370.6354166666667,"instrument":"Vibraphone","level2":19,"level3":1,"pitch":61,"articulation":"hits","articulation_tags":["hits","short"],"duration":0.0625,"velocity":95.5306190554343},
{"position":370.6458333333333,"instrument":"TheGrandeurPiano","level2":19,"level3":null,"pitch":54,"articulation":"standard","articulation_tags":["standard","long"],"duration":0.08333333333333333,"velocity":93.65878975025969},
{"position":370.6458333333333,"instrument":"TheGrandeurPiano","level2":19,"level3":null,"pitch":54,"articulation":"standard","articulation_tags":["standard","long"],"duration":0.013888888888888888,"velocity":93.97251524045576},
{"position":370.6458333333333,"instrument":"TheGrandeurPiano","level2":20,"level3":null,"pitch":54,"articulation":"standard","articulation_tags":["standard","long"],"duration":0.013888888888888888,"velocity":93.03133876986753},
{"position":370.6666666666667,"instrument":"TheGrandeurPiano","level2":19,"level3":null,"pitch":54,"articulation":"standard","articulation_tags":["standard","long"],"duration":0.020833333333333332,"velocity":94.28624073065184},
{"position":370.6666666666667,"instrument":"TheGrandeurPiano","level2":20,"level3":null,"pitch":54,"articulation":"standard","articulation_tags":["standard","long"],"duration":0.027777777777777776,"velocity":92.71761327967145},
{"position":370.6875,"instrument":"Vibraphone","level2":19,"level3":1,"pitch":62,"articulation":"hits","articulation_tags":["hits","short"],"duration":0.0625,"velocity":95.70743263814353},
{"position":370.6979166666667,"instrument":"Vibraphone","level2":19,"level3":0,"pitch":60,"articulation":"hits","articulation_tags":["hits","short"],"duration":0.0625,"velocity":95.70743263814353},
{"position":370.6979166666667,"instrument":"TheGrandeurPiano","level2":19,"level3":null,"pitch":54,"articulation":"standard","articulation_tags":["standard","long"],"duration":0.034722222222222224,"velocity":94.59996622084792},
{"position":370.7083333333333,"instrument":"TheGrandeurPiano","level2":20,"level3":null,"pitch":54,"articulation":"standard","articulation_tags":["standard","long"],"duration":0.034722222222222224,"velocity":92.40388778947538},
{"position":370.7083333333333,"instrument":"Vibraphone","level2":19,"level3":0,"pitch":60,"articulation":"hits","articulation_tags":["hits","short"],"duration":0.0625,"velocity":95.82161042231257},
{"position":370.7291666666667,"instrument":"Vibraphone","level2":19,"level3":1,"pitch":62,"articulation":"hits","articulation_tags":["hits","short"],"duration":0.0625,"velocity":95.82161042231257},
{"position":370.7395833333333,"instrument":"TheGrandeurPiano","level2":19,"level3":null,"pitch":54,"articulation":"standard","articulation_tags":["standard","long"],"duration":0.041666666666666664,"velocity":94.913691711044},
{"position":370.7604166666667,"instrument":"TheGrandeurPiano","level2":20,"level3":null,"pitch":54,"articulation":"standard","articulation_tags":["standard","long"],"duration":0.04861111111111111,"velocity":92.09016229927929},
{"position":370.7708333333333,"instrument":"Marimba","level2":15,"level3":7,"pitch":38,"articulation":"hits","articulation_tags":["hits","short"],"duration":0.0625,"velocity":102.32038365911703},
{"position":370.7708333333333,"instrument":"TheGrandeurPiano","level2":19,"level3":null,"pitch":55,"articulation":"standard","articulation_tags":["standard","long"],"duration":0.10416666666666667,"velocity":94.913691711044},
{"position":370.78125,"instrument":"Vibraphone","level2":19,"level3":2,"pitch":60,"articulation":"hits","articulation_tags":["hits","short"],"duration":0.0625,"velocity":95.3434244827373},
{"position":370.78125,"instrument":"Vibraphone","level2":19,"level3":2,"pitch":60,"articulation":"hits","articulation_tags":["hits","short"],"duration":0.0625,"velocity":95.3434244827373},
{"position":370.78125,"instrument":"Vibraphone","level2":19,"level3":3,"pitch":61,"articulation":"hits","articulation_tags":["hits","short"],"duration":0.0625,"velocity":95.3434244827373},
{"position":370.78125,"instrument":"Vibraphone","level2":19,"level3":3,"pitch":61,"articulation":"hits","articulation_tags":["hits","short"],"duration":0.0625,"velocity":95.3434244827373},
{"position":370.8020833333333,"instrument":"TheGrandeurPiano","level2":19,"level3":null,"pitch":55,"articulation":"standard","articulation_tags":["standard","long"],"duration":0.04861111111111111,"velocity":95.22741720124007},
{"position":370.8020833333333,"instrument":"Vibraphone","level2":19,"level3":3,"pitch":61,"articulation":"hits","articulation_tags":["hits","short"],"duration":0.0625,"velocity":95.49508577576503},
{"position":370.8125,"instrument":"Vibraphone","level2":19,"level3":1,"pitch":62,"articulation":"hits","articulation_tags":["hits","short"],"duration":0.0625,"velocity":95.49508577576503},
{"position":370.8125,"instrument":"TheGrandeurPiano","level2":20,"level3":null,"pitch":54,"articulation":"standard","articulation_tags":["standard","long"],"duration":0.2638888888888889,"velocity":92.09016229927929},
{"position":370.8229166666667,"instrument":"TheGrandeurPiano","level2":15,"level3":null,"pitch":54,"articulation":"standard","articulation_tags":["standard","long"],"duration":1.8503937007874016,"velocity":101.18820151496556},
{"position":370.8229166666667,"instrument":"Vibraphone","level2":19,"level3":0,"pitch":59,"articulation":"hits","articulation_tags":["hits","short"],"duration":0.0625,"velocity":95.49508577576503},
{"position":370.8229166666667,"instrument":"Marimba","level2":19,"level3":2,"pitch":60,"articulation":"hits","articulation_tags":["hits","short"],"duration":0.0625,"velocity":95.49508577576503},
{"position":370.8333333333333,"instrument":"TheGrandeurPiano","level2":20,"level3":null,"pitch":54,"articulation":"standard","articulation_tags":["standard","long"],"duration":0.0625,"velocity":91.77643680908321},
{"position":370.8333333333333,"instrument":"Vibraphone","level2":19,"level3":2,"pitch":60,"articulation":"hits","articulation_tags":["hits","short"],"duration":0.0625,"velocity":95.49508577576503},
{"position":370.84375,"instrument":"TubularBells","level2":19,"level3":3,"pitch":61,"articulation":"hits_dumped","articulation_tags":["hits_dumped","short","hits","dumped"],"duration":0.0625,"velocity":95.49508577576503},
{"position":370.875,"instrument":"Vibraphone","level2":19,"level3":4,"pitch":60,"articulation":"hits","articulation_tags":["hits","short"],"duration":0.0625,"velocity":95.49508577576503},
{"position":370.875,"instrument":"Vibraphone","level2":19,"level3":4,"pitch":60,"articulation":"hits","articulation_tags":["hits","short"],"duration":0.0625,"velocity":95.49508577576503},
{"position":370.875,"instrument":"Vibraphone","level2":19,"level3":5,"pitch":61,"articulation":"hits","articulation_tags":["hits","short"],"duration":0.0625,"velocity":95.49508577576503},
{"position":370.875,"instrument":"Vibraphone","level2":19,"level3":5,"pitch":61,"articulation":"hits","articulation_tags":["hits","short"],"duration":0.0625,"velocity":95.49508577576503},
{"position":370.875,"instrument":"TheGrandeurPiano","level2":19,"level3":null,"pitch":55,"articulation":"standard","articulation_tags":["standard","long"],"duration":0.05555555555555555,"velocity":95.54114269143616},
{"position":370.8854166666667,"instrument":"Vibraphone","level2":19,"level3":3,"pitch":62,"articulation":"hits","articulation_tags":["hits","short"],"duration":0.0625,"velocity":95.66336148409528},
{"position":370.8854166666667,"instrument":"Vibraphone","level2":19,"level3":5,"pitch":61,"articulation":"hits","articulation_tags":["hits","short"],"duration":0.0625,"velocity":95.66336148409528},
{"position":370.8958333333333,"instrument":"Vibraphone","level2":19,"level3":0,"pitch":59,"articulation":"hits","articulation_tags":["hits","short"],"duration":0.0625,"velocity":95.66336148409528},
{"position":370.8958333333333,"instrument":"Marimba","level2":19,"level3":4,"pitch":60,"articulation":"hits","articulation_tags":["hits","short"],"duration":0.0625,"velocity":95.66336148409528},
{"position":370.9166666666667,"instrument":"Cello","level2":19,"level3":1,"pitch":62,"articulation":"legato","articulation_tags":["legato","lg"],"duration":0.4270833333333333,"velocity":63.32672296819055},
{"position":370.9270833333333,"instrument":"TheGrandeurPiano","level2":20,"level3":null,"pitch":54,"articulation":"standard","articulation_tags":["standard","long"],"duration":0.0763888888888889,"velocity":94.47174582169106},
{"position":370.9270833333333,"instrument":"TheGrandeurPiano","level2":19,"level3":null,"pitch":55,"articulation":"standard","articulation_tags":["standard","long"],"duration":0.10416666666666667,"velocity":98.55017719424006},
{"position":370.9375,"instrument":"Cello","level2":19,"level3":4,"pitch":60,"articulation":"long_cs","articulation_tags":["long_cs","cs","long","consordina"],"duration":0.15625,"velocity":62.12823975514978},
{"position":370.9583333333333,"instrument":"Cello","level2":19,"level3":2,"pitch":60,"articulation":"long_hrm","articulation_tags":["long_hrm","hrm","long","harmonics"],"duration":0.3125,"velocity":62.12823975514978},
{"position":370.9583333333333,"instrument":"Cello","level2":19,"level3":2,"pitch":59,"articulation":"long_hrm","articulation_tags":["long_hrm","hrm","long","harmonics"],"duration":0.23958333333333334,"velocity":62.12823975514978},
{"position":370.9583333333333,"instrument":"TheGrandeurPiano","level2":19,"level3":null,"pitch":55,"articulation":"standard","articulation_tags":["standard","long"],"duration":0.0625,"velocity":97.43700265376259},
{"position":370.96875,"instrument":"Marimba","level2":19,"level3":5,"pitch":61,"articulation":"hits","articulation_tags":["hits","short"],"duration":0.0625,"velocity":95.25371804834839},
{"position":370.9791666666667,"instrument":"Marimba","level2":19,"level3":5,"pitch":62,"articulation":"hits","articulation_tags":["hits","short"],"duration":0.0625,"velocity":95.25371804834839},
{"position":371.0208333333333,"instrument":"Vibraphone","level2":18,"level3":1,"pitch":63,"articulation":"hits","articulation_tags":["hits","short"],"duration":0.0625,"velocity":89.86764118960298},
{"position":371.0208333333333,"instrument":"Viola","level2":19,"level3":3,"pitch":62,"articulation":"long_slt","articulation_tags":["long_slt","slt","long","sultasto"],"duration":0.6145833333333334,"velocity":62.507436096696786},
{"position":371.0208333333333,"instrument":"Viola","level2":19,"level3":4,"pitch":60,"articulation":"long_cs","articulation_tags":["long_cs","cs","long","consordina"],"duration":0.3333333333333333,"velocity":62.507436096696786},
{"position":371.0416666666667,"instrument":"Marimba","level2":19,"level3":1,"pitch":63,"articulation":"hits","articulation_tags":["hits","short"],"duration":0.0625,"velocity":95.25371804834839},
{"position":371.0416666666667,"instrument":"TheGrandeurPiano","level2":20,"level3":null,"pitch":54,"articulation":"standard","articulation_tags":["standard","long"],"duration":0.09027777777777778,"velocity":92.7311203008214},
{"position":371.0520833333333,"instrument":"Marimba","level2":19,"level3":0,"pitch":59,"articulation":"hits","articulation_tags":["hits","short"],"duration":0.0625,"velocity":95.25371804834839},
{"position":371.0520833333333,"instrument":"TheGrandeurPiano","level2":19,"level3":null,"pitch":55,"articulation":"standard","articulation_tags":["standard","long"],"duration":0.06944444444444445,"velocity":97.75072814395867},
{"position":371.0729166666667,"instrument":"TheGrandeurPiano","level2":19,"level3":null,"pitch":56,"articulation":"standard","articulation_tags":["standard","long"],"duration":0.09722222222222222,"velocity":97.75072814395867},
{"position":371.0833333333333,"instrument":"Cello","level2":19,"level3":3,"pitch":62,"articulation":"long_slt","articulation_tags":["long_slt","slt","long","sultasto"],"duration":1.2083333333333333,"velocity":61.745679700376854},
{"position":371.09375,"instrument":"Vibraphone","level2":19,"level3":4,"pitch":59,"articulation":"hits","articulation_tags":["hits","short"],"duration":0.0625,"velocity":94.87283985018843},
{"position":371.1145833333333,"instrument":"Marimba","level2":19,"level3":6,"pitch":60,"articulation":"hits","articulation_tags":["hits","short"],"duration":0.0625,"velocity":94.87283985018843},
{"position":371.1145833333333,"instrument":"Marimba","level2":19,"level3":6,"pitch":60,"articulation":"hits","articulation_tags":["hits","short"],"duration":0.0625,"velocity":94.87283985018843},
{"position":371.1145833333333,"instrument":"Marimba","level2":19,"level3":7,"pitch":61,"articulation":"hits","articulation_tags":["hits","short"],"duration":0.0625,"velocity":94.87283985018843},
{"position":371.125,"instrument":"Vibraphone","level2":19,"level3":7,"pitch":61,"articulation":"hits","articulation_tags":["hits","short"],"duration":0.0625,"velocity":94.87283985018843},
{"position":371.15625,"instrument":"TheGrandeurPiano","level2":19,"level3":null,"pitch":56,"articulation":"standard","articulation_tags":["standard","long"],"duration":0.0763888888888889,"velocity":98.06445363415475},
{"position":371.15625,"instrument":"Vibraphone","level2":19,"level3":7,"pitch":61,"articulation":"hits","articulation_tags":["hits","short"],"duration":0.0625,"velocity":95.10036212142805},
{"position":371.1666666666667,"instrument":"Marimba","level2":19,"level3":6,"pitch":60,"articulation":"hits","articulation_tags":["hits","short"],"duration":0.0625,"velocity":95.10036212142805},
{"position":371.1770833333333,"instrument":"Marimba","level2":19,"level3":5,"pitch":62,"articulation":"hits","articulation_tags":["hits","short"],"duration":0.0625,"velocity":95.10036212142805},
{"position":371.1770833333333,"instrument":"TheGrandeurPiano","level2":20,"level3":null,"pitch":54,"articulation":"standard","articulation_tags":["standard","long"],"duration":0.10416666666666667,"velocity":92.41739481062532},
{"position":371.1875,"instrument":"Vibraphone","level2":19,"level3":8,"pitch":60,"articulation":"hits","articulation_tags":["hits","short"],"duration":0.0625,"velocity":95.10036212142805},
{"position":371.1875,"instrument":"Vibraphone","level2":19,"level3":9,"pitch":61,"articulation":"hits","articulation_tags":["hits","short"],"duration":0.0625,"velocity":95.10036212142805},
{"position":371.1875,"instrument":"Cello","level2":19,"level3":6,"pitch":60,"articulation":"long_cs","articulation_tags":["long_cs","cs","long","consordina"],"duration":0.22916666666666666,"velocity":62.20072424285611},
{"position":371.1979166666667,"instrument":"Vibraphone","level2":19,"level3":2,"pitch":59,"articulation":"hits","articulation_tags":["hits","short"],"duration":0.0625,"velocity":95.10036212142805},
{"position":371.1979166666667,"instrument":"Vibraphone","level2":19,"level3":8,"pitch":60,"articulation":"hits","articulation_tags":["hits","short"],"duration":0.0625,"velocity":95.10036212142805},
{"position":371.1979166666667,"instrument":"Vibraphone","level2":19,"level3":9,"pitch":61,"articulation":"hits","articulation_tags":["hits","short"],"duration":0.0625,"velocity":95.10036212142805},
{"position":371.2083333333333,"instrument":"TheGrandeurPiano","level2":20,"level3":null,"pitch":55,"articulation":"standard","articulation_tags":["standard","long"],"duration":0.25,"velocity":92.41739481062532},
{"position":371.2083333333333,"instrument":"Vibraphone","level2":19,"level3":9,"pitch":61,"articulation":"hits","articulation_tags":["hits","short"],"duration":0.0625,"velocity":95.10036212142805},
{"position":371.21875,"instrument":"TheGrandeurPiano","level2":18,"level3":null,"pitch":70,"articulation":"standard","articulation_tags":["standard","long"],"duration":1.1527777777777777,"velocity":101.82915951650767},
{"position":371.21875,"instrument":"TheGrandeurPiano","level2":19,"level3":null,"pitch":56,"articulation":"standard","articulation_tags":["standard","long"],"duration":0.09722222222222222,"velocity":96.82552967382131},
{"position":371.2291666666667,"instrument":"TubularBells","level2":19,"level3":7,"pitch":61,"articulation":"hits_dumped","articulation_tags":["hits_dumped","short","hits","dumped"],"duration":0.0625,"velocity":94.52229043846008},
{"position":371.2291666666667,"instrument":"TubularBells","level2":19,"level3":5,"pitch":62,"articulation":"hits_dumped","articulation_tags":["hits_dumped","short","hits","dumped"],"duration":0.0625,"velocity":94.52229043846008},
{"position":371.2291666666667,"instrument":"Vibraphone","level2":19,"level3":8,"pitch":60,"articulation":"hits","articulation_tags":["hits","short"],"duration":0.0625,"velocity":94.52229043846008},
{"position":371.2708333333333,"instrument":"Vibraphone","level2":19,"level3":2,"pitch":59,"articulation":"hits","articulation_tags":["hits","short"],"duration":0.0625,"velocity":94.52229043846008},
{"position":371.2708333333333,"instrument":"TheGrandeurPiano","level2":19,"level3":null,"pitch":56,"articulation":"standard","articulation_tags":["standard","long"],"duration":0.08333333333333333,"velocity":97.13925516401738},
{"position":371.2916666666667,"instrument":"Vibraphone","level2":19,"level3":0,"pitch":59,"articulation":"hits","articulation_tags":["hits","short"],"duration":0.0625,"velocity":94.77195911605682},
{"position":371.3125,"instrument":"TubularBells","level2":19,"level3":7,"pitch":62,"articulation":"hits_dumped","articulation_tags":["hits_dumped","short","hits","dumped"],"duration":0.0625,"velocity":94.77195911605682},
{"position":371.3125,"instrument":"Vibraphone","level2":19,"level3":8,"pitch":60,"articulation":"hits","articulation_tags":["hits","short"],"duration":0.0625,"velocity":94.77195911605682},
{"position":371.3333333333333,"instrument":"TheGrandeurPiano","level2":20,"level3":null,"pitch":55,"articulation":"standard","articulation_tags":["standard","long"],"duration":0.125,"velocity":90.86474536009581},
{"position":371.3541666666667,"instrument":"TubularBells","level2":19,"level3":1,"pitch":63,"articulation":"hits","articulation_tags":["hits","short"],"duration":0.0625,"velocity":94.77195911605682},
{"position":371.3541666666667,"instrument":"Vibraphone","level2":19,"level3":4,"pitch":59,"articulation":"hits","articulation_tags":["hits","short"],"duration":0.0625,"velocity":94.77195911605682},
{"position":371.3645833333333,"instrument":"Vibraphone","level2":19,"level3":10,"pitch":60,"articulation":"hits","articulation_tags":["hits","short"],"duration":0.0625,"velocity":94.77195911605682},
{"position":371.3645833333333,"instrument":"Vibraphone","level2":19,"level3":10,"pitch":60,"articulation":"hits","articulation_tags":["hits","short"],"duration":0.0625,"velocity":94.77195911605682},
{"position":371.3645833333333,"instrument":"Vibraphone","level2":19,"level3":11,"pitch":61,"articulation":"hits","articulation_tags":["hits","short"],"duration":0.0625,"velocity":94.77195911605682},
{"position":371.3645833333333,"instrument":"Vibraphone","level2":19,"level3":11,"pitch":61,"articulation":"hits","articulation_tags":["hits","short"],"duration":0.0625,"velocity":94.77195911605682},
{"position":371.3645833333333,"instrument":"Vibraphone","level2":19,"level3":9,"pitch":61,"articulation":"hits","articulation_tags":["hits","short"],"duration":0.0625,"velocity":94.77195911605682},
{"position":371.3645833333333,"instrument":"Vibraphone","level2":19,"level3":9,"pitch":62,"articulation":"hits","articulation_tags":["hits","short"],"duration":0.0625,"velocity":94.77195911605682},
{"position":371.3645833333333,"instrument":"TheGrandeurPiano","level2":19,"level3":null,"pitch":57,"articulation":"standard","articulation_tags":["standard","long"],"duration":0.09027777777777778,"velocity":97.13925516401738},
{"position":371.3854166666667,"instrument":"TheGrandeurPiano","level2":12,"level3":null,"pitch":34,"articulation":"standard","articulation_tags":["standard","long"],"duration":1.5354330708661417,"velocity":93.68827477186052},
{"position":371.3958333333333,"instrument":"TheGrandeurPiano","level2":19,"level3":null,"pitch":57,"articulation":"standard","articulation_tags":["standard","long"],"duration":0.09027777777777778,"velocity":97.45298065421346},
{"position":371.4166666666667,"instrument":"Vibraphone","level2":19,"level3":6,"pitch":60,"articulation":"hits","articulation_tags":["hits","short"],"duration":0.0625,"velocity":94.47572938364637},
{"position":371.4166666666667,"instrument":"Vibraphone","level2":19,"level3":6,"pitch":59,"articulation":"hits","articulation_tags":["hits","short"],"duration":0.0625,"velocity":94.47572938364637},
{"position":371.4479166666667,"instrument":"Vibraphone","level2":19,"level3":10,"pitch":60,"articulation":"hits","articulation_tags":["hits","short"],"duration":0.0625,"velocity":94.47572938364637},
{"position":371.4479166666667,"instrument":"TubularBells","level2":19,"level3":11,"pitch":61,"articulation":"hits_dumped","articulation_tags":["hits_dumped","short","hits","dumped"],"duration":0.0625,"velocity":94.47572938364637},
{"position":371.4791666666667,"instrument":"Vibraphone","level2":19,"level3":8,"pitch":60,"articulation":"hits","articulation_tags":["hits","short"],"duration":0.0625,"velocity":94.47572938364637},
{"position":371.4791666666667,"instrument":"Vibraphone","level2":19,"level3":4,"pitch":59,"articulation":"hits","articulation_tags":["hits","short"],"duration":0.0625,"velocity":94.47572938364637},
{"position":371.5,"instrument":"TheGrandeurPiano","level2":19,"level3":null,"pitch":57,"articulation":"standard","articulation_tags":["standard","long"],"duration":0.09027777777777778,"velocity":99.68387943178757},
{"position":371.5,"instrument":"Marimba","level2":19,"level3":10,"pitch":60,"articulation":"hits","articulation_tags":["hits","short"],"duration":0.0625,"velocity":93.91829210194905},
{"position":371.5104166666667,"instrument":"Marimba","level2":19,"level3":11,"pitch":61,"articulation":"hits","articulation_tags":["hits","short"],"duration":0.0625,"velocity":93.91829210194905},
{"position":371.5208333333333,"instrument":"TheGrandeurPiano","level2":20,"level3":null,"pitch":55,"articulation":"standard","articulation_tags":["standard","long"],"duration":0.1388888888888889,"velocity":92.78191864747384},
{"position":371.5416666666667,"instrument":"TheGrandeurPiano","level2":19,"level3":null,"pitch":57,"articulation":"standard","articulation_tags":["standard","long"],"duration":0.09722222222222222,"velocity":99.99760492198365},
{"position":371.5729166666667,"instrument":"Cello","level2":20,"level3":0,"pitch":62,"articulation":"pizzicato","articulation_tags":["pizzicato","pz","short"],"duration":0.125,"velocity":95.20872582221338},
{"position":371.5833333333333,"instrument":"TheGrandeurPiano","level2":20,"level3":null,"pitch":55,"articulation":"standard","articulation_tags":["standard","long"],"duration":0.25,"velocity":92.78191864747384},
{"position":371.59375,"instrument":"Marimba","level2":19,"level3":12,"pitch":61,"articulation":"hits","articulation_tags":["hits","short"],"duration":0.0625,"velocity":94.21305335770518},
{"position":371.59375,"instrument":"Marimba","level2":19,"level3":13,"pitch":61,"articulation":"hits","articulation_tags":["hits","short"],"duration":0.0625,"velocity":94.21305335770518},
{"position":371.59375,"instrument":"TheGrandeurPiano","level2":18,"level3":null,"pitch":70,"articulation":"standard","articulation_tags":["standard","long"],"duration":0.7083333333333334,"velocity":102.82113433374835},
{"position":371.6041666666667,"instrument":"Marimba","level2":19,"level3":14,"pitch":60,"articulation":"hits","articulation_tags":["hits","short"],"duration":0.0625,"velocity":94.21305335770518},
{"position":371.6041666666667,"instrument":"Cello","level2":19,"level3":15,"pitch":61,"articulation":"long_flt","articulation_tags":["long_flt","flt","long","flautando"],"duration":0.010416666666666666,"velocity":60.426106715410356},
{"position":371.6145833333333,"instrument":"Cello","level2":19,"level3":14,"pitch":60,"articulation":"long_flt","articulation_tags":["long_flt","flt","long","flautando"],"duration":0.1875,"velocity":60.426106715410356},
{"position":371.6145833333333,"instrument":"Cello","level2":19,"level3":15,"pitch":61,"articulation":"long_flt","articulation_tags":["long_flt","flt","long","flautando"],"duration":0.3958333333333333,"velocity":60.426106715410356},
{"position":371.625,"instrument":"Vibraphone","level2":19,"level3":3,"pitch":62,"articulation":"hits","articulation_tags":["hits","short"],"duration":0.0625,"velocity":94.21305335770518},
{"position":371.6354166666667,"instrument":"TheGrandeurPiano","level2":19,"level3":null,"pitch":58,"articulation":"standard","articulation_tags":["standard","long"],"duration":0.08333333333333333,"velocity":99.99760492198365},
{"position":371.6354166666667,"instrument":"Vibraphone","level2":19,"level3":13,"pitch":61,"articulation":"hits","articulation_tags":["hits","short"],"duration":0.0625,"velocity":93.66775142213163},
{"position":371.6458333333333,"instrument":"Vibraphone","level2":19,"level3":12,"pitch":60,"articulation":"hits","articulation_tags":["hits","short"],"duration":0.0625,"velocity":93.66775142213163},
{"position":371.6666666666667,"instrument":"Marimba","level2":19,"level3":12,"pitch":60,"articulation":"hits","articulation_tags":["hits","short"],"duration":0.0625,"velocity":93.66775142213163},
{"position":371.6770833333333,"instrument":"Marimba","level2":19,"level3":8,"pitch":59,"articulation":"hits","articulation_tags":["hits","short"],"duration":0.0625,"velocity":93.66775142213163},
{"position":371.6770833333333,"instrument":"TheGrandeurPiano","level2":19,"level3":null,"pitch":58,"articulation":"standard","articulation_tags":["standard","long"],"duration":0.10416666666666667,"velocity":100.31133041217973},
{"position":371.6875,"instrument":"Vibraphone","level2":19,"level3":1,"pitch":63,"articulation":"hits","articulation_tags":["hits","short"],"duration":0.0625,"velocity":93.98522182708112},
{"position":371.7291666666667,"instrument":"TheGrandeurPiano","level2":20,"level3":null,"pitch":55,"articulation":"standard","articulation_tags":["standard","long"],"duration":0.1597222222222222,"velocity":92.46819315727777},
{"position":371.7395833333333,"instrument":"Marimba","level2":19,"level3":3,"pitch":62,"articulation":"hits","articulation_tags":["hits","short"],"duration":0.0625,"velocity":93.98522182708112},
{"position":371.7604166666667,"instrument":"Marimba","level2":19,"level3":16,"pitch":60,"articulation":"hits","articulation_tags":["hits","short"],"duration":0.0625,"velocity":93.98522182708112},
{"position":371.7604166666667,"instrument":"Cello","level2":19,"level3":17,"pitch":61,"articulation":"long_cs","articulation_tags":["long_cs","cs","long","consordina"],"duration":0.010416666666666666,"velocity":59.970443654162246},
{"position":371.7604166666667,"instrument":"TheGrandeurPiano","level2":19,"level3":null,"pitch":58,"articulation":"standard","articulation_tags":["standard","long"],"duration":0.0763888888888889,"velocity":99.54143438792056},
{"position":371.7708333333333,"instrument":"Cello","level2":19,"level3":13,"pitch":61,"articulation":"long_cs","articulation_tags":["long_cs","cs","long","consordina"],"duration":0.0,"velocity":58.90659695697811},
{"position":371.7916666666667,"instrument":"Contrabass","level2":12,"level3":7,"pitch":31,"articulation":"short_hrm","articulation_tags":["short_hrm","hrm_s","short","harmonics"],"duration":0.125,"velocity":127.5},
{"position":371.7916666666667,"instrument":"Cello","level2":15,"level3":5,"pitch":39,"articulation":"collegno","articulation_tags":["collegno","cl","short"],"duration":0.125,"velocity":101.89919544757043},
{"position":371.8020833333333,"instrument":"Marimba","level2":19,"level3":16,"pitch":60,"articulation":"hits","articulation_tags":["hits","short"],"duration":0.0625,"velocity":93.45329847848906},
{"position":371.8333333333333,"instrument":"TheGrandeurPiano","level2":19,"level3":null,"pitch":58,"articulation":"standard","articulation_tags":["standard","long"],"duration":0.1111111111111111,"velocity":99.85515987811664},
{"position":371.8541666666667,"instrument":"Cello","level2":20,"level3":1,"pitch":64,"articulation":"collegno","articulation_tags":["collegno","cl","short"],"duration":0.125,"velocity":94.73515639106031},
{"position":371.875,"instrument":"Marimba","level2":19,"level3":1,"pitch":63,"articulation":"hits","articulation_tags":["hits","short"],"duration":0.0625,"velocity":93.79340840994197},
{"position":371.875,"instrument":"TheGrandeurPiano","level2":19,"level3":null,"pitch":59,"articulation":"standard","articulation_tags":["standard","long"],"duration":0.0763888888888889,"velocity":99.85515987811664},
{"position":371.9375,"instrument":"Marimba","level2":19,"level3":10,"pitch":60,"articulation":"hits","articulation_tags":["hits","short"],"duration":0.0625,"velocity":93.27610731668035},
{"position":371.96875,"instrument":"TheGrandeurPiano","level2":20,"level3":null,"pitch":56,"articulation":"standard","articulation_tags":["standard","long"],"duration":0.2569444444444444,"velocity":91.6982971330186},
{"position":371.96875,"instrument":"TheGrandeurPiano","level2":20,"level3":null,"pitch":56,"articulation":"standard","articulation_tags":["standard","long"],"duration":0.18055555555555555,"velocity":91.38457164282252},
{"position":371.9791666666667,"instrument":"Marimba","level2":19,"level3":12,"pitch":60,"articulation":"hits","articulation_tags":["hits","short"],"duration":0.0625,"velocity":93.27610731668035},
{"position":371.9895833333333,"instrument":"TheGrandeurPiano","level2":19,"level3":null,"pitch":59,"articulation":"standard","articulation_tags":["standard","long"],"duration":0.06944444444444445,"velocity":99.85515987811664},
{"position":372.0,"instrument":"Marimba","level2":19,"level3":9,"pitch":62,"articulation":"hits","articulation_tags":["hits","short"],"duration":0.0625,"velocity":92.76521749553362},
{"position":372.0,"instrument":"Cello","level2":19,"level3":10,"pitch":60,"articulation":"long_flt","articulation_tags":["long_flt","flt","long","flautando"],"duration":0.041666666666666664,"velocity":57.53043499106723},
{"position":372.0,"instrument":"TheGrandeurPiano","level2":19,"level3":null,"pitch":59,"articulation":"standard","articulation_tags":["standard","long"],"duration":0.1111111111111111,"velocity":100.16888536831271},
{"position":372.0104166666667,"instrument":"Cello","level2":19,"level3":15,"pitch":60,"articulation":"long_flt","articulation_tags":["long_flt","flt","long","flautando"],"duration":0.03125,"velocity":58.274373258522985},
{"position":372.0104166666667,"instrument":"Cello","level2":19,"level3":9,"pitch":61,"articulation":"long_flt","articulation_tags":["long_flt","flt","long","flautando"],"duration":0.11458333333333333,"velocity":58.274373258522985},
{"position":372.0208333333333,"instrument":"Vibraphone","level2":19,"level3":6,"pitch":59,"articulation":"hits","articulation_tags":["hits","short"],"duration":0.0625,"velocity":93.13718662926149},
{"position":372.0208333333333,"instrument":"Vibraphone","level2":19,"level3":4,"pitch":59,"articulation":"hits","articulation_tags":["hits","short"],"duration":0.0625,"velocity":93.13718662926149},
{"position":372.03125,"instrument":"Vibraphone","level2":19,"level3":8,"pitch":60,"articulation":"hits","articulation_tags":["hits","short"],"duration":0.0625,"velocity":93.13718662926149},
{"position":372.03125,"instrument":"Marimba","level2":19,"level3":15,"pitch":60,"articulation":"hits","articulation_tags":["hits","short"],"duration":0.0625,"velocity":93.13718662926149},
{"position":372.0416666666667,"instrument":"Cello","level2":19,"level3":12,"pitch":61,"articulation":"long_cs","articulation_tags":["long_cs","cs","long","consordina"],"duration":0.09375,"velocity":58.274373258522985},
{"position":372.0520833333333,"instrument":"Marimba","level2":19,"level3":6,"pitch":60,"articulation":"hits","articulation_tags":["hits","short"],"duration":0.0625,"velocity":93.13718662926149},
{"position":372.0625,"instrument":"Cello","level2":15,"level3":9,"pitch":38,"articulation":"collegno","articulation_tags":["collegno","cl","short"],"duration":0.125,"velocity":101.89919544757043},
{"position":372.0833333333333,"instrument":"Marimba","level2":19,"level3":11,"pitch":61,"articulation":"hits","articulation_tags":["hits","short"],"duration":0.0625,"velocity":93.13718662926149},
{"position":372.0833333333333,"instrument":"Vibraphone","level2":19,"level3":4,"pitch":59,"articulation":"hits","articulation_tags":["hits","short"],"duration":0.0625,"velocity":93.13718662926149},
{"position":372.09375,"instrument":"TheGrandeurPiano","level2":19,"level3":null,"pitch":60,"articulation":"standard","articulation_tags":["standard","long"],"duration":0.06944444444444445,"velocity":99.61188575820952},
{"position":372.1354166666667,"instrument":"Marimba","level2":19,"level3":9,"pitch":61,"articulation":"hits","articulation_tags":["hits","short"],"duration":0.0625,"velocity":92.64302672262158},
{"position":372.1354166666667,"instrument":"Marimba","level2":19,"level3":12,"pitch":61,"articulation":"hits","articulation_tags":["hits","short"],"duration":0.0625,"velocity":92.64302672262158},
{"position":372.1458333333333,"instrument":"Marimba","level2":19,"level3":0,"pitch":59,"articulation":"hits","articulation_tags":["hits","short"],"duration":0.0625,"velocity":92.64302672262158},
{"position":372.15625,"instrument":"Cello","level2":19,"level3":11,"pitch":61,"articulation":"long_slt","articulation_tags":["long_slt","slt","long","sultasto"],"duration":0.125,"velocity":57.286053445243176},
{"position":372.1666666666667,"instrument":"TheGrandeurPiano","level2":19,"level3":null,"pitch":60,"articulation":"standard","articulation_tags":["standard","long"],"duration":0.11805555555555555,"velocity":99.9256112484056},
{"position":372.1770833333333,"instrument":"Cello","level2":19,"level3":8,"pitch":60,"articulation":"long_cs","articulation_tags":["long_cs","cs","long","consordina"],"duration":0.2708333333333333,"velocity":58.07470560382702},
{"position":372.1979166666667,"instrument":"TheGrandeurPiano","level2":19,"level3":null,"pitch":60,"articulation":"standard","articulation_tags":["standard","long"],"duration":0.0625,"velocity":99.9256112484056},
{"position":372.21875,"instrument":"Vibraphone","level2":18,"level3":2,"pitch":63,"articulation":"hits","articulation_tags":["hits","short"],"duration":0.0625,"velocity":89.33324109603433},
{"position":372.21875,"instrument":"Marimba","level2":19,"level3":1,"pitch":63,"articulation":"hits","articulation_tags":["hits","short"],"duration":0.0625,"velocity":92.56113104561734},
{"position":372.2395833333333,"instrument":"TheGrandeurPiano","level2":20,"level3":null,"pitch":56,"articulation":"standard","articulation_tags":["standard","long"],"duration":0.20833333333333334,"velocity":90.51384654252325},
{"position":372.25,"instrument":"Marimba","level2":19,"level3":6,"pitch":60,"articulation":"hits","articulation_tags":["hits","short"],"duration":0.0625,"velocity":92.56113104561734},
{"position":372.25,"instrument":"Cello","level2":19,"level3":6,"pitch":60,"articulation":"long_flt","articulation_tags":["long_flt","flt","long","flautando"],"duration":0.03125,"velocity":57.122262091234695},
{"position":372.2708333333333,"instrument":"Cello","level2":19,"level3":11,"pitch":61,"articulation":"long_flt","articulation_tags":["long_flt","flt","long","flautando"],"duration":0.010416666666666666,"velocity":57.122262091234695},
{"position":372.28125,"instrument":"Marimba","level2":19,"level3":3,"pitch":62,"articulation":"hits","articulation_tags":["hits","short"],"duration":0.0625,"velocity":92.56113104561734},
{"position":372.28125,"instrument":"Cello","level2":19,"level3":11,"pitch":60,"articulation":"long_flt","articulation_tags":["long_flt","flt","long","flautando"],"duration":0.010416666666666666,"velocity":57.122262091234695},
{"position":372.2916666666667,"instrument":"Cello","level2":19,"level3":7,"pitch":61,"articulation":"long_slt","articulation_tags":["long_slt","slt","long","sultasto"],"duration":0.17708333333333334,"velocity":57.122262091234695},
{"position":372.2916666666667,"instrument":"TheGrandeurPiano","level2":19,"level3":null,"pitch":61,"articulation":"standard","articulation_tags":["standard","long"],"duration":0.0625,"velocity":99.58848934718219},
{"position":372.3333333333333,"instrument":"TubularBells","level2":19,"level3":3,"pitch":62,"articulation":"hits_dumped","articulation_tags":["hits_dumped","short","hits","dumped"],"duration":0.0625,"velocity":92.09374808399744},
{"position":372.34375,"instrument":"TheGrandeurPiano","level2":20,"level3":null,"pitch":56,"articulation":"standard","articulation_tags":["standard","long"],"duration":0.2569444444444444,"velocity":90.17672464129984},
{"position":372.34375,"instrument":"TheGrandeurPiano","level2":19,"level3":null,"pitch":61,"articulation":"standard","articulation_tags":["standard","long"],"duration":0.11805555555555555,"velocity":99.90221483737827},
{"position":372.3541666666667,"instrument":"TubularBells","level2":19,"level3":5,"pitch":62,"articulation":"hits_dumped","articulation_tags":["hits_dumped","short","hits","dumped"],"duration":0.0625,"velocity":92.52005097405876},
{"position":372.3645833333333,"instrument":"TubularBells","level2":19,"level3":7,"pitch":61,"articulation":"hits_dumped","articulation_tags":["hits_dumped","short","hits","dumped"],"duration":0.0625,"velocity":92.52005097405876},
{"position":372.375,"instrument":"Vibraphone","level2":19,"level3":4,"pitch":60,"articulation":"hits","articulation_tags":["hits","short"],"duration":0.0625,"velocity":92.52005097405876},
{"position":372.3854166666667,"instrument":"Vibraphone","level2":19,"level3":2,"pitch":59,"articulation":"hits","articulation_tags":["hits","short"],"duration":0.0625,"velocity":92.52005097405876},
{"position":372.3854166666667,"instrument":"TheGrandeurPiano","level2":19,"level3":null,"pitch":61,"articulation":"standard","articulation_tags":["standard","long"],"duration":0.05555555555555555,"velocity":99.90221483737827},
{"position":372.3958333333333,"instrument":"Marimba","level2":15,"level3":5,"pitch":39,"articulation":"hits","articulation_tags":["hits","short"],"duration":0.0625,"velocity":101.89919544757043},
{"position":372.3958333333333,"instrument":"Vibraphone","level2":19,"level3":8,"pitch":60,"articulation":"hits","articulation_tags":["hits","short"],"duration":0.0625,"velocity":92.07270252197986},
{"position":372.40625,"instrument":"TubularBells","level2":19,"level3":5,"pitch":62,"articulation":"hits_dumped","articulation_tags":["hits_dumped","short","hits","dumped"],"duration":0.0625,"velocity":92.07270252197986},
{"position":372.4166666666667,"instrument":"Vibraphone","level2":19,"level3":4,"pitch":60,"articulation":"hits","articulation_tags":["hits","short"],"duration":0.0625,"velocity":92.07270252197986},
{"position":372.4375,"instrument":"Vibraphone","level2":19,"level3":0,"pitch":59,"articulation":"hits","articulation_tags":["hits","short"],"duration":0.0625,"velocity":92.07270252197986},
{"position":372.4583333333333,"instrument":"Vibraphone","level2":19,"level3":8,"pitch":60,"articulation":"hits","articulation_tags":["hits","short"],"duration":0.0625,"velocity":92.07270252197986},
{"position":372.46875,"instrument":"TubularBells","level2":19,"level3":3,"pitch":61,"articulation":"hits_dumped","articulation_tags":["hits_dumped","short","hits","dumped"],"duration":0.0625,"velocity":92.07270252197986},
{"position":372.46875,"instrument":"TubularBells","level2":19,"level3":7,"pitch":61,"articulation":"hits_dumped","articulation_tags":["hits_dumped","short","hits","dumped"],"duration":0.0625,"velocity":92.07270252197986},
{"position":372.46875,"instrument":"TheGrandeurPiano","level2":19,"level3":null,"pitch":62,"articulation":"standard","articulation_tags":["standard","long"],"duration":0.04861111111111111,"velocity":99.90221483737827},
{"position":372.5,"instrument":"Vibraphone","level2":19,"level3":4,"pitch":60,"articulation":"hits","articulation_tags":["hits","short"],"duration":0.0625,"velocity":91.63588728806292},
{"position":372.5,"instrument":"TubularBells","level2":19,"level3":3,"pitch":61,"articulation":"hits_dumped","articulation_tags":["hits_dumped","short","hits","dumped"],"duration":0.0625,"velocity":91.63588728806292},
{"position":372.5104166666667,"instrument":"TubularBells","level2":19,"level3":7,"pitch":61,"articulation":"hits_dumped","articulation_tags":["hits_dumped","short","hits","dumped"],"duration":0.0625,"velocity":91.63588728806292},
{"position":372.5208333333333,"instrument":"Vibraphone","level2":19,"level3":2,"pitch":59,"articulation":"hits","articulation_tags":["hits","short"],"duration":0.0625,"velocity":91.63588728806292},
{"position":372.5208333333333,"instrument":"TubularBells","level2":19,"level3":8,"pitch":61,"articulation":"hits_dumped","articulation_tags":["hits_dumped","short","hits","dumped"],"duration":0.0625,"velocity":91.63588728806292},
{"position":372.5208333333333,"instrument":"TheGrandeurPiano","level2":19,"level3":null,"pitch":62,"articulation":"standard","articulation_tags":["standard","long"],"duration":0.11805555555555555,"velocity":100.21594032757434},
{"position":372.5208333333333,"instrument":"Vibraphone","level2":19,"level3":4,"pitch":60,"articulation":"hits","articulation_tags":["hits","short"],"duration":0.0625,"velocity":92.09374808399744},
{"position":372.53125,"instrument":"TubularBells","level2":19,"level3":1,"pitch":62,"articulation":"hits_dumped","articulation_tags":["hits_dumped","short","hits","dumped"],"duration":0.0625,"velocity":92.09374808399744},
{"position":372.53125,"instrument":"Vibraphone","level2":19,"level3":3,"pitch":61,"articulation":"hits","articulation_tags":["hits","short"],"duration":0.0625,"velocity":92.09374808399744},
{"position":372.53125,"instrument":"Vibraphone","level2":19,"level3":7,"pitch":60,"articulation":"hits","articulation_tags":["hits","short"],"duration":0.0625,"velocity":92.09374808399744},
{"position":372.5416666666667,"instrument":"Vibraphone","level2":19,"level3":0,"pitch":59,"articulation":"hits","articulation_tags":["hits","short"],"duration":0.0625,"velocity":92.09374808399744},
{"position":372.5416666666667,"instrument":"Vibraphone","level2":19,"level3":8,"pitch":61,"articulation":"hits","articulation_tags":["hits","short"],"duration":0.0625,"velocity":92.09374808399744},
{"position":372.5416666666667,"instrument":"TheGrandeurPiano","level2":19,"level3":null,"pitch":62,"articulation":"standard","articulation_tags":["standard","long"],"duration":0.04861111111111111,"velocity":100.10306967212861},
{"position":372.5520833333333,"instrument":"TheGrandeurPiano","level2":20,"level3":null,"pitch":56,"articulation":"standard","articulation_tags":["standard","long"],"duration":0.2361111111111111,"velocity":89.75012849565803},
{"position":372.5625,"instrument":"Vibraphone","level2":18,"level3":1,"pitch":63,"articulation":"hits","articulation_tags":["hits","short"],"duration":0.0625,"velocity":89.33324109603433},
{"position":372.6145833333333,"instrument":"TheGrandeurPiano","level2":19,"level3":null,"pitch":63,"articulation":"standard","articulation_tags":["standard","long"],"duration":0.041666666666666664,"velocity":100.10306967212861},
{"position":372.625,"instrument":"TubularBells","level2":19,"level3":5,"pitch":62,"articulation":"hits_dumped","articulation_tags":["hits_dumped","short","hits","dumped"],"duration":0.0625,"velocity":91.27650955180722},
{"position":372.625,"instrument":"TubularBells","level2":19,"level3":5,"pitch":61,"articulation":"hits_dumped","articulation_tags":["hits_dumped","short","hits","dumped"],"duration":0.0625,"velocity":91.27650955180722},
{"position":372.6458333333333,"instrument":"Vibraphone","level2":19,"level3":0,"pitch":60,"articulation":"hits","articulation_tags":["hits","short"],"duration":0.0625,"velocity":91.27650955180722},
{"position":372.65625,"instrument":"TheGrandeurPiano","level2":18,"level3":null,"pitch":69,"articulation":"standard","articulation_tags":["standard","long"],"duration":0.1736111111111111,"velocity":101.04424614271684},
{"position":372.6666666666667,"instrument":"Vibraphone","level2":19,"level3":1,"pitch":62,"articulation":"hits","articulation_tags":["hits","short"],"duration":0.0625,"velocity":91.27650955180722},
{"position":372.6770833333333,"instrument":"TheGrandeurPiano","level2":19,"level3":null,"pitch":63,"articulation":"standard","articulation_tags":["standard","long"],"duration":0.041666666666666664,"velocity":103.49294751955156},
{"position":372.6979166666667,"instrument":"TheGrandeurPiano","level2":19,"level3":null,"pitch":63,"articulation":"standard","articulation_tags":["standard","long"],"duration":0.1111111111111111,"velocity":103.80667300974764},
{"position":372.7083333333333,"instrument":"Marimba","level2":19,"level3":0,"pitch":60,"articulation":"hits","articulation_tags":["hits","short"],"duration":0.0625,"velocity":91.38617443869711},
{"position":372.71875,"instrument":"Marimba","level2":19,"level3":2,"pitch":59,"articulation":"hits","articulation_tags":["hits","short"],"duration":0.0625,"velocity":91.38617443869711},
{"position":372.7395833333333,"instrument":"TheGrandeurPiano","level2":20,"level3":null,"pitch":57,"articulation":"standard","articulation_tags":["standard","long"],"duration":0.2638888888888889,"velocity":93.14000634308098},
{"position":372.7395833333333,"instrument":"Vibraphone","level2":19,"level3":5,"pitch":61,"articulation":"hits","articulation_tags":["hits","short"],"duration":0.0625,"velocity":91.38617443869711},
{"position":372.7395833333333,"instrument":"TheGrandeurPiano","level2":19,"level3":null,"pitch":64,"articulation":"standard","articulation_tags":["standard","long"],"duration":0.034722222222222224,"velocity":103.80667300974764},
{"position":372.75,"instrument":"Vibraphone","level2":19,"level3":0,"pitch":60,"articulation":"hits","articulation_tags":["hits","short"],"duration":0.0625,"velocity":91.0216757238477},
{"position":372.75,"instrument":"Vibraphone","level2":19,"level3":5,"pitch":61,"articulation":"hits","articulation_tags":["hits","short"],"duration":0.0625,"velocity":91.0216757238477},
{"position":372.7604166666667,"instrument":"Marimba","level2":19,"level3":2,"pitch":60,"articulation":"hits","articulation_tags":["hits","short"],"duration":0.0625,"velocity":91.0216757238477},
{"position":372.7708333333333,"instrument":"Vibraphone","level2":19,"level3":1,"pitch":62,"articulation":"hits","articulation_tags":["hits","short"],"duration":0.0625,"velocity":91.0216757238477},
{"position":372.7708333333333,"instrument":"Marimba","level2":19,"level3":0,"pitch":60,"articulation":"hits","articulation_tags":["hits","short"],"duration":0.0625,"velocity":91.0216757238477},
{"position":372.7708333333333,"instrument":"Marimba","level2":19,"level3":5,"pitch":60,"articulation":"hits","articulation_tags":["hits","short"],"duration":0.0625,"velocity":91.0216757238477},
{"position":372.7916666666667,"instrument":"TheGrandeurPiano","level2":19,"level3":null,"pitch":64,"articulation":"standard","articulation_tags":["standard","long"],"duration":0.027777777777777776,"velocity":103.80667300974764},
{"position":372.8229166666667,"instrument":"Cello","level2":15,"level3":3,"pitch":39,"articulation":"collegno","articulation_tags":["collegno","cl","short"],"duration":0.125,"velocity":101.89919544757043},
{"position":372.8333333333333,"instrument":"TheGrandeurPiano","level2":19,"level3":null,"pitch":65,"articulation":"standard","articulation_tags":["standard","long"],"duration":0.027777777777777776,"velocity":103.9125034431781},
{"position":372.8541666666667,"instrument":"Marimba","level2":19,"level3":1,"pitch":62,"articulation":"hits","articulation_tags":["hits","short"],"duration":0.0625,"velocity":90.3387486154887},
{"position":372.8541666666667,"instrument":"TheGrandeurPiano","level2":19,"level3":null,"pitch":65,"articulation":"standard","articulation_tags":["standard","long"],"duration":0.0625,"velocity":104.22622893337419},
{"position":372.8645833333333,"instrument":"TheGrandeurPiano","level2":19,"level3":null,"pitch":65,"articulation":"standard","articulation_tags":["standard","long"],"duration":0.020833333333333332,"velocity":104.22622893337419},
{"position":372.875,"instrument":"Marimba","level2":19,"level3":2,"pitch":60,"articulation":"hits","articulation_tags":["hits","short"],"duration":0.0625,"velocity":90.5694271534706},
{"position":372.8854166666667,"instrument":"Vibraphone","level2":19,"level3":1,"pitch":61,"articulation":"hits","articulation_tags":["hits","short"],"duration":0.0625,"velocity":90.5694271534706},
{"position":372.8854166666667,"instrument":"Vibraphone","level2":19,"level3":2,"pitch":60,"articulation":"hits","articulation_tags":["hits","short"],"duration":0.0625,"velocity":90.5694271534706},
{"position":372.90625,"instrument":"TheGrandeurPiano","level2":20,"level3":null,"pitch":57,"articulation":"standard","articulation_tags":["standard","long"],"duration":0.2638888888888889,"velocity":92.93211128631535},
{"position":372.90625,"instrument":"TheGrandeurPiano","level2":19,"level3":null,"pitch":66,"articulation":"standard","articulation_tags":["standard","long"],"duration":0.013888888888888888,"velocity":104.22622893337419},
{"position":372.9166666666667,"instrument":"TheGrandeurPiano","level2":18,"level3":null,"pitch":69,"articulation":"standard","articulation_tags":["standard","long"],"duration":0.013888888888888888,"velocity":104.53995442357026},
{"position":372.9270833333333,"instrument":"TheGrandeurPiano","level2":19,"level3":null,"pitch":66,"articulation":"standard","articulation_tags":["standard","long"],"duration":0.013888888888888888,"velocity":104.22622893337419},
{"position":372.9375,"instrument":"Marimba","level2":19,"level3":1,"pitch":61,"articulation":"hits","articulation_tags":["hits","short"],"duration":0.0625,"velocity":90.01038494883745},
{"position":372.9375,"instrument":"Marimba","level2":19,"level3":1,"pitch":61,"articulation":"hits","articulation_tags":["hits","short"],"duration":0.0625,"velocity":90.01038494883745},
{"position":372.9375,"instrument":"Marimba","level2":19,"level3":2,"pitch":61,"articulation":"hits","articulation_tags":["hits","short"],"duration":0.0625,"velocity":90.01038494883745},
{"position":372.9375,"instrument":"TheGrandeurPiano","level2":18,"level3":null,"pitch":68,"articulation":"standard","articulation_tags":["standard","long"],"duration":0.006944444444444444,"velocity":104.53995442357026},
{"position":372.9479166666667,"instrument":"TheGrandeurPiano","level2":19,"level3":null,"pitch":67,"articulation":"standard","articulation_tags":["standard","long"],"duration":0.006944444444444444,"velocity":104.22622893337419},
{"position":372.9479166666667,"instrument":"Marimba","level2":19,"level3":2,"pitch":61,"articulation":"hits","articulation_tags":["hits","short"],"duration":0.0625,"velocity":89.75976101688399},
{"position":372.9479166666667,"instrument":"TheGrandeurPiano","level2":18,"level3":null,"pitch":68,"articulation":"standard","articulation_tags":["standard","long"],"duration":0.0,"velocity":104.53995442357026},
{"position":372.9583333333333,"instrument":"TheGrandeurPiano","level2":19,"level3":null,"pitch":67,"articulation":"standard","articulation_tags":["standard","long"],"duration":0.0,"velocity":104.22622893337419},
{"position":372.9583333333333,"instrument":"TheGrandeurPiano","level2":18,"level3":null,"pitch":68,"articulation":"standard","articulation_tags":["standard","long"],"duration":0.0,"velocity":104.22622893337419},
{"position":372.9583333333333,"instrument":"TheGrandeurPiano","level2":18,"level3":null,"pitch":67,"articulation":"standard","articulation_tags":["standard","long"],"duration":0.0,"velocity":104.22622893337419},
{"position":373.09375,"instrument":"Marimba","level2":18,"level3":1,"pitch":63,"articulation":"hits","articulation_tags":["hits","short"],"duration":0.0625,"velocity":89.52962988764132},
{"position":373.1145833333333,"instrument":"Marimba","level2":18,"level3":2,"pitch":63,"articulation":"hits","articulation_tags":["hits","short"],"duration":0.0625,"velocity":89.52962988764132},
{"position":373.1354166666667,"instrument":"TheGrandeurPiano","level2":20,"level3":null,"pitch":57,"articulation":"standard","articulation_tags":["standard","long"],"duration":0.2708333333333333,"velocity":93.24837317646026},
{"position":373.2083333333333,"instrument":"Contrabass","level2":12,"level3":9,"pitch":33,"articulation":"spiccato","articulation_tags":["spiccato","sp","short"],"duration":0.125,"velocity":127.5},
{"position":373.2083333333333,"instrument":"Contrabass","level2":12,"level3":10,"pitch":33,"articulation":"spiccato","articulation_tags":["spiccato","sp","short"],"duration":0.125,"velocity":127.5},
{"position":373.3020833333333,"instrument":"TheGrandeurPiano","level2":20,"level3":null,"pitch":57,"articulation":"standard","articulation_tags":["standard","long"],"duration":0.2986111111111111,"velocity":89.57267007193502},
{"position":373.53125,"instrument":"TheGrandeurPiano","level2":20,"level3":null,"pitch":58,"articulation":"standard","articulation_tags":["standard","long"],"duration":0.2708333333333333,"velocity":90.12966968203821},
{"position":373.6875,"instrument":"Contrabass","level2":15,"level3":2,"pitch":35,"articulation":"pizzicato_bartok","articulation_tags":["pizzicato_bartok","pzb","short","pizzicato","bartok"],"duration":0.125,"velocity":101.89919544757043},
{"position":373.75,"instrument":"TheGrandeurPiano","level2":20,"level3":null,"pitch":58,"articulation":"standard","articulation_tags":["standard","long"],"duration":0.3472222222222222,"velocity":90.5858402161013},
{"position":373.7916666666667,"instrument":"TheGrandeurPiano","level2":12,"level3":null,"pitch":35,"articulation":"standard","articulation_tags":["standard","long"],"duration":1.5416666666666667,"velocity":95.91917354943463},
{"position":373.9479166666667,"instrument":"TheGrandeurPiano","level2":20,"level3":null,"pitch":58,"articulation":"standard","articulation_tags":["standard","long"],"duration":0.2777777777777778,"velocity":91.55945925175189},
{"position":374.03125,"instrument":"TheGrandeurPiano","level2":15,"level3":null,"pitch":54,"articulation":"standard","articulation_tags":["standard","long"],"duration":1.8503937007874016,"velocity":104.42220434979109},
{"position":374.2708333333333,"instrument":"TheGrandeurPiano","level2":20,"level3":null,"pitch":58,"articulation":"standard","articulation_tags":["standard","long"],"duration":0.3958333333333333,"velocity":92.41221147681028},
{"position":374.28125,"instrument":"Contrabass","level2":12,"level3":10,"pitch":33,"articulation":"spiccato","articulation_tags":["spiccato","sp","short"],"duration":0.125,"velocity":127.5},
{"position":374.3229166666667,"instrument":"Contrabass","level2":12,"level3":9,"pitch":33,"articulation":"spiccato","articulation_tags":["spiccato","sp","short"],"duration":0.125,"velocity":127.5},
{"position":374.3645833333333,"instrument":"TheGrandeurPiano","level2":20,"level3":null,"pitch":59,"articulation":"standard","articulation_tags":["standard","long"],"duration":0.2847222222222222,"velocity":89.28013990866455},
{"position":374.78125,"instrument":"TheGrandeurPiano","level2":20,"level3":null,"pitch":59,"articulation":"standard","articulation_tags":["standard","long"],"duration":0.2847222222222222,"velocity":92.30719670587203},
{"position":374.8645833333333,"instrument":"TheGrandeurPiano","level2":20,"level3":null,"pitch":59,"articulation":"standard","articulation_tags":["standard","long"],"duration":0.4583333333333333,"velocity":91.99347121567595},
{"position":374.9479166666667,"instrument":"Cello","level2":15,"level3":4,"pitch":37,"articulation":"pizzicato","articulation_tags":["pizzicato","pz","short"],"duration":0.125,"velocity":101.48708308174153},
{"position":375.03125,"instrument":"Marimba","level2":20,"level3":0,"pitch":62,"articulation":"hits","articulation_tags":["hits","short"],"duration":0.0625,"velocity":92.062170793023},
{"position":375.21875,"instrument":"TheGrandeurPiano","level2":20,"level3":null,"pitch":60,"articulation":"standard","articulation_tags":["standard","long"],"duration":0.2916666666666667,"velocity":90.93200827135972},
{"position":375.5520833333333,"instrument":"TheGrandeurPiano","level2":20,"level3":null,"pitch":60,"articulation":"standard","articulation_tags":["standard","long"],"duration":0.5416666666666666,"velocity":89.97119256153378},
{"position":375.5625,"instrument":"Marimba","level2":20,"level3":1,"pitch":64,"articulation":"hits","articulation_tags":["hits","short"],"duration":0.0625,"velocity":91.89284300535789},
{"position":375.65625,"instrument":"TheGrandeurPiano","level2":20,"level3":null,"pitch":60,"articulation":"standard","articulation_tags":["standard","long"],"duration":0.2986111111111111,"velocity":92.20282116402817},
{"position":376.1041666666667,"instrument":"TheGrandeurPiano","level2":20,"level3":null,"pitch":61,"articulation":"standard","articulation_tags":["standard","long"],"duration":0.3055555555555556,"velocity":92.20282116402817},
{"position":376.1145833333333,"instrument":"TheGrandeurPiano","level2":12,"level3":null,"pitch":35,"articulation":"standard","articulation_tags":["standard","long"],"duration":1.4861111111111112,"velocity":98.47733096794974},
{"position":376.1770833333333,"instrument":"Marimba","level2":20,"level3":2,"pitch":62,"articulation":"hits","articulation_tags":["hits","short"],"duration":0.0625,"velocity":90.88723632796379},
{"position":376.1770833333333,"instrument":"Marimba","level2":20,"level3":2,"pitch":62,"articulation":"hits","articulation_tags":["hits","short"],"duration":0.0625,"velocity":90.88723632796379},
{"position":376.1770833333333,"instrument":"Marimba","level2":20,"level3":3,"pitch":63,"articulation":"hits","articulation_tags":["hits","short"],"duration":0.0625,"velocity":90.88723632796379},
{"position":376.1979166666667,"instrument":"Cello","level2":20,"level3":2,"pitch":62,"articulation":"pizzicato","articulation_tags":["pizzicato","pz","short"],"duration":0.125,"velocity":90.88723632796379},
{"position":376.2083333333333,"instrument":"Cello","level2":15,"level3":15,"pitch":36,"articulation":"pizzicato","articulation_tags":["pizzicato","pz","short"],"duration":0.125,"velocity":101.48708308174153},
{"position":376.375,"instrument":"TheGrandeurPiano","level2":20,"level3":null,"pitch":61,"articulation":"standard","articulation_tags":["standard","long"],"duration":0.6597222222222222,"velocity":89.6574670713377},
{"position":376.5520833333333,"instrument":"TheGrandeurPiano","level2":20,"level3":null,"pitch":61,"articulation":"standard","articulation_tags":["standard","long"],"duration":0.3055555555555556,"velocity":90.30455729096757},
{"position":376.59375,"instrument":"Contrabass","level2":12,"level3":7,"pitch":31,"articulation":"short_hrm","articulation_tags":["short_hrm","hrm_s","short","harmonics"],"duration":0.125,"velocity":127.5},
{"position":376.6666666666667,"instrument":"Cello","level2":15,"level3":7,"pitch":38,"articulation":"pizzicato","articulation_tags":["pizzicato","pz","short"],"duration":0.125,"velocity":101.48708308174153},
{"position":376.96875,"instrument":"Cello","level2":15,"level3":15,"pitch":37,"articulation":"pizzicato","articulation_tags":["pizzicato","pz","short"],"duration":0.125,"velocity":101.48708308174153},
{"position":377.0104166666667,"instrument":"TheGrandeurPiano","level2":20,"level3":null,"pitch":62,"articulation":"standard","articulation_tags":["standard","long"],"duration":0.3125,"velocity":91.3660202352838},
{"position":377.1145833333333,"instrument":"Cello","level2":15,"level3":0,"pitch":36,"articulation":"pizzicato","articulation_tags":["pizzicato","pz","short"],"duration":0.125,"velocity":101.48708308174153},
{"position":377.1979166666667,"instrument":"TheGrandeurPiano","level2":15,"level3":null,"pitch":54,"articulation":"standard","articulation_tags":["standard","long"],"duration":1.8503937007874016,"velocity":103.56978503737733},
{"position":377.2395833333333,"instrument":"Cello","level2":15,"level3":9,"pitch":37,"articulation":"collegno","articulation_tags":["collegno","cl","short"],"duration":0.125,"velocity":101.08443236524624},
{"position":377.3541666666667,"instrument":"TheGrandeurPiano","level2":20,"level3":null,"pitch":62,"articulation":"standard","articulation_tags":["standard","long"],"duration":0.8333333333333334,"velocity":89.4521379785538},
{"position":377.3854166666667,"instrument":"Marimba","level2":20,"level3":3,"pitch":63,"articulation":"hits","articulation_tags":["hits","short"],"duration":0.0625,"velocity":90.75174930484596},
{"position":377.4791666666667,"instrument":"Cello","level2":15,"level3":8,"pitch":36,"articulation":"pizzicato","articulation_tags":["pizzicato","pz","short"],"duration":0.125,"velocity":101.08443236524624},
{"position":377.4791666666667,"instrument":"Marimba","level2":20,"level3":2,"pitch":62,"articulation":"hits","articulation_tags":["hits","short"],"duration":0.0625,"velocity":90.75174930484596},
{"position":377.4791666666667,"instrument":"TheGrandeurPiano","level2":20,"level3":null,"pitch":62,"articulation":"standard","articulation_tags":["standard","long"],"duration":0.3194444444444444,"velocity":91.15730951602596},
{"position":377.7395833333333,"instrument":"Cello","level2":15,"level3":9,"pitch":37,"articulation":"pizzicato","articulation_tags":["pizzicato","pz","short"],"duration":0.125,"velocity":101.08443236524624},
{"position":377.9583333333333,"instrument":"TheGrandeurPiano","level2":20,"level3":null,"pitch":63,"articulation":"standard","articulation_tags":["standard","long"],"duration":0.3263888888888889,"velocity":89.99083180077149},
{"position":377.9895833333333,"instrument":"Marimba","level2":20,"level3":1,"pitch":64,"articulation":"hits","articulation_tags":["hits","short"],"duration":0.0625,"velocity":89.86764118960298},
{"position":378.34375,"instrument":"TheGrandeurPiano","level2":12,"level3":null,"pitch":24,"articulation":"standard","articulation_tags":["standard","long"],"duration":1.3779527559055118,"velocity":95.14927752517546},
{"position":378.4479166666667,"instrument":"TheGrandeurPiano","level2":20,"level3":null,"pitch":63,"articulation":"standard","articulation_tags":["standard","long"],"duration":0.3263888888888889,"velocity":88.24731674086173},
{"position":378.5520833333333,"instrument":"Cello","level2":15,"level3":4,"pitch":37,"articulation":"pizzicato","articulation_tags":["pizzicato","pz","short"],"duration":0.125,"velocity":101.08443236524624},
{"position":378.6041666666667,"instrument":"TheGrandeurPiano","level2":20,"level3":null,"pitch":63,"articulation":"standard","articulation_tags":["standard","long"],"duration":1.1597222222222223,"velocity":90.73856925489164},
{"position":378.9375,"instrument":"TheGrandeurPiano","level2":20,"level3":null,"pitch":64,"articulation":"standard","articulation_tags":["standard","long"],"duration":0.3333333333333333,"velocity":90.42230736474673},
{"position":379.4375,"instrument":"TheGrandeurPiano","level2":20,"level3":null,"pitch":64,"articulation":"standard","articulation_tags":["standard","long"],"duration":0.3402777777777778,"velocity":87.03946973933905},
{"position":379.4791666666667,"instrument":"Marimba","level2":15,"level3":4,"pitch":37,"articulation":"hits","articulation_tags":["hits","short"],"duration":0.0625,"velocity":101.08443236524624},
{"position":379.78125,"instrument":"Cello","level2":15,"level3":7,"pitch":38,"articulation":"pizzicato","articulation_tags":["pizzicato","pz","short"],"duration":0.125,"velocity":101.08443236524624},
{"position":379.9479166666667,"instrument":"TheGrandeurPiano","level2":20,"level3":null,"pitch":65,"articulation":"standard","articulation_tags":["standard","long"],"duration":0.3472222222222222,"velocity":87.93359125066566},
{"position":380.2083333333333,"instrument":"Cello","level2":15,"level3":15,"pitch":37,"articulation":"pizzicato","articulation_tags":["pizzicato","pz","short"],"duration":0.125,"velocity":101.08443236524624},
{"position":380.3229166666667,"instrument":"Cello","level2":15,"level3":9,"pitch":37,"articulation":"pizzicato","articulation_tags":["pizzicato","pz","short"],"duration":0.125,"velocity":101.08443236524624},
{"position":380.34375,"instrument":"TheGrandeurPiano","level2":15,"level3":null,"pitch":54,"articulation":"standard","articulation_tags":["standard","long"],"duration":1.8503937007874016,"velocity":102.82113433374835},
{"position":380.34375,"instrument":"TheGrandeurPiano","level2":20,"level3":null,"pitch":65,"articulation":"standard","articulation_tags":["standard","long"],"duration":2.0236220472440944,"velocity":88.38976178472875},
{"position":380.46875,"instrument":"TheGrandeurPiano","level2":20,"level3":null,"pitch":65,"articulation":"standard","articulation_tags":["standard","long"],"duration":0.3541666666666667,"velocity":86.15886300715464},
{"position":380.4895833333333,"instrument":"Marimba","level2":15,"level3":7,"pitch":38,"articulation":"hits","articulation_tags":["hits","short"],"duration":0.0625,"velocity":100.69164164751095},
{"position":380.5,"instrument":"TheGrandeurPiano","level2":12,"level3":null,"pitch":24,"articulation":"standard","articulation_tags":["standard","long"],"duration":1.3779527559055118,"velocity":93.68827477186052},
{"position":380.5416666666667,"instrument":"Marimba","level2":15,"level3":1,"pitch":40,"articulation":"hits","articulation_tags":["hits","short"],"duration":0.0625,"velocity":100.69164164751095},
{"position":380.6875,"instrument":"Marimba","level2":15,"level3":5,"pitch":39,"articulation":"hits","articulation_tags":["hits","short"],"duration":0.0625,"velocity":100.69164164751095},
{"position":381.0,"instrument":"TheGrandeurPiano","level2":20,"level3":null,"pitch":66,"articulation":"standard","articulation_tags":["standard","long"],"duration":0.3611111111111111,"velocity":84.30037032811921},
{"position":381.0520833333333,"instrument":"TheGrandeurPiano","level2":15,"level3":null,"pitch":54,"articulation":"standard","articulation_tags":["standard","long"],"duration":1.8503937007874016,"velocity":98.73174287713883},
{"position":381.3125,"instrument":"TubularBells","level2":20,"level3":3,"pitch":64,"articulation":"hits_dumped","articulation_tags":["hits_dumped","short","hits","dumped"],"duration":0.0625,"velocity":88.62581356659872},
{"position":381.40625,"instrument":"Marimba","level2":20,"level3":2,"pitch":61,"articulation":"hits","articulation_tags":["hits","short"],"duration":0.0625,"velocity":88.62581356659872},
{"position":381.4270833333333,"instrument":"Marimba","level2":20,"level3":0,"pitch":61,"articulation":"hits","articulation_tags":["hits","short"],"duration":0.0625,"velocity":88.62581356659872},
{"position":381.4583333333333,"instrument":"Contrabass","level2":12,"level3":6,"pitch":33,"articulation":"short_marcato","articulation_tags":["short_marcato","marcato_s","short","marcato"],"duration":0.125,"velocity":127.5},
{"position":381.5416666666667,"instrument":"TheGrandeurPiano","level2":20,"level3":null,"pitch":66,"articulation":"standard","articulation_tags":["standard","long"],"duration":0.3680555555555556,"velocity":84.65421946812475},
{"position":381.6979166666667,"instrument":"Marimba","level2":15,"level3":4,"pitch":38,"articulation":"hits","articulation_tags":["hits","short"],"duration":0.0625,"velocity":101.23702749637921},
{"position":381.7395833333333,"instrument":"Marimba","level2":15,"level3":4,"pitch":38,"articulation":"hits","articulation_tags":["hits","short"],"duration":0.0625,"velocity":101.23702749637921},
{"position":381.9583333333333,"instrument":"Marimba","level2":15,"level3":3,"pitch":39,"articulation":"hits","articulation_tags":["hits","short"],"duration":0.0625,"velocity":101.23702749637921},
{"position":382.0729166666667,"instrument":"TubularBells","level2":20,"level3":1,"pitch":65,"articulation":"hits_dumped","articulation_tags":["hits_dumped","short","hits","dumped"],"duration":0.0625,"velocity":88.31385278526909},
{"position":382.0833333333333,"instrument":"TheGrandeurPiano","level2":20,"level3":null,"pitch":67,"articulation":"standard","articulation_tags":["standard","long"],"duration":0.375,"velocity":83.94392243607736},
{"position":382.5729166666667,"instrument":"TheGrandeurPiano","level2":12,"level3":null,"pitch":25,"articulation":"standard","articulation_tags":["standard","long"],"duration":1.3402777777777777,"velocity":93.68827477186052},
{"position":382.6458333333333,"instrument":"TheGrandeurPiano","level2":20,"level3":null,"pitch":67,"articulation":"standard","articulation_tags":["standard","long"],"duration":0.3819444444444444,"velocity":83.94392243607736},
{"position":383.2083333333333,"instrument":"TheGrandeurPiano","level2":20,"level3":null,"pitch":68,"articulation":"standard","articulation_tags":["standard","long"],"duration":0.3888888888888889,"velocity":84.65421946812475},
{"position":383.4479166666667,"instrument":"TheGrandeurPiano","level2":15,"level3":null,"pitch":54,"articulation":"standard","articulation_tags":["standard","long"],"duration":1.8503937007874016,"velocity":96.97604106757652},
{"position":383.7916666666667,"instrument":"TheGrandeurPiano","level2":20,"level3":null,"pitch":68,"articulation":"standard","articulation_tags":["standard","long"],"duration":0.3958333333333333,"velocity":81.24468969590325},
{"position":383.8645833333333,"instrument":"TheGrandeurPiano","level2":20,"level3":null,"pitch":68,"articulation":"standard","articulation_tags":["standard","long"],"duration":2.0708661417322833,"velocity":82.66651526328887},
{"position":383.9375,"instrument":"Contrabass","level2":12,"level3":9,"pitch":32,"articulation":"spiccato","articulation_tags":["spiccato","sp","short"],"duration":0.125,"velocity":127.5},
{"position":384.0416666666667,"instrument":"ContrabassTrombone","level2":15,"level3":2,"pitch":35,"articulation":"marcato","articulation_tags":["marcato","short"],"duration":0.25,"velocity":100.86173640525081},
{"position":384.3854166666667,"instrument":"TheGrandeurPiano","level2":20,"level3":null,"pitch":69,"articulation":"standard","articulation_tags":["standard","long"],"duration":0.4027777777777778,"velocity":81.55830396209575},
{"position":384.5833333333333,"instrument":"TheGrandeurPiano","level2":12,"level3":null,"pitch":25,"articulation":"standard","articulation_tags":["standard","long"],"duration":1.2916666666666667,"velocity":88.52072910579957},
{"position":384.78125,"instrument":"Cello","level2":15,"level3":0,"pitch":36,"articulation":"pizzicato","articulation_tags":["pizzicato","pz","short"],"duration":0.125,"velocity":100.86173640525081},
{"position":384.9895833333333,"instrument":"TheGrandeurPiano","level2":20,"level3":null,"pitch":69,"articulation":"standard","articulation_tags":["standard","long"],"duration":0.4097222222222222,"velocity":79.64958002468265},
{"position":385.6041666666667,"instrument":"TheGrandeurPiano","level2":20,"level3":null,"pitch":70,"articulation":"standard","articulation_tags":["standard","long"],"duration":0.4236111111111111,"velocity":79.64958002468265},
{"position":385.9166666666667,"instrument":"Cello","level2":15,"level3":8,"pitch":36,"articulation":"pizzicato","articulation_tags":["pizzicato","pz","short"],"duration":0.125,"velocity":100.86173640525081},
{"position":386.2395833333333,"instrument":"Cello","level2":15,"level3":0,"pitch":36,"articulation":"pizzicato","articulation_tags":["pizzicato","pz","short"],"duration":0.125,"velocity":100.86173640525081},
{"position":386.2395833333333,"instrument":"TheGrandeurPiano","level2":20,"level3":null,"pitch":70,"articulation":"standard","articulation_tags":["standard","long"],"duration":0.4305555555555556,"velocity":77.38145366075565},
{"position":386.5,"instrument":"TheGrandeurPiano","level2":15,"level3":null,"pitch":54,"articulation":"standard","articulation_tags":["standard","long"],"duration":1.8503937007874016,"velocity":92.4475674014015},
{"position":386.5208333333333,"instrument":"TheGrandeurPiano","level2":12,"level3":null,"pitch":26,"articulation":"standard","articulation_tags":["standard","long"],"duration":1.2430555555555556,"velocity":86.17305759747994},
{"position":386.8854166666667,"instrument":"TheGrandeurPiano","level2":20,"level3":null,"pitch":71,"articulation":"standard","articulation_tags":["standard","long"],"duration":0.4375,"velocity":76.41103026743822},
{"position":387.3958333333333,"instrument":"TheGrandeurPiano","level2":20,"level3":null,"pitch":71,"articulation":"standard","articulation_tags":["standard","long"],"duration":2.1181102362204722,"velocity":77.14343835746487},
{"position":387.5416666666667,"instrument":"TheGrandeurPiano","level2":20,"level3":null,"pitch":71,"articulation":"standard","articulation_tags":["standard","long"],"duration":0.4513888888888889,"velocity":77.14343835746487},
{"position":387.8125,"instrument":"Contrabass","level2":12,"level3":8,"pitch":33,"articulation":"staccato","articulation_tags":["staccato","st","short"],"duration":0.125,"velocity":127.5},
{"position":388.0104166666667,"instrument":"Cello","level2":15,"level3":5,"pitch":39,"articulation":"pizzicato","articulation_tags":["pizzicato","pz","short"],"duration":0.125,"velocity":100.49711980025124},
{"position":388.2291666666667,"instrument":"TheGrandeurPiano","level2":20,"level3":null,"pitch":72,"articulation":"standard","articulation_tags":["standard","long"],"duration":0.4652777777777778,"velocity":76.58424059264928},
{"position":388.3958333333333,"instrument":"TheGrandeurPiano","level2":12,"level3":null,"pitch":26,"articulation":"standard","articulation_tags":["standard","long"],"duration":1.2083333333333333,"velocity":84.11365235735516},
{"position":388.4895833333333,"instrument":"Trumpet","level2":20,"level3":2,"pitch":61,"articulation":"staccato","articulation_tags":["staccato","st","short"],"duration":0.25,"velocity":86.50840949146928},
{"position":388.6354166666667,"instrument":"Cello","level2":15,"level3":5,"pitch":39,"articulation":"pizzicato","articulation_tags":["pizzicato","pz","short"],"duration":0.125,"velocity":100.49711980025124},
{"position":388.6979166666667,"instrument":"CorAnglais","level2":20,"level3":3,"pitch":64,"articulation":"staccato","articulation_tags":["staccato","st","short"],"duration":0.125,"velocity":86.50840949146928},
{"position":388.9166666666667,"instrument":"TheGrandeurPiano","level2":20,"level3":null,"pitch":72,"articulation":"standard","articulation_tags":["standard","long"],"duration":0.4791666666666667,"velocity":75.2971351978029},
{"position":389.5,"instrument":"TheGrandeurPiano","level2":15,"level3":null,"pitch":53,"articulation":"standard","articulation_tags":["standard","long"],"duration":1.8346456692913387,"velocity":89.24613038906227},
{"position":389.5104166666667,"instrument":"TheGrandeurPiano","level2":15,"level3":null,"pitch":53,"articulation":"standard","articulation_tags":["standard","long"],"duration":1.8346456692913387,"velocity":88.9324048988662},
{"position":389.5208333333333,"instrument":"Cello","level2":15,"level3":3,"pitch":39,"articulation":"collegno","articulation_tags":["collegno","cl","short"],"duration":0.125,"velocity":100.71489571723188},
{"position":389.6354166666667,"instrument":"TheGrandeurPiano","level2":20,"level3":null,"pitch":73,"articulation":"standard","articulation_tags":["standard","long"],"duration":0.4930555555555556,"velocity":75.44220882043481},
{"position":390.0416666666667,"instrument":"Cello","level2":15,"level3":1,"pitch":40,"articulation":"collegno","articulation_tags":["collegno","cl","short"],"duration":0.125,"velocity":100.71489571723188},
{"position":390.2083333333333,"instrument":"TheGrandeurPiano","level2":12,"level3":null,"pitch":27,"articulation":"standard","articulation_tags":["standard","long"],"duration":1.1597222222222223,"velocity":84.53376155224348},
{"position":390.3645833333333,"instrument":"TheGrandeurPiano","level2":20,"level3":null,"pitch":73,"articulation":"standard","articulation_tags":["standard","long"],"duration":0.5069444444444444,"velocity":77.00434978753759},
{"position":391.0729166666667,"instrument":"Contrabass","level2":12,"level3":10,"pitch":33,"articulation":"spiccato","articulation_tags":["spiccato","sp","short"],"duration":0.125,"velocity":127.5},
{"position":391.125,"instrument":"TheGrandeurPiano","level2":20,"level3":null,"pitch":74,"articulation":"standard","articulation_tags":["standard","long"],"duration":0.5208333333333334,"velocity":76.58424059264928},
{"position":391.1979166666667,"instrument":"Cello","level2":15,"level3":0,"pitch":37,"articulation":"pizzicato","articulation_tags":["pizzicato","pz","short"],"duration":0.125,"velocity":100.71489571723188},
{"position":391.6875,"instrument":"TheGrandeurPiano","level2":20,"level3":null,"pitch":74,"articulation":"standard","articulation_tags":["standard","long"],"duration":1.6805555555555556,"velocity":78.00890464114781},
{"position":391.84375,"instrument":"Contrabass","level2":12,"level3":9,"pitch":32,"articulation":"spiccato","articulation_tags":["spiccato","sp","short"],"duration":0.125,"velocity":127.5},
{"position":391.90625,"instrument":"TheGrandeurPiano","level2":20,"level3":null,"pitch":74,"articulation":"standard","articulation_tags":["standard","long"],"duration":0.5416666666666666,"velocity":78.95737132297015},
{"position":391.9479166666667,"instrument":"TheGrandeurPiano","level2":12,"level3":null,"pitch":27,"articulation":"standard","articulation_tags":["standard","long"],"duration":1.125,"velocity":82.9716205851407},
{"position":392.0104166666667,"instrument":"Contrabass","level2":12,"level3":7,"pitch":31,"articulation":"spiccato","articulation_tags":["spiccato","sp","short"],"duration":0.125,"velocity":127.5},
{"position":392.0729166666667,"instrument":"CorAnglais","level2":20,"level3":0,"pitch":61,"articulation":"tenuto","articulation_tags":["tenuto","t","short"],"duration":0.125,"velocity":86.25194094767448},
{"position":392.4479166666667,"instrument":"CorAnglais","level2":20,"level3":1,"pitch":65,"articulation":"staccato","articulation_tags":["staccato","st","short"],"duration":0.125,"velocity":86.25194094767448},
{"position":392.4583333333333,"instrument":"TheGrandeurPiano","level2":15,"level3":null,"pitch":53,"articulation":"standard","articulation_tags":["standard","long"],"duration":1.8346456692913387,"velocity":91.41622415520507},
{"position":392.71875,"instrument":"TheGrandeurPiano","level2":20,"level3":null,"pitch":75,"articulation":"standard","articulation_tags":["standard","long"],"duration":0.5625,"velocity":78.55347905716584},
{"position":392.8541666666667,"instrument":"Cello","level2":15,"level3":8,"pitch":37,"articulation":"pizzicato","articulation_tags":["pizzicato","pz","short"],"duration":0.125,"velocity":100.37976671500813},
{"position":393.1979166666667,"instrument":"Cello","level2":15,"level3":2,"pitch":36,"articulation":"pizzicato_bartok","articulation_tags":["pizzicato_bartok","pzb","short","pizzicato","bartok"],"duration":0.125,"velocity":100.37976671500813},
{"position":393.5625,"instrument":"TheGrandeurPiano","level2":20,"level3":null,"pitch":75,"articulation":"standard","articulation_tags":["standard","long"],"duration":0.5833333333333334,"velocity":79.22453241207191},
{"position":393.6354166666667,"instrument":"TheGrandeurPiano","level2":12,"level3":null,"pitch":28,"articulation":"standard","articulation_tags":["standard","long"],"duration":1.0833333333333333,"velocity":86.44021868658172},
{"position":393.875,"instrument":"Cello","level2":15,"level3":5,"pitch":39,"articulation":"pizzicato","articulation_tags":["pizzicato","pz","short"],"duration":0.125,"velocity":100.37976671500813},
{"position":394.2083333333333,"instrument":"TheGrandeurPiano","level2":20,"level3":null,"pitch":75,"articulation":"standard","articulation_tags":["standard","long"],"duration":1.3541666666666667,"velocity":77.77088933785703},
{"position":394.4375,"instrument":"TheGrandeurPiano","level2":20,"level3":null,"pitch":76,"articulation":"standard","articulation_tags":["standard","long"],"duration":0.6111111111111112,"velocity":80.59075649527088},
{"position":394.6770833333333,"instrument":"TheGrandeurPiano","level2":15,"level3":null,"pitch":53,"articulation":"standard","articulation_tags":["standard","long"],"duration":1.8346456692913387,"velocity":91.41622415520507},
{"position":395.2604166666667,"instrument":"TheGrandeurPiano","level2":12,"level3":null,"pitch":28,"articulation":"standard","articulation_tags":["standard","long"],"duration":1.0486111111111112,"velocity":86.17305759747994},
{"position":395.34375,"instrument":"TheGrandeurPiano","level2":15,"level3":null,"pitch":53,"articulation":"standard","articulation_tags":["standard","long"],"duration":1.8346456692913387,"velocity":91.50639093081327},
{"position":395.3541666666667,"instrument":"TheGrandeurPiano","level2":20,"level3":null,"pitch":76,"articulation":"standard","articulation_tags":["standard","long"],"duration":0.6388888888888888,"velocity":79.27109681316622},
{"position":395.6145833333333,"instrument":"Marimba","level2":15,"level3":3,"pitch":39,"articulation":"hits","articulation_tags":["hits","short"],"duration":0.0625,"velocity":100.64507687517262},
{"position":396.2395833333333,"instrument":"TheGrandeurPiano","level2":20,"level3":null,"pitch":76,"articulation":"standard","articulation_tags":["standard","long"],"duration":1.1805555555555556,"velocity":80.90448198546697},
{"position":396.2916666666667,"instrument":"Contrabass","level2":12,"level3":6,"pitch":33,"articulation":"short_marcato","articulation_tags":["short_marcato","marcato_s","short","marcato"],"duration":0.125,"velocity":127.5},
{"position":396.3125,"instrument":"Cello","level2":15,"level3":0,"pitch":37,"articulation":"pizzicato","articulation_tags":["pizzicato","pz","short"],"duration":0.125,"velocity":100.64507687517262},
{"position":396.3125,"instrument":"TheGrandeurPiano","level2":20,"level3":null,"pitch":77,"articulation":"standard","articulation_tags":["standard","long"],"duration":0.6805555555555556,"velocity":80.90448198546697},
{"position":396.8229166666667,"instrument":"TheGrandeurPiano","level2":12,"level3":null,"pitch":29,"articulation":"standard","articulation_tags":["standard","long"],"duration":1.0069444444444444,"velocity":87.49271727958461},
{"position":397.3229166666667,"instrument":"TheGrandeurPiano","level2":20,"level3":null,"pitch":77,"articulation":"standard","articulation_tags":["standard","long"],"duration":0.7222222222222222,"velocity":81.29276411134244},
{"position":398.0104166666667,"instrument":"TheGrandeurPiano","level2":20,"level3":null,"pitch":77,"articulation":"standard","articulation_tags":["standard","long"],"duration":1.0625,"velocity":84.23514271426926},
{"position":398.15625,"instrument":"TheGrandeurPiano","level2":15,"level3":null,"pitch":53,"articulation":"standard","articulation_tags":["standard","long"],"duration":1.8194444444444444,"velocity":95.52926036132808},
{"position":398.2291666666667,"instrument":"Marimba","level2":15,"level3":1,"pitch":40,"articulation":"hits","articulation_tags":["hits","short"],"duration":0.0625,"velocity":100.34054103390443},
{"position":398.25,"instrument":"Marimba","level2":15,"level3":5,"pitch":39,"articulation":"hits","articulation_tags":["hits","short"],"duration":0.0625,"velocity":100.34054103390443},
{"position":398.3020833333333,"instrument":"TubularBells","level2":20,"level3":4,"pitch":63,"articulation":"hits","articulation_tags":["hits","short"],"duration":0.0625,"velocity":86.0070796886943},
{"position":398.3020833333333,"instrument":"TubularBells","level2":20,"level3":5,"pitch":63,"articulation":"hits_dumped","articulation_tags":["hits_dumped","short","hits","dumped"],"duration":0.0625,"velocity":86.0070796886943},
{"position":398.3020833333333,"instrument":"TubularBells","level2":20,"level3":5,"pitch":63,"articulation":"hits_dumped","articulation_tags":["hits_dumped","short","hits","dumped"],"duration":0.0625,"velocity":86.0070796886943},
{"position":398.3020833333333,"instrument":"Marimba","level2":15,"level3":8,"pitch":37,"articulation":"hits","articulation_tags":["hits","short"],"duration":0.0625,"velocity":100.34054103390443},
{"position":398.3333333333333,"instrument":"TheGrandeurPiano","level2":12,"level3":null,"pitch":29,"articulation":"standard","articulation_tags":["standard","long"],"duration":0.9722222222222222,"velocity":91.8297820928251},
{"position":398.40625,"instrument":"TheGrandeurPiano","level2":20,"level3":null,"pitch":78,"articulation":"standard","articulation_tags":["standard","long"],"duration":0.7777777777777778,"velocity":85.55527228890352},
{"position":398.5729166666667,"instrument":"TheGrandeurPiano","level2":15,"level3":null,"pitch":52,"articulation":"standard","articulation_tags":["standard","long"],"duration":1.8188976377952757,"velocity":93.7937093037464},
{"position":398.7083333333333,"instrument":"Marimba","level2":15,"level3":0,"pitch":37,"articulation":"hits","articulation_tags":["hits","short"],"duration":0.0625,"velocity":100.93872170179439},
{"position":399.5833333333333,"instrument":"TheGrandeurPiano","level2":20,"level3":null,"pitch":78,"articulation":"standard","articulation_tags":["standard","long"],"duration":0.8541666666666666,"velocity":85.19882439686167},
{"position":399.6041666666667,"instrument":"TheGrandeurPiano","level2":20,"level3":null,"pitch":78,"articulation":"standard","articulation_tags":["standard","long"],"duration":0.9791666666666666,"velocity":82.93947545806525},
{"position":399.7916666666667,"instrument":"TheGrandeurPiano","level2":12,"level3":null,"pitch":30,"articulation":"standard","articulation_tags":["standard","long"],"duration":0.9305555555555556,"velocity":91.23422991319536},
{"position":399.9166666666667,"instrument":"Marimba","level2":15,"level3":0,"pitch":38,"articulation":"hits","articulation_tags":["hits","short"],"duration":0.0625,"velocity":100.93872170179439},
{"position":400.1145833333333,"instrument":"Marimba","level2":15,"level3":5,"pitch":38,"articulation":"hits","articulation_tags":["hits","short"],"duration":0.0625,"velocity":100.93872170179439},
{"position":400.15625,"instrument":"Vibraphone","level2":20,"level3":2,"pitch":60,"articulation":"hits","articulation_tags":["hits","short"],"duration":0.0625,"velocity":86.25194094767448},
{"position":400.1979166666667,"instrument":"Marimba","level2":15,"level3":3,"pitch":39,"articulation":"hits","articulation_tags":["hits","short"],"duration":0.0625,"velocity":100.93872170179439},
{"position":400.21875,"instrument":"TubularBells","level2":20,"level3":4,"pitch":62,"articulation":"hits","articulation_tags":["hits","short"],"duration":0.0625,"velocity":86.25194094767448},
{"position":400.2916666666667,"instrument":"TubularBells","level2":20,"level3":5,"pitch":64,"articulation":"hits_dumped","articulation_tags":["hits_dumped","short","hits","dumped"],"duration":0.0625,"velocity":86.25194094767448},
{"position":400.46875,"instrument":"Marimba","level2":15,"level3":8,"pitch":37,"articulation":"hits","articulation_tags":["hits","short"],"duration":0.0625,"velocity":100.93872170179439},
{"position":400.8645833333333,"instrument":"TheGrandeurPiano","level2":20,"level3":null,"pitch":79,"articulation":"standard","articulation_tags":["standard","long"],"duration":0.9652777777777778,"velocity":84.42702145973338},
{"position":400.8854166666667,"instrument":"TheGrandeurPiano","level2":15,"level3":null,"pitch":52,"articulation":"standard","articulation_tags":["standard","long"],"duration":1.7569444444444444,"velocity":95.09368812640005},
{"position":400.9375,"instrument":"Marimba","level2":15,"level3":2,"pitch":36,"articulation":"hits","articulation_tags":["hits","short"],"duration":0.0625,"velocity":100.65284292570847},
{"position":400.9375,"instrument":"Marimba","level2":15,"level3":5,"pitch":38,"articulation":"hits","articulation_tags":["hits","short"],"duration":0.0625,"velocity":100.65284292570847},
{"position":401.0729166666667,"instrument":"TheGrandeurPiano","level2":20,"level3":null,"pitch":79,"articulation":"standard","articulation_tags":["standard","long"],"duration":0.9166666666666666,"velocity":84.74074694992947},
{"position":401.1979166666667,"instrument":"TheGrandeurPiano","level2":12,"level3":null,"pitch":30,"articulation":"standard","articulation_tags":["standard","long"],"duration":0.9027777777777778,"velocity":88.77410146060913},
{"position":401.5,"instrument":"Marimba","level2":15,"level3":0,"pitch":38,"articulation":"hits","articulation_tags":["hits","short"],"duration":0.0625,"velocity":100.65284292570847},
{"position":401.5729166666667,"instrument":"Marimba","level2":15,"level3":0,"pitch":38,"articulation":"hits","articulation_tags":["hits","short"],"duration":0.0625,"velocity":100.65284292570847},
{"position":401.71875,"instrument":"TheGrandeurPiano","level2":15,"level3":null,"pitch":52,"articulation":"standard","articulation_tags":["standard","long"],"duration":1.7569444444444444,"velocity":95.21553487113201},
{"position":401.8333333333333,"instrument":"TubularBells","level2":20,"level3":3,"pitch":65,"articulation":"hits_dumped","articulation_tags":["hits_dumped","short","hits","dumped"],"duration":0.0625,"velocity":86.187072940013},
{"position":401.9375,"instrument":"Marimba","level2":15,"level3":3,"pitch":38,"articulation":"hits","articulation_tags":["hits","short"],"duration":0.0625,"velocity":101.25984812753394},
{"position":402.1041666666667,"instrument":"Marimba","level2":15,"level3":8,"pitch":38,"articulation":"hits","articulation_tags":["hits","short"],"duration":0.0625,"velocity":101.25984812753394},
{"position":402.1145833333333,"instrument":"Contrabass","level2":12,"level3":8,"pitch":33,"articulation":"staccato","articulation_tags":["staccato","st","short"],"duration":0.125,"velocity":126.94005499905367},
{"position":402.3020833333333,"instrument":"TheGrandeurPiano","level2":20,"level3":null,"pitch":79,"articulation":"standard","articulation_tags":["standard","long"],"duration":1.1388888888888888,"velocity":82.87367028227017},
{"position":402.4479166666667,"instrument":"TheGrandeurPiano","level2":20,"level3":null,"pitch":79,"articulation":"standard","articulation_tags":["standard","long"],"duration":0.8680555555555556,"velocity":82.54766607212676},
{"position":402.5520833333333,"instrument":"TheGrandeurPiano","level2":12,"level3":null,"pitch":31,"articulation":"standard","articulation_tags":["standard","long"],"duration":0.8611111111111112,"velocity":91.23422991319536},
{"position":403.0625,"instrument":"Marimba","level2":15,"level3":3,"pitch":38,"articulation":"hits","articulation_tags":["hits","short"],"duration":0.0625,"velocity":101.25984812753394},
{"position":403.5208333333333,"instrument":"TheGrandeurPiano","level2":15,"level3":null,"pitch":52,"articulation":"standard","articulation_tags":["standard","long"],"duration":1.6875,"velocity":91.88487414232972},
{"position":403.6666666666667,"instrument":"Cello","level2":15,"level3":8,"pitch":38,"articulation":"pizzicato","articulation_tags":["pizzicato","pz","short"],"duration":0.125,"velocity":100.99248977785994},
{"position":403.7395833333333,"instrument":"TheGrandeurPiano","level2":20,"level3":null,"pitch":79,"articulation":"standard","articulation_tags":["standard","long"],"duration":0.8194444444444444,"velocity":82.86139156232284},
{"position":403.7604166666667,"instrument":"Cello","level2":15,"level3":8,"pitch":38,"articulation":"pizzicato","articulation_tags":["pizzicato","pz","short"],"duration":0.125,"velocity":100.99248977785994},
{"position":403.84375,"instrument":"TheGrandeurPiano","level2":12,"level3":null,"pitch":31,"articulation":"standard","articulation_tags":["standard","long"],"duration":0.8333333333333334,"velocity":87.88099940546009},
{"position":404.0104166666667,"instrument":"TheGrandeurPiano","level2":20,"level3":null,"pitch":80,"articulation":"standard","articulation_tags":["standard","long"],"duration":1.5,"velocity":82.86139156232284},
{"position":404.3333333333333,"instrument":"Contrabass","level2":12,"level3":7,"pitch":31,"articulation":"spiccato","articulation_tags":["spiccato","sp","short"],"duration":0.125,"velocity":125.69014049445552},
{"position":404.34375,"instrument":"TheGrandeurPiano","level2":15,"level3":null,"pitch":51,"articulation":"standard","articulation_tags":["standard","long"],"duration":1.5,"velocity":92.91288596854469},
{"position":404.9791666666667,"instrument":"Contrabass","level2":12,"level3":9,"pitch":32,"articulation":"spiccato","articulation_tags":["spiccato","sp","short"],"duration":0.125,"velocity":125.69014049445552},
{"position":404.9791666666667,"instrument":"TheGrandeurPiano","level2":20,"level3":null,"pitch":80,"articulation":"standard","articulation_tags":["standard","long"],"duration":0.7847222222222222,"velocity":82.65664731061605},
{"position":405.09375,"instrument":"TheGrandeurPiano","level2":12,"level3":null,"pitch":32,"articulation":"standard","articulation_tags":["standard","long"],"duration":0.7986111111111112,"velocity":87.36252966355723},
{"position":405.21875,"instrument":"Cello","level2":15,"level3":1,"pitch":40,"articulation":"pizzicato","articulation_tags":["pizzicato","pz","short"],"duration":0.125,"velocity":101.60756196180105},
{"position":405.46875,"instrument":"TheGrandeurPiano","level2":12,"level3":null,"pitch":32,"articulation":"standard","articulation_tags":["standard","long"],"duration":1.5039370078740157,"velocity":86.08289082187173},
{"position":406.0520833333333,"instrument":"TheGrandeurPiano","level2":15,"level3":null,"pitch":51,"articulation":"standard","articulation_tags":["standard","long"],"duration":1.6041666666666667,"velocity":90.78416703314906},
{"position":406.15625,"instrument":"Contrabass","level2":12,"level3":9,"pitch":32,"articulation":"spiccato","articulation_tags":["spiccato","sp","short"],"duration":0.125,"velocity":125.09253240329448},
{"position":406.15625,"instrument":"TheGrandeurPiano","level2":20,"level3":null,"pitch":80,"articulation":"standard","articulation_tags":["standard","long"],"duration":0.7569444444444444,"velocity":79.72149549461007},
{"position":406.2604166666667,"instrument":"TheGrandeurPiano","level2":20,"level3":null,"pitch":80,"articulation":"standard","articulation_tags":["standard","long"],"duration":2.2598425196850394,"velocity":79.72149549461007},
{"position":406.28125,"instrument":"TheGrandeurPiano","level2":12,"level3":null,"pitch":32,"articulation":"standard","articulation_tags":["standard","long"],"duration":0.7638888888888888,"velocity":84.42737784755124},
{"position":406.40625,"instrument":"Contrabass","level2":12,"level3":10,"pitch":33,"articulation":"spiccato","articulation_tags":["spiccato","sp","short"],"duration":0.125,"velocity":124.4679470940484},
{"position":406.59375,"instrument":"TheGrandeurPiano","level2":15,"level3":null,"pitch":51,"articulation":"standard","articulation_tags":["standard","long"],"duration":1.2916666666666667,"velocity":88.19208372990418},
{"position":406.6875,"instrument":"Bassoon","level2":20,"level3":5,"pitch":64,"articulation":"tenuto","articulation_tags":["tenuto","t","short"],"duration":0.125,"velocity":86.0070796886943},
{"position":406.9583333333333,"instrument":"Bassoon","level2":20,"level3":4,"pitch":62,"articulation":"marcato","articulation_tags":["marcato","short"],"duration":0.125,"velocity":86.0070796886943},
{"position":407.2916666666667,"instrument":"TheGrandeurPiano","level2":20,"level3":null,"pitch":80,"articulation":"standard","articulation_tags":["standard","long"],"duration":0.7291666666666666,"velocity":78.74811558995977},
{"position":407.40625,"instrument":"Cello","level2":15,"level3":2,"pitch":37,"articulation":"pizzicato_bartok","articulation_tags":["pizzicato_bartok","pzb","short","pizzicato","bartok"],"duration":0.125,"velocity":101.98093815010655},
{"position":407.4270833333333,"instrument":"TheGrandeurPiano","level2":12,"level3":null,"pitch":33,"articulation":"standard","articulation_tags":["standard","long"],"duration":0.7291666666666666,"velocity":83.14027245270486},
{"position":407.65625,"instrument":"ContrabassTrombone","level2":12,"level3":6,"pitch":32,"articulation":"legato","articulation_tags":["legato","lg"],"duration":9.145833333333334,"velocity":119.68676400956755},
{"position":408.3854166666667,"instrument":"TheGrandeurPiano","level2":20,"level3":null,"pitch":80,"articulation":"standard","articulation_tags":["standard","long"],"duration":0.7013888888888888,"velocity":78.17996592190205},
{"position":408.4583333333333,"instrument":"TheGrandeurPiano","level2":15,"level3":null,"pitch":51,"articulation":"standard","articulation_tags":["standard","long"],"duration":1.5069444444444444,"velocity":85.70937768660794},
{"position":408.5208333333333,"instrument":"TheGrandeurPiano","level2":12,"level3":null,"pitch":33,"articulation":"standard","articulation_tags":["standard","long"],"duration":0.6944444444444444,"velocity":82.25839729445107},
{"position":408.5416666666667,"instrument":"TheGrandeurPiano","level2":15,"level3":null,"pitch":50,"articulation":"standard","articulation_tags":["standard","long"],"duration":1.1319444444444444,"velocity":85.70937768660794},
{"position":409.4375,"instrument":"TheGrandeurPiano","level2":20,"level3":null,"pitch":80,"articulation":"standard","articulation_tags":["standard","long"],"duration":0.6805555555555556,"velocity":77.13179357655446},
{"position":409.5625,"instrument":"TheGrandeurPiano","level2":12,"level3":null,"pitch":34,"articulation":"standard","articulation_tags":["standard","long"],"duration":0.6666666666666666,"velocity":80.89649945890739},
{"position":409.9791666666667,"instrument":"Bassoon","level2":20,"level3":1,"pitch":66,"articulation":"staccato","articulation_tags":["staccato","st","short"],"duration":0.125,"velocity":85.033053294896},
{"position":410.2395833333333,"instrument":"TheGrandeurPiano","level2":15,"level3":null,"pitch":50,"articulation":"standard","articulation_tags":["standard","long"],"duration":0.9861111111111112,"velocity":81.62893011482285},
{"position":410.46875,"instrument":"TheGrandeurPiano","level2":20,"level3":null,"pitch":80,"articulation":"standard","articulation_tags":["standard","long"],"duration":0.6666666666666666,"velocity":75.54822649995958},
{"position":410.5520833333333,"instrument":"TheGrandeurPiano","level2":12,"level3":null,"pitch":34,"articulation":"standard","articulation_tags":["standard","long"],"duration":0.625,"velocity":78.99920689211645},
{"position":410.65625,"instrument":"Bassoon","level2":15,"level3":2,"pitch":37,"articulation":"tenuto","articulation_tags":["tenuto","t","short"],"duration":0.125,"velocity":103.00965376474626},
{"position":410.71875,"instrument":"TheGrandeurPiano","level2":15,"level3":null,"pitch":50,"articulation":"standard","articulation_tags":["standard","long"],"duration":1.3958333333333333,"velocity":83.25519980806959},
{"position":411.0729166666667,"instrument":"Bassoon","level2":15,"level3":1,"pitch":40,"articulation":"tenuto","articulation_tags":["tenuto","t","short"],"duration":0.125,"velocity":102.80088065180992},
{"position":411.4583333333333,"instrument":"TheGrandeurPiano","level2":20,"level3":null,"pitch":80,"articulation":"standard","articulation_tags":["standard","long"],"duration":0.6458333333333334,"velocity":72.45063188785892},
{"position":411.5,"instrument":"TheGrandeurPiano","level2":12,"level3":null,"pitch":35,"articulation":"standard","articulation_tags":["standard","long"],"duration":0.5972222222222222,"velocity":77.50662161148443},
{"position":411.71875,"instrument":"TheGrandeurPiano","level2":15,"level3":null,"pitch":49,"articulation":"standard","articulation_tags":["standard","long"],"duration":0.8680555555555556,"velocity":80.64387651344522},
{"position":412.2395833333333,"instrument":"Contrabass","level2":12,"level3":8,"pitch":32,"articulation":"staccato","articulation_tags":["staccato","st","short"],"duration":0.125,"velocity":121.3453401966143},
{"position":412.25,"instrument":"TenorTrombone","level2":20,"level3":0,"pitch":60,"articulation":"staccato","articulation_tags":["staccato","st","short"],"duration":0.25,"velocity":84.52572350218784},
{"position":412.3958333333333,"instrument":"TheGrandeurPiano","level2":12,"level3":null,"pitch":35,"articulation":"standard","articulation_tags":["standard","long"],"duration":0.5625,"velocity":74.86097265636313},
{"position":412.4270833333333,"instrument":"TheGrandeurPiano","level2":20,"level3":null,"pitch":80,"articulation":"standard","articulation_tags":["standard","long"],"duration":0.6319444444444444,"velocity":74.68309219971974},
{"position":412.8125,"instrument":"TheGrandeurPiano","level2":15,"level3":null,"pitch":49,"articulation":"standard","articulation_tags":["standard","long"],"duration":1.2638888888888888,"velocity":78.4114162015844},
{"position":412.8541666666667,"instrument":"Cello","level2":15,"level3":2,"pitch":37,"articulation":"pizzicato","articulation_tags":["pizzicato","pz","short"],"duration":0.125,"velocity":103.24552637506585},
{"position":412.9583333333333,"instrument":"Contrabass","level2":12,"level3":9,"pitch":32,"articulation":"spiccato","articulation_tags":["spiccato","sp","short"],"duration":0.125,"velocity":120.72088885959664},
{"position":413.0208333333333,"instrument":"TheGrandeurPiano","level2":15,"level3":null,"pitch":49,"articulation":"standard","articulation_tags":["standard","long"],"duration":0.7638888888888888,"velocity":78.4114162015844},
{"position":413.0729166666667,"instrument":"TheGrandeurPiano","level2":12,"level3":null,"pitch":35,"articulation":"standard","articulation_tags":["standard","long"],"duration":1.5511811023622046,"velocity":78.82249716764287},
{"position":413.2291666666667,"instrument":"TheGrandeurPiano","level2":12,"level3":null,"pitch":36,"articulation":"standard","articulation_tags":["standard","long"],"duration":0.5277777777777778,"velocity":77.30799351217831},
{"position":413.375,"instrument":"TheGrandeurPiano","level2":20,"level3":null,"pitch":80,"articulation":"standard","articulation_tags":["standard","long"],"duration":0.6180555555555556,"velocity":74.48446410041362},
{"position":413.7604166666667,"instrument":"Bassoon","level2":15,"level3":1,"pitch":39,"articulation":"tenuto","articulation_tags":["tenuto","t","short"],"duration":0.125,"velocity":103.88692468183842},
{"position":413.8125,"instrument":"Contrabass","level2":12,"level3":9,"pitch":32,"articulation":"spiccato","articulation_tags":["spiccato","sp","short"],"duration":0.125,"velocity":120.13547204704821},
{"position":413.9479166666667,"instrument":"TheGrandeurPiano","level2":20,"level3":null,"pitch":80,"articulation":"standard","articulation_tags":["standard","long"],"duration":1.1805555555555556,"velocity":72.35116873479451},
{"position":413.9583333333333,"instrument":"Contrabass","level2":12,"level3":7,"pitch":31,"articulation":"spiccato","articulation_tags":["spiccato","sp","short"],"duration":0.125,"velocity":120.13547204704821},
{"position":414.0208333333333,"instrument":"TheGrandeurPiano","level2":12,"level3":null,"pitch":36,"articulation":"standard","articulation_tags":["standard","long"],"duration":0.4930555555555556,"velocity":78.49167521286208},
{"position":414.1354166666667,"instrument":"Contrabass","level2":12,"level3":6,"pitch":32,"articulation":"staccato","articulation_tags":["staccato","st","short"],"duration":0.125,"velocity":119.47906156985043},
{"position":414.1666666666667,"instrument":"TheGrandeurPiano","level2":15,"level3":null,"pitch":48,"articulation":"standard","articulation_tags":["standard","long"],"duration":0.6666666666666666,"velocity":81.0014791344307},
{"position":414.25,"instrument":"Contrabass","level2":12,"level3":8,"pitch":32,"articulation":"spiccato","articulation_tags":["spiccato","sp","short"],"duration":0.125,"velocity":119.47906156985043},
{"position":414.2916666666667,"instrument":"TheGrandeurPiano","level2":20,"level3":null,"pitch":80,"articulation":"standard","articulation_tags":["standard","long"],"duration":0.6041666666666666,"velocity":75.47961544327606},
{"position":414.7083333333333,"instrument":"TheGrandeurPiano","level2":15,"level3":null,"pitch":48,"articulation":"standard","articulation_tags":["standard","long"],"duration":1.1111111111111112,"velocity":80.01642553305307},
{"position":414.7708333333333,"instrument":"TheGrandeurPiano","level2":12,"level3":null,"pitch":37,"articulation":"standard","articulation_tags":["standard","long"],"duration":0.4583333333333333,"velocity":77.82034710168051},
{"position":415.125,"instrument":"TenorTrombone","level2":20,"level3":4,"pitch":62,"articulation":"marcato","articulation_tags":["marcato","short"],"duration":0.25,"velocity":83.35906594992042},
{"position":415.1666666666667,"instrument":"TheGrandeurPiano","level2":15,"level3":null,"pitch":48,"articulation":"standard","articulation_tags":["standard","long"],"duration":0.5833333333333334,"velocity":80.18549779621722},
{"position":415.1979166666667,"instrument":"TheGrandeurPiano","level2":20,"level3":null,"pitch":80,"articulation":"standard","articulation_tags":["standard","long"],"duration":0.5902777777777778,"velocity":75.79334093347214},
{"position":415.4583333333333,"instrument":"TheGrandeurPiano","level2":12,"level3":null,"pitch":37,"articulation":"standard","articulation_tags":["standard","long"],"duration":0.4305555555555556,"velocity":78.49167521286208},
{"position":415.71875,"instrument":"TheGrandeurPiano","level2":20,"level3":null,"pitch":79,"articulation":"standard","articulation_tags":["standard","long"],"duration":0.8125,"velocity":77.11685395093998},
{"position":415.75,"instrument":"Bassoon","level2":15,"level3":1,"pitch":39,"articulation":"tenuto","articulation_tags":["tenuto","t","short"],"duration":0.125,"velocity":105.00465827441876},
{"position":416.03125,"instrument":"TheGrandeurPiano","level2":15,"level3":null,"pitch":47,"articulation":"standard","articulation_tags":["standard","long"],"duration":0.5,"velocity":79.50407194355087},
{"position":416.0833333333333,"instrument":"TheGrandeurPiano","level2":20,"level3":null,"pitch":79,"articulation":"standard","articulation_tags":["standard","long"],"duration":0.5763888888888888,"velocity":75.42564057100185},
{"position":416.1041666666667,"instrument":"TheGrandeurPiano","level2":12,"level3":null,"pitch":38,"articulation":"standard","articulation_tags":["standard","long"],"duration":0.3888888888888889,"velocity":77.30799351217831},
{"position":416.3645833333333,"instrument":"TheGrandeurPiano","level2":15,"level3":null,"pitch":47,"articulation":"standard","articulation_tags":["standard","long"],"duration":0.9236111111111112,"velocity":80.70485010881934},
{"position":416.6875,"instrument":"TheGrandeurPiano","level2":12,"level3":null,"pitch":38,"articulation":"standard","articulation_tags":["standard","long"],"duration":0.3611111111111111,"velocity":78.82249716764287},
{"position":416.7916666666667,"instrument":"TheGrandeurPiano","level2":15,"level3":null,"pitch":47,"articulation":"standard","articulation_tags":["standard","long"],"duration":0.4305555555555556,"velocity":79.70270004285699},
{"position":416.8020833333333,"instrument":"ContrabassTrombone","level2":12,"level3":6,"pitch":32,"articulation":"legato","articulation_tags":["legato","lg"],"duration":6.322916666666667,"velocity":105.63555395148089},
{"position":416.8125,"instrument":"TheGrandeurPiano","level2":12,"level3":null,"pitch":38,"articulation":"standard","articulation_tags":["standard","long"],"duration":1.25,"velocity":78.13407259187659},
{"position":416.9375,"instrument":"TheGrandeurPiano","level2":20,"level3":null,"pitch":79,"articulation":"standard","articulation_tags":["standard","long"],"duration":0.6388888888888888,"velocity":75.93799416050405},
{"position":416.9479166666667,"instrument":"TheGrandeurPiano","level2":20,"level3":null,"pitch":79,"articulation":"standard","articulation_tags":["standard","long"],"duration":0.5694444444444444,"velocity":76.25171965070012},
{"position":417.15625,"instrument":"Bassoon","level2":15,"level3":2,"pitch":38,"articulation":"tenuto","articulation_tags":["tenuto","t","short"],"duration":0.125,"velocity":106.15097005012899},
{"position":417.21875,"instrument":"TheGrandeurPiano","level2":12,"level3":null,"pitch":39,"articulation":"standard","articulation_tags":["standard","long"],"duration":0.3194444444444444,"velocity":80.27018992311211},
{"position":417.3229166666667,"instrument":"TenorTrombone","level2":20,"level3":6,"pitch":62,"articulation":"staccato_muted","articulation_tags":["staccato_muted","stmt","short","staccato","muted"],"duration":0.25,"velocity":81.83893966097952},
{"position":417.3229166666667,"instrument":"TenorTrombone","level2":20,"level3":6,"pitch":62,"articulation":"staccato_muted","articulation_tags":["staccato_muted","stmt","short","staccato","muted"],"duration":0.25,"velocity":81.83893966097952},
{"position":417.3229166666667,"instrument":"Bassoon","level2":20,"level3":7,"pitch":63,"articulation":"staccato","articulation_tags":["staccato","st","short"],"duration":0.125,"velocity":81.83893966097952},
{"position":417.4375,"instrument":"TheGrandeurPiano","level2":15,"level3":null,"pitch":46,"articulation":"standard","articulation_tags":["standard","long"],"duration":0.3680555555555556,"velocity":79.36200015492304},
{"position":417.6979166666667,"instrument":"TheGrandeurPiano","level2":12,"level3":null,"pitch":39,"articulation":"standard","articulation_tags":["standard","long"],"duration":0.2847222222222222,"velocity":80.27018992311211},
{"position":417.75,"instrument":"TheGrandeurPiano","level2":15,"level3":null,"pitch":46,"articulation":"standard","articulation_tags":["standard","long"],"duration":0.6944444444444444,"velocity":81.52509188389644},
{"position":417.8020833333333,"instrument":"TheGrandeurPiano","level2":20,"level3":null,"pitch":79,"articulation":"standard","articulation_tags":["standard","long"],"duration":0.5625,"velocity":78.70156247213173},
{"position":417.8958333333333,"instrument":"TheGrandeurPiano","level2":20,"level3":null,"pitch":78,"articulation":"standard","articulation_tags":["standard","long"],"duration":0.5347222222222222,"velocity":78.70156247213173},
{"position":417.9791666666667,"instrument":"TheGrandeurPiano","level2":15,"level3":null,"pitch":46,"articulation":"standard","articulation_tags":["standard","long"],"duration":0.3055555555555556,"velocity":79.38897455266091},
{"position":418.1354166666667,"instrument":"TheGrandeurPiano","level2":12,"level3":null,"pitch":40,"articulation":"standard","articulation_tags":["standard","long"],"duration":0.24305555555555555,"velocity":80.90242930697592},
{"position":418.4375,"instrument":"TheGrandeurPiano","level2":15,"level3":null,"pitch":45,"articulation":"standard","articulation_tags":["standard","long"],"duration":0.24305555555555555,"velocity":80.39112461862327},
{"position":418.5,"instrument":"TheGrandeurPiano","level2":12,"level3":null,"pitch":40,"articulation":"standard","articulation_tags":["standard","long"],"duration":0.2152777777777778,"velocity":79.13622265783894},
{"position":418.6458333333333,"instrument":"Bassoon","level2":15,"level3":2,"pitch":38,"articulation":"tenuto","articulation_tags":["tenuto","t","short"],"duration":0.125,"velocity":107.97836259625076},
{"position":418.6458333333333,"instrument":"TheGrandeurPiano","level2":20,"level3":null,"pitch":78,"articulation":"standard","articulation_tags":["standard","long"],"duration":0.5555555555555556,"velocity":80.88037866815466},
{"position":418.6875,"instrument":"TheGrandeurPiano","level2":12,"level3":null,"pitch":40,"articulation":"standard","articulation_tags":["standard","long"],"duration":0.4930555555555556,"velocity":82.44900611913505},
{"position":418.6979166666667,"instrument":"TheGrandeurPiano","level2":20,"level3":null,"pitch":78,"articulation":"standard","articulation_tags":["standard","long"],"duration":0.4583333333333333,"velocity":80.88037866815466},
{"position":418.7916666666667,"instrument":"TheGrandeurPiano","level2":15,"level3":null,"pitch":45,"articulation":"standard","articulation_tags":["standard","long"],"duration":0.4027777777777778,"velocity":83.0764570995272},
{"position":418.8020833333333,"instrument":"TheGrandeurPiano","level2":15,"level3":null,"pitch":45,"articulation":"standard","articulation_tags":["standard","long"],"duration":0.1875,"velocity":81.6865723570892},
{"position":418.8229166666667,"instrument":"TheGrandeurPiano","level2":12,"level3":null,"pitch":41,"articulation":"standard","articulation_tags":["standard","long"],"duration":0.16666666666666666,"velocity":81.05912137669705},
{"position":419.0729166666667,"instrument":"TheGrandeurPiano","level2":12,"level3":null,"pitch":41,"articulation":"standard","articulation_tags":["standard","long"],"duration":0.13194444444444445,"velocity":81.05912137669705},
{"position":419.0833333333333,"instrument":"TheGrandeurPiano","level2":15,"level3":null,"pitch":44,"articulation":"standard","articulation_tags":["standard","long"],"duration":0.1388888888888889,"velocity":81.6865723570892},
{"position":419.1666666666667,"instrument":"Bassoon","level2":15,"level3":1,"pitch":39,"articulation":"tenuto","articulation_tags":["tenuto","t","short"],"duration":0.125,"velocity":109.17665057047884},
{"position":419.2708333333333,"instrument":"TheGrandeurPiano","level2":12,"level3":null,"pitch":42,"articulation":"standard","articulation_tags":["standard","long"],"duration":0.09027777777777778,"velocity":83.1995737650393},
{"position":419.3020833333333,"instrument":"TheGrandeurPiano","level2":15,"level3":null,"pitch":44,"articulation":"standard","articulation_tags":["standard","long"],"duration":0.08333333333333333,"velocity":83.82702474543146},
{"position":419.3958333333333,"instrument":"TheGrandeurPiano","level2":20,"level3":null,"pitch":77,"articulation":"standard","articulation_tags":["standard","long"],"duration":0.4027777777777778,"velocity":81.63094631405892},
{"position":419.3958333333333,"instrument":"TheGrandeurPiano","level2":15,"level3":null,"pitch":44,"articulation":"standard","articulation_tags":["standard","long"],"duration":0.06944444444444445,"velocity":83.51329925523538},
{"position":419.40625,"instrument":"TheGrandeurPiano","level2":12,"level3":null,"pitch":42,"articulation":"standard","articulation_tags":["standard","long"],"duration":0.04861111111111111,"velocity":83.1995737650393},
{"position":419.4270833333333,"instrument":"TheGrandeurPiano","level2":15,"level3":null,"pitch":43,"articulation":"standard","articulation_tags":["standard","long"],"duration":0.041666666666666664,"velocity":83.51329925523538},
{"position":419.4270833333333,"instrument":"TheGrandeurPiano","level2":12,"level3":null,"pitch":42,"articulation":"standard","articulation_tags":["standard","long"],"duration":0.041666666666666664,"velocity":83.51329925523538},
{"position":419.4791666666667,"instrument":"TheGrandeurPiano","level2":20,"level3":null,"pitch":77,"articulation":"standard","articulation_tags":["standard","long"],"duration":0.5486111111111112,"velocity":81.944671804255},
{"position":419.4791666666667,"instrument":"TheGrandeurPiano","level2":12,"level3":null,"pitch":43,"articulation":"standard","articulation_tags":["standard","long"],"duration":0.006944444444444444,"velocity":83.51329925523538},
{"position":419.4895833333333,"instrument":"TheGrandeurPiano","level2":15,"level3":null,"pitch":43,"articulation":"standard","articulation_tags":["standard","long"],"duration":0.006944444444444444,"velocity":83.51329925523538},
{"position":420.0,"instrument":"TheGrandeurPiano","level2":20,"level3":null,"pitch":77,"articulation":"standard","articulation_tags":["standard","long"],"duration":0.3611111111111111,"velocity":80.73654227601098},
{"position":420.1458333333333,"instrument":"BassClarinet","level2":15,"level3":2,"pitch":38,"articulation":"tenuto","articulation_tags":["tenuto","t","short"],"duration":0.125,"velocity":111.05619589473916},
{"position":420.21875,"instrument":"Bassoon","level2":15,"level3":1,"pitch":39,"articulation":"tenuto","articulation_tags":["tenuto","t","short"],"duration":0.125,"velocity":111.05619589473916},
{"position":420.3125,"instrument":"TheGrandeurPiano","level2":20,"level3":null,"pitch":77,"articulation":"standard","articulation_tags":["standard","long"],"duration":0.5486111111111112,"velocity":80.89649945890739},
{"position":420.53125,"instrument":"TheGrandeurPiano","level2":20,"level3":null,"pitch":76,"articulation":"standard","articulation_tags":["standard","long"],"duration":0.3194444444444444,"velocity":80.89649945890739},
{"position":420.8020833333333,"instrument":"Bassoon","level2":20,"level3":5,"pitch":65,"articulation":"tenuto","articulation_tags":["tenuto","t","short"],"duration":0.125,"velocity":78.9804647704875},
{"position":421.0104166666667,"instrument":"TheGrandeurPiano","level2":20,"level3":null,"pitch":76,"articulation":"standard","articulation_tags":["standard","long"],"duration":0.2916666666666667,"velocity":81.05026776620706},
{"position":421.0520833333333,"instrument":"Bassoon","level2":20,"level3":6,"pitch":62,"articulation":"staccato","articulation_tags":["staccato","st","short"],"duration":0.125,"velocity":78.33933154705757},
{"position":421.125,"instrument":"BassClarinet","level2":15,"level3":1,"pitch":39,"articulation":"tenuto","articulation_tags":["tenuto","t","short"],"duration":0.125,"velocity":111.05619589473916},
{"position":421.1354166666667,"instrument":"TheGrandeurPiano","level2":20,"level3":null,"pitch":76,"articulation":"standard","articulation_tags":["standard","long"],"duration":0.5555555555555556,"velocity":81.8215551387429},
{"position":421.2395833333333,"instrument":"Bassoon","level2":15,"level3":2,"pitch":38,"articulation":"tenuto","articulation_tags":["tenuto","t","short"],"duration":0.125,"velocity":111.05619589473916},
{"position":421.3229166666667,"instrument":"TenorTrombone","level2":20,"level3":7,"pitch":63,"articulation":"staccato_muted","articulation_tags":["staccato_muted","stmt","short","staccato","muted"],"duration":0.25,"velocity":78.68641727427067},
{"position":421.4375,"instrument":"Cello","level2":15,"level3":2,"pitch":39,"articulation":"pizzicato","articulation_tags":["pizzicato","pz","short"],"duration":0.125,"velocity":111.05619589473916},
{"position":421.4479166666667,"instrument":"TheGrandeurPiano","level2":20,"level3":null,"pitch":75,"articulation":"standard","articulation_tags":["standard","long"],"duration":0.2638888888888889,"velocity":82.57212278464715},
{"position":421.84375,"instrument":"TheGrandeurPiano","level2":20,"level3":null,"pitch":75,"articulation":"standard","articulation_tags":["standard","long"],"duration":0.24305555555555555,"velocity":83.59907156553285},
{"position":421.96875,"instrument":"TheGrandeurPiano","level2":20,"level3":null,"pitch":75,"articulation":"standard","articulation_tags":["standard","long"],"duration":0.5694444444444444,"velocity":83.91279705572893},
{"position":422.2083333333333,"instrument":"TheGrandeurPiano","level2":20,"level3":null,"pitch":74,"articulation":"standard","articulation_tags":["standard","long"],"duration":0.2222222222222222,"velocity":85.19534399292841},
{"position":422.5104166666667,"instrument":"CorAnglais","level2":20,"level3":2,"pitch":60,"articulation":"tenuto","articulation_tags":["tenuto","t","short"],"duration":0.125,"velocity":77.53558329387549},
{"position":422.5416666666667,"instrument":"TheGrandeurPiano","level2":20,"level3":null,"pitch":74,"articulation":"standard","articulation_tags":["standard","long"],"duration":0.2013888888888889,"velocity":83.76772343309702},
{"position":422.8125,"instrument":"TheGrandeurPiano","level2":20,"level3":null,"pitch":74,"articulation":"standard","articulation_tags":["standard","long"],"duration":0.6111111111111112,"velocity":84.0814489232931},
{"position":422.84375,"instrument":"TheGrandeurPiano","level2":20,"level3":null,"pitch":73,"articulation":"standard","articulation_tags":["standard","long"],"duration":0.1875,"velocity":84.0814489232931},
{"position":423.125,"instrument":"ContrabassTrombone","level2":12,"level3":6,"pitch":31,"articulation":"legato","articulation_tags":["legato","lg"],"duration":1.9270833333333333,"velocity":94.11239178947832},
{"position":423.125,"instrument":"TheGrandeurPiano","level2":20,"level3":null,"pitch":73,"articulation":"standard","articulation_tags":["standard","long"],"duration":0.1736111111111111,"velocity":85.92775208295507},
{"position":423.375,"instrument":"TheGrandeurPiano","level2":20,"level3":null,"pitch":72,"articulation":"standard","articulation_tags":["standard","long"],"duration":0.1597222222222222,"velocity":85.36855431813947},
{"position":423.6145833333333,"instrument":"TheGrandeurPiano","level2":20,"level3":null,"pitch":72,"articulation":"standard","articulation_tags":["standard","long"],"duration":0.14583333333333334,"velocity":85.36855431813947},
{"position":423.7395833333333,"instrument":"TheGrandeurPiano","level2":20,"level3":null,"pitch":72,"articulation":"standard","articulation_tags":["standard","long"],"duration":1.75,"velocity":85.68227980833555},
{"position":423.8333333333333,"instrument":"TheGrandeurPiano","level2":20,"level3":null,"pitch":71,"articulation":"standard","articulation_tags":["standard","long"],"duration":0.13194444444444445,"velocity":83.21483491094844},
{"position":424.0,"instrument":"Contrabass","level2":12,"level3":6,"pitch":31,"articulation":"staccato","articulation_tags":["staccato","st","short"],"duration":0.125,"velocity":111.05619589473916},
{"position":424.03125,"instrument":"TheGrandeurPiano","level2":20,"level3":null,"pitch":71,"articulation":"standard","articulation_tags":["standard","long"],"duration":0.125,"velocity":85.68227980833555},
{"position":424.21875,"instrument":"TheGrandeurPiano","level2":20,"level3":null,"pitch":70,"articulation":"standard","articulation_tags":["standard","long"],"duration":0.1111111111111111,"velocity":85.68227980833555},
{"position":424.3854166666667,"instrument":"TheGrandeurPiano","level2":20,"level3":null,"pitch":70,"articulation":"standard","articulation_tags":["standard","long"],"duration":0.10416666666666667,"velocity":83.51329925523538},
{"position":424.5416666666667,"instrument":"TheGrandeurPiano","level2":20,"level3":null,"pitch":69,"articulation":"standard","articulation_tags":["standard","long"],"duration":0.09722222222222222,"velocity":86.24147757315114},
{"position":424.65625,"instrument":"Contrabass","level2":12,"level3":7,"pitch":31,"articulation":"staccato","articulation_tags":["staccato","st","short"],"duration":0.125,"velocity":111.05619589473916},
{"position":424.6875,"instrument":"TheGrandeurPiano","level2":20,"level3":null,"pitch":69,"articulation":"standard","articulation_tags":["standard","long"],"duration":0.08333333333333333,"velocity":86.24147757315114},
{"position":424.8020833333333,"instrument":"Contrabass","level2":12,"level3":7,"pitch":31,"articulation":"staccato","articulation_tags":["staccato","st","short"],"duration":0.125,"velocity":111.05619589473916},
{"position":424.8125,"instrument":"TheGrandeurPiano","level2":20,"level3":null,"pitch":68,"articulation":"standard","articulation_tags":["standard","long"],"duration":0.0763888888888889,"velocity":84.39517441348917},
{"position":424.9375,"instrument":"TheGrandeurPiano","level2":20,"level3":null,"pitch":68,"articulation":"standard","articulation_tags":["standard","long"],"duration":0.06944444444444445,"velocity":84.39517441348917},
{"position":425.0416666666667,"instrument":"TheGrandeurPiano","level2":20,"level3":null,"pitch":67,"articulation":"standard","articulation_tags":["standard","long"],"duration":0.0625,"velocity":84.39517441348917},
{"position":425.1354166666667,"instrument":"TheGrandeurPiano","level2":20,"level3":null,"pitch":67,"articulation":"standard","articulation_tags":["standard","long"],"duration":0.05555555555555555,"velocity":87.33779278265604},
{"position":425.21875,"instrument":"TheGrandeurPiano","level2":20,"level3":null,"pitch":66,"articulation":"standard","articulation_tags":["standard","long"],"duration":0.11805555555555555,"velocity":85.82279497332057},
{"position":425.3958333333333,"instrument":"TheGrandeurPiano","level2":20,"level3":null,"pitch":66,"articulation":"standard","articulation_tags":["standard","long"],"duration":0.11805555555555555,"velocity":85.82279497332057},
{"position":425.5833333333333,"instrument":"TheGrandeurPiano","level2":20,"level3":null,"pitch":65,"articulation":"standard","articulation_tags":["standard","long"],"duration":0.125,"velocity":84.54024803612108},
{"position":425.7083333333333,"instrument":"Trumpet","level2":20,"level3":8,"pitch":63,"articulation":"marcato","articulation_tags":["marcato","short"],"duration":0.25,"velocity":82.68233764908628},
{"position":425.7083333333333,"instrument":"CorAnglais","level2":20,"level3":8,"pitch":63,"articulation":"marcato","articulation_tags":["marcato","short"],"duration":0.125,"velocity":82.68233764908628},
{"position":425.7083333333333,"instrument":"Cello","level2":20,"level3":9,"pitch":63,"articulation":"pizzicato","articulation_tags":["pizzicato","pz","short"],"duration":0.125,"velocity":82.68233764908628},
{"position":425.7604166666667,"instrument":"TheGrandeurPiano","level2":20,"level3":null,"pitch":65,"articulation":"standard","articulation_tags":["standard","long"],"duration":0.125,"velocity":84.54024803612108},
{"position":425.9583333333333,"instrument":"TheGrandeurPiano","level2":20,"level3":null,"pitch":64,"articulation":"standard","articulation_tags":["standard","long"],"duration":0.13194444444444445,"velocity":84.54024803612108},
{"position":426.0520833333333,"instrument":"Trumpet","level2":20,"level3":4,"pitch":61,"articulation":"marcato","articulation_tags":["marcato","short"],"duration":0.25,"velocity":83.8401410169037},
{"position":426.15625,"instrument":"TheGrandeurPiano","level2":20,"level3":null,"pitch":64,"articulation":"standard","articulation_tags":["standard","long"],"duration":0.1388888888888889,"velocity":83.51329925523538},
{"position":426.3541666666667,"instrument":"TheGrandeurPiano","level2":20,"level3":null,"pitch":64,"articulation":"standard","articulation_tags":["standard","long"],"duration":0.4513888888888889,"velocity":82.44900611913505},
{"position":426.3645833333333,"instrument":"TheGrandeurPiano","level2":20,"level3":null,"pitch":63,"articulation":"standard","articulation_tags":["standard","long"],"duration":0.14583333333333334,"velocity":82.44900611913505},
{"position":426.5833333333333,"instrument":"TheGrandeurPiano","level2":20,"level3":null,"pitch":63,"articulation":"standard","articulation_tags":["standard","long"],"duration":0.1527777777777778,"velocity":85.78866351302779},
{"position":426.6666666666667,"instrument":"Trumpet","level2":20,"level3":9,"pitch":63,"articulation":"staccato","articulation_tags":["staccato","st","short"],"duration":0.25,"velocity":85.38320595613354},
{"position":426.8125,"instrument":"TheGrandeurPiano","level2":20,"level3":null,"pitch":62,"articulation":"standard","articulation_tags":["standard","long"],"duration":0.1597222222222222,"velocity":85.36855431813947},
{"position":427.03125,"instrument":"TheGrandeurPiano","level2":20,"level3":null,"pitch":62,"articulation":"standard","articulation_tags":["standard","long"],"duration":0.3680555555555556,"velocity":85.0548288279434},
{"position":427.0520833333333,"instrument":"TheGrandeurPiano","level2":20,"level3":null,"pitch":62,"articulation":"standard","articulation_tags":["standard","long"],"duration":0.1736111111111111,"velocity":85.0548288279434},
{"position":427.3125,"instrument":"TheGrandeurPiano","level2":20,"level3":null,"pitch":61,"articulation":"standard","articulation_tags":["standard","long"],"duration":0.18055555555555555,"velocity":81.52395043929954},
{"position":427.5833333333333,"instrument":"TheGrandeurPiano","level2":20,"level3":null,"pitch":61,"articulation":"standard","articulation_tags":["standard","long"],"duration":0.19444444444444445,"velocity":81.67771874659923},
{"position":427.59375,"instrument":"TheGrandeurPiano","level2":20,"level3":null,"pitch":61,"articulation":"standard","articulation_tags":["standard","long"],"duration":0.3333333333333333,"velocity":81.36399325640315},
{"position":427.875,"instrument":"TheGrandeurPiano","level2":20,"level3":null,"pitch":60,"articulation":"standard","articulation_tags":["standard","long"],"duration":0.20833333333333334,"velocity":81.36399325640315},
{"position":428.09375,"instrument":"TheGrandeurPiano","level2":20,"level3":null,"pitch":60,"articulation":"standard","articulation_tags":["standard","long"],"duration":0.3194444444444444,"velocity":81.50782964854682},
{"position":428.1875,"instrument":"TheGrandeurPiano","level2":20,"level3":null,"pitch":60,"articulation":"standard","articulation_tags":["standard","long"],"duration":0.22916666666666666,"velocity":81.50782964854682},
{"position":428.53125,"instrument":"TheGrandeurPiano","level2":20,"level3":null,"pitch":59,"articulation":"standard","articulation_tags":["standard","long"],"duration":0.25,"velocity":82.25839729445107},
{"position":428.5729166666667,"instrument":"TheGrandeurPiano","level2":20,"level3":null,"pitch":59,"articulation":"standard","articulation_tags":["standard","long"],"duration":0.3055555555555556,"velocity":81.944671804255},
{"position":428.90625,"instrument":"TheGrandeurPiano","level2":20,"level3":null,"pitch":59,"articulation":"standard","articulation_tags":["standard","long"],"duration":0.2777777777777778,"velocity":79.80421941591274},
{"position":429.03125,"instrument":"TheGrandeurPiano","level2":20,"level3":null,"pitch":59,"articulation":"standard","articulation_tags":["standard","long"],"duration":0.2986111111111111,"velocity":79.49049392571666},
{"position":429.3333333333333,"instrument":"TheGrandeurPiano","level2":20,"level3":null,"pitch":58,"articulation":"standard","articulation_tags":["standard","long"],"duration":0.3194444444444444,"velocity":80.88037866815466},
{"position":429.46875,"instrument":"TheGrandeurPiano","level2":20,"level3":null,"pitch":58,"articulation":"standard","articulation_tags":["standard","long"],"duration":0.2916666666666667,"velocity":77.56759520685856},
{"position":429.8125,"instrument":"TheGrandeurPiano","level2":20,"level3":null,"pitch":58,"articulation":"standard","articulation_tags":["standard","long"],"duration":0.375,"velocity":79.33380185599553},
{"position":429.90625,"instrument":"TheGrandeurPiano","level2":20,"level3":null,"pitch":58,"articulation":"standard","articulation_tags":["standard","long"],"duration":0.2916666666666667,"velocity":79.02007636579945},
{"position":430.34375,"instrument":"TheGrandeurPiano","level2":20,"level3":null,"pitch":58,"articulation":"standard","articulation_tags":["standard","long"],"duration":0.2916666666666667,"velocity":78.07411149173956},
{"position":430.3645833333333,"instrument":"TheGrandeurPiano","level2":20,"level3":null,"pitch":57,"articulation":"standard","articulation_tags":["standard","long"],"duration":0.4583333333333333,"velocity":78.07411149173956},
{"position":430.78125,"instrument":"TheGrandeurPiano","level2":20,"level3":null,"pitch":57,"articulation":"standard","articulation_tags":["standard","long"],"duration":0.2916666666666667,"velocity":75.283568782374},
{"position":431.0520833333333,"instrument":"TheGrandeurPiano","level2":20,"level3":null,"pitch":57,"articulation":"standard","articulation_tags":["standard","long"],"duration":0.6180555555555556,"velocity":75.62426867030797},
{"position":431.21875,"instrument":"TheGrandeurPiano","level2":20,"level3":null,"pitch":57,"articulation":"standard","articulation_tags":["standard","long"],"duration":0.2916666666666667,"velocity":75.31054318011189},
{"position":431.65625,"instrument":"TheGrandeurPiano","level2":20,"level3":null,"pitch":57,"articulation":"standard","articulation_tags":["standard","long"],"duration":0.2916666666666667,"velocity":73.07808286825107},
{"position":431.8333333333333,"instrument":"Cello","level2":20,"level3":9,"pitch":64,"articulation":"pizzicato","articulation_tags":["pizzicato","pz","short"],"duration":0.125,"velocity":92.42729482177488},
{"position":431.9791666666667,"instrument":"TheGrandeurPiano","level2":20,"level3":null,"pitch":56,"articulation":"standard","articulation_tags":["standard","long"],"duration":1.1805555555555556,"velocity":74.48446410041362},
{"position":432.09375,"instrument":"TheGrandeurPiano","level2":20,"level3":null,"pitch":56,"articulation":"standard","articulation_tags":["standard","long"],"duration":0.2986111111111111,"velocity":74.17073861021754},
{"position":432.5416666666667,"instrument":"TheGrandeurPiano","level2":20,"level3":null,"pitch":56,"articulation":"standard","articulation_tags":["standard","long"],"duration":0.2986111111111111,"velocity":72.62979319810995},
{"position":432.9895833333333,"instrument":"TheGrandeurPiano","level2":20,"level3":null,"pitch":56,"articulation":"standard","articulation_tags":["standard","long"],"duration":0.3055555555555556,"velocity":70.8535122247531},
{"position":433.4479166666667,"instrument":"TheGrandeurPiano","level2":20,"level3":null,"pitch":56,"articulation":"standard","articulation_tags":["standard","long"],"duration":0.3125,"velocity":70.35203788170854},
{"position":433.75,"instrument":"TheGrandeurPiano","level2":20,"level3":null,"pitch":56,"articulation":"standard","articulation_tags":["standard","long"],"duration":1.2986111111111112,"velocity":70.35203788170854},
{"position":433.9166666666667,"instrument":"TheGrandeurPiano","level2":20,"level3":null,"pitch":56,"articulation":"standard","articulation_tags":["standard","long"],"duration":0.3194444444444444,"velocity":66.85948070587719},
{"position":434.3854166666667,"instrument":"TheGrandeurPiano","level2":20,"level3":null,"pitch":56,"articulation":"standard","articulation_tags":["standard","long"],"duration":0.3263888888888889,"velocity":67.16933512024234},
{"position":434.875,"instrument":"TheGrandeurPiano","level2":20,"level3":null,"pitch":56,"articulation":"standard","articulation_tags":["standard","long"],"duration":0.3333333333333333,"velocity":67.86508980886437},
{"position":435.3645833333333,"instrument":"TheGrandeurPiano","level2":20,"level3":null,"pitch":56,"articulation":"standard","articulation_tags":["standard","long"],"duration":0.3402777777777778,"velocity":65.91830423528896},
{"position":435.6875,"instrument":"TheGrandeurPiano","level2":20,"level3":null,"pitch":56,"articulation":"standard","articulation_tags":["standard","long"],"duration":1.4027777777777777,"velocity":65.06402765331592},
{"position":435.875,"instrument":"TheGrandeurPiano","level2":20,"level3":null,"pitch":56,"articulation":"standard","articulation_tags":["standard","long"],"duration":0.3472222222222222,"velocity":64.75030216311984},
{"position":436.3958333333333,"instrument":"TheGrandeurPiano","level2":20,"level3":null,"pitch":56,"articulation":"standard","articulation_tags":["standard","long"],"duration":0.3611111111111111,"velocity":64.43657667292376},
{"position":436.9375,"instrument":"TheGrandeurPiano","level2":20,"level3":null,"pitch":56,"articulation":"standard","articulation_tags":["standard","long"],"duration":0.3680555555555556,"velocity":62.211077140389364},
{"position":437.4895833333333,"instrument":"TheGrandeurPiano","level2":20,"level3":null,"pitch":56,"articulation":"standard","articulation_tags":["standard","long"],"duration":0.3819444444444444,"velocity":63.20300675865709},
{"position":437.8020833333333,"instrument":"TheGrandeurPiano","level2":20,"level3":null,"pitch":57,"articulation":"standard","articulation_tags":["standard","long"],"duration":0.8472222222222222,"velocity":62.136265537947},
{"position":438.0625,"instrument":"TheGrandeurPiano","level2":20,"level3":null,"pitch":57,"articulation":"standard","articulation_tags":["standard","long"],"duration":0.3958333333333333,"velocity":61.17780997769268},
{"position":438.6666666666667,"instrument":"TheGrandeurPiano","level2":20,"level3":null,"pitch":57,"articulation":"standard","articulation_tags":["standard","long"],"duration":0.4166666666666667,"velocity":63.8358485615545},
{"position":439.0625,"instrument":"TheGrandeurPiano","level2":20,"level3":null,"pitch":57,"articulation":"standard","articulation_tags":["standard","long"],"duration":0.6875,"velocity":64.0359512941125},
{"position":439.28125,"instrument":"TheGrandeurPiano","level2":20,"level3":null,"pitch":57,"articulation":"standard","articulation_tags":["standard","long"],"duration":0.4375,"velocity":64.34580570847763},
{"position":439.375,"instrument":"Cello","level2":20,"level3":6,"pitch":61,"articulation":"collegno","articulation_tags":["collegno","cl","short"],"duration":0.125,"velocity":95.18168567160384},
{"position":439.8333333333333,"instrument":"Cello","level2":20,"level3":10,"pitch":63,"articulation":"collegno","articulation_tags":["collegno","cl","short"],"duration":0.125,"velocity":95.18168567160384},
{"position":439.8333333333333,"instrument":"Cello","level2":20,"level3":11,"pitch":63,"articulation":"pizzicato_bartok","articulation_tags":["pizzicato_bartok","pzb","short","pizzicato","bartok"],"duration":0.125,"velocity":95.18168567160384},
{"position":439.9375,"instrument":"TheGrandeurPiano","level2":20,"level3":null,"pitch":57,"articulation":"standard","articulation_tags":["standard","long"],"duration":0.4583333333333333,"velocity":62.0265361704218},
{"position":440.09375,"instrument":"TheGrandeurPiano","level2":20,"level3":null,"pitch":58,"articulation":"standard","articulation_tags":["standard","long"],"duration":0.6041666666666666,"velocity":62.0265361704218},
{"position":440.625,"instrument":"TheGrandeurPiano","level2":20,"level3":null,"pitch":58,"articulation":"standard","articulation_tags":["standard","long"],"duration":0.4861111111111111,"velocity":64.92553774142749},
{"position":441.0,"instrument":"TheGrandeurPiano","level2":20,"level3":null,"pitch":58,"articulation":"standard","articulation_tags":["standard","long"],"duration":0.5486111111111112,"velocity":62.35046710145426},
{"position":441.3541666666667,"instrument":"TheGrandeurPiano","level2":20,"level3":null,"pitch":58,"articulation":"standard","articulation_tags":["standard","long"],"duration":0.5208333333333334,"velocity":64.2150477518388},
{"position":441.8229166666667,"instrument":"TheGrandeurPiano","level2":20,"level3":null,"pitch":59,"articulation":"standard","articulation_tags":["standard","long"],"duration":0.5138888888888888,"velocity":64.61181225123141},
{"position":442.125,"instrument":"TheGrandeurPiano","level2":20,"level3":null,"pitch":59,"articulation":"standard","articulation_tags":["standard","long"],"duration":0.5625,"velocity":64.29808676103534},
{"position":442.59375,"instrument":"TheGrandeurPiano","level2":20,"level3":null,"pitch":59,"articulation":"standard","articulation_tags":["standard","long"],"duration":0.4791666666666667,"velocity":65.45724411099432},
{"position":442.96875,"instrument":"TheGrandeurPiano","level2":20,"level3":null,"pitch":59,"articulation":"standard","articulation_tags":["standard","long"],"duration":0.6180555555555556,"velocity":63.79999228404564},
{"position":443.3125,"instrument":"TheGrandeurPiano","level2":20,"level3":null,"pitch":60,"articulation":"standard","articulation_tags":["standard","long"],"duration":0.4583333333333333,"velocity":66.07665893087294},
{"position":443.8125,"instrument":"Cello","level2":20,"level3":7,"pitch":63,"articulation":"collegno","articulation_tags":["collegno","cl","short"],"duration":0.125,"velocity":94.72594573940555},
{"position":443.8958333333333,"instrument":"TheGrandeurPiano","level2":20,"level3":null,"pitch":60,"articulation":"standard","articulation_tags":["standard","long"],"duration":0.6944444444444444,"velocity":65.2064534012237},
{"position":444.0,"instrument":"TheGrandeurPiano","level2":20,"level3":null,"pitch":60,"articulation":"standard","articulation_tags":["standard","long"],"duration":0.4444444444444444,"velocity":65.2064534012237},
{"position":444.2916666666667,"instrument":"Cello","level2":20,"level3":4,"pitch":62,"articulation":"pizzicato_bartok","articulation_tags":["pizzicato_bartok","pzb","short","pizzicato","bartok"],"duration":0.125,"velocity":94.7443630493689},
{"position":444.6666666666667,"instrument":"TheGrandeurPiano","level2":20,"level3":null,"pitch":61,"articulation":"standard","articulation_tags":["standard","long"],"duration":0.4236111111111111,"velocity":65.2064534012237},
{"position":444.9375,"instrument":"TheGrandeurPiano","level2":20,"level3":null,"pitch":61,"articulation":"standard","articulation_tags":["standard","long"],"duration":0.8194444444444444,"velocity":64.89272791102762},
{"position":445.3020833333333,"instrument":"TheGrandeurPiano","level2":20,"level3":null,"pitch":61,"articulation":"standard","articulation_tags":["standard","long"],"duration":0.4166666666666667,"velocity":65.44920795048078},
{"position":445.9166666666667,"instrument":"TheGrandeurPiano","level2":20,"level3":null,"pitch":62,"articulation":"standard","articulation_tags":["standard","long"],"duration":0.4027777777777778,"velocity":67.58250331609989},
{"position":446.1666666666667,"instrument":"TheGrandeurPiano","level2":20,"level3":null,"pitch":62,"articulation":"standard","articulation_tags":["standard","long"],"duration":1.0486111111111112,"velocity":67.26877782590381},
{"position":446.5208333333333,"instrument":"TheGrandeurPiano","level2":20,"level3":null,"pitch":62,"articulation":"standard","articulation_tags":["standard","long"],"duration":0.3958333333333333,"velocity":68.78328148136836},
{"position":447.1145833333333,"instrument":"TheGrandeurPiano","level2":20,"level3":null,"pitch":63,"articulation":"standard","articulation_tags":["standard","long"],"duration":0.3888888888888889,"velocity":67.78113141540601},
{"position":447.6979166666667,"instrument":"TheGrandeurPiano","level2":20,"level3":null,"pitch":63,"articulation":"standard","articulation_tags":["standard","long"],"duration":0.3819444444444444,"velocity":67.44043152747204},
{"position":447.7395833333333,"instrument":"TheGrandeurPiano","level2":20,"level3":null,"pitch":63,"articulation":"standard","articulation_tags":["standard","long"],"duration":1.9921259842519685,"velocity":67.12670603727597},
{"position":448.2604166666667,"instrument":"TheGrandeurPiano","level2":20,"level3":null,"pitch":64,"articulation":"standard","articulation_tags":["standard","long"],"duration":0.375,"velocity":67.46740592520993},
{"position":448.8229166666667,"instrument":"TheGrandeurPiano","level2":20,"level3":null,"pitch":64,"articulation":"standard","articulation_tags":["standard","long"],"duration":0.3680555555555556,"velocity":65.54867110354519},
{"position":449.375,"instrument":"TheGrandeurPiano","level2":20,"level3":null,"pitch":65,"articulation":"standard","articulation_tags":["standard","long"],"duration":0.3611111111111111,"velocity":66.95505233570773},
{"position":449.9166666666667,"instrument":"TheGrandeurPiano","level2":20,"level3":null,"pitch":65,"articulation":"standard","articulation_tags":["standard","long"],"duration":0.3611111111111111,"velocity":65.72783241379624},
{"position":450.4583333333333,"instrument":"TheGrandeurPiano","level2":20,"level3":null,"pitch":66,"articulation":"standard","articulation_tags":["standard","long"],"duration":0.3541666666666667,"velocity":68.13873403639148},
{"position":450.8958333333333,"instrument":"TheGrandeurPiano","level2":20,"level3":null,"pitch":66,"articulation":"standard","articulation_tags":["standard","long"],"duration":0.8888888888888888,"velocity":67.32275269817801},
{"position":451.0,"instrument":"TheGrandeurPiano","level2":20,"level3":null,"pitch":66,"articulation":"standard","articulation_tags":["standard","long"],"duration":0.3541666666666667,"velocity":67.32275269817801},
{"position":451.53125,"instrument":"TheGrandeurPiano","level2":20,"level3":null,"pitch":67,"articulation":"standard","articulation_tags":["standard","long"],"duration":0.3541666666666667,"velocity":63.77856492586646},
{"position":452.0625,"instrument":"TheGrandeurPiano","level2":20,"level3":null,"pitch":67,"articulation":"standard","articulation_tags":["standard","long"],"duration":0.3541666666666667,"velocity":63.954579475411926},
{"position":452.2291666666667,"instrument":"TheGrandeurPiano","level2":20,"level3":null,"pitch":67,"articulation":"standard","articulation_tags":["standard","long"],"duration":2.0069444444444446,"velocity":64.82175697008863},
{"position":452.5833333333333,"instrument":"TheGrandeurPiano","level2":20,"level3":null,"pitch":68,"articulation":"standard","articulation_tags":["standard","long"],"duration":0.3541666666666667,"velocity":64.82175697008863},
{"position":452.9895833333333,"instrument":"Trumpet","level2":20,"level3":6,"pitch":62,"articulation":"staccato_muted","articulation_tags":["staccato_muted","stmt","short","staccato","muted"],"duration":0.25,"velocity":91.71120722713154},
{"position":453.1145833333333,"instrument":"TheGrandeurPiano","level2":20,"level3":null,"pitch":68,"articulation":"standard","articulation_tags":["standard","long"],"duration":0.3541666666666667,"velocity":62.62352169581035},
{"position":453.6458333333333,"instrument":"TheGrandeurPiano","level2":20,"level3":null,"pitch":69,"articulation":"standard","articulation_tags":["standard","long"],"duration":0.3541666666666667,"velocity":63.89557811876306},
{"position":454.1770833333333,"instrument":"TheGrandeurPiano","level2":20,"level3":null,"pitch":69,"articulation":"standard","articulation_tags":["standard","long"],"duration":0.3541666666666667,"velocity":62.8088681031765},
{"position":454.7083333333333,"instrument":"TheGrandeurPiano","level2":20,"level3":null,"pitch":70,"articulation":"standard","articulation_tags":["standard","long"],"duration":0.3541666666666667,"velocity":62.43690138499592},
{"position":455.2395833333333,"instrument":"TheGrandeurPiano","level2":20,"level3":null,"pitch":70,"articulation":"standard","articulation_tags":["standard","long"],"duration":0.9583333333333334,"velocity":60.585761219101315},
{"position":455.2395833333333,"instrument":"TheGrandeurPiano","level2":20,"level3":null,"pitch":70,"articulation":"standard","articulation_tags":["standard","long"],"duration":0.3611111111111111,"velocity":60.585761219101315},
{"position":455.7708333333333,"instrument":"TheGrandeurPiano","level2":20,"level3":null,"pitch":71,"articulation":"standard","articulation_tags":["standard","long"],"duration":0.3611111111111111,"velocity":58.68166537568348},
{"position":456.3229166666667,"instrument":"TheGrandeurPiano","level2":20,"level3":null,"pitch":71,"articulation":"standard","articulation_tags":["standard","long"],"duration":0.3680555555555556,"velocity":59.96771264101004},
{"position":456.6666666666667,"instrument":"TheGrandeurPiano","level2":20,"level3":null,"pitch":71,"articulation":"standard","articulation_tags":["standard","long"],"duration":0.7222222222222222,"velocity":59.195089067358765},
{"position":456.875,"instrument":"TheGrandeurPiano","level2":20,"level3":null,"pitch":72,"articulation":"standard","articulation_tags":["standard","long"],"duration":0.375,"velocity":59.195089067358765},
{"position":457.1666666666667,"instrument":"TenorTrombone","level2":20,"level3":9,"pitch":63,"articulation":"staccato","articulation_tags":["staccato","st","short"],"duration":0.25,"velocity":89.75976101688399},
{"position":457.4270833333333,"instrument":"TheGrandeurPiano","level2":20,"level3":null,"pitch":72,"articulation":"standard","articulation_tags":["standard","long"],"duration":0.3819444444444444,"velocity":58.53075115416327},
{"position":457.7291666666667,"instrument":"TenorTrombone","level2":20,"level3":0,"pitch":61,"articulation":"staccato","articulation_tags":["staccato","st","short"],"duration":0.25,"velocity":89.77178302297511},
{"position":457.7604166666667,"instrument":"TheGrandeurPiano","level2":20,"level3":null,"pitch":72,"articulation":"standard","articulation_tags":["standard","long"],"duration":0.6041666666666666,"velocity":55.421004068224704},
{"position":458.0,"instrument":"TheGrandeurPiano","level2":20,"level3":null,"pitch":73,"articulation":"standard","articulation_tags":["standard","long"],"duration":0.3888888888888889,"velocity":55.421004068224704},
{"position":458.59375,"instrument":"TheGrandeurPiano","level2":20,"level3":null,"pitch":73,"articulation":"standard","articulation_tags":["standard","long"],"duration":0.4027777777777778,"velocity":55.68402425702589},
{"position":458.6666666666667,"instrument":"TheGrandeurPiano","level2":20,"level3":null,"pitch":73,"articulation":"standard","articulation_tags":["standard","long"],"duration":0.5277777777777778,"velocity":56.74656192528931},
{"position":459.1979166666667,"instrument":"TheGrandeurPiano","level2":20,"level3":null,"pitch":74,"articulation":"standard","articulation_tags":["standard","long"],"duration":0.4236111111111111,"velocity":53.761169027679685},
{"position":459.4583333333333,"instrument":"TheGrandeurPiano","level2":20,"level3":null,"pitch":74,"articulation":"standard","articulation_tags":["standard","long"],"duration":0.4722222222222222,"velocity":55.47200271220541},
{"position":459.8333333333333,"instrument":"TheGrandeurPiano","level2":20,"level3":null,"pitch":74,"articulation":"standard","articulation_tags":["standard","long"],"duration":0.4444444444444444,"velocity":52.831228880383335},
{"position":460.15625,"instrument":"TheGrandeurPiano","level2":20,"level3":null,"pitch":74,"articulation":"standard","articulation_tags":["standard","long"],"duration":0.4305555555555556,"velocity":55.21283621744827},
{"position":460.5,"instrument":"TheGrandeurPiano","level2":20,"level3":null,"pitch":75,"articulation":"standard","articulation_tags":["standard","long"],"duration":0.4791666666666667,"velocity":55.21283621744827},
{"position":460.8020833333333,"instrument":"TheGrandeurPiano","level2":20,"level3":null,"pitch":75,"articulation":"standard","articulation_tags":["standard","long"],"duration":0.3958333333333333,"velocity":56.060238006323054},
{"position":461.21875,"instrument":"TheGrandeurPiano","level2":20,"level3":null,"pitch":75,"articulation":"standard","articulation_tags":["standard","long"],"duration":0.5347222222222222,"velocity":54.643521968856156},
{"position":461.3958333333333,"instrument":"TheGrandeurPiano","level2":20,"level3":null,"pitch":75,"articulation":"standard","articulation_tags":["standard","long"],"duration":0.3680555555555556,"velocity":54.937639615914975},
{"position":461.9479166666667,"instrument":"TheGrandeurPiano","level2":20,"level3":null,"pitch":75,"articulation":"standard","articulation_tags":["standard","long"],"duration":0.3472222222222222,"velocity":54.32238452073497},
{"position":462.0208333333333,"instrument":"TheGrandeurPiano","level2":20,"level3":null,"pitch":76,"articulation":"standard","articulation_tags":["standard","long"],"duration":0.625,"velocity":54.32238452073497},
{"position":462.2395833333333,"instrument":"CorAnglais","level2":20,"level3":4,"pitch":62,"articulation":"marcato","articulation_tags":["marcato","short"],"duration":0.125,"velocity":86.25194094767448},
{"position":462.46875,"instrument":"TheGrandeurPiano","level2":20,"level3":null,"pitch":76,"articulation":"standard","articulation_tags":["standard","long"],"duration":0.3263888888888889,"velocity":54.30181711567745},
{"position":462.9583333333333,"instrument":"TheGrandeurPiano","level2":20,"level3":null,"pitch":76,"articulation":"standard","articulation_tags":["standard","long"],"duration":0.3125,"velocity":54.91061981485262},
{"position":462.9583333333333,"instrument":"TheGrandeurPiano","level2":20,"level3":null,"pitch":76,"articulation":"standard","articulation_tags":["standard","long"],"duration":0.8888888888888888,"velocity":54.91061981485262},
{"position":463.4270833333333,"instrument":"TheGrandeurPiano","level2":20,"level3":null,"pitch":76,"articulation":"standard","articulation_tags":["standard","long"],"duration":0.2986111111111111,"velocity":56.11411020415027},
{"position":463.8645833333333,"instrument":"TheGrandeurPiano","level2":20,"level3":null,"pitch":76,"articulation":"standard","articulation_tags":["standard","long"],"duration":0.2847222222222222,"velocity":56.4082278512091},
{"position":463.9791666666667,"instrument":"TenorTrombone","level2":20,"level3":3,"pitch":64,"articulation":"staccato_muted","articulation_tags":["staccato_muted","stmt","short","staccato","muted"],"duration":0.25,"velocity":84.1689088382931},
{"position":464.2916666666667,"instrument":"TheGrandeurPiano","level2":20,"level3":null,"pitch":77,"articulation":"standard","articulation_tags":["standard","long"],"duration":1.6111111111111112,"velocity":57.82494388867599},
{"position":464.2916666666667,"instrument":"TheGrandeurPiano","level2":20,"level3":null,"pitch":77,"articulation":"standard","articulation_tags":["standard","long"],"duration":0.2708333333333333,"velocity":58.119061535734815},
{"position":464.7083333333333,"instrument":"TheGrandeurPiano","level2":20,"level3":null,"pitch":77,"articulation":"standard","articulation_tags":["standard","long"],"duration":0.2638888888888889,"velocity":60.23154888502391},
{"position":465.1041666666667,"instrument":"TheGrandeurPiano","level2":20,"level3":null,"pitch":77,"articulation":"standard","articulation_tags":["standard","long"],"duration":0.2569444444444444,"velocity":58.15401268803649},
{"position":465.4895833333333,"instrument":"TheGrandeurPiano","level2":20,"level3":null,"pitch":77,"articulation":"standard","articulation_tags":["standard","long"],"duration":0.25,"velocity":60.81978417914156},
{"position":465.6979166666667,"instrument":"TenorTrombone","level2":20,"level3":4,"pitch":62,"articulation":"staccato","articulation_tags":["staccato","st","short"],"duration":0.25,"velocity":82.41666564479864},
{"position":465.8645833333333,"instrument":"TheGrandeurPiano","level2":20,"level3":null,"pitch":77,"articulation":"standard","articulation_tags":["standard","long"],"duration":0.24305555555555555,"velocity":62.08344829495465},
{"position":466.2291666666667,"instrument":"TheGrandeurPiano","level2":20,"level3":null,"pitch":77,"articulation":"standard","articulation_tags":["standard","long"],"duration":0.2361111111111111,"velocity":62.377565942013476},
{"position":466.2395833333333,"instrument":"TenorTrombone","level2":20,"level3":9,"pitch":63,"articulation":"staccato","articulation_tags":["staccato","st","short"],"duration":0.25,"velocity":81.47447022836603},
{"position":466.5833333333333,"instrument":"TheGrandeurPiano","level2":20,"level3":null,"pitch":77,"articulation":"standard","articulation_tags":["standard","long"],"duration":0.2361111111111111,"velocity":61.45244427823049},
{"position":466.6979166666667,"instrument":"TheGrandeurPiano","level2":20,"level3":null,"pitch":76,"articulation":"standard","articulation_tags":["standard","long"],"duration":0.6875,"velocity":61.45244427823049},
{"position":466.9375,"instrument":"TheGrandeurPiano","level2":20,"level3":null,"pitch":76,"articulation":"standard","articulation_tags":["standard","long"],"duration":0.22916666666666666,"velocity":64.83554598557484},
{"position":467.2604166666667,"instrument":"TenorTrombone","level2":20,"level3":4,"pitch":63,"articulation":"staccato","articulation_tags":["staccato","st","short"],"duration":0.25,"velocity":80.08109381539522},
{"position":467.28125,"instrument":"TheGrandeurPiano","level2":20,"level3":null,"pitch":76,"articulation":"standard","articulation_tags":["standard","long"],"duration":0.22916666666666666,"velocity":64.44064436836238},
{"position":467.6354166666667,"instrument":"TheGrandeurPiano","level2":20,"level3":null,"pitch":76,"articulation":"standard","articulation_tags":["standard","long"],"duration":0.22916666666666666,"velocity":64.75436985855848},
{"position":467.7291666666667,"instrument":"TheGrandeurPiano","level2":20,"level3":null,"pitch":76,"articulation":"standard","articulation_tags":["standard","long"],"duration":0.4236111111111111,"velocity":64.75436985855848},
{"position":467.9791666666667,"instrument":"TheGrandeurPiano","level2":20,"level3":null,"pitch":76,"articulation":"standard","articulation_tags":["standard","long"],"duration":0.22916666666666666,"velocity":64.82718414764696},
{"position":468.3020833333333,"instrument":"TenorTrombone","level2":20,"level3":5,"pitch":64,"articulation":"staccato","articulation_tags":["staccato","st","short"],"duration":0.25,"velocity":78.33933154705757},
{"position":468.3229166666667,"instrument":"TheGrandeurPiano","level2":20,"level3":null,"pitch":76,"articulation":"standard","articulation_tags":["standard","long"],"duration":0.2361111111111111,"velocity":65.14090963784304},
{"position":468.375,"instrument":"TheGrandeurPiano","level2":20,"level3":null,"pitch":75,"articulation":"standard","articulation_tags":["standard","long"],"duration":0.3333333333333333,"velocity":65.38182083895063},
{"position":468.6770833333333,"instrument":"TheGrandeurPiano","level2":20,"level3":null,"pitch":75,"articulation":"standard","articulation_tags":["standard","long"],"duration":0.24305555555555555,"velocity":65.69554632914671},
{"position":468.875,"instrument":"TheGrandeurPiano","level2":20,"level3":null,"pitch":75,"articulation":"standard","articulation_tags":["standard","long"],"duration":0.2847222222222222,"velocity":65.69554632914671},
{"position":469.03125,"instrument":"TheGrandeurPiano","level2":20,"level3":null,"pitch":75,"articulation":"standard","articulation_tags":["standard","long"],"duration":0.25,"velocity":66.7178989267513},
{"position":469.2916666666667,"instrument":"TheGrandeurPiano","level2":20,"level3":null,"pitch":74,"articulation":"standard","articulation_tags":["standard","long"],"duration":0.25,"velocity":66.7178989267513},
{"position":469.40625,"instrument":"TheGrandeurPiano","level2":20,"level3":null,"pitch":74,"articulation":"standard","articulation_tags":["standard","long"],"duration":0.2638888888888889,"velocity":67.0316244169474},
{"position":469.6666666666667,"instrument":"TheGrandeurPiano","level2":20,"level3":null,"pitch":74,"articulation":"standard","articulation_tags":["standard","long"],"duration":0.22916666666666666,"velocity":68.16948171903816},
{"position":469.8020833333333,"instrument":"TheGrandeurPiano","level2":20,"level3":null,"pitch":74,"articulation":"standard","articulation_tags":["standard","long"],"duration":0.2847222222222222,"velocity":68.48320720923424},
{"position":469.8854166666667,"instrument":"Trumpet","level2":20,"level3":2,"pitch":60,"articulation":"staccato","articulation_tags":["staccato","st","short"],"duration":0.25,"velocity":74.92228745138083},
{"position":470.0104166666667,"instrument":"TheGrandeurPiano","level2":20,"level3":null,"pitch":73,"articulation":"standard","articulation_tags":["standard","long"],"duration":0.20833333333333334,"velocity":68.48320720923424},
{"position":470.2291666666667,"instrument":"TheGrandeurPiano","level2":20,"level3":null,"pitch":73,"articulation":"standard","articulation_tags":["standard","long"],"duration":0.3194444444444444,"velocity":70.31046109803405},
{"position":470.3229166666667,"instrument":"TheGrandeurPiano","level2":20,"level3":null,"pitch":73,"articulation":"standard","articulation_tags":["standard","long"],"duration":0.19444444444444445,"velocity":70.31046109803405},
{"position":470.6145833333333,"instrument":"TheGrandeurPiano","level2":20,"level3":null,"pitch":72,"articulation":"standard","articulation_tags":["standard","long"],"duration":0.1875,"velocity":70.31046109803405},
{"position":470.7083333333333,"instrument":"TheGrandeurPiano","level2":20,"level3":null,"pitch":72,"articulation":"standard","articulation_tags":["standard","long"],"duration":0.3819444444444444,"velocity":70.62418658823013},
{"position":470.8958333333333,"instrument":"TheGrandeurPiano","level2":20,"level3":null,"pitch":72,"articulation":"standard","articulation_tags":["standard","long"],"duration":0.18055555555555555,"velocity":69.76991000625709},
{"position":471.1770833333333,"instrument":"TheGrandeurPiano","level2":20,"level3":null,"pitch":71,"articulation":"standard","articulation_tags":["standard","long"],"duration":0.1736111111111111,"velocity":69.76991000625709},
{"position":471.28125,"instrument":"TheGrandeurPiano","level2":20,"level3":null,"pitch":71,"articulation":"standard","articulation_tags":["standard","long"],"duration":0.5555555555555556,"velocity":70.08363549645317},
{"position":471.4375,"instrument":"TheGrandeurPiano","level2":20,"level3":null,"pitch":71,"articulation":"standard","articulation_tags":["standard","long"],"duration":0.1736111111111111,"velocity":70.08363549645317},
{"position":471.6979166666667,"instrument":"TheGrandeurPiano","level2":20,"level3":null,"pitch":70,"articulation":"standard","articulation_tags":["standard","long"],"duration":0.1736111111111111,"velocity":72.37191049693682},
{"position":471.9583333333333,"instrument":"TheGrandeurPiano","level2":20,"level3":null,"pitch":70,"articulation":"standard","articulation_tags":["standard","long"],"duration":0.16666666666666666,"velocity":70.08363549645317},
{"position":472.1145833333333,"instrument":"TheGrandeurPiano","level2":20,"level3":null,"pitch":70,"articulation":"standard","articulation_tags":["standard","long"],"duration":1.9652777777777777,"velocity":70.39736098664925},
{"position":472.2083333333333,"instrument":"TheGrandeurPiano","level2":20,"level3":null,"pitch":69,"articulation":"standard","articulation_tags":["standard","long"],"duration":0.16666666666666666,"velocity":70.39736098664925},
{"position":472.4583333333333,"instrument":"TheGrandeurPiano","level2":20,"level3":null,"pitch":69,"articulation":"standard","articulation_tags":["standard","long"],"duration":0.1736111111111111,"velocity":70.39736098664925},
{"position":472.71875,"instrument":"TheGrandeurPiano","level2":20,"level3":null,"pitch":68,"articulation":"standard","articulation_tags":["standard","long"],"duration":0.1736111111111111,"velocity":71.2516375686223},
{"position":472.9791666666667,"instrument":"TheGrandeurPiano","level2":20,"level3":null,"pitch":68,"articulation":"standard","articulation_tags":["standard","long"],"duration":0.1736111111111111,"velocity":71.2516375686223},
{"position":473.2395833333333,"instrument":"TheGrandeurPiano","level2":20,"level3":null,"pitch":67,"articulation":"standard","articulation_tags":["standard","long"],"duration":0.3402777777777778,"velocity":71.2516375686223},
{"position":473.5104166666667,"instrument":"Trumpet","level2":20,"level3":6,"pitch":62,"articulation":"staccato_muted","articulation_tags":["staccato_muted","stmt","short","staccato","muted"],"duration":0.25,"velocity":79.2971186035423},
{"position":473.7604166666667,"instrument":"TheGrandeurPiano","level2":20,"level3":null,"pitch":67,"articulation":"standard","articulation_tags":["standard","long"],"duration":0.4027777777777778,"velocity":69.73810917001855},
{"position":474.3645833333333,"instrument":"TheGrandeurPiano","level2":20,"level3":null,"pitch":66,"articulation":"standard","articulation_tags":["standard","long"],"duration":0.4097222222222222,"velocity":71.87521747318351},
{"position":474.9791666666667,"instrument":"TheGrandeurPiano","level2":20,"level3":null,"pitch":66,"articulation":"standard","articulation_tags":["standard","long"],"duration":0.4166666666666667,"velocity":71.2516375686223},
{"position":475.0625,"instrument":"TheGrandeurPiano","level2":20,"level3":null,"pitch":66,"articulation":"standard","articulation_tags":["standard","long"],"duration":1.1111111111111112,"velocity":70.93791207842621},
{"position":475.6041666666667,"instrument":"TheGrandeurPiano","level2":20,"level3":null,"pitch":65,"articulation":"standard","articulation_tags":["standard","long"],"duration":0.4305555555555556,"velocity":67.33698806921558},
{"position":475.6770833333333,"instrument":"Trumpet","level2":20,"level3":3,"pitch":64,"articulation":"staccato_muted","articulation_tags":["staccato_muted","stmt","short","staccato","muted"],"duration":0.25,"velocity":81.57309374154805},
{"position":476.25,"instrument":"TheGrandeurPiano","level2":20,"level3":null,"pitch":65,"articulation":"standard","articulation_tags":["standard","long"],"duration":0.4444444444444444,"velocity":67.57789927032317},
{"position":476.7291666666667,"instrument":"TheGrandeurPiano","level2":20,"level3":null,"pitch":65,"articulation":"standard","articulation_tags":["standard","long"],"duration":0.7708333333333334,"velocity":67.97280088753563},
{"position":476.9166666666667,"instrument":"TheGrandeurPiano","level2":20,"level3":null,"pitch":64,"articulation":"standard","articulation_tags":["standard","long"],"duration":0.4652777777777778,"velocity":67.97280088753563},
{"position":477.3541666666667,"instrument":"Trumpet","level2":20,"level3":0,"pitch":61,"articulation":"staccato","articulation_tags":["staccato","st","short"],"duration":0.25,"velocity":82.70416476448575},
{"position":477.6145833333333,"instrument":"TheGrandeurPiano","level2":20,"level3":null,"pitch":64,"articulation":"standard","articulation_tags":["standard","long"],"duration":0.4930555555555556,"velocity":66.03410955383399},
{"position":477.8854166666667,"instrument":"TheGrandeurPiano","level2":20,"level3":null,"pitch":64,"articulation":"standard","articulation_tags":["standard","long"],"duration":0.6388888888888888,"velocity":65.72038406363791},
{"position":478.3541666666667,"instrument":"TheGrandeurPiano","level2":20,"level3":null,"pitch":63,"articulation":"standard","articulation_tags":["standard","long"],"duration":0.5277777777777778,"velocity":62.82494388867599},
{"position":478.8333333333333,"instrument":"TheGrandeurPiano","level2":20,"level3":null,"pitch":63,"articulation":"standard","articulation_tags":["standard","long"],"duration":0.5555555555555556,"velocity":64.37247567343726},
{"position":479.1458333333333,"instrument":"TheGrandeurPiano","level2":20,"level3":null,"pitch":63,"articulation":"standard","articulation_tags":["standard","long"],"duration":0.5833333333333334,"velocity":61.977542099801205},
{"position":479.3020833333333,"instrument":"Cello","level2":20,"level3":1,"pitch":65,"articulation":"collegno","articulation_tags":["collegno","cl","short"],"duration":0.125,"velocity":84.52572350218784},
{"position":479.6770833333333,"instrument":"TheGrandeurPiano","level2":20,"level3":null,"pitch":63,"articulation":"standard","articulation_tags":["standard","long"],"duration":0.5069444444444444,"velocity":59.59593476273628},
{"position":480.0208333333333,"instrument":"TheGrandeurPiano","level2":20,"level3":null,"pitch":62,"articulation":"standard","articulation_tags":["standard","long"],"duration":0.6736111111111112,"velocity":59.59593476273628},
{"position":480.4375,"instrument":"TheGrandeurPiano","level2":20,"level3":null,"pitch":62,"articulation":"standard","articulation_tags":["standard","long"],"duration":0.4722222222222222,"velocity":60.52587491003263},
{"position":480.53125,"instrument":"Cello","level2":20,"level3":6,"pitch":63,"articulation":"collegno","articulation_tags":["collegno","cl","short"],"duration":0.125,"velocity":85.19181751206881},
{"position":481.0208333333333,"instrument":"TheGrandeurPiano","level2":20,"level3":null,"pitch":62,"articulation":"standard","articulation_tags":["standard","long"],"duration":0.8472222222222222,"velocity":60.52587491003263},
{"position":481.1354166666667,"instrument":"TheGrandeurPiano","level2":20,"level3":null,"pitch":62,"articulation":"standard","articulation_tags":["standard","long"],"duration":0.4444444444444444,"velocity":59.322384520734985},
{"position":481.25,"instrument":"Cello","level2":20,"level3":3,"pitch":63,"articulation":"collegno","articulation_tags":["collegno","cl","short"],"duration":0.125,"velocity":85.90788314657101},
{"position":481.8020833333333,"instrument":"TheGrandeurPiano","level2":20,"level3":null,"pitch":62,"articulation":"standard","articulation_tags":["standard","long"],"duration":0.4236111111111111,"velocity":55.535571339600786},
{"position":482.2916666666667,"instrument":"TheGrandeurPiano","level2":20,"level3":null,"pitch":61,"articulation":"standard","articulation_tags":["standard","long"],"duration":1.75,"velocity":55.535571339600786},
{"position":482.4270833333333,"instrument":"TheGrandeurPiano","level2":20,"level3":null,"pitch":61,"articulation":"standard","articulation_tags":["standard","long"],"duration":0.4027777777777778,"velocity":55.24145369254196},
{"position":482.7708333333333,"instrument":"Cello","level2":20,"level3":6,"pitch":63,"articulation":"collegno","articulation_tags":["collegno","cl","short"],"duration":0.125,"velocity":86.7602662364013},
{"position":483.0416666666667,"instrument":"TheGrandeurPiano","level2":20,"level3":null,"pitch":61,"articulation":"standard","articulation_tags":["standard","long"],"duration":0.3888888888888889,"velocity":55.338567014084184},
{"position":483.2916666666667,"instrument":"CorAnglais","level2":20,"level3":5,"pitch":64,"articulation":"tenuto","articulation_tags":["tenuto","t","short"],"duration":0.125,"velocity":86.9},
{"position":483.625,"instrument":"TheGrandeurPiano","level2":20,"level3":null,"pitch":61,"articulation":"standard","articulation_tags":["standard","long"],"duration":0.3819444444444444,"velocity":53.3996562172535},
{"position":484.1979166666667,"instrument":"TheGrandeurPiano","level2":20,"level3":null,"pitch":61,"articulation":"standard","articulation_tags":["standard","long"],"duration":0.375,"velocity":53.105538570194675},
{"position":484.7604166666667,"instrument":"TheGrandeurPiano","level2":20,"level3":null,"pitch":61,"articulation":"standard","articulation_tags":["standard","long"],"duration":0.3680555555555556,"velocity":52.811420923135856},
{"position":484.9166666666667,"instrument":"TheGrandeurPiano","level2":20,"level3":null,"pitch":61,"articulation":"standard","articulation_tags":["standard","long"],"duration":0.4583333333333333,"velocity":52.811420923135856},
{"position":485.3125,"instrument":"TheGrandeurPiano","level2":20,"level3":null,"pitch":61,"articulation":"standard","articulation_tags":["standard","long"],"duration":0.3680555555555556,"velocity":51.108575080291715},
{"position":485.6145833333333,"instrument":"TheGrandeurPiano","level2":20,"level3":null,"pitch":61,"articulation":"standard","articulation_tags":["standard","long"],"duration":1.6875,"velocity":51.108575080291715},
{"position":485.8645833333333,"instrument":"TheGrandeurPiano","level2":20,"level3":null,"pitch":61,"articulation":"standard","articulation_tags":["standard","long"],"duration":0.3611111111111111,"velocity":50.81445743323289},
{"position":486.40625,"instrument":"TheGrandeurPiano","level2":20,"level3":null,"pitch":61,"articulation":"standard","articulation_tags":["standard","long"],"duration":0.3611111111111111,"velocity":50.00461968117117},
{"position":486.9583333333333,"instrument":"TheGrandeurPiano","level2":20,"level3":null,"pitch":61,"articulation":"standard","articulation_tags":["standard","long"],"duration":0.3680555555555556,"velocity":50.226222139115244},
{"position":487.3020833333333,"instrument":"CorAnglais","level2":20,"level3":0,"pitch":62,"articulation":"tenuto","articulation_tags":["tenuto","t","short"],"duration":0.125,"velocity":88.62581356659872},
{"position":487.5,"instrument":"TheGrandeurPiano","level2":20,"level3":null,"pitch":61,"articulation":"standard","articulation_tags":["standard","long"],"duration":0.3680555555555556,"velocity":51.34083268784174},
{"position":488.0625,"instrument":"TheGrandeurPiano","level2":20,"level3":null,"pitch":61,"articulation":"standard","articulation_tags":["standard","long"],"duration":0.375,"velocity":51.04671504078292},
{"position":488.1354166666667,"instrument":"TheGrandeurPiano","level2":20,"level3":null,"pitch":62,"articulation":"standard","articulation_tags":["standard","long"],"duration":0.7847222222222222,"velocity":51.04671504078292},
{"position":488.625,"instrument":"TheGrandeurPiano","level2":20,"level3":null,"pitch":62,"articulation":"standard","articulation_tags":["standard","long"],"duration":0.3888888888888889,"velocity":52.77727422190973},
{"position":489.2083333333333,"instrument":"TheGrandeurPiano","level2":20,"level3":null,"pitch":62,"articulation":"standard","articulation_tags":["standard","long"],"duration":0.3958333333333333,"velocity":53.21249494173448},
{"position":489.3125,"instrument":"TheGrandeurPiano","level2":20,"level3":null,"pitch":62,"articulation":"standard","articulation_tags":["standard","long"],"duration":0.6041666666666666,"velocity":53.21249494173448},
{"position":489.8020833333333,"instrument":"TheGrandeurPiano","level2":20,"level3":null,"pitch":62,"articulation":"standard","articulation_tags":["standard","long"],"duration":0.4166666666666667,"velocity":52.91837729467565},
{"position":490.21875,"instrument":"TheGrandeurPiano","level2":20,"level3":null,"pitch":63,"articulation":"standard","articulation_tags":["standard","long"],"duration":0.5138888888888888,"velocity":51.80915524937831},
{"position":490.4270833333333,"instrument":"TheGrandeurPiano","level2":20,"level3":null,"pitch":63,"articulation":"standard","articulation_tags":["standard","long"],"duration":0.4375,"velocity":54.616502167793804},
{"position":490.875,"instrument":"Cello","level2":20,"level3":5,"pitch":63,"articulation":"pizzicato","articulation_tags":["pizzicato","pz","short"],"duration":0.125,"velocity":89.41945930455417},
{"position":491.0,"instrument":"TheGrandeurPiano","level2":20,"level3":null,"pitch":63,"articulation":"standard","articulation_tags":["standard","long"],"duration":0.4583333333333333,"velocity":54.616502167793804},
{"position":491.0833333333333,"instrument":"TheGrandeurPiano","level2":20,"level3":null,"pitch":63,"articulation":"standard","articulation_tags":["standard","long"],"duration":0.4722222222222222,"velocity":54.32238452073497},
{"position":491.6875,"instrument":"TheGrandeurPiano","level2":20,"level3":null,"pitch":64,"articulation":"standard","articulation_tags":["standard","long"],"duration":0.4236111111111111,"velocity":54.007699468618625},
{"position":491.78125,"instrument":"TheGrandeurPiano","level2":20,"level3":null,"pitch":64,"articulation":"standard","articulation_tags":["standard","long"],"duration":0.5138888888888888,"velocity":53.713581821559806},
{"position":492.3229166666667,"instrument":"TheGrandeurPiano","level2":20,"level3":null,"pitch":64,"articulation":"standard","articulation_tags":["standard","long"],"duration":0.3958333333333333,"velocity":54.02826687367615},
{"position":492.5520833333333,"instrument":"TheGrandeurPiano","level2":20,"level3":null,"pitch":64,"articulation":"standard","articulation_tags":["standard","long"],"duration":0.5833333333333334,"velocity":53.734149226617326},
{"position":492.8125,"instrument":"Cello","level2":20,"level3":0,"pitch":62,"articulation":"pizzicato","articulation_tags":["pizzicato","pz","short"],"duration":0.125,"velocity":89.63904842672491},
{"position":492.9166666666667,"instrument":"TheGrandeurPiano","level2":20,"level3":null,"pitch":65,"articulation":"standard","articulation_tags":["standard","long"],"duration":0.375,"velocity":54.643521968856156},
{"position":493.21875,"instrument":"Cello","level2":20,"level3":2,"pitch":61,"articulation":"pizzicato","articulation_tags":["pizzicato","pz","short"],"duration":0.125,"velocity":89.28376209662154},
{"position":493.4375,"instrument":"TheGrandeurPiano","level2":20,"level3":null,"pitch":65,"articulation":"standard","articulation_tags":["standard","long"],"duration":0.7152777777777778,"velocity":54.34940432179734},
{"position":493.4791666666667,"instrument":"TheGrandeurPiano","level2":20,"level3":null,"pitch":65,"articulation":"standard","articulation_tags":["standard","long"],"duration":0.3611111111111111,"velocity":54.34940432179734},
{"position":494.0104166666667,"instrument":"TheGrandeurPiano","level2":20,"level3":null,"pitch":66,"articulation":"standard","articulation_tags":["standard","long"],"duration":0.3472222222222222,"velocity":55.76612035926423},
{"position":494.5104166666667,"instrument":"Trumpet","level2":20,"level3":5,"pitch":63,"articulation":"staccato","articulation_tags":["staccato","st","short"],"duration":0.25,"velocity":89.17186319929252},
{"position":494.5104166666667,"instrument":"TheGrandeurPiano","level2":20,"level3":null,"pitch":66,"articulation":"standard","articulation_tags":["standard","long"],"duration":1.0763888888888888,"velocity":55.47200271220541},
{"position":494.53125,"instrument":"TheGrandeurPiano","level2":20,"level3":null,"pitch":66,"articulation":"standard","articulation_tags":["standard","long"],"duration":0.3333333333333333,"velocity":55.47200271220541},
{"position":495.0416666666667,"instrument":"TheGrandeurPiano","level2":20,"level3":null,"pitch":67,"articulation":"standard","articulation_tags":["standard","long"],"duration":0.3263888888888889,"velocity":57.29037241443568},
{"position":495.1041666666667,"instrument":"TenorTrombone","level2":20,"level3":0,"pitch":63,"articulation":"staccato","articulation_tags":["staccato","st","short"],"duration":0.25,"velocity":89.18433583413528},
{"position":495.53125,"instrument":"TheGrandeurPiano","level2":20,"level3":null,"pitch":67,"articulation":"standard","articulation_tags":["standard","long"],"duration":0.3263888888888889,"velocity":54.918718570389444},
{"position":496.0208333333333,"instrument":"TheGrandeurPiano","level2":20,"level3":null,"pitch":68,"articulation":"standard","articulation_tags":["standard","long"],"duration":0.3194444444444444,"velocity":57.29037241443568},
{"position":496.125,"instrument":"TheGrandeurPiano","level2":20,"level3":null,"pitch":68,"articulation":"standard","articulation_tags":["standard","long"],"duration":2.0708661417322833,"velocity":56.996254767376854},
{"position":496.5,"instrument":"TheGrandeurPiano","level2":20,"level3":null,"pitch":68,"articulation":"standard","articulation_tags":["standard","long"],"duration":0.3194444444444444,"velocity":55.177885065146576},
{"position":496.9791666666667,"instrument":"TheGrandeurPiano","level2":20,"level3":null,"pitch":69,"articulation":"standard","articulation_tags":["standard","long"],"duration":0.3194444444444444,"velocity":55.177885065146576},
{"position":497.3229166666667,"instrument":"TenorTrombone","level2":20,"level3":1,"pitch":65,"articulation":"staccato_muted","articulation_tags":["staccato_muted","stmt","short","staccato","muted"],"duration":0.25,"velocity":88.9709335661338},
{"position":497.4479166666667,"instrument":"TheGrandeurPiano","level2":20,"level3":null,"pitch":69,"articulation":"standard","articulation_tags":["standard","long"],"duration":0.3194444444444444,"velocity":55.177885065146576},
{"position":497.9270833333333,"instrument":"TheGrandeurPiano","level2":20,"level3":null,"pitch":70,"articulation":"standard","articulation_tags":["standard","long"],"duration":0.3194444444444444,"velocity":53.761169027679685},
{"position":498.40625,"instrument":"TheGrandeurPiano","level2":20,"level3":null,"pitch":70,"articulation":"standard","articulation_tags":["standard","long"],"duration":0.3194444444444444,"velocity":56.74656192528931},
{"position":498.8854166666667,"instrument":"TheGrandeurPiano","level2":20,"level3":null,"pitch":71,"articulation":"standard","articulation_tags":["standard","long"],"duration":0.3263888888888889,"velocity":55.978141904084715},
{"position":499.3854166666667,"instrument":"TheGrandeurPiano","level2":20,"level3":null,"pitch":71,"articulation":"standard","articulation_tags":["standard","long"],"duration":0.3333333333333333,"velocity":55.978141904084715},
{"position":499.5416666666667,"instrument":"TheGrandeurPiano","level2":20,"level3":null,"pitch":71,"articulation":"standard","articulation_tags":["standard","long"],"duration":1.1180555555555556,"velocity":52.831228880383335},
{"position":499.8854166666667,"instrument":"TheGrandeurPiano","level2":20,"level3":null,"pitch":72,"articulation":"standard","articulation_tags":["standard","long"],"duration":0.3402777777777778,"velocity":52.831228880383335},
{"position":500.3958333333333,"instrument":"TheGrandeurPiano","level2":20,"level3":null,"pitch":72,"articulation":"standard","articulation_tags":["standard","long"],"duration":0.3541666666666667,"velocity":52.831228880383335},
{"position":500.9166666666667,"instrument":"TheGrandeurPiano","level2":20,"level3":null,"pitch":73,"articulation":"standard","articulation_tags":["standard","long"],"duration":0.3680555555555556,"velocity":53.14591393249968},
{"position":501.2291666666667,"instrument":"TheGrandeurPiano","level2":20,"level3":null,"pitch":73,"articulation":"standard","articulation_tags":["standard","long"],"duration":0.7569444444444444,"velocity":53.44003157955851},
{"position":501.46875,"instrument":"TheGrandeurPiano","level2":20,"level3":null,"pitch":73,"articulation":"standard","articulation_tags":["standard","long"],"duration":0.3819444444444444,"velocity":53.44003157955851},
{"position":502.0416666666667,"instrument":"TheGrandeurPiano","level2":20,"level3":null,"pitch":74,"articulation":"standard","articulation_tags":["standard","long"],"duration":0.4027777777777778,"velocity":51.447789059381535},
{"position":502.3645833333333,"instrument":"TheGrandeurPiano","level2":20,"level3":null,"pitch":74,"articulation":"standard","articulation_tags":["standard","long"],"duration":0.6319444444444444,"velocity":51.74190670644035},
{"position":502.6458333333333,"instrument":"TheGrandeurPiano","level2":20,"level3":null,"pitch":74,"articulation":"standard","articulation_tags":["standard","long"],"duration":0.4305555555555556,"velocity":51.74190670644035},
{"position":503.3020833333333,"instrument":"TheGrandeurPiano","level2":20,"level3":null,"pitch":75,"articulation":"standard","articulation_tags":["standard","long"],"duration":0.4722222222222222,"velocity":48.98708427879589},
{"position":503.3125,"instrument":"TheGrandeurPiano","level2":20,"level3":null,"pitch":75,"articulation":"standard","articulation_tags":["standard","long"],"duration":0.5625,"velocity":49.28200915842997},
{"position":504.0,"instrument":"TheGrandeurPiano","level2":20,"level3":null,"pitch":75,"articulation":"standard","articulation_tags":["standard","long"],"duration":0.5208333333333334,"velocity":49.28200915842997},
{"position":504.1458333333333,"instrument":"TheGrandeurPiano","level2":20,"level3":null,"pitch":75,"articulation":"standard","articulation_tags":["standard","long"],"duration":0.5138888888888888,"velocity":46.98017931597241},
{"position":504.78125,"instrument":"TheGrandeurPiano","level2":20,"level3":null,"pitch":76,"articulation":"standard","articulation_tags":["standard","long"],"duration":0.6041666666666666,"velocity":46.98017931597241},
{"position":504.9270833333333,"instrument":"TheGrandeurPiano","level2":20,"level3":null,"pitch":76,"articulation":"standard","articulation_tags":["standard","long"],"duration":0.4861111111111111,"velocity":47.293904806168484},
{"position":505.65625,"instrument":"TheGrandeurPiano","level2":20,"level3":null,"pitch":76,"articulation":"standard","articulation_tags":["standard","long"],"duration":0.4652777777777778,"velocity":45.59960514539564},
{"position":505.6875,"instrument":"TheGrandeurPiano","level2":20,"level3":null,"pitch":76,"articulation":"standard","articulation_tags":["standard","long"],"duration":0.75,"velocity":45.59960514539564},
{"position":505.9895833333333,"instrument":"CorAnglais","level2":20,"level3":2,"pitch":61,"articulation":"tenuto","articulation_tags":["tenuto","t","short"],"duration":0.125,"velocity":85.33129222197971},
{"position":506.3645833333333,"instrument":"TheGrandeurPiano","level2":20,"level3":null,"pitch":76,"articulation":"standard","articulation_tags":["standard","long"],"duration":0.4513888888888889,"velocity":45.91333063559172},
{"position":506.8125,"instrument":"TheGrandeurPiano","level2":20,"level3":null,"pitch":77,"articulation":"standard","articulation_tags":["standard","long"],"duration":1.1388888888888888,"velocity":45.11308902817924},
{"position":507.0416666666667,"instrument":"TheGrandeurPiano","level2":20,"level3":null,"pitch":77,"articulation":"standard","articulation_tags":["standard","long"],"duration":0.4444444444444444,"velocity":45.42681451837532},
{"position":507.7083333333333,"instrument":"TheGrandeurPiano","level2":20,"level3":null,"pitch":77,"articulation":"standard","articulation_tags":["standard","long"],"duration":0.4375,"velocity":42.35066216114844},
{"position":508.2708333333333,"instrument":"Viola","level2":20,"level3":1,"pitch":64,"articulation":"collegno","articulation_tags":["collegno","cl","short"],"duration":0.125,"velocity":83.97665665900438},
{"position":508.375,"instrument":"TheGrandeurPiano","level2":20,"level3":null,"pitch":77,"articulation":"standard","articulation_tags":["standard","long"],"duration":0.4375,"velocity":44.06852103053522},
{"position":508.5208333333333,"instrument":"TheGrandeurPiano","level2":20,"level3":null,"pitch":77,"articulation":"standard","articulation_tags":["standard","long"],"duration":2.2125984251968505,"velocity":44.06852103053522},
{"position":509.03125,"instrument":"TheGrandeurPiano","level2":20,"level3":null,"pitch":77,"articulation":"standard","articulation_tags":["standard","long"],"duration":0.4375,"velocity":44.3822465207313},
{"position":509.6875,"instrument":"TheGrandeurPiano","level2":20,"level3":null,"pitch":77,"articulation":"standard","articulation_tags":["standard","long"],"duration":0.4444444444444444,"velocity":43.29183863173668},
{"position":510.3645833333333,"instrument":"TheGrandeurPiano","level2":20,"level3":null,"pitch":77,"articulation":"standard","articulation_tags":["standard","long"],"duration":0.4513888888888889,"velocity":43.60556412193276},
{"position":511.0416666666667,"instrument":"TheGrandeurPiano","level2":20,"level3":null,"pitch":77,"articulation":"standard","articulation_tags":["standard","long"],"duration":0.4652777777777778,"velocity":45.32342299131953},
{"position":511.7395833333333,"instrument":"TheGrandeurPiano","level2":20,"level3":null,"pitch":77,"articulation":"standard","articulation_tags":["standard","long"],"duration":0.4791666666666667,"velocity":48.423134557160346},
{"position":512.4583333333334,"instrument":"TheGrandeurPiano","level2":20,"level3":null,"pitch":77,"articulation":"standard","articulation_tags":["standard","long"],"duration":0.5,"velocity":48.73686004735642},
{"position":512.5208333333334,"instrument":"TheGrandeurPiano","level2":20,"level3":null,"pitch":77,"articulation":"standard","articulation_tags":["standard","long"],"duration":1.25,"velocity":48.73686004735642},
{"position":513.2083333333334,"instrument":"TheGrandeurPiano","level2":20,"level3":null,"pitch":77,"articulation":"standard","articulation_tags":["standard","long"],"duration":0.5277777777777778,"velocity":49.04742394145547},
{"position":514.0,"instrument":"TheGrandeurPiano","level2":20,"level3":null,"pitch":77,"articulation":"standard","articulation_tags":["standard","long"],"duration":0.5694444444444444,"velocity":51.76932556352412},
{"position":514.3645833333334,"instrument":"Bassoon","level2":20,"level3":2,"pitch":62,"articulation":"tenuto","articulation_tags":["tenuto","t","short"],"duration":0.125,"velocity":79.92416443382196},
{"position":514.3958333333334,"instrument":"TheGrandeurPiano","level2":20,"level3":null,"pitch":76,"articulation":"standard","articulation_tags":["standard","long"],"duration":0.8680555555555556,"velocity":51.76932556352412},
{"position":514.8541666666666,"instrument":"TheGrandeurPiano","level2":20,"level3":null,"pitch":76,"articulation":"standard","articulation_tags":["standard","long"],"duration":0.625,"velocity":52.063443210582946},
{"position":515.5,"instrument":"CorAnglais","level2":20,"level3":1,"pitch":64,"articulation":"staccato","articulation_tags":["staccato","st","short"],"duration":0.125,"velocity":78.9804647704875},
{"position":515.6979166666666,"instrument":"TheGrandeurPiano","level2":20,"level3":null,"pitch":76,"articulation":"standard","articulation_tags":["standard","long"],"duration":0.7222222222222222,"velocity":52.57916331558583},
{"position":515.7916666666666,"instrument":"TheGrandeurPiano","level2":20,"level3":null,"pitch":76,"articulation":"standard","articulation_tags":["standard","long"],"duration":0.7083333333333334,"velocity":52.87328096264466},
{"position":516.78125,"instrument":"TheGrandeurPiano","level2":20,"level3":null,"pitch":75,"articulation":"standard","articulation_tags":["standard","long"],"duration":0.6458333333333334,"velocity":54.28200915842998},
{"position":516.84375,"instrument":"TheGrandeurPiano","level2":20,"level3":null,"pitch":75,"articulation":"standard","articulation_tags":["standard","long"],"duration":0.8541666666666666,"velocity":54.5761268054888},
{"position":517.7604166666666,"instrument":"TheGrandeurPiano","level2":20,"level3":null,"pitch":75,"articulation":"standard","articulation_tags":["standard","long"],"duration":0.5972222222222222,"velocity":54.5761268054888},
{"position":518.125,"instrument":"TheGrandeurPiano","level2":20,"level3":null,"pitch":75,"articulation":"standard","articulation_tags":["standard","long"],"duration":1.2083333333333333,"velocity":54.870244452547624},
{"position":518.65625,"instrument":"TheGrandeurPiano","level2":20,"level3":null,"pitch":74,"articulation":"standard","articulation_tags":["standard","long"],"duration":0.5694444444444444,"velocity":56.89492128073326},
{"position":519.5104166666666,"instrument":"TheGrandeurPiano","level2":20,"level3":null,"pitch":74,"articulation":"standard","articulation_tags":["standard","long"],"duration":0.5486111111111112,"velocity":56.89492128073326},
{"position":519.84375,"instrument":"CorAnglais","level2":20,"level3":2,"pitch":62,"articulation":"tenuto","articulation_tags":["tenuto","t","short"],"duration":0.125,"velocity":74.92228745138083},
{"position":519.9375,"instrument":"TheGrandeurPiano","level2":20,"level3":null,"pitch":74,"articulation":"standard","articulation_tags":["standard","long"],"duration":2.0972222222222223,"velocity":55.16436209960645},
{"position":520.0833333333334,"instrument":"CorAnglais","level2":20,"level3":1,"pitch":63,"articulation":"staccato","articulation_tags":["staccato","st","short"],"duration":0.125,"velocity":74.83503525422593},
{"position":520.3229166666666,"instrument":"TheGrandeurPiano","level2":20,"level3":null,"pitch":73,"articulation":"standard","articulation_tags":["standard","long"],"duration":0.5347222222222222,"velocity":55.16436209960645},
{"position":520.3958333333334,"instrument":"CorAnglais","level2":20,"level3":1,"pitch":63,"articulation":"tenuto","articulation_tags":["tenuto","t","short"],"duration":0.125,"velocity":74.12627644066944},
{"position":521.125,"instrument":"TheGrandeurPiano","level2":20,"level3":null,"pitch":73,"articulation":"standard","articulation_tags":["standard","long"],"duration":0.5208333333333334,"velocity":55.16436209960645},
{"position":521.90625,"instrument":"TheGrandeurPiano","level2":20,"level3":null,"pitch":72,"articulation":"standard","articulation_tags":["standard","long"],"duration":0.5208333333333334,"velocity":55.16436209960645},
{"position":522.4895833333334,"instrument":"CorAnglais","level2":20,"level3":1,"pitch":63,"articulation":"tenuto","articulation_tags":["tenuto","t","short"],"duration":0.125,"velocity":72.70875881355649},
{"position":522.6875,"instrument":"TheGrandeurPiano","level2":20,"level3":null,"pitch":72,"articulation":"standard","articulation_tags":["standard","long"],"duration":0.2638888888888889,"velocity":55.16436209960645},
{"position":522.9375,"instrument":"CorAnglais","level2":20,"level3":2,"pitch":63,"articulation":"tenuto","articulation_tags":["tenuto","t","short"],"duration":0.125,"velocity":72.0},
